<?xml version="1.0" encoding="utf-8"?>
<!-- Generator: Adobe Illustrator 25.4.1, SVG Export Plug-In . SVG Version: 6.00 Build 0)  -->
<svg version="1.1" xmlns="http://www.w3.org/2000/svg" xmlns:xlink="http://www.w3.org/1999/xlink" x="0px" y="0px"
	 viewBox="0 0 1080 1080" style="enable-background:new 0 0 1080 1080;" xml:space="preserve">
<style type="text/css">
	.st0{clip-path:url(#SVGID_00000129174453172010307560000008560395656381405610_);fill:#C4C4C4;}
	.st1{clip-path:url(#SVGID_00000129174453172010307560000008560395656381405610_);fill:#7F7F7F;}
	.st2{opacity:0.5;clip-path:url(#SVGID_00000129174453172010307560000008560395656381405610_);fill:#7F7F7F;}
	.st3{clip-path:url(#SVGID_00000129174453172010307560000008560395656381405610_);fill:#F4F4F4;}
	.st4{opacity:0.5;clip-path:url(#SVGID_00000129174453172010307560000008560395656381405610_);}
	.st5{fill:#F4F4F4;}
	.st6{clip-path:url(#SVGID_00000129174453172010307560000008560395656381405610_);fill:#FFFFFF;}
	.st7{clip-path:url(#SVGID_00000129174453172010307560000008560395656381405610_);}
	.st8{fill:#FFFFFF;}
	.st9{fill:#D3D3D3;}
	.st10{fill:#7F7F7F;}
</style>
<g id="Capa_3">
</g>
<g id="Capa_2">
	<g>
		<defs>
			<circle id="SVGID_1_" cx="541.6" cy="539" r="540"/>
		</defs>
		<clipPath id="SVGID_00000049222782923186274840000000303858993008874903_">
			<use xlink:href="#SVGID_1_"  style="overflow:visible;"/>
		</clipPath>
		
			<circle style="clip-path:url(#SVGID_00000049222782923186274840000000303858993008874903_);fill:#C4C4C4;" cx="541.6" cy="539" r="540"/>
		<path style="clip-path:url(#SVGID_00000049222782923186274840000000303858993008874903_);fill:#7F7F7F;" d="M636.9,508
			c0,0,10.8-4,17.5,9.4c0,0,25.6,7.4,28.3,13.5c2.7,6.1,12.8,12.1,12.8,12.1l32.3,118.6l-4,17.5c0,0,5.4,31.5,5.4,45
			s-5.1,72-32.1,102.9c0,0,0,124.7,9.9,151.3c10,26.9,30.3,95.7,31,101.7H356.7c0,0,16.2-34.4,32.3-112.5c0,0-1.3-0.7,5.4-54.6
			c0,0-3.4-70.7-8.1-109.8c-4.7-39.1-14.1-48.5-13.5-111.8c0,0-2.7-2-1.3-8.1c0,0,26.9-27.6,47.2-101.1s29.6-85.6,29.6-85.6
			s5.4-5.4,9.4-2.7c4,2.7,15.5-2.7,15.5-2.7s6.1-5.4,8.8-2.7l15.5,109.8l24.3,41.8l71.4,23.6l55.2-29l5.4-82.9L636.9,508z"/>
		<path style="opacity:0.5;clip-path:url(#SVGID_00000049222782923186274840000000303858993008874903_);fill:#7F7F7F;" d="
			M590.9,1080c-3.2-26-9.5-69.3-20.4-114.1c-17.4-71.4,63.6-125.4,48.2-144.6c-15.4-19.3-40.5-3.9-67.5-3.9s-57.9-28.9-57.9-92.6
			s51.8-66.9,51.8-66.9l-3.9-11.4l-19.5-6.4l-24.3-41.8L482,488.5c-2.7-2.7-8.8,2.7-8.8,2.7s-11.5,5.4-15.5,2.7
			c-4-2.7-9.4,2.7-9.4,2.7s-9.4,12.1-29.6,85.6s-47.2,101.1-47.2,101.1c-1.3,6.1,1.3,8.1,1.3,8.1c-0.7,63.3,8.8,72.8,13.5,111.8
			c4.7,39.1,8.1,109.8,8.1,109.8c-6.7,53.9-5.4,54.6-5.4,54.6c-16.2,78.2-32.3,112.5-32.3,112.5H590.9z"/>
		<path style="clip-path:url(#SVGID_00000049222782923186274840000000303858993008874903_);fill:#7F7F7F;" d="M508.3,350.4
			c0,0-6.7,24.9,7.4,53.9c0,0,3.4,22.2-10.1,34.4c-13.5,12.1-12.8,44.5-12.8,44.5l40.4-43.8l-17.5-88.9H508.3z"/>
		<path style="opacity:0.5;clip-path:url(#SVGID_00000049222782923186274840000000303858993008874903_);fill:#7F7F7F;" d="
			M508.3,350.4c0,0-6.7,24.9,7.4,53.9c0,0,3.4,22.2-10.1,34.4c-13.5,12.1-12.8,44.5-12.8,44.5l40.4-43.8l-17.5-88.9H508.3z"/>
		<path style="clip-path:url(#SVGID_00000049222782923186274840000000303858993008874903_);fill:#F4F4F4;" d="M630.2,446
			c0,0-17.5,24.9-4,50.5c0,0,21.6,19.5,24.9,32.3c3.4,12.8,42.4,133.4-55.9,138.1c0,0-94.3,10.1-108.5-99c0,0-4.7-64-4.7-79.5
			c0,0,33.7-24.3,33.7-51.2s-1.3-67.4-1.3-67.4l115.9,55.9V446z"/>
		<path style="clip-path:url(#SVGID_00000049222782923186274840000000303858993008874903_);fill:#F4F4F4;" d="M515.7,437.3
			c0,26.9-33.7,51.2-33.7,51.2c0,15.5,4.7,79.5,4.7,79.5c7,53.8,33.4,78.6,58.4,90c-80.6-64.6-19-130.6-20.9-178.1
			c-1.9-48.2,58.8-28.9,58.8-28.9c-37.6-13.5-44.4-62.7-46.3-69.4c-0.1-0.2-0.1-0.5-0.2-0.9l-22.3-10.7
			C514.3,369.9,515.7,410.3,515.7,437.3z"/>
		<path style="clip-path:url(#SVGID_00000049222782923186274840000000303858993008874903_);fill:#F4F4F4;" d="M691.5,349.7
			c0,0-22.9,86.2-56.6,95.7c0,0-15.5,5.4-23.6,6.1c-8.1,0.7-36.4,2-56.6-13.5c-20.2-15.5-30.3-17.5-40.4-68c0,0-0.7-11.5-0.7-17.5
			c0,0-34.4-10.8-12.1-70.7l150.2-97l31.7,7.4l34.4,100.4L691.5,349.7z"/>
		<path style="clip-path:url(#SVGID_00000049222782923186274840000000303858993008874903_);fill:#F4F4F4;" d="M513.6,352.4
			c0,6.1,0.7,17.5,0.7,17.5c10.1,50.5,20.2,52.6,40.4,68c7.2,5.5,15.4,8.9,23.3,10.9c-33.2-15.8-39.5-60.9-41.3-67.3
			c-1.9-6.8,8.7-47.2,1-64.6c-7.7-17.4,35.7-78.1,35.7-78.1l-8.3,1.8l-63.6,41.1C479.3,341.6,513.6,352.4,513.6,352.4z"/>
		<path style="clip-path:url(#SVGID_00000049222782923186274840000000303858993008874903_);fill:#7F7F7F;" d="M501.5,281.6
			c0,0,22.4-142.2,164.4-103.8c32.3,8.8,103.1,109.8,25.6,171.8c0,0,1.3-18.2,6.7-26.9c5.4-8.8,14.8-61.3-10.8-76.1
			c0,0,0-29-14.1-52.6c0,0,11.6,21.9,11.3,50.2c0,0-126.3-58.5-164.2,68.4c0,0-7.7-4.4-6.4-16.5C515.3,284,512.3,279.3,501.5,281.6z
			"/>
		<path style="clip-path:url(#SVGID_00000049222782923186274840000000303858993008874903_);fill:#F4F4F4;" d="M682.8,530.9
			c0,0,73.4-7.4,132,18.9c0,0,16.2,10.8,30.3,12.1c14.1,1.3,53.9-3.4,83.5,22.2c0,0,12.1,4,20.2,4c0,0-4.7-15.5-5.4-31.7
			c0,0-13.5-89.6-63.3-124c0,0-29.6,9.4-56.6,8.8c-26.9-0.7-26.9,4.7-26.9,4.7s-19.5,6.7-21.6-7.4c0,0-0.7-8.1,4.7-14.1
			c0,0-13.5,2-14.8-8.8c0,0-13.5,4-10.8-11.5c0,0,21.6-35.7,30.3-44.5s28.3-4,28.3-4s67.4,24.9,78.8,28.3
			c11.5,3.4,37.7,20.9,48.5,39.1s46.5,57.9,46.5,57.9s62,74.1,80.2,121.3c0,0,16.8,21.6,3.4,35c0,0-18.9,17.5-20.9,20.2
			c-2,2.7-57.9,34.4-243.2,10.1c-20.6-2.7-69.4-27.6-82.2,11.5C723.9,679.1,727.2,617.8,682.8,530.9z"/>
		<path style="clip-path:url(#SVGID_00000049222782923186274840000000303858993008874903_);fill:#F4F4F4;" d="M448.3,496.6
			c0,0-6.1,2-8.8,0.7c-2.7-1.3-80.8-31-116.6-23.6c-35.7,7.4-63.3-1.3-63.3-1.3s-31-10.8-63.3-5.4c0,0-28.3-6.1-39.1-6.1
			c0,0,25.6-74.1,134.1-135.4l4.7-1.3c0,0,8.1,7.4,12.8,7.4c0,0,14.1,15.5,29.6,19.5c0,0,7.4,12.8,19.5,12.8c0,0,9.4,2,10.8,7.4
			c0,0,16.2,16.8,32.3,14.8c0,0,12.8,2,6.1-20.9c0,0,22.2-5.4,17.5-21.6l-4-49.2c0,0,4-12.1-22.9-13.5
			c-26.9-1.3-76.8-11.5-81.5-11.5s-27.6-8.8-65.4,15.5s-93.6,49.9-93.6,49.9S72.4,383.4,43.4,415c-9.2,10-35.7,22.2-38.4,38.4
			c-2.7,16.2,10.8,24.9,10.8,24.9s6.1,31,34.4,38.4c28.3,7.4,75.5,35.7,75.5,35.7s110.5,47.8,192,47.2c0,0,54.6,5.4,53.9,83.5
			c0,0,28.3-0.7,43.1-70.1c0,0,25.6-68,26.3-79.5S448.3,496.6,448.3,496.6z"/>
		<path style="clip-path:url(#SVGID_00000049222782923186274840000000303858993008874903_);fill:#F4F4F4;" d="M721.4,646.2
			c3.1,20.9,2.5,32.9,2.5,32.9c12.8-39.1,61.6-14.1,82.2-11.5c100.8,13.2,163.3,9.8,199.6,3.6c-32.8-0.6-159.7-3.6-178.7-11.4
			C809.2,652.5,743.8,620.5,721.4,646.2z"/>
		<g style="opacity:0.5;clip-path:url(#SVGID_00000049222782923186274840000000303858993008874903_);">
			<path class="st5" d="M943.6,587.8c-0.1,0-0.2,0-0.3,0C943.4,587.7,943.5,587.7,943.6,587.8C943.6,587.8,943.6,587.8,943.6,587.8z
				"/>
			<path class="st5" d="M943.3,587.7c-0.2,0-0.4,0-0.6,0C942.9,587.7,943.2,587.7,943.3,587.7z"/>
			<path class="st5" d="M897.9,431.1c-3.9-4.2-18.1-18.2-32.4-18.5c-16.7-0.4-18.4-10.7-18.4-10.7c-1.3,3.4-7.7,6.4-7.7,6.4
				c-39.4,18.4-20.1,27.4-20.1,27.4c-12.9,2.1-24.4-6.9-24.4-6.9c-10.9,4.7-15.8-1.3-16.6-2.4c-3.7,5.7-3.2,12.2-3.2,12.2
				c2,14.1,21.6,7.4,21.6,7.4s0-5.4,26.9-4.7c8.7,0.2,17.6-0.6,25.8-1.8c0.3-0.1,0.7-0.1,1-0.2c0.3-0.1,0.7-0.1,1-0.2
				c0.4-0.1,0.7-0.1,1.1-0.2c0.6-0.1,1.1-0.2,1.6-0.3c0.3-0.1,0.6-0.1,0.9-0.2c0.4-0.1,0.7-0.1,1.1-0.2c0.3-0.1,0.6-0.1,0.8-0.2
				c0.6-0.1,1.2-0.2,1.8-0.3c0.3,0,0.5-0.1,0.8-0.1c0.4-0.1,0.7-0.1,1-0.2c0.2,0,0.5-0.1,0.7-0.1c0.7-0.1,1.3-0.3,1.9-0.4
				c0.1,0,0.3-0.1,0.4-0.1c0.3-0.1,0.7-0.1,1-0.2c0.2,0,0.4-0.1,0.6-0.1c0.3-0.1,0.6-0.1,1-0.2c0.1,0,0.2,0,0.3-0.1
				c0.6-0.1,1.2-0.3,1.8-0.4c0.2,0,0.4-0.1,0.5-0.1c0.3-0.1,0.6-0.1,0.9-0.2c0.2,0,0.3-0.1,0.5-0.1c0.5-0.1,1-0.2,1.4-0.4
				c0.2,0,0.3-0.1,0.5-0.1c0.3-0.1,0.5-0.1,0.7-0.2c0.1,0,0.3-0.1,0.4-0.1c0.4-0.1,0.8-0.2,1.2-0.3c0.1,0,0.3-0.1,0.4-0.1
				c0.2-0.1,0.4-0.1,0.6-0.2c0.1,0,0.3-0.1,0.4-0.1c0.3-0.1,0.6-0.2,0.8-0.2c0.1,0,0.3-0.1,0.4-0.1c0.2,0,0.3-0.1,0.4-0.1
				c0.1,0,0.2-0.1,0.3-0.1c0.1,0,0.2-0.1,0.3-0.1c0.2-0.1,0.4-0.1,0.5-0.2c0.1,0,0.2,0,0.2-0.1c0.1,0,0.2-0.1,0.3-0.1
				c0.1,0,0.1,0,0.2-0.1c0.1,0,0.2-0.1,0.3-0.1c0.1,0,0.1,0,0.1,0c0.1,0,0.1,0,0.1,0c0,0,0,0,0,0c0,0,0.1,0,0.1,0
				c1.1,0.7,2.1,1.5,3.2,2.3c0.2,0.2,0.4,0.3,0.7,0.5c1,0.8,2.1,1.6,3.1,2.5h0c44.2,37.4,56.4,118.7,56.4,118.7
				c0.7,16.2,5.4,31.7,5.4,31.7c15.8,1.3,26.6,6.4,26.6,6.4C958.6,511.9,919.2,450.5,897.9,431.1z"/>
			<path class="st5" d="M942.2,587.6c-0.2,0-0.2,0-0.3,0C942,587.6,942.1,587.6,942.2,587.6z"/>
		</g>
		<path style="clip-path:url(#SVGID_00000049222782923186274840000000303858993008874903_);fill:#F4F4F4;" d="M339.7,581.4
			c-77.7-42.6-82.1,5.2-306.5-73.5c4.5,3.8,10.1,7,16.9,8.8c28.3,7.4,75.5,35.7,75.5,35.7s110.5,47.8,192,47.2
			c0,0,54.2,5.4,53.9,82.9C382.4,664.7,403.6,616.5,339.7,581.4z"/>
		<path style="opacity:0.5;clip-path:url(#SVGID_00000049222782923186274840000000303858993008874903_);fill:#7F7F7F;" d="
			M541.6,251c0,0,0-13.5,16.1-27.6c0,0-14.8-4.5-21.2,1.9c-6.3,6.3,2.1-16.2,10.9-28c-37.6,32.6-45.8,84.4-45.8,84.4
			c10.8-2.4,13.8,2.4,12.5,14.5c-1.3,12.1,6.4,16.5,6.4,16.5c10.9-39.4,31.9-61,55.3-72.2l0.6-1C576.3,239.4,554.4,242.6,541.6,251z
			"/>
		<path style="clip-path:url(#SVGID_00000049222782923186274840000000303858993008874903_);fill:#FFFFFF;" d="M586.4,698
			c-3.6,1.6-6,5.2-6,9.2l0,0v70c0,1.9-1.6,3.5-3.5,3.5c-0.3,0-0.7-0.1-1-0.1c-15.8-4.8-26.7-19.3-26.7-35.9c0-0.5,0-1,0-1.5
			c0-0.2,0-0.3,0-0.5c0-0.4,0-0.8,0.1-1.2v-0.3c0.1-1,0.2-2,0.4-3l0.1-0.3c0.1-0.4,0.2-0.9,0.3-1.3c0-0.1,0-0.2,0-0.2
			c0.2-1,0.5-2,0.8-3l0.1-0.2c0.2-0.5,0.3-0.9,0.5-1.4l0,0c0.4-1,0.8-2,1.2-2.9c0-0.1,0-0.1,0.1-0.2c0.5-0.9,0.9-1.9,1.5-2.8v0
			c0.2-0.4,0.5-0.8,0.7-1.2l0.1-0.2c0.2-0.4,0.5-0.7,0.8-1.1l0.1-0.1c0.3-0.4,0.6-0.8,0.9-1.2l0.3-0.3c1.3-1.6,2.7-3.1,4.2-4.6
			c0.6-0.6,1.3-1.1,2-1.7c1.8-1.4,2.2-4,0.8-5.9c-0.1-0.1-0.2-0.3-0.4-0.4l-3.1-3.1c-1.5-1.5-3.9-1.6-5.6-0.3
			c-2.4,1.9-4.5,4-6.5,6.3l0,0l-0.1,0.1c-0.5,0.5-0.9,1-1.3,1.6l0,0c-0.4,0.5-0.8,1-1.2,1.6l-0.2,0.3c-0.8,1.1-1.5,2.2-2.2,3.4
			l-0.2,0.3c-0.7,1.1-1.3,2.3-1.9,3.5c-0.1,0.1-0.1,0.2-0.2,0.3c-0.3,0.6-0.5,1.1-0.8,1.7c0,0.1,0,0.1-0.1,0.2
			c-0.3,0.6-0.5,1.2-0.8,1.8c0,0.1-0.1,0.3-0.1,0.4c-0.2,0.5-0.4,1.1-0.6,1.7l-0.1,0.3c-0.2,0.6-0.4,1.3-0.6,1.9
			c0,0.1-0.1,0.2-0.1,0.4c-0.1,0.6-0.3,1.1-0.4,1.6c0,0.1-0.1,0.3-0.1,0.4c-0.1,0.6-0.3,1.3-0.4,2c0,0.1,0,0.2,0,0.3
			c-0.1,0.6-0.2,1.2-0.3,1.8c0,0.2,0,0.3-0.1,0.5c-0.1,0.7-0.2,1.3-0.2,2c0,0.1,0,0.2,0,0.2c0,0.6-0.1,1.2-0.1,1.8
			c0,0.2,0,0.4,0,0.5c0,0.7,0,1.4,0,2.1l0,0c0,24.1,17.3,44.8,41,49.2c1.7,0.3,2.9,1.7,2.9,3.4v18.9c0,1.9,1.6,3.5,3.5,3.5h5.6
			c1.9,0,3.5-1.6,3.5-3.5v-18.9c0-1.7,1.2-3.1,2.8-3.4c27.2-5,45.2-31.1,40.2-58.3c-3.3-18.2-16.5-33.1-34.1-38.7
			C596.8,695.4,591.3,695.8,586.4,698L586.4,698z M620.6,761c-4.6,9.5-13,16.7-23.1,19.7c-1.8,0.5-3.8-0.5-4.3-2.4
			c-0.1-0.3-0.1-0.6-0.1-1v-61.6c0-3.3,2.7-6,6-6c0.8,0,1.6,0.2,2.3,0.5c19.1,8,28.1,29.9,20.1,48.9
			C621.1,759.8,620.9,760.4,620.6,761L620.6,761z"/>
		<g style="clip-path:url(#SVGID_00000049222782923186274840000000303858993008874903_);">
			<g>
				<path class="st8" d="M469.8,866.5c-0.6-0.1-1.1-0.2-1.7-0.3c-0.7-0.1-1.4-0.2-2.2-0.2c-0.5,0-1.3,0-1.6,0.5
					c-0.5,0.8-0.4,4.3-0.4,5.1c1.5,0,3,0,4.5,0.1c1,0,1.5,0.2,1.5,1.4c0,0.7,0,1.3,0,2c0,1.5-0.3,1.9-1.6,1.9c-1.5,0-2.9,0-4.4-0.1
					c-0.1,5.6-0.1,11.2-0.2,16.8c0,1.3-0.2,2.3-1.6,2.3c-0.9,0-1.9,0-2.8,0c-1.2,0-1.3-0.8-1.3-2c0.1-5.7,0.1-11.4,0.2-17
					c-0.5,0-0.9,0-1.4,0c-1,0-1.1-0.9-1.1-1.8c0-0.7,0-1.5,0-2.2c0-1.8,1.3-1.4,2.5-1.4c0-0.7,0-1.4,0-2.1c0-2.2,0.1-4.2,1.2-6
					c1.9-2.8,4.9-2.9,7.8-2.9c0.9,0,3.1,0,3.7,1c0.2,0.3,0.2,0.7,0.2,1.1c0,0.1,0,0.2,0,0.4C471.2,864,471.2,866.5,469.8,866.5z
					 M479,868.1c-0.6,0-1.1,0-1.7,0c-1.6,0-2.4-0.3-2.4-2.3c0-0.6,0-1.2,0-1.8c0-1.6,0.6-2.2,2-2.2c0.7,0,1.4,0,2.1,0
					c1,0,1.8,0.8,1.8,1.9c0,0.1,0,0.2,0,0.3c0,0.6,0,1.2,0,1.8C480.8,867.2,480.4,868.1,479,868.1z M478.8,896.2c-0.6,0-1.1,0-1.7,0
					c-1.6,0-2.4-0.3-2.4-2.3c0.1-6.6,0.1-13.3,0.2-19.9c0-1.6,0.6-2.2,2-2.2c0.7,0,1.4,0,2.1,0c1,0,1.8,0.8,1.8,1.9
					c0,0.1,0,0.2,0,0.3c0,6.6-0.1,13.3-0.1,19.9C480.7,895.4,480.2,896.2,478.8,896.2L478.8,896.2z"/>
				<path class="st8" d="M495.1,896.9c-2.2,0-4.3-0.1-6.5-0.4c-1.4-0.2-1.3-0.9-1.3-2.4c0-0.3,0-0.6,0-0.9c0-1.1,0.1-2.3,1.3-2.3
					c0.8,0.1,1.6,0.2,2.4,0.3c1.5,0.2,3.1,0.3,4.7,0.3c1.6,0,2.3,0,2.3-1.9c0.1-0.6,0-1.2-0.3-1.7c-0.4-0.5-4.3-1.7-5.1-2
					c-0.9-0.3-1.7-0.7-2.6-1.2c-2.3-1.3-3.2-2.8-3.2-5.8c0-7.9,4.7-7.7,10.3-7.7c1.1,0,2.2,0,3.3,0.1c1.6,0.2,2.3,0.5,2.3,2.5
					c0,1.5,0.1,3.2-1.7,3.2c-0.8,0-1.6-0.2-2.3-0.2c-1.2-0.2-2.4-0.2-3.6-0.2c-1.7,0-2.6-0.3-2.7,2c0,0.4,0,0.7,0.2,1
					c0.4,0.7,4.7,2,5.7,2.4c3.5,1.3,5.2,2.7,5.2,7.2C503.6,896,500.7,897,495.1,896.9z"/>
				<path class="st8" d="M513.9,868.2c-0.6,0-1.1,0-1.7,0c-1.6,0-2.4-0.3-2.4-2.3c0-0.6,0-1.2,0-1.8c0-1.6,0.6-2.2,2-2.3
					c0.7,0,1.4,0,2.1,0c1,0,1.8,0.9,1.8,2c0,0.1,0,0.2,0,0.3c0,0.6,0,1.2,0,1.8C515.7,867.4,515.3,868.2,513.9,868.2z M513.9,896.3
					c-0.6,0-1.1,0-1.7,0c-1.6,0-2.4-0.3-2.4-2.3c0-6.6,0-13.3,0-19.9c0-1.6,0.6-2.3,2-2.3c0.7,0,1.4,0,2.1,0c1,0,1.8,0.9,1.8,2
					c0,0.1,0,0.2,0,0.3c0,6.6,0,13.3,0,19.9C515.8,895.5,515.3,896.3,513.9,896.3L513.9,896.3z"/>
				<path class="st8" d="M535.8,896.7c-1.3,0.2-2.6,0.2-3.8,0.2c-8.9,0.1-10.4-3.4-10.4-12.9c0-9.5,1.4-13,10.2-13.1
					c1.3,0,2.6,0.1,3.8,0.2c1.4,0.1,2.5,0,2.5,1.7c0,0,0,0.1,0,0.1c0,1.3,0,4-1.6,4c-0.6,0-1.2-0.1-1.8-0.2
					c-1.4-0.2-2.8-0.4-4.2-0.4c-1.9,0-2.2,0.4-2.6,2.4c-0.3,1.7-0.4,3.4-0.3,5.1c0,1.6,0,3.3,0.2,4.9c0.2,2.3,0.9,2.5,2.9,2.5
					c1.4,0,2.9-0.2,4.3-0.4c0.6-0.1,1.2-0.2,1.8-0.2c0.4,0,0.8,0.1,1.1,0.5c0.4,0.4,0.6,2.9,0.6,3.5
					C538.3,896.6,537.2,896.5,535.8,896.7z"/>
				<path class="st8" d="M559.9,895.9c-0.8,0-1.7,0-2.5,0c-1,0-1.3-0.8-1.3-1.8c-2,1.6-4.3,2.5-6.7,2.6c-4.4,0.1-6.5-2.6-6.5-7.5
					c0-5.6,2.9-7.5,7.3-8.1c1.9-0.3,3.8-0.5,5.7-0.5c0-2,0.2-4.9-2.3-4.9c-2.2,0.1-4.4,0.5-6.5,1.2c-0.4,0.1-0.7,0.2-1.1,0.2
					c-1.6,0-1.3-1.8-1.3-3.1c-0.2-1,0.4-1.9,1.2-2.2c2.4-0.7,4.9-1.1,7.4-1.1c2.2,0,4.9,0.3,6.5,2.3c1.8,2.2,1.8,5.4,1.8,8.3
					c0.1,4.1,0.1,8.3,0.2,12.4C561.7,895.2,561.3,895.9,559.9,895.9z M556,885.2c-0.7,0-1.5-0.1-2.2-0.1c-1,0-1.9,0.1-2.8,0.2
					c-1.9,0.3-2.6,1-2.6,3.3c0,1.2,0.2,3.4,1.7,3.4c2.2-0.1,4.3-1.1,6-2.6C556,888,556,886.6,556,885.2z"/>
				<path class="st8" d="M571.9,895.7c-0.5,0-1.1,0-1.6,0c-1.6,0-2.4-0.2-2.4-2.3c-0.1-10.2-0.3-20.5-0.4-30.7
					c0-1.6,0.6-2.2,1.9-2.2c0.7,0,1.3,0,2,0c0.9-0.1,1.7,0.8,1.8,1.8c0,0.1,0,0.2,0,0.3c0.2,10.2,0.3,20.4,0.5,30.7
					C573.7,894.8,573.4,895.7,571.9,895.7z"/>
				<path class="st8" d="M593.7,895.7c-1.3,0.2-2.6,0.3-3.9,0.3c-8.9,0.2-10.4-3.2-10.6-12.7c-0.2-9.5,1.3-13,10.1-13.2
					c1.3,0,2.6,0,3.8,0.2c1.4,0.1,2.5,0,2.5,1.7c0,0,0,0.1,0,0.1c0,1.3,0.1,4-1.5,4c-0.6,0-1.2-0.1-1.8-0.2
					c-1.4-0.2-2.8-0.3-4.2-0.3c-1.9,0-2.3,0.5-2.6,2.5c-0.2,1.7-0.3,3.4-0.3,5.1c0,1.6,0.1,3.3,0.3,4.9c0.2,2.3,0.9,2.5,2.9,2.5
					c1.4-0.1,2.9-0.2,4.3-0.5c0.6-0.1,1.2-0.2,1.8-0.2c0.4-0.1,0.8,0.1,1.1,0.5c0.4,0.4,0.6,2.9,0.6,3.5
					C596.2,895.5,595.1,895.5,593.7,895.7z"/>
				<path class="st8" d="M611.5,895.4c-7.6,0.2-10.5-4.6-10.7-12.6c-0.2-8,2.5-13.1,10.1-13.3c7.6-0.2,10.4,4.6,10.7,12.7
					C621.8,890.2,619.2,895.2,611.5,895.4z M614.8,876.4c-0.9-1.7-2.2-1.6-3.7-1.5c-1.5,0-2.9,0.1-3.7,1.8c-0.8,1.7-0.8,4.2-0.7,6
					c0,1.8,0.2,4.3,1,5.9c0.8,1.6,2.3,1.5,3.7,1.5c1.5,0,2.9,0,3.7-1.7c0.8-1.7,0.7-4.2,0.7-6C615.7,880.6,615.6,878,614.8,876.4
					C614.8,876.4,614.8,876.4,614.8,876.4z"/>
				<path class="st8" d="M643.7,893.6c-0.8,0-1.7,0.1-2.5,0.1c-1,0-1.3-0.7-1.4-1.8c-1.9,1.6-4.2,2.6-6.6,2.8
					c-4.4,0.2-6.6-2.5-6.7-7.4c-0.2-5.6,2.7-7.6,7.1-8.3c1.9-0.4,3.8-0.6,5.7-0.6c-0.1-2,0.1-4.9-2.4-4.8c-2.2,0.2-4.4,0.6-6.5,1.3
					c-0.4,0.1-0.7,0.2-1.1,0.2c-1.6,0.1-1.4-1.7-1.4-3c-0.2-1,0.3-1.9,1.2-2.2c2.4-0.8,4.9-1.2,7.3-1.3c2.2-0.1,4.9,0.2,6.5,2.1
					c1.8,2.2,1.9,5.3,2,8.2c0.1,4.1,0.3,8.3,0.4,12.4C645.4,892.8,645,893.5,643.7,893.6z M639.5,882.9c-0.7,0-1.5,0-2.2,0
					c-1,0-1.9,0.1-2.8,0.3c-1.9,0.4-2.6,1.1-2.6,3.3c0,1.2,0.3,3.4,1.8,3.4c2.2-0.2,4.3-1.2,6-2.8
					C639.6,885.7,639.6,884.3,639.5,882.9z"/>
				<path class="st8" d="M665.2,893c-1.3,0.2-2.6,0.3-3.8,0.4c-8.9,0.4-10.4-3-10.8-12.5c-0.3-9.5,1-13,9.8-13.5
					c1.3-0.1,2.6,0,3.8,0.1c1.4,0.1,2.5-0.1,2.5,1.6c0,0,0,0.1,0,0.1c0,1.3,0.1,4-1.5,4.1c-0.6,0-1.2,0-1.8-0.1
					c-1.4-0.2-2.8-0.2-4.3-0.2c-1.9,0.1-2.2,0.5-2.6,2.5c-0.2,1.7-0.3,3.4-0.2,5.1c0.1,1.6,0.2,3.3,0.3,4.9c0.3,2.3,1,2.5,2.9,2.4
					c1.4-0.1,2.9-0.3,4.3-0.6c0.6-0.1,1.2-0.2,1.8-0.3c0.4-0.1,0.8,0.1,1.1,0.5c0.4,0.4,0.6,2.8,0.7,3.5
					C667.7,892.9,666.6,892.8,665.2,893z"/>
				<path class="st8" d="M689.7,891.4c-0.8,0-1.6,0.1-2.4,0.1c-1.3,0.1-1.7-0.9-1.7-2.2c-0.2-4.4-0.4-8.7-0.5-13.1
					c0-0.7-0.1-3.5-0.5-4c-0.4-0.4-1-0.4-1.5-0.3c-2,0.2-3.9,1.2-5.4,2.6c0.2,5.1,0.4,10.1,0.6,15.2c0.1,1.4-0.3,2.3-1.7,2.4
					c-0.8,0-1.6,0.1-2.4,0.1c-1.2,0.1-1.7-0.7-1.7-1.9c-0.4-10.3-0.8-20.7-1.2-31c-0.1-1.6,0.5-2.2,1.9-2.3c0.7,0,1.3-0.1,2-0.1
					c0.9-0.1,1.8,0.7,1.8,1.8c0,0.1,0,0.2,0,0.3c0.1,3.2,0.3,6.3,0.4,9.5c1.8-1.2,3.9-1.9,6-2.1c4.2-0.2,7,2,7.2,6.9
					c0.2,5.2,0.5,10.5,0.7,15.7C691.4,890.4,691.1,891.3,689.7,891.4z"/>
			</g>
		</g>
	</g>
</g>
<g id="Capa_4">
	<path class="st8" d="M634.9,406.4c0,0-5.9-0.7-8-2.4c-2.1-1.7-11-14.1-20.1-9.1c0,0-5.7-7.4-12.1-6.9c-6.4,0.4-21.6,0.8-27.9-5.1
		c0,0,1,16.9,26.3,26.3C618.3,418.6,631.7,412.3,634.9,406.4z"/>
	<g>
		<path class="st9" d="M634.6,406.5c0,0.1,0.1,0.1,0.1,0.1c0,0,0,0-0.1,0l-0.1,0l-0.3,0l-0.5,0l-1,0c-0.7,0-1.4-0.1-2.1-0.2
			c-1.4-0.2-2.8-0.5-4.2-1.2c-0.8-0.5-1.3-1-1.8-1.4l-1.5-1.4c-1-0.9-2-1.8-3-2.5c-2-1.5-4.1-3-6.3-3.6c-2.2-0.7-4.2-0.5-6.1,0.6
			c-1,0.5-2.1,0.3-2.8-0.5l-0.1-0.1c-1-1.2-2.2-2.4-3.4-3.5c-0.6-0.5-1.3-1-1.9-1.4c-0.7-0.5-1.3-0.8-2-1.1
			c-0.7-0.3-1.4-0.5-2.1-0.6c-0.6-0.1-1.7-0.1-2.6-0.1c-1.8-0.1-3.7-0.2-5.5-0.3l-2.7-0.2c-0.9-0.1-1.8-0.2-2.7-0.3
			c-1.8-0.2-3.6-0.5-5.5-0.8c-3.6-0.7-7.3-1.7-10.4-4.2l1.9-0.9c0.3,1.5,0.9,3.1,1.6,4.6c0.3,0.8,0.8,1.5,1.2,2.2
			c0.4,0.7,0.9,1.4,1.4,2c2,2.6,4.3,5,6.9,7c0.6,0.5,1.3,1,2,1.5c0.7,0.5,1.3,1,2.1,1.4c1.5,0.8,2.8,1.7,4.4,2.4l2.3,1.1l2.3,0.9
			c0.8,0.3,1.5,0.6,2.3,0.9l2.4,0.8c3.2,1.1,6.4,2.1,9.7,2.9c3.3,0.7,6.6,1.3,9.9,1.5c3.3,0.2,6.7,0,9.9-0.7
			c0.8-0.2,1.6-0.5,2.4-0.7c0.8-0.3,1.6-0.6,2.3-1c0.8-0.4,1.4-0.9,2.1-1.3L634.6,406.5z M635.1,406.3c-0.1,0.4-0.3,1-0.6,1.5
			c-0.3,0.4-0.5,0.8-0.8,1.1c-0.6,0.7-1.2,1.4-2,2c-0.7,0.6-1.5,1.1-2.3,1.6c-0.8,0.4-1.6,0.9-2.5,1.2c-1.7,0.7-3.5,1.2-5.3,1.6
			c-0.9,0.1-1.8,0.4-2.7,0.5c-0.9,0.1-1.8,0.2-2.7,0.2c-3.7,0.2-7.3-0.2-10.9-0.7c-3.6-0.7-7.1-1.5-10.5-2.7l-2.5-0.9
			c-0.8-0.3-1.7-0.7-2.5-1c-0.8-0.4-1.7-0.7-2.5-1.1l-2.4-1.3c-1.6-0.8-3.1-1.9-4.7-2.9c-0.8-0.5-1.5-1.1-2.2-1.7
			c-0.7-0.6-1.5-1.1-2.1-1.8c-0.7-0.6-1.4-1.2-2-1.9l-1.9-2.1c-0.6-0.7-1.1-1.5-1.7-2.2c-0.5-0.8-1-1.6-1.5-2.4
			c-0.4-0.8-0.8-1.6-1.2-2.5c-0.3-0.9-0.7-1.7-1-2.6c-0.6-1.8-1-3.5-1.1-5.5l0-0.1c0-0.6,0.4-1.1,1-1.2c0.3,0,0.6,0.1,0.8,0.3
			c2.3,2.3,5.8,3.6,9.2,4.3c3.5,0.7,7.1,0.9,10.7,0.7c1.8-0.1,3.6-0.3,5.3-0.5c0.9-0.1,1.7-0.3,2.8-0.3c0.6-0.1,1.1,0,1.6,0.1
			c0.5,0.1,1,0.2,1.6,0.3c2,0.6,3.8,1.6,5.4,2.7c0.8,0.6,1.6,1.2,2.3,1.9c0.7,0.7,1.4,1.4,2,2.2l-2.9-0.6c1.4-0.8,3.1-1.3,4.8-1.4
			c1.7-0.1,3.3,0.2,4.8,0.7c1.5,0.6,2.8,1.3,4,2.2c1.2,0.8,2.3,1.8,3.3,2.8c1,1,2,2,2.8,3.1l1.3,1.6c0.4,0.5,0.8,1,1.2,1.3
			c0.8,0.7,2.1,1.2,3.3,1.7c0.6,0.2,1.2,0.5,1.9,0.7l1,0.3l0.5,0.1l0.2,0.1l0.1,0l0.1,0C634.9,406.2,635,406.3,635.1,406.3z"/>
	</g>
	
		<ellipse transform="matrix(0.3209 -0.9471 0.9471 0.3209 105.6976 762.8714)" class="st10" cx="584.8" cy="307.7" rx="8.8" ry="6.6"/>
	
		<ellipse transform="matrix(0.3209 -0.9471 0.9471 0.3209 134.8588 849.8256)" class="st10" cx="660" cy="330.9" rx="8.8" ry="6.6"/>
	<g>
		<path class="st10" d="M618.5,294.6c-3.1-0.4-6-1.2-8.9-2.1c-2.8-0.9-5.6-1.9-8.3-2.9c-2.7-1.1-5.3-2.3-7.8-3.7
			c-2.5-1.4-5.1-2.8-7.6-3.8c-1.3-0.5-2.6-1-3.8-1.3c-1.3-0.3-1.9-0.4-3.4-0.2c-2.7,0.3-5.5,0.9-8.3,1.7c-2.8,0.8-5.5,1.7-8.3,2.7
			c-2.7,1-5.4,2.2-8,3.5l-0.5-0.7c2.3-1.9,4.8-3.6,7.4-5.1c2.6-1.5,5.2-3,8-4.2c2.8-1.2,5.6-2.4,8.7-3.2l1.2-0.3
			c0.2,0,0.4-0.1,0.6-0.1l0.8-0.1c1-0.1,1.9,0,2.8,0.1c1.7,0.2,3.2,0.6,4.8,0.9c3,0.8,6,1.7,8.8,2.6c2.9,1,5.6,2.2,8.2,3.8
			c2.6,1.5,5.1,3.2,7.4,5.1c2.4,1.9,4.6,3.9,6.6,6.4L618.5,294.6z"/>
	</g>
	<g>
		<path class="st10" d="M648.9,303.2c3.7-1.4,7.4-1.9,11.2-2c0.9,0,1.9,0,2.8,0c0.9,0,1.9,0.1,2.8,0.2c0.9,0.1,1.9,0.2,2.8,0.4
			c0.9,0.2,1.9,0.4,2.8,0.6c0.9,0.2,1.8,0.6,2.7,0.9c0.4,0.2,0.9,0.3,1.3,0.5l1.3,0.6c0.9,0.4,1.8,0.8,2.6,1.3
			c0.9,0.5,1.7,0.9,2.6,1.4c3.4,1.9,6.6,4.2,9.3,7.1l0.2,0.3l0,0.1c0.2,0.3,0.3,0.6,0.5,0.8c0.1,0.3,0.3,0.5,0.4,0.8
			c0.3,0.5,0.5,1,0.7,1.5c0.4,1,0.8,2.1,1,3.1c0.6,2.1,0.9,4.3,1,6.4c0.1,2.1,0,4.3-0.3,6.4c-0.3,2.1-0.9,4.1-1.6,6.1l-0.8-0.2
			c0.1-1,0.2-2,0.3-3c0-1,0.1-2,0-3c0-2-0.4-3.9-0.8-5.8c-0.4-1.9-1.1-3.7-1.8-5.4c-0.4-0.9-0.8-1.7-1.3-2.5
			c-0.2-0.4-0.5-0.8-0.7-1.2c-0.2-0.4-0.5-0.8-0.7-1l0.3,0.3c-2.6-2-5.5-3.7-8.6-4.9c-3.1-1.2-6.5-1.8-9.8-2.6
			c-3.3-0.8-6.6-1.8-10-2.8c-3.4-1-6.8-2.2-10.4-3.6L648.9,303.2z"/>
	</g>
	<g>
		<path class="st9" d="M632.9,327.7c0.6,6.2,0.9,12.3,1.3,18.4c0.2,3,0.4,6.1,0.9,8.9l0.4,2.3c0.1,0.8,0.2,1.6,0.3,2.4
			c0.2,1.6,0.2,3.2,0.1,4.9c-0.1,1.7-0.4,3.4-1.1,5.1c-0.7,1.7-1.9,3.4-3.7,4.4c-1.8,1-3.7,1.2-5.4,1.2c-1.6-0.1-3.2-0.2-4.8-0.5
			c-3.2-0.5-6.3-1.5-9.1-3.1c-1.4-0.8-2.7-1.8-3.8-3c-1.1-1.2-1.9-2.6-2.2-4.2c1.5,2.8,4.1,4.4,6.9,5.4c2.7,1,5.7,1.5,8.6,1.8
			c1.5,0.1,2.9,0.1,4.4,0.1c1.3-0.1,2.5-0.3,3.4-0.9c1.8-1.1,2.6-3.8,2.7-6.5c0.1-1.4,0-2.8-0.1-4.3c-0.1-0.7-0.1-1.5-0.2-2.2
			c-0.1-0.8-0.2-1.4-0.3-2.3c-0.4-3.3-0.4-6.3-0.3-9.4C631.3,340,631.8,333.8,632.9,327.7z"/>
	</g>
</g>
</svg>
