<?xml version="1.0" encoding="utf-8"?>
<!-- Generator: Adobe Illustrator 25.4.1, SVG Export Plug-In . SVG Version: 6.00 Build 0)  -->
<svg version="1.1" xmlns="http://www.w3.org/2000/svg" xmlns:xlink="http://www.w3.org/1999/xlink" x="0px" y="0px"
	 viewBox="0 0 1080 1096.4" style="enable-background:new 0 0 1080 1096.4;" xml:space="preserve">
<style type="text/css">
	.st0{fill:#F2F2F2;}
	.st1{fill:#00E9C5;}
	.st2{clip-path:url(#SVGID_00000083075663663598658190000008517594276501904053_);fill:#F8D8C1;}
	.st3{clip-path:url(#SVGID_00000083075663663598658190000008517594276501904053_);fill:#F2F2F2;}
	.st4{opacity:0.5;clip-path:url(#SVGID_00000083075663663598658190000008517594276501904053_);fill:#F8D8C1;}
	.st5{fill:#F25A5A;}
	.st6{fill:url(#SVGID_00000140706609798970429060000011419640652176483971_);}
	.st7{fill:#7A7A7A;}
	.st8{fill:#FFFFFF;}
	.st9{fill:#ADADAD;}
	.st10{opacity:0.5;fill:#ADADAD;}
	.st11{fill:#72EDE9;}
	.st12{opacity:0.5;fill:#72EDE9;}
	.st13{fill:#C5CFD1;}
	.st14{fill:#E2C7AF;}
	.st15{opacity:0.5;fill:#C7C9C9;}
	.st16{fill:#2E726E;}
	.st17{fill:#CCB140;}
	.st18{opacity:0.5;fill:#CCB140;}
	.st19{opacity:0.5;fill:#E2C7AF;}
	.st20{fill:#888B92;}
	.st21{opacity:0.5;fill:#282828;}
	.st22{fill:#C1C1C1;}
	.st23{fill:#CCAF97;}
	.st24{fill:#110F0F;}
	.st25{fill:#A49EA2;}
	.st26{fill:#E8E8E8;}
	.st27{fill:none;stroke:#A49EA2;stroke-width:20;stroke-linecap:round;stroke-miterlimit:10;}
	.st28{fill:#C68C75;}
	.st29{fill:#F1F1F1;}
	.st30{fill:#BA8F72;}
	.st31{fill:#543104;}
</style>
<g id="Capa_4">
	<g>
		<path class="st0" d="M592.4,929.5c17.3-42.3,12.4-152.2,39.5-189c31.7-43.2,73.9-77.5,111.9-115.2c38.1-37.8,73.4-81.4,85.8-133.5
			s-3.9-114.3-50-141.7c-56.4-33.6-135.2-6.5-189.7-43.1c-44.7-30-55-89.9-67.4-142.3c-8.8-37.2-20.9-74.6-44.2-104.9
			S418.8,6.9,380.6,8.5c-41.3,1.7-76.8,30.1-103.1,62c-49,59.2-77.7,138.1-64.6,213.7c7.3,42.1,27.1,82.1,28.3,124.8
			c0.7,23.1-3,46.5-10.9,68.2c-70.5,195.5-123.5,247.5-118.8,362.3c3.9,96.6,110,216.1,203.3,241.2c93.3,25.1,205.9-13.6,252.4-98.3
			C584.6,950.8,576.1,966.8,592.4,929.5z"/>
	</g>
</g>
<g id="Capa_6">
	<circle class="st1" cx="721.6" cy="189.8" r="139.4"/>
	<g>
		<defs>
			<circle id="SVGID_1_" cx="721.6" cy="189.8" r="139.4"/>
		</defs>
		<clipPath id="SVGID_00000168795570811248500490000013994647725887594405_">
			<use xlink:href="#SVGID_1_"  style="overflow:visible;"/>
		</clipPath>
		<path style="clip-path:url(#SVGID_00000168795570811248500490000013994647725887594405_);fill:#F8D8C1;" d="M721.6,329.2
			c0,0-11.6-49.3-32.2-67.3c-20.6-18-30.9-31.1-33.4-54.8s3.9-40,23.1-55c19.3-15,86.8-86.4,89.4-89.6s97.7,69.8,97.7,69.8
			l-5.2,76.5c0,0-37.9,19.9-51.4,22.3c0,0,22.5,12.7,36,42.6l-68.8,52.6L721.6,329.2z"/>
		<path style="clip-path:url(#SVGID_00000168795570811248500490000013994647725887594405_);fill:#F2F2F2;" d="M807.1,82.8
			c0,0-72.6,55.7-78.4,60.2c-5.8,4.5-25.7,14.8-33.8,18s-20.2,32.6,16.4,48.1c36.6,15.5,68.8-20.9,61.1-38.4
			c-7.7-17.4,58.3-65.2,58.3-65.2L807.1,82.8z"/>
		<path style="clip-path:url(#SVGID_00000168795570811248500490000013994647725887594405_);fill:#F2F2F2;" d="M787.8,306.3
			c0,0-18-21.2-23.1-43.7c-5.1-22.5,19.9-55.3-25.1-35.4c0,0-18,3.2-28.9,0c-10.9-3.2-38.5-8,4.5,46.1c43,54.1,34.6,53.1,34.6,53.1
			L787.8,306.3z"/>
		<path style="clip-path:url(#SVGID_00000168795570811248500490000013994647725887594405_);fill:#F2F2F2;" d="M677.9,174.5
			c0,0-11.6,14.8-10.3,28.9s10.3,35.7,15.4,36.8c5.1,1.1,0.6-12.5,0-24.6S684.9,175.1,677.9,174.5z"/>
		<path style="opacity:0.5;clip-path:url(#SVGID_00000168795570811248500490000013994647725887594405_);fill:#F8D8C1;" d="
			M862.9,180.5c-16.2,13.5-54,43.7-77.7,51.2c0,0,35.1,14.7,44.9,54l0.7-0.5l11.6-17.9c-13.6-25.2-32.7-36-32.7-36
			c13.5-2.4,51.4-22.3,51.4-22.3L862.9,180.5z"/>
	</g>
	<path class="st5" d="M699.2,208.2c0,0,23.7,21.4,56.8,1.9c0,0-3.4,14.1-29,15C719.2,225.4,705.9,221.6,699.2,208.2z"/>
	
		<radialGradient id="SVGID_00000119828685717850404770000013064350950572707479_" cx="720.2143" cy="197.1429" r="103.8571" gradientUnits="userSpaceOnUse">
		<stop  offset="0" style="stop-color:#FF0000;stop-opacity:0.5"/>
		<stop  offset="1" style="stop-color:#FF120D;stop-opacity:0"/>
	</radialGradient>
	<circle style="fill:url(#SVGID_00000119828685717850404770000013064350950572707479_);" cx="720.2" cy="197.1" r="103.9"/>
</g>
<g id="Capa_2">
	<path class="st7" d="M323.4,991.3l4.3,10.6c0,0-13.2,6.6-22.7,4.5L323.4,991.3z"/>
	<path class="st8" d="M429.7,975.7c0,0,19.7,18.7,28,28.4c0,0,15.1,8.4,28,9.3s17.4,4.8,17,7.1c0,0,7.4,4.5-7.7,9.6
		c-15.1,5.1-27.1,8.4-65.3,1.9c0,0-21.8-2.6-32.4-2.2s-29.9-1.3-33.4-1.9l-2.6-16.7l4.2-9.3L429.7,975.7z"/>
	<path class="st8" d="M365.4,1001.9c0,0-3.2,16.7-1.6,26s-4.5,19.9-27,19c-22.5-1-28.9-3.5-28.9-17.4s13.8-27.6,13.8-27.6
		s2.9-6,1.6-10.6c-1.3-4.5,13.3-12.6,13.3-12.6l19.4,3.5L365.4,1001.9z"/>
	<path class="st9" d="M462,659.5L457.5,458l-75.4-6.4c0,0-79.6,215.4-76.4,242s-5.1,119.9-5.1,129.5c0,9.6,0,77.1,4.5,120.9
		s0,62.4,0,62.4c6.4,0,9.6-4.5,9.6-4.5c30.2-43.7,50.8,0,50.8,0c34.7,0,66.9-28.3,66.9-28.3c-3.9-4.5-6.1-13.5-6.1-13.5
		c-0.9-52.1,15.1-167.1,16.4-174.2c1.3-7.1,10.9-28.3,9-50.8C449.7,712.6,462,659.5,462,659.5z M381.3,748.6
		c-4.7,15.6-15.2,114.7-14.6,138.2c0.1,1.2,0.1,1.9,0.1,1.9c0-0.6-0.1-1.2-0.1-1.9c-0.4-10.7-2.4-62.5,0-75.2
		c2.7-14.1,3.3-25.1,2.7-34.7c0,0,8.4-65,5.1-81.7c-3.2-16.7,6.8,0,6.8,0S386.1,732.5,381.3,748.6z"/>
	<path class="st10" d="M381.3,1000c-11.8-46.2,9.9-247.6,17.3-266.9c7.4-19.3,9.3-194.1,1-217.9c-8.3-23.8,56.3-50.8,56.3-50.8
		l-0.9-4l-64.4-1.8l-4.9-0.2l-6.7,39.5l-4.5,137.9l3.1,54.2c1.9,2.2,3.7,5.2,3.7,5.2s4.9,37.3,0,53.4c-4.6,15-14.3,106.9-14.6,135
		c3,48.7-1.2,118.3-1.2,118.3s3.9,0,8-0.5C376.7,1001,381.2,1000,381.3,1000C381.2,1000,381.3,1000,381.3,1000z"/>
	<path class="st10" d="M305.6,693.6c3.2,26.7-5.1,119.9-5.1,129.5c0,9.6,0,77.1,4.5,120.9s0,62.4,0,62.4c6.4,0,9.6-4.5,9.6-4.5
		c2.1-3,7.1-9.6,11.8-13.3c-4.5-41.9-12-141.9-5.7-192.4c6.7-54,4.4-123.4,4.4-123.4h-16C306.5,682.4,305.1,689.7,305.6,693.6z"/>
	<path class="st11" d="M450,389l-13.2-88l-13.1-65.4l-8.6-20.7c0-3,0-6.1-0.2-8.9c-1-11.9-8.6-18.3-8.6-18.3s5.8,12.3,4.4,22
		c-0.9,5.7-4.3,10.5-13,11.3c-7.1,0.6-14.6-2.9-21.7-8.2c-16.3-12.2-30.1-33.4-30.1-33.4l3.2,27.5l16.2,13.6l-0.7,0.5l40.5,87.9
		l-14.1,100.3c0,0-41.5,59.6-25.5,67.3c16,7.7,86.2-14.7,86.2-14.7L450,389z"/>
	<path class="st12" d="M450,389l-13.2-88l-13.1-65.4l-8.6-20.7c0-3,0-6.1-0.2-8.9c-0.4-4.9-2-8.9-3.6-11.9l-2.5,0.1
		c1.4,4.4,2.6,10.3,1.9,15.4c0,0.2-0.1,0.4-0.1,0.6c1.3,5.9,1.8,13.4-0.1,22.8c-5.1,26-5.8,52.8,8.4,72.9c0,0,14.6,87.9,16.3,150.2
		c0.1,3.8,0.2,7.3,0.2,10.5c9.7-2.7,16.3-4.8,16.3-4.8L450,389z"/>
	<path class="st8" d="M431,207.2c0,0,29.7,11,34.4,20c4.7,9.1,9.3,13,9.3,13l10.3,37l5.5,45.4v63.7l0.3,47.7
		c0,0,14.1,201.4,24.4,246.4c0,0-39.2,9.6-52.1,9c0,0-7.9-219.9-15.2-261.6s-11.1-72-11.1-72s-6.3-32.6-8-47.2
		c-1.7-14.6,1-55.6,1-55.6l-16-59L431,207.2z"/>
	<path class="st8" d="M424.8,202.6c0,0,10.2,3.4,16.1,5.6c4.5,1.7,27.6,12.8,36.3,43.7c8.7,30.9,25.2,74.7,28.1,78.9
		c2.9,4.2,6.1,9.6,3.2,18c-2.9,8.4,8.4,12.5,8.4,12.5l38.6,28c0,0-1.6,47.6-20.6,48.9c0,0-12.9-3.6-20.6-4.1
		c-7.7-0.4-22.5-2.7-27-7.2s-2.5-67.1-2.5-67.1s0.3-45.4-3.3-71.1C477.9,262.9,477.8,223,424.8,202.6z"/>
	<path class="st13" d="M426.2,213.7c0,0,3.3,1.2,2.9,7.2l30.2,45.5l-2.3,1.3l-29.9-46.8c0,0-4.5-3.5-3.2-6.6
		S426.2,213.7,426.2,213.7z"/>
	<path class="st14" d="M351.2,139.5c0,0,0.8,20.4,0,27.8c0,0-8.5,9.4-5,16.6c5,10.1,31,39.9,52.6,41.5c0,0,21-4.4,10.7-35.5
		l-52.1-56.3L351.2,139.5z"/>
	<path class="st15" d="M411.1,187.7c0,0,15.1,38.2,38.9,63.6c0,0-20.2,40.5-21.2,57.2l-9.6-81.3l-10.9-30.8v-5.8L411.1,187.7z"/>
	<path class="st16" d="M413.8,193.9c0,0,22.9,8.6,32,27.7c0,0-4.2,0.7-5.1,3.7c0,0-6.2-12.4-15.9-16.4c0,0,0.3,2.5,1.4,4.8
		c0,0-2.1,1-2.3,0.6C424,214.3,415.1,201.4,413.8,193.9z"/>
	<path class="st17" d="M445.9,113.2c0,0-8.9,86.2-4.1,98.6c0,0-29.3-6.9-38.9-17.2L445.9,113.2z"/>
	<path class="st18" d="M445.9,113.2c0,0-8.9,86.2-4.1,98.6c0,0-29.3-6.9-38.9-17.2L445.9,113.2z"/>
	<path class="st14" d="M443.2,122.8c0,0-3.2,8.2-4.5,11.2c-0.8,1.9-0.3,4.2-1,8c-1.4,7.4-6,15.7-14,26.7c0,0-12.3,14.8-17.5,19
		c0,0-9.8,7.5-19.9-1.9c-17.8-16.5-24.3-29.5-24.3-47.2c0,0-10.8,7-14.3-3c-3.5-10-8.7-14.1,2.2-27.6l3.5-2.9l7.4,7.1L377.1,93
		l8.9-16.6l31.8,5.5L441,97.4l4.8,14.5L443.2,122.8z"/>
	<path class="st19" d="M356.3,140.8c0,0-4.3,1.4-5.2-15.8s10.5-4.4,10.5-4.4l2.5-10.8l-3.1,2.5l-6.7-6.4l-1.3-0.2L350,108
		c-10.9,13.5-5.8,17.7-2.2,27.6s8.7,7.1,8.7,7.1c0,17.7,9.6,33.4,29.9,43.1c3.6,1.7,6.6,2.9,9.3,3.6c1.9,0.5,3.1,0.8,3.1,0.8
		c0,0,0,0,0,0C361.4,179.4,356.3,140.8,356.3,140.8z"/>
	<path class="st8" d="M333.2,190.6c0,0-7.9,5.2-11.2,5.8s-31.7,15.2-35.5,60.2s1.1,185.4-1.8,200.5s-24.1,190-25.4,228.5
		c0,0,36.6,3.2,43.1,7.1c6.4,3.9,19.9-4.5,104.8,5.1c0,0,6.1-43.1-19.9-223.7c0,0,3.3-43.1,6.2-59.8c2.8-16.7,11.5-84.9,14.2-99.3
		c2.7-14.5-1.8-10-4.3-16.1l-23.2-38.2l-8.2-20.4l-30.3-52.6L333.2,190.6z"/>
	<path class="st15" d="M312.7,262.6l44.4,84l32.1,1.7l11.2,2.6c0,0,5.6-26.2,4.3-39.1c-0.4-4.1-3.1-12.5-6.8-22l-17.6-29.1
		l-7.8-19.4c-5.8-4.1-16.4-16-16.4-16l-7.3-25.4l-7-12.2l-8.4,2.9c0,0-7.9,5.2-11.2,5.8c-2,0.4-13.5,6-23,20.8L312.7,262.6z"/>
	<path class="st16" d="M340.1,181.6c0,0-9.6,4.3-6.1,16.7c3.4,12.4,20.6,71.6,21.9,93.2c0,0,4.3,7.9,4.3,10.1c0,0,6.2-0.6,8.6,0
		c2.4,0.6-7.4-41.8-10-49.4C356.1,244.6,340.1,181.6,340.1,181.6z"/>
	<path class="st8" d="M403.4,298.9c0,0-0.3-0.6-0.7-1.7c-0.8-1.1-1.5-2-2.2-2.9C401.5,295.9,402.5,297.4,403.4,298.9z"/>
	<path class="st8" d="M380.6,248.7c-8.9-18.9-18-37.4-22.7-44.1c-10.8-15.3-12.9-36.5-5.7-37.2v-2.2c0,0-12.3,4.4-13,23.3
		c-0.1,3.3,0.1,7.1,0.8,11.4c0,0,10.6,28.3,13.8,45.3c0,0,1,3.2,0.3,5.8c0,0,4.2,4.2,13.5-2.9c0,0,4.8-1,7.7,0c0,0-2.6,5.5-1.3,12.2
		c1.2,6.1,16.8,20.4,26.3,34c0.7,0.9,1.5,1.9,2.2,2.9C400,291.2,390.5,269.7,380.6,248.7z"/>
	<path class="st19" d="M370.2,134.8c0,0-15.6,6.5-17.1,2.8l-2,1.9c0,0,0.8,20.4,0,27.8c0,0-3.5,6.7,3.5,10.4
		c2.1,1.1,5.9,3.8,10.4,7.2c0.7-2.6,2.5-5.7,6.9-3.2c6.8,3.9,26.8,8.5,26.8,8.5C361.4,179.4,370.2,134.8,370.2,134.8z"/>
	<path class="st20" d="M532.3,386c0,0-0.1,0.2-0.2,0.6l1.1-0.6H532.3z"/>
	<path class="st21" d="M467.4,1029.3c-19.3-1.3-47.1-9.3-70.7-5.3c0,0-18.8-0.6-34-3.1l1.1,7.1c3.5,0.6,22.8,2.2,33.4,1.9
		c10.6-0.3,32.4,2.2,32.4,2.2c38.2,6.4,50.2,3.2,65.3-1.9c15.1-5.1,7.7-9.6,7.7-9.6S486.7,1030.6,467.4,1029.3z"/>
	<path class="st21" d="M336.7,1042.1c-24-0.4-25.8-8.2-28.5-15.7c-0.1,1-0.2,2-0.2,3c0,13.8,6.4,16.4,28.9,17.4
		c22.5,1,28.6-9.6,27-19C363.8,1027.9,361.3,1042.6,336.7,1042.1z"/>
	<path class="st22" d="M551,386h-17.8l-1.1,0.6c-0.6,2-2.9,9.2-4.4,17.6c-2.6,13.8-3.4,30.9,7.2,33.9c11.5-0.8,16.6-18.6,18.9-32.4
		c1.5-9,1.7-16.4,1.7-16.4L551,386z"/>
	<path class="st23" d="M580.4,379.2l1.8-5.1c0.8-4.8-3.7-10.9-3.7-10.9L533.2,386l-1.1,0.6c-0.6,2-2.9,9.2-4.4,17.6
		c2.8,0.1-0.8,0.3,11.7,0.1c0.7,0,9.7-3.2,10.3-3.2c1.4-0.1,5.8-0.4,7.1-0.6c16.7-3.3,23.4-13.7,25.5-15.8
		C584.6,382.5,580.4,379.2,580.4,379.2z"/>
	<path class="st14" d="M581.6,354.7c0.1-8.1-11.3-9.2-11.3-9.2c-0.2-3-2-3.5-2-3.5s-7.1,0.6-10.6-2.2c-3.5-2.9-12.5,1.9-16.1,1.9
		c-3.5,0-9.6,3.2-9.6,3.2s-19.6,11.6-21.5,13.8c-1.9,2.2-5.8,2.2-5.8,2.2l-8.2,25.3l4.3,8.1c4.5-3.6,12.2-1.7,13.5-1.7
		s8.8,2.8,8.8,2.8c18.9,2.6,28.5-1.7,40.1-9.9s10.3-11.8,10.3-11.8c7.1-5.1,4.5-7.1,4.5-7.1s2.4-1.1,3.8-1.9
		C583,363.9,581.6,354.7,581.6,354.7z M548.2,355.8c-2.1,0.2-2.6-1.5-2.6-1.5c0.6-1.9,6.6-3.4,6.6-3.4c-0.9,1.9,1.3,3.4,1.3,3.4
		C549.9,352.8,548.2,355.8,548.2,355.8z"/>
	<g id="Capa_2_1_">
		<g id="Capa_1-2">
			<path class="st1" d="M454.4,284.7c-0.6,0.3-1,1-0.9,1.7l0,0l1,12.2c0,0.3-0.2,0.6-0.6,0.7c-0.1,0-0.1,0-0.2,0
				c-2.8-0.6-4.9-3-5.2-5.8c0-0.1,0-0.2,0-0.3l0-0.1c0-0.1,0-0.1,0-0.2l0-0.1c0-0.2,0-0.4,0-0.5l0-0.1c0-0.1,0-0.2,0-0.2
				c0,0,0,0,0,0c0-0.2,0.1-0.4,0.1-0.5l0,0c0-0.1,0-0.2,0.1-0.2l0,0c0-0.2,0.1-0.4,0.2-0.5l0,0c0.1-0.2,0.1-0.3,0.2-0.5l0,0
				c0-0.1,0.1-0.1,0.1-0.2c0,0,0,0,0,0c0-0.1,0.1-0.1,0.1-0.2l0,0c0-0.1,0.1-0.1,0.1-0.2l0-0.1c0.2-0.3,0.4-0.6,0.7-0.9
				c0.1-0.1,0.2-0.2,0.3-0.3c0.3-0.3,0.3-0.7,0.1-1c0,0,0,0-0.1-0.1l-0.6-0.5c-0.3-0.2-0.7-0.2-1,0c-0.4,0.4-0.7,0.8-1,1.2l0,0l0,0
				c-0.1,0.1-0.1,0.2-0.2,0.3l0,0c-0.1,0.1-0.1,0.2-0.2,0.3l0,0c-0.1,0.2-0.2,0.4-0.3,0.6l0,0.1c-0.1,0.2-0.2,0.4-0.3,0.6
				c0,0,0,0,0,0.1c0,0.1-0.1,0.2-0.1,0.3l0,0c0,0.1-0.1,0.2-0.1,0.3l0,0.1c0,0.1-0.1,0.2-0.1,0.3l0,0c0,0.1,0,0.2-0.1,0.3l0,0.1
				c0,0.1,0,0.2-0.1,0.3c0,0,0,0,0,0.1c0,0.1,0,0.2,0,0.4c0,0,0,0,0,0c0,0.1,0,0.2,0,0.3c0,0,0,0.1,0,0.1c0,0.1,0,0.2,0,0.4
				c0,0,0,0,0,0c0,0.1,0,0.2,0,0.3c0,0,0,0.1,0,0.1c0,0.1,0,0.2,0,0.4l0,0c0.4,4.2,3.6,7.5,7.8,7.9c0.3,0,0.5,0.3,0.6,0.6l0.3,3.3
				c0,0.3,0.3,0.6,0.7,0.6c0,0,0,0,0,0l1-0.1c0.3,0,0.6-0.3,0.6-0.7l0,0l-0.3-3.3c0-0.3,0.2-0.5,0.4-0.6c1.7-0.5,3.2-1.4,4.4-2.8
				c0.5-0.6,0.9-1.2,1.2-1.8c2.1-4.3,0.3-9.6-4.1-11.6c-0.6-0.3-1.2-0.5-1.8-0.6C456.1,284.1,455.2,284.2,454.4,284.7z M461.2,295.1
				c-0.7,1.7-2,3.1-3.7,3.7c-0.3,0.1-0.7,0-0.8-0.3c0-0.1,0-0.1,0-0.2l-0.9-10.7c0-0.6,0.4-1.1,1-1.1c0.1,0,0.3,0,0.4,0
				c3.4,1.1,5.3,4.8,4.2,8.2C461.3,294.9,461.3,295,461.2,295.1L461.2,295.1z"/>
			<g>
				<path class="st24" d="M436.3,313c-0.1,0-0.2,0-0.3,0c-0.1,0-0.3,0-0.4,0c-0.1,0-0.3,0-0.3,0.1c-0.1,0.1,0,0.8,0,0.9l0.9-0.1
					c0.2,0,0.3,0,0.3,0.2l0,0.3c0,0.3,0,0.3-0.3,0.4l-0.9,0.1l0.2,2.9c0,0.2,0,0.4-0.3,0.4l-0.6,0c-0.2,0-0.3-0.1-0.3-0.3l-0.3-3
					l-0.3,0c-0.2,0-0.2-0.1-0.2-0.3l0-0.4c0-0.3,0.2-0.3,0.5-0.3l0-0.3c0-0.4-0.1-0.7,0.1-1.1c0.3-0.5,0.9-0.6,1.5-0.7
					c0.2,0,0.6-0.1,0.8,0.1c0,0.1,0.1,0.1,0.1,0.2l0,0.1C436.5,312.6,436.6,313,436.3,313z M438.1,313.1l-0.3,0
					c-0.3,0-0.5,0-0.5-0.4l0-0.3c0-0.3,0.1-0.4,0.4-0.4l0.4,0c0.2,0,0.4,0.1,0.4,0.3c0,0,0,0,0,0l0,0.3
					C438.5,312.9,438.4,313.1,438.1,313.1L438.1,313.1z M438.6,318l-0.3,0c-0.3,0-0.5,0-0.5-0.4l-0.3-3.5c0-0.3,0.1-0.4,0.4-0.4
					l0.4,0c0.2,0,0.4,0.1,0.4,0.3c0,0,0,0,0,0l0.3,3.5C438.9,317.8,438.8,318,438.6,318L438.6,318z"/>
				<path class="st24" d="M441.7,317.8c-0.4,0-0.8,0.1-1.3,0c-0.3,0-0.3-0.1-0.3-0.4l0-0.2c0-0.2,0-0.4,0.2-0.4c0.2,0,0.3,0,0.5,0
					c0.3,0,0.6,0,0.9,0c0.3,0,0.4,0,0.4-0.4c0-0.1,0-0.2-0.1-0.3c-0.1-0.1-0.9-0.2-1-0.3c-0.2,0-0.4-0.1-0.5-0.2
					c-0.5-0.2-0.7-0.4-0.7-1c-0.1-1.4,0.8-1.4,1.9-1.5c0.2,0,0.4,0,0.7,0c0.3,0,0.5,0.1,0.5,0.4c0,0.3,0.1,0.5-0.3,0.6
					c-0.2,0-0.3,0-0.5,0c-0.2,0-0.5,0-0.7,0c-0.3,0-0.5,0-0.5,0.4c0,0.1,0,0.1,0.1,0.2c0.1,0.1,1,0.3,1.2,0.3
					c0.7,0.2,1.1,0.4,1.1,1.2C443.4,317.5,442.8,317.8,441.7,317.8z"/>
				<path class="st24" d="M445,312.5l-0.3,0c-0.3,0-0.5,0-0.5-0.4l0-0.3c0-0.3,0.1-0.4,0.4-0.4l0.4,0c0.2,0,0.4,0.1,0.4,0.3
					c0,0,0,0,0,0l0,0.3C445.4,312.4,445.3,312.5,445,312.5z M445.4,317.4l-0.3,0c-0.3,0-0.5,0-0.5-0.4l-0.3-3.5
					c0-0.3,0.1-0.4,0.4-0.4l0.4,0c0.2,0,0.4,0.1,0.4,0.3c0,0,0,0,0,0l0.3,3.5C445.8,317.3,445.7,317.4,445.4,317.4z"/>
				<path class="st24" d="M449.7,317.1c-0.2,0-0.5,0.1-0.8,0.1c-1.7,0.1-2.1-0.4-2.2-2.1s0.1-2.3,1.8-2.4c0.3,0,0.5,0,0.8,0
					c0.3,0,0.5,0,0.5,0.3l0,0c0,0.2,0.1,0.7-0.3,0.7c-0.1,0-0.2,0-0.4,0c-0.3,0-0.6,0-0.8,0c-0.4,0-0.4,0.1-0.5,0.5
					c0,0.3,0,0.6,0,0.9c0,0.3,0,0.6,0.1,0.8c0.1,0.4,0.2,0.4,0.6,0.4c0.3,0,0.6-0.1,0.8-0.1c0.1,0,0.2-0.1,0.3-0.1
					c0.1,0,0.2,0,0.2,0.1c0.1,0.1,0.1,0.5,0.2,0.6C450.2,317.1,450,317.1,449.7,317.1z"/>
				<path class="st24" d="M454.4,316.7l-0.5,0c-0.2,0-0.3-0.1-0.3-0.3c-0.4,0.3-0.8,0.5-1.3,0.5c-0.9,0.1-1.3-0.4-1.4-1.2
					c-0.1-1,0.5-1.3,1.3-1.5c0.4-0.1,0.7-0.1,1.1-0.2c0-0.4,0-0.9-0.5-0.8c-0.4,0-0.9,0.1-1.3,0.3c-0.1,0-0.1,0-0.2,0
					c-0.3,0-0.3-0.3-0.3-0.5c0-0.2,0.1-0.3,0.2-0.4c0.5-0.2,1-0.3,1.4-0.3c0.4,0,1,0,1.3,0.3c0.4,0.4,0.4,0.9,0.5,1.4l0.2,2.2
					C454.8,316.5,454.7,316.6,454.4,316.7z M453.5,314.9c-0.1,0-0.3,0-0.4,0c-0.2,0-0.4,0-0.6,0.1c-0.4,0.1-0.5,0.2-0.5,0.6
					c0,0.2,0.1,0.6,0.4,0.6c0.4-0.1,0.8-0.2,1.2-0.5L453.5,314.9z"/>
				<path class="st24" d="M456.8,316.5l-0.3,0c-0.3,0-0.5,0-0.5-0.4l-0.5-5.3c0-0.3,0.1-0.4,0.4-0.4l0.4,0c0.2,0,0.4,0.1,0.4,0.3
					c0,0,0,0,0,0.1l0.5,5.3C457.1,316.3,457.1,316.4,456.8,316.5z"/>
				<path class="st24" d="M461,316.2c-0.2,0-0.5,0.1-0.8,0.1c-1.7,0.1-2.1-0.4-2.2-2.1c-0.1-1.7,0.1-2.3,1.8-2.4c0.3,0,0.5,0,0.8,0
					c0.3,0,0.5,0,0.5,0.3l0,0c0,0.2,0.1,0.7-0.3,0.7c-0.1,0-0.2,0-0.4,0c-0.3,0-0.6,0-0.8,0c-0.4,0-0.4,0.1-0.5,0.5
					c0,0.3,0,0.6,0,0.9c0,0.3,0.1,0.6,0.1,0.8c0.1,0.4,0.2,0.4,0.6,0.4c0.3,0,0.6-0.1,0.8-0.1c0.1,0,0.2-0.1,0.3-0.1
					c0.1,0,0.2,0,0.2,0.1c0.1,0.1,0.1,0.5,0.2,0.6C461.5,316.1,461.3,316.1,461,316.2z"/>
				<path class="st24" d="M464.6,315.9c-1.5,0.1-2.1-0.7-2.2-2.1c-0.1-1.4,0.4-2.3,1.9-2.4c1.5-0.1,2.1,0.7,2.2,2.1
					S466,315.8,464.6,315.9z M465,312.6c-0.2-0.3-0.5-0.2-0.8-0.2c-0.3,0-0.6,0-0.7,0.3s-0.1,0.7-0.1,1s0.1,0.8,0.3,1
					s0.5,0.2,0.8,0.2s0.6,0,0.7-0.3c0.1-0.3,0.1-0.7,0.1-1C465.2,313.3,465.2,312.9,465,312.6z"/>
				<path class="st24" d="M470.8,315.3l-0.5,0c-0.2,0-0.3-0.1-0.3-0.3c-0.4,0.3-0.8,0.5-1.3,0.5c-0.9,0.1-1.3-0.4-1.4-1.2
					c-0.1-1,0.5-1.3,1.3-1.5c0.4-0.1,0.7-0.1,1.1-0.2c0-0.4,0-0.9-0.5-0.8c-0.4,0-0.9,0.1-1.3,0.3c-0.1,0-0.1,0-0.2,0
					c-0.3,0-0.3-0.3-0.3-0.5c0-0.2,0.1-0.3,0.2-0.4c0.5-0.2,1-0.3,1.4-0.3c0.4,0,1,0,1.3,0.3c0.4,0.4,0.4,0.9,0.5,1.4l0.2,2.2
					C471.2,315.1,471.1,315.3,470.8,315.3z M469.9,313.5c-0.1,0-0.3,0-0.4,0c-0.2,0-0.4,0-0.6,0.1c-0.4,0.1-0.5,0.2-0.5,0.6
					c0,0.2,0.1,0.6,0.4,0.6c0.4-0.1,0.8-0.2,1.2-0.5L469.9,313.5z"/>
				<path class="st24" d="M475.1,315c-0.2,0-0.5,0.1-0.8,0.1c-1.7,0.1-2.1-0.4-2.2-2.1c-0.1-1.7,0.1-2.3,1.8-2.4c0.3,0,0.5,0,0.8,0
					c0.3,0,0.5,0,0.5,0.3l0,0c0,0.2,0.1,0.7-0.3,0.7c-0.1,0-0.2,0-0.4,0c-0.3,0-0.6,0-0.8,0c-0.4,0-0.4,0.1-0.5,0.5
					c0,0.3,0,0.6,0,0.9c0,0.3,0.1,0.6,0.1,0.8c0.1,0.4,0.2,0.4,0.6,0.4c0.3,0,0.6-0.1,0.8-0.1c0.1,0,0.2-0.1,0.3-0.1
					c0.1,0,0.2,0,0.2,0.1c0.1,0.1,0.1,0.5,0.2,0.6C475.5,314.9,475.3,314.9,475.1,315z"/>
				<path class="st24" d="M479.9,314.5l-0.5,0c-0.3,0-0.3-0.1-0.4-0.4l-0.2-2.3c0-0.1,0-0.6-0.1-0.7c-0.1-0.1-0.2-0.1-0.3,0
					c-0.4,0.1-0.8,0.2-1,0.5l0.2,2.6c0,0.2,0,0.4-0.3,0.4l-0.5,0c-0.2,0-0.3-0.1-0.3-0.3l-0.5-5.4c0-0.3,0.1-0.4,0.4-0.4l0.4,0
					c0.2,0,0.4,0.1,0.4,0.3c0,0,0,0,0,0.1l0.1,1.6c0.4-0.2,0.8-0.4,1.2-0.4c0.8-0.1,1.4,0.3,1.5,1.1l0.2,2.7
					C480.2,314.3,480.1,314.5,479.9,314.5z"/>
			</g>
		</g>
	</g>
	<path class="st13" d="M368.7,301.6c0,0,1.3,1.1,1.3,4.1c0,0,8.4,4.1,7.1,12.9c-1.3,8.8-8,10.7-8,10.7L356,311l4.1-9.4
		C360.1,301.6,366.1,300.3,368.7,301.6z"/>
	<path class="st13" d="M445.7,221.6c0,0,1.1,1.8,0.9,3.7l26.8,48h-1.9l-27.6-46.1c0,0-2.4-0.4-3.2-1.9
		C440.7,225.3,440.5,218.9,445.7,221.6z"/>
	<path class="st25" d="M473.4,273.3c0,0,5.8,12-7.5,6c0,0-2.4,4.5-7.7,0.2c-5.4-4.3,0.9-8.6,4.3-5.1c0,0,3.6,3.4,4.9,3.9
		c1.3,0.4,8.2,3.1,4.1-4.9H473.4z"/>
	<path class="st25" d="M459.3,266.4c0,0,4.8,7.5,10.5,11.6c0,0,2,1.9,2,0c0,0-2.4-5.2,2.9-4c5.3,1.3,2.4,5.7,1.2,6.1
		c-1.2,0.4-5.1,3.8-12.3-4.8c-7.2-8.7-6.5-7.6-6.5-7.6L459.3,266.4z"/>
	<circle class="st25" cx="366" cy="317.5" r="8.9"/>
	<circle class="st26" cx="366" cy="317.5" r="3.6"/>
	<line class="st27" x1="499.4" y1="401.5" x2="620.8" y2="286.1"/>
	<path class="st15" d="M284.9,290.5c-0.5,59.5,2.1,154.9-0.1,166.6c-2.9,15.1-24.1,190-25.4,228.5c0,0,12.3,1.1,23.9,2.7
		c16.4-44.4,17.3-195,17.9-236.7c0.7-45.6-5.5-125.4-5.5-125.4L284.9,290.5z"/>
	<path class="st14" d="M547.4,359.4c0,0-8.1-2.1-10.3-2.1c0,0-5.1,2.8-1.7-4c2.9-5.8-24.6,8.8-32.5,13l-2.4,7.2l-0.8,18.8l1,1.9
		c4.5-3.6,12.2-1.7,13.5-1.7s8.8,2.8,8.8,2.8c7.9,1.1,14.2,0.9,19.7-0.2l17.2-26.8l2.1-12.7c0,0-3.1,1.2-12.3,3.6
		C540.4,361.8,547.4,359.4,547.4,359.4z"/>
	<path class="st8" d="M488.2,359.9c-5.6,0-40.9-4.1-51.4-4.1c-10.6,0-52.1-10.5-65.7-29.4c-18.4-25.4-27-64.3-54.9-110.9
		c-3.4-5.7-8.6-5.8-14.2-2.4c-9.4,7.5-13.9,25.3-15.5,43.6c-1,11.1-1,26.1-1.7,33.9c3.3,21.8-0.4,17.5,10.8,35.7
		c16.7,27,23.8,34.2,30.2,39.4c51.2,41.9,116.2,41.2,151.3,43.9c0,0,18-1,19.7-0.6c0,0,8.5-20.7,9.3-48.1
		C506.2,360.7,493.8,359.9,488.2,359.9z"/>
	<circle class="st27" cx="721.6" cy="189.8" r="139.4"/>
	<path class="st17" d="M422,61.7c0,0-10.7-6.4-18.6-3c-1.4,0.6-5.5-3.2-13.5-1.6c-3.1,0.6-6.1,1.1-11.3,3.7
		c-19,8.6-44.4,33.5-44.6,105.4c0,0,25.4,28.5,38.5,34.1c0,0-19-85.3,23.8-108.5c5.7-3.1,7.1-3.8,17.6-2c0,0,8.2,5.6,10.9,6.8
		c1.8,0.7,9.3,0.8,10.6,1.6c8.8,5.1,12.2,10.7,7.7,24.5c0,0,3.7-4.7,3-15.8C446.2,107,452.2,78.7,422,61.7z"/>
	<path class="st15" d="M295.7,326.1c16.7,27,23.8,34.2,30.2,39.4c21.5,17.6,45.5,27.7,68.6,33.7c-94.1-72.5-82.4-162.1-76.9-181.3
		c-0.5-0.8-1-1.7-1.5-2.5c-3.4-5.7-8.6-5.8-14.2-2.4c-9.4,7.5-13.9,25.3-15.5,43.6c-1,11.1-1,26.1-1.7,33.9
		C288.2,312.2,284.5,308,295.7,326.1z"/>
</g>
<g id="Capa_3">
	<path class="st28" d="M407.8,161.6c0,0-1.9-1.6-5.6-1.5c-4.1,0.1-13-1.7-13-1.7s4.1,9.3,16.2,12c0,0,5.7,1.9,10.5-1.2
		C415.9,169.3,413.7,161.2,407.8,161.6z"/>
	<path class="st29" d="M414.8,169.3c0,0-1.1-4.9-7.2-6.5c-6.1-1.6-17.5-2-18.5-4.3C389.2,158.5,399.1,168.7,414.8,169.3z"/>
	<g>
		<path class="st30" d="M414.7,128.1c-1.1,2.4-1.7,5.1-1.7,7.7c0,1.3,0.2,2.6,0.6,3.8c0.2,0.6,0.5,1.2,0.8,1.8
			c0.3,0.6,0.7,1.1,1.1,1.6c0.7,1.1,1.4,2.3,1.9,3.6c0.5,1.3,0.9,2.7,0.5,4.2c-0.2,0.7-0.7,1.4-1.3,1.8c-0.6,0.4-1.3,0.6-2,0.7
			c-1.4,0.2-2.7,0.1-4-0.2c1.3,0,2.7,0,3.9-0.3c0.6-0.2,1.2-0.4,1.7-0.8c0.5-0.4,0.8-0.9,0.9-1.4c0.3-1.1-0.1-2.4-0.5-3.6
			c-0.5-1.2-1.1-2.3-1.8-3.4c-0.7-1.1-1.5-2.3-1.8-3.7c-0.4-1.3-0.5-2.7-0.4-4.1c0.1-1.4,0.3-2.7,0.7-4
			C413.5,130.5,414,129.2,414.7,128.1z"/>
	</g>
	
		<ellipse transform="matrix(0.3619 -0.9322 0.9322 0.3619 132.3493 450.7881)" class="st31" cx="395.5" cy="128.7" rx="4.5" ry="2.9"/>
	
		<ellipse transform="matrix(0.3619 -0.9322 0.9322 0.3619 143.1113 483.9581)" class="st31" cx="425.1" cy="137.4" rx="4.5" ry="2.9"/>
	<g>
		<path class="st17" d="M407.5,119.5c-2.3-0.5-4.4-1.2-6.5-1.8c-2.1-0.7-4.1-1.7-6.2-2.2c-1.1-0.3-2.1-0.5-3.1-0.4
			c-1.1,0.1-2.1,0.4-3.2,0.7c-2.1,0.7-4.1,1.7-6.1,2.8l-0.1-0.2c1.8-1.4,3.8-2.6,5.9-3.5c1.1-0.5,2.2-0.9,3.3-1.1
			c1.2-0.2,2.5-0.1,3.6,0.1c2.3,0.4,4.6,1,6.6,1.9c2.1,1,4.1,2.1,5.9,3.5L407.5,119.5z"/>
	</g>
	<g>
		<path class="st17" d="M422.2,125c1.3-0.4,2.6-0.5,3.9-0.5c1.3,0,2.6,0.2,3.9,0.5c1.3,0.4,2.5,0.9,3.7,1.5c1.2,0.6,2.3,1.3,3.3,2.2
			l-0.1-0.1c0.6,0.4,1.1,0.7,1.5,1.2c0.5,0.5,0.9,0.9,1.2,1.5c0.3,0.6,0.5,1.3,0.2,2c-0.2,0.7-0.8,1.1-1.3,1.4l-0.1-0.2
			c0.5-0.4,0.9-0.9,1-1.4c0.1-0.5-0.1-1.1-0.4-1.5c-0.3-0.5-0.8-0.8-1.2-1.2c-0.5-0.3-1-0.7-1.5-0.9l0,0l-0.1-0.1
			c-1-0.7-2.1-1.2-3.2-1.7c-1.1-0.4-2.3-0.7-3.6-0.9c-1.2-0.2-2.4-0.5-3.6-0.8c-1.2-0.3-2.4-0.6-3.7-1V125z"/>
	</g>
	<path class="st18" d="M394.3,56.6c-5.1,0.4-10.5,1.6-15.8,4.3c-19,8.6-44.4,33.5-44.6,105.4c0,0,25.4,28.5,38.5,34.1
		c0,0-16.3-72.9,15.1-102.3l0,0c-25.2,6.5,6.7-21.7,6.7-21.7s-19,10.6-23.4,0C366.4,65.9,394.3,56.6,394.3,56.6z"/>
</g>
</svg>
