<?xml version="1.0" encoding="utf-8"?>
<!-- Generator: Adobe Illustrator 25.4.1, SVG Export Plug-In . SVG Version: 6.00 Build 0)  -->
<svg version="1.1" id="Capa_1" xmlns="http://www.w3.org/2000/svg" xmlns:xlink="http://www.w3.org/1999/xlink" x="0px" y="0px"
	 viewBox="0 0 36.1 36.1" style="enable-background:new 0 0 36.1 36.1;" xml:space="preserve">
<style type="text/css">
	.st0{fill:#00E9C5;}
</style>
<g transform="translate(0 -0.001)">
	<g transform="translate(14.602 0.001)">
		<g transform="translate(0 0)">
			<path class="st0" d="M21.4,9.7c0-0.3-0.1-0.5-0.1-0.8c-0.4-2.3-1.5-4.3-3.1-5.9c-0.6-0.6-1.2-1-1.9-1.5c-0.3-0.1-0.6-0.1-0.7,0.2
				c-0.1,0.3-0.1,0.6,0.2,0.7c0.5,0.3,1,0.7,1.5,1.1c-0.3,1.2-0.5,2.3-0.4,3.5l-1.8,0.8c-1.3-1.1-2.8-1.8-4.5-2.2L10,3.3
				c0.9-0.6,1.7-1.3,2.4-2.1c0.7,0.1,1.3,0.3,2,0.6c0.3,0.1,0.6,0,0.7-0.3s0-0.6-0.3-0.7C9.3-1.4,3.1,1.2,0.8,6.7
				c-0.8,1.9-1,3.9-0.6,5.9c0,0.3,0.1,0.5,0.2,0.8c1.1,4.4,4.9,7.6,9.4,8c0.3,0,0.7,0,1,0c4.1,0,7.8-2.3,9.6-5.9
				C21.2,13.7,21.6,11.7,21.4,9.7z M18.1,4.5c1.1,1.3,1.8,2.8,2.1,4.4c-0.9-0.4-1.7-1-2.4-1.6C17.8,6.3,17.9,5.4,18.1,4.5L18.1,4.5z
				 M10,6.8c1.6,0.3,3,1,4.2,2.1c0.1,1.6-0.1,3.2-0.7,4.7c-1.4,0.7-3,1-4.6,0.8c-1.1-1.2-1.8-2.6-2.2-4.2C7.6,8.8,8.7,7.6,10,6.8z
				 M9.1,1.2c0.7-0.1,1.3-0.2,2-0.1c-0.5,0.5-1.1,1-1.8,1.4C8.6,2.3,7.9,2.1,7.2,1.8C7.8,1.5,8.4,1.3,9.1,1.2z M5.9,2.4
				c0.9,0.5,1.9,0.9,3,1.2l0.4,2.4C7.9,6.8,6.7,8.1,5.9,9.5l-2-0.2C3.5,8.2,2.9,7.1,2.3,6.1C3.1,4.6,4.4,3.3,5.9,2.4L5.9,2.4z
				 M1.7,7.3c0.5,0.8,0.9,1.6,1.1,2.5c-0.4,0.9-1,1.6-1.7,2.3C1,10.5,1.1,8.8,1.7,7.3z M1.5,13.4c0.9-0.9,1.7-1.9,2.3-3l2,0.2
				C6.2,12.2,7,13.7,8.1,15l-0.9,2.1c-1.1,0-2.2,0.1-3.3,0.4C2.7,16.3,1.9,14.9,1.5,13.4L1.5,13.4z M4.8,18.4
				c0.8-0.2,1.6-0.2,2.4-0.2c0.6,0.6,1.1,1.3,1.5,2C7.3,19.9,6,19.2,4.8,18.4z M14.6,19.6c-1.4,0.6-2.9,0.9-4.4,0.8
				c-0.5-1-1.2-2-1.9-2.8L9,15.4c0.3,0,0.6,0.1,0.9,0.1c1.4,0,2.7-0.3,3.9-0.9l1.5,1.6C15,17.3,14.7,18.4,14.6,19.6L14.6,19.6z
				 M15.7,19c0.1-0.8,0.4-1.6,0.7-2.4c0.8-0.3,1.6-0.5,2.4-0.6C18,17.2,17,18.2,15.7,19L15.7,19z M19.5,14.8
				c-1.1,0.1-2.2,0.3-3.3,0.7l-1.5-1.7c0.6-1.6,0.8-3.2,0.7-4.9l1.8-0.8c0.9,0.8,2,1.5,3.2,2C20.4,11.7,20.2,13.3,19.5,14.8
				L19.5,14.8z"/>
		</g>
	</g>
	<g transform="translate(11.763 19.431)">
		<path class="st0" d="M4.7,0.2c-0.2-0.2-0.6-0.2-0.8,0L0.2,3.9C0,4.2,0,4.5,0.2,4.7c0.2,0.2,0.5,0.2,0.7,0l3.8-3.8
			C4.9,0.7,4.9,0.4,4.7,0.2z"/>
	</g>
	<g transform="translate(0 24.731)">
		<path class="st0" d="M11.2,0.2c-0.2-0.2-0.6-0.2-0.8,0L0.2,10.4C0,10.6,0,11,0.2,11.2c0.2,0.2,0.5,0.2,0.7,0L11.2,0.9
			C11.4,0.7,11.4,0.4,11.2,0.2z"/>
	</g>
	<g transform="translate(5.82 16.857)">
		<path class="st0" d="M9.6,0.2c-0.2-0.2-0.6-0.2-0.8,0L0.2,8.8C0,9.1,0,9.4,0.2,9.6c0.2,0.2,0.5,0.2,0.7,0l8.7-8.7
			C9.8,0.7,9.8,0.4,9.6,0.2C9.6,0.2,9.6,0.2,9.6,0.2z"/>
	</g>
	<g transform="translate(0.557 11.928)">
		<path class="st0" d="M12.9,0.2c-0.2-0.2-0.6-0.2-0.8,0L0.2,12.1c-0.2,0.2-0.2,0.6,0,0.8c0.2,0.2,0.5,0.2,0.7,0L12.9,0.9
			C13.1,0.7,13.1,0.4,12.9,0.2z"/>
	</g>
	<g transform="translate(4.536 5.357)">
		<path class="st0" d="M9.7,0.2c-0.2-0.2-0.6-0.2-0.8,0L0.2,8.9C0,9.1,0,9.5,0.2,9.7c0.2,0.2,0.5,0.2,0.7,0l8.7-8.7
			C9.9,0.7,9.9,0.4,9.7,0.2z"/>
	</g>
	<g transform="translate(12.964 22.171)">
		<path class="st0" d="M10.7,0.2c-0.2-0.2-0.6-0.2-0.8,0L0.2,9.9c-0.2,0.2-0.2,0.6,0,0.8c0.2,0.2,0.5,0.2,0.7,0l9.8-9.8
			C10.9,0.7,10.9,0.4,10.7,0.2z"/>
	</g>
</g>
</svg>
