<svg id="Iconos" xmlns="http://www.w3.org/2000/svg" viewBox="0 0 50 50"><title>Iconos Futbol Sala</title><path d="M39.74,28.21A5.42,5.42,0,0,0,38,22.26l-5.48-4.38V9.22A.75.75,0,1,0,31,9.15V24l-1.22,1.63-2.51-8A4.43,4.43,0,0,0,23,14.48a2.25,2.25,0,0,0-2.25,2.25,2.6,2.6,0,0,0,0,.4l1.66,9.39a5.09,5.09,0,0,1-.1,2.23H12.23a.75.75,0,0,1-.75-.75V3.21a.76.76,0,0,1,.75-.75h18a.76.76,0,0,1,.75.75v3a.75.75,0,0,0,1.5.08V3.21A2.25,2.25,0,0,0,30.26,1h-18A2.25,2.25,0,0,0,10,3.21V28a2.24,2.24,0,0,0,2.25,2.26h4.54a2.6,2.6,0,0,0,1.81,2.87,2.56,2.56,0,0,0-.34,1.26A2.63,2.63,0,0,0,20.87,37h.6a2.5,2.5,0,0,0,.07.26l.94,2.81a5.25,5.25,0,0,1,.27,1.66v6.54a.75.75,0,0,0,.75.75H37.77a.76.76,0,0,0,.75-.75.28.28,0,0,0,0-.09l-1.24-10a8.33,8.33,0,0,1,.36-3.64Zm-21.5,2.42a1.16,1.16,0,0,1,.07-.37h3.54l-.19.5c-.12.32-.22.66-.31,1h-2A1.14,1.14,0,0,1,18.24,30.63Zm2.63,4.88a1.13,1.13,0,1,1,0-2.25h.22a9.4,9.4,0,0,0,.05,2.25Zm14.91,2.88,1.14,9.14H24.25V41.75a6.76,6.76,0,0,0-.35-2.14L23,36.8a8.21,8.21,0,0,1,.1-5.51l.55-1.49A6.68,6.68,0,0,0,24,26.26l-1.66-9.39A.75.75,0,0,1,22.9,16L23,16a2.94,2.94,0,0,1,2.81,2.07l2.95,9.43a1,1,0,0,0,.1.21h0l2.26,3a.74.74,0,0,0,1,.21.75.75,0,0,0,.2-1,.43.43,0,0,0,0-.07l-1.92-2.55L32.13,25h1.13a.74.74,0,0,0,.79-.71.76.76,0,0,0-.71-.79h-.83V19.8L37,23.43a3.93,3.93,0,0,1,1.28,4.3L36.2,34.09A9.79,9.79,0,0,0,35.78,38.39Z" style="fill:#0273ff"/></svg>