<?xml version="1.0" encoding="utf-8"?>
<!-- Generator: Adobe Illustrator 25.4.1, SVG Export Plug-In . SVG Version: 6.00 Build 0)  -->
<svg version="1.1" id="Iconos" xmlns="http://www.w3.org/2000/svg" xmlns:xlink="http://www.w3.org/1999/xlink" x="0px" y="0px"
	 viewBox="0 0 20 31.6" style="enable-background:new 0 0 20 31.6;" xml:space="preserve">
<style type="text/css">
	.st0{fill:#FF3737;}
	.st1{enable-background:new    ;}
</style>
<path class="st0" d="M18.8,0H1.3C0.6,0,0,0.6,0,1.3v12.6c0,0.2,0.2,0.3,0.3,0.2c0,0,0,0,0,0c0.1,0,0.2-0.1,0.2-0.2V1.3
	c0-0.4,0.3-0.7,0.7-0.7h17.5c0.4,0,0.7,0.3,0.7,0.7v12.6c0,0.2,0.1,0.3,0.3,0.3l0,0l0,0c0.2,0,0.3-0.1,0.3-0.3V1.3
	C20,0.6,19.5,0,18.8,0z"/>
<path class="st0" d="M18.3,1.4L18.3,1.4c-0.1,0-0.1,0-0.2,0H1.8c-0.1,0-0.1,0-0.2,0C1.5,1.5,1.4,1.7,1.4,1.9v11.4
	c0,0.2,0.1,0.3,0.3,0.3c0,0,0,0,0,0l0,0c0.1,0,0.1,0,0.2,0l1.9-1.4h12.7l1.9,1.4c0.1,0.1,0.3,0.1,0.4-0.1c0,0,0.1-0.1,0.1-0.2V1.9
	C18.7,1.7,18.5,1.5,18.3,1.4z M16.3,2h1.6l-0.2,1.5h-1.5L16.3,2z M16,4h1.5l-0.2,1.4h-1.3L16,4z M17.1,6l-0.2,1.5h-1.2L15.8,6H17.1z
	 M13.8,1.9h1.9l-0.2,1.5h-1.7L13.8,1.9z M13.7,3.9h1.7l-0.2,1.4h-1.6L13.7,3.9z M13.6,5.9h1.6L15,7.4h-1.5L13.6,5.9z M13.4,7.9H15
	l-0.2,1.4h-1.5L13.4,7.9z M11.3,1.8h1.9l-0.1,1.5h-1.7L11.3,1.8z M12.9,7.4h-1.5V6H13L12.9,7.4z M11.4,4h1.7L13,5.5h-1.6V4z
	 M11.4,8.1h1.5l-0.1,1.4h-1.4V8.1z M12.8,10.1l-0.1,1.2c0,0.1,0,0.2,0.1,0.2h-1.4v-1.5H12.8z M9.2,2h1.6v1.5H9.2V2z M9.2,4h1.6v1.5
	H9.2V4z M9.2,6h1.6v1.6H9.2V6z M9.2,8h1.6v1.5H9.2V8z M10.8,10v1.5H9.2V10L10.8,10z M6.9,4h1.7v1.5H7L6.9,4z M7.1,8h1.5v1.5H7.2
	L7.1,8z M7.3,11.3l-0.1-1.2h1.4v1.5H7.2C7.3,11.5,7.3,11.4,7.3,11.3L7.3,11.3z M8.6,7.5H7.1L7,6h1.6L8.6,7.5z M8.6,1.9v1.5H6.9
	L6.8,2L8.6,1.9z M6.4,5.4H4.7L4.5,4h1.7L6.4,5.4z M6.2,1.9l0.1,1.5H4.5L4.3,1.9H6.2z M4.4,7.5H3.1L2.9,6h1.3L4.4,7.5z M4.1,5.5H2.8
	L2.5,4H4L4.1,5.5z M3.7,2l0.2,1.5H2.4L2.2,2H3.7z M1.9,12.7V4.1l1.3,7.7L1.9,12.7z M3.2,8.1h1.2l0.2,1.4H3.5L3.2,8.1z M3.8,11.6
	l-0.3-1.5h1.1l0.2,1.5H3.8z M4.8,6h1.6l0.1,1.5H5L4.8,6z M5.1,8h1.5l0.1,1.5H5.2L5.1,8z M5.3,10h1.4l0.1,1.3c0,0.1,0,0.1,0.1,0.2
	H5.4L5.3,10z M14.1,11.5h-0.9c0.1-0.1,0.1-0.1,0.1-0.2l0.1-1.3h1.4l-0.2,1.5H14.1z M16.2,11.5h-1l0.2-1.5h1.1L16.2,11.5z M15.5,9.5
	l0.2-1.5h1.2l-0.2,1.5H15.5z M16.7,11.8l1.3-7.7v8.7L16.7,11.8z"/>
<path class="st0" d="M10,20.9c-2.7,0-4.9,2.2-4.9,4.9c0,2.7,2.2,4.9,4.9,4.9c2.7,0,4.9-2.2,4.9-4.9C14.9,23.1,12.7,21,10,20.9
	C10,20.9,10,20.9,10,20.9z M13.3,23.2l-0.5,1.4l-1.1,0.5L10.3,24v-1.3l1.2-0.8C12.2,22.2,12.8,22.6,13.3,23.2L13.3,23.2z M11.4,25.6
	l-0.5,1.6H9.1l-0.5-1.6l1.4-1L11.4,25.6z M10,21.6c0.2,0,0.4,0,0.7,0.1L10,22.1l-0.7-0.5C9.6,21.6,9.8,21.6,10,21.6L10,21.6z
	 M8.5,21.9l1.2,0.8V24l-1.5,1.1l-1.1-0.5l-0.5-1.4C7.2,22.6,7.8,22.2,8.5,21.9L8.5,21.9z M6.2,23.9L6.2,23.9l0.3,0.8l-0.7,0.5
	C5.9,24.7,6,24.3,6.2,23.9L6.2,23.9z M6.5,28.2C6,27.5,5.8,26.8,5.8,26L7,25.2l1.1,0.5l0.5,1.7L8,28.2L6.5,28.2z M7,28.8h0.8
	l0.3,0.8C7.7,29.4,7.3,29.1,7,28.8L7,28.8z M11.1,29.9c-0.7,0.2-1.5,0.2-2.3,0l-0.4-1.3L9,27.8h1.9l0.6,0.7L11.1,29.9z M11.9,29.6
	L11.9,29.6l0.3-0.8H13C12.7,29.1,12.3,29.4,11.9,29.6L11.9,29.6z M13.5,28.2h-1.4l-0.6-0.7l0.6-1.8l1.1-0.5l1.1,0.8
	C14.2,26.8,14,27.5,13.5,28.2L13.5,28.2z M13.8,23.9c0.2,0.4,0.3,0.8,0.4,1.3l-0.7-0.5L13.8,23.9z"/>
<path class="st0" d="M10,31c-0.8,0-1.6-0.2-2.2-0.6c0,0.1-0.1,0.1-0.1,0.2c0,0.5,1,1,2.3,1s2.3-0.4,2.3-1c0-0.1,0-0.1,0-0.2
	C11.6,30.8,10.8,31,10,31z"/>
<g class="st1">
	<path class="st0" d="M4.2,19.3H3.9c-0.3,0-0.5-0.1-0.5-0.4v-3.7c-0.1,0-0.4,0.2-0.5,0.2c-0.3,0-0.4-0.3-0.4-0.6
		c0-0.2,0.1-0.3,0.3-0.4C3.3,14.2,3.7,14,4.2,14c0.3,0,0.4,0.2,0.4,0.4v4.5C4.6,19.2,4.5,19.3,4.2,19.3z"/>
	<path class="st0" d="M8.9,19.4c-1.7,0-2.1-1.3-2.1-2.8c0-1.4,0.3-2.8,2.1-2.8s2.1,1.3,2.1,2.8C10.9,18.1,10.6,19.4,8.9,19.4z
		 M9.5,15.2c-0.1-0.2-0.4-0.3-0.6-0.3S8.3,15,8.2,15.2C8,15.6,8,16.3,8,16.7c0,0.4,0,1.1,0.2,1.4c0.1,0.2,0.4,0.3,0.6,0.3
		s0.5-0.1,0.6-0.3c0.2-0.3,0.2-1,0.2-1.4C9.7,16.3,9.7,15.6,9.5,15.2z"/>
	<path class="st0" d="M17,19.3c-0.3,0-0.5-0.1-0.5-0.4v-2c0-0.1,0-0.6-0.1-0.6c-0.2,0-0.5,0.2-0.7,0.4v2.2c0,0.5-0.3,0.4-0.7,0.4
		c-0.3,0-0.5-0.1-0.5-0.4v-2c0-0.1,0-0.6-0.1-0.6c-0.2,0-0.5,0.2-0.7,0.4v2.2c0,0.5-0.3,0.4-0.7,0.4c-0.3,0-0.5-0.1-0.5-0.4v-3
		c0-0.5,0.4-0.4,0.8-0.4c0.1,0,0.3,0.1,0.3,0.2c0.3-0.2,0.7-0.3,1.1-0.3c0.3,0,0.6,0.1,0.8,0.4c0.4-0.2,0.8-0.4,1.2-0.4
		c0.7,0,1,0.5,1,1.2v2.4C17.7,19.4,17.3,19.3,17,19.3z"/>
</g>
</svg>
