<?xml version="1.0" encoding="utf-8"?>
<!-- Generator: Adobe Illustrator 25.4.1, SVG Export Plug-In . SVG Version: 6.00 Build 0)  -->
<svg version="1.1" id="Capa_1" xmlns="http://www.w3.org/2000/svg" xmlns:xlink="http://www.w3.org/1999/xlink" x="0px" y="0px"
	 viewBox="0 0 110.8 118.5" style="enable-background:new 0 0 110.8 118.5;" xml:space="preserve">
<style type="text/css">
	.st0{fill:#FF3737;}
</style>
<path class="st0" d="M87.4,84c0-0.5,0.4-1,1-1c0,0,0,0,0,0h5c0.5,0,1,0.4,1,1c0,0,0,0,0,0l0,0c0,0.6-0.5,1-1,1h-5
	C87.9,85,87.5,84.6,87.4,84z"/>
<path class="st0" d="M42.8,81.5c-0.5,0-0.9-0.1-1.4-0.2c-2.3-0.7-3.7-3.2-3-5.5l2.6-9.5l-8.3-5.2L28.3,66c-0.4,0.4-1,0.4-1.4,0
	c0,0,0,0,0,0l0,0c-0.4-0.4-0.4-1,0-1.4l0,0l4.4-5c0.7-0.7,1.7-0.8,2.5-0.3l8.5,5.4c0.7,0.5,1.1,1.4,0.8,2.2l-2.6,9.5
	c-0.3,1.4,0.6,2.7,2,3c1.2,0.2,2.4-0.4,2.8-1.6l0,0l3.9-13.9c0.2-0.6-0.1-1.2-0.6-1.6l-10.2-6.7c-0.3-0.2-0.5-0.6-0.4-1l1.1-8.1
	c0.1-0.6,0.6-0.9,1.1-0.9l0,0c0.2,0,0.4,0.1,0.6,0.2l4,3.6c0.6,0.5,1.4,0.6,2.1,0.2l9.8-5.7c0.8-0.4,1.1-1.4,0.7-2.2
	c-0.1-0.1-0.1-0.2-0.2-0.3c-0.5-0.6-1.4-0.8-2.2-0.4l-6.6,3.8c-1.1,0.8-2.6,0.6-3.6-0.4l-4-4.3c-2.5-2.5-6.2-3.5-9.7-2.5L9.7,43.9
	c-0.9,0.3-1.5,1.2-1.2,2.2l0,0c0.2,0.8,0.9,1.3,1.7,1.3l0.4,0l18.7-5.5c0.5-0.2,1.1,0.1,1.3,0.6c0,0,0,0,0,0.1l0,0
	c0.1,0.2,0.1,0.4,0,0.6l-3.2,10.6c0,0.1-0.1,0.2-0.1,0.3L20,64.6c-0.2,0.3-0.5,0.5-0.9,0.5H4.4c-1.3,0-2.3,1-2.3,2.3
	c0,1.3,1,2.3,2.3,2.3h5.8c0.5,0,1,0.4,1,1c0,0,0,0,0,0l0,0c0,0.6-0.5,1-1,1H4.4c-2.4,0-4.4-2-4.4-4.4c0-2.4,2-4.4,4.4-4.4h14.2
	l7-10.1l2.6-8.6l-16.9,5c-0.4,0.1-0.7,0.2-1.1,0.2c-2.1,0.1-3.8-1.6-3.9-3.7c-0.1-1.8,1.1-3.4,2.9-3.8l21.5-6.1
	c4.2-1.2,8.6,0,11.7,3l4.2,4.1c0.3,0.3,0.7,0.3,1,0.1l6.6-3.8c1.6-0.9,3.5-0.5,4.7,0.8c1.4,1.5,1.3,3.9-0.3,5.3l0,0
	c-0.2,0.2-0.4,0.3-0.6,0.4l-9.8,5.7c-1.5,0.9-3.3,0.7-4.5-0.5L41,48.7l-0.7,5.5l9.4,6.4c1.3,0.8,1.9,2.4,1.4,3.9l-3.9,13.7
	C46.7,80.1,44.9,81.5,42.8,81.5z"/>
<path class="st0" d="M20.3,71.7h-3c-0.6,0-1-0.5-1-1c0-0.5,0.4-1,1-1c0,0,0,0,0,0h3c0.6,0,1,0.4,1,1l0,0
	C21.4,71.3,20.9,71.7,20.3,71.7z"/>
<path class="st0" d="M42.6,35.3c-4,0-7.2-3.2-7.2-7.2c0-4,3.2-7.2,7.2-7.2c4,0,7.2,3.2,7.2,7.2c0,0,0,0.1,0,0.1l0,0l0,0
	C49.7,32.2,46.5,35.3,42.6,35.3z M42.6,22.9c-2.9,0-5.2,2.3-5.2,5.2s2.3,5.2,5.2,5.2c2.9,0,5.2-2.3,5.2-5.2l0,0
	C47.8,25.3,45.5,22.9,42.6,22.9L42.6,22.9z"/>
<path class="st0" d="M88.8,83l-9.2-10.1c-0.7-0.7-1.7-0.8-2.5-0.3l-8.5,5.4c-0.7,0.5-1.1,1.4-0.8,2.2l2.6,9.5c0.3,1.4-0.6,2.7-2,3
	c-1.2,0.2-2.4-0.4-2.8-1.6l0,0l-3.9-13.8c-0.2-0.6,0.1-1.2,0.6-1.6l10-6.7c0.3-0.2,0.5-0.6,0.4-1l-1.1-8.1c-0.1-0.6-0.6-0.9-1.1-0.9
	l0,0c-0.2,0-0.4,0.1-0.6,0.2l-4,3.6c-0.6,0.5-1.4,0.6-2.1,0.2L54,57.3c-0.8-0.4-1.1-1.4-0.7-2.2c0.1-0.1,0.1-0.2,0.2-0.3
	c0.5-0.6,1.4-0.8,2.2-0.4l6.6,3.8c1.1,0.8,2.6,0.6,3.6-0.4l4-4.3c2.5-2.5,6.2-3.5,9.7-2.5l21.5,6.1c0.9,0.3,1.5,1.2,1.2,2.2l0,0
	c-0.2,0.8-0.9,1.3-1.7,1.3l-0.3,0l-18.8-5.5c-0.5-0.2-1.1,0.1-1.3,0.6c0,0,0,0,0,0.1l0,0c-0.1,0.2-0.1,0.4,0,0.6L83.3,67
	c0,0.1,0.1,0.2,0.1,0.3l1.8,2.8c0.6,0.3,1.3,0.1,1.6-0.4c0.1-0.2,0.1-0.5,0-0.7l-1.7-2.8l-2.8-8.6l16.9,5c0.4,0.1,0.7,0.2,1.1,0.2
	c2.1,0.1,3.8-1.6,3.9-3.7c0.1-1.8-1.1-3.4-2.9-3.8L80,49.1c-4.2-1.2-8.6,0-11.7,3l-4,4.1c-0.3,0.3-0.7,0.3-1,0.1l-6.5-3.8
	c-1.6-0.9-3.5-0.5-4.7,0.8c-1.4,1.5-1.3,3.9,0.3,5.3l0,0c0.2,0.2,0.4,0.3,0.6,0.4l9.8,5.7c1.5,0.9,3.3,0.7,4.5-0.5l2.6-2.3l0.7,5.5
	l-9.4,6.4c-1.3,0.8-1.9,2.4-1.4,3.9l3.9,13.7c0.6,1.9,2.3,3.3,4.4,3.3c0.5,0,0.9-0.1,1.4-0.2c2.3-0.7,3.7-3.2,3-5.5l-2.8-9.4
	l8.5-5.2l9.4,10.4c0.4,0.4,1.1,0.4,1.5,0c0.4-0.4,0.4-1,0-1.4C88.9,83.3,88.9,83.1,88.8,83z"/>
<path class="st0" d="M106.4,76.3H92.2l-2.8-4.2c-0.4-0.2-0.8-0.2-1.2,0c-0.4,0.3-0.6,0.7-0.5,1.2l3.1,4.6c0.2,0.3,0.5,0.5,0.9,0.5
	h14.7c1.3,0,2.3,1,2.3,2.3v0l0,0c0,1.3-1,2.3-2.3,2.3H93c-0.6,0-1,0.5-1,1c0,0.6,0.5,1,1,1h13.5c2.4,0,4.4-2,4.4-4.4
	C110.8,78.2,108.8,76.3,106.4,76.3C106.4,76.3,106.4,76.3,106.4,76.3L106.4,76.3z"/>
<path class="st0" d="M52.7,80.4c-4,0-7.2,3.2-7.2,7.2c0,4,3.2,7.2,7.2,7.2c3.9,0,7.1-3.1,7.2-7C59.8,83.7,56.6,80.5,52.7,80.4z
	 M57.5,83.7l-0.7,2l-1.6,0.7l-2.1-1.6V83l1.7-1.2C56,82.2,56.8,82.8,57.5,83.7L57.5,83.7z M54.7,87.1l-0.8,2.4h-2.4l-0.8-2.4l2-1.5
	L54.7,87.1z M52.7,81.3c0.3,0,0.7,0,1,0l-1,0.7l-1-0.7C52,81.3,52.3,81.3,52.7,81.3L52.7,81.3z M50.5,81.7l1.7,1.2v1.9l-2.1,1.6
	l-1.7-0.7l-0.7-2C48.5,82.8,49.4,82.1,50.5,81.7L50.5,81.7z M47.1,84.7L47.1,84.7l0.4,1.2l-1,0.7C46.6,85.9,46.9,85.3,47.1,84.7z
	 M47.5,90.9c-0.6-0.9-1-2-1-3.1l1.7-1.2l1.6,0.7l0.8,2.6l-0.9,1.1L47.5,90.9z M48.3,91.9h1.2l0.4,1.1C49.3,92.8,48.7,92.3,48.3,91.9
	L48.3,91.9z M54.3,93.5c-1.1,0.3-2.2,0.3-3.3,0l-0.6-2l0.9-1.1H54l0.9,1.1L54.3,93.5z M55.4,93.1L55.4,93.1l0.4-1.1H57
	C56.6,92.4,56,92.7,55.4,93.1L55.4,93.1z M57.9,90.9h-2.2l-0.9-1.1l0.9-2.5l1.6-0.7l1.7,1.2C58.8,88.9,58.5,90,57.9,90.9L57.9,90.9z
	 M58.1,84.7c0.3,0.6,0.5,1.2,0.6,1.9l-1-0.7L58.1,84.7z"/>
<path class="st0" d="M70.5,47.8c-4,0-7.2-3.2-7.2-7.2s3.2-7.2,7.2-7.2c4,0,7.2,3.2,7.2,7.2c0,0,0,0.1,0,0.1l0,0l0,0
	C77.6,44.7,74.4,47.8,70.5,47.8z M70.5,35.4c-2.9,0-5.2,2.3-5.2,5.2s2.3,5.2,5.2,5.2c2.9,0,5.2-2.3,5.2-5.2l0,0
	C75.6,37.8,73.3,35.4,70.5,35.4L70.5,35.4z"/>
</svg>
