<svg id="football_2_" data-name="football (2)" xmlns="http://www.w3.org/2000/svg" width="49.056" height="49.056" viewBox="0 0 49.056 49.056">
  <path id="Trazado_1973" data-name="Trazado 1973" d="M66.621,28.131a18.6,18.6,0,0,0,2.4-7.193c0-.008,0-.016,0-.025a18.861,18.861,0,0,0,.127-2.179A18.663,18.663,0,0,0,64.235,6.1a.959.959,0,0,0-.171-.184,18.793,18.793,0,0,0-7.216-4.776.944.944,0,0,0-.154-.055,18.733,18.733,0,0,0-13.226.255.958.958,0,0,0-.169.069,18.818,18.818,0,0,0-6.861,4.87.989.989,0,0,0-.162.183A18.7,18.7,0,0,0,31.8,20.816c0,.009,0,.017,0,.025a18.585,18.585,0,0,0,.77,3.6L22.507,34.5a.958.958,0,1,0,1.355,1.355l9.461-9.46a18.681,18.681,0,0,0,.876,1.706.946.946,0,0,0,.109.185,18.823,18.823,0,0,0,10.719,8.388l-6.75,6.749a.958.958,0,1,0,1.355,1.355L47.219,37.2A18.731,18.731,0,0,0,66.5,28.333a.953.953,0,0,0,.12-.2Zm-8.29.038-3.409-5.246,1.813-5.578,4.308-.967,1.121-.252,4.9,5.03a16.689,16.689,0,0,1-1.941,5.738ZM45.913,22.924l-3.407,5.243L35.7,26.86a16.7,16.7,0,0,1-1.934-5.788l4.9-4.947,5.435,1.22,1.208,3.718ZM36.471,9.343l.864,5.4L33.6,18.512a16.721,16.721,0,0,1,2.87-9.169ZM47.661,22.1,45.969,16.9,50.4,13.677,54.83,16.9,53.138,22.1Zm19.573-3.517-3.754-3.855.664-5.705A16.727,16.727,0,0,1,67.234,18.587ZM62.451,7l-.848,7.29-2.061.463L56.2,15.5,51.393,12V6.817l5.2-3.727A16.88,16.88,0,0,1,62.451,7ZM54.307,2.371,50.377,5.188,45.995,2.507a16.842,16.842,0,0,1,8.312-.136Zm-10.638.96,5.772,3.532V12L46.048,14.47,44.63,15.5,39.2,14.281,38.087,7.31A16.894,16.894,0,0,1,43.67,3.331ZM37.177,29.1l5.17.993,2.633,4.564a16.887,16.887,0,0,1-7.8-5.556Zm10.4,6.217-3.492-6.053,3.4-5.239h5.864l3.4,5.239-3.492,6.053a16.866,16.866,0,0,1-5.689,0Zm8.282-.661,2.631-4.562,5.15-.967a16.885,16.885,0,0,1-7.781,5.529Zm0,0" transform="translate(-20.097 0)" fill="#050c42"/>
  <path id="Trazado_1974" data-name="Trazado 1974" d="M13.2,357.487.281,370.4a.958.958,0,1,0,1.355,1.355l12.915-12.915a.958.958,0,1,0-1.355-1.355Zm0,0" transform="translate(0 -322.982)" fill="#050c42"/>
  <path id="Trazado_1975" data-name="Trazado 1975" d="M157.106,481.012a.958.958,0,1,0,.677.281A.965.965,0,0,0,157.106,481.012Zm0,0" transform="translate(-141.187 -434.925)" fill="#050c42" stroke="#fff" stroke-width="1"/>
</svg>
