<?xml version="1.0" encoding="utf-8"?>
<!-- Generator: Adobe Illustrator 25.0.0, SVG Export Plug-In . SVG Version: 6.00 Build 0)  -->
<svg version="1.1" id="Capa_1" xmlns="http://www.w3.org/2000/svg" xmlns:xlink="http://www.w3.org/1999/xlink" x="0px" y="0px"
	 viewBox="0 0 38.2 38.1" style="enable-background:new 0 0 38.2 38.1;" xml:space="preserve">
<style type="text/css">
	.st0{fill:#050B3D;}
</style>
<g transform="translate(0 -0.417)">
	<path class="st0" d="M19.1,21.8c-4.6,0.1-8.2,3.8-8.4,8.4c0.2,4.6,3.8,8.2,8.4,8.4c4.6-0.1,8.2-3.8,8.4-8.4
		C27.4,25.6,23.7,21.9,19.1,21.8z M25.6,26.9c0.4,0.7,0.6,1.4,0.7,2.2l-1.2-0.8L25.6,26.9z M24.8,25.7L24,28l-1.8,0.8L19.7,27v-2.2
		l2-1.4C22.9,23.8,24,24.6,24.8,25.7L24.8,25.7z M21.4,29.7l-0.9,2.8h-2.9l-0.9-2.8L19,28L21.4,29.7z M19.1,22.9
		c0.4,0,0.8,0,1.2,0.1l-1.2,0.8L17.9,23C18.3,22.9,18.7,22.9,19.1,22.9L19.1,22.9z M16.5,23.4l2,1.4V27L16,28.8L14.2,28l-0.8-2.4
		C14.2,24.6,15.3,23.8,16.5,23.4L16.5,23.4z M12.6,26.9l0.4,1.4L11.9,29C12,28.3,12.3,27.5,12.6,26.9L12.6,26.9z M13,34.2
		c-0.7-1.1-1.1-2.4-1.2-3.7l2-1.4l1.8,0.8l1,3l-1.1,1.3H13z M14,35.3h1.4l0.4,1.4C15.1,36.3,14.5,35.8,14,35.3z M21,37.2
		c-1.3,0.3-2.6,0.3-3.9,0l-0.8-2.3l1.1-1.3h3.2l1.1,1.3L21,37.2z M22.4,36.6l0.4-1.4h1.4C23.7,35.8,23.1,36.3,22.4,36.6L22.4,36.6z
		 M25.1,34.2h-2.5l-1.1-1.3l1-3l1.8-0.8l2,1.4C26.3,31.8,25.9,33.1,25.1,34.2L25.1,34.2z M35,3.1c-0.1,0-0.2-0.1-0.3-0.1H3.5
		C3.4,3,3.3,3,3.2,3.1C2.8,3.3,2.6,3.6,2.6,4v21.7c0,0.3,0.3,0.6,0.6,0.6c0.1,0,0.2,0,0.3-0.1L7,23.6h4.3c0.3,0,0.6-0.3,0.6-0.6
		s-0.3-0.6-0.6-0.6h-1L10,19.6h2.6l0.1,2.4c0,0.3,0.3,0.5,0.6,0.5l0,0c0.3,0,0.5-0.3,0.5-0.6l0,0l-0.1-2.4h2.6v1.1
		c0,0.3,0.3,0.6,0.6,0.6s0.6-0.3,0.6-0.6v-1.1h3v0.7c0,0.3,0.3,0.6,0.6,0.6s0.6-0.3,0.6-0.6v-0.7h2.6l-0.1,2.4
		c0,0.3,0.2,0.6,0.5,0.6l0,0l0,0c0.3,0,0.5-0.2,0.6-0.5l0.1-2.4H28l-0.3,2.8h-1c-0.3,0-0.6,0.3-0.6,0.6s0.3,0.6,0.6,0.6l0,0H31
		l3.5,2.6c0.3,0.2,0.6,0.1,0.8-0.1c0.1-0.1,0.1-0.2,0.1-0.3V4C35.6,3.6,35.3,3.3,35,3.1z M12.2,10.8H9L8.7,8H12L12.2,10.8z
		 M11.8,4.2L12,6.9H8.6L8.3,4.1L11.8,4.2z M8.4,14.7H6l-0.5-2.8H8L8.4,14.7z M7.9,10.8H5.3L4.8,8h2.7L7.9,10.8z M7.1,4.1l0.3,2.8
		H4.6L4.2,4.1H7.1z M3.7,24.6V8.2l2.5,14.6L3.7,24.6z M6.2,15.8h2.3l0.3,2.8H6.7L6.2,15.8z M7.3,22.5l-0.5-2.8h2.1l0.3,2.8H7.3z
		 M9.2,11.9h3.1l0.2,2.8h-3L9.2,11.9z M9.9,18.6l-0.3-2.8h2.9l0.2,2.8H9.9z M16.5,18.6h-2.7l-0.2-2.8h2.9V18.6z M16.5,14.7h-2.9
		l-0.2-2.8h3.1V14.7z M16.5,10.8h-3.2L13.2,8h3.3V10.8z M16.5,6.9h-3.4l-0.2-2.8h3.5L16.5,6.9L16.5,6.9z M20.6,18.6h-3v-2.8h3V18.6z
		 M20.6,14.7h-3v-2.8h3V14.7z M20.6,10.8h-3V8h3V10.8z M20.6,6.9h-3V4.1h3V6.9z M24.4,18.6h-2.7v-2.8h2.9L24.4,18.6z M24.7,14.7
		h-2.9v-2.8h3.1L24.7,14.7z M24.9,10.8h-3.2V8H25L24.9,10.8z M25.1,6.9h-3.4V4.1h3.5L25.1,6.9z M31,4.1h3l-0.5,2.8h-2.8L31,4.1z
		 M30.6,8h2.7l-0.5,2.8h-2.6L30.6,8z M32.7,11.9l-0.5,2.8h-2.4l0.3-2.8H32.7z M26.4,4.1h3.5l-0.3,2.8h-3.4L26.4,4.1z M26.2,8h3.3
		l-0.3,2.8H26L26.2,8z M28.3,18.6h-2.7l0.2-2.8h2.9L28.3,18.6z M25.8,14.7l0.2-2.8h3l-0.3,2.8H25.8z M30.9,22.5H29l0.3-2.8h2.1
		L30.9,22.5z M29.4,18.6l0.3-2.8H32l-0.5,2.8H29.4z M34.5,24.6L32,22.8l2.5-14.6V24.6z M35.8,0.4H2.5C1.1,0.4,0,1.5,0,2.8v24
		c0,0.3,0.2,0.6,0.6,0.6l0,0l0,0c0.3,0,0.6-0.3,0.6-0.6l0,0v-24c0-0.7,0.6-1.3,1.3-1.3h33.3c0.7,0,1.3,0.6,1.3,1.3v24
		c0,0.3,0.3,0.6,0.6,0.6s0.6-0.3,0.6-0.6v-24C38.2,1.5,37.1,0.4,35.8,0.4z"/>
</g>
</svg>
