<?xml version="1.0" encoding="utf-8"?>
<!-- Generator: Adobe Illustrator 25.4.1, SVG Export Plug-In . SVG Version: 6.00 Build 0)  -->
<svg version="1.1" id="Iconos" xmlns="http://www.w3.org/2000/svg" xmlns:xlink="http://www.w3.org/1999/xlink" x="0px" y="0px"
	 viewBox="0 0 29.9 40.1" style="enable-background:new 0 0 29.9 40.1;" xml:space="preserve">
<style type="text/css">
	.st0{fill:#050B3D;}
</style>
<path class="st0" d="M29.5,38.1h-4.8c-0.2,0-0.4,0.1-0.4,0.3s0.1,0.4,0.3,0.4h0.1h4.8c0.2,0,0.4-0.1,0.4-0.3S29.8,38.1,29.5,38.1
	L29.5,38.1z"/>
<path class="st0" d="M28.1,0H1.9C0.8,0,0,0.8,0,1.9l0,0v18.9c0,0.2,0.2,0.4,0.4,0.4l0,0c0.2,0,0.4-0.2,0.4-0.4l0,0V1.9
	c0-0.6,0.4-1,1-1H28c0.6,0,1,0.4,1,1v18.9c0,0.2,0.2,0.4,0.4,0.4s0.4-0.2,0.5-0.4l0,0V1.9C30,0.9,29.2,0,28.1,0L28.1,0z"/>
<path class="st0" d="M27.5,2.1L27.5,2.1c-0.1,0-0.2-0.1-0.2-0.1H2.8C2.7,2,2.6,2,2.6,2.1C2.3,2.2,2.1,2.5,2.1,2.8v17.1
	c0,0.2,0.2,0.4,0.4,0.4c0.1,0,0.2,0,0.2-0.1l2.8-2h18.9l2.8,2c0.2,0.1,0.5,0.1,0.6-0.1c0.1-0.1,0.1-0.2,0.1-0.2v-17
	C28,2.6,27.8,2.3,27.5,2.1z M24.4,3h2.3l-0.4,2.2h-2.2L24.4,3z M24,6h2.2l-0.4,2.2h-2L24,6z M25.6,9.1l-0.4,2.2h-1.8l0.2-2.2H25.6z
	 M20.7,2.9h2.8l-0.2,2.2h-2.7L20.7,2.9z M20.5,6h2.6l-0.2,2.2h-2.5L20.5,6z M20.4,9.1h2.4l-0.2,2.2h-2.3L20.4,9.1z M20.2,12.1h2.3
	l-0.2,2.2h-2.1L20.2,12.1z M17.1,2.9h2.8l-0.1,2.2h-2.7C17.1,5.1,17.1,2.9,17.1,2.9z M19.4,11.3h-2.3V9.1h2.4L19.4,11.3z M17.1,6
	h2.6l-0.1,2.2h-2.5V6z M17.1,12.1h2.2l-0.1,2.2h-2.1V12.1z M19.1,15.2L19,17c0,0.1,0,0.2,0.1,0.3h-2v-2.2L19.1,15.2z M13.8,2.9h2.4
	v2.2h-2.4V2.9z M13.8,6h2.4v2.2h-2.4V6z M13.8,9.1h2.4v2.2h-2.4V9.1z M13.8,12.1h2.4v2.2h-2.4V12.1z M16.2,15.2v2.2h-2.4v-2.2H16.2z
	 M10.3,6h2.6v2.2h-2.5L10.3,6z M10.7,12.1h2.2v2.2h-2.1L10.7,12.1z M11,17l-0.1-1.9H13v2.2h-2.1C10.9,17.3,11,17.2,11,17z M13,11.3
	h-2.4l-0.1-2.2h2.4L13,11.3z M13,3v2.2h-2.7L10.2,3H13z M9.6,8.2H7.1L6.9,6h2.6L9.6,8.2z M9.3,3l0.1,2.2H6.7L6.5,3H9.3z M6.6,11.3
	H4.7L4.3,9.1h2L6.6,11.3z M6.3,8.2h-2L3.9,6H6L6.3,8.2z M5.7,3l0.2,2.2H3.6L3.2,3H5.7z M2.9,19.1v-13l2,11.5L2.9,19.1z M4.9,12.1
	h1.8l0.2,2.2H5.2L4.9,12.1z M5.8,17.4l-0.4-2.2H7l0.2,2.2H5.8z M7.2,9.1h2.4l0.1,2.2H7.4L7.2,9.1z M7.6,12.1h2.2l0.1,2.2H7.8
	L7.6,12.1z M7.9,15.2H10l0.1,1.9c0,0.1,0.1,0.2,0.1,0.3H8.1L7.9,15.2z M21.1,17.4h-1.3c0.1-0.1,0.1-0.2,0.1-0.3l0.1-1.9h2.1
	l-0.2,2.2C21.9,17.4,21.1,17.4,21.1,17.4z M24.2,17.4h-1.5l0.3-2.2h1.6L24.2,17.4z M23.1,14.3l0.2-2.2h1.8l-0.4,2.2H23.1z
	 M25.1,17.6l2-11.5V19L25.1,17.6z"/>
<path class="st0" d="M15,22.5c-4.4,0.1-7.9,3.6-8,8c0.1,4.4,3.6,7.9,8,8c4.4-0.1,7.9-3.6,8-8C22.9,26.1,19.4,22.6,15,22.5z
	 M20.4,26.2l-0.7,2.3l-1.8,0.8l-2.4-1.7v-2.1l1.9-1.4C18.6,24.4,19.6,25.2,20.4,26.2z M17.2,30l-0.9,2.6h-2.8L12.6,30l2.2-1.6
	L17.2,30z M15,23.6c0.4,0,0.7,0,1.1,0.1L15,24.4l-1.1-0.8C14.3,23.6,14.6,23.6,15,23.6z M12.6,24l1.9,1.4v2.1l-2.4,1.7l-1.8-0.8
	l-0.7-2.3C10.4,25.2,11.4,24.4,12.6,24z M8.9,27.3L8.9,27.3l0.4,1.3l-1.1,0.8C8.3,28.7,8.5,28,8.9,27.3z M9.2,34.3
	c-0.7-1-1.1-2.3-1.1-3.5l1.9-1.4l1.8,0.8l0.9,2.9l-1,1.2H9.2z M10.1,35.4h1.4l0.4,1.3C11.2,36.3,10.6,35.9,10.1,35.4L10.1,35.4z
	 M16.8,37.2c-1.2,0.3-2.5,0.3-3.7,0L12.4,35l1-1.2h3l1,1.2L16.8,37.2z M18.1,36.7L18.1,36.7l0.4-1.3h1.4
	C19.4,35.9,18.8,36.3,18.1,36.7L18.1,36.7z M20.8,34.3h-2.4l-1-1.2l0.9-2.8l1.8-0.8l1.8,1.3C21.9,32,21.5,33.2,20.8,34.3L20.8,34.3z
	 M21.1,27.3c0.3,0.7,0.6,1.4,0.7,2.1l-1.1-0.8L21.1,27.3z"/>
<path class="st0" d="M1.9,38.8c0.2,0,0.3-0.2,0.3-0.4S2,38.1,1.9,38.1H0.8c-0.2,0-0.3,0.2-0.3,0.4s0.2,0.3,0.3,0.3H1.9z"/>
<path class="st0" d="M22.3,38.1h-3.8c-1.1,0.5-2.3,0.9-3.6,0.9c-1.2,0-2.4-0.3-3.5-0.9H4.2c-0.2,0-0.3,0.2-0.3,0.4s0.2,0.3,0.3,0.3
	h7c0.3,0.7,1.8,1.3,3.7,1.3s3.4-0.6,3.7-1.3h3.6c0.2,0,0.3-0.2,0.3-0.4C22.6,38.2,22.5,38.1,22.3,38.1L22.3,38.1z"/>
</svg>
