<?xml version="1.0" encoding="utf-8"?>
<!-- Generator: Adobe Illustrator 25.4.1, SVG Export Plug-In . SVG Version: 6.00 Build 0)  -->
<svg version="1.1" id="Capa_1" xmlns="http://www.w3.org/2000/svg" xmlns:xlink="http://www.w3.org/1999/xlink" x="0px" y="0px"
	 viewBox="0 0 50 50" style="enable-background:new 0 0 50 50;" xml:space="preserve">
<style type="text/css">
	.st0{fill:#00E9C5;}
	.st1{fill:#122A37;}
	.st2{font-family:'CachetStd-Medium';}
	.st3{font-size:16.9452px;}
	.st4{font-family:'CachetStd-Bold';}
	.st5{font-size:9.0374px;}
</style>
<g>
	<path class="st0" d="M48,34.3c-0.2,0.6-0.5,1.1-0.9,1.6c-0.8,0.8-1.7,1.1-2.8,1.1c-4.3,0-8.6,0-12.9,0c-0.3,0-0.6,0.1-0.7,0.5
		c-0.5,0.9-1.2,1.6-2,2.1c-0.2,0.1-0.3,0.3-0.3,0.6c0,0.6,0,1.1,0,1.7c0,0.3,0,0.5,0.5,0.5c1.7,0,3.1,1,3.4,2.7c0.2,1,0,1.4-1,1.4
		c-4.2,0-8.2,0-12.4,0c-1,0-1.2-0.3-1-1.4c0.3-1.7,1.7-2.7,3.4-2.7c0.3,0,0.6-0.1,0.6-0.5c0-0.6,0-1.1,0-1.7c0-0.3-0.1-0.5-0.3-0.6
		c-0.9-0.6-1.6-1.2-2-2.1c-0.2-0.3-0.5-0.3-0.7-0.3c-4.3,0-8.7,0-13,0c-1.6,0-2.8-0.8-3.4-2.1C2,34.5,2,34,2,33.6c0-8.4,0-16.7,0-25
		c0-2,1.5-3.5,3.5-3.5c1.4,0,2.8,0,4.2,0c11.5,0,23,0,34.6,0c1.9,0,3.1,0.9,3.6,2.7c0,0,0,0,0.1,0.1C48,16.6,48,25.5,48,34.3z"/>
	<path class="st1" d="M25.1,6.5c6.4,0,12.9,0,19.3,0c1.4,0,2.3,1,2.3,2.3c0,8.2,0,16.4,0,24.6c0,1.2-0.8,2.3-2.3,2.3
		c-4.2,0-8.4,0-12.5,0c-0.3,0-0.3,0-0.3-0.5c0.8-3.7-1.8-7.5-5.6-8c-3.3-0.5-6.3,1.4-7.3,4.4c-0.1,0.2-0.2,0.3-0.5,0.3
		c-3.6,0-7.2,0-10.8,0c-0.3,0-0.3-0.1-0.3-0.5c0-5,0-10.1,0-15c0-0.2,0-0.6-0.2-0.7c-0.2-0.1-0.5-0.2-0.7-0.1
		c-0.2,0.1-0.3,0.2-0.5,0.6c0,0.1,0,0.2,0,0.3c0,5.3,0,10.5,0,15.8c0,0.8,0.2,1,1,1c3.7,0,7.5,0,11.2,0c0.3,0,0.5,0.1,0.5,0.5
		c0,0.5,0,0.9,0.1,1.4c0.1,0.3,0,0.3-0.3,0.3c-1.9,0-3.8,0-5.6,0c-2.3,0-4.5,0-6.8,0c-1.5,0-2.3-1-2.3-2.3c0-8.2,0-16.4,0-24.6
		c0-1.4,0.9-2.3,2.3-2.3C12.1,6.5,18.5,6.5,25.1,6.5z"/>
	<path class="st1" d="M24.9,39.3c-2.9,0-5.4-2.5-5.4-5.4c0-2.9,2.5-5.4,5.4-5.4s5.3,2.5,5.4,5.4C30.4,36.9,28,39.3,24.9,39.3z"/>
	<path class="st1" d="M19.2,45c0.2-0.7,0.9-1.2,1.6-1.2c2.7,0,5.5,0,8.2,0c0.8,0,1.5,0.5,1.7,1.2"/>
	<path class="st1" d="M24.9,42.3c-0.6,0-1.1,0-1.7,0c-0.2,0-0.3,0-0.3-0.2c0-0.5,0-0.9,0-1.5c0-0.2,0-0.2,0.2-0.2
		c1.1,0.3,2.4,0.3,3.5,0c0.2-0.1,0.2,0.1,0.2,0.2c0,0.5,0,0.9,0,1.4c0,0.2-0.1,0.3-0.3,0.3C26.1,42.3,25.5,42.3,24.9,42.3z"/>
	<path class="st0" d="M24.9,8.7c6.1,0,12.2,0,18.4,0c0.9,0,1,0.2,1,1c0,7.6,0,15.1,0,22.7c0,0.8-0.2,1-1,1c-3.1,0-6.2,0-9.3,0
		c-0.6,0-0.9-0.2-0.9-0.7c0-0.5,0.3-0.7,0.9-0.7c1.5,0,2.8,0,4.3,0s2.8,0,4.3,0c0.3,0,0.3-0.1,0.3-0.3c0-7.1,0-14.1,0-21.2
		c0-0.3-0.1-0.3-0.3-0.3c-11.7,0-23.6,0-35.4,0C7,10.2,7,10.3,7,10.5c0,1,0,2.1,0,3.2c0,0.5-0.2,0.8-0.7,0.8c-0.5,0-0.7-0.2-0.7-0.8
		c0-1.4,0-2.7,0-4c0-0.7,0.2-0.9,0.9-0.9c3.7,0,7.5,0,11.2,0C20.1,8.7,22.6,8.7,24.9,8.7z"/>
</g>
<text transform="matrix(1 0 0 1 9.1752 24.5046)" class="st0 st2 st3">VAR</text>
<text transform="matrix(1 0 0 1 22.1132 37.4543)" class="st0 st4 st5">II</text>
</svg>
