<svg xmlns="http://www.w3.org/2000/svg" viewBox="0 0 288.7 198.24"><defs><style>.cls-1{fill:#00e9c5;}.cls-2{fill:#110f0f;}</style></defs><title>Imagotipo_Preferente_Vertical_Positivo</title><g id="Capa_2" data-name="Capa 2"><g id="Capa_1-2" data-name="Capa 1"><path class="cls-1" d="M137.05,2a10.06,10.06,0,0,0-6,9.2h0V81.24a3.48,3.48,0,0,1-4.49,3.33A37.46,37.46,0,0,1,99.9,48.72c0-.52,0-1,0-1.55,0-.17,0-.35,0-.52,0-.39.05-.77.08-1.16l0-.31c.1-1,.24-2,.41-3l.06-.32q.12-.65.27-1.29c0-.07,0-.15,0-.22.24-1,.51-2,.83-3l.06-.2c.16-.47.32-.93.49-1.39l0,0c.36-1,.77-2,1.22-2.89,0-.06,0-.11.07-.16.45-.94.93-1.86,1.46-2.75l0-.05c.23-.41.48-.81.74-1.21l.15-.24c.24-.37.49-.74.75-1.1l.09-.14c.28-.39.56-.78.86-1.16l.26-.34a43.86,43.86,0,0,1,4.17-4.56,25,25,0,0,1,2-1.67,4.19,4.19,0,0,0,.44-6.28l-3.07-3.06a4.17,4.17,0,0,0-5.56-.3,49.79,49.79,0,0,0-6.51,6.31l0,0-.07.09c-.45.52-.88,1-1.3,1.58l0,0c-.4.51-.79,1-1.18,1.55l-.19.27c-.78,1.09-1.51,2.21-2.2,3.36l-.19.32c-.68,1.14-1.31,2.32-1.9,3.53-.06.11-.11.23-.17.35-.26.55-.52,1.11-.76,1.67,0,.06-.05.11-.07.17-.27.61-.51,1.23-.75,1.85,0,.13-.1.26-.14.39-.21.55-.4,1.11-.59,1.67l-.1.27c-.2.63-.39,1.27-.57,1.91,0,.11-.07.24-.1.36q-.22.83-.42,1.65c0,.14-.07.28-.1.42-.15.65-.29,1.31-.41,2,0,.09,0,.18-.05.27-.1.59-.2,1.18-.28,1.77,0,.17-.05.33-.07.49-.09.67-.17,1.34-.23,2,0,.07,0,.15,0,.22,0,.61-.09,1.22-.13,1.84,0,.18,0,.36,0,.53,0,.69,0,1.38,0,2.07h0A50.09,50.09,0,0,0,128.2,97.94a3.49,3.49,0,0,1,2.89,3.43v18.92a3.48,3.48,0,0,0,3.48,3.48h5.56a3.48,3.48,0,0,0,3.48-3.48V101.37a3.46,3.46,0,0,1,2.8-3.41,50.08,50.08,0,0,0,6.1-97,21.79,21.79,0,0,0-15.46,1Zm34.16,63a37.44,37.44,0,0,1-23.14,19.68,3.48,3.48,0,0,1-4.46-3.34V19.7a6,6,0,0,1,8.29-5.53,37.42,37.42,0,0,1,19.31,50.76Z"/><path class="cls-2" d="M15.85,167.91a13.43,13.43,0,0,1-1.89-.3,18.48,18.48,0,0,0-2.46-.16c-.56,0-1.48,0-1.84.51-.51.77-.35,4.3-.35,5.12h5.11c1.12,0,1.69.2,1.69,1.43v2c0,1.49-.36,1.95-1.84,1.95h-5v16.77c0,1.33-.21,2.3-1.79,2.3H4.29c-1.37,0-1.53-.82-1.53-2V178.5H1.23C.1,178.5,0,177.63,0,176.71v-2.2c0-1.79,1.43-1.43,2.76-1.43V171c0-2.15.05-4.24,1.33-6,2.1-2.86,5.52-3,8.8-3,1,0,3.57,0,4.24,1a2,2,0,0,1,.25,1.08v.36C17.38,165.46,17.38,167.91,15.85,167.91Zm10.48,1.54H24.39c-1.84,0-2.71-.26-2.71-2.3v-1.79c0-1.64.66-2.25,2.25-2.25h2.4a2,2,0,0,1,2.05,2.25v1.79C28.38,168.58,27.92,169.45,26.33,169.45Zm0,28.12H24.39c-1.84,0-2.71-.26-2.71-2.3V175.33c0-1.64.66-2.25,2.25-2.25h2.4a2,2,0,0,1,2.05,2.25v19.94C28.38,196.7,27.92,197.57,26.33,197.57Z"/><path class="cls-2" d="M44.69,198.18a51.13,51.13,0,0,1-7.31-.35c-1.54-.21-1.43-.92-1.43-2.36v-.92c-.06-1.12.1-2.35,1.48-2.35a24.09,24.09,0,0,1,2.66.31c1.74.15,3.53.25,5.32.25s2.55,0,2.55-1.89a2.78,2.78,0,0,0-.3-1.69c-.41-.51-4.91-1.73-5.73-2A29.69,29.69,0,0,1,39,186c-2.66-1.33-3.63-2.81-3.63-5.77,0-7.88,5.32-7.78,11.61-7.78,1.28,0,2.51,0,3.78.11,1.84.15,2.56.51,2.56,2.5,0,1.48.1,3.17-1.89,3.17-.87,0-1.79-.15-2.66-.2a34.46,34.46,0,0,0-4.09-.21c-1.94,0-3-.25-3,2a1.45,1.45,0,0,0,.26,1c.51.71,5.37,2,6.44,2.35,4,1.33,5.88,2.66,5.88,7.16C54.3,197.26,51,198.18,44.69,198.18Z"/><path class="cls-2" d="M65.91,169.45H64c-1.84,0-2.71-.26-2.71-2.3v-1.79c0-1.64.67-2.25,2.25-2.25h2.41a2,2,0,0,1,2,2.25v1.79C68,168.58,67.49,169.45,65.91,169.45Zm0,28.12H64c-1.84,0-2.71-.26-2.71-2.3V175.33c0-1.64.67-2.25,2.25-2.25h2.41a2,2,0,0,1,2,2.25v19.94C68,196.7,67.49,197.57,65.91,197.57Z"/><path class="cls-2" d="M90.55,198a42,42,0,0,1-4.34.21c-10,0-11.66-3.43-11.66-12.94s1.69-13,11.66-13a39.48,39.48,0,0,1,4.34.26c1.54.15,2.81.05,2.81,1.73v.11c0,1.28,0,4-1.84,4a14.11,14.11,0,0,1-2-.21,39,39,0,0,0-4.81-.41c-2.15,0-2.55.41-3,2.41a24.16,24.16,0,0,0-.41,5.11c0,1.63,0,3.27.2,4.91.21,2.3,1,2.55,3.22,2.55a37.93,37.93,0,0,0,4.86-.41,13.42,13.42,0,0,1,2-.2,1.43,1.43,0,0,1,1.23.51c.41.41.61,2.87.61,3.48C93.36,197.93,92.14,197.83,90.55,198Z"/><path class="cls-2" d="M117.8,197.57h-2.86c-1.17,0-1.48-.77-1.48-1.84a14,14,0,0,1-7.57,2.51c-5,0-7.31-2.71-7.31-7.62,0-5.58,3.32-7.47,8.33-8a45.3,45.3,0,0,1,6.5-.41c0-2.05.3-4.91-2.56-4.91a32.54,32.54,0,0,0-7.36,1.07,4.72,4.72,0,0,1-1.23.16c-1.79,0-1.48-1.79-1.48-3.07a1.88,1.88,0,0,1,1.43-2.15,35.71,35.71,0,0,1,8.39-1c2.45,0,5.57.41,7.31,2.35,2,2.25,1.94,5.42,1.94,8.29v12.42C119.85,196.85,119.34,197.57,117.8,197.57Zm-4.34-10.79c-.82-.05-1.69-.1-2.51-.1a23.22,23.22,0,0,0-3.22.15c-2.15.31-3,1-3,3.22,0,1.23.21,3.43,1.9,3.43a11.64,11.64,0,0,0,6.85-2.56Z"/><path class="cls-2" d="M131.35,197.57h-1.84c-1.84,0-2.71-.26-2.71-2.3V164.59c0-1.64.67-2.2,2.25-2.2h2.3a1.94,1.94,0,0,1,2,2.2v30.68C133.35,196.7,132.94,197.57,131.35,197.57Z"/><path class="cls-2" d="M155.85,198a42.23,42.23,0,0,1-4.35.21c-10,0-11.66-3.43-11.66-12.94s1.69-13,11.66-13a39.66,39.66,0,0,1,4.35.26c1.53.15,2.81.05,2.81,1.73v.11c0,1.28,0,4-1.84,4a14.25,14.25,0,0,1-2-.21,38.86,38.86,0,0,0-4.8-.41c-2.15,0-2.56.41-3,2.41a24.16,24.16,0,0,0-.41,5.11c0,1.63.05,3.27.21,4.91.2,2.3,1,2.55,3.22,2.55a37.78,37.78,0,0,0,4.85-.41,13.55,13.55,0,0,1,2-.2,1.41,1.41,0,0,1,1.22.51c.41.41.62,2.87.62,3.48C158.66,197.93,157.43,197.83,155.85,198Z"/><path class="cls-2" d="M176,198.24c-8.54,0-11.76-4.91-11.76-12.94s3.17-13,11.76-13,11.71,4.91,11.71,13S184.63,198.24,176,198.24Zm4.2-18.87c-.92-1.69-2.46-1.64-4.2-1.64s-3.27,0-4.19,1.64-1,4.14-1,5.93.1,4.34,1,5.93,2.51,1.59,4.19,1.59,3.28.05,4.2-1.59.92-4.19.92-5.93S181.1,181,180.24,179.37Z"/><path class="cls-2" d="M212.29,197.57h-2.86c-1.18,0-1.48-.77-1.48-1.84a14,14,0,0,1-7.57,2.51c-5,0-7.31-2.71-7.31-7.62,0-5.58,3.32-7.47,8.33-8a45.3,45.3,0,0,1,6.5-.41c0-2.05.3-4.91-2.56-4.91a32.54,32.54,0,0,0-7.36,1.07,4.72,4.72,0,0,1-1.23.16c-1.79,0-1.48-1.79-1.48-3.07a1.88,1.88,0,0,1,1.43-2.15,35.68,35.68,0,0,1,8.38-1c2.46,0,5.58.41,7.32,2.35,2,2.25,1.94,5.42,1.94,8.29v12.42C214.34,196.85,213.83,197.57,212.29,197.57ZM208,186.78c-.82-.05-1.69-.1-2.51-.1a23.14,23.14,0,0,0-3.22.15c-2.15.31-3,1-3,3.22,0,1.23.21,3.43,1.9,3.43a11.64,11.64,0,0,0,6.85-2.56Z"/><path class="cls-2" d="M236.58,198a42,42,0,0,1-4.34.21c-10,0-11.66-3.43-11.66-12.94s1.68-13,11.66-13a39.48,39.48,0,0,1,4.34.26c1.54.15,2.81.05,2.81,1.73v.11c0,1.28,0,4-1.84,4a14.11,14.11,0,0,1-2-.21,39,39,0,0,0-4.81-.41c-2.15,0-2.56.41-3,2.41a24.83,24.83,0,0,0-.4,5.11c0,1.63.05,3.27.2,4.91.2,2.3,1,2.55,3.22,2.55a37.93,37.93,0,0,0,4.86-.41,13.42,13.42,0,0,1,2-.2,1.43,1.43,0,0,1,1.23.51c.41.41.61,2.87.61,3.48C239.39,197.93,238.17,197.83,236.58,198Z"/><path class="cls-2" d="M264.29,197.57h-2.71c-1.48,0-1.84-1-1.84-2.3V182.18c0-.72.11-3.53-.35-4s-1.13-.41-1.64-.41a11.15,11.15,0,0,0-6.24,2.35v15.19c0,1.43-.41,2.3-2,2.3h-2.71c-1.38,0-1.84-.77-1.84-2V164.59c0-1.64.66-2.2,2.25-2.2h2.3a1.94,1.94,0,0,1,2,2.2v9.46a16.27,16.27,0,0,1,6.9-1.74c4.76,0,7.88,2.35,7.88,7.26v15.7C266.29,196.7,265.88,197.57,264.29,197.57Z"/><path class="cls-2" d="M281.54,177.46a6.62,6.62,0,0,1-5.09-1.87,9.61,9.61,0,0,1,0-11.17,6.59,6.59,0,0,1,5.1-1.88c4.89,0,7.15,2.58,7.15,7.38S286.54,177.46,281.54,177.46Zm4.08-11.59c-.7-1.33-2.53-1.62-3.9-1.62s-3.24.29-4,1.61a9.61,9.61,0,0,0,0,8.29c.74,1.32,2.64,1.61,4,1.61s3.14-.3,3.86-1.62a8.87,8.87,0,0,0,1-4.07A9,9,0,0,0,285.62,165.87Zm-1.21,7.85h-.7a.86.86,0,0,1-.78-.32L281,171.08h-.26v2.09c0,.67-.61.55-1.08.55s-.64-.1-.64-.55v-6.34c0-.44.25-.54.64-.54h2.17a2.56,2.56,0,0,1,2.06.54,3,3,0,0,1,.63,2.1A1.83,1.83,0,0,1,283,171l1.69,1.91a.69.69,0,0,1,.18.43C284.9,173.63,284.65,173.72,284.41,173.72Zm-1.89-5.94a2.8,2.8,0,0,0-.78-.07h-.34c-.28,0-.67-.06-.67.32v1.64H282c.71,0,.82-.13.82-.82C282.79,168.62,282.79,167.91,282.52,167.78Z"/></g></g></svg>