<?xml version="1.0" encoding="utf-8"?>
<!-- Generator: Adobe Illustrator 25.4.1, SVG Export Plug-In . SVG Version: 6.00 Build 0)  -->
<svg version="1.1" xmlns="http://www.w3.org/2000/svg" xmlns:xlink="http://www.w3.org/1999/xlink" x="0px" y="0px"
	 viewBox="0 0 2113.1 1308.6" style="enable-background:new 0 0 2113.1 1308.6;" xml:space="preserve">
<style type="text/css">
	.st0{display:none;}
	.st1{fill:#EAEAEA;}
	.st2{clip-path:url(#SVGID_00000177462703754577472830000015287475527763334328_);fill:#CDD2D3;}
	.st3{fill:#F2CF9C;}
	.st4{fill:url(#SVGID_00000066498715153089792630000004470376746584928177_);}
	.st5{fill:#00E9C5;}
	.st6{fill:url(#SVGID_00000024000878172343019190000010833269129236998285_);}
	.st7{fill:#314E7A;}
	.st8{fill:#FCFDFC;}
	.st9{fill:#C6926F;}
	.st10{fill:#203E72;}
	.st11{opacity:0.5;fill:#C6926F;}
	.st12{fill:#332210;}
	.st13{opacity:0.5;fill:#C4C4C4;}
	.st14{fill:#93864E;}
	.st15{fill:url(#SVGID_00000157273744024434979930000018386672811659845274_);}
	.st16{fill:#2B1E08;}
	.st17{fill:none;}
	.st18{fill:#877B46;}
	.st19{fill:url(#SVGID_00000116214834513354506580000005456855671822848899_);}
	.st20{fill:#EDCCB0;}
	.st21{fill:#3A3A3A;}
	.st22{fill:#845736;}
	.st23{fill:#FFFFFF;}
	.st24{fill:#38280B;}
	.st25{fill:#141414;}
	.st26{opacity:0.5;fill:#38280B;}
	.st27{fill:#D1D1D1;}
	.st28{fill:#3A3028;}
	.st29{fill:#D67838;}
	.st30{opacity:0.5;fill:#D67838;}
	.st31{opacity:0.5;fill:#EDCCB0;}
	.st32{fill:url(#SVGID_00000034809748074605902560000006910437227548600237_);}
	.st33{fill:#352B22;}
	.st34{fill:#724912;}
	.st35{fill:#EAB0B0;}
	.st36{fill:#773507;}
	.st37{fill:#E2BE8D;}
	.st38{fill:none;stroke:#6B492D;stroke-width:2;stroke-linecap:round;stroke-miterlimit:10;}
	.st39{fill:url(#SVGID_00000004539462074724245980000003881104963253809082_);}
	.st40{opacity:0.5;fill:#332210;}
	.st41{opacity:0.5;fill:#93864E;}
	.st42{fill:url(#SVGID_00000115476755212059913930000005391723373632971416_);}
	.st43{fill:url(#SVGID_00000079454651138508855180000017496061438350810259_);}
	.st44{fill:url(#SVGID_00000046298880560013934190000006233602448379659445_);}
	.st45{fill:url(#SVGID_00000074429541535106503920000009031294016374573225_);}
	.st46{fill:url(#SVGID_00000057858026980424027030000007004608690578852272_);}
	.st47{fill:url(#SVGID_00000047763071193655190420000000259009570567125409_);}
	.st48{fill:url(#SVGID_00000160878207380465382010000010983835800257781928_);}
	.st49{fill:url(#SVGID_00000057841683676384853380000003094141586733373321_);}
	.st50{fill:url(#SVGID_00000072985300242966328960000015187968044888273581_);}
	.st51{fill:url(#SVGID_00000088104667591064192190000010863843985154945185_);}
	.st52{fill:url(#SVGID_00000098918980178771502120000008308342667574097063_);}
	.st53{opacity:0.5;fill:#545145;}
	.st54{fill:#CCA879;}
</style>
<g id="Capa_1" class="st0">
	
		<image style="overflow:visible;opacity:0.34;" width="500" height="334" xlink:href="58A522354DA3D221.jpg"  transform="matrix(2.2482 0 0 2.2482 421.9961 337.3968)">
	</image>
</g>
<g id="Capa_4">
	<g>
		<path class="st1" d="M431.5,1179.7c-112.4,0.9-231.2-30.4-306.9-113.5S33.8,840.6,113.1,761c45.2-45.4,110.3-63.4,167.4-92.3
			c102.1-51.7,183-143.7,221.3-251.6c27.6-77.7,34.5-164.1,79.5-233.2C650.7,77.6,863.8-55.9,1049.7,150
			c83.3,92.2,210.1,133.3,333.3,116.9c69.3-9.2,137.6-29.8,207.4-27.9s145.2,33.1,173,97.3c41.5,95.9-41.1,202.8-31.1,306.7
			c6.1,63.3,46.1,118.1,89.8,164.3s96.1,50.7,129,105.1s46.4,126.5,13.6,180.9c-30.9,51.2-59.8,63.7-118,77.6
			c-16.1,3.8-37.3,5.1-99.8,6.9L431.5,1179.7z"/>
	</g>
</g>
<g id="Capa_5">
	<g>
		<defs>
			<path id="SVGID_1_" d="M431.5,1179.7c-112.4,0.9-231.2-30.4-306.9-113.5S33.8,840.6,113.1,761c45.2-45.4,110.3-63.4,167.4-92.3
				c102.1-51.7,183-143.7,221.3-251.6c27.6-77.7,34.5-164.1,79.5-233.2C650.7,77.6,863.8-55.9,1049.7,150
				c83.3,92.2,210.1,133.3,333.3,116.9c69.3-9.2,137.6-29.8,207.4-27.9s145.2,33.1,173,97.3c41.5,95.9-41.1,202.8-31.1,306.7
				c6.1,63.3,46.1,118.1,89.8,164.3s96.1,50.7,129,105.1s46.4,126.5,13.6,180.9c-30.9,51.2-59.8,63.7-118,77.6
				c-16.1,3.8-37.3,5.1-99.8,6.9L431.5,1179.7z"/>
		</defs>
		<clipPath id="SVGID_00000103958587269448602880000007216533965141362077_">
			<use xlink:href="#SVGID_1_"  style="overflow:visible;"/>
		</clipPath>
		
			<rect x="-56.7" y="833.2" style="clip-path:url(#SVGID_00000103958587269448602880000007216533965141362077_);fill:#CDD2D3;" width="2091.6" height="383.4"/>
	</g>
</g>
<g id="Capa_2">
	<polygon class="st3" points="1746.9,1136.2 386.5,1136.2 641.1,868.7 1540.9,868.7 	"/>
	
		<linearGradient id="SVGID_00000160157586883017348220000001207305798202741641_" gradientUnits="userSpaceOnUse" x1="1105.8679" y1="1002.6895" x2="1227.3976" y2="1002.6895">
		<stop  offset="0" style="stop-color:#353535"/>
		<stop  offset="1" style="stop-color:#000000"/>
	</linearGradient>
	<path style="fill:url(#SVGID_00000160157586883017348220000001207305798202741641_);" d="M1223.2,959.8c0,0,8,17.2,1.9,25.9
		c-6.1,8.6-12.7,15-20.8,14.7c-8.2-0.3-2.6,21.1-10.1,25.9c-27.6,17.6-85.1,30.9-88.4,4.3L1223.2,959.8z"/>
	<path class="st5" d="M1159.3,929.4c0,0-1.7-9.1,9.8-8.7c11.5,0.4,28.7,2,26.6,19.4c-2.1,17.4,12.2,12.9,12.2,12.9s4-1.9,5.4-13.3
		c0,0,10-1.1,10,13.8s-1.4,30-16.5,34.3c-15.1,4.3-9.4,26.7-26.6,35.6c-42.3,21.9-73.3,12.6-74.3,7.2c-1.1-5.4-9.3-13.3,12.9-26.9
		s26.2-43.8,38.4-51.4C1157.2,952.3,1161.7,946.7,1159.3,929.4z"/>
	
		<linearGradient id="SVGID_00000027604001136094860500000016209048458361355671_" gradientUnits="userSpaceOnUse" x1="1139.7406" y1="957.3613" x2="1198.4354" y2="957.3613">
		<stop  offset="0" style="stop-color:#353535"/>
		<stop  offset="1" style="stop-color:#000000"/>
	</linearGradient>
	<path style="fill:url(#SVGID_00000027604001136094860500000016209048458361355671_);" d="M1198.4,951.7c-2.1-1.8-3.6-5.2-2.8-11.6
		c2-16.7-13.6-18.9-25-19.3l-10.8,4.3c-0.9,2.2-0.5,4.4-0.5,4.4c2.4,17.4-2,22.9-2,22.9c-6,3.7-10,12.9-15.2,22.9l0,0l0,0
		c-0.1,0.2-0.2,0.4-0.3,0.6c-1.3,2.6-5.5,12.7,4.3,16.5c11.2,4.4,28.6,1.3,42.6-21.7C1193.8,962.1,1196.8,956,1198.4,951.7z"/>
	<path class="st7" d="M677.1,574.4c0,0,167.9,10.8,193.5,13.2s108.3-10.8,95,119.9c0,0-4.1,11.2-18.4,12.3
		c-14.3,1-210.8,18.4-210.8,18.4L607.7,627.8l11.5-42.5L677.1,574.4z"/>
	<polygon class="st8" points="727.7,508 781.4,495.4 828.8,556.7 842,618.3 850.9,668.4 850.9,681.3 811.6,701 761.7,622.4 	"/>
	<path class="st9" d="M950.6,611.2c0,0,3.2,4.7,6,10c2.8,5.4,4.1,16.1,5.1,16.6c1,0.5,2.6,3.1,1.3,5.6c-1.3,2.6-7.8,5.4-10.4,7.1
		s-6.4,0.3-5.1-2.3c0,0-7.7,1.5-9.7,3.4c-2,1.9-7.7,0.7-6.6-2.4c0,0,19.7-8.2,11.2-20.7c-8.4-12.5-7.4,5.6-8.2,6.4
		c-0.8,0.8-4.9,9.2-10.7,7.7c-5.9-1.5,1-2,0-10l-0.3-3.1l-6.3-4l-3.1-19.1l16.5-17.7l16.5,8.2l3.6,7.1L950.6,611.2z"/>
	<path class="st10" d="M679.5,801.5c0,0-35.6,11.7-47.8,27.1s-10.5,36.8,35.5,36.8s142.7,2.6,168.3-2s85.8-29.9,85.8-29.9l2-58
		L679.5,801.5z"/>
	<path class="st11" d="M960.8,645.7c-2.5,1.8-6.4,3.6-8.2,4.9c-2.6,1.8-6.4,0.3-5.1-2.3c0,0-7.7,1.5-9.7,3.4s-7.7,0.7-6.6-2.4
		c0,0,19.7-8.2,11.2-20.7c-8.4-12.5-7.4,5.6-8.2,6.4c-0.8,0.8-4.9,9.2-10.7,7.7c-5.9-1.5,1-2,0-10l-0.3-3.1l-6.3-4l-1.4-8.8l8.3-7
		c0,0-2.5,10.7,0,13.7s8.8-3.9,12.4-2.8c3.6,1.2,10.8,9.2,11.4,11.9s-0.5,10.2,1,10.6c1.5,0.3,1.5,0.3,1.5,0.3s2.8-3.6,2.5,0
		c-0.3,3.6,1.9,4.3,3.8,3.4c1.9-0.9,3.1-5.4,4.4-4.6C962.2,643.2,960.8,645.7,960.8,645.7z"/>
	<path class="st9" d="M799.8,420.7c0,0-1-3.6,0-7.7c1-4.1,0.3-26.9-7.8-32.6c-13.3-9.3-61.3-29.6-90.6,17.1c0,0-11.7,28.6,4.9,62.3
		c16.6,33.7-5.4,41.4-5.4,41.4s29.8-1,49.2,14.8c19.4,15.8,33,0.3,27.3-16.6c0,0-1.8-4.3-8.7-6.4c0,0-4.9-13,2.8-16.1
		c7.7-3.1,25.5,3.3,22.7-9.4c0,0-1.7-7.2,4.2-7.4c0,0,2-1.9,0-4.6c-2-2.7-7.4-0.4-9.9-2.8c0,0,7.3-2.9,11.7-2.7c0,0,1-0.7,1.5-2.9
		s-4.4-2.2-3.2-6c1.2-3.7,1.9-1.4,7.5-5.4S800.7,428.7,799.8,420.7z"/>
	<path class="st11" d="M777.6,434.7c5.7-15-8.4-15.7-10.4-30.8s20.9-18.1,20.9-18.1l-11.4-9l-54.8,2.4l-21.4,21
		c-2.4,7.9-7.8,32,5.8,59.6c16.6,33.7-5.4,41.4-5.4,41.4s29.8-1,49.2,14.8c6.9,5.6,13,7.3,17.8,6.3c-1.5-1.3-3.1-3.2-3.5-5.9
		c-1-6.2-1-6.5-11.9-8.2c-10.9-1.7,5.1-10.9,6.8-24.2C761,470.8,785,476,785,476C756.2,467.9,771.9,449.7,777.6,434.7z"/>
	<path class="st12" d="M808.8,359.2c-8.4-10.5-15.3-9.6-39.1-5.4c-32,5.7-56.2,1-71.2,30.1c0,0-14.6,31.4,2.3,62.1c0,0,0,0,0,0
		c1.3,4.4,3.1,9,5.4,13.7c4.6,9.4,6.2,16.7,6.2,22.5c0,0,0,0,0,0c17.4-1.3,24.3-34.7,19.2-39.3c-5.1-4.6-19.4-27.3-4.3-27.3
		s16.6,14.8,16.6,14.8l4.1-0.3c0,0-7.2-10.5,1.9-18.7c0,0-11.8-15.5,9.9-21.4c19.3-5.2,33.5-4.4,36.4-4.1c2.1,4.9,3.7,15.9,3.7,15.9
		c2.2-10.6,0.7-16.8,0.7-16.8c-0.4,0.1,8.8-3.1,10.4-8.6C811,376.5,813.2,364.7,808.8,359.2z"/>
	<path class="st13" d="M768.8,495.8c0,0-0.9,2.5,9.8,13.8c10.7,11.2,34.6,66.1,37.3,74c12.6,37.1,19.4,72.7,19.4,72.7l9.1-5.1
		l-8.8-71.8l-24.3-52.5L772,494.3L768.8,495.8z"/>
	<path class="st14" d="M767.3,486.5c0,0,9-1.7,18.5,0s27.2,1.7,40.2,13.3s38.5,34.7,63,44.3s28.6,28.3,49.7,41.9
		c21.1,13.6,11.9,25.2,11.9,25.2s-3.7-17.3-15.9-15.7s-8.2,12.3-13.5,20.7s2,13.5,2,13.5s-10.5-2.8-14.6-8.7
		c-4.1-5.9-16.5-24.7-28.6-29.4c-32.3-12.3-40.6-29.8-48.3-39c0,0,15,34.4,19.1,51.3c4.2,16.9,13,29.1,14,35.8
		c1,6.6-19.7,17.8-22.7,16.6c-3.1-1.3-4.1-4.5-4.1-4.5s-1.1-19.9-12.3-49.3c-3.9-10.3-9.8-36.2-25.8-62.8
		c-16.4-27.2-16.1-35.3-31.4-43.7C768.8,495.8,766.7,492.3,767.3,486.5z"/>
	<path class="st14" d="M710.6,491.4c0,0,28.3,9.8,35.4,34.3c7.1,24.5,20.4,41.5,25.2,60.6c4.8,19.1,15,56.2,15.3,59.2
		c0.3,3.1-6.3,12.6-19.3,10.7s-62.7-27.4-62.7-27.4l-49.7-67.7c0,0-7.8-29.6,12.9-42.9C688.5,504.9,710.6,491.4,710.6,491.4z"/>
	
		<linearGradient id="SVGID_00000075155696519716840940000007824536169151066249_" gradientUnits="userSpaceOnUse" x1="844.3596" y1="629.8623" x2="863.8231" y2="629.8623">
		<stop  offset="0" style="stop-color:#353535"/>
		<stop  offset="1" style="stop-color:#000000"/>
	</linearGradient>
	<path style="fill:url(#SVGID_00000075155696519716840940000007824536169151066249_);" d="M863.8,633.3l-16.7-9.3
		c-0.5-0.3-1.2-0.1-1.5,0.4l-1,1.7c-0.3,0.6-0.1,1.3,0.4,1.6l15,8.1L863.8,633.3z"/>
	<path class="st5" d="M857.9,631.7c0.1-0.2,0.1-0.4-0.1-0.5l-13.8-7.6c-0.2-0.1-0.5-0.1-0.7,0.2l-0.5,0.7c-0.1,0.2-0.1,0.6,0.2,0.7
		l13.8,7.4c0.2,0.1,0.3,0,0.5-0.1L857.9,631.7z"/>
	<path class="st9" d="M820.2,651.7c0,0,6,2.7,19.2-4.3c13.3-7,15.5-14.3,25.7-16.2c10.2-1.9,15.5-4.1,24.9,3.7s5.6,11.9,7.3,15.1
		c1.7,3.2,2.2,4.9-1.4,4.9c-3.6,0,0,1.1-4.4,3.3c-4.4,2.1-18.1,6-24.9,7.6c-6.8,1.6-5.4,6-16.5,12c-11.1,6-12,1.9-30.8,0
		S820.2,651.7,820.2,651.7z"/>
	<path class="st11" d="M879.1,645.6c-15.8-2.7-19.4,14.2-32.7,20.3c-13.3,6.1-25.9,0-25.9,0l-8.9,7.1c0.8,2.5,3.1,4.4,7.8,4.9
		c18.7,1.9,19.7,6,30.8,0c11.1-6,9.7-10.4,16.5-12c6.8-1.6,20.5-5.5,24.9-7.6c4.4-2.1,0.8-3.3,4.4-3.3s3.1-1.7,1.4-4.9
		C891.7,651.2,894.9,648.3,879.1,645.6z"/>
	<path class="st16" d="M814.5,707.8l67.3-13l75.9,44.4c0,0,14.8,9.6,8,64.3c-6.9,54.6,6.6,124.1,6.6,124.1s-39.8,0-53.6-3.6
		c0,0-15.3-128.2-18.4-133.3c0,0-6.1,9.7-83.2,10.7C739.9,802.5,814.5,707.8,814.5,707.8z"/>
	<path class="st17" d="M654.8,579.4c-42.1,12.3-34.4,30.3-34.4,30.3c1.7,7.2,26.6,17.2,57.2,27.3l-1.7-3
		C675.9,634,660.8,609,654.8,579.4z"/>
	<path class="st18" d="M820.2,651.7c0,0-30,0.3-67.7-14.3s-24.9-34-32.6-46.3c-7.7-12.3-5.2-27.9-27.3-53.1c-22-25.2-36-6.9-36-6.9
		c-5.4,14.3-5.2,30.2-2.5,45.1c0.2,1.1,0.4,2.2,0.6,3.2c6,29.5,21.1,54.5,21.1,54.5l1.7,3c44.7,14.6,101.4,29.1,115.2,34.4
		c5.6,2.1,11.4,11.1,16.4,23.5c1.9,0,3.2-0.3,4-0.9C822.6,685.7,820.2,651.7,820.2,651.7z"/>
	<path class="st10" d="M1177.7,724.5c0,0-41.5,19.4-25.7,51.6c15.8,32.2,124.6,77.5,205.1,84.3c82.5,7,151.3-2.3,146-20.7
		c-5.4-18.4-56.4-49.5-72.3-52.6C1415,784.1,1177.7,724.5,1177.7,724.5z"/>
	
		<linearGradient id="SVGID_00000158006050823214480790000002886712265711053986_" gradientUnits="userSpaceOnUse" x1="1172.1809" y1="778.3925" x2="1405.7496" y2="778.3925">
		<stop  offset="0" style="stop-color:#353535"/>
		<stop  offset="1" style="stop-color:#000000"/>
	</linearGradient>
	<path style="fill:url(#SVGID_00000158006050823214480790000002886712265711053986_);" d="M1395.6,675.2l-34.7-1.8l-35.7,19.9
		c0,0-106.6-3.5-131.1,11.1c-24.5,14.6-23.1,54.1-20.4,70.8c0.7,4.4,1.1,13,1.2,23.3c0,4,0,8.3,0,12.6c-0.1,26.2-1.2,56-1.2,56
		s37.8,29.3,49.7,9.2c4.6-7.8,8.4-23.5,11.3-39.7c0.4-2.5,0.9-4.9,1.3-7.4c3.8-23.2,5.8-45.5,5.8-45.5s26.9,14.3,47.3,18.4
		c18.8,3.8,102.9,5.8,115.8,6.1c0.3-2.9,0.6-5.7,0.9-8.7L1395.6,675.2z"/>
	<path class="st20" d="M1332.9,704.4c0,0,0,4.4,1.4,14c1.4,9.5,4.1,22.8,4.1,31s2.4,12.9,5.1,13.3c2.7,0.3,4.4-1.4,4.1-3.7
		c-0.3-2.4,0.3,17.7,7.8,17.7c0,0,3.9,0.5,4.3-2c0,0,1.3,4,3.7,4.3c0,0,3.6,1.2,5.8-6s2.2-10.2,2.2-12.1c0,0,0.3,14,3.2,14.8
		c2.9,0.9,5.1,0.2,5.4-4.1c0.3-4.3,1.2-58.2,1.2-58.2s-0.8-8.8-8.5-14.8l-6.1-8.7l-13.8-1.5l-12.9,4.3L1332.9,704.4z"/>
	<path class="st7" d="M1185.4,711.7c0,0-19.2,12.9-35.9,8.1c-15.7-4.6-5.8-51.8-0.6-80.2c2.3-12.8,11.6-23.3,24-27.2
		c38.7-12.1,122.5-38,144.6-41.4c29.1-4.4,190,18.5,206.3,44.1c16.3,25.5-39.7,28.6-39.7,28.6L1185.4,711.7z"/>
	<path class="st5" d="M1377.5,479.8c0,0-11.9,3.7-22.1,5.4s-30.3,30-37.1,61.3c-6.8,31.3-14.6,56.9-18,68.8
		c-3.4,11.9-9.9,42.9,9.5,60.3c19.4,17.4,19.1,28.9,23.1,28.9c0,0,22.8-25.5,39.8-5.8c0,0-0.4-8.5-18.7-35.7
		c-18.4-27.2-17-34.4-14.3-39.1c2.7-4.8,15.3-46,15.3-46L1377.5,479.8z"/>
	<path class="st13" d="M1354,662.9c-18.4-27.2-17-34.4-14.3-39.1c1.4-2.5,5.5-14.9,9.2-26.3l-1.5-4.2l-13.1,0.7
		c0,0-3.7,28-10.6,34.1c-6.8,6.2-10,3,13.2,30.6s25,33,25,33l0,0c3.7,0.9,7.3,3,10.8,7C1372.8,698.6,1372.4,690.1,1354,662.9z"/>
	<path class="st20" d="M1286.3,632.9c0,0-6-0.4-9.8-2.4c-3.8-2-12.4-5.6-14.7-2s-1.4,3.3-3.2,3.7c-1.8,0.4-2,0.8-2,0.8l8.4,11.7
		l13.3,9.7l5.7-9.7L1286.3,632.9z"/>
	<path class="st21" d="M1417,635.7c0,0,7.5,0.7,13.3-13.3c5.8-14,6.8-25.9,23.5-56.3c0,0,18.9-72,49.3-66.4c0,0-20.3-9.4-27.1-10.7
		s-37.4-4.4-37.4-4.4s-26.2,10.8-40.3-2.5l-54.4,70.7c0,0-11.1,15.5-11.4,28.4c-0.3,12.9,5,20.5,13.6,25.8l-11.5,28.7
		C1357.1,636.3,1383.3,633.5,1417,635.7z"/>
	<path class="st13" d="M1475.9,488.9c-6.8-1.4-37.4-4.4-37.4-4.4s-4.6,1.9-11.1,3.1l-3.5,3.3c0,0-8.3,6.8-18.3,31.8
		c-10.1,25-26,29.3-44.6,44.7c-16.3,13.5-20.3,35.9,0.5,40.1c17.5,3.6,19.5-10,34.6-0.7c15,9.4,29.1,6,12.5,25.9
		c-5.8,7-9.1,13.2-12.2,17.5l16.5-1.2l72.9-98.7l17.3-50.6C1503.1,499.7,1482.7,490.3,1475.9,488.9z M1423.7,604.4
		c-15.8-0.8-31.2-14.1-25.8-27.2c5.4-13.1,11.3-0.5,12.7,8.7s13.1,7.4,13.1,7.4C1435.2,590.5,1439.5,605.2,1423.7,604.4z"/>
	<path class="st5" d="M1503.1,499.7c-30.4-5.6-49.3,66.4-49.3,66.4c-16.7,30.5-17.7,42.4-23.5,56.3c-5.8,14-13.3,13.3-13.3,13.3
		c-33.7-2.2-59.9,0.6-82.7,0c-6-0.2-11.8-0.6-17.4-1.3c-26.9-3.7-30.6-1.4-30.6-1.4c-10.2,11.2-13.6,27.6,3.7,28.9
		s72.9,19.4,94.3,27.9c21.4,8.5,86.1-20.1,86.1-20.1s22.5-45.6,35.4-61.3c12.9-15.7,20.1-49.7,21.4-74.6
		C1528.7,509,1503.1,499.7,1503.1,499.7z"/>
	<g>
		<g>
			<path class="st21" d="M1465.3,619c-0.1,0.2-0.3,0.4-0.4,0.5c-0.2,0.2-0.3,0.5-0.5,0.7c-0.1,0.2-0.3,0.5-0.2,0.7
				c0.1,0.3,1.3,0.9,1.5,1c0.3-0.5,0.6-1.1,0.9-1.6c0.2-0.3,0.4-0.5,0.7-0.3c0.2,0.1,0.4,0.2,0.6,0.3c0.5,0.3,0.5,0.5,0.3,0.9
				c-0.3,0.5-0.6,1-0.9,1.6c1.7,1,3.4,2,5.1,3c0.4,0.2,0.7,0.5,0.4,1c-0.2,0.3-0.4,0.7-0.6,1c-0.2,0.4-0.5,0.3-0.9,0.1
				c-1.7-1-3.4-2-5.2-3c-0.1,0.2-0.2,0.3-0.3,0.5c-0.2,0.3-0.5,0.2-0.8,0.1c-0.2-0.1-0.4-0.3-0.7-0.4c-0.5-0.3-0.2-0.7,0-1.1
				c-0.2-0.1-0.4-0.2-0.6-0.4c-0.7-0.4-1.3-0.8-1.6-1.5c-0.5-1.1,0-2.2,0.6-3.2c0.2-0.3,0.6-1.1,1-1.1c0.1,0,0.3,0,0.4,0.1
				c0,0,0.1,0,0.1,0.1C1464.8,618.1,1465.5,618.5,1465.3,619z M1467.5,616c-0.1,0.2-0.2,0.4-0.3,0.6c-0.3,0.6-0.5,0.8-1.2,0.5
				c-0.2-0.1-0.4-0.2-0.5-0.3c-0.5-0.3-0.6-0.6-0.3-1.1c0.1-0.2,0.3-0.5,0.4-0.7c0.2-0.3,0.6-0.5,0.9-0.3c0,0,0.1,0,0.1,0.1
				c0.2,0.1,0.4,0.2,0.6,0.3C1467.6,615.2,1467.8,615.5,1467.5,616z M1476.1,620.8c-0.1,0.2-0.2,0.4-0.3,0.6
				c-0.3,0.6-0.5,0.8-1.2,0.5c-2-1.2-4.1-2.3-6.1-3.5c-0.5-0.3-0.6-0.6-0.3-1.1c0.1-0.2,0.3-0.5,0.4-0.8c0.2-0.4,0.6-0.5,0.9-0.3
				c0,0,0.1,0,0.1,0.1c2,1.1,4.1,2.3,6.1,3.5C1476.2,620,1476.4,620.3,1476.1,620.8C1476.1,620.8,1476.1,620.8,1476.1,620.8z"/>
			<path class="st21" d="M1479.4,615.1c-0.4,0.8-0.8,1.6-1.3,2.3c-0.3,0.5-0.5,0.3-1,0c-0.1-0.1-0.2-0.1-0.3-0.2
				c-0.4-0.2-0.7-0.4-0.5-0.9c0.2-0.3,0.3-0.5,0.5-0.8c0.3-0.5,0.7-1.1,1-1.7c0.3-0.6,0.4-0.8-0.2-1.1c-0.2-0.1-0.4-0.2-0.6-0.2
				c-0.2,0-1.3,1.3-1.6,1.5c-0.3,0.3-0.6,0.5-0.9,0.7c-0.9,0.6-1.5,0.7-2.4,0.2c-2.4-1.3-1.5-3-0.5-5c0.2-0.4,0.4-0.8,0.7-1.2
				c0.3-0.6,0.6-0.7,1.2-0.4c0.5,0.2,1,0.5,0.7,1.1c-0.1,0.3-0.3,0.5-0.5,0.8c-0.3,0.4-0.5,0.8-0.7,1.3c-0.3,0.6-0.6,0.9,0.1,1.3
				c0.1,0.1,0.2,0.1,0.4,0.1c0.3,0,1.5-1.4,1.8-1.7c1.1-1.1,1.8-1.4,3.2-0.7C1480.7,611.8,1480.5,613,1479.4,615.1z"/>
			<path class="st21" d="M1474,603.4c-0.1,0.2-0.2,0.4-0.3,0.6c-0.3,0.6-0.5,0.8-1.1,0.5c-0.2-0.1-0.4-0.2-0.6-0.3
				c-0.5-0.3-0.6-0.6-0.3-1.1c0.1-0.3,0.3-0.5,0.4-0.8c0.2-0.4,0.6-0.5,0.9-0.3c0,0,0.1,0,0.1,0c0.2,0.1,0.4,0.2,0.6,0.3
				C1474,602.6,1474.2,602.9,1474,603.4z M1482.7,608.1c-0.1,0.2-0.2,0.4-0.3,0.6c-0.3,0.6-0.5,0.8-1.2,0.5
				c-2.1-1.1-4.1-2.2-6.2-3.3c-0.5-0.3-0.6-0.6-0.3-1.1c0.1-0.3,0.3-0.5,0.4-0.8c0.2-0.4,0.6-0.5,0.9-0.3c0,0,0.1,0,0.1,0
				c2.1,1.1,4.1,2.2,6.2,3.3C1482.8,607.2,1483,607.6,1482.7,608.1C1482.7,608.1,1482.7,608.1,1482.7,608.1z"/>
			<path class="st21" d="M1486.8,600c-0.2,0.5-0.4,1-0.6,1.5c-1.6,3.3-2.9,3.3-5.9,1.7c-3-1.6-3.8-2.7-2.3-5.9
				c0.2-0.5,0.5-0.9,0.7-1.4c0.3-0.5,0.4-0.9,1-0.7c0,0,0,0,0,0c0.4,0.2,1.3,0.6,1,1.2c-0.1,0.2-0.2,0.4-0.4,0.6
				c-0.3,0.5-0.6,1-0.9,1.5c-0.3,0.7-0.3,0.9,0.3,1.4c0.5,0.4,1,0.7,1.5,1c0.5,0.3,1,0.5,1.6,0.7c0.8,0.3,1,0.1,1.3-0.6
				c0.2-0.5,0.5-1.1,0.6-1.7c0.1-0.2,0.1-0.5,0.2-0.7c0.1-0.2,0.2-0.3,0.4-0.3c0.2-0.1,1,0.3,1.2,0.4
				C1487.2,599,1487,599.4,1486.8,600z"/>
			<path class="st21" d="M1490.8,590.8c-0.1,0.3-0.3,0.6-0.4,1c-0.2,0.4-0.5,0.4-0.8,0.2c0.2,1,0,2-0.3,3c-0.8,1.7-2,2-3.5,1.2
				c-1.8-0.9-1.9-2.3-1.3-4c0.2-0.8,0.5-1.5,0.8-2.2c-0.7-0.3-1.5-0.9-1.9,0.1c-0.3,0.8-0.6,1.7-0.8,2.6c0,0.1-0.1,0.3-0.1,0.4
				c-0.3,0.6-0.8,0.2-1.2,0c-0.3-0.1-0.5-0.5-0.5-0.8c0.2-1,0.5-2,0.9-2.9c0.4-0.8,0.9-1.8,1.8-2.1c1-0.3,2,0.2,2.9,0.6
				c1.3,0.6,2.6,1.3,4,1.9C1490.9,589.9,1491,590.2,1490.8,590.8z M1486.7,590.5c-0.1,0.3-0.3,0.6-0.4,0.8c-0.2,0.4-0.3,0.7-0.4,1.1
				c-0.2,0.8-0.1,1.2,0.6,1.5c0.4,0.2,1.1,0.5,1.4-0.1c0.3-0.9,0.4-1.8,0.2-2.7C1487.6,591,1487.2,590.7,1486.7,590.5z"/>
			<path class="st21" d="M1492.8,586.1c-0.1,0.2-0.2,0.4-0.3,0.6c-0.3,0.6-0.5,0.9-1.1,0.6c-3.3-1.6-6.5-3.1-9.8-4.7
				c-0.5-0.2-0.6-0.5-0.4-1.1c0.1-0.3,0.2-0.5,0.3-0.8c0.1-0.4,0.5-0.5,0.9-0.4c0,0,0.1,0,0.1,0.1c3.3,1.5,6.6,3,9.8,4.6
				C1492.8,585.3,1493,585.6,1492.8,586.1z"/>
			<path class="st21" d="M1496.4,577.7c-0.2,0.5-0.3,1-0.5,1.5c-1.4,3.5-2.7,3.5-5.8,2.1c-3.1-1.4-3.9-2.5-2.6-5.9
				c0.2-0.5,0.4-1,0.7-1.5c0.3-0.5,0.4-1,0.9-0.7c0,0,0,0,0,0c0.4,0.2,1.3,0.6,1,1.2c-0.1,0.2-0.2,0.4-0.3,0.7
				c-0.3,0.5-0.6,1-0.8,1.6c-0.3,0.7-0.2,0.9,0.4,1.4c0.5,0.4,1,0.7,1.6,0.9c0.5,0.2,1.1,0.5,1.6,0.7c0.8,0.3,1,0,1.3-0.7
				c0.2-0.6,0.4-1.1,0.5-1.7c0.1-0.2,0.1-0.5,0.2-0.7c0.1-0.2,0.2-0.3,0.3-0.3c0.2-0.1,1,0.2,1.2,0.3
				C1496.7,576.7,1496.5,577.1,1496.4,577.7z"/>
			<path class="st21" d="M1499.2,570.7c-1.1,3-3.2,3.4-5.8,2.2c-2.6-1.2-3.8-3-2.7-5.9c1.1-3,3.1-3.4,5.7-2.3
				C1499.1,565.8,1500.3,567.6,1499.2,570.7z M1493.6,566.5c-0.7,0.1-0.9,0.6-1.1,1.2c-0.2,0.6-0.4,1.1,0,1.7
				c0.4,0.6,1.2,0.9,1.8,1.2c0.6,0.3,1.4,0.6,2.1,0.5c0.6-0.1,0.8-0.7,1.1-1.2c0.2-0.6,0.4-1.1,0-1.7c-0.4-0.6-1.2-0.9-1.8-1.2
				C1495.1,566.8,1494.2,566.4,1493.6,566.5C1493.6,566.5,1493.6,566.5,1493.6,566.5z"/>
			<path class="st21" d="M1503.5,557.6c-0.1,0.3-0.2,0.7-0.3,1c-0.1,0.4-0.4,0.4-0.8,0.3c0.2,1,0.2,2.1-0.1,3.1
				c-0.6,1.8-1.8,2.2-3.4,1.5c-1.8-0.8-2-2.2-1.6-4.1c0.2-0.8,0.4-1.6,0.7-2.4c-0.7-0.3-1.6-0.8-1.9,0.2c-0.3,0.9-0.5,1.8-0.5,2.8
				c0,0.2,0,0.3-0.1,0.5c-0.2,0.6-0.8,0.3-1.2,0.1c-0.3-0.1-0.6-0.4-0.5-0.8c0.1-1.1,0.4-2.1,0.7-3.1c0.3-0.9,0.8-1.9,1.6-2.3
				c1-0.4,2,0,3,0.4c1.4,0.6,2.7,1.1,4.1,1.7C1503.6,556.8,1503.7,557.1,1503.5,557.6z M1499.5,557.7c-0.1,0.3-0.2,0.6-0.3,0.9
				c-0.1,0.4-0.3,0.8-0.3,1.2c-0.2,0.8,0,1.2,0.7,1.5c0.4,0.2,1.2,0.4,1.4-0.2c0.3-0.9,0.3-1.9,0-2.8
				C1500.4,558.1,1499.9,557.9,1499.5,557.7z"/>
			<path class="st21" d="M1506.5,548.8c-0.1,0.5-0.3,1.1-0.4,1.6c-1.2,3.7-2.5,3.8-5.6,2.5c-3.1-1.3-4.1-2.3-3-5.9
				c0.2-0.5,0.4-1,0.6-1.5c0.2-0.5,0.3-1,0.9-0.8c0,0,0,0,0,0c0.4,0.2,1.3,0.5,1.1,1.2c-0.1,0.2-0.2,0.5-0.3,0.7
				c-0.3,0.5-0.5,1.1-0.7,1.7c-0.2,0.8-0.2,1,0.5,1.4c0.5,0.3,1.1,0.6,1.6,0.8c0.5,0.2,1.1,0.4,1.6,0.6c0.8,0.2,1,0,1.2-0.8
				c0.2-0.6,0.3-1.2,0.4-1.8c0-0.3,0.1-0.5,0.2-0.8c0-0.2,0.2-0.3,0.3-0.4c0.2-0.1,1,0.2,1.2,0.2
				C1506.8,547.8,1506.7,548.2,1506.5,548.8z"/>
			<path class="st21" d="M1509.4,538.6c-0.1,0.3-0.2,0.7-0.3,1c-0.2,0.6-0.5,0.6-1,0.4c-1.5-0.6-2.9-1.1-4.4-1.6
				c-0.2-0.1-1.2-0.5-1.4-0.4c-0.2,0.1-0.3,0.4-0.3,0.6c-0.2,0.8-0.2,1.7,0.1,2.6c1.7,0.6,3.4,1.3,5.1,1.9c0.5,0.2,0.7,0.4,0.5,1
				c-0.1,0.3-0.2,0.7-0.3,1c-0.2,0.5-0.5,0.6-0.9,0.4c-3.4-1.4-6.9-2.7-10.3-3.9c-0.5-0.2-0.7-0.5-0.5-1.1c0.1-0.3,0.2-0.6,0.2-0.8
				c0.1-0.4,0.5-0.6,0.8-0.5c0,0,0.1,0,0.1,0c1.1,0.4,2.1,0.8,3.2,1.2c-0.1-0.9-0.1-1.8,0.1-2.7c0.5-1.7,1.6-2.6,3.2-2
				c1.8,0.6,3.5,1.3,5.3,1.9C1509.4,537.7,1509.6,538,1509.4,538.6z"/>
		</g>
	</g>
	<path class="st21" d="M1502.6,529.8l8.6,2.7c3-9.8,3.8-18.9,3.7-25.7c-3.6-3-7.1-4.9-9.3-6C1506.1,506.4,1506.4,517.6,1502.6,529.8
		z"/>
	<path class="st21" d="M1431.1,663.8l5.8,6.9c0.8-0.7,20.1-17,32.3-38.1l-7.8-4.5C1450,647.8,1431.3,663.6,1431.1,663.8z"/>
	<path class="st17" d="M1241.7,783.8c0,0-2,22.2-5.8,45.5c1.1,0.4,2.2,0.8,3.4,1.2c98.1,35,159.7,30.9,159.7,30.9s2.7-24.4,5.8-53.2
		c-12.9-0.3-96.9-2.3-115.8-6.1C1268.6,798.1,1241.7,783.8,1241.7,783.8z"/>
	<path class="st22" d="M1174.8,798.5c-29.5-21.8-25.9-38.6-25.9-38.6l6.9-39.2c-17.9,0.7-13.9-32.3-13.9-32.3l-12.4,64l-60.8,159.8
		l2.6,8.4h12.3l48.5-127.7l42.7,18.2C1174.8,806.8,1174.8,802.5,1174.8,798.5z"/>
	<path class="st13" d="M1497.5,578.1c-12.9,19.8-45.3,83.3-60.6,92.6c-15.3,9.3-55-7.5-79.8-21.3c-24.8-13.8-59.1-4.9-76.3-8.7
		c-5.2,9.8-4.4,20.2,9.2,21.2c17.4,1.4,72.9,19.4,94.3,27.9c21.4,8.5,86.1-20.1,86.1-20.1s22.5-45.6,35.4-61.3
		c12.9-15.7,20.1-49.7,21.4-74.6c0.9-16.7-10.4-26.5-17.9-31l0,0C1509.4,502.9,1510.4,558.3,1497.5,578.1z"/>
	<path class="st7" d="M1536.3,620.7c-2.6-15.8-27.5-16.3-27.5-16.3c31.5,34.3-73.4,40.3-110.2,69c-36.8,28.7-14.8,130.1-12.3,133.4
		c0.6,0.8,7.8,1.3,18.5,1c0,0.1,0,0.3,0,0.4c1.1,0,1.7,0,1.7,0l0-0.5c33.1-1,97.9-7.7,108.9-31.6
		C1530.1,744.1,1538.9,636.5,1536.3,620.7z"/>
	<path class="st22" d="M1521.7,828c-4.1-27.1,31.1-162.4,33.7-182.4s-18.7-14.7-18.7-14.7c1,12.9-7.4,75.2-14,114.9
		c-6.6,39.7-18.4,40.3-18.4,40.3l-8.3,42.5c5.7,5.8,7.3,13,7.3,13c-2.5,19.1-73.7,19.7-73.7,19.7s3.7-76.6,10.2-109.3
		c6.5-32.7,2.4-55.5-9.9-56.9c-12.3-1.4-14.3,13.6-15.3,23.1c-0.5,5-4.9,44.8-8.9,81.2l0.7,8.7c0,0-0.6,0-1.7,0
		c-3.1,28.7-5.8,53.2-5.8,53.2s-61.6,4.1-159.7-30.9c-1.1-0.4-2.3-0.8-3.4-1.2c-0.4,2.5-0.8,4.9-1.3,7.4l171.8,73.1l11.2,161.4
		l15.7,4.1l7.8-5.1l-12.9-194l75.1-10.7l63.8,162.9h19.4C1586.5,1028.2,1525.8,855.1,1521.7,828z"/>
	<path class="st9" d="M955.7,875c0,0-1.7,22.5,0,31c1.7,8.5-10.6,18-10.6,18l-26.8-1.7l-6-48.5l2.1-14.5h35.7L955.7,875z"/>
	<path class="st20" d="M1227.4,846.7c0,0,1,3.7,1.5,10.6c0.4,5.6-2,11-2,11l0.5,11.3l-7,10.9l-17.9,3.7l-8.7-10.7l-16.2-23l-1.8-11
		c0,0,1.1-14.4,2.1-22.1c1-7.7,5.9-20.5,5.9-20.5h22l17.9,14.6L1227.4,846.7z"/>
	<path class="st21" d="M1450.2,488c1.1-0.7,2.1-1.3,3.1-1.9c-8-0.9-14.8-1.6-14.8-1.6s-26.2,10.8-40.3-2.5l-4,5.2
		C1401.1,496,1417.5,507.2,1450.2,488z"/>
	<path class="st5" d="M1406.2,529.1c-1.4,0.3-2.5,1.6-2.8,3.1l0,0l-6.4,27.3c-0.2,0.7-0.8,1.2-1.5,1.1c-0.1,0-0.2-0.1-0.3-0.1
		c-4.8-3.1-7.1-9.6-5.6-16c0-0.2,0.1-0.4,0.1-0.6l0-0.2c0-0.2,0.1-0.3,0.1-0.4l0-0.1c0.1-0.4,0.3-0.8,0.4-1.1l0-0.1
		c0.1-0.2,0.1-0.3,0.2-0.5c0,0,0-0.1,0-0.1c0.2-0.4,0.4-0.7,0.5-1.1l0-0.1c0.1-0.2,0.2-0.3,0.3-0.5l0,0c0.2-0.4,0.4-0.7,0.7-1l0-0.1
		c0.2-0.3,0.5-0.7,0.7-1l0,0c0.1-0.1,0.2-0.3,0.4-0.4c0,0,0.1-0.1,0.1-0.1c0.1-0.1,0.2-0.3,0.3-0.4l0,0c0.1-0.1,0.3-0.3,0.4-0.4
		l0.1-0.1c0.6-0.5,1.2-1,1.8-1.5c0.3-0.2,0.5-0.3,0.8-0.5c0.7-0.4,1.1-1.4,0.8-2.2c0-0.1-0.1-0.1-0.1-0.2l-0.7-1.4
		c-0.4-0.7-1.1-0.9-1.8-0.5c-1,0.6-1.9,1.2-2.7,2l0,0l0,0c-0.2,0.2-0.4,0.3-0.6,0.5l0,0c-0.2,0.2-0.4,0.3-0.5,0.5l-0.1,0.1
		c-0.3,0.4-0.6,0.7-1,1.1l-0.1,0.1c-0.3,0.4-0.6,0.8-0.9,1.2c0,0-0.1,0.1-0.1,0.1c-0.1,0.2-0.3,0.4-0.4,0.6l0,0
		c-0.1,0.2-0.3,0.4-0.4,0.7l-0.1,0.1c-0.1,0.2-0.2,0.4-0.3,0.6l-0.1,0.1c-0.1,0.2-0.2,0.5-0.4,0.7l-0.1,0.1
		c-0.1,0.2-0.2,0.4-0.3,0.6c0,0.1,0,0.1-0.1,0.2c-0.1,0.2-0.2,0.5-0.3,0.7c0,0,0,0.1,0,0.1c-0.1,0.2-0.2,0.5-0.3,0.7
		c0,0.1,0,0.1-0.1,0.2c-0.1,0.3-0.2,0.5-0.3,0.8c0,0,0,0.1,0,0.1c-0.1,0.2-0.1,0.5-0.2,0.7c0,0.1,0,0.1,0,0.2
		c-0.1,0.3-0.1,0.5-0.2,0.8l0,0c-2.2,9.4,1.6,18.8,9.1,22.4c0.5,0.2,0.8,0.9,0.6,1.6l-1.7,7.4c-0.2,0.7,0.2,1.5,0.8,1.6c0,0,0,0,0,0
		l1.8,0.4c0.6,0.1,1.3,0.7,1.5-0.1v-1l1.7-7.4c0.2-0.6,0.7-1.1,1.2-1.1c3.5,0.1,7-1.1,10-3.4c1.3-0.9,2.4-2,3.5-3.3
		c6.8-8.2,7-20.8,0.3-28.1c-0.9-1-1.9-1.8-3-2.6C1409.9,528.9,1408,528.6,1406.2,529.1z M1412.4,557.2c-2.5,3.4-6,5.6-9.7,6
		c-0.7,0.1-1.2-0.5-1.3-1.3c0-0.1,0-0.3,0-0.4l5.7-24.7c0.3-1.3,1.5-2.2,2.6-1.9c0.3,0.1,0.5,0.2,0.7,0.4c5.8,4.7,6.8,14.2,2.3,21.2
		C1412.7,556.8,1412.6,557,1412.4,557.2L1412.4,557.2z"/>
	<path class="st23" d="M1178.2,934.4c-0.7,0.2-1.2,0.8-1.4,1.6l0,0l-3,13.7c-0.1,0.4-0.4,0.6-0.7,0.6c-0.1,0-0.1,0-0.2-0.1
		c-2.4-1.5-3.6-4.7-2.9-8c0-0.1,0-0.2,0.1-0.3l0-0.1c0-0.1,0-0.1,0.1-0.2l0-0.1c0.1-0.2,0.1-0.4,0.2-0.6l0-0.1
		c0-0.1,0.1-0.2,0.1-0.2c0,0,0,0,0,0c0.1-0.2,0.2-0.4,0.3-0.6l0,0c0-0.1,0.1-0.2,0.1-0.3l0,0c0.1-0.2,0.2-0.4,0.3-0.5l0,0
		c0.1-0.2,0.2-0.3,0.4-0.5l0,0c0.1-0.1,0.1-0.1,0.2-0.2c0,0,0,0,0,0c0.1-0.1,0.1-0.1,0.2-0.2l0,0c0.1-0.1,0.1-0.1,0.2-0.2l0.1-0.1
		c0.3-0.3,0.6-0.5,0.9-0.7c0.1-0.1,0.3-0.2,0.4-0.3c0.4-0.2,0.5-0.7,0.4-1.1c0,0,0-0.1,0-0.1l-0.4-0.7c-0.2-0.3-0.6-0.5-0.9-0.3
		c-0.5,0.3-0.9,0.6-1.4,1l0,0l0,0c-0.1,0.1-0.2,0.2-0.3,0.3l0,0c-0.1,0.1-0.2,0.2-0.3,0.3l0,0c-0.1,0.2-0.3,0.4-0.5,0.6l0,0.1
		c-0.2,0.2-0.3,0.4-0.5,0.6c0,0,0,0,0,0.1c-0.1,0.1-0.1,0.2-0.2,0.3l0,0c-0.1,0.1-0.1,0.2-0.2,0.3l0,0.1c-0.1,0.1-0.1,0.2-0.2,0.3
		l0,0c-0.1,0.1-0.1,0.2-0.2,0.4l0,0.1c0,0.1-0.1,0.2-0.1,0.3c0,0,0,0.1,0,0.1c-0.1,0.1-0.1,0.2-0.2,0.4c0,0,0,0,0,0.1
		c0,0.1-0.1,0.2-0.1,0.3c0,0,0,0.1,0,0.1c0,0.1-0.1,0.3-0.1,0.4c0,0,0,0,0,0c0,0.1-0.1,0.2-0.1,0.4c0,0,0,0.1,0,0.1
		c0,0.1-0.1,0.3-0.1,0.4l0,0c-1,4.7,0.9,9.4,4.7,11.1c0.3,0.1,0.4,0.4,0.3,0.8l-0.8,3.7c-0.1,0.4,0.1,0.7,0.4,0.8c0,0,0,0,0,0
		l0.9,0.2c0.3,0.1,0.6-0.2,0.7-0.6l0,0l0.8-3.7c0.1-0.3,0.3-0.6,0.6-0.6c1.7,0,3.5-0.6,5-1.7c0.6-0.5,1.2-1,1.7-1.7
		c3.4-4.1,3.4-10.4,0-14.1c-0.5-0.5-1-0.9-1.5-1.3C1180.1,934.2,1179.1,934.1,1178.2,934.4z M1181.2,947.9c-1.2,1.7-2.9,2.8-4.7,3
		c-0.3,0-0.6-0.2-0.6-0.6c0-0.1,0-0.1,0-0.2l2.6-12c0.1-0.6,0.7-1.1,1.3-0.9c0.1,0,0.3,0.1,0.4,0.2c2.8,2.3,3.4,6.9,1.2,10.3
		C1181.4,947.7,1181.3,947.8,1181.2,947.9L1181.2,947.9z"/>
	<path class="st24" d="M905.7,656.3c0,0,12.6-0.2,19.1,2.2c6.5,2.4,13.3,10.2,17.4,31c4.1,20.8,14.6,33.4,16.7,58.9
		s-3.7,117.4-3.1,126.6s-0.7-9.2-21.5-7.8c-11.5,0.8-14,9.4-20.6,16c-4.6,4.6-13.2-32.3-21-56.7c-8.2-25.5-8.1-26-10.8-69.9
		c0,0-0.6-20.4,1.8-33.7c0,0-22.1-18.7-69.1-15C767.5,711.6,892,655.4,905.7,656.3z"/>
	<path class="st25" d="M925.6,1003.8c0,0-8,21-2.9,36.6c5.1,15.7,17,23.5,17,23.5s22.8,1.7,26.7,0c3.9-1.7,26.2-21.1,22.8-39.7
		C986.5,1009.4,925.6,1003.8,925.6,1003.8z"/>
	<path class="st26" d="M929.3,868.1c0,0-3.9-9.9-16.9-54.9c-13-44.9,21.3-79.2-4.2-98.6s2-32-11.6-32c-13.6,0-35.1-7.4-35.1-7.4
		l-2-2.6c-36,16-74.8,37.5-45.1,35.2c47-3.7,69.1,15,69.1,15c-2.4,13.3-1.8,33.7-1.8,33.7c2.7,43.9,2.7,44.4,10.8,69.9
		c7.8,24.4,16.4,61.3,21,56.7C919.1,877.6,921.8,870.7,929.3,868.1L929.3,868.1z"/>
	<polygon class="st27" points="807.2,700.4 965.6,627.3 963.5,623.5 803.9,697.3 	"/>
	<path class="st28" d="M984,1003.5c0,0,7.4,17.2,4.4,28c-3.1,10.9-17.4,25.9-25.2,27.2s-20.1-1.4-20.1-1.4s-16.3-11.9-19.9-28.9
		c-3.6-17,13.8-59.6,13.8-59.6l37.4,10L984,1003.5z"/>
	<path class="st29" d="M1379,432.6c0,0-11.9,48.2-15.3,59.4c-3.4,11.1-26.4,60.6-29.4,65.4c0,0,13.8-4.9,16.3-11.7
		c0,0,0.7,5.4-4.8,13.6c0,0,12.4-4.1,18-14.1c0,0,2.9,7.8,1,10.4c0,0,9-3.2,14.1-15.7c0,0,3.6,1.9,1.7,5.6c0,0,16.9-13.8,15.5-34.7
		c-1.4-20.9,1.9-28.7,1.9-28.7l19.5-37.5L1379,432.6z"/>
	<path class="st30" d="M1378.5,496.6c-7.7,19.7-10.1,47-29.2,61.2c4.1-2,10.9-6,14.6-12.7c0,0,2.9,7.8,1,10.4c0,0,9-3.2,14.1-15.7
		c0,0,3.6,1.9,1.7,5.6c0,0,16.9-13.8,15.5-34.7c-1.4-20.9,1.9-28.7,1.9-28.7l5.8-12l-3.9-2.6l-10.3,2.3
		C1389.7,469.8,1386.2,477,1378.5,496.6z"/>
	<path class="st20" d="M1382.5,378.2c0,0-7.6,19.8-4.7,26.1c1,2.3,2.5,5,1.3,9.9c-1.2,4.9-6.6,11.6-6.5,14c0.2,2.4,8.4,5.1,8.4,5.1
		s0.1,5.6-1.4,6.9c-1.5,1.4,0.9,4.1,2.6,4.4c1.7,0.3,1.4,2.2-0.9,3.6c-2.2,1.4-1,4.8,1,5.6c2,0.9-1.8,10.4,2.3,13.3
		c4.1,2.9,8.7,3.1,15.1,2.4c0,0,1,7.7-1.5,12.5c-2.6,4.9,23,17.1,46.2,1.3c0,0,10.5-7.1,4.6-41.4c0,0,3.8,3.1,10.7-5.1
		c6.9-8.2,12-31.9,0-26.3c-12,5.6-8.4,12.5-12,12.5c-3.6,0-2-17.6-11.2-19.9c-9.2-2.3-31.9-21.7-30.9-29.6
		C1405.5,373.5,1400.3,369.4,1382.5,378.2z"/>
	<path class="st21" d="M1302.3,666.1c0,0-12-9.2-21.8-15.5c-9.8-6.3-20.7-24.7-49.8-22.3c-29.1,2.4-25.7,24.7-31.5,31.5
		c-5.8,6.8-17,51.1-15.3,84.1c1.7,33-8.2,63.3-5.8,83.4c0,0,2-18.4,25.5-11.2s23.8,30.6,23.8,30.6s0.6-31,12.6-52.8
		c11.9-21.8,31-53.8,24.9-95l64,0.7c0,0-5.5-11.1-13.5-18.8C1307.4,673.1,1304.7,671.4,1302.3,666.1z"/>
	<path class="st31" d="M1228.9,857.3c-0.5-6.8-1.5-10.6-1.5-10.6l-3.7-25.4l-17.9-14.6h-3.8c-7.1,23.2-10,44-10,44l1.6,32.2l0.2,0.3
		l8.7,10.7l17.9-3.7l7-10.9l-0.5-11.3C1226.9,868.3,1229.3,862.8,1228.9,857.3z"/>
	<path class="st23" d="M1208,973.6c-7.2,8.8-13.6,22.4-16.9,38.1c4.8-9.7,5.4-21,15.7-23.9c15.1-4.3,16.5-19.4,16.5-34.3
		c0-0.9,0-1.8-0.1-2.6l-11.3-4.7C1211.9,946.3,1215.5,964.4,1208,973.6z"/>
	<path class="st31" d="M1448.9,442c0,0,3.8,3.1,10.7-5.1c6.9-8.2,12-31.9,0-26.3s-8.4,12.5-12,12.5s-2-17.6-11.2-19.9
		c-5.6-1.4-16.1-9-23.3-16.6l-0.7-0.2c0,0,7.2,8.5,8.8,14.6c1.8,6.4,1.8,9.4-1.5,15c-3.3,5.6-8.4,6.1-7.6,17.7
		c0.8,11.6-1.2,25.7-19.3,36.2h0c2.4,0,4.8-0.1,6.9-0.4c0,0,16.6-2.8,26-10.2c0,0,8.2,20.9-1.7,31.6c6.5-0.7,13.5-2.9,20.4-7.6
		C1444.3,483.3,1454.8,476.2,1448.9,442z"/>
	
		<linearGradient id="SVGID_00000123439054050060205090000008155196957640381327_" gradientUnits="userSpaceOnUse" x1="1109.5554" y1="927.501" x2="1250.4601" y2="927.501">
		<stop  offset="0" style="stop-color:#353535"/>
		<stop  offset="1" style="stop-color:#000000"/>
	</linearGradient>
	<path style="fill:url(#SVGID_00000123439054050060205090000008155196957640381327_);" d="M1235.9,912.2c0,0,6.1,7,9.2,8.4
		s12.4,16.3-4.4,27.2c-16.8,10.9-34,6.5-60.9,0.3c-26.9-6.1-20.4,8.2-46.6-2.3s-23.9-23.9-23.1-30.3c0.7-6.5,17-15,17-15l31.3,2.4
		c0,0,28.3,14,31.3,14s35.7,3.1,35.7,3.1L1235.9,912.2z"/>
	<path class="st29" d="M1379.8,386.3c0,0-2.3-12.3,13.2-21.5s47.2-16.9,54.4-8.9c0,0,22.7-2.8,31.4,20.9
		c8.7,23.7,13.8,67.4,18.9,83.2c5.1,15.8,6.1,31.4,5.4,39.6c0,0-13.3-1-18.1-5.6c0,0,4.3,0.5-5.9,11.2s-16.9,12.3-14.8,26.3
		c2,14-2.6,29.1-26.6,34.5c0,0,9.7-9.7,8.2-20.4c0,0-7.7,11.2-15.6,14.6c0,0,3.8-5.4,3.3-8.9c0,0-8.4,9.4-20.7,11.2
		c0,0,5.4-5.4,6.8-8.9c0,0-9.6,7.1-23.6,9.2c0,0,5.1-1.8,16.6-16.6c0,0-2,2.3-6.1,2.8c0,0,11.5-6.9,17.6-16.9c0,0-4.3,3.3-10.5,5.1
		c0,0,7.4-4.1,12-14.8c0,0-1.5,1-6,3.8c0,0,11.6-11.2,15.2-22.5s-3.6-39.9,14-61.8c0,0,4.6,4.6,12.9-10.1
		c8.4-14.7,4.5-25.1-1.9-20.8c-6.4,4.3-9.4,6.6-10.6,11.6c-1.2,5-7.2-2.8-7.8-12.6c-0.5-9.1-9.9-3.3-22.4-16.7
		c-12.5-13.3-13.6-12-13.7-19.8C1405.5,373.5,1389.3,371.7,1379.8,386.3z"/>
	<path class="st5" d="M1166.8,874c0,0,4.4-7.5,1.7-14.6c-2.7-7.1,10.9-15,23.5-8.5c12.6,6.5,14,23.8,10.9,28.3s7.1,10.4,15,5.9
		c7.8-4.5,6.1-24.3,13.3-14.1s-2.4,20.4,0,30c2.4,9.5,15,21.7-4.1,29.2c-19.1,7.5-21.8-5.4-37.1-2.5c-15.3,2.9-57.9-39.7-80-12.1
		c0,0-0.7-27.6,27.2-23.8S1152.2,885.2,1166.8,874z"/>
	<path class="st7" d="M809.1,694.8c-5-12.4-10.8-21.3-16.4-23.5c-13.8-5.2-70.5-19.7-115.2-34.4c-30.6-10-55.5-20.1-57.2-27.3
		c0,0-7.7-18,34.4-30.3c-0.2-1.1-0.4-2.1-0.6-3.2c-37.1,4.7-62.9,18.6-62.3,51.1c1.5,82.2,26,158.3,37.8,162.9
		c11.7,4.6,136.2,30.6,174.3,23C832.8,807.4,824.8,733.8,809.1,694.8z"/>
	<path class="st25" d="M906.7,927.8c0,0-8,17.2-1.9,25.9c6.1,8.6,12.7,15,20.8,14.7c8.2-0.3,2.6,21.1,10.1,25.9
		c27.6,17.6,85.1,30.9,88.4,4.3L906.7,927.8z"/>
	<path class="st33" d="M970.6,897.4c0,0,1.7-9.1-9.8-8.7c-11.5,0.4-28.7,2-26.6,19.4c2.1,17.4-12.2,12.9-12.2,12.9s-4-1.9-5.4-13.3
		c0,0-10-1.1-10,13.8s1.4,30,16.5,34.3c15.1,4.3,9.4,26.7,26.6,35.6c42.3,21.9,73.3,12.6,74.3,7.2c1.1-5.4,9.3-13.3-12.9-26.9
		c-22.3-13.6-26.2-43.8-38.4-51.4C972.6,920.2,968.2,914.7,970.6,897.4z"/>
	<path class="st22" d="M963.7,832.9l23.4,85l17.4-2l-37.3-128.3C967.1,787.5,963.4,820.4,963.7,832.9z"/>
	<path class="st22" d="M896.7,840.1c-16,9.2-36.5,18.2-61.3,23.2l-32.9,2c0,0-17-114.3-20.4-138.8c-3.4-24.5-9-38.8-20.7-35.7
		c-11.7,3.1-11.2,18.4-6.1,46.5c5.1,28.1,17,115.9,18.9,128.2c0,0-117.7,1.5-138-6.9c0,0-31-146.3-35.6-190.2
		c-4.6-43.9-8.2-43.9-20.4-42.4c0,0-10.7,3.7-4.6,30.5c6.1,26.7,30.6,149.8,29.6,176.9c-1,27.1-67.4,221.6-67.4,221.6h21.4
		c0,0,44.1-154.7,66-169.8l149.1,6.7l7.9,203.9l21.9,7.1l7.6-7.1L803.9,924l95.2-75.5"/>
	
		<ellipse transform="matrix(0.9976 -6.873747e-02 6.873747e-02 0.9976 -24.8591 97.3776)" class="st34" cx="1402.6" cy="409.9" rx="2.8" ry="4.5"/>
	<path class="st34" d="M1379.7,413.6c1.3-2.8,2.6-5.8,3.2-7.1c-0.4-0.2-0.8-0.3-1.2-0.3c-1.6,0.1-2.8,2.3-2.7,4.9
		C1379.1,412,1379.3,412.9,1379.7,413.6z"/>
	<g>
		<path class="st29" d="M1391.1,401.3c0.6-1.2,1.4-2.2,2.3-3.1c0.9-0.9,1.9-1.7,3-2.3c1.1-0.7,2.3-1.1,3.7-1.4
			c0.7-0.1,1.4-0.2,2.1-0.2c0.7,0,1.5,0.1,2.1,0.2c2.4,0.4,4.9,1,7.2,2.1c2.3,1.1,4.3,2.7,5.7,4.7l-0.3,0.3
			c-1.8-1.5-3.9-2.6-6.1-3.1c-1.1-0.3-2.2-0.5-3.4-0.6c-1.1-0.1-2.3-0.2-3.4-0.2c-0.6,0-1,0-1.5,0.2c-0.5,0.1-0.9,0.3-1.4,0.5
			c-1,0.4-1.9,0.8-3,1.2c-1.1,0.4-2.1,0.8-3.3,1.1c-1.1,0.4-2.3,0.7-3.6,1L1391.1,401.3z"/>
	</g>
	<g>
		<path class="st29" d="M1384.2,401.1c-0.7,0.2-1.2,0.3-1.7,0.3c-0.5,0-0.9,0-1.3-0.1c-0.4-0.1-0.7-0.2-0.9-0.5
			c-0.2-0.3-0.5-0.5-0.7-0.7c-0.3-0.2-0.5-0.3-0.6-0.3c-0.2-0.1-0.3-0.1-0.5-0.1c-0.5,0.1-0.9,0.9-1.2,1.7h-0.4
			c-0.1-0.4-0.3-0.9-0.3-1.4c0-0.5,0-1,0.3-1.6c0.3-0.6,1-1.1,1.6-1.3c0.7-0.2,1.3-0.2,1.8-0.2c1.1,0.1,2.2,0.1,2.9,0.8
			c0.3,0.3,0.6,0.7,0.8,1.2c0.2,0.5,0.4,1,0.3,1.7L1384.2,401.1z"/>
	</g>
	<path class="st35" d="M1400,443.7c0,0-9.2,0.5-12-1.6c-2.8-2-8.2-2.3-8.2-2.3l0,0c-0.1,0.1-0.2,0.3-0.4,0.4
		c-1.5,1.4,0.9,4.1,2.6,4.4c1.7,0.3,1.4,2.2-0.9,3.6s-1,4.8,1,5.6C1392.9,455.3,1400,443.7,1400,443.7z"/>
	<path class="st23" d="M1387.8,445.7c-2.9-0.6-5.2-0.8-5.2-0.8l0,0c0.8,0.5,0.5,1.7-0.7,2.8l0,0c0,0,2,0.7,7.3,0.8
		c7.1,0.1,10.8-4.8,10.8-4.8C1395.1,446.8,1390.8,446.3,1387.8,445.7z"/>
	<ellipse class="st36" cx="787.1" cy="414.8" rx="2.2" ry="4.3"/>
	<g>
		<path class="st12" d="M793.6,406.4c-1.4-1.7-3-2.9-4.6-3.4c-0.8-0.3-1.7-0.5-2.6-0.6c-0.5-0.1-0.9-0.1-1.4-0.1c-0.5,0-1,0-1.5,0.1
			c-2.1,0.3-4.1,0.8-6.1,1.5c-1.9,0.7-3.9,1.8-5.4,3.2l-0.2-0.2c1.2-1.9,3.1-3.3,5-4.4c1.9-1.1,4.1-1.9,6.2-2.5
			c0.6-0.2,1.1-0.3,1.7-0.4c0.6-0.1,1.2-0.2,1.8-0.2c1.2,0,2.5,0.2,3.7,0.8c2.3,1.3,3.8,3.7,3.7,6.1L793.6,406.4z"/>
	</g>
	<rect x="386.5" y="1136.2" class="st37" width="1360.3" height="10"/>
	<path class="st38" d="M956.2,926.1c0,0,16.2,2.6,28.3,14.2"/>
	<path class="st38" d="M953.8,932.9c0,0,16.2,2.6,28.3,14.2"/>
	<path class="st38" d="M972.6,920.2c0,0-10.9,12.2-13.1,28.9"/>
	<path class="st38" d="M977.8,925.2c0,0-9.9,11-12.1,27.7"/>
	<path class="st38" d="M1026.1,992.2c0,0-15.2,5.9-24,5.5c-8.9-0.3-41.5-5-52.4-18.8S937.1,951.1,921,945
		c-16-6.1-14.4-18.9-14.4-18.9"/>
	<path class="st38" d="M925.6,1003.8c0,0-3.9,26.3,16.8,46c0,0,5.4,2.6,20.8,1.5c15.3-1,24.7-35.9,24.7-35.9"/>
	
		<linearGradient id="SVGID_00000078016687742953028550000008961696369342950841_" gradientUnits="userSpaceOnUse" x1="1152.9836" y1="873.1005" x2="1204.2666" y2="873.1005">
		<stop  offset="0" style="stop-color:#353535"/>
		<stop  offset="1" style="stop-color:#000000"/>
	</linearGradient>
	<path style="fill:url(#SVGID_00000078016687742953028550000008961696369342950841_);" d="M1202.3,880.6c0-0.5,0.2-1.1,0.5-1.6
		c0.3-0.4,0.5-0.9,0.7-1.5c0.1-1.2,0.4-2.6,0.7-4.2c0.2-7.1-2.9-17.8-12.3-22.6c-12.6-6.5-26.2,1.4-23.5,8.5
		c2.7,7.1-1.7,14.6-1.7,14.6c-10.3,7.9-6.9,15.3-13.8,17.7l0,0c0,0,15.2,0.6,21.8,5.3C1180.6,901.1,1197.6,888.3,1202.3,880.6z"/>
	<path class="st23" d="M1182.8,853.3c-0.6,0.3-1.1,1-1.1,1.8l0,0l-1,14c0,0.4-0.3,0.7-0.6,0.7c-0.1,0-0.1,0-0.2,0
		c-2.6-1.1-4.3-4.2-4-7.5c0-0.1,0-0.2,0-0.3l0-0.1c0-0.1,0-0.2,0-0.2l0-0.1c0-0.2,0.1-0.4,0.1-0.6l0-0.1c0-0.1,0-0.2,0.1-0.3
		c0,0,0,0,0,0c0.1-0.2,0.1-0.4,0.2-0.6l0,0c0-0.1,0.1-0.2,0.1-0.3l0,0c0.1-0.2,0.2-0.4,0.2-0.6l0,0c0.1-0.2,0.2-0.4,0.3-0.5l0,0
		c0-0.1,0.1-0.2,0.1-0.2c0,0,0,0,0,0c0-0.1,0.1-0.1,0.1-0.2l0,0c0.1-0.1,0.1-0.1,0.2-0.2l0.1-0.1c0.2-0.3,0.5-0.6,0.8-0.9
		c0.1-0.1,0.2-0.2,0.4-0.3c0.3-0.3,0.4-0.8,0.2-1.2c0,0,0-0.1-0.1-0.1l-0.5-0.6c-0.2-0.3-0.6-0.4-0.9-0.1c-0.4,0.4-0.8,0.7-1.2,1.2
		l0,0l0,0c-0.1,0.1-0.2,0.2-0.2,0.3l0,0c-0.1,0.1-0.1,0.2-0.2,0.3l0,0.1c-0.1,0.2-0.3,0.4-0.4,0.6l0,0.1c-0.1,0.2-0.3,0.4-0.4,0.7
		c0,0,0,0,0,0.1c-0.1,0.1-0.1,0.2-0.2,0.3l0,0c-0.1,0.1-0.1,0.2-0.2,0.4l0,0.1c0,0.1-0.1,0.2-0.1,0.3l0,0.1c0,0.1-0.1,0.2-0.1,0.4
		l0,0.1c0,0.1-0.1,0.2-0.1,0.3c0,0,0,0.1,0,0.1c0,0.1-0.1,0.3-0.1,0.4c0,0,0,0,0,0.1c0,0.1-0.1,0.2-0.1,0.3c0,0,0,0.1,0,0.1
		c0,0.1,0,0.3-0.1,0.4c0,0,0,0,0,0c0,0.1,0,0.2,0,0.4c0,0,0,0.1,0,0.1c0,0.1,0,0.3,0,0.4l0,0c-0.3,4.8,2.3,9.2,6.2,10.3
		c0.3,0.1,0.5,0.4,0.4,0.7l-0.3,3.8c0,0.4,0.2,0.7,0.5,0.7c0,0,0,0,0,0l0.9,0.1c0.3,0,0.6-0.3,0.6-0.7l0,0l0.3-3.8
		c0-0.3,0.2-0.6,0.5-0.6c1.7-0.2,3.3-1.1,4.7-2.4c0.5-0.6,1-1.2,1.5-1.9c2.7-4.6,1.8-10.8-2-13.9c-0.5-0.4-1.1-0.8-1.7-1
		C1184.6,852.9,1183.7,852.9,1182.8,853.3z M1187.7,866.2c-0.9,1.8-2.4,3.2-4.2,3.6c-0.3,0.1-0.6-0.1-0.7-0.5c0-0.1,0-0.1,0-0.2
		l0.9-12.3c0-0.7,0.5-1.2,1.1-1.1c0.1,0,0.3,0,0.4,0.1c3.1,1.8,4.3,6.3,2.7,10C1187.8,866,1187.8,866.1,1187.7,866.2L1187.7,866.2z"
		/>
	<path class="st23" d="M1233.2,885c0,0-9.9,39.3-69.8,32.6c11,5.7,20.7,11.1,26.6,10c15.3-2.9,18,10,37.1,2.5
		c19.1-7.5,6.5-19.7,4.1-29.2C1229.9,895.7,1232,890.4,1233.2,885z"/>
	<path class="st5" d="M1178.6,806.1c-0.9,7.9-1.3,15.1-0.6,21.2c0,0,2-18.4,25.5-11.2s23.8,30.6,23.8,30.6s0.6-31,12.6-52.8
		c9.7-17.8,24.2-42.4,25.9-73.2C1265.7,721.1,1238.2,784.7,1178.6,806.1z"/>
	<path class="st13" d="M1264.8,699l64,0.7c0,0-5.5-11.1-13.5-18.8s-10.6-9.5-13.1-14.7c0,0-9.7-7.4-18.8-13.5h0c0,0,0,0,0,0
		c-1-0.7-2-1.3-3-1.9c-1.3-0.8-2.6-1.9-4-3c-7.3-4.7-18.6-10.5-26-7c-11.7,5.6,10.3,15.8-6,35.7c-16.3,19.9,1.7,55.1-21.1,84.8
		c-11,14.3-18.7,35.6-23.7,53.9c1.2,0.3,2.5,0.6,3.9,1c23.5,7.1,23.8,30.6,23.8,30.6s0.6-31,12.6-52.8
		C1251.9,772.2,1271,740.2,1264.8,699z"/>
	<path class="st40" d="M759.8,390.1c11.8-3.2,21.7-4.1,28.3-4.3c-6.2-0.2-19.9-1.5-36-9c-22-10.3-28.2,6.5-27.2-3.7
		c1-10.2,15.6-15.3,15.6-15.3c-17.8,2.5-31.9,6.8-42,26.3c0,0-14.6,31.4,2.3,62.1c0,0,0,0,0,0c1.3,4.4,3.1,9,5.4,13.7
		c4.6,9.4,6.2,16.7,6.2,22.5c0,0,0,0,0,0c17.4-1.3,24.3-34.7,19.2-39.3c-5.1-4.6-19.4-27.3-4.3-27.3s16.6,14.8,16.6,14.8l4.1-0.3
		c0,0-7.2-10.5,1.9-18.7C749.9,411.5,738.1,396,759.8,390.1z"/>
	<path class="st41" d="M923.8,609.7L923.8,609.7c-10.9,14.3-32-34.5-49.7-35.8c-17.7-1.4-30.3-24.9-41.2-33.4s-24.3-17.4-12.3-2.3
		c11.8,14.9,23.8,30.2,23.8,30.2c7.7,9.2,23.5,19.1,35.7,23.1c12.3,4.1,24.5,23.5,28.6,29.4c4.1,5.9,14.6,8.7,14.6,8.7
		s-7.4-5.1-2-13.5C922.5,614.1,923.2,611.9,923.8,609.7z"/>
	<path class="st30" d="M1497.7,460.1c-5.1-15.8-10.2-59.5-18.9-83.2c-5.3-14.5-15.8-19.1-23.2-20.5l0,0c33.3,17.5-25.4,33.6-34,29.2
		c-10-5.1-16.1-12-16.1-12c0.1,7.8,1.2,6.5,13.7,19.8c12.5,13.3,21.9,7.6,22.4,16.7c0.6,9.9,6.6,17.6,7.8,12.6
		c1.2-5,4.1-7.3,10.6-11.6c6.4-4.3,10.2,6.2,1.9,20.8c-0.5,0.8-0.9,1.5-1.3,2.2c0,0-18.5,38.3-15.7,60.3c2.8,22-11.7,38.8-24.8,53.1
		c-10.5,11.5-19.7,14.4-22.8,15.1c13.4-2.3,22.5-9,22.5-9c-1.4,3.6-6.8,8.9-6.8,8.9c12.3-1.8,20.7-11.2,20.7-11.2
		c0.5,3.6-3.3,8.9-3.3,8.9c7.9-3.3,15.6-14.6,15.6-14.6c1.5,10.7-8.2,20.4-8.2,20.4c24-5.4,28.6-20.4,26.6-34.5
		c-2-14,4.6-15.6,14.8-26.3c6.5-6.8,7.1-9.5,6.7-10.6c5.4,4,17.3,4.9,17.3,4.9C1503.8,491.5,1502.8,475.9,1497.7,460.1z"/>
	<g>
		<g>
			
				<linearGradient id="SVGID_00000061432394924256580790000002161225680372903069_" gradientUnits="userSpaceOnUse" x1="846.6315" y1="626.4126" x2="847.7783" y2="626.4126">
				<stop  offset="0" style="stop-color:#353535"/>
				<stop  offset="1" style="stop-color:#000000"/>
			</linearGradient>
			<path style="fill:url(#SVGID_00000061432394924256580790000002161225680372903069_);" d="M847.4,626.1
				C847.4,626.1,847.4,626,847.4,626.1c-0.1,0-0.1-0.1-0.1-0.1c0,0,0,0-0.1,0c0,0-0.1,0.1-0.1,0.1l0.1,0.1c0,0,0,0,0,0.1l0,0.1
				c0,0,0,0-0.1,0l-0.1-0.1l-0.2,0.4c0,0,0,0.1-0.1,0l-0.1,0c0,0,0,0,0-0.1l0.2-0.5l0,0c0,0,0,0,0-0.1l0-0.1c0,0,0.1,0,0.1,0l0-0.1
				c0-0.1,0.1-0.1,0.1-0.1c0.1,0,0.2,0,0.3,0c0,0,0.1,0.1,0.1,0.1C847.5,626,847.5,626,847.4,626.1L847.4,626.1
				C847.5,626,847.4,626.1,847.4,626.1z M847.7,626.3L847.7,626.3c-0.1-0.1-0.1-0.1-0.1-0.1l0,0c0,0,0.1-0.1,0.1,0l0.1,0
				c0,0,0,0.1,0,0.1c0,0,0,0,0,0L847.7,626.3C847.7,626.3,847.7,626.3,847.7,626.3z M847.2,627L847.2,627c-0.1-0.1-0.1-0.1-0.1-0.1
				l0.3-0.5c0,0,0.1-0.1,0.1,0l0.1,0c0,0,0,0.1,0,0.1c0,0,0,0,0,0L847.2,627C847.3,627,847.3,627,847.2,627L847.2,627z"/>
			
				<linearGradient id="SVGID_00000027592164806599633480000003718603433157482921_" gradientUnits="userSpaceOnUse" x1="847.5163" y1="626.9539" x2="848.3108" y2="626.9539">
				<stop  offset="0" style="stop-color:#353535"/>
				<stop  offset="1" style="stop-color:#000000"/>
			</linearGradient>
			<path style="fill:url(#SVGID_00000027592164806599633480000003718603433157482921_);" d="M847.7,627.3c-0.1,0-0.1-0.1-0.2-0.1
				c0,0,0,0,0-0.1l0,0c0,0,0-0.1,0.1,0c0,0,0,0,0.1,0c0,0,0.1,0.1,0.1,0.1c0,0,0.1,0,0.1,0c0,0,0,0,0,0c0,0-0.1-0.1-0.1-0.1
				c0,0,0,0-0.1-0.1c-0.1-0.1-0.1-0.1,0-0.2c0.1-0.2,0.3-0.1,0.4,0c0,0,0.1,0,0.1,0.1c0,0,0.1,0.1,0,0.1c0,0,0,0.1-0.1,0.1
				c0,0,0,0-0.1,0c0,0-0.1,0-0.1-0.1c-0.1,0-0.1,0-0.1,0c0,0,0,0,0,0c0,0,0.1,0.1,0.1,0.2c0.1,0.1,0.1,0.2,0.1,0.3
				C848,627.4,847.9,627.4,847.7,627.3z"/>
			
				<linearGradient id="SVGID_00000007404876454949139730000015976737419638515858_" gradientUnits="userSpaceOnUse" x1="848.2049" y1="627.1036" x2="848.8392" y2="627.1036">
				<stop  offset="0" style="stop-color:#353535"/>
				<stop  offset="1" style="stop-color:#000000"/>
			</linearGradient>
			<path style="fill:url(#SVGID_00000007404876454949139730000015976737419638515858_);" d="M848.7,626.8L848.7,626.8
				c-0.1-0.1-0.1-0.1-0.1-0.1l0,0c0,0,0.1-0.1,0.1,0l0.1,0c0,0,0,0.1,0,0.1c0,0,0,0,0,0L848.7,626.8
				C848.8,626.8,848.8,626.9,848.7,626.8z M848.3,627.6L848.3,627.6c-0.1-0.1-0.1-0.1-0.1-0.1l0.3-0.5c0,0,0.1-0.1,0.1,0l0.1,0
				c0,0,0,0.1,0,0.1c0,0,0,0,0,0L848.3,627.6C848.4,627.6,848.4,627.6,848.3,627.6L848.3,627.6z"/>
			
				<linearGradient id="SVGID_00000041282266020794272890000001983081207941269134_" gradientUnits="userSpaceOnUse" x1="848.626" y1="627.5472" x2="849.389" y2="627.5472">
				<stop  offset="0" style="stop-color:#353535"/>
				<stop  offset="1" style="stop-color:#000000"/>
			</linearGradient>
			<path style="fill:url(#SVGID_00000041282266020794272890000001983081207941269134_);" d="M849,628c0,0-0.1,0-0.1-0.1
				c-0.3-0.1-0.3-0.3-0.1-0.5c0.1-0.3,0.2-0.3,0.5-0.2c0,0,0.1,0,0.1,0.1c0,0,0.1,0,0.1,0.1l0,0c0,0-0.1,0.1-0.1,0.1c0,0,0,0-0.1,0
				c0,0-0.1-0.1-0.1-0.1c-0.1,0-0.1,0-0.1,0c0,0-0.1,0.1-0.1,0.1c0,0,0,0.1-0.1,0.1c0,0.1,0,0.1,0,0.1c0,0,0.1,0,0.1,0.1
				c0,0,0,0,0.1,0c0,0,0,0,0,0c0,0,0,0.1,0,0.1C849,628,849,628,849,628z"/>
			
				<linearGradient id="SVGID_00000096781034722588467100000001233775540524528291_" gradientUnits="userSpaceOnUse" x1="849.2463" y1="627.8979" x2="850.0388" y2="627.8979">
				<stop  offset="0" style="stop-color:#353535"/>
				<stop  offset="1" style="stop-color:#000000"/>
			</linearGradient>
			<path style="fill:url(#SVGID_00000096781034722588467100000001233775540524528291_);" d="M849.7,628.3L849.7,628.3
				c-0.1-0.1-0.1-0.1-0.1-0.1c-0.1,0-0.2,0-0.2,0c-0.1-0.1-0.2-0.2-0.1-0.3c0.1-0.1,0.2-0.2,0.3-0.1c0.1,0,0.1,0.1,0.2,0.1
				c0-0.1,0.1-0.1,0-0.2c-0.1,0-0.1-0.1-0.2-0.1c0,0,0,0,0,0c0,0,0-0.1,0-0.1c0,0,0,0,0.1,0c0.1,0,0.2,0.1,0.2,0.1
				c0.1,0,0.1,0.1,0.2,0.2c0,0.1,0,0.2-0.1,0.3L849.7,628.3C849.8,628.3,849.7,628.4,849.7,628.3z M849.7,628
				C849.7,628,849.7,628,849.7,628c-0.1-0.1-0.1-0.1-0.2-0.1c-0.1,0-0.1,0-0.1,0c0,0,0,0.1,0,0.1c0.1,0,0.1,0,0.2,0L849.7,628z"/>
			
				<linearGradient id="SVGID_00000180342696944587632220000015720192696199319434_" gradientUnits="userSpaceOnUse" x1="849.9614" y1="628.0364" x2="850.6039" y2="628.0364">
				<stop  offset="0" style="stop-color:#353535"/>
				<stop  offset="1" style="stop-color:#000000"/>
			</linearGradient>
			<path style="fill:url(#SVGID_00000180342696944587632220000015720192696199319434_);" d="M850.1,628.5L850.1,628.5
				c-0.1-0.1-0.1-0.1-0.1-0.1l0.4-0.8c0,0,0,0,0.1,0l0.1,0c0,0,0,0,0,0.1c0,0,0,0,0,0L850.1,628.5
				C850.1,628.5,850.1,628.5,850.1,628.5z"/>
			
				<linearGradient id="SVGID_00000103228078120315564590000002917879721953095350_" gradientUnits="userSpaceOnUse" x1="850.3766" y1="628.4874" x2="851.1398" y2="628.4874">
				<stop  offset="0" style="stop-color:#353535"/>
				<stop  offset="1" style="stop-color:#000000"/>
			</linearGradient>
			<path style="fill:url(#SVGID_00000103228078120315564590000002917879721953095350_);" d="M850.7,628.9c0,0-0.1,0-0.1-0.1
				c-0.3-0.1-0.3-0.3-0.1-0.5c0.1-0.3,0.2-0.3,0.5-0.2c0,0,0.1,0,0.1,0.1c0,0,0.1,0,0.1,0.1l0,0c0,0-0.1,0.1-0.1,0.1c0,0,0,0-0.1,0
				c0,0-0.1-0.1-0.1-0.1c-0.1,0-0.1,0-0.1,0c0,0-0.1,0.1-0.1,0.1c0,0,0,0.1-0.1,0.1c0,0.1,0,0.1,0,0.1c0,0,0.1,0,0.1,0.1
				c0,0,0,0,0.1,0c0,0,0,0,0,0c0,0,0,0.1,0,0.1C850.8,628.9,850.8,628.9,850.7,628.9z"/>
			
				<linearGradient id="SVGID_00000052091437749276936090000001890750949725135261_" gradientUnits="userSpaceOnUse" x1="851.0521" y1="628.8395" x2="851.824" y2="628.8395">
				<stop  offset="0" style="stop-color:#353535"/>
				<stop  offset="1" style="stop-color:#000000"/>
			</linearGradient>
			<path style="fill:url(#SVGID_00000052091437749276936090000001890750949725135261_);" d="M851.3,629.2c-0.2-0.1-0.2-0.3-0.1-0.5
				c0.1-0.2,0.3-0.3,0.5-0.2c0.2,0.1,0.2,0.3,0.1,0.5C851.6,629.2,851.5,629.3,851.3,629.2z M851.6,628.7c0-0.1,0-0.1-0.1-0.1
				c0,0-0.1,0-0.1,0c0,0-0.1,0.1-0.1,0.1c0,0-0.1,0.1-0.1,0.2c0,0.1,0,0.1,0.1,0.1c0,0,0.1,0,0.1,0c0,0,0.1-0.1,0.1-0.1
				C851.6,628.9,851.6,628.8,851.6,628.7L851.6,628.7z"/>
			
				<linearGradient id="SVGID_00000088091628197075840100000002975633934567378093_" gradientUnits="userSpaceOnUse" x1="851.7799" y1="629.2585" x2="852.5724" y2="629.2585">
				<stop  offset="0" style="stop-color:#353535"/>
				<stop  offset="1" style="stop-color:#000000"/>
			</linearGradient>
			<path style="fill:url(#SVGID_00000088091628197075840100000002975633934567378093_);" d="M852.2,629.7L852.2,629.7
				c-0.1-0.1-0.1-0.1-0.1-0.1c-0.1,0-0.2,0-0.2,0c-0.1-0.1-0.2-0.2-0.1-0.3c0.1-0.1,0.2-0.2,0.3-0.1c0.1,0,0.1,0.1,0.2,0.1
				c0-0.1,0.1-0.1,0-0.2c-0.1,0-0.1-0.1-0.2-0.1c0,0,0,0,0,0c0,0,0-0.1,0-0.1c0,0,0,0,0.1,0c0.1,0,0.2,0.1,0.2,0.1
				c0.1,0,0.1,0.1,0.2,0.2c0,0.1,0,0.2-0.1,0.3L852.2,629.7C852.3,629.7,852.3,629.7,852.2,629.7z M852.3,629.3
				C852.3,629.3,852.2,629.3,852.3,629.3c-0.1-0.1-0.1-0.1-0.2-0.1c-0.1,0-0.1,0-0.1,0c0,0,0,0.1,0,0.1c0.1,0,0.1,0,0.2,0
				L852.3,629.3z"/>
			
				<linearGradient id="SVGID_00000025417263465925051520000008995988793903010958_" gradientUnits="userSpaceOnUse" x1="852.5415" y1="629.6499" x2="853.3045" y2="629.6499">
				<stop  offset="0" style="stop-color:#353535"/>
				<stop  offset="1" style="stop-color:#000000"/>
			</linearGradient>
			<path style="fill:url(#SVGID_00000025417263465925051520000008995988793903010958_);" d="M852.9,630.1c0,0-0.1,0-0.1-0.1
				c-0.3-0.1-0.3-0.3-0.1-0.5c0.1-0.3,0.2-0.3,0.5-0.2c0,0,0.1,0,0.1,0.1c0,0,0.1,0,0.1,0.1l0,0c0,0-0.1,0.1-0.1,0.1c0,0,0,0-0.1,0
				c0,0-0.1-0.1-0.1-0.1c-0.1,0-0.1,0-0.1,0c0,0-0.1,0.1-0.1,0.1c0,0,0,0.1-0.1,0.1c0,0.1,0,0.1,0,0.1c0,0,0.1,0,0.1,0.1
				c0,0,0,0,0.1,0c0,0,0,0,0,0c0,0,0,0.1,0,0.1C853,630.1,852.9,630.1,852.9,630.1z"/>
			
				<linearGradient id="SVGID_00000143616771529838003750000003581518658128791686_" gradientUnits="userSpaceOnUse" x1="853.1274" y1="629.8441" x2="853.9736" y2="629.8441">
				<stop  offset="0" style="stop-color:#353535"/>
				<stop  offset="1" style="stop-color:#000000"/>
			</linearGradient>
			<path style="fill:url(#SVGID_00000143616771529838003750000003581518658128791686_);" d="M853.6,630.4L853.6,630.4
				c-0.1-0.1-0.1-0.1-0.1-0.1l0.2-0.4c0,0,0.1-0.1,0-0.1s0,0,0,0c-0.1,0-0.1,0-0.2,0l-0.2,0.4c0,0,0,0.1-0.1,0l-0.1,0c0,0,0,0,0-0.1
				l0.4-0.8c0,0,0,0,0.1,0l0.1,0c0,0,0,0,0,0.1c0,0,0,0,0,0l-0.1,0.3c0.1,0,0.1,0,0.2,0.1c0.1,0.1,0.2,0.2,0.1,0.3L853.6,630.4
				C853.7,630.4,853.7,630.5,853.6,630.4z"/>
		</g>
	</g>
	<path class="st5" d="M1495.6,498.5"/>
	<path class="st53" d="M817.7,547.8c-0.3,0.3-0.4,0.9-0.2,1.4l0,0l3.2,8.7c0.1,0.2,0,0.5-0.2,0.6c0,0-0.1,0-0.1,0
		c-1.9,0-3.7-1.4-4.5-3.4c0-0.1,0-0.1-0.1-0.2l0-0.1c0,0,0-0.1,0-0.1l0,0c0-0.1-0.1-0.3-0.1-0.4l0,0c0-0.1,0-0.1,0-0.2c0,0,0,0,0,0
		c0-0.1,0-0.3-0.1-0.4l0,0c0-0.1,0-0.1,0-0.2l0,0c0-0.1,0-0.3,0-0.4l0,0c0-0.1,0-0.3,0-0.4l0,0c0-0.1,0-0.1,0-0.2c0,0,0,0,0,0
		c0-0.1,0-0.1,0-0.2l0,0c0-0.1,0-0.1,0-0.2l0-0.1c0.1-0.3,0.1-0.5,0.2-0.7c0-0.1,0.1-0.2,0.1-0.3c0.1-0.2,0-0.6-0.2-0.8
		c0,0,0,0-0.1,0l-0.5-0.3c-0.2-0.1-0.5-0.1-0.6,0.2c-0.2,0.3-0.3,0.7-0.4,1l0,0l0,0c0,0.1,0,0.2-0.1,0.2l0,0c0,0.1,0,0.2-0.1,0.2
		l0,0c0,0.2,0,0.3-0.1,0.5l0,0c0,0.2,0,0.3,0,0.5c0,0,0,0,0,0.1c0,0.1,0,0.2,0,0.2l0,0c0,0.1,0,0.2,0,0.3l0,0.1c0,0.1,0,0.2,0,0.2
		l0,0c0,0.1,0,0.2,0,0.3l0,0c0,0.1,0,0.1,0,0.2c0,0,0,0,0,0.1c0,0.1,0,0.2,0,0.3c0,0,0,0,0,0c0,0.1,0,0.2,0,0.2c0,0,0,0,0,0.1
		c0,0.1,0,0.2,0.1,0.3c0,0,0,0,0,0c0,0.1,0,0.2,0.1,0.2c0,0,0,0,0,0.1c0,0.1,0.1,0.2,0.1,0.3l0,0c1.1,3,3.9,4.9,6.6,4.5
		c0.2,0,0.4,0.1,0.5,0.3l0.9,2.3c0.1,0.2,0.3,0.4,0.5,0.3c0,0,0,0,0,0l0.6-0.2c0.2-0.1,0.3-0.3,0.2-0.6l0,0l-0.9-2.3
		c-0.1-0.2,0-0.4,0.1-0.5c1-0.6,1.7-1.6,2.1-2.7c0.2-0.5,0.3-1,0.4-1.5c0.4-3.5-1.9-7-5-7.8c-0.4-0.1-0.9-0.2-1.3-0.2
		C818.6,547.1,818.1,547.4,817.7,547.8z M824.2,554.3c0,1.4-0.6,2.6-1.5,3.3c-0.2,0.1-0.4,0.1-0.6-0.1c0,0,0-0.1-0.1-0.1l-2.8-7.6
		c-0.2-0.4,0-0.8,0.4-1c0.1,0,0.2,0,0.3,0c2.4,0.2,4.3,2.6,4.4,5.3C824.2,554.1,824.2,554.2,824.2,554.3L824.2,554.3z"/>
	<g>
		<g id="Capa_2_00000080924098189448088940000007495757471842691212_">
			<g id="Capa_1-2_00000173122420769191313850000018304182853959201207_">
				<path class="st54" d="M524.6,1083c-1.9,0.5-3.8,1.6-4.8,2.8l0,0c-7.2,8.1-9.7,11-15.7,18c-0.4,0.5-1.4,0.9-2.1,0.9
					c-0.1,0-0.3,0-0.4,0c-5.2-1.2-6.4-4.8-2.8-8.9c0.1-0.1,0.2-0.2,0.3-0.4c0-0.1,0.1-0.1,0.1-0.1c0.1-0.1,0.2-0.2,0.3-0.3
					c0,0,0,0,0.1-0.1c0.3-0.3,0.5-0.5,0.8-0.8c0,0,0.1,0,0.1-0.1c0.1-0.1,0.3-0.2,0.4-0.3c0,0,0,0,0.1-0.1c0.3-0.3,0.6-0.5,1-0.8
					c0,0,0,0,0.1-0.1c0.2-0.1,0.3-0.2,0.5-0.4l0,0c0.4-0.3,0.8-0.5,1.1-0.7c0,0,0,0,0.1,0c0.4-0.2,0.8-0.5,1.2-0.7c0,0,0,0,0,0
					c0.2-0.1,0.4-0.2,0.6-0.3c0,0,0.1,0,0.1-0.1c0.2-0.1,0.4-0.2,0.5-0.3c0,0,0,0,0.1,0c0.2-0.1,0.4-0.2,0.6-0.3
					c0.1,0,0.1-0.1,0.2-0.1c0.9-0.4,1.8-0.8,2.7-1.2c0.4-0.2,0.8-0.3,1.2-0.5c1.1-0.4,1.8-1.1,1.8-1.7c0,0,0-0.1,0-0.1
					c-0.2-0.4-0.3-0.5-0.4-0.9c-0.2-0.4-1.1-0.5-2.1-0.1c-1.4,0.6-2.8,1.2-4.1,1.8l0,0c0,0,0,0-0.1,0c-0.3,0.1-0.6,0.3-0.9,0.4l0,0
					c-0.3,0.1-0.6,0.3-0.8,0.4c-0.1,0-0.1,0-0.1,0.1c-0.5,0.3-1.1,0.6-1.6,0.9c-0.1,0-0.1,0.1-0.1,0.1c-0.5,0.3-1.1,0.6-1.6,1
					c0,0-0.1,0.1-0.1,0.1c-0.2,0.1-0.5,0.3-0.7,0.4c0,0,0,0-0.1,0c-0.2,0.2-0.5,0.3-0.7,0.5c-0.1,0-0.1,0.1-0.1,0.1
					c-0.2,0.1-0.4,0.3-0.6,0.4c0,0-0.1,0-0.1,0.1c-0.2,0.2-0.4,0.3-0.7,0.5c0,0-0.1,0.1-0.1,0.1c-0.2,0.1-0.4,0.3-0.5,0.4
					c0,0-0.1,0.1-0.1,0.1c-0.2,0.2-0.4,0.3-0.6,0.5c0,0,0,0-0.1,0.1c-0.2,0.1-0.4,0.3-0.5,0.4c0,0-0.1,0.1-0.1,0.1
					c-0.2,0.2-0.4,0.3-0.5,0.5c0,0,0,0,0,0.1c-0.2,0.2-0.3,0.3-0.5,0.5c0,0-0.1,0.1-0.1,0.1c-0.2,0.2-0.3,0.3-0.5,0.5c0,0,0,0,0,0
					c-5.3,6-3,11.1,5.3,12.3c0.6,0.1,0.7,0.5,0.4,0.9c-1.7,2-2.6,3-4.6,5.2c-0.5,0.6-0.3,1,0.5,1c0,0,0,0,0,0c0.9,0,1.3,0,2.2,0
					c0.8,0,1.8-0.5,2.3-1l0,0c1.9-2.2,2.8-3.2,4.6-5.2c0.4-0.4,1.2-0.8,1.9-0.9c4.4-0.5,9.1-1.7,13.5-3.5c1.8-0.7,3.6-1.6,5.2-2.5
					c10.7-5.9,14.3-13.8,8.5-18c-0.8-0.6-1.7-1-2.8-1.4C529.4,1082.2,527.2,1082.3,524.6,1083z M523.5,1099.8
					c-3.9,2.3-8.7,4.1-13.4,4.8c-0.8,0.1-1.4-0.1-1.2-0.6c0-0.1,0.1-0.2,0.2-0.3c5.3-6.1,7.6-8.8,13.6-15.6c0.8-0.9,2.6-1.7,3.9-1.7
					c0.3,0,0.6,0,0.8,0.1c5.5,2.3,4.1,8.1-3.1,12.8C524,1099.5,523.8,1099.6,523.5,1099.8C523.5,1099.8,523.5,1099.8,523.5,1099.8z"
					/>
				<g>
					<path class="st54" d="M555.2,1097.1c-0.3,0-0.7-0.1-1-0.1c-0.4,0-0.8-0.1-1.3-0.1c-0.3,0-0.8,0-1.2,0.2
						c-0.5,0.3-1.4,1.5-1.7,1.7c1.1,0,1.7,0,2.8,0c0.6,0,0.9,0.1,0.5,0.5c-0.2,0.3-0.3,0.4-0.6,0.7c-0.4,0.5-0.7,0.7-1.6,0.7
						c-1.1,0-1.6,0-2.7,0c-1.9,2.3-2.9,3.4-4.9,5.7c-0.4,0.5-0.8,0.8-1.7,0.8c-0.7,0-1.1,0-1.8,0c-0.8,0-0.6-0.3-0.2-0.7
						c2-2.4,3-3.5,4.9-5.8c-0.3,0-0.5,0-0.8,0c-0.6,0-0.4-0.3-0.2-0.6c0.3-0.3,0.4-0.4,0.6-0.7c0.5-0.6,1.2-0.5,1.9-0.5
						c0.2-0.3,0.3-0.4,0.6-0.7c0.6-0.7,1.2-1.4,2.4-2c2-1,3.9-1,5.7-1c0.5,0,2,0,2,0.3c0,0.1,0,0.2-0.2,0.4c0,0-0.1,0.1-0.1,0.1
						C556.7,1096.3,556,1097.1,555.2,1097.1z M560.5,1097.6c-0.4,0-0.7,0-1.1,0c-1,0-1.4-0.1-0.8-0.8c0.2-0.2,0.3-0.4,0.5-0.6
						c0.5-0.6,1-0.8,1.9-0.8c0.5,0,0.8,0,1.3,0c0.6,0,0.8,0.3,0.5,0.7c0,0-0.1,0.1-0.1,0.1c-0.2,0.2-0.3,0.4-0.5,0.6
						C561.8,1097.3,561.3,1097.6,560.5,1097.6L560.5,1097.6z M552.4,1107.2c-0.4,0-0.7,0-1.1,0c-1,0-1.4-0.1-0.8-0.8
						c2.4-2.8,3.5-4.1,5.8-6.8c0.5-0.5,1-0.8,1.9-0.8c0.5,0,0.8,0,1.3,0c0.6,0,0.9,0.3,0.5,0.7c0,0-0.1,0.1-0.1,0.1
						c-2.3,2.7-3.4,4-5.8,6.8C553.7,1106.9,553.2,1107.2,552.4,1107.2L552.4,1107.2z"/>
					<path class="st54" d="M562.3,1107.4c-1.4,0-2.7,0-3.9-0.1c-0.8-0.1-0.5-0.3-0.1-0.8c0.1-0.1,0.2-0.2,0.3-0.3
						c0.3-0.4,0.8-0.8,1.5-0.8c0.5,0,0.9,0.1,1.4,0.1c0.9,0.1,1.9,0.1,2.9,0.1c1,0,1.4,0,2-0.6c0.2-0.2,0.3-0.4,0.3-0.6
						c-0.1-0.2-2.2-0.6-2.6-0.7c-0.4-0.1-0.9-0.3-1.3-0.4c-1.1-0.5-1.2-1-0.3-2c2.2-2.7,5.1-2.6,8.6-2.6c0.7,0,1.4,0,2.1,0
						c1,0.1,1.3,0.2,0.7,0.9c-0.4,0.5-0.8,1.1-1.9,1.1c-0.5,0-0.9-0.1-1.4-0.1c-0.7,0-1.4-0.1-2.2-0.1c-1.1,0-1.6-0.1-2.2,0.7
						c-0.1,0.1-0.2,0.2-0.1,0.3c0.1,0.2,2.4,0.7,2.9,0.8c1.8,0.5,2.5,0.9,1.2,2.4C567.9,1107.1,565.8,1107.4,562.3,1107.4z"/>
					<path class="st54" d="M582.2,1097.6c-0.4,0-0.6,0-1.1,0c-1,0-1.4-0.1-0.8-0.8c0.2-0.2,0.3-0.4,0.5-0.6c0.5-0.6,1-0.8,1.9-0.8
						c0.5,0,0.8,0,1.3,0c0.6,0,0.8,0.3,0.5,0.7c0,0-0.1,0.1-0.1,0.1c-0.2,0.2-0.3,0.4-0.5,0.6
						C583.6,1097.3,583.1,1097.6,582.2,1097.6z M574.1,1107.2c-0.4,0-0.6,0-1.1,0c-1,0-1.4-0.1-0.8-0.8c2.4-2.8,3.5-4.1,5.7-6.8
						c0.5-0.6,1-0.8,1.9-0.8c0.5,0,0.8,0,1.3,0c0.6,0,0.9,0.3,0.6,0.7c0,0-0.1,0.1-0.1,0.1c-2.2,2.7-3.3,4.1-5.7,6.8
						C575.5,1106.9,575,1107.2,574.1,1107.2z"/>
					<path class="st54" d="M587.6,1107.4c-0.8,0-1.7,0.1-2.5,0.1c-5.5,0-5.4-1.2-2.6-4.5c2.7-3.2,4.6-4.4,10.1-4.4
						c0.8,0,1.6,0,2.3,0.1c0.8,0.1,1.5,0,1.1,0.6c0,0,0,0,0,0c-0.4,0.4-1.1,1.4-2.1,1.4c-0.4,0-0.7,0-1.1-0.1
						c-0.8-0.1-1.7-0.1-2.5-0.1c-1.2,0-1.5,0.1-2.3,0.8c-0.6,0.6-1.2,1.2-1.7,1.7c-0.5,0.6-0.9,1.1-1.3,1.7c-0.6,0.8-0.2,0.9,1,0.9
						c0.9,0,1.8-0.1,2.8-0.1c0.4,0,0.8-0.1,1.2-0.1c0.3,0,0.5,0.1,0.5,0.2c0.1,0.1-0.5,1-0.7,1.2
						C589.2,1107.4,588.5,1107.3,587.6,1107.4z"/>
					<path class="st54" d="M602.8,1107.3c-0.6,0-0.9,0-1.6,0c-0.6,0-0.6-0.3-0.3-0.6c-1.7,0.5-3.4,0.8-4.9,0.9c-2.8,0-3.2-1-1.8-2.7
						c1.6-1.9,4-2.6,6.9-2.7c1.3-0.1,2.5-0.1,3.7-0.1c0.6-0.7,1.5-1.7,0-1.7c-1.4,0-2.8,0.1-4.3,0.4c-0.2,0-0.5,0.1-0.7,0.1
						c-1,0-0.3-0.6,0-1c0.2-0.3,0.8-0.7,1.4-0.7c1.7-0.2,3.3-0.3,4.9-0.3c1.3,0,2.9,0.1,3.4,0.8c0.5,0.8-0.4,1.9-1.2,2.8
						c-1.4,1.7-2.1,2.6-3.6,4.3C604.1,1107,603.6,1107.3,602.8,1107.3z M603.5,1103.5c-0.5,0-0.9,0-1.3,0c-0.6,0-1.2,0-1.8,0
						c-1.3,0.1-1.9,0.3-2.6,1.1c-0.4,0.4-0.9,1.2,0,1.2c1.4,0,3-0.3,4.5-0.9C602.8,1104.4,603,1104.1,603.5,1103.5z"/>
					<path class="st54" d="M610.2,1107.3c-0.4,0-0.6,0-1,0c-1,0-1.4-0.1-0.8-0.8c3.6-4.3,5.2-6.3,8.7-10.6c0.5-0.6,1-0.8,1.9-0.8
						c0.5,0,0.8,0,1.3,0c0.6,0,0.9,0.3,0.6,0.7c0,0-0.1,0.1-0.1,0.1c-3.5,4.3-5,6.3-8.7,10.6C611.6,1107,611.1,1107.3,610.2,1107.3z
						"/>
					<path class="st54" d="M623.5,1107.5c-0.8,0-1.7,0.1-2.4,0.1c-5.5,0-5.3-1.2-2.6-4.5c2.7-3.3,4.5-4.5,10-4.5
						c0.8,0,1.6,0,2.3,0.1c0.8,0.1,1.5,0,1.1,0.6c0,0,0,0,0,0c-0.4,0.4-1.1,1.4-2.1,1.4c-0.4,0-0.7,0-1-0.1
						c-0.8-0.1-1.6-0.1-2.5-0.1c-1.2,0-1.5,0.1-2.3,0.8c-0.6,0.6-1.2,1.2-1.7,1.8c-0.5,0.6-0.9,1.1-1.3,1.7c-0.6,0.8-0.2,0.9,1,0.9
						c0.9,0,1.8-0.1,2.8-0.1c0.4,0,0.8-0.1,1.2-0.1c0.3,0,0.5,0.1,0.5,0.2c0.1,0.1-0.5,1-0.7,1.2
						C625.1,1107.5,624.4,1107.4,623.5,1107.5z"/>
					<path class="st54" d="M634.5,1107.6c-4.7,0-4.9-1.7-2.7-4.5c2.3-2.8,5.3-4.5,10-4.5s5,1.7,2.8,4.5
						C642.3,1105.9,639.2,1107.6,634.5,1107.6z M642.2,1101c0-0.6-0.9-0.6-1.8-0.6s-1.8,0-2.7,0.6s-1.7,1.4-2.2,2.1
						c-0.5,0.6-1.2,1.5-1.1,2.1c0,0.6,0.9,0.6,1.8,0.6c0.9,0,1.8,0,2.7-0.5c1-0.5,1.7-1.5,2.2-2.1S642.2,1101.6,642.2,1101z"/>
					<path class="st54" d="M654.3,1107.4c-0.6,0-0.9,0-1.5,0c-0.6,0-0.6-0.3-0.2-0.6c-1.7,0.5-3.4,0.8-4.8,0.9c-2.7,0-3.1-1-1.7-2.7
						c1.6-1.9,3.9-2.6,6.8-2.8c1.2-0.1,2.5-0.1,3.6-0.1c0.6-0.7,1.5-1.7,0-1.7c-1.4,0-2.8,0.1-4.3,0.4c-0.2,0-0.5,0.1-0.7,0.1
						c-1,0-0.3-0.6,0-1.1c0.2-0.3,0.8-0.7,1.4-0.8c1.7-0.2,3.3-0.3,4.8-0.3c1.3,0,2.9,0.1,3.3,0.8c0.5,0.8-0.4,1.9-1.2,2.9
						c-1.4,1.7-2.1,2.6-3.5,4.3C655.7,1107.1,655.2,1107.4,654.3,1107.4z M655.1,1103.6c-0.4,0-0.9,0-1.3,0c-0.6,0-1.2,0-1.8,0
						c-1.3,0.1-1.9,0.3-2.5,1.1c-0.4,0.4-0.9,1.2,0,1.2c1.4,0,2.9-0.3,4.4-0.9C654.4,1104.5,654.7,1104.2,655.1,1103.6z"/>
					<path class="st54" d="M667.2,1107.6c-0.8,0-1.6,0.1-2.4,0.1c-5.4,0-5.2-1.2-2.5-4.5c2.7-3.3,4.5-4.5,9.8-4.5
						c0.8,0,1.5,0,2.3,0.1c0.8,0.1,1.5,0,1,0.6c0,0,0,0,0,0c-0.3,0.4-1.1,1.4-2.1,1.4c-0.4,0-0.7,0-1-0.1c-0.8-0.1-1.6-0.1-2.5-0.1
						c-1.1,0-1.5,0.1-2.3,0.8c-0.6,0.6-1.2,1.2-1.6,1.8c-0.5,0.6-0.9,1.1-1.3,1.7c-0.5,0.8-0.2,0.9,1,0.9c0.9,0,1.8-0.1,2.7-0.1
						c0.4,0,0.8-0.1,1.1-0.1c0.3,0,0.4,0.1,0.5,0.2c0.1,0.1-0.5,1-0.7,1.2C668.8,1107.6,668.2,1107.5,667.2,1107.6z"/>
					<path class="st54" d="M682.1,1107.5c-0.6,0-0.9,0-1.4,0c-0.8,0-0.7-0.4-0.3-0.8c1.5-1.8,2.3-2.7,3.7-4.6c0.2-0.3,1-1.2,0.9-1.4
						c-0.1-0.2-0.5-0.1-0.8-0.1c-1.2,0-2.6,0.3-3.9,0.8c-1.7,2.1-2.5,3.2-4.3,5.3c-0.4,0.5-0.9,0.8-1.7,0.8c-0.6,0-0.9,0-1.4,0
						c-0.7,0-0.7-0.3-0.4-0.7c3.7-4.3,5.2-6.4,8.6-10.9c0.5-0.6,1-0.8,1.8-0.8c0.5,0,0.8,0,1.3,0c0.6,0,0.8,0.3,0.6,0.7
						c0,0-0.1,0.1-0.1,0.1c-1,1.4-1.6,2-2.6,3.4c1.4-0.4,2.8-0.6,4.1-0.6c2.5,0,3.5,0.8,2.2,2.6c-1.7,2.2-2.6,3.3-4.4,5.5
						C683.4,1107.2,682.9,1107.5,682.1,1107.5z"/>
				</g>
			</g>
		</g>
	</g>
</g>
</svg>
