<?xml version="1.0" encoding="utf-8"?>
<!-- Generator: Adobe Illustrator 25.4.1, SVG Export Plug-In . SVG Version: 6.00 Build 0)  -->
<svg version="1.1" id="Capa_1" xmlns="http://www.w3.org/2000/svg" xmlns:xlink="http://www.w3.org/1999/xlink" x="0px" y="0px"
	 viewBox="0 0 34.2 31.6" style="enable-background:new 0 0 34.2 31.6;" xml:space="preserve">
<style type="text/css">
	.st0{fill:#00E9C5;}
	.st1{fill:none;stroke:#00E9C5;stroke-miterlimit:10;}
</style>
<g transform="translate(0 -0.001)">
	<g transform="translate(11.763 19.431)">
		<path class="st0" d="M4.1-0.5c-0.2-0.2-0.6-0.2-0.8,0l-3.7,3.7c-0.2,0.3-0.2,0.6,0,0.8c0.2,0.2,0.5,0.2,0.7,0l3.8-3.8
			C4.3,0,4.3-0.3,4.1-0.5z"/>
	</g>
	<g transform="translate(0 24.731)">
		<path class="st0" d="M19.3-4.3c-0.2-0.2-0.6-0.2-0.8,0L8.3,5.9c-0.2,0.2-0.2,0.6,0,0.8c0.2,0.2,0.5,0.2,0.7,0L19.3-3.6
			C19.5-3.8,19.5-4.1,19.3-4.3z"/>
	</g>
	<g transform="translate(5.82 16.857)">
		<path class="st0" d="M9-0.5c-0.2-0.2-0.6-0.2-0.8,0l-8.6,8.6c-0.2,0.3-0.2,0.6,0,0.8c0.2,0.2,0.5,0.2,0.7,0L9,0.2
			C9.2,0,9.2-0.3,9-0.5L9-0.5z"/>
	</g>
	<g transform="translate(0.557 11.928)">
		<path class="st0" d="M12.3-0.5c-0.2-0.2-0.6-0.2-0.8,0L-0.4,11.4c-0.2,0.2-0.2,0.6,0,0.8s0.5,0.2,0.7,0l12-12
			C12.5,0,12.5-0.3,12.3-0.5z"/>
	</g>
	<g transform="translate(4.536 5.357)">
		<path class="st0" d="M9.1-0.5c-0.2-0.2-0.6-0.2-0.8,0l-8.7,8.7c-0.2,0.2-0.2,0.6,0,0.8s0.5,0.2,0.7,0L9,0.3C9.3,0,9.3-0.3,9.1-0.5
			z"/>
	</g>
	<g transform="translate(12.964 22.171)">
		<path class="st0" d="M5.5,4.5C5,5.1,5.1,5.3,5.4,5.5c0.3,0.3,0.9-0.2,0.9-0.2l5.4-5.6c0.2-0.2,0.2-0.5,0-0.7s-0.6-0.2-0.8,0"/>
	</g>
</g>
<g id="Balón">
	<path class="st1" d="M24,0.5c5.2,0,9.6,4.4,9.6,9.6s-4.4,9.6-9.6,9.6s-9.6-4.4-9.6-9.6S18.8,0.7,24,0.5z"/>
	<path class="st1" d="M17.3,3.4c0.8,0,1.7,0.4,2.1,1c0,0.2,0,0.2,0,0.4c-1.7,4.2,0,9,3.8,11.3c0.2,0,0.2,0.2,0.2,0.4
		c0,1-0.4,2.1-1.3,2.5c-0.2,0.2-0.2,0.4-0.4,0.2C17.3,15.8,14.6,8.9,17.3,3.4C17.5,3.4,17.1,3.4,17.3,3.4z"/>
	<path class="st1" d="M19.8,1.5c0,0,2.7,0.2,3.4,1.9"/>
	<path class="st1" d="M23.2,0.5c0.2,0.4,2.1,1,2.3,2.1"/>
	<path class="st1" d="M29.3,2c-3.4,0.6-6.7,1.7-9.9,2.7"/>
	<path class="st1" d="M32.4,5.5c0,0-3.8-1.7-13.4,3.6"/>
	<path class="st1" d="M19.6,12.4c0,0,8.8-0.8,13.6-3.8"/>
	<path class="st1" d="M33.2,12.9l-10.1,3.6l4.5-1.6c-0.2,1.7-0.9,3.3-2.2,4.7"/>
	<path class="st1" d="M29.9,14.1c0.4,2.1,0.2,4-0.6,4"/>
</g>
</svg>
