<?xml version="1.0" encoding="utf-8"?>
<!-- Generator: Adobe Illustrator 25.4.1, SVG Export Plug-In . SVG Version: 6.00 Build 0)  -->
<svg version="1.1" id="Capa_1" xmlns="http://www.w3.org/2000/svg" xmlns:xlink="http://www.w3.org/1999/xlink" x="0px" y="0px"
	 viewBox="0 0 49.6 34.7" style="enable-background:new 0 0 49.6 34.7;" xml:space="preserve">
<style type="text/css">
	.st0{fill:none;stroke:#FF3737;stroke-linecap:round;stroke-miterlimit:10;}
	.st1{fill:none;stroke:#FF3737;stroke-miterlimit:10;}
	.st2{fill:none;stroke:#00E9C5;stroke-miterlimit:10;}
	.st3{fill:#FF3737;}
</style>
<path class="st0" d="M0.5,30.8V3.5c0-1.6,1.4-3,3-3h42.6c1.6,0,3,1.4,3,3v27.1"/>
<path class="st1" d="M32.1,21.3c6.8,1.3,12,4.2,14.7,5.7V6.3c0-1.5-1.3-2.7-2.7-2.7h-4.7h-4.8H30h-5h-5h-5.3h-4.4H5.7
	C4.2,3.6,3,4.9,3,6.3v4.6v4.7v5.1v6.2c2.6-1.5,8-4.4,15.2-5.6"/>
<line class="st1" x1="9.1" y1="3.5" x2="9" y2="24"/>
<line class="st1" x1="14.7" y1="3.5" x2="14.8" y2="22.2"/>
<line class="st1" x1="20.3" y1="3.6" x2="20.3" y2="9.8"/>
<path class="st1" d="M25,20.7"/>
<path class="st1" d="M24.9,8.2"/>
<line class="st1" x1="24.9" y1="3.5" x2="24.9" y2="8.2"/>
<line class="st1" x1="29.9" y1="3.5" x2="29.9" y2="9.6"/>
<line class="st1" x1="35.8" y1="3.5" x2="35.7" y2="21.9"/>
<line class="st1" x1="40.6" y1="3.5" x2="40.6" y2="23.9"/>
<g>
	<g>
		<path class="st1" d="M16.9,16.2c-0.7,0.1-1.4,0.2-2.1,0.4c-5.3,1.1-9.5,2.9-12,4.1"/>
	</g>
</g>
<g>
	<g>
		<path class="st1" d="M46.8,20.8c-2.7-1.3-7.1-3.2-13-4.3"/>
	</g>
</g>
<path class="st1" d="M19.2,11C12,12,6,14.4,2.9,15.9"/>
<path class="st1" d="M18.7,11.2"/>
<path class="st1" d="M32.2,11.4"/>
<path class="st1" d="M46.9,16.1c-2.9-1.5-8.6-3.8-15.3-4.9"/>
<path class="st1" d="M46.6,10.8c-1.3,0-18.7-10.3-43.6,0.1"/>
<path class="st2" d="M46.6,11.2"/>
<path class="st1" d="M33.8,16.7"/>
<path class="st1" d="M25.2,24.8c-4.6,0-8.3-3.7-8.3-8.3s3.7-8.3,8.3-8.3s8.3,3.7,8.3,8.3"/>
<path class="st1" d="M33.5,16.5c0,4.6-3.7,8.3-8.3,8.3"/>
<path class="st1" d="M23.1,24.4c-1-1.3-5.9-5.6-4.1-13.2c0.1-0.2,0.3-0.3,0.6-0.3c0.5,0.1,1.4,0.3,1.8,0.9c0.1,0.1,0.1,0.3,0,0.4
	c-0.4,1-1,6.2,3.2,9.8c0.1,0.1,0.2,0.2,0.2,0.3c0.1,0.9-0.3,1.8-1,2.2"/>
<path class="st1" d="M21,9.3c0,0,2.3,0.1,2.8,1.5"/>
<path class="st1" d="M24,8.3c0.7,0.2,2.2,1.3,2,2"/>
<path class="st1" d="M29.8,9.6c0,0-2.8,0.4-8.5,2.4"/>
<path class="st1" d="M32.4,12.3c0,0-3.1-0.9-11.3,3.7L21,16.1"/>
<path class="st1" d="M22.1,18.7c0,0,7.3-0.4,11.4-3.3"/>
<path class="st1" d="M33.1,19.2l-8.5,2.7l3.2-1c0,0,0.7,1.6-1.1,3.8"/>
<path class="st1" d="M30.1,20.2c0,0,0.3,1.7-0.5,3.4"/>
<g>
	<path class="st3" d="M6.7,34.7H6.2c-0.3,0-0.4-0.1-0.5-0.4l-0.3-0.7c-0.7,0-1.5,0-2.3,0l-0.2,0.6c-0.1,0.3-0.2,0.5-0.6,0.5H1.8
		c-0.3,0-0.6,0.1-0.5-0.4c0-0.1,0.1-0.2,0.1-0.3l2-5.2c0.2-0.5,0.4-0.5,0.9-0.5c0.4,0,0.5,0.1,0.7,0.5l2.1,5.3
		c0,0.1,0.1,0.2,0.1,0.3C7.2,34.6,6.9,34.7,6.7,34.7z M4.2,30.4l-0.7,2.1H5L4.2,30.4z"/>
	<path class="st3" d="M13.1,32.9c-0.3,1.5-1.1,1.8-2.5,1.8c-2.7,0-2.7-1.7-2.7-3.9v-2.1c0-0.5,0.5-0.5,0.9-0.5
		c0.3,0,0.5,0.1,0.5,0.5v2.7c0,0.4,0,1.1,0.2,1.6c0.2,0.4,0.6,0.4,1,0.4s0.8,0,1-0.4s0.2-1.1,0.2-1.6v-2.7c0-0.5,0.6-0.5,0.9-0.5
		c0.3,0,0.5,0.1,0.5,0.5l0.1,2C13.2,31.5,13.2,32.2,13.1,32.9z"/>
	<path class="st3" d="M18.6,29.5c-0.4,0-0.8,0-1.2,0v4.6c0,0.6-0.5,0.5-0.9,0.5S16,34.5,16,34.1v-4.6c-0.4,0-0.8,0-1.2,0
		c-0.7,0-0.7-0.5-0.7-0.8s0.2-0.5,0.5-0.5h4.1c0.5,0,0.5,0.2,0.5,0.7S19,29.5,18.6,29.5z"/>
	<path class="st3" d="M22.6,34.7c-2.1,0-2.8-1.5-2.8-3.3s0.6-3.3,2.8-3.3s2.8,1.5,2.8,3.3C25.5,33.3,24.7,34.7,22.6,34.7z
		 M23.7,29.9c-0.2-0.4-0.6-0.5-1-0.5s-0.8,0.1-1,0.5s-0.2,1.1-0.2,1.6c0,0.4,0,1.1,0.2,1.6c0.2,0.4,0.6,0.5,1,0.5s0.8-0.1,1-0.5
		s0.2-1.1,0.2-1.6C23.9,30.9,23.9,30.2,23.7,29.9z"/>
	<path class="st3" d="M30.8,34.5c-0.4,0.1-1,0.2-1.6,0.2c-2.3,0-2.8-1-2.8-3.2c0-1.1,0.1-2.7,1.2-3.1c0.4-0.2,0.7-0.2,1.3-0.2
		c0.4,0,0.9,0,1.4,0c0.3,0,0.9-0.1,1,0.4V29c0,0.4-0.1,0.5-0.5,0.5c-0.2,0-0.3,0-0.5,0c-0.3,0-0.5,0-0.8,0c-0.2,0-0.7,0-0.9,0.1
		C28,29.9,28,31,28,31.5c0,0.7,0,1.8,0.9,2c0.2,0,0.5,0,0.7,0c0.1,0,0.2,0,0.3,0V32h-0.7c-0.5,0-0.5-0.3-0.5-0.6s0.1-0.5,0.5-0.5
		h1.7c0.3,0,0.5,0.2,0.5,0.5V34C31.3,34.2,31.2,34.3,30.8,34.5z"/>
	<path class="st3" d="M35.2,34.7c-2.1,0-2.8-1.5-2.8-3.3s0.7-3.4,2.8-3.4c2.2,0,2.8,1.5,2.8,3.3C38,33.3,37.3,34.7,35.2,34.7z
		 M36.3,29.9c-0.2-0.4-0.6-0.5-1-0.5s-0.8,0.1-1,0.5s-0.2,1.1-0.2,1.6c0,0.4,0,1.1,0.2,1.6c0.2,0.4,0.6,0.5,1,0.5s0.8-0.1,1-0.5
		s0.2-1.1,0.2-1.6C36.5,30.9,36.5,30.2,36.3,29.9z"/>
	<path class="st3" d="M48.5,34.7h-2.6c-0.3,0-0.5-0.1-0.5-0.5v-5.4c0-0.4,0.2-0.5,0.5-0.5h0.4c0.3,0,0.5,0.1,0.5,0.5v4.7
		c0.6,0,1.1,0,1.8,0c0.5,0,0.5,0.4,0.5,0.7C49,34.5,48.8,34.7,48.5,34.7z"/>
</g>
<path class="st3" d="M44.2,34.7h-0.5c-0.3,0-0.4-0.1-0.5-0.4l-0.3-0.7c-0.7,0-1.5,0-2.3,0l-0.2,0.6c-0.1,0.3-0.2,0.5-0.6,0.5h-0.5
	c-0.3,0-0.6,0.1-0.5-0.4c0-0.1,0.1-0.2,0.1-0.3l2-5.2c0.2-0.5,0.4-0.5,0.9-0.5c0.4,0,0.5,0.1,0.7,0.5l2.1,5.3c0,0.1,0.1,0.2,0.1,0.3
	C44.6,34.6,44.4,34.7,44.2,34.7z M41.7,30.4L41,32.5h1.5L41.7,30.4z"/>
</svg>
