<?xml version="1.0" encoding="utf-8"?>
<!-- Generator: Adobe Illustrator 25.4.1, SVG Export Plug-In . SVG Version: 6.00 Build 0)  -->
<svg version="1.1" id="Capa_1" xmlns="http://www.w3.org/2000/svg" xmlns:xlink="http://www.w3.org/1999/xlink" x="0px" y="0px"
	 viewBox="0 0 27.5 26.4" style="enable-background:new 0 0 27.5 26.4;" xml:space="preserve">
<style type="text/css">
	.st0{fill:none;stroke:#00E9C5;stroke-linecap:round;stroke-miterlimit:10;}
	.st1{fill:none;stroke:#FF3737;stroke-width:0.55;stroke-miterlimit:10;}
	.st2{fill:none;stroke:#FF3737;stroke-width:0.5;stroke-miterlimit:10;}
	.st3{fill:none;stroke:#FF3737;stroke-width:0.75;stroke-linecap:round;stroke-miterlimit:10;}
	.st4{fill:none;stroke:#00E9C5;stroke-linecap:round;stroke-linejoin:round;stroke-miterlimit:10;}
</style>
<g id="Iconos">
	<path class="st0" d="M18.8,13.2l-2.3,1.9c-0.3,0.2-0.4,0.6-0.5,0.9v6.6"/>
	<path class="st0" d="M8.5,13.2c0,0,3.8,0.4,5.6-0.2c0.9-0.1,2.8-1.4,2.9-3.2l0.4-5.7c0-0.7,0.2-1.9,1.4-1.9l0,0
		c0.5-0.1,1.2,0.1,1.4,1c0,0.4,0,0.9,0,1v1.3"/>
	<path class="st0" d="M5.5,24.2v-5.9c0-0.3-0.1-0.6-0.4-0.7l-2.4-1.5c-0.3-0.2-0.5-0.5-0.5-0.9L2.1,8.7c0-0.7,0.1-1.6,0.8-1.8l0,0
		c0.5-0.2,2.3-0.6,2.5,0.7c0,0.1,0.1,1.5,0,2.6v1.6c0,0.7,0.6,1,1.2,1.1l1.9,0.3"/>
	<path class="st0" d="M24.6,21.3c-1.8-1.3-4-1.2-5.9,0.3c-2,1.4-4.4,2-6.8,1.6c-0.8-0.1-1.6-0.1-2.3,0c-1.8,0.2-3.6,1-5.1,2
		c-0.5,0.3-1,0.6-1.5,0.7c-2.3,0.2-2.5-1-2.5-1"/>
	<g id="Balón">
		<path class="st1" d="M22.6,5.3c2.5,0,4.6,2.1,4.6,4.6s-2.1,4.6-4.6,4.6S18,12.4,18,9.9S20.1,5.4,22.6,5.3z"/>
		<path class="st1" d="M19.4,6.7c0.4,0,0.8,0.2,1,0.5c0,0.1,0,0.1,0,0.2c-0.8,2,0,4.3,1.8,5.4c0.1,0,0.1,0.1,0.1,0.2
			c0,0.5-0.2,1-0.6,1.2c-0.1,0.1-0.1,0.2-0.2,0.1C19.4,12.6,18.1,9.3,19.4,6.7C19.5,6.7,19.3,6.7,19.4,6.7z"/>
		<path class="st2" d="M20.6,5.8c0,0,1.3,0.1,1.6,0.9"/>
		<path class="st2" d="M22.2,5.3c0.1,0.2,1,0.5,1.1,1"/>
		<path class="st2" d="M25.1,6c-1.6,0.3-3.2,0.8-4.7,1.3"/>
		<path class="st1" d="M26.6,7.7c0,0-1.8-0.8-6.4,1.7"/>
		<path class="st1" d="M20.5,11c0,0,4.2-0.4,6.5-1.8"/>
		<path class="st1" d="M27,11.2l-4.8,1.7l1.9-0.7c-0.1,0.8-0.2,1.5-0.8,2.2"/>
		<path class="st1" d="M25.4,11.8c0.2,1,0.1,1.9-0.3,1.9"/>
	</g>
	<line class="st3" x1="19.9" y1="19.3" x2="18.9" y2="15.2"/>
	<line class="st3" x1="22.6" y1="18.7" x2="21.4" y2="15.9"/>
	<line class="st3" x1="25.2" y1="0.4" x2="21.7" y2="2.6"/>
	<line class="st3" x1="25.9" y1="2.8" x2="23.1" y2="3.9"/>
</g>
<path class="st4" d="M11.2,11.7c-2,0-3.6-1.6-3.6-3.6s1.6-3.6,3.6-3.6s3.7,1.3,3.7,3.3"/>
<path class="st4" d="M14.9,8.1c0,2-1.7,3.6-3.7,3.6"/>
</svg>
