<?xml version="1.0" encoding="utf-8"?>
<!-- Generator: Adobe Illustrator 25.4.1, SVG Export Plug-In . SVG Version: 6.00 Build 0)  -->
<svg version="1.1" id="Capa_1" xmlns="http://www.w3.org/2000/svg" xmlns:xlink="http://www.w3.org/1999/xlink" x="0px" y="0px"
	 viewBox="0 0 104 70.8" style="enable-background:new 0 0 104 70.8;" xml:space="preserve">
<style type="text/css">
	.st0{fill:#00E9C5;}
	.st1{fill:none;stroke:#00E9C5;stroke-width:3;stroke-miterlimit:10;}
</style>
<path class="st0" d="M96.4,33.1L89.1,29c-0.5-0.3-1.3,0-1.8,0.5c0,0.3-0.3,0.5-0.3,0.5v4.4H75.6c-0.8,0-1.3,0.5-1.3,1.3l0,0v5.4
	c0,0.8,0.5,1.3,1.3,1.3l0,0H87v4.4c0,0.8,0.5,1.3,1.3,1.3c0.3,0,0.5,0,0.5-0.3l7.3-4.1l7.3-4.1c0.5-0.3,0.8-1,0.5-1.8
	c0-0.3-0.3-0.3-0.5-0.5L96.4,33.1z"/>
<g id="Iconos">
	<g id="Balón">
		<circle class="st1" cx="35.4" cy="35.4" r="33.9"/>
		<path class="st1" d="M12.2,12.3c2.1,0.3,5.8,1.1,7.2,3.6c0.2,0.5,0.2,1,0,1.5c-1.5,4.2-7.8,26.3,13.1,39.9
			c0.5,0.3,0.8,0.8,0.9,1.3c0.4,3.6-1.3,7.1-4.3,9c-0.7,0.5-1.6,0.5-2.3,0c-5.4-3.9-27.3-21.9-16.7-54
			C10.3,12.8,11.2,12.2,12.2,12.3z"/>
		<path class="st1" d="M22.6,3.9c0,0,12.2,1.9,14.3,7.6"/>
		<path class="st1" d="M40.8,1.9c2.7,0.9,5.1,4.1,5.8,6.9"/>
		<path class="st1" d="M54.2,7.2c0,0-11.3,1.7-34.4,9.6"/>
		<path class="st1" d="M64.7,18.3c0,0-12.6-3.6-46.3,15.2l-0.5,0.3"/>
		<path class="st1" d="M20.8,44.8c0,0,31.5-2.1,48.2-14"/>
		<path class="st1" d="M67.5,46.3L32.9,57.2l17.6-5.5c0,0,0,7.5-7.1,16.7"/>
		<path class="st1" d="M59.9,48.7c0,0,2,4.5-1.3,11.4"/>
	</g>
</g>
</svg>
