<?xml version="1.0" encoding="utf-8"?>
<!-- Generator: Adobe Illustrator 25.4.1, SVG Export Plug-In . SVG Version: 6.00 Build 0)  -->
<svg version="1.1" id="Capa_1" xmlns="http://www.w3.org/2000/svg" xmlns:xlink="http://www.w3.org/1999/xlink" x="0px" y="0px"
	 viewBox="0 0 42.2 22.6" style="enable-background:new 0 0 42.2 22.6;" xml:space="preserve">
<style type="text/css">
	.st0{fill:none;stroke:#FF3737;stroke-linecap:round;stroke-linejoin:round;stroke-miterlimit:10;}
	.st1{fill:none;stroke:#FF3737;stroke-width:0.4;stroke-miterlimit:10;}
	.st2{fill:none;stroke:#FF3737;stroke-width:0.4;stroke-linecap:round;stroke-miterlimit:10;}
</style>
<g>
	<circle class="st0" cx="10.4" cy="8.3" r="2.5"/>
	<line class="st0" x1="15.1" y1="18.4" x2="15.1" y2="20.7"/>
	<line class="st0" x1="15.1" y1="16.9" x2="15.1" y2="16.9"/>
	<path class="st0" d="M18.7,6.6c1.5-1.4,3.3,0.7,1.9,1.9l-5.5,5.7C15,14.3,15,14.5,15,14.6v0.9"/>
	<path class="st0" d="M7.5,20.1v-5c0-0.2-0.1-0.4-0.3-0.5l-2.9-1c-0.9-0.3-1.7-1-2.2-1.9L0.7,9.2C0.3,8.5,0.6,7.7,1.2,7.4l0,0
		C1.9,7,2.7,7.2,3,7.8l1.4,2.3c0.4,0.7,1,1.1,1.7,1.4l2.7,0.8c0.5,0.1,1,0.2,1.6,0.2l0,0c1.5,0,3-0.6,4.1-1.7l4.2-4.2"/>
</g>
<path class="st0" d="M2,20.7l0.4,0.5c0.5,0.4,1.8,1.4,2.8,0.5c1.7-1.4,2.8-1.2,3.6-0.6l0.5,0.4c1,0.7,1.9,0.4,3-0.2l0.6-0.3
	c1-0.7,2-0.6,3,0.2l0,0c1,0.8,2.3,0.8,3.4,0.1l0.4-0.3c1-0.7,1.9-1,2.9-0.2l0.6,0.5c1.1,0.7,2.3,0.8,3.2,0.1l0.7-0.4
	c1-0.7,1.8-0.9,2.7-0.2l0.7,0.5c1,0.7,2.3,0.8,3.3,0l0.7-0.5c1-0.7,1.9-0.4,2.9,0.4l0,0c1,0.8,1.5,0.8,2.6,0.1"/>
<circle class="st0" cx="31.8" cy="8.7" r="2.5"/>
<line class="st0" x1="27.2" y1="21" x2="27.1" y2="18.8"/>
<line class="st0" x1="27.1" y1="17.3" x2="27.1" y2="17.3"/>
<path class="st0" d="M27.2,15.9V15c0-0.1,0-0.2-0.1-0.3l-5.5-5.7C20.2,7.6,22,5.6,23.6,7"/>
<path class="st0" d="M23.6,7l4.2,4.2c1.1,1.1,2.6,1.7,4.1,1.7l0,0c0.6,0,1.1-0.1,1.6-0.2l2.7-0.8c0.7-0.3,1.3-0.7,1.7-1.4l1.4-2.3
	c0.3-0.6,1.1-0.8,1.8-0.4l0,0c0.6,0.3,0.9,1.1,0.5,1.8l-1.4,2.6c-0.5,0.9-1.3,1.6-2.2,1.9l-2.9,1c-0.2,0.1-0.3,0.2-0.3,0.5v5"/>
<g id="Iconos_00000084517755876693758160000006713361233512000384_">
	<g id="Balón_00000110431857364302054860000010094627142710823819_">
		<path class="st1" d="M20.9,0.2c1.7,0,3.1,1.4,3.1,3.1s-1.1,3.3-2.8,3.3s-3.3-1.7-3.3-3.4S19.2,0.2,20.9,0.2z"/>
		<path class="st1" d="M18.8,1.1c0.1,0,0.6,0.1,0.7,0.3v0.1c-0.1,0.4-0.3,2.6,1.1,3.7l0.1,0.1c0,0.3,0.1,0.7-0.1,1h-0.1
			c-0.3-0.4-2.4-2-1.7-5.1C18.7,1.2,18.8,1.1,18.8,1.1z"/>
		<path class="st1" d="M19.5,0.5c0,0,0.9,0.1,1,0.7"/>
		<path class="st1" d="M20.6,0.2c0.3,0.1,0.5,0.4,0.6,0.7"/>
		<path class="st2" d="M22.4,0.7c0,0-0.8,0.1-2.9,0.8"/>
		<path class="st2" d="M23.4,1.6c0,0-2.1,0.1-3.9,1.3"/>
		<path class="st1" d="M19.6,4c0,0,2.7-0.3,4.3-1.5"/>
		<path class="st1" d="M24.1,3.9l-3.3,1.2l1-0.3c0,0,0.4,0.9-0.2,1.8"/>
		<path class="st1" d="M22.6,4.5c0,0,0.4,1.2,0.1,1.8"/>
	</g>
</g>
</svg>
