<?xml version="1.0" encoding="utf-8"?>
<!-- Generator: Adobe Illustrator 25.4.1, SVG Export Plug-In . SVG Version: 6.00 Build 0)  -->
<svg version="1.1" id="Capa_1" xmlns="http://www.w3.org/2000/svg" xmlns:xlink="http://www.w3.org/1999/xlink" x="0px" y="0px"
	 viewBox="0 0 33 31.2" style="enable-background:new 0 0 33 31.2;" xml:space="preserve">
<style type="text/css">
	.st0{fill:#FF3737;stroke:#FF3737;stroke-width:0.25;stroke-miterlimit:10;}
</style>
<g id="Iconos">
	<path class="st0" d="M15.4,25.9c-3.3,1.1-6.8-0.7-7.9-4c-1.1-3.3,0.7-6.8,4-7.9s6.8,0.7,7.9,4l0.1,0.4l-0.1-0.3
		C20.4,21.4,18.6,24.8,15.4,25.9z M12,15.2c-2.6,0.8-4.1,3.6-3.3,6.2c0.8,2.6,3.6,4.1,6.2,3.3s4.1-3.6,3.3-6.2l0,0
		C17.4,15.9,14.6,14.4,12,15.2L12,15.2z"/>
	<path class="st0" d="M29.4,3.1l-3.3,1c-0.3,0.1-0.5,0.5-0.4,0.8s0.4,0.5,0.8,0.4l0,0l0,0l3.6-1.1l1.7,5.5l-9.1,4.6
		c-0.3,0.2-0.5,0.5-0.3,0.9l0,0l0,0c2.5,4.9,0.6,10.9-4.3,13.4S7.2,29.3,4.7,24.4S4.1,13.6,8.9,11c0.5-0.3,1.1-0.5,1.6-0.7L13,9.5
		l0.5,1.7c0.1,0.3,0.5,0.5,0.8,0.4l3.2-1c0.4-0.1,0.6-0.5,0.5-0.8l-0.1-0.2l-0.5-1.5L20.9,7c0.3-0.1,0.5-0.4,0.4-0.8l0,0
		c-0.1-0.3-0.4-0.6-0.8-0.5l0,0l-4.1,1.4c-0.3,0.1-0.5,0.5-0.4,0.8l0,0l0.5,1.7l-2,0.6L14,8.5c-0.1-0.3-0.5-0.5-0.8-0.4l-3.2,1
		c-2.2,0.7-4.1,2-5.5,3.8l-0.6-0.3C2.6,12,1,12.5,0.4,13.8c-0.6,1.2-0.1,2.7,1,3.4l0.8,0.4l0,0C1,23.7,5,29.7,11.1,30.9
		s12.1-2.8,13.3-8.9c0.4-1.8,0.3-3.6-0.3-5.4c-0.1-0.4-0.3-0.9-0.5-1.3l9-4.6c0.3-0.1,0.4-0.5,0.3-0.8l-2-6.6
		c-0.2-0.4-0.2-0.5-0.3-0.5c-0.2,0-0.3,0.1-0.4,0.1L29.4,3.1z M2.1,16.1c-0.6-0.3-0.9-1.1-0.6-1.7l0,0c0.3-0.6,1.1-0.9,1.8-0.6l0,0
		L3.7,14l-0.4,0.7c-0.3,0.5-0.5,1.1-0.7,1.7L2.1,16.1z"/>
	<path class="st0" d="M15.7,19.8c-0.5,0.1-0.7-0.1-0.8-0.4l0,0l0,0c-0.2-0.8-1.1-1.3-1.9-1.1c0,0-0.1,0-0.2,0.1
		c-0.3,0.1-0.6-0.2-0.7-0.5c-0.1-0.3,0.1-0.7,0.4-0.8l0,0c1.5-0.4,3.1,0.4,3.5,1.9l0,0C16.2,19.4,16.1,19.8,15.7,19.8
		C15.7,19.8,15.7,19.8,15.7,19.8L15.7,19.8z"/>
	<path class="st0" d="M13.6,3.9c-0.3,0.1-0.7-0.1-0.8-0.4l0,0L12,1c-0.1-0.4,0.1-0.7,0.5-0.8s0.7,0.1,0.8,0.5l0.8,2.5
		C14.2,3.4,14,3.8,13.6,3.9z"/>
	<path class="st0" d="M10.5,6.4c-0.2,0-0.3,0-0.5-0.1L7.8,5.2C7.5,5,7.4,4.6,7.5,4.3C7.7,4,8.1,3.9,8.4,4l0,0l2.3,1.2
		C11,5.4,11.1,5.6,11,6C10.9,6.2,10.7,6.4,10.5,6.4L10.5,6.4z"/>
	<path class="st0" d="M17.7,4.3c-0.3,0.1-0.7-0.1-0.8-0.4l0,0c-0.1-0.2-0.1-0.3,0-0.5l1.2-2.3c0.2-0.3,0.6-0.4,0.9-0.2
		c0.2,0.2,0.3,0.5,0.2,0.7l0,0l-1.1,2.2C18,4,17.8,4.2,17.7,4.3z"/>
	<path class="st0" d="M23.7,6.3c-0.3,0.1-0.7-0.1-0.8-0.4l0,0c-0.1-0.3,0.1-0.7,0.4-0.8s0.7,0.1,0.8,0.4c0.1,0.2,0.1,0.3,0,0.5
		S23.8,6.3,23.7,6.3z"/>
</g>
</svg>
