<?xml version="1.0" encoding="utf-8"?>
<!-- Generator: Adobe Illustrator 25.0.0, SVG Export Plug-In . SVG Version: 6.00 Build 0)  -->
<svg version="1.1" id="Capa_1" xmlns="http://www.w3.org/2000/svg" xmlns:xlink="http://www.w3.org/1999/xlink" x="0px" y="0px"
	 viewBox="0 0 50 50" style="enable-background:new 0 0 50 50;" xml:space="preserve">
<style type="text/css">
	.st0{fill:#FF3737;}
</style>
<g id="Iconos">
	<path class="st0" d="M23.6,35.8c-3.3,1.1-6.8-0.7-7.9-4c-1.1-3.3,0.7-6.8,4-7.9c3.3-1.1,6.8,0.7,7.9,4c0,0,0,0.1,0,0.1l0,0
		C28.6,31.3,26.8,34.7,23.6,35.8z M20.2,25.1c-2.6,0.8-4.1,3.6-3.3,6.2c0.8,2.6,3.6,4.1,6.2,3.3s4.1-3.6,3.3-6.2c0,0,0,0,0,0
		C25.6,25.8,22.8,24.3,20.2,25.1C20.2,25.1,20.2,25.1,20.2,25.1z"/>
	<path class="st0" d="M38.5,12.8l-4.2,1.3c-0.3,0.1-0.5,0.5-0.4,0.8c0.1,0.3,0.4,0.5,0.8,0.4c0,0,0,0,0,0l0,0l3.6-1.1l1.7,5.5
		l-9.1,4.6c-0.3,0.2-0.5,0.5-0.3,0.9c0,0,0,0,0,0l0,0c2.5,4.9,0.6,10.9-4.3,13.4c-4.9,2.5-10.9,0.6-13.4-4.3
		c-2.5-4.9-0.6-10.8,4.2-13.4c0.5-0.3,1.1-0.5,1.6-0.7l2.5-0.8l0.5,1.7c0.1,0.3,0.5,0.5,0.8,0.4l3.2-1c0.4-0.1,0.6-0.5,0.5-0.8
		c0,0,0-0.1,0-0.1l-0.6-1.6l3.5-1.1c0.3-0.1,0.5-0.4,0.4-0.8c0,0,0,0,0,0c-0.1-0.3-0.4-0.6-0.8-0.5l0,0L24.6,17
		c-0.3,0.1-0.5,0.5-0.4,0.8l0,0l0.5,1.7l-2,0.6l-0.5-1.7c-0.1-0.3-0.5-0.5-0.8-0.4l-3.2,1c-2.2,0.7-4.1,2-5.5,3.8l-0.6-0.3
		c-1.3-0.6-2.9-0.1-3.5,1.2c-0.6,1.2-0.1,2.7,1,3.4l0.8,0.4l0,0c-1.2,6.1,2.8,12.1,8.9,13.3c6.1,1.2,12.1-2.8,13.3-8.9
		c0.4-1.8,0.3-3.6-0.3-5.4c-0.1-0.4-0.3-0.9-0.5-1.3l9-4.6c0.3-0.1,0.4-0.5,0.3-0.8l-2-6.6C39.3,12.8,38.9,12.6,38.5,12.8
		C38.6,12.7,38.6,12.7,38.5,12.8L38.5,12.8z M10.3,26c-0.6-0.3-0.9-1.1-0.6-1.7c0,0,0,0,0,0c0.3-0.6,1.1-0.9,1.8-0.6c0,0,0,0,0,0
		l0.4,0.2l-0.4,0.7c-0.3,0.5-0.5,1.1-0.7,1.7L10.3,26z"/>
	<path class="st0" d="M23.9,29.7c-0.3,0.1-0.7-0.1-0.8-0.4c0,0,0,0,0,0l0,0c-0.2-0.8-1.1-1.3-1.9-1.1c0,0,0,0-0.1,0
		c-0.3,0.1-0.7-0.1-0.8-0.4c-0.1-0.3,0.1-0.7,0.4-0.8c0,0,0,0,0,0c1.5-0.4,3.1,0.4,3.5,1.9c0,0,0,0.1,0,0.1
		C24.4,29.4,24.3,29.7,23.9,29.7C23.9,29.8,23.9,29.8,23.9,29.7L23.9,29.7z"/>
	<path class="st0" d="M21.8,13.8c-0.3,0.1-0.7-0.1-0.8-0.4c0,0,0,0,0,0l-0.8-2.5c-0.1-0.4,0.1-0.7,0.5-0.8c0.4-0.1,0.7,0.1,0.8,0.5
		l0.8,2.5C22.4,13.3,22.2,13.7,21.8,13.8z"/>
	<path class="st0" d="M18.7,16.3c-0.2,0.1-0.3,0.1-0.5,0L16,15.1c-0.3-0.2-0.4-0.6-0.3-0.9c0.2-0.3,0.6-0.4,0.9-0.3c0,0,0,0,0,0
		l2.3,1.2c0.3,0.2,0.4,0.5,0.3,0.9C19.1,16.2,18.9,16.3,18.7,16.3L18.7,16.3z"/>
	<path class="st0" d="M25.9,14.2c-0.3,0.1-0.7-0.1-0.8-0.4c0,0,0,0,0,0c-0.1-0.2-0.1-0.3,0-0.5l1.2-2.3c0.2-0.3,0.6-0.4,0.9-0.2
		c0.2,0.2,0.3,0.5,0.2,0.7l0,0l-1.2,2.2C26.2,13.9,26,14.1,25.9,14.2z"/>
	<path class="st0" d="M31.9,16.2c-0.3,0.1-0.7-0.1-0.8-0.4c0,0,0,0,0,0c-0.1-0.3,0.1-0.7,0.4-0.8c0.3-0.1,0.7,0.1,0.8,0.4
		c0.1,0.2,0.1,0.3,0,0.5C32.2,16.1,32,16.2,31.9,16.2z"/>
</g>
</svg>
