<?xml version="1.0" encoding="utf-8"?>
<!-- Generator: Adobe Illustrator 25.4.1, SVG Export Plug-In . SVG Version: 6.00 Build 0)  -->
<svg version="1.1" id="Capa_1" xmlns="http://www.w3.org/2000/svg" xmlns:xlink="http://www.w3.org/1999/xlink" x="0px" y="0px"
	 viewBox="0 0 20 20.3" style="enable-background:new 0 0 20 20.3;" xml:space="preserve">
<style type="text/css">
	.st0{fill:none;stroke:#FF3737;stroke-linecap:round;stroke-miterlimit:10;}
	.st1{fill:none;stroke:#FF3737;stroke-width:0.75;stroke-linecap:round;stroke-miterlimit:10;}
	.st2{fill:none;stroke:#FF3737;stroke-width:0.75;stroke-miterlimit:10;}
</style>
<g id="Iconos">
	<circle class="st0" cx="10.3" cy="4.4" r="3.3"/>
	<path class="st0" d="M15.9,19.1l0.1-6.3c0-0.3,0.1-0.6,0.4-0.8l2.4-2.1c0.3-0.3,0.7-0.8,0.7-1.2l0-6.4c0-0.6-0.5-1.2-1.1-1.2l0,0
		h-1c-0.6,0-1.2,0.5-1.2,1.1l-0.1,4.6c0,0.3-0.2,0.6-0.4,0.7L13,9.2c-0.2,0.1-0.4,0.2-0.7,0.2h-4C8,9.4,7.7,9.3,7.5,9.2L4.6,7.8
		C4.2,7.6,4,7.2,4,6.8V1.6C4,1,3.5,0.5,2.9,0.5H1.8C1.1,0.5,0.6,1,0.5,1.7v6.8c0,0.6,0.3,1.1,0.7,1.4l3.7,2.4
		c0.3,0.2,0.4,0.5,0.4,0.8v6.1"/>
	<path class="st0" d="M19.5,19c0,0-1.4,1.2-2.7,0.7c-1.7-0.5-3.4-1.4-5.4-1.2c-0.8,0.1-1.6,0.2-2.3,0.5c-2.9,1.1-4.3,0.7-6,0.2
		c-1.9-0.5-2.6,0.7-2.6,0.7"/>
</g>
<line class="st1" x1="9.3" y1="14.1" x2="11.9" y2="14.2"/>
<ellipse class="st2" cx="10.6" cy="14.2" rx="2.5" ry="2.5"/>
</svg>
