<?xml version="1.0" encoding="utf-8"?>
<!-- Generator: Adobe Illustrator 25.4.1, SVG Export Plug-In . SVG Version: 6.00 Build 0)  -->
<svg version="1.1" id="Capa_1" xmlns="http://www.w3.org/2000/svg" xmlns:xlink="http://www.w3.org/1999/xlink" x="0px" y="0px"
	 viewBox="0 0 27.7 24.7" style="enable-background:new 0 0 27.7 24.7;" xml:space="preserve">
<style type="text/css">
	.st0{fill:none;stroke:#FF3737;stroke-linecap:round;stroke-miterlimit:10;}
	.st1{enable-background:new    ;}
	.st2{fill:#FF3737;}
</style>
<g id="Iconos">
	<circle class="st0" cx="14.1" cy="4.4" r="3.3"/>
	<path class="st0" d="M20,19.1l0.1-6.3c0-0.3,0.1-0.6,0.4-0.8l2.4-2.1c0.3-0.3,0.5-0.6,0.5-1l0.2-6.6c0-0.6-0.5-1.2-1.1-1.2l0,0h-1
		c-0.6,0-1.2,0.5-1.2,1.1l-0.1,4.6c0,0.3-0.2,0.6-0.4,0.7l-2.7,1.7c-0.2,0.1-0.4,0.2-0.7,0.2h-4c-0.3,0-0.6-0.1-0.8-0.2L8.7,7.8
		c-0.4-0.2-0.6-0.6-0.6-1V1.6C8.1,1,7.6,0.5,7,0.5H5.9C5.2,0.5,4.7,1,4.6,1.7v6.8c0,0.6,0.3,1.1,0.7,1.4L9,12.3
		c0.3,0.2,0.4,0.5,0.4,0.8v6.1"/>
	<path class="st0" d="M27.2,19.3c0,0-2.1,2.9-6,0.5c-1.7-1-3.7-1.5-5.7-1.3c-0.8,0.1-1.6,0.2-2.3,0.5c-2.9,1.1-5.2,0.2-6.9-0.8
		c-3.1-1.9-5.8,1.6-5.8,1.6"/>
	<line class="st0" x1="13.1" y1="23.1" x2="27.2" y2="23.2"/>
	<g class="st1">
		<path class="st2" d="M6.2,24.7H3.9c-0.4,0-0.3-0.3-0.3-0.6c0-0.3,0.2-0.5,0.4-0.6l0.6-0.6c0.2-0.2,0.3-0.3,0.5-0.5
			c0.2-0.2,0.5-0.6,0.5-0.9c0-0.3-0.1-0.4-0.4-0.4c-0.2,0-0.4,0-0.6,0.1c-0.1,0-0.3,0.1-0.4,0.1c-0.3,0-0.3-0.3-0.3-0.5
			c0,0,0,0,0-0.1c0-0.2,0.2-0.3,0.3-0.3c0.3,0,0.7-0.1,1-0.1c0.8,0,1.4,0.3,1.4,1.1c0,1.1-1,1.8-1.7,2.5c0.5,0,0.9,0,1.4,0
			c0.4,0,0.4,0.3,0.4,0.5C6.6,24.6,6.4,24.7,6.2,24.7z"/>
		<path class="st2" d="M11.1,24.7c-0.3,0-0.4-0.1-0.4-0.4v-1.6c0-0.1,0-0.5-0.1-0.5c-0.2,0-0.4,0.2-0.6,0.3v1.8
			c0,0.4-0.3,0.4-0.6,0.4c-0.3,0-0.4-0.1-0.4-0.4v-1.6c0-0.1,0-0.5-0.1-0.5c-0.2,0-0.4,0.2-0.6,0.3v1.8c0,0.4-0.3,0.4-0.6,0.4
			c-0.3,0-0.4-0.1-0.4-0.4V22c0-0.4,0.4-0.3,0.7-0.3c0.1,0,0.2,0.1,0.3,0.2c0.3-0.1,0.6-0.2,0.9-0.2c0.3,0,0.5,0.1,0.7,0.3
			c0.3-0.2,0.6-0.3,1-0.3c0.6,0,0.8,0.4,0.8,1v1.9C11.7,24.8,11.4,24.7,11.1,24.7z"/>
	</g>
</g>
<line class="st0" x1="0.5" y1="23.1" x2="2.6" y2="23.1"/>
</svg>
