<?xml version="1.0" encoding="utf-8"?>
<!-- Generator: Adobe Illustrator 25.4.1, SVG Export Plug-In . SVG Version: 6.00 Build 0)  -->
<svg version="1.1" id="Capa_1" xmlns="http://www.w3.org/2000/svg" xmlns:xlink="http://www.w3.org/1999/xlink" x="0px" y="0px"
	 viewBox="0 0 33.8 27.9" style="enable-background:new 0 0 33.8 27.9;" xml:space="preserve">
<style type="text/css">
	.st0{fill:none;stroke:#00E9C5;stroke-width:0.75;stroke-miterlimit:10;}
	.st1{fill:none;stroke:#00E9C5;stroke-width:0.75;stroke-linecap:round;stroke-miterlimit:10;}
	.st2{fill:none;stroke:#00E9C5;stroke-width:0.5;stroke-miterlimit:10;}
</style>
<g id="Capa_2_00000051385075196705985000000010097527088209625247_">
	<path class="st0" d="M0.4,21V2.4c0-1.1,0.9-2,2-2h29.1c1.1,0,2,0.9,2,2V21"/>
	<path class="st0" d="M32,18.4V4.2c0-1-0.9-1.9-1.9-1.9H4c-1,0-1.9,0.9-1.9,1.9v14.1c2.4-1.4,7.8-4.3,15-4.3
		C24.4,14,29.6,17,32,18.4z"/>
</g>
<g id="Capa_3">
	<path class="st1" d="M0.4,21V2.4c0-1.1,0.9-2,2-2h29.1c1.1,0,2,0.9,2,2V21"/>
	<path class="st0" d="M32,18.4V4.2c0-1-0.9-1.9-1.9-1.9h-3.2h-3.2h-3.2h-3.4h-3.4h-3.6h-3H3.9C2.9,2.3,2,3.2,2,4.2v3.2v3.2v3.5v4.3
		c2.4-1.4,7.8-4.3,15-4.3C24.4,14,29.6,17,32,18.4z"/>
	<line class="st0" x1="6.3" y1="2.4" x2="6.2" y2="16"/>
	<line class="st0" x1="10.1" y1="2.4" x2="10.2" y2="15.1"/>
	<line class="st0" x1="13.7" y1="2.4" x2="13.7" y2="14.3"/>
	<line class="st0" x1="17.1" y1="2.4" x2="17.1" y2="14.1"/>
	<line class="st0" x1="20.5" y1="2.4" x2="20.5" y2="14.3"/>
	<line class="st0" x1="24.5" y1="2.4" x2="24.4" y2="14.9"/>
	<line class="st0" x1="27.8" y1="2.4" x2="27.8" y2="15.9"/>
	<path class="st0" d="M32,14.1c-2.6-1.4-7.6-3-14.7-3.1c-7,0-12.7,1.7-15.3,3"/>
	<path class="st0" d="M32.1,11c-2.6-1.4-7.9-2.9-15-3c-7,0-12.4,1.6-15,2.9"/>
	<path class="st0" d="M32.3,7.8c-2.6-1.4-7.9-2.7-15-2.8c-7,0-12.4,1.4-15,2.7"/>
</g>
<path class="st2" d="M18.4,21"/>
<path class="st1" d="M10.6,27.5l1.3-0.9c0.6-0.4,1.4-0.4,2,0.1l0.2,0.1c0.5,0.5,1.3,0.5,2,0.1l0.3-0.2c0.6-0.4,1.4-0.4,2,0.1l0,0
	c0.6,0.5,1.4,0.5,2,0l0.1-0.1c0.6-0.5,1.5-0.6,2,0l0.7,0.7"/>
<g id="Iconos_00000121984860612365309180000015312955588189450157_">
	<g id="Balón_00000183244951227588420960000012702698261820600239_">
		<path class="st2" d="M13.1,18.8c0.9-1.2,2.3-1.7,3.9-1.7c2.6,0,4.7,1.9,4.6,4.5c0,2.6-2.2,4.7-4.8,4.6c-0.5,0-1-0.1-1.4-0.2"/>
		<path class="st2" d="M15.5,26c-1.9-0.6-3.2-2.4-3.2-4.5c0-1,0.3-1.9,0.8-2.6"/>
		<path class="st2" d="M13.8,18.2c0.3,0,0.8,0.2,1,0.5c0,0.1,0,0.1,0,0.2c-0.2,0.6-1.1,3.6,1.7,5.6c0.1,0,0.1,0.1,0.1,0.2
			c0,0.5-0.1,0.8-0.5,1.1c-0.1,0.1-4.1-2.9-2.6-7.4C13.6,18.3,13.7,18.2,13.8,18.2z"/>
		<path class="st2" d="M14.9,17.4c0.1,0,1.2,0.3,1.3,1"/>
		<path class="st2" d="M16.4,17.1c0.7,0.1,1.3,0.7,1.3,1.1"/>
		<path class="st2" d="M20,18.1c0,0-1.8-0.3-5.1,0.8"/>
		<path class="st2" d="M21.1,19.5c0,0-3.4-0.4-6.5,1.7l-0.1,0"/>
		<path class="st2" d="M14.9,22.8c0,0,4.4-0.2,6.7-1.8"/>
		<path class="st2" d="M21.4,23.1l-4.8,1.4l2.5-0.7c0,0,0,1.1-1,2.3"/>
		<path class="st2" d="M19.8,18"/>
		<path class="st2" d="M18.2,17.8"/>
	</g>
</g>
<path class="st0" d="M15.2,25.6"/>
</svg>
