<?xml version="1.0" encoding="utf-8"?>
<!-- Generator: Adobe Illustrator 25.4.1, SVG Export Plug-In . SVG Version: 6.00 Build 0)  -->
<svg version="1.1" id="Capa_1" xmlns="http://www.w3.org/2000/svg" xmlns:xlink="http://www.w3.org/1999/xlink" x="0px" y="0px"
	 viewBox="0 0 50 50" style="enable-background:new 0 0 50 50;" xml:space="preserve">
<style type="text/css">
	.st0{fill:none;stroke:#00E9C5;stroke-width:2;stroke-linecap:square;stroke-miterlimit:10;}
	.st1{fill:none;stroke:#00E9C5;stroke-linecap:round;stroke-miterlimit:10;}
	.st2{fill:none;stroke:#00E9C5;stroke-linecap:round;stroke-linejoin:round;stroke-miterlimit:10;}
	.st3{fill:#FFFFFF;stroke:#00E9C5;stroke-width:0.2789;stroke-linecap:round;stroke-miterlimit:10;}
	.st4{fill:none;stroke:#00E9C5;stroke-width:0.2789;stroke-linecap:round;stroke-miterlimit:10;}
</style>
<g id="Iconos">
	<path id="Portería_00000139281706254998803240000007812182106713661585_" class="st0" d="M46.8,38.9"/>
	<path id="Portería_00000124847952916763286510000016172011883377321367_" class="st0" d="M46.8,13.7"/>
	<path id="Portería_00000183225983774121352030000010467396696529084084_" class="st0" d="M3.2,13.7"/>
	<path id="Portería_00000157295949880181122110000017479149008061708937_" class="st0" d="M3.2,38.9"/>
	<circle class="st1" cx="25.4" cy="18.6" r="4.9"/>
	<path class="st1" d="M5.3,41.3c0,0,4.1-4.1,8.7-1.4c3.5,2.1,8,0.9,10,0.2c1.1-0.4,2.3-0.6,3.4-0.7c2.9-0.2,5.8,0.4,8.4,1.9
		c5.8,3.6,8.8-0.8,8.8-0.8"/>
</g>
<path class="st2" d="M32,39.7v-9.8l5.4-3.9c1-0.7,1.6-1.9,1.6-3.1v-7.6c0-1.4-1.1-2.5-2.5-2.5h0c-1.4,0-2.5,1.1-2.5,2.5V23l-1.2,0.8
	c-2.2,1.4-4.7,2.2-7.3,2.2h0c-2.6,0-5.2-0.8-7.3-2.2L16.9,23v-7.6c0-1.4-1.1-2.5-2.5-2.5h0c-1.4,0-2.5,1.1-2.5,2.5v7.6
	c0,1.2,0.6,2.4,1.6,3.1l5.4,3.9V41"/>
<g id="Iconos_00000081648454471392247830000018394686975358410910_">
	<g id="Balón">
		<circle class="st3" cx="37.8" cy="11.5" r="4.7"/>
		<path class="st4" d="M34.6,8.3c0.3,0,0.8,0.1,1,0.5c0,0.1,0,0.1,0,0.2c-0.2,0.6-1.1,3.6,1.8,5.5c0.1,0,0.1,0.1,0.1,0.2
			c0,0.5-0.2,1-0.6,1.2c-0.1,0.1-0.2,0.1-0.3,0c-0.7-0.5-3.8-3-2.3-7.5C34.3,8.4,34.4,8.3,34.6,8.3z"/>
		<path class="st4" d="M36,7.2c0,0,1.7,0.2,2,1"/>
		<path class="st4" d="M38.5,6.9c0.4,0.1,0.6,0.4,0.7,0.8"/>
		<path class="st4" d="M40.4,7.6c0,0-1.6,0.2-4.8,1.3"/>
		<path class="st4" d="M41.8,9.1c0,0-1.7-0.5-6.4,2.1l-0.1,0"/>
		<path class="st4" d="M35.8,12.8c0,0,4.4-0.3,6.6-1.9"/>
		<path class="st4" d="M42.2,13l-4.8,1.5l2.4-0.8c0,0,0,1-1,2.3"/>
		<path class="st4" d="M41.2,13.3c0,0,0.3,0.6-0.2,1.6"/>
	</g>
</g>
</svg>
