<?xml version="1.0" encoding="utf-8"?>
<!-- Generator: Adobe Illustrator 25.4.1, SVG Export Plug-In . SVG Version: 6.00 Build 0)  -->
<svg version="1.1" id="Capa_1" xmlns="http://www.w3.org/2000/svg" xmlns:xlink="http://www.w3.org/1999/xlink" x="0px" y="0px"
	 viewBox="0 0 38.3 30.8" style="enable-background:new 0 0 38.3 30.8;" xml:space="preserve">
<style type="text/css">
	.st0{fill:#00E9C5;}
	.st1{fill:none;stroke:#00E9C5;stroke-linecap:round;stroke-linejoin:round;stroke-miterlimit:10;}
	.st2{fill:none;stroke:#00E9C5;stroke-linecap:round;stroke-miterlimit:10;}
	.st3{fill:none;stroke:#00E9C5;stroke-width:0.35;stroke-miterlimit:10;}
</style>
<g id="Iconos">
	<path class="st0" d="M6.8,15.1l-1.7-1c-0.1-0.1-0.3,0-0.4,0.1v0.1v1H0.3c-0.2,0-0.3,0.1-0.3,0.3l0,0v1.3c0,0.2,0.1,0.3,0.3,0.3l0,0
		h4.4v1c0,0.2,0.1,0.3,0.3,0.3h0.1l1.7-1l1.7-1c0.1-0.1,0.2-0.3,0.1-0.4L8.5,16L6.8,15.1z"/>
	<path class="st0" d="M9.8,22.3l-1.9,0.5c-0.2,0-0.2,0.2-0.2,0.4c0,0,0,0.1,0.1,0.1L8.5,24l-3.1,3.1c-0.1,0.1-0.1,0.3,0,0.4l0,0
		l0.9,0.9c0.1,0.1,0.3,0.1,0.4,0l0,0l3.1-3.1l0.7,0.7c0.1,0.1,0.3,0.1,0.4,0l0.1-0.1l0.5-1.9l0.5-1.9c0-0.2-0.1-0.3-0.2-0.4h-0.1
		L9.8,22.3z"/>
	<path class="st0" d="M19.4,24l-1,1.7c-0.1,0.1,0,0.3,0.1,0.4h0.1h1v4.4c0,0.2,0.1,0.3,0.3,0.3l0,0h1.3c0.2,0,0.3-0.1,0.3-0.3l0,0
		v-4.4h1c0.2,0,0.3-0.1,0.3-0.3v-0.1l-1-1.7l-1-1.7c-0.2-0.1-0.3-0.2-0.5-0.1l-0.1,0.1L19.4,24z"/>
	<path class="st0" d="M26.9,23.9l0.5,1.9c0,0.2,0.2,0.2,0.4,0.2c0,0,0.1,0,0.1-0.1l0.7-0.7l3.1,3.1c0.1,0.1,0.3,0.1,0.4,0l0,0
		l0.9-0.9c0.1-0.1,0.1-0.3,0-0.4l0,0l-3.1-3.1l0.7-0.7c0.1-0.1,0.1-0.3,0-0.4l-0.1-0.1l-1.9-0.5l-1.9-0.5c-0.2,0-0.3,0.1-0.4,0.2V22
		L26.9,23.9z"/>
	<path class="st0" d="M31.5,18.2l1.7,1c0.1,0.1,0.3,0,0.4-0.1V19v-1H38c0.2,0,0.3-0.1,0.3-0.3l0,0v-1.3c0-0.2-0.1-0.3-0.3-0.3l0,0
		h-4.4v-1c0-0.2-0.1-0.3-0.3-0.3h-0.1l-1.7,1l-1.7,1c-0.1,0.1-0.2,0.3-0.1,0.4l0.1,0.1L31.5,18.2z"/>
	<path class="st0" d="M28.9,8.1l1.9-0.5C31,7.6,31,7.4,31,7.2c0,0,0-0.1-0.1-0.1l-0.7-0.7l3.1-3.1c0.1-0.1,0.1-0.3,0-0.4l0,0L32.4,2
		c-0.1-0.1-0.3-0.1-0.4,0l0,0l-3.1,3.1l-0.7-0.7c-0.1-0.1-0.3-0.1-0.4,0l-0.1,0.1l-0.5,1.9l-0.5,1.9c0,0.2,0.1,0.3,0.2,0.4H27
		L28.9,8.1z"/>
	<path class="st0" d="M21.7,6.8l1-1.7c0.1-0.1,0-0.3-0.1-0.4h-0.1h-1V0.3c0-0.2-0.1-0.3-0.3-0.3l0,0h-1.3c-0.2,0-0.3,0.1-0.3,0.3
		l0,0v4.4h-1c-0.2,0-0.3,0.1-0.3,0.3v0.1l1,1.7l1,1.7c0.1,0.1,0.3,0.2,0.4,0.1l0.1-0.1L21.7,6.8z"/>
	<path class="st0" d="M11.4,6.5l-0.5-1.9c0-0.2-0.2-0.2-0.4-0.2c0,0-0.1,0-0.1,0.1L9.7,5.2L6.6,2.1C6.5,2,6.3,2,6.2,2.1l0,0L5.3,3
		c-0.1,0.1-0.1,0.3,0,0.4l0,0l3.1,3.1L7.7,7.2c-0.1,0.1-0.1,0.3,0,0.4l0.1,0.1l1.9,0.5l1.9,0.5c0.2,0,0.3-0.1,0.4-0.2V8.4L11.4,6.5z
		"/>
</g>
<circle class="st1" cx="16.1" cy="10.6" r="2.4"/>
<path class="st2" d="M18.6,19.5c0,0,0.9,1.8,2.6,0.3c0.7-0.6,1.6-0.9,2.4-0.8c0.3,0,0.7,0.1,1,0.3c0.6,0.3,1.9,0.8,2.9-0.1
	c1.3-1.1,2.5,0.6,2.5,0.6"/>
<path class="st1" d="M27.7,18.5L23,13.2l2-0.8l2.9,1.4c0.6,0.3,1.2,0.1,1.6-0.4l0,0c0.4-0.6,0.1-1.5-0.5-1.8l-3.2-1.4
	c-0.5-0.2-1-0.3-1.5-0.1l-3.6,1.1c-0.9,0.3-1.7,0.8-2.4,1.5l-2.5,2.6l-4-0.1c-0.7,0-1.3,0.5-1.3,1.2l0,0c-0.1,0.8,0.5,1.4,1.3,1.4
	l4.2,0.1c0.6,0,1.2-0.2,1.7-0.7l0.8-0.8l2.8,3.1"/>
<g id="Iconos_00000068658191279610778910000015027135436721007539_">
	<g id="Balón">
		<circle class="st3" cx="16.1" cy="20.9" r="2.6"/>
		<path class="st3" d="M14.4,19.2c0.2,0,0.4,0.1,0.5,0.3c0,0,0,0.1,0,0.1c-0.1,0.3-0.3,1.9,1,3c0,0,0.1,0.1,0.1,0.1
			c0,0.3-0.1,0.5-0.3,0.7c0,0-0.1,0-0.2,0c-0.3-0.4-1.8-1.7-1.3-4.1C14.2,19.2,14.3,19.2,14.4,19.2z"/>
		<path class="st3" d="M14.9,18.7c0,0,0.7,0.1,0.9,0.5"/>
		<path class="st3" d="M15.9,18.4c0.2,0.1,0.6,0.3,0.6,0.5"/>
		<path class="st3" d="M17.5,18.8c0,0-0.9,0.1-2.6,0.7"/>
		<path class="st3" d="M18.3,19.6c0,0-1-0.3-3.5,1.1l0,0"/>
		<path class="st3" d="M15.1,21.6c0,0,2.2-0.1,3.5-1"/>
		<path class="st3" d="M18.5,21.7l-2.6,0.8l1.1-0.3c0,0,0.1,0.5-0.4,1.2"/>
		<path class="st3" d="M17.8,22c0,0,0.1,0.4-0.2,0.9"/>
	</g>
</g>
</svg>
