<?xml version="1.0" encoding="utf-8"?>
<!-- Generator: Adobe Illustrator 25.4.1, SVG Export Plug-In . SVG Version: 6.00 Build 0)  -->
<svg version="1.1" id="Capa_1" xmlns="http://www.w3.org/2000/svg" xmlns:xlink="http://www.w3.org/1999/xlink" x="0px" y="0px"
	 viewBox="0 0 22.7 27.1" style="enable-background:new 0 0 22.7 27.1;" xml:space="preserve">
<style type="text/css">
	.st0{fill:none;stroke:#00E9C5;stroke-linecap:round;stroke-miterlimit:10;}
	.st1{fill:none;stroke:#00E9C5;stroke-linecap:square;stroke-linejoin:round;stroke-miterlimit:10;}
	.st2{fill:none;stroke:#00E9C5;stroke-width:0.2789;stroke-linecap:round;stroke-miterlimit:10;}
	.st3{enable-background:new    ;}
	.st4{fill:#00E9C5;}
	.st5{fill:none;stroke:#00E9C5;stroke-width:0.4;stroke-miterlimit:10;}
</style>
<g id="Iconos">
	<circle class="st0" cx="11.2" cy="7.2" r="3"/>
	<path class="st0" d="M0.5,20.5c0,0,0.8-1.8,3.7-0.2c2.1,1.3,4.9,0.5,6.1,0.1c0.7-0.2,1.4-0.4,2.1-0.4c1.5-0.1,3,0.2,4.4,0.8
		c0.8,0.4,1.6,0.5,2.4,0.4c2.1-0.2,3-1.4,3-1.4"/>
</g>
<path class="st1" d="M16.5,6.4l-0.1,2.6c0,0.4-0.2,0.8-0.5,1.1l-0.1,0.1c-0.1,0.1-0.2,0.2-0.4,0.3c-1.3,1-2.7,1.5-4.2,1.5l0,0
	c-1.6,0-3.2-0.6-4.5-1.4L5.9,9.9V5.2c0-0.9-0.7-1.6-1.6-1.6l0,0c-0.9,0-1.6,0.7-1.6,1.6v4.7c0,0.7,0.4,1.5,1,1.9l3.1,2.3
	C7,14.2,7,14.3,7,14.4V21"/>
<path class="st1" d="M15.2,20.1v-5.7c0-0.2,0.1-0.3,0.2-0.4l3.1-2.2c0.6-0.4,1-1.1,1-1.9V7.1"/>
<g id="Iconos_00000081648454471392247830000018394686975358410910_">
	<g id="Balón">
		<path class="st2" d="M19.1,6.6"/>
		<path class="st2" d="M20.5,6.6"/>
	</g>
</g>
<g class="st3">
	<path class="st4" d="M8.1,27.1c-1.3,0-1.5-1-1.5-2.1s0.3-2.1,1.5-2.1s1.5,1,1.5,2.1S9.4,27.1,8.1,27.1z M8.6,23.9
		c-0.1-0.2-0.3-0.2-0.5-0.2c-0.2,0-0.4,0-0.5,0.2S7.5,24.7,7.5,25c0,0.3,0,0.8,0.1,1.1c0.1,0.2,0.3,0.2,0.5,0.2c0.2,0,0.4,0,0.5-0.2
		c0.1-0.3,0.1-0.8,0.1-1.1C8.7,24.7,8.7,24.2,8.6,23.9z"/>
</g>
<g class="st3">
	<path class="st4" d="M19.6,24.4c-0.1,0.2-0.2,0.3-0.3,0.3c-0.1,0-0.4-0.1-0.5-0.3c-0.1-0.1,0.1-0.4,0.1-0.6l0.3-0.7
		c0.1-0.2,0.2-0.3,0.6-0.3l0,0c0.1,0,0.3,0.1,0.3,0.3C20.1,23.3,19.7,24.2,19.6,24.4z"/>
</g>
<g id="Iconos_00000017484027156199532800000012528609287975629717_">
	<g id="Balón_00000100378954288448991550000002115177197916929936_">
		<path class="st5" d="M19.9,0.4c1.7,0.7,2.5,2.7,1.7,4.4s-2.7,2.5-4.4,1.7s-2.5-2.7-1.7-4.4S18.3-0.2,19.9,0.4z"/>
		<path class="st5" d="M17.4,0.4c0.3,0.1,0.5,0.4,0.5,0.6c0,0.1,0,0.1-0.1,0.1c-1.1,1.1-1.2,3-0.4,4.2c0.1,0,0,0,0,0.1
			C17.3,5.7,17,6,16.7,6c-0.1,0-0.1,0.1-0.2,0C15.4,3.3,16.5,0.8,17.4,0.4C17.5,0.5,17.3,0.4,17.4,0.4z"/>
		<path class="st5" d="M18.5,0.2c0,0,0.8,0.4,0.8,1.1"/>
		<path class="st5" d="M19.7,0.3c0,0.2,0.5,0.6,0.4,1"/>
		<path class="st5" d="M21.4,1.6c-1.2-0.3-2.4-0.4-3.5-0.5"/>
		<path class="st5" d="M21.9,3.2c0,0-1-1.1-4.8-0.7"/>
		<path class="st5" d="M16.9,3.6c0,0,2.9,1,4.9,0.7"/>
		<path class="st5" d="M21.2,5.5l-3.8-0.2L19,5.5c-0.3,0.5-0.6,0.9-1.2,1.2"/>
		<path class="st5" d="M19.9,5.6c-0.2,0.7-0.5,1.3-0.8,1.2"/>
	</g>
</g>
<g>
	<path class="st4" d="M12.9,25.4h-2c-0.2,0-0.4,0-0.4-0.2v-0.4c0-0.2,0.3-0.2,0.4-0.2h2c0.1,0,0.4,0,0.4,0.2v0.4
		C13.3,25.4,13.1,25.4,12.9,25.4z"/>
</g>
<path class="st4" d="M18.2,24.4c-0.1,0.2-0.2,0.3-0.3,0.3c-0.1,0-0.4-0.1-0.5-0.3c-0.1-0.1,0.1-0.4,0.1-0.6l0.3-0.7
	c0.1-0.2,0.2-0.3,0.6-0.3l0,0c0.1,0,0.3,0.1,0.3,0.3C18.7,23.3,18.3,24.2,18.2,24.4z"/>
<g>
	<path class="st4" d="M16.6,23.4l-1.4,3.3c-0.1,0.2-0.2,0.4-0.4,0.4h-0.3c-0.2,0-0.3-0.1-0.3-0.2c0-0.1,0.1-0.2,0.1-0.3l1.3-2.8
		c-0.4,0-0.9,0-1.3,0c-0.4,0-0.3-0.3-0.3-0.5c0-0.2,0.1-0.3,0.3-0.3h2c0.2,0,0.5,0,0.5,0.3C16.6,23.3,16.6,23.4,16.6,23.4z"/>
</g>
</svg>
