<?xml version="1.0" encoding="utf-8"?>
<!-- Generator: Adobe Illustrator 25.4.1, SVG Export Plug-In . SVG Version: 6.00 Build 0)  -->
<svg version="1.1" id="Capa_1" xmlns="http://www.w3.org/2000/svg" xmlns:xlink="http://www.w3.org/1999/xlink" x="0px" y="0px"
	 viewBox="0 0 43.2 45.3" style="enable-background:new 0 0 43.2 45.3;" xml:space="preserve">
<style type="text/css">
	.st0{fill:none;stroke:#FF3737;stroke-miterlimit:10;}
	.st1{fill:none;stroke:#FF3737;stroke-linecap:round;stroke-miterlimit:10;}
	.st2{fill:none;stroke:#FF3737;stroke-width:0.75;stroke-miterlimit:10;}
	.st3{fill:none;stroke:#FF3737;stroke-width:0.7;stroke-miterlimit:10;}
</style>
<g id="Capa_2_1_">
	<path class="st0" d="M0.5,26.7V3.1c0-1.4,1.2-2.6,2.6-2.6h37c1.4,0,2.6,1.2,2.6,2.6v23.6"/>
	<path class="st0" d="M40.7,23.5v-18c0-1.3-1.1-2.4-2.4-2.4H5.1c-1.3,0-2.4,1.1-2.4,2.4v18c3-1.7,10-5.4,19.1-5.4
		C31,18,37.7,21.7,40.7,23.5z"/>
</g>
<g id="Capa_3">
	<path class="st1" d="M0.5,26.7V3.1c0-1.4,1.2-2.6,2.6-2.6h37c1.4,0,2.6,1.2,2.6,2.6v23.6"/>
	<path class="st1" d="M40.7,23.5v-18c0-1.3-1.1-2.4-2.4-2.4h-4.1h-4.1h-4h-4.3h-4.3H13H9.2h-4c-1.4,0-2.5,1.1-2.5,2.4v4v4.1v4.5v5.4
		c3-1.7,10-5.4,19.1-5.4C31,18,37.7,21.7,40.7,23.5z"/>
	<line class="st1" x1="8" y1="3.1" x2="7.9" y2="20.4"/>
	<line class="st1" x1="12.9" y1="3.1" x2="13" y2="19.3"/>
	<line class="st1" x1="17.4" y1="3.1" x2="17.4" y2="18.3"/>
	<line class="st1" x1="21.7" y1="3.1" x2="21.7" y2="18.1"/>
	<line class="st1" x1="26.1" y1="3.1" x2="26.1" y2="18.3"/>
	<line class="st1" x1="31.2" y1="3.1" x2="31" y2="19"/>
	<line class="st1" x1="35.4" y1="3.1" x2="35.4" y2="20.3"/>
	<path class="st1" d="M40.7,18.1c-3.4-1.7-10.1-4.4-19.1-4.5c-8.9,0-15.1,2.5-18.5,4.1"/>
	<path class="st1" d="M40.3,13.9c-3.4-1.7-9.6-4.2-18.6-4.3c-8.9,0-15.6,2.4-19,4"/>
	<path class="st1" d="M40.5,9.7C37.1,8,30.8,6.4,21.8,6.3c-8.9,0-15.4,2-18.8,3.6"/>
</g>
<g id="Capa_4_00000144302122853242249050000007924061177143673775_">
	<polyline class="st2" points="27.6,40 35.9,34.4 37.3,37.8 42.6,30.4 33.5,28.5 34.9,32.1 24.3,33.9 	"/>
</g>
<g id="Iconos">
	<g id="Balón">
		<path class="st3" d="M21.7,33.1c3.2,0.1,5.9,2.9,5.8,6.2s-2.8,5.7-6,5.7s-5.7-2.8-5.7-6S18.5,33,21.7,33.1z"/>
		<path class="st3" d="M17.9,35c0.4,0,1,0.2,1.2,0.6c0,0.1,0,0.2,0,0.3c-0.3,0.7-1.5,4.5,2,6.9c0.1,0,0.1,0.1,0.1,0.2
			c0.1,0.6-0.3,1.2-0.8,1.5c-0.1,0.1-0.3,0.1-0.4,0C19.4,43.9,15.9,40.5,17.9,35C18,34.9,17.7,35,17.9,35z"/>
		<path class="st3" d="M19,33.7c0,0,1.6,0.6,2,1.6"/>
		<path class="st3" d="M21.1,33.1c0.5,0.2,1.5,1.2,1.6,1.7"/>
		<path class="st3" d="M25.1,34.3c0,0-2,0.2-6,1.5"/>
		<path class="st3" d="M26.9,36.3c0,0-2.2-0.7-8,2.4l-0.1,0"/>
		<path class="st3" d="M19.2,40.7c0,0,5.4-0.2,8.3-2.2"/>
		<path class="st3" d="M27.2,41.1l-6,1.7l2.1-0.6c0,0,0.5,1-0.7,2.5"/>
		<path class="st3" d="M25,41.8c0,0,0.4,1.1-0.1,2.3"/>
	</g>
</g>
</svg>
