<?xml version="1.0" encoding="utf-8"?>
<!-- Generator: Adobe Illustrator 25.4.1, SVG Export Plug-In . SVG Version: 6.00 Build 0)  -->
<svg version="1.1" id="Capa_1" xmlns="http://www.w3.org/2000/svg" xmlns:xlink="http://www.w3.org/1999/xlink" x="0px" y="0px"
	 viewBox="0 0 33.5 33.5" style="enable-background:new 0 0 33.5 33.5;" xml:space="preserve">
<style type="text/css">
	.st0{fill:none;stroke:#00E9C5;stroke-width:1.2;stroke-miterlimit:10;}
</style>
<g id="Iconos">
	<g id="Balón">
		<circle class="st0" cx="16.7" cy="16.7" r="16.1"/>
		<path class="st0" d="M5.7,5.7c1,0.1,2.7,0.5,3.4,1.7c0.1,0.2,0.1,0.5,0,0.7c-0.7,2-3.7,12.5,6.2,19c0.2,0.1,0.4,0.4,0.4,0.6
			c0.2,1.7-0.6,3.4-2,4.3c-0.3,0.2-0.8,0.2-1.1,0c-2.6-1.8-13-10.4-8-25.7C4.8,6,5.2,5.7,5.7,5.7z"/>
		<path class="st0" d="M10.6,1.7c0,0,5.8,0.9,6.8,3.6"/>
		<path class="st0" d="M19.3,0.8c1.3,0.4,2.2,1.5,2.5,2.8"/>
		<path class="st0" d="M25.7,3.3c0,0-5.4,0.8-16.4,4.6"/>
		<path class="st0" d="M30.7,8.6c0,0-6-1.7-22,7.2l-0.2,0.1"/>
		<path class="st0" d="M9.8,21.2c0,0,15-1,22.9-6.7"/>
		<path class="st0" d="M32,21.9l-16.5,5.2l8.4-2.6c0,0,0,3.6-3.4,7.9"/>
		<path class="st0" d="M28.4,23.1c0,0,0.9,2.1-0.6,5.4"/>
	</g>
</g>
</svg>
