<?xml version="1.0" encoding="utf-8"?>
<!-- Generator: Adobe Illustrator 25.4.1, SVG Export Plug-In . SVG Version: 6.00 Build 0)  -->
<svg version="1.1" id="Capa_1" xmlns="http://www.w3.org/2000/svg" xmlns:xlink="http://www.w3.org/1999/xlink" x="0px" y="0px"
	 viewBox="0 0 43.1 10.9" style="enable-background:new 0 0 43.1 10.9;" xml:space="preserve">
<style type="text/css">
	.st0{fill:none;stroke:#00E9C5;stroke-width:0.75;stroke-miterlimit:10;}
	.st1{fill:none;stroke:#00E9C5;stroke-width:0.75;stroke-linecap:round;stroke-linejoin:round;stroke-miterlimit:10;}
	.st2{fill:none;stroke:#00E9C5;stroke-width:0.75;stroke-linecap:round;stroke-miterlimit:10;}
	.st3{fill:none;stroke:#FF3737;stroke-width:0.75;stroke-miterlimit:10;}
	.st4{fill:none;stroke:#FF3737;stroke-width:0.75;stroke-linecap:round;stroke-linejoin:round;stroke-miterlimit:10;}
	.st5{fill:none;stroke:#FF3737;stroke-width:0.75;stroke-linecap:round;stroke-miterlimit:10;}
	.st6{fill:none;stroke:#FF3737;stroke-width:0.5;stroke-linecap:round;stroke-linejoin:round;stroke-miterlimit:10;}
	.st7{fill:none;stroke:#FF3737;stroke-width:0.35;stroke-miterlimit:10;}
</style>
<g id="Iconos">
	<circle class="st0" cx="28.5" cy="2.4" r="2"/>
	<path class="st1" d="M39.5,9.2l-4.6-4.8c-0.1-0.1-0.1-0.3,0-0.4l0,0l1-0.4c0,0,0.1-0.1,0.2-0.1l2.6,1.3c0.4,0.2,0.8,0,1-0.4
		l0.1-0.2c0.2-0.3,0.1-0.7-0.3-0.9l0,0l-3.2-1.5c0,0,0,0,0,0L32.4,3c-0.3,0.1-0.5,0.3-0.7,0.5l-2.4,2.9c-0.1,0.1-0.1,0.1-0.2,0.1
		l-3.3-0.2c-0.4,0-0.7,0.3-0.8,0.6V7c-0.1,0.4,0.2,0.8,0.6,0.8l0,0l4.1,0.6c0.1,0,0.2,0,0.3-0.1l1.2-0.9c0.1-0.1,0.3-0.1,0.4,0l0,0
		l1.9,1.8"/>
	<path class="st2" d="M42.7,9.4C42,8.7,40.9,8.5,40,9c-1,0.4-2.1,0.5-3.1,0.1c-0.3-0.1-0.7-0.3-1.1-0.3c-0.9,0-1.8,0.2-2.6,0.7
		c-0.8,0.7-2,0.6-2.7-0.2"/>
</g>
<circle class="st3" cx="14.6" cy="2.7" r="2"/>
<path class="st4" d="M9.6,9.5l1.9-1.8l0,0c0.1-0.1,0.3-0.1,0.4,0l1.2,0.9c0.1,0.1,0.2,0.1,0.3,0.1l4.1-0.6l0,0
	c0.4,0,0.7-0.4,0.6-0.8V7.2c-0.1-0.3-0.4-0.6-0.8-0.6L14,6.8c-0.1,0-0.1,0-0.2-0.1l-2.4-2.9c-0.2-0.2-0.4-0.4-0.7-0.5L6.8,2
	c0,0,0,0,0,0L3.6,3.6l0,0C3.2,3.8,3.1,4.2,3.3,4.5l0.1,0.2c0.2,0.4,0.6,0.6,1,0.4l2.6-1.3c0.1,0,0.2,0.1,0.2,0.1l1,0.4l0,0
	c0.1,0.1,0.1,0.3,0,0.4L3.6,9.5"/>
<path class="st5" d="M12.6,9.6c-0.7,0.8-1.9,0.9-2.7,0.2C9.1,9.3,8.2,9.1,7.3,9.1c-0.4,0-0.8,0.2-1.1,0.3c-1,0.4-2.1,0.3-3.1-0.1
	C2.2,8.8,1.1,9,0.4,9.7"/>
<path class="st6" d="M18.5,10.7l0.5-0.4c0.3-0.3,0.6-0.4,1-0.1l0.2,0.2c0.3,0.3,0.8,0.3,1.1,0l0.2-0.1c0.4-0.3,0.8-0.3,1.1,0.1l0,0
	c0.3,0.3,0.8,0.3,1.1,0l0.2-0.1c0.4-0.2,0.9,0.1,1.2,0.4"/>
<g id="Iconos_00000068658191279610778910000015027135436721007539_">
	<g id="Balón">
		<circle class="st7" cx="21.5" cy="7.5" r="2.3"/>
		<path class="st7" d="M19.9,5.9c0.1,0,0.4,0.1,0.5,0.2c0,0,0,0.1,0,0.1C20.3,6.5,20.1,8,21.3,9c0,0,0.1,0.1,0.1,0.1
			c0,0.2-0.1,0.5-0.3,0.6c0,0-0.1,0-0.2,0c-0.3-0.4-1.7-1.6-1.2-3.7C19.8,5.9,19.8,5.9,19.9,5.9z"/>
		<path class="st7" d="M20.3,5.5c0,0,0.6,0,0.8,0.4"/>
		<path class="st7" d="M21.2,5.2c0.2,0.1,0.6,0.4,0.6,0.6"/>
		<path class="st7" d="M22.8,5.5c0,0-0.8,0.1-2.4,0.7"/>
		<path class="st7" d="M23.6,6.3c0,0-0.9-0.2-3.2,1.1l0,0"/>
		<path class="st7" d="M20.6,8.1c0,0,2.1-0.1,3.2-0.9"/>
		<path class="st7" d="M23.7,8.2L21.3,9l0.9-0.3c0,0,0.2,0.4-0.3,1.1"/>
		<path class="st7" d="M22.9,8.5c0,0,0.1,0.5-0.1,1"/>
	</g>
</g>
</svg>
