<?xml version="1.0" encoding="utf-8"?>
<!-- Generator: Adobe Illustrator 25.4.1, SVG Export Plug-In . SVG Version: 6.00 Build 0)  -->
<svg version="1.1" id="Capa_1" xmlns="http://www.w3.org/2000/svg" xmlns:xlink="http://www.w3.org/1999/xlink" x="0px" y="0px"
	 viewBox="0 0 50 50" style="enable-background:new 0 0 50 50;" xml:space="preserve">
<style type="text/css">
	.st0{fill:none;stroke:#050B3D;stroke-width:0.75;stroke-linecap:round;stroke-miterlimit:10;}
	.st1{fill:none;stroke:#050B3D;stroke-width:0.75;stroke-miterlimit:10;}
	.st2{fill:#FFFFFF;stroke:#050B3D;stroke-width:0.3093;stroke-linecap:round;stroke-miterlimit:10;}
	.st3{fill:none;stroke:#050B3D;stroke-width:0.3093;stroke-linecap:round;stroke-miterlimit:10;}
</style>
<g id="Iconos">
	<circle class="st0" cx="11.6" cy="26" r="2"/>
	<path class="st0" d="M1.3,33l4.6-4.8C6,28.1,6,28,5.9,27.9l-0.1-0.1l-0.9-0.3c-0.1,0-0.1,0-0.2,0l-2.6,1.2c-0.4,0.2-0.8,0-1-0.4
		L1,28.1c-0.2-0.3-0.1-0.7,0.3-0.9l0,0l3.1-1.6c0.1,0,0.1,0,0.2,0l3.8,1.2c0.3,0.1,0.5,0.3,0.7,0.5l2.4,2.9c0.1,0.1,0.1,0.1,0.2,0.1
		l3.3-0.2c0.4,0,0.7,0.3,0.8,0.6v0.1c0.1,0.4-0.2,0.8-0.6,0.8l0,0l-4.1,0.6c-0.1,0-0.2,0-0.3-0.1l-1.1-0.9c-0.1-0.1-0.3-0.1-0.4,0
		l0,0L7.4,33"/>
	<path class="st0" d="M-1.9,33.2c0.7-0.7,1.8-0.9,2.7-0.4c1,0.4,2.1,0.5,3.1,0.1c0.3-0.1,0.7-0.2,1.1-0.2c0.9-0.1,1.8,0.1,2.6,0.6
		c0.8,0.7,2,0.6,2.7-0.2l0,0"/>
	<circle class="st1" cx="38.8" cy="26" r="2"/>
	<path class="st1" d="M49.1,33l-4.6-4.8c-0.1-0.1-0.1-0.3,0-0.4l0.1-0.1l0.9-0.3c0.1,0,0.1,0,0.2,0l2.6,1.2c0.4,0.2,0.8,0,1-0.4
		l0.1-0.2c0.2-0.3,0.1-0.7-0.3-0.9l0,0L46,25.6c-0.1,0-0.1,0-0.2,0L42,26.8c-0.3,0.1-0.5,0.3-0.7,0.5l-2.4,2.9
		c-0.1,0.1-0.1,0.1-0.2,0.1l-3.3-0.2c-0.4,0-0.7,0.3-0.8,0.6v0.1c-0.1,0.4,0.2,0.8,0.6,0.8l0,0l4.1,0.6c0.1,0,0.2,0,0.3-0.1l1.2-0.9
		c0.1-0.1,0.3-0.1,0.4,0l0,0l1.9,1.8"/>
	<path class="st0" d="M52.3,33.2c-0.7-0.7-1.8-0.9-2.7-0.4c-1,0.4-2.1,0.5-3.1,0.1c-0.3-0.1-0.7-0.2-1.1-0.2
		c-0.9-0.1-1.8,0.1-2.6,0.6c-0.8,0.7-2,0.6-2.7-0.2"/>
</g>
<g id="Balón_00000165916567225979618880000014635046712088877966_">
	<path class="st2" d="M23.8,33.1c-0.8-0.4-1.4-1.2-1.4-2.2c0-1.3,1.1-2.4,2.4-2.4s2.4,1.1,2.4,2.4c0,1-0.6,1.8-1.4,2.2"/>
	<path class="st2" d="M24,33c-0.6-0.5-1.6-1.7-0.9-3.7c0-0.1,0.1-0.1,0.2-0.1c0.2,0,0.4,0.1,0.5,0.3v0.1c-0.1,0.3-0.6,1.9,0.9,2.9
		l0.1,0.1v0.1"/>
	<path class="st2" d="M23.9,28.7c0,0,0.9,0.1,1,0.5"/>
	<path class="st2" d="M25.2,28.5c0.2,0.1,0.3,0.2,0.4,0.4"/>
	<path class="st2" d="M26.2,28.9c0,0-0.8,0.1-2.5,0.7"/>
	<path class="st2" d="M27,29.7c0,0-0.9-0.3-3.3,1.1l0,0"/>
	<path class="st2" d="M23.8,31.6c0,0,2.3-0.2,3.5-1"/>
	<path class="st2" d="M27.2,31.7l-2.5,0.8l1.3-0.4c0,0,0,0.4-0.3,0.8"/>
	<path class="st2" d="M26.6,31.9c0,0,0.1,0.3-0.1,0.8"/>
</g>
<path class="st3" d="M20.1,33.5l0.9-0.6c0.4-0.3,1-0.3,1.5,0l0.1,0.1c0.4,0.3,1,0.3,1.5,0l0.2-0.1c0.5-0.3,1-0.3,1.5,0.1l0,0
	c0.4,0.3,1.1,0.4,1.5,0h0.1c0.4-0.3,1.1-0.3,1.5,0l0.8,0.6"/>
</svg>
