<?xml version="1.0" encoding="utf-8"?>
<!-- Generator: Adobe Illustrator 25.0.0, SVG Export Plug-In . SVG Version: 6.00 Build 0)  -->
<svg version="1.1" id="Capa_1" xmlns="http://www.w3.org/2000/svg" xmlns:xlink="http://www.w3.org/1999/xlink" x="0px" y="0px"
	 viewBox="0 0 50 50" style="enable-background:new 0 0 50 50;" xml:space="preserve">
<style type="text/css">
	.st0{fill:none;stroke:#050B3D;stroke-width:0.618;stroke-linecap:round;stroke-linejoin:round;stroke-miterlimit:10;}
	.st1{fill:none;stroke:#050B3D;stroke-width:0.2057;stroke-linecap:round;stroke-miterlimit:10;}
</style>
<g>
	<circle class="st0" cx="38.6" cy="21.6" r="2.5"/>
	<line class="st0" x1="34.7" y1="31.4" x2="34.7" y2="33.1"/>
	<line class="st0" x1="34.7" y1="29.9" x2="34.7" y2="29.9"/>
	<path class="st0" d="M42.3,33.1v-5.3l3.2-1.1c0.9-0.3,1.7-1,2.2-1.9l1.3-2.7c0.4-0.7,0.1-1.5-0.5-1.8l0,0c-0.6-0.3-1.4-0.1-1.8,0.5
		l-2.1,3.4l-3.7,1.1c-0.5,0.1-1,0.2-1.6,0.2h0c-1.5,0-3-0.6-4.1-1.7l-4.9-4.9c-0.5-0.5-1.4-0.5-1.9,0l0,0c-0.5,0.5-0.5,1.4,0,1.9
		l6.3,6.6v1.1"/>
</g>
<g>
	<circle class="st0" cx="11.4" cy="21.6" r="2.5"/>
	<line class="st0" x1="15.4" y1="31.4" x2="15.4" y2="33.1"/>
	<line class="st0" x1="15.4" y1="29.9" x2="15.4" y2="29.9"/>
	<path class="st0" d="M7.8,33.1v-5.3l-3.2-1.1c-0.9-0.3-1.7-1-2.2-1.9L1,22.2c-0.4-0.7-0.1-1.5,0.5-1.8h0C2.2,20,3,20.2,3.3,20.8
		l2.1,3.4l3.7,1.1c0.5,0.1,1,0.2,1.6,0.2h0c1.5,0,3-0.6,4.1-1.7l4.9-4.9c0.5-0.5,1.4-0.5,1.9,0l0,0c0.5,0.5,0.5,1.4,0,1.9l-6.3,6.6
		v1.1"/>
</g>
<g id="Iconos">
	<g id="Balón">
		<circle class="st1" cx="25.1" cy="14.1" r="2.1"/>
		<path class="st1" d="M23.7,12.7c0.1,0,0.4,0.1,0.5,0.2c0,0,0,0.1,0,0.1c-0.1,0.3-0.5,1.6,0.8,2.5c0,0,0,0,0.1,0.1
			c0,0.2-0.1,0.4-0.3,0.6c0,0-0.1,0-0.1,0c-0.3-0.2-1.7-1.4-1-3.4C23.5,12.7,23.6,12.7,23.7,12.7z"/>
		<path class="st1" d="M24.3,12.1c0,0,0.8,0.1,0.9,0.5"/>
		<path class="st1" d="M25.4,12c0.2,0.1,0.3,0.2,0.3,0.4"/>
		<path class="st1" d="M26.3,12.3c0,0-0.7,0.1-2.2,0.6"/>
		<path class="st1" d="M26.9,13c0,0-0.8-0.2-2.9,1l0,0"/>
		<path class="st1" d="M24.2,14.7c0,0,2-0.1,3-0.9"/>
		<path class="st1" d="M27.1,14.8l-2.2,0.7l1.1-0.3c0,0,0,0.5-0.4,1"/>
		<path class="st1" d="M26.6,14.9c0,0,0.1,0.3-0.1,0.7"/>
	</g>
</g>
<path class="st0" d="M3.3,35.1l2.3-1.5c1-0.7,2.3-0.6,3.2,0.1l0.2,0.2c1,0.7,2.3,0.8,3.3,0l0.2-0.2c1-0.7,2.4-0.7,3.4,0.1h0
	c1,0.8,2.3,0.8,3.4,0.1l0.4-0.3c1-0.7,2.3-0.7,3.3,0.1l0.2,0.2c0.9,0.7,2.3,0.8,3.2,0.1l0.7-0.4c1-0.7,2.3-0.6,3.2,0.1l0.2,0.2
	c1,0.7,2.3,0.8,3.3,0l0.2-0.2c1-0.7,2.4-0.7,3.4,0.1h0c1,0.8,2.3,0.8,3.4,0.1l0.4-0.3c1-0.7,2.3-0.7,3.3,0.1l1.8,1.4"/>
</svg>
