<?xml version="1.0" encoding="utf-8"?>
<!-- Generator: Adobe Illustrator 25.4.1, SVG Export Plug-In . SVG Version: 6.00 Build 0)  -->
<svg version="1.1" id="Capa_1" xmlns="http://www.w3.org/2000/svg" xmlns:xlink="http://www.w3.org/1999/xlink" x="0px" y="0px"
	 viewBox="0 0 50 50" style="enable-background:new 0 0 50 50;" xml:space="preserve">
<style type="text/css">
	.st0{fill:none;stroke:#050B3D;stroke-width:0.75;stroke-miterlimit:10;}
	.st1{fill:none;stroke:#050B3D;stroke-miterlimit:10;}
	.st2{fill:#FFFFFF;stroke:#050B3D;stroke-width:0.4093;stroke-linecap:round;stroke-miterlimit:10;}
	.st3{fill:none;stroke:#050B3D;stroke-width:0.4093;stroke-linecap:round;stroke-miterlimit:10;}
</style>
<g id="Capa_2_00000051385075196705985000000010097527088209625247_">
	<path class="st0" d="M8.9,27.4V8.8c0-1.1,0.9-2,2-2H40c1.1,0,2,0.9,2,2v18.6"/>
	<path class="st0" d="M40.5,24.8V10.6c0-1-0.9-1.9-1.9-1.9H12.5c-1,0-1.9,0.9-1.9,1.9v14.1c2.4-1.4,7.8-4.3,15-4.3
		C32.9,20.4,38.1,23.4,40.5,24.8z"/>
</g>
<g id="Capa_3">
	<path class="st0" d="M8.9,27.4V8.8c0-1.1,0.9-2,2-2H40c1.1,0,2,0.9,2,2v18.6"/>
	<path class="st0" d="M40.5,24.8V10.6c0-1-0.9-1.9-1.9-1.9h-3.2h-3.2H29h-3.4h-3.4h-3.6h-3h-3.2c-1,0-1.9,0.9-1.9,1.9v3.2V17v3.5
		v4.3c2.4-1.4,7.8-4.3,15-4.3C32.9,20.4,38.1,23.4,40.5,24.8z"/>
	<line class="st0" x1="14.8" y1="8.8" x2="14.7" y2="22.4"/>
	<line class="st0" x1="18.6" y1="8.8" x2="18.7" y2="21.5"/>
	<line class="st0" x1="22.2" y1="8.8" x2="22.2" y2="20.7"/>
	<line class="st0" x1="25.6" y1="8.8" x2="25.6" y2="20.5"/>
	<line class="st0" x1="29" y1="8.8" x2="29" y2="20.7"/>
	<line class="st0" x1="33" y1="8.8" x2="32.9" y2="21.3"/>
	<line class="st0" x1="36.3" y1="8.8" x2="36.3" y2="22.3"/>
	<path class="st0" d="M40.5,20.5c-2.6-1.4-7.9-3.5-15-3.6c-7,0-12.4,2.2-15,3.5"/>
	<path class="st0" d="M40.6,17.4c-2.6-1.4-7.9-3.5-15-3.6c-7,0-12.4,2.2-15,3.5"/>
	<path class="st0" d="M40.8,14.2c-2.6-1.4-7.9-3.5-15-3.6c-7,0-12.4,2.2-15,3.5"/>
	<path class="st0" d="M25.6,29.2"/>
</g>
<path class="st1" d="M22.7,49.4"/>
<g id="Balón">
	<path class="st2" d="M24.1,44.8c-1.4-0.7-2.5-2.1-2.5-3.8c0-2.3,1.9-4.2,4.2-4.2S30,38.7,30,41c0,1.7-1,3.1-2.4,3.8"/>
	<path class="st2" d="M24.3,44.7c-1-0.9-2.8-3-1.6-6.4c0-0.1,0.1-0.2,0.3-0.2c0.3,0,0.7,0.1,0.9,0.4c0,0.1,0,0.1,0,0.2
		c-0.2,0.5-1,3.3,1.6,5c0.1,0,0.1,0.1,0.1,0.2c0,0.1,0,0.1,0,0.2"/>
	<path class="st2" d="M24.2,37.1c0,0,1.5,0.2,1.8,0.9"/>
	<path class="st2" d="M26.5,36.8c0.3,0.1,0.6,0.4,0.7,0.7"/>
	<path class="st2" d="M28.2,37.5c0,0-1.4,0.2-4.3,1.2"/>
	<path class="st2" d="M29.5,38.9c0,0-1.6-0.4-5.8,1.9h-0.1"/>
	<path class="st2" d="M24,42.2c0,0,3.9-0.3,6-1.7"/>
	<path class="st2" d="M29.8,42.4l-4.3,1.3l2.2-0.7c0,0,0,0.6-0.5,1.5"/>
	<path class="st2" d="M28.9,42.7c0,0,0.2,0.5-0.2,1.4"/>
</g>
<path class="st3" d="M17.6,45.5l1.6-1.1c0.8-0.5,1.8-0.5,2.5,0.1l0.2,0.1c0.7,0.6,1.7,0.6,2.5,0.1l0.4-0.2c0.8-0.5,1.8-0.5,2.6,0.1
	l0,0c0.8,0.6,1.8,0.6,2.6,0l0.1-0.1c0.8-0.6,1.8-0.5,2.6,0l1.4,1"/>
</svg>
