<?xml version="1.0" encoding="utf-8"?>
<!-- Generator: Adobe Illustrator 25.0.0, SVG Export Plug-In . SVG Version: 6.00 Build 0)  -->
<svg version="1.1" id="Capa_1" xmlns="http://www.w3.org/2000/svg" xmlns:xlink="http://www.w3.org/1999/xlink" x="0px" y="0px"
	 viewBox="0 0 110.8 118.5" style="enable-background:new 0 0 110.8 118.5;" xml:space="preserve">
<style type="text/css">
	.st0{fill:#050B3D;}
	.st1{fill:none;stroke:#050B3D;stroke-width:3;stroke-miterlimit:10;}
</style>
<path class="st0" d="M100.6,59.6l-7.3-4.1c-0.5-0.3-1.3,0-1.8,0.5c0,0.3-0.3,0.5-0.3,0.5v4.4H79.8c-0.8,0-1.3,0.5-1.3,1.3l0,0v5.4
	c0,0.8,0.5,1.3,1.3,1.3l0,0h11.4v4.4c0,0.8,0.5,1.3,1.3,1.3c0.3,0,0.5,0,0.5-0.3l7.3-4.1l7.3-4.1c0.5-0.3,0.8-1,0.5-1.8
	c0-0.3-0.3-0.3-0.5-0.5L100.6,59.6z"/>
<g id="Iconos">
	<g id="Balón">
		<circle class="st1" cx="39.6" cy="61.9" r="33.9"/>
		<path class="st1" d="M16.4,38.8c2.1,0.3,5.8,1.1,7.2,3.6c0.2,0.5,0.2,1,0,1.5c-1.5,4.2-7.8,26.3,13.1,39.9
			c0.5,0.3,0.8,0.8,0.9,1.3c0.4,3.6-1.3,7.1-4.3,9c-0.7,0.5-1.6,0.5-2.3,0c-5.4-3.9-27.3-21.9-16.7-54
			C14.5,39.3,15.4,38.7,16.4,38.8z"/>
		<path class="st1" d="M26.8,30.4c0,0,12.2,1.9,14.3,7.6"/>
		<path class="st1" d="M45,28.4c2.7,0.9,5.1,4.1,5.8,6.9"/>
		<path class="st1" d="M58.4,33.7c0,0-11.3,1.7-34.4,9.6"/>
		<path class="st1" d="M68.9,44.8c0,0-12.6-3.6-46.3,15.2l-0.5,0.3"/>
		<path class="st1" d="M25,71.3c0,0,31.5-2.1,48.2-14"/>
		<path class="st1" d="M71.7,72.8L37.1,83.7l17.6-5.5c0,0,0,7.5-7.1,16.7"/>
		<path class="st1" d="M64.1,75.2c0,0,2,4.5-1.3,11.4"/>
	</g>
</g>
</svg>
