<?xml version="1.0" encoding="utf-8"?>
<!-- Generator: Adobe Illustrator 25.4.1, SVG Export Plug-In . SVG Version: 6.00 Build 0)  -->
<svg version="1.1" id="Capa_1" xmlns="http://www.w3.org/2000/svg" xmlns:xlink="http://www.w3.org/1999/xlink" x="0px" y="0px"
	 viewBox="0 0 50 50" style="enable-background:new 0 0 50 50;" xml:space="preserve">
<style type="text/css">
	.st0{fill:none;stroke:#050B3D;stroke-miterlimit:10;}
	.st1{fill:none;stroke:#050B3D;stroke-width:0.75;stroke-miterlimit:10;}
	.st2{fill:none;stroke:#050B3D;stroke-width:0.5;stroke-linecap:round;stroke-miterlimit:10;}
</style>
<g id="Capa_2_00000051385075196705985000000010097527088209625247_">
	<path class="st0" d="M5.9,32.8V11c0-1.3,1.1-2.4,2.4-2.4h34.2c1.3,0,2.4,1.1,2.4,2.4v21.8"/>
	<path class="st0" d="M43,29.8V13.2c0-1.2-1-2.2-2.2-2.2H10.1c-1.2,0-2.2,1-2.2,2.2v16.6c2.8-1.6,9.2-5,17.6-5
		C34.1,24.7,40.2,28.2,43,29.8z"/>
</g>
<g id="Capa_3">
	<path class="st0" d="M5.9,32.8V11c0-1.3,1.1-2.4,2.4-2.4h34.2c1.3,0,2.4,1.1,2.4,2.4v21.8"/>
	<path class="st0" d="M43,29.8V13.2c0-1.2-1-2.2-2.2-2.2H37h-3.8h-3.7h-4h-4h-4.2h-3.5h-3.7c-1.2,0-2.2,1-2.2,2.2v3.7v3.8v4.1v5
		c2.8-1.6,9.2-5,17.6-5C34.1,24.7,40.2,28.2,43,29.8z"/>
	<line class="st0" x1="12.8" y1="11" x2="12.7" y2="27"/>
	<line class="st0" x1="17.3" y1="11" x2="17.4" y2="25.9"/>
	<line class="st0" x1="21.5" y1="11" x2="21.5" y2="25"/>
	<line class="st0" x1="25.5" y1="11" x2="25.5" y2="24.8"/>
	<line class="st0" x1="29.5" y1="11" x2="29.5" y2="25"/>
	<line class="st0" x1="34.2" y1="11" x2="34.1" y2="25.7"/>
	<line class="st0" x1="38.1" y1="11" x2="38.1" y2="26.9"/>
	<path class="st0" d="M43,24.8c-3.1-1.6-9.3-4.1-17.6-4.2c-8.2,0-14.5,2.6-17.6,4.1"/>
	<path class="st0" d="M43.1,21.1c-3.1-1.6-9.3-4.1-17.6-4.2c-8.2,0-14.5,2.6-17.6,4.1"/>
	<path class="st0" d="M43.4,17.4c-3.1-1.6-9.3-4.1-17.6-4.2c-8.2,0-14.5,2.6-17.6,4.1"/>
	<path class="st0" d="M25.5,35"/>
</g>
<g id="Capa_4">
	<polygon class="st1" points="29.3,30.8 25.5,27 21.5,30.8 24.5,30.8 23,35 28,35 26.4,30.8 	"/>
</g>
<path class="st0" d="M22.7,49.4"/>
<g id="Iconos_00000114789210532854324500000009438416553458546317_">
	<g id="Balón_00000162311025415090853980000007123228374906484627_">
		<circle class="st2" cx="25.8" cy="42.1" r="4.9"/>
		<path class="st2" d="M22.4,38.8c0.3,0,0.8,0.2,1.1,0.5c0,0.1,0,0.1,0,0.2c-0.2,0.6-1.1,3.8,1.9,5.8c0.1,0,0.1,0.1,0.1,0.2
			c0,0.5-0.2,1-0.6,1.3c-0.1,0.1-0.2,0.1-0.3,0c-0.8-0.6-4-3.2-2.4-7.9C22.1,38.8,22.3,38.8,22.4,38.8z"/>
		<path class="st2" d="M23.9,37.6c0,0,1.8,0.2,2.1,1.1"/>
		<path class="st2" d="M26.6,37.3c0.4,0.1,0.7,0.5,0.8,0.9"/>
		<path class="st2" d="M28.5,38c0,0-1.6,0.3-5,1.4"/>
		<path class="st2" d="M30,39.6c0,0-1.8-0.5-6.7,2.2h-0.1"/>
		<path class="st2" d="M23.7,43.5c0,0,4.6-0.3,7-2"/>
		<path class="st2" d="M30.5,43.7l-5,1.6l2.6-0.8c0,0,0,1.1-1,2.4"/>
		<path class="st2" d="M29.3,44.1c0,0,0.3,0.6-0.2,1.7"/>
	</g>
</g>
</svg>
