<svg id="jugador-de-waterpolo-con-las-bolas-en-el-agua" xmlns="http://www.w3.org/2000/svg" width="43.754" height="42.482" viewBox="0 0 43.754 42.482">
  <g id="Grupo_1734" data-name="Grupo 1734" transform="translate(0 0)">
    <ellipse id="Elipse_96" data-name="Elipse 96" cx="5.141" cy="5.141" rx="5.141" ry="5.141" transform="translate(14.982 10.606)" fill="#050c42"/>
    <ellipse id="Elipse_97" data-name="Elipse 97" cx="4.009" cy="4.009" rx="4.009" ry="4.009" transform="translate(5.77)" fill="#050c42"/>
    <path id="Trazado_2001" data-name="Trazado 2001" d="M34.922,135.884a.849.849,0,0,0,.5,1l8.877,3.473a1.487,1.487,0,0,1,.831,1.018l1.61,9.324.988-.744a4.488,4.488,0,0,1,4.821-.2l4.1,2.591a.714.714,0,0,0,.135,0l3.291-2.136-1.538-4.616c-.132-.394.08-.6.472-.462l8.964,3.1a2.858,2.858,0,0,0,3.275-1.217l.141-.241a1.82,1.82,0,0,0-.993-2.724L41.463,133.625a.829.829,0,0,1-.51-.983l1.595-5.805a2.2,2.2,0,0,0-1.6-2.73l-.264-.066a2.363,2.363,0,0,0-2.822,1.626Z" transform="translate(-32.14 -114.83)" fill="#050c42"/>
    <path id="Trazado_2002" data-name="Trazado 2002" d="M42.06,467.423,37.6,470.717a1.134,1.134,0,0,1-1.105.029l-3.906-2.575a3.4,3.4,0,0,0-3.535-.014l-4,2.6a1.384,1.384,0,0,1-1.242.008l-4.157-2.625a3.264,3.264,0,0,0-3.537.146l-3.229,2.432a1.125,1.125,0,0,1-1.1.038l-4-2.594a3.085,3.085,0,0,0-3.536.211L.382,471.6a1.063,1.063,0,1,0,1.361,1.632L5.616,470a.98.98,0,0,1,1.017-.061l4,2.594a3.22,3.22,0,0,0,3.538-.124l3.229-2.432a1.159,1.159,0,0,1,1.122-.047l4.157,2.625a3.475,3.475,0,0,0,3.534-.022l4-2.6a1.311,1.311,0,0,1,1.207.006l3.906,2.575a3.226,3.226,0,0,0,3.54-.092l4.458-3.295a1.063,1.063,0,0,0-1.264-1.709Z" transform="translate(0 -430.995)" fill="#050c42"/>
  </g>
</svg>
