<svg xmlns="http://www.w3.org/2000/svg" xmlns:xlink="http://www.w3.org/1999/xlink" viewBox="0 0 757.36 973.68"><defs><style>.cls-1{fill:#666;}.cls-2{fill:#00aeef;}.cls-3{fill:url(#Degradado_sin_nombre_15);}.cls-4{fill:#c2b59b;}.cls-5,.cls-6,.cls-7,.cls-8,.cls-9{fill:none;stroke-miterlimit:10;}.cls-5,.cls-6,.cls-7{stroke:#fff;}.cls-5{stroke-width:2px;}.cls-6,.cls-8,.cls-9{stroke-width:5px;}.cls-7{stroke-width:3px;}.cls-8{stroke:#ed1c24;}.cls-9{stroke:#fff200;}.cls-10{fill:#ed1c24;}</style><radialGradient id="Degradado_sin_nombre_15" cx="376.64" cy="486.18" r="546.83" gradientTransform="translate(1.36 -271.71) scale(1 1.56)" gradientUnits="userSpaceOnUse"><stop offset="0" stop-opacity="0"/><stop offset="1" stop-opacity="0.6"/></radialGradient></defs><g id="Suelo"><rect class="cls-1" x="1.36" width="756" height="973"/><rect class="cls-2" x="143.09" y="77.62" width="468.77" height="820.6"/><rect class="cls-3" y="2.68" width="756" height="971"/><rect class="cls-4" x="333.04" y="42.89" width="91.91" height="69.45"/><rect class="cls-4" x="331.51" y="859.4" width="91.91" height="69.45"/></g><g id="Lineas"><rect class="cls-5" x="333.04" y="42.89" width="91.91" height="69.45"/><rect class="cls-5" x="331.51" y="859.4" width="91.91" height="69.45"/><line class="cls-6" x1="143.09" y1="112.34" x2="611.85" y2="112.34"/><line class="cls-7" x1="611.85" y1="859.4" x2="143.09" y2="859.4"/><line class="cls-8" x1="143.09" y1="154.72" x2="611.85" y2="154.72"/><line class="cls-8" x1="143.09" y1="817.53" x2="611.85" y2="817.53"/><line class="cls-9" x1="143.09" y1="213.96" x2="611.85" y2="213.96"/><line class="cls-9" x1="611.85" y1="757.28" x2="143.09" y2="757.28"/><polyline class="cls-5" points="331.51 898.21 143.09 898.21 143.09 78.13 333.04 78.13"/><path class="cls-5" d="M332.7,896.21" transform="translate(1.36 2)"/><polyline class="cls-5" points="424.96 78.13 611.85 78.13 611.85 898.21 423.43 898.21"/><rect class="cls-10" x="517.64" y="63.32" width="79.91" height="22.98"/><rect class="cls-10" x="517.64" y="886.72" width="79.91" height="22.98"/></g></svg>