<svg xmlns="http://www.w3.org/2000/svg" viewBox="0 0 757 1213.92"><defs><style>.cls-1{fill:#445aa6;stroke:#2e2c76;}.cls-1,.cls-5,.cls-6,.cls-7,.cls-8,.cls-9{stroke-miterlimit:10;}.cls-2{fill:#00aeef;}.cls-3{fill:#c2b59b;}.cls-4{fill:#fff;}.cls-5,.cls-6,.cls-7,.cls-8,.cls-9{fill:none;}.cls-5,.cls-6,.cls-7{stroke:#fff;}.cls-5{stroke-width:2px;}.cls-6,.cls-8,.cls-9{stroke-width:5px;}.cls-7{stroke-width:3px;}.cls-8{stroke:#ed1c24;}.cls-9{stroke:#fff200;}.cls-10{fill:#ed1c24;}</style></defs><g id="Suelo"><rect class="cls-1" x="0.5" y="0.5" width="756" height="1212.92"/><rect class="cls-2" x="142.22" y="198.16" width="468.77" height="820.6"/><rect class="cls-3" x="332.18" y="163.44" width="91.91" height="69.45"/><rect class="cls-3" x="330.65" y="979.95" width="91.91" height="69.45"/><g id="Capa_2" data-name="Capa 2"><g id="Capa_1-2" data-name="Capa 1-2"><path class="cls-4" d="M230.44,1092.22A7.46,7.46,0,0,0,226,1099h0v51.89a2.57,2.57,0,0,1-2.58,2.58,2.78,2.78,0,0,1-.75-.11,27.75,27.75,0,0,1-19.78-26.56v-1.54c0-.28,0-.57.06-.85v-.23c.07-.75.17-1.49.3-2.23l0-.23c.06-.32.12-.64.19-1a.94.94,0,0,0,0-.16c.18-.74.38-1.49.61-2.23l.05-.14c.11-.35.23-.69.36-1h0c.28-.74.58-1.49.9-2.15l.06-.11c.34-.7.69-1.38,1.08-2v0c.18-.3.36-.6.55-.89l.12-.18c.17-.28.36-.55.54-.82l.08-.1c.21-.29.41-.58.63-.86l.2-.25a30.79,30.79,0,0,1,3.08-3.38c.47-.44,1-.85,1.48-1.24a3.09,3.09,0,0,0,.59-4.34,2.61,2.61,0,0,0-.27-.31l-2.27-2.27a3.09,3.09,0,0,0-4.12-.22,37.32,37.32,0,0,0-4.82,4.67h0l-.06.07c-.33.39-.64.74-.95,1.17h0c-.31.38-.6.74-.88,1.15l-.14.2c-.46.79-1,1.62-1.52,2.48l-.13.24c-.51.84-1,1.72-1.41,2.61l-.13.26c-.19.41-.38.83-.56,1.24l-.07.1c-.2.45-.38.91-.55,1.37l-.11.29c-.15.4-.3.82-.44,1.23l-.07.2-.43,1.42-.06.27c-.11.4-.22.81-.32,1.22a1.18,1.18,0,0,1-.08.31c-.1.48-.2,1-.29,1.48v.2c-.1.42-.17.9-.23,1.3,0,.12,0,.24-.05.36-.07.5-.13,1-.17,1.48a.49.49,0,0,0,0,.17c-.05.45-.08.9-.1,1.36v1.93h-.07a37.12,37.12,0,0,0,30.33,36.49,2.59,2.59,0,0,1,2.14,2.54v14a2.56,2.56,0,0,0,2.56,2.57h4.14a2.58,2.58,0,0,0,2.58-2.57h0v-14a2.56,2.56,0,0,1,2.07-2.5,37,37,0,0,0,19.5-10.26,37.11,37.11,0,0,0-15-61.61A16.14,16.14,0,0,0,230.44,1092.22Zm25.31,46.68a27.8,27.8,0,0,1-17.15,14.53,2.58,2.58,0,0,1-3.2-1.73,2.64,2.64,0,0,1-.1-.74v-45.62a4.44,4.44,0,0,1,6.14-4.1,27.74,27.74,0,0,1,14.89,36.3c-.18.44-.38.88-.58,1.31Z" transform="translate(0.5 0.5)"/><path class="cls-4" d="M294.86,1136.15a11.23,11.23,0,0,1-1.9-.31,20,20,0,0,0-2.45-.15c-.56,0-1.48,0-1.84.51-.51.77-.36,4.3-.36,5.11h5.11c1.13,0,1.69.21,1.69,1.44v2c0,1.48-.36,1.94-1.84,1.94h-5v16.78c0,1.33-.2,2.3-1.79,2.3h-3.22c-1.38,0-1.53-.82-1.53-2v-17h-1.54c-1.12,0-1.23-.86-1.23-1.79v-2.21c0-1.79,1.44-1.44,2.77-1.44v-2c0-2.15,0-4.24,1.32-6,2.1-2.87,5.53-3,8.8-3,1,0,3.58,0,4.24,1a1.93,1.93,0,0,1,.26,1.07v.36C296.39,1133.74,296.39,1136.15,294.86,1136.15Zm10.48,1.53h-2c-1.84,0-2.71-.25-2.71-2.3v-1.79c0-1.63.67-2.25,2.25-2.25h2.41a2,2,0,0,1,2,2,2.28,2.28,0,0,1,0,.26v1.79c.09,1.43-.37,2.3-2,2.3Zm0,28.13h-2c-1.84,0-2.71-.26-2.71-2.3v-20c0-1.63.67-2.25,2.25-2.25h2.41a2,2,0,0,1,2,2,2.28,2.28,0,0,1,0,.26v20c.09,1.43-.37,2.3-2,2.3Z" transform="translate(0.5 0.5)"/><path class="cls-4" d="M323.69,1166.42a49.66,49.66,0,0,1-7.31-.36c-1.53-.2-1.43-.92-1.43-2.35v-.92c0-1.12.1-2.35,1.48-2.35a23.79,23.79,0,0,1,2.66.3c1.74.16,3.53.26,5.32.26s2.56,0,2.56-1.89a2.77,2.77,0,0,0-.31-1.69c-.41-.51-4.91-1.74-5.73-2a28.12,28.12,0,0,1-2.91-1.18c-2.66-1.33-3.63-2.81-3.63-5.78,0-7.87,5.31-7.77,11.6-7.77,1.28,0,2.51,0,3.79.1,1.84.16,2.55.51,2.55,2.51,0,1.48.11,3.17-1.89,3.17-.87,0-1.79-.16-2.66-.21a37.21,37.21,0,0,0-4.09-.2c-1.94,0-3-.26-3,2a1.53,1.53,0,0,0,.25,1c.51.71,5.37,2,6.45,2.35,4,1.33,5.88,2.66,5.88,7.16C333.31,1165.5,330,1166.42,323.69,1166.42Z" transform="translate(0.5 0.5)"/><path class="cls-4" d="M344.91,1137.68H343c-1.84,0-2.71-.25-2.71-2.3v-1.79c0-1.63.66-2.25,2.25-2.25h2.4a2,2,0,0,1,2,2,2.28,2.28,0,0,1,0,.26v1.79C347,1136.81,346.5,1137.68,344.91,1137.68Zm0,28.13H343c-1.84,0-2.71-.26-2.71-2.3v-20c0-1.63.66-2.25,2.25-2.25h2.4a2,2,0,0,1,2,2,2.28,2.28,0,0,1,0,.26v20C347,1164.94,346.5,1165.81,344.91,1165.81Z" transform="translate(0.5 0.5)"/><path class="cls-4" d="M369.57,1166.27a42.08,42.08,0,0,1-4.35.2c-10,0-11.66-3.42-11.66-12.93s1.69-13,11.66-13a42.13,42.13,0,0,1,4.35.25c1.53.16,2.81,0,2.81,1.74v.1c0,1.28,0,4-1.84,4a12.82,12.82,0,0,1-2.05-.2,36.71,36.71,0,0,0-4.8-.41c-2.15,0-2.56.41-3,2.4a24.47,24.47,0,0,0-.41,5.12,40.15,40.15,0,0,0,.2,4.9c.21,2.3,1,2.56,3.23,2.56a37.63,37.63,0,0,0,4.85-.41,14.89,14.89,0,0,1,2-.2,1.42,1.42,0,0,1,1.22.51c.41.41.62,2.86.62,3.48C372.37,1166.17,371.14,1166.06,369.57,1166.27Z" transform="translate(0.5 0.5)"/><path class="cls-4" d="M396.81,1165.81h-2.87c-1.17,0-1.48-.77-1.48-1.84a13.93,13.93,0,0,1-7.56,2.5c-5,0-7.32-2.71-7.32-7.62,0-5.57,3.33-7.46,8.34-8a44,44,0,0,1,6.49-.41c0-2,.31-4.91-2.56-4.91a33.28,33.28,0,0,0-7.36,1.07,5.05,5.05,0,0,1-1.23.15c-1.78,0-1.48-1.79-1.48-3.06a1.89,1.89,0,0,1,1.43-2.15,35.39,35.39,0,0,1,8.39-1c2.45,0,5.57.41,7.31,2.35,2,2.25,1.94,5.42,1.94,8.28v12.43C398.85,1165.09,398.34,1165.81,396.81,1165.81ZM392.46,1155c-.82,0-1.68-.1-2.5-.1a24.79,24.79,0,0,0-3.22.15c-2.15.31-3,1-3,3.22,0,1.23.2,3.43,1.89,3.43a11.59,11.59,0,0,0,6.85-2.56Z" transform="translate(0.5 0.5)"/><path class="cls-4" d="M410.36,1165.81h-1.79c-1.84,0-2.71-.26-2.71-2.3v-30.68c0-1.64.66-2.2,2.25-2.2h2.3a2,2,0,0,1,2,1.86,1.88,1.88,0,0,1,0,.34v30.68C412.35,1164.94,411.94,1165.81,410.36,1165.81Z" transform="translate(0.5 0.5)"/><path class="cls-4" d="M434.85,1166.27a42.08,42.08,0,0,1-4.35.2c-10,0-11.65-3.42-11.65-12.93s1.68-13,11.65-13a42.13,42.13,0,0,1,4.35.25c1.53.16,2.81,0,2.81,1.74v.1c0,1.28,0,4-1.84,4a13.42,13.42,0,0,1-2-.2A38.69,38.69,0,0,0,429,1146c-2.15,0-2.56.41-3,2.4a25.16,25.16,0,0,0-.41,5.12c0,1.63.06,3.27.21,4.9.2,2.3,1,2.56,3.22,2.56a37.63,37.63,0,0,0,4.86-.41,14.89,14.89,0,0,1,2-.2,1.44,1.44,0,0,1,1.23.51c.41.41.61,2.86.61,3.48C437.66,1166.17,436.44,1166.06,434.85,1166.27Z" transform="translate(0.5 0.5)"/><path class="cls-4" d="M455.05,1166.47c-8.54,0-11.76-4.91-11.76-12.93s3.17-13,11.76-13,11.71,4.91,11.71,13S463.64,1166.47,455.05,1166.47Zm4.19-18.87c-.92-1.68-2.46-1.63-4.19-1.63s-3.28,0-4.2,1.63-1,4.15-1,5.94.1,4.34,1,5.93,2.51,1.58,4.2,1.58,3.27,0,4.19-1.58.92-4.2.92-5.93S460.11,1149.19,459.24,1147.6Z" transform="translate(0.5 0.5)"/><path class="cls-4" d="M491.3,1165.81h-2.87c-1.17,0-1.48-.77-1.48-1.84a13.91,13.91,0,0,1-7.57,2.5c-5,0-7.31-2.71-7.31-7.62,0-5.57,3.33-7.46,8.34-8a44,44,0,0,1,6.49-.41c0-2,.31-4.91-2.56-4.91a33.28,33.28,0,0,0-7.36,1.07,5.05,5.05,0,0,1-1.23.15c-1.79,0-1.48-1.79-1.48-3.06a1.89,1.89,0,0,1,1.43-2.15,35.39,35.39,0,0,1,8.39-1c2.45,0,5.57.41,7.31,2.35,2,2.25,1.94,5.42,1.94,8.28v12.43C493.34,1165.09,492.83,1165.81,491.3,1165.81ZM487,1155c-.82,0-1.69-.1-2.5-.1a24.79,24.79,0,0,0-3.22.15c-2.15.31-3,1-3,3.22,0,1.23.2,3.43,1.89,3.43a11.59,11.59,0,0,0,6.85-2.56Z" transform="translate(0.5 0.5)"/><path class="cls-4" d="M515.57,1166.27a42.08,42.08,0,0,1-4.35.2c-10,0-11.66-3.42-11.66-12.93s1.69-13,11.66-13a42.13,42.13,0,0,1,4.35.25c1.53.16,2.81,0,2.81,1.74v.1c0,1.28,0,4-1.84,4a12.82,12.82,0,0,1-2-.2,36.87,36.87,0,0,0-4.81-.41c-2.14,0-2.55.41-3,2.4a24.47,24.47,0,0,0-.41,5.12c0,1.63.05,3.27.2,4.9.21,2.3,1,2.56,3.22,2.56a37.63,37.63,0,0,0,4.86-.41,14.89,14.89,0,0,1,2-.2,1.42,1.42,0,0,1,1.22.51c.41.41.62,2.86.62,3.48C518.4,1166.17,517.17,1166.06,515.57,1166.27Z" transform="translate(0.5 0.5)"/><path class="cls-4" d="M543.3,1165.81h-2.73c-1.48,0-1.84-1-1.84-2.3v-13.09c0-.72.1-3.53-.36-4a2.12,2.12,0,0,0-1.64-.41,11.14,11.14,0,0,0-6.23,2.35v15.19c0,1.43-.41,2.3-2,2.3h-2.71c-1.38,0-1.84-.77-1.84-2v-31c0-1.64.66-2.2,2.25-2.2h2.37a2,2,0,0,1,2,1.86,1.88,1.88,0,0,1,0,.34v9.46a16.09,16.09,0,0,1,6.9-1.74c4.75,0,7.87,2.35,7.87,7.26v15.7C545.29,1164.94,544.88,1165.81,543.3,1165.81Z" transform="translate(0.5 0.5)"/></g></g></g><g id="Lineas"><rect class="cls-5" x="332.18" y="163.44" width="91.91" height="69.45"/><rect class="cls-5" x="330.65" y="979.95" width="91.91" height="69.45"/><line class="cls-6" x1="142.22" y1="232.88" x2="610.99" y2="232.88"/><line class="cls-7" x1="610.99" y1="979.95" x2="142.22" y2="979.95"/><line class="cls-8" x1="142.22" y1="275.27" x2="610.99" y2="275.27"/><line class="cls-8" x1="142.22" y1="938.07" x2="610.99" y2="938.07"/><line class="cls-9" x1="142.22" y1="334.5" x2="610.99" y2="334.5"/><line class="cls-9" x1="610.99" y1="877.82" x2="142.22" y2="877.82"/><polyline class="cls-5" points="330.65 1018.75 142.22 1018.75 142.22 198.67 332.18 198.67"/><path class="cls-5" d="M332.7,1018.26" transform="translate(0.5 0.5)"/><polyline class="cls-5" points="424.1 198.67 610.99 198.67 610.99 1018.75 422.56 1018.75"/><rect class="cls-10" x="516.78" y="183.86" width="79.91" height="22.98"/><rect class="cls-10" x="516.78" y="1007.27" width="79.91" height="22.98"/></g></svg>