<?xml version="1.0" encoding="utf-8"?>
<!-- Generator: Adobe Illustrator 26.5.0, SVG Export Plug-In . SVG Version: 6.00 Build 0)  -->
<svg version="1.1" id="Capa_1" xmlns="http://www.w3.org/2000/svg" xmlns:xlink="http://www.w3.org/1999/xlink" x="0px" y="0px"
	 viewBox="0 0 17.6 17.6" style="enable-background:new 0 0 17.6 17.6;" xml:space="preserve">
<style type="text/css">
	.st0{fill:#050C44;stroke:#050C44;stroke-width:0.25;}
	.st1{fill:#050C44;stroke:#050C44;stroke-width:0.3;}
</style>
<g transform="translate(0.25 0.25)">
	<g transform="translate(0 0)">
		<path class="st0" d="M17.1,10.1V8.4c0-0.1-0.1-0.2-0.3-0.2H11c0,0-0.2,0-0.6,0H0.3C0.1,8.2,0,8.3,0,8.4v1.6h0.5v5.1H0v1.6
			c0,0.1,0.1,0.2,0.3,0.2h16.5c0.2,0,0.3-0.1,0.3-0.2v-1.6h-0.5v-5.1H17.1z M16.5,16.6h-16v-0.9h16V16.6z M1.1,15.2v-5.1h1.4v5.1
			H1.1z M3,15.2v-5.1h1.4v5.1H3z M5,15.2v-5.1h1.4v5.1H5z M6.9,15.2v-5.1h1.4v5.1H6.9z M8.8,15.2v-5.1h1.4v5.1H8.8z M10.7,15.2v-5.1
			h1.4v5.1H10.7z M14.6,11v-0.9H16v5.1h-1.4v-4l-0.6,0v4h-1.4v-5.1H14V11H14.6z M0.5,9.6V8.7h16v0.9H0.5z"/>
		<path class="st0" d="M15.4,5.2c0,0.3-0.1,0.7-0.2,1l0.5,0.2C15.9,6,16,5.6,16,5.2c0-0.3-0.1-0.7-0.3-1c-0.2-0.3-0.2-0.5-0.3-0.8
			c0-0.4,0.2-0.7,0.5-1l-0.2-0.2l-0.2-0.2c-0.4,0.3-0.6,0.8-0.6,1.3c0,0.3,0.1,0.7,0.3,1C15.3,4.6,15.4,4.9,15.4,5.2z"/>
		<path class="st0" d="M13.2,5.4c0,0.4-0.1,0.9-0.2,1.3l0.5,0.2c0.2-0.5,0.3-1,0.3-1.5c0-0.4-0.1-0.8-0.3-1.2
			c-0.2-0.3-0.2-0.7-0.3-1c0-0.4,0.2-0.9,0.5-1.2l-0.2-0.2l-0.2-0.2c-0.4,0.4-0.6,1-0.6,1.6c0,0.4,0.1,0.8,0.3,1.2
			C13.1,4.7,13.2,5.1,13.2,5.4z"/>
		<path class="st0" d="M1.4,5.2c0,0.3-0.1,0.7-0.2,1l0.5,0.2C1.8,6,1.9,5.6,1.9,5.2c0-0.3-0.1-0.7-0.3-1C1.5,4,1.4,3.7,1.4,3.4
			c0-0.4,0.2-0.7,0.5-1L1.6,2.3L1.4,2.1C1.1,2.5,0.8,2.9,0.8,3.4c0,0.3,0.1,0.7,0.3,1C1.3,4.6,1.4,4.9,1.4,5.2z"/>
		<path class="st0" d="M3.6,5.4c0,0.4-0.1,0.9-0.2,1.3l0.5,0.2c0.2-0.5,0.3-1,0.3-1.5C4.1,5,4,4.6,3.8,4.2c-0.2-0.3-0.2-0.7-0.3-1
			C3.6,2.8,3.7,2.3,4,2L3.8,1.8L3.6,1.6C3.3,2.1,3,2.6,3,3.2C3,3.6,3.1,4,3.3,4.4C3.5,4.7,3.6,5.1,3.6,5.4z"/>
	</g>
</g>
<g transform="translate(6.213)">
	<path class="st1" d="M3.8,5.9C4.5,5.2,4.6,4.1,4,3.3C3.3,2.5,2.1,2.5,1.3,3.1c-0.7,0.7-0.9,1.8,0,2.8l0,0C0.2,6.1-0.5,7.1-0.5,8.2
		v0.5h0.5V8.1c0-1,0.8-1.8,1.8-1.8h1.6c1,0,1.8,0.8,1.8,1.8v0.5h0.5V8.2C5.7,7.1,4.9,6.1,3.8,5.9z M2.6,5.8c-0.7,0-1.3-0.6-1.3-1.3
		c0-0.7,0.6-1.3,1.3-1.3c0.7,0,1.3,0.6,1.3,1.3C3.9,5.2,3.3,5.8,2.6,5.8z"/>
</g>
</svg>
