<?xml version="1.0" encoding="utf-8"?>
<!-- Generator: Adobe Illustrator 26.5.0, SVG Export Plug-In . SVG Version: 6.00 Build 0)  -->
<svg version="1.1" id="Capa_1" xmlns="http://www.w3.org/2000/svg" xmlns:xlink="http://www.w3.org/1999/xlink" x="0px" y="0px"
	 viewBox="0 0 20.3 19" style="enable-background:new 0 0 20.3 19;" xml:space="preserve">
<style type="text/css">
	.st0{fill:#050C44;}
</style>
<g transform="translate(0 -16)">
	<path class="st0" d="M19.1,25.6c-0.2-3-1.9-5.7-4.5-7.2h2.2c0.3,0.9,1.3,1.4,2.3,1.1c0.9-0.3,1.4-1.3,1.1-2.3
		c-0.3-0.9-1.3-1.4-2.3-1.1c-0.5,0.2-0.9,0.6-1.1,1.1h-4.9V16H8.4v1.2H3.5c-0.3-0.9-1.3-1.4-2.3-1.1c-0.9,0.3-1.4,1.3-1.1,2.3
		s1.3,1.4,2.3,1.1c0.5-0.2,0.9-0.6,1.1-1.1h2.2c-2.6,1.5-4.3,4.2-4.5,7.2c-0.9,0.3-1.4,1.3-1.1,2.3c0.3,0.9,1.3,1.4,2.3,1.1
		s1.4-1.3,1.1-2.3c-0.2-0.5-0.6-0.9-1.1-1.1c0.2-3.4,2.7-6.2,6-7v1h3.6v-1c3.3,0.8,5.7,3.6,6,7c-0.9,0.3-1.4,1.4-1.1,2.3
		s1.4,1.4,2.3,1.1s1.4-1.4,1.1-2.3C20,26.2,19.6,25.8,19.1,25.6L19.1,25.6z M1.8,27.9c-0.3,0-0.6-0.3-0.6-0.6s0.3-0.6,0.6-0.6
		s0.6,0.3,0.6,0.6l0,0C2.4,27.6,2.1,27.9,1.8,27.9z M18.5,17.2c0.3,0,0.6,0.3,0.6,0.6s-0.3,0.6-0.6,0.6s-0.6-0.3-0.6-0.6l0,0
		C17.9,17.5,18.2,17.2,18.5,17.2C18.5,17.2,18.5,17.2,18.5,17.2L18.5,17.2z M1.8,18.4c-0.3,0-0.6-0.3-0.6-0.6s0.3-0.6,0.6-0.6
		s0.6,0.3,0.6,0.6l0,0C2.4,18.1,2.1,18.4,1.8,18.4z M10.7,18.4H9.5v-1.2h1.2L10.7,18.4z M18.5,27.9c-0.3,0-0.6-0.3-0.6-0.6
		s0.3-0.6,0.6-0.6c0.3,0,0.6,0.3,0.6,0.6l0,0C19.1,27.6,18.8,27.9,18.5,27.9z"/>
	<path class="st0" d="M10.1,20.2l-3.9,6.5C6,27,6,27.5,6.2,27.8L8,31.4H6.6c-0.3,0-0.6,0.3-0.6,0.6v2.3C6,34.7,6.3,35,6.6,35h7.1
		c0.3,0,0.6-0.3,0.6-0.6v-2.3c0-0.3-0.3-0.6-0.6-0.6h-1.4l1.8-3.6c0.2-0.4,0.2-0.8,0-1.1L10.1,20.2z M13.1,33.8H7.2v-1.2h5.9V33.8z
		 M9.3,31.4l-1.8-3.7c-0.1-0.3-0.1-0.6,0-0.9l2-3.4v4.4h1.2v-4.4l2,3.4c0.2,0.3,0.2,0.6,0,0.9L11,31.4H9.3z"/>
</g>
</svg>
