<?xml version="1.0" encoding="utf-8"?>
<!-- Generator: Adobe Illustrator 26.5.0, SVG Export Plug-In . SVG Version: 6.00 Build 0)  -->
<svg version="1.1" id="Capa_1" xmlns="http://www.w3.org/2000/svg" xmlns:xlink="http://www.w3.org/1999/xlink" x="0px" y="0px"
	 viewBox="0 0 21 21" style="enable-background:new 0 0 21 21;" xml:space="preserve">
<style type="text/css">
	.st0{fill:#050C44;stroke:#050C44;stroke-width:0.3;}
</style>
<g transform="translate(0.15 0.15)">
	<g transform="translate(6.213)">
		<path class="st0" d="M5.5,4.3c0.9-0.8,1-2.2,0.2-3.2s-2.3-1-3.2-0.2s-1,2.2-0.2,3.2c0,0.1,0.1,0.1,0.2,0.2
			C1.1,4.5,0.2,5.7,0.2,7.1v1.3c0,0.2,0.1,0.3,0.3,0.3l0,0h7c0.2,0,0.3-0.1,0.3-0.3l0,0V7.1C7.8,5.7,6.9,4.5,5.5,4.3z M2.4,2.6
			C2.4,1.7,3.1,1,4,1s1.6,0.7,1.6,1.6S4.9,4.2,4,4.2l0,0C3.1,4.2,2.4,3.5,2.4,2.6L2.4,2.6z M7.2,8H0.8V7c0-1.2,1-2.2,2.2-2.2h2
			c1.2,0,2.2,1,2.2,2.2V8z"/>
	</g>
	<g transform="translate(0 11.736)">
		<path class="st0" d="M5.5,2.8c0.9-0.8,1-2.2,0.2-3.2s-2.2-1-3.2-0.2s-1,2.2-0.2,3.2c0,0.1,0.1,0.1,0.2,0.2
			C1.1,3.1,0.2,4.3,0.1,5.7V7c0,0.2,0.1,0.3,0.3,0.3l0,0h7c0.2,0,0.3-0.1,0.3-0.3l0,0V5.7C7.8,4.3,6.8,3.1,5.5,2.8z M2.4,1.2
			c0-0.9,0.7-1.6,1.6-1.6s1.6,0.7,1.6,1.6S4.9,2.8,4,2.8S2.4,2.1,2.4,1.2L2.4,1.2z M7.2,6.6H0.8v-1c0-1.2,1-2.2,2.2-2.2h1.9
			c1.2,0,2.2,1,2.2,2.2L7.2,6.6z"/>
	</g>
	<g transform="translate(12.426 11.736)">
		<path class="st0" d="M6,2.8C6.9,2,7,0.6,6.2-0.4S4-1.4,3-0.6S2,1.8,2.8,2.7c0,0.1,0.1,0.1,0.2,0.2C1.6,3.1,0.6,4.3,0.6,5.7V7
			c0,0.2,0.1,0.3,0.3,0.3l0,0h7c0.2,0,0.3-0.1,0.3-0.3l0,0V5.7C8.3,4.3,7.3,3.1,6,2.8z M2.9,1.2c0-0.9,0.7-1.6,1.6-1.6S6,0.3,6,1.2
			S5.3,2.8,4.4,2.8C3.6,2.8,2.9,2.1,2.9,1.2L2.9,1.2z M7.6,6.6H1.3v-1c0-1.2,1-2.2,2.2-2.2h1.9c1.2,0,2.2,1,2.2,2.2L7.6,6.6z"/>
	</g>
	<g transform="translate(1.388 9.629)">
		<path class="st0" d="M0.4-0.3c0,0.2,0,0.5-0.1,0.7l0.7,0C1,0.2,1,0,1.1-0.2L0.4-0.3z"/>
	</g>
	<g transform="translate(4.362 3.562)">
		<path class="st0" d="M0.9-0.3C0.7-0.1,0.5,0,0.3,0.2l0.5,0.5c0.2-0.1,0.3-0.3,0.5-0.4L0.9-0.3z"/>
	</g>
	<g transform="translate(1.953 6.879)">
		<path class="st0" d="M0.6-0.3C0.5-0.1,0.4,0.2,0.3,0.4L1,0.6C1,0.4,1.1,0.2,1.2,0L0.6-0.3z"/>
	</g>
	<g transform="translate(1.557 8.223)">
		<path class="st0" d="M0.5-0.3C0.4-0.1,0.4,0.2,0.3,0.4L1,0.6c0-0.2,0.1-0.4,0.2-0.6L0.5-0.3z"/>
	</g>
	<g transform="translate(3.374 4.521)">
		<path class="st0" d="M0.8-0.3C0.6-0.1,0.5,0.1,0.3,0.3l0.5,0.4C1,0.5,1.1,0.4,1.3,0.2L0.8-0.3z"/>
	</g>
	<g transform="translate(5.502 2.786)">
		<path class="st0" d="M0.9-0.3C0.7-0.2,0.5-0.1,0.3,0.1l0.4,0.6c0.2-0.1,0.4-0.2,0.6-0.3L0.9-0.3z"/>
	</g>
	<g transform="translate(2.564 5.635)">
		<path class="st0" d="M0.7-0.3C0.6-0.1,0.4,0.1,0.3,0.3l0.6,0.3C1,0.5,1.1,0.3,1.3,0.1L0.7-0.3z"/>
	</g>
	<g transform="translate(8.584 18.823)">
		<path class="st0" d="M0.1-0.1L0,0.6c0.2,0,0.5,0.1,0.7,0.1l0.1-0.7C0.6,0,0.3,0,0.1-0.1z"/>
	</g>
	<g transform="translate(11.358 18.819)">
		<path class="st0" d="M0.6-0.1C0.4,0,0.2,0,0,0.1l0.1,0.7c0.2,0,0.5-0.1,0.7-0.1L0.6-0.1z"/>
	</g>
	<g transform="translate(10.008 18.978)">
		<path class="st0" d="M0.7-0.1C0.5,0,0.2,0,0-0.1l0,0.7c0.1,0,0.2,0,0.3,0s0.2,0,0.4,0L0.7-0.1z"/>
	</g>
	<g transform="translate(15.889 4.022)">
		<path class="st0" d="M0.3,0.3l-0.5,0.5C0,0.9,0.2,1.1,0.3,1.2l0.5-0.5C0.7,0.6,0.5,0.4,0.3,0.3z"/>
	</g>
	<g transform="translate(16.801 5.062)">
		<path class="st0" d="M0.4,0.3l-0.5,0.4C0,0.9,0.1,1,0.3,1.2l0.6-0.4C0.7,0.6,0.6,0.4,0.4,0.3z"/>
	</g>
	<g transform="translate(17.549 6.245)">
		<path class="st0" d="M0.5,0.3l-0.6,0.3C0,0.8,0.1,1,0.2,1.2l0.6-0.3C0.7,0.7,0.6,0.5,0.5,0.3z"/>
	</g>
	<g transform="translate(18.113 7.543)">
		<path class="st0" d="M0.5,0.3l-0.6,0.2C-0.1,0.7,0,0.9,0.1,1.1l0.7-0.2C0.7,0.7,0.6,0.5,0.5,0.3z"/>
	</g>
	<g transform="translate(18.477 8.922)">
		<path class="st0" d="M0.5,0.3l-0.7,0.1C-0.1,0.6,0,0.8,0,1.1L0.7,1C0.6,0.7,0.6,0.5,0.5,0.3z"/>
	</g>
	<g transform="translate(14.837 3.151)">
		<path class="st0" d="M0.2,0.3l-0.4,0.6C0.1,1,0.2,1.1,0.4,1.2l0.4-0.5C0.6,0.5,0.4,0.4,0.2,0.3z"/>
	</g>
	<g transform="translate(13.67 2.474)">
		<path class="st0" d="M0.1,0.3l-0.3,0.6C0.1,1,0.3,1.1,0.5,1.2l0.3-0.6C0.6,0.5,0.4,0.4,0.1,0.3z"/>
	</g>
</g>
</svg>
