<?xml version="1.0" encoding="utf-8"?>
<!-- Generator: Adobe Illustrator 26.5.0, SVG Export Plug-In . SVG Version: 6.00 Build 0)  -->
<svg version="1.1" id="Capa_1" xmlns="http://www.w3.org/2000/svg" xmlns:xlink="http://www.w3.org/1999/xlink" x="0px" y="0px"
	 viewBox="0 0 19.2 17.9" style="enable-background:new 0 0 19.2 17.9;" xml:space="preserve">
<style type="text/css">
	.st0{fill:#050C44;stroke:#050C44;stroke-width:0.45;}
	.st1{fill:#050C44;stroke:#050C44;stroke-width:0.2;}
</style>
<g transform="translate(0.099 -17.782)">
	<g transform="translate(0.001 17.916)">
		<path class="st0" d="M14.1,8.1c-0.4-2.2-2.4-3.8-4.7-3.8H9c-0.3,0-0.6,0.2-0.8,0.4C8.1,4.7,8,4.8,7.8,4.8v0c0-0.1,0-0.1,0-0.2v-1
			c0-0.7,0.6-1.3,1.3-1.3c0.2,0,0.3-0.2,0.3-0.3c0-0.2-0.2-0.3-0.3-0.3c0,0,0,0,0,0c-0.7,0-1.3,0.4-1.7,1C7.3,2.3,7.1,2,6.8,1.7
			c-1.3-1.3-3.7-1-3.8-1C2.8,0.8,2.7,0.9,2.7,1c0,0.1-0.4,2.5,0.9,3.8C3.4,5,3.1,5.1,2.9,5.3C2,5.9,1.3,6.8,1,7.9
			c-0.4,1.5,0,2.5,0.4,3.4C2,12.4,1.2,9.8,1.6,8.1C2.2,6.2,4,4.9,6,4.9h0c0.1,0,0.1,0,0.2,0.1l0,0c0.1,0,0.2,0.1,0.2,0.2
			c0.6,0.5,1.5,0.5,2.2,0C8.7,5.1,8.8,5,9,4.9h0c2,0,3.7,1.3,4.4,3.1c-2.4,0.3-4.2,2.5-3.9,4.9c0.1,1,0.6,2,1.4,2.7
			c-0.6,0.4-1.2,0.5-1.9,0.5H8.8c-0.4,0-0.8,0-1.2-0.2c-0.1,0-0.1,0-0.2,0c-0.4,0.1-0.8,0.2-1.2,0.2H6.1c-0.7,0-2.2,0-3.5-2.6
			c-0.4-0.8-0.7-1.7-0.9-2.6c0-0.2-0.3-2-0.5-1.9c-0.2,0-0.4-0.8-0.2,1.7c0,0.3,0.1,0.6,0.1,0.9c0.3,1.2,0.7,2,0.9,2.3
			c1.3,2.7,2.9,3,4.1,3h0.1c0.5,0,0.9,0,1.4-0.2c0.4,0.1,0.8,0.2,1.2,0.2c0.1,0,0.1,0,0.2,0h0.1c0.9,0,1.7-0.2,2.4-0.8
			c0.7,0.5,1.6,0.8,2.5,0.8c2.4,0,4.4-2,4.4-4.5C18.2,10.1,16.4,8.2,14.1,8.1L14.1,8.1z M6.6,4.4L5,2.6c-0.1-0.1-0.3-0.2-0.5,0
			C4.3,2.6,4.3,2.9,4.4,3l1.1,1.3c-0.4,0-0.8,0.1-1.2,0.3c-0.1,0-0.1-0.1-0.2-0.2c-0.7-0.9-0.9-1.9-0.8-3c1.1-0.1,2.1,0.1,3,0.8
			c0.6,0.7,0.9,1.7,0.8,2.6C7.1,4.8,7,4.7,6.9,4.6C6.8,4.6,6.7,4.5,6.6,4.4z M6.1,16.9L6.1,16.9z M8.9,16.9L8.9,16.9z M13.8,16.2
			c-2.1,0-3.8-1.6-3.8-3.7c0-2.1,1.6-3.8,3.7-3.8s3.8,1.6,3.8,3.7c0,0,0,0,0,0C17.5,14.6,15.9,16.2,13.8,16.2L13.8,16.2z"/>
		<path class="st1" d="M15.4,11.3H15v-0.5c0-0.4-0.3-0.8-0.8-0.8h-0.8c-0.4,0-0.8,0.3-0.8,0.8v0.5h-0.5c-0.4,0-0.8,0.3-0.8,0.8v0.8
			c0,0.4,0.3,0.8,0.8,0.8h0.5v0.5c0,0.4,0.3,0.8,0.8,0.8h0.8c0.4,0,0.8-0.3,0.8-0.8v-0.5h0.5c0.4,0,0.8-0.3,0.8-0.8v-0.8
			C16.2,11.7,15.9,11.3,15.4,11.3z M15.5,12.9C15.5,13,15.5,13,15.5,12.9C15.4,13,15.4,13,15.5,12.9L14.6,13c-0.2,0-0.3,0.2-0.3,0.3
			v0.8c0,0,0,0.1-0.1,0.1c0,0,0,0,0,0h-0.8c0,0-0.1,0-0.1-0.1c0,0,0,0,0,0v-0.8c0-0.2-0.2-0.3-0.3-0.3h-0.8c0,0-0.1,0-0.1-0.1
			c0,0,0,0,0,0v-0.8c0,0,0-0.1,0.1-0.1c0,0,0,0,0,0H13c0.2,0,0.3-0.2,0.3-0.3v-0.8c0,0,0-0.1,0.1-0.1c0,0,0,0,0,0h0.8
			c0,0,0.1,0,0.1,0.1c0,0,0,0,0,0v0.8c0,0.2,0.2,0.3,0.3,0.3h0.8c0,0,0.1,0,0.1,0.1c0,0,0,0,0,0V12.9z"/>
	</g>
</g>
</svg>
