<?xml version="1.0" encoding="utf-8"?>
<!-- Generator: Adobe Illustrator 26.5.0, SVG Export Plug-In . SVG Version: 6.00 Build 0)  -->
<svg version="1.1" id="Capa_1" xmlns="http://www.w3.org/2000/svg" xmlns:xlink="http://www.w3.org/1999/xlink" x="0px" y="0px"
	 viewBox="0 0 24.9 22.8" style="enable-background:new 0 0 24.9 22.8;" xml:space="preserve">
<style type="text/css">
	.st0{fill:#050C44;stroke:#050C44;stroke-width:0.3;}
</style>
<g>
	<g transform="translate(6.213)">
		<path class="st0" d="M14.2,11.9c1.7-1.5,1.8-4.1,0.4-5.9c-1.5-1.8-4.2-1.8-5.9-0.4C7,7.1,6.8,9.7,8.3,11.5c0,0.2,0.2,0.2,0.4,0.4
			c-0.4,0.1-0.8,0.2-1.2,0.3c-0.4,0.1-0.7,0.3-1,0.5c-1.2,0.8-1.9,2.2-2.1,3.7c0,0.2,0,0.4,0,0.7v2.4C4.4,19.8,4.6,20,5,20h12.9
			c0.4,0,0.6-0.2,0.6-0.6V17C18.4,14.5,16.8,12.2,14.2,11.9z M8.5,8.7c0-1.7,1.3-3,3-3c1.7,0,3,1.3,3,3c0,1.7-1.3,3-3,3
			c-0.8,0-1.6-0.3-2.1-0.9C8.8,10.3,8.5,9.6,8.5,8.7z M17.3,18.7H5.5v-1.8c0-0.2,0-0.3,0-0.5c0.1-1,0.6-1.9,1.4-2.5
			c0.3-0.3,0.6-0.5,1-0.7c0.5-0.2,1.1-0.4,1.7-0.4h3.7c2.2,0,4.1,1.8,4.1,4.1V18.7z"/>
	</g>
	<g transform="translate(6.213)">
		<path class="st0" d="M7.5,12.2c-0.7-1.4-2-2.4-3.7-2.7c1.7-1.5,1.8-4.1,0.4-5.9S0,1.8-1.7,3.3c-1.7,1.5-1.8,4.1-0.4,5.9
			c0,0.2,0.2,0.2,0.4,0.4c-2.6,0.4-4.3,2.6-4.3,5.2v2.4c0,0.4,0.2,0.6,0.6,0.6H5.5v-0.8c0-0.2,0-0.3,0-0.5H-4.8v-1.8
			c0-2.2,1.8-4.1,4.1-4.1h3.7c1.6,0,3,0.9,3.6,2.2c0.2,0.4,0.3,0.7,0.4,1.1c0.3-0.3,0.6-0.5,1-0.7C7.8,12.8,7.7,12.5,7.5,12.2z
			 M1.1,9.4C0.2,9.4-0.5,9-1,8.5C-1.6,8-1.9,7.2-1.9,6.4c0-1.7,1.3-3,3-3c1.7,0,2.9,1.3,2.9,3C4,8.1,2.7,9.4,1.1,9.4z"/>
	</g>
</g>
</svg>
