<?xml version="1.0" encoding="utf-8"?>
<!-- Generator: Adobe Illustrator 26.5.0, SVG Export Plug-In . SVG Version: 6.00 Build 0)  -->
<svg version="1.1" id="Capa_1" xmlns="http://www.w3.org/2000/svg" xmlns:xlink="http://www.w3.org/1999/xlink" x="0px" y="0px"
	 viewBox="0 0 21.5 18.9" style="enable-background:new 0 0 21.5 18.9;" xml:space="preserve">
<style type="text/css">
	.st0{fill:#050C44;stroke:#050C44;stroke-width:0.6;}
</style>
<g transform="translate(0.25 0.25)">
	<path class="st0" d="M0.8,18.2h3.3c0.2,0,0.3-0.1,0.3-0.3v-5.8c0-0.2-0.2-0.3-0.3-0.3H0.8c-0.2,0-0.3,0.1-0.3,0.3v5.8
		C0.5,18.1,0.7,18.2,0.8,18.2z M1.2,12.4h2.6v5.1H1.2L1.2,12.4z"/>
	<path class="st0" d="M11.3,18.2h3.3c0.2,0,0.3-0.1,0.3-0.3V8.2c0-0.2-0.2-0.3-0.3-0.3h-3.3C11.1,7.9,11,8,11,8.2v9.6
		C11,18.1,11.1,18.2,11.3,18.2z M11.6,8.6h2.6v9h-2.6V8.6z"/>
	<path class="st0" d="M6.1,18.2h3.3c0.2,0,0.3-0.1,0.3-0.3V4.4c0-0.2-0.2-0.3-0.3-0.3H6.1C5.9,4,5.8,4.2,5.7,4.4v13.5
		C5.8,18.1,5.9,18.2,6.1,18.2z M6.4,4.7H9v12.9H6.4V4.7z"/>
	<path class="st0" d="M16.6,18.2h3.3c0.2,0,0.3-0.1,0.3-0.3V0.5c0-0.2-0.2-0.3-0.3-0.3h-3.3c-0.2,0-0.3,0.1-0.3,0.3v17.4
		C16.2,18.1,16.4,18.2,16.6,18.2z M16.9,0.8h2.6v16.7h-2.6V0.8z"/>
</g>
</svg>
