<?xml version="1.0" encoding="utf-8"?>
<!-- Generator: Adobe Illustrator 25.4.1, SVG Export Plug-In . SVG Version: 6.00 Build 0)  -->
<svg version="1.1" id="Capa_1" xmlns="http://www.w3.org/2000/svg" xmlns:xlink="http://www.w3.org/1999/xlink" x="0px" y="0px"
	 viewBox="0 0 278.2 305.5" style="enable-background:new 0 0 278.2 305.5;" xml:space="preserve">
<style type="text/css">
	.st0{fill:none;stroke:#FF3737;stroke-width:7;stroke-miterlimit:10;}
	.st1{fill:none;stroke:#FF3737;stroke-width:7;stroke-linecap:round;stroke-linejoin:round;stroke-miterlimit:10;}
</style>
<g>
	<path class="st0" d="M126.6,60.5c13.6,0.1,24.2,10.5,24.1,23.8c-0.1,13.1-10.9,23.3-24.6,23.3c-13.3-0.1-24.2-10.7-24-23.6
		C102.3,70.7,113.1,60.4,126.6,60.5z"/>
	<path class="st1" d="M26.9,107.6c-3.9,1.9-6.1,5.9-5.9,10"/>
	<g>
		<path class="st0" d="M35.5,115.2l14.7-22.8c0,0,21.1-22.6,26.1-29.2c14.3-18.7,26.1-38.8,28.1-41.5c4.2-5.7,3.2-12.6-2.2-16.2
			c-5.6-3.7-12.2-2.1-16,3.8C85.4,10.5,72.9,28.5,59,51.7c-1.5,2.5-16.7,33.8-18.1,36.2C31.1,104.1,13,132.2,13,132.2l8.2,5.1l1.3-2
			"/>
		<path class="st0" d="M50.1,92.4"/>
		<path class="st0" d="M22.1,147.7c-0.8,0-1.6-0.2-2.4-0.7l-14.1-8.7c-2.1-1.3-2.8-4.1-1.5-6.3c1.3-2.1,4.1-2.8,6.3-1.5l14.1,8.7
			c2.1,1.3,2.8,4.1,1.5,6.3C25.2,146.9,23.7,147.7,22.1,147.7z"/>
	</g>
	<path class="st1" d="M52.8,121.2c7.9-2.7,15.3-4,22.9-3.3c1.8,0.2,2.3,0.9,2.3,2.8c-0.2,8.6-4.1,8.1-9.7,6.5
		c-1.9-0.5-3.8-1.1-5.7-1.7c-0.3-0.1-0.5-0.2-0.8-0.3c-3.2-1-6.4-2.1-10.5-3.5l-15.6-5.5c-6.1-2.2-12.8,1.3-14.5,7.5l0,0
		c-1.6,5.6,1.4,11.5,6.9,13.5c1.7,0.6,3.1,1.2,3.9,1.4c9.4,3.5,18.9,6.8,28.6,9.7c5.4,1.6,10.9,3.3,16.6,1.9c3-0.7,3.8,0.7,4.1,3.3
		c0.5,4.3,1.2,8.6,1.9,12.8c0.9,5.7,3.1,11.5,2.4,17s-3.9,10.8-6.7,15.8C71.2,213,67.8,219,68,240.8c0,9.9,2.1,49.3,2.3,50.1
		c0.9,5.2,3.9,8.7,9,10.3c8.5,2.7,16.7-3.5,16.8-13.1c0.2-12.3,0-47.8,0.1-60.1c0-1.8,0-3.6,0.8-5.3c2.9-6.5,5.9-12.9,8.7-19.4
		c0.8-1.8,1.9-2.4,4-2.1c2.8,0.5,5.8,0.6,8.6-0.1c2.8-0.7,4,0.1,4.5,3c0.7,4.4,1.8,8.7,2.4,13.1c1,8,3.8,15.3,7.8,22.3
		c6,10.8,25.6,43.1,31.4,54c3.3,6.1,8.1,8.9,13.6,8.2c9.5-1.2,14.4-10.6,9.8-19.5c-6.3-12.3-26.9-45.7-33.3-57.9
		c-1-1.9-2.1-3.8-2.5-5.9c-5.7-30.2-11.2-60.5-15.3-91c-0.9-6.9-0.9-6.9-7.9-6.5c-0.2,0-0.5,0-0.7,0c-15.7,0-27.2-6.9-34-21.2
		c-0.7-1.4-1.1-3.1-3-3.2c-8.5-0.7-17-2-25.5-1.2c-0.3,0-0.6,0.1-0.9,0.1c-4.5,0.5-8.9,1.6-13.3,2.7c-0.3,0.1-0.6,0.2-0.9,0.2
		c-0.6,0.2-1.6,0.5-2.8,0.8"/>
</g>
<polyline class="st1" points="150.6,197.1 209.4,196.9 209.4,214.2 274.7,167.8 209.4,121.3 209.4,138.6 140.9,138.3 "/>
</svg>
