<?xml version="1.0" encoding="utf-8"?>
<!-- Generator: Adobe Illustrator 25.4.1, SVG Export Plug-In . SVG Version: 6.00 Build 0)  -->
<svg version="1.1" id="Iconos" xmlns="http://www.w3.org/2000/svg" xmlns:xlink="http://www.w3.org/1999/xlink" x="0px" y="0px"
	 viewBox="0 0 38.3 23.4" style="enable-background:new 0 0 38.3 23.4;" xml:space="preserve">
<style type="text/css">
	.st0{enable-background:new    ;}
	.st1{fill:#FF3737;}
</style>
<g class="st0">
	<path class="st1" d="M15.1,21.5c-1.6,1.7-4,1.9-6.2,1.9H2.1c-1.3,0-2.1-0.5-2.1-1.9V1.8C0,0.4,0.9,0,2.1,0h5.2
		c1.7,0,3.9-0.1,5.4,0.6c2.2,1.1,2.9,3.3,2.9,5.6c0,1.6-0.3,3.2-1.5,4.4c2.2,1.2,2.7,3.3,2.7,5.6C16.8,18.1,16.4,20.1,15.1,21.5z
		 M10,5.1C9.7,4.5,9.1,4.5,8.5,4.5c-1,0-2,0-3,0v5.1H7c2.6,0,3.4-0.1,3.4-3C10.3,6.2,10.3,5.5,10,5.1z M10.3,14.2
		C9.3,14,8.2,14,7.2,14H5.5v4.9c0.5,0,1,0,1.5,0h0.8c2.2,0,3.5,0,3.5-2.6C11.3,15.3,11.3,14.5,10.3,14.2z"/>
	<path class="st1" d="M35,15.3c-2.2,1-5.7,0.8-8.1,0.8v5.4c0,2.2-1.8,1.9-3.4,1.9c-1.3,0-2.1-0.5-2.1-1.9V1.8c0-1.4,0.9-1.8,2.1-1.8
		h6.5c2.5,0,4.4-0.1,6.3,1.7c1.6,1.6,1.9,4.4,1.9,6.6C38.3,11.1,37.8,14,35,15.3z M26.9,4.7v6.8h3.8c0.5,0,1.4,0,1.8-0.5
		c0.3-0.5,0.3-1.9,0.3-2.5c0-0.8,0.1-3.2-0.7-3.6c-0.4-0.2-1.6-0.2-2.2-0.2C28.9,4.7,27.9,4.7,26.9,4.7z"/>
</g>
</svg>
