<svg id="Iconos" xmlns="http://www.w3.org/2000/svg" viewBox="0 0 39.07865 43.38303"><defs><style>.cls-1,.cls-2,.cls-3,.cls-4,.cls-5,.cls-6,.cls-7,.cls-8{fill:none;}.cls-1,.cls-2,.cls-3,.cls-5,.cls-6,.cls-7,.cls-8{stroke:#ff3737;}.cls-1,.cls-3,.cls-4,.cls-5,.cls-6,.cls-7,.cls-8{stroke-miterlimit:10;}.cls-2,.cls-6{stroke-linecap:round;}.cls-2{stroke-linejoin:round;}.cls-3{stroke-width:0.25px;}.cls-4{stroke:#00e9c5;}.cls-4,.cls-8{stroke-width:0.3058px;}.cls-5{stroke-width:0.9174px;}.cls-6{stroke-width:1.25px;}.cls-7{stroke-width:0.16px;}.cls-9{fill:#ff3737;}</style></defs><circle class="cls-1" cx="14.74109" cy="16.87816" r="2.3"/><path class="cls-2" d="M19.04109,41.27816h0a3.38289,3.38289,0,0,0,3.9-1l3.8-5a3.561,3.561,0,0,0,.7-2.4l-.6-4.8a11.31884,11.31884,0,0,0-1.9-5.3l-3.042-4.56307a.81829.81829,0,0,1-.13469-.52074l.797-9.72289c.1-.8-.15557-1.7999-.95557-1.7999h0c-1.331-.39294-1.76465.59122-1.86465,1.39122L18.66282,18.26337a.81809.81809,0,0,1-.14642.39093L13.92084,25.142a.81827.81827,0,0,1-.98526.28118L9.74109,24.07816a1.35639,1.35639,0,0,0-1.79251.683l-.00749.017h0a1.35639,1.35639,0,0,0,.683,1.79251l.017.00749,4.2,1.7a1.885,1.885,0,0,0,2.4-.7l1.95117-2.57555a.81819.81819,0,0,1,1.21189-.10284l.93694.87839a3.72144,3.72144,0,0,1,1.2,2.5l.28388,4.73142a.81822.81822,0,0,1-.1303.4943l-4.65358,7.17427a1.52768,1.52768,0,0,0,.4,2h0a1.42352,1.42352,0,0,0,1.9-.4l5.3-7.9a3.35264,3.35264,0,0,0,.6-2.4l-.3-2.9"/><path class="cls-3" d="M22.96172.80163a1.69707,1.69707,0,0,1-2.71185,2.0411h0"/><path class="cls-3" d="M20.24986,2.84273A1.69708,1.69708,0,0,1,22.96171.80162"/><path class="cls-3" d="M23.14817,2.3428l-1.512.69553c-.83408.18526-1.79871-1.56674-.69672-2.21914l1.484-.49746"/><path class="cls-4" d="M8.13485,31.13849"/><path class="cls-4" d="M5.75443,26.62388"/><path class="cls-5" d="M6.67568,11.35058c1.03693,2.41617.52025,4.84882-1.01729,5.50868a2.90672,2.90672,0,0,1-1.89883-.03045A5.54944,5.54944,0,0,1,.96472,13.80149C.00629,11.41665.44444,8.95266,1.982,8.29283S5.71727,8.96573,6.67568,11.35058Z"/><path class="cls-5" d="M3.24066,16.53309c.17273.251,2.65314.42017,4.67988,5.14275,0,0-1.57978-4.5518-.765-7.04733"/><line class="cls-6" x1="7.82627" y1="21.45618" x2="9.35032" y2="25.15893"/><line class="cls-7" x1="0.50104" y1="10.69296" x2="4.75291" y2="8.93326"/><line class="cls-7" x1="0.6679" y1="9.93116" x2="4.07252" y2="8.47004"/><line class="cls-7" x1="0.45476" y1="11.47109" x2="5.28712" y2="9.39725"/><line class="cls-7" x1="0.5245" y1="12.19855" x2="5.87464" y2="9.96751"/><line class="cls-7" x1="0.66612" y1="12.95423" x2="6.34574" y2="10.58179"/><line class="cls-7" x1="0.87019" y1="13.62172" x2="6.65964" y2="11.20215"/><line class="cls-7" x1="1.12811" y1="14.26242" x2="6.80774" y2="11.88999"/><line class="cls-7" x1="1.60501" y1="14.86004" x2="7.06498" y2="12.58187"/><line class="cls-7" x1="2.18613" y1="15.43847" x2="7.01848" y2="13.36462"/><line class="cls-7" x1="2.58519" y1="16.10964" x2="7.16655" y2="14.20853"/><line class="cls-7" x1="4.52971" y1="9.11023" x2="7.12386" y2="15.12594"/><line class="cls-7" x1="3.04312" y1="7.98307" x2="6.9078" y2="16.53375"/><line class="cls-7" x1="2.26501" y1="8.07135" x2="6.0512" y2="16.59067"/><line class="cls-7" x1="1.66705" y1="8.8263" x2="5.20181" y2="16.60818"/><line class="cls-7" x1="0.39307" y1="9.75729" x2="3.56654" y2="16.84886"/><path class="cls-8" d="M6.9539,14.49424"/><path class="cls-8" d="M4.87606,9.636"/><line class="cls-7" x1="1.10025" y1="9.41483" x2="4.635" y2="17.19672"/><line class="cls-7" x1="3.37136" y1="16.63204" x2="6.96674" y2="15.14008"/><path class="cls-9" d="M31.116,16.77873h-.8c-.3,0-.5,0-.6-.3l-1.1-1.5-1.1,1.6a1.44524,1.44524,0,0,1-.7.2h-.8c-.3,0-.6-.1-.6-.5,0-.2.3-.5.4-.7l1.6-1.9-1.4-1.9c-.1-.2-.4-.5-.4-.8,0-.6.9-.5,1.2-.5.5,0,.7.1.9.5l.8,1.2.8-1.2c.5-.7.8-.5,1.6-.5.3,0,.6.1.6.5,0,.2-.3.6-.4.8l-1.5,1.8,1.8,2.2a.76383.76383,0,0,1,.2.5C31.716,16.67873,31.416,16.77873,31.116,16.77873Z"/><path class="cls-9" d="M38.416,16.77873h-4.7c-.8,0-.7-.5-.7-1.1,0-.5.5-.9.8-1.2l1.2-1.2.9-.9a3.61852,3.61852,0,0,0,1-1.8c0-.7-.2-.8-.8-.8a5.7011,5.7011,0,0,0-1.3.1c-.2,0-.5.1-.7.1-.6,0-.6-.6-.6-1v-.1c0-.4.3-.6.7-.6a15.02872,15.02872,0,0,1,2-.2c1.5,0,2.8.5,2.8,2.3,0,2.2-1.9,3.6-3.4,4.9.9,0,1.8-.1,2.7-.1.8,0,.7.5.7,1.1C39.216,16.57873,38.916,16.77873,38.416,16.77873Z"/></svg>