<svg id="Iconos" xmlns="http://www.w3.org/2000/svg" viewBox="0 0 35.10155 43.38353"><defs><style>.cls-1,.cls-2,.cls-3,.cls-4,.cls-5,.cls-6,.cls-7{fill:none;stroke:#00e9c5;}.cls-1,.cls-3,.cls-4,.cls-5,.cls-6,.cls-7{stroke-miterlimit:10;}.cls-2,.cls-6{stroke-linecap:round;}.cls-2{stroke-linejoin:round;}.cls-3{stroke-width:0.25px;}.cls-4{stroke-width:0.3058px;}.cls-5{stroke-width:0.9174px;}.cls-6{stroke-width:1.25px;}.cls-7{stroke-width:0.16px;}.cls-8{isolation:isolate;}.cls-9{fill:#00e9c5;}</style></defs><circle class="cls-1" cx="14.74109" cy="16.87543" r="2.3"/><path class="cls-2" d="M19.04109,41.27543h0a3.38287,3.38287,0,0,0,3.9-1l3.8-5a3.561,3.561,0,0,0,.7-2.4l-.6-4.8a11.3188,11.3188,0,0,0-1.9-5.3l-3.042-4.56307a.81826.81826,0,0,1-.13469-.52074l.797-9.72289c.1-.8-.15557-1.7999-.95557-1.7999h0c-1.331-.39294-1.76465.59122-1.86465,1.39122l-1.07836,10.7006a.81824.81824,0,0,1-.14642.39093L13.92084,25.1393a.81827.81827,0,0,1-.98526.28118L9.74109,24.07543a1.35638,1.35638,0,0,0-1.8.7h0a1.35638,1.35638,0,0,0,.7,1.8l4.2,1.7a1.885,1.885,0,0,0,2.4-.7l1.95117-2.57555a.81827.81827,0,0,1,1.21189-.10284l.93694.87839a3.72146,3.72146,0,0,1,1.2,2.5l.28388,4.73142a.81825.81825,0,0,1-.1303.49431l-4.65358,7.17427a1.52768,1.52768,0,0,0,.4,2h0a1.42352,1.42352,0,0,0,1.9-.4l5.3-7.9a3.35265,3.35265,0,0,0,.6-2.4l-.3-2.9"/><path class="cls-3" d="M22.96172.7989A1.69706,1.69706,0,0,1,20.24987,2.84"/><path class="cls-3" d="M20.24986,2.84A1.69706,1.69706,0,0,1,22.96171.79889"/><path class="cls-3" d="M23.14817,2.34007l-1.512.69553c-.83408.18526-1.79871-1.56674-.69672-2.21914L22.4235.319"/><path class="cls-4" d="M8.13485,31.13576"/><path class="cls-4" d="M5.75443,26.62115"/><path class="cls-5" d="M6.67568,11.34785c1.03693,2.41617.52025,4.84882-1.01729,5.50868a2.90672,2.90672,0,0,1-1.89883-.03045A5.54941,5.54941,0,0,1,.96472,13.79876C.00629,11.41392.44444,8.94993,1.982,8.2901S5.71727,8.963,6.67568,11.34785Z"/><path class="cls-5" d="M3.24066,16.53036c.17273.251,2.65314.42017,4.67988,5.14275,0,0-1.57978-4.5518-.765-7.04733"/><line class="cls-6" x1="7.82627" y1="21.45345" x2="9.35032" y2="25.1562"/><line class="cls-7" x1="0.50104" y1="10.69023" x2="4.75291" y2="8.93053"/><line class="cls-7" x1="0.6679" y1="9.92843" x2="4.07252" y2="8.46731"/><line class="cls-7" x1="0.45476" y1="11.46836" x2="5.28712" y2="9.39452"/><line class="cls-7" x1="0.5245" y1="12.19582" x2="5.87464" y2="9.96478"/><line class="cls-7" x1="0.66612" y1="12.9515" x2="6.34574" y2="10.57906"/><line class="cls-7" x1="0.87019" y1="13.61899" x2="6.65964" y2="11.19942"/><line class="cls-7" x1="1.12811" y1="14.25969" x2="6.80774" y2="11.88726"/><line class="cls-7" x1="1.60501" y1="14.85731" x2="7.06498" y2="12.57914"/><line class="cls-7" x1="2.18613" y1="15.43574" x2="7.01848" y2="13.36189"/><line class="cls-7" x1="2.58519" y1="16.10691" x2="7.16655" y2="14.2058"/><line class="cls-7" x1="4.52971" y1="9.1075" x2="7.12386" y2="15.12321"/><line class="cls-7" x1="3.04312" y1="7.98034" x2="6.9078" y2="16.53102"/><line class="cls-7" x1="2.26501" y1="8.06862" x2="6.0512" y2="16.58794"/><line class="cls-7" x1="1.66705" y1="8.82357" x2="5.20181" y2="16.60545"/><line class="cls-7" x1="0.39307" y1="9.75456" x2="3.56654" y2="16.84613"/><path class="cls-4" d="M6.9539,14.49151"/><path class="cls-4" d="M4.87606,9.63324"/><line class="cls-7" x1="1.10025" y1="9.4121" x2="4.635" y2="17.19399"/><line class="cls-7" x1="3.37136" y1="16.62931" x2="6.96674" y2="15.13735"/><g class="cls-8"><path class="cls-9" d="M34.36093,16.776H33.716c-.6449,0-1.048-.16122-1.048-.88673V8.473a4.54486,4.54486,0,0,1-.96734.32244c-.64489,0-.72551-.56428-.72551-1.12856a.79872.79872,0,0,1,.6449-.88673A6.37128,6.37128,0,0,1,34.28032,5.974a.7616.7616,0,0,1,.80611.80611v9.02849Q35.20735,16.77594,34.36093,16.776Z"/></g></svg>