<?xml version="1.0" encoding="utf-8"?>
<!-- Generator: Adobe Illustrator 25.4.1, SVG Export Plug-In . SVG Version: 6.00 Build 0)  -->
<svg version="1.1" id="Capa_1" xmlns="http://www.w3.org/2000/svg" xmlns:xlink="http://www.w3.org/1999/xlink" x="0px" y="0px"
	 viewBox="0 0 24.9 37.1" style="enable-background:new 0 0 24.9 37.1;" xml:space="preserve">
<style type="text/css">
	.st0{fill:#FF3737;}
</style>
<g transform="translate(-84.251)">
	<path class="st0" d="M106.8,18c-1-1.1-2.4-2-3.8-2.4c1-1.3,1.5-2.9,1.5-4.5V7.7c0-4.3-3.5-7.7-7.7-7.7S89,3.5,89,7.7V11
		c0,1.6,0.5,3.2,1.5,4.5c-3.7,1.2-6.2,4.6-6.2,8.5v8.7h2.2v4.3h22.7v-13C109.2,21.8,108.3,19.7,106.8,18L106.8,18z M91.2,11V8.8
		h11.1V11c0,3.1-2.5,5.5-5.5,5.5C93.6,16.6,91.2,14.1,91.2,11z M100.9,4.1c0.6,0.7,1.1,1.6,1.2,2.5h-7L100.9,4.1z M96.7,2.2
		c0.7,0,1.5,0.1,2.2,0.4l-7.4,3.3C92.2,3.7,94.3,2.2,96.7,2.2z M86.4,24.1c0-3.2,2.2-6,5.4-6.6l3.5,13.1h-8.9V24.1z M96.8,27.7h4.4
		c0.8,0,1.5,0.6,1.5,1.4c0,0.8-0.6,1.5-1.4,1.5c0,0,0,0,0,0h-3.6L96.8,27.7z M107,35H88.6v-2.2h12.6c2,0,3.6-1.6,3.6-3.6
		s-1.6-3.6-3.6-3.6h-5l-1.9-7.2c2.3,0.8,4.8,0.4,6.8-1c3.4,0.5,5.9,3.3,5.9,6.7L107,35z"/>
</g>
</svg>
