<svg id="Iconos" xmlns="http://www.w3.org/2000/svg" viewBox="0 0 41.74514 42.63986"><defs><style>.cls-1,.cls-2,.cls-3,.cls-4,.cls-5,.cls-6{fill:none;stroke:#ff3737;}.cls-1,.cls-2,.cls-5{stroke-linecap:round;}.cls-1{stroke-linejoin:round;}.cls-2,.cls-3,.cls-4,.cls-5,.cls-6{stroke-miterlimit:10;}.cls-2{stroke-width:0.5px;}.cls-3{stroke-width:0.25px;}.cls-4{stroke-width:0.75px;}.cls-6{stroke-width:0.16px;}</style></defs><circle class="cls-1" cx="20.05" cy="3.9" r="3.4"/><path class="cls-1" d="M18.95,30.27949V24.8l7.1,5.6,3.7,10.1a2.43389,2.43389,0,0,0,3.13258,1.42638q.03392-.01269.06742-.02638h0a2.36063,2.36063,0,0,0,1.4318-3.01582q-.01509-.04239-.0318-.08418l-3.4-9a8.56061,8.56061,0,0,0-2.3-3.3l-4.8-4.1.1-7.2,4.7,4.5.1,4.3a2.21953,2.21953,0,0,0,2.2,2.2h0a2.20765,2.20765,0,0,0,2.20839-2.20694q0-.09666-.00839-.19306l-.4-5a3.33625,3.33625,0,0,0-1.1-2.2l-4.3-4.3a10.096,10.096,0,0,0-5.5-2.6l-1-.1a9.23047,9.23047,0,0,0-3.7.1h0a9.85877,9.85877,0,0,0-4.6,2.2l-2,1.7-5.8-3.4a2.10221,2.10221,0,0,0-2.6.4h0a2.06933,2.06933,0,0,0,.5,3.1l5.5,3.8a3.9004,3.9004,0,0,0,4.6-.1l1.8-1.4-.7,16.3-5.2,6.1a2.24883,2.24883,0,0,0,.2631,3.16943L8.95,41.6h0a2.21324,2.21324,0,0,0,3.1-.2l2.1-2.2"/><path class="cls-2" d="M1.25,15.6a21.07667,21.07667,0,0,0,9.5,17.2"/><path class="cls-2" d="M.25,18.7a20.601,20.601,0,0,0,2.2,6.9"/><path class="cls-2" d="M2.95,19.1a21.21877,21.21877,0,0,0,4.8,9.3"/><path class="cls-3" d="M36.12544,29.84886"/><path class="cls-3" d="M36.12544,29.84886"/><line class="cls-2" x1="36.82546" y1="31.5488" x2="34.52547" y2="32.7488"/><line class="cls-2" x1="36.32546" y1="32.8488" x2="34.72545" y2="33.7488"/><line class="cls-2" x1="35.92546" y1="30.94881" x2="34.62547" y2="31.64881"/><path class="cls-3" d="M38.72544,31.54885a1.69706,1.69706,0,0,1,2.39579-2.40421l.00421.00422"/><path class="cls-3" d="M41.12544,29.14886a1.69706,1.69706,0,0,1-2.4,2.4"/><path class="cls-3" d="M38.22544,29.94885l1.4-.9c.8-.3,2,1.3,1,2.1l-1.4.7"/><g id="RAqueta"><path class="cls-4" d="M16.91884,31.74766c2.70494-2.12141,6.10427-2.41686,7.50518-.658a3.49355,3.49355,0,0,1,.62821,2.57257,7.15586,7.15586,0,0,1-2.95662,4.66788c-2.66486,2.2547-6.06419,2.55014-7.50518.658S14.254,34.00236,16.91884,31.74766Z"/><path class="cls-4" d="M25.05223,33.66223c.18642-.34674-.57508-2.87923,4.79472-7.25534,0,0-4.90375,3.50928-8.38323,3.53814"/><line class="cls-5" x1="29.62045" y1="26.62034" x2="29.62045" y2="26.62034"/><line class="cls-6" x1="18.12397" y1="40.1057" x2="14.21483" y2="35.3222"/><line class="cls-6" x1="17.01758" y1="40.29305" x2="13.82893" y2="36.45561"/><line class="cls-6" x1="19.05699" y1="39.82515" x2="14.6408" y2="34.32207"/><line class="cls-6" x1="20.25659" y1="39.46444" x2="15.37343" y2="33.37507"/><line class="cls-6" x1="21.28282" y1="39.01053" x2="15.97277" y2="32.46816"/><line class="cls-6" x1="22.13569" y1="38.4634" x2="16.82563" y2="31.92103"/><line class="cls-6" x1="22.81519" y1="37.82306" x2="17.63842" y2="31.24061"/><line class="cls-6" x1="23.4546" y1="37.04943" x2="18.53136" y2="30.82677"/><line class="cls-6" x1="23.8405" y1="35.91601" x2="19.4243" y2="30.41293"/><line class="cls-6" x1="24.51999" y1="35.27567" x2="20.35733" y2="30.13238"/><line class="cls-6" x1="14.20672" y1="37.94766" x2="23.01408" y2="30.50314"/><line class="cls-6" x1="14.63555" y1="38.74083" x2="24.2557" y2="30.61588"/><line class="cls-6" x1="15.0574" y1="39.57439" x2="24.67755" y2="31.44945"/><line class="cls-6" x1="16.00133" y1="39.84555" x2="24.84877" y2="32.53432"/><line class="cls-6" x1="17.19349" y1="40.25824" x2="25.18807" y2="33.49413"/><line class="cls-6" x1="18.86677" y1="40.00763" x2="24.64949" y2="35.07133"/><line class="cls-6" x1="13.72267" y1="37.06893" x2="22.39674" y2="29.66448"/><line class="cls-6" x1="14.34811" y1="35.28212" x2="20.35733" y2="30.13238"/></g><line class="cls-6" x1="24.90497" y1="34.16099" x2="21.6324" y2="30.11748"/><line class="cls-2" x1="30.62314" y1="26.40689" x2="29.32316" y2="27.10689"/></svg>