<?xml version="1.0" encoding="utf-8"?>
<!-- Generator: Adobe Illustrator 25.4.1, SVG Export Plug-In . SVG Version: 6.00 Build 0)  -->
<svg version="1.1" id="Iconos" xmlns="http://www.w3.org/2000/svg" xmlns:xlink="http://www.w3.org/1999/xlink" x="0px" y="0px"
	 viewBox="0 0 35.3 34.5" style="enable-background:new 0 0 35.3 34.5;" xml:space="preserve">
<style type="text/css">
	.st0{fill:#00E9C5;}
	.st1{fill:none;stroke:#00E9C5;stroke-miterlimit:10;}
</style>
<path class="st0" d="M0.8,19.8h22.8c0.5,0,0.8,0.4,0.8,0.8l0,0c0,0.5-0.4,0.8-0.8,0.8H0.8C0.3,21.4,0,21,0,20.6l0,0
	C-0.1,20.2,0.3,19.8,0.8,19.8z"/>
<path class="st0" d="M27.1,19.8h7.4c0.5,0,0.8,0.4,0.8,0.8l0,0c0,0.5-0.4,0.8-0.8,0.8h-7.4c-0.5,0-0.8-0.4-0.8-0.8l0,0
	C26.2,20.2,26.6,19.8,27.1,19.8z"/>
<path class="st0" d="M6.7,17.9c-0.1,0-0.1,0-0.2,0l-3-1.1c-0.3-0.1-0.4-0.4-0.3-0.6c0.1-0.3,0.4-0.4,0.6-0.3l0,0l3,1.1
	c0.2,0.1,0.4,0.4,0.3,0.6C7.1,17.8,7,17.9,6.7,17.9z"/>
<path class="st0" d="M2,16.2H1.8l-1.4-0.5c-0.3-0.1-0.4-0.4-0.3-0.6s0.4-0.4,0.6-0.3l1.4,0.5c0.3,0.1,0.4,0.4,0.3,0.6
	C2.4,16.1,2.2,16.2,2,16.2z"/>
<path class="st0" d="M8.9,17c-0.1,0-0.2,0-0.3-0.1l-3.8-2.7c-0.2-0.2-0.3-0.5-0.1-0.7s0.5-0.3,0.7-0.1l3.8,2.7
	c0.2,0.2,0.3,0.5,0.1,0.7C9.2,16.9,9.1,17,8.9,17z"/>
<path class="st0" d="M3.6,13.1c-0.1,0-0.2,0-0.3-0.1l-1.9-1.4c-0.2-0.2-0.3-0.5-0.1-0.7s0.5-0.3,0.7-0.1l1.9,1.4
	c0.2,0.2,0.3,0.5,0.1,0.7C3.9,13.1,3.8,13.1,3.6,13.1z"/>
<path class="st0" d="M8.3,14.2c-0.1,0-0.3-0.1-0.4-0.2l-1.6-1.8c-0.2-0.2-0.2-0.5,0-0.7s0.5-0.2,0.7,0l0,0l1.6,1.8
	c0.2,0.2,0.2,0.5,0,0.7l0,0C8.6,14.2,8.5,14.2,8.3,14.2z"/>
<path class="st0" d="M5.8,11.3c-0.1,0-0.3-0.1-0.4-0.2L4.2,9.7C4,9.5,4,9.2,4.2,9l0,0c0.2-0.2,0.5-0.2,0.7,0l1.2,1.5
	c0.2,0.2,0.2,0.5,0,0.7C6.1,11.3,5.9,11.3,5.8,11.3z"/>
<path class="st0" d="M28.4,18c-0.2,0-0.4-0.1-0.5-0.3c-0.1-0.3,0-0.5,0.3-0.6l3-1.1c0.3-0.1,0.5,0,0.6,0.3l0,0
	c0.1,0.3,0,0.5-0.3,0.6L28.4,18C28.5,18,28.4,18,28.4,18z"/>
<path class="st0" d="M33.1,16.3c-0.2,0-0.4-0.1-0.5-0.3c-0.1-0.3,0-0.5,0.3-0.6l1.4-0.5c0.3-0.1,0.5,0.1,0.6,0.3
	c0.1,0.3,0,0.5-0.3,0.6L33.1,16.3L33.1,16.3z"/>
<path class="st0" d="M26.2,17.1c-0.2,0-0.3-0.1-0.4-0.2c-0.2-0.2-0.1-0.5,0.1-0.7l3.8-2.7c0.2-0.2,0.5-0.1,0.7,0.1s0.1,0.5-0.1,0.7
	L26.5,17C26.4,17,26.3,17.1,26.2,17.1z"/>
<path class="st0" d="M31.5,13.2c-0.2,0-0.3-0.1-0.4-0.2c-0.2-0.2-0.1-0.5,0.1-0.7l1.9-1.4c0.2-0.2,0.5-0.1,0.7,0.1s0.1,0.5-0.1,0.7
	l0,0l-1.9,1.4C31.7,13.2,31.6,13.2,31.5,13.2z"/>
<path class="st0" d="M26.8,14.3c-0.1,0-0.2,0-0.3-0.1c-0.2-0.2-0.2-0.5,0-0.7l0,0l1.5-1.8c0.2-0.2,0.5-0.2,0.7-0.1l0,0
	c0.2,0.2,0.2,0.5,0,0.7l-1.6,1.8C27,14.3,26.9,14.3,26.8,14.3z"/>
<path class="st0" d="M29.3,11.4c-0.1,0-0.2,0-0.3-0.1c-0.2-0.2-0.2-0.5,0-0.7l1.2-1.4c0.2-0.2,0.5-0.2,0.7,0s0.2,0.5,0.1,0.7l0,0
	l-1.2,1.4C29.6,11.4,29.5,11.4,29.3,11.4z"/>
<g>
	<path class="st0" d="M13.9,34.5h-0.6c-0.7,0-1-0.1-1-0.9v-7.4c-0.2,0.1-0.8,0.3-1,0.3c-0.7,0-0.7-0.6-0.7-1.1s0.2-0.7,0.6-0.9
		c0.9-0.4,1.7-0.8,2.7-0.8c0.5,0,0.8,0.3,0.8,0.8v9C14.8,34.1,14.5,34.5,13.9,34.5z"/>
</g>
<g>
	<path class="st0" d="M24.5,30.7c-1,0.5-2.6,0.4-3.7,0.4v2.5c0,1-0.8,0.9-1.6,0.9c-0.6,0-1-0.2-1-0.9v-9c0-0.6,0.4-0.8,1-0.8h3
		c1.1,0,2,0,2.9,0.8c0.8,0.8,0.9,2,0.9,3C26,28.7,25.7,30.1,24.5,30.7z M20.8,25.8v3.1h1.7c0.2,0,0.6,0,0.8-0.2s0.2-0.9,0.2-1.1
		c0-0.4,0-1.5-0.3-1.6c-0.2-0.1-0.8-0.1-1-0.1C21.7,25.8,21.2,25.8,20.8,25.8z"/>
</g>
<g id="Pelota">
	<circle class="st1" cx="17.5" cy="9.1" r="8.6"/>
	<path class="st1" d="M22.2,1.9l-7.8,1.9C7.8,5.7,10,17.7,18.1,14.6l7.8-3.6"/>
</g>
</svg>
