<svg id="Iconos" xmlns="http://www.w3.org/2000/svg" viewBox="0 0 45.64026 41.39364"><defs><style>.cls-1,.cls-2,.cls-3,.cls-4,.cls-5{fill:none;stroke:#00e9c5;}.cls-1,.cls-5{stroke-linecap:round;}.cls-1{stroke-linejoin:round;}.cls-2,.cls-3,.cls-4,.cls-5{stroke-miterlimit:10;}.cls-2{stroke-width:0.9174px;}.cls-3{stroke-width:0.16px;}.cls-4{stroke-width:0.3058px;}.cls-5{stroke-width:1.25px;}</style></defs><circle class="cls-1" cx="17.15366" cy="4.5" r="4"/><path class="cls-1" d="M24.35366,28.4l-5.1,3.5-3.3,7.4a2.55656,2.55656,0,0,1-2.9,1.4h0a2.49592,2.49592,0,0,1-1.6-3.5l2.5-5.5a10.90776,10.90776,0,0,1,.6-1.1"/><path class="cls-1" d="M19.15366,26.9l4.7-3.4-5.3-4.8.5,12.1a2.11981,2.11981,0,0,1-2,2.2h0a2.21878,2.21878,0,0,1-2.3-2.1l-.5-15.7a3.72807,3.72807,0,0,1,1.7-3.2h0a13.38858,13.38858,0,0,1,8-2.1l1.2.1a3.86546,3.86546,0,0,1,2.1.8l7.6,6.1a6.94139,6.94139,0,0,1,2.2,3.4l2.4,9.8,5.2,6.8a2.52695,2.52695,0,0,1-.5,3.5h0a2.4967,2.4967,0,0,1-3.4-.4l-5.4-6.6a7.06988,7.06988,0,0,1-1.3-2.6l-1.7-7.1-1.4.1"/><path class="cls-1" d="M28.95366,15.6l1.5,9.3-2.4,6.3a2.13061,2.13061,0,0,1-2.9,1.2h0a2.218,2.218,0,0,1-1.2-2.8l2-5.1-1.4-8.1"/><path class="cls-2" d="M8.371,23.97214c3.92.767,6.5308,3.49788,6.04274,5.99242a4.41589,4.41589,0,0,1-1.6637,2.357,8.43061,8.43061,0,0,1-6.1919.9161C2.74462,32.399.0273,29.73983.51541,27.24529S4.55749,23.13343,8.371,23.97214Z"/><path class="cls-2" d="M11.9347,32.71968c.46288-.00192,2.79854-2.9701,10.46052-1.471,0,0-7.065-1.91387-9.49952-5.07273"/><line class="cls-3" x1="2.25989" y1="31.15857" x2="3.6912" y2="24.31594"/><line class="cls-3" x1="1.44664" y1="30.29702" x2="2.5274" y2="24.77332"/><line class="cls-3" x1="3.19685" y1="31.88277" x2="4.73084" y2="24.04269"/><line class="cls-3" x1="4.16954" y1="32.41799" x2="5.94948" y2="23.7935"/><line class="cls-3" x1="5.23918" y1="32.88714" x2="7.1237" y2="23.7281"/><line class="cls-3" x1="6.2516" y1="33.20243" x2="8.17099" y2="23.86521"/><line class="cls-3" x1="7.27649" y1="33.4272" x2="9.16103" y2="24.26816"/><line class="cls-3" x1="8.43477" y1="33.34027" x2="10.24958" y2="24.53759"/><line class="cls-3" x1="9.65819" y1="33.1061" x2="11.19215" y2="25.26602"/><line class="cls-3" x1="10.84214" y1="33.17982" x2="12.37804" y2="25.80262"/><line class="cls-3" x1="3.32469" y1="24.60602" x2="13.09533" y2="26.49999"/><line class="cls-3" x1="1.03502" y1="25.64838" x2="15.07477" y2="28.11785"/><line class="cls-3" x1="0.47972" y1="26.70051" x2="14.41292" y2="29.24164"/><line class="cls-3" x1="0.91533" y1="28.09724" x2="13.9612" y2="30.36673"/><line class="cls-3" x1="1.25475" y1="30.54012" x2="12.60997" y2="32.581"/><path class="cls-4" d="M12.55458,26.31408"/><path class="cls-4" d="M4.67855,24.76294"/><line class="cls-3" x1="1.16874" y1="29.31241" x2="13.9612" y2="31.53783"/><line class="cls-3" x1="12.17077" y1="32.64035" x2="13.37612" y2="26.85083"/><line class="cls-5" x1="20.07277" y1="30.68787" x2="23.81265" y2="31.32244"/></svg>