<svg xmlns="http://www.w3.org/2000/svg" viewBox="0 0 756 1206.91"><defs><style>.cls-1{isolation:isolate;}.cls-2{fill:#b56a62;}.cls-3{fill:#00a517;}.cls-4,.cls-5{fill:none;stroke:#fff;stroke-miterlimit:10;}.cls-4{stroke-width:2px;}.cls-5{stroke-width:10px;}.cls-6{fill:#fff;}.cls-7{mix-blend-mode:luminosity;}.cls-8{fill:#fece5e;}</style></defs><g class="cls-1"><g id="Suelo"><rect class="cls-2" width="756" height="1206.91"/><rect class="cls-3" x="152.96" y="154.26" width="448.85" height="899.23"/></g><g id="Lineas"><rect class="cls-4" x="154.49" y="154.26" width="448.85" height="899.23"/><line class="cls-4" x1="206.57" y1="1053.49" x2="206.57" y2="154.26"/><line class="cls-4" x1="552.79" y1="154.26" x2="552.79" y2="1053.49"/><line class="cls-4" x1="206.57" y1="353.4" x2="552.79" y2="353.4"/><line class="cls-4" x1="206.57" y1="857.4" x2="552.79" y2="857.4"/><line class="cls-4" x1="379.68" y1="353.4" x2="379.68" y2="857.4"/><line class="cls-5" x1="131.5" y1="603.88" x2="626.33" y2="603.45"/><path class="cls-6" d="M132.08,615.16a11.28,11.28,0,1,1,11.27-11.29A11.29,11.29,0,0,1,132.08,615.16Z"/><path class="cls-6" d="M625.77,614.73a11.28,11.28,0,1,0-11.29-11.27A11.28,11.28,0,0,0,625.77,614.73Z"/></g><g id="Capa_4" data-name="Capa 4"><g id="Capa_2" data-name="Capa 2" class="cls-7"><g id="Capa_1-2" data-name="Capa 1-2"><path class="cls-8" d="M230.44,1084.6a7.45,7.45,0,0,0-4.45,6.81h0v51.9a2.57,2.57,0,0,1-2.58,2.57,2.43,2.43,0,0,1-.75-.11,27.75,27.75,0,0,1-19.78-26.56v-1.53c0-.29,0-.57.06-.86v-.23q.1-1.11.3-2.22l0-.24c.06-.32.12-.64.19-1a.94.94,0,0,0,0-.16c.18-.74.38-1.48.61-2.22l.05-.15c.11-.35.23-.69.36-1h0c.28-.74.58-1.48.9-2.14l.06-.12c.34-.7.69-1.38,1.08-2v0c.18-.3.36-.6.55-.89l.12-.18c.17-.27.36-.55.54-.82l.08-.1c.21-.29.41-.58.63-.86l.2-.25a30.79,30.79,0,0,1,3.08-3.38c.47-.44,1-.85,1.48-1.24a3.09,3.09,0,0,0,.59-4.34,2.61,2.61,0,0,0-.27-.31l-2.27-2.27a3.09,3.09,0,0,0-4.12-.22,36.75,36.75,0,0,0-4.82,4.68h0l-.06.06c-.33.39-.64.74-.95,1.17h0c-.31.38-.6.74-.88,1.15l-.14.2c-.46.79-1,1.62-1.52,2.48l-.13.24c-.51.85-1,1.72-1.41,2.62l-.13.26c-.19.4-.38.82-.56,1.23l-.07.1c-.2.45-.38.91-.55,1.37l-.11.29c-.15.41-.3.82-.44,1.24l-.07.2c-.14.46-.29.94-.43,1.41l-.06.27c-.11.41-.22.81-.32,1.22a1.09,1.09,0,0,1-.08.31c-.1.48-.2,1-.29,1.48v.2c-.1.43-.17.9-.23,1.3a3.48,3.48,0,0,1-.05.36c-.07.5-.13,1-.17,1.49a.43.43,0,0,0,0,.16c-.05.45-.08.9-.1,1.36v1.93h-.07a37.12,37.12,0,0,0,30.33,36.49,2.6,2.6,0,0,1,2.14,2.54v14a2.58,2.58,0,0,0,2.56,2.58h4.14a2.59,2.59,0,0,0,2.58-2.58h0v-14a2.57,2.57,0,0,1,2.07-2.5,37,37,0,0,0,19.5-10.26,37.11,37.11,0,0,0-15-61.61A16.09,16.09,0,0,0,230.44,1084.6Zm25.31,46.67a27.8,27.8,0,0,1-17.15,14.53,2.57,2.57,0,0,1-3.2-1.73,2.64,2.64,0,0,1-.1-.74v-45.62a4.46,4.46,0,0,1,6.14-4.1,27.75,27.75,0,0,1,14.89,36.31c-.18.44-.38.87-.58,1.3Z"/><path class="cls-8" d="M294.86,1128.52a11.23,11.23,0,0,1-1.9-.31,20,20,0,0,0-2.45-.15c-.56,0-1.48,0-1.84.51-.51.77-.36,4.3-.36,5.11h5.11c1.13,0,1.69.21,1.69,1.44v2c0,1.48-.36,1.94-1.84,1.94h-5v16.78c0,1.33-.2,2.3-1.79,2.3h-3.22c-1.38,0-1.53-.82-1.53-2v-17h-1.54c-1.12,0-1.23-.86-1.23-1.79v-2.21c0-1.79,1.44-1.44,2.77-1.44v-2c0-2.15,0-4.24,1.32-6,2.1-2.87,5.53-3,8.8-3,1,0,3.58,0,4.24,1a1.93,1.93,0,0,1,.26,1.07v.36C296.39,1126.11,296.39,1128.52,294.86,1128.52Zm10.48,1.53h-2c-1.84,0-2.71-.25-2.71-2.3V1126c0-1.63.67-2.25,2.25-2.25h2.41a2,2,0,0,1,2,2,2.11,2.11,0,0,1,0,.26v1.79c.09,1.43-.37,2.3-2,2.3Zm0,28.13h-2c-1.84,0-2.71-.26-2.71-2.3v-20c0-1.63.67-2.25,2.25-2.25h2.41a2,2,0,0,1,2,2,2.11,2.11,0,0,1,0,.26v20c.09,1.43-.37,2.3-2,2.3Z"/><path class="cls-8" d="M323.69,1158.79a49.66,49.66,0,0,1-7.31-.36c-1.53-.2-1.43-.92-1.43-2.35v-.92c0-1.12.1-2.35,1.48-2.35.89.06,1.78.16,2.66.3,1.74.16,3.53.26,5.32.26s2.56,0,2.56-1.89a2.77,2.77,0,0,0-.31-1.69c-.41-.51-4.91-1.74-5.73-2a28.12,28.12,0,0,1-2.91-1.18c-2.66-1.33-3.63-2.81-3.63-5.78,0-7.87,5.31-7.77,11.6-7.77,1.28,0,2.51,0,3.79.1,1.84.16,2.55.51,2.55,2.51,0,1.48.11,3.17-1.89,3.17-.87,0-1.79-.16-2.66-.21a39.86,39.86,0,0,0-4.09-.2c-1.94,0-3-.26-3,2a1.52,1.52,0,0,0,.25,1c.51.71,5.37,2,6.45,2.35,4,1.33,5.88,2.66,5.88,7.16C333.31,1157.87,330,1158.79,323.69,1158.79Z"/><path class="cls-8" d="M344.91,1130.05H343c-1.84,0-2.71-.25-2.71-2.3V1126c0-1.63.66-2.25,2.25-2.25h2.4a2,2,0,0,1,2,2,2.11,2.11,0,0,1,0,.26v1.79C347,1129.18,346.5,1130.05,344.91,1130.05Zm0,28.13H343c-1.84,0-2.71-.26-2.71-2.3v-20c0-1.63.66-2.25,2.25-2.25h2.4a2,2,0,0,1,2,2,2.11,2.11,0,0,1,0,.26v20C347,1157.31,346.5,1158.18,344.91,1158.18Z"/><path class="cls-8" d="M369.57,1158.64a39.46,39.46,0,0,1-4.35.2c-10,0-11.66-3.42-11.66-12.93s1.69-13,11.66-13c1.45,0,2.91.1,4.35.25s2.81,0,2.81,1.74v.1c0,1.28,0,4-1.84,4a12.82,12.82,0,0,1-2.05-.2,38.53,38.53,0,0,0-4.8-.41c-2.15,0-2.56.41-3,2.4a24.47,24.47,0,0,0-.41,5.12,40.15,40.15,0,0,0,.2,4.9c.21,2.3,1,2.56,3.23,2.56a35.93,35.93,0,0,0,4.85-.41,14.89,14.89,0,0,1,2-.2,1.42,1.42,0,0,1,1.22.51c.41.41.62,2.86.62,3.48C372.37,1158.54,371.14,1158.43,369.57,1158.64Z"/><path class="cls-8" d="M396.81,1158.18h-2.87c-1.17,0-1.48-.77-1.48-1.84a13.85,13.85,0,0,1-7.56,2.5c-5,0-7.32-2.71-7.32-7.62,0-5.57,3.33-7.46,8.34-8a45.44,45.44,0,0,1,6.49-.41c0-2,.31-4.91-2.56-4.91a33.28,33.28,0,0,0-7.36,1.07,5.05,5.05,0,0,1-1.23.15c-1.78,0-1.48-1.79-1.48-3.06a1.89,1.89,0,0,1,1.43-2.15,35.92,35.92,0,0,1,8.39-1c2.45,0,5.57.41,7.31,2.35,2,2.25,1.94,5.42,1.94,8.28V1156C398.85,1157.46,398.34,1158.18,396.81,1158.18Zm-4.35-10.79c-.82,0-1.68-.1-2.5-.1a24.79,24.79,0,0,0-3.22.15c-2.15.31-3,1-3,3.22,0,1.23.2,3.43,1.89,3.43a11.59,11.59,0,0,0,6.85-2.56Z"/><path class="cls-8" d="M410.36,1158.18h-1.79c-1.84,0-2.71-.26-2.71-2.3V1125.2c0-1.64.66-2.2,2.25-2.2h2.3a2,2,0,0,1,2,1.87,1.83,1.83,0,0,1,0,.33v30.68C412.35,1157.31,411.94,1158.18,410.36,1158.18Z"/><path class="cls-8" d="M434.85,1158.64a39.46,39.46,0,0,1-4.35.2c-10,0-11.65-3.42-11.65-12.93s1.68-13,11.65-13c1.45,0,2.91.1,4.35.25s2.81,0,2.81,1.74v.1c0,1.28,0,4-1.84,4a12.21,12.21,0,0,1-2-.2,38.69,38.69,0,0,0-4.81-.41c-2.15,0-2.56.41-3,2.4a25.16,25.16,0,0,0-.41,5.12c0,1.63.06,3.27.21,4.9.2,2.3,1,2.56,3.22,2.56a35.94,35.94,0,0,0,4.86-.41,14.89,14.89,0,0,1,2-.2,1.44,1.44,0,0,1,1.23.51c.41.41.61,2.86.61,3.48C437.66,1158.54,436.44,1158.43,434.85,1158.64Z"/><path class="cls-8" d="M455.05,1158.84c-8.54,0-11.76-4.91-11.76-12.93s3.17-13,11.76-13,11.71,4.91,11.71,13S463.64,1158.84,455.05,1158.84Zm4.19-18.87c-.92-1.68-2.46-1.63-4.19-1.63s-3.28,0-4.2,1.63-1,4.15-1,5.94.1,4.34,1,5.93,2.51,1.58,4.2,1.58,3.27,0,4.19-1.58.92-4.2.92-5.93S460.11,1141.56,459.24,1140Z"/><path class="cls-8" d="M491.3,1158.18h-2.87c-1.17,0-1.48-.77-1.48-1.84a13.83,13.83,0,0,1-7.57,2.5c-5,0-7.31-2.71-7.31-7.62,0-5.57,3.33-7.46,8.34-8a45.44,45.44,0,0,1,6.49-.41c0-2,.31-4.91-2.56-4.91A33.28,33.28,0,0,0,477,1139a5.05,5.05,0,0,1-1.23.15c-1.79,0-1.48-1.79-1.48-3.06a1.89,1.89,0,0,1,1.43-2.15,35.92,35.92,0,0,1,8.39-1c2.45,0,5.57.41,7.31,2.35,2,2.25,1.94,5.42,1.94,8.28V1156C493.34,1157.46,492.83,1158.18,491.3,1158.18ZM487,1147.39c-.82,0-1.69-.1-2.5-.1a24.79,24.79,0,0,0-3.22.15c-2.15.31-3,1-3,3.22,0,1.23.2,3.43,1.89,3.43a11.59,11.59,0,0,0,6.85-2.56Z"/><path class="cls-8" d="M515.57,1158.64a39.46,39.46,0,0,1-4.35.2c-10,0-11.66-3.42-11.66-12.93s1.69-13,11.66-13c1.45,0,2.91.1,4.35.25s2.81,0,2.81,1.74v.1c0,1.28,0,4-1.84,4a12.82,12.82,0,0,1-2-.2,38.69,38.69,0,0,0-4.81-.41c-2.14,0-2.55.41-3,2.4a24.47,24.47,0,0,0-.41,5.12c0,1.63.05,3.27.2,4.9.21,2.3,1,2.56,3.22,2.56a35.94,35.94,0,0,0,4.86-.41,14.89,14.89,0,0,1,2-.2,1.42,1.42,0,0,1,1.22.51c.41.41.62,2.86.62,3.48C518.4,1158.54,517.17,1158.43,515.57,1158.64Z"/><path class="cls-8" d="M543.3,1158.18h-2.73c-1.48,0-1.84-1-1.84-2.3v-13.09c0-.72.1-3.53-.36-4a2.12,2.12,0,0,0-1.64-.41,11.14,11.14,0,0,0-6.23,2.35v15.19c0,1.43-.41,2.3-2,2.3h-2.71c-1.38,0-1.84-.77-1.84-2v-31c0-1.64.66-2.2,2.25-2.2h2.37a2,2,0,0,1,2,1.87,1.83,1.83,0,0,1,0,.33v9.46a16.23,16.23,0,0,1,6.9-1.74c4.75,0,7.87,2.35,7.87,7.26v15.7C545.29,1157.31,544.88,1158.18,543.3,1158.18Z"/></g></g></g></g></svg>