<svg xmlns="http://www.w3.org/2000/svg" xmlns:xlink="http://www.w3.org/1999/xlink" viewBox="0 0 756 973"><defs><style>.cls-1{fill:#8e4c43;}.cls-2{fill:#00a517;}.cls-3{fill:url(#Degradado_sin_nombre_15);}.cls-4,.cls-5{fill:none;stroke:#fff;stroke-miterlimit:10;}.cls-4{stroke-width:2px;}.cls-5{stroke-width:10px;}.cls-6{fill:#fff;}</style><radialGradient id="Degradado_sin_nombre_15" cx="378" cy="485.5" r="546.83" gradientTransform="translate(0 -271.33) scale(1 1.56)" gradientUnits="userSpaceOnUse"><stop offset="0" stop-opacity="0"/><stop offset="1" stop-opacity="0.6"/></radialGradient></defs><g id="Suelo"><rect class="cls-1" width="756" height="973"/><rect class="cls-2" x="152.96" y="38.3" width="448.85" height="896.17"/><rect class="cls-3" y="2" width="756" height="971"/></g><g id="Lineas"><rect class="cls-4" x="154.49" y="38.3" width="448.85" height="899.23"/><line class="cls-4" x1="206.57" y1="937.53" x2="206.57" y2="38.3"/><line class="cls-4" x1="552.79" y1="38.3" x2="552.79" y2="937.53"/><line class="cls-4" x1="206.57" y1="237.45" x2="552.79" y2="237.45"/><line class="cls-4" x1="206.57" y1="741.45" x2="552.79" y2="741.45"/><line class="cls-4" x1="379.68" y1="237.45" x2="379.68" y2="735.32"/><line class="cls-5" x1="131.5" y1="487.92" x2="626.33" y2="487.49"/><path class="cls-6" d="M132.08,497.2a11.28,11.28,0,1,1,11.27-11.29A11.28,11.28,0,0,1,132.08,497.2Z" transform="translate(0 2)"/><path class="cls-6" d="M625.77,496.77a11.28,11.28,0,1,0-11.29-11.27A11.27,11.27,0,0,0,625.77,496.77Z" transform="translate(0 2)"/></g></svg>