<svg id="raqueta-de-tenis" xmlns="http://www.w3.org/2000/svg" width="52.121" height="52.12" viewBox="0 0 52.121 52.12">
  <g id="Grupo_1736" data-name="Grupo 1736" transform="translate(0 0)">
    <g id="Grupo_1735" data-name="Grupo 1735">
      <path id="Trazado_2003" data-name="Trazado 2003" d="M48.112,4.012A14.411,14.411,0,0,0,36.23.09,21.1,21.1,0,0,0,23.539,6.338q-.468.468-.909.963a7.007,7.007,0,1,0-6.861,9.876,7.091,7.091,0,0,0,1.827-.114,16.987,16.987,0,0,0-.119,6.64h-.014c-.022,2.094-.473,7.924-2.276,9.727L11.53,37.088a1.838,1.838,0,0,0-1.805.469L4.034,43.248a.779.779,0,0,0,1.1,1.1l5.691-5.691a.286.286,0,0,1,.4,0L13.467,40.9a.286.286,0,0,1,0,.4L4.282,50.483a.286.286,0,0,1-.4,0L1.641,48.247a.286.286,0,0,1,0-.4L2.58,46.9a.779.779,0,0,0-1.1-1.1l-.939.939a1.843,1.843,0,0,0,0,2.606l2.236,2.236a1.845,1.845,0,0,0,2.606,0L14.567,42.4a1.844,1.844,0,0,0,.469-1.8l3.659-3.659c1.8-1.8,7.632-2.254,9.727-2.276v-.011a15.717,15.717,0,0,0,1.607.215q.68.056,1.368.056a19.042,19.042,0,0,0,8.044-1.859A.781.781,0,0,0,39.809,32h0a.776.776,0,0,0-1.017-.352,17.116,17.116,0,0,1-8.636,1.667,12.327,12.327,0,0,1-7.842-3.5c-3.24-3.24-4.341-8.2-2.979-13.334A7.008,7.008,0,0,0,23.16,9.081a21.663,21.663,0,0,1,1.48-1.642,19.539,19.539,0,0,1,11.744-5.8A12.884,12.884,0,0,1,47.011,5.113c5.526,5.527,4.483,15.562-2.326,22.371A21.5,21.5,0,0,1,42,29.761a.779.779,0,0,0,.915,1.26,23.06,23.06,0,0,0,2.868-2.437,21.1,21.1,0,0,0,6.248-12.691A14.413,14.413,0,0,0,48.112,4.012ZM12.39,14.039a5.422,5.422,0,0,1-1.552-3.193,5.454,5.454,0,0,1,4.746,4.749A5.408,5.408,0,0,1,12.39,14.039ZM23.132,32.5a13.354,13.354,0,0,0,1.5.882q-.273.034-.554.074-1.279.182-2.341.44Zm-1.919-1.587q.328.327.675.629L14.1,39.327l-1.3-1.3,7.788-7.788Q20.887,30.583,21.213,30.911ZM19.627,28.99l-1.4,1.4q.257-1.062.44-2.341.041-.286.075-.564A13.448,13.448,0,0,0,19.627,28.99ZM20.1,14.039a5.41,5.41,0,0,1-2.953,1.521,7.006,7.006,0,0,0-6.273-6.277,5.432,5.432,0,0,1,4.472-4.471,7.007,7.007,0,0,0,6.272,6.275A5.418,5.418,0,0,1,20.1,14.039ZM18.461,7.968a5.39,5.39,0,0,1-1.556-3.189,5.433,5.433,0,0,1,4.745,4.745A5.389,5.389,0,0,1,18.461,7.968Z" transform="translate(-0.001 -0.003)" fill="#050c42"/>
    </g>
  </g>
  <g id="Grupo_1738" data-name="Grupo 1738" transform="translate(20.984 3.78)">
    <g id="Grupo_1737" data-name="Grupo 1737">
      <path id="Trazado_2004" data-name="Trazado 2004" d="M230.584,40.04a10.707,10.707,0,0,0-8.837-2.834A18.192,18.192,0,0,0,206.2,52.756a10.708,10.708,0,0,0,2.834,8.837,10.367,10.367,0,0,0,7.485,2.9q.665,0,1.351-.068a18.192,18.192,0,0,0,15.551-15.551A10.708,10.708,0,0,0,230.584,40.04Zm-.579,1.68a8.291,8.291,0,0,1,1.538,2.975l-2.257-2.256Zm-17.476,9.1,3.088-3.088,3.088,3.088L215.618,53.9Zm1.987,4.189-3.088,3.088-3.088-3.088,3.088-3.088Zm2.2-8.379,3.087-3.087,3.088,3.088-3.087,3.087Zm3.088,5.291,3.088,3.088-3.088,3.088-3.088-3.088Zm1.1-1.1L224,47.728l3.088,3.088L224,53.9Zm4.189-4.189,3.088-3.088,3.088,3.088-3.088,3.088Zm3.806-6.008-.718.718-2.254-2.254A8.289,8.289,0,0,1,228.9,40.619ZM224,39.35l3.088,3.088L224,45.526l-3.088-3.088Zm-2.1-.595c.177-.018.353-.031.528-.04l-2.622,2.622-1.66-1.66A13.993,13.993,0,0,1,221.9,38.755Zm-5.264,1.614,2.069,2.069-3.087,3.087-2.6-2.6A17.113,17.113,0,0,1,216.636,40.369Zm-4.718,3.66,2.6,2.6-3.088,3.088-2.069-2.069A17.114,17.114,0,0,1,211.918,44.029Zm-4.172,8.881a14,14,0,0,1,.921-3.753l1.66,1.66-2.622,2.622C207.715,53.263,207.728,53.087,207.746,52.91Zm1.863,7a8.294,8.294,0,0,1-1.538-2.974l2.256,2.256Zm1.1,1.1.718-.718,2.256,2.256A8.293,8.293,0,0,1,210.71,61.014Zm4.907,1.269L212.529,59.2l3.088-3.088,3.088,3.088Zm2.1.594q-.266.026-.529.041l2.622-2.622,1.66,1.66A13.989,13.989,0,0,1,217.713,62.877Zm5.264-1.614-2.069-2.069L224,56.106l2.6,2.6A17.112,17.112,0,0,1,222.977,61.264ZM227.7,57.6l-2.6-2.6,3.087-3.087,2.069,2.069A17.118,17.118,0,0,1,227.7,57.6Zm4.172-8.881a14,14,0,0,1-.922,3.754l-1.66-1.66,2.623-2.623Q231.894,48.456,231.868,48.723Z" transform="translate(-206.129 -37.138)" fill="#050c42"/>
    </g>
  </g>
</svg>
