<?xml version="1.0" encoding="utf-8"?>
<!-- Generator: Adobe Illustrator 25.4.1, SVG Export Plug-In . SVG Version: 6.00 Build 0)  -->
<svg version="1.1" id="Iconos" xmlns="http://www.w3.org/2000/svg" xmlns:xlink="http://www.w3.org/1999/xlink" x="0px" y="0px"
	 viewBox="0 0 40.8 39.7" style="enable-background:new 0 0 40.8 39.7;" xml:space="preserve">
<style type="text/css">
	.st0{fill:none;stroke:#00E9C5;stroke-width:1.1;stroke-miterlimit:10;}
	.st1{fill:none;stroke:#FFDE37;stroke-width:1.1;stroke-miterlimit:10;}
	.st2{enable-background:new    ;}
	.st3{fill:#00E9C5;}
</style>
<g id="Pelota">
	<circle class="st0" cx="19.8" cy="19.8" r="19.3"/>
	<path class="st0" d="M30.2,3.8L13,8.1c-14.7,4.3-9.9,31.1,8.3,24l17.5-8"/>
</g>
<path class="st1" d="M9.6,21.2"/>
<path class="st1" d="M40.8,6.7"/>
<g class="st2">
	<path class="st3" d="M21.4,27.6h-0.9c-1,0-1.6-0.2-1.6-1.3V14.7c-0.2,0.1-1.2,0.5-1.5,0.5c-1,0-1.1-0.9-1.1-1.7
		c0-0.7,0.3-1.1,0.9-1.3c1.4-0.6,2.6-1.2,4.2-1.2c0.8,0,1.3,0.5,1.3,1.3v14C22.7,27.1,22.3,27.6,21.4,27.6z"/>
</g>
</svg>
