<svg id="Iconos" xmlns="http://www.w3.org/2000/svg" viewBox="0 0 31.27178 42.25058"><defs><style>.cls-1,.cls-2,.cls-3,.cls-4,.cls-5,.cls-6,.cls-7,.cls-8{fill:none;stroke:#050b3d;}.cls-1,.cls-3,.cls-4,.cls-5,.cls-6,.cls-7,.cls-8{stroke-miterlimit:10;}.cls-2,.cls-4,.cls-6{stroke-linecap:round;}.cls-2{stroke-linejoin:round;}.cls-3{stroke-width:0.25px;}.cls-4{stroke-width:0.5px;}.cls-5{stroke-width:0.9174px;}.cls-6{stroke-width:1.25px;}.cls-7{stroke-width:0.16px;}.cls-8{stroke-width:0.3058px;}</style></defs><circle class="cls-1" cx="14.35729" cy="13.13774" r="2.6"/><path class="cls-2" d="M9.65729,23.53774a2.32774,2.32774,0,0,1-2.7-.8l-2.9-4.1a1.59816,1.59816,0,0,1,.4-2.2h0a1.4805,1.4805,0,0,1,2.0646.34794q.01826.02565.0354.05206l2.6,3.6,5.3-2.2a11.59905,11.59905,0,0,0,3.9-2.6l2.1-2,.2-2.5a1.66927,1.66927,0,0,1,1.8-1.5h0a1.55567,1.55567,0,0,1,1.4003,1.69687l-.0003.00313-.2,2.4a4.42023,4.42023,0,0,1-1.1,2.4l-2.6,2.6.4,9.8,1.8,5.3a3.5984,3.5984,0,0,1,.1,2.3l-.9,4.4a1.53745,1.53745,0,0,1-1.7,1.2h-.2a1.55728,1.55728,0,0,1-1.2-1.8l1.1-4.9-2.4-6-3.6,11.3a1.48936,1.48936,0,0,1-1.7,1h0a1.4726,1.4726,0,0,1-1.2-1.9l3.7-12.2-.3-5.4Z" transform="translate(0 0)"/><path class="cls-3" d="M13.15729,3.585a1.69706,1.69706,0,0,1,2.4-2.4" transform="translate(0 0)"/><path class="cls-3" d="M15.55731,1.185a1.69706,1.69706,0,0,1-2.4,2.4" transform="translate(0 0)"/><path class="cls-3" d="M12.7573,2.085l1.4-.9c.8-.3,2,1.3,1,2.1l-1.4.7" transform="translate(0 0)"/><path class="cls-4" d="M31.02178,10.05136S26.887,4.99055,17.53878,4.67425" transform="translate(0 0)"/><path class="cls-4" d="M26.03385,5.47766a20.37657,20.37657,0,0,0-5.21344-1.58149" transform="translate(0 0)"/><path class="cls-4" d="M28.53933,9.23A18.81808,18.81808,0,0,0,21.9776,6.3833" transform="translate(0 0)"/><path class="cls-5" d="M6.46648,4.53776c.34736,2.52227-.76,4.66076-2.3651,4.88181a2.81465,2.81465,0,0,1-1.765-.51628A5.37381,5.37381,0,0,1,.50474,5.35878C.22262,2.88593,1.26476.698,2.86982.477S6.18438,2.0649,6.46648,4.53776Z" transform="translate(0 0)"/><path class="cls-5" d="M1.92787,8.49388C2.02465,8.7726,4.297,9.56782,4.976,14.49777c0,0-.3055-4.65567,1.09638-6.77629" transform="translate(0 0)"/><line class="cls-6" x1="4.94437" y1="14.26847" x2="5.41598" y2="18.11711"/><line class="cls-7" x1="0.87048" y1="2.33737" x2="5.29235" y2="1.78682"/><line class="cls-7" x1="1.22199" y1="1.66898" x2="4.77611" y2="1.17953"/><line class="cls-7" x1="0.62735" y1="3.05198" x2="5.6719" y2="2.35728"/><line class="cls-7" x1="0.50556" y1="3.74909" x2="6.07393" y2="3.04065"/><line class="cls-7" x1="0.44363" y1="4.49101" x2="6.35595" y2="3.73521"/><line class="cls-7" x1="0.46267" y1="5.16665" x2="6.48964" y2="4.39505"/><line class="cls-7" x1="0.53887" y1="5.8311" x2="6.45119" y2="5.07531"/><line class="cls-7" x1="0.83058" y1="6.5116" x2="6.5136" y2="5.78737"/><line class="cls-7" x1="1.22454" y1="7.20095" x2="6.26908" y2="6.50624"/><line class="cls-7" x1="1.42468" y1="7.93012" x2="6.19051" y2="7.3322"/><line class="cls-7" x1="5.03849" y1="1.8947" x2="5.91495" y2="8.17777"/><line class="cls-7" x1="3.94012" y1="0.46039" x2="5.35153" y2="9.43666"/><line class="cls-7" x1="3.19096" y1="0.3429" x2="4.53714" y2="9.26973"/><line class="cls-7" x1="2.43871" y1="0.89413" x2="3.7396" y2="9.06785"/><line class="cls-7" x1="1.01007" y1="1.43604" x2="2.151" y2="8.87242"/><path class="cls-8" d="M5.91856,7.54432" transform="translate(0 0)"/><path class="cls-8" d="M5.22678,2.47455" transform="translate(0 0)"/><line class="cls-7" x1="1.75831" y1="1.29799" x2="3.05919" y2="9.47171"/><line class="cls-7" x1="2.02447" y1="8.61984" x2="5.76462" y2="8.15061"/></svg>