<?xml version="1.0" encoding="utf-8"?>
<!-- Generator: Adobe Illustrator 25.4.1, SVG Export Plug-In . SVG Version: 6.00 Build 0)  -->
<svg version="1.1" id="Iconos" xmlns="http://www.w3.org/2000/svg" xmlns:xlink="http://www.w3.org/1999/xlink" x="0px" y="0px"
	 viewBox="0 0 40.8 39.7" style="enable-background:new 0 0 40.8 39.7;" xml:space="preserve">
<style type="text/css">
	.st0{fill:none;stroke:#00E9C5;stroke-width:1.1;stroke-miterlimit:10;}
	.st1{fill:none;stroke:#FFDE37;stroke-width:1.1;stroke-miterlimit:10;}
	.st2{enable-background:new    ;}
	.st3{fill:#00E9C5;}
</style>
<g id="Pelota">
	<circle class="st0" cx="19.8" cy="19.8" r="19.3"/>
	<path class="st0" d="M30.2,3.8L13,8.1c-14.7,4.3-9.9,31.1,8.3,24l17.5-8"/>
</g>
<path class="st1" d="M9.6,21.2"/>
<path class="st1" d="M40.8,6.7"/>
<g class="st2">
	<path class="st3" d="M20.5,26.9c-1.5,0-3,0-4.5-0.2c-1.2-0.2-1.2-0.6-1.2-1.7v-0.5c0-0.9,0.2-1.7,1.2-1.7c0.6,0,1.2,0.2,1.8,0.2
		c1,0.1,2,0.2,3.1,0.2c0.7,0,1.2,0,1.2-0.8c0-0.2,0-0.5-0.1-0.7c-0.3-0.5-5-1.1-6.4-2.4c-0.8-0.8-1.1-2-1.1-3.1
		c0-4.9,3.6-4.9,7.4-4.9c0.8,0,1.6,0,2.3,0.1c1.3,0.1,1.9,0.4,1.9,1.8c0,1.1,0,2.2-1.5,2.2c-0.6,0-1.1-0.1-1.6-0.1
		c-0.8-0.1-1.6-0.1-2.5-0.1c-0.8,0-1.5-0.2-1.5,0.9c0,0.1,0,0.2,0.1,0.4c0.2,0.3,1.9,0.7,2.3,0.8c3.1,0.9,5.3,1.1,5.3,4.9
		C26.7,26.4,24.3,26.9,20.5,26.9z"/>
</g>
</svg>
