<svg id="Iconos" xmlns="http://www.w3.org/2000/svg" viewBox="0 0 25.7 14.95325"><defs><style>.cls-1,.cls-2,.cls-3{fill:none;stroke:#050b3d;}.cls-1,.cls-2{stroke-linecap:round;stroke-linejoin:round;}.cls-2{stroke-width:0.5px;stroke-dasharray:2.81 2.81;}.cls-3{stroke-miterlimit:10;stroke-width:0.25px;}.cls-4{fill:#050b3d;}</style></defs><polyline class="cls-1" points="0.5 14.453 25.2 14.453 12.3 14.453 12.3 5.453"/><path class="cls-2" d="M4.48817,12.4619C2.97463-2.12043,20.46-3.19584,19.953,6.85325"/><path class="cls-3" d="M18.62986,10.10331a1.834,1.834,0,0,1,3.601.698"/><path class="cls-3" d="M22.23085,10.80136a1.834,1.834,0,0,1-3.601-.698"/><path class="cls-3" d="M19.7314,8.83788l1.65276.70959c.75251.53507.04524,2.57748-1.27605,2.16567l-1.47364-.83054"/><path class="cls-4" d="M18.372,4.77062l1.71451,2.51055c.0681.0971.14484.12228.20114-.03224l.7991-2.90366c.05088-.12923-.01334-.14079-.15413-.12745l-2.52089.381C18.34376,4.63988,18.361,4.69426,18.372,4.77062Z"/></svg>