<svg id="Capa_1" data-name="Capa 1" xmlns="http://www.w3.org/2000/svg" viewBox="0 0 53.16424 46.7892"><defs><style>.cls-1{fill:#00e9c5;}.cls-2,.cls-3,.cls-4,.cls-5,.cls-6,.cls-7,.cls-8,.cls-9{fill:none;}.cls-2{stroke:#00e9c5;stroke-dasharray:3 3;}.cls-2,.cls-4,.cls-5,.cls-6,.cls-7,.cls-8,.cls-9{stroke-miterlimit:10;}.cls-2,.cls-5{stroke-width:0.5px;}.cls-3,.cls-4,.cls-5,.cls-6,.cls-7,.cls-8,.cls-9{stroke:#050b3d;}.cls-3,.cls-5,.cls-7{stroke-linecap:round;}.cls-3{stroke-linejoin:round;stroke-width:1.3359px;}.cls-4{stroke-width:0.25px;}.cls-6{stroke-width:0.9174px;}.cls-7{stroke-width:1.25px;}.cls-8{stroke-width:0.16px;}.cls-9{stroke-width:0.3058px;}</style></defs><g id="Iconos"><path class="cls-1" d="M28.94429,2.868"/><path class="cls-2" d="M49.94429,27.968"/><circle class="cls-3" cx="30.04432" cy="4.36795" r="3.7"/><path class="cls-3" d="M27.24429,10.768l-.5.1a7.09048,7.09048,0,0,0-3.7,2.2l-4.4,5.4-7.3,1.8a2.17889,2.17889,0,0,0-1.6,2.6h0a2.2448,2.2448,0,0,0,2.6,1.7l6.8-1.6a3.73829,3.73829,0,0,0,2-1.2l3.1-3.4v18.2l-6.2,4.8a2.63038,2.63038,0,0,0-.6,3.3h0a2.59206,2.59206,0,0,0,3.60414.6691h0q.04869-.03345.09584-.06909l6.5-5.3a4.42051,4.42051,0,0,0,1.6-3.4v-7.3l7.7,4.2,2.7,10.4a3.0395,3.0395,0,0,0,3.5,2.2h0A2.93515,2.93515,0,0,0,45.367,42.56235v0h0q-.01055-.04732-.02274-.09432l-2.4-10.1a5.14015,5.14015,0,0,0-2.4-3.2l-6.3-3.6v-7.6l3.7,4.6a3.8148,3.8148,0,0,0,1.4,1.1l5.8,2.6a2.303,2.303,0,0,0,3-1h0a2.32359,2.32359,0,0,0-1.1-3.3l-5.5-2.4-5.1-6.6a6.05436,6.05436,0,0,0-3.7-2.3h0A14.543,14.543,0,0,0,27.24429,10.768Z"/></g><path class="cls-4" d="M47.54429,32.768"/><path class="cls-4" d="M47.54429,32.768"/><line class="cls-5" x1="48.24432" y1="34.46795" x2="45.94432" y2="35.66795"/><line class="cls-5" x1="47.74432" y1="35.76795" x2="46.14432" y2="36.66795"/><line class="cls-5" x1="47.34432" y1="33.86795" x2="46.04432" y2="34.56795"/><path class="cls-4" d="M50.14429,34.468a1.69706,1.69706,0,0,1,2.39579-2.40421l.00421.00421"/><path class="cls-4" d="M52.54429,32.068a1.69706,1.69706,0,0,1-2.4,2.4"/><path class="cls-4" d="M49.64429,32.868l1.4-.9c.8-.3,2,1.3,1,2.1l-1.4.7"/><path class="cls-5" d="M5.93561,25.86169a20.49051,20.49051,0,0,0,14.56286,7.57449"/><path class="cls-5" d="M10.70954,31.8706a18.80579,18.80579,0,0,0,5.55456,2.29714"/><path class="cls-5" d="M9.14083,27.175a20.09641,20.09641,0,0,0,7.06481,4.04332"/><g id="RAqueta"><path class="cls-6" d="M7.81688,6.501C9.25822,9.25825,8.868,12.17506,7.1134,13.09227a3.43941,3.43941,0,0,1-2.24315.13533A6.56664,6.56664,0,0,1,1.2997,9.90779C-.04622,7.18043.24856,4.23372,2.00319,3.3165S6.471,3.77362,7.81688,6.501Z"/><path class="cls-6" d="M4.23137,12.92548c.22645.28057,3.16829.25652,5.98546,5.64573,0,0-2.27443-5.22806-1.53814-8.246"/><line class="cls-7" x1="10.0858" y1="18.32054" x2="12.21791" y2="22.55187"/><line class="cls-8" x1="0.54682" y1="6.17595" x2="5.4048" y2="3.71627"/><line class="cls-8" x1="0.60047" y1="5.36806" x2="4.48571" y2="3.33708"/><line class="cls-8" x1="0.54797" y1="7.17279" x2="6.06251" y2="4.29011"/><line class="cls-8" x1="0.63575" y1="8.05622" x2="6.74703" y2="4.94138"/><line class="cls-8" x1="0.871" y1="8.93506" x2="7.35827" y2="5.62367"/><line class="cls-8" x1="1.17196" y1="9.70421" x2="7.78457" y2="6.32731"/><line class="cls-8" x1="1.48903" y1="10.51209" x2="7.9763" y2="7.20071"/><line class="cls-8" x1="2.14837" y1="11.23242" x2="8.38499" y2="8.05207"/><line class="cls-8" x1="2.83246" y1="11.79114" x2="8.34701" y2="8.90846"/><line class="cls-8" x1="3.41982" y1="12.48497" x2="8.65379" y2="9.82874"/><line class="cls-8" x1="3.66696" y1="2.69432" x2="8.4439" y2="11.52727"/><line class="cls-8" x1="2.91903" y1="2.99909" x2="8.24999" y2="12.73926"/><line class="cls-8" x1="2.15014" y1="3.18741" x2="7.38568" y2="12.89767"/><line class="cls-8" x1="1.67494" y1="4.05784" x2="6.5473" y2="12.92069"/><line class="cls-8" x1="0.49608" y1="5.06427" x2="4.87992" y2="13.14523"/><line class="cls-8" x1="0.45971" y1="6.40612" x2="3.66427" y2="12.23113"/><line class="cls-8" x1="5.14516" y1="3.60186" x2="8.64825" y2="10.23396"/><path class="cls-9" d="M8.42869,10.185"/><path class="cls-9" d="M5.53893,4.64026"/></g><line class="cls-8" x1="1.17196" y1="4.67333" x2="6.04432" y2="13.53618"/><line class="cls-8" x1="4.27972" y1="13.05718" x2="8.38726" y2="10.97261"/></svg>