<?xml version="1.0" encoding="utf-8"?>
<!-- Generator: Adobe Illustrator 25.4.1, SVG Export Plug-In . SVG Version: 6.00 Build 0)  -->
<svg version="1.1" id="Iconos" xmlns="http://www.w3.org/2000/svg" xmlns:xlink="http://www.w3.org/1999/xlink" x="0px" y="0px"
	 viewBox="0 0 42 39.7" style="enable-background:new 0 0 42 39.7;" xml:space="preserve">
<style type="text/css">
	.st0{fill:none;stroke:#00E9C5;stroke-linecap:round;stroke-linejoin:round;stroke-miterlimit:10;}
	.st1{fill:none;stroke:#00E9C5;stroke-width:0.9174;stroke-miterlimit:10;}
	.st2{fill:none;stroke:#00E9C5;stroke-width:1.25;stroke-linecap:round;stroke-miterlimit:10;}
	.st3{fill:none;stroke:#00E9C5;stroke-width:0.3058;stroke-miterlimit:10;}
	.st4{fill:none;stroke:#00E9C5;stroke-width:0.25;stroke-miterlimit:10;}
	.st5{fill:none;stroke:#00E9C5;stroke-width:0.25;stroke-linecap:round;stroke-miterlimit:10;}
</style>
<path class="st0" d="M22.7,24v6.2l-4.9,6.2c-0.6,0.8-0.4,1.9,0.4,2.5l0,0c0.7,0.5,1.7,0.3,2.3-0.4l5.1-6.3c0.5-0.6,0.8-1.4,0.8-2.2
	l0.1-3.2l4.7,2.7l-1.8,7.1c-0.2,1,0.4,2,1.4,2.3l0,0c1,0.3,2.1-0.4,2.3-1.4l1.8-7.1c0.4-1.6-0.3-3.3-1.8-4.1l-3.3-1.8v-6.3"/>
<line class="st0" x1="19.3" y1="21.9" x2="23.9" y2="15.8"/>
<path class="st0" d="M26.4,15.9l-8,6.7c-0.9,0.8-0.9,2.1,0,2.9l0,0c0.7,0.6,1.7,0.6,2.4,0l9.9-8.6c1.2-1.1,0.9-3.1-0.6-3.7l-4.9-1.9
	c-1.2-0.5-2.6-0.2-3.5,0.7l-5.9,8.6c-0.6,0.9-0.4,2.1,0.5,2.8l0,0c0.4,0.3,0.8,0.4,1.2,0.4"/>
<circle class="st0" cx="30.1" cy="8.2" r="3"/>
<g id="RAqueta">
	<path class="st1" d="M7.8,11c2.4,2,3.2,4.8,1.9,6.4c-0.5,0.6-1.3,1-2.1,1c-1.7,0-3.3-0.6-4.6-1.7c-2.4-2-3.2-4.8-1.9-6.4
		C2.4,8.7,5.5,9,7.8,11z"/>
	<path class="st1" d="M7.2,18.4c0.3,0.1,2.8-1.1,7.5,2.8c0,0-3.9-3.6-4.5-6.6"/>
	<line class="st2" x1="14.5" y1="21" x2="17.2" y2="23.3"/>
	<line class="st3" x1="0.8" y1="13.5" x2="4.3" y2="9.3"/>
	<line class="st3" x1="0.5" y1="12.6" x2="3.3" y2="9.2"/>
	<line class="st3" x1="1.3" y1="14.3" x2="5.3" y2="9.5"/>
	<line class="st3" x1="1.8" y1="15.2" x2="6.2" y2="9.9"/>
	<line class="st3" x1="2.4" y1="16" x2="7.1" y2="10.3"/>
	<line class="st3" x1="3" y1="16.7" x2="7.8" y2="10.9"/>
	<line class="st3" x1="3.7" y1="17.1" x2="8.4" y2="11.5"/>
	<line class="st3" x1="4.4" y1="17.6" x2="9" y2="12.1"/>
	<line class="st3" x1="5.5" y1="17.7" x2="9.5" y2="12.9"/>
	<line class="st3" x1="6.1" y1="18.2" x2="9.9" y2="13.7"/>
	<line class="st3" x1="2.2" y1="9.8" x2="10" y2="16.1"/>
	<line class="st3" x1="1.4" y1="10.1" x2="10.1" y2="17"/>
	<line class="st3" x1="0.9" y1="10.8" x2="9.5" y2="17.6"/>
	<line class="st3" x1="0.6" y1="11.7" x2="8.5" y2="18"/>
	<line class="st3" x1="0.5" y1="12.7" x2="7.7" y2="18.4"/>
	<line class="st3" x1="1.1" y1="14.1" x2="6.3" y2="18.3"/>
	<line class="st3" x1="2.7" y1="9.1" x2="10.6" y2="15.4"/>
	<line class="st3" x1="4.4" y1="9.3" x2="9.9" y2="13.7"/>
</g>
<g id="Pelota">
	<circle class="st4" cx="37.4" cy="22.5" r="1.2"/>
	<path class="st4" d="M38,21.5l-1.1,0.3c-0.9,0.3-0.6,2,0.5,1.5l1.1-0.5"/>
</g>
<line class="st5" x1="39.2" y1="22.5" x2="41.9" y2="22.5"/>
<line class="st5" x1="39.4" y1="22" x2="41.4" y2="22"/>
<line class="st5" x1="39.9" y1="23" x2="41.1" y2="23"/>
<path class="st5" d="M23,0.1c0,0-8.3,0.3-14.3,8"/>
<path class="st5" d="M15.8,1.3c-1.6,0.8-3.3,1.9-5,3.4"/>
<path class="st5" d="M20.1,1.4c-2,0.6-4.7,1.7-7.3,3.7"/>
</svg>
