<?xml version="1.0" encoding="utf-8"?>
<!-- Generator: Adobe Illustrator 25.4.1, SVG Export Plug-In . SVG Version: 6.00 Build 0)  -->
<svg version="1.1" id="Iconos" xmlns="http://www.w3.org/2000/svg" xmlns:xlink="http://www.w3.org/1999/xlink" x="0px" y="0px"
	 viewBox="0 0 19.2 32" style="enable-background:new 0 0 19.2 32;" xml:space="preserve">
<style type="text/css">
	.st0{enable-background:new    ;}
	.st1{fill:#FF3737;}
</style>
<g class="st0">
	<path class="st1" d="M17.2,32H2.3C0.8,32,0,31.6,0,29.9V2c0-1.6,0.9-2,2.3-2h14.8c2.3,0,2.1,1.4,2.1,3.3c0,1.5-0.4,2.3-2.1,2.3
		c-3.6,0-7.1,0-10.7-0.1v7.5c3.2,0,6.5-0.1,9.7-0.1c2.1,0,2.1,1.3,2.1,2.9c0,1.5-0.4,2.3-2.1,2.3c-3.2,0-6.5-0.1-9.7-0.1v8.9
		c3.6-0.1,7.1-0.1,10.7-0.1c2.4,0,2.1,1.8,2.1,3.5C19.2,31.5,18.5,32,17.2,32z"/>
</g>
</svg>
