<?xml version="1.0" encoding="utf-8"?>
<!-- Generator: Adobe Illustrator 25.4.1, SVG Export Plug-In . SVG Version: 6.00 Build 0)  -->
<svg version="1.1" id="Iconos" xmlns="http://www.w3.org/2000/svg" xmlns:xlink="http://www.w3.org/1999/xlink" x="0px" y="0px"
	 viewBox="0 0 32.5 45.2" style="enable-background:new 0 0 32.5 45.2;" xml:space="preserve">
<style type="text/css">
	.st0{fill:none;stroke:#00E9C5;stroke-linecap:round;stroke-linejoin:round;stroke-miterlimit:10;}
	.st1{fill:none;stroke:#00E9C5;stroke-width:0.8983;stroke-linecap:round;stroke-linejoin:round;stroke-miterlimit:10;}
	.st2{fill:none;stroke:#00E9C5;stroke-width:0.75;stroke-miterlimit:10;}
	.st3{fill:none;stroke:#00E9C5;stroke-linecap:round;stroke-miterlimit:10;}
	.st4{fill:none;stroke:#00E9C5;stroke-width:0.25;stroke-miterlimit:10;}
	.st5{fill:none;stroke:#FF3737;stroke-width:0.25;stroke-miterlimit:10;}
	.st6{fill:none;stroke:#00E9C5;stroke-width:0.25;stroke-linecap:round;stroke-miterlimit:10;}
	.st7{fill:none;stroke:#00E9C5;stroke-width:0.16;stroke-miterlimit:10;}
	.st8{fill:none;}
</style>
<path class="st0" d="M14.9,12.5l7.2,8.5c0.6,0.7,0.5,1.9-0.2,2.6l0,0c-0.7,0.6-1.6,0.5-2.2-0.1l-9.3-10.6c-0.5-0.6-0.7-1.4-0.5-2.3
	l0,0C10.1,9.5,11,8.7,12,8.7l4.4,0.4c1.3,0.1,2.2,1.5,1.9,2.9l-0.8,3.5"/>
<path class="st0" d="M16,19.4l-1.1,1.9c-0.1,0.2-0.1,0.4,0,0.7l3.3,7.4c0.4,1,0.6,2,0.6,3.1L18.5,42c0,1.3-1,2.4-2.2,2.4l0,0
	c-1.2,0-2.1-1-2-2.3l0.3-9.9c0-0.1,0-0.3-0.1-0.4l-3.2-6.2l-1,5.7c-0.2,1.2-0.6,2.4-1.2,3.6l-4.5,8.5C4,44.5,2.8,45,1.7,44.5l0,0
	c-1.2-0.6-1.6-2.2-0.9-3.5l4.8-8.8L10,10.4"/>
<circle class="st1" cx="15" cy="3.6" r="3.2"/>
<path class="st0" d="M25,16.4l-2.5,0.5c-1.1,0.1-1.6,0-2.8-0.8l-2.1-1.3"/>
<path class="st0" d="M18.3,12l3.8,2c0.2,0.2,0.6,0.1,0.6,0.1l1.7-0.2"/>
<g id="RAqueta">
	<path class="st2" d="M30.9,14.6c-1.4,2.1-3.6,3-5,2.1c-0.5-0.4-0.9-0.9-1-1.6c-0.2-1.4,0.2-2.8,1-3.9c1.4-2.1,3.6-3,5-2.1
		C32.3,10.1,32.3,12.5,30.9,14.6z"/>
	<path class="st2" d="M24.9,14.6c-0.1,0.3,1,2.4-1.7,6.5c0,0,2.4-3.5,4.9-4.2"/>
	<line class="st3" x1="23.3" y1="20.9" x2="21.2" y2="24.1"/>
	<line class="st4" x1="28.2" y1="9.1" x2="31.9" y2="11.6"/>
	<line class="st4" x1="29" y1="8.8" x2="31.9" y2="10.7"/>
	<line class="st4" x1="27.5" y1="9.6" x2="31.8" y2="12.4"/>
	<line class="st4" x1="26.9" y1="10.1" x2="31.6" y2="13.2"/>
	<line class="st4" x1="29.5" y1="12.8" x2="31.2" y2="14"/>
	<path class="st5" d="M29.5,12.7"/>
	<path class="st5" d="M28.2,11.8"/>
	<line class="st6" x1="26.2" y1="10.6" x2="28.4" y2="12.1"/>
	<line class="st4" x1="29.3" y1="13.5" x2="30.9" y2="14.6"/>
	<path class="st5" d="M29.2,13.4"/>
	<path class="st5" d="M28,12.6"/>
	<line class="st4" x1="25.8" y1="11.2" x2="27.9" y2="12.5"/>
	<line class="st4" x1="28.8" y1="13.9" x2="30.5" y2="15.1"/>
	<path class="st5" d="M28.9,14"/>
	<path class="st5" d="M27.7,13.2"/>
	<line class="st6" x1="25.5" y1="11.8" x2="27.7" y2="13.2"/>
	<line class="st4" x1="28.7" y1="14.7" x2="30" y2="15.6"/>
	<path class="st5" d="M28.7,14.7"/>
	<path class="st5" d="M27.1,13.6"/>
	<line class="st4" x1="25.2" y1="12.4" x2="28.7" y2="14.7"/>
	<line class="st4" x1="25.2" y1="13.3" x2="29.5" y2="16.1"/>
	<line class="st4" x1="24.9" y1="13.9" x2="28.9" y2="16.5"/>
	<line class="st4" x1="28.9" y1="13.9" x2="27" y2="16.9"/>
	<path class="st5" d="M28.7,14.2"/>
	<path class="st5" d="M29,13.7"/>
	<path class="st5" d="M29.5,12.9"/>
	<line class="st6" x1="31.3" y1="9.9" x2="29.6" y2="12.7"/>
	<line class="st4" x1="28.2" y1="13.8" x2="26.2" y2="17"/>
	<path class="st5" d="M27.8,14.5"/>
	<path class="st5" d="M28.2,13.9"/>
	<path class="st5" d="M28.5,13.4"/>
	<path class="st5" d="M28.7,13.1"/>
	<path class="st5" d="M28.7,13.4"/>
	<line class="st4" x1="31" y1="9.3" x2="29.2" y2="12.3"/>
	<line class="st4" x1="27.8" y1="13.3" x2="25.6" y2="16.6"/>
	<path class="st5" d="M27.2,14.1"/>
	<path class="st5" d="M27.6,13.4"/>
	<path class="st5" d="M28.4,12.2"/>
	<line class="st6" x1="30.4" y1="8.9" x2="28.4" y2="12.1"/>
	<line class="st4" x1="29.7" y1="8.8" x2="25.3" y2="15.7"/>
	<line class="st4" x1="28.8" y1="8.8" x2="24.8" y2="15.1"/>
	<path class="st5" d="M24.8,14"/>
	<path class="st4" d="M27.7,9.4"/>
	<line class="st4" x1="31.9" y1="10.3" x2="27.6" y2="17.3"/>
	<path class="st5" d="M29.5,17.4"/>
	<path class="st5" d="M32.5,12.5"/>
</g>
<line class="st4" x1="31.8" y1="11.6" x2="28.6" y2="16.8"/>
<path class="st7" d="M27.7,13c0-0.5,0.4-0.9,0.9-0.9c0.5,0,0.9,0.4,0.9,0.9"/>
<path class="st7" d="M28.6,13.9c-0.5,0-0.9-0.4-0.9-0.9"/>
<path class="st7" d="M29.5,13c0,0.5-0.4,0.9-0.9,0.9"/>
<path class="st7" d="M29.1,12.3l-0.7,0.2c-0.6,0.2-0.5,1.3,0.3,1.1l0.7-0.2"/>
<polyline id="_x3C_Sector_x3E_" class="st8" points="27.1,13.6 26.5,13.6 26.5,12.6 27.5,12.6 27.5,13.6 27.1,13.6 "/>
</svg>
