<?xml version="1.0" encoding="utf-8"?>
<!-- Generator: Adobe Illustrator 26.5.0, SVG Export Plug-In . SVG Version: 6.00 Build 0)  -->
<svg version="1.1" id="Capa_1" xmlns="http://www.w3.org/2000/svg" xmlns:xlink="http://www.w3.org/1999/xlink" x="0px" y="0px"
	 viewBox="0 0 26.1 22.9" style="enable-background:new 0 0 26.1 22.9;" xml:space="preserve">
<style type="text/css">
	.st0{fill:#050C44;}
</style>
<g id="presentation" transform="translate(0.001 0)">
	<path id="Path_2606" class="st0" d="M23.7,0H12.2c-1.3,0-2.4,1.1-2.4,2.4v7.4L7.7,8.7c-0.1,0-0.1-0.1-0.2-0.1
		c1.4-1.4,1.3-3.8-0.1-5.1S3.6,2.1,2.2,3.6S0.9,7.3,2.4,8.7c0,0,0.1,0.1,0.1,0.1C0.9,9.7,0,11.3,0,13.1v2.5c0,1,0.7,2,1.6,2.3v4.3
		c0,0.4,0.3,0.8,0.8,0.8c0,0,0,0,0,0h4.9c0.4,0,0.8-0.3,0.8-0.8c0,0,0,0,0,0v-8.6l2.5,1.2c1,0.5,2.2,0.1,2.8-0.9h2.7l-2.9,8
		c-0.1,0.4,0.1,0.8,0.5,1c0.4,0.1,0.8-0.1,0.9-0.4l3.1-8.5h0.5l3.1,8.5c0.2,0.4,0.6,0.6,1,0.4c0.4-0.1,0.6-0.6,0.4-1l-2.9-8h3.9
		c1.3,0,2.4-1.1,2.4-2.4l0,0v-9C26.1,1.1,25.1,0,23.7,0C23.7,0,23.7,0,23.7,0z M2.8,6.1C2.8,4.9,3.7,4,4.9,4S7,4.9,7,6.1
		S6,8.2,4.9,8.2C3.7,8.2,2.8,7.3,2.8,6.1z M12,13L12,13c-0.1,0.3-0.4,0.5-0.7,0.4c0,0,0,0-0.1,0l-3.6-1.8c-0.4-0.2-0.8,0-1,0.3
		c-0.1,0.1-0.1,0.2-0.1,0.3v9.1H3.2v-4.2c0-0.4-0.3-0.8-0.8-0.8c0,0,0,0,0,0c-0.5,0-0.9-0.4-0.9-0.9l0,0v-2.5c0-1.8,1.5-3.3,3.3-3.3
		h0.7c0.5,0,1,0.1,1.5,0.3l4.8,2.4C12,12.6,12.1,12.8,12,13L12,13z M24.6,11.4c0,0.2-0.1,0.5-0.3,0.6c-0.2,0.2-0.4,0.3-0.6,0.3H13.5
		v0l1.9-3.8c0.2-0.4,0-0.8-0.4-1c-0.4-0.2-0.8,0-1,0.3L12.4,11l-1-0.5V2.4c0-0.5,0.4-0.9,0.9-0.9h11.5c0.2,0,0.5,0.1,0.6,0.3
		c0.2,0.2,0.3,0.4,0.3,0.6L24.6,11.4z"/>
	<path id="Path_2607" class="st0" d="M22.1,3.3h-8.2c-0.4,0-0.8,0.3-0.8,0.7c0,0.4,0.3,0.8,0.7,0.8c0,0,0,0,0.1,0h8.2
		c0.4,0,0.8-0.3,0.8-0.7C22.9,3.7,22.6,3.3,22.1,3.3C22.1,3.3,22.1,3.3,22.1,3.3z"/>
	<path id="Path_2608" class="st0" d="M22.1,6.2H18c-0.4,0-0.8,0.3-0.8,0.7c0,0.4,0.3,0.8,0.7,0.8c0,0,0,0,0.1,0h4.1
		c0.4,0,0.8-0.3,0.8-0.7C22.9,6.5,22.6,6.2,22.1,6.2C22.1,6.2,22.1,6.2,22.1,6.2z"/>
	<path id="Path_2609" class="st0" d="M22.1,9H18c-0.4,0-0.8,0.3-0.8,0.7s0.3,0.8,0.7,0.8c0,0,0,0,0.1,0h4.1c0.4,0,0.8-0.3,0.8-0.7
		S22.6,9,22.1,9C22.1,9,22.1,9,22.1,9z"/>
</g>
</svg>
