<svg id="Iconos" xmlns="http://www.w3.org/2000/svg" viewBox="0 0 50 50"><title>Iconos Bádminton</title><path d="M23.57,48.12a1,1,0,0,1-1-1V40.94a4.6,4.6,0,0,0-.25-1.51l-.91-2.74h-.38a2.76,2.76,0,0,1-2.75-2.76,2.79,2.79,0,0,1,.22-1.06,2.71,2.71,0,0,1-1.65-2.62h-4a2.39,2.39,0,0,1-2.39-2.39V4.27a2.39,2.39,0,0,1,2.39-2.39H30a2.4,2.4,0,0,1,2.39,2.39V7.13a1,1,0,0,1-1,1,1,1,0,0,1-.72-.32,1,1,0,0,1-.24-.69V4.27A.47.47,0,0,0,30,3.81H12.85a.47.47,0,0,0-.46.46V27.86a.47.47,0,0,0,.46.46H22.3a4.7,4.7,0,0,0,.05-1.83l-1.58-8.94a2.73,2.73,0,0,1,0-.41,2.4,2.4,0,0,1,2.39-2.4,4.46,4.46,0,0,1,4.28,3.15l2.24,7.17.82-1.1V10a1,1,0,1,1,1.93,0v8.11l5.11,4.09a5.41,5.41,0,0,1,1.75,5.93l-2,6.05a7.61,7.61,0,0,0-.33,3.35l1.19,9.52v.1a1,1,0,0,1-.28.69,1,1,0,0,1-.68.28Zm12.49-1.93L35,37.77a9.7,9.7,0,0,1,.42-4.21l2-6A3.5,3.5,0,0,0,36.3,23.7l-3.91-3.13v2.75h.47a1,1,0,0,1,.75.31,1,1,0,0,1,.25.7,1,1,0,0,1-1,.92h-1l-1.42,1.9,1.71,2.28a1,1,0,0,1,.2.79,1,1,0,0,1-.41.62,1,1,0,0,1-.54.16,1,1,0,0,1-.8-.43L28.5,27.71a.86.86,0,0,1-.13-.28l-2.81-9a2.52,2.52,0,0,0-2.42-1.79v0a.5.5,0,0,0-.38.2.48.48,0,0,0-.08.35l1.58,8.93a6.77,6.77,0,0,1-.33,3.51l-.53,1.41a7.7,7.7,0,0,0-.09,5.08l.89,2.67a6.67,6.67,0,0,1,.35,2.11v5.26ZM21,33.11a.82.82,0,0,0-.76.82.81.81,0,0,0,.79.82A9,9,0,0,1,21,33.11Zm-2.18-2.86a.41.41,0,0,0,0,.11.82.82,0,0,0,.82.82h1.7c.07-.27.16-.53.25-.79l.06-.14Z"/><path d="M30,2.13a2.14,2.14,0,0,1,2.14,2.14V7.13a.09.09,0,0,1,0,.07.71.71,0,0,1-.71.68h0a.71.71,0,0,1-.67-.75V4.27A.71.71,0,0,0,30,3.56H12.85a.71.71,0,0,0-.71.71V27.86a.71.71,0,0,0,.71.71H22.5a4.94,4.94,0,0,0,.09-2.13L21,17.51a2.31,2.31,0,0,1,0-.37A2.14,2.14,0,0,1,23.13,15h0a4.23,4.23,0,0,1,4,3l2.39,7.64,1.16-1.55V9.92a.71.71,0,0,1,.71-.68h0a.72.72,0,0,1,.68.75v8.24l5.21,4.16A5.18,5.18,0,0,1,39,28.05L37,34.1a7.94,7.94,0,0,0-.34,3.46l1.19,9.51v.08a.71.71,0,0,1-.71.72H23.57a.71.71,0,0,1-.71-.71V40.94a5.09,5.09,0,0,0-.26-1.59l-.89-2.67c0-.08,0-.16-.07-.24h-.57a2.5,2.5,0,0,1-2.5-2.51,2.42,2.42,0,0,1,.32-1.2A2.47,2.47,0,0,1,17.17,30H12.85a2.14,2.14,0,0,1-2.14-2.14V4.27a2.14,2.14,0,0,1,2.14-2.14H30M24.29,46.44H36.34l-1.09-8.7a9.49,9.49,0,0,1,.4-4.1l2-6a3.73,3.73,0,0,0-1.21-4.09l-4.32-3.46v3.52h.79a.72.72,0,0,1,0,1.43H31.78l-1.6,2.15L32,29.57l0,.06a.71.71,0,0,1-.19,1,.72.72,0,0,1-1-.19l-2.15-2.87a.66.66,0,0,1-.11-.2l-2.8-9a2.79,2.79,0,0,0-2.66-2H23a.73.73,0,0,0-.58.83L24,26.19a6.48,6.48,0,0,1-.31,3.38L23.16,31a8,8,0,0,0-.1,5.25L24,38.9a6.69,6.69,0,0,1,.33,2v5.51m-4.65-15h1.89a7.5,7.5,0,0,1,.3-.95L22,30H18.64a1,1,0,0,0-.07.36,1.07,1.07,0,0,0,1.07,1.07M21.07,35h.25a9.58,9.58,0,0,1,0-2.14h-.21a1.07,1.07,0,0,0,0,2.14M30,1.63H12.85a2.64,2.64,0,0,0-2.64,2.64V27.86a2.64,2.64,0,0,0,2.64,2.64h3.79A3,3,0,0,0,18.23,33a2.68,2.68,0,0,0-.16.93,3,3,0,0,0,3,3h.2l.86,2.57a4.6,4.6,0,0,1,.23,1.43v6.22a1.21,1.21,0,0,0,1.21,1.21H37.15A1.22,1.22,0,0,0,38,48a1.19,1.19,0,0,0,.35-.86.76.76,0,0,0,0-.15l-1.18-9.5a7.25,7.25,0,0,1,.32-3.24l2-6A5.68,5.68,0,0,0,37.67,22l-5-4V10A1.22,1.22,0,0,0,31.5,8.74h-.07a1.22,1.22,0,0,0-1.21,1.15v14l-.48.64-2.1-6.71a4.69,4.69,0,0,0-4.5-3.32,2.65,2.65,0,0,0-2.65,2.65,2.45,2.45,0,0,0,0,.46l1.57,8.93a4.43,4.43,0,0,1,0,1.54H12.85a.21.21,0,0,1-.21-.21V4.27a.21.21,0,0,1,.21-.21H30a.22.22,0,0,1,.22.21V7.13a1.21,1.21,0,0,0,1.15,1.25h.06a1.21,1.21,0,0,0,1.21-1.15.29.29,0,0,0,0-.13V4.27A2.64,2.64,0,0,0,30,1.63ZM24.79,45.94v-5a6.84,6.84,0,0,0-.36-2.19l-.89-2.67a7.39,7.39,0,0,1,.09-4.91l.53-1.41a6.94,6.94,0,0,0,.33-3.64l-1.57-8.94a.2.2,0,0,1,.17-.24h0a2.27,2.27,0,0,1,2.22,1.61l2.81,9a1.2,1.2,0,0,0,.18.36l2.15,2.86a1.21,1.21,0,0,0,1,.51,1.26,1.26,0,0,0,.68-.2,1.23,1.23,0,0,0,.33-1.69l-.08-.1L30.8,27.14,32,25.49h.83a1.23,1.23,0,0,0,1.25-1.15,1.26,1.26,0,0,0-.31-.87,1.24,1.24,0,0,0-.84-.4h-.32v-2l3.51,2.81a3.23,3.23,0,0,1,1,3.54l-2,6.05a9.84,9.84,0,0,0-.42,4.31l1,8.14ZM19.09,30.5h2.2c-.05.14-.1.28-.14.43H19.64a.57.57,0,0,1-.55-.43Zm1.67,3.91a.56.56,0,0,1-.26-.48.58.58,0,0,1,.24-.47c0,.32,0,.64,0,.95Z" style="fill:#fff"/></svg>