<svg id="Capa_1" data-name="Capa 1" xmlns="http://www.w3.org/2000/svg" viewBox="0 0 32.58 40.37"><defs><style>.cls-1,.cls-2{fill:#ffde37;}.cls-2{font-size:11.08px;font-family:CachetStd-Medium, Cachet Std;font-weight:500;}</style></defs><g id="Iconos"><path class="cls-1" d="M36,27.1a4.06,4.06,0,0,0-1.3-4.4l-4.1-3.3V12.9a.56.56,0,0,0-.5-.6h0a.56.56,0,0,0-.6.5V23.9l-.9,1.2-1.9-6a3.24,3.24,0,0,0-3.2-2.3,1.75,1.75,0,0,0-1.7,1.7h0v.3l1.2,7a3.28,3.28,0,0,1-.1,1.7H15.4a.65.65,0,0,1-.6-.6V8.4a.65.65,0,0,1,.6-.6H28.8a.65.65,0,0,1,.6.6v2.3a.55.55,0,1,0,1.1.1V8.4a1.75,1.75,0,0,0-1.7-1.7H15.5a1.75,1.75,0,0,0-1.7,1.7V26.9a1.67,1.67,0,0,0,1.6,1.7h3.4a1.87,1.87,0,0,0,1.4,2.1,1.8,1.8,0,0,0-.2,1,2,2,0,0,0,2,2h.5v.2l.7,2.1a5,5,0,0,1,.2,1.2v4.9a.65.65,0,0,0,.6.6H34.6a.65.65,0,0,0,.6-.6h0V42l-.9-7.5a6.26,6.26,0,0,1,.3-2.7ZM20,28.9v-.3h2.6l-.1.4a1.88,1.88,0,0,0-.2.8H20.8A1.06,1.06,0,0,1,20,28.9Zm2,3.6a.79.79,0,0,1-.8-.8.86.86,0,0,1,.8-.8h.2a4.85,4.85,0,0,0,0,1.7H22Zm11,2.2.8,6.8H24.4V37.2a4.53,4.53,0,0,0-.3-1.6l-.7-2.1a6.4,6.4,0,0,1,.1-4.1l.4-1.1a5.82,5.82,0,0,0,.3-2.6l-1.2-7c0-.3.1-.6.5-.6h.1a2.16,2.16,0,0,1,2.1,1.5l2.2,7c0,.1.1.1.1.2h0L29.7,29a.61.61,0,0,0,.8.1.49.49,0,0,0,.1-.7h0l-1.5-2,1.3-1.7h.8a.56.56,0,0,0,.6-.5h0a.56.56,0,0,0-.5-.6h-.6V20.8l3.4,2.7a2.8,2.8,0,0,1,1,3.2l-1.6,4.7A6.37,6.37,0,0,0,33,34.7Z" transform="translate(-3.61 -2.33)"/></g><text class="cls-2" transform="translate(0 9.25)">R</text></svg>