<svg id="Iconos" xmlns="http://www.w3.org/2000/svg" viewBox="0 0 48.39 37.86"><defs><style>.cls-1{fill:#ff3737;}.cls-2{fill:#ffde37;}</style></defs><path class="cls-1" d="M32.06,31.23a2.08,2.08,0,0,0,1.35,2.14,2.06,2.06,0,0,0-.25.94,2,2,0,0,0,2,2h.45l.06.2.69,2.09a4,4,0,0,1,.15,1.2v4.87a.56.56,0,0,0,.56.56H47.73a.56.56,0,0,0,.56-.56h0v-.06l-.93-7.46a6.23,6.23,0,0,1,.27-2.71l1.58-4.74a4,4,0,0,0-1.31-4.44L43.81,22s-1.11-.09-1.12.22v6.11l-.47.61L40,21.8a3.3,3.3,0,0,0-3.16-2.33,1.68,1.68,0,0,0-1.68,1.68h0a1.41,1.41,0,0,0,0,.29l1.24,7a4.08,4.08,0,0,1-.08,1.67h-4.2S32.06,31,32.06,31.23Zm1.1.28a.72.72,0,0,1,.06-.29h2.64l-.14.38a6.34,6.34,0,0,0-.23.74H34A.84.84,0,0,1,33.16,31.51Zm2,3.64a.84.84,0,0,1,0-1.68h.17a7.86,7.86,0,0,0,0,1.68Zm11.12,2.14.86,6.82h-9.5V39.8a5.14,5.14,0,0,0-.25-1.6l-.7-2.09A6.17,6.17,0,0,1,36.76,32l.42-1.11a5.09,5.09,0,0,0,.24-2.65l-1.23-7a.55.55,0,0,1,.43-.65h.12a2.18,2.18,0,0,1,2.09,1.54l2.2,7a.48.48,0,0,0,.08.16h0l1.68,2.24a.56.56,0,0,0,.76.16h0a.55.55,0,0,0,.16-.77h0l-1.13-1.51,1-2.08h.84A.56.56,0,0,0,45,26.8v0a.56.56,0,0,0-.53-.59h-.62V23.43l3.39,2.7a3,3,0,0,1,1,3.21l-1.58,4.74a7.16,7.16,0,0,0-.44,3.21Z" transform="translate(-1.04 -7.37)"/><path class="cls-1" d="M41.78,29.85a1.56,1.56,0,0,0,1.63-1.48l.9-18.71A1.56,1.56,0,0,0,42.85,8h0L29.15,7.37a1.56,1.56,0,0,0-1.64,1.48h0l-.9,18.71a1.56,1.56,0,0,0,1.48,1.63l8.9.43.1-1.1-9-.43a.45.45,0,0,1-.43-.47h0l.9-18.71a.47.47,0,0,1,.49-.43l13.67.65a.47.47,0,0,1,.44.49l-.6,12.45-.3,6.25a.47.47,0,0,1-.48.44h0Z" transform="translate(-1.04 -7.37)"/><path class="cls-1" d="M31,28.73H32.2l1.07.32a2.67,2.67,0,0,1-.74.36c-.61,0-.86.69,0,.72.39,0,.73,1.09.73,1.09a4.62,4.62,0,0,1-1.61-.28C30.59,30.42,31,28.73,31,28.73Z" transform="translate(-1.04 -7.37)"/><path class="cls-2" d="M18.39,30.11h-4.2a4.08,4.08,0,0,1-.08-1.67l1.24-7a1.41,1.41,0,0,0,0-.29h0a1.68,1.68,0,0,0-1.68-1.68,3.3,3.3,0,0,0-3.16,2.33L8.24,28.94l-.47-.61V22.22c0-.31-1.12-.22-1.12-.22L2.56,25.26A4,4,0,0,0,1.25,29.7l1.58,4.74a6.08,6.08,0,0,1,.27,2.71l-.93,7.46v.06h0a.57.57,0,0,0,.56.56H13.39a.56.56,0,0,0,.56-.56V39.8a4,4,0,0,1,.15-1.2l.69-2.09.06-.2h.45a2,2,0,0,0,2-2,1.94,1.94,0,0,0-.25-.94,2.07,2.07,0,0,0,1.35-2.14C18.4,31,18.39,30.11,18.39,30.11Zm-1.93,2.23H15a4.87,4.87,0,0,0-.23-.74l-.14-.38h2.64a.72.72,0,0,1,.06.29A.84.84,0,0,1,16.46,32.34Zm-1.33,2.81a7.86,7.86,0,0,0,0-1.68h.17a.84.84,0,1,1,0,1.68ZM4.22,37.29a7.16,7.16,0,0,0-.44-3.21L2.2,29.34a3,3,0,0,1,1-3.21l3.39-2.7v2.76H6a.57.57,0,0,0-.53.59v0a.55.55,0,0,0,.58.51h.84l1,2.08L6.74,30.9h0a.56.56,0,0,0,.16.77h0a.56.56,0,0,0,.76-.16l1.68-2.24h0a.35.35,0,0,0,.08-.16l2.2-7a2.2,2.2,0,0,1,2.09-1.54h.12a.55.55,0,0,1,.43.65l-1.23,7a5.2,5.2,0,0,0,.24,2.65L13.7,32a6.11,6.11,0,0,1,.07,4.11l-.7,2.09a5.45,5.45,0,0,0-.25,1.6v4.31H3.32l.86-6.82Z" transform="translate(-1.04 -7.37)"/><path class="cls-2" d="M8.63,28.75h0a.47.47,0,0,1-.48-.44l-.3-6.25L7.25,9.61a.47.47,0,0,1,.44-.49l13.67-.65a.47.47,0,0,1,.49.43l.9,18.71h0a.46.46,0,0,1-.44.47l-9,.43.1,1.1,8.9-.43a1.56,1.56,0,0,0,1.48-1.63L23,8.85h0a1.55,1.55,0,0,0-1.64-1.48L7.63,8h0A1.57,1.57,0,0,0,6.15,9.66l.9,18.71a1.57,1.57,0,0,0,1.63,1.48Z" transform="translate(-1.04 -7.37)"/><path class="cls-2" d="M18.81,30.94a4.62,4.62,0,0,1-1.61.28s.34-1.09.73-1.09c.86,0,.61-.72,0-.72a2.67,2.67,0,0,1-.74-.36l1.07-.32h1.17S19.87,30.42,18.81,30.94Z" transform="translate(-1.04 -7.37)"/></svg>