<?xml version="1.0" encoding="utf-8"?>
<!-- Generator: Adobe Illustrator 25.4.1, SVG Export Plug-In . SVG Version: 6.00 Build 0)  -->
<svg version="1.1" id="Capa_1" xmlns="http://www.w3.org/2000/svg" xmlns:xlink="http://www.w3.org/1999/xlink" x="0px" y="0px"
	 viewBox="0 0 62.5 97.5" style="enable-background:new 0 0 62.5 97.5;" xml:space="preserve">
<style type="text/css">
	.st0{fill:none;stroke:#00E9C5;stroke-width:2.5;stroke-miterlimit:10;}
	.st1{fill:none;stroke:#00E9C5;stroke-width:2;stroke-miterlimit:10;}
	.st2{fill:#FF3737;}
</style>
<g id="Capa_3">
	<circle class="st0" cx="22" cy="85.2" r="11"/>
</g>
<path class="st1" d="M1.3,7.3c0,0-1.5-5.2,2.6-6.2s5.6,4.1,5.6,4.1l0,0c2.6,7.1,27.8,72.8,32.7,79c1.7,2.2,5.8,4.3,9,0.4
	c3.7-4.5-1.7-10.5-1.5-11c0-0.2,0.6-3.2,2.8-3.9c2.2-0.6,4.1,1.1,5,1.7c4.1,3.7,5.8,12.5,1.5,18.9c-4.3,6.5-15.9,8.2-20,1.9
	C36.8,89.3,14,35.9,1.3,7.3z"/>
<line class="st1" x1="11" y1="11.4" x2="4.7" y2="13.1"/>
<line class="st1" x1="12.7" y1="15.9" x2="6.4" y2="17.6"/>
<line class="st1" x1="18.5" y1="29.9" x2="12.3" y2="31.4"/>
<path class="st2" d="M57.9,54.9c0.2,0,0.6,0,0.6-0.2"/>
</svg>
