<?xml version="1.0" encoding="utf-8"?>
<!-- Generator: Adobe Illustrator 25.4.1, SVG Export Plug-In . SVG Version: 6.00 Build 0)  -->
<svg version="1.1" id="Capa_1" xmlns="http://www.w3.org/2000/svg" xmlns:xlink="http://www.w3.org/1999/xlink" x="0px" y="0px"
	 viewBox="0 0 30 27.7" style="enable-background:new 0 0 30 27.7;" xml:space="preserve">
<style type="text/css">
	.st0{fill:#00E9C5;}
	.st1{fill:none;stroke:#FFFFFF;stroke-miterlimit:10;}
	.st2{fill:none;stroke:#00E9C5;stroke-width:1.2;stroke-miterlimit:10;}
</style>
<g transform="translate(0 -0.001)">
	<g transform="translate(11.763 19.431)">
		<path class="st0" d="M6.2-2C6-2.2,5.8-2.2,5.6-2L2.3,1C2.1,1.2,2,1.3,2.3,1.6c0.2,0.2,0.3,0.1,0.5,0l3.4-3.1
			C6.4-1.6,6.4-1.8,6.2-2z"/>
	</g>
	<g transform="translate(0 24.731)">
		<path class="st0" d="M13.4-3.2c-0.2-0.2-0.5-0.2-0.7,0L6.6,2.3C6.2,3.1,6.9,3,7.2,2.9l6.1-5.5C13.5-2.8,13.5-3,13.4-3.2z"/>
	</g>
	<g transform="translate(5.82 16.857)">
		<path class="st0" d="M7.2-0.1C7-0.3,6.7-0.3,6.5-0.1l-7.8,7c-0.2,0.3-0.2,0.5,0,0.7c0.2,0.2,0.5,0.2,0.6,0l7.8-7.2
			C7.4,0.3,7.2-0.1,7.2-0.1L7.2-0.1z"/>
	</g>
	<g transform="translate(0.557 11.928)">
		<path class="st0" d="M11,0.5c-0.2-0.2-0.5-0.2-0.7,0l-10.7,9.7c-0.2,0.2-0.2,0.5,0,0.7s0.5,0.2,0.6,0l10.9-9.7
			C11.2,1,11.2,0.7,11,0.5z"/>
	</g>
	<g transform="translate(4.536 5.357)">
		<path class="st0" d="M8,1.5c-0.2-0.2-0.5-0.2-0.7,0l-7.9,7c-0.2,0.2-0.2,0.5,0,0.7s0.5,0.2,0.6,0l7.8-7.1C8.1,1.9,8.1,1.7,8,1.5z"
			/>
	</g>
	<g transform="translate(12.964 22.171)">
		<path class="st0" d="M10.4-4.4c-0.2-0.2-0.5-0.2-0.7,0L1,3.5C0.8,3.7,0.8,4,1,4.2c0.2,0.2,0.5,0.2,0.6,0l8.8-8
			C10.6-3.9,10.6-4.2,10.4-4.4z"/>
	</g>
</g>
<path class="st1" d="M13.8,8.4c0-4.3,3.5-7.8,7.8-7.8s7.8,3.5,7.8,7.8s-3.5,7.8-7.8,7.8"/>
<path class="st1" d="M21.6,16.2c-4.3,0-7.8-3.5-7.8-7.8"/>
<path class="st2" d="M13.8,8.4c0-4.3,3.5-7.8,7.8-7.8s7.8,3.5,7.8,7.8s-3.5,7.8-7.8,7.8"/>
<path class="st2" d="M21.6,16.2c-4.3,0-7.8-3.5-7.8-7.8"/>
</svg>
