<?xml version="1.0" encoding="utf-8"?>
<!-- Generator: Adobe Illustrator 25.4.1, SVG Export Plug-In . SVG Version: 6.00 Build 0)  -->
<svg version="1.1" id="Capa_1" xmlns="http://www.w3.org/2000/svg" xmlns:xlink="http://www.w3.org/1999/xlink" x="0px" y="0px"
	 viewBox="0 0 49.6 35.9" style="enable-background:new 0 0 49.6 35.9;" xml:space="preserve">
<style type="text/css">
	.st0{fill:none;stroke:#FF3737;stroke-miterlimit:10;}
	.st1{fill:none;stroke:#00E9C5;stroke-miterlimit:10;}
	.st2{fill:#FF3737;}
</style>
<path class="st0" d="M0.5,30.8V3.5c0-1.6,1.4-3,3-3h42.6c1.6,0,3,1.4,3,3v27.1"/>
<path class="st0" d="M30,21.1c6.8,1.3,14.1,4.4,16.8,5.9V6.3c0-1.5-1.3-2.7-2.7-2.7h-4.7h-4.8H30h-5h-5h-5.3h-4.4H5.7
	C4.2,3.6,3,4.9,3,6.3v4.6v4.7v5.1v6.2c2.6-1.5,9.4-4.9,16.6-6.1"/>
<line class="st0" x1="9.1" y1="3.5" x2="9" y2="24"/>
<line class="st0" x1="14.7" y1="3.5" x2="14.8" y2="22.2"/>
<line class="st0" x1="20.3" y1="3.6" x2="20.3" y2="15.9"/>
<path class="st0" d="M25,20.7"/>
<path class="st0" d="M24.9,8.2"/>
<line class="st0" x1="24.9" y1="3.5" x2="24.9" y2="14.2"/>
<line class="st0" x1="29.9" y1="3.5" x2="29.9" y2="17.6"/>
<line class="st0" x1="35.8" y1="3.5" x2="35.7" y2="22.4"/>
<line class="st0" x1="40.6" y1="3.5" x2="40.6" y2="23.9"/>
<g>
	<g>
		<path class="st0" d="M21.6,15c-0.7,0.1-6.1,1.4-6.8,1.6c-5.3,1.1-9.5,2.9-12,4.1"/>
	</g>
</g>
<g>
	<g>
		<path class="st0" d="M46.8,20.8c-2.7-1.3-11.7-3.5-17.6-4.6"/>
	</g>
</g>
<path class="st0" d="M25,10.7c-8.3-0.1-19,3.7-22.1,5.2"/>
<path class="st0" d="M18.7,11.2"/>
<path class="st0" d="M32.2,11.4"/>
<path class="st0" d="M46.9,16.1C44,14.6,32.2,10.4,25,10.7"/>
<path class="st0" d="M46.6,10.8C45.3,10.8,28,1.6,3,10.9"/>
<path class="st1" d="M46.6,11.2"/>
<path class="st0" d="M30,15.3"/>
<circle class="st0" cx="24.8" cy="19.2" r="5.3"/>
<g>
	<path class="st2" d="M6.3,35.9H5.8c-0.3,0-0.4-0.1-0.5-0.4L5,34.8c-0.7,0-1.5,0-2.3,0l-0.2,0.6c-0.1,0.3-0.2,0.5-0.6,0.5H1.4
		c-0.3,0-0.6,0.1-0.5-0.4c0-0.1,0.1-0.2,0.1-0.3L3,30c0.2-0.5,0.4-0.5,0.9-0.5c0.4,0,0.5,0.1,0.7,0.5l2.1,5.3c0,0.1,0.1,0.2,0.1,0.3
		C6.8,35.8,6.5,35.9,6.3,35.9z M3.8,31.6l-0.7,2.1h1.5L3.8,31.6z"/>
	<path class="st2" d="M12.7,34.1c-0.3,1.5-1.1,1.8-2.5,1.8c-2.7,0-2.7-1.7-2.7-3.9v-2.1c0-0.5,0.5-0.5,0.9-0.5
		c0.3,0,0.5,0.1,0.5,0.5v2.7c0,0.4,0,1.1,0.2,1.6c0.2,0.4,0.6,0.4,1,0.4s0.8,0,1-0.4s0.2-1.1,0.2-1.6v-2.7c0-0.5,0.6-0.5,0.9-0.5
		c0.3,0,0.5,0.1,0.5,0.5l0.1,2C12.8,32.7,12.8,33.4,12.7,34.1z"/>
	<path class="st2" d="M18.2,30.7c-0.4,0-0.8,0-1.2,0v4.6c0,0.6-0.5,0.5-0.9,0.5s-0.5-0.1-0.5-0.5v-4.6c-0.4,0-0.8,0-1.2,0
		c-0.7,0-0.7-0.5-0.7-0.8s0.2-0.5,0.5-0.5h4.1c0.5,0,0.5,0.2,0.5,0.7S18.6,30.7,18.2,30.7z"/>
	<path class="st2" d="M22.2,35.9c-2.1,0-2.8-1.5-2.8-3.3c0-1.8,0.6-3.3,2.8-3.3s2.8,1.5,2.8,3.3C25.1,34.5,24.3,35.9,22.2,35.9z
		 M23.3,31.1c-0.2-0.4-0.6-0.5-1-0.5s-0.8,0.1-1,0.5s-0.2,1.1-0.2,1.6c0,0.4,0,1.1,0.2,1.6c0.2,0.4,0.6,0.5,1,0.5s0.8-0.1,1-0.5
		s0.2-1.1,0.2-1.6C23.5,32.1,23.5,31.4,23.3,31.1z"/>
	<path class="st2" d="M30.4,35.7c-0.4,0.1-1,0.2-1.6,0.2c-2.3,0-2.8-1-2.8-3.2c0-1.1,0.1-2.7,1.2-3.1c0.4-0.2,0.7-0.2,1.3-0.2
		c0.4,0,0.9,0,1.4,0c0.3,0,0.9-0.1,1,0.4v0.4c0,0.4-0.1,0.5-0.5,0.5c-0.2,0-0.3,0-0.5,0c-0.3,0-0.5,0-0.8,0c-0.2,0-0.7,0-0.9,0.1
		c-0.6,0.3-0.6,1.4-0.6,1.9c0,0.7,0,1.8,0.9,2c0.2,0,0.5,0,0.7,0c0.1,0,0.2,0,0.3,0v-1.5h-0.7c-0.5,0-0.5-0.3-0.5-0.6
		s0.1-0.5,0.5-0.5h1.7c0.3,0,0.5,0.2,0.5,0.5v2.6C30.9,35.4,30.8,35.5,30.4,35.7z"/>
	<path class="st2" d="M34.8,35.9c-2.1,0-2.8-1.5-2.8-3.3c0-1.8,0.7-3.4,2.8-3.4c2.2,0,2.8,1.5,2.8,3.3
		C37.6,34.5,36.9,35.9,34.8,35.9z M35.9,31.1c-0.2-0.4-0.6-0.5-1-0.5s-0.8,0.1-1,0.5s-0.2,1.1-0.2,1.6c0,0.4,0,1.1,0.2,1.6
		c0.2,0.4,0.6,0.5,1,0.5s0.8-0.1,1-0.5s0.2-1.1,0.2-1.6C36.1,32.1,36.1,31.4,35.9,31.1z"/>
	<path class="st2" d="M48.1,35.9h-2.6c-0.3,0-0.5-0.1-0.5-0.5V30c0-0.4,0.2-0.5,0.5-0.5h0.4c0.3,0,0.5,0.1,0.5,0.5v4.7
		c0.6,0,1.1,0,1.8,0c0.5,0,0.5,0.4,0.5,0.7C48.6,35.7,48.4,35.9,48.1,35.9z"/>
</g>
<path class="st2" d="M43.8,35.9h-0.5c-0.3,0-0.4-0.1-0.5-0.4l-0.3-0.7c-0.7,0-1.5,0-2.3,0L40,35.4c-0.1,0.3-0.2,0.5-0.6,0.5h-0.5
	c-0.3,0-0.6,0.1-0.5-0.4c0-0.1,0.1-0.2,0.1-0.3l2-5.2c0.2-0.5,0.4-0.5,0.9-0.5c0.4,0,0.5,0.1,0.7,0.5l2.1,5.3c0,0.1,0.1,0.2,0.1,0.3
	C44.2,35.8,44,35.9,43.8,35.9z M41.3,31.6l-0.7,2.1h1.5L41.3,31.6z"/>
</svg>
