<?xml version="1.0" encoding="utf-8"?>
<!-- Generator: Adobe Illustrator 25.4.1, SVG Export Plug-In . SVG Version: 6.00 Build 0)  -->
<svg version="1.1" id="Capa_1" xmlns="http://www.w3.org/2000/svg" xmlns:xlink="http://www.w3.org/1999/xlink" x="0px" y="0px"
	 viewBox="0 0 105.5 139" style="enable-background:new 0 0 105.5 139;" xml:space="preserve">
<style type="text/css">
	.st0{fill:none;stroke:#FF3737;stroke-width:3.5;stroke-miterlimit:10;}
	.st1{enable-background:new    ;}
	.st2{fill:#FF3737;}
</style>
<path class="st0" d="M32.4,133.6c-5.3,6.9-21.8,3.1-27.4-4c-5.5-7-3.4-16.7,1.9-20.8c1.2-0.7,3.6-2.5,6.5-1.9
	c2.8,0.8,3.6,4.1,3.6,4.3c0.2,0.5-6.7,7.1-1.9,12.1c4.1,4.3,9.4,2,11.6-0.4C33.1,116.1,65.6,43.8,69,36l0,0c0,0,1.9-5.6,7.3-4.5
	c5.4,1.1,3.4,6.8,3.4,6.8C63.1,69.8,37.6,128.9,32.4,133.6z"/>
<line class="st0" x1="75.1" y1="44.7" x2="67" y2="42.8"/>
<line class="st0" x1="71.5" y1="51.5" x2="63.4" y2="49.7"/>
<line class="st0" x1="65.2" y1="64.8" x2="57.3" y2="63.2"/>
<g class="st1">
	<path class="st2" d="M30,86.4c-2.6,1.3-6.9,0.9-9.9,0.9v6.5c0,2.6-2.2,2.3-4.2,2.3c-1.6,0-2.5-0.5-2.5-2.3V70.2
		c0-1.7,1.1-2.1,2.5-2.1h7.9c3,0,5.4-0.1,7.7,2.1c2,2,2.3,5.3,2.3,7.9C33.9,81.3,33.2,84.9,30,86.4z M20,73.6v8.1h4.6
		c0.6,0,1.7,0,2.1-0.6c0.4-0.5,0.4-2.3,0.4-3c0-1,0.1-3.9-0.9-4.3c-0.5-0.3-2-0.3-2.6-0.3C22.4,73.6,21.2,73.6,20,73.6z"/>
</g>
<path class="st0" d="M58,82.7c8.9,18.9,17.8,37,20.9,40.2c2.2,2.4,7.5,4.7,11.6,0.4c4.8-4.9-2.2-11.5-1.9-12.1
	c0-0.2,0.8-3.5,3.6-4.3c2.8-0.6,5.2,1.2,6.3,1.9c5.3,4.1,7.5,13.7,1.9,20.8c-5.5,7.1-22.1,10.9-27.4,4c-2.7-2.4-10.8-19.5-20.3-39.8
	"/>
<path class="st0" d="M47.3,82.1C40,66.5,32.4,50.4,26,38.3c0,0-1.9-5.7,3.4-6.8s7.3,4.5,7.3,4.5l0,0c1.4,3.4,8.3,18.6,16.1,35.5"/>
<line class="st0" x1="38.6" y1="42.8" x2="30.5" y2="44.7"/>
<line class="st0" x1="42" y1="49.6" x2="33.8" y2="51.4"/>
<line class="st0" x1="48.2" y1="63.2" x2="40.2" y2="64.8"/>
<g class="st1">
	<path class="st2" d="M91.1,94.2c-1.6,0.1-3.3,0.2-4.9,0.2c-10.4,0-12.8-4.8-12.8-14.2c0-5,0.5-11.5,5.9-13.7c2.1-0.8,4.7-1,7-1
		c1.6,0,3.3,0.1,4.9,0.2c1.3,0.1,2.6,0.3,2.6,1.9v1.3c0,1.7-0.3,2.4-2.1,2.4c-1.5,0-3.1-0.2-4.6-0.2c-1.1,0-3.5,0.1-4.5,0.5
		c-2.7,1.2-2.3,6.1-2.3,8.5c0,3.1-0.3,7.6,3.7,8.4c1,0.2,2.1,0.2,3.3,0.2c1.5,0,3.1-0.2,4.6-0.2c2.5,0,2.1,1.8,2.1,3.8
		C93.7,93.9,92.4,94.1,91.1,94.2z"/>
</g>
</svg>
