<?xml version="1.0" encoding="utf-8"?>
<!-- Generator: Adobe Illustrator 25.4.1, SVG Export Plug-In . SVG Version: 6.00 Build 0)  -->
<svg version="1.1" id="Capa_1" xmlns="http://www.w3.org/2000/svg" xmlns:xlink="http://www.w3.org/1999/xlink" x="0px" y="0px"
	 viewBox="0 0 40.7 37.2" style="enable-background:new 0 0 40.7 37.2;" xml:space="preserve">
<style type="text/css">
	.st0{fill:#00E9C5;}
	.st1{fill:#FF3737;}
</style>
<path class="st0" d="M22.3,22.3L15,17.8c-0.5-0.3-1.3,0-1.8,0.5c0,0.3-0.3,0.5-0.3,0.5v4.5H1.3c-0.8,0-1.3,0.5-1.3,1.3l0,0v5.5
	c0,0.8,0.5,1.3,1.3,1.3l0,0h11.5v4.5c0,0.8,0.5,1.3,1.3,1.3c0.3,0,0.5,0,0.8-0.3l7.3-4.2l7.3-4.2c0.5-0.3,0.8-1.3,0.5-1.8
	c0-0.3-0.3-0.3-0.5-0.5L22.3,22.3z"/>
<path class="st1" d="M11.2,8.4c-0.3,0.3-0.5,0.3-0.5,0.5c-0.3,0.5,0,1.6,0.5,1.8l7.3,4.2l7.3,4.2c0.3,0.3,0.5,0.3,0.8,0.3
	c0.8,0,1.3-0.5,1.3-1.3v-4.4h11.5l0,0c0.8,0,1.3-0.5,1.3-1.3V6.9l0,0c0-0.8-0.5-1.3-1.3-1.3H27.9V1.1c0,0-0.3-0.3-0.3-0.5
	c-0.5-0.5-1.3-0.8-1.8-0.5l-7.3,4.5L11.2,8.4z"/>
</svg>
