<?xml version="1.0" encoding="utf-8"?>
<!-- Generator: Adobe Illustrator 25.4.1, SVG Export Plug-In . SVG Version: 6.00 Build 0)  -->
<svg version="1.1" id="Capa_1" xmlns="http://www.w3.org/2000/svg" xmlns:xlink="http://www.w3.org/1999/xlink" x="0px" y="0px"
	 viewBox="0 0 43.8 33" style="enable-background:new 0 0 43.8 33;" xml:space="preserve">
<style type="text/css">
	.st0{fill:none;stroke:#FF3737;stroke-width:0.8;stroke-miterlimit:10;}
	.st1{fill:#FFFFFF;stroke:#FF3737;stroke-width:0.8;stroke-miterlimit:10;}
	.st2{fill:none;stroke:#FF3737;stroke-width:0.8;stroke-linecap:round;stroke-miterlimit:10;}
</style>
<g id="Capa_5_2_">
	<path class="st0" d="M18,14.9c0.4,1.1,2.8,6.1,3.8,7.9c0.1,0.1,0.2,0.2,0.3,0.2l0,0c0.2,0,0.4-0.2,0.4-0.4v-0.1
		c0-0.3,0.3-0.6,0.6-0.6l0,0c0.4,0,0.7,0.3,0.7,0.7c-0.1,0.7-0.4,1.6-1.4,1.9c-0.3,0.1-1.2,0-1.6-0.7c-0.3-0.5-2.7-4.9-4.7-9.4"/>
	<path class="st1" d="M16.1,12"/>
	<path class="st1" d="M16.4,12.7"/>
	<path class="st1" d="M17.3,12.4"/>
	<path class="st1" d="M17.3,14.8"/>
	<path class="st1" d="M18.2,14.6"/>
</g>
<path class="st0" d="M16.7,0.4c1.1,0,2,0.9,2,2s-0.9,2-2,2s-2-0.9-2-2S15.6,0.4,16.7,0.4"/>
<path class="st0" d="M13.1,4.2c-0.4,0-1.1,0.4-1.4,0.6c-1.2,1-2.3,2-3.6,3.2c-1.1,1-2,2.1-2.9,3.1c-0.4,0.5-0.3,1.2,0.2,1.6
	c2.7,1.9,4.6,3.1,5.4,3.6c0.3,0.2,0.5,0.6,0.5,1L10.8,22c0.2,0.6,0.7,1,1.3,1s1.2-0.4,1.4-1c0.1-1.8,0.3-4.2,0.4-6.1
	c0-0.4-0.2-0.8-0.5-1c-0.9-0.7-2.8-2.1-3.6-2.7c-0.2-0.1-0.2-0.4,0-0.5l4-3.5c0.1-0.1,0.4-0.1,0.4,0.1l2,6.5
	c0.3,0.6,0.7,0.8,1.1,0.7c0.4-0.1,0.7-0.6,0.7-0.6c-0.9-3.3-1.2-5.4-2.1-8.6c-0.1-0.2-0.2-0.4-0.3-0.6c-0.3-0.3-0.6-0.6-1.1-1
	C14,4.5,13.3,4.2,13.1,4.2z"/>
<path class="st2" d="M4.8,14v3.7c0,0.4-0.2,0.7-0.5,0.9L0.8,21c-0.4,0.4-0.6,1-0.2,1.4c0.4,0.4,1,0.7,1.5,0.4c1.5-1,3.1-2.2,4.6-3.2
	c0.3-0.2,0.5-0.6,0.5-0.9v-3"/>
<g id="Capa_5_00000018946988852612748000000010423084361304579494_">
	<path class="st0" d="M26,22.1C25.6,23.2,23,29.2,22,31c-0.1,0.1-0.2,0.2-0.3,0.2l0,0c-0.2,0-0.4-0.2-0.4-0.4v-0.1
		c0-0.3-0.3-0.6-0.6-0.6l0,0c-0.4,0-0.7,0.3-0.7,0.7c0.1,0.7,0.4,1.6,1.4,1.8c0.3,0.1,1.2,0,1.6-0.7c0.3-0.5,2.8-5,4.8-9.5"/>
	<path class="st1" d="M27.7,20.2"/>
	<path class="st1" d="M27.5,20.9"/>
	<path class="st1" d="M26.5,20.6"/>
	<path class="st1" d="M26.6,23"/>
	<path class="st1" d="M25.6,22.8"/>
</g>
<path class="st0" d="M26.9,8.5c-1.1,0-2,0.9-2,2s0.9,2,2,2s2-0.9,2-2S28,8.5,26.9,8.5"/>
<path class="st0" d="M30.7,12.4c0.4,0,0.7,0.1,1,0.3c1.2,1,2.7,2.3,4,3.5c1.1,1,2,2.1,2.9,3.1c0.4,0.5,0.3,1.2-0.2,1.6
	c-2.7,1.9-4.6,3.1-5.4,3.6c-0.3,0.2-0.5,0.6-0.5,1l0.5,4.7c-0.2,0.6-0.7,1-1.3,1c-0.7,0-1.2-0.4-1.4-1c-0.1-1.8-0.3-4.2-0.4-6.1
	c0-0.4,0.2-0.8,0.5-1c0.9-0.7,2.8-2.1,3.6-2.7c0.2-0.1,0.2-0.4,0-0.5l-4-3.5c-0.1-0.1-0.4-0.1-0.4,0.1l-2,6.5
	c-0.3,0.6-0.7,0.8-1.1,0.7s-0.7-0.6-0.7-0.6c0.9-3.4,1.1-5.1,2.1-8.5c0.2-0.8,0.7-1.5,1.3-1.8C29.7,12.5,30.1,12.4,30.7,12.4z"/>
<path class="st2" d="M39,22.1v3.7c0,0.4,0.2,0.7,0.5,0.9l3.5,2.3c0.4,0.4,0.6,1,0.2,1.4c-0.3,0.4-1,0.7-1.5,0.4
	c-1.5-1-3.1-2.2-4.6-3.2c-0.3-0.2-0.5-0.6-0.5-0.9v-3.1"/>
<path class="st0" d="M22,27.1c0,0.7-0.6,1.4-1.4,1.4s-1.4-0.6-1.4-1.4c0-0.7,0.6-1.4,1.4-1.4S22,26.4,22,27.1"/>
</svg>
