<?xml version="1.0" encoding="utf-8"?>
<!-- Generator: Adobe Illustrator 25.4.1, SVG Export Plug-In . SVG Version: 6.00 Build 0)  -->
<svg version="1.1" id="Capa_1" xmlns="http://www.w3.org/2000/svg" xmlns:xlink="http://www.w3.org/1999/xlink" x="0px" y="0px"
	 viewBox="0 0 40.3 45.3" style="enable-background:new 0 0 40.3 45.3;" xml:space="preserve">
<style type="text/css">
	.st0{fill:none;stroke:#FF3737;stroke-miterlimit:10;}
	.st1{fill:#FF3737;}
</style>
<g id="Capa_3">
</g>
<g id="Capa_4">
</g>
<g id="Capa_5">
	<path class="st0" d="M0.6,3.5c0,0-0.7-2.4,1.2-2.9s2.6,1.9,2.6,1.9l0,0c1.2,3.3,12.9,33.8,15.2,36.7c0.8,1,2.7,2,4.2,0.2
		c1.7-2.1-0.8-4.9-0.7-5.1c0-0.1,0.3-1.5,1.3-1.8s1.9,0.5,2.3,0.8c1.9,1.7,2.7,5.8,0.7,8.8S20,45.9,18.1,43
		C17.1,41.6,6.5,16.8,0.6,3.5z"/>
	<circle class="st0" cx="36.4" cy="41.2" r="3.4"/>
	<line class="st0" x1="5.1" y1="5.4" x2="2.2" y2="6.2"/>
	<line class="st0" x1="5.9" y1="7.5" x2="3" y2="8.3"/>
	<line class="st0" x1="8.6" y1="14" x2="5.7" y2="14.7"/>
</g>
<path class="st1" d="M31.1,17.6l-3.8-2.2c-0.3-0.1-0.7,0-1,0.3c0,0.1-0.1,0.3-0.1,0.3v2.3h-6c-0.4,0-0.7,0.3-0.7,0.7l0,0v2.9
	c0,0.4,0.3,0.7,0.7,0.7l0,0h6v2.3c0,0.4,0.3,0.7,0.7,0.7c0.1,0,0.3,0,0.3-0.1l3.8-2.2l3.8-2.2c0.3-0.1,0.4-0.5,0.3-1
	c0-0.1-0.1-0.1-0.3-0.3L31.1,17.6z"/>
</svg>
