<svg id="gol-de-hockey" xmlns="http://www.w3.org/2000/svg" width="41.327" height="41.327" viewBox="0 0 41.327 41.327">
  <path id="Trazado_1976" data-name="Trazado 1976" d="M37.661,1h-32A4.671,4.671,0,0,0,1,5.666V25a.666.666,0,0,0,.667.667H4.333A.666.666,0,0,0,5,25v-.921L8.49,22.33H34.837l3.491,1.745V25a.666.666,0,0,0,.667.667H41.66A.666.666,0,0,0,42.327,25V5.666A4.671,4.671,0,0,0,37.661,1Zm-27,5.942L11.722,8,10.665,9.056,9.608,8Zm4,0L15.722,8,14.665,9.056,13.607,8Zm4,0L19.721,8,18.664,9.056,17.607,8Zm4,0L23.721,8,22.663,9.056,21.606,8Zm4,0L27.72,8,26.663,9.056,25.606,8Zm4,0L31.719,8,30.662,9.056,29.6,8Zm3.666,9.78L33.6,16l.724-.724Zm-5.666,2.333L27.605,18l1.057-1.057L29.72,18Zm-4,0L23.606,18l1.057-1.057L25.72,18Zm-4,0L19.606,18l1.057-1.057L21.721,18Zm-4,0L15.607,18l1.057-1.057L17.721,18ZM9,9.275,9.723,10,9,10.722Zm0,4L9.723,14,9,14.722ZM9.608,12l1.057-1.057L11.722,12l-1.057,1.057Zm3.057.943L13.722,14l-1.057,1.057L11.608,14ZM29.72,14l-1.057,1.057L27.605,14l1.057-1.057ZM29.6,12l1.057-1.057L31.719,12l-1.057,1.057Zm-2.942,1.057L25.606,12l1.057-1.057L27.72,12ZM25.72,14l-1.057,1.057L23.606,14l1.057-1.057Zm-3.057-.943L21.606,12l1.057-1.057L23.721,12ZM21.721,14l-1.057,1.057L19.606,14l1.057-1.057Zm-3.057-.943L17.607,12l1.057-1.057L19.721,12ZM17.721,14l-1.057,1.057L15.607,14l1.057-1.057Zm-3.057-.943L13.607,12l1.057-1.057L15.722,12Zm0,1.885L15.722,16l-1.057,1.057L13.607,16ZM17.607,16l1.057-1.057L19.721,16l-1.057,1.057Zm4,0,1.057-1.057L23.721,16l-1.057,1.057Zm4,0,1.057-1.057L27.72,16l-1.057,1.057Zm4,0,1.057-1.057L31.719,16l-1.057,1.057Zm2-2,1.057-1.057L33.719,14l-1.057,1.057Zm2.724-1.276L33.6,12l.724-.724Zm0-4L33.6,8l.724-.724ZM33.719,10l-1.057,1.057L31.6,10l1.057-1.057Zm-4,0-1.057,1.057L27.605,10l1.057-1.057Zm-4,0-1.057,1.057L23.606,10l1.057-1.057Zm-4,0-1.057,1.057L19.606,10l1.057-1.057Zm-4,0-1.057,1.057L15.607,10l1.057-1.057Zm-4,0-1.057,1.057L11.608,10l1.057-1.057ZM9,17.273,9.723,18,9,18.721ZM9.608,16l1.057-1.057L11.722,16l-1.057,1.057Zm3.057.943L13.722,18l-1.057,1.057L11.608,18Zm2,2L15.722,20l-1,1H12.608Zm4,0L19.721,20l-1,1H16.607Zm4,0L23.721,20l-1,1H20.606Zm4,0L27.72,20l-1,1H24.606Zm4,0L31.719,20l-1,1H28.605Zm2,.115L31.6,18l1.057-1.057L33.719,18ZM34.328,5.39,32.662,7.056,31.6,6l1-1h1.724ZM28.662,7.056,27.605,6l1-1h2.114Zm-4,0L23.606,6l1-1H26.72Zm-4,0L19.606,6l1-1h2.114Zm-4,0L15.607,6l1-1h2.114Zm-4,0L11.608,6l1-1h2.114ZM9,6.723V5h1.724ZM7.666,21.251,5,22.585V5.666A.668.668,0,0,1,5.666,5h2ZM9,20.606l1.666-1.666L11.722,20l-1,1H9ZM32.6,21l1.724-1.724V21Zm3.057.255V5h2a.668.668,0,0,1,.667.667V22.585Zm5.333,3.078H39.661V5.666a2,2,0,0,0-2-2h-32a2,2,0,0,0-2,2V24.33H2.333V5.666A3.337,3.337,0,0,1,5.666,2.333h32a3.337,3.337,0,0,1,3.333,3.333Z" transform="translate(-1 -1)" fill="#050c42"/>
  <path id="Trazado_1977" data-name="Trazado 1977" d="M29.666,53C27.344,53,25,53.619,25,55v2.666c0,1.381,2.344,2,4.666,2s4.666-.619,4.666-2V55C34.332,53.619,31.988,53,29.666,53Zm0,1.333A6.2,6.2,0,0,1,32.938,55a6.205,6.205,0,0,1-3.272.667A6.205,6.205,0,0,1,26.394,55,6.2,6.2,0,0,1,29.666,54.333Zm0,4a5.632,5.632,0,0,1-3.333-.723V56.464A9.3,9.3,0,0,0,29.666,57,9.3,9.3,0,0,0,33,56.464v1.145A5.632,5.632,0,0,1,29.666,58.332Z" transform="translate(-9.002 -18.339)" fill="#050c42"/>
  <path id="Trazado_1978" data-name="Trazado 1978" d="M46,44h1.333v1.333H46Z" transform="translate(-16.005 -15.338)" fill="#050c42"/>
  <path id="Trazado_1979" data-name="Trazado 1979" d="M56,54h1.333v1.333H56Z" transform="translate(-19.339 -18.672)" fill="#050c42"/>
  <path id="Trazado_1980" data-name="Trazado 1980" d="M25,38h1.333v1.333H25Z" transform="translate(-9.002 -13.337)" fill="#050c42"/>
  <path id="Trazado_1981" data-name="Trazado 1981" d="M5,49H6.333v1.333H5Z" transform="translate(-2.334 -17.005)" fill="#050c42"/>
  <path id="Trazado_1982" data-name="Trazado 1982" d="M15,58h1.333v1.333H15Z" transform="translate(-5.668 -20.006)" fill="#050c42"/>
</svg>
