<svg xmlns="http://www.w3.org/2000/svg" viewBox="0 0 756 1192.02"><defs><style>.cls-1{fill:#00e9c5;}.cls-2,.cls-3,.cls-4{fill:none;stroke:#fff;stroke-miterlimit:10;}.cls-2{stroke-width:3.97px;}.cls-3,.cls-4{stroke-width:4.95px;}.cls-4{stroke-dasharray:28.73 28.73;}.cls-5{fill:#fff;}</style></defs><g id="Suelo"><rect class="cls-1" width="756" height="1192.02"/></g><g id="Lineas"><rect class="cls-2" x="163.6" y="167.6" width="429.04" height="856.81"/><line class="cls-2" x1="163.34" y1="596.02" x2="592.66" y2="596.02"/><line class="cls-2" x1="163.34" y1="381.81" x2="592.66" y2="381.81"/><line class="cls-2" x1="163.34" y1="810.21" x2="592.66" y2="810.21"/><path class="cls-2" d="M246.11,1024.42a131.89,131.89,0,1,1,263.78,0"/><path class="cls-3" d="M213.43,167.6q0,7.23.62,14.31"/><path class="cls-4" d="M219,210.17a164.61,164.61,0,0,0,321.11-14"/><path class="cls-3" d="M542,181.91q.62-7.08.62-14.31"/><path class="cls-3" d="M213.43,1024.42q0-7.23.62-14.31"/><path class="cls-4" d="M219,981.85a164.61,164.61,0,0,1,321.11,14"/><path class="cls-3" d="M542,1010.11q.62,7.08.62,14.31"/><path class="cls-2" d="M246.11,167.6a131.89,131.89,0,1,0,263.78,0"/><circle class="cls-5" cx="378" cy="962.43" r="3.96"/><circle class="cls-5" cx="378" cy="233.55" r="3.96"/><rect class="cls-2" x="352.72" y="149.87" width="50.55" height="17.73"/><rect class="cls-2" x="352.72" y="1024.42" width="50.55" height="17.73"/><line class="cls-2" x1="185.13" y1="358.83" x2="185.13" y2="404.79"/><line class="cls-2" x1="185.13" y1="573.03" x2="185.13" y2="618.99"/><line class="cls-2" x1="185.13" y1="787.24" x2="185.13" y2="833.19"/><line class="cls-2" x1="569.64" y1="358.83" x2="569.64" y2="404.79"/><line class="cls-2" x1="569.64" y1="573.03" x2="569.64" y2="618.99"/><line class="cls-2" x1="569.64" y1="787.24" x2="569.64" y2="833.19"/><line class="cls-2" x1="281.98" y1="167.6" x2="281.98" y2="178.98"/><line class="cls-2" x1="318.74" y1="167.6" x2="318.74" y2="178.98"/><line class="cls-2" x1="436.53" y1="167.6" x2="436.53" y2="178.98"/><line class="cls-2" x1="473.3" y1="167.6" x2="473.3" y2="178.98"/><line class="cls-2" x1="281.98" y1="1013.04" x2="281.98" y2="1024.42"/><line class="cls-2" x1="318.74" y1="1013.04" x2="318.74" y2="1024.42"/><line class="cls-2" x1="436.53" y1="1013.04" x2="436.53" y2="1024.42"/><line class="cls-2" x1="473.3" y1="1013.04" x2="473.3" y2="1024.42"/><line class="cls-2" x1="581.29" y1="955.32" x2="592.66" y2="955.32"/><line class="cls-2" x1="581.29" y1="884.85" x2="592.66" y2="884.85"/><line class="cls-2" x1="163.6" y1="955.32" x2="174.98" y2="955.32"/><line class="cls-2" x1="163.6" y1="884.85" x2="174.98" y2="884.85"/><line class="cls-2" x1="581.29" y1="313.02" x2="592.66" y2="313.02"/><line class="cls-2" x1="581.29" y1="242.55" x2="592.66" y2="242.55"/><line class="cls-2" x1="163.6" y1="313.02" x2="174.98" y2="313.02"/><line class="cls-2" x1="163.6" y1="242.55" x2="174.98" y2="242.55"/><g id="Capa_2" data-name="Capa 2"><g id="Capa_1-2" data-name="Capa 1-2"><path class="cls-5" d="M230.44,1068.1a7.45,7.45,0,0,0-4.45,6.81h0v51.9a2.58,2.58,0,0,1-2.58,2.58,2.78,2.78,0,0,1-.75-.11,27.77,27.77,0,0,1-19.78-26.57v-1.53c0-.29,0-.57.06-.86v-.23q.1-1.11.3-2.22l0-.24c.06-.32.12-.64.19-1a.75.75,0,0,0,0-.16c.18-.74.38-1.48.61-2.22l.05-.15c.11-.35.23-.69.36-1h0c.28-.74.58-1.48.9-2.14l.06-.12c.34-.7.69-1.38,1.08-2v0c.18-.31.36-.6.55-.9l.12-.18c.17-.27.36-.55.54-.81l.08-.11c.21-.29.41-.57.63-.86l.2-.25a31.73,31.73,0,0,1,3.08-3.38c.47-.43,1-.85,1.48-1.23a3.1,3.1,0,0,0,.59-4.34,2.69,2.69,0,0,0-.27-.32l-2.27-2.26a3.09,3.09,0,0,0-4.12-.23,37.4,37.4,0,0,0-4.82,4.68h0l-.06.07c-.33.38-.64.74-.95,1.17h0c-.31.37-.6.74-.88,1.14l-.14.2c-.46.79-1,1.62-1.52,2.49l-.13.23c-.51.85-1,1.72-1.41,2.62l-.13.26c-.19.41-.38.82-.56,1.24l-.07.09c-.2.45-.38.91-.55,1.37l-.11.29c-.15.41-.3.82-.44,1.24l-.07.2c-.14.47-.29.94-.43,1.41l-.06.27c-.11.41-.22.82-.32,1.22a1.25,1.25,0,0,1-.08.32c-.1.48-.2,1-.29,1.48v.2c-.1.42-.17.89-.23,1.29,0,.13,0,.25-.05.37-.07.49-.13,1-.17,1.48a.43.43,0,0,0,0,.16c-.05.45-.08.91-.1,1.36v1.93h-.07a37.12,37.12,0,0,0,30.33,36.49,2.6,2.6,0,0,1,2.14,2.54v14a2.57,2.57,0,0,0,2.56,2.58h4.14a2.59,2.59,0,0,0,2.58-2.58h0v-14a2.55,2.55,0,0,1,2.07-2.49,37,37,0,0,0,19.5-10.27,37.5,37.5,0,0,0,5.74-7.41,37.11,37.11,0,0,0-20.73-54.19A16.09,16.09,0,0,0,230.44,1068.1Zm25.31,46.68a27.78,27.78,0,0,1-17.15,14.52,2.56,2.56,0,0,1-3.2-1.73,2.64,2.64,0,0,1-.1-.74v-45.62a4.46,4.46,0,0,1,6.14-4.1,27.75,27.75,0,0,1,14.89,36.31c-.18.44-.38.87-.58,1.3Z"/><path class="cls-5" d="M294.86,1112a13.68,13.68,0,0,1-1.9-.31,20,20,0,0,0-2.45-.15c-.56,0-1.48,0-1.84.51-.51.77-.36,4.3-.36,5.11h5.11c1.13,0,1.69.21,1.69,1.44v2c0,1.48-.36,1.94-1.84,1.94h-5v16.78c0,1.33-.2,2.3-1.79,2.3h-3.22c-1.38,0-1.53-.82-1.53-2v-17h-1.54c-1.12,0-1.23-.86-1.23-1.79v-2.21c0-1.79,1.44-1.44,2.77-1.44v-2c0-2.15,0-4.24,1.32-6,2.1-2.87,5.53-3,8.8-3,1,0,3.58,0,4.24,1a1.89,1.89,0,0,1,.26,1.07v.36C296.39,1109.62,296.39,1112,294.86,1112Zm10.48,1.53h-2c-1.84,0-2.71-.25-2.71-2.3v-1.79c0-1.63.67-2.25,2.25-2.25h2.41a2,2,0,0,1,2,2,2.45,2.45,0,0,1,0,.27v1.79c.09,1.43-.37,2.3-2,2.3Zm0,28.13h-2c-1.84,0-2.71-.26-2.71-2.3v-20c0-1.63.67-2.25,2.25-2.25h2.41a2,2,0,0,1,2,2,2.45,2.45,0,0,1,0,.27v20c.09,1.43-.37,2.3-2,2.3Z"/><path class="cls-5" d="M323.69,1142.3a49.66,49.66,0,0,1-7.31-.36c-1.53-.2-1.43-.92-1.43-2.35v-.92c0-1.12.1-2.35,1.48-2.35a23.79,23.79,0,0,1,2.66.3c1.74.16,3.53.26,5.32.26s2.56,0,2.56-1.89a2.75,2.75,0,0,0-.31-1.69c-.41-.51-4.91-1.74-5.73-2a30.54,30.54,0,0,1-2.91-1.18c-2.66-1.33-3.63-2.81-3.63-5.78,0-7.87,5.31-7.77,11.6-7.77,1.28,0,2.51,0,3.79.1,1.84.16,2.55.51,2.55,2.51,0,1.48.11,3.17-1.89,3.17-.87,0-1.79-.16-2.66-.21a34.9,34.9,0,0,0-4.09-.2c-1.94,0-3-.26-3,2a1.55,1.55,0,0,0,.25,1c.51.71,5.37,2,6.45,2.35,4,1.33,5.88,2.66,5.88,7.16C333.31,1141.38,330,1142.3,323.69,1142.3Z"/><path class="cls-5" d="M344.91,1113.56H343c-1.84,0-2.71-.25-2.71-2.3v-1.79c0-1.63.66-2.25,2.25-2.25h2.4a2,2,0,0,1,2,2,2.45,2.45,0,0,1,0,.27v1.79C347,1112.69,346.5,1113.56,344.91,1113.56Zm0,28.13H343c-1.84,0-2.71-.26-2.71-2.3v-20c0-1.63.66-2.25,2.25-2.25h2.4a2,2,0,0,1,2,2,2.45,2.45,0,0,1,0,.27v20C347,1140.82,346.5,1141.69,344.91,1141.69Z"/><path class="cls-5" d="M369.57,1142.15a42.08,42.08,0,0,1-4.35.2c-10,0-11.66-3.42-11.66-12.93s1.69-13,11.66-13a42.13,42.13,0,0,1,4.35.25c1.53.16,2.81,0,2.81,1.74v.1c0,1.28,0,4-1.84,4a15.64,15.64,0,0,1-2.05-.2,36.71,36.71,0,0,0-4.8-.41c-2.15,0-2.56.41-3,2.4a24.36,24.36,0,0,0-.41,5.12,40.15,40.15,0,0,0,.2,4.9c.21,2.3,1,2.56,3.23,2.56a37.63,37.63,0,0,0,4.85-.41,12.21,12.21,0,0,1,2-.2,1.4,1.4,0,0,1,1.22.51c.41.41.62,2.86.62,3.48C372.37,1142.05,371.14,1141.94,369.57,1142.15Z"/><path class="cls-5" d="M396.81,1141.69h-2.87c-1.17,0-1.48-.77-1.48-1.84a13.93,13.93,0,0,1-7.56,2.5c-5,0-7.32-2.71-7.32-7.62,0-5.57,3.33-7.46,8.34-8a42.7,42.7,0,0,1,6.49-.41c0-2,.31-4.91-2.56-4.91a32.14,32.14,0,0,0-7.36,1.07,5.05,5.05,0,0,1-1.23.15c-1.78,0-1.48-1.79-1.48-3.06a1.89,1.89,0,0,1,1.43-2.15,34.88,34.88,0,0,1,8.39-1c2.45,0,5.57.41,7.31,2.35,2,2.25,1.94,5.42,1.94,8.28v12.43C398.85,1141,398.34,1141.69,396.81,1141.69Zm-4.35-10.79c-.82,0-1.68-.1-2.5-.1a21.7,21.7,0,0,0-3.22.15c-2.15.31-3,1-3,3.22,0,1.23.2,3.43,1.89,3.43a11.72,11.72,0,0,0,6.85-2.56Z"/><path class="cls-5" d="M410.36,1141.69h-1.79c-1.84,0-2.71-.26-2.71-2.3v-30.68c0-1.64.66-2.2,2.25-2.2h2.3a1.94,1.94,0,0,1,2,1.86,2,2,0,0,1,0,.34v30.68C412.35,1140.82,411.94,1141.69,410.36,1141.69Z"/><path class="cls-5" d="M434.85,1142.15a42.08,42.08,0,0,1-4.35.2c-10,0-11.65-3.42-11.65-12.93s1.68-13,11.65-13a42.13,42.13,0,0,1,4.35.25c1.53.16,2.81,0,2.81,1.74v.1c0,1.28,0,4-1.84,4a14.89,14.89,0,0,1-2-.2,36.87,36.87,0,0,0-4.81-.41c-2.15,0-2.56.41-3,2.4a25.1,25.1,0,0,0-.41,5.12c0,1.63.06,3.27.21,4.9.2,2.3,1,2.56,3.22,2.56a37.63,37.63,0,0,0,4.86-.41,12.21,12.21,0,0,1,2-.2,1.44,1.44,0,0,1,1.23.51c.41.41.61,2.86.61,3.48C437.66,1142.05,436.44,1141.94,434.85,1142.15Z"/><path class="cls-5" d="M455.05,1142.35c-8.54,0-11.76-4.91-11.76-12.93s3.17-13,11.76-13,11.71,4.91,11.71,13S463.64,1142.35,455.05,1142.35Zm4.19-18.87c-.92-1.68-2.46-1.63-4.19-1.63s-3.28,0-4.2,1.63-1,4.15-1,5.94.1,4.34,1,5.93,2.51,1.58,4.2,1.58,3.27,0,4.19-1.58.92-4.2.92-5.93S460.11,1125.07,459.24,1123.48Z"/><path class="cls-5" d="M491.3,1141.69h-2.87c-1.17,0-1.48-.77-1.48-1.84a14,14,0,0,1-7.57,2.5c-5,0-7.31-2.71-7.31-7.62,0-5.57,3.33-7.46,8.34-8a42.7,42.7,0,0,1,6.49-.41c0-2,.31-4.91-2.56-4.91a32.14,32.14,0,0,0-7.36,1.07,5.05,5.05,0,0,1-1.23.15c-1.79,0-1.48-1.79-1.48-3.06a1.89,1.89,0,0,1,1.43-2.15,34.88,34.88,0,0,1,8.39-1c2.45,0,5.57.41,7.31,2.35,2,2.25,1.94,5.42,1.94,8.28v12.43C493.34,1141,492.83,1141.69,491.3,1141.69ZM487,1130.9c-.82,0-1.69-.1-2.5-.1a21.7,21.7,0,0,0-3.22.15c-2.15.31-3,1-3,3.22,0,1.23.2,3.43,1.89,3.43A11.72,11.72,0,0,0,487,1135Z"/><path class="cls-5" d="M515.57,1142.15a42.08,42.08,0,0,1-4.35.2c-10,0-11.66-3.42-11.66-12.93s1.69-13,11.66-13a42.13,42.13,0,0,1,4.35.25c1.53.16,2.81,0,2.81,1.74v.1c0,1.28,0,4-1.84,4a15.64,15.64,0,0,1-2-.2,36.87,36.87,0,0,0-4.81-.41c-2.14,0-2.55.41-3,2.4a24.36,24.36,0,0,0-.41,5.12c0,1.63.05,3.27.2,4.9.21,2.3,1,2.56,3.22,2.56a37.63,37.63,0,0,0,4.86-.41,12.21,12.21,0,0,1,2-.2,1.42,1.42,0,0,1,1.22.51c.41.41.62,2.86.62,3.48C518.4,1142.05,517.17,1141.94,515.57,1142.15Z"/><path class="cls-5" d="M543.3,1141.69h-2.73c-1.48,0-1.84-1-1.84-2.3V1126.3c0-.72.1-3.53-.36-4a2.12,2.12,0,0,0-1.64-.41,11.14,11.14,0,0,0-6.23,2.35v15.19c0,1.43-.41,2.3-2,2.3h-2.71c-1.38,0-1.84-.77-1.84-2v-31c0-1.64.66-2.2,2.25-2.2h2.37a1.94,1.94,0,0,1,2,1.86,2,2,0,0,1,0,.34v9.46a16,16,0,0,1,6.9-1.74c4.75,0,7.87,2.35,7.87,7.26v15.7C545.29,1140.82,544.88,1141.69,543.3,1141.69Z"/></g></g></g></svg>