<svg xmlns="http://www.w3.org/2000/svg" xmlns:xlink="http://www.w3.org/1999/xlink" viewBox="0 0 756 971"><defs><style>.cls-1{fill:#0d8424;}.cls-2{fill:url(#Degradado_sin_nombre_15);}.cls-3,.cls-4{fill:none;stroke:#fff;stroke-miterlimit:10;stroke-width:2px;}.cls-4{stroke-dasharray:5.97 5.97;}</style><radialGradient id="Degradado_sin_nombre_15" cx="378" cy="485.5" r="546.83" gradientTransform="translate(0 -273.33) scale(1 1.56)" gradientUnits="userSpaceOnUse"><stop offset="0" stop-opacity="0"/><stop offset="1" stop-opacity="0.6"/></radialGradient></defs><g id="Suelo"><rect class="cls-1" width="756" height="971"/><rect class="cls-1" x="168.34" y="67.25" width="419.32" height="836.5"/><rect class="cls-2" width="756" height="971"/></g><g id="Lineas"><rect class="cls-3" x="168.34" y="67.25" width="419.32" height="836.5"/><line class="cls-3" x1="168.34" y1="485.5" x2="587.66" y2="485.5"/><rect class="cls-3" x="345.06" y="903.75" width="65.89" height="30.12"/><rect class="cls-3" x="345.06" y="37.12" width="65.89" height="30.12"/><line class="cls-3" x1="166.48" y1="700" x2="587.66" y2="700"/><line class="cls-3" x1="168.83" y1="272.7" x2="587.66" y2="272.7"/><path class="cls-3" d="M248.65,903.48c.79-70.51,59.29-127.68,129.13-127.05,69,.64,126,57.43,126.79,127.05"/><path class="cls-3" d="M216.57,904.26c-.07-1-.13-2-.17-3"/><path class="cls-4" d="M216.23,895.3c-.92-89.9,73.16-164.32,161.16-163.46,87.83.85,160.58,76.4,158,166.44"/><path class="cls-3" d="M535.26,901.27c0,1-.11,2-.17,3"/><path class="cls-3" d="M251.07,67.56c.79,70.51,59.29,127.68,129.13,127.05,69-.64,126-57.43,126.78-127"/><path class="cls-3" d="M219,66.78c-.06,1-.12,2-.17,3"/><path class="cls-4" d="M218.64,75.74c-.91,89.9,73.17,164.32,161.17,163.46,87.83-.85,160.57-76.4,158-166.44"/><path class="cls-3" d="M537.67,69.77c0-1-.1-2-.17-3"/></g></svg>