<?xml version="1.0" encoding="utf-8"?>
<!-- Generator: Adobe Illustrator 25.4.1, SVG Export Plug-In . SVG Version: 6.00 Build 0)  -->
<svg version="1.1" id="Capa_1" xmlns="http://www.w3.org/2000/svg" xmlns:xlink="http://www.w3.org/1999/xlink" x="0px" y="0px"
	 viewBox="0 0 462 402.6" style="enable-background:new 0 0 462 402.6;" xml:space="preserve">
<style type="text/css">
	.st0{fill:#00E9C5;}
</style>
<path class="st0" d="M222.7,4.8L1.3,388.2c-3.7,6.4,0.9,14.4,8.3,14.4h442.8c7.4,0,12-8,8.3-14.4L239.3,4.8
	C235.6-1.6,226.4-1.6,222.7,4.8z"/>
<g>
	<path class="st0" d="M70.4,100.2h-9c-4.6,0-7.6-0.9-10.6-4.6L25.7,65h-2.1v27.1c0,9.4-7.8,8.1-14.5,8.1c-5.7,0-9-1.9-9-8.1V7.7
		C0,1.7,3.8,0,9,0h27.9c10.6,0,19-0.5,27,7.3c7,7,8.2,18.9,8.2,28.3c0,13.2-4.4,24.7-18.4,28.2l21.1,24.6c1.5,1.6,2.4,4,2.4,6.1
		C77.3,98.9,74,100.2,70.4,100.2z M45.6,20.9c-1.8-0.9-7-0.9-9.3-0.9h-4.2c-2.9,0-5.7,0-8.5,0.1V45h15.3c9,0,9.9-1.8,9.9-10.5
		C48.8,31.4,48.8,22.4,45.6,20.9z"/>
</g>
</svg>
