<?xml version="1.0" encoding="utf-8"?>
<!-- Generator: Adobe Illustrator 25.4.1, SVG Export Plug-In . SVG Version: 6.00 Build 0)  -->
<svg version="1.1" id="Capa_1" xmlns="http://www.w3.org/2000/svg" xmlns:xlink="http://www.w3.org/1999/xlink" x="0px" y="0px"
	 viewBox="0 0 46.1 40.2" style="enable-background:new 0 0 46.1 40.2;" xml:space="preserve">
<style type="text/css">
	.st0{fill:none;stroke:#00E9C5;stroke-width:1.1;stroke-miterlimit:10;}
	.st1{fill:#FFFFFF;stroke:#00E9C5;stroke-width:1.1;stroke-miterlimit:10;}
	.st2{fill:none;stroke:#00E9C5;stroke-width:1.1;stroke-linecap:round;stroke-miterlimit:10;}
</style>
<g id="Capa_4">
</g>
<g id="Capa_5_00000167355079328813187060000001637153695248013478_">
	<path class="st0" d="M29.1,23.5c0.5,1.8,3.8,10.6,5.3,13.2c0.2,0.2,0.4,0.4,0.5,0.4l0,0c0.4,0,0.7-0.2,0.7-0.7v-0.2
		c0-0.5,0.4-0.9,0.9-0.9l0,0c0.7,0,1.2,0.5,1.1,1.1c-0.2,1.1-0.5,2.5-2.1,3c-0.5,0.2-1.9,0-2.6-1.1c-0.5-0.7-3.3-7-6.5-14.2"/>
	<path class="st1" d="M25.4,19.6"/>
	<path class="st1" d="M25.9,20.6"/>
	<path class="st1" d="M27.5,20.4"/>
	<path class="st1" d="M27.4,24.1"/>
	<path class="st1" d="M28.9,23.9"/>
</g>
<path class="st0" d="M25.5,0.6c1.8,0,3.2,1.4,3.2,3.2S27.4,7,25.5,7c-1.8,0-3.2-1.4-3.2-3.2S23.8,0.6,25.5,0.6"/>
<path class="st0" d="M20.9,7.3c-0.5,0-1,0-1.6,0.5c-1.9,1.6-4.4,3.7-6.3,5.6c-1.8,1.6-3.3,3.3-4.6,4.9c-0.7,0.7-0.5,1.9,0.4,2.5
	c4.4,3,7.2,4.9,8.6,5.8c0.5,0.4,0.9,0.9,0.7,1.6l-0.7,6.9c0,0.4,0,0.8,0.3,1.1c0.4,0.6,1,1,1.8,1c0.7,0,1.3-0.3,1.7-0.8
	c0.4-0.4,0.6-0.9,0.6-1.4c0.2-2.7,0.5-6.3,0.7-9c0-0.7-0.2-1.2-0.7-1.8c-1.4-1-4.6-3.2-5.6-4.1c-0.4-0.2-0.4-0.5,0-0.9l6.3-5.6
	c0.2-0.2,0.5-0.2,0.7,0.2l3.2,10.3c0.5,1.1,1.1,1.2,1.8,1.1c0.7-0.2,1.1-1.1,1.1-1.1c-1.3-5.2-1.9-8.5-3.3-13.6
	c-0.1-0.5-0.4-0.9-0.7-1.3c-0.3-0.3-0.9-0.7-1.6-1.1c-0.3-0.2-0.6-0.3-0.9-0.4C21.8,7.5,21.3,7.3,20.9,7.3z"/>
<path class="st2" d="M7.6,22.9v5.3c0,0.7-0.4,1.2-0.9,1.6l-5.4,4c-0.7,0.7-0.9,1.8-0.4,2.5s1.6,1.1,2.5,0.7c2.5-1.8,4.9-3.7,7.4-5.4
	c0.5-0.4,0.7-0.9,0.7-1.6v-4.3"/>
<path class="st0" d="M41.2,37.9c0,0.9-0.7,1.8-1.8,1.8c-0.9,0-1.8-0.7-1.8-1.8c0-0.9,0.7-1.8,1.8-1.8C40.2,36.1,41.2,36.8,41.2,37.9
	"/>
<line class="st2" x1="0.6" y1="39.7" x2="31.8" y2="39.7"/>
<line class="st2" x1="42" y1="39.7" x2="45.6" y2="39.7"/>
</svg>
