<?xml version="1.0" encoding="utf-8"?>
<!-- Generator: Adobe Illustrator 25.4.1, SVG Export Plug-In . SVG Version: 6.00 Build 0)  -->
<svg version="1.1" id="Capa_1" xmlns="http://www.w3.org/2000/svg" xmlns:xlink="http://www.w3.org/1999/xlink" x="0px" y="0px"
	 viewBox="0 0 44.2 42.1" style="enable-background:new 0 0 44.2 42.1;" xml:space="preserve">
<style type="text/css">
	.st0{fill:#FFFFFF;stroke:#00E9C5;stroke-linecap:round;stroke-miterlimit:10;}
	.st1{fill:none;stroke:#00E9C5;stroke-width:1.8;stroke-linecap:round;stroke-miterlimit:10;}
	.st2{fill:none;stroke:#00E9C5;stroke-miterlimit:10;}
</style>
<g id="Capa_1_1_">
	<g id="Capa_4">
	</g>
	<g id="Capa_5">
		<circle class="st0" cx="27.8" cy="4.3" r="3.8"/>
		<path class="st0" d="M24.2,22.1L24.2,22.1c0.5-0.3,1.2-0.2,1.6,0.3L39,38.7c0.6,0.6,1.7,0.6,2.3-0.6c0.6-1.5-0.9-1.8-1.3-2.5
			c-0.2-0.1,0-0.8,0.4-1.1c0.4-0.2,0.7-0.3,1.1,0c1.3,0.6,2.6,2.7,2,4.6c-0.6,1.7-3.2,3-4.8,2.3c-0.9,0-9.6-11-14.8-17.4
			C23.4,23.3,23.6,22.5,24.2,22.1z"/>
		<path class="st0" d="M22.4,8.3c-0.7,0-1.3,0.2-1.8,0.6c-2.1,1.7-4.6,3.7-7.1,6.1c-2,1.8-3.7,3.7-5.2,5.5c-0.6,0.8-0.5,1.9,0.3,2.4
			c4.8,3.4,8,5.6,9.4,6.6c0.5,0.4,0.8,1,0.8,1.7l-0.6,6.9c-0.1,1.4,0.8,2.7,2.2,3c0,0,0,0,0,0c1.1,0,2.1-0.6,2.5-1.9
			c0.2-3,0.5-7.1,0.7-10.4c0-0.8-0.3-1.5-0.9-1.9L19,24.1c-1.4-1.1-1.5-3.2-0.2-4.4l4.3-3.9c0.5-0.5,1.4-0.2,1.6,0.4l3,10.5
			c0.2,0.8,1.1,1.3,1.9,1.1c0.8-0.2,1.5-1.1,1.3-1.9c-1.4-5.7-2.2-8.8-3.6-14.3c-0.1-0.4-0.3-0.9-0.6-1.2c-0.3-0.4-0.4-0.6-1.1-1.1
			C25.3,9,24.4,8.7,24,8.5C23.3,8.3,22.9,8.3,22.4,8.3z"/>
		<path class="st0" d="M8,25.1v7L1.1,37c-0.8,0.6-0.8,1.9-0.2,2.7s1.7,1.3,2.7,0.8c2.9-2.1,5.9-4.4,8.8-6.5c0-2.1,0-3.4,0-5.5"/>
	</g>
</g>
<g id="Capa_2_1_">
</g>
<line class="st1" x1="34.2" y1="15.4" x2="40.1" y2="15.5"/>
<line class="st1" x1="37.1" y1="18.6" x2="37.2" y2="12.5"/>
<path class="st2" d="M37.1,10c3,0,5.5,2.5,5.5,5.5S40.2,21,37.1,21s-5.5-2.5-5.5-5.5S34.1,10,37.1,10"/>
</svg>
