<?xml version="1.0" encoding="utf-8"?>
<!-- Generator: Adobe Illustrator 25.4.1, SVG Export Plug-In . SVG Version: 6.00 Build 0)  -->
<svg version="1.1" id="Capa_1" xmlns="http://www.w3.org/2000/svg" xmlns:xlink="http://www.w3.org/1999/xlink" x="0px" y="0px"
	 viewBox="0 0 27.9 25.8" style="enable-background:new 0 0 27.9 25.8;" xml:space="preserve">
<style type="text/css">
	.st0{fill:#00E9C5;}
	.st1{fill:none;stroke:#00E9C5;stroke-width:0.6;stroke-miterlimit:10;}
	.st2{fill:#FFFFFF;stroke:#00E9C5;stroke-width:0.6;stroke-miterlimit:10;}
	.st3{fill:none;stroke:#00E9C5;stroke-width:0.6;stroke-linecap:round;stroke-miterlimit:10;}
</style>
<g id="Iconos">
	<path class="st0" d="M5.4,11.2l-1.4-1c-0.1-0.1-0.2,0-0.3,0.1v0.1v1H0.2c-0.2,0-0.2,0.1-0.2,0.3l0,0V13c0,0.2,0.1,0.3,0.2,0.3l0,0
		h3.5v1c0,0.2,0.1,0.3,0.2,0.3h0.1l1.4-1l1.4-1C7,12.4,7,12.3,6.9,12.2l-0.1-0.1L5.4,11.2z"/>
</g>
<g id="Capa_5_2_">
	<path class="st1" d="M20,13.8c0.3,1,2.2,5.7,3.1,7.2c0.1,0.1,0.2,0.2,0.3,0.2l0,0c0.2,0,0.4-0.1,0.4-0.4v-0.1
		c0-0.3,0.2-0.5,0.5-0.5l0,0c0.4,0,0.7,0.3,0.6,0.6c-0.1,0.6-0.3,1.4-1.2,1.7c-0.3,0.1-1.1,0-1.5-0.6c-0.3-0.4-2-4-3.8-8.1"/>
	<path class="st2" d="M17.9,11.2"/>
	<path class="st2" d="M18.2,11.8"/>
	<path class="st2" d="M19.1,11.6"/>
	<path class="st2" d="M19,13.8"/>
	<path class="st2" d="M19.9,13.6"/>
</g>
<path class="st1" d="M18.2,0.3c1,0,1.8,0.8,1.8,1.8s-0.8,1.8-1.8,1.8s-1.8-0.8-1.8-1.8S17.2,0.3,18.2,0.3"/>
<path class="st1" d="M15.3,4.2c-0.3,0-0.6,0.1-0.9,0.3c-1.1,0.9-2.5,2.1-3.6,3.2c-1,0.9-1.9,1.9-2.6,2.8c-0.4,0.4-0.3,1.1,0.2,1.4
	c2.5,1.7,4.1,2.8,4.9,3.3c0.3,0.2,0.5,0.5,0.4,0.9l-0.4,4.3c0.2,0.5,0.6,0.9,1.2,0.9s1.1-0.4,1.3-0.9c0.1-1.6,0.3-3.8,0.4-5.5
	c0-0.4-0.1-0.7-0.4-1c-0.8-0.6-2.6-1.9-3.2-2.4c-0.2-0.1-0.2-0.3,0-0.5l3.6-3.2c0.1-0.1,0.3-0.1,0.4,0.1l1.8,5.9
	c0.3,0.6,0.6,0.7,1,0.6s0.6-0.6,0.6-0.6c-0.8-3.1-1.1-5-2-8.1c-0.2-0.3-0.6-0.8-1.3-1.1C16.1,4.3,15.6,4.2,15.3,4.2z"/>
<path class="st3" d="M7.7,13.5v2.6c0,0.4-0.2,0.7-0.5,0.9l-3.1,2.3c-0.4,0.4-0.5,1-0.2,1.4s0.9,0.6,1.4,0.4c2.5-1.8,3.3-2.4,4.2-3.1
	c0.3-0.2,0.4-0.5,0.4-0.9v-2"/>
<path class="st1" d="M27.3,21.5c0,0.6-0.5,1.2-1.2,1.2c-0.6,0-1.2-0.5-1.2-1.2c0-0.6,0.5-1.2,1.2-1.2C26.7,20.3,27.3,20.8,27.3,21.5
	"/>
<path class="st0" d="M21.2,12.1L21.2,12.1c-0.2,0.2-0.2,0.4,0,0.5l1.4,1l1.4,1H24c0.2,0,0.2-0.1,0.2-0.3v-1h3.5l0,0
	c0.2,0,0.2-0.1,0.2-0.3v-1.3l0,0c0-0.2-0.1-0.3-0.2-0.3h-3.5v-1v-0.1c-0.1-0.1-0.2-0.2-0.3-0.1l-1.4,1L21.2,12.1z"/>
<path class="st0" d="M19.7,7.1l0,0.1c0,0.1,0.1,0.3,0.3,0.3l1.7,0l1.7,0l0.1,0c0.1-0.1,0.1-0.2,0-0.4l-0.6-0.8L25.6,4l0,0
	c0.1-0.1,0.1-0.2,0-0.4l-0.8-1l0,0c-0.1-0.2-0.2-0.2-0.4-0.1l-2.8,2.2L21,3.9L21,3.8c-0.1,0-0.3,0-0.3,0.1l-0.4,1.6L19.7,7.1z"/>
<path class="st0" d="M10.6,4.5l-0.1-1.7c0-0.1-0.2-0.2-0.3-0.2l-0.1,0.1L9.4,3.3L7.2,0.6C7.1,0.5,7,0.5,6.8,0.6l0,0l-1,0.8
	C5.7,1.5,5.6,1.7,5.7,1.8l0,0L8,4.5L7.2,5.1C7,5.3,7,5.4,7.1,5.5l0.1,0.1L8.8,6l1.6,0.4c0.2,0.1,0.4-0.1,0.4-0.2l0-0.1L10.6,4.5z"/>
<path class="st0" d="M9.6,20.2L8,20.5c-0.1,0-0.2,0.2-0.1,0.3l0.1,0.1l0.7,0.7l-2.4,2.5c-0.1,0.1-0.1,0.2,0.1,0.4l0,0l0.9,0.9
	c0.1,0.1,0.3,0.1,0.4,0l0,0l2.4-2.5l0.7,0.7c0.1,0.1,0.3,0.1,0.4,0l0.1-0.1l0.2-1.7l0.2-1.7c0-0.2-0.1-0.4-0.2-0.4l-0.1,0L9.6,20.2z
	"/>
<path class="st0" d="M17,21.3L16.8,23c0,0.1,0.1,0.2,0.2,0.2l0.1-0.1l0.9-0.5l1.8,3c0.1,0.1,0.2,0.2,0.4,0.1l0,0l1.1-0.7
	c0.2-0.1,0.2-0.2,0.1-0.4l0,0l-1.8-3l0.9-0.5c0.2-0.1,0.2-0.2,0.1-0.4l0-0.1l-1.5-0.7l-1.5-0.7c-0.2-0.1-0.4,0-0.4,0.1l0,0.1
	L17,21.3z"/>
</svg>
