<?xml version="1.0" encoding="utf-8"?>
<!-- Generator: Adobe Illustrator 25.0.0, SVG Export Plug-In . SVG Version: 6.00 Build 0)  -->
<svg version="1.1" id="Capa_1" xmlns="http://www.w3.org/2000/svg" xmlns:xlink="http://www.w3.org/1999/xlink" x="0px" y="0px"
	 viewBox="0 0 50 50" style="enable-background:new 0 0 50 50;" xml:space="preserve">
<style type="text/css">
	.st0{fill:#00E9C5;}
	.st1{font-family:'CachetStd-Medium';}
	.st2{font-size:12px;}
</style>
<g id="Iconos">
	<g>
		<text transform="matrix(1 0 0 1 3.7 11.27)" class="st0 st1 st2">R</text>
		<path class="st0" d="M27.2,18.9c-1.7,0.5-3.4-0.4-3.9-2.1c-0.5-1.7,0.4-3.4,2.1-3.9c1.7-0.5,3.4,0.4,3.9,2.1c0,0,0,0,0,0l0,0
			C29.8,16.6,28.9,18.3,27.2,18.9z M25.6,13.5c-1.3,0.4-2.1,1.8-1.7,3.1c0.4,1.3,1.8,2.1,3.1,1.7c1.3-0.4,2.1-1.8,1.7-3.1
			c0,0,0,0,0,0C28.2,13.8,26.9,13.1,25.6,13.5z"/>
		<path class="st0" d="M34.7,7.3L32.6,8c-0.2,0.1-0.3,0.2-0.2,0.4c0.1,0.2,0.2,0.3,0.4,0.2l0,0l1.8-0.6l0.8,2.7l-4.6,2.3
			c-0.2,0.1-0.2,0.3-0.1,0.4l0,0c1.3,2.4,0.3,5.5-2.1,6.7s-5.5,0.3-6.7-2.1c-1.3-2.4-0.3-5.5,2.1-6.7c0,0,0,0,0,0
			c0.3-0.1,0.5-0.3,0.8-0.3l1.3-0.4l0.3,0.9c0,0.2,0.2,0.3,0.4,0.2c0,0,0,0,0,0l1.6-0.5c0.2,0,0.3-0.2,0.2-0.4c0,0,0,0,0,0L28.3,10
			L30,9.4c0.2-0.1,0.3-0.2,0.2-0.4c0-0.2-0.2-0.3-0.4-0.2c0,0,0,0,0,0l0,0l-2,0.6c-0.2,0.1-0.3,0.2-0.2,0.4l0,0l0.3,0.9l-1,0.3
			l-0.3-0.9c0-0.2-0.2-0.3-0.4-0.2c0,0,0,0,0,0l-1.6,0.5c-1.1,0.3-2,1-2.7,1.9l-0.3-0.2c-0.6-0.3-1.4-0.1-1.8,0.5s-0.1,1.4,0.5,1.8
			l0,0l0.4,0.2l0,0c-0.6,3.1,1.3,6.1,4.4,6.7c3.1,0.6,6.1-1.3,6.7-4.4c0.2-0.9,0.1-1.9-0.1-2.8c-0.1-0.2-0.2-0.5-0.2-0.7l4.5-2.3
			c0.1-0.1,0.2-0.2,0.2-0.4l-1-3.3C35.1,7.4,35,7.3,34.7,7.3C34.8,7.3,34.8,7.3,34.7,7.3L34.7,7.3z M20.6,13.9
			c-0.3-0.2-0.4-0.6-0.3-0.9s0.6-0.4,0.9-0.3l0,0l0.2,0.1c-0.1,0.1-0.1,0.2-0.2,0.4c-0.1,0.3-0.3,0.6-0.4,0.8L20.6,13.9z"/>
		<path class="st0" d="M27.4,15.9c-0.2,0.1-0.3,0-0.4-0.2c0,0,0,0,0,0l0,0c-0.1-0.4-0.6-0.7-1-0.5c-0.2,0.1-0.3,0-0.4-0.2
			c-0.1-0.2,0-0.4,0.2-0.4c0.8-0.2,1.6,0.2,1.8,0.9C27.7,15.6,27.6,15.8,27.4,15.9L27.4,15.9z"/>
		<path class="st0" d="M26.4,7.8c-0.2,0-0.3-0.1-0.4-0.2l-0.4-1.2c0-0.2,0-0.3,0.2-0.4c0.2,0,0.4,0,0.4,0.2l0.4,1.2
			C26.6,7.6,26.5,7.8,26.4,7.8z"/>
		<path class="st0" d="M24.8,9.1c-0.1,0-0.2,0-0.2,0l-1.1-0.6c-0.2-0.1-0.2-0.3-0.2-0.4c0,0,0-0.1,0-0.1c0.1-0.2,0.3-0.2,0.4-0.1
			l1.1,0.6C25,8.6,25.1,8.8,25,8.9C25,9,24.9,9,24.8,9.1L24.8,9.1z"/>
		<path class="st0" d="M28.4,8c-0.2,0-0.3,0-0.4-0.2c0-0.1,0-0.2,0-0.2l0.6-1.1c0.1-0.2,0.3-0.2,0.4-0.1c0.2,0.1,0.2,0.3,0.1,0.4
			l0,0l0,0l-0.6,1.1C28.5,7.9,28.5,8,28.4,8z"/>
		<path class="st0" d="M31.4,9c-0.2,0.1-0.3,0-0.4-0.2c0,0,0,0,0,0c-0.1-0.2,0-0.3,0.2-0.4c0,0,0,0,0,0c0.2-0.1,0.3,0,0.4,0.2
			c0,0.1,0,0.2,0,0.2C31.6,8.9,31.5,9,31.4,9z"/>
		<path class="st0" d="M21.8,30.8c-1-0.7-2.1-1.2-3.4-1.4h-0.1c-0.3,0-0.5,0.2-0.5,0.5c-0.1,0.3,0.1,0.5,0.4,0.6
			c1,0.2,2,0.6,2.9,1.2c0.2,0.1,0.3,0.1,0.5,0c0.2-0.1,0.3-0.3,0.4-0.5l-0.1-0.1C21.9,31,21.8,30.9,21.8,30.8z"/>
		<path class="st0" d="M21.6,36.1c-0.7-0.4-1.4-0.7-2.2-1c-0.2-0.1-0.5-0.2-0.7-0.2h-0.2c-0.3,0-0.6,0.2-0.7,0.5
			c0,0.3,0.1,0.5,0.4,0.6c1,0.2,1.9,0.6,2.8,1.1c0.3,0.2,0.6,0.1,0.8-0.1c0,0,0,0,0,0c0.1-0.1,0.1-0.3,0.1-0.5
			C21.9,36.3,21.7,36.2,21.6,36.1z"/>
		<path class="st0" d="M40.3,26.6c-0.6,0-1.3,0-1.9,0h-0.8h-0.3v-0.4c0-0.1,0-0.2,0-0.2v-3.3c0-0.3,0-0.5-0.2-0.7
			c-0.2-0.1-0.4-0.2-0.7-0.1c-3.7,0.3-7.2,1.7-10.1,4.1l-0.4,0.4l-0.5,0.4l-0.5-0.4L24.5,26c-2.8-2.4-6.4-3.8-10.1-4.1
			c-0.2-0.1-0.5,0-0.6,0.1c-0.2,0.2-0.2,0.4-0.2,0.7V26c0,0.1,0,0.2,0,0.2v0.4h-0.4h-0.8c-0.7,0-1.3,0-1.9,0
			c-0.4-0.1-0.7,0.1-0.9,0.4v17.8c0.1,0.3,0.4,0.4,0.9,0.5l1.2,0.1c1.9,0.1,3.9,0.2,5.9,0.4c2.6,0.2,5.2,0.8,7.6,1.8
			c0.2,0.1,0.2,0.1,0.3,0.1s0.1,0,0.3-0.1c2.4-1,5-1.6,7.6-1.8c2-0.2,4-0.3,5.9-0.4l1.2-0.1c0.5,0,0.7-0.2,0.9-0.5V27
			C41.1,26.7,40.7,26.5,40.3,26.6z M21.4,45.2c-3.4-0.6-6.8-1-10.2-1.1h-0.6V27.9h2.9v12.4c0,0.9,0,0.9,0.9,1.1
			c2.4,0.5,4.7,1.4,6.8,2.8c0.2,0.1,0.3,0.2,0.5,0.4l1,0.9L21.4,45.2z M24.8,45.5L24.1,45c-1.1-1-2.3-1.9-3.6-2.6
			c-1.6-0.9-3.4-1.6-5.2-2c-0.4,0-0.7-0.4-0.6-0.8c0-4.3,0-8.6,0-12.9v-3.6l0.9,0.2c0.4,0.1,0.7,0.1,1,0.2c2.5,0.5,4.8,1.6,6.7,3.2
			c1.4,1.1,1.4,1.2,1.4,3L24.8,45.5z M25.9,45.5V29.6c0-1.8,0-1.9,1.4-3c2-1.6,4.3-2.6,6.7-3.2c0.3-0.1,0.7-0.1,1-0.2l0.9-0.2v16.6
			c0,0.4-0.2,0.8-0.6,0.8c-1.8,0.4-3.5,1.1-5.2,2c-1.3,0.7-2.5,1.6-3.6,2.6L25.9,45.5z M40.1,44.1h-0.6c-3.4,0.1-6.9,0.5-10.2,1.1
			l-1.4,0.3l1-0.9c0.2-0.1,0.3-0.3,0.5-0.4c2.1-1.4,4.4-2.3,6.8-2.8c0.9-0.2,0.9-0.2,0.9-1.1V27.9H40L40.1,44.1z"/>
		<path class="st0" d="M29.1,31.8c0.2,0.1,0.3,0.1,0.5,0c0.9-0.6,1.9-1,2.9-1.2c0.3-0.1,0.4-0.3,0.4-0.6c0-0.3-0.3-0.5-0.5-0.5h-0.1
			c-1.2,0.2-2.4,0.7-3.4,1.4c-0.1,0.1-0.1,0.2-0.2,0.3l-0.1,0.1C28.7,31.5,28.9,31.7,29.1,31.8z"/>
		<path class="st0" d="M32.9,35.4c-0.1-0.3-0.4-0.6-0.7-0.5H32c-0.2,0-0.5,0.1-0.7,0.2c-0.8,0.3-1.5,0.7-2.2,1
			c-0.2,0.1-0.3,0.2-0.3,0.4c0,0.2,0,0.3,0.1,0.5c0.2,0.3,0.5,0.4,0.8,0.2c0,0,0,0,0,0c0.9-0.5,1.8-0.9,2.8-1.1
			C32.8,35.9,32.9,35.6,32.9,35.4z"/>
	</g>
</g>
</svg>
