<?xml version="1.0" encoding="utf-8"?>
<!-- Generator: Adobe Illustrator 25.4.1, SVG Export Plug-In . SVG Version: 6.00 Build 0)  -->
<svg version="1.1" id="Capa_1" xmlns="http://www.w3.org/2000/svg" xmlns:xlink="http://www.w3.org/1999/xlink" x="0px" y="0px"
	 viewBox="0 0 40 39.1" style="enable-background:new 0 0 40 39.1;" xml:space="preserve">
<style type="text/css">
	.st0{fill:none;stroke:#FF3737;stroke-miterlimit:10;}
	.st1{fill:none;stroke:#FF3737;stroke-linecap:round;stroke-miterlimit:10;}
	.st2{fill:none;stroke:#FF3737;stroke-width:0.8;stroke-miterlimit:10;}
</style>
<g id="Capa_2_00000079464545325029139370000013781633352331852981_">
	<path class="st0" d="M0.5,24.7V2.9c0-1.3,1.1-2.4,2.4-2.4h34.2c1.3,0,2.4,1.1,2.4,2.4v21.8"/>
	<path class="st0" d="M37.6,21.7V5.1c0-1.2-1-2.2-2.2-2.2H4.7c-1.2,0-2.2,1-2.2,2.2v16.6c2.8-1.6,9.2-5,17.6-5
		C28.7,16.6,34.8,20.1,37.6,21.7z"/>
</g>
<g id="Capa_3">
	<path class="st1" d="M0.5,24.7V2.9c0-1.3,1.1-2.4,2.4-2.4h34.2c1.3,0,2.4,1.1,2.4,2.4v21.8"/>
	<path class="st0" d="M37.6,21.7V5.1c0-1.2-1-2.2-2.2-2.2h-3.8h-3.8h-3.7h-4h-4h-4.2H8.4H4.7c-1.2,0-2.2,1-2.2,2.2v3.7v3.8v4.1v5
		c2.8-1.6,9.2-5,17.6-5C28.7,16.6,34.8,20.1,37.6,21.7z"/>
	<line class="st0" x1="7.4" y1="2.9" x2="7.3" y2="19.3"/>
	<line class="st0" x1="11.9" y1="2.9" x2="12" y2="17.8"/>
	<line class="st0" x1="16.1" y1="2.9" x2="16.1" y2="16.9"/>
	<line class="st0" x1="20.1" y1="2.9" x2="20.1" y2="16.7"/>
	<line class="st0" x1="24.1" y1="2.9" x2="24.1" y2="16.9"/>
	<line class="st0" x1="28.8" y1="2.9" x2="28.7" y2="17.6"/>
	<line class="st0" x1="32.7" y1="2.9" x2="32.7" y2="19.2"/>
	<path class="st0" d="M37.6,16.7c-3.1-1.6-9.3-4.1-17.6-4.2c-8.2,0-14.5,2.6-17.6,4.1"/>
	<path class="st0" d="M37.7,13c-3.1-1.6-9.3-4.1-17.6-4.2c-8.2,0-14.5,2.6-17.6,4.1"/>
	<path class="st0" d="M37.6,9.1C34.5,7.5,28.4,5.8,20,5.7c-8.2,0-14.1,2-17.2,3.5"/>
	<circle class="st0" cx="20.1" cy="33.4" r="5.2"/>
</g>
<g id="Capa_4_00000067923283177811532100000016856194600047991459_">
	<path class="st2" d="M36.9,33.6l2.6-5.4l-4.6-3.1l0.7,3.1l-11.9,1.1l0.8,1.3c0.8,0.8,0.9,2.5,0.8,3.6l-0.4,1.3l1.7-0.9l9.5-4.3
		L36.9,33.6z"/>
</g>
</svg>
