<?xml version="1.0" encoding="utf-8"?>
<!-- Generator: Adobe Illustrator 25.4.1, SVG Export Plug-In . SVG Version: 6.00 Build 0)  -->
<svg version="1.1" id="Iconos" xmlns="http://www.w3.org/2000/svg" xmlns:xlink="http://www.w3.org/1999/xlink" x="0px" y="0px"
	 viewBox="0 0 34.1 40.3" style="enable-background:new 0 0 34.1 40.3;" xml:space="preserve">
<style type="text/css">
	.st0{fill:#00E9C5;}
	.st1{fill:#FFFFFF;stroke:#00E9C5;stroke-miterlimit:10;}
	.st2{fill:none;stroke:#00E9C5;stroke-width:0.5;stroke-miterlimit:10;}
	.st3{fill:none;stroke:#00E9C5;stroke-miterlimit:10;}
	.st4{fill:none;stroke:#FF3737;stroke-miterlimit:10;}
</style>
<path class="st0" d="M27.9,38.8h-3.6c-0.1,0-0.3,0.1-0.3,0.2c0,0.1,0.1,0.3,0.2,0.3h0.1h3.6c0.1,0,0.3-0.1,0.3-0.2
	C28.2,39,28.1,38.8,27.9,38.8C27.9,38.8,27.9,38.8,27.9,38.8z"/>
<path class="st0" d="M32.1,0H2.2C1,0,0,1,0,2.2l0,0v21.5c0,0.3,0.2,0.5,0.5,0.5l0,0C0.8,24.2,1,24,1,23.7l0,0V2.2
	c0-0.6,0.5-1.1,1.1-1.1H32c0.6,0,1.1,0.5,1.1,1.1v21.5c0,0.3,0.2,0.5,0.5,0.5s0.5-0.2,0.5-0.5l0,0V2.2C34.2,1,33.3,0,32.1,0L32.1,0z
	"/>
<path class="st0" d="M31.4,2.4L31.4,2.4c-0.1-0.1-0.2-0.1-0.3-0.1h-28c-0.1,0-0.2,0-0.3,0.1C2.5,2.5,2.3,2.9,2.3,3.2v19.5
	c0,0.3,0.2,0.5,0.5,0.5c0.1,0,0.2,0,0.3-0.1l3.2-2.3h21.6l3.2,2.3c0.2,0.2,0.5,0.1,0.7-0.1c0.1-0.1,0.1-0.2,0.1-0.3V3.2
	C31.9,2.9,31.7,2.6,31.4,2.4z M27.8,3.3h2.7l-0.4,2.5h-2.5L27.8,3.3z M27.4,6.8h2.5l-0.4,2.5h-2.3L27.4,6.8z M29.3,10.3l-0.4,2.5
	h-2.1l0.3-2.5H29.3z M23.7,3.3h3.2l-0.4,2.5h-3L23.7,3.3z M23.5,6.8h3l-0.3,2.5h-2.8L23.5,6.8z M23.3,10.3h2.8l-0.3,2.5h-2.6
	L23.3,10.3z M23.1,13.8h2.6l-0.3,2.5H23L23.1,13.8z M19.5,3.3h3.2l-0.2,2.5h-3V3.3z M22.1,12.8h-2.6v-2.5h2.8L22.1,12.8z M19.5,6.8
	h3l-0.1,2.5h-2.9V6.8z M19.5,13.8h2.6L22,16.3h-2.5V13.8z M21.7,19.8h-2.2v-2.5h2.3 M15.8,3.3h2.7v2.5h-2.7V3.3z M15.8,6.8h2.7v2.5
	h-2.7V6.8z M15.8,10.3h2.7v2.5h-2.7V10.3z M15.8,13.8h2.7v2.5h-2.7V13.8z M18.5,17.3l0.1,2.5h-2.7v-2.5H18.5z M11.8,6.8h3v2.5H12
	L11.8,6.8z M12.2,13.8h2.6v2.5h-2.4L12.2,13.8z M12.6,19.4l-0.1-2.1h2.4v2.5h-2.3C12.6,19.7,12.6,19.6,12.6,19.4z M14.8,12.8h-2.7
	L12,10.3h2.8L14.8,12.8z M14.8,3.3v2.5h-3.1l-0.1-2.5C11.6,3.3,14.8,3.3,14.8,3.3z M11,9.3H8.1L7.8,6.8h3L11,9.3z M10.7,3.3l0.1,2.5
	H7.7L7.4,3.3C7.4,3.3,10.7,3.3,10.7,3.3z M7.6,12.8H5.4L5,10.3h2.3L7.6,12.8z M7.2,9.3H4.9L4.5,6.8h2.4L7.2,9.3z M6.5,3.3l0.3,2.5
	H4.2L3.8,3.3C3.8,3.3,6.5,3.3,6.5,3.3z M3.4,21.7V7l2.3,13.1L3.4,21.7z M5.5,13.8h2.1l0.3,2.5H6L5.5,13.8z M6.6,19.8l-0.4-2.5H8
	l0.3,2.5H6.6z M8.2,10.3H11l0.1,2.5H8.5L8.2,10.3z M8.6,13.8h2.6l0.1,2.5H8.9L8.6,13.8z M9,17.3h2.4l0.1,2.5c0,0.1,0-0.1,0,0H9.2
	L9,17.3z M24,19.8h-1.3c0-0.1,0-0.2,0-0.3l0.1-2.2h2.4l-0.3,2.5H24z M27.7,19.8H26l0.3-2.5h1.9L27.7,19.8z M26.4,16.3l0.3-2.5h2.1
	l-0.4,2.5H26.4z M28.6,20.1L30.9,7v14.8L28.6,20.1z"/>
<path class="st0" d="M7.3,39.4c0.1,0,0.2-0.1,0.2-0.3s-0.1-0.2-0.2-0.2H6.4c-0.1,0-0.2,0.1-0.2,0.3c0,0.1,0.1,0.2,0.2,0.2H7.3z"/>
<path class="st0" d="M22.5,38.8h-2.8c-0.8,0.4-1.7,0.7-2.7,0.7c-0.9,0-1.8-0.2-2.6-0.7H9c-0.1,0-0.2,0.1-0.2,0.3
	c0,0.1,0.1,0.2,0.2,0.2h5.2c0.2,0.5,1.3,1,2.8,1s2.5-0.4,2.8-1h2.7c0.1,0,0.2-0.1,0.2-0.3C22.7,39,22.7,38.8,22.5,38.8L22.5,38.8z"
	/>
<g>
	<path class="st1" d="M17.1,31"/>
</g>
<path class="st2" d="M19.6,31.1"/>
<path class="st2" d="M14.6,31.1"/>
<path class="st3" d="M20.7,34.8c0,2-1.6,3.6-3.6,3.6s-3.6-1.6-3.6-3.6c0-2,1.6-3.6,3.6-3.6S20.7,32.8,20.7,34.8"/>
<path class="st4" d="M16.9,18"/>
<g>
	<path class="st0" d="M9.9,28.9c-0.4,0.1-1.1,0.2-1.7,0.2c-2.4,0-2.9-1.1-2.9-3.3c0-1.1,0.2-2.7,1.1-3.2c0.5-0.3,1-0.3,1.7-0.3
		c0.5,0,0.5,0,1.1,0.1c0.3,0.1,1.1-0.1,1.1,0.6v0.2c0,0.4-0.1,0.5-0.5,0.5c-0.2,0-0.3,0-0.5,0c-0.3,0-0.5,0-0.9,0
		c-0.2,0-0.7,0-0.9,0.1c-0.6,0.3-0.5,1.5-0.5,2c0,0.7-0.1,1.8,0.9,2c0.2,0.1,0.3,0,0.5,0.1c0.1,0,0.5,0,0.6-0.1v-1.5H8.1
		c-0.5,0-0.5-0.3-0.5-0.6c0-0.3,0.1-0.5,0.5-0.5h1.8c0.3,0,0.5,0.2,0.5,0.5v2.6C10.5,28.6,10.3,28.7,9.9,28.9z"/>
	<path class="st0" d="M14.4,29.1c-2.1,0-2.8-1.5-2.8-3.3c0-1.9,0.7-3.4,2.8-3.4c2.2,0,2.8,1.5,2.8,3.3
		C17.2,27.7,16.5,29.1,14.4,29.1z M15.5,24.3c-0.2-0.4-0.6-0.5-1-0.5c-0.5,0-0.7,0.1-0.9,0.5c-0.2,0.4-0.2,1.1-0.2,1.6
		c0,0.4,0,1.1,0.2,1.6c0.2,0.4,0.6,0.5,1,0.5s0.9-0.1,1-0.5c0.2-0.4,0.2-1.1,0.2-1.6C15.7,25.3,15.7,24.7,15.5,24.3z"/>
	<path class="st0" d="M23.8,29.1h-0.5c-0.3,0-0.4-0.1-0.5-0.4L22.4,28c-0.7,0-1.5,0-2.4,0l-0.3,0.6c-0.1,0.3-0.1,0.5-0.5,0.5h-0.5
		c-0.3,0-0.6,0-0.6-0.3c0-0.1,0.1-0.3,0.2-0.5l2.1-5.4c0.2-0.5,0.3-0.7,1-0.7c0.4,0.1,0.4,0.1,0.7,0.7l2.2,5.6c0,0.1,0,0.1,0,0.2
		C24.2,28.9,24,29.1,23.8,29.1z M21.2,24.7l-0.7,2.2H22L21.2,24.7z"/>
	<path class="st0" d="M28.6,29.1h-2.8c-0.3,0-0.5-0.1-0.5-0.5v-5.8c0-0.4,0.2-0.5,0.5-0.5h0.4c0.3,0,0.5,0.1,0.5,0.5v5
		c0.6,0,1.2,0,1.9,0c0.5,0,0.5,0.4,0.5,0.7C29.1,28.9,28.9,29.1,28.6,29.1z"/>
</g>
</svg>
