<?xml version="1.0" encoding="utf-8"?>
<!-- Generator: Adobe Illustrator 25.4.1, SVG Export Plug-In . SVG Version: 6.00 Build 0)  -->
<svg version="1.1" id="Capa_1" xmlns="http://www.w3.org/2000/svg" xmlns:xlink="http://www.w3.org/1999/xlink" x="0px" y="0px"
	 viewBox="0 0 50 50" style="enable-background:new 0 0 50 50;" xml:space="preserve">
<style type="text/css">
	.st0{fill:none;stroke:#050B3D;stroke-width:0.5;stroke-miterlimit:10;}
	.st1{fill:#FFFFFF;stroke:#050B3D;stroke-width:0.5;stroke-miterlimit:10;}
	.st2{fill:none;stroke:#050B3D;stroke-width:0.5;stroke-linecap:round;stroke-miterlimit:10;}
	.st3{fill:none;stroke:#050B3D;stroke-width:0.4;stroke-miterlimit:10;}
</style>
<g id="Capa_5_2_">
	<path class="st0" d="M20.8,20.7c0.4,1.1,2.6,6.1,3.6,7.9c0.1,0.1,0.2,0.2,0.3,0.2l0,0c0.2,0,0.4-0.2,0.4-0.4v-0.1
		c0-0.3,0.3-0.6,0.6-0.6l0,0c0.4,0,0.7,0.3,0.7,0.7C26.3,29.1,26,30,25,30.3c-0.3,0.1-1.2,0-1.6-0.7c-0.3-0.5-2.3-4.2-4.3-8.7"/>
	<path class="st1" d="M18.7,17.8"/>
	<path class="st1" d="M19,18.5"/>
	<path class="st1" d="M19.9,18.2"/>
	<path class="st1" d="M19.9,20.6"/>
	<path class="st1" d="M20.8,20.4"/>
</g>
<path class="st0" d="M18.7,6.2c1.1,0,2,0.9,2,2s-0.9,2-2,2s-2-0.9-2-2S17.6,6.2,18.7,6.2"/>
<path class="st0" d="M15.7,10c-0.4,0-0.7,0.1-1,0.3c-1.2,1-2.7,2.3-4,3.5c-1.1,1-2,2.1-2.9,3.1c-0.4,0.5-0.3,1.2,0.2,1.6
	c2.7,1.9,4.6,3.1,5.4,3.6c0.3,0.2,0.5,0.6,0.5,1l-0.5,4.7c0.2,0.6,0.7,1,1.3,1s1.2-0.4,1.4-1c0.1-1.8,0.3-4.2,0.4-6.1
	c0-0.4-0.2-0.8-0.5-1c-0.9-0.7-2.8-2.1-3.6-2.7c-0.2-0.1-0.2-0.4,0-0.5l4-3.5c0.1-0.1,0.4-0.1,0.4,0.1l2,6.5
	c0.3,0.6,0.7,0.8,1.1,0.7c0.4-0.1,0.7-0.6,0.7-0.6c-0.9-3.4-1.2-5.5-2.2-8.9c-0.2-0.3-0.7-0.9-1.4-1.2C16.6,10.2,16.2,10.1,15.7,10z
	"/>
<path class="st2" d="M7.4,19.2v4c0,0.4-0.2,0.7-0.5,1l-3.5,2.5c-0.4,0.4-0.6,1.1-0.2,1.5s1,0.7,1.5,0.4c1.5-1.1,3.1-2.3,4.6-3.4
	c0.3-0.2,0.5-0.6,0.5-1V21"/>
<path class="st3" d="M25.8,35c0,0.5-0.4,1-1,1s-1-0.4-1-1c0-0.5,0.4-1,1-1S25.8,34.5,25.8,35"/>
<g id="Capa_5_00000018946988852612748000000010423084361304579494_">
	<path class="st0" d="M29.5,32.8c-0.4,1.1-2.6,6.1-3.6,7.9c-0.1,0.1-0.2,0.2-0.3,0.2l0,0c-0.2,0-0.4-0.2-0.4-0.4v-0.1
		c0-0.3-0.3-0.6-0.6-0.6l0,0c-0.4,0-0.7,0.3-0.7,0.7c0.1,0.7,0.4,1.6,1.4,1.8c0.3,0.1,1.2,0,1.6-0.7c0.3-0.5,2.3-4.2,4.3-8.7"/>
	<path class="st1" d="M31.6,29.9"/>
	<path class="st1" d="M31.4,30.6"/>
	<path class="st1" d="M30.4,30.3"/>
	<path class="st1" d="M30.5,32.7"/>
	<path class="st1" d="M29.5,32.5"/>
</g>
<path class="st0" d="M31.6,18.2c-1.1,0-2,0.9-2,2s0.9,2,2,2s2-0.9,2-2S32.7,18.2,31.6,18.2"/>
<path class="st0" d="M34.6,22.1c0.4,0,0.7,0.1,1,0.3c1.2,1,2.7,2.3,4,3.5c1.1,1,2,2.1,2.9,3.1c0.4,0.5,0.3,1.2-0.2,1.6
	c-2.7,1.9-4.6,3.1-5.4,3.6c-0.3,0.2-0.5,0.6-0.5,1l0.5,4.7c-0.2,0.6-0.7,1-1.3,1c-0.7,0-1.2-0.4-1.4-1c-0.1-1.8-0.3-4.2-0.4-6.1
	c0-0.4,0.2-0.8,0.5-1c0.9-0.7,2.8-2.1,3.6-2.7c0.2-0.1,0.2-0.4,0-0.5l-4-3.5c-0.1-0.1-0.4-0.1-0.4,0.1l-2,6.5
	c-0.3,0.6-0.7,0.8-1.1,0.7s-0.7-0.6-0.7-0.6c0.9-3.4,1.2-5.5,2.2-8.9c0.2-0.3,0.7-0.9,1.4-1.2C33.7,22.3,34.2,22.2,34.6,22.1z"/>
<path class="st2" d="M42.9,31.2v4c0,0.4,0.2,0.7,0.5,1l3.5,2.5c0.4,0.4,0.6,1.1,0.2,1.5c-0.3,0.4-1,0.7-1.5,0.4
	c-1.5-1.1-3.1-2.3-4.6-3.4c-0.3-0.2-0.5-0.6-0.5-1v-3.3"/>
</svg>
