<?xml version="1.0" encoding="utf-8"?>
<!-- Generator: Adobe Illustrator 25.4.1, SVG Export Plug-In . SVG Version: 6.00 Build 0)  -->
<svg version="1.1" id="Iconos" xmlns="http://www.w3.org/2000/svg" xmlns:xlink="http://www.w3.org/1999/xlink" x="0px" y="0px"
	 viewBox="0 0 50 50" style="enable-background:new 0 0 50 50;" xml:space="preserve">
<style type="text/css">
	.st0{fill:#050B3D;}
	.st1{fill:#FFFFFF;stroke:#00E9C5;stroke-miterlimit:10;}
	.st2{fill:none;stroke:#00E9C5;stroke-width:0.5;stroke-miterlimit:10;}
	.st3{fill:none;stroke:#050B3D;stroke-miterlimit:10;}
</style>
<path class="st0" d="M40.1,45.4h-4.8c-0.2,0-0.4,0.1-0.4,0.3c0,0.2,0.1,0.4,0.3,0.4c0,0,0.1,0,0.1,0h4.8c0.2,0,0.4-0.1,0.4-0.3
	c0-0.2-0.1-0.4-0.3-0.4C40.1,45.4,40.1,45.4,40.1,45.4z"/>
<path class="st0" d="M40.6,2.8H10.7c-1.2,0-2.2,1-2.2,2.2c0,0,0,0,0,0v21.5C8.5,26.8,8.7,27,9,27l0,0c0.3,0,0.5-0.2,0.5-0.5l0,0V5
	c0-0.6,0.5-1.1,1.1-1.1h29.9c0.6,0,1.1,0.5,1.1,1.1v21.5c0,0.3,0.2,0.5,0.5,0.5c0.3,0,0.5-0.2,0.5-0.5c0,0,0,0,0,0V5
	C42.7,3.8,41.8,2.8,40.6,2.8C40.6,2.8,40.6,2.8,40.6,2.8z"/>
<path class="st0" d="M39.9,5.2L39.9,5.2c-0.1-0.1-0.2-0.1-0.3-0.1h-28c-0.1,0-0.2,0-0.3,0.1c-0.3,0.1-0.5,0.5-0.5,0.8v19.5
	c0,0.3,0.2,0.5,0.5,0.5c0.1,0,0.2,0,0.3-0.1l3.2-2.3h21.6l3.2,2.3c0.2,0.2,0.5,0.1,0.7-0.1c0.1-0.1,0.1-0.2,0.1-0.3V6
	C40.4,5.7,40.2,5.4,39.9,5.2z M36.3,6.1H39l-0.4,2.5h-2.5L36.3,6.1z M35.9,9.6h2.5l-0.4,2.5h-2.3L35.9,9.6z M37.8,13.1l-0.4,2.5
	h-2.1l0.3-2.5H37.8z M32.2,6.1h3.2L35,8.6h-3L32.2,6.1z M32,9.6h3l-0.3,2.5h-2.8L32,9.6z M31.8,13.1h2.8l-0.3,2.5h-2.6L31.8,13.1z
	 M31.6,16.6h2.6l-0.3,2.5h-2.4L31.6,16.6z M28,6.1h3.2L31,8.6h-3V6.1z M30.6,15.6H28v-2.5h2.8L30.6,15.6z M28,9.6h3l-0.1,2.5H28V9.6
	z M28,16.6h2.6l-0.1,2.5H28V16.6z M30.3,20.1l-0.2,2.1c0,0.1,0,0.3,0.1,0.4H28L28,20.1L30.3,20.1z M24.3,6.1H27v2.5h-2.7V6.1z
	 M24.3,9.6H27v2.5h-2.7V9.6z M24.3,13.1H27v2.5h-2.7V13.1z M24.3,16.6H27v2.5h-2.7V16.6z M27,20.1l0.1,2.5h-2.7v-2.5H27z M20.3,9.6
	h3v2.5h-2.8L20.3,9.6z M20.7,16.6h2.6v2.5h-2.4L20.7,16.6z M21.1,22.2l-0.1-2.1h2.4v2.5h-2.4C21,22.5,21.1,22.4,21.1,22.2z
	 M23.3,15.6h-2.7l-0.1-2.5h2.8L23.3,15.6z M23.3,6.1v2.5h-3.1l-0.1-2.5H23.3z M19.5,12.1h-2.9l-0.3-2.5h3L19.5,12.1z M19.2,6.1
	l0.1,2.5h-3.1l-0.3-2.5H19.2z M16.1,15.6h-2.2l-0.4-2.5h2.3L16.1,15.6z M15.7,12.1h-2.3L13,9.6h2.4L15.7,12.1z M15,6.1l0.3,2.5h-2.6
	l-0.4-2.5H15z M11.9,24.5V9.8l2.3,13.1L11.9,24.5z M14,16.6h2.1l0.3,2.5h-1.9L14,16.6z M15.1,22.6l-0.4-2.5h1.8l0.3,2.5H15.1z
	 M16.7,13.1h2.8l0.1,2.5H17L16.7,13.1z M17.1,16.6h2.6l0.1,2.5h-2.4L17.1,16.6z M17.5,20.1h2.4l0.1,2.2c0,0.1,0.1,0.2,0.1,0.3h-2.4
	L17.5,20.1z M32.5,22.6h-1.4c0.1-0.1,0.1-0.2,0.1-0.3l0.1-2.2h2.4l-0.3,2.5H32.5z M36.2,22.6h-1.7l0.3-2.5h1.9L36.2,22.6z
	 M34.9,19.1l0.3-2.5h2.1l-0.4,2.5H34.9z M37.1,22.9l2.3-13.1v14.8L37.1,22.9z"/>
<path class="st0" d="M12.5,46.2c0.2,0,0.3-0.2,0.3-0.4c0-0.2-0.2-0.3-0.3-0.3h-1.1c-0.2,0-0.3,0.2-0.3,0.4c0,0.2,0.2,0.3,0.3,0.3
	H12.5z"/>
<path class="st0" d="M32.9,45.4h-3.8c-1.1,0.5-2.3,0.9-3.6,0.9c-1.2,0-2.4-0.3-3.5-0.9h-7.2c-0.2,0-0.3,0.2-0.3,0.4
	c0,0.2,0.2,0.3,0.3,0.3h7c0.3,0.7,1.8,1.3,3.7,1.3s3.4-0.6,3.7-1.3h3.6c0.2,0,0.3-0.2,0.3-0.4C33.2,45.6,33.1,45.4,32.9,45.4
	L32.9,45.4z"/>
<g>
	<path class="st1" d="M25.6,35.8"/>
</g>
<path class="st2" d="M28.1,35.9"/>
<path class="st2" d="M23.1,35.9"/>
<path class="st3" d="M30.5,40.1c0,2.7-2.2,4.8-4.8,4.8s-4.8-2.2-4.8-4.8c0-2.7,2.2-4.8,4.8-4.8S30.5,37.4,30.5,40.1"/>
<text transform="matrix(1 0 0 1 -26.0868 44.2839)" style="fill:#00E9C5; font-family:'CachetStd-Bold'; font-size:15px;">R</text>
</svg>
