<?xml version="1.0" encoding="utf-8"?>
<!-- Generator: Adobe Illustrator 25.4.1, SVG Export Plug-In . SVG Version: 6.00 Build 0)  -->
<svg version="1.1" id="Capa_1" xmlns="http://www.w3.org/2000/svg" xmlns:xlink="http://www.w3.org/1999/xlink" x="0px" y="0px"
	 viewBox="0 0 50 50" style="enable-background:new 0 0 50 50;" xml:space="preserve">
<style type="text/css">
	.st0{fill:none;stroke:#050B3D;stroke-miterlimit:10;}
	.st1{fill:#050B3D;}
</style>
<g id="Capa_3">
</g>
<g id="Capa_4">
</g>
<g id="Capa_5">
	<path class="st0" d="M5.5,5.8c0,0-0.7-2.4,1.2-2.9s2.6,1.9,2.6,1.9l0,0c1.2,3.3,12.9,33.8,15.2,36.7c0.8,1,2.7,2,4.2,0.2
		c1.7-2.1-0.8-4.9-0.7-5.1c0-0.1,0.3-1.5,1.3-1.8s1.9,0.5,2.3,0.8c1.9,1.7,2.7,5.8,0.7,8.8s-7.4,3.8-9.3,0.9
		C22,43.9,11.4,19.1,5.5,5.8z"/>
	<circle class="st0" cx="41.3" cy="43.5" r="3.4"/>
	<line class="st0" x1="10" y1="7.7" x2="7.1" y2="8.5"/>
	<line class="st0" x1="10.8" y1="9.8" x2="7.9" y2="10.6"/>
	<line class="st0" x1="13.5" y1="16.3" x2="10.6" y2="17"/>
</g>
<path class="st1" d="M36,19.9l-3.8-2.2c-0.3-0.1-0.7,0-1,0.3c0,0.1-0.1,0.3-0.1,0.3v2.3h-6c-0.4,0-0.7,0.3-0.7,0.7l0,0v2.9
	c0,0.4,0.3,0.7,0.7,0.7l0,0h6v2.3c0,0.4,0.3,0.7,0.7,0.7c0.1,0,0.3,0,0.3-0.1l3.8-2.2l3.8-2.2c0.3-0.1,0.4-0.5,0.3-1
	c0-0.1-0.1-0.1-0.3-0.3L36,19.9z"/>
</svg>
