<?xml version="1.0" encoding="utf-8"?>
<!-- Generator: Adobe Illustrator 25.4.1, SVG Export Plug-In . SVG Version: 6.00 Build 0)  -->
<svg version="1.1" id="Capa_1" xmlns="http://www.w3.org/2000/svg" xmlns:xlink="http://www.w3.org/1999/xlink" x="0px" y="0px"
	 viewBox="0 0 110.8 118.5" style="enable-background:new 0 0 110.8 118.5;" xml:space="preserve">
<style type="text/css">
	.st0{fill:none;stroke:#050B3D;stroke-width:2;stroke-miterlimit:10;}
	.st1{fill:#050B3D;}
	.st2{font-family:'CachetStd-Bold';}
	.st3{font-size:42px;}
</style>
<path class="st0" d="M37.6,108.3c-4.5,6.9-18.6,3.1-23.3-4c-4.7-7-2.9-16.7,1.6-20.8c1-0.7,3.1-2.5,5.5-1.9c2.4,0.8,3.1,4.1,3.1,4.3
	c0.2,0.5-5.7,7.1-1.6,12.1c3.5,4.3,8,2,9.9-0.4c5.4-6.8,33.1-79.1,36-86.9l0,0c0,0,1.6-5.6,6.2-4.5s2.9,6.8,2.9,6.8
	C63.8,44.5,42.1,103.6,37.6,108.3z"/>
<line class="st0" x1="74" y1="19.4" x2="67.1" y2="17.5"/>
<line class="st0" x1="72.1" y1="24.3" x2="65.2" y2="22.5"/>
<line class="st0" x1="65.6" y1="39.5" x2="58.8" y2="37.9"/>
<text transform="matrix(1 0 0 1 14.0646 70.638)" class="st1 st2 st3">P</text>
<path class="st0" d="M59.4,57.4c7.6,18.9,15.2,37,17.8,40.2c1.9,2.4,6.4,4.7,9.9,0.4c4.1-4.9-1.9-11.5-1.6-12.1
	c0-0.2,0.7-3.5,3.1-4.3C91,81,93,82.8,94,83.5c4.5,4.1,6.4,13.7,1.6,20.8c-4.7,7.1-18.8,10.9-23.3,4C70,105.9,63.1,88.8,55,68.5"/>
<path class="st0" d="M50.3,56.8C44.1,41.2,37.6,25.1,32.2,13c0,0-1.6-5.7,2.9-6.8s6.2,4.5,6.2,4.5l0,0c1.2,3.4,7.1,18.6,13.7,35.5"
	/>
<line class="st0" x1="42.9" y1="17.5" x2="36" y2="19.4"/>
<line class="st0" x1="44.8" y1="22.5" x2="37.8" y2="24.3"/>
<line class="st0" x1="51.1" y1="37.9" x2="44.3" y2="39.5"/>
<text transform="matrix(1 0 0 1 70.5255 70.6379)" class="st1 st2 st3">C</text>
</svg>
