<?xml version="1.0" encoding="utf-8"?>
<!-- Generator: Adobe Illustrator 25.4.1, SVG Export Plug-In . SVG Version: 6.00 Build 0)  -->
<svg version="1.1" id="Capa_1" xmlns="http://www.w3.org/2000/svg" xmlns:xlink="http://www.w3.org/1999/xlink" x="0px" y="0px"
	 viewBox="0 0 394.3 371.8" style="enable-background:new 0 0 394.3 371.8;" xml:space="preserve">
<style type="text/css">
	.st0{enable-background:new    ;}
	.st1{fill:#FFDE37;}
</style>
<g class="st0">
	<path class="st1" d="M70.3,100.2h-9c-4.6,0-7.6-0.9-10.6-4.6L25.6,65h-2.1v27.1c0,9.4-7.8,8.1-14.5,8.1c-5.7,0-9-2-9-8.1V7.7
		C0,1.7,3.7,0,9,0h27.9c10.6,0,19-0.4,27,7.3c7,7,8.2,18.9,8.2,28.3c0,13.2-4.4,24.7-18.4,28.2l21.1,24.6c1.5,1.6,2.4,4,2.4,6.1
		C77.2,98.9,73.9,100.2,70.3,100.2z M45.6,20.9c-1.8-0.9-7-0.9-9.3-0.9h-4.2c-2.9,0-5.7,0-8.5,0.2V45h15.3c9,0,9.9-1.8,9.9-10.5
		C48.7,31.4,48.7,22.4,45.6,20.9z"/>
</g>
<path class="st1" d="M383,371.8H114.2c-6.2,0-11.3-5.1-11.3-11.3V11.3C102.9,5.1,108,0,114.2,0H383c6.2,0,11.3,5.1,11.3,11.3v349.3
	C394.3,366.7,389.2,371.8,383,371.8z"/>
</svg>
