<?xml version="1.0" encoding="UTF-8"?><svg id="Capa_1" xmlns="http://www.w3.org/2000/svg" viewBox="0 0 16.77 22.36"><defs><style>.cls-1{fill:#050c44;}</style></defs><g id="group_friend_team_unity"><path id="Trazado_280" class="cls-1" d="m12.74,11.47c-.46.42-.49,1.12-.07,1.58,0,0,0,0,0,0,1.22,1.37,1.89,3.14,1.86,4.97,0,.74-2.34,2.1-6.15,2.1s-6.15-1.36-6.15-2.1c-.01-1.82.64-3.57,1.84-4.94.41-.46.38-1.17-.08-1.58-.46-.41-1.17-.38-1.58.08C.84,13.35-.02,15.65,0,18.02,0,20.49,3.6,22.36,8.39,22.36s8.39-1.86,8.39-4.34c.02-2.39-.85-4.7-2.45-6.48-.42-.46-1.12-.49-1.58-.07,0,0,0,0,0,0Z"/><path id="Trazado_282" class="cls-1" d="m8.39,11.18c3.09,0,5.59-2.5,5.59-5.59S11.47,0,8.39,0,2.8,2.5,2.8,5.59h0c0,3.09,2.5,5.59,5.59,5.59Zm0-8.94c1.85,0,3.35,1.5,3.35,3.35s-1.5,3.35-3.35,3.35-3.35-1.5-3.35-3.35,1.5-3.35,3.35-3.35h0Z"/></g></svg>