<?xml version="1.0" encoding="UTF-8" standalone="no"?>
<svg
   xmlns:dc="http://purl.org/dc/elements/1.1/"
   xmlns:cc="http://creativecommons.org/ns#"
   xmlns:rdf="http://www.w3.org/1999/02/22-rdf-syntax-ns#"
   xmlns:svg="http://www.w3.org/2000/svg"
   xmlns="http://www.w3.org/2000/svg"
   viewBox="0 0 763.7453 671.68799"
   height="671.68799"
   width="763.7453"
   xml:space="preserve"
   id="svg2"
   version="1.1"><metadata
     id="metadata8"><rdf:RDF><cc:Work
         rdf:about=""><dc:format>image/svg+xml</dc:format><dc:type
           rdf:resource="http://purl.org/dc/dcmitype/StillImage" /></cc:Work></rdf:RDF></metadata><defs
     id="defs6"><clipPath
       id="clipPath18"
       clipPathUnits="userSpaceOnUse"><path
         id="path16"
         d="M 0,503.766 H 572.808 V 0 H 0 Z" /></clipPath></defs><g
     transform="matrix(1.3333333,0,0,-1.3333333,0,671.688)"
     id="g10"><g
       id="g12"><g
         clip-path="url(#clipPath18)"
         id="g14"><g
           transform="translate(298.2021,370.7191)"
           id="g20"><path
             id="path22"
             style="fill:none;stroke:#050b3d;stroke-width:12;stroke-linecap:round;stroke-linejoin:round;stroke-miterlimit:10;stroke-dasharray:none;stroke-opacity:1"
             d="m 0,0 h -42.655 c -14.06,0 -26.523,-9.048 -30.877,-22.417 l -35.519,-109.046 c -2.587,-9.341 3.072,-18.968 12.492,-21.251 l 0.036,-0.008 c 8.897,-2.156 17.918,3.054 20.498,11.836 l 26.851,91.403 c 1.988,6.766 11.848,5.844 12.546,-1.174 l -31.736,-261.667 c 0,-9.474 7.68,-17.154 17.154,-17.154 h 2 c 9.474,0 17.154,7.68 17.154,17.154 l 18.945,158.138 c 2.13,5.95 7.767,9.919 14.086,9.919 v 0" /></g><g
           transform="translate(299.1773,226.4525)"
           id="g24"><path
             id="path26"
             style="fill:none;stroke:#050b3d;stroke-width:12;stroke-linecap:round;stroke-linejoin:round;stroke-miterlimit:4;stroke-dasharray:none;stroke-opacity:1"
             d="M 0,0 C 3.804,0 7.354,-1.438 10.042,-3.871" /></g><g
           transform="translate(314.9784,201.4969)"
           id="g28"><path
             id="path30"
             style="fill:none;stroke:#050b3d;stroke-width:12;stroke-linecap:round;stroke-linejoin:round;stroke-miterlimit:4;stroke-dasharray:22.49, 22.49;stroke-dashoffset:0;stroke-opacity:1"
             d="m 0,0 15.28,-143.102 c 0,-9.474 7.68,-17.154 17.154,-17.154 v 0 c 9.474,0 17.154,7.68 17.154,17.154 l -29,258.925 c 0.508,7.136 10.546,8.218 12.562,1.354 L 59.249,28.336 C 61.829,19.554 70.85,14.344 79.746,16.5 l 0.037,0.009 c 9.419,2.282 15.079,11.91 12.492,21.25 L 56.756,146.805 c -4.354,13.369 -16.818,22.417 -30.878,22.417 H 5.469" /></g><g
           transform="translate(309.2021,370.7191)"
           id="g32"><path
             id="path34"
             style="fill:none;stroke:#050b3d;stroke-width:12;stroke-linecap:round;stroke-linejoin:round;stroke-miterlimit:4;stroke-dasharray:none;stroke-opacity:1"
             d="M 0,0 H -11" /></g><g
           transform="translate(298.2021,462.525)"
           id="g36"><path
             id="path38"
             style="fill:none;stroke:#050b3d;stroke-width:12;stroke-linecap:round;stroke-linejoin:round;stroke-miterlimit:4;stroke-dasharray:none;stroke-opacity:1"
             d="M 0,0 C 3.776,0 7.415,-0.585 10.832,-1.67" /></g><g
           transform="translate(324.167,451.353)"
           id="g40"><path
             id="path42"
             style="fill:none;stroke:#050b3d;stroke-width:12;stroke-linecap:round;stroke-linejoin:round;stroke-miterlimit:4;stroke-dasharray:18.062, 18.062;stroke-dashoffset:0;stroke-opacity:1"
             d="m 0,0 c 6.07,-6.408 9.793,-15.062 9.793,-24.586 0,-12.763 -6.686,-23.963 -16.747,-30.291" /></g><g
           transform="translate(309.0337,392.6788)"
           id="g44"><path
             id="path46"
             style="fill:none;stroke:#050b3d;stroke-width:12;stroke-linecap:round;stroke-linejoin:round;stroke-miterlimit:4;stroke-dasharray:none;stroke-opacity:1"
             d="M 0,0 C -3.417,-1.085 -7.056,-1.67 -10.832,-1.67" /></g><g
           transform="translate(298.2021,391.0089)"
           id="g48"><path
             id="path50"
             style="fill:none;stroke:#050b3d;stroke-width:12;stroke-linecap:round;stroke-linejoin:round;stroke-miterlimit:10;stroke-dasharray:none;stroke-opacity:1"
             d="m 0,0 c -19.749,0 -35.758,16.009 -35.758,35.758 0,19.749 16.009,35.758 35.758,35.758" /></g><g
           transform="translate(298.2021,488.2128)"
           id="g52"><path
             id="path54"
             style="fill:none;stroke:#050b3d;stroke-width:12;stroke-linecap:round;stroke-linejoin:round;stroke-miterlimit:10;stroke-dasharray:none;stroke-opacity:1"
             d="M 0,0 V -473.362" /></g></g></g></g></svg>