<?xml version="1.0" encoding="utf-8"?>
<!-- Generator: Adobe Illustrator 25.4.1, SVG Export Plug-In . SVG Version: 6.00 Build 0)  -->
<svg version="1.1" id="Capa_1" xmlns="http://www.w3.org/2000/svg" xmlns:xlink="http://www.w3.org/1999/xlink" x="0px" y="0px"
	 viewBox="0 0 68.8 51.8" style="enable-background:new 0 0 68.8 51.8;" xml:space="preserve">
<style type="text/css">
	.st0{fill:#00E9C5;}
</style>
<g>
	<g>
		<path class="st0" d="M35,13.2l4.7-10.8c0.6-1.5,2.3-1.2,2.8-0.1c0.7,1.4,0.6,3,0,4.5l-2.3,4.4c-0.7,1.4,0.7,3,2.3,2.4l2.9-1.2
			c0.1-0.1-0.7,0.6,11.9-9.4c1.1-0.9,2.7-0.4,3.3,0.8C61,4.4,60.8,5.4,60,6.1l-11.5,9.4c-0.6,0.2-0.1,1,0.7,0.7L63.7,10
			c1.7-0.6,3.5,1,2.8,2.8c-0.2,0.4-0.6,0.9-1.1,1.2l-14.1,6.1c-0.6,0.3-0.3,1.2,0.4,1.1l13.5-2c0.6,0,1.1,0.1,1.6,0.3
			c1.3,1,1,3-0.4,3.6c-0.3,0.2,0.8,0-14.4,2.1c-0.7,0.1-0.6,1.2,0,1.2l9.5,1.1c1.8,0.2,2.2,2.7,0.6,3.5c-0.3,0.2-0.6,0.1-0.8,0.1
			l-6.7-0.8c-2.7-0.3-5.5,0-8,1.2c-0.8,0.4-1.7,0.6-2.5,0.6c-0.4,0-0.6,0.3-0.6,0.7c0,0.4,0.3,0.6,0.7,0.6c1-0.2,2-0.3,2.8-0.8
			c2.3-1,4.9-1.4,7.4-1.1l6.7,0.8c1.6,0.2,3.2-1,3.4-2.6c0.2-1.6-1-3.2-2.6-3.4l-5.1-0.5l9.3-1.4c1.9-0.2,3-1.9,2.8-3.8
			c-0.2-1.9-1.9-3-3.8-2.8L55.9,19l9.9-4.3c1.6-0.7,2.3-2.6,1.7-4.3c-0.7-1.6-2.6-2.3-4.3-1.7l-10.6,4.5l8.2-6.8
			C62,5.6,62.4,4,61.7,2.6c-0.8-2-3.3-2.7-5.1-1.3l-11.8,9.6L42,12.1c-0.6,0.2-0.9-0.3-0.8-0.7c1.5-3.2,2.3-4.4,2.3-4.4
			c0.7-1.8,0.7-3.7-0.1-5.3c-1-2.1-4-2.2-5,0.1c-2.3,5.4-3.8,8.9-4.8,11"/>
	</g>
</g>
<path class="st0" d="M22.4,6.9C10.1,7.2,0.2,17.1,0,29.4c0.5,12.3,10.3,22.1,22.4,22.4c12.3-0.2,22.2-10.1,22.4-22.4
	C44.6,17.3,34.7,7.2,22.4,6.9z M37.6,17.3l-2.2,6.3l-4.8,2.2L23.8,21v-6l5.3-3.9C32.5,12.5,35.4,14.6,37.6,17.3z M28.7,28.4
	l-2.4,7.5h-7.7l-2.4-7.5l6.3-4.6L28.7,28.4z M22.4,10.1c1,0,2.2,0,3.1,0.2l-3.1,2.2l-3.1-2.2C20.2,10.1,21.4,10.1,22.4,10.1z
	 M15.6,11.3l5.3,3.9v6L14.1,26l-4.7-2.2l-2.2-6.3C9.4,14.6,12.3,12.5,15.6,11.3z M5,20.7L5,20.7l1.2,3.6l-3.1,2.2
	C3.3,24.5,4.1,22.6,5,20.7z M6.2,40.2c-1.9-2.9-3.1-6.3-3.1-9.9l5.3-3.9l4.8,2.2l2.7,8l-3.1,3.6C12.8,40.2,6.2,40.2,6.2,40.2z
	 M8.7,43.3h3.9l1.2,3.6C11.8,46,10.1,44.8,8.7,43.3L8.7,43.3z M27.5,48.4c-3.4,1-7,1-10.4,0l-1.9-6.3l2.9-3.4h8.7l2.9,3.4L27.5,48.4
	z M31.1,47L31.1,47l1.2-3.6h3.9C34.7,44.8,33,46,31.1,47L31.1,47z M38.6,40.2H32l-2.8-3.4l2.7-8l4.8-2.2l5.3,3.9
	C41.7,33.9,40.7,37.3,38.6,40.2L38.6,40.2z M39.8,20.7c1,1.9,1.7,3.9,1.9,5.8l-3.1-2.2L39.8,20.7z"/>
</svg>
