<?xml version="1.0" encoding="utf-8"?>
<!-- Generator: Adobe Illustrator 27.0.0, SVG Export Plug-In . SVG Version: 6.00 Build 0)  -->
<svg version="1.1" id="Capa_1" xmlns="http://www.w3.org/2000/svg" xmlns:xlink="http://www.w3.org/1999/xlink" x="0px" y="0px"
	 viewBox="0 0 50 50" style="enable-background:new 0 0 50 50;" xml:space="preserve">
<style type="text/css">
	.st0{fill:none;stroke:#00E9C5;stroke-miterlimit:10;}
	.st1{fill:#00E9C5;}
	.st2{font-family:'CachetStd-Medium';}
	.st3{font-size:8.2291px;}
	.st4{fill:#122A37;stroke:#122A37;stroke-width:3;stroke-miterlimit:10;}
</style>
<path class="st0" d="M2.4,37.1V11.8C2.4,10.3,3.7,9,5.2,9h39.6c1.5,0,2.8,1.3,2.8,2.8V37"/>
<path class="st0" d="M45.4,33.6V14.4c0-1.4-1.2-2.5-2.5-2.5h-4.4H34h-4.3h-4.6h-4.6h-4.9h-4.1H7.3c-1.4,0-2.5,1.2-2.5,2.5v4.3v4.4
	v4.7v5.8c3.2-1.9,10.6-5.8,20.4-5.8C35.1,27.7,42.1,31.7,45.4,33.6z"/>
<line class="st0" x1="10.4" y1="11.8" x2="10.3" y2="30.4"/>
<line class="st0" x1="15.6" y1="11.8" x2="15.7" y2="29.1"/>
<line class="st0" x1="20.5" y1="11.8" x2="20.5" y2="28"/>
<line class="st0" x1="25.1" y1="11.8" x2="25.1" y2="27.8"/>
<line class="st0" x1="29.7" y1="11.8" x2="29.7" y2="28"/>
<line class="st0" x1="35.2" y1="11.8" x2="35.1" y2="28.9"/>
<line class="st0" x1="39.7" y1="11.8" x2="39.7" y2="30.2"/>
<path class="st0" d="M45.4,27.8C41.8,26,34.6,23.1,25,23c-9.5,0-16.8,3-20.4,4.7"/>
<path class="st0" d="M45.5,23.5c-3.6-1.9-10.8-4.7-20.4-4.9c-9.5,0-16.8,3-20.4,4.7"/>
<path class="st0" d="M45.8,19.2c-3.6-1.9-10.8-4.7-20.4-4.9c-9.5,0-16.8,3-20.4,4.7"/>
<text transform="matrix(1 0 0 1 4.5932 40.0999)" class="st1 st2 st3">AUTOGOAL</text>
<text transform="matrix(1 0 0 1 2.4002 6.9079)" class="st1 st2 st3">R</text>
<g>
	<circle class="st4" cx="25.5" cy="24" r="7.9"/>
	<path class="st1" d="M25.4,15.7c-4.5,0.1-8.2,3.7-8.3,8.3c0.2,4.5,3.8,8.2,8.3,8.3c4.5-0.1,8.2-3.7,8.3-8.3
		C33.6,19.5,29.9,15.8,25.4,15.7z M31,19.5l-0.8,2.3l-1.8,0.8l-2.5-1.8v-2.2l2-1.4C29.1,17.7,30.2,18.5,31,19.5z M27.7,23.6
		l-0.9,2.8H24l-0.9-2.8l2.3-1.7L27.7,23.6z M25.4,16.8c0.4,0,0.8,0,1.2,0.1l-1.2,0.8l-1.2-0.8C24.6,16.8,25,16.8,25.4,16.8z
		 M22.9,17.3l2,1.4v2.2l-2.5,1.8l-1.8-0.8l-0.8-2.3C20.6,18.5,21.7,17.7,22.9,17.3z M19,20.7L19,20.7l0.4,1.3l-1.2,0.8
		C18.4,22.2,18.6,21.5,19,20.7z M19.4,27.9c-0.7-1.1-1.2-2.3-1.2-3.6l2-1.4l1.8,0.8l1,2.9l-1.2,1.3C21.8,27.9,19.4,27.9,19.4,27.9z
		 M20.3,29.1h1.4l0.4,1.3C21.5,30.1,20.9,29.6,20.3,29.1L20.3,29.1z M27.3,31c-1.2,0.4-2.6,0.4-3.8,0l-0.7-2.3l1.1-1.2H27l1.1,1.2
		L27.3,31z M28.6,30.4L28.6,30.4l0.4-1.3h1.4C29.9,29.6,29.3,30.1,28.6,30.4L28.6,30.4z M31.4,27.9H29l-1.1-1.2l1-2.9l1.8-0.8l2,1.4
		C32.5,25.6,32.2,26.9,31.4,27.9L31.4,27.9z M31.8,20.7c0.4,0.7,0.6,1.4,0.7,2.1L31.3,22L31.8,20.7z"/>
</g>
</svg>
