<svg id="Capa_1" data-name="Capa 1" xmlns="http://www.w3.org/2000/svg" viewBox="0 0 82.87 82.87"><defs><style>.cls-1{fill:#fff;}.cls-2{fill:#ff3737;}</style></defs><circle class="cls-1" cx="40.54" cy="40.54" r="40.54"/><path class="cls-2" d="M54,26.92A35,35,0,0,0,19.67,61.27c.74,18.84,15.88,34,34.35,34.35A35,35,0,0,0,88.37,61.27,35.27,35.27,0,0,0,54,26.92ZM77.29,42.8,74,52.4l-7.39,3.33L56.24,48.34V39.11l8.12-5.91A33.8,33.8,0,0,1,77.29,42.8Zm-13.66,17-3.7,11.45H48.11L44.42,59.79l9.6-7ZM54,31.72a21,21,0,0,1,4.8.37L54,35.41l-4.8-3.32A21,21,0,0,1,54,31.72ZM43.68,33.57l8.13,5.91v9.23L41.46,56.1l-7.38-3.33-3.33-9.6A27.81,27.81,0,0,1,43.68,33.57ZM27.43,48h0l1.84,5.54-4.8,3.33A27.86,27.86,0,0,1,27.43,48Zm1.84,29.92a27.3,27.3,0,0,1-4.8-15.14l8.13-5.91L40,60.16l4.06,12.19-4.8,5.54Zm3.7,4.8h5.91l1.85,5.54A29.16,29.16,0,0,1,33,82.69Zm28.81,7.76a29,29,0,0,1-15.88,0l-3-9.6,4.43-5.18h13.3l4.43,5.18Zm5.54-2.22h0l1.85-5.54h5.91a29.48,29.48,0,0,1-7.76,5.54ZM78.77,77.89h-10l-4.44-5.17,4.07-12.19,7.39-3.32,8.12,5.91a27.51,27.51,0,0,1-5.17,14.77ZM80.62,48a28.08,28.08,0,0,1,2.95,8.87l-4.8-3.33Z" transform="translate(-5.5 -12.75)"/></svg>