<?xml version="1.0" encoding="utf-8"?>
<!-- Generator: Adobe Illustrator 25.4.1, SVG Export Plug-In . SVG Version: 6.00 Build 0)  -->
<svg version="1.1" id="Capa_1" xmlns="http://www.w3.org/2000/svg" xmlns:xlink="http://www.w3.org/1999/xlink" x="0px" y="0px"
	 viewBox="0 0 106.6 95.3" style="enable-background:new 0 0 106.6 95.3;" xml:space="preserve">
<style type="text/css">
	.st0{fill:#00E9C5;}
	.st1{fill:#FF3737;}
	.st2{fill:none;}
</style>
<g>
	<g>
		<path class="st0" d="M49.9,40.7L49.9,40.7L49.9,40.7z"/>
		<path class="st1" d="M47.5,13.4c-2.4,1.2-3.7,3.7-4.2,6.4c0.1,0.2-0.2,2.4-0.8,7.4c-0.1,0.8-1.1,1-1.5,0.3l-1.2-1.8
			c-0.9-1.3-1.7-2.8-2.2-4.3L31.2,3.2c-1-3.1-4.7-4.1-7.2-2.4c-1.8,1.2-2.5,3.6-1.8,5.5L27.2,21L17.6,7.1c-1.5-2.2-4.6-2.7-6.7-1.2
			c-2.2,1.5-2.7,4.6-1.2,6.7l8.8,12.8L8.4,16.9c-2-1.5-5.1-1.4-6.7,0.6c-1.5,2-1.4,5.1,0.6,6.7l10.4,8.9l-6.5-3
			C4,29,1.2,30,0.4,32.2c-1,2.1-0.2,4.9,2,5.7l8.8,4.1c3.4,1.6,16.7,11.2,18.8,14.3l0.9-1.3c-2.2-3.2-15.3-12.6-18.8-14.4l-8.8-4.1
			c-0.3-0.3-0.8-0.6-1-0.9c-1.5-2.2,0.9-4.9,3.2-3.8l12.5,5.8c0.8,0.2,1.6-1,0.9-1.5C2.1,21.6,3.3,22.8,3,22.4
			c-1.2-1.8,0.1-4.5,2.4-4.7c0.8,0,1.7,0.2,2.2,0.8l15,12.8c0.8,0.8,1.8-0.2,1.2-1.1L11.1,11.7c-0.5-0.7-0.7-1.5-0.5-2.3
			c0.5-2.6,3.9-3.4,5.4-1.1l13.1,19.1c0.5,0.8,1.7,0.2,1.4-0.8L23.5,6c-0.4-1.4,0.1-2.7,1.2-3.5c1.7-1.2,4-0.3,4.6,1.5
			c8.1,23,7.4,20.7,7.5,20.9l1.2,1.7l1.3,1.9c1.4,2.7,4.4,1.2,4.7-0.9l0.9-7.3c0.5-2.2,1.9-4.1,3.6-5.4c1.5-1,3.2,0.2,3.4,2.4
			l-3.6,23.1c-0.4,2-1.2,3.8-2.2,5.4c-0.1,0.2-0.3,0.4-0.4,0.5c1.3-0.2,1.3,0.4,1.9,0.3c1.2-1.8,2.1-3.8,2.5-6.1
			c0,0,0.1-0.8,3.7-23.3C53.4,13.7,50.3,12,47.5,13.4z"/>
	</g>
	<path class="st1" d="M37.8,32.3c-4.1,3.7-6.1,8-4.6,13c0.6,0.3,1.6-0.1,2.3,0c-1.8-4.6-0.4-8.2,3.4-11.7c0.5-0.3,0.5-0.7,0.1-1.1
		C38.7,32,38.2,32,37.8,32.3z"/>
</g>
<path class="st2" d="M68.2,29.1c1.2,2.3,2.3,3.5,4.6,4.6C70.6,32.6,69.4,31.4,68.2,29.1z"/>
<path class="st1" d="M52.9,41.5c-14.7,0.4-26.6,12.2-26.9,27C26.7,83.2,38.4,95,52.9,95.3c14.7-0.2,26.6-12.1,26.9-26.9
	C79.6,54,67.7,41.8,52.9,41.5z M71.2,54l-2.6,7.6l-5.8,2.6l-8.2-5.8v-7.2l6.4-4.7C65,48.2,68.5,50.7,71.2,54z M60.5,67.3l-2.9,9
	h-9.2l-2.9-9l7.6-5.5L60.5,67.3z M52.9,45.3c1.2,0,2.6,0,3.7,0.2l-3.7,2.6l-3.7-2.6C50.3,45.3,51.7,45.3,52.9,45.3z M44.8,46.8
	l6.4,4.7v7.2L43,64.4l-5.6-2.6l-2.6-7.6C37.3,50.7,40.8,48.2,44.8,46.8z M32.1,58L32.1,58l1.4,4.3L29.8,65C30,62.6,31,60.3,32.1,58z
	 M33.5,81.4c-2.3-3.5-3.7-7.6-3.7-11.9l6.4-4.7l5.8,2.6l3.2,9.6l-3.7,4.3C41.4,81.4,33.5,81.4,33.5,81.4z M36.5,85.1h4.7l1.4,4.3
	C40.2,88.4,38.2,86.9,36.5,85.1L36.5,85.1z M59.1,91.3c-4.1,1.2-8.4,1.2-12.5,0l-2.3-7.6l3.5-4.1h10.4l3.5,4.1L59.1,91.3z
	 M63.4,89.6L63.4,89.6l1.4-4.3h4.7C67.7,86.9,65.6,88.4,63.4,89.6L63.4,89.6z M72.4,81.4h-7.9l-3.4-4.1l3.2-9.6l5.8-2.6l6.4,4.7
	C76.1,73.9,74.9,77.9,72.4,81.4L72.4,81.4z M73.8,58c1.2,2.3,2,4.7,2.3,7l-3.7-2.6L73.8,58z"/>
<path class="st1" d="M53,17.4c3.5,22.5,3.7,23.3,3.7,23.3c0.4,2.2,1.3,4.3,2.5,6.1c0.6,0.1,0.6-0.5,1.9-0.3
	c-0.2-0.1-0.3-0.3-0.4-0.5c-1.1-1.6-1.9-3.5-2.2-5.4l-3.6-23.1c0.1-2.2,1.9-3.4,3.4-2.4c1.8,1.2,3.2,3.2,3.6,5.4l0.9,7.3
	c0.3,2.1,3.3,3.6,4.7,0.9l1.3-1.9l1.2-1.7c0.1-0.2-0.6,2.1,7.5-20.9c0.6-1.9,2.9-2.7,4.6-1.5c1.1,0.8,1.6,2,1.2,3.5L76,26.7
	c-0.3,0.9,0.9,1.5,1.4,0.8L90.6,8.3c1.6-2.3,5-1.5,5.4,1.1c0.1,0.8-0.1,1.6-0.5,2.3L82.8,30.1c-0.6,0.9,0.4,1.9,1.2,1.1l15-12.8
	c0.6-0.5,1.4-0.7,2.2-0.8c2.2,0.3,3.6,2.9,2.4,4.7c-0.3,0.5,0.9-0.8-16,13.7c-0.7,0.5,0.1,1.8,0.9,1.5l12.5-5.8
	c2.3-1,4.7,1.6,3.2,3.8c-0.2,0.3-0.6,0.6-1,0.9l-8.8,4.1C90.9,42.5,77.9,51.8,75.7,55l0.9,1.3c2.1-3.1,15.4-12.7,18.8-14.3l8.8-4.1
	c2.2-0.8,3-3.7,2-5.7c-0.8-2.2-3.6-3.2-5.7-2l-6.5,3l10.4-8.9c2-1.6,2.1-4.7,0.6-6.7c-1.6-2-4.7-2.1-6.7-0.6l-10.1,8.5l8.8-12.8
	c1.4-2.1,0.9-5.2-1.2-6.7c-2.1-1.4-5.2-0.9-6.7,1.2L79.4,21l4.9-14.6c0.7-2,0-4.3-1.8-5.5c-2.5-1.7-6.2-0.7-7.2,2.4l-6.4,18.2
	c-0.5,1.6-1.3,3-2.2,4.3l-1.2,1.8c-0.4,0.6-1.3,0.5-1.5-0.3c-0.6-5-0.9-7.3-0.8-7.4c-0.5-2.8-1.7-5.2-4.2-6.4
	C56.3,12,53.2,13.7,53,17.4z"/>
<path class="st1" d="M67.6,32.4c-0.3,0.5-0.3,0.8,0.1,1.1c3.8,3.4,5.2,7.1,3.4,11.7c0.7-0.1,1.7,0.2,2.3,0c1.5-5-0.5-9.2-4.6-13
	C68.4,32,67.9,32,67.6,32.4z"/>
</svg>
