<?xml version="1.0" encoding="utf-8"?>
<!-- Generator: Adobe Illustrator 25.4.1, SVG Export Plug-In . SVG Version: 6.00 Build 0)  -->
<svg version="1.1" id="Capa_1" xmlns="http://www.w3.org/2000/svg" xmlns:xlink="http://www.w3.org/1999/xlink" x="0px" y="0px"
	 viewBox="0 0 40.8 21.7" style="enable-background:new 0 0 40.8 21.7;" xml:space="preserve">
<style type="text/css">
	.st0{fill:none;stroke:#FF3737;stroke-width:0.7129;stroke-linecap:round;stroke-linejoin:round;stroke-miterlimit:10;}
	.st1{fill:none;stroke:#FF3737;stroke-width:0.618;stroke-linecap:round;stroke-linejoin:round;stroke-miterlimit:10;}
	.st2{fill:#FF3737;}
</style>
<g>
	<path class="st0" d="M7.3,13.6l0.3-0.9L8,9.3L6.9,9.9c-0.7,0.4-1.7,0.3-2.3-0.4L2.1,6.8C1.6,6.3,1.7,5.5,2.3,5l0,0
		c0.5-0.3,1.1-0.3,1.5,0.1L6,7.6l1.8-1C8.6,6.2,9.4,6,10.3,6l0,0c0.9,0,1.9,0.3,2.7,0.8l6.3,3.9c0.6,0.4,0.7,1.1,0.3,1.7l0,0
		c-0.4,0.5-1.1,0.7-1.6,0.3l-5.6-3.6V12l3.4,1.2c0.8,0.3,1.3,1.1,1.3,1.9v4.3c0,0.7-0.5,1.2-1.2,1.2l0,0c-0.7,0-1.2-0.5-1.2-1.2
		v-3.9L10,14l-1.5,4.1c-0.3,0.8-1,1.5-1.8,1.7l-4.6,1.4c-0.7,0.2-1.5-0.2-1.7-0.9l0,0c-0.2-0.7,0.2-1.4,0.9-1.6L6,17.3l0.5-1.4"/>
	<line class="st0" x1="6.9" y1="14.8" x2="6.9" y2="14.8"/>
	<circle class="st1" cx="10.8" cy="2.7" r="2.3"/>
</g>
<g>
	<path class="st0" d="M23.7,17.6v1.9c0,0.7,0.5,1.2,1.2,1.2l0,0c0.7,0,1.2-0.5,1.2-1.2v-3.9l4.7-1.5l1.5,4.1c0.3,0.8,1,1.5,1.8,1.7
		l4.6,1.4c0.7,0.2,1.5-0.2,1.7-0.9l0,0c0.2-0.7-0.2-1.4-0.9-1.6l-4.7-1.4l-1.5-4.7l-0.4-3.3L34,10c0.7,0.4,1.7,0.3,2.3-0.4l2.5-2.7
		c0.5-0.5,0.4-1.3-0.2-1.8l0,0c-0.5-0.3-1.1-0.3-1.5,0.1l-2.2,2.3l-1.8-1c-0.8-0.4-1.6-0.6-2.5-0.6l0,0c-0.9,0-1.9,0.3-2.7,0.8
		l-6.3,4.1c-0.6,0.4-0.7,1.1-0.3,1.7l0,0c0.4,0.5,1.1,0.7,1.6,0.3l5.6-3.6v2.9l-3.4,1.2c-0.8,0.3-1.3,1.1-1.3,1.9"/>
	<line class="st0" x1="23.7" y1="16.4" x2="23.7" y2="16.4"/>
</g>
<g id="Iconos">
	<path class="st2" d="M20.4,4.3c-1.3,0-2.4,1.1-2.4,2.4C18,8,19.1,9.1,20.4,9.1c1.3,0,2.4-1.1,2.4-2.4C22.8,5.4,21.7,4.3,20.4,4.3z
		 M22,5.4l-0.2,0.7l-0.5,0.2l-0.7-0.5V5.1l0.6-0.4C21.5,4.9,21.8,5.1,22,5.4z M21.1,6.6l-0.3,0.8H20l-0.3-0.8l0.7-0.5L21.1,6.6z
		 M20.4,4.6c0.1,0,0.2,0,0.3,0l-0.3,0.2l-0.3-0.2C20.2,4.6,20.3,4.6,20.4,4.6z M19.7,4.8l0.6,0.4v0.7l-0.7,0.5L19,6.1l-0.2-0.7
		C19,5.1,19.3,4.9,19.7,4.8z M18.5,5.8L18.5,5.8l0.1,0.4l-0.3,0.2C18.3,6.2,18.4,6,18.5,5.8z M18.7,7.9c-0.2-0.3-0.3-0.7-0.3-1.1
		l0.6-0.4l0.5,0.2l0.3,0.9l-0.3,0.4C19.4,7.9,18.7,7.9,18.7,7.9z M18.9,8.2h0.4l0.1,0.4C19.3,8.5,19.1,8.4,18.9,8.2L18.9,8.2z
		 M20.9,8.8c-0.4,0.1-0.8,0.1-1.1,0l-0.2-0.7l0.3-0.4h0.9l0.3,0.4L20.9,8.8z M21.3,8.6L21.3,8.6l0.1-0.4h0.4
		C21.7,8.4,21.5,8.5,21.3,8.6L21.3,8.6z M22.1,7.9h-0.7l-0.3-0.4l0.3-0.9l0.5-0.2l0.6,0.4C22.5,7.2,22.4,7.6,22.1,7.9L22.1,7.9z
		 M22.3,5.8c0.1,0.2,0.2,0.4,0.2,0.6l-0.3-0.2L22.3,5.8z"/>
</g>
<circle class="st1" cx="29.8" cy="2.6" r="2.3"/>
</svg>
