<?xml version="1.0" encoding="utf-8"?>
<!-- Generator: Adobe Illustrator 25.4.1, SVG Export Plug-In . SVG Version: 6.00 Build 0)  -->
<svg version="1.1" id="Capa_1" xmlns="http://www.w3.org/2000/svg" xmlns:xlink="http://www.w3.org/1999/xlink" x="0px" y="0px"
	 viewBox="0 0 50 50" style="enable-background:new 0 0 50 50;" xml:space="preserve">
<style type="text/css">
	.st0{fill:#FF3737;}
</style>
<g id="Iconos">
	<path class="st0" d="M39.6,11.4c-1.5-1.1-3.1-1.7-5-2.4c-1.3-0.4-2.4-0.7-3.7-0.7h-27c0,0.6,0,1.2,0,1.7h18.5L22,10.5
		c-1.5,0.9-3.1,2-4.4,3.3c-0.7,0.7-1.1,1.3-1.7,2H7.4v1.7h7.4c-0.7,1.1-1.1,2.2-1.3,3.3c0,0.7-0.2,1.1-0.2,1.7
		C13,23.4,13,24,13,24.9H2.9c0,0.6,0,1.2,0,1.7h10c0-0.1,0-0.2,0-0.2c0,0,0,0.1,0,0.2c0,0.7,0.4,3.5,0.7,4.1
		c0.4,1.1,0.9,2.2,1.3,3.3H7.4v1.7h8.5c1.5,2.2,3.5,3.9,5.9,5.2l0.4,0.2H3.9c0,0.5,0,1,0,1.5h27.2c1.3,0,2.6-0.2,3.7-0.7
		c4.8-1.3,8.7-4.8,10.7-9.2c0.7-1.3,1.1-2.6,1.3-4.1C48.1,22.1,45.3,15.3,39.6,11.4z M39.9,14.2l1.1,0.9c0.2,0.4,0.7,0.7,0.9,1.1
		l0.2,0.4c0.2,0.2,0.4,0.4,0.7,0.9l0.2,0.2L39.9,17V14.2z M34.2,10.9c1.3,0.4,2.8,1.1,3.9,1.7L37.9,17L34,21l-5.2-1.5L27.9,14
		l3.1-3.7C32.4,10.5,33.3,10.7,34.2,10.9z M33.5,22.9v5.9l-5,1.3l-3.7-4.4l3.7-4.4L33.5,22.9z M25.7,10.9c1.1-0.2,2.2-0.4,3.3-0.7
		l-2,2.2l-2.6-1.3L25.7,10.9z M22.4,12.5l3.9,2.2l0.9,5.5l-3.9,4.8h-4.6L15.4,21C16.5,17.3,19.1,14.2,22.4,12.5z M15,23.1l2.2,2.6
		L15,28.4C14.6,26.6,14.6,24.9,15,23.1z M18.9,36.4c-1.5-1.7-2.8-3.7-3.5-5.9l3.3-3.9h4.6l3.9,4.8l-0.9,5.5l-3.9,2.2
		C21.1,38.2,20,37.3,18.9,36.4z M25.7,40.4c-0.4-0.2-0.9-0.2-1.3-0.4l2.6-1.3l2,2.4C27.9,40.8,26.8,40.8,25.7,40.4z M34.4,40.1
		c-0.9,0.4-2,0.7-2.8,0.7l-3.1-3.7l0.9-5.5l5.2-1.5l3.5,3.9l0.2,4.4C37,39.3,35.7,39.9,34.4,40.1z M40.9,36.2
		c-0.2,0.2-0.7,0.7-1.1,0.9v-2.6l3.1-0.7C42.5,34.7,41.8,35.6,40.9,36.2z M44,31.6l-4.6,1.1l-3.9-3.9v-6.5l3.9-3.9l4.6,1.1
		C45.7,23.4,45.7,27.7,44,31.6z"/>
</g>
<path class="st0" d="M6.3,15.7H4.3c0,0.8,0,1,0,1.7h1.9V15.7z"/>
<path class="st0" d="M6.3,34H4.3c0,0.8,0,1,0,1.7h1.9V34z"/>
</svg>
