<?xml version="1.0" encoding="utf-8"?>
<!-- Generator: Adobe Illustrator 25.4.1, SVG Export Plug-In . SVG Version: 6.00 Build 0)  -->
<svg version="1.1" id="Iconos" xmlns="http://www.w3.org/2000/svg" xmlns:xlink="http://www.w3.org/1999/xlink" x="0px" y="0px"
	 viewBox="0 0 50 50" style="enable-background:new 0 0 50 50;" xml:space="preserve">
<style type="text/css">
	.st0{fill:none;stroke:#00E9C5;stroke-width:1.0267;stroke-linecap:round;stroke-miterlimit:10;}
	.st1{fill:#00E9C5;}
</style>
<path class="st0" d="M19.9,28.4c-2.2,2.5-4.3,5-6.3,7.7c-0.7,0.9-1.8,1.3-2.7,1.9c-0.3,0.2-0.7,0.5-1,0.7c-1.2,0.7-1.6,2.3-0.8,3.4
	c0,0,0,0,0,0c1.5,2.3,3.7,2.9,6,1.4c1.6-1,3.3-1.6,5.1-2.2c2.5-0.8,4.8-2.1,6.9-3.7c1.7-1.3,3.5-2,5.5-2.2c2.3-0.2,4.3-1.1,6.2-2.2
	c2.3-1.3,3.2-4.2,2.3-6.7c-0.6-1.5-1.4-2.8-2.5-3.9c-2.6-2.4-4.4-5.3-5.4-8.7c-0.5-1.9-1.5-6.3-2.1-8.2"/>
<path class="st0" d="M32,24.5c0,0,2.1,0.5,0.9,3.1"/>
<g id="Iconos_00000048499161228593882320000017420790324182190737_">
	<path class="st1" d="M14.7,11.2c-4.5,2.3-6.5,7.8-4.3,12.4c2.4,4.5,7.9,6.4,12.4,4.3c4.5-2.3,6.5-7.8,4.3-12.4
		C24.8,11.1,19.3,9.1,14.7,11.2z M22.2,12.3l0.3,2.7l-1.4,1.7l-3.4-0.6l-1.1-2.3l1.3-2.4C19.5,11.4,20.9,11.7,22.2,12.3z M20.9,18.1
		l0.4,3.2l-2.9,1.4l-2.2-2.4l1.5-2.8L20.9,18.1z M15.2,12.4c0.4-0.2,0.8-0.4,1.2-0.5l-0.8,1.4L14.1,13
		C14.4,12.7,14.9,12.5,15.2,12.4z M12.9,14l2.7,0.5l1.1,2.3l-1.7,3l-2.2,0.1l-1.9-1.9C11.2,16.4,11.9,15.1,12.9,14z M10.7,19.4
		L10.7,19.4l1.1,1.1L11,22C10.7,21.2,10.7,20.3,10.7,19.4z M14.6,26.5c-1.2-0.7-2.3-1.8-3-3.1L13,21l2.2-0.1l2.4,2.5l-0.5,1.9
		L14.6,26.5z M16.1,27.3l1.4-0.7l1.1,1.1C17.8,27.7,16.9,27.5,16.1,27.3L16.1,27.3z M24,25.8c-1.1,1-2.4,1.6-3.9,1.9l-1.9-2l0.5-1.8
		l3.2-1.6l1.7,0.7L24,25.8z M25.1,24.6L25.1,24.6L24.9,23l1.4-0.7C26.1,23.1,25.7,23.9,25.1,24.6L25.1,24.6z M26.7,20.7l-2.4,1.2
		l-1.7-0.7l-0.4-3.4l1.4-1.7l2.7,0.5C26.7,17.8,27,19.2,26.7,20.7L26.7,20.7z M23.6,13.2c0.7,0.5,1.3,1.1,1.8,1.8l-1.6-0.2
		L23.6,13.2z"/>
	<path class="st1" d="M24.7,26.8L24.3,26l-3.9,1.9l0.4,0.8c0.7-0.1,1.4-0.3,2.1-0.7C23.4,27.7,24.1,27.3,24.7,26.8z"/>
</g>
<line class="st0" x1="19.2" y1="7.6" x2="20.4" y2="10.5"/>
</svg>
