<?xml version="1.0" encoding="utf-8"?>
<!-- Generator: Adobe Illustrator 25.4.1, SVG Export Plug-In . SVG Version: 6.00 Build 0)  -->
<svg version="1.1" id="Capa_1" xmlns="http://www.w3.org/2000/svg" xmlns:xlink="http://www.w3.org/1999/xlink" x="0px" y="0px"
	 viewBox="0 0 49.6 37.1" style="enable-background:new 0 0 49.6 37.1;" xml:space="preserve">
<style type="text/css">
	.st0{fill:none;stroke:#00E9C5;stroke-miterlimit:10;}
	.st1{fill:none;stroke:#FF3737;stroke-miterlimit:10;}
	.st2{fill:#00E9C5;}
</style>
<path class="st0" d="M0.5,30.8V3.5c0-1.6,1.4-3,3-3h42.6c1.6,0,3,1.4,3,3v27.1"/>
<path class="st0" d="M32.4,21.4c6.8,1.3,11.7,4.1,14.4,5.6V6.3c0-1.5-1.3-2.7-2.7-2.7h-4.7h-4.8H30h-5h-5h-5.3h-4.4H5.7
	C4.2,3.6,3,4.9,3,6.3v4.6v4.7v5.1v6.2c2.6-1.5,8-4.4,15.2-5.6"/>
<line class="st0" x1="9.1" y1="3.5" x2="9" y2="24"/>
<line class="st0" x1="14.7" y1="3.5" x2="14.8" y2="22.2"/>
<line class="st0" x1="20.3" y1="3.6" x2="20.3" y2="9.8"/>
<path class="st1" d="M25,20.7"/>
<path class="st1" d="M24.9,8.2"/>
<line class="st0" x1="24.9" y1="3.5" x2="24.9" y2="8.2"/>
<line class="st0" x1="29.9" y1="3.5" x2="29.9" y2="9.6"/>
<line class="st0" x1="35.8" y1="3.5" x2="35.7" y2="21.9"/>
<line class="st0" x1="40.6" y1="3.5" x2="40.6" y2="23.9"/>
<g>
	<g>
		<path class="st0" d="M16.9,16.2c-0.7,0.1-1.4,0.2-2.1,0.4c-5.3,1.1-9.5,2.9-12,4.1"/>
	</g>
</g>
<g>
	<g>
		<path class="st0" d="M46.8,20.8c-2.7-1.3-7.1-3.2-13-4.3"/>
	</g>
</g>
<path class="st0" d="M19.2,11C12,12,6,14.4,2.9,15.9"/>
<path class="st1" d="M18.7,11.2"/>
<path class="st1" d="M32.2,11.4"/>
<path class="st0" d="M46.9,16.1c-2.9-1.5-8.6-3.8-15.3-4.9"/>
<path class="st0" d="M46.6,10.8c-1.3,0-18.7-10.3-43.6,0.1"/>
<path class="st0" d="M46.6,11.2"/>
<g>
	<path class="st2" d="M14.3,36.8c-0.6,0.2-1.6,0.3-2.5,0.3c-3.6,0-4.4-1.6-4.4-5c0-1.7,0.2-4.1,1.9-4.7c0.8-0.3,1.2-0.5,2.2-0.5
		c0.7,0,0.7,0,1.7,0.1c0.5,0.1,1.8,0,1.7,0.9v0.3c0,0.6-0.2,0.8-0.8,0.8c-0.3,0-0.5,0-0.8,0c-0.5,0-0.8,0-1.3,0
		c-0.3,0-1.1,0-1.4,0.2c-0.9,0.5-0.8,2.2-0.8,3c0,1.1-0.2,2.7,1.3,3c0.3,0,0.8,0,1.1,0c0.2,0,0.3,0,0.5,0V33h-1.1
		c-0.8,0-0.8-0.5-0.8-0.9s0.2-0.8,0.8-0.8h2.7c0.5,0,0.8,0.3,0.8,0.8V36C15.1,36.3,14.9,36.5,14.3,36.8z"/>
	<path class="st2" d="M21,37.1c-3.2,0-4.2-2.2-4.2-5S17.9,27,21,27c3.3,0,4.2,2.2,4.2,5C25.2,35,24.2,37.1,21,37.1z M22.6,29.9
		c-0.3-0.6-0.9-0.8-1.5-0.8c-0.7,0-1.1,0.2-1.4,0.8s-0.3,1.6-0.3,2.4c0,0.6,0,1.6,0.3,2.4c0.3,0.6,0.9,0.8,1.5,0.8s1.3-0.2,1.5-0.8
		C23,34.1,23,33,23,32.3C23,31.4,22.9,30.4,22.6,29.9z"/>
	<path class="st2" d="M35,37.1h-0.8c-0.5,0-0.6-0.2-0.8-0.6l-0.5-1.1c-1.1,0-2.3,0-3.6,0l-0.4,0.9c-0.2,0.5-0.2,0.8-0.8,0.8h-0.8
		c-0.5,0-1,0-0.9-0.4c0-0.2,0.2-0.5,0.3-0.7l3.1-8.1c0.3-0.8,0.5-1.1,1.5-1c0.6,0.1,0.6,0.2,1,1l3.3,8.3c0,0.2,0,0.2,0,0.3
		C35.6,36.8,35.3,37.1,35,37.1z M31.1,30.4L30,33.7h2.3L31.1,30.4z"/>
	<path class="st2" d="M42.2,37.1h-4.2c-0.5,0-0.8-0.2-0.8-0.8v-8.6c0-0.6,0.3-0.8,0.8-0.8h0.6c0.5,0,0.8,0.2,0.8,0.8v7.4
		c0.9,0,1.8,0,2.9,0c0.8,0,0.8,0.6,0.8,1.1C43,36.8,42.7,37.1,42.2,37.1z"/>
</g>
<g>
	<path class="st2" d="M25.2,7.8c-4.8,0.1-8.8,4-8.9,8.9c0.2,4.8,4.1,8.8,8.9,8.9c4.8-0.1,8.8-4,8.9-8.9C34.1,11.9,30.1,7.9,25.2,7.8
		z M31.3,11.9l-0.9,2.5l-1.9,0.9l-2.7-2v-2.4L28,9.4C29.2,10,30.4,10.8,31.3,11.9z M27.7,16.3l-1,3h-3l-1-3l2.5-1.8L27.7,16.3z
		 M25.2,9c0.4,0,0.9,0,1.3,0.1L25.2,10l-1.3-0.9C24.4,9,24.8,9,25.2,9z M22.5,9.6l2.2,1.5v2.4L22,15.4l-1.9-0.9L19.2,12
		C20.1,10.8,21.2,10,22.5,9.6z M18.3,13.2L18.3,13.2l0.4,1.4l-1.3,0.9C17.7,14.8,17.9,14.1,18.3,13.2z M18.8,21
		c-0.8-1.2-1.3-2.5-1.3-3.9l2.2-1.5l1.9,0.9l1.1,3.1L21.4,21H18.8z M19.7,22.3h1.5l0.4,1.4C21,23.3,20.4,22.8,19.7,22.3L19.7,22.3z
		 M27.3,24.3c-1.3,0.4-2.8,0.4-4.1,0l-0.8-2.5l1.2-1.3h3.3l1.2,1.3L27.3,24.3z M28.7,23.7L28.7,23.7l0.4-1.4h1.5
		C30.1,22.8,29.4,23.3,28.7,23.7L28.7,23.7z M31.7,21h-2.6l-1.2-1.3l1.1-3.1l1.9-0.9l2.2,1.5C32.9,18.5,32.6,19.9,31.7,21L31.7,21z
		 M32.1,13.2c0.4,0.8,0.6,1.5,0.8,2.3l-1.3-0.9L32.1,13.2z"/>
</g>
<path class="st1" d="M33.8,16.7"/>
</svg>
