<?xml version="1.0" encoding="utf-8"?>
<!-- Generator: Adobe Illustrator 25.4.1, SVG Export Plug-In . SVG Version: 6.00 Build 0)  -->
<svg version="1.1" id="Capa_1" xmlns="http://www.w3.org/2000/svg" xmlns:xlink="http://www.w3.org/1999/xlink" x="0px" y="0px"
	 viewBox="0 0 36 41.8" style="enable-background:new 0 0 36 41.8;" xml:space="preserve">
<style type="text/css">
	.st0{fill:#00E9C5;}
</style>
<path class="st0" d="M31,10.8l-2.9,2.9l1.9-7.4c0.4-1.5-0.5-3.1-2-3.6c-1.5-0.4-3.1,0.5-3.6,2l0,0c0,0,0,0.1,0,0.1L23,10.7V3.2
	c0-1.7-1.3-3.2-3.1-3.2S16.8,1.3,16.7,3c0,0,0,0.1,0,0.1l-0.5,8.5l-2.3-7.1c-0.5-1.5-2.2-2.3-3.7-1.7S8,4.9,8.5,6.4
	c0,0,0,0.1,0.1,0.1l2.6,10.3v4.9l-4.9-5.5c-1.4-1.4-3.7-1.4-5.2,0c-1.4,1.4-1.4,3.7,0,5.1l10.1,10.1v9.6c0,0.4,0.3,0.7,0.7,0.7
	c0,0,0,0,0,0h15.3c0.4,0,0.7-0.3,0.7-0.7l0,0v-9.7l1.7-10.9l5.6-5.6c1.1-1.1,1.1-3,0-4.1C34,9.7,32.2,9.7,31,10.8L31,10.8z
	 M2.1,17.2c0.9-0.9,2.3-0.9,3.2,0l5.6,6.3c0.1,0.1,0.3,0.2,0.5,0.2c3.8,0,7,3.1,7,7h-6L2.1,20.4C1.2,19.5,1.2,18.1,2.1,17.2
	C2.1,17.2,2.1,17.2,2.1,17.2L2.1,17.2z M12.5,40.4v-8.4h13.9v1.4H16c-0.4,0-0.7,0.3-0.7,0.7l0,0v4.2c0,0.4,0.3,0.7,0.7,0.7l0,0h10.5
	v1.4L12.5,40.4z M26.5,37.6h-9.8v-2.8h9.8V37.6z M34.2,14l-5.7,5.7c-0.1,0.1-0.2,0.2-0.2,0.4l-1.6,10.6h-6.9c0-4.1-3-7.7-7.1-8.3
	v-5.7c0-0.1,0-0.1,0-0.2L9.9,6.2c0,0,0-0.1,0-0.1c-0.3-0.8,0-1.6,0.8-1.9c0.8-0.3,1.6,0,1.9,0.8l0,0l3.4,10.6
	c0.1,0.4,0.5,0.6,0.9,0.4c0.3-0.1,0.4-0.3,0.5-0.6l0.7-12.2c0-1,0.8-1.7,1.7-1.7c1,0,1.7,0.8,1.7,1.7V16c0,0.3,0.3,0.6,0.6,0.7
	c0.3,0,0.7-0.2,0.8-0.5l2.9-11c0.2-0.8,1-1.3,1.8-1.1c0,0,0,0,0,0c0,0,0.1,0,0.1,0c0.8,0.3,1.2,1,1,1.8l-2.6,9.9
	c-0.1,0.4,0.1,0.8,0.5,0.8c0.2,0.1,0.5,0,0.7-0.2l4.7-4.7c0.6-0.6,1.6-0.6,2.2,0C34.7,12.5,34.7,13.4,34.2,14L34.2,14z"/>
</svg>
