<svg xmlns="http://www.w3.org/2000/svg" xmlns:xlink="http://www.w3.org/1999/xlink" viewBox="0 0 756 1259.94"><defs><style>.cls-1{fill:#1c65a1;}.cls-2{fill:#3f7db0;}.cls-3{fill:#ed3232;}.cls-4{fill:url(#Degradado_sin_nombre_15);}.cls-5{fill:#ffd374;}.cls-5,.cls-6,.cls-7,.cls-8{stroke:#fff;stroke-miterlimit:10;stroke-width:2px;}.cls-6,.cls-8{fill:none;}.cls-7{fill:#01bef6;}.cls-8{stroke-dasharray:12.04 12.04;}.cls-9{fill:#fff;}</style><radialGradient id="Degradado_sin_nombre_15" cx="378" cy="629.97" r="546.83" gradientTransform="translate(0 -647.65) scale(1 2.03)" gradientUnits="userSpaceOnUse"><stop offset="0" stop-opacity="0"/><stop offset="1" stop-opacity="0.6"/></radialGradient></defs><g id="Suelo"><rect class="cls-1" width="756" height="1259.94"/><rect class="cls-2" x="168.96" y="211.18" width="418.07" height="837.57"/><path class="cls-3" d="M345.43,922h65.14a124.2,124.2,0,0,1,124.2,124.2v2.51a0,0,0,0,1,0,0H221.22a0,0,0,0,1,0,0v-2.51A124.2,124.2,0,0,1,345.43,922Z"/><path class="cls-3" d="M345.43,211.18h65.14a124.2,124.2,0,0,1,124.2,124.2v2.51a0,0,0,0,1,0,0H221.22a0,0,0,0,1,0,0v-2.51A124.2,124.2,0,0,1,345.43,211.18Z" transform="translate(756 549.07) rotate(180)"/><rect class="cls-4" width="756" height="1259.94"/></g><g id="Lineas"><rect class="cls-5" x="168.96" y="211.18" width="418.07" height="837.57"/><line class="cls-6" x1="168.96" y1="629.97" x2="587.04" y2="629.97"/><rect class="cls-6" x="346.26" y="181.59" width="63.47" height="29.59"/><path class="cls-7" d="M345.43,922h65.14a124.2,124.2,0,0,1,124.2,124.2v2.51a0,0,0,0,1,0,0H221.22a0,0,0,0,1,0,0v-2.51A124.2,124.2,0,0,1,345.43,922Z"/><rect class="cls-6" x="346.26" y="1048.75" width="63.47" height="29.59" transform="translate(756 2127.1) rotate(180)"/><line class="cls-6" x1="389.08" y1="902.51" x2="366.92" y2="902.51"/><line class="cls-6" x1="386.11" y1="966.89" x2="369.89" y2="966.89"/><path class="cls-6" d="M587,987.23c-.61-1.91-1.24-3.81-1.91-5.69"/><path class="cls-8" d="M580.75,970.32A182.18,182.18,0,0,0,413.31,860H339.09A178.61,178.61,0,0,0,173,972.88"/><path class="cls-6" d="M170.88,978.52q-1,2.82-1.92,5.68"/><path class="cls-7" d="M345.43,211.18h65.14a124.2,124.2,0,0,1,124.2,124.2v2.51a0,0,0,0,1,0,0H221.22a0,0,0,0,1,0,0v-2.51A124.2,124.2,0,0,1,345.43,211.18Z" transform="translate(756 549.07) rotate(180)"/><line class="cls-6" x1="366.92" y1="357.43" x2="389.08" y2="357.43"/><line class="cls-6" x1="369.89" y1="293.05" x2="386.11" y2="293.05"/><path class="cls-6" d="M169,272.71c.61,1.91,1.24,3.8,1.91,5.69"/><path class="cls-8" d="M175.25,289.62A182.19,182.19,0,0,0,342.69,400h74.22A178.61,178.61,0,0,0,583,287.06"/><path class="cls-6" d="M585.12,281.42c.67-1.88,1.31-3.78,1.92-5.68"/></g><g id="Capa_4" data-name="Capa 4"><g id="Capa_2" data-name="Capa 2"><g id="Capa_1-2" data-name="Capa 1-2"><path class="cls-9" d="M230.44,1132.35a7.45,7.45,0,0,0-4.45,6.82h0v51.89a2.58,2.58,0,0,1-2.58,2.58,2.78,2.78,0,0,1-.75-.11A27.77,27.77,0,0,1,202.88,1167v-1.53c0-.29,0-.57.06-.86v-.23q.1-1.11.3-2.22l0-.24c.06-.32.12-.64.19-1a1,1,0,0,0,0-.17c.18-.74.38-1.48.61-2.22l.05-.15c.11-.35.23-.69.36-1h0c.28-.74.58-1.48.9-2.14l.06-.12c.34-.69.69-1.38,1.08-2v0c.18-.31.36-.6.55-.9l.12-.18c.17-.27.36-.54.54-.81l.08-.11c.21-.28.41-.57.63-.85l.2-.26a32.73,32.73,0,0,1,3.08-3.38c.47-.43,1-.85,1.48-1.23a3.1,3.1,0,0,0,.59-4.34,2.69,2.69,0,0,0-.27-.32l-2.27-2.26a3.08,3.08,0,0,0-4.12-.22,36.67,36.67,0,0,0-4.82,4.67h0l-.06.07c-.33.38-.64.74-.95,1.17h0c-.31.38-.6.74-.88,1.15l-.14.2c-.46.78-1,1.61-1.52,2.48l-.13.24c-.51.84-1,1.71-1.41,2.61l-.13.26c-.19.41-.38.82-.56,1.24l-.07.09c-.2.46-.38.92-.55,1.37l-.11.29c-.15.41-.3.83-.44,1.24l-.07.2c-.14.47-.29.94-.43,1.42l-.06.26c-.11.41-.22.82-.32,1.23a1.29,1.29,0,0,1-.08.31c-.1.48-.2,1-.29,1.48v.2c-.1.42-.17.89-.23,1.29,0,.13,0,.25-.05.37-.07.49-.13,1-.17,1.48a.43.43,0,0,0,0,.16c-.05.45-.08.91-.1,1.37v1.92h-.07a37.11,37.11,0,0,0,30.33,36.49A2.6,2.6,0,0,1,226,1206v14a2.57,2.57,0,0,0,2.56,2.58h4.14a2.58,2.58,0,0,0,2.58-2.58h0v-14a2.55,2.55,0,0,1,2.07-2.49,37,37,0,0,0,19.5-10.26,37.79,37.79,0,0,0,5.74-7.41,37.11,37.11,0,0,0-20.73-54.2A16.09,16.09,0,0,0,230.44,1132.35ZM255.75,1179a27.83,27.83,0,0,1-17.15,14.53,2.58,2.58,0,0,1-3.2-1.73,2.76,2.76,0,0,1-.1-.75v-45.62a4.44,4.44,0,0,1,6.14-4.09,27.74,27.74,0,0,1,14.89,36.3c-.18.44-.38.88-.58,1.3Z"/><path class="cls-9" d="M294.86,1176.28a12.33,12.33,0,0,1-1.9-.31,20,20,0,0,0-2.45-.15c-.56,0-1.48,0-1.84.51-.51.77-.36,4.3-.36,5.11h5.11c1.13,0,1.69.21,1.69,1.44v2c0,1.48-.36,1.94-1.84,1.94h-5v16.78c0,1.33-.2,2.3-1.79,2.3h-3.22c-1.38,0-1.53-.82-1.53-2v-17h-1.54c-1.12,0-1.23-.86-1.23-1.79v-2.21c0-1.79,1.44-1.44,2.77-1.44v-2c0-2.15,0-4.24,1.32-6,2.1-2.87,5.53-3,8.8-3,1,0,3.58,0,4.24,1a1.89,1.89,0,0,1,.26,1.07v.36C296.39,1173.87,296.39,1176.28,294.86,1176.28Zm10.48,1.53h-2c-1.84,0-2.71-.25-2.71-2.3v-1.79c0-1.63.67-2.25,2.25-2.25h2.41a2,2,0,0,1,2,2,2.45,2.45,0,0,1,0,.27v1.79c.09,1.43-.37,2.3-2,2.3Zm0,28.13h-2c-1.84,0-2.71-.26-2.71-2.3v-20c0-1.63.67-2.25,2.25-2.25h2.41a2,2,0,0,1,2,2,2.45,2.45,0,0,1,0,.27v20c.09,1.43-.37,2.3-2,2.3Z"/><path class="cls-9" d="M323.69,1206.55a49.66,49.66,0,0,1-7.31-.36c-1.53-.2-1.43-.92-1.43-2.35v-.92c0-1.12.1-2.35,1.48-2.35a23.79,23.79,0,0,1,2.66.3c1.74.16,3.53.26,5.32.26s2.56,0,2.56-1.89a2.75,2.75,0,0,0-.31-1.69c-.41-.51-4.91-1.74-5.73-2a30.54,30.54,0,0,1-2.91-1.18c-2.66-1.33-3.63-2.81-3.63-5.78,0-7.87,5.31-7.77,11.6-7.77,1.28,0,2.51,0,3.79.1,1.84.16,2.55.51,2.55,2.51,0,1.48.11,3.17-1.89,3.17-.87,0-1.79-.16-2.66-.21a37.21,37.21,0,0,0-4.09-.2c-1.94,0-3-.26-3,2a1.55,1.55,0,0,0,.25,1c.51.71,5.37,2,6.45,2.35,4,1.33,5.88,2.66,5.88,7.16C333.31,1205.63,330,1206.55,323.69,1206.55Z"/><path class="cls-9" d="M344.91,1177.81H343c-1.84,0-2.71-.25-2.71-2.3v-1.79c0-1.63.66-2.25,2.25-2.25h2.4a2,2,0,0,1,2,2,2.45,2.45,0,0,1,0,.27v1.79C347,1176.94,346.5,1177.81,344.91,1177.81Zm0,28.13H343c-1.84,0-2.71-.26-2.71-2.3v-20c0-1.63.66-2.25,2.25-2.25h2.4a2,2,0,0,1,2,2,2.45,2.45,0,0,1,0,.27v20C347,1205.07,346.5,1205.94,344.91,1205.94Z"/><path class="cls-9" d="M369.57,1206.4a42.08,42.08,0,0,1-4.35.2c-10,0-11.66-3.42-11.66-12.93s1.69-13,11.66-13a42.13,42.13,0,0,1,4.35.25c1.53.16,2.81,0,2.81,1.74v.1c0,1.28,0,4-1.84,4a15.64,15.64,0,0,1-2.05-.2,36.71,36.71,0,0,0-4.8-.41c-2.15,0-2.56.41-3,2.4a24.41,24.41,0,0,0-.41,5.12,40.15,40.15,0,0,0,.2,4.9c.21,2.3,1,2.56,3.23,2.56a37.63,37.63,0,0,0,4.85-.41,13.42,13.42,0,0,1,2-.2,1.42,1.42,0,0,1,1.22.51c.41.41.62,2.86.62,3.48C372.37,1206.3,371.14,1206.19,369.57,1206.4Z"/><path class="cls-9" d="M396.81,1205.94h-2.87c-1.17,0-1.48-.77-1.48-1.84a13.93,13.93,0,0,1-7.56,2.5c-5,0-7.32-2.71-7.32-7.62,0-5.57,3.33-7.46,8.34-8a42.7,42.7,0,0,1,6.49-.41c0-2,.31-4.91-2.56-4.91a32.14,32.14,0,0,0-7.36,1.07,5.05,5.05,0,0,1-1.23.15c-1.78,0-1.48-1.79-1.48-3.06a1.89,1.89,0,0,1,1.43-2.15,34.88,34.88,0,0,1,8.39-1c2.45,0,5.57.41,7.31,2.35,2,2.25,1.94,5.42,1.94,8.28v12.43C398.85,1205.22,398.34,1205.94,396.81,1205.94Zm-4.35-10.79c-.82,0-1.68-.1-2.5-.1a21.7,21.7,0,0,0-3.22.15c-2.15.31-3,1-3,3.22,0,1.23.2,3.43,1.89,3.43a11.72,11.72,0,0,0,6.85-2.56Z"/><path class="cls-9" d="M410.36,1205.94h-1.79c-1.84,0-2.71-.26-2.71-2.3V1173c0-1.64.66-2.2,2.25-2.2h2.3a1.92,1.92,0,0,1,2,2.2v30.68C412.35,1205.07,411.94,1205.94,410.36,1205.94Z"/><path class="cls-9" d="M434.85,1206.4a42.08,42.08,0,0,1-4.35.2c-10,0-11.65-3.42-11.65-12.93s1.68-13,11.65-13a42.13,42.13,0,0,1,4.35.25c1.53.16,2.81,0,2.81,1.74v.1c0,1.28,0,4-1.84,4a14.89,14.89,0,0,1-2-.2,36.87,36.87,0,0,0-4.81-.41c-2.15,0-2.56.41-3,2.4a25.1,25.1,0,0,0-.41,5.12c0,1.63.06,3.27.21,4.9.2,2.3,1,2.56,3.22,2.56a37.63,37.63,0,0,0,4.86-.41,13.42,13.42,0,0,1,2-.2,1.44,1.44,0,0,1,1.23.51c.41.41.61,2.86.61,3.48C437.66,1206.3,436.44,1206.19,434.85,1206.4Z"/><path class="cls-9" d="M455.05,1206.6c-8.54,0-11.76-4.91-11.76-12.93s3.17-13,11.76-13,11.71,4.91,11.71,13S463.64,1206.6,455.05,1206.6Zm4.19-18.87c-.92-1.68-2.46-1.63-4.19-1.63s-3.28,0-4.2,1.63-1,4.15-1,5.94.1,4.34,1,5.93,2.51,1.58,4.2,1.58,3.27,0,4.19-1.58.92-4.2.92-5.93S460.11,1189.32,459.24,1187.73Z"/><path class="cls-9" d="M491.3,1205.94h-2.87c-1.17,0-1.48-.77-1.48-1.84a14,14,0,0,1-7.57,2.5c-5,0-7.31-2.71-7.31-7.62,0-5.57,3.33-7.46,8.34-8a42.7,42.7,0,0,1,6.49-.41c0-2,.31-4.91-2.56-4.91a32.14,32.14,0,0,0-7.36,1.07,5.05,5.05,0,0,1-1.23.15c-1.79,0-1.48-1.79-1.48-3.06a1.89,1.89,0,0,1,1.43-2.15,34.88,34.88,0,0,1,8.39-1c2.45,0,5.57.41,7.31,2.35,2,2.25,1.94,5.42,1.94,8.28v12.43C493.34,1205.22,492.83,1205.94,491.3,1205.94ZM487,1195.15c-.82,0-1.69-.1-2.5-.1a21.7,21.7,0,0,0-3.22.15c-2.15.31-3,1-3,3.22,0,1.23.2,3.43,1.89,3.43a11.72,11.72,0,0,0,6.85-2.56Z"/><path class="cls-9" d="M515.57,1206.4a42.08,42.08,0,0,1-4.35.2c-10,0-11.66-3.42-11.66-12.93s1.69-13,11.66-13a42.13,42.13,0,0,1,4.35.25c1.53.16,2.81,0,2.81,1.74v.1c0,1.28,0,4-1.84,4a15.64,15.64,0,0,1-2-.2,36.87,36.87,0,0,0-4.81-.41c-2.14,0-2.55.41-3,2.4a24.41,24.41,0,0,0-.41,5.12c0,1.63.05,3.27.2,4.9.21,2.3,1,2.56,3.22,2.56a37.63,37.63,0,0,0,4.86-.41,13.42,13.42,0,0,1,2-.2,1.42,1.42,0,0,1,1.22.51c.41.41.62,2.86.62,3.48C518.4,1206.3,517.17,1206.19,515.57,1206.4Z"/><path class="cls-9" d="M543.3,1205.94h-2.73c-1.48,0-1.84-1-1.84-2.3v-13.09c0-.72.1-3.53-.36-4a2.12,2.12,0,0,0-1.64-.41,11.14,11.14,0,0,0-6.23,2.35v15.19c0,1.43-.41,2.3-2,2.3h-2.71c-1.38,0-1.84-.77-1.84-2v-31c0-1.64.66-2.2,2.25-2.2h2.37a1.92,1.92,0,0,1,2,2.2v9.46a16.09,16.09,0,0,1,6.9-1.74c4.75,0,7.87,2.35,7.87,7.26v15.7C545.29,1205.07,544.88,1205.94,543.3,1205.94Z"/></g></g></g></svg>