<svg xmlns="http://www.w3.org/2000/svg" width="40.826" height="54.707" viewBox="0 0 40.826 54.707">
  <path id="Trazado_2209" data-name="Trazado 2209" d="M75.345,31.063a2.838,2.838,0,0,1-4-.361l-.86-1.03A65.944,65.944,0,0,0,63.3,22.316s.451,17.965-11.286,28.72l-1.4,1.366a2.838,2.838,0,0,1-3.96-4.066l1.4-1.366A23.764,23.764,0,0,0,54.64,35.258a19.493,19.493,0,0,1-16.056-2.11,2.838,2.838,0,1,1,3.025-4.8,13.794,13.794,0,0,0,12.346,1.148l1.11-10.164c-.263.013-.527.021-.789.021a16.384,16.384,0,0,1-11.144-4.38l-.184-.17A4.972,4.972,0,1,1,47.1,10.9a10.741,10.741,0,0,0,9.989,2.4l1.681-.448c.019-.005.038-.007.057-.012.05-.012.1-.023.151-.032s.087-.016.131-.022.092-.011.138-.015.1-.009.143-.01.086,0,.129,0,.1,0,.146,0,.089.007.133.012.091.009.137.016.1.018.146.028.079.016.118.026.1.03.157.046c.034.011.069.021.1.033.053.019.1.04.156.063.033.014.067.028.1.044.048.023.095.048.142.073s.072.04.108.061.08.051.12.078.08.055.12.084c.016.012.033.022.05.035l2.835,2.224A71.614,71.614,0,0,1,74.846,26.035l.86,1.03A2.838,2.838,0,0,1,75.345,31.063ZM59.336,11.607a5.8,5.8,0,1,0-5.8-5.8A5.8,5.8,0,0,0,59.336,11.607Z" transform="translate(-36.501 0.75)" fill="#050c42" stroke="#fff" stroke-width="1.5"/>
</svg>
