<?xml version="1.0" encoding="utf-8"?>
<!-- Generator: Adobe Illustrator 27.0.0, SVG Export Plug-In . SVG Version: 6.00 Build 0)  -->
<svg version="1.1" id="Capa_1" xmlns="http://www.w3.org/2000/svg" xmlns:xlink="http://www.w3.org/1999/xlink" x="0px" y="0px"
	 viewBox="0 0 50 50" style="enable-background:new 0 0 50 50;" xml:space="preserve">
<style type="text/css">
	.st0{fill:#FF3737;}
</style>
<g transform="translate(-84.251)">
	<path class="st0" d="M121,24.1c-1.1-1.2-2.7-2.2-4.3-2.7c1.1-1.5,1.7-3.2,1.7-5v-3.8c0-4.8-3.9-8.6-8.6-8.6s-8.7,3.9-8.7,8.6v3.7
		c0,1.8,0.6,3.6,1.7,5c-4.1,1.3-6.9,5.1-6.9,9.5v9.7h2.5v4.8h25.4V30.8C123.6,28.4,122.6,26,121,24.1L121,24.1z M103.5,16.3v-2.5
		h12.4v2.5c0,3.5-2.8,6.2-6.2,6.2C106.2,22.5,103.5,19.7,103.5,16.3z M114.4,8.6c0.7,0.8,1.2,1.8,1.3,2.8h-7.8L114.4,8.6z
		 M109.7,6.4c0.8,0,1.7,0.1,2.5,0.4l-8.3,3.7C104.6,8.1,107,6.4,109.7,6.4z M98.1,30.9c0-3.6,2.5-6.7,6-7.4l3.9,14.7h-10V30.9z
		 M109.8,35h4.9c0.9,0,1.7,0.7,1.7,1.6c0,0.9-0.7,1.7-1.6,1.7l0,0h-4L109.8,35z M121.2,43.1h-20.6v-2.5h14.1c2.2,0,4-1.8,4-4
		c0-2.2-1.8-4-4-4h-5.6l-2.1-8.1c2.6,0.9,5.4,0.4,7.6-1.1c3.8,0.6,6.6,3.7,6.6,7.5V43.1z"/>
</g>
</svg>
