<svg id="Capa_1" data-name="Capa 1" xmlns="http://www.w3.org/2000/svg" viewBox="0 0 32.27 32"><defs><style>.cls-1{fill:#ffde37;}.cls-2{fill:none;stroke:#ffde37;stroke-linecap:round;stroke-linejoin:round;}.cls-3{fill:#fff;}</style></defs><rect class="cls-1" x="24.77" y="0.5" width="7.5" height="1.8"/><rect class="cls-1" x="24.77" y="3.2" width="7.5" height="1.8"/><path class="cls-2" d="M19.48,30.41l.44-1.36.53-4.78-1.58.89a2.68,2.68,0,0,1-3.28-.51L12,20.82a1.7,1.7,0,0,1,.26-2.54h0a1.71,1.71,0,0,1,2.23.21l3.13,3.33,2.62-1.48a7.24,7.24,0,0,1,3.55-.93h0a7.26,7.26,0,0,1,3.87,1.11l9,5.71a1.71,1.71,0,0,1,.5,2.42h0a1.72,1.72,0,0,1-2.33.48L26.81,24v4.17l4.87,1.79a3,3,0,0,1,1.93,2.77v6.25a1.77,1.77,0,0,1-1.77,1.77h0a1.77,1.77,0,0,1-1.77-1.77V33.26L23.34,31,21.22,37a4,4,0,0,1-2.61,2.49l-6.68,2a1.94,1.94,0,0,1-2.44-1.36h0a1.94,1.94,0,0,1,1.34-2.35l6.86-1.95.68-2.07" transform="translate(-8.93 -10.1)"/><line class="cls-2" x1="9.96" y1="22.08" x2="9.96" y2="22.08"/><circle class="cls-2" cx="15.33" cy="4.12" r="3.62"/><circle class="cls-3" cx="4.3" cy="5.64" r="3.34"/><path class="cls-1" d="M13.21,12.2a3.59,3.59,0,0,0-3.52,3.52,3.65,3.65,0,0,0,3.52,3.51,3.59,3.59,0,0,0,3.51-3.51A3.62,3.62,0,0,0,13.21,12.2Zm2.38,1.63-.34,1-.76.34-1.06-.76v-.94l.84-.6A3.41,3.41,0,0,1,15.59,13.83Zm-1.4,1.74-.38,1.17H12.6l-.37-1.17,1-.72Zm-1-2.88a2,2,0,0,1,.49,0l-.49.34-.49-.34A2,2,0,0,1,13.21,12.69Zm-1.06.19.83.61v.94l-1.06.76-.75-.34-.34-1A2.81,2.81,0,0,1,12.15,12.88Zm-1.66,1.48h0l.19.56-.49.34A2.65,2.65,0,0,1,10.49,14.36Zm.19,3.06a2.77,2.77,0,0,1-.49-1.55l.83-.61.75.34.42,1.25-.49.57Zm.37.49h.61l.19.56a3.28,3.28,0,0,1-.8-.56ZM14,18.7a3,3,0,0,1-1.62,0l-.31-1,.46-.53h1.36l.45.53Zm.57-.23h0l.19-.56h.6a3.22,3.22,0,0,1-.79.56Zm1.17-1h-1l-.45-.53.41-1.25.76-.34.83.61a2.87,2.87,0,0,1-.53,1.51Zm.19-3.06a2.89,2.89,0,0,1,.3.9l-.49-.34Z" transform="translate(-8.93 -10.1)"/></svg>