<?xml version="1.0" encoding="utf-8"?>
<!-- Generator: Adobe Illustrator 25.4.1, SVG Export Plug-In . SVG Version: 6.00 Build 0)  -->
<svg version="1.1" id="Capa_1" xmlns="http://www.w3.org/2000/svg" xmlns:xlink="http://www.w3.org/1999/xlink" x="0px" y="0px"
	 viewBox="0 0 50 50" style="enable-background:new 0 0 50 50;" xml:space="preserve">
<style type="text/css">
	.st0{fill:#00E9C5;}
</style>
<g id="Iconos">
	<path class="st0" d="M23,14.7c2.7,0.3,5.4-1.5,5.7-4.4c0.3-2.9-1.5-5.4-4.4-5.7S18.9,6.1,18.6,9c0,0,0,0,0,0.2
		C18.4,11.8,20.3,14.4,23,14.7z M20,9.3c0.3-2,2-3.4,4-3.2c2,0.3,3.4,2,3.2,4c-0.3,2-2,3.4-4,3.2C21.1,13,19.8,11.3,20,9.3z"/>
	<path class="st0" d="M35.5,25.9c-1.3-2-3.5-4.9-5.4-7.1l-1.2-1.3c-0.8-0.8-1.9-1.3-3-1.5c-2.2-0.3-4.4,0.2-6.2,1.5l-1.9,1.6
		c-0.2,0.2-0.9,0.6-1.2,0.7c-0.1,0-0.2,0.1-0.3,0.1c-0.8,0.1-2.2-1.4-2.6-1.8l-1.6-1.3c0,0-0.8-0.5-1.2-0.5c-0.5-0.1-1,0-1.5,0.3
		c-0.7,0.5-1.2,1.2-1.3,2c-0.5,1.6,2.2,3.2,2.4,3.4c0.2,0.2,2.9,2,2.9,2l1.7,1.3c0.3,0.3,0.8,0.5,1.2,0.5c0.7,0,1.3,0,1.9-0.5
		l1.9-1.3v3.9c-0.2,0.5-0.8,1.3-1.3,2.2c-2.7,4.4-2.9,4.7-2.7,5.4l1.2,9.1v0.2c0.2,1.3,1.3,2.4,2.5,2.5c0.3,0,0.7,0,0.8,0
		c1.5-0.3,2.7-1.7,2.5-3.4l-1-7.6c0.3-0.5,0.8-1.3,1.7-2.2c0.2,3.2,0.3,3.4,0.7,3.9l6.1,6.9l0,0l0,0c1.2,1.2,3,1.2,4.2,0
		c1.2-1.2,1.2-3,0-4.2l-5.1-5.6c0-1.7,0-3.4,0.2-4.9v-0.2c0-0.7,0-1.3,0-2l-0.5-3.2c1.5,1.9,2.9,3.7,3.5,4.4c1,0.7,1,0.7,1.5,0.8
		c0.5,0,1.2-0.2,1.5-0.5C36.2,29.2,37,28.1,35.5,25.9z M34.6,28.6c-0.2,0.2-0.3,0.2-0.5,0.2c-0.3,0-0.9-0.6-1-0.9
		c-0.8-0.8-5.5-7.3-5.5-7.3h-0.2c-0.2,0-0.2,0-0.3,0.2c0,0.2,0,0.3,0,0.3l1.2,7.2v1.7c0,0-0.5,5.4,0,5.7l5.4,5.9
		c0.7,0.7,0.7,1.7,0,2.4c-0.3,0.3-0.8,0.5-1.3,0.5c-0.3,0-0.7-0.2-1-0.5l0,0L25.2,37c-0.3-1.7-0.5-3.5-0.5-5.4
		c-0.2,0-0.3-0.2-0.5-0.2c-0.2,0-0.3,0-0.5,0c0,0-3.5,4-3.4,4.7l1,7.9c0.2,0.9-0.6,1.7-1.6,1.9c-0.1,0-0.2,0-0.2,0
		c-0.7-0.2-1.3-0.7-1.5-1.3l0,0l-1-9.3c0-0.5,4-6.7,4-7.1v-5.4c0-0.3-0.4-0.8-0.7-0.7l0,0c-0.2,0.1-0.5,0.3-0.8,0.4l-2.4,1.6
		c-0.3,0.2-0.5,0.2-0.8,0.2c-0.2,0-0.3-0.1-0.5-0.2l-4-2.9l-1.4-1.2c-0.9-1.1-1.3-1.5-0.7-2.2c0.5-0.3,0.9-0.5,1.4-0.1l4,3
		c0.3,0.2,0.8,0.3,1.1,0.3c0.5,0,1.1-0.2,1.5-0.5l2.8-2.2c1.5-1,3.4-1.3,5.2-1.2c0.8,0,1.5,0.3,2.2,1c1.9,2.4,5.1,5.9,6.6,8.4
		C35,27.4,35.1,28.2,34.6,28.6z"/>
</g>
<rect x="33.2" y="11.8" class="st0" width="12.8" height="3"/>
<rect x="38" y="6.9" class="st0" width="3" height="12.8"/>
</svg>
