<?xml version="1.0" encoding="utf-8"?>
<!-- Generator: Adobe Illustrator 25.4.1, SVG Export Plug-In . SVG Version: 6.00 Build 0)  -->
<svg version="1.1" id="Capa_1" xmlns="http://www.w3.org/2000/svg" xmlns:xlink="http://www.w3.org/1999/xlink" x="0px" y="0px"
	 viewBox="0 0 50 50" style="enable-background:new 0 0 50 50;" xml:space="preserve">
<style type="text/css">
	.st0{fill:#00E9C5;}
</style>
<path class="st0" d="M34.4,18.2l-9.7-5.9c-0.7-0.3-1.7,0-2.4,0.7c0,0.3-0.3,0.7-0.3,0.7v5.9H6.8c-1,0-1.7,0.7-1.7,1.7l0,0v7.3
	c0,1,0.7,1.7,1.7,1.7l0,0H22v5.9c0,1,0.7,1.7,1.7,1.7c0.3,0,0.7,0,1-0.3l9.7-5.5l9.7-5.5c0.7-0.3,1-1.7,0.7-2.4
	c0-0.3-0.3-0.3-0.7-0.7L34.4,18.2z"/>
</svg>
