<?xml version="1.0" encoding="utf-8"?>
<!-- Generator: Adobe Illustrator 25.4.1, SVG Export Plug-In . SVG Version: 6.00 Build 0)  -->
<svg version="1.1" id="Capa_1" xmlns="http://www.w3.org/2000/svg" xmlns:xlink="http://www.w3.org/1999/xlink" x="0px" y="0px"
	 viewBox="0 0 28.1 40.2" style="enable-background:new 0 0 28.1 40.2;" xml:space="preserve">
<style type="text/css">
	.st0{fill:#00E9C5;}
</style>
<g id="Iconos">
	<path class="st0" d="M21.2,40.2h-14v-0.7c0-2.2,0-5.4,0.1-8.5c0-2.5,0-4.8,0.1-6.6c0-1-0.5-1.9-1.2-2.6c-1.7-1.8-3.1-3.9-3.9-6.3
		c-0.8-3-1.4-6-1.8-9C0.4,5.6,0.2,4.7,0.1,3.8c-0.2-1,0-2,0.5-2.8c0.5-0.6,1.3-1,2.1-1c2.5-0.2,2.9,2.2,3.1,3.3l0.3,1.9
		c0.3,2.8,0.8,5.5,1.5,8.2c1,3.4,3,4,6.7,4h0.1c7.6,0,11.5,1.4,12.8,9.4c0.4,2.3,0.6,4.7,0.7,7c0.1,0.8,0.1,1.7,0.2,2.5
		c0.1,0.9-0.1,1.9-0.7,2.6c-0.5,0.6-1.2,0.9-2,0.9c-1.3,0-2.9-0.5-3-3.4c-0.1-2-0.2-4.1-0.4-6.1l-0.2-2.5c-0.1-0.3-0.4-0.5-0.7-0.4
		c-0.2,0-0.4,0.2-0.4,0.4l0,0c0.1,1.3,0.2,3.6,0.2,5.8c0.1,2.2,0.1,4.5,0.2,5.8L21.2,40.2z M8.6,38.7h11c-0.1-1.3-0.1-3.2-0.2-5
		c-0.1-2.2-0.1-4.5-0.2-5.8v-0.1c0-1,0.8-1.8,1.8-1.8c1.1-0.1,2,0.7,2.2,1.7l0.2,2.6c0.2,2,0.3,4.1,0.4,6.1s0.8,2,1.5,2
		c0.4,0,0.7-0.1,1-0.4c0.3-0.4,0.4-1,0.3-1.5c-0.1-0.8-0.1-1.7-0.2-2.6c-0.2-2.3-0.3-4.6-0.7-6.9c-1.2-7.1-4.3-8.2-11.4-8.2h-0.1
		c-4.1,0-7-0.9-8.1-5C5.4,11,4.9,8.2,4.5,5.4L4.2,3.5C3.9,1.8,3.6,1.4,2.6,1.4c-0.4,0-0.7,0.1-1,0.4C1.3,2.3,1.2,2.9,1.4,3.5
		c0.1,0.9,0.3,1.8,0.4,2.7c0.4,3,1,5.9,1.7,8.8c0.8,2.1,2,4.1,3.6,5.7c1,0.9,1.5,2.2,1.5,3.5c0,1.7,0,4.1-0.1,6.6
		C8.7,33.7,8.6,36.6,8.6,38.7z"/>
	<path class="st0" d="M14.7,15.8c-1.5,0-3-0.6-4.1-1.7S8.9,11.5,8.9,10c0-3.1,2.5-5.7,5.6-5.8c3.2-0.1,5.9,2.5,6,5.7l0,0l0,0
		c0.1,3.2-2.4,5.8-5.6,5.9C14.9,15.8,14.8,15.8,14.7,15.8L14.7,15.8z M14.7,5.6h-0.1c-2.4,0.1-4.2,2-4.2,4.4c0,1.2,0.4,2.3,1.3,3.1
		c1.7,1.7,4.5,1.7,6.2,0c0.8-0.8,1.3-2,1.3-3.1l0,0c0-1.2-0.5-2.3-1.4-3.1C16.8,6.1,15.8,5.6,14.7,5.6L14.7,5.6z"/>
</g>
</svg>
