<?xml version="1.0" encoding="utf-8"?>
<!-- Generator: Adobe Illustrator 25.4.1, SVG Export Plug-In . SVG Version: 6.00 Build 0)  -->
<svg version="1.1" id="Capa_1" xmlns="http://www.w3.org/2000/svg" xmlns:xlink="http://www.w3.org/1999/xlink" x="0px" y="0px"
	 viewBox="0 0 110.8 118.5" style="enable-background:new 0 0 110.8 118.5;" xml:space="preserve">
<style type="text/css">
	.st0{fill:#00E9C5;}
</style>
<g>
	<path class="st0" d="M55.3,12.1C29.4,12.6,8.7,33.3,8.2,59.2c1,25.9,21.8,46.6,47.2,47.2c25.9-0.6,46.6-21.3,47.2-47.2
		C102,33.9,81.1,12.6,55.3,12.1z M87.2,33.9l-4.5,13.2l-10.2,4.5L58.3,41.4V28.8l11.2-8.1C76.6,23.8,82.7,28.4,87.2,33.9z
		 M68.5,57.3L63.4,73H47.3l-5.1-15.7l13.2-9.6L68.5,57.3z M55.3,18.7c2,0,4.5,0,6.6,0.6l-6.6,4.5l-6.6-4.5
		C50.8,18.7,53.2,18.7,55.3,18.7z M41.2,21.3l11.2,8.1v12.7L38.2,52.3l-10.3-4.7l-4.5-13.2C27.9,28.4,34,23.8,41.2,21.3z M18.8,41
		L18.8,41l2.5,7.6l-6.6,4.5C15.3,49.2,16.8,45.1,18.8,41z M21.3,82.1c-4.1-6.1-6.6-13.2-6.6-20.8l11.2-8.1l10.2,4.5l5.5,16.7
		L35,82.1H21.3z M26.4,88.7h8.1l2.5,7.6C33,94.2,29.4,91.7,26.4,88.7L26.4,88.7z M66,99.3c-7.1,2-14.7,2-21.8,0l-4.1-13.2l6.1-7.1
		h18.3l6.1,7.1L66,99.3z M73.6,96.2L73.6,96.2l2.5-7.6h8.1C81.1,91.7,77.6,94.2,73.6,96.2L73.6,96.2z M89.3,82.1H75.6L69.5,75
		l5.5-16.7l10.2-4.5l11.2,8.1C95.9,68.9,93.9,76,89.3,82.1L89.3,82.1z M91.9,41c2,4.1,3.5,8.1,4.1,12.2l-6.6-4.5L91.9,41z"/>
</g>
</svg>
