<?xml version="1.0" encoding="utf-8"?>
<!-- Generator: Adobe Illustrator 25.4.1, SVG Export Plug-In . SVG Version: 6.00 Build 0)  -->
<svg version="1.1" id="Capa_1" xmlns="http://www.w3.org/2000/svg" xmlns:xlink="http://www.w3.org/1999/xlink" x="0px" y="0px"
	 viewBox="0 0 23.8 38.2" style="enable-background:new 0 0 23.8 38.2;" xml:space="preserve">
<style type="text/css">
	.st0{fill:#FF3737;}
</style>
<path class="st0" d="M23.6,21.6c0.6-1.7,0-3.6-1.4-4.7l-4.3-3.5V6.5c0.1-0.3-0.2-0.6-0.5-0.7S16.8,6,16.7,6.3v0.1v11.8l-0.9,1.3
	l-2-6.3c-0.4-1.5-1.8-2.5-3.3-2.5c-1,0-1.8,0.8-1.8,1.8l0,0c0,0.1,0,0.2,0,0.3l1.3,7.4c0.1,0.6,0.1,1.2-0.1,1.8h-8
	c-0.3,0-0.6-0.3-0.6-0.6V1.8c0-0.3,0.3-0.6,0.6-0.6l0,0h14.3c0.3,0,0.6,0.3,0.6,0.6l0,0v2.4c0,0.3,0.2,0.6,0.6,0.6
	c0.3,0,0.6-0.2,0.6-0.6c0,0,0,0,0-0.1V1.8c0-1-0.8-1.8-1.8-1.8H1.8C0.8,0,0,0.8,0,1.8l0,0v19.7c0,1,0.8,1.8,1.8,1.8h3.6
	c-0.2,1,0.5,2,1.4,2.3c-0.2,0.3-0.3,0.6-0.3,1c0,1.2,0.9,2.1,2.1,2.1l0,0h0.5c0,0.1,0,0.1,0.1,0.2l0.7,2.2c0.1,0.4,0.2,0.9,0.2,1.3
	v5.2c0,0.3,0.3,0.6,0.6,0.6H22c0.3,0,0.6-0.3,0.6-0.6l0,0v-0.1l-1-7.9c-0.1-1,0-2,0.3-2.9L23.6,21.6z M6.6,23.5c0-0.1,0-0.2,0.1-0.3
	h2.8l-0.2,0.4c-0.1,0.3-0.2,0.5-0.3,0.8H7.5C7,24.4,6.6,24,6.6,23.5z M8.6,27.4c-0.5,0-0.9-0.4-0.9-0.9s0.4-0.9,0.9-0.9h0.2
	c-0.1,0.6-0.1,1.2,0,1.8H8.6z M20.5,29.7l0.9,7.3h-10v-4.6c0-0.6-0.1-1.1-0.3-1.7l-0.8-2.2c-0.5-1.4-0.4-3,0.1-4.4l0.4-1.2
	c0.3-0.9,0.4-1.9,0.3-2.8l-1.3-7.4c-0.1-0.3,0.2-0.6,0.5-0.7h0.1c1,0,1.9,0.7,2.2,1.7l2.3,7.5c0,0.1,0.1,0.1,0.1,0.2l0,0l1.8,2.4
	c0.2,0.3,0.6,0.3,0.8,0.2c0.3-0.2,0.3-0.5,0.2-0.8l0,0v-0.1l-1.5-2l1.3-1.8h0.9c0.3,0,0.6-0.2,0.6-0.6l0,0c0-0.3-0.2-0.6-0.6-0.6
	h-0.7v-2.9l3.6,2.9c1,0.8,1.4,2.2,1,3.4l-1.7,5C20.5,27.3,20.3,28.5,20.5,29.7z"/>
<g>
	<path class="st0" d="M6.5,38.2H5.7c-0.4,0-0.7-0.1-1-0.4L2.4,35H2.2v2.5c0,0.9-0.7,0.7-1.3,0.7c-0.5,0-0.8-0.2-0.8-0.7v-7.8
		c0-0.6,0.3-0.7,0.8-0.7h2.6c1,0,1.7,0,2.5,0.7c0.6,0.6,0.8,1.7,0.8,2.6c0,1.2-0.4,2.3-1.7,2.6l1.9,2.3c0.1,0.2,0.2,0.4,0.2,0.6
		C7.2,38.1,6.9,38.2,6.5,38.2z M4.3,30.9c-0.2-0.1-0.6-0.1-0.9-0.1H3c-0.3,0-0.5,0-0.8,0v2.3h1.4c0.8,0,0.9-0.2,0.9-1
		C4.5,31.9,4.5,31,4.3,30.9z"/>
</g>
</svg>
