<?xml version="1.0" encoding="utf-8"?>
<!-- Generator: Adobe Illustrator 25.4.1, SVG Export Plug-In . SVG Version: 6.00 Build 0)  -->
<svg version="1.1" id="Capa_1" xmlns="http://www.w3.org/2000/svg" xmlns:xlink="http://www.w3.org/1999/xlink" x="0px" y="0px"
	 viewBox="0 0 33.2 32.3" style="enable-background:new 0 0 33.2 32.3;" xml:space="preserve">
<style type="text/css">
	.st0{fill:#00E9C5;}
	.st1{enable-background:new    ;}
</style>
<g id="Iconos">
	<rect x="28.9" y="29.4" class="st0" width="4.3" height="2.9"/>
	<rect y="29.4" class="st0" width="4.3" height="2.9"/>
	<path class="st0" d="M16.6,11.9c-5.1,0.1-9.2,4.2-9.3,9.3c0.2,5.1,4.3,9.2,9.3,9.3c5.1-0.1,9.2-4.2,9.3-9.3
		C25.8,16.2,21.7,12,16.6,11.9z M22.9,16.2L22,18.8l-2,0.9l-2.8-2v-2.5l2.2-1.6C20.8,14.2,22,15.1,22.9,16.2z M19.2,20.8l-1,3.1H15
		l-1-3.1l2.6-1.9L19.2,20.8z M16.6,13.2c0.4,0,0.9,0,1.3,0.1l-1.3,0.9l-1.3-0.9C15.7,13.2,16.2,13.2,16.6,13.2z M13.8,13.7l2.2,1.6
		v2.5l-2.8,2l-2-0.9l-0.9-2.6C11.2,15.1,12.4,14.2,13.8,13.7z M9.4,17.6L9.4,17.6l0.5,1.5L8.6,20C8.7,19.2,9,18.4,9.4,17.6z
		 M9.9,25.7c-0.8-1.2-1.3-2.6-1.3-4.1l2.2-1.6l2,0.9l1.1,3.3l-1.3,1.5H9.9z M10.9,27h1.6l0.5,1.5C12.2,28.1,11.5,27.6,10.9,27
		L10.9,27z M18.7,29.1c-1.4,0.4-2.9,0.4-4.3,0l-0.8-2.6l1.2-1.4h3.6l1.2,1.4L18.7,29.1z M20.2,28.5L20.2,28.5l0.5-1.5h1.6
		C21.7,27.6,21,28.1,20.2,28.5L20.2,28.5z M23.3,25.7h-2.7l-1.2-1.4l1.1-3.3l2-0.9l2.2,1.6C24.6,23.1,24.2,24.5,23.3,25.7L23.3,25.7
		z M23.8,17.6c0.4,0.8,0.7,1.6,0.8,2.4l-1.3-0.9L23.8,17.6z"/>
	<path class="st0" d="M21.7,30.2v2.1H26v-2.9h-3.2C22.5,29.7,22.1,29.9,21.7,30.2z"/>
	<path class="st0" d="M16.6,31.6L16.6,31.6c-0.7,0-1.4-0.1-2.1-0.3v1h4.3v-0.9C18.1,31.5,17.3,31.6,16.6,31.6z"/>
	<path class="st0" d="M18.8,30.3v-0.9h-4.3v0.9c0.7,0.2,1.4,0.3,2.2,0.3C17.3,30.6,18.1,30.5,18.8,30.3z"/>
	<path class="st0" d="M10.4,29.4H7.2v2.9h4.3v-2.2C11.1,29.9,10.8,29.7,10.4,29.4z"/>
</g>
<g class="st1">
	<path class="st0" d="M14.1,1.1l-3.2,7.3c-0.2,0.4-0.4,1-1,1H9.2c-0.4,0-0.7-0.2-0.7-0.5c0-0.2,0.1-0.5,0.2-0.7l2.8-6.3
		c-1,0-1.9,0.1-2.9,0.1c-0.8,0-0.8-0.6-0.8-1.2C7.9,0.2,8.2,0,8.6,0H13c0.5,0,1.1,0,1.1,0.7C14.1,0.8,14.1,1,14.1,1.1z"/>
	<path class="st0" d="M24.3,9.4c-0.6,0-0.9-0.1-0.9-0.8V5.2c0-0.1,0-1-0.2-1c-0.4,0-0.9,0.4-1.2,0.7v3.8c0,0.8-0.6,0.8-1.2,0.8
		c-0.6,0-0.9-0.1-0.9-0.8V5.2c0-0.1,0-1-0.2-1c-0.4,0-0.9,0.4-1.2,0.7v3.8c0,0.8-0.6,0.8-1.2,0.8c-0.6,0-0.9-0.1-0.9-0.8V3.4
		c0-0.9,0.8-0.7,1.4-0.7c0.3,0,0.5,0.1,0.6,0.3c0.6-0.3,1.2-0.5,1.8-0.5c0.6,0,1.1,0.2,1.4,0.7c0.6-0.4,1.3-0.7,2.1-0.7
		c1.2,0,1.8,0.9,1.8,2v4.1C25.5,9.4,24.9,9.4,24.3,9.4z"/>
</g>
</svg>
