<?xml version="1.0" encoding="utf-8"?>
<!-- Generator: Adobe Illustrator 25.4.1, SVG Export Plug-In . SVG Version: 6.00 Build 0)  -->
<svg version="1.1" id="Capa_1" xmlns="http://www.w3.org/2000/svg" xmlns:xlink="http://www.w3.org/1999/xlink" x="0px" y="0px"
	 viewBox="0 0 33.2 32.5" style="enable-background:new 0 0 33.2 32.5;" xml:space="preserve">
<style type="text/css">
	.st0{fill:#050B3D;}
	.st1{enable-background:new    ;}
</style>
<g id="Iconos">
	<rect x="28.9" y="29.6" class="st0" width="4.3" height="2.9"/>
	<rect y="29.6" class="st0" width="4.3" height="2.9"/>
	<path class="st0" d="M16.6,12.1c-5.1,0.1-9.2,4.2-9.3,9.3c0.2,5.1,4.3,9.2,9.3,9.3c5.1-0.1,9.2-4.2,9.3-9.3
		C25.8,16.4,21.7,12.2,16.6,12.1z M22.9,16.4L22,19l-2,0.9l-2.8-2v-2.5l2.2-1.6C20.8,14.4,22,15.3,22.9,16.4z M19.2,21l-1,3.1H15
		L14,21l2.6-1.9L19.2,21z M16.6,13.4c0.4,0,0.9,0,1.3,0.1l-1.3,0.9l-1.3-0.9C15.7,13.4,16.2,13.4,16.6,13.4z M13.8,13.9l2.2,1.6V18
		l-2.8,2l-2-0.9l-0.9-2.6C11.2,15.3,12.4,14.4,13.8,13.9z M9.4,17.8L9.4,17.8l0.5,1.5l-1.3,0.9C8.7,19.4,9,18.6,9.4,17.8z M9.9,25.9
		c-0.8-1.2-1.3-2.6-1.3-4.1l2.2-1.6l2,0.9l1.1,3.3l-1.3,1.5H9.9z M10.9,27.2h1.6l0.5,1.5C12.2,28.3,11.5,27.8,10.9,27.2L10.9,27.2z
		 M18.7,29.3c-1.4,0.4-2.9,0.4-4.3,0l-0.8-2.6l1.2-1.4h3.6l1.2,1.4L18.7,29.3z M20.2,28.7L20.2,28.7l0.5-1.5h1.6
		C21.7,27.8,21,28.3,20.2,28.7L20.2,28.7z M23.3,25.9h-2.7l-1.2-1.4l1.1-3.3l2-0.9l2.2,1.6C24.6,23.3,24.2,24.7,23.3,25.9L23.3,25.9
		z M23.8,17.8c0.4,0.8,0.7,1.6,0.8,2.4l-1.3-0.9L23.8,17.8z"/>
	<path class="st0" d="M21.7,30.4v2.1H26v-2.9h-3.2C22.5,29.9,22.1,30.1,21.7,30.4z"/>
	<path class="st0" d="M16.6,31.8L16.6,31.8c-0.7,0-1.4-0.1-2.1-0.3v1h4.3v-0.9C18.1,31.7,17.3,31.8,16.6,31.8z"/>
	<path class="st0" d="M18.8,30.5v-0.9h-4.3v0.9c0.7,0.2,1.4,0.3,2.2,0.3C17.3,30.8,18.1,30.7,18.8,30.5z"/>
	<path class="st0" d="M10.4,29.6H7.2v2.9h4.3v-2.2C11.1,30.1,10.8,29.9,10.4,29.6z"/>
</g>
<g class="st1">
	<path class="st0" d="M10.9,9.7c-0.7,0-1.5-0.1-2.1-0.5C7.7,8.5,7.6,7.3,7.6,6.1c0-1.3,0-2.8,0.4-4c0.5-1.7,1.9-2,3.5-2
		c0.5,0,1,0,1.6,0.1c0.6,0,0.9,0.2,0.9,0.8v0.4c0,0.4-0.3,0.6-0.7,0.6c-0.2,0-0.5-0.1-0.7-0.1c-0.5,0-1-0.1-1.5-0.1
		c-0.4,0-0.7,0.1-0.9,0.4c-0.2,0.3-0.3,1-0.3,1.4c0.5-0.1,1.1-0.2,1.6-0.2c2.1,0,3,1,3,3.1C14.4,8.8,13.1,9.7,10.9,9.7z M11.3,5.3
		c-0.5,0-1.1,0.1-1.6,0.2c0,0.3,0,0.6,0,0.9c0,1.1,0.2,1.5,1.4,1.5c1.1,0,1.2-0.4,1.2-1.4C12.3,5.7,12.2,5.3,11.3,5.3z"/>
	<path class="st0" d="M24.3,9.5c-0.6,0-0.9-0.1-0.9-0.8V5.3c0-0.1,0-1-0.2-1c-0.4,0-0.9,0.4-1.2,0.7v3.8c0,0.8-0.6,0.8-1.2,0.8
		c-0.6,0-0.9-0.1-0.9-0.8V5.3c0-0.1,0-1-0.2-1c-0.4,0-0.9,0.4-1.2,0.7v3.8c0,0.8-0.6,0.8-1.2,0.8c-0.6,0-0.9-0.1-0.9-0.8V3.6
		c0-0.9,0.8-0.7,1.4-0.7c0.3,0,0.5,0.1,0.6,0.3c0.6-0.3,1.2-0.5,1.8-0.5c0.6,0,1.1,0.2,1.4,0.7c0.6-0.4,1.3-0.7,2.1-0.7
		c1.2,0,1.8,0.9,1.8,2v4.1C25.5,9.6,25,9.5,24.3,9.5z"/>
</g>
</svg>
