<?xml version="1.0" encoding="utf-8"?>
<!-- Generator: Adobe Illustrator 25.4.1, SVG Export Plug-In . SVG Version: 6.00 Build 0)  -->
<svg version="1.1" id="Capa_1" xmlns="http://www.w3.org/2000/svg" xmlns:xlink="http://www.w3.org/1999/xlink" x="0px" y="0px"
	 viewBox="0 0 110.8 118.5" style="enable-background:new 0 0 110.8 118.5;" xml:space="preserve">
<style type="text/css">
	.st0{fill:#00E9C5;}
</style>
<g>
	<path class="st0" d="M55.3,4.5C25.2,5.1,1.1,29.1,0.5,59.2c1.2,30.1,25.3,54.1,54.8,54.8c30.1-0.7,54.1-24.7,54.8-54.8
		C109.5,29.8,85.2,5.1,55.3,4.5z M92.3,29.8l-5.2,15.3l-11.8,5.2L58.7,38.6V23.9l13-9.4C80,18.1,87.1,23.5,92.3,29.8z M70.6,57
		l-5.9,18.2H46L40,57l15.3-11.2L70.6,57z M55.3,12.2c2.3,0,5.2,0,7.7,0.7l-7.7,5.2l-7.7-5.2C50,12.2,52.8,12.2,55.3,12.2z
		 M38.9,15.2l13,9.4v14.8L35.4,51.2l-12-5.5l-5.2-15.3C23.4,23.5,30.5,18.1,38.9,15.2z M12.9,38.1L12.9,38.1l2.9,8.8l-7.7,5.2
		C8.8,47.6,10.5,42.8,12.9,38.1z M15.8,85.8C11,78.7,8.1,70.5,8.1,61.7l13-9.4L33,57.5l6.4,19.4l-7.7,8.9H15.8z M21.7,93.5h9.4
		l2.9,8.8C29.3,99.9,25.2,97,21.7,93.5L21.7,93.5z M67.7,105.8c-8.2,2.3-17.1,2.3-25.3,0l-4.8-15.3l7.1-8.2h21.3l7.1,8.2L67.7,105.8
		z M76.5,102.2L76.5,102.2l2.9-8.8h9.4C85.2,97,81.2,99.9,76.5,102.2L76.5,102.2z M94.7,85.8H78.8l-7.1-8.2l6.4-19.4L90,53l13,9.4
		C102.4,70.5,100.1,78.7,94.7,85.8L94.7,85.8z M97.8,38.1c2.3,4.8,4.1,9.4,4.8,14.2L94.9,47L97.8,38.1z"/>
</g>
</svg>
