<?xml version="1.0" encoding="utf-8"?>
<!-- Generator: Adobe Illustrator 25.4.1, SVG Export Plug-In . SVG Version: 6.00 Build 0)  -->
<svg version="1.1" id="Capa_1" xmlns="http://www.w3.org/2000/svg" xmlns:xlink="http://www.w3.org/1999/xlink" x="0px" y="0px"
	 viewBox="0 0 50 50" style="enable-background:new 0 0 50 50;" xml:space="preserve">
<style type="text/css">
	.st0{fill:#050B3D;}
	.st1{font-family:'CachetStd-Medium';}
	.st2{font-size:13px;}
</style>
<g id="Iconos">
	<rect x="37.3" y="38" class="st0" width="4.3" height="2.9"/>
	<rect x="8.4" y="38" class="st0" width="4.3" height="2.9"/>
	<path class="st0" d="M25,20.5c-5.1,0.1-9.2,4.2-9.3,9.3c0.2,5.1,4.3,9.2,9.3,9.3c5.1-0.1,9.2-4.2,9.3-9.3
		C34.2,24.8,30.1,20.6,25,20.5z M31.3,24.8l-0.9,2.6l-2,0.9l-2.8-2v-2.5l2.2-1.6C29.2,22.8,30.4,23.7,31.3,24.8z M27.6,29.4l-1,3.1
		h-3.2l-1-3.1l2.6-1.9L27.6,29.4z M25,21.8c0.4,0,0.9,0,1.3,0.1L25,22.8l-1.3-0.9C24.1,21.8,24.6,21.8,25,21.8z M22.2,22.3l2.2,1.6
		v2.5l-2.8,2l-2-0.9l-0.9-2.6C19.6,23.7,20.8,22.8,22.2,22.3z M17.8,26.2L17.8,26.2l0.5,1.5L17,28.6C17.1,27.8,17.4,27,17.8,26.2z
		 M18.3,34.3c-0.8-1.2-1.3-2.6-1.3-4.1l2.2-1.6l2,0.9l1.1,3.3L21,34.3H18.3z M19.3,35.6h1.6l0.5,1.5C20.6,36.7,19.9,36.2,19.3,35.6
		L19.3,35.6z M27.1,37.7c-1.4,0.4-2.9,0.4-4.3,0L22,35.1l1.2-1.4h3.6l1.2,1.4L27.1,37.7z M28.6,37.1L28.6,37.1l0.5-1.5h1.6
		C30.1,36.2,29.4,36.7,28.6,37.1L28.6,37.1z M31.7,34.3H29l-1.2-1.4l1.1-3.3l2-0.9l2.2,1.6C33,31.7,32.6,33.1,31.7,34.3L31.7,34.3z
		 M32.2,26.2c0.4,0.8,0.7,1.6,0.8,2.4l-1.3-0.9L32.2,26.2z"/>
	<path class="st0" d="M30.1,38.8v2.1h4.3V38h-3.2C30.9,38.3,30.5,38.5,30.1,38.8z"/>
	<path class="st0" d="M25,40.2L25,40.2c-0.7,0-1.4-0.1-2.1-0.3v1h4.3V40C26.5,40.1,25.7,40.2,25,40.2z"/>
	<path class="st0" d="M27.2,38.9V38h-4.3v0.9c0.7,0.2,1.4,0.3,2.2,0.3C25.7,39.2,26.5,39.1,27.2,38.9z"/>
	<path class="st0" d="M18.8,38h-3.2v2.9h4.3v-2.2C19.5,38.5,19.2,38.3,18.8,38z"/>
</g>
<text transform="matrix(1 0 0 1 16.3454 17.1896)" class="st0 st1 st2">9m</text>
</svg>
