<?xml version="1.0" encoding="utf-8"?>
<!-- Generator: Adobe Illustrator 25.4.1, SVG Export Plug-In . SVG Version: 6.00 Build 0)  -->
<svg version="1.1" id="Capa_1" xmlns="http://www.w3.org/2000/svg" xmlns:xlink="http://www.w3.org/1999/xlink" x="0px" y="0px"
	 viewBox="0 0 50 50" style="enable-background:new 0 0 50 50;" xml:space="preserve">
<style type="text/css">
	.st0{fill:#050B3D;}
	.st1{fill:none;stroke:#050B3D;stroke-width:0.7129;stroke-linecap:round;stroke-linejoin:round;stroke-miterlimit:10;}
	.st2{fill:none;stroke:#050B3D;stroke-width:0.618;stroke-linecap:round;stroke-linejoin:round;stroke-miterlimit:10;}
</style>
<path class="st0" d="M25.1,23.4c-1.1,0.1-2.1,1-2.1,2.1c0.1,1.1,1,2.1,2.1,2.1c1.1-0.1,2.1-1,2.1-2.1C27.2,24.4,26.3,23.4,25.1,23.4
	z M26.5,24.4L26.3,25l-0.5,0.2l-0.6-0.5v-0.6l0.5-0.4C26.1,23.9,26.4,24.1,26.5,24.4L26.5,24.4z M25.7,25.4l-0.2,0.7h-0.7l-0.2-0.7
	l0.6-0.4L25.7,25.4z M25.1,23.6c0.1,0,0.2,0,0.3,0l-0.3,0.2l-0.3-0.2C24.9,23.6,25,23.6,25.1,23.6z M24.5,23.8l0.5,0.4v0.6l-0.6,0.5
	l-0.4-0.3l-0.2-0.6C23.9,24.1,24.2,23.9,24.5,23.8L24.5,23.8z M23.5,24.6L23.5,24.6l0.1,0.4l-0.3,0.2C23.3,25.1,23.4,24.9,23.5,24.6
	z M23.5,26.6c-0.2-0.3-0.3-0.6-0.3-0.9l0.5-0.4l0.5,0.2l0.3,0.8l-0.3,0.4L23.5,26.6L23.5,26.6z M23.8,26.9h0.4l0.1,0.4
	C24.1,27.1,24,27,23.8,26.9z M25.6,27.4c-0.4,0.1-0.6,0.1-1,0l-0.2-0.6l0.3-0.4h0.9l0.3,0.4L25.6,27.4z M26,27.2L26,27.2l0.1-0.4
	h0.4C26.3,27,26.2,27.1,26,27.2L26,27.2z M26.7,26.6H26l-0.3-0.4l0.3-0.8l0.5-0.2l0.5,0.4C27,25.9,26.9,26.3,26.7,26.6z M26.8,24.6
	c0.1,0.1,0.1,0.4,0.2,0.6L26.7,25L26.8,24.6z"/>
<g>
	<path class="st1" d="M8.3,28.5l0.3-0.9L9,24.2l-1.1,0.6c-0.7,0.4-1.7,0.3-2.3-0.4l-2.5-2.7c-0.5-0.5-0.4-1.3,0.2-1.8h0
		c0.5-0.3,1.1-0.3,1.5,0.1L7,22.5l1.8-1c0.8-0.4,1.6-0.6,2.5-0.6h0c0.9,0,1.9,0.3,2.7,0.8l6.3,3.9c0.6,0.4,0.7,1.1,0.3,1.7v0
		c-0.4,0.5-1.1,0.7-1.6,0.3L13.4,24v2.9l3.4,1.2c0.8,0.3,1.3,1.1,1.3,1.9v4.3c0,0.7-0.5,1.2-1.2,1.2h0c-0.7,0-1.2-0.5-1.2-1.2v-3.9
		L11,28.9L9.5,33c-0.3,0.8-1,1.5-1.8,1.7l-4.6,1.4c-0.7,0.2-1.5-0.2-1.7-0.9h0c-0.2-0.7,0.2-1.4,0.9-1.6l4.7-1.4l0.5-1.4"/>
	<line class="st1" x1="7.9" y1="29.7" x2="7.9" y2="29.7"/>
	<circle class="st2" cx="11.6" cy="17.3" r="2.5"/>
</g>
<g>
	<path class="st1" d="M32.1,32.4v1.9c0,0.7,0.5,1.2,1.2,1.2h0c0.7,0,1.2-0.5,1.2-1.2v-3.9l4.7-1.5l1.5,4.1c0.3,0.8,1,1.5,1.8,1.7
		l4.6,1.4c0.7,0.2,1.5-0.2,1.7-0.9l0,0c0.2-0.7-0.2-1.4-0.9-1.6l-4.7-1.4l-1.5-4.7l-0.4-3.3l1.1,0.6c0.7,0.4,1.7,0.3,2.3-0.4
		l2.5-2.7c0.5-0.5,0.4-1.3-0.2-1.8h0c-0.5-0.3-1.1-0.3-1.5,0.1l-2.2,2.3l-1.8-1c-0.8-0.4-1.6-0.6-2.5-0.6h0c-0.9,0-1.9,0.3-2.7,0.8
		L30,25.6c-0.6,0.4-0.7,1.1-0.3,1.7l0,0c0.4,0.5,1.1,0.7,1.6,0.3l5.6-3.6v2.9l-3.4,1.2c-0.8,0.3-1.3,1.1-1.3,1.9"/>
	<line class="st1" x1="32.1" y1="31.2" x2="32.1" y2="31.2"/>
	<circle class="st2" cx="38.6" cy="17.3" r="2.5"/>
</g>
</svg>
