<?xml version="1.0" encoding="utf-8"?>
<!-- Generator: Adobe Illustrator 25.4.1, SVG Export Plug-In . SVG Version: 6.00 Build 0)  -->
<svg version="1.1" id="Capa_1" xmlns="http://www.w3.org/2000/svg" xmlns:xlink="http://www.w3.org/1999/xlink" x="0px" y="0px"
	 viewBox="0 0 50 50" style="enable-background:new 0 0 50 50;" xml:space="preserve">
<style type="text/css">
	.st0{fill:#050B3D;}
</style>
<g id="Iconos">
	<path class="st0" d="M40.6,22.9l-2.8-1.6c-0.2-0.1-0.5,0-0.7,0.2c0,0.1-0.1,0.2-0.1,0.2v1.7h-4.4c-0.3,0-0.5,0.2-0.5,0.5l0,0V26
		c0,0.3,0.2,0.5,0.5,0.5l0,0H37v1.7c0,0.3,0.2,0.5,0.5,0.5c0.1,0,0.2,0,0.2-0.1l2.8-1.6l2.8-1.6c0.2-0.1,0.3-0.4,0.2-0.7
		c0-0.1-0.1-0.1-0.2-0.2L40.6,22.9z"/>
	<path class="st0" d="M10.3,32.8h12.9c0.6,0,1.2-0.1,1.7-0.3c2.2-0.6,4-2.2,4.9-4.2c0.3-0.6,0.5-1.2,0.6-1.9c0.6-3.1-0.7-6.2-3.3-8
		l0,0c-0.7-0.5-1.4-0.8-2.3-1.1c-0.6-0.2-1.1-0.3-1.7-0.3H10.3v0.8h8.9L19,18c-0.7,0.4-1.4,0.9-2,1.5c-0.3,0.3-0.5,0.6-0.8,0.9h-3.9
		v0.8h3.4c-0.3,0.5-0.5,1-0.6,1.5c0,0.3-0.1,0.5-0.1,0.8c-0.1,0.4-0.1,0.7-0.1,1.1H8.2v0.8h6.6c0,0.4,0.1,0.7,0.1,1.1
		c0,0.3,0.1,0.5,0.2,0.8c0.2,0.5,0.4,1,0.6,1.5h-3.4v0.8h3.9c0.7,1,1.6,1.8,2.7,2.4l0.2,0.1h-8.9C10.3,32,10.3,32.8,10.3,32.8z
		 M27.7,29.8c-0.1,0.1-0.3,0.3-0.5,0.4l0,0V29l1.4-0.3C28.4,29.1,28.1,29.5,27.7,29.8L27.7,29.8z M26.4,28.8l0.1,2
		c-0.6,0.4-1.2,0.7-1.8,0.8c-0.4,0.2-0.9,0.3-1.3,0.3L22,30.2l0.4-2.5l2.4-0.7L26.4,28.8z M29.1,22.1c0.8,1.8,0.8,3.8,0,5.6L27,28.2
		l-1.8-1.8v-3l1.8-1.8L29.1,22.1z M22,27l-1.7-2l1.7-2l2.3,0.7v2.7L22,27z M27.7,20.1c0.1,0.2,0.3,0.3,0.4,0.5l0.1,0.2
		c0.1,0.1,0.2,0.2,0.3,0.4l0.1,0.1L27.2,21v-1.3L27.7,20.1z M24.6,18.2c0.6,0.2,1.3,0.5,1.8,0.8l-0.1,2l-1.8,1.8l-2.4-0.7l-0.4-2.5
		l1.4-1.7C23.8,18,24.2,18.1,24.6,18.2L24.6,18.2z M20.7,18.2c0.5-0.1,1-0.2,1.5-0.3l-0.9,1l-1.2-0.6L20.7,18.2L20.7,18.2z M16,22.8
		c0.5-1.7,1.7-3.1,3.2-3.9l0,0l1.8,1l0.4,2.5l-1.8,2.2h-2.1L16,22.8z M15.8,23.8l1,1.2l-1,1.2C15.6,25.4,15.6,24.6,15.8,23.8z
		 M17.6,29.9L17.6,29.9c-0.7-0.8-1.3-1.7-1.6-2.7l1.5-1.8h2.1l1.8,2.2L21,30.1l-1.8,1C18.6,30.7,18.1,30.3,17.6,29.9L17.6,29.9z
		 M20.7,31.7c-0.2-0.1-0.4-0.1-0.6-0.2l1.2-0.6l0.9,1.1C21.7,31.9,21.2,31.9,20.7,31.7L20.7,31.7z"/>
	<rect x="7.8" y="32" class="st0" width="1.5" height="1"/>
	<rect x="7.8" y="17" class="st0" width="1.5" height="1"/>
	<rect x="10.8" y="29" class="st0" width="0.5" height="0.5"/>
	<rect x="8.3" y="29" class="st0" width="1.5" height="0.5"/>
	<rect x="10.8" y="20.5" class="st0" width="0.5" height="0.5"/>
	<rect x="8.3" y="20.5" class="st0" width="1.5" height="0.5"/>
	<rect x="6.3" y="32" class="st0" width="0.5" height="1"/>
	<rect x="6.3" y="17" class="st0" width="0.5" height="1"/>
</g>
</svg>
