<?xml version="1.0" encoding="utf-8"?>
<!-- Generator: Adobe Illustrator 25.4.1, SVG Export Plug-In . SVG Version: 6.00 Build 0)  -->
<svg version="1.1" id="Capa_1" xmlns="http://www.w3.org/2000/svg" xmlns:xlink="http://www.w3.org/1999/xlink" x="0px" y="0px"
	 viewBox="0 0 50 50" style="enable-background:new 0 0 50 50;" xml:space="preserve">
<style type="text/css">
	.st0{fill:none;stroke:#050B3D;stroke-linecap:round;stroke-linejoin:round;stroke-miterlimit:10;}
	.st1{fill:#FFFFFF;}
	.st2{fill:#050B3D;}
</style>
<path class="st0" d="M19.5,30.4l0.4-1.4l0.5-4.8l-1.6,0.9c-1.1,0.6-2.4,0.4-3.3-0.5L12,20.8c-0.7-0.8-0.6-1.9,0.3-2.5l0,0
	c0.7-0.5,1.6-0.4,2.2,0.2l3.1,3.3l2.6-1.5c1.1-0.6,2.3-0.9,3.6-0.9h0c1.4,0,2.7,0.4,3.9,1.1l9,5.7c0.8,0.5,1,1.6,0.5,2.4l0,0
	c-0.5,0.8-1.6,1-2.3,0.5L26.8,24v4.2l4.9,1.8c1.2,0.4,1.9,1.5,1.9,2.8v6.3c0,1-0.8,1.8-1.8,1.8h0c-1,0-1.8-0.8-1.8-1.8v-5.7L23.3,31
	l-2.1,6c-0.4,1.2-1.4,2.1-2.6,2.5l-6.7,2c-1.1,0.3-2.2-0.3-2.4-1.4l0,0c-0.3-1,0.3-2.1,1.3-2.3l6.9-2l0.7-2.1"/>
<line class="st0" x1="18.9" y1="32.2" x2="18.9" y2="32.2"/>
<circle class="st0" cx="24.3" cy="14.2" r="3.6"/>
<g>
	<circle class="st1" cx="13.2" cy="15.7" r="3.3"/>
	<path class="st2" d="M13.2,12.2c-1.9,0-3.5,1.6-3.5,3.5c0.1,1.9,1.6,3.5,3.5,3.5c1.9,0,3.5-1.6,3.5-3.5
		C16.7,13.8,15.1,12.2,13.2,12.2z M15.6,13.8l-0.3,1l-0.8,0.3l-1.1-0.8v-0.9l0.8-0.6C14.8,13.1,15.2,13.4,15.6,13.8z M14.2,15.6
		l-0.4,1.2h-1.2l-0.4-1.2l1-0.7L14.2,15.6z M13.2,12.7c0.2,0,0.3,0,0.5,0l-0.5,0.3l-0.5-0.3C12.9,12.7,13.1,12.7,13.2,12.7z
		 M12.1,12.9l0.8,0.6v0.9l-1.1,0.8l-0.8-0.3l-0.3-1C11.2,13.4,11.6,13.1,12.1,12.9z M10.5,14.4L10.5,14.4l0.2,0.6l-0.5,0.3
		C10.2,15,10.3,14.7,10.5,14.4z M10.7,17.4c-0.3-0.5-0.5-1-0.5-1.5l0.8-0.6l0.8,0.3l0.4,1.2l-0.5,0.6H10.7z M11.1,17.9h0.6l0.2,0.6
		C11.5,18.3,11.3,18.1,11.1,17.9L11.1,17.9z M14,18.7c-0.5,0.2-1.1,0.2-1.6,0l-0.3-1l0.5-0.5h1.4l0.5,0.5L14,18.7z M14.6,18.5
		L14.6,18.5l0.2-0.6h0.6C15.1,18.1,14.9,18.3,14.6,18.5L14.6,18.5z M15.7,17.4h-1l-0.5-0.5l0.4-1.2l0.8-0.3l0.8,0.6
		C16.2,16.4,16.1,17,15.7,17.4L15.7,17.4z M15.9,14.4c0.2,0.3,0.3,0.6,0.3,0.9l-0.5-0.3L15.9,14.4z"/>
</g>
</svg>
