<?xml version="1.0" encoding="utf-8"?>
<!-- Generator: Adobe Illustrator 25.0.0, SVG Export Plug-In . SVG Version: 6.00 Build 0)  -->
<svg version="1.1" id="Capa_1" xmlns="http://www.w3.org/2000/svg" xmlns:xlink="http://www.w3.org/1999/xlink" x="0px" y="0px"
	 viewBox="0 0 110.8 118.5" style="enable-background:new 0 0 110.8 118.5;" xml:space="preserve">
<style type="text/css">
	.st0{fill:#FFFFFF;}
	.st1{fill:#FF3737;}
</style>
<g>
	<circle class="st0" cx="53.9" cy="60.8" r="40.5"/>
	<path class="st1" d="M53.7,17.9c-23.4,0.5-42.1,19.2-42.6,42.6c0.9,23.4,19.7,42.1,42.6,42.6c23.4-0.5,42.1-19.2,42.6-42.6
		C95.8,37.6,77,18.4,53.7,17.9z M82.5,37.6l-4.1,11.9l-9.2,4.1l-12.8-9.2V33l10.1-7.3C72.9,28.5,78.4,32.6,82.5,37.6z M65.6,58.7
		L61,72.9H46.4l-4.6-14.2L53.7,50L65.6,58.7z M53.7,23.9c1.8,0,4.1,0,6,0.5l-6,4.1l-6-4.1C49.6,23.9,51.8,23.9,53.7,23.9z
		 M40.9,26.2l10.1,7.3v11.5l-12.8,9.2L28.9,50l-4.1-11.9C28.9,32.6,34.4,28.5,40.9,26.2z M20.7,44L20.7,44l2.3,6.9L17,55
		C17.5,51.4,18.9,47.7,20.7,44z M23,81.1c-3.7-5.5-6-11.9-6-18.8L27.1,55l9.2,4.1l5,15.1l-6,6.9H23z M27.6,87.1h7.3l2.3,6.9
		C33.5,92.1,30.3,89.8,27.6,87.1L27.6,87.1z M63.3,96.7c-6.4,1.8-13.3,1.8-19.7,0l-3.7-11.9l5.5-6.4h16.5l5.5,6.4L63.3,96.7z
		 M70.2,93.9L70.2,93.9l2.3-6.9h7.3C77,89.8,73.8,92.1,70.2,93.9L70.2,93.9z M84.4,81.1H72l-5.5-6.4l5-15.1l9.2-4.1l10.1,7.3
		C90.3,69.2,88.5,75.6,84.4,81.1L84.4,81.1z M86.7,44c1.8,3.7,3.2,7.3,3.7,11l-6-4.1L86.7,44z"/>
</g>
</svg>
