<?xml version="1.0" encoding="utf-8"?>
<!-- Generator: Adobe Illustrator 25.4.1, SVG Export Plug-In . SVG Version: 6.00 Build 0)  -->
<svg version="1.1" id="Capa_1" xmlns="http://www.w3.org/2000/svg" xmlns:xlink="http://www.w3.org/1999/xlink" x="0px" y="0px"
	 viewBox="0 0 32.8 32.4" style="enable-background:new 0 0 32.8 32.4;" xml:space="preserve">
<style type="text/css">
	.st0{fill:#FF3737;}
	.st1{enable-background:new    ;}
</style>
<g id="Iconos">
	<path class="st0" d="M9.1,28.4c-2.7,0-4.9-2.1-4.9-4.8c0-0.1,0-0.1,0-0.2c0.1-2.7,2.3-4.9,5-4.9c2.7,0.1,4.9,2.3,5,5l0,0
		C14.1,26.2,11.9,28.4,9.1,28.4z M9.1,19.4c-2.2,0-4,1.8-4,4s1.8,4,4,4s4-1.8,4-4c0.1-2.1-1.6-3.9-3.8-4C9.3,19.4,9.2,19.4,9.1,19.4
		C9.2,19.3,9.1,19.3,9.1,19.4z"/>
	<path class="st0" d="M26.2,14.2h-3.6c-0.3,0.1-0.4,0.4-0.3,0.7c0,0,0,0,0,0c0.1,0.2,0.2,0.3,0.3,0.3h3v4.6l-8.1,1.4
		c-0.3,0.1-0.5,0.3-0.4,0.6l0,0c0.8,4.4-2.1,8.6-6.5,9.4C6.2,32,2,29.1,1.2,24.7c-0.8-4.4,2.1-8.6,6.5-9.4c0.5-0.1,0.9-0.1,1.4-0.1
		h2.1v1.5c0,0.3,0.2,0.5,0.4,0.5c0,0,0,0,0.1,0h2.7c0.3,0,0.5-0.2,0.5-0.4c0,0,0,0,0-0.1l0,0v-1.4h2.9c0.3,0,0.5-0.2,0.5-0.4
		c0,0,0,0,0-0.1l0,0c0-0.3-0.2-0.5-0.4-0.5c0,0,0,0-0.1,0h-3.4c-0.3,0-0.5,0.2-0.5,0.4c0,0,0,0,0,0.1l0,0v1.5h-1.7v-1.4
		c0-0.3-0.2-0.5-0.4-0.5c0,0,0,0-0.1,0H9c-1.8,0-3.6,0.6-5.1,1.6l-0.3-0.6c-0.8-0.8-2.2-0.8-3,0s-0.8,2.2,0,3l0,0l0.5,0.5l0,0
		c-2.4,4.4-0.8,10,3.6,12.4c4.4,2.4,10,0.8,12.4-3.6c0.7-1.4,1.1-2.9,1.1-4.4c0-0.4,0-0.7-0.1-1.1l8-1.4c0.3,0,0.4-0.3,0.4-0.5v-5.6
		C26.7,14.4,26.4,14.2,26.2,14.2z M1.3,17.6C1,17.1,1,16.5,1.4,16.1c0.4-0.4,1-0.4,1.4,0l0.3,0.3c-0.2,0.1-0.3,0.3-0.5,0.5
		C2.3,17.2,2,17.6,1.7,18L1.3,17.6z"/>
	<path class="st0" d="M10.9,23.8c-0.3,0-0.5-0.2-0.5-0.4c0,0,0,0,0-0.1l0,0c0-0.7-0.6-1.3-1.3-1.3l0,0c-0.2-0.1-0.4-0.3-0.4-0.6
		c0-0.2,0.2-0.3,0.4-0.4c1.2,0,2.3,1,2.3,2.2c0,0,0,0.1,0,0.1l0,0C11.4,23.6,11.2,23.9,10.9,23.8z"/>
	<path class="st0" d="M13.1,10.9c-0.3,0-0.5-0.2-0.5-0.5l0,0v-2C12.7,8.1,13,8,13.2,8c0.2,0,0.3,0.2,0.4,0.4v2
		C13.6,10.7,13.5,10.9,13.1,10.9C13.2,10.9,13.2,10.9,13.1,10.9z"/>
	<path class="st0" d="M10.1,12.2c-0.1,0-0.3-0.1-0.4-0.1l-1.5-1.5C8,10.4,8,10.1,8.2,9.9s0.5-0.2,0.7,0l1.5,1.5
		c0.2,0.2,0.2,0.5,0,0.7c0,0,0,0,0,0C10.3,12.1,10.2,12.2,10.1,12.2z"/>
	<path class="st0" d="M16.1,12.2c-0.3,0-0.5-0.2-0.5-0.4c0,0,0,0,0-0.1l0,0c0-0.1,0.1-0.3,0.1-0.4l1.5-1.5c0.2-0.2,0.5-0.2,0.7,0
		s0.2,0.5,0,0.7l0,0L16.4,12C16.4,12.1,16.2,12.2,16.1,12.2z"/>
	<path class="st0" d="M20.3,15.2c-0.3,0-0.5-0.2-0.5-0.5s0.2-0.5,0.5-0.5s0.5,0.2,0.5,0.5l0,0c0,0.2-0.1,0.3-0.2,0.4
		C20.6,15.2,20.4,15.2,20.3,15.2z"/>
	<g class="st1">
		<path class="st0" d="M27,9.7h-5c-0.8,0-0.7-0.6-0.7-1.2c0-0.6,0.5-1,0.9-1.3l1.3-1.3c0.3-0.3,0.7-0.7,1-1c0.4-0.5,1.1-1.2,1.1-2
			c0-0.7-0.2-0.8-0.9-0.8c-0.5,0-0.9,0-1.4,0.1c-0.2,0-0.5,0.1-0.8,0.1c-0.6,0-0.6-0.6-0.7-1.1c0-0.1,0-0.1,0-0.2
			c0-0.4,0.3-0.6,0.7-0.7c0.7-0.1,1.5-0.2,2.2-0.2c1.7,0,3.1,0.6,3.1,2.4c0,2.3-2,3.9-3.6,5.3c1,0,1.9-0.1,2.9-0.1
			c0.8,0,0.8,0.6,0.8,1.2C27.8,9.5,27.5,9.7,27,9.7z"/>
		<path class="st0" d="M32.8,0.8c-0.3,0.6-0.7,1.1-1.1,1.6c-0.2,0.3-0.4,0.4-0.7,0.4s-1.1-0.3-1.1-0.7c0-0.1,0.1-0.4,0.2-0.5
			l0.7-1.2C31,0.2,31.2,0,31.6,0h0.5c0.3,0,0.7,0.2,0.7,0.5C32.8,0.6,32.8,0.7,32.8,0.8z"/>
	</g>
</g>
</svg>
