<?xml version="1.0" encoding="utf-8"?>
<!-- Generator: Adobe Illustrator 25.4.1, SVG Export Plug-In . SVG Version: 6.00 Build 0)  -->
<svg version="1.1" id="Capa_1" xmlns="http://www.w3.org/2000/svg" xmlns:xlink="http://www.w3.org/1999/xlink" x="0px" y="0px"
	 viewBox="0 0 29.9 31" style="enable-background:new 0 0 29.9 31;" xml:space="preserve">
<style type="text/css">
	.st0{fill:none;stroke:#050B3D;stroke-linecap:round;stroke-linejoin:round;stroke-miterlimit:10;}
	.st1{fill:#050B3D;}
</style>
<path class="st0" d="M11.4,19.4l0.4-1.4l0.5-4.8l-1.6,0.9c-1.1,0.6-2.4,0.4-3.3-0.5L3.9,9.8C3.2,9,3.3,7.9,4.2,7.3l0,0
	c0.7-0.5,1.6-0.4,2.2,0.2l3.1,3.3l2.6-1.5c1.1-0.6,2.3-0.9,3.6-0.9l0,0c1.4,0,2.7,0.4,3.9,1.1l9,5.7c0.8,0.5,1,1.6,0.5,2.4l0,0
	c-0.5,0.8-1.6,1-2.3,0.5L18.7,13v4.2l4.9,1.8c1.2,0.4,1.9,1.5,1.9,2.8v6.3c0,1-0.8,1.8-1.8,1.8l0,0c-1,0-1.8-0.8-1.8-1.8v-5.7
	L15.2,20l-2.1,6c-0.4,1.2-1.4,2.1-2.6,2.5l-6.7,2c-1.1,0.3-2.2-0.3-2.4-1.4l0,0c-0.3-1,0.3-2.1,1.3-2.3l6.9-2l0.7-2.1"/>
<line class="st0" x1="10.8" y1="21.2" x2="10.8" y2="21.2"/>
<circle class="st0" cx="16.1" cy="3.6" r="3.1"/>
<g id="Iconos">
	<path class="st1" d="M3.3,0.5C1.5,0.5,0,2,0,3.8c0.1,1.8,1.5,3.3,3.3,3.3c1.8,0,3.3-1.5,3.3-3.3C6.6,2,5.2,0.5,3.3,0.5z M5.6,2
		L5.3,3L4.6,3.3l-1-0.7V1.7l0.8-0.6C4.8,1.3,5.3,1.6,5.6,2z M4.3,3.7L3.9,4.8H2.8L2.4,3.7L3.3,3L4.3,3.7z M3.3,1c0.1,0,0.3,0,0.5,0
		L3.3,1.3L2.9,1C3,1,3.2,1,3.3,1z M2.3,1.1l0.8,0.6v0.9l-1,0.7L1.4,3L1.1,2.1C1.4,1.6,1.8,1.3,2.3,1.1z M0.8,2.5L0.8,2.5l0.2,0.5
		L0.5,3.4C0.5,3.1,0.6,2.8,0.8,2.5z M0.9,5.5C0.6,5,0.5,4.5,0.5,4l0.8-0.6L2,3.7l0.4,1.2L1.9,5.5C1.9,5.5,0.9,5.5,0.9,5.5z M1.3,5.9
		h0.6L2,6.5C1.8,6.3,1.5,6.1,1.3,5.9L1.3,5.9z M4.1,6.7c-0.5,0.1-1,0.1-1.5,0L2.3,5.7l0.4-0.5H4l0.4,0.5L4.1,6.7z M4.6,6.5L4.6,6.5
		l0.2-0.5h0.6C5.2,6.1,4.9,6.3,4.6,6.5L4.6,6.5z M5.7,5.5h-1L4.3,5l0.4-1.2l0.7-0.3L6.3,4C6.2,4.5,6.1,5,5.7,5.5L5.7,5.5z M5.9,2.5
		c0.1,0.3,0.3,0.6,0.3,0.9L5.7,3.1L5.9,2.5z"/>
</g>
</svg>
