<?xml version="1.0" encoding="utf-8"?>
<!-- Generator: Adobe Illustrator 25.4.1, SVG Export Plug-In . SVG Version: 6.00 Build 0)  -->
<svg version="1.1" xmlns="http://www.w3.org/2000/svg" xmlns:xlink="http://www.w3.org/1999/xlink" x="0px" y="0px"
	 viewBox="0 0 1080 1080" style="enable-background:new 0 0 1080 1080;" xml:space="preserve">
<style type="text/css">
	.st0{fill:#F2F2F2;}
	.st1{fill:#496F8C;}
	.st2{fill:#FFFFFF;}
	.st3{fill:#CAE5E1;}
	.st4{fill:#F3D9C6;}
	.st5{fill:#7E9199;}
	.st6{opacity:0.5;}
	.st7{fill:#00E9C5;}
	.st8{fill:#77A2C7;}
	.st9{fill:#7599B8;}
	.st10{fill:#757575;}
	.st11{fill:#D6B49D;}
	.st12{opacity:0.5;fill:#757575;}
	.st13{fill:#2B2B2B;}
	.st14{opacity:0.5;fill:#2B2B2B;}
	.st15{opacity:0.5;fill:#D6B49D;}
	.st16{fill:#844C2C;}
	.st17{fill:#DBBFAB;}
	.st18{fill:#F6F6F9;}
	.st19{fill:#77513C;}
	.st20{fill:#D3BFB2;}
	.st21{fill:#2D2924;}
	.st22{fill:#DDC699;}
	.st23{fill:#110F0F;}
	.st24{opacity:0.5;fill:#844C2C;}
	.st25{opacity:0.5;fill:#2D2924;}
	.st26{fill:#C1AD87;}
</style>
<g id="Capa_3">
	<g>
		<path class="st0" d="M1031.7,525.4c-30.1-23.6-67.3-36.2-104.4-45.4c-52.3-13-112-24-141.5-69.1c-35.9-54.9,4.2-142.5-40.9-190.2
			c-86.8-91.9-177.8-73.7-211.7-63.6c-34.9,10.3-83.8,43.7-108.1,86.2c-26.6,46.5-43.9,84.3-87.5,115.5
			c-37.1,26.6-131.9,25.6-174.3,42.4c-37.5,15.8-21.4,7.5-53.2,24.5C24.9,471.3,0,582.6,8.9,677c9.1,96.2,72.3,203,238.8,206.1
			c29.2,0.5,54.3-0.7,78.8-6l0,0c49.7-11.1,102.4-5.8,145.9,20.6c16.5,10,82,34.7,100.3,40.7c35.4,11.5,73.2,9.4,108.4-2.7
			c50.2-17.1,58.7-47.8,97.3-84.2c31.6-29.9,89.9-56.8,114.2-64.6c44.5-14.3,89.6-31.2,126.1-60.7c32.1-26,61-61.1,63.2-102.4
			C1083.8,585.6,1061.8,549.1,1031.7,525.4z"/>
	</g>
</g>
<g id="Capa_2">
	<g>
		<polygon class="st1" points="1046.9,791.8 932.4,756.3 855.3,823.1 		"/>
		<path class="st2" d="M489.5,511.7c0,0,5.5,0.3,17.7,9c12.2,8.7,41,7.8,41,7.8l38.7,57.5l-6.1,18.6c0,0-19.5-1.8-40.8-1.4
			c-21.2,0.4-69.2-28.7-69.2-28.7v-19.4L489.5,511.7z"/>
		<path class="st3" d="M489.5,511.7c0,0,5.5,0.3,17.7,9c12.2,8.7,41,7.8,41,7.8l38.7,57.5l-6.1,18.6c0,0-19.5-1.8-40.8-1.4
			c-21.2,0.4-69.2-28.7-69.2-28.7v-19.4L489.5,511.7z"/>
		<path class="st4" d="M520.1,361.5c0,0,1.5,16.5-6.8,15.2c0,0-2.2-0.3-2.2,3.9c0,4.2,4.2,20.6-1.9,21.9c0,0-2.7,1.3-5.6-1.2
			c0,0-1.2-1.7-2.6,1.5c-1.4,3.2-1.1,7-7,6.5c0,0,0.1,0.8,0.1,1.8c0,1.4-0.2,3.2-1.4,3.2c-1.9,0-4.4-0.1-5.6,1.1
			c-1.2,1.2-1.3,2.1-1.9,4.7c-0.6,2.6,0,6-8.1,7.7c-8.1,1.7-17.1-5.8-18.9-10.9c-1.7-5.1-10.1,1.7-12,7.1c-1.9,5.4-8.4,9.6-8.4,9.6
			l-2.8,1.9l-12.9-9.2l-16.5-48l3-5.1l24.6-24l19.3-19.9l15.2,7.5l4.5,15.2l18.4-9.4l5.4-9.2l19.7,13.1l7.5,3.6v7.3L520.1,361.5z"/>
		<path class="st5" d="M270.1,746.5c0,0,3.6,27,1.9,36.8l3.9,4.3l63.4-13.7l34.3,0.4l16.2-7.3l56.6-9l-0.6-2.7l-47,4l-4.7-18.9
			l9-59.6l-6-12L371.4,764l-27.9,2.1l-70.7-24L270.1,746.5z"/>
		<g class="st6">
			<path class="st4" d="M408.2,376.7l-1.3,5.1l15.3,44.5l11.9,8.5l1.6,0.2l2.1-1.4c0,0,6.4-4.3,8.4-9.6c1-2.8,3.8-6,6.5-7.7
				C439.4,416.8,408.2,376.7,408.2,376.7z"/>
			<polygon class="st4" points="455.7,415 455.7,415 455.7,415 			"/>
		</g>
		<path class="st7" d="M448.2,434.5l-4.1-10.2c0,0-3.9,20.9-22,1c-9.2-10.1,0,54.8,0,54.8v75l0,10.2l31.7-31.4l24-52.1L448.2,434.5z
			"/>
		<path class="st2" d="M333.7,396.7c0,0,21.4-9.4,30.9-7.7c9.4,1.7,26.6-6.6,26.6-6.6l5.6,26.9l18,19.7l-5.1,12.3l21,66.1v26.9
			l-0.2,11.1l-8.1,20.8l-23.4,112.9c0,0-15.9,81.9-25.7,89.1s-42.4,0-42.4,0S299,758,290,752.9c-9-5.1-33.4-9-33.4-9
			s6.4-19.7,5.6-51c-0.9-31.3,24.1-114.5,24.1-114.5l56.3-41.3l-47.1-39.5l3-8.1l-0.4-6.9l34.3-6.4l33.4-42.9l-5.1-23.9L333.7,396.7
			z"/>
		<path class="st2" d="M457.4,429c0,0,4.5,14.6,12.2,21.3c7.7,6.8,26,28.6,19.9,61.4s-11.8,46.7-11.8,46.7s-24.6,55.8-29.1,71.2
			c-4.5,15.4-2.2,121.8-2.2,121.8l-0.6,3.9l-47.7,8.7c0,0-11.9-6.1-7.4-20.9c4.5-14.8,8-55,8-64s0-34,6.4-52.4
			c6.4-18.3,16.9-60.5,16.9-60.5l20-38.2l22.3-35.7l-5.3-40.2L457.4,429z"/>
		<path class="st3" d="M457.4,429c0,0,4.5,14.6,12.2,21.3c7.7,6.8,26,28.6,19.9,61.4s-11.8,46.7-11.8,46.7s-24.6,55.8-29.1,71.2
			c-4.5,15.4-2.2,121.8-2.2,121.8l-0.6,3.9l-47.7,8.7c0,0-11.9-6.1-7.4-20.9c4.5-14.8,8-55,8-64s0-34,6.4-52.4
			c6.4-18.3,16.9-60.5,16.9-60.5l20-38.2l22.3-35.7l-5.3-40.2L457.4,429z"/>
		<path class="st3" d="M403.3,657.6l-2.4-39.7c0,0-4.1,111.7-39.9,126.9c-32,13.6-79.6,4.2-89.2,2.1c6.8,1.6,14.1,3.6,18.2,6
			c9,5.1,40.7,15.4,40.7,15.4s32.6,7.3,42.4,0c9.9-7.3,25.7-89.1,25.7-89.1L403.3,657.6z"/>
		<g>
			<path class="st8" d="M513.6,743.1l130.8-9.5l119.4-71.4l126.6-99.1c0,0,18-27.5,103.7,26c0,0,76.3,32.4,45.4,71.6
				S874.8,809.6,874.8,809.6l-19.5,13.6L84,937.5L26.1,807.1L513.6,743.1z"/>
			<path class="st9" d="M84,970.7l962.9-147.6v-31.3c0,0-915.6,139.7-962.9,145.7V970.7z"/>
		</g>
		<path class="st10" d="M951.9,656.9c0,0-0.2,3,6.5,10.4s24.1,26.4,0,60.4c-17.3,24.4-33,32.5-40.6,35.1c-3,1-4.7,1.2-4.7,1.2
			s11.9-3.2-10.9-33.8c0,0-8.7-16.9-19-16.1c0,0-17.7,7.7-31.8,20.2c0,0-3.5,4.5-7.1,5.8c-3.5,1.3-6.4-3.2-46.3,21.5
			c-39.9,24.8-60.1,12.9-60.1,12.9l-39.9-49.2l-29.6-42.8l6.6-7.6c0,0,10.7-9.8,16.8-10.1s13.1-5.7,16.9-7.9
			c3.9-2.2,6.6-5.4,14.2-4.3c8.4,1.2,50.8-25.7,50.8-25.7h-22.5v-2.9c0,0,22.5-9.7,37.6-10.8c15.1-1.1,33.1-15.5,33.1-15.5
			s15.8-13.5,48.2-4.2c0,0,10.9,6.4,17,18c0,0,10.9,3,16.5,8.8c5.6,5.8,18.4,10.2,18.4,10.2l27.8,21.2L951.9,656.9z"/>
		<g>
			<path class="st7" d="M786.5,622.8c0,0,32.9-10.5,33.2-14.4c0,0-13.9,1.9-48.6,18.6h2.9c0,0-14.1,9-27.7,16.3
				C775.8,631.4,786.5,622.8,786.5,622.8z"/>
			<path class="st7" d="M671.4,681.7c0,0,16.8-15.1,50.8-29c-6.9-0.7-9.6,2.2-13.3,4.4c-3.9,2.2-10.8,7.6-16.9,7.9
				c-2.5,0.1-5.8,1.9-8.8,3.8l-2.1,2.5l-3,1.2c-1.8,1.5-3,2.5-3,2.5l-4.5,5.2L671.4,681.7z"/>
		</g>
		<path class="st11" d="M558.3,815c0,0-21.4-0.4-24.4,0s-7.3,2.6-9.9,3.9c-2.6,1.3-26.6,13.7-32.6,18.4s-19.6,29.9-194.1,24.6
			c-5.3-0.2-17.1,6.2-20.2,6.9c-4.8,1.1-18.3-1.5-23.5,1.2c0,0-5.5,11.1-13.2,11.4c-7.7,0.3-82.3-18.9-85.8-22.5
			c-15.4-16.1-19.9-33.8-19-41.1c1-7.4,7.4-5.5,7.4-5.5s-6.8-9.3-2.9-17.7c3.9-8.4,10-6.1,16.1-1.6s17.4,15.4,20.6,17.7
			s30.5,3.2,59.1,13.2c9.2,3.2,38.6,4.2,38.6,4.2s59.8-5.8,78.8-12.2c19-6.4,65.9-24.4,92.9-28.6c0,0,20.9-7.4,31.2-16.4
			c10.3-9,29.6-27.6,36.3-27.6c6.8,0,9.6-0.3,12.9,0c3.2,0.3,35.7-9.5,35.7-9.5l14.1-5.4l16.3,31.5l-5.7,53.1l-13.5,8.7L558.3,815z"
			/>
		<path class="st11" d="M658.1,617.9c0,0-23.1-93-51.4-99.4c-28.3-6.4-78,18.4-78,18.4s-53.1,24-65.1,26.1s-32.1,5.6-45,2.6
			c-12.9-3-22.7-18.4-22.7-18.4s-29.1-26.8-32.4-26.8c0,0-5.1-3.5-11.6-4.8c0,0-5.1-1.9-6.1-5.5c-1-3.5-9-5.1-8.7,5.1
			c0,0-0.3,4.2,1.9,7.7c0,0-1.6,2.6-0.6,4.5c1,1.9,2.2,6.4,2.2,6.4l6.4,10.3l23.8,27.6l8,29.6l6.8,21.5l10.9,6.1c0,0,2.6,2.9,19.6-9
			c17-11.9,71.7-16.1,71.7-16.1s9,0,13.5,2.2s35.4,8.7,77.5-26c0,0,4.8,8,2.6,19.9c-2.2,11.9-3.2,52.7,6.4,68.8h15.4l40.2-25.4
			l14.7-20.7V617.9z"/>
		<path class="st7" d="M951.9,656.9l-0.3-0.9l-12.3-12.4l-16.9-12.9c0,0-12.9-4.4-18.4-10.2c-1-1.1-2.2-2-3.5-2.9
			c-1.1,1.3-1.6,3.1-0.9,5.2c2.4,6.8,33.5,26.9,53.8,37.8C951.9,658,951.9,656.9,951.9,656.9z"/>
		<path class="st7" d="M906.1,692c-25.1-3.9-110.6,23.1-132.4,36.2c-21.9,13.1-48.6,19.7-48.6,19.7l13.1,32c7.1,0,17-0.8,28.5-4.1
			l11.7-4.1c6.2-2.5,12.8-5.8,19.6-10c39.9-24.8,42.8-20.2,46.3-21.5c3.5-1.3,7.1-5.8,7.1-5.8c10.4-9.2,22.7-15.8,28.5-18.7l1.1-4.8
			C889.4,697.8,906.1,692,906.1,692z"/>
		<path class="st12" d="M958.5,667.2c-6.8-7.4-6.5-10.4-6.5-10.4l-1.8-5L927,634.1c6.5,7.7,12,18.9,3.3,30
			c-15.4,19.7-39,26.3-69.4,27.5c-30.4,1.2-96,33.4-111.4,42.4c-15.4,9-37.7-2.9-37.7-2.9s-7.9-9.6-19.9-14.8l6.3,9.1l39.9,49.2
			c0,0,20.2,11.9,60.1-12.9c39.9-24.8,42.8-20.2,46.3-21.5c3.5-1.3,7.1-5.8,7.1-5.8c14.1-12.5,31.8-20.2,31.8-20.2
			c10.3-0.9,19,16.1,19,16.1c22.8,30.5,10.9,33.8,10.9,33.8s1.7-0.2,4.7-1.2c7.6-2.6,23.3-10.7,40.6-35.1
			C982.6,693.6,965.2,674.6,958.5,667.2z"/>
		<path class="st13" d="M725.4,775.9c0,0-13.2-1.1-21.2,4c-8,5.1-16.1,11.4-16.1,11.4s-11.2,0.1-5.7,3.6c0,0,2.2,4.4,8.6,3.8
			c0,0-2.6,4.2,1,4.2c0,0-49.2,1.6-61.3,6.1c-10.6,3.9-44.6,14.1-49.7,14.1c0,0-9-0.4-22.7-8.1c0,0,36.9,18.4,30.4-48.9
			c0,0-8.1-36-20.1-34.3l-6.4,1.7c0,0,1.7-9,18.9-6c0,0,7.3-0.4,18.4-4.7c0,0-3.4-18.4-9-24.4c-5.4-5.8-12-13.6-5-34.7
			c0.3-0.8,2.1,6,2.4,5.1c0,0,49.7-10.3,70.3-51c0,0,22.3,49.7,16.3,59.1s19.3,38.6,27,43.5s40.7,49.1,43.3,56.4L725.4,775.9z"/>
		<path class="st14" d="M744.5,776.4c0,0,0-0.1-0.1-0.1c-0.1-0.2-0.2-0.4-0.3-0.6c0,0,0,0,0,0c-0.1-0.2-0.2-0.4-0.4-0.7
			c0-0.1-0.1-0.1-0.1-0.2c-0.1-0.2-0.2-0.5-0.4-0.7c0,0,0-0.1-0.1-0.1c-0.2-0.3-0.3-0.6-0.5-0.9c0-0.1-0.1-0.2-0.1-0.2
			c-0.2-0.3-0.3-0.5-0.5-0.8c0-0.1-0.1-0.1-0.1-0.2c-0.2-0.3-0.4-0.7-0.6-1c-0.1-0.1-0.1-0.2-0.2-0.3c-0.2-0.3-0.4-0.6-0.6-0.9
			c0-0.1-0.1-0.1-0.1-0.2c-0.2-0.4-0.5-0.8-0.8-1.2c-0.1-0.1-0.1-0.2-0.2-0.2c-0.2-0.3-0.5-0.7-0.7-1c-0.1-0.1-0.1-0.2-0.2-0.3
			c-0.3-0.4-0.6-0.8-0.9-1.3c-0.1-0.1-0.1-0.2-0.2-0.2c-0.3-0.4-0.5-0.8-0.8-1.1c-0.1-0.1-0.1-0.2-0.2-0.3c-0.3-0.5-0.6-0.9-1-1.4
			c0-0.1-0.1-0.1-0.1-0.2c-0.3-0.4-0.6-0.8-0.9-1.3c-0.1-0.1-0.1-0.2-0.2-0.3c-0.3-0.5-0.7-1-1-1.5c0,0-0.1-0.1-0.1-0.1
			c-0.3-0.5-0.7-0.9-1-1.4c-0.1-0.1-0.1-0.2-0.2-0.3c-0.7-1-1.5-2.1-2.3-3.1c-0.1-0.1-0.1-0.2-0.2-0.3c-0.8-1.1-1.6-2.1-2.4-3.2
			c-0.1-0.1-0.1-0.2-0.2-0.3c-0.8-1.1-1.6-2.2-2.4-3.2c-0.1-0.1-0.1-0.1-0.2-0.2c-0.8-1.1-1.7-2.2-2.5-3.3c0-0.1-0.1-0.1-0.1-0.2
			c-0.8-1.1-1.7-2.2-2.5-3.2c0,0-0.1-0.1-0.1-0.1c-0.9-1.1-1.7-2.1-2.5-3.2c0,0,0,0-0.1-0.1c-0.4-0.5-0.8-1-1.2-1.5c0,0,0,0,0,0
			c-0.4-0.5-0.8-1-1.2-1.5c0,0,0,0,0,0c-0.4-0.5-0.8-0.9-1.2-1.4c0,0,0-0.1-0.1-0.1c-0.4-0.5-0.8-0.9-1.2-1.4c0,0,0,0,0,0l0,0l0,0
			c-0.1-0.1-0.2-0.2-0.3-0.3c-0.1-0.1-0.2-0.3-0.4-0.4l0,0c-4.2-4.9-7.7-8.6-9.6-9.8c-7.7-4.9-33-34.1-27-43.5
			c6-9.4-16.3-59.1-16.3-59.1c-20.6,40.7-70.3,51-70.3,51c-2.1,17.1,9,28.3,18,44.3s50.7,4.5,50.7,4.5l0,0
			c-20.3,6.5-42.2,17.1-53.3,18.1c-13.7,1.2-23.1-5.6-23.1-5.6s-5.7-2.7-8,2.3l0,0c0,0,0,0,0,0c7.8,3.7,13.5,22.2,15.7,30.1
			c0,0,0,0,0,0c0.1,0.3,0.2,0.6,0.2,0.8c0,0,0,0.1,0,0.1c0.1,0.2,0.1,0.5,0.2,0.7c0,0.1,0,0.1,0,0.2c0,0.2,0.1,0.4,0.1,0.5
			c0,0.1,0,0.1,0,0.2c0,0.1,0.1,0.3,0.1,0.4c0,0,0,0.1,0,0.1c0,0.1,0,0.2,0.1,0.3c0,0,0,0.1,0,0.1c0,0.1,0,0.1,0,0.1
			c0,0.1,0,0.1,0,0.1c6.4,67.3-30.4,48.9-30.4,48.9c13.7,7.7,22.7,8.1,22.7,8.1c5.1,0,39.1-10.2,49.7-14.1
			c12.1-4.5,61.3-6.1,61.3-6.1c-3.5,0-1-4.2-1-4.2c-6.4,0.6-8.6-3.8-8.6-3.8c-5.5-3.5,5.7-3.6,5.7-3.6s8-6.3,16.1-11.4
			s21.2-4,21.2-4l19.3,1C744.7,776.7,744.6,776.5,744.5,776.4z"/>
		<path class="st11" d="M917.9,762.8c0,0,5.6-13.6-18.4-42.3C883.8,701.6,881,711,881,711s-26.4,10.9-32.1,23.5c0,0-1.9,3.2-7.4,3.2
			s-11.9-4.2-43.1,16.7c-11.8,7.9-22.5,10.3-53.7,18.3c0,0-9.6,1-24.8,0c-15.1-1-26,12.9-34.7,17c-2.6,1.2-11.9,1.8-8.4,7.7
			c3.6,6,9.6,3.5,9.6,3.5s0.3,2.2,3.5,3.5c0,0-1.9,7.1,7.7,8.7c0,0,5.5,7.4,11.2,4.8c0,0,6.1,5.5,25.1,2.9
			c19-2.6,24.4-12.2,24.4-12.2s5.8-9,15.1-8.4c9.3,0.6,47.2,3,70.4-12.9c3.8-2.6,7-5.7,17.7-5.8c8.7-0.1,13.8-3.9,13.8-3.9
			s23.1-12.2,37.6-13.8"/>
		<path class="st15" d="M917.9,762.8c0,0,5.6-13.6-18.4-42.3C883.8,701.6,881,711,881,711s-26.4,10.9-32.1,23.5c0,0-1.9,3.2-7.4,3.2
			s-11.9-4.2-43.1,16.7c-11.8,7.9-22.5,10.3-53.7,18.3c0,0-9.6,1-24.8,0c-15.1-1-26,12.9-34.7,17c-2.6,1.2-11.9,1.8-8.4,7.7
			c3.6,6,9.6,3.5,9.6,3.5s0.3,2.2,3.5,3.5c0,0-1.9,7.1,7.7,8.7c0,0,5.5,7.4,11.2,4.8c0,0,6.1,5.5,25.1,2.9
			c19-2.6,24.4-12.2,24.4-12.2s5.8-9,15.1-8.4c9.3,0.6,47.2,3,70.4-12.9c3.8-2.6,7-5.7,17.7-5.8c8.7-0.1,13.8-3.9,13.8-3.9
			s23.1-12.2,37.6-13.8"/>
		<path class="st11" d="M940.1,545.1c0,0-2.4,2.7-4.1,2.7s-3.2,0-3.2,6.6c0,0-9.9,2.4-12.9,2.6s-8.1,3.4-3,9.9c0,0,0.2,1.7-4.1,3.4
			c0,0-1.9,0.6-2.6,5.1c0,0-5.4,1.1-3.9,7.7c0,0,0.4,2.6-3.2,4.5c-3.6,1.9-8.8,11.1,7.9,23.1l-7.3,9.6c0,0-3.9,1.1,5.6,5.8
			s40.7,27.6,42.4,30.6c0,0,3.6-10.1,9.4-15.3l2.6-3.1l1.1-11.6l24.6-17.4l2.4-9.9l-6.4-6.9l-10.1,1.7l-3.2-2.4l3.6-20.8l-2.4-3.6
			l7.3-13.1l-9.6-12.6l-1.7-5.1l-15.9-1.5L940.1,545.1z"/>
		<path class="st15" d="M983.7,593.1l-8.2,1.4l-3.2-2.4l0.1-0.3l-4.6,1.8c0,0-6.4,16.7-25.1,18c-18.6,1.3-31.5-0.9-31.5-0.9
			l-3.2,4.3l0,0c0,0,21.5,8.3,37.1,7.7c15.6-0.5,1.6,28.7-10.4,20.1c8.8,6.4,16.5,12.5,17.3,13.9c0,0,3.6-10.1,9.4-15.3l2.6-3.1
			l1.1-11.6l24.6-17.4l2.4-9.9l-5-5.4L983.7,593.1z"/>
		<path class="st16" d="M940.1,545.1c0,0-3.5-19.9,22.2-24.4c0,0-1.9-2.9-7.1-2.6c0,0,20.9-8.8,46.6,11.5
			c15.7,12.4,22.3,24,26.1,32.9c0.5,1.3,1.6-6.5,1.6-6.5c3,3.2,4.1,20-3.6,25.4c0,0,19.6,17.7-3.9,32.8
			c-23.5,15.1-38.2,19-46.6,20.6c-8.4,1.6-5.8,8-14.1,6.8c0,0,2.6-3.9,0-8.7c-2.6-4.8-0.6-10.6,18.3-19.3c0,0,13.2-4.5,9.3-13.2
			c-3.9-8.7-16.7-2.2-16.7-2.2s-4.2-3.5-4.5-4.5c-0.3-1,10.3-10,1.9-24.8c0,0,1.6-5.8,8.4-13.5c0,0-4.8-14.5-16.4-13.2
			c0,0,2.6-3.5,4.2-3.5C965.9,538.7,957.8,534.5,940.1,545.1z"/>
		<g>
			<path class="st17" d="M910.4,575.4c1.2,0.3,2.3,0.8,3.4,1.3c0.5,0.3,1.1,0.7,1.6,1.1c0.5,0.4,0.8,0.9,1.3,1.4
				c0.8,0.9,1.5,1.8,2.5,2.4c0.9,0.6,2.1,0.8,3.3,0.6c-1.1,0.6-2.5,0.7-3.7,0.1c-1.2-0.6-2-1.6-2.8-2.5c-0.8-0.9-1.5-1.8-2.5-2.5
				L910.4,575.4z"/>
		</g>
		<path class="st18" d="M452.9,416c0,0,13.7,36.5,16.6,65.7c0,0-6.1,25.7-14.8,35.7c-8.7,10-32.5,48.8-32.5,48.8l-3.7-0.7
			c0,0,18.8-32.7,35.9-72.1c0,0-0.3-19.4-2.2-26.1c-2.1-7-12.2-29.9-11.9-35.7c0.3-5.8,3.7-9,3.7-9L452.9,416z"/>
		<path class="st2" d="M345.6,541.7c-8.3,18.5-52.2,46.4-52.2,46.4c-7.7-13.5-36.4-40.1-43.7-47.8c-7.3-7.7-46.3-46.3-52.3-58.7
			c-6-12.4-11.6-5.1,6.4-30.4s53.1-31.7,53.1-31.7s62.1-15,76.7-22.7c0,0,72.9,0,18.4,72.9c0,0-20.6,18-32.1,18s-18.4-1.3-21.4,1.7
			c0,0,6.9,3,9.4,12.4c2.6,9.4,13.3,10,13.3,10s8.5-1,17.1,15.8c0,0,4.3,5,9.2,7.1C347.6,534.5,346.8,539,345.6,541.7z"/>
		<path class="st2" d="M407.9,374.6c0,0,29.3,79.5,37,119.7c0,0-14.1,37-10.6,42.4l-3.9,8.7c0,0-5.5-18.6-4-23.5
			c1.4-4.8,2.4-18.3-4-32.1c-6.4-13.8-14.6-45.3-16.6-48.9c0,0,0.2-2.6,5.7-10.9c0,0-12.2-14.1-16.7-18.6c0,0-5.1-13.4-3.5-29
			C391.1,382.4,395.6,378.3,407.9,374.6z"/>
		
			<ellipse transform="matrix(0.7071 -0.7071 0.7071 0.7071 -122.9629 833.8557)" class="st19" cx="945.1" cy="565.4" rx="3.9" ry="2.6"/>
		<g>
			<path class="st16" d="M940,552.7c1-0.4,1.9-0.4,2.9-0.4c0.9,0,1.9,0.1,2.8,0.4c1.8,0.4,3.3,1.7,4.8,2.9c0.7,0.6,1.4,1.3,2,2.1
				c0.6,0.8,1,1.6,1.4,2.4c0.4,0.8,0.7,1.7,1,2.5c0.3,0.9,0.5,1.7,0.5,2.7l-0.4,0c-0.6-1.5-1.7-2.9-2.8-4.1
				c-0.5-0.6-1.2-1.3-1.7-1.7c-0.5-0.5-1.2-0.9-1.9-1.3c-0.7-0.4-1.4-0.6-2.2-0.9c-0.8-0.2-1.5-0.6-2.2-1c-1.4-0.8-2.8-1.8-4.2-3.2
				L940,552.7z"/>
		</g>
		<g>
			<path class="st20" d="M935.7,551.5c-0.5,0.2-0.9,0.3-1.2,0.4c-0.3,0.1-0.5,0.1-0.7,0.1c-0.4,0-0.1-0.4-0.1-0.7l-0.1-0.8
				c0-0.3-0.1-0.6-0.3-0.9l0-0.4c0.4-0.3,0.8-0.4,1.3-0.4c0.2,0,0.4,0,0.6,0c0.2,0,0.4,0.1,0.6,0.2c0.2,0.1,0.4,0.1,0.6,0.1
				c0.2,0,0.3,0.2,0.4,0.4c0,0.2,0,0.5-0.2,0.8c-0.1,0.3-0.3,0.6-0.7,1.1L935.7,551.5z"/>
		</g>
		<g>
			<path class="st17" d="M980.7,613.2c-2.3,0.4-4.7,0.6-7.1,0.5c-2.4-0.1-4.8-0.4-7.1-1.1c-0.6-0.2-1.2-0.3-1.7-0.6
				c-0.6-0.2-1.1-0.4-1.7-0.7c-0.6-0.2-1.1-0.5-1.6-0.9l-0.8-0.5c-0.3-0.2-0.5-0.4-0.7-0.6c-0.4-0.5-0.8-1-1-1.7
				c-0.1-0.7,0-1.4,0.4-1.9c0.7-1.1,1.7-1.7,2.8-2.3c-0.9,0.7-1.9,1.5-2.3,2.5c-0.2,0.5-0.3,1-0.2,1.5c0.1,0.5,0.5,0.9,0.9,1.3
				c0.4,0.4,0.9,0.6,1.4,0.9c0.5,0.3,1,0.6,1.6,0.8l0.8,0.3l0.8,0.3c0.5,0.2,1.1,0.4,1.7,0.5c2.2,0.6,4.5,1,6.9,1.3
				c1.2,0.1,2.3,0.2,3.5,0.2C978.4,613.2,979.6,613.2,980.7,613.2z"/>
		</g>
		<path class="st11" d="M681.1,671.3c0,0-1-15.1,11.3-22.2c4.2-2.4,9.6-4.1,16.3-10.9c0,0,12.2-14.1,20.4-12.9c0,0,6.3,1,16.7-1.1
			c10.4-2,25.3,2.8,25.3,2.8s5.8,0.5,11.4-3.3c5.6-3.8,9.4,4.2,4.5,8c-2,1.6-6.4,4.1-9.4,4.3c0,0,8.5,8,11.7,11s2.9,6.6,1,7.4
			c0,0-3,3.4-9.2-1.7c0,0,9.2,7.5,5.6,11.4c0,0-3.9,3.6-9.6-1.7c0,0,0.4,3-1.3,3.2c0,0-2.6,3.6-11.8-3.4s-12.6-10.5-17.1-11.1
			c0,0-0.2,2.1,3.4,3.9c3.6,1.7,12,4.7,8.8,8.6c-3.2,3.9-13.1-2.6-13.1-2.6s-8-4.1-9.5-5.1s-9-1.5-13.2-3c0,0-6.6,1.1-14.5,6.1
			c0,0-11.1,8.5-16.4,8C692.3,666.9,687.1,667.5,681.1,671.3z"/>
		<path class="st21" d="M519.7,359.6c0,0-1,2.6,2.9,2.6c3.9,0,0,3.2,0,3.2s9.6-1.3,7.1-5.8c0,0,2.8,1,0.4-5.1c0,0,5.3-2.6-1.4-7.7
			c0,0,9-3.2,1.6-12.9c0,0,2.2-7.7-7.4-10c0,0-2.6-10.6-9.6-8.4c0,0,2.6-4.8-4.8-7.1c0,0-4.8-10.6-11.9-9c0,0-4.2-10-12.5-6.1
			c0,0-3.2-7.7-9.3-3.5c0,0-10.6-6.4-20.6,2.6c0,0-11.2-3.2-14.8,5.8c0,0-5.8-5.8-7.7,4.5c0,0-8.7,2.9-8,8.7c0,0-7.7,2.6-5.8,8.7
			c0,0-5.1,5.1-3.5,8.7c0,0-4.8,7.7-2.6,12.5c0,0-2.8,4.5-0.6,6.4c0,0-7.1,3.2-0.8,9c0,0-8.2,5.5-2.6,10.6c0,0-3.7,7.7,0.5,9.3
			c0,0,8.4-7.1,14.5-10.9s13.5-16.4,21.2-25.1c0,0,3.5-9.3,13.2-8.5c0,0,7.1,2.7,6.4,11.1c0,0,9,4.5,4.2,13.2c0,0,6.4,0.6,14.8-6.4
			c8.4-7.1,15.4-3.5,14.1-9.6c-1.3-6.1,3.5-3.5,4.5-1c1,2.6,4.5,3.9,7.1,3.9c2.6,0,1.6,9.6,9.3,8S519.7,359.6,519.7,359.6z"/>
		<g>
			<path class="st22" d="M443.9,340.7c-0.3,1.2-0.5,2.5-0.6,3.7c-0.2,1.3-0.3,2.5-0.3,3.8c0,2.5,0.3,5,1,7.4c0.7,2.4,2,4.5,3.7,6.3
				c0.9,0.9,1.8,1.7,2.9,2.4c1,0.7,2.2,1.3,3.3,1.9c-2.4-0.7-4.8-1.9-6.7-3.7c-1.9-1.8-3.4-4.1-4.2-6.5c-0.8-2.5-1.1-5.1-0.9-7.7
				C442.4,345.6,442.9,343,443.9,340.7z"/>
		</g>
		<g>
			<path class="st21" d="M513.4,369.9c-1-1.6-2.1-2.8-3.2-3.9c-1.1-1.1-2.1-2.3-3.4-3.2c-1.3-1-2.9-1.6-4.5-2.3
				c-0.8-0.3-1.6-0.5-2.5-0.8c-0.8-0.2-1.7-0.4-2.6-0.6l0-0.3c0.9,0,1.8,0,2.7,0c0.9,0.1,1.8,0.2,2.7,0.3c1.8,0.3,3.6,0.8,5.3,1.6
				l0.7,0.3l0.6,0.3c0.4,0.2,0.9,0.4,1.3,0.7c0.8,0.5,1.5,1.3,2.1,2.1c0.5,0.8,1,1.8,1.2,2.7c0.2,1,0.3,2-0.1,3L513.4,369.9z"/>
		</g>
		<path class="st4" d="M346.2,540c0,0,3.1,2.2,7.9,1.9c4.8-0.3,15.4,3.5,19.6,8.7c4.2,5.1,16,11.6,16,11.6s6.8,4.5,6.8,6.1
			c0,0,4.5,1.6,4.2,4.8c-0.3,3.2-4.6,5.5-11,4.5s-9.3-7.4-9.3-7.4l-7-0.6c0,0,1,1.6,0,4.5c0,0,7.3,10.3,7.7,20.2
			c0,0,4.2,12.2,3.2,15.8c0,0,6,7.7,5.4,10.3c0,0,9.7,5.1,5.5,11.2c0,0,1.9,6.1-2.6,5.5c-4.5-0.6-1.9,0-1.9,0s-3.5-3.3-5.5-3.6
			c-1.9-0.3-8.4-5.5-8.4-5.5s-10.9-8.4-10.9-13.8s-6.1-17.7-6.1-17.7s-11.9-18.3-17.4-22.8s-15.8-13.2-15.8-13.2L346.2,540z"/>
		
			<ellipse transform="matrix(0.6787 -0.7344 0.7344 0.6787 -112.5999 487.5321)" class="st21" cx="500.9" cy="372.4" rx="4.2" ry="2.8"/>
		<g>
			<path class="st22" d="M494,409.2c-0.8-0.7-1.6-1.3-2.5-1.9c-0.9-0.5-1.7-1-2.7-1.3l-0.8-0.2c-0.3-0.1-0.6-0.2-0.8-0.4
				c-0.5-0.3-0.9-0.7-1.3-1.2c-0.7-0.9-1-2-1-3.1c0.4,1,0.9,1.9,1.6,2.6c0.3,0.3,0.7,0.7,1.1,0.9c0.2,0.1,0.4,0.2,0.6,0.3l0.7,0.2
				c1.1,0.3,2.1,0.9,2.9,1.6C492.8,407.5,493.5,408.3,494,409.2z"/>
		</g>
		<path class="st15" d="M587.9,668.9h15.4l40.2-25.4l14.7-20.7v-4.9c0,0-23.1-93-51.4-99.4c-28.3-6.4-78,18.4-78,18.4
			s-53.1,24-65.1,26.1c-12,2.1-32.1,5.6-45,2.6C470.8,585.3,556,530.5,575,530c18-0.4,25.3-1.7,32.5,10c2.1,3.4,5.4,20.2,11.8,68.4
			C625.8,656.7,587.9,668.9,587.9,668.9z"/>
		<path class="st4" d="M593,517.1c0,0,0.4-8.1,4.5-8.6c4.1-0.4,4.9,0.9,6.9,0.9c1.9,0,4.7,3.4,2.1,7.7
			C603.9,521.4,593,517.1,593,517.1z"/>
		<path class="st4" d="M617,522.9c1.9-1.8,6.9-4.3,10.3-1.7s3.4,5.6,3.4,6.9c0,0,4.9,0.6,6,3.6s0.9,6.5,0,8.3c0,0,4.9-0.6,5.6,3.1
			c0.6,3.6,0.2,4.9-3.6,6.9c0,0,3.9-0.6,3.9,3.4c0,4.1-2.4,7.9-6.2,6c-3.9-1.9-1.7-7.5-1.7-7.5s-6.2,4.3-9.4-0.6
			c0,0-2.4-3.2,1.9-6.2s6.1-2.4,8.1-4.7c0,0-5.6,2.1-7.9,2.6c-2.4,0.4-6.6,4.7-9.4,0.9c-2.8-3.9,1.1-7.9,4.1-9.6
			c0,0-6.9,4.3-8.8,1.3C611.2,532.4,610.2,529.1,617,522.9z"/>
		<g id="Capa_2_1_">
			<g id="Capa_1-2">
				<path class="st7" d="M392.6,476.8c-0.8,0.1-1.5,0.7-1.7,1.5l0,0l-3.7,13.9c-0.1,0.4-0.5,0.6-0.9,0.5c-0.1,0-0.1,0-0.2-0.1
					c-2.9-1.8-4.3-5.2-3.4-8.5c0-0.1,0.1-0.2,0.1-0.3l0-0.1c0-0.1,0.1-0.2,0.1-0.2l0-0.1c0.1-0.2,0.2-0.4,0.2-0.6l0-0.1
					c0-0.1,0.1-0.2,0.1-0.2c0,0,0,0,0,0c0.1-0.2,0.2-0.4,0.3-0.6l0,0c0.1-0.1,0.1-0.2,0.2-0.3l0,0c0.1-0.2,0.3-0.4,0.4-0.5l0,0
					c0.1-0.2,0.3-0.3,0.4-0.5l0,0c0.1-0.1,0.1-0.1,0.2-0.2c0,0,0,0,0,0c0.1-0.1,0.1-0.1,0.2-0.2l0,0c0.1-0.1,0.2-0.1,0.2-0.2
					l0.1-0.1c0.3-0.3,0.7-0.5,1.1-0.7c0.2-0.1,0.3-0.2,0.5-0.2c0.4-0.2,0.6-0.7,0.5-1.1c0,0,0-0.1-0.1-0.1l-0.4-0.8
					c-0.2-0.4-0.7-0.5-1.1-0.4c-0.6,0.3-1.1,0.6-1.6,0.9l0,0l0,0c-0.1,0.1-0.2,0.2-0.3,0.2l0,0c-0.1,0.1-0.2,0.2-0.3,0.2l-0.1,0
					c-0.2,0.2-0.4,0.4-0.6,0.6l-0.1,0.1c-0.2,0.2-0.4,0.4-0.6,0.6c0,0,0,0-0.1,0.1c-0.1,0.1-0.2,0.2-0.2,0.3l0,0
					c-0.1,0.1-0.2,0.2-0.2,0.3l-0.1,0.1c-0.1,0.1-0.1,0.2-0.2,0.3l0,0c-0.1,0.1-0.1,0.2-0.2,0.3l0,0.1c-0.1,0.1-0.1,0.2-0.2,0.3
					c0,0,0,0.1,0,0.1c-0.1,0.1-0.1,0.2-0.2,0.4c0,0,0,0,0,0.1c-0.1,0.1-0.1,0.2-0.2,0.3c0,0,0,0.1,0,0.1c-0.1,0.1-0.1,0.3-0.2,0.4
					c0,0,0,0,0,0c0,0.1-0.1,0.2-0.1,0.4c0,0,0,0.1,0,0.1c0,0.1-0.1,0.3-0.1,0.4l0,0c-1.3,4.8,1.1,9.8,5.6,11.9
					c0.3,0.1,0.5,0.5,0.4,0.8l-1,3.8c-0.1,0.4,0.1,0.8,0.5,0.9c0,0,0,0,0,0l1.1,0.3c0.4,0.1,0.8-0.1,0.9-0.5l0,0l1-3.8
					c0.1-0.3,0.4-0.5,0.7-0.5c2.1,0.2,4.2-0.3,6-1.4c0.8-0.4,1.4-1,2.1-1.6c4-4,4.1-10.5,0.1-14.6c-0.5-0.5-1.1-1-1.8-1.4
					C394.8,476.9,393.7,476.7,392.6,476.8z M396.1,491.2c-1.4,1.6-3.5,2.6-5.6,2.7c-0.4,0-0.7-0.3-0.7-0.7c0-0.1,0-0.1,0-0.2
					l3.2-12.2c0.2-0.7,0.9-1.1,1.5-0.9c0.2,0,0.3,0.1,0.4,0.2c3.4,2.6,4,7.4,1.4,10.8C396.3,491,396.2,491.1,396.1,491.2
					L396.1,491.2z"/>
				<g>
					<path class="st23" d="M361.3,501.2c-0.1,0-0.2-0.1-0.4-0.2c-0.2-0.1-0.3-0.1-0.5-0.2c-0.1,0-0.3-0.1-0.4,0
						c-0.1,0.1-0.3,0.8-0.3,1l1,0.3c0.2,0.1,0.3,0.1,0.3,0.4l-0.1,0.4c-0.1,0.3-0.2,0.4-0.5,0.3l-1-0.3l-0.9,3.3
						c-0.1,0.3-0.2,0.4-0.5,0.4l-0.6-0.2c-0.3-0.1-0.3-0.2-0.2-0.5l0.9-3.4l-0.3-0.1c-0.2-0.1-0.2-0.2-0.2-0.4l0.1-0.4
						c0.1-0.4,0.4-0.2,0.6-0.1l0.1-0.4c0.1-0.4,0.2-0.8,0.6-1.1c0.6-0.5,1.3-0.3,1.9-0.1c0.2,0.1,0.7,0.2,0.8,0.4c0,0.1,0,0.2,0,0.2
						l0,0.1C361.8,500.8,361.6,501.3,361.3,501.2z M363.3,502l-0.4-0.1c-0.4-0.1-0.5-0.2-0.4-0.6l0.1-0.4c0.1-0.3,0.3-0.4,0.6-0.3
						l0.5,0.1c0.2,0.1,0.4,0.3,0.3,0.5c0,0,0,0,0,0.1l-0.1,0.4C363.8,502,363.6,502.1,363.3,502L363.3,502z M361.8,507.6l-0.4-0.1
						c-0.4-0.1-0.5-0.2-0.4-0.6l1.1-4c0.1-0.3,0.3-0.4,0.6-0.3l0.5,0.1c0.2,0.1,0.4,0.3,0.3,0.5c0,0,0,0,0,0.1l-1.1,4
						C362.3,507.6,362.2,507.7,361.8,507.6L361.8,507.6z"/>
					<path class="st23" d="M365.5,508.7c-0.5-0.1-1-0.3-1.4-0.5c-0.3-0.1-0.2-0.3-0.2-0.5l0-0.2c0.1-0.2,0.1-0.5,0.4-0.4
						c0.2,0.1,0.3,0.1,0.5,0.2c0.3,0.1,0.7,0.2,1,0.3c0.4,0.1,0.5,0.1,0.6-0.2c0-0.1,0.1-0.2,0-0.4c-0.1-0.1-0.9-0.6-1-0.7
						c-0.2-0.1-0.4-0.2-0.5-0.4c-0.5-0.4-0.6-0.7-0.4-1.3c0.4-1.6,1.5-1.3,2.7-0.9c0.3,0.1,0.5,0.1,0.7,0.2c0.4,0.1,0.5,0.2,0.4,0.6
						c-0.1,0.3-0.1,0.6-0.5,0.5c-0.2,0-0.3-0.1-0.5-0.2c-0.3-0.1-0.5-0.2-0.8-0.3c-0.4-0.1-0.6-0.2-0.7,0.2c0,0.1,0,0.1,0,0.2
						c0.1,0.2,1,0.7,1.2,0.8c0.7,0.5,1,0.8,0.8,1.7C367.4,509,366.7,509.1,365.5,508.7z"/>
					<path class="st23" d="M371.2,504.1l-0.4-0.1c-0.4-0.1-0.5-0.2-0.4-0.6l0.1-0.4c0.1-0.3,0.2-0.4,0.6-0.3l0.5,0.1
						c0.2,0.1,0.4,0.3,0.3,0.5c0,0,0,0,0,0.1l-0.1,0.4C371.6,504.1,371.5,504.2,371.2,504.1z M369.7,509.7l-0.4-0.1
						c-0.4-0.1-0.5-0.2-0.4-0.6l1.1-4c0.1-0.3,0.2-0.4,0.6-0.3l0.5,0.1c0.2,0.1,0.4,0.3,0.3,0.5c0,0,0,0,0,0.1l-1.1,4
						C370.2,509.6,370,509.8,369.7,509.7z"/>
					<path class="st23" d="M374.6,511.1c-0.3,0-0.6-0.1-0.9-0.2c-2-0.5-2.1-1.3-1.6-3.2c0.5-1.9,1-2.5,3-2c0.3,0.1,0.6,0.2,0.9,0.3
						c0.3,0.1,0.6,0.1,0.5,0.5l0,0c-0.1,0.3-0.2,0.8-0.6,0.7c-0.1,0-0.3-0.1-0.4-0.1c-0.3-0.1-0.6-0.2-0.9-0.3
						c-0.4-0.1-0.5-0.1-0.7,0.3c-0.2,0.3-0.3,0.7-0.4,1c-0.1,0.3-0.2,0.7-0.2,1c-0.1,0.5,0.1,0.6,0.5,0.7c0.3,0.1,0.7,0.1,1,0.2
						c0.1,0,0.3,0,0.4,0.1c0.1,0,0.2,0.1,0.2,0.2c0.1,0.1,0,0.6-0.1,0.7C375.2,511.2,374.9,511.1,374.6,511.1z"/>
					<path class="st23" d="M380,512.4l-0.6-0.2c-0.2-0.1-0.3-0.2-0.2-0.4c-0.5,0.2-1.1,0.2-1.6,0.1c-1-0.3-1.3-0.9-1.1-1.9
						c0.3-1.1,1.1-1.3,2.1-1.2c0.4,0.1,0.9,0.1,1.3,0.3c0.1-0.4,0.3-1-0.3-1.1c-0.5-0.1-1-0.2-1.5-0.2c-0.1,0-0.2,0-0.3,0
						c-0.4-0.1-0.2-0.4-0.1-0.7c0-0.2,0.2-0.4,0.4-0.4c0.6,0,1.2,0.1,1.7,0.2c0.5,0.1,1.1,0.4,1.3,0.9c0.3,0.6,0.1,1.2,0,1.7
						l-0.7,2.5C380.5,512.4,380.3,512.5,380,512.4z M379.7,510.1c-0.2,0-0.3-0.1-0.5-0.2c-0.2-0.1-0.4-0.1-0.6-0.1
						c-0.4-0.1-0.6,0-0.8,0.5c-0.1,0.2-0.1,0.7,0.2,0.8c0.5,0.1,1,0.1,1.5-0.1L379.7,510.1z"/>
					<path class="st23" d="M382.7,513.2l-0.4-0.1c-0.4-0.1-0.5-0.2-0.4-0.6l1.6-6.1c0.1-0.3,0.2-0.4,0.6-0.3l0.5,0.1
						c0.2,0,0.4,0.3,0.3,0.5c0,0,0,0,0,0.1l-1.6,6.1C383.2,513.1,383,513.2,382.7,513.2z"/>
					<path class="st23" d="M387.6,514.5c-0.3,0-0.6-0.1-0.9-0.2c-2-0.5-2.1-1.3-1.6-3.2c0.5-1.9,1-2.5,3-2c0.3,0.1,0.6,0.2,0.9,0.3
						c0.3,0.1,0.6,0.1,0.5,0.5l0,0c-0.1,0.3-0.2,0.8-0.6,0.7c-0.1,0-0.3-0.1-0.4-0.1c-0.3-0.1-0.6-0.2-0.9-0.3
						c-0.4-0.1-0.5-0.1-0.7,0.3c-0.2,0.3-0.3,0.7-0.4,1c-0.1,0.3-0.2,0.7-0.2,1c-0.1,0.5,0.1,0.6,0.5,0.7c0.3,0.1,0.7,0.1,1,0.2
						c0.1,0,0.3,0,0.4,0.1c0.1,0,0.2,0.1,0.2,0.2c0.1,0.1,0,0.6-0.1,0.7C388.1,514.7,387.9,514.6,387.6,514.5z"/>
					<path class="st23" d="M391.6,515.6c-1.7-0.4-2.1-1.6-1.7-3.2c0.4-1.6,1.3-2.4,3-2c1.7,0.5,2.1,1.6,1.6,3.2
						C394.2,515.3,393.3,516.1,391.6,515.6z M393.4,512.1c-0.1-0.4-0.4-0.5-0.7-0.5s-0.7-0.2-0.9,0.1c-0.3,0.3-0.4,0.8-0.5,1.1
						c-0.1,0.4-0.2,0.9-0.1,1.2c0.1,0.4,0.4,0.4,0.8,0.5c0.3,0.1,0.7,0.2,0.9-0.1c0.3-0.3,0.4-0.8,0.5-1.1
						C393.4,513,393.5,512.5,393.4,512.1z"/>
					<path class="st23" d="M398.8,517.4l-0.6-0.2c-0.2-0.1-0.3-0.2-0.2-0.4c-0.5,0.2-1.1,0.2-1.6,0.1c-1-0.3-1.3-0.9-1.1-1.9
						c0.3-1.1,1.1-1.3,2.1-1.2c0.4,0.1,0.9,0.1,1.3,0.3c0.1-0.4,0.3-1-0.3-1.1c-0.5-0.1-1-0.2-1.5-0.2c-0.1,0-0.2,0-0.3,0
						c-0.4-0.1-0.2-0.4-0.1-0.7c0-0.2,0.2-0.4,0.4-0.4c0.6,0,1.2,0.1,1.7,0.2c0.5,0.1,1.1,0.4,1.3,0.9c0.3,0.6,0.1,1.2,0,1.7
						l-0.7,2.5C399.3,517.4,399.1,517.5,398.8,517.4z M398.5,515c-0.2,0-0.3-0.1-0.5-0.2c-0.2-0.1-0.4-0.1-0.6-0.1
						c-0.4-0.1-0.6,0-0.8,0.5c-0.1,0.2-0.1,0.7,0.2,0.8c0.5,0.1,1,0.1,1.5-0.1L398.5,515z"/>
					<path class="st23" d="M403.6,518.8c-0.3,0-0.6-0.1-0.9-0.2c-2-0.5-2.1-1.3-1.6-3.2c0.5-1.9,1-2.5,3-2c0.3,0.1,0.6,0.2,0.9,0.3
						c0.3,0.1,0.6,0.1,0.5,0.5l0,0c-0.1,0.3-0.2,0.8-0.6,0.7c-0.1,0-0.3-0.1-0.4-0.1c-0.3-0.1-0.6-0.2-0.9-0.3
						c-0.4-0.1-0.5-0.1-0.7,0.3c-0.2,0.3-0.3,0.7-0.4,1c-0.1,0.3-0.2,0.7-0.2,1c-0.1,0.5,0.1,0.6,0.5,0.7c0.3,0.1,0.7,0.1,1,0.2
						c0.1,0,0.3,0,0.4,0.1c0.1,0,0.2,0.1,0.2,0.2c0.1,0.1,0,0.6-0.1,0.7C404.2,518.9,404,518.8,403.6,518.8z"/>
					<path class="st23" d="M409.2,520.1l-0.5-0.1c-0.3-0.1-0.3-0.3-0.2-0.6l0.7-2.6c0-0.1,0.2-0.7,0.1-0.8c-0.1-0.1-0.2-0.1-0.3-0.2
						c-0.5-0.1-0.9,0-1.4,0.1l-0.8,3c-0.1,0.3-0.2,0.4-0.5,0.4l-0.5-0.1c-0.3-0.1-0.3-0.2-0.3-0.5l1.6-6.2c0.1-0.3,0.2-0.4,0.6-0.3
						l0.5,0.1c0.2,0,0.4,0.3,0.3,0.5c0,0,0,0,0,0.1l-0.5,1.9c0.5-0.1,1-0.1,1.5,0c0.9,0.2,1.4,0.9,1.2,1.9l-0.8,3.1
						C409.6,520.1,409.5,520.2,409.2,520.1z"/>
				</g>
			</g>
		</g>
		<path class="st7" d="M871.1,633.9c-1.1-0.8-3.2-0.8-5.2-0.2l0,0l-35,11.7c-1,0.3-1.9,0.1-2.1-0.4c0-0.1,0-0.2,0-0.3
			c0.9-5.3,7.1-10.8,15.4-13.5c0.3-0.1,0.5-0.2,0.8-0.3l0.3-0.1c0.2-0.1,0.4-0.1,0.6-0.2l0.2-0.1c0.5-0.1,1-0.3,1.5-0.4l0.2,0
			c0.2,0,0.4-0.1,0.7-0.1c0,0,0.1,0,0.1,0c0.5-0.1,1-0.2,1.6-0.3l0.1,0c0.2,0,0.5-0.1,0.7-0.1l0,0c0.5-0.1,1.1-0.1,1.6-0.1l0.1,0
			c0.5,0,1,0,1.5,0l0,0c0.2,0,0.5,0,0.7,0c0,0,0.1,0,0.1,0c0.2,0,0.4,0,0.6,0l0.1,0c0.2,0,0.4,0,0.7,0l0.2,0
			c0.9,0.1,1.8,0.2,2.7,0.4c0.4,0.1,0.7,0.2,1,0.3c0.9,0.3,2.2,0,3-0.7c0.1-0.1,0.1-0.1,0.2-0.2l1.2-1.4c0.6-0.7,0.4-1.4-0.4-1.6
			c-1.2-0.4-2.4-0.6-3.8-0.8l0,0l-0.1,0c-0.3,0-0.6-0.1-0.9-0.1l0,0c-0.3,0-0.6-0.1-0.9-0.1l-0.2,0c-0.6,0-1.2,0-1.9,0l-0.2,0
			c-0.6,0-1.3,0-1.9,0c-0.1,0-0.1,0-0.2,0c-0.3,0-0.6,0-0.9,0.1l-0.1,0c-0.3,0-0.7,0.1-1,0.1l-0.2,0c-0.3,0-0.6,0.1-0.9,0.1l-0.1,0
			c-0.3,0-0.7,0.1-1,0.2l-0.2,0c-0.3,0-0.6,0.1-0.9,0.2c-0.1,0-0.1,0-0.2,0c-0.3,0.1-0.7,0.1-1,0.2c0,0-0.1,0-0.1,0
			c-0.3,0.1-0.6,0.1-0.9,0.2c-0.1,0-0.2,0-0.3,0.1c-0.3,0.1-0.7,0.2-1,0.3c0,0-0.1,0-0.1,0c-0.3,0.1-0.6,0.2-0.9,0.3
			c-0.1,0-0.2,0.1-0.3,0.1c-0.3,0.1-0.7,0.2-1,0.3l0,0c-12.1,4-20.8,12.3-20.7,19.8c0,0.5-0.6,1.1-1.4,1.4l-9.4,3.1
			c-1,0.3-1.6,1-1.4,1.6c0,0,0,0,0,0l0.5,1.6c0.2,0.5,1.1,0.7,2.1,0.4l0,0l9.4-3.1c0.8-0.3,1.6-0.2,1.9,0.2c1.9,2.5,5.1,4.3,9.4,5.2
			c1.8,0.3,3.7,0.5,5.7,0.5c13.2,0,27.8-7.4,32.6-16.5c0.6-1.2,1.1-2.5,1.3-3.7C873.3,636.4,872.6,634.9,871.1,633.9z M842.8,654.1
			c-5.2,0.3-9.5-0.9-12-3.3c-0.4-0.4-0.1-1.2,0.8-1.6c0.2-0.1,0.3-0.2,0.5-0.2l30.7-10.2c1.7-0.5,3.2-0.2,3.6,0.7
			c0.1,0.2,0.1,0.5,0,0.7c-2.2,6.7-12.3,12.9-22.6,13.9C843.5,654.1,843.2,654.1,842.8,654.1L842.8,654.1z"/>
		<path class="st24" d="M1026,581.4c7.7-5.5,6.6-22.2,3.6-25.4c0,0-1,7.8-1.6,6.5c-2.8-6.6-7.2-14.7-15.6-23.4
			c-2.7-1.5-5.7-3.1-8-3.7c0,0,30.5,35.6,7.7,38.7c0,0,8.7,11.2,5.1,16.3c-3.8,5.5-12.5,5.9-20.9,3.9c0,0-1.6,14.8-16.7,19.3
			c-19,8.7-20.9,14.5-18.3,19.3c2.6,4.8,0,8.7,0,8.7c8.4,1.3,5.8-5.1,14.1-6.8c8.4-1.6,23.1-5.5,46.6-20.6
			C1045.6,599.1,1026,581.4,1026,581.4z"/>
		<path class="st3" d="M293.4,588.1c0,0,43.9-27.9,52.2-46.4c1.2-2.7,2-7.2,2-7.2c-4.8-2.1-9.2-7.1-9.2-7.1
			c-8.7-16.7-17.1-15.8-17.1-15.8s-10.7-0.5-13.3-10c-2.6-9.4-9.4-12.4-9.4-12.4c3-3,9.9-1.7,21.4-1.7s32.1-18,32.1-18
			c5.8-7.8,10.2-14.7,13.3-20.9l6.4-18c0,0,0,0,0,0c-0.3,0.6-20.1,35.3-34.7,39.4c-14.8,4.1-45,6.5-50.1,9.8c0,0,7.1,6.8,7.7,23.4
			c0.6,16.5,21.9,24.9,24.4,32C321.7,542.2,323.6,560.7,293.4,588.1z"/>
		<path class="st3" d="M426.3,522c1.4-4.8,2.4-18.3-4-32.1c-6.4-13.8-14.6-45.3-16.6-48.9c0,0,0.2-2.6,5.7-10.9
			c0,0-12.2-14.1-16.7-18.6c0,0-2.7-7.1-3.6-17.1l0,0c0,0-4.3,18.3-0.8,21.7s15.2,14.5,15.2,14.5s-5.1,8.8-5.2,11.3
			c-0.1,2.6,20.9,55.2,22,64.3c1.1,9-1.8,21.2,5.7,42.2l1.3-7.1C427.7,535.6,425.3,525.4,426.3,522z"/>
		<path class="st25" d="M467.6,356.4c0,0,6.4,0.6,14.8-6.4c8.4-7.1,15.4-3.5,14.1-9.6c-1.3-6.1,3.5-3.5,4.5-1c1,2.6,4.5,3.9,7.1,3.9
			c2.6,0,1.6,9.6,9.3,8c7.7-1.6,2.2,8.4,2.2,8.4s-1,2.6,2.9,2.6c3.9,0,0,3.2,0,3.2s9.6-1.3,7.1-5.8c0,0,2.8,1,0.4-5.1
			c0,0,5.3-2.6-1.4-7.7c0,0,9-3.2,1.6-12.9c0,0,2.2-7.7-7.4-10c0,0-2.6-10.6-9.6-8.4c0,0,2.6-4.8-4.8-7.1c0,0-4.8-10.6-11.9-9
			c0,0-4.2-10-12.5-6.1c0,0,10,4.5,5.5,10.6c0,0,6.8,3.9,2.9,8.7c0,0,4.1,7.4-1.7,10c0,0,0.7,8.4-8,8c0,0-1,6.8-9,5.8
			c0,0,0,6.1-6.1,5.8c0,0-1.3,1-4.2,1C463.5,343.2,472.5,347.8,467.6,356.4z"/>
		<polygon class="st26" points="965.3,732.7 940.8,808 952.6,806.2 977.8,721.6 		"/>
		<path class="st15" d="M558.3,815l15.2,6.6l13.5-8.7l4.4-41.5l-8.6-22.1c0,0,9.6,34.7-9,39.2c-18.6,4.5-34.7-20.6-46.3-13.5
			c-11.6,7.1-97.7,75.9-254.6,72c-107.6-2.6-132.3-19.2-137.2-29.4c0,0,0,0.1,0,0.1c-1,7.4,3.5,25.1,19,41.1
			c3.5,3.6,78.1,22.8,85.8,22.5c7.7-0.3,13.2-11.4,13.2-11.4c5.1-2.7,18.6-0.1,23.5-1.2c3.2-0.7,14.9-7,20.2-6.9
			c174.5,5.3,188.1-19.9,194.1-24.6s30-17.1,32.6-18.4s6.9-3.4,9.9-3.9C536.9,814.6,558.3,815,558.3,815z"/>
	</g>
	<polygon class="st9" points="84,970.7 26.1,837.3 26.1,807.1 84,937.5 	"/>
	<g>
		<g>
			<path class="st2" d="M116.2,816.1c-1.2-0.9-3.1-1.2-4.8-0.9l0,0l-30.6,6c-0.8,0.2-1.7-0.1-2-0.7c0-0.1-0.1-0.2-0.1-0.3
				c0-4.8,4.9-9,12.1-10.5c0.2,0,0.4-0.1,0.7-0.1l0.2,0c0.2,0,0.3-0.1,0.5-0.1l0.1,0c0.4-0.1,0.9-0.1,1.4-0.1l0.1,0
				c0.2,0,0.4,0,0.6,0c0,0,0.1,0,0.1,0c0.5,0,0.9,0,1.4,0l0.1,0c0.2,0,0.4,0,0.7,0l0,0c0.5,0,1,0,1.4,0.1l0.1,0
				c0.5,0,0.9,0.1,1.4,0.2l0,0c0.2,0,0.4,0.1,0.6,0.1c0,0,0.1,0,0.1,0c0.2,0,0.4,0.1,0.6,0.1l0.1,0c0.2,0,0.4,0.1,0.6,0.1l0.2,0
				c0.9,0.2,1.7,0.5,2.5,0.8c0.3,0.1,0.7,0.3,1,0.4c0.9,0.4,2,0.3,2.7-0.3c0,0,0.1-0.1,0.1-0.1l0.9-1.1c0.5-0.5,0.2-1.2-0.6-1.6
				c-1.1-0.5-2.4-0.9-3.6-1.3l0,0l0,0c-0.3-0.1-0.6-0.2-0.9-0.2l0,0c-0.3-0.1-0.5-0.1-0.8-0.2l-0.1,0c-0.5-0.1-1.1-0.2-1.7-0.3
				l-0.2,0c-0.6-0.1-1.2-0.2-1.8-0.2c-0.1,0-0.1,0-0.2,0c-0.3,0-0.6-0.1-0.8-0.1l-0.1,0c-0.3,0-0.6,0-0.9,0l-0.2,0
				c-0.3,0-0.5,0-0.8,0l-0.1,0c-0.3,0-0.6,0-0.9,0l-0.2,0c-0.3,0-0.5,0-0.8,0c-0.1,0-0.1,0-0.2,0c-0.3,0-0.6,0-0.9,0.1
				c0,0-0.1,0-0.1,0c-0.3,0-0.6,0-0.8,0.1c-0.1,0-0.2,0-0.2,0c-0.3,0-0.6,0.1-0.9,0.1c0,0-0.1,0-0.1,0c-0.3,0-0.5,0.1-0.8,0.1
				c-0.1,0-0.2,0-0.2,0c-0.3,0.1-0.6,0.1-0.9,0.2l0,0c-10.5,2-17.3,8.6-16,15.5c0.1,0.5-0.4,0.9-1.1,1.1l-8.3,1.6
				c-0.8,0.2-1.3,0.7-1.1,1.3c0,0,0,0,0,0l0.7,1.5c0.3,0.5,1.1,0.8,2,0.7l0,0l8.3-1.6c0.7-0.1,1.5,0.1,1.8,0.5
				c2.1,2.6,5.5,4.8,9.6,6.1c1.7,0.6,3.5,1,5.4,1.3c12.3,1.9,24.6-2.9,27.6-10.8c0.4-1.1,0.6-2.1,0.6-3.2
				C118.8,818.8,117.9,817.3,116.2,816.1z M93.3,831c-4.8-0.5-9-2.2-11.7-4.8c-0.5-0.5-0.3-1.1,0.4-1.4c0.1-0.1,0.3-0.1,0.4-0.1
				l26.9-5.2c1.4-0.3,3,0.2,3.4,1.2c0.1,0.2,0.1,0.4,0.1,0.7c-0.9,6-9.3,10.3-18.7,9.7C93.9,831,93.6,831,93.3,831L93.3,831z"/>
			<path class="st2" d="M89.9,852.1c-0.1-0.2-0.1-0.4-0.1-0.6c-0.1-0.2-0.2-0.5-0.3-0.7c-0.1-0.2-0.2-0.4-0.5-0.5
				c-0.4-0.1-1.9,0.3-2.3,0.3l0.7,1.4c0.2,0.3,0.1,0.5-0.4,0.6l-0.9,0.2c-0.6,0.1-0.9,0.1-1.1-0.3l-0.7-1.4l-7.3,1.4
				c-0.6,0.1-1,0.1-1.2-0.3l-0.4-0.9c-0.2-0.4,0.2-0.5,0.7-0.6l7.4-1.4l-0.2-0.4c-0.1-0.3,0.2-0.4,0.6-0.5l1-0.2
				c0.8-0.2,0.8,0.3,1,0.6l0.9-0.2c0.9-0.2,1.9-0.3,2.8-0.1c1.5,0.3,2,1.3,2.5,2.2c0.1,0.3,0.5,1,0.1,1.3c-0.1,0.1-0.3,0.1-0.4,0.2
				l-0.2,0C91.2,852.3,90.1,852.5,89.9,852.1z M90.6,855.1l-0.3-0.6c-0.2-0.5-0.3-0.8,0.6-0.9l0.8-0.2c0.7-0.1,1.1,0,1.3,0.4
				l0.3,0.7c0.2,0.3-0.1,0.6-0.6,0.7c0,0-0.1,0-0.1,0l-0.8,0.2C91.3,855.6,90.8,855.5,90.6,855.1L90.6,855.1z M78.4,857.5l-0.3-0.6
				c-0.2-0.5-0.2-0.8,0.6-0.9l8.7-1.7c0.7-0.1,1.1,0,1.3,0.4l0.3,0.7c0.2,0.3-0.1,0.6-0.6,0.7c0,0-0.1,0-0.1,0l-8.7,1.7
				C79,858,78.6,857.9,78.4,857.5L78.4,857.5z"/>
			<path class="st2" d="M80.5,862.6c-0.4-0.7-0.6-1.4-0.8-2.1c-0.1-0.4,0.2-0.5,0.8-0.6l0.4-0.1c0.5-0.1,1-0.2,1.2,0.2
				c0.1,0.3,0.2,0.5,0.2,0.8c0.2,0.5,0.4,1,0.6,1.5c0.2,0.5,0.3,0.7,1.2,0.5c0.3,0,0.5-0.1,0.7-0.2c0.2-0.2,0.1-1.5,0.1-1.8
				c0-0.3,0.1-0.6,0.1-0.9c0.2-0.9,0.7-1.2,2-1.5c3.4-0.7,4.1,0.8,4.9,2.6c0.2,0.4,0.3,0.7,0.5,1.1c0.2,0.5,0.1,0.8-0.8,0.9
				c-0.6,0.1-1.4,0.3-1.6-0.3c-0.1-0.2-0.2-0.5-0.3-0.8c-0.1-0.4-0.3-0.8-0.5-1.2c-0.3-0.5-0.3-0.9-1.3-0.7c-0.2,0-0.3,0.1-0.4,0.2
				c-0.2,0.2-0.2,1.7-0.2,2c0,1.2-0.4,1.9-2.3,2.2C82.2,865.2,81.4,864.4,80.5,862.6z"/>
			<path class="st2" d="M95.9,866.1l-0.3-0.5c-0.2-0.5-0.3-0.8,0.6-0.9l0.8-0.2c0.7-0.1,1.1,0,1.3,0.4l0.3,0.7
				c0.2,0.3-0.1,0.6-0.6,0.7c0,0-0.1,0-0.1,0l-0.8,0.2C96.6,866.6,96.1,866.5,95.9,866.1z M83.6,868.5l-0.3-0.5
				c-0.2-0.5-0.2-0.8,0.6-0.9l8.7-1.7c0.7-0.1,1.1,0,1.3,0.4l0.3,0.7c0.2,0.3-0.1,0.6-0.6,0.7c0,0-0.1,0-0.1,0l-8.7,1.7
				C84.3,869,83.9,868.9,83.6,868.5z"/>
			<path class="st2" d="M86.7,875.4c-0.3-0.4-0.5-0.8-0.7-1.2c-1.3-2.8-0.1-3.5,4.1-4.3c4.2-0.8,5.9-0.6,7.2,2.1
				c0.2,0.4,0.3,0.8,0.5,1.2c0.1,0.4,0.4,0.8-0.4,0.9l0,0c-0.6,0.1-1.7,0.3-2-0.2c-0.1-0.2-0.1-0.4-0.2-0.6
				c-0.1-0.5-0.3-0.9-0.5-1.4c-0.3-0.6-0.5-0.7-1.4-0.6c-0.8,0.1-1.5,0.2-2.3,0.3c-0.7,0.1-1.4,0.3-2.1,0.5c-1,0.3-1,0.5-0.7,1.1
				c0.2,0.4,0.5,0.9,0.8,1.3c0.1,0.2,0.3,0.4,0.4,0.5c0.1,0.1,0.1,0.3-0.1,0.4c-0.1,0.1-1.2,0.4-1.4,0.5
				C87.2,876.1,87,875.8,86.7,875.4z"/>
			<path class="st2" d="M90.6,882.9l-0.4-0.8c-0.2-0.3,0.1-0.5,0.6-0.6c-1-0.5-1.7-1.1-2.1-1.9c-0.7-1.4,0.2-2.3,2.3-2.7
				c2.4-0.5,3.7,0.3,4.6,1.6c0.4,0.6,0.8,1.2,1,1.8c0.9-0.2,2.2-0.3,1.8-1.1c-0.4-0.7-0.9-1.3-1.5-2c-0.1-0.1-0.2-0.2-0.2-0.3
				c-0.2-0.5,0.6-0.6,1.1-0.7c0.4-0.1,0.9,0,1.1,0.2c0.7,0.7,1.2,1.5,1.6,2.2c0.3,0.7,0.6,1.6,0,2.2c-0.7,0.7-2.1,1-3.4,1.2
				l-5.4,1.1C91.2,883.4,90.8,883.3,90.6,882.9z M94.7,880.8c-0.1-0.2-0.2-0.5-0.3-0.7c-0.1-0.3-0.3-0.6-0.5-0.9
				c-0.4-0.6-0.8-0.7-1.8-0.6c-0.5,0.1-1.5,0.3-1.2,0.8c0.4,0.7,1.1,1.3,2,1.7L94.7,880.8z"/>
			<path class="st2" d="M92.4,886.6l-0.2-0.5c-0.2-0.5-0.2-0.8,0.6-0.9l13.4-2.6c0.7-0.1,1,0,1.3,0.4l0.3,0.6
				c0.2,0.3-0.1,0.6-0.5,0.7c0,0-0.1,0-0.2,0L93.7,887C93,887.1,92.6,887.1,92.4,886.6z"/>
			<path class="st2" d="M95.5,893.5c-0.3-0.4-0.5-0.8-0.7-1.2c-1.3-2.8-0.1-3.5,4.1-4.3c4.2-0.8,5.9-0.6,7.2,2.1
				c0.2,0.4,0.3,0.8,0.5,1.2c0.1,0.4,0.4,0.8-0.4,0.9l0,0c-0.6,0.1-1.7,0.3-2-0.2c-0.1-0.2-0.1-0.4-0.2-0.6
				c-0.1-0.5-0.3-0.9-0.5-1.4c-0.3-0.6-0.5-0.7-1.4-0.6c-0.8,0.1-1.5,0.2-2.3,0.3c-0.7,0.1-1.4,0.3-2.1,0.5c-1,0.3-1,0.5-0.7,1.1
				c0.2,0.4,0.5,0.9,0.8,1.3c0.1,0.2,0.3,0.4,0.4,0.5c0.1,0.1,0.1,0.3-0.1,0.4c-0.1,0.1-1.2,0.4-1.4,0.5
				C95.9,894.2,95.8,893.9,95.5,893.5z"/>
			<path class="st2" d="M98.1,899.1c-1.1-2.4,0.6-3.7,4.1-4.4c3.5-0.7,6.1-0.2,7.2,2.2s-0.6,3.7-4.1,4.4
				C101.8,901.9,99.2,901.5,98.1,899.1z M106.9,898.7c0.6-0.4,0.4-0.8,0.2-1.3c-0.2-0.5-0.4-0.9-1.3-1c-0.8-0.1-1.9,0.1-2.7,0.2
				c-0.8,0.2-1.9,0.4-2.5,0.8c-0.6,0.4-0.4,0.8-0.1,1.3c0.2,0.5,0.4,0.9,1.2,1c0.8,0.1,2-0.1,2.7-0.2
				C105.2,899.3,106.3,899,106.9,898.7z"/>
			<path class="st2" d="M103.2,909.1l-0.4-0.8c-0.2-0.3,0.1-0.5,0.6-0.6c-1-0.5-1.7-1.1-2.1-1.9c-0.7-1.4,0.2-2.3,2.3-2.7
				c2.4-0.5,3.7,0.3,4.6,1.6c0.4,0.6,0.8,1.2,1,1.8c0.9-0.2,2.2-0.3,1.8-1.1c-0.4-0.7-0.9-1.3-1.5-2c-0.1-0.1-0.2-0.2-0.2-0.3
				c-0.2-0.5,0.6-0.6,1.1-0.7c0.4-0.1,0.9,0,1.1,0.2c0.7,0.7,1.2,1.5,1.6,2.2c0.3,0.7,0.6,1.6,0,2.2c-0.7,0.7-2.1,1-3.4,1.2
				l-5.4,1.1C103.8,909.6,103.4,909.5,103.2,909.1z M107.3,907c-0.1-0.2-0.2-0.5-0.3-0.7c-0.1-0.3-0.3-0.6-0.5-0.9
				c-0.4-0.6-0.8-0.7-1.8-0.6c-0.5,0.1-1.5,0.3-1.2,0.8c0.4,0.7,1.1,1.3,2,1.7L107.3,907z"/>
			<path class="st2" d="M106.2,915.9c-0.3-0.4-0.5-0.8-0.7-1.2c-1.3-2.8-0.1-3.5,4.1-4.3c4.2-0.8,5.9-0.6,7.2,2.1
				c0.2,0.4,0.3,0.8,0.5,1.2c0.1,0.4,0.4,0.8-0.4,0.9l0,0c-0.6,0.1-1.7,0.3-2-0.2c-0.1-0.2-0.1-0.4-0.2-0.6
				c-0.1-0.5-0.3-0.9-0.5-1.4c-0.3-0.6-0.5-0.7-1.4-0.6c-0.8,0.1-1.5,0.2-2.3,0.3c-0.7,0.1-1.4,0.3-2.1,0.5c-1,0.3-1,0.5-0.7,1.1
				c0.2,0.4,0.5,0.9,0.8,1.3c0.1,0.2,0.3,0.4,0.4,0.5c0.1,0.1,0.1,0.3-0.1,0.4c-0.1,0.1-1.2,0.4-1.4,0.5
				C106.7,916.6,106.6,916.3,106.2,915.9z"/>
			<path class="st2" d="M110.2,923.5l-0.4-0.8c-0.2-0.4,0.2-0.6,0.8-0.7l5.7-1.1c0.3-0.1,1.6-0.3,1.7-0.4c0.1-0.2,0-0.3,0-0.5
				c-0.4-0.6-1-1.2-1.9-1.5l-6.6,1.3c-0.6,0.1-1.1,0.1-1.3-0.4l-0.4-0.8c-0.2-0.4,0.1-0.6,0.6-0.7l13.5-2.6c0.7-0.1,1,0,1.3,0.4
				l0.3,0.7c0.2,0.3-0.1,0.6-0.5,0.7c0,0-0.1,0-0.2,0l-4.1,0.8c0.8,0.5,1.3,1.1,1.7,1.8c0.6,1.3,0,2.4-2.1,2.8l-6.9,1.3
				C110.8,924,110.4,924,110.2,923.5z"/>
		</g>
	</g>
</g>
</svg>
