<?xml version="1.0" encoding="UTF-8" standalone="no"?>
<svg
   id="sad_1_"
   data-name="sad (1)"
   width="86.352"
   height="86.352"
   viewBox="0 0 86.352 86.352"
   version="1.1"
   sodipodi:docname="2_orange_face_white.svg"
   inkscape:version="1.2 (dc2aedaf03, 2022-05-15)"
   xmlns:inkscape="http://www.inkscape.org/namespaces/inkscape"
   xmlns:sodipodi="http://sodipodi.sourceforge.net/DTD/sodipodi-0.dtd"
   xmlns="http://www.w3.org/2000/svg"
   xmlns:svg="http://www.w3.org/2000/svg">
  <defs
     id="defs1992" />
  <sodipodi:namedview
     id="namedview1990"
     pagecolor="#505050"
     bordercolor="#eeeeee"
     borderopacity="1"
     inkscape:showpageshadow="0"
     inkscape:pageopacity="0"
     inkscape:pagecheckerboard="0"
     inkscape:deskcolor="#505050"
     showgrid="false"
     inkscape:zoom="9.6928852"
     inkscape:cx="43.124414"
     inkscape:cy="43.227583"
     inkscape:window-width="1920"
     inkscape:window-height="1017"
     inkscape:window-x="1912"
     inkscape:window-y="-8"
     inkscape:window-maximized="1"
     inkscape:current-layer="sad_1_" />
  <g
     id="Grupo_1819"
     data-name="Grupo 1819"
     style="fill:#ffffff">
    <g
       id="Grupo_1818"
       data-name="Grupo 1818"
       style="fill:#ffffff">
      <path
         id="Trazado_1836"
         data-name="Trazado 1836"
         d="M43.176,0A43.176,43.176,0,1,0,86.352,43.176,43.225,43.225,0,0,0,43.176,0Zm0,82.6A39.421,39.421,0,1,1,82.6,43.176,39.465,39.465,0,0,1,43.176,82.6Z"
         fill="#ffa200"
         style="fill:#ffffff" />
      <path
         id="Trazado_1837"
         data-name="Trazado 1837"
         d="M107.263,133.632a5.632,5.632,0,1,0-5.632,5.632A5.639,5.639,0,0,0,107.263,133.632Zm-7.509,0a1.877,1.877,0,1,1,1.877,1.877A1.88,1.88,0,0,1,99.754,133.632Z"
         transform="translate(-73.474 -97.965)"
         fill="#ffa200"
         style="fill:#ffffff" />
      <path
         id="Trazado_1838"
         data-name="Trazado 1838"
         d="M229.632,128a5.632,5.632,0,1,0,5.632,5.632A5.639,5.639,0,0,0,229.632,128Zm0,7.509a1.877,1.877,0,1,1,1.877-1.877A1.879,1.879,0,0,1,229.632,135.509Z"
         transform="translate(-171.438 -97.965)"
         fill="#ffa200"
         style="fill:#ffffff" />
      <path
         id="Trazado_1839"
         data-name="Trazado 1839"
         d="M122.774,224a24.558,24.558,0,0,0-18.293,8.134,1.877,1.877,0,0,0,2.8,2.5,20.884,20.884,0,0,1,30.993,0,1.877,1.877,0,0,0,2.8-2.5A24.562,24.562,0,0,0,122.774,224Z"
         transform="translate(-79.598 -171.438)"
         fill="#ffa200"
         style="fill:#ffffff" />
    </g>
  </g>
</svg>
