<?xml version="1.0" encoding="UTF-8" standalone="no"?>
<!-- Generator: Adobe Illustrator 26.3.1, SVG Export Plug-In . SVG Version: 6.00 Build 0)  -->

<svg
   version="1.1"
   id="smile_3_"
   x="0px"
   y="0px"
   viewBox="0 0 28.1 28.1"
   style="enable-background:new 0 0 28.1 28.1;"
   xml:space="preserve"
   sodipodi:docname="4_Blue_face_white.svg"
   inkscape:version="1.2 (dc2aedaf03, 2022-05-15)"
   xmlns:inkscape="http://www.inkscape.org/namespaces/inkscape"
   xmlns:sodipodi="http://sodipodi.sourceforge.net/DTD/sodipodi-0.dtd"
   xmlns="http://www.w3.org/2000/svg"
   xmlns:svg="http://www.w3.org/2000/svg"><defs
   id="defs2034" /><sodipodi:namedview
   id="namedview2032"
   pagecolor="#505050"
   bordercolor="#eeeeee"
   borderopacity="1"
   inkscape:showpageshadow="0"
   inkscape:pageopacity="0"
   inkscape:pagecheckerboard="0"
   inkscape:deskcolor="#505050"
   showgrid="false"
   inkscape:zoom="29.786476"
   inkscape:cx="14.066786"
   inkscape:cy="14.066786"
   inkscape:window-width="1920"
   inkscape:window-height="1017"
   inkscape:window-x="1912"
   inkscape:window-y="-8"
   inkscape:window-maximized="1"
   inkscape:current-layer="smile_3_" />
<style
   type="text/css"
   id="style2023">
	.st0{fill:#050C44;}
</style>
<g
   id="Grupo_1823"
   transform="translate(0)"
   style="fill:#ffffff">
	<g
   id="Grupo_1822"
   style="fill:#ffffff">
		<path
   id="Trazado_1844"
   class="st0"
   d="M14,0C6.3,0,0,6.3,0,14s6.3,14,14,14s14-6.3,14-14C28.1,6.3,21.8,0,14,0z M14,26.9    C7,26.9,1.2,21.1,1.2,14C1.2,7,7,1.2,14,1.2C21.1,1.2,26.9,7,26.9,14c0,0,0,0,0,0C26.9,21.1,21.1,26.9,14,26.9z"
   style="fill:#ffffff" />
		<path
   id="Trazado_1845"
   class="st0"
   d="M11,11.6c0-1-0.8-1.8-1.8-1.8s-1.8,0.8-1.8,1.8s0.8,1.8,1.8,1.8C10.2,13.4,11,12.6,11,11.6    z M8.5,11.6c0-0.3,0.3-0.6,0.6-0.6s0.6,0.3,0.6,0.6s-0.3,0.6-0.6,0.6h0C8.8,12.2,8.5,11.9,8.5,11.6z"
   style="fill:#ffffff" />
		<path
   id="Trazado_1846"
   class="st0"
   d="M18.9,9.8c-1,0-1.8,0.8-1.8,1.8s0.8,1.8,1.8,1.8s1.8-0.8,1.8-1.8    C20.8,10.6,19.9,9.8,18.9,9.8z M18.9,12.2c-0.3,0-0.6-0.3-0.6-0.6s0.3-0.6,0.6-0.6s0.6,0.3,0.6,0.6v0    C19.5,11.9,19.3,12.2,18.9,12.2z"
   style="fill:#ffffff" />
		<path
   id="Trazado_1847"
   class="st0"
   d="M19.9,17.3c-0.3-0.2-0.6-0.2-0.9,0c0,0,0,0,0,0c-2.5,2.8-6.8,3-9.6,0.5    c-0.2-0.2-0.3-0.3-0.5-0.5c-0.2-0.2-0.6-0.3-0.9,0c-0.2,0.2-0.3,0.6,0,0.8c3,3.3,8,3.5,11.3,0.6c0.2-0.2,0.4-0.4,0.6-0.6    C20.2,17.9,20.2,17.5,19.9,17.3C19.9,17.3,19.9,17.3,19.9,17.3z"
   style="fill:#ffffff" />
	</g>
</g>
</svg>
