<svg width="256" height="256" viewBox="0 0 256 256" fill="none" xmlns="http://www.w3.org/2000/svg">
<path d="M216.735 63.3434H168.367L165.97 46.886C164.921 39.6888 158.646 34.261 151.373 34.261H104.628C97.3542 34.261 91.0788 39.6888 90.0304 46.8869L87.6337 63.3434H39.2658C28.6425 63.3434 20 71.9859 20 82.6087V202.473C20 213.096 28.6425 221.738 39.2658 221.738H216.735C227.358 221.738 236 213.096 236 202.473V82.6087C236 71.9859 227.358 63.3434 216.735 63.3434ZM102.604 48.7178C102.749 47.7196 103.619 46.967 104.628 46.967H151.373C152.382 46.967 153.252 47.7201 153.397 48.7178L155.527 63.3434H100.474L102.604 48.7178ZM223.294 202.473C223.294 206.09 220.352 209.033 216.735 209.033H39.2658C35.6486 209.033 32.7056 206.09 32.7056 202.473V141.915C38.2963 146.282 45.3209 148.895 52.9493 148.895H102.587V155.107C102.587 157.453 103.88 159.609 105.95 160.712L125.01 170.877C125.945 171.375 126.972 171.624 128 171.624C129.028 171.624 130.055 171.375 130.99 170.877L150.05 160.712C152.12 159.608 153.413 157.453 153.413 155.107V148.895H203.051C210.679 148.895 217.704 146.283 223.294 141.915V202.473V202.473ZM115.293 151.295V132.943H140.707V151.295L128 158.072L115.293 151.295ZM223.294 115.946C223.294 127.108 214.213 136.189 203.051 136.189H153.413V126.589C153.413 123.081 150.569 120.236 147.06 120.236H108.94C105.432 120.236 102.587 123.08 102.587 126.589V136.189H52.9493C41.7869 136.19 32.7056 127.109 32.7056 115.946V82.6087C32.7056 79.4438 34.9588 76.7953 37.9449 76.1827C38.3714 76.095 38.8131 76.0494 39.2653 76.0494H216.734C217.187 76.0494 217.628 76.0954 218.054 76.1827C221.041 76.7957 223.294 79.4442 223.294 82.6087V115.946H223.294Z" fill="#050C44"/>
</svg>
