<svg width="256" height="256" viewBox="0 0 256 256" fill="none" xmlns="http://www.w3.org/2000/svg">
<path d="M215.104 213H40.8964C26.6111 213 15 201.355 15 187.027V68.9728C15 54.6453 26.6111 43 40.8964 43H215.104C229.389 43 241 54.6453 241 68.9728V187.027C241 201.355 229.389 213 215.104 213ZM40.8964 57.1667C34.4081 57.1667 29.125 62.4653 29.125 68.9728V187.027C29.125 193.535 34.4081 198.833 40.8964 198.833H215.104C221.592 198.833 226.875 193.535 226.875 187.027V68.9728C226.875 62.4653 221.592 57.1667 215.104 57.1667H40.8964Z" fill="#050C44"/>
<path d="M89.5 126C85.8411 126 82.2643 124.915 79.222 122.882C76.1797 120.849 73.8085 117.96 72.4082 114.58C71.008 111.199 70.6417 107.479 71.3555 103.891C72.0693 100.302 73.8313 97.0058 76.4185 94.4185C79.0058 91.8313 82.3022 90.0693 85.8908 89.3555C89.4795 88.6417 93.1992 89.008 96.5796 90.4082C99.9601 91.8085 102.849 94.1796 104.882 97.222C106.915 100.264 108 103.841 108 107.5C107.995 112.405 106.044 117.107 102.575 120.575C99.1072 124.044 94.4048 125.995 89.5 126V126ZM89.5 94.1389C86.8574 94.1389 84.2742 94.9225 82.077 96.3906C79.8797 97.8588 78.1672 99.9455 77.156 102.387C76.1447 104.828 75.8801 107.515 76.3956 110.107C76.9112 112.698 78.1837 115.079 80.0523 116.948C81.9209 118.816 84.3016 120.089 86.8934 120.604C89.4852 121.12 92.1717 120.855 94.6131 119.844C97.0545 118.833 99.1412 117.12 100.609 114.923C102.077 112.726 102.861 110.143 102.861 107.5C102.857 103.958 101.448 100.562 98.9432 98.0568C96.4384 95.552 93.0423 94.143 89.5 94.1389Z" fill="#050C44" stroke="#050C44" stroke-width="5.25"/>
<path d="M119.083 169C115.817 169 113.167 166.396 113.167 163.188V159.312C113.167 153.973 108.741 149.625 103.305 149.625H75.6949C70.2593 149.625 65.8333 153.973 65.8333 159.312V163.188C65.8333 166.396 63.1827 169 59.9167 169C56.6507 169 54 166.396 54 163.188V159.312C54 147.556 63.7273 138 75.6949 138H103.305C115.273 138 125 147.556 125 159.312V163.188C125 166.396 122.349 169 119.083 169Z" fill="#050C44"/>
<path d="M194.786 103H149.214C145.784 103 143 100.312 143 97C143 93.688 145.784 91 149.214 91H194.786C198.216 91 201 93.688 201 97C201 100.312 198.216 103 194.786 103Z" fill="#050C44"/>
<path d="M194.786 136H149.214C145.784 136 143 133.312 143 130C143 126.688 145.784 124 149.214 124H194.786C198.216 124 201 126.688 201 130C201 133.312 198.216 136 194.786 136Z" fill="#050C44"/>
<path d="M194.786 169H149.214C145.784 169 143 166.312 143 163C143 159.688 145.784 157 149.214 157H194.786C198.216 157 201 159.688 201 163C201 166.312 198.216 169 194.786 169Z" fill="#050C44"/>
</svg>
