<?xml version="1.0" encoding="utf-8"?>
<!-- Generator: Adobe Illustrator 26.5.0, SVG Export Plug-In . SVG Version: 6.00 Build 0)  -->
<svg version="1.1" id="Capa_1" xmlns="http://www.w3.org/2000/svg" xmlns:xlink="http://www.w3.org/1999/xlink" x="0px" y="0px"
	 viewBox="0 0 19 19" style="enable-background:new 0 0 19 19;" xml:space="preserve">
<style type="text/css">
	.st0{fill:#050C44;stroke:#050C44;stroke-width:0.3;}
</style>
<g transform="translate(0 0)">
	<g transform="translate(0 0)">
		<path class="st0" d="M17.9,2.8l-1.6-1.6c-0.8-0.8-1.9-0.8-2.7,0l-11.9,12c-0.1,0.1-0.1,0.2-0.1,0.3l-0.8,4.3
			c-0.1,0.3,0.1,0.6,0.4,0.6c0.1,0,0.1,0,0.2,0l4.3-0.8c0.1,0,0.2-0.1,0.3-0.1l11.9-12C18.5,4.7,18.5,3.5,17.9,2.8L17.9,2.8z
			 M1.8,17.2l0.5-2.6l2.1,2.1L1.8,17.2z M5.5,16.3l-2.8-2.8L13,3.2L15.8,6L5.5,16.3z M17.1,4.7l-0.7,0.7l-2.8-2.8l0.7-0.7
			c0.3-0.3,0.9-0.3,1.2,0l1.6,1.6C17.5,3.8,17.5,4.4,17.1,4.7L17.1,4.7z"/>
	</g>
</g>
</svg>
