<svg width="256" height="256" viewBox="0 0 256 256" fill="none" xmlns="http://www.w3.org/2000/svg">
<path d="M161.526 126.754C161.526 153.558 144.05 173.63 123.125 173.63C102.201 173.63 83.6965 153.836 83.6965 127.033C83.6965 100.229 103.228 82.3696 124.153 82.3696C145.078 82.3696 161.526 99.9504 161.526 126.754Z" stroke="#050C44" stroke-opacity="0.5" stroke-width="15" stroke-miterlimit="10" stroke-linecap="round" stroke-linejoin="round"/>
<path d="M125.982 219C84.3636 217.916 46.4162 191.404 35.1472 151.078C22.1419 104.534 50.5874 55.9189 99.3115 41.3206C150.846 25.8806 205.652 53.1682 221.222 101.726C226.732 121.155 223.516 138.058 216.215 155.336C213.32 162.188 203.772 178.227 182.535 178.227C170.94 178.227 161.275 167.767 161.339 155.723L161.759 75.8967" stroke="#050C44" stroke-opacity="0.5" stroke-width="15" stroke-miterlimit="10" stroke-linecap="round" stroke-linejoin="round"/>
<path d="M221.222 101.726C226.732 121.155 223.517 138.058 216.215 155.336" stroke="#050C44" stroke-opacity="0.5" stroke-width="15" stroke-miterlimit="10" stroke-linecap="round" stroke-linejoin="round"/>
</svg>
