<svg width="256" height="256" viewBox="0 0 256 256" fill="none" xmlns="http://www.w3.org/2000/svg">
<path d="M222.232 13H185.989C177.02 13.3316 177.026 26.1506 185.989 26.4791H205.894L163.579 68.62C144.046 52.38 111.952 52.3822 92.4215 68.62L81.1889 57.4337L89.2931 49.3625C91.936 46.7305 91.936 42.4634 89.2931 39.8314C86.6507 37.1994 82.3655 37.1994 79.7226 39.8314L71.6184 47.9027L50.1053 26.4791H70.0105C78.98 26.1475 78.9733 13.3284 70.0105 13H33.7674C30.03 13 27 16.0175 27 19.7395V55.8333C27.333 64.7659 40.205 64.7591 40.5348 55.8333V36.0101L62.0475 57.4342L53.9429 65.5054C51.3 68.1374 51.3 72.4045 53.9429 75.0365C56.5858 77.6689 60.8713 77.668 63.5133 75.0365L71.618 66.9648L82.8505 78.151C54.8989 112.348 77.3459 165.893 121.233 170.456V193.469H99.0053C90.0357 193.801 90.0425 206.62 99.0053 206.948H121.233V236.303C121.566 245.236 134.438 245.229 134.767 236.303V206.949H156.995C165.964 206.617 165.958 193.798 156.995 193.47H134.767V170.457C178.671 165.888 201.092 112.338 173.149 78.1515L215.465 36.0101V55.8338C215.798 64.7663 228.67 64.7596 229 55.8338V19.7395C229 16.0175 225.97 13 222.232 13ZM128 157.376C103.753 157.376 84.0263 137.73 84.0263 113.583C86.237 55.5673 169.771 55.583 171.973 113.584C171.973 137.731 152.247 157.376 128 157.376V157.376Z" fill="#050C44" fill-opacity="0.5"/>
</svg>
