<svg width="256" height="256" viewBox="0 0 256 256" fill="none" xmlns="http://www.w3.org/2000/svg">
<path d="M221.517 42.944H34.9233C29.3928 43.2159 24.1948 45.6659 20.4653 49.7588C16.7358 53.8516 14.7781 59.2545 15.02 64.7864V191.182C14.7847 196.71 16.7454 202.106 20.4742 206.194C24.203 210.281 29.3972 212.728 34.9233 213H221.517C227.043 212.728 232.237 210.281 235.966 206.194C239.695 202.106 241.655 196.71 241.42 191.182V64.7864C241.662 59.2545 239.704 53.8516 235.975 49.7588C232.245 45.6659 227.047 43.2159 221.517 42.944V42.944ZM218.919 57.469L216.248 59.9081L136.111 133.082C133.974 135.096 131.15 136.217 128.214 136.217C125.278 136.217 122.453 135.096 120.317 133.082L40.1674 59.9081L37.5088 57.469H218.919ZM28.2889 67.9694L93.5965 127.594L28.2889 175.254V67.9694ZM221.517 198.463H34.9233C33.3315 198.403 31.8104 197.789 30.6234 196.727C29.4364 195.665 28.658 194.221 28.423 192.645L104.231 137.326L111.841 144.265C116.274 148.443 122.135 150.769 128.226 150.769C134.317 150.769 140.178 148.443 144.611 144.265L152.221 137.326L228.029 192.645C227.791 194.221 227.01 195.663 225.821 196.723C224.631 197.783 223.109 198.394 221.517 198.451V198.463ZM228.151 175.291L162.843 127.643L228.151 68.0182V175.291Z" fill="#050C44"/>
</svg>
