<svg xmlns="http://www.w3.org/2000/svg" width="15.542" height="20.722" viewBox="0 0 15.542 20.722"><defs><style>.a{fill:#050c44;}</style></defs><g transform="translate(-3)"><path class="a" d="M16.6,21.951H4.943A1.945,1.945,0,0,1,3,20.009V10.943A1.945,1.945,0,0,1,4.943,9H16.6a1.945,1.945,0,0,1,1.943,1.943v9.066A1.945,1.945,0,0,1,16.6,21.951ZM4.943,10.3a.648.648,0,0,0-.648.648v9.066a.648.648,0,0,0,.648.648H16.6a.648.648,0,0,0,.648-.648V10.943A.648.648,0,0,0,16.6,10.3Z" transform="translate(0 -1.229)"/><path class="a" d="M15.713,9.066a.648.648,0,0,1-.648-.648V5.181a3.885,3.885,0,1,0-7.771,0V8.418a.648.648,0,1,1-1.3,0V5.181a5.181,5.181,0,0,1,10.361,0V8.418A.648.648,0,0,1,15.713,9.066Z" transform="translate(-0.41)"/><path class="a" d="M11.727,16.454a1.727,1.727,0,1,1,1.727-1.727A1.729,1.729,0,0,1,11.727,16.454Zm0-2.159a.432.432,0,1,0,.432.432A.432.432,0,0,0,11.727,14.3Z" transform="translate(-0.956 -1.776)"/><path class="a" d="M11.9,19.42a.648.648,0,0,1-.648-.648V16.4a.648.648,0,0,1,1.3,0v2.374A.648.648,0,0,1,11.9,19.42Z" transform="translate(-1.127 -2.151)"/></g></svg>