<?xml version="1.0" encoding="utf-8"?>
<!-- Generator: Adobe Illustrator 26.5.0, SVG Export Plug-In . SVG Version: 6.00 Build 0)  -->
<svg version="1.1" id="Capa_1" xmlns="http://www.w3.org/2000/svg" xmlns:xlink="http://www.w3.org/1999/xlink" x="0px" y="0px"
	 viewBox="0 0 25.1 16" style="enable-background:new 0 0 25.1 16;" xml:space="preserve">
<style type="text/css">
	.st0{fill:#050C44;stroke:#050C44;stroke-width:0.5;stroke-miterlimit:10;}
	.st1{fill:#050C44;stroke:#050C44;stroke-width:0.5;}
</style>
<g transform="translate(0 -92.835)">
	<g transform="translate(0 92.835)">
		<g transform="translate(0 0)">
			<path class="st0" d="M24.5,7.5c-0.2-0.3-5.4-7.2-11.9-7.2S0.8,7.2,0.6,7.5c-0.2,0.3-0.2,0.7,0,0.9c0.2,0.3,5.4,7.2,11.9,7.2
				s11.7-6.9,11.9-7.2C24.7,8.2,24.7,7.8,24.5,7.5z M12.6,14.1c-4.8,0-9-4.6-10.3-6.1c1.2-1.5,5.4-6.1,10.3-6.1s9,4.6,10.3,6.1
				C21.6,9.5,17.4,14.1,12.6,14.1z"/>
		</g>
	</g>
	<g transform="translate(7.586 95.869)">
		<g transform="translate(0 0)">
			<path class="st1" d="M5,0.8C2.7,0.8,0.8,2.7,0.8,5c0,2.3,1.9,4.1,4.1,4.1c2.3,0,4.1-1.9,4.1-4.1C9.1,2.7,7.3,0.8,5,0.8z M5,7.7
				C3.4,7.7,2.2,6.5,2.2,5S3.4,2.2,5,2.2S7.7,3.4,7.7,5l0,0C7.7,6.5,6.5,7.7,5,7.7L5,7.7z"/>
		</g>
	</g>
</g>
</svg>
