<svg width="256" height="256" viewBox="0 0 256 256" fill="none" xmlns="http://www.w3.org/2000/svg">
<path d="M128 224.797C181.459 224.797 224.797 181.459 224.797 128C224.797 74.5406 181.459 31.2031 128 31.2031C74.5406 31.2031 31.2031 74.5406 31.2031 128C31.2031 181.459 74.5406 224.797 128 224.797Z" stroke="#050C44" stroke-opacity="0.5" stroke-width="13" stroke-miterlimit="10" stroke-linecap="round" stroke-linejoin="round"/>
<path d="M127.5 140C120.874 140 114.397 138.006 108.888 134.27C103.379 130.534 99.0856 125.224 96.55 119.011C94.0145 112.799 93.3511 105.962 94.6437 99.3669C95.9363 92.7716 99.1269 86.7134 103.812 81.9584C108.497 77.2034 114.466 73.9652 120.964 72.6533C127.463 71.3414 134.199 72.0147 140.32 74.5881C146.441 77.1615 151.673 81.5194 155.354 87.1106C159.035 92.7019 161 99.2754 161 106C160.99 115.014 157.458 123.657 151.177 130.031C144.897 136.405 136.382 139.99 127.5 140V140ZM127.5 81.4445C122.715 81.4445 118.037 82.8846 114.058 85.5828C110.08 88.281 106.978 92.1161 105.147 96.603C103.316 101.09 102.837 106.027 103.77 110.791C104.704 115.554 107.008 119.929 110.392 123.363C113.776 126.798 118.087 129.136 122.78 130.084C127.473 131.031 132.338 130.545 136.759 128.686C141.18 126.828 144.958 123.68 147.617 119.642C150.275 115.604 151.694 110.857 151.694 106C151.687 99.4898 149.136 93.2483 144.6 88.6449C140.064 84.0415 133.915 81.452 127.5 81.4445Z" fill="#050C44" fill-opacity="0.5" stroke="#050C44" stroke-opacity="0.5" stroke-width="5"/>
<path d="M184.444 207C183.236 207 182.078 206.566 181.223 205.794C180.369 205.023 179.889 203.976 179.889 202.884V192.71C179.879 184.894 176.439 177.402 170.322 171.875C164.205 166.349 155.912 163.24 147.262 163.232H107.738C99.0878 163.24 90.7946 166.349 84.678 171.875C78.5613 177.402 75.1208 184.894 75.1111 192.71V202.884C75.1111 203.976 74.6312 205.023 73.7768 205.794C72.9225 206.566 71.7638 207 70.5556 207C69.3473 207 68.1886 206.566 67.3343 205.794C66.48 205.023 66 203.976 66 202.884V192.71C66.0133 182.712 70.4149 173.127 78.2394 166.058C86.0639 158.989 96.6725 155.012 107.738 155H147.257C158.324 155.011 168.933 158.987 176.759 166.057C184.584 173.126 188.987 182.711 189 192.71V202.884C189 203.976 188.52 205.023 187.666 205.794C186.811 206.566 185.653 207 184.444 207V207Z" fill="#050C44" fill-opacity="0.5" stroke="#050C44" stroke-opacity="0.5" stroke-width="6"/>
</svg>
