<svg width="256" height="256" viewBox="0 0 256 256" fill="none" xmlns="http://www.w3.org/2000/svg">
<path d="M94.6186 110.381C104.349 110.381 112.237 102.493 112.237 92.7627C112.237 83.0322 104.349 75.1441 94.6186 75.1441C84.8881 75.1441 77 83.0322 77 92.7627C77 102.493 84.8881 110.381 94.6186 110.381Z" stroke="#050C44" stroke-width="14" stroke-miterlimit="10" stroke-linecap="round" stroke-linejoin="round"/>
<path d="M161.737 180.856C171.468 180.856 179.356 172.968 179.356 163.237C179.356 153.507 171.468 145.619 161.737 145.619C152.007 145.619 144.119 153.507 144.119 163.237C144.119 172.968 152.007 180.856 161.737 180.856Z" stroke="#050C44" stroke-width="14" stroke-miterlimit="10" stroke-linecap="round" stroke-linejoin="round"/>
<path d="M92.9407 180.856L163.415 75.1441" stroke="#050C44" stroke-width="14" stroke-miterlimit="10" stroke-linecap="round" stroke-linejoin="round"/>
<path d="M128 227C182.676 227 227 182.676 227 128C227 73.3238 182.676 29 128 29C73.3238 29 29 73.3238 29 128C29 182.676 73.3238 227 128 227Z" stroke="#050C44" stroke-width="14" stroke-miterlimit="10" stroke-linecap="round" stroke-linejoin="round"/>
</svg>
