<?xml version="1.0" encoding="utf-8"?>
<!-- Generator: Adobe Illustrator 25.4.1, SVG Export Plug-In . SVG Version: 6.00 Build 0)  -->
<svg version="1.1" id="Capa_1" xmlns="http://www.w3.org/2000/svg" xmlns:xlink="http://www.w3.org/1999/xlink" x="0px" y="0px"
	 viewBox="0 0 30.8 22.7" style="enable-background:new 0 0 30.8 22.7;" xml:space="preserve">
<style type="text/css">
	.st0{fill:#00E9C5;}
	.st1{fill:none;stroke:#00E9C5;stroke-miterlimit:10;}
</style>
<g transform="translate(0 -0.001)">
	<g transform="translate(11.763 19.431)">
		<path class="st0" d="M6.2-7C6-7.2,5.8-7.2,5.6-7L2.3-4C2.1-3.8,2-3.7,2.3-3.4c0.2,0.2,0.3,0.1,0.5,0l3.4-3.1
			C6.4-6.6,6.4-6.8,6.2-7z"/>
	</g>
	<g transform="translate(0 24.731)">
		<path class="st0" d="M13.4-8.2c-0.2-0.2-0.5-0.2-0.7,0L6.6-2.7C6.2-1.9,6.9-2,7.2-2.1l6.1-5.5C13.5-7.8,13.5-8,13.4-8.2z"/>
	</g>
	<g transform="translate(5.82 16.857)">
		<path class="st0" d="M7.2-5.1C7-5.3,6.7-5.3,6.5-5.1l-7.8,7c-0.2,0.3-0.2,0.5,0,0.7s0.5,0.2,0.6,0l7.8-7.2
			C7.4-4.7,7.2-5.1,7.2-5.1L7.2-5.1z"/>
	</g>
	<g transform="translate(0.557 11.928)">
		<path class="st0" d="M11-4.5c-0.2-0.2-0.5-0.2-0.7,0L-0.4,5.2c-0.2,0.2-0.2,0.5,0,0.7s0.5,0.2,0.6,0l10.9-9.7
			C11.2-4,11.2-4.3,11-4.5z"/>
	</g>
	<g transform="translate(4.536 5.357)">
		<path class="st0" d="M8-3.5c-0.2-0.2-0.5-0.2-0.7,0l-7.9,7c-0.2,0.2-0.2,0.5,0,0.7c0.2,0.2,0.5,0.2,0.6,0l7.8-7.1
			C8.1-3.1,8.1-3.3,8-3.5z"/>
	</g>
	<g transform="translate(12.964 22.171)">
		<path class="st0" d="M10.4-9.4c-0.2-0.2-0.5-0.2-0.7,0L1-1.5C0.8-1.3,0.8-1,1-0.8s0.5,0.2,0.6,0l8.8-8C10.6-8.9,10.6-9.2,10.4-9.4
			z"/>
	</g>
</g>
<path class="st1" d="M20.6,1.3c4.4-1.2,8.2-0.9,8.6,0.4l1.1,4.1c0.3,1.4-3,3.2-7.3,4.3c-4.4,1.2-8.2,0.9-8.6-0.4l-1.1-4.1
	C12.9,4.4,16.2,2.4,20.6,1.3"/>
<path class="st1" d="M29.1,1.5c0.3,1.4-3,3.2-7.3,4.3c-4.4,1.2-8.2,0.9-8.6-0.4"/>
</svg>
