<?xml version="1.0" encoding="utf-8"?>
<!-- Generator: Adobe Illustrator 25.4.1, SVG Export Plug-In . SVG Version: 6.00 Build 0)  -->
<svg version="1.1" id="Capa_1" xmlns="http://www.w3.org/2000/svg" xmlns:xlink="http://www.w3.org/1999/xlink" x="0px" y="0px"
	 viewBox="0 0 49.6 36.1" style="enable-background:new 0 0 49.6 36.1;" xml:space="preserve">
<style type="text/css">
	.st0{fill:none;stroke:#FF3737;stroke-miterlimit:10;}
	.st1{fill:none;stroke:#00E9C5;stroke-miterlimit:10;}
	.st2{fill:#FF3737;}
</style>
<path class="st0" d="M0.5,30.8V3.5c0-1.6,1.4-3,3-3h42.6c1.6,0,3,1.4,3,3v27.1"/>
<path class="st0" d="M31.6,21.2c6.8,1.3,12.5,4.3,15.2,5.8V6.3c0-1.5-1.3-2.7-2.7-2.7h-4.7h-4.8H30h-5h-5h-5.3h-4.4H5.7
	C4.2,3.6,3,4.9,3,6.3v4.6v4.7v5.1v6.2c2.6-1.5,8.6-4.6,15.8-5.8"/>
<line class="st0" x1="9.1" y1="3.5" x2="9" y2="24"/>
<line class="st0" x1="14.7" y1="3.5" x2="14.8" y2="22.2"/>
<line class="st0" x1="20.3" y1="3.6" x2="20.3" y2="13.8"/>
<path class="st0" d="M25,20.7"/>
<path class="st0" d="M24.9,8.2"/>
<line class="st0" x1="25.2" y1="3.7" x2="25.2" y2="13.4"/>
<line class="st0" x1="29.9" y1="3.5" x2="29.9" y2="13.6"/>
<line class="st0" x1="35.8" y1="3.5" x2="35.7" y2="21.9"/>
<line class="st0" x1="40.6" y1="3.5" x2="40.6" y2="23.9"/>
<g>
	<g>
		<path class="st0" d="M16.9,16.2c-0.7,0.1-1.4,0.2-2.1,0.4c-5.3,1.1-9.5,2.9-12,4.1"/>
	</g>
</g>
<g>
	<g>
		<path class="st0" d="M46.8,20.8c-2.7-1.3-7.8-3.4-13.7-4.5"/>
	</g>
</g>
<path class="st0" d="M25,10.1c-13.3,0.4-19,4.3-22.1,5.8"/>
<path class="st0" d="M18.7,11.2"/>
<path class="st0" d="M32.2,11.4"/>
<path class="st0" d="M46.9,16.1c-1.5-0.8-11.8-5.5-21.9-6"/>
<path class="st0" d="M46.6,10.8c-1.3,0-18.7-10.3-43.6,0.1"/>
<path class="st1" d="M46.6,11.2"/>
<path class="st0" d="M33.8,16.7"/>
<path class="st0" d="M25.2,13.5c4.4,0,7.9,1.1,7.9,2.4v4c0,1.3-3.6,2.3-7.9,2.3c-4.4,0-7.9-1.1-7.9-2.4v-4
	C17.3,14.5,20.8,13.4,25.2,13.5"/>
<path class="st0" d="M33.1,15.9c0,1.3-3.7,2.3-8,2.3c-4.4,0-7.8-0.9-7.8-2.2"/>
<g>
	<path class="st2" d="M6.4,36.1H5.9c-0.3,0-0.4-0.1-0.5-0.4L5.1,35c-0.7,0-1.5,0-2.3,0l-0.2,0.6c-0.1,0.3-0.2,0.5-0.6,0.5H1.5
		c-0.3,0-0.6,0.1-0.5-0.4c0-0.1,0.1-0.2,0.1-0.3l2-5.2c0.2-0.5,0.4-0.5,0.9-0.5c0.4,0,0.5,0.1,0.7,0.5l2.1,5.3
		c0,0.1,0.1,0.2,0.1,0.3C6.9,36,6.6,36.1,6.4,36.1z M3.9,31.8l-0.7,2.1h1.5L3.9,31.8z"/>
	<path class="st2" d="M12.8,34.3c-0.3,1.5-1.1,1.8-2.5,1.8c-2.7,0-2.7-1.7-2.7-3.9v-2.1c0-0.5,0.5-0.5,0.9-0.5
		c0.3,0,0.5,0.1,0.5,0.5v2.7c0,0.4,0,1.1,0.2,1.6c0.2,0.4,0.6,0.4,1,0.4s0.8,0,1-0.4s0.2-1.1,0.2-1.6v-2.7c0-0.5,0.6-0.5,0.9-0.5
		c0.3,0,0.5,0.1,0.5,0.5l0.1,2C12.9,32.8,12.9,33.6,12.8,34.3z"/>
	<path class="st2" d="M18.3,30.9c-0.4,0-0.8,0-1.2,0v4.6c0,0.6-0.5,0.5-0.9,0.5c-0.4,0-0.5-0.1-0.5-0.5v-4.6c-0.4,0-0.8,0-1.2,0
		c-0.7,0-0.7-0.5-0.7-0.8c0-0.3,0.2-0.5,0.5-0.5h4.1c0.5,0,0.5,0.2,0.5,0.7C18.9,30.8,18.7,30.9,18.3,30.9z"/>
	<path class="st2" d="M22.3,36.1c-2.1,0-2.8-1.5-2.8-3.3s0.6-3.3,2.8-3.3s2.8,1.5,2.8,3.3C25.2,34.7,24.4,36.1,22.3,36.1z
		 M23.4,31.3c-0.2-0.4-0.6-0.5-1-0.5s-0.8,0.1-1,0.5s-0.2,1.1-0.2,1.6c0,0.4,0,1.1,0.2,1.6c0.2,0.4,0.6,0.5,1,0.5s0.8-0.1,1-0.5
		s0.2-1.1,0.2-1.6C23.6,32.3,23.6,31.6,23.4,31.3z"/>
	<path class="st2" d="M30.5,35.9c-0.4,0.1-1,0.2-1.6,0.2c-2.3,0-2.8-1-2.8-3.2c0-1.1,0.1-2.7,1.2-3.1c0.4-0.2,0.7-0.2,1.3-0.2
		c0.4,0,0.9,0,1.4,0c0.3,0,0.9-0.1,1,0.4l0,0.4c0,0.4-0.1,0.5-0.5,0.5c-0.2,0-0.3,0-0.5,0c-0.3,0-0.5,0-0.8,0c-0.2,0-0.7,0-0.9,0.1
		c-0.6,0.3-0.6,1.4-0.6,1.9c0,0.7,0,1.8,0.9,2c0.2,0,0.5,0,0.7,0c0.1,0,0.2,0,0.3,0v-1.4h-0.7c-0.5,0-0.5-0.3-0.5-0.6
		s0.1-0.5,0.5-0.5h1.7c0.3,0,0.5,0.2,0.5,0.5v2.6C31,35.6,30.9,35.7,30.5,35.9z"/>
	<path class="st2" d="M34.9,36.1c-2.1,0-2.8-1.5-2.8-3.3s0.7-3.4,2.8-3.4c2.2,0,2.8,1.5,2.8,3.3C37.7,34.7,37,36.1,34.9,36.1z
		 M36,31.3c-0.2-0.4-0.6-0.5-1-0.5s-0.8,0.1-1,0.5s-0.2,1.1-0.2,1.6c0,0.4,0,1.1,0.2,1.6c0.2,0.4,0.6,0.5,1,0.5s0.8-0.1,1-0.5
		s0.2-1.1,0.2-1.6C36.2,32.3,36.2,31.6,36,31.3z"/>
	<path class="st2" d="M48.2,36.1h-2.6c-0.3,0-0.5-0.1-0.5-0.5v-5.4c0-0.4,0.2-0.5,0.5-0.5H46c0.3,0,0.5,0.1,0.5,0.5v4.7
		c0.6,0,1.1,0,1.8,0c0.5,0,0.5,0.4,0.5,0.7C48.7,35.9,48.5,36.1,48.2,36.1z"/>
</g>
<path class="st2" d="M43.9,36.1h-0.5c-0.3,0-0.4-0.1-0.5-0.4L42.6,35c-0.7,0-1.5,0-2.3,0l-0.2,0.6c-0.1,0.3-0.2,0.5-0.6,0.5H39
	c-0.3,0-0.6,0.1-0.5-0.4c0-0.1,0.1-0.2,0.1-0.3l2-5.2c0.2-0.5,0.4-0.5,0.9-0.5c0.4,0,0.5,0.1,0.7,0.5l2.1,5.3c0,0.1,0.1,0.2,0.1,0.3
	C44.3,36,44.1,36.1,43.9,36.1z M41.4,31.8l-0.7,2.1h1.5L41.4,31.8z"/>
</svg>
