<svg xmlns="http://www.w3.org/2000/svg" xmlns:xlink="http://www.w3.org/1999/xlink" viewBox="0 0 756 1163.04"><defs><style>.cls-1{fill:#a5a5a5;}.cls-2{fill:url(#Degradado_sin_nombre_15);}.cls-3{fill:#eaeaea;}.cls-3,.cls-6{stroke:#204191;}.cls-3,.cls-4,.cls-5,.cls-6,.cls-7,.cls-8{stroke-miterlimit:10;}.cls-3,.cls-6,.cls-7,.cls-8{stroke-width:2px;}.cls-4,.cls-5,.cls-6,.cls-7,.cls-8{fill:none;}.cls-4,.cls-5,.cls-7,.cls-8{stroke:#e55555;}.cls-4{stroke-width:1.82px;}.cls-5{stroke-width:1.82px;}.cls-8{stroke-dasharray:11.92 11.92;}.cls-9{fill:#e55555;}.cls-10{fill:#204191;}</style><radialGradient id="Degradado_sin_nombre_15" cx="378" cy="581.52" r="546.83" gradientTransform="translate(0 -507.14) scale(1 1.87)" gradientUnits="userSpaceOnUse"><stop offset="0" stop-opacity="0"/><stop offset="1" stop-opacity="0.6"/></radialGradient></defs><g id="Suelo"><rect class="cls-1" width="756" height="1163.04"/><rect class="cls-2" width="756" height="1163.04"/></g><g id="Lineas"><rect class="cls-3" x="163.6" y="153.11" width="429.04" height="856.81" rx="189.85"/><line class="cls-4" x1="214.89" y1="212.94" x2="541.11" y2="212.94"/><line class="cls-5" x1="214.95" y1="950.17" x2="541.05" y2="950.17"/><line class="cls-6" x1="163.34" y1="705.82" x2="592.66" y2="705.82"/><line class="cls-7" x1="163.34" y1="581.53" x2="169.34" y2="581.53"/><line class="cls-8" x1="181.26" y1="581.53" x2="580.7" y2="581.53"/><line class="cls-7" x1="586.66" y1="581.53" x2="592.66" y2="581.53"/><line class="cls-6" x1="163.34" y1="457.24" x2="592.66" y2="457.24"/><circle class="cls-6" cx="378" cy="581.77" r="66.47"/><circle class="cls-7" cx="470.75" cy="298.53" r="66.47"/><circle class="cls-7" cx="283.79" cy="298.53" r="66.47"/><circle class="cls-7" cx="470.75" cy="864.48" r="66.47"/><circle class="cls-9" cx="470.75" cy="687.69" r="3.96"/><circle class="cls-9" cx="283.39" cy="687.69" r="3.96"/><circle class="cls-9" cx="470.75" cy="475.37" r="3.96"/><circle class="cls-9" cx="283.39" cy="475.37" r="3.96"/><circle class="cls-7" cx="283.79" cy="864.48" r="66.47"/><path class="cls-7" d="M348.64,950.17a30.11,30.11,0,0,1,58.7-.06"/><path class="cls-7" d="M348.64,212.94a30.11,30.11,0,0,0,58.7.06"/><g id="Capa_2" data-name="Capa 2"><g id="Capa_1-2" data-name="Capa 1-2"><path class="cls-10" d="M239,1035.53a7.46,7.46,0,0,0-4.45,6.82h0v51.89a2.57,2.57,0,0,1-2.57,2.58,2.67,2.67,0,0,1-.75-.11,27.75,27.75,0,0,1-19.79-26.56v-1.54c0-.29,0-.57.06-.86v-.23c.07-.74.17-1.48.31-2.22l0-.24c.06-.31.13-.63.19-1a.94.94,0,0,0,0-.16c.18-.75.38-1.49.62-2.23l0-.15c.11-.34.23-.68.36-1h0c.28-.74.58-1.48.91-2.14l.06-.12c.33-.69.69-1.37,1.07-2v0c.18-.3.36-.6.55-.9l.12-.17c.18-.28.36-.55.55-.82l.07-.1.63-.86.2-.25a32.93,32.93,0,0,1,3.08-3.38c.48-.44,1-.85,1.48-1.24a3.1,3.1,0,0,0,.6-4.34,4.12,4.12,0,0,0-.28-.31l-2.26-2.27a3.09,3.09,0,0,0-4.12-.22,37.4,37.4,0,0,0-4.83,4.67h0l-.06.07c-.32.38-.64.74-1,1.17h0c-.31.38-.59.74-.88,1.15l-.14.2c-.46.78-1,1.61-1.52,2.48l-.13.24c-.5.84-1,1.72-1.41,2.61l-.12.26c-.2.41-.39.82-.57,1.24l-.07.1c-.19.45-.38.91-.55,1.37l-.11.29c-.15.4-.3.82-.44,1.23l-.06.2c-.15.47-.29.94-.43,1.42l-.07.27c-.11.4-.21.81-.32,1.22a1.16,1.16,0,0,1-.07.31c-.11.48-.21,1-.3,1.48v.2c-.1.42-.17.9-.23,1.3,0,.12,0,.24-.05.36-.07.5-.13,1-.17,1.48v.17c-.05.45-.07.9-.1,1.36v1.92h-.06a37.1,37.1,0,0,0,30.32,36.5,2.57,2.57,0,0,1,2.14,2.54v14a2.58,2.58,0,0,0,2.57,2.58h4.13a2.57,2.57,0,0,0,2.58-2.58h0v-14a2.57,2.57,0,0,1,2.07-2.5,37,37,0,0,0,19.51-10.26,37.83,37.83,0,0,0,5.73-7.41,37.13,37.13,0,0,0-20.72-54.2A16.16,16.16,0,0,0,239,1035.53Zm25.31,46.68a27.8,27.8,0,0,1-17.15,14.53A2.57,2.57,0,0,1,244,1095a2.35,2.35,0,0,1-.11-.75v-45.61a4.44,4.44,0,0,1,6.14-4.1,27.73,27.73,0,0,1,14.89,36.3c-.18.44-.37.88-.58,1.31Z"/><path class="cls-10" d="M303.41,1079.46a12.33,12.33,0,0,1-1.9-.31,20,20,0,0,0-2.45-.15c-.56,0-1.48,0-1.84.51-.51.77-.36,4.3-.36,5.11H302c1.13,0,1.69.21,1.69,1.44v2c0,1.48-.36,1.94-1.84,1.94h-5v16.78c0,1.33-.2,2.3-1.79,2.3h-3.22c-1.38,0-1.53-.82-1.53-2v-17h-1.54c-1.12,0-1.23-.86-1.23-1.79v-2.21c0-1.79,1.44-1.44,2.77-1.44v-2c0-2.15.05-4.24,1.32-6,2.1-2.87,5.53-3,8.8-3,1,0,3.58,0,4.24,1a1.91,1.91,0,0,1,.26,1.07v.36C304.94,1077.05,304.94,1079.46,303.41,1079.46Zm10.48,1.53h-2c-1.84,0-2.71-.25-2.71-2.3v-1.79c0-1.63.67-2.25,2.25-2.25h2.41a2,2,0,0,1,2,2,2.46,2.46,0,0,1,0,.26v1.79c.09,1.43-.37,2.3-1.95,2.3Zm0,28.13h-2c-1.84,0-2.71-.26-2.71-2.3v-20c0-1.63.67-2.25,2.25-2.25h2.41a2,2,0,0,1,2,2,2.46,2.46,0,0,1,0,.26v20c.09,1.43-.37,2.3-1.95,2.3Z"/><path class="cls-10" d="M332.24,1109.73a49.66,49.66,0,0,1-7.31-.36c-1.53-.2-1.43-.92-1.43-2.35v-.92c0-1.12.1-2.35,1.48-2.35a23.53,23.53,0,0,1,2.66.3c1.74.16,3.53.26,5.32.26s2.56,0,2.56-1.89a2.63,2.63,0,0,0-.31-1.69c-.41-.51-4.91-1.74-5.73-2a28.12,28.12,0,0,1-2.91-1.18c-2.66-1.33-3.63-2.81-3.63-5.78,0-7.87,5.31-7.77,11.6-7.77,1.28,0,2.51,0,3.79.1,1.84.16,2.55.51,2.55,2.51,0,1.48.11,3.17-1.89,3.17-.87,0-1.79-.16-2.66-.21a37.09,37.09,0,0,0-4.09-.2c-1.94,0-3-.26-3,2a1.6,1.6,0,0,0,.25,1c.51.71,5.37,2,6.45,2.35,4,1.33,5.88,2.66,5.88,7.16C341.86,1108.81,338.58,1109.73,332.24,1109.73Z"/><path class="cls-10" d="M353.46,1081h-1.94c-1.84,0-2.71-.25-2.71-2.3v-1.79c0-1.63.66-2.25,2.25-2.25h2.4a2,2,0,0,1,2,2,2.46,2.46,0,0,1,0,.26v1.79C355.51,1080.12,355.05,1081,353.46,1081Zm0,28.13h-1.94c-1.84,0-2.71-.26-2.71-2.3v-20c0-1.63.66-2.25,2.25-2.25h2.4a2,2,0,0,1,2,2,2.46,2.46,0,0,1,0,.26v20C355.51,1108.25,355.05,1109.12,353.46,1109.12Z"/><path class="cls-10" d="M378.12,1109.58a42,42,0,0,1-4.35.2c-10,0-11.66-3.42-11.66-12.93s1.69-13,11.66-13a42,42,0,0,1,4.35.25c1.53.16,2.81,0,2.81,1.74v.1c0,1.28,0,4-1.84,4a14.23,14.23,0,0,1-2-.2,36.71,36.71,0,0,0-4.8-.41c-2.15,0-2.56.41-3,2.4a25.1,25.1,0,0,0-.41,5.12,40.15,40.15,0,0,0,.2,4.9c.21,2.3,1,2.56,3.23,2.56a37.33,37.33,0,0,0,4.85-.41,13.42,13.42,0,0,1,2-.2,1.41,1.41,0,0,1,1.22.51c.41.41.62,2.86.62,3.48C380.92,1109.48,379.69,1109.37,378.12,1109.58Z"/><path class="cls-10" d="M405.36,1109.12h-2.87c-1.17,0-1.48-.77-1.48-1.84a13.93,13.93,0,0,1-7.56,2.5c-5,0-7.32-2.71-7.32-7.62,0-5.57,3.33-7.46,8.34-8a44,44,0,0,1,6.49-.41c0-2,.31-4.91-2.56-4.91a32.78,32.78,0,0,0-7.36,1.07,5.05,5.05,0,0,1-1.23.15c-1.78,0-1.48-1.79-1.48-3.06a1.9,1.9,0,0,1,1.43-2.15,35.46,35.46,0,0,1,8.39-1c2.45,0,5.57.41,7.31,2.35,2,2.25,1.94,5.42,1.94,8.28v12.43C407.4,1108.4,406.89,1109.12,405.36,1109.12ZM401,1098.33c-.82,0-1.68-.1-2.5-.1a24.79,24.79,0,0,0-3.22.15c-2.15.31-3,1-3,3.22,0,1.23.2,3.43,1.89,3.43a11.65,11.65,0,0,0,6.85-2.56Z"/><path class="cls-10" d="M418.91,1109.12h-1.79c-1.84,0-2.71-.26-2.71-2.3v-30.68c0-1.64.66-2.2,2.25-2.2H419a1.94,1.94,0,0,1,2,1.86,1.88,1.88,0,0,1,0,.34v30.68C420.9,1108.25,420.49,1109.12,418.91,1109.12Z"/><path class="cls-10" d="M443.4,1109.58a42,42,0,0,1-4.35.2c-10,0-11.65-3.42-11.65-12.93s1.68-13,11.65-13a42,42,0,0,1,4.35.25c1.53.16,2.81,0,2.81,1.74v.1c0,1.28,0,4-1.84,4a13.42,13.42,0,0,1-2-.2,36.87,36.87,0,0,0-4.81-.41c-2.15,0-2.56.41-3,2.4a25.1,25.1,0,0,0-.41,5.12c0,1.63.06,3.27.21,4.9.2,2.3,1,2.56,3.22,2.56a37.63,37.63,0,0,0,4.86-.41,13.42,13.42,0,0,1,2-.2,1.44,1.44,0,0,1,1.23.51c.41.41.61,2.86.61,3.48C446.21,1109.48,445,1109.37,443.4,1109.58Z"/><path class="cls-10" d="M463.6,1109.78c-8.54,0-11.76-4.91-11.76-12.93s3.17-13,11.76-13,11.71,4.91,11.71,13S472.19,1109.78,463.6,1109.78Zm4.19-18.87c-.92-1.68-2.46-1.63-4.19-1.63s-3.28,0-4.2,1.63-1,4.15-1,5.94.1,4.34,1,5.93,2.51,1.58,4.2,1.58,3.27,0,4.19-1.58.92-4.2.92-5.93S468.66,1092.5,467.79,1090.91Z"/><path class="cls-10" d="M499.85,1109.12H497c-1.17,0-1.48-.77-1.48-1.84a13.94,13.94,0,0,1-7.57,2.5c-5,0-7.31-2.71-7.31-7.62,0-5.57,3.33-7.46,8.34-8a44,44,0,0,1,6.49-.41c0-2,.31-4.91-2.56-4.91a32.78,32.78,0,0,0-7.36,1.07,5.05,5.05,0,0,1-1.23.15c-1.79,0-1.48-1.79-1.48-3.06a1.9,1.9,0,0,1,1.43-2.15,35.46,35.46,0,0,1,8.39-1c2.45,0,5.57.41,7.31,2.35,2,2.25,1.94,5.42,1.94,8.28v12.43C501.89,1108.4,501.38,1109.12,499.85,1109.12Zm-4.35-10.79c-.82,0-1.69-.1-2.5-.1a24.79,24.79,0,0,0-3.22.15c-2.15.31-3,1-3,3.22,0,1.23.2,3.43,1.89,3.43a11.65,11.65,0,0,0,6.85-2.56Z"/><path class="cls-10" d="M524.12,1109.58a42,42,0,0,1-4.35.2c-10,0-11.66-3.42-11.66-12.93s1.69-13,11.66-13a42,42,0,0,1,4.35.25c1.53.16,2.81,0,2.81,1.74v.1c0,1.28,0,4-1.84,4a14.23,14.23,0,0,1-2.05-.2,36.87,36.87,0,0,0-4.81-.41c-2.14,0-2.55.41-3,2.4a25.1,25.1,0,0,0-.41,5.12c0,1.63,0,3.27.2,4.9.21,2.3,1,2.56,3.22,2.56a37.63,37.63,0,0,0,4.86-.41,13.42,13.42,0,0,1,2-.2,1.41,1.41,0,0,1,1.22.51c.41.41.62,2.86.62,3.48C527,1109.48,525.72,1109.37,524.12,1109.58Z"/><path class="cls-10" d="M551.85,1109.12h-2.73c-1.48,0-1.84-1-1.84-2.3v-13.09c0-.72.1-3.53-.36-4a2.12,2.12,0,0,0-1.64-.41,11.17,11.17,0,0,0-6.23,2.35v15.19c0,1.43-.41,2.3-2,2.3h-2.71c-1.38,0-1.84-.77-1.84-2v-31c0-1.64.66-2.2,2.25-2.2h2.37a1.94,1.94,0,0,1,2,1.86,1.88,1.88,0,0,1,0,.34v9.46a16.09,16.09,0,0,1,6.9-1.74c4.75,0,7.87,2.35,7.87,7.26v15.7C553.84,1108.25,553.43,1109.12,551.85,1109.12Z"/></g></g></g></svg>