<?xml version="1.0" encoding="utf-8"?>
<!-- Generator: Adobe Illustrator 25.4.1, SVG Export Plug-In . SVG Version: 6.00 Build 0)  -->
<svg version="1.1" id="Capa_1" xmlns="http://www.w3.org/2000/svg" xmlns:xlink="http://www.w3.org/1999/xlink" x="0px" y="0px"
	 viewBox="0 0 61.4 62.3" style="enable-background:new 0 0 61.4 62.3;" xml:space="preserve">
<style type="text/css">
	.st0{fill:none;stroke:#00E9C5;stroke-miterlimit:10;}
</style>
<g id="Capa_3">
</g>
<g id="Capa_4">
</g>
<g id="Capa_5">
	<g>
		<path class="st0" d="M26.5,48.7c0-0.7,1.8-1.2,4.1-1.2s4.1,0.6,4.1,1.3v2.1c0,0.7-1.8,1.2-4.1,1.2s-4.1-0.6-4.1-1.3L26.5,48.7z"/>
		<path class="st0" d="M34.7,48.7c0,0.7-1.8,1.2-4.1,1.2s-4.1-0.6-4.1-1.3"/>
	</g>
	<g>
		<path class="st0" d="M39.3,40.5c4.6-8.2,17.2-30.7,21.4-39L58,0.6L39.2,34.5c-1,1.8-2.9,2.9-5,3l-7.1,0.1
			c-0.9,0.3-1.4,1.9-1.7,3.4c-0.2,1.3,0.8,2.5,2.1,2.5l6.8-0.1C36.4,43.4,38.3,42.3,39.3,40.5z"/>
		<line class="st0" x1="56.3" y1="8.8" x2="54.3" y2="7.9"/>
		<line class="st0" x1="54" y1="13.5" x2="51.9" y2="12.4"/>
		<line class="st0" x1="53" y1="15.4" x2="50.9" y2="14.4"/>
	</g>
	<g>
		<path class="st0" d="M22.1,58.8c-4.6-8.2-17.2-30.7-21.4-39l2.7-0.9l18.8,33.9c1,1.8,2.9,2.9,5,3l7.1,0.1c0.9,0.3,1.4,1.9,1.7,3.4
			c0.2,1.3-0.8,2.5-2.1,2.5H27C24.9,61.7,23.1,60.6,22.1,58.8z"/>
		<line class="st0" x1="5" y1="27.2" x2="7.1" y2="26.2"/>
		<line class="st0" x1="7.4" y1="31.8" x2="9.4" y2="30.8"/>
		<line class="st0" x1="8.3" y1="33.8" x2="10.4" y2="32.8"/>
	</g>
</g>
</svg>
