<?xml version="1.0" encoding="utf-8"?>
<!-- Generator: Adobe Illustrator 25.4.1, SVG Export Plug-In . SVG Version: 6.00 Build 0)  -->
<svg version="1.1" id="Capa_1" xmlns="http://www.w3.org/2000/svg" xmlns:xlink="http://www.w3.org/1999/xlink" x="0px" y="0px"
	 viewBox="0 0 45.7 42" style="enable-background:new 0 0 45.7 42;" xml:space="preserve">
<style type="text/css">
	.st0{fill:#00E9C5;stroke:#00E9C5;stroke-width:0.25;stroke-miterlimit:10;}
	.st1{fill:none;stroke:#FF3737;stroke-width:0.8;stroke-miterlimit:10;}
	.st2{fill:none;stroke:#FF3737;stroke-miterlimit:10;}
	.st3{fill:#FF3737;}
</style>
<g id="Capa_3">
</g>
<g id="Capa_4">
</g>
<path class="st0" d="M38.6,13.8"/>
<g>
	<path class="st1" d="M45.3,37.9c0-0.7-2-1.3-4.5-1.3s-4.4,0.6-4.4,1.4v2.3c0,0.7,2,1.3,4.5,1.3s4.4-0.6,4.4-1.4V37.9z"/>
	<path class="st1" d="M36.4,38c0,0.7,2,1.3,4.5,1.3s4.4-0.6,4.4-1.4"/>
</g>
<g>
	<path class="st2" d="M21,38.5C16.6,30.7,4.7,9.3,0.7,1.4l2.6-0.8l17.9,32.3c1,1.7,2.8,2.8,4.7,2.8l6.8,0.1c0.9,0.3,1.4,1.8,1.6,3.2
		c0.2,1.2-0.7,2.4-2,2.4h-6.5C23.7,41.3,22,40.2,21,38.5z"/>
	<line class="st2" x1="4.8" y1="8.4" x2="6.8" y2="7.5"/>
	<line class="st2" x1="7" y1="12.9" x2="9" y2="11.8"/>
	<line class="st2" x1="7.9" y1="14.7" x2="10" y2="13.7"/>
</g>
<path class="st3" d="M32.5,16.5l-3.8-2.2c-0.3-0.1-0.7,0-1,0.3c0,0.1-0.1,0.3-0.1,0.3v2.3h-6c-0.4,0-0.7,0.3-0.7,0.7l0,0v2.9
	c0,0.4,0.3,0.7,0.7,0.7l0,0h6v2.3c0,0.4,0.3,0.7,0.7,0.7c0.1,0,0.3,0,0.3-0.1l3.8-2.2l3.8-2.2c0.3-0.1,0.4-0.5,0.3-1
	c0-0.1-0.1-0.1-0.3-0.3L32.5,16.5z"/>
</svg>
