<?xml version="1.0" encoding="utf-8"?>
<!-- Generator: Adobe Illustrator 25.4.1, SVG Export Plug-In . SVG Version: 6.00 Build 0)  -->
<svg version="1.1" id="Capa_1" xmlns="http://www.w3.org/2000/svg" xmlns:xlink="http://www.w3.org/1999/xlink" x="0px" y="0px"
	 viewBox="0 0 31.8 41.7" style="enable-background:new 0 0 31.8 41.7;" xml:space="preserve">
<style type="text/css">
	.st0{fill:#00E9C5;}
</style>
<g id="Iconos">
	<path class="st0" d="M17.7,12.9c-1.7,0.5-3.4-0.4-3.9-2.1c-0.5-1.7,0.4-3.4,2.1-3.9c1.7-0.5,3.4,0.4,3.9,2.1c0,0,0,0,0,0l0,0
		C20.2,10.6,19.3,12.4,17.7,12.9z M16,7.5c-1.3,0.4-2.1,1.8-1.7,3.1c0.4,1.3,1.8,2.1,3.1,1.7c1.3-0.4,2.1-1.8,1.7-3.1l0,0
		C18.7,7.9,17.3,7.1,16,7.5z"/>
	<path class="st0" d="M25.2,1.4L23.1,2c-0.2,0-0.3,0.2-0.2,0.4c0,0,0,0,0,0c0,0.2,0.2,0.3,0.4,0.2c0,0,0,0,0,0l0,0l1.8-0.6l0.8,2.7
		l-4.6,2.3c-0.2,0.1-0.2,0.3-0.1,0.4l0,0c1.3,2.4,0.3,5.5-2.1,6.7s-5.5,0.3-6.7-2.1S12,6.7,14.5,5.4c0,0,0,0,0,0l0,0
		c0.3-0.1,0.5-0.3,0.8-0.3l1.3-0.4l0.3,0.9c0,0.2,0.2,0.3,0.4,0.2c0,0,0,0,0,0l0,0l1.6-0.5C19,5.2,19.1,5,19,4.9l0,0L18.8,4l1.7-0.6
		c0.2-0.1,0.3-0.2,0.2-0.4c0-0.2-0.2-0.3-0.4-0.2c0,0,0,0,0,0l0,0l-2,0.6c-0.2,0.1-0.3,0.2-0.2,0.4l0,0l0.3,0.9l-1,0.3l-0.3-0.9
		C17,4,16.9,3.9,16.7,4c0,0,0,0,0,0l0,0l-1.6,0.5c-1.1,0.3-2,1-2.7,1.9l-0.3-0.2c-0.6-0.3-1.4-0.1-1.8,0.5s-0.1,1.4,0.5,1.8l0,0l0,0
		l0.4,0.2l0,0c-0.6,3.1,1.3,6.1,4.4,6.7c3.1,0.6,6.1-1.3,6.7-4.4c0.2-0.9,0.1-1.9-0.1-2.8C22.2,8,22.1,7.7,22,7.5l4.5-2.3
		c0.1-0.1,0.2-0.2,0.2-0.4l-1-3.3C25.6,1.4,25.4,1.3,25.2,1.4L25.2,1.4L25.2,1.4z M11.1,7.9c-0.3-0.2-0.4-0.6-0.3-0.9
		s0.6-0.4,0.9-0.3l0,0l0,0l0.2,0.1c-0.1,0.1-0.1,0.2-0.2,0.4c-0.1,0.3-0.3,0.6-0.4,0.8L11.1,7.9z"/>
	<path class="st0" d="M17.9,9.9c-0.2,0-0.3,0-0.4-0.2l0,0c-0.1-0.4-0.6-0.7-1-0.5c-0.2,0.1-0.3,0-0.4-0.2c-0.1-0.2,0-0.4,0.2-0.4
		c0.8-0.2,1.6,0.2,1.8,0.9C18.2,9.6,18.1,9.8,17.9,9.9L17.9,9.9z"/>
	<path class="st0" d="M16.9,1.8c-0.2,0-0.3-0.1-0.4-0.2l-0.4-1.2c0-0.2,0-0.3,0.2-0.4c0.2,0,0.4,0,0.4,0.2l0.4,1.2
		C17.1,1.6,17,1.8,16.9,1.8z"/>
	<path class="st0" d="M15.3,3.1c-0.1,0-0.2,0-0.2,0l-1.1-0.6c-0.2-0.1-0.2-0.3-0.2-0.4c0,0,0-0.1,0-0.1c0.1-0.2,0.3-0.2,0.4-0.1
		l1.1,0.6c0.2,0.1,0.2,0.3,0.1,0.4C15.4,3,15.4,3,15.3,3.1L15.3,3.1z"/>
	<path class="st0" d="M18.9,2c-0.2,0-0.3,0-0.4-0.2c0-0.1,0-0.2,0-0.2l0.6-1.1c0.1-0.2,0.3-0.2,0.4-0.1c0.2,0.1,0.2,0.3,0.1,0.4l0,0
		l0,0L19,1.9C19,1.9,18.9,2,18.9,2z"/>
	<path class="st0" d="M21.9,3c-0.2,0-0.3,0-0.4-0.2l0,0c-0.1-0.2,0-0.3,0.2-0.4c0,0,0,0,0,0l0,0c0.2-0.1,0.3,0,0.4,0.2
		c0,0.1,0,0.2,0,0.2C22,2.9,22,3,21.9,3z"/>
	<path class="st0" d="M12.2,24.8c-1-0.7-2.1-1.2-3.4-1.4H8.8c-0.3,0-0.5,0.2-0.5,0.5c-0.1,0.3,0.1,0.5,0.4,0.6c1,0.2,2,0.6,2.9,1.2
		c0.2,0.1,0.3,0.1,0.5,0c0.2-0.1,0.3-0.3,0.4-0.5l-0.1-0.1C12.4,25,12.3,24.9,12.2,24.8z"/>
	<path class="st0" d="M12,30.1c-0.7-0.4-1.4-0.7-2.2-1c-0.2-0.1-0.5-0.2-0.7-0.2H8.9c-0.3,0-0.6,0.2-0.7,0.5c0,0.3,0.1,0.5,0.4,0.6
		c1,0.2,1.9,0.6,2.8,1.1c0.3,0.2,0.6,0.1,0.8-0.1l0,0c0.1-0.1,0.1-0.3,0.1-0.5C12.3,30.4,12.2,30.2,12,30.1z"/>
	<path class="st0" d="M30.8,20.6h-3.1v-0.4c0-0.1,0-0.2,0-0.2v-3.3c0-0.3,0-0.5-0.2-0.7c-0.2-0.1-0.4-0.2-0.7-0.1
		c-3.7,0.3-7.2,1.7-10.1,4.1l-0.4,0.4l-0.5,0.4l-0.5-0.4L14.9,20c-2.8-2.4-6.4-3.8-10.1-4.1c-0.2-0.1-0.5,0-0.6,0.1
		c-0.2,0.2-0.2,0.4-0.2,0.7V20c0,0.1,0,0.2,0,0.2v0.4H0.9C0.6,20.5,0.2,20.7,0,21v17.8c0.1,0.3,0.4,0.4,0.9,0.5l1.2,0.1
		c1.9,0.1,3.9,0.2,5.9,0.4c2.6,0.2,5.2,0.8,7.6,1.8c0.2,0.1,0.2,0.1,0.3,0.1c0.1,0,0.2,0,0.3-0.1c2.4-1,5-1.6,7.6-1.8
		c2-0.2,4-0.3,5.9-0.4l1.2-0.1c0.4,0.1,0.7-0.1,0.9-0.5V21.1C31.6,20.7,31.2,20.5,30.8,20.6z M11.9,39.2c-3.4-0.6-6.8-1-10.2-1.1
		H1.1V21.9H4v12.4c0,0.9,0,0.9,0.9,1.1c2.4,0.5,4.7,1.4,6.8,2.8c0.2,0.1,0.3,0.2,0.5,0.4l1,0.9L11.9,39.2z M15.3,39.6L14.6,39
		c-1.1-1-2.3-1.9-3.6-2.6c-1.6-0.9-3.4-1.6-5.2-2c-0.4,0-0.7-0.4-0.6-0.8V17.1l0.9,0.2c0.4,0.1,0.7,0.1,1,0.2
		c2.5,0.5,4.8,1.6,6.7,3.2c1.4,1.1,1.4,1.2,1.4,3L15.3,39.6z M16.4,39.6V23.6c0-1.8,0-1.9,1.4-3c2-1.6,4.3-2.6,6.7-3.2
		c0.3-0.1,0.7-0.1,1-0.2l0.9-0.2v16.6c0,0.4-0.2,0.8-0.6,0.8c-1.8,0.4-3.5,1.1-5.2,2C19.3,37.1,18.1,38,17,39L16.4,39.6z M30.5,38.1
		H30c-3.4,0.1-6.9,0.5-10.2,1.1l-1.4,0.3l1-0.9c0.2-0.1,0.3-0.3,0.5-0.4c2.1-1.4,4.4-2.3,6.8-2.8c0.9-0.2,0.9-0.2,0.9-1.1V21.9h2.9
		L30.5,38.1z"/>
	<path class="st0" d="M19.5,25.8c0.2,0.1,0.3,0.1,0.5,0c0.9-0.6,1.9-1,2.9-1.2c0.3-0.1,0.4-0.3,0.4-0.6c0-0.3-0.3-0.5-0.5-0.5h-0.1
		c-1.2,0.2-2.4,0.6-3.4,1.4c-0.1,0.1-0.1,0.2-0.2,0.3l-0.1,0.1C19.2,25.5,19.3,25.7,19.5,25.8z"/>
	<path class="st0" d="M23.4,29.4c-0.1-0.3-0.4-0.5-0.7-0.5h-0.2c-0.2,0.1-0.5,0.1-0.7,0.2c-0.8,0.3-1.5,0.7-2.2,1
		c-0.2,0.1-0.3,0.2-0.3,0.4c0,0.2,0,0.3,0.1,0.5c0.2,0.3,0.5,0.4,0.8,0.2c0,0,0,0,0,0l0,0c0.9-0.5,1.8-0.9,2.8-1.1
		C23.2,29.9,23.4,29.7,23.4,29.4z"/>
</g>
</svg>
