<?xml version="1.0" encoding="utf-8"?>
<!-- Generator: Adobe Illustrator 25.4.1, SVG Export Plug-In . SVG Version: 6.00 Build 0)  -->
<svg version="1.1" id="Capa_1" xmlns="http://www.w3.org/2000/svg" xmlns:xlink="http://www.w3.org/1999/xlink" x="0px" y="0px"
	 viewBox="0 0 40.1 44.3" style="enable-background:new 0 0 40.1 44.3;" xml:space="preserve">
<style type="text/css">
	.st0{fill:none;stroke:#00E9C5;stroke-miterlimit:10;}
	.st1{fill:none;stroke:#00E9C5;stroke-linecap:round;stroke-miterlimit:10;}
	.st2{fill:none;stroke:#FFFFFF;stroke-miterlimit:10;}
	.st3{fill:none;stroke:#00E9C5;stroke-width:0.8;stroke-miterlimit:10;}
</style>
<g id="Capa_2_1_">
	<path class="st0" d="M0.5,24.8V2.9c0-1.3,1.1-2.4,2.4-2.4h34.3c1.3,0,2.4,1.1,2.4,2.4v21.8"/>
	<path class="st1" d="M24.5,17c7,0.7,10.8,3.3,13.2,4.7V5.1c0-1.2-1-2.2-2.2-2.2H4.7c-1.2,0-2.2,0.9-2.2,2.2v16.6
		c2.5-1.4,6.8-4.1,13.6-4.8"/>
	<path class="st0" d="M23.2,16.8"/>
</g>
<g id="Capa_3">
	<path class="st0" d="M0.5,24.8V2.9c0-1.3,1.1-2.4,2.4-2.4h34.3c1.3,0,2.4,1.1,2.4,2.4v21.8"/>
	<line class="st0" x1="7.5" y1="2.9" x2="7.3" y2="19.6"/>
	<line class="st0" x1="11.9" y1="2.9" x2="12" y2="17.9"/>
	<line class="st0" x1="16.2" y1="2.9" x2="16.2" y2="16.9"/>
	<line class="st0" x1="20.1" y1="2.9" x2="20" y2="12.5"/>
	<line class="st1" x1="24.2" y1="2.9" x2="24.5" y2="17"/>
	<line class="st0" x1="28.9" y1="2.9" x2="28.8" y2="17.7"/>
	<line class="st0" x1="32.8" y1="2.9" x2="32.8" y2="18.8"/>
	<path class="st0" d="M37.7,16.7c-3.1-1.6-9.4-4.2-17.7-4.3c-8.2,0-14.6,2.6-17.7,4.2"/>
	<path class="st0" d="M37.8,13.1c-3.1-1.6-9.4-4.2-17.7-4.3c-8.2,0-14.6,2.6-17.7,4.2"/>
	<path class="st0" d="M37.8,9.2c-3.1-1.6-9.1-4-17.4-4.1c-8.2,0-14.6,2.6-17.7,4.2"/>
</g>
<g id="Capa_6_00000176028604462543387330000011740994335743510178_">
	<g>
		<path class="st2" d="M16.9,20.6h6.9l-0.2,9.6l4.5,5.7l-0.2,6.5c-0.2,0.8-0.8,1.6-1.6,1.4c-0.6,0-1.4-0.6-1.4-1.4
			c0-1.8,0-3.9,0.2-5.7l-3.7-4.3h-1.8l-3.3,3.9l-0.2,6.1c-0.2,0.6-0.8,1.2-1.6,1.2c-0.6,0-1.4-0.6-1.6-1.4c0.2-2,0.2-4.3,0.2-6.5
			L17,30L16.9,20.6z"/>
	</g>
	<g>
		<path class="st0" d="M16.9,20.6h6.9l-0.2,9.6l4.5,5.7l-0.2,6.5c-0.2,0.8-0.8,1.6-1.6,1.4c-0.6,0-1.4-0.6-1.4-1.4
			c0-1.8,0-3.9,0.2-5.7l-3.7-4.3h-1.8l-3.3,3.9l-0.2,6.1c-0.2,0.6-0.8,1.2-1.6,1.2c-0.6,0-1.4-0.6-1.6-1.4c0.2-2,0.2-4.3,0.2-6.5
			L17,30L16.9,20.6z"/>
		<path class="st0" d="M25.4,20.7l6.2,2.3l1.6,5.1c0,0.6-0.2,1.2-0.6,1.4c-0.6,0.2-1.2,0.2-1.8-0.2c-0.6-1.6-1-2.8-1.6-4.5
			c-1.4-0.6-2.5-1.1-3.9-1.5"/>
		<path class="st0" d="M15.3,20.6L8.8,23l-1.6,5.1c0,0.6,0.2,1.2,0.6,1.4c0.6,0.2,1.2,0.2,1.6-0.2c0.4-1.6,1-2.8,1.4-4.5
			c1.4-0.6,2.8-1.2,4.3-1.6"/>
	</g>
</g>
<circle class="st3" cx="20.3" cy="16.5" r="2.5"/>
</svg>
