<?xml version="1.0" encoding="utf-8"?>
<!-- Generator: Adobe Illustrator 25.4.1, SVG Export Plug-In . SVG Version: 6.00 Build 0)  -->
<svg version="1.1" id="Capa_1" xmlns="http://www.w3.org/2000/svg" xmlns:xlink="http://www.w3.org/1999/xlink" x="0px" y="0px"
	 viewBox="0 0 49.6 36.1" style="enable-background:new 0 0 49.6 36.1;" xml:space="preserve">
<style type="text/css">
	.st0{fill:none;stroke:#00E9C5;stroke-miterlimit:10;}
	.st1{fill:none;stroke:#FF3737;stroke-miterlimit:10;}
	.st2{fill:#00E9C5;}
</style>
<path class="st0" d="M0.5,30.8V3.5c0-1.6,1.4-3,3-3h42.6c1.6,0,3,1.4,3,3v27.1"/>
<path class="st0" d="M31.6,21.2c6.8,1.3,12.5,4.3,15.2,5.8V6.3c0-1.5-1.3-2.7-2.7-2.7h-4.7h-4.8H30h-5h-5h-5.3h-4.4H5.7
	C4.2,3.6,3,4.9,3,6.3v4.6v4.7v5.1v6.2c2.6-1.5,8.6-4.6,15.8-5.8"/>
<line class="st0" x1="9.1" y1="3.5" x2="9" y2="24"/>
<line class="st0" x1="14.7" y1="3.5" x2="14.8" y2="22.2"/>
<line class="st0" x1="20.3" y1="3.6" x2="20.3" y2="13.8"/>
<path class="st1" d="M25,20.7"/>
<path class="st1" d="M24.9,8.2"/>
<line class="st0" x1="25.2" y1="3.7" x2="25.2" y2="13.4"/>
<line class="st0" x1="29.9" y1="3.5" x2="29.9" y2="13.6"/>
<line class="st0" x1="35.8" y1="3.5" x2="35.7" y2="21.9"/>
<line class="st0" x1="40.6" y1="3.5" x2="40.6" y2="23.9"/>
<g>
	<g>
		<path class="st0" d="M16.9,16.2c-0.7,0.1-1.4,0.2-2.1,0.4c-5.3,1.1-9.5,2.9-12,4.1"/>
	</g>
</g>
<g>
	<g>
		<path class="st0" d="M46.8,20.8c-2.7-1.3-7.8-3.4-13.7-4.5"/>
	</g>
</g>
<path class="st0" d="M25,10.1c-13.3,0.4-19,4.3-22.1,5.8"/>
<path class="st1" d="M18.7,11.2"/>
<path class="st1" d="M32.2,11.4"/>
<path class="st0" d="M46.9,16.1c-1.5-0.8-11.8-5.5-21.9-6"/>
<path class="st0" d="M46.6,10.8c-1.3,0-18.7-10.3-43.6,0.1"/>
<path class="st0" d="M46.6,11.2"/>
<g>
	<path class="st2" d="M14.3,35.8c-0.6,0.2-1.6,0.3-2.5,0.3c-3.6,0-4.4-1.6-4.4-5c0-1.7,0.2-4.1,1.9-4.7c0.8-0.3,1.2-0.5,2.2-0.5
		c0.7,0,0.7,0,1.7,0.1c0.5,0.1,1.8,0,1.7,0.9v0.3c0,0.6-0.2,0.8-0.8,0.8c-0.3,0-0.5,0-0.8,0c-0.5,0-0.8,0-1.3,0
		c-0.3,0-1.1,0-1.4,0.2c-0.9,0.5-0.8,2.2-0.8,3c0,1.1-0.2,2.7,1.3,3c0.3,0,0.8,0,1.1,0c0.2,0,0.3,0,0.5,0V32h-1.1
		c-0.8,0-0.8-0.5-0.8-0.9s0.2-0.8,0.8-0.8h2.7c0.5,0,0.8,0.3,0.8,0.8V35C15.1,35.3,14.9,35.5,14.3,35.8z"/>
	<path class="st2" d="M21,36.1c-3.2,0-4.2-2.2-4.2-5S17.9,26,21,26c3.3,0,4.2,2.2,4.2,5C25.2,34,24.2,36.1,21,36.1z M22.6,28.9
		c-0.3-0.6-0.9-0.8-1.5-0.8c-0.7,0-1.1,0.2-1.4,0.8s-0.3,1.6-0.3,2.4c0,0.6,0,1.6,0.3,2.4c0.3,0.6,0.9,0.8,1.5,0.8s1.3-0.2,1.5-0.8
		C23,33.1,23,32,23,31.3C23,30.4,22.9,29.4,22.6,28.9z"/>
	<path class="st2" d="M35,36.1h-0.8c-0.5,0-0.6-0.2-0.8-0.6l-0.5-1.1c-1.1,0-2.3,0-3.6,0l-0.4,0.9c-0.2,0.5-0.2,0.8-0.8,0.8h-0.8
		c-0.5,0-1,0-0.9-0.4c0-0.2,0.2-0.5,0.3-0.7l3.1-8.1c0.3-0.8,0.5-1.1,1.5-1c0.6,0.1,0.6,0.2,1,1l3.3,8.3c0,0.2,0,0.2,0,0.3
		C35.6,35.8,35.3,36.1,35,36.1z M31.1,29.4L30,32.7h2.3L31.1,29.4z"/>
	<path class="st2" d="M42.2,36.1H38c-0.5,0-0.8-0.2-0.8-0.8v-8.6c0-0.6,0.3-0.8,0.8-0.8h0.6c0.5,0,0.8,0.2,0.8,0.8v7.4
		c0.9,0,1.8,0,2.9,0c0.8,0,0.8,0.6,0.8,1.1C43,35.8,42.7,36.1,42.2,36.1z"/>
</g>
<path class="st1" d="M33.8,16.7"/>
<path class="st0" d="M25.2,13.5c4.4,0,7.9,1.1,7.9,2.4v4c0,1.3-3.6,2.3-7.9,2.3c-4.4,0-7.9-1.1-7.9-2.4v-4
	C17.3,14.5,20.8,13.4,25.2,13.5"/>
<path class="st0" d="M33.1,15.9c0,1.3-3.7,2.3-8,2.3c-4.4,0-7.8-0.9-7.8-2.2"/>
</svg>
