<svg id="hockey" xmlns="http://www.w3.org/2000/svg" width="37.606" height="38.808" viewBox="0 0 37.606 38.808">
  <path id="Trazado_1984" data-name="Trazado 1984" d="M52.382,57.281A7.431,7.431,0,0,1,48,56.077v1.517c0,1.21,1.962,2.191,4.382,2.191s4.382-.981,4.382-2.191V56.077a7.431,7.431,0,0,1-4.382,1.2Z" transform="translate(-19.207 -20.977)" fill="#050c42"/>
  <ellipse id="Elipse_95" data-name="Elipse 95" cx="4.382" cy="2.191" rx="4.382" ry="2.191" transform="translate(28.793 30.671)" fill="#050c42"/>
  <path id="Trazado_1985" data-name="Trazado 1985" d="M52.651,0,43.7,16.462a.133.133,0,0,1,.044.019l3.461,2.078,7.949-14.8L55.2,0Z" transform="translate(-17.599)" fill="#050c42"/>
  <path id="Trazado_1986" data-name="Trazado 1986" d="M8.118,48a3.756,3.756,0,0,0-3.612,2.724l-.363,1.251a3.658,3.658,0,0,0-.056,1.815,3.749,3.749,0,0,0,3.668,2.973H9.038L11.542,48Z" transform="translate(-2.748 -17.955)" fill="#050c42"/>
  <path id="Trazado_1987" data-name="Trazado 1987" d="M29.227,41.73l-1,1.846a3.756,3.756,0,0,1-3.361,2.078H21.553l-2.5,8.763h5.816a3.756,3.756,0,0,0,3.361-2.078l4.557-8.488a.048.048,0,0,1-.025-.013Z" transform="translate(-8.377 -15.61)" fill="#050c42"/>
  <path id="Trazado_1988" data-name="Trazado 1988" d="M40.326,28.05,36.27,35.511c.006.006.019.006.025.013l3.524,2.109,4.018-7.48c-.013,0-.019-.006-.031-.013Z" transform="translate(-14.819 -10.493)" fill="#050c42"/>
  <path id="Trazado_1989" data-name="Trazado 1989" d="M15.382,35.626V35H11v.506l1.207,3.018a.621.621,0,0,1,.044.232h4.335l-1.159-2.9A.631.631,0,0,1,15.382,35.626Z" transform="translate(-5.367 -13.092)" fill="#050c42"/>
  <path id="Trazado_1990" data-name="Trazado 1990" d="M11,27h4.382v3.756H11Z" transform="translate(-5.367 -10.1)" fill="#050c42"/>
  <path id="Trazado_1991" data-name="Trazado 1991" d="M15.382,20.13a.626.626,0,0,1,.032-.2L16.391,17H12.077L11,20.231v1.776h4.382Z" transform="translate(-5.367 -6.359)" fill="#050c42"/>
  <path id="Trazado_1992" data-name="Trazado 1992" d="M6.382,35.626V35H2v.626l1.878,3.13H7.585l-1.159-2.9a.631.631,0,0,1-.044-.233Z" transform="translate(-2 -13.092)" fill="#050c42"/>
  <path id="Trazado_1993" data-name="Trazado 1993" d="M6.382,20.13a.626.626,0,0,1,.032-.2L7.391,17H2.555l-.121.392A13.165,13.165,0,0,0,2,20.756v1.252H6.382Z" transform="translate(-2 -6.359)" fill="#050c42"/>
  <path id="Trazado_1994" data-name="Trazado 1994" d="M2,27H6.382v3.756H2Z" transform="translate(-2 -10.1)" fill="#050c42"/>
  <path id="Trazado_1995" data-name="Trazado 1995" d="M24.382,32.388,20,33.848v.68l1.207,3.018a.621.621,0,0,1,.044.232H23.13l1.252-2.086Z" transform="translate(-8.733 -12.115)" fill="#050c42"/>
  <path id="Trazado_1996" data-name="Trazado 1996" d="M20,20.231v1.534L24.382,20.3V17h-3.3Z" transform="translate(-8.733 -6.359)" fill="#050c42"/>
  <path id="Trazado_1997" data-name="Trazado 1997" d="M20.237,2.793A13.126,13.126,0,0,0,3.6,10.136H18.873a.626.626,0,0,1,.626.626V22.393l6.885-9.754V7.36a12.736,12.736,0,0,0-6.147-4.566Zm-.66,4.838H18.97a.626.626,0,1,1,0-1.252h.607a.626.626,0,1,1,0,1.252Zm1.193-.626A.626.626,0,0,1,21.4,6.38H22a.626.626,0,1,1,0,1.252H21.4a.626.626,0,0,1-.626-.626Z" transform="translate(-2.599 -0.747)" fill="#050c42"/>
  <path id="Trazado_1998" data-name="Trazado 1998" d="M20,29.536l4.382-1.461V24.388L20,25.848Z" transform="translate(-8.733 -9.123)" fill="#050c42"/>
</svg>
