<?xml version="1.0" encoding="utf-8"?>
<!-- Generator: Adobe Illustrator 25.4.1, SVG Export Plug-In . SVG Version: 6.00 Build 0)  -->
<svg version="1.1" id="Capa_1" xmlns="http://www.w3.org/2000/svg" xmlns:xlink="http://www.w3.org/1999/xlink" x="0px" y="0px"
	 viewBox="0 0 421.2 550" style="enable-background:new 0 0 421.2 550;" xml:space="preserve">
<style type="text/css">
	.st0{fill:none;stroke:#FF3737;stroke-width:18;stroke-linecap:round;stroke-linejoin:round;stroke-miterlimit:10;}
</style>
<path class="st0" d="M246.9,253.9c6.5-3.6,14.4-4.6,22.1-2.1l123.9,40.3c14.6,4.8,22.7,20.5,17.9,35.1l0,0
	c-4.8,14.6-20.5,22.7-35.1,17.9L258.6,307"/>
<path class="st0" d="M80.8,284.3l160.7-29.9c15.1-2.8,29.7,7.2,32.5,22.3l0,0c2.8,15.1-7.2,29.7-22.3,32.5L63.1,344.3
	c-44.1,8.2-70.8-45.9-42.4-77.5l56.4-60.2c14.4-15.4,113.2-31.4,113.2-31.4c30.1-3.7,89,13.5,116.8,25.6l97.1,97.7"/>
<line class="st0" x1="87.1" y1="344" x2="87.1" y2="541"/>
<line class="st0" x1="308.8" y1="325.6" x2="308.8" y2="541"/>
<path class="st0" d="M149.2,190.3c0,0,52.7,71,95.2-3.1"/>
<line class="st0" x1="196.8" y1="319.5" x2="196.8" y2="541"/>
<path class="st0" d="M196.8,319.5"/>
<line class="st0" x1="196.8" y1="230" x2="196.8" y2="262.7"/>
<line class="st0" x1="142.8" y1="329" x2="142.8" y2="541"/>
<line class="st0" x1="142.8" y1="187.2" x2="142.8" y2="272.7"/>
<line class="st0" x1="252.8" y1="309.2" x2="252.8" y2="541"/>
<line class="st0" x1="252.8" y1="187.2" x2="252.8" y2="251.5"/>
<circle class="st0" cx="196.8" cy="78.4" r="69.4"/>
</svg>
