<?xml version="1.0" encoding="utf-8"?>
<!-- Generator: Adobe Illustrator 25.4.1, SVG Export Plug-In . SVG Version: 6.00 Build 0)  -->
<svg version="1.1" id="Capa_1" xmlns="http://www.w3.org/2000/svg" xmlns:xlink="http://www.w3.org/1999/xlink" x="0px" y="0px"
	 viewBox="0 0 34.9 30.9" style="enable-background:new 0 0 34.9 30.9;" xml:space="preserve">
<style type="text/css">
	.st0{fill:#00E9C5;}
	.st1{enable-background:new    ;}
</style>
<g id="Iconos">
	<path class="st0" d="M15,25.7c-3.3,1.1-6.8-0.7-7.9-4s0.7-6.8,4-7.9c3.3-1.1,6.8,0.7,7.9,4v0.1l0,0C20.1,21.2,18.3,24.7,15,25.7z
		 M11.7,15c-2.6,0.8-4.1,3.6-3.3,6.2s3.6,4.1,6.2,3.3c2.6-0.8,4.1-3.6,3.3-6.2c0,0,0,0,0,0l0,0C17.1,15.7,14.3,14.2,11.7,15
		C11.7,15,11.7,15,11.7,15L11.7,15z"/>
	<path class="st0" d="M29.9,2.7L25.7,4c-0.3,0.1-0.5,0.4-0.4,0.8c0,0,0,0,0,0c0.1,0.3,0.5,0.5,0.8,0.4l0,0l3.6-1.1l1.7,5.5l-9.1,4.6
		c-0.3,0.2-0.5,0.5-0.3,0.9l0,0c2.5,4.9,0.6,10.9-4.3,13.5c-4.9,2.5-10.9,0.6-13.5-4.3c-2.5-4.9-0.6-10.9,4.2-13.5
		c0.5-0.3,1.1-0.5,1.6-0.7l2.5-0.8l0.5,1.7c0.1,0.3,0.5,0.5,0.8,0.4l3.2-1c0.4-0.1,0.6-0.5,0.5-0.8c0,0,0-0.1,0-0.1L17.1,8l3.5-1.1
		c0.3-0.1,0.5-0.4,0.4-0.8c0,0,0,0,0,0l0,0c-0.1-0.3-0.4-0.6-0.8-0.5l0,0l-4.1,1.3c-0.3,0.1-0.5,0.4-0.4,0.8c0,0,0,0,0,0l0,0
		l0.5,1.7l-2,0.6l-0.5-1.7c-0.1-0.3-0.5-0.5-0.8-0.4l-3.2,1c-2.2,0.7-4.1,2-5.5,3.8l-0.6-0.3c-1.3-0.6-2.9,0-3.4,1.4
		c-0.5,1.2-0.1,2.5,1,3.2L2,17.4l0,0c-1.1,6.1,2.9,12,9,13.2s12-2.9,13.2-9c0.3-1.7,0.2-3.5-0.2-5.2c-0.1-0.4-0.3-0.9-0.5-1.3l9-4.6
		c0.3-0.1,0.4-0.5,0.3-0.8l-2-6.6c-0.1-0.3-0.5-0.5-0.8-0.4l0,0L29.9,2.7z M1.8,15.9c-0.6-0.3-0.9-1.1-0.6-1.7l0,0
		c0.3-0.6,1.1-0.9,1.7-0.6c0,0,0,0,0,0l0,0l0.4,0.2L3,14.6c-0.3,0.5-0.5,1.1-0.7,1.7L1.8,15.9z"/>
	<path class="st0" d="M15.4,19.7c-0.3,0.1-0.7-0.1-0.8-0.4c0,0,0,0,0,0l0,0l0,0c-0.2-0.8-1.1-1.3-1.9-1.1c0,0,0,0,0,0h-0.1
		c-0.3,0.1-0.7-0.1-0.8-0.4c-0.1-0.3,0.1-0.7,0.4-0.8c0,0,0,0,0,0l0,0c1.5-0.4,3.1,0.4,3.5,1.9c0,0,0,0,0,0V19
		c0.1,0.3-0.1,0.7-0.4,0.8l0,0L15.4,19.7z"/>
	<path class="st0" d="M13.3,3.7c-0.3,0.1-0.7-0.1-0.8-0.4l0,0l-0.8-2.5c-0.1-0.4,0.2-0.7,0.5-0.8c0.3-0.1,0.7,0.1,0.8,0.4l0.8,2.5
		C13.9,3.3,13.6,3.6,13.3,3.7z"/>
	<path class="st0" d="M10.2,6.3c-0.2,0.1-0.3,0.1-0.5,0L7.5,5.1C7.2,4.9,7.1,4.5,7.2,4.2c0.2-0.3,0.5-0.4,0.9-0.3l0,0l2.3,1.2
		c0.3,0.2,0.4,0.5,0.3,0.8c0,0,0,0,0,0C10.5,6.1,10.4,6.3,10.2,6.3L10.2,6.3z"/>
	<path class="st0" d="M17.3,4.1C17,4.2,16.6,4,16.5,3.7l0,0c-0.1-0.2-0.1-0.3,0-0.5l1.2-2.2c0.2-0.3,0.6-0.4,0.9-0.1
		c0.2,0.2,0.3,0.5,0.2,0.8l0,0l-1.2,2.2C17.6,3.9,17.5,4,17.3,4.1z"/>
	<path class="st0" d="M23.3,6.1c-0.3,0.1-0.7-0.1-0.8-0.4c0,0,0,0,0,0l0,0C22.4,5.4,22.6,5,23,4.9c0,0,0,0,0,0
		c0.3-0.1,0.7,0.1,0.8,0.4c0,0,0,0,0,0c0.1,0.2,0.1,0.3,0,0.5C23.7,6,23.5,6.1,23.3,6.1z"/>
</g>
<g class="st1">
	<path class="st0" d="M34.8,22.1c-0.2,0.5-0.5,1-0.8,1.4c-0.1,0.1-0.1,0.2-0.2,0.3c-0.2,0.2-0.3,0.3-0.5,0.4
		c-0.3,0.1-0.8-0.1-0.9-0.4c-0.1-0.3,0-0.7,0.1-0.8l0.5-0.8c0.2-0.2,0.3-0.5,0.6-0.8c0.1-0.1,0.2-0.1,0.3-0.2l0.1,0
		c0.1,0,0.2,0,0.4,0c0.3,0.1,0.6,0.4,0.6,0.6C34.9,22,34.8,22.1,34.8,22.1z"/>
</g>
<g>
	<path class="st0" d="M28.6,30.9c-0.6,0-2-0.2-2.5-0.4c-0.2-0.1-0.3-0.2-0.3-0.5c0-0.4,0.2-1.2,0.7-1.2c0.2,0,0.7,0.2,0.9,0.2
		c0.4,0.1,0.8,0.2,1.2,0.2c0.8,0,1.1-0.5,1.1-1.3c0-0.3-0.1-0.7-0.2-0.9c-0.1-0.3-0.8-0.2-1-0.2c-0.3,0-0.6,0-0.9,0.1
		c-0.2,0-0.5,0.1-0.7,0.1c-0.4,0-0.6-0.2-0.6-0.6v-0.1l0.3-3.5c0-0.5,0.2-0.7,0.7-0.7h3.6c0.7,0,0.7,0.4,0.7,1
		c0,0.5-0.2,0.7-0.7,0.7h-0.6c-0.7,0-1.3,0-1.9,0L28,25.2c0.2,0,0.3,0,0.5,0c0.4,0,0.9,0,1.3,0.1c1.3,0.3,1.7,1.6,1.7,2.8
		C31.5,29.9,30.4,30.9,28.6,30.9z"/>
</g>
</svg>
