<?xml version="1.0" encoding="utf-8"?>
<!-- Generator: Adobe Illustrator 25.4.1, SVG Export Plug-In . SVG Version: 6.00 Build 0)  -->
<svg version="1.1" id="Capa_1" xmlns="http://www.w3.org/2000/svg" xmlns:xlink="http://www.w3.org/1999/xlink" x="0px" y="0px"
	 viewBox="0 0 427.4 425.1" style="enable-background:new 0 0 427.4 425.1;" xml:space="preserve">
<style type="text/css">
	.st0{fill:none;stroke:#00E9C5;stroke-width:18;stroke-linecap:round;stroke-linejoin:round;stroke-miterlimit:10;}
	.st1{fill:none;stroke:#00E9C5;stroke-miterlimit:10;}
	.st2{enable-background:new    ;}
	.st3{fill:#00E9C5;}
</style>
<path class="st0" d="M204.2,9.4"/>
<path class="st0" d="M216.7,12.5"/>
<path class="st0" d="M177.1,11.9c-20.6,7.4-34.1,21.8-37.6,43.8c-3.8,23.7,5.2,43,25.1,56.4c18.8,12.7,47.7,12.5,68.2-6.1
	c16.9-15.4,22.1-42.6,12.8-64.3c-6.2-14.6-16-24.4-29-29.2"/>
<path class="st0" d="M179.5,11.1c-0.8,0.3-1.6,0.5-2.4,0.8"/>
<path class="st1" d="M193.4,350.5C193.4,348.2,193.3,350.4,193.4,350.5L193.4,350.5z"/>
<g>
	<line class="st0" x1="113" y1="384.7" x2="113" y2="416.1"/>
	<path class="st0" d="M268.9,328.6l0.9-103l60.1,37l-81.5,88c-8.2,8.9-7.7,22.7,1.2,30.9l0,0c8.9,8.2,22.7,7.7,30.9-1.2l91.5-98.8
		c13.5-14.6,10.3-37.9-6.6-48.4l-112.8-69.3c-35.5-21.8-80.3-21.8-115.8,0L24.1,233.1c-17,10.4-20.2,33.8-6.6,48.4l91.5,98.8
		c8.2,8.9,22,9.4,30.9,1.2l0,0c8.9-8.2,9.4-22,1.2-30.9l-81.5-88l53.5-32.9v90.7"/>
	<line class="st0" x1="267.9" y1="416.1" x2="268.1" y2="386.9"/>
</g>
<path class="st0" d="M234,416.1V169.2c-41.4,31-78.6,0-78.6,0v246.9"/>
<line class="st0" x1="194.7" y1="183" x2="194.7" y2="416.1"/>
<g class="st2">
	<path class="st3" d="M307.3,103.9h-4.7c-5.4,0-8.4-1.2-8.4-7.1V36.5c-1.3,0.5-6.5,2.7-7.8,2.7c-5.4,0-5.9-4.8-5.9-9
		c0-3.8,1.6-5.6,5-7.1c7.2-3,13.8-6.5,21.8-6.5c4.2,0,6.7,2.7,6.7,6.8v73.4C313.9,101.3,311.9,103.9,307.3,103.9z"/>
	<path class="st3" d="M363.5,105.6c-28.1,0-33.7-21.8-33.7-45.3s5.6-45.3,33.7-45.3c28.1,0,33.7,21.8,33.7,45.3
		S391.4,105.6,363.5,105.6z M373.9,37.3c-2-4-6.3-5.1-10.5-5.1c-4.2,0-8.6,1-10.6,5.1c-2.6,5.4-3,17-3,23c0,6,0.4,17.6,3,23
		c2,4,6.4,5.1,10.6,5.1c4.2,0,8.5-1,10.5-5.1c2.6-5.5,3.1-17,3.1-23C377,54.3,376.5,42.8,373.9,37.3z"/>
	<path class="st3" d="M426.9,9.4c-2.2,4.9-5.1,9.8-7.7,14.6c-0.6,1.1-1.3,2.2-2.2,3.1c-1.6,1.7-3.3,2.8-5.5,3.7
		c-3.2,1.3-8.2-1.4-9.6-4.5c-1.4-3,0.2-7,0.8-8.2l4.9-8.3c1.6-1.6,3.5-5.5,6-7.8c1-0.9,2.2-1.5,3.5-1.7l0.8-0.1
		c1.2-0.2,2.4-0.1,3.6,0.3c2.8,1.1,5.9,3.6,6.1,6.2C427.5,7.6,427.3,8.6,426.9,9.4z"/>
</g>
<path class="st0" d="M228.6,18.5C213.3,8,188.3,5.1,168.9,15.4"/>
</svg>
