<?xml version="1.0" encoding="utf-8"?>
<!-- Generator: Adobe Illustrator 25.4.1, SVG Export Plug-In . SVG Version: 6.00 Build 0)  -->
<svg version="1.1" id="Capa_1" xmlns="http://www.w3.org/2000/svg" xmlns:xlink="http://www.w3.org/1999/xlink" x="0px" y="0px"
	 viewBox="0 0 43.7 42.2" style="enable-background:new 0 0 43.7 42.2;" xml:space="preserve">
<style type="text/css">
	.st0{fill:none;stroke:#00E9C5;stroke-miterlimit:10;}
	.st1{fill:none;stroke:#00E9C5;stroke-linecap:round;stroke-miterlimit:10;}
	.st2{fill:none;stroke:#00E9C5;stroke-width:0.5;stroke-miterlimit:10;}
	.st3{fill:none;stroke:#00E9C5;stroke-width:0.75;stroke-linecap:round;stroke-linejoin:round;stroke-miterlimit:10;}
	.st4{fill:none;stroke:#00E9C5;stroke-width:0.75;stroke-miterlimit:10;}
	.st5{fill:none;stroke:#00E9C5;stroke-width:1.8;stroke-linecap:round;stroke-miterlimit:10;}
</style>
<g id="Capa_1_1_">
	<g id="Capa_4">
	</g>
	<g id="Capa_5">
		<path class="st0" d="M22.8,8.8c-1-0.1-1.9,0.2-2.8,0.9c-2.1,1.7-4.4,3.5-6.7,5.8c-2.2,1.9-4,4.1-5.6,6c-0.4,0.5-0.2,1.2,0.2,1.6
			c5.6,4,9.1,6.3,10.3,7.2c0.4,0.2,0.5,0.6,0.5,1L18,39.6c0,0.1,0,0.2,0,0.4c0.2,1,1.3,1.5,2.2,1.7c1.1,0,2.1-0.6,2.6-1.9
			c0.2-3.2,0.6-7.7,0.7-11.1c0-0.4-0.1-0.7-0.4-0.9c-1.2-0.9-4.4-3.3-6.1-4.5c-0.5-0.4-0.6-1.2-0.1-1.6l5.7-5.2
			c0.6-0.5,1.5-0.2,1.7,0.5l2.9,10.3c0.2,0.9,1.1,1.3,1.9,1.1s1.5-1.1,1.3-1.9c-1.5-5.6-2.2-8.8-3.5-14.1c-0.1-0.6-0.4-1.3-0.9-1.8
			c-0.4-0.5-0.6-0.7-1.5-1.2c-0.6-0.2-0.6-0.2-0.6-0.2C23.4,8.8,23.2,8.8,22.8,8.8z"/>
		<path class="st1" d="M7.9,25.9v6.6L1,37.4c-0.7,0.6-0.7,1.8-0.1,2.7s1.7,1.3,2.7,0.9c2.8-2.2,5.7-4.5,8.6-6.5c0-2.1,0-3.5,0-5.6"
			/>
	</g>
</g>
<g id="Capa_2_1_">
</g>
<g id="Capa_5_00000008137155730952235240000005458981603019191197_">
	<g>
		<path class="st2" d="M37.9,36.4c-0.1-0.4,0.9-0.9,2.1-1c1.2-0.1,2.2-0.1,2.3,0.4l0.2,1.1c0.1,0.4-0.9,0.9-2.1,1
			c-1.2,0.2-2.2,0.1-2.3-0.4L37.9,36.4z"/>
		<path class="st2" d="M42.2,35.5c-0.1,0.4-0.9,0.9-2.1,1c-1.2,0.2-2.2,0.1-2.3-0.4"/>
	</g>
	<g>
		<path class="st3" d="M36.1,40.3c-3-3.7-11.9-13.8-15-17.6l1.3-1.1l13.1,15.8c0.7,0.9,1.8,1.2,2.8,1l3.7-0.7
			c0.6-0.1,0.9,0.9,1.2,1.6c0.2,0.6-0.2,1.3-0.9,1.5l-3.5,0.7C37.8,41.4,36.8,41.1,36.1,40.3z"/>
		<line class="st4" x1="24.2" y1="26.2" x2="25.4" y2="25.2"/>
		<line class="st4" x1="25.9" y1="27.9" x2="26.8" y2="27.2"/>
		<line class="st4" x1="26.7" y1="28.9" x2="27.6" y2="28.1"/>
	</g>
</g>
<line class="st5" x1="33.5" y1="14.2" x2="39.4" y2="14.3"/>
<line class="st5" x1="36.4" y1="17.4" x2="36.5" y2="11.3"/>
<circle class="st0" cx="36.4" cy="14.3" r="5.5"/>
<path class="st0" d="M27.8,7.9c-2.1,0-3.7-1.6-3.7-3.7s1.6-3.7,3.7-3.7s3.7,1.6,3.7,3.7S29.9,7.9,27.8,7.9"/>
</svg>
