<?xml version="1.0" encoding="utf-8"?>
<!-- Generator: Adobe Illustrator 25.4.1, SVG Export Plug-In . SVG Version: 6.00 Build 0)  -->
<svg version="1.1" id="Capa_1" xmlns="http://www.w3.org/2000/svg" xmlns:xlink="http://www.w3.org/1999/xlink" x="0px" y="0px"
	 viewBox="0 0 281.5 568.6" style="enable-background:new 0 0 281.5 568.6;" xml:space="preserve">
<style type="text/css">
	.st0{fill:none;stroke:#FF3737;stroke-width:18;stroke-linecap:round;stroke-linejoin:round;stroke-miterlimit:10;}
</style>
<line class="st0" x1="272.4" y1="323.8" x2="272.4" y2="559.6"/>
<line class="st0" x1="172.6" y1="307.5" x2="172.6" y2="391"/>
<line class="st0" x1="119.3" y1="285.1" x2="119.3" y2="444.1"/>
<line class="st0" x1="172.6" y1="461.9" x2="172.6" y2="559.6"/>
<line class="st0" x1="119.3" y1="509.1" x2="119.3" y2="559.6"/>
<path class="st0" d="M222.7,285.9V305c0,5.2-1.5,10.3-4.3,14.8l-41.3,66.5c-8,12.8-18.2,24.5-30.2,34.6L42.3,508.7
	c-10.2,8.6-10.6,22.8-0.8,31.7l0,0c9.8,9,26,9.3,36.2,0.7l115-96.6c9.2-7.7,17.1-16.5,23.5-26.2l53.4-80.8c5.4-8.2,3-18.7-5.6-24.4
	L217.1,282c-16.2-6.7-32.6-7.7-51.1-6.7c-5.6,0.3-11.2,1.1-16.7,2.2l-31.5,6.6L63.7,180.9c-2.3-4.4-3.5-9.3-3.5-14.2V31.4
	C60.2,19,48.7,9,34.6,9l0,0C20.5,9,9,19,9,31.4v145.7c0,4.2,3.2,17.5,5.1,21.4l50.3,111.6c2.9,5.8,5,24,5,30.3l-0.3,145.9"/>
<line class="st0" x1="226.1" y1="404.1" x2="226.1" y2="559.6"/>
<path class="st0" d="M117.7,284.3c0,0,54.9,51.8,99-1.2"/>
<circle class="st0" cx="172.6" cy="187.9" r="55.4"/>
<line class="st0" x1="68.3" y1="547.5" x2="68.3" y2="559.6"/>
</svg>
