<?xml version="1.0" encoding="utf-8"?>
<!-- Generator: Adobe Illustrator 25.4.1, SVG Export Plug-In . SVG Version: 6.00 Build 0)  -->
<svg version="1.1" id="Capa_1" xmlns="http://www.w3.org/2000/svg" xmlns:xlink="http://www.w3.org/1999/xlink" x="0px" y="0px"
	 viewBox="0 0 39.4 36.2" style="enable-background:new 0 0 39.4 36.2;" xml:space="preserve">
<style type="text/css">
	.st0{fill:none;stroke:#FF3737;stroke-width:0.5;stroke-miterlimit:10;}
	.st1{fill:none;stroke:#FF3737;stroke-width:0.75;stroke-miterlimit:10;}
	.st2{fill:#FFFFFF;stroke:#00E9C5;stroke-miterlimit:10;}
	.st3{fill:#FF3737;}
	.st4{fill:none;}
	.st5{fill:none;stroke:#FF3737;stroke-width:0.4;stroke-miterlimit:10;}
	.st6{fill:none;stroke:#FF3737;stroke-width:0.5;stroke-linecap:round;stroke-miterlimit:10;}
	.st7{fill:none;stroke:#00E9C5;stroke-width:0.5;stroke-miterlimit:10;}
	.st8{fill:none;stroke:#FFFFFF;stroke-width:0.5;stroke-miterlimit:10;}
	.st9{enable-background:new    ;}
</style>
<g id="Capa_7">
	<path class="st0" d="M33.8,22.1l2-6.3"/>
	<path class="st0" d="M33.3,23.4"/>
	<path class="st0" d="M37,15.1c-0.8,2.4-1.5,5-2.1,7.1"/>
	<path class="st0" d="M36.8,13L38,8.9c-0.1-0.1-1.9-0.8-2.3-1l-0.2-0.1l0.3-1.2c0-0.1,0.1-0.2,0.2-0.1c0.6,0.2,3,1.1,3.1,2
		c-0.3,1.2-0.8,2.7-1.3,4.4"/>
	<path class="st1" d="M31,15.8l-5.1,3.8v5.3L21,33.4c-0.2,0.5,0,1.1,0.4,1.5c0.5,0.4,1.2,0.3,1.6-0.1l5.3-8.7l2.5,3.8v4.7
		c0.1,0.8,0.8,1.3,1.6,1.2c0.6-0.1,1.2-0.6,1.2-1.2v-5.8l-2.7-4l0.6-6.8l6.3-3.4c0.5-0.3,0.6-0.9,0.4-1.4c-0.4-0.5-1-0.7-1.6-0.4
		c-0.2,0.1-0.4,0.2-0.5,0.3C34.5,14.1,32.8,15,31,15.8z"/>
	<path class="st1" d="M31.2,22.6l3.1-0.5c0.5,0,0.9,0.3,1,0.7c0.2,0.5-0.1,1.1-0.6,1.3h-0.1c-0.8,0.1-2.8,0.6-3.6,0.8"/>
	<circle class="st1" cx="26.9" cy="14.6" r="1.9"/>
</g>
<g>
	<path class="st2" d="M22.5,23.4"/>
</g>
<g id="Capa_4">
	<polygon class="st1" points="21,17.1 15.4,15.1 16.5,21.1 18.1,19.6 21.1,24.8 24,22.2 19.2,18.6 	"/>
</g>
<g>
	<path class="st3" d="M22.1,35.2"/>
</g>
<g>
	<g>
		<path class="st4" d="M35.5,33.5c0-0.3,0.7-0.6,1.6-0.6c0.9,0,1.6,0.3,1.6,0.6v1c0,0.3-0.7,0.6-1.6,0.6c-0.9,0-1.6-0.3-1.6-0.6
			V33.5z"/>
	</g>
	<path class="st5" d="M35.5,33.5c0-0.3,0.7-0.6,1.6-0.6c0.9,0,1.6,0.3,1.6,0.6v1c0,0.3-0.7,0.6-1.6,0.6c-0.9,0-1.6-0.3-1.6-0.6V33.5
		z"/>
	<path class="st5" d="M38.7,33.6c0,0.3-0.7,0.6-1.6,0.6s-1.6-0.3-1.6-0.6"/>
</g>
<g id="Capa_2_00000008141268834755637000000017998663096753539508_">
	<path class="st0" d="M0.2,10.8V1.2c0-0.6,0.5-1,1-1h15c0.6,0,1,0.5,1,1v9.5"/>
	<path class="st6" d="M10.8,7.5c3.1,0.3,4.7,1.4,5.8,2.1V2.1c0-0.5-0.5-1-1-1H2.2c-0.5,0-1,0.4-1,1v7.3c1.1-0.6,3-1.8,6-2.1"/>
	<path class="st7" d="M10.2,7.3"/>
</g>
<g id="Capa_3_00000026138909304102211240000007439177312223850130_">
	<path class="st0" d="M0.2,10.8V1.2c0-0.6,0.5-1,1-1h15c0.6,0,1,0.5,1,1v9.5"/>
	<line class="st0" x1="3.3" y1="1.2" x2="3.2" y2="8.5"/>
	<line class="st0" x1="5.2" y1="1.2" x2="5.3" y2="7.7"/>
	<line class="st0" x1="7.1" y1="1.2" x2="7.1" y2="7.3"/>
	<line class="st0" x1="8.9" y1="1.2" x2="8.9" y2="5.4"/>
	<line class="st6" x1="10.6" y1="1.2" x2="10.8" y2="7.5"/>
	<line class="st0" x1="12.8" y1="1.2" x2="12.6" y2="7.7"/>
	<line class="st0" x1="14.5" y1="1.2" x2="14.5" y2="8.1"/>
	<path class="st0" d="M16.5,7.2c-1.4-0.7-4.1-1.8-7.7-1.9C5.2,5.4,2.4,6.5,1.2,7.2"/>
	<path class="st0" d="M16.6,5.7C15.2,5,12.5,3.8,8.9,3.8C5.2,3.8,2.6,4.9,1.2,5.7"/>
	<path class="st0" d="M16.6,3.9c-1.4-0.7-4-1.7-7.6-1.8C5.4,2.1,2.7,3.3,1.2,4"/>
</g>
<g id="Capa_6_00000176028604462543387330000011740994335743510178_">
	<g>
		<path class="st8" d="M7.4,9h3l-0.1,4.2l2,2.5l-0.1,2.8c-0.1,0.4-0.4,0.7-0.7,0.6c-0.3,0-0.6-0.3-0.6-0.6c0-0.8,0-1.7,0.1-2.5
			l-1.6-1.9H8.6l-1.4,1.7l-0.1,2.7C7,18.8,6.8,19,6.4,19s-0.6-0.3-0.7-0.6c0.1-0.9,0.1-1.9,0.1-2.8l1.7-2.5L7.4,9z"/>
	</g>
	<g>
		<path class="st0" d="M7.4,9h3l-0.1,4.2l2,2.5l-0.1,2.8c-0.1,0.4-0.4,0.7-0.7,0.6c-0.3,0-0.6-0.3-0.6-0.6c0-0.8,0-1.7,0.1-2.5
			l-1.6-1.9H8.6l-1.4,1.7l-0.1,2.7C7,18.8,6.8,19,6.4,19s-0.6-0.3-0.7-0.6c0.1-0.9,0.1-1.9,0.1-2.8l1.7-2.5L7.4,9z"/>
		<path class="st0" d="M11.1,9l2.7,1l0.7,2.2c0,0.3-0.1,0.5-0.3,0.6c-0.3,0.1-0.5,0.1-0.8-0.1c-0.3-0.7-0.4-1.2-0.7-2
			c-0.6-0.3-1.1-0.5-1.7-0.7"/>
		<path class="st0" d="M6.8,9l-2.8,1.1l-0.7,2.2c0,0.3,0.1,0.5,0.3,0.6C3.9,13,4.1,13,4.2,12.8c0.2-0.7,0.4-1.2,0.6-2
			c0.6-0.3,1.2-0.5,1.9-0.7"/>
	</g>
</g>
<circle class="st0" cx="8.9" cy="7.2" r="1.1"/>
<g class="st9">
	<path class="st3" d="M29.4,8.3h-0.7c-0.4,0-0.6-0.1-0.8-0.4l-2-2.4h-0.2v2.2c0,0.8-0.6,0.6-1.2,0.6c-0.5,0-0.7-0.2-0.7-0.6V0.9
		c0-0.5,0.3-0.6,0.7-0.6h2.2c0.8,0,1.5,0,2.2,0.6c0.6,0.6,0.7,1.5,0.7,2.3c0,1.1-0.3,2-1.5,2.2l1.7,2c0.1,0.1,0.2,0.3,0.2,0.5
		C29.9,8.2,29.7,8.3,29.4,8.3z M27.4,2c-0.1-0.1-0.6-0.1-0.7-0.1h-0.3c-0.2,0-0.5,0-0.7,0v2h1.2c0.7,0,0.8-0.1,0.8-0.8
		C27.7,2.8,27.7,2.1,27.4,2z"/>
</g>
<g>
	<path class="st3" d="M4.1,31.7c-0.3,0.1-0.9,0.2-1.4,0.2c-2,0-2.4-0.9-2.4-2.7c0-0.9,0.1-2.2,1-2.6c0.4-0.2,0.7-0.3,1.2-0.3
		c0.4,0,0.4,0,0.9,0.1c0.3,0.1,1,0,0.9,0.5V27c0,0.3-0.1,0.4-0.4,0.4c-0.2,0-0.3,0-0.4,0c-0.3,0-0.4,0-0.7,0c-0.2,0-0.6,0-0.8,0.1
		c-0.5,0.3-0.4,1.2-0.4,1.6c0,0.6-0.1,1.5,0.7,1.6c0.2,0,0.4,0,0.6,0c0.1,0,0.2,0,0.3,0v-1.2H2.6c-0.4,0-0.4-0.3-0.4-0.5
		c0-0.2,0.1-0.4,0.4-0.4h1.5c0.3,0,0.4,0.2,0.4,0.4v2.1C4.5,31.4,4.4,31.5,4.1,31.7z"/>
	<path class="st3" d="M7.7,31.9c-1.8,0-2.3-1.2-2.3-2.7s0.6-2.8,2.3-2.8c1.8,0,2.3,1.2,2.3,2.7C10,30.7,9.5,31.9,7.7,31.9z
		 M8.6,27.9c-0.2-0.3-0.5-0.4-0.8-0.4c-0.4,0-0.6,0.1-0.8,0.4c-0.2,0.3-0.2,0.9-0.2,1.3c0,0.3,0,0.9,0.2,1.3C7.2,30.9,7.5,31,7.8,31
		c0.3,0,0.7-0.1,0.8-0.4c0.2-0.3,0.2-0.9,0.2-1.3C8.8,28.7,8.8,28.2,8.6,27.9z"/>
	<path class="st3" d="M15.4,31.9H15c-0.3,0-0.3-0.1-0.4-0.3l-0.3-0.6c-0.6,0-1.3,0-2,0L12,31.4c-0.1,0.3-0.1,0.4-0.4,0.4h-0.4
		c-0.3,0-0.5,0-0.5-0.2c0-0.1,0.1-0.3,0.2-0.4l1.7-4.4c0.2-0.4,0.3-0.6,0.8-0.5c0.3,0.1,0.3,0.1,0.5,0.5l1.8,4.5c0,0.1,0,0.1,0,0.2
		C15.7,31.7,15.6,31.9,15.4,31.9z M13.3,28.2L12.7,30h1.3L13.3,28.2z"/>
	<path class="st3" d="M19.3,31.9H17c-0.3,0-0.4-0.1-0.4-0.4v-4.7c0-0.3,0.2-0.4,0.4-0.4h0.3c0.3,0,0.4,0.1,0.4,0.4v4.1
		c0.5,0,1,0,1.6,0c0.4,0,0.4,0.3,0.4,0.6C19.8,31.7,19.6,31.9,19.3,31.9z"/>
</g>
</svg>
