<?xml version="1.0" encoding="utf-8"?>
<!-- Generator: Adobe Illustrator 25.4.1, SVG Export Plug-In . SVG Version: 6.00 Build 0)  -->
<svg version="1.1" id="Capa_1" xmlns="http://www.w3.org/2000/svg" xmlns:xlink="http://www.w3.org/1999/xlink" x="0px" y="0px"
	 viewBox="0 0 43.2 44.4" style="enable-background:new 0 0 43.2 44.4;" xml:space="preserve">
<style type="text/css">
	.st0{fill:none;stroke:#FF3737;stroke-miterlimit:10;}
	.st1{fill:none;stroke:#FF3737;stroke-width:0.75;stroke-miterlimit:10;}
</style>
<g id="Capa_2_1_">
	<path class="st0" d="M0.5,26.7V3.1c0-1.4,1.2-2.6,2.6-2.6h37c1.4,0,2.6,1.2,2.6,2.6v23.6"/>
	<path class="st0" d="M40.7,23.5v-18c0-1.3-1.1-2.4-2.4-2.4H5.1c-1.3,0-2.4,1.1-2.4,2.4v18c3-1.7,10-5.4,19.1-5.4
		C31,18,37.7,21.7,40.7,23.5z"/>
</g>
<g id="Capa_3">
	<path class="st0" d="M0.5,26.7V3.1c0-1.4,1.2-2.6,2.6-2.6h37c1.4,0,2.6,1.2,2.6,2.6v23.6"/>
	<path class="st0" d="M40.7,23.5v-18c0-1.3-1.1-2.4-2.4-2.4h-4.1h-4.1h-4h-4.3h-4.3H13H9.2h-4c-1.4,0-2.5,1.1-2.5,2.4v4v4.1v4.5v5.4
		c3-1.7,10-5.4,19.1-5.4C31,18,37.7,21.7,40.7,23.5z"/>
	<line class="st0" x1="8" y1="3.1" x2="7.9" y2="20.4"/>
	<line class="st0" x1="12.9" y1="3.1" x2="13" y2="19.3"/>
	<line class="st0" x1="17.4" y1="3.1" x2="17.4" y2="18.3"/>
	<line class="st0" x1="21.7" y1="3.1" x2="21.7" y2="18.1"/>
	<line class="st0" x1="26.1" y1="3.1" x2="26.1" y2="18.3"/>
	<line class="st0" x1="31.2" y1="3.1" x2="31" y2="19"/>
	<line class="st0" x1="35.4" y1="3.1" x2="35.4" y2="20.3"/>
	<path class="st0" d="M40.7,18.1c-3.4-1.7-10.1-4.4-19.1-4.5c-8.9,0-15.7,2.8-19.1,4.4"/>
	<path class="st0" d="M40.8,14.1c-3.4-1.7-10.1-4.4-19.1-4.5C12.8,9.6,6,12.4,2.6,14"/>
	<path class="st0" d="M40.5,9.7C37.1,8,30.8,6.5,21.8,6.4C12.8,6.4,6.4,8.3,3,9.9"/>
</g>
<path class="st0" d="M21.7,35.2c4.4,0,7.9,1.1,7.9,2.4v4c0,1.3-3.6,2.3-7.9,2.3c-4.4,0-7.9-1.1-7.9-2.4v-4
	C13.8,36.2,17.3,35.1,21.7,35.2"/>
<path class="st0" d="M29.6,37.6c0,1.3-3.7,2.3-8,2.3c-4.4,0-7.8-1.1-7.8-2.4"/>
<g id="Capa_4">
	<polygon class="st1" points="40.2,36.4 42.3,29.6 35.1,27.6 37.1,31 29.3,34 31.9,38.1 38.3,33.2 	"/>
</g>
</svg>
