<?xml version="1.0" encoding="utf-8"?>
<!-- Generator: Adobe Illustrator 25.4.1, SVG Export Plug-In . SVG Version: 6.00 Build 0)  -->
<svg version="1.1" id="Capa_1" xmlns="http://www.w3.org/2000/svg" xmlns:xlink="http://www.w3.org/1999/xlink" x="0px" y="0px"
	 viewBox="0 0 50 50" style="enable-background:new 0 0 50 50;" xml:space="preserve">
<style type="text/css">
	.st0{fill:#00E9C5;stroke:#00E9C5;stroke-width:0.25;stroke-miterlimit:10;}
	.st1{fill:none;stroke:#050B3D;stroke-width:0.8;stroke-miterlimit:10;}
	.st2{fill:none;stroke:#050B3D;stroke-miterlimit:10;}
	.st3{fill:#050B3D;}
</style>
<g id="Capa_3">
</g>
<g id="Capa_4">
</g>
<path class="st0" d="M41,18.7"/>
<g>
	<path class="st1" d="M47.7,42.8c0-0.7-2-1.3-4.5-1.3c-2.5,0-4.4,0.6-4.4,1.4l0,2.3c0,0.7,2,1.3,4.5,1.3c2.5,0,4.4-0.6,4.4-1.4
		L47.7,42.8z"/>
	<path class="st1" d="M38.8,42.9c0,0.7,2,1.3,4.5,1.3s4.4-0.6,4.4-1.4"/>
</g>
<g>
	<path class="st2" d="M23.4,43.4C19,35.6,7.1,14.2,3.1,6.3l2.6-0.8l17.9,32.3c1,1.7,2.8,2.8,4.7,2.8l6.8,0.1
		c0.9,0.3,1.4,1.8,1.6,3.2c0.2,1.2-0.7,2.4-2,2.4l-6.5,0C26.1,46.2,24.4,45.1,23.4,43.4z"/>
	<line class="st2" x1="7.2" y1="13.3" x2="9.2" y2="12.4"/>
	<line class="st2" x1="9.4" y1="17.8" x2="11.4" y2="16.7"/>
	<line class="st2" x1="10.3" y1="19.6" x2="12.4" y2="18.6"/>
</g>
<path class="st3" d="M34.9,21.4l-3.8-2.2c-0.3-0.1-0.7,0-1,0.3c0,0.1-0.1,0.3-0.1,0.3v2.3h-6c-0.4,0-0.7,0.3-0.7,0.7l0,0v2.9
	c0,0.4,0.3,0.7,0.7,0.7l0,0h6v2.3c0,0.4,0.3,0.7,0.7,0.7c0.1,0,0.3,0,0.3-0.1l3.8-2.2l3.8-2.2c0.3-0.1,0.4-0.5,0.3-1
	c0-0.1-0.1-0.1-0.3-0.3L34.9,21.4z"/>
</svg>
