<?xml version="1.0" encoding="utf-8"?>
<!-- Generator: Adobe Illustrator 25.4.1, SVG Export Plug-In . SVG Version: 6.00 Build 0)  -->
<svg version="1.1" id="Capa_1" xmlns="http://www.w3.org/2000/svg" xmlns:xlink="http://www.w3.org/1999/xlink" x="0px" y="0px"
	 viewBox="0 0 50 50" style="enable-background:new 0 0 50 50;" xml:space="preserve">
<style type="text/css">
	.st0{fill:none;stroke:#050B3D;stroke-miterlimit:10;}
	.st1{fill:none;stroke:#050B3D;stroke-width:0.75;stroke-miterlimit:10;}
</style>
<g id="Capa_2_1_">
	<path class="st0" d="M4,29.6V6c0-1.4,1.2-2.6,2.6-2.6h37c1.4,0,2.6,1.2,2.6,2.6v23.6"/>
	<path class="st0" d="M44.2,26.4v-18c0-1.3-1.1-2.4-2.4-2.4H8.6C7.3,6,6.2,7.1,6.2,8.4v18c3-1.7,10-5.4,19.1-5.4
		C34.5,20.9,41.2,24.6,44.2,26.4z"/>
</g>
<g id="Capa_3">
	<path class="st0" d="M4,29.6V6c0-1.4,1.2-2.6,2.6-2.6h37c1.4,0,2.6,1.2,2.6,2.6v23.6"/>
	<path class="st0" d="M44.2,26.4v-18c0-1.3-1.1-2.4-2.4-2.4h-4.1h-4.1h-4h-4.3h-4.3h-4.5h-3.8h-4C7.3,6,6.2,7.1,6.2,8.4v4v4.1V21
		v5.4c3-1.7,10-5.4,19.1-5.4C34.5,20.9,41.2,24.6,44.2,26.4z"/>
	<line class="st0" x1="11.5" y1="6" x2="11.4" y2="23.3"/>
	<line class="st0" x1="16.4" y1="6" x2="16.5" y2="22.2"/>
	<line class="st0" x1="20.9" y1="6" x2="20.9" y2="21.2"/>
	<line class="st0" x1="25.2" y1="6" x2="25.2" y2="21"/>
	<line class="st0" x1="29.6" y1="6" x2="29.6" y2="21.2"/>
	<line class="st0" x1="34.7" y1="6" x2="34.5" y2="21.9"/>
	<line class="st0" x1="38.9" y1="6" x2="38.9" y2="23.2"/>
	<path class="st0" d="M44.2,21c-3.4-1.7-10.1-4.4-19.1-4.5c-8.9,0-15.7,2.8-19.1,4.4"/>
	<path class="st0" d="M44.3,17c-3.4-1.7-10.1-4.4-19.1-4.5c-8.9,0-15.7,2.8-19.1,4.4"/>
	<path class="st0" d="M44,12.6c-3.4-1.7-9.4-4.1-18.4-4.2c-8.9,0-15.7,2.8-19.1,4.4"/>
</g>
<path class="st0" d="M25.2,38.1c4.4,0,7.9,1.1,7.9,2.4l0,4c0,1.3-3.6,2.3-7.9,2.3c-4.4,0-7.9-1.1-7.9-2.4l0-4
	C17.3,39.1,20.8,38,25.2,38.1"/>
<path class="st0" d="M33,40.5c0,1.3-3.6,2.3-7.9,2.3c-4.4,0-7.9-1.1-7.9-2.4"/>
<g id="Capa_4_00000144302122853242249050000007924061177143673775_">
	<polygon class="st1" points="30.9,31.9 25.4,26.4 19.6,31.9 23.9,31.9 21.8,38 29,38 26.7,31.9 	"/>
</g>
</svg>
