<?xml version="1.0" encoding="utf-8"?>
<!-- Generator: Adobe Illustrator 25.4.1, SVG Export Plug-In . SVG Version: 6.00 Build 0)  -->
<svg version="1.1" id="Capa_1" xmlns="http://www.w3.org/2000/svg" xmlns:xlink="http://www.w3.org/1999/xlink" x="0px" y="0px"
	 viewBox="0 0 65.4 73.1" style="enable-background:new 0 0 65.4 73.1;" xml:space="preserve">
<style type="text/css">
	.st0{fill:none;stroke:#050B3D;stroke-miterlimit:10;}
</style>
<g id="Capa_3">
</g>
<g id="Capa_4">
</g>
<g id="Capa_5">
	<g>
		<path class="st0" d="M28.5,54.6c0-0.7,1.8-1.2,4.1-1.2c2.3,0,4.1,0.6,4.1,1.3l0,2.1c0,0.7-1.8,1.2-4.1,1.2c-2.3,0-4.1-0.6-4.1-1.3
			L28.5,54.6z"/>
		<path class="st0" d="M36.7,54.6c0,0.7-1.8,1.2-4.1,1.2c-2.3,0-4.1-0.6-4.1-1.3"/>
	</g>
	<g>
		<path class="st0" d="M41.3,46.4c4.6-8.2,17.2-30.7,21.4-39L60,6.5L41.2,40.4c-1,1.8-2.9,2.9-5,3l-7.1,0.1
			c-0.9,0.3-1.4,1.9-1.7,3.4c-0.2,1.3,0.8,2.5,2.1,2.5l6.8-0.1C38.4,49.3,40.3,48.2,41.3,46.4z"/>
		<line class="st0" x1="58.3" y1="14.7" x2="56.3" y2="13.8"/>
		<line class="st0" x1="56" y1="19.4" x2="53.9" y2="18.3"/>
		<line class="st0" x1="55" y1="21.3" x2="52.9" y2="20.3"/>
	</g>
	<g>
		<path class="st0" d="M24.1,64.7c-4.6-8.2-17.2-30.7-21.4-39l2.7-0.9l18.8,33.9c1,1.8,2.9,2.9,5,3l7.1,0.1c0.9,0.3,1.4,1.9,1.7,3.4
			c0.2,1.3-0.8,2.5-2.1,2.5L29,67.7C26.9,67.6,25.1,66.5,24.1,64.7z"/>
		<line class="st0" x1="7" y1="33.1" x2="9.1" y2="32.1"/>
		<line class="st0" x1="9.4" y1="37.7" x2="11.4" y2="36.7"/>
		<line class="st0" x1="10.3" y1="39.7" x2="12.4" y2="38.7"/>
	</g>
</g>
</svg>
