<?xml version="1.0" encoding="utf-8"?>
<!-- Generator: Adobe Illustrator 25.4.1, SVG Export Plug-In . SVG Version: 6.00 Build 0)  -->
<svg version="1.1" id="Capa_1" xmlns="http://www.w3.org/2000/svg" xmlns:xlink="http://www.w3.org/1999/xlink" x="0px" y="0px"
	 viewBox="0 0 42.9 42.9" style="enable-background:new 0 0 42.9 42.9;" xml:space="preserve">
<style type="text/css">
	.st0{fill:none;stroke:#050B3D;stroke-width:0.5;stroke-miterlimit:10;}
	.st1{fill:none;stroke:#FF3737;stroke-width:0.5;stroke-miterlimit:10;}
	.st2{fill:none;stroke:#050B3D;stroke-width:0.75;stroke-miterlimit:10;}
	.st3{fill:#FF3737;}
	.st4{fill:#FFFFFF;stroke:#050B3D;stroke-miterlimit:10;}
	.st5{fill:none;}
	.st6{fill:none;stroke:#050B3D;stroke-width:0.4;stroke-miterlimit:10;}
	.st7{fill:none;stroke:#050B3D;stroke-width:0.5;stroke-linecap:round;stroke-miterlimit:10;}
	.st8{fill:none;stroke:#FFFFFF;stroke-width:0.5;stroke-miterlimit:10;}
	.st9{fill:#050B3D;}
	.st10{font-family:'CachetStd-Bold';}
	.st11{font-size:14px;}
</style>
<g id="Capa_7">
	<path class="st0" d="M35.5,26.8l2-6.3"/>
	<path class="st1" d="M35.1,28"/>
	<path class="st0" d="M38.8,19.8c-0.8,2.4-1.5,5-2.1,7.1"/>
	<path class="st0" d="M38.5,17.6l1.3-4.1c-0.1-0.1-1.9-0.8-2.3-1l-0.2-0.1l0.3-1.2c0-0.1,0.1-0.2,0.2-0.1c0.6,0.2,3,1.1,3.1,2
		c-0.3,1.2-0.8,2.7-1.3,4.4"/>
	<path class="st2" d="M32.7,20.4l-5.1,3.8v5.3l-4.8,8.6c-0.2,0.5,0,1.1,0.4,1.5c0.5,0.4,1.2,0.3,1.6-0.1l5.3-8.7l2.5,3.8v4.7
		c0.1,0.8,0.8,1.3,1.6,1.2c0.6-0.1,1.2-0.6,1.2-1.2v-5.8l-2.7-4l0.6-6.8l6.3-3.4c0.5-0.3,0.6-0.9,0.4-1.4c-0.4-0.5-1-0.7-1.6-0.4
		c-0.2,0.1-0.4,0.2-0.5,0.3C36.2,18.8,34.5,19.6,32.7,20.4z"/>
	<path class="st2" d="M32.9,27.2l3.1-0.5c0.5,0,0.9,0.3,1,0.7c0.2,0.5-0.1,1.1-0.6,1.3h-0.1c-0.8,0.1-2.8,0.6-3.6,0.8"/>
	<circle class="st2" cx="28.6" cy="19.3" r="1.9"/>
</g>
<path class="st3" d="M10.9,46.7c-0.1,0.1-0.2,0.2-0.3,0.3"/>
<g>
	<path class="st4" d="M24.3,28"/>
</g>
<g id="Capa_4">
	<polygon class="st2" points="22.7,21.8 17.1,19.8 18.2,25.7 19.9,24.2 22.9,29.4 25.7,26.9 21,23.3 	"/>
</g>
<g>
	<path class="st3" d="M23.9,39.9"/>
</g>
<g>
	<g>
		<path class="st5" d="M37.2,38.2c0-0.3,0.7-0.6,1.6-0.6c0.9,0,1.6,0.3,1.6,0.6v1c0,0.3-0.7,0.6-1.6,0.6c-0.9,0-1.6-0.3-1.6-0.6
			V38.2z"/>
	</g>
	<path class="st6" d="M37.2,38.2c0-0.3,0.7-0.6,1.6-0.6c0.9,0,1.6,0.3,1.6,0.6v1c0,0.3-0.7,0.6-1.6,0.6c-0.9,0-1.6-0.3-1.6-0.6V38.2
		z"/>
	<path class="st6" d="M40.4,38.3c0,0.3-0.7,0.6-1.6,0.6s-1.6-0.3-1.6-0.6"/>
</g>
<g id="Capa_2_00000008141268834755637000000017998663096753539508_">
	<path class="st0" d="M2,12.4V2.9c0-0.6,0.5-1,1-1h15c0.6,0,1,0.5,1,1v9.5"/>
	<path class="st7" d="M12.5,9.1c3.1,0.3,4.7,1.4,5.8,2.1V3.8c0-0.5-0.5-1-1-1H3.9c-0.5,0-1,0.4-1,1v7.3c1.1-0.6,3-1.8,6-2.1"/>
	<path class="st0" d="M12,9"/>
</g>
<g id="Capa_3_00000026138909304102211240000007439177312223850130_">
	<path class="st0" d="M2,12.4V2.9c0-0.6,0.5-1,1-1h15c0.6,0,1,0.5,1,1v9.5"/>
	<line class="st0" x1="5.1" y1="2.9" x2="5" y2="10.2"/>
	<line class="st0" x1="7" y1="2.9" x2="7.1" y2="9.4"/>
	<line class="st0" x1="8.9" y1="2.9" x2="8.9" y2="9"/>
	<line class="st0" x1="10.6" y1="2.9" x2="10.6" y2="7.1"/>
	<line class="st7" x1="12.4" y1="2.9" x2="12.5" y2="9.1"/>
	<line class="st0" x1="14.5" y1="2.9" x2="14.4" y2="9.3"/>
	<line class="st0" x1="16.2" y1="2.9" x2="16.2" y2="9.8"/>
	<path class="st0" d="M18.3,8.9c-1.4-0.7-4.1-1.8-7.7-1.9C7,7.1,4.2,8.2,2.9,8.9"/>
	<path class="st0" d="M18.4,7.3c-1.4-0.7-4.1-1.8-7.7-1.9C7,5.5,4.3,6.6,2.9,7.3"/>
	<path class="st0" d="M18.4,5.6c-1.4-0.7-4-1.7-7.6-1.8C7.2,3.8,4.4,5,3,5.7"/>
</g>
<g id="Capa_6_00000176028604462543387330000011740994335743510178_">
	<g>
		<path class="st8" d="M9.2,10.6h3l-0.1,4.2l2,2.5L14,20.1c-0.1,0.4-0.4,0.7-0.7,0.6c-0.3,0-0.6-0.3-0.6-0.6c0-0.8,0-1.7,0.1-2.5
			l-1.6-1.9h-0.8L9,17.4l-0.1,2.7c-0.1,0.3-0.4,0.5-0.7,0.5S7.6,20.3,7.5,20c0.1-0.9,0.1-1.9,0.1-2.8l1.7-2.5L9.2,10.6z"/>
	</g>
	<g>
		<path class="st0" d="M9.2,10.6h3l-0.1,4.2l2,2.5L14,20.1c-0.1,0.4-0.4,0.7-0.7,0.6c-0.3,0-0.6-0.3-0.6-0.6c0-0.8,0-1.7,0.1-2.5
			l-1.6-1.9h-0.8L9,17.4l-0.1,2.7c-0.1,0.3-0.4,0.5-0.7,0.5S7.6,20.3,7.5,20c0.1-0.9,0.1-1.9,0.1-2.8l1.7-2.5L9.2,10.6z"/>
		<path class="st0" d="M12.9,10.7l2.7,1l0.7,2.2c0,0.3-0.1,0.5-0.3,0.6c-0.3,0.1-0.5,0.1-0.8-0.1c-0.3-0.7-0.4-1.2-0.7-2
			c-0.6-0.3-1.1-0.5-1.7-0.7"/>
		<path class="st0" d="M8.5,10.6l-2.8,1.1L5,13.9c0,0.3,0.1,0.5,0.3,0.6c0.3,0.1,0.5,0.1,0.7-0.1c0.2-0.7,0.4-1.2,0.6-2
			c0.6-0.3,1.2-0.5,1.9-0.7"/>
	</g>
</g>
<circle class="st0" cx="10.7" cy="8.8" r="1.1"/>
<text transform="matrix(1 0 0 1 3.8486 39.8)" class="st9 st10 st11">R</text>
</svg>
