<?xml version="1.0" encoding="utf-8"?>
<!-- Generator: Adobe Illustrator 26.5.0, SVG Export Plug-In . SVG Version: 6.00 Build 0)  -->
<svg version="1.1" id="reading-book" xmlns="http://www.w3.org/2000/svg" xmlns:xlink="http://www.w3.org/1999/xlink" x="0px"
	 y="0px" viewBox="0 0 23.5 28" style="enable-background:new 0 0 23.5 28;" xml:space="preserve">
<style type="text/css">
	.st0{fill:#050C44;}
</style>
<path id="Path_2602" class="st0" d="M23.5,18.1c0-1.3-0.9-2.4-2.2-2.7v-3c0-0.5-0.4-0.8-0.8-0.8c-0.1,0-0.2,0-0.3,0.1l-1.6,0.6
	c-1-1.1-2.3-1.9-3.7-2.4c2.4-1.8,2.9-5.2,1.2-7.7C14.4-0.2,11-0.7,8.5,1.1S5.6,6.3,7.4,8.7c0.3,0.4,0.7,0.8,1.2,1.2
	c-1.4,0.5-2.6,1.3-3.7,2.4l-1.6-0.6c-0.4-0.2-0.9,0.1-1.1,0.5c0,0.1-0.1,0.2-0.1,0.3v3c-1.5,0.3-2.4,1.7-2.1,3.2
	c0.2,1.1,1.1,1.9,2.1,2.1v3.2c0,0.3,0.2,0.6,0.5,0.8l8.8,3.3c0.2,0.1,0.4,0.1,0.6,0l8.7-3.3c0.3-0.1,0.5-0.4,0.5-0.8v-3.2
	C22.6,20.5,23.5,19.4,23.5,18.1z M7.9,5.5c0-2.1,1.7-3.8,3.8-3.8c2.1,0,3.8,1.7,3.8,3.8s-1.7,3.8-3.8,3.8c0,0,0,0,0,0
	C9.7,9.3,7.9,7.6,7.9,5.5z M11.8,10.9c1.9,0,3.8,0.7,5.2,1.9l-5.2,1.9l-5.2-1.9C8,11.6,9.9,10.9,11.8,10.9L11.8,10.9z M1.6,18.1
	c0-0.6,0.5-1.1,1.1-1.1h0.5v2.2H2.7C2.1,19.2,1.6,18.7,1.6,18.1z M3.8,20.8c0.6-0.1,1.1-0.7,1.1-1.3v-2.7c0-0.7-0.5-1.2-1.1-1.3
	v-1.7l7.1,2.7V26l-7.1-2.7V20.8z M12.6,26v-9.7l7.1-2.7v1.7c-0.6,0.1-1.1,0.7-1.1,1.3v2.7c0,0.7,0.5,1.2,1.1,1.3v2.6L12.6,26z
	 M20.8,19.2h-0.5V17h0.5c0.6,0,1.1,0.5,1.1,1.1C21.9,18.6,21.5,19.1,20.8,19.2C20.8,19.2,20.8,19.2,20.8,19.2L20.8,19.2z"/>
</svg>
