<?xml version="1.0" encoding="utf-8"?>
<!-- Generator: Adobe Illustrator 26.5.0, SVG Export Plug-In . SVG Version: 6.00 Build 0)  -->
<svg version="1.1" id="calendar" xmlns="http://www.w3.org/2000/svg" xmlns:xlink="http://www.w3.org/1999/xlink" x="0px" y="0px"
	 viewBox="0 0 21.6 22.1" style="enable-background:new 0 0 21.6 22.1;" xml:space="preserve">
<style type="text/css">
	.st0{fill:#050C44;}
</style>
<path id="Path_2603" class="st0" d="M9.8,15.4c0.3,0.3,0.7,0.3,0.9,0l2.3-2.3c0.3-0.3,0.3-0.7,0-0.9c-0.3-0.3-0.7-0.3-0.9,0
	c0,0,0,0,0,0L10.3,14l-0.9-0.9c-0.3-0.3-0.7-0.2-0.9,0c-0.2,0.3-0.2,0.7,0,0.9L9.8,15.4z"/>
<path id="Path_2604" class="st0" d="M10.8,19c2.9,0,5.2-2.3,5.2-5.2s-2.3-5.2-5.2-5.2c-2.9,0-5.2,2.3-5.2,5.2
	C5.6,16.6,7.9,19,10.8,19z M10.8,9.9c2.1,0,3.9,1.7,3.9,3.9c0,2.1-1.7,3.9-3.9,3.9c-2.1,0-3.9-1.7-3.9-3.9c0,0,0,0,0,0
	C6.9,11.6,8.6,9.9,10.8,9.9L10.8,9.9z"/>
<path id="Path_2605" class="st0" d="M19.5,1.4h-1.2V0.7C18.3,0.3,18,0,17.7,0c-0.4,0-0.7,0.2-0.7,0.6c0,0,0,0.1,0,0.1v0.7h-1.3V0.7
	c0-0.4-0.3-0.6-0.7-0.6c-0.3,0-0.6,0.3-0.6,0.6v0.7H7.2V0.7c0-0.4-0.3-0.6-0.7-0.6c-0.3,0-0.6,0.3-0.6,0.6v0.7H4.6V0.7
	c0-0.4-0.3-0.6-0.7-0.6c-0.3,0-0.6,0.3-0.6,0.6v0.7H2.1C0.9,1.4,0,2.3,0,3.5V20c0,1.2,0.9,2.1,2.1,2.1h17.3c1.2,0,2.1-0.9,2.1-2.1
	V3.5C21.6,2.3,20.6,1.4,19.5,1.4L19.5,1.4z M20.3,20c0,0.4-0.4,0.8-0.8,0.8H2.1c-0.4,0-0.8-0.4-0.8-0.8V6.8h19L20.3,20z M1.3,3.5
	c0-0.4,0.4-0.8,0.8-0.8h1.2v0.7C3.3,3.8,3.6,4.1,4,4c0.3,0,0.6-0.3,0.6-0.6V2.7h1.3v0.7c0,0.4,0.3,0.6,0.7,0.6
	c0.3,0,0.6-0.3,0.6-0.6V2.7h7.2v0.7c0,0.4,0.3,0.6,0.7,0.6c0.3,0,0.6-0.3,0.6-0.6V2.7H17v0.7c0,0.4,0.3,0.6,0.7,0.6
	c0.3,0,0.6-0.3,0.6-0.6V2.7h1.2c0.4,0,0.8,0.4,0.8,0.8v2H1.3V3.5z"/>
</svg>
