<?xml version="1.0" encoding="utf-8"?>
<!-- Generator: Adobe Illustrator 26.5.0, SVG Export Plug-In . SVG Version: 6.00 Build 0)  -->
<svg version="1.1" id="Capa_1" xmlns="http://www.w3.org/2000/svg" xmlns:xlink="http://www.w3.org/1999/xlink" x="0px" y="0px"
	 viewBox="0 0 20.1 25.7" style="enable-background:new 0 0 20.1 25.7;" xml:space="preserve">
<style type="text/css">
	.st0{fill:#050C44;}
</style>
<g id="test-results" transform="translate(-32.615)">
	<path id="Path_2610" class="st0" d="M52.3,5.9l-5.4-5.4c-0.2-0.2-0.4-0.2-0.6-0.2H33.6c-0.5,0-0.8,0.4-0.8,0.8v23.6
		c0,0.5,0.4,0.8,0.8,0.8h18c0.5,0,0.8-0.4,0.8-0.8V6.5C52.5,6.3,52.4,6.1,52.3,5.9z M47.1,3.1l2.6,2.6h-2.6L47.1,3.1z M34.5,23.8
		V1.9h10.9v4.6c0,0.5,0.4,0.8,0.8,0.8h4.6v16.5L34.5,23.8L34.5,23.8z"/>
	<path id="Path_2611" class="st0" d="M42.4,11.2c-0.2-0.4-0.7-0.7-1.1-0.5c-0.2,0.1-0.4,0.3-0.5,0.5l-2.9,7.2c-0.2,0.4,0,1,0.5,1.1
		c0.4,0.2,1,0,1.1-0.5c0,0,0,0,0,0l0.4-0.9h3.4l0.4,0.9c0.2,0.5,0.7,0.7,1.1,0.5c0.5-0.2,0.7-0.7,0.5-1.1c0,0,0,0,0,0L42.4,11.2z
		 M40.6,16.4l1-2.5l1,2.5H40.6z"/>
	<path id="Path_2612" class="st0" d="M47.9,10.9h-0.7v-0.7c0-0.5-0.4-0.9-0.9-0.9s-0.9,0.4-0.9,0.9l0,0v0.7h-0.7
		c-0.5,0-0.9,0.4-0.9,0.9c0,0.5,0.4,0.9,0.9,0.9c0,0,0,0,0,0h0.7v0.7c0,0.5,0.4,0.9,0.9,0.9s0.9-0.4,0.9-0.9v-0.7h0.7
		c0.5,0,0.9-0.4,0.9-0.9C48.8,11.3,48.4,10.9,47.9,10.9C47.9,10.9,47.9,10.9,47.9,10.9L47.9,10.9z"/>
</g>
</svg>
