<?xml version="1.0" encoding="utf-8"?>
<!-- Generator: Adobe Illustrator 25.4.1, SVG Export Plug-In . SVG Version: 6.00 Build 0)  -->
<svg version="1.1" id="Capa_1" xmlns="http://www.w3.org/2000/svg" xmlns:xlink="http://www.w3.org/1999/xlink" x="0px" y="0px"
	 viewBox="0 0 110.8 118.5" style="enable-background:new 0 0 110.8 118.5;" xml:space="preserve">
<style type="text/css">
	.st0{fill:#00E9C5;}
</style>
<g>
	<g>
		<path class="st0" d="M103.2,95.6c0.5-0.8,0.6-1.8,0.6-2.7c0-2.7,0.1-1.9-12.3-21.7c-0.7-0.8-23.1-36.6-24.2-38
			c-0.3-0.3-0.9-0.8-0.7-0.8c-3.5-3.2-9-3.9-13.5-2.4c-0.3,0-7.4,1.9-14.2-1.8c-2.2-1.3-4.4-2.9-6.3-5.2c-3.1-3.7-8.8-3-11.1,1.2
			C6.9,51,7.6,49.3,7.2,50.8c-0.6,2.7,0.5,5.6,2.9,7.2l-0.5,1.2c-1.3,2.2-0.3,5.2,1.9,6.5l1,0.7c2.2,1.3,5.2,0.3,6.5-1.9l0.6-1.2
			l16.8,9.2l-0.9,1.2c-1.3,2.2-0.3,5.2,1.9,6.5l1,0.7c2.2,1.3,5.2,0.3,6.5-1.9l0.6-1.2l5.2,2.8l-0.8,0.9c-1.3,2.2-0.3,5.2,1.9,6.5
			l1,0.7c2.2,1.3,5.2,0.3,6.5-1.9l0.6-1.2l5.2,2.8l-0.7,1c-1.3,2.2-0.3,5.2,1.9,6.5l1,0.7c2.2,1.3,5.2,0.3,6.5-1.9l0.6-1.2L80,96
			l-0.6,1.2c-1.3,2.2-0.3,5.2,1.9,6.5l1,0.7c2.2,1.3,5.2,0.3,6.5-1.9l0.8-1.2c5.7,2.6,10.6,1,13.9-4.6
			C102.9,96.2,103.2,95.6,103.2,95.6z M20.2,32.8c8.9,3.7,12.8,14.5,7.9,23l-12.3-6.8c-1.8-0.9-2.5-3.3-1.4-5L20.2,32.8z M13.8,63.4
			l-1-0.5c-0.8-0.5-1.1-1.4-0.6-2.3l0.6-1.2l3.9,2.2l-0.7,1l0,0C15.5,63.5,14.6,63.8,13.8,63.4z M40.1,77.7L39,77
			c-0.8-0.5-1.1-1.4-0.6-2.3l0.6-1.2l3.9,2.2l-0.6,1.2l0,0C41.8,77.6,40.7,78.1,40.1,77.7z M56.6,84.9c-0.5,0.8-1.4,1.1-2.3,0.6
			l-1-0.7c-0.8-0.5-1.1-1.4-0.6-2.3l0.6-1.2l3.9,2.2L56.6,84.9z M69,93.5l-1-0.7c-0.8-0.5-1.1-1.4-0.6-2.3l0.6-1.2l3.9,2.2l-0.6,1.2
			l0,0C70.8,93.6,69.8,93.7,69,93.5z M83.5,101.3l-1-0.7c-0.8-0.5-1.1-1.4-0.6-2.3l0.6-1.2c3.7,2,3.7,2,3.9,2l-0.6,1.2l0,0
			C85.2,101.4,84.3,101.8,83.5,101.3z M95.9,98.6c-2.3,0.4-5.1-0.3-6.9-1.5c-0.3-0.1-0.2-0.1-0.8-0.5c-0.2-0.1-75.2-40.7-75.9-41.1
			c-1.8-0.9-2.5-3.3-1.3-5l0.8-1.5c1.4,2.6-1.7,0.2,68.8,38.6c0.8,0.5,1.7,0.1,2-0.6c0.5-0.8,0.1-1.7-0.6-2L59.7,72.7l6.3-3.6
			c2.5-1.4,3.2-4.6,1.8-7c-1.4-2.3-4.5-3.2-7-1.8l-11.8,6.8l-3.4-1.9L59,57.4c2.5-1.4,3.2-4.5,1.8-7c-1.4-2.3-4.5-3.2-7-1.8
			l-19,10.9l-4-2.2c5.6-10,1.4-22.8-9.1-27.2l2.2-4c0.9-1.8,3.3-2.5,5-1.4c1.2,0.8,3.1,3.8,8.2,6.7c8.3,4.6,16.6,2.2,16.7,2.1
			s0.6-0.2,1.1-0.3l6.2,9.7c0.4,0.7,1.5,0.9,2.1,0.5c0.7-0.4,0.9-1.5,0.5-2.1l-5.5-8.6c3.2,0.2,5.3,1.2,7,3.4
			c0.2,0.1-1.2-1.7,22.5,35.7c-2.2,1.4-2.5,1.7-3.3,1.5c-1-0.2,0.3,1.4-18.3-28c-0.4-0.7-1.5-0.9-2.1-0.5c-0.7,0.4-0.9,1.5-0.5,2.1
			l17.3,27.5c0.8,1,1.8,1.7,2.9,2.1c2.4,0.5,3.5-0.6,5.7-1.8c11.4,18,10.7,16.8,10.8,17.5c-3.5,1.9-8.1-0.9-8.8-1.4
			c-0.2-0.1,0.2,0-5.5-2.9c-0.8-0.5-1.7-0.1-2,0.6c-0.2,0.7-0.1,1.7,0.6,2c5.5,2.9,5.4,2.9,5.4,2.9c1.9,1.2,6,3,9.8,2.2
			C98.9,97,97.5,98.1,95.9,98.6z M38.2,61.3l17.4-10c0.6-0.2,1.4-0.3,1.9-0.1c1.5,0.8,1.3,2.7,0.1,3.4l-15.2,8.8L38.2,61.3z M52,69
			l10.2-5.8c0.6-0.2,1.4-0.3,1.9-0.1c1.5,0.8,1.3,2.7,0.1,3.4l-8,4.6L52,69z"/>
	</g>
</g>
</svg>
