<svg id="Capa_1" data-name="Capa 1" xmlns="http://www.w3.org/2000/svg" viewBox="0 0 104.95 70.72"><defs><style>.cls-1{fill:#00e9c5;}</style></defs><path class="cls-1" d="M100.57,59.56l-7.26-4.15a1.72,1.72,0,0,0-1.82.52.91.91,0,0,1-.26.52v4.41H79.82a1.21,1.21,0,0,0-1.29,1.29h0V67.6a1.21,1.21,0,0,0,1.29,1.29H91.23V73.3a1.23,1.23,0,0,0,1.3,1.3c.26,0,.52,0,.52-.26l7.26-4.15L107.57,66a1.48,1.48,0,0,0,.52-1.81c0-.26-.26-.26-.52-.52Z" transform="translate(-3.24 -26.56)"/><path class="cls-1" d="M38.6,26.56A36,36,0,0,0,3.24,61.92C4,81.31,19.59,96.9,38.6,97.28A36,36,0,0,0,74,61.92,36.3,36.3,0,0,0,38.6,26.56Zm24,16.34-3.42,9.89-7.61,3.42-10.64-7.6V39.1L49.25,33A34.94,34.94,0,0,1,62.56,42.9ZM48.49,60.39l-3.8,11.79H32.52l-3.8-11.79,9.88-7.22ZM38.6,31.5a21.71,21.71,0,0,1,4.95.38L38.6,35.3l-4.94-3.42A21.67,21.67,0,0,1,38.6,31.5ZM28,33.4l8.36,6.08V49l-10.64,7.6-7.61-3.42-3.42-9.89A28.64,28.64,0,0,1,28,33.4ZM11.23,48.23h0l1.9,5.7L8.19,57.35A28.66,28.66,0,0,1,11.23,48.23ZM13.13,79A28.13,28.13,0,0,1,8.19,63.44l8.36-6.09,7.61,3.43,4.18,12.54L23.4,79ZM16.93,84H23l1.9,5.7a30.48,30.48,0,0,1-8-5.7Zm29.66,8a29.88,29.88,0,0,1-16.35,0l-3-9.88,4.56-5.33H45.45L50,82.07Zm5.7-2.28h0l1.9-5.7h6.09a30.48,30.48,0,0,1-8,5.7ZM64.08,79H53.81L49.25,73.7l4.18-12.54L61,57.73l8.36,6.09A28.34,28.34,0,0,1,64.08,79ZM66,48.23a28.66,28.66,0,0,1,3,9.12l-4.94-3.42Z" transform="translate(-3.24 -26.56)"/></svg>