<?xml version="1.0" encoding="utf-8"?>
<!-- Generator: Adobe Illustrator 25.4.1, SVG Export Plug-In . SVG Version: 6.00 Build 0)  -->
<svg version="1.1" id="Capa_1" xmlns="http://www.w3.org/2000/svg" xmlns:xlink="http://www.w3.org/1999/xlink" x="0px" y="0px"
	 viewBox="0 0 24 44.1" style="enable-background:new 0 0 24 44.1;" xml:space="preserve">
<style type="text/css">
	.st0{fill:#00E9C5;}
</style>
<g transform="translate(-107.676)">
	<g transform="translate(107.676)">
		<path class="st0" d="M23.1,5.9c-2,0-4.1-1.4-6.2-2.8C14.5,1.6,12.1,0,9.6,0C9.1,0,8.7,0.4,8.7,0.9v29.6l-8.4,8.4
			c-0.4,0.4-0.4,0.9,0,1.3c0,0,0,0,0,0c5.1,5.1,13.5,5.1,18.6,0c0.4-0.4,0.4-0.9,0-1.3c0,0,0,0,0,0l-8.4-8.4V15.4
			c1.9,0.6,3.7,1.5,5.3,2.7c2.3,1.5,4.7,3.1,7.3,3.1c0.5,0,0.9-0.4,0.9-0.9c0,0,0,0,0,0V6.9C24,6.4,23.6,5.9,23.1,5.9z M16.9,39.6
			c-4.2,3.6-10.4,3.6-14.7,0l6.4-6.4v5.1c0,0.5,0.4,0.9,0.9,0.9c0.5,0,0.9-0.4,0.9-0.9c0,0,0,0,0,0v-5.1L16.9,39.6z M22.2,19.3
			c-1.9-0.6-3.7-1.5-5.3-2.7c-2-1.3-4.1-2.7-6.3-3.1V1.9c1.9,0.6,3.7,1.5,5.3,2.7c2,1.3,4.1,2.7,6.3,3.1V19.3z"/>
	</g>
</g>
</svg>
