<svg id="Iconos" xmlns="http://www.w3.org/2000/svg" viewBox="0 0 45.7 23.63"><defs><style>.cls-1{fill:#00e9c5;}</style></defs><path class="cls-1" d="M39.39,32.48a.36.36,0,0,1,.35-.37h1.82a.36.36,0,0,1,.37.35v0a.38.38,0,0,1-.37.37h-1.8A.38.38,0,0,1,39.39,32.48Z" transform="translate(-2.15 -13.2)"/><path class="cls-1" d="M17.66,36.38a1.68,1.68,0,0,1-.5-.07,1.64,1.64,0,0,1-1.09-2L17,30.88,14,29l-1.6,1.78a.36.36,0,0,1-.51,0h0a.37.37,0,0,1,0-.52h0l1.61-1.8a.73.73,0,0,1,.91-.12l3.07,1.95a.69.69,0,0,1,.3.79l-.95,3.43a.91.91,0,0,0,1.74.51h0L20,30a.53.53,0,0,0-.21-.58L16.11,27a.37.37,0,0,1-.16-.36l.4-2.94a.37.37,0,0,1,.41-.32h0a.4.4,0,0,1,.2.09l1.44,1.32a.65.65,0,0,0,.77.08l3.56-2.06A.63.63,0,0,0,23,22a.44.44,0,0,0-.08-.11.64.64,0,0,0-.78-.13l-2.4,1.38A1,1,0,0,1,18.45,23L17,21.46a3.61,3.61,0,0,0-3.51-.91L5.67,22.77a.63.63,0,0,0-.43.78h0a.62.62,0,0,0,.6.46L6,24l6.78-2a.36.36,0,0,1,.46.25h0a.37.37,0,0,1,0,.21l-1.17,3.83a.37.37,0,0,1-.05.11L9.38,30.27a.36.36,0,0,1-.31.17H3.73a.83.83,0,0,0-.83.83.84.84,0,0,0,.83.84H5.84a.36.36,0,0,1,.37.35v0a.38.38,0,0,1-.37.37H3.73a1.58,1.58,0,0,1,0-3.16H8.88L11.4,26l.95-3.12L6.24,24.7a1.34,1.34,0,0,1-.4.06,1.37,1.37,0,0,1-.37-2.7l7.78-2.22a4.32,4.32,0,0,1,4.24,1.1L19,22.43a.3.3,0,0,0,.37.05l2.39-1.38a1.4,1.4,0,0,1,1.71.29,1.36,1.36,0,0,1-.1,1.92h0a1.88,1.88,0,0,1-.23.16l-3.55,2.06a1.37,1.37,0,0,1-1.64-.18L17,24.53l-.27,2,3.41,2.3a1.26,1.26,0,0,1,.52,1.4l-1.41,4.95A1.65,1.65,0,0,1,17.66,36.38Z" transform="translate(-2.15 -13.2)"/><path class="cls-1" d="M9.51,32.85H8.44a.38.38,0,0,1-.37-.37.36.36,0,0,1,.35-.37H9.51a.38.38,0,0,1,.38.36h0A.38.38,0,0,1,9.51,32.85Z" transform="translate(-2.15 -13.2)"/><path class="cls-1" d="M16.61,18.7A2.75,2.75,0,1,1,19.36,16V16h0A2.75,2.75,0,0,1,16.61,18.7Zm0-4.75a2,2,0,1,0,2,2h0a2,2,0,0,0-2-1.95Z" transform="translate(-2.15 -13.2)"/><path class="cls-1" d="M30.64,16h0a2.75,2.75,0,1,1,2.75,2.75A2.75,2.75,0,0,1,30.64,16Zm.74,0h0a2,2,0,1,0,2-2h0A2,2,0,0,0,31.38,16Z" transform="translate(-2.15 -13.2)"/><path class="cls-1" d="M39.88,32.11l-3.33-3.67a.73.73,0,0,0-.91-.12l-3.07,1.95a.69.69,0,0,0-.3.79l.95,3.43a.91.91,0,0,1-1.74.51h0l-1.41-5a.53.53,0,0,1,.21-.58L33.89,27a.37.37,0,0,0,.16-.36l-.4-2.94a.37.37,0,0,0-.41-.32h0a.4.4,0,0,0-.2.09l-1.44,1.32a.65.65,0,0,1-.77.08l-3.56-2.06A.63.63,0,0,1,27,22a.44.44,0,0,1,.08-.11.64.64,0,0,1,.78-.13l2.4,1.38A1,1,0,0,0,31.55,23L33,21.46a3.61,3.61,0,0,1,3.51-.91l7.78,2.22a.63.63,0,0,1,.43.78h0a.62.62,0,0,1-.6.46L44,24l-6.8-2a.36.36,0,0,0-.46.25h0a.37.37,0,0,0,0,.21l1.17,3.83a.37.37,0,0,0,.05.11l.64,1a.42.42,0,0,0,.57-.16.47.47,0,0,0,0-.26l-.62-1-1-3.12,6.11,1.81a1.34,1.34,0,0,0,.4.06,1.37,1.37,0,0,0,.37-2.7L36.7,19.83a4.32,4.32,0,0,0-4.24,1.1L31,22.43a.3.3,0,0,1-.37.05L28.26,21.1a1.4,1.4,0,0,0-1.71.29,1.36,1.36,0,0,0,.1,1.92h0a1.88,1.88,0,0,0,.23.16l3.55,2.06a1.37,1.37,0,0,0,1.64-.18l.93-.83.27,2-3.41,2.3a1.26,1.26,0,0,0-.52,1.4l1.41,4.95a1.65,1.65,0,0,0,1.58,1.19,1.68,1.68,0,0,0,.5-.07,1.64,1.64,0,0,0,1.09-2l-1-3.41L36,29l3.42,3.76a.39.39,0,0,0,.53,0,.37.37,0,0,0,0-.52A.83.83,0,0,0,39.88,32.11Z" transform="translate(-2.15 -13.2)"/><path class="cls-1" d="M46.27,29.69H41.12l-1-1.51a.42.42,0,0,0-.43,0,.42.42,0,0,0-.17.42l1.14,1.65a.36.36,0,0,0,.31.17h5.34a.83.83,0,0,1,.83.83h0a.84.84,0,0,1-.83.84H41.39a.38.38,0,0,0-.37.37.39.39,0,0,0,.37.37h4.88a1.58,1.58,0,1,0,0-3.16Z" transform="translate(-2.15 -13.2)"/><path class="cls-1" d="M24.76,30.93a2.95,2.95,0,1,0,2.95,3A3,3,0,0,0,24.76,30.93Zm2,1.35-.27.83-.64.29L25,32.76V32l.71-.51A2.54,2.54,0,0,1,26.75,32.28Zm-1.16,1.43-.32,1h-1l-.31-1,.82-.6Zm-.83-2.39a2.83,2.83,0,0,1,.41,0l-.41.3-.41-.3A2.83,2.83,0,0,1,24.76,31.32Zm-.89.16.69.51v.77l-.88.64L23,33.11l-.27-.83A2.57,2.57,0,0,1,23.87,31.48ZM22.49,32.7h0l.16.48-.41.29A2.77,2.77,0,0,1,22.49,32.7Zm.15,2.58A2.39,2.39,0,0,1,22.22,34l.7-.51.64.29.34,1.06-.36.44Zm.31.4h.5l.16.47a2.41,2.41,0,0,1-.66-.49Zm2.49.66a2.61,2.61,0,0,1-1.36,0l-.26-.81.36-.45h1.13l.37.45Zm.47-.19h0l.15-.47h.51a2.7,2.7,0,0,1-.66.46Zm1-.87H26l-.37-.44L26,33.79l.64-.29.68.49a2.56,2.56,0,0,1-.42,1.28ZM27,32.7a2.77,2.77,0,0,1,.25.77l-.41-.29Z" transform="translate(-2.15 -13.2)"/></svg>