<svg xmlns="http://www.w3.org/2000/svg" width="41.071" height="41.071" viewBox="0 0 41.071 41.071">
  <path id="football_1_" data-name="football (1)" d="M20.035,0A20.035,20.035,0,1,0,40.071,20.035,20.036,20.036,0,0,0,20.035,0Zm.715,5.776,6.965-2.784A18.742,18.742,0,0,1,30,4.226l.018.011a18.807,18.807,0,0,1,2.062,1.512l.056.049q.439.374.853.773c.035.034.071.067.106.1q.435.425.842.875l.067.078c.238.267.468.544.69.825.053.067.107.134.159.2.241.312.475.63.7.958l-1.389,5.9-6.831,2.277-6.581-5.266ZM5.213,8.655q.078-.1.158-.2.33-.418.682-.816c.025-.028.049-.057.074-.085q.405-.451.839-.875c.033-.033.067-.067.1-.1q.411-.4.846-.769l.067-.056a18.88,18.88,0,0,1,2.042-1.5l.026-.017a18.76,18.76,0,0,1,2.275-1.232l7,2.771v6.745l-6.581,5.265L5.908,15.513,4.519,9.61c.222-.327.453-.645.693-.956Zm-.8,21.629q-.294-.449-.563-.915L3.8,29.294q-.267-.464-.505-.943l-.006-.01a18.607,18.607,0,0,1-.879-2.07v-.007c-.119-.334-.227-.676-.327-1.02l-.036-.127q-.137-.485-.249-.98c-.007-.032-.015-.063-.021-.095a18.588,18.588,0,0,1-.353-2.262L5.5,16.887l6.784,2.261,1.969,7.875-3.235,4.3ZM24.483,38.2c-.334.083-.677.154-1.019.218l-.145.026c-.292.052-.587.1-.883.133l-.236.03c-.275.032-.552.056-.83.076-.087.006-.174.015-.261.02-.355.022-.713.035-1.074.035q-.5,0-.985-.026c-.039,0-.077-.007-.117-.009q-.436-.025-.868-.067l-.033-.006a19.029,19.029,0,0,1-1.883-.3L12.2,32.142,15.383,27.9h9.306l3.237,4.274ZM38.3,24.043c-.007.032-.015.063-.022.095q-.112.5-.249.98l-.036.127c-.1.344-.208.685-.327,1.02v.007a18.545,18.545,0,0,1-.879,2.07l-.006.01q-.24.479-.505.943l-.043.075q-.267.468-.562.914L29.08,31.322l-3.258-4.3,1.968-7.873,6.784-2.261,4.077,4.892a18.545,18.545,0,0,1-.353,2.263Zm0,0" transform="translate(0.5 0.5)" fill="#050c42" stroke="#fff" stroke-width="1"/>
</svg>
