<svg id="Capa_1" data-name="Capa 1" xmlns="http://www.w3.org/2000/svg" viewBox="0 0 32.93 30.95"><defs><style>.cls-1{fill:#00e9c5;}</style></defs><g id="Iconos"><path class="cls-1" d="M23.58,35.81a6.24,6.24,0,1,1,4-7.89l0,.09h0A6.27,6.27,0,0,1,23.58,35.81ZM20.19,25.12a4.95,4.95,0,1,0,6.18,3.27h0a4.93,4.93,0,0,0-6.15-3.29Z" transform="translate(-8.45 -10.01)"/><path class="cls-1" d="M38.47,12.82l-4.21,1.3a.63.63,0,0,0-.42.8.64.64,0,0,0,.79.44h0l3.57-1.1,1.7,5.49-9.09,4.59a.64.64,0,0,0-.3.85h0A10,10,0,1,1,17,20.94a12.27,12.27,0,0,1,1.64-.67l2.53-.78.52,1.71a.66.66,0,0,0,.82.42l3.22-1a.67.67,0,0,0,.47-.81.36.36,0,0,0,0-.09l-.57-1.64,3.47-1.06a.63.63,0,0,0,.44-.79h0a.67.67,0,0,0-.78-.49h0L24.62,17a.63.63,0,0,0-.42.8h0l.54,1.72-2,.6-.54-1.72a.64.64,0,0,0-.8-.42l-3.17,1a11.33,11.33,0,0,0-5.47,3.75l-.58-.32A2.61,2.61,0,0,0,9.73,27l.82.44h0a11.31,11.31,0,1,0,22-1,9.83,9.83,0,0,0-.5-1.31l9-4.59a.62.62,0,0,0,.32-.76l-2-6.59a.64.64,0,0,0-.79-.44h0ZM10.35,26a1.3,1.3,0,0,1-.58-1.74l0,0a1.3,1.3,0,0,1,1.77-.57h0l.44.24-.42.72a10.13,10.13,0,0,0-.69,1.67Z" transform="translate(-8.45 -10.01)"/><path class="cls-1" d="M23.94,29.73a.62.62,0,0,1-.79-.39v0h0a1.55,1.55,0,0,0-1.93-1.06l-.07,0a.67.67,0,0,1-.81-.44.63.63,0,0,1,.42-.79h0a2.83,2.83,0,0,1,3.52,1.91l0,.09a.63.63,0,0,1-.38.79h0Z" transform="translate(-8.45 -10.01)"/><path class="cls-1" d="M21.84,13.76a.64.64,0,0,1-.79-.43h0l-.75-2.46a.67.67,0,0,1,1.29-.35L22.34,13A.67.67,0,0,1,21.84,13.76Z" transform="translate(-8.45 -10.01)"/><path class="cls-1" d="M18.73,16.33a.57.57,0,0,1-.48,0L16,15.14a.68.68,0,0,1-.25-.88.64.64,0,0,1,.86-.27h0l2.26,1.2a.63.63,0,0,1,.28.85.56.56,0,0,1-.4.32Z" transform="translate(-8.45 -10.01)"/><path class="cls-1" d="M25.85,14.16a.64.64,0,0,1-.79-.43h0a.57.57,0,0,1,0-.48L26.25,11a.67.67,0,0,1,.92-.15.65.65,0,0,1,.24.75h0l-1.18,2.2A.68.68,0,0,1,25.85,14.16Z" transform="translate(-8.45 -10.01)"/><path class="cls-1" d="M31.86,16.19a.61.61,0,0,1-.78-.38l0,0a.64.64,0,0,1,.43-.8.63.63,0,0,1,.81.43.69.69,0,0,1,0,.49A.56.56,0,0,1,31.86,16.19Z" transform="translate(-8.45 -10.01)"/></g></svg>