<?xml version="1.0" encoding="utf-8"?>
<!-- Generator: Adobe Illustrator 25.4.1, SVG Export Plug-In . SVG Version: 6.00 Build 0)  -->
<svg version="1.1" id="Capa_1" xmlns="http://www.w3.org/2000/svg" xmlns:xlink="http://www.w3.org/1999/xlink" x="0px" y="0px"
	 viewBox="0 0 36 41.8" style="enable-background:new 0 0 36 41.8;" xml:space="preserve">
<style type="text/css">
	.st0{fill:none;stroke:#FF3737;stroke-width:1.5;stroke-linecap:round;stroke-linejoin:round;stroke-miterlimit:10;}
	.st1{fill:none;stroke:#FF3737;stroke-width:1.5;stroke-miterlimit:10;}
	.st2{fill:none;stroke:#FF3737;stroke-linecap:round;stroke-miterlimit:10;}
	.st3{fill:#FF3737;stroke:#FF3737;stroke-width:0.13;stroke-miterlimit:10;}
</style>
<path class="st0" d="M6.8,8.7l6.5,1.9c1.3,0.3,2.4,1.2,3.2,2.3l0.3,0.5l6.7,2.9c0.8,0.3,1.2,1.3,0.8,2.1l0,0
	c-0.3,0.8-1.3,1.3-2.1,0.9l-6.8-2.9l-1.2,7.3l11.8,4.5c0.9,0.3,1.4,1.3,1.2,2.2l0,0c-0.3,1-1.5,1.6-2.4,1.3L14,27.4l0.7,0.9
	c0.7,0.8,0.8,2,0.6,2.9l-1.9,6.3c-0.3,1-1.3,1.6-2.3,1.4l0,0c-1-0.2-1.7-1.4-1.4-2.4l1.9-5.9l-2.9-3.5c-1.2-1.4-1.6-3.1-1.3-4.9
	L9,12.9l-3.2-1.2c-0.7-0.2-1.3-0.7-1.7-1.4L1.1,6.5C0.6,5.6,0.9,4.5,1.8,4l0,0c0.7-0.3,1.5-0.1,2,0.5L6.8,8.7z"/>
<ellipse class="st1" cx="16.1" cy="5.9" rx="3" ry="3"/>
<line class="st2" x1="19.5" y1="35.4" x2="26.1" y2="33.5"/>
<line class="st2" x1="18.3" y1="37.7" x2="29.3" y2="34.5"/>
<line class="st2" x1="21.8" y1="38.5" x2="27.4" y2="36.9"/>
<path class="st3" d="M32,23.2c-2,0-3.7,1.7-3.7,3.7c0.1,2,1.7,3.7,3.7,3.7c2,0,3.7-1.7,3.7-3.7C35.7,24.9,34.1,23.3,32,23.2z
	 M34.5,25l-0.4,1l-0.8,0.4l-1.1-0.8v-1l0.9-0.6C33.7,24.1,34.2,24.5,34.5,25L34.5,25z M33.1,26.8L32.7,28h-1.3L31,26.8l1-0.8
	L33.1,26.8z M32,23.8c0.2,0,0.3,0,0.5,0L32,24.2l-0.5-0.4C31.7,23.8,31.9,23.8,32,23.8z M30.9,24l0.9,0.6v1l-1.1,0.8L29.9,26l-0.4-1
	C29.9,24.5,30.4,24.2,30.9,24z M29.2,25.5L29.2,25.5l0.2,0.6l-0.5,0.4C28.9,26.1,29,25.8,29.2,25.5z M29.4,28.7
	c-0.3-0.5-0.5-1-0.5-1.6l0.9-0.6l0.8,0.4l0.4,1.3l-0.5,0.6H29.4z M29.8,29.3h0.6l0.2,0.6C30.3,29.7,30,29.5,29.8,29.3L29.8,29.3z
	 M32.9,30.1c-0.6,0.2-1.2,0.2-1.7,0l-0.3-1l0.5-0.6h1.4l0.5,0.6L32.9,30.1z M33.5,29.9L33.5,29.9l0.2-0.6h0.6
	C34.1,29.5,33.8,29.7,33.5,29.9L33.5,29.9z M34.7,28.7h-1.1l-0.5-0.6l0.4-1.3l0.8-0.4l0.9,0.6C35.2,27.7,35,28.3,34.7,28.7z
	 M34.9,25.5c0.2,0.3,0.3,0.6,0.3,1l-0.5-0.4L34.9,25.5z"/>
</svg>
