<?xml version="1.0" encoding="utf-8"?>
<!-- Generator: Adobe Illustrator 25.4.1, SVG Export Plug-In . SVG Version: 6.00 Build 0)  -->
<svg version="1.1" id="Capa_1" xmlns="http://www.w3.org/2000/svg" xmlns:xlink="http://www.w3.org/1999/xlink" x="0px" y="0px"
	 viewBox="0 0 31.9 39" style="enable-background:new 0 0 31.9 39;" xml:space="preserve">
<style type="text/css">
	.st0{fill:#FF3737;}
</style>
<path class="st0" d="M31.2,10.4l-4.9-8.1c-1.3-2.2-4.2-3-6.5-1.6c0,0,0,0,0,0L19,1.2c-0.3,0.2-0.4,0.5-0.2,0.8
	c0.2,0.3,0.5,0.4,0.8,0.2l0.8-0.5c1.7-1,3.9-0.5,4.9,1.2l2.2,3.6l-9,5.4l-4-6.7l3-1.8c0.3-0.2,0.4-0.5,0.2-0.8S17.3,2.2,17,2.4
	c0,0,0,0,0,0L4,10.2L3.5,9.3C2.9,8.4,1.8,8.1,0.9,8.6C0,9.1-0.3,10.2,0.2,11.1c0,0,0,0.1,0,0.1l11.1,18.4c-0.4,0.6-0.4,1.4-0.1,2
	l3.9,6.5c0.3,0.6,0.9,0.9,1.6,0.9c0.3,0,0.7-0.1,1-0.3l2.9-1.7c0.7-0.4,1-1.4,0.5-2.1c-0.3-0.4-0.6-0.7-1.1-0.8
	c-0.6-0.2-0.9-0.8-0.8-1.4c0.1-0.5,0-0.9-0.2-1.3c-0.2-0.4-0.6-0.7-1.1-0.8c-0.3-0.1-0.5-0.3-0.7-0.5c-0.1-0.3-0.2-0.6-0.1-0.9
	c0.1-0.5,0-0.9-0.2-1.3c-0.5-0.8-1.6-0.9-2.4-0.4c0,0-0.1,0.1-0.1,0.1l-5.2-8.7l9-5.4l4,6.6l-7.3,4.4c-0.3,0.2-0.4,0.5-0.2,0.8
	c0,0,0,0,0,0c0.2,0.3,0.5,0.3,0.8,0.2l14.2-8.5C31.8,15.5,32.5,12.6,31.2,10.4C31.2,10.4,31.2,10.4,31.2,10.4z M15.4,28.3
	c0.2-0.1,0.4-0.1,0.5,0.1c0,0,0,0,0,0c0.1,0.2,0.1,0.4,0.1,0.6c-0.1,0.6,0,1.1,0.3,1.6c0.3,0.5,0.8,0.9,1.3,1
	c0.2,0.1,0.3,0.2,0.4,0.3c0.1,0.2,0.1,0.4,0.1,0.6c-0.2,1.2,0.5,2.3,1.6,2.6c0.2,0.1,0.3,0.2,0.5,0.3c0.1,0.2,0,0.4-0.1,0.5
	l-2.9,1.7c-0.3,0.2-0.8,0.1-1-0.2L12.3,31c-0.2-0.3-0.1-0.8,0.2-1L15.4,28.3z M12.2,28.9l-11-18.3c-0.2-0.3-0.1-0.8,0.2-1
	c0,0,0,0,0,0c0.3-0.2,0.8-0.1,1,0.2l11,18.3L12.2,28.9z M8.6,17.8l-4-6.7l9-5.4l4,6.7L8.6,17.8z M30.6,13.7
	c-0.2,0.9-0.8,1.7-1.6,2.2l-5.9,3.5l-4-6.6l9-5.4l2.1,3.5C30.7,11.8,30.8,12.8,30.6,13.7z"/>
</svg>
