<?xml version="1.0" encoding="utf-8"?>
<!-- Generator: Adobe Illustrator 25.4.1, SVG Export Plug-In . SVG Version: 6.00 Build 0)  -->
<svg version="1.1" id="Capa_1" xmlns="http://www.w3.org/2000/svg" xmlns:xlink="http://www.w3.org/1999/xlink" x="0px" y="0px"
	 viewBox="0 0 29.9 40" style="enable-background:new 0 0 29.9 40;" xml:space="preserve">
<style type="text/css">
	.st0{fill:#00E9C5;}
</style>
<g id="Iconos">
	<path class="st0" d="M28.1,0H1.9C0.9,0,0,0.8,0,1.9l0,0v18.9c0,0.2,0.2,0.4,0.4,0.4l0,0c0.2,0,0.4-0.2,0.4-0.4l0,0V1.9
		c0-0.6,0.4-1,1-1H28c0.6,0,1,0.4,1,1v18.9c0,0.2,0.2,0.4,0.4,0.4l0,0c0.2,0,0.4-0.2,0.5-0.4l0,0V1.9C30,0.9,29.2,0,28.1,0z"/>
	<path class="st0" d="M27.5,2.2L27.5,2.2c-0.1-0.1-0.2-0.1-0.2-0.1H2.8c-0.1,0-0.2,0-0.2,0.1C2.3,2.3,2.1,2.6,2.1,2.9V20
		c0,0.2,0.2,0.4,0.4,0.4l0,0c0.1,0,0.2,0,0.3-0.1l2.8-2h18.9l2.8,2c0.2,0.1,0.5,0.1,0.6-0.1C28,20.1,28,20,28,19.9v-17
		C28,2.6,27.8,2.3,27.5,2.2z M24.4,3h2.3l-0.4,2.2h-2.2L24.4,3z M24,6h2.2l-0.4,2.2h-2L24,6z M25.6,9.1l-0.4,2.2h-1.8l0.3-2.2
		C23.7,9.1,25.6,9.1,25.6,9.1z M20.7,3h2.8l-0.3,2.2h-2.7L20.7,3z M20.5,6h2.6l-0.3,2.2h-2.5L20.5,6z M20.4,9.1h2.4l-0.3,2.2h-2.3
		L20.4,9.1z M20.2,12.1h2.3l-0.3,2.2h-2.1L20.2,12.1z M17.1,3h2.8l-0.1,2.2h-2.7C17.1,5.2,17.1,3,17.1,3z M19.4,11.3h-2.3V9.1h2.4
		L19.4,11.3z M17.1,6h2.6l-0.1,2.2h-2.5V6z M17.1,12.1h2.3l-0.1,2.2h-2.1L17.1,12.1L17.1,12.1z M19.1,15.2L19,17
		c0,0.1,0,0.2,0.1,0.3h-2v-2.2L19.1,15.2z M13.8,3h2.4v2.2h-2.4V3z M13.8,6.1h2.4v2.2h-2.4V6.1z M13.8,9.1h2.4v2.2h-2.4V9.1z
		 M13.8,12.2h2.4v2.2h-2.4V12.2z M16.2,15.2v2.2h-2.4v-2.2H16.2z M10.3,6h2.6v2.2h-2.5L10.3,6z M10.7,12.1H13v2.2h-2.1L10.7,12.1z
		 M11,17l-0.1-1.8H13v2.2h-2.1C10.9,17.3,11,17.1,11,17z M13,11.2h-2.4L10.5,9h2.4L13,11.2z M13,2.9v2.2h-2.7L10.1,3L13,2.9z
		 M9.6,8.1H7.1L6.8,6h2.6L9.6,8.1z M9.3,3l0.1,2.2H6.7L6.5,3H9.3z M6.6,11.3H4.7L4.3,9.1h2L6.6,11.3z M6.2,8.3h-2L3.8,6H6L6.2,8.3z
		 M5.6,3l0.3,2.2H3.7L3.3,3H5.6z M2.9,19.1v-13l2,11.5L2.9,19.1z M4.9,12.1h1.8L7,14.3H5.3L4.9,12.1z M5.8,17.4l-0.4-2.2H7l0.3,2.2
		H5.8z M7.2,9.1h2.4l0.1,2.2H7.4L7.2,9.1z M7.6,12.1h2.2l0.1,2.2H7.8L7.6,12.1z M7.9,15.2H10l0.1,1.9c0,0.1,0.1,0.2,0.1,0.3H8.1
		L7.9,15.2z M21.1,17.4h-1.3c0.1-0.1,0.1-0.2,0.1-0.3l0.1-1.9h2.1l-0.3,2.2C21.8,17.4,21.1,17.4,21.1,17.4z M24.3,17.4h-1.5l0.3-2.2
		h1.6L24.3,17.4z M23.1,14.3l0.3-2.2h1.8l-0.4,2.2H23.1z M25.1,17.6l2-11.5V19L25.1,17.6z"/>
	<path class="st0" d="M15.7,22.6c-4.4,0.1-7.9,3.6-8,8c0.1,4.4,3.6,7.9,8,8c4.4-0.1,7.9-3.6,8-8C23.6,26.2,20.1,22.7,15.7,22.6z
		 M21.1,26.3l-0.7,2.3l-1.8,0.8l-2.4-1.7v-2.1l1.9-1.4C19.3,24.6,20.3,25.3,21.1,26.3z M17.9,30.2L17,32.8h-2.8l-0.9-2.6l2.2-1.6
		L17.9,30.2z M15.7,23.7c0.4,0,0.7,0,1.1,0.1l-1.1,0.8l-1.1-0.8C15,23.7,15.3,23.7,15.7,23.7z M13.3,24.1l1.9,1.4v2.1l-2.4,1.7
		L11,28.5l-0.7-2.3C11.1,25.3,12.1,24.6,13.3,24.1z M9.5,27.4L9.5,27.4l0.5,1.3l-1.1,0.8C9,28.8,9.2,28.1,9.5,27.4z M9.9,34.4
		c-0.7-1-1.1-2.3-1.1-3.5l1.9-1.4l1.8,0.8l0.9,2.8l-1,1.2L9.9,34.4z M10.8,35.5h1.4l0.4,1.3C11.9,36.4,11.3,36,10.8,35.5L10.8,35.5z
		 M17.5,37.3c-1.2,0.3-2.5,0.3-3.7,0l-0.7-2.2l1-1.2h3l1,1.2L17.5,37.3z M18.8,36.8L18.8,36.8l0.4-1.3h1.4
		C20.1,36,19.5,36.4,18.8,36.8L18.8,36.8z M21.5,34.4h-2.4l-1-1.2l0.9-2.9l1.8-0.8l1.8,1.4C22.5,32.1,22.2,33.4,21.5,34.4L21.5,34.4
		z M21.8,27.4c0.3,0.7,0.6,1.4,0.7,2.1l-1.1-0.8L21.8,27.4z"/>
	<path class="st0" d="M15.7,39.1c-1.3-0.1-2.5-0.4-3.7-1c-0.1,0.1-0.1,0.2-0.1,0.3c0,0.9,1.7,1.6,3.8,1.6s3.8-0.7,3.8-1.6
		c0-0.1,0-0.2-0.1-0.3C18.2,38.7,17,39,15.7,39.1z"/>
</g>
</svg>
