<?xml version="1.0" encoding="utf-8"?>
<!-- Generator: Adobe Illustrator 25.4.1, SVG Export Plug-In . SVG Version: 6.00 Build 0)  -->
<svg version="1.1" id="Capa_1" xmlns="http://www.w3.org/2000/svg" xmlns:xlink="http://www.w3.org/1999/xlink" x="0px" y="0px"
	 viewBox="0 0 49.6 36.7" style="enable-background:new 0 0 49.6 36.7;" xml:space="preserve">
<style type="text/css">
	.st0{fill:none;stroke:#00E9C5;stroke-miterlimit:10;}
	.st1{fill:none;stroke:#FF3737;stroke-miterlimit:10;}
	.st2{fill:#00E9C5;}
</style>
<path class="st0" d="M0.5,30.8V3.5c0-1.6,1.4-3,3-3h42.6c1.6,0,3,1.4,3,3v27.1"/>
<path class="st0" d="M32.4,21.4c6.8,1.3,11.7,4.1,14.4,5.6V6.3c0-1.5-1.3-2.7-2.7-2.7h-4.7h-4.8H30h-5h-5h-5.3h-4.4H5.7
	C4.2,3.6,3,4.9,3,6.3v4.6v4.7v5.1v6.2c2.6-1.5,8-4.4,15.2-5.6"/>
<line class="st0" x1="9.1" y1="3.5" x2="9" y2="24"/>
<line class="st0" x1="14.7" y1="3.5" x2="14.8" y2="22.2"/>
<line class="st0" x1="20.3" y1="3.6" x2="20.3" y2="9.8"/>
<path class="st1" d="M25,20.7"/>
<path class="st1" d="M24.9,8.2"/>
<line class="st0" x1="24.9" y1="3.5" x2="24.9" y2="8.2"/>
<line class="st0" x1="29.9" y1="3.5" x2="29.9" y2="9.6"/>
<line class="st0" x1="35.8" y1="3.5" x2="35.7" y2="21.9"/>
<line class="st0" x1="40.6" y1="3.5" x2="40.6" y2="23.9"/>
<g>
	<g>
		<path class="st0" d="M16.9,16.2c-0.7,0.1-1.4,0.2-2.1,0.4c-5.3,1.1-9.5,2.9-12,4.1"/>
	</g>
</g>
<g>
	<g>
		<path class="st0" d="M46.8,20.8c-2.7-1.3-7.1-3.2-13-4.3"/>
	</g>
</g>
<path class="st0" d="M19.2,11C12,12,6,14.4,2.9,15.9"/>
<path class="st1" d="M18.7,11.2"/>
<path class="st1" d="M32.2,11.4"/>
<path class="st0" d="M46.9,16.1c-2.9-1.5-8.6-3.8-15.3-4.9"/>
<path class="st0" d="M46.6,10.8c-1.3,0-18.7-10.3-43.6,0.1"/>
<path class="st1" d="M46.6,11.2"/>
<g>
	<path class="st2" d="M6.4,36.7H5.9c-0.3,0-0.4-0.1-0.5-0.4l-0.3-0.7c-0.7,0-1.5,0-2.3,0l-0.2,0.6c-0.1,0.3-0.2,0.5-0.6,0.5H1.5
		c-0.3,0-0.6,0.1-0.5-0.4c0-0.1,0.1-0.2,0.1-0.3l2-5.2c0.2-0.5,0.4-0.5,0.9-0.5c0.4,0,0.5,0.1,0.7,0.5l2.1,5.3
		c0,0.1,0.1,0.2,0.1,0.3C6.9,36.6,6.6,36.7,6.4,36.7z M3.9,32.4l-0.7,2.1h1.5L3.9,32.4z"/>
	<path class="st2" d="M12.8,34.9c-0.3,1.5-1.1,1.8-2.5,1.8c-2.7,0-2.7-1.7-2.7-3.9v-2.1c0-0.5,0.5-0.5,0.9-0.5
		c0.3,0,0.5,0.1,0.5,0.5v2.7c0,0.4,0,1.1,0.2,1.6c0.2,0.4,0.6,0.4,1,0.4s0.8,0,1-0.4s0.2-1.1,0.2-1.6v-2.7c0-0.5,0.6-0.5,0.9-0.5
		c0.3,0,0.5,0.1,0.5,0.5l0.1,2C12.9,33.5,12.9,34.2,12.8,34.9z"/>
	<path class="st2" d="M18.3,31.5c-0.4,0-0.8,0-1.2,0v4.6c0,0.6-0.5,0.5-0.9,0.5c-0.4,0-0.5-0.1-0.5-0.5v-4.6c-0.4,0-0.8,0-1.2,0
		c-0.7,0-0.7-0.5-0.7-0.8s0.2-0.5,0.5-0.5h4.1c0.5,0,0.5,0.2,0.5,0.7C18.9,31.4,18.7,31.5,18.3,31.5z"/>
	<path class="st2" d="M22.3,36.7c-2.1,0-2.8-1.5-2.8-3.3s0.6-3.3,2.8-3.3s2.8,1.5,2.8,3.3C25.2,35.3,24.4,36.7,22.3,36.7z
		 M23.4,31.9c-0.2-0.4-0.6-0.5-1-0.5s-0.8,0.1-1,0.5s-0.2,1.1-0.2,1.6c0,0.4,0,1.1,0.2,1.6c0.2,0.4,0.6,0.5,1,0.5s0.8-0.1,1-0.5
		s0.2-1.1,0.2-1.6C23.6,32.9,23.6,32.2,23.4,31.9z"/>
	<path class="st2" d="M30.5,36.5c-0.4,0.1-1,0.2-1.6,0.2c-2.3,0-2.8-1-2.8-3.2c0-1.1,0.1-2.7,1.2-3.1c0.4-0.2,0.7-0.2,1.3-0.2
		c0.4,0,0.9,0,1.4,0c0.3,0,0.9-0.1,1,0.4l0,0.4c0,0.4-0.1,0.5-0.5,0.5c-0.2,0-0.3,0-0.5,0c-0.3,0-0.5,0-0.8,0c-0.2,0-0.7,0-0.9,0.1
		c-0.6,0.3-0.6,1.4-0.6,1.9c0,0.7,0,1.8,0.9,2c0.2,0,0.5,0,0.7,0c0.1,0,0.2,0,0.3,0V34h-0.7c-0.5,0-0.5-0.3-0.5-0.6s0.1-0.5,0.5-0.5
		h1.7c0.3,0,0.5,0.2,0.5,0.5V36C31,36.2,30.9,36.3,30.5,36.5z"/>
	<path class="st2" d="M34.9,36.7c-2.1,0-2.8-1.5-2.8-3.3s0.7-3.4,2.8-3.4c2.2,0,2.8,1.5,2.8,3.3C37.7,35.3,37,36.7,34.9,36.7z
		 M36,31.9c-0.2-0.4-0.6-0.5-1-0.5s-0.8,0.1-1,0.5s-0.2,1.1-0.2,1.6c0,0.4,0,1.1,0.2,1.6c0.2,0.4,0.6,0.5,1,0.5s0.8-0.1,1-0.5
		s0.2-1.1,0.2-1.6C36.2,32.9,36.2,32.2,36,31.9z"/>
	<path class="st2" d="M48.2,36.7h-2.6c-0.3,0-0.5-0.1-0.5-0.5v-5.4c0-0.4,0.2-0.5,0.5-0.5H46c0.3,0,0.5,0.1,0.5,0.5v4.7
		c0.6,0,1.1,0,1.8,0c0.5,0,0.5,0.4,0.5,0.7C48.7,36.5,48.5,36.7,48.2,36.7z"/>
</g>
<g>
	<path class="st2" d="M25.2,7.8c-4.8,0.1-8.8,4-8.9,8.9c0.2,4.8,4.1,8.8,8.9,8.9c4.8-0.1,8.8-4,8.9-8.9C34.1,11.9,30.1,7.9,25.2,7.8
		z M31.3,11.9l-0.9,2.5l-1.9,0.9l-2.7-2v-2.4L28,9.4C29.2,10,30.4,10.8,31.3,11.9z M27.7,16.3l-1,3h-3l-1-3l2.5-1.8L27.7,16.3z
		 M25.2,9c0.4,0,0.9,0,1.3,0.1L25.2,10l-1.3-0.9C24.4,9,24.8,9,25.2,9z M22.5,9.6l2.2,1.5v2.4L22,15.4l-1.9-0.9L19.2,12
		C20.1,10.8,21.2,10,22.5,9.6z M18.3,13.2L18.3,13.2l0.4,1.4l-1.3,0.9C17.7,14.8,17.9,14.1,18.3,13.2z M18.8,21
		c-0.8-1.2-1.3-2.5-1.3-3.9l2.2-1.5l1.9,0.9l1.1,3.1L21.4,21H18.8z M19.7,22.3h1.5l0.4,1.4C21,23.3,20.4,22.8,19.7,22.3L19.7,22.3z
		 M27.3,24.3c-1.3,0.4-2.8,0.4-4.1,0l-0.8-2.5l1.2-1.3h3.3l1.2,1.3L27.3,24.3z M28.7,23.7L28.7,23.7l0.4-1.4h1.5
		C30.1,22.8,29.4,23.3,28.7,23.7L28.7,23.7z M31.7,21h-2.6l-1.2-1.3l1.1-3.1l1.9-0.9l2.2,1.5C32.9,18.5,32.6,19.9,31.7,21L31.7,21z
		 M32.1,13.2c0.4,0.8,0.6,1.5,0.8,2.3l-1.3-0.9L32.1,13.2z"/>
</g>
<path class="st1" d="M33.8,16.7"/>
<path class="st2" d="M43.9,36.7h-0.5c-0.3,0-0.4-0.1-0.5-0.4l-0.3-0.7c-0.7,0-1.5,0-2.3,0l-0.2,0.6c-0.1,0.3-0.2,0.5-0.6,0.5H39
	c-0.3,0-0.6,0.1-0.5-0.4c0-0.1,0.1-0.2,0.1-0.3l2-5.2c0.2-0.5,0.4-0.5,0.9-0.5c0.4,0,0.5,0.1,0.7,0.5l2.1,5.3c0,0.1,0.1,0.2,0.1,0.3
	C44.3,36.6,44.1,36.7,43.9,36.7z M41.4,32.4l-0.7,2.1h1.5L41.4,32.4z"/>
</svg>
