<?xml version="1.0" encoding="utf-8"?>
<!-- Generator: Adobe Illustrator 25.4.1, SVG Export Plug-In . SVG Version: 6.00 Build 0)  -->
<svg version="1.1" id="Capa_1" xmlns="http://www.w3.org/2000/svg" xmlns:xlink="http://www.w3.org/1999/xlink" x="0px" y="0px"
	 viewBox="0 0 41.5 49" style="enable-background:new 0 0 41.5 49;" xml:space="preserve">
<style type="text/css">
	.st0{fill:none;stroke:#FF3737;stroke-width:1.5;}
	.st1{enable-background:new    ;}
	.st2{fill:#FF3737;}
</style>
<g transform="translate(-345.221 -611.045)">
	<g transform="translate(345.973 624.982)">
		<path class="st0" d="M32.2,19.1c-1.2-0.8-2-1.9-2.2-3.2c-0.1-0.6-0.6-1-1.2-0.9c-0.2,0-0.5,0.1-0.7,0.2l-9.1,3.2l-5.2-6.5
			c-0.2-0.2-0.4-0.4-0.6-0.5l-8.8-5C3.4,5.8,2,6.1,1.5,7.1c-0.6,1-0.2,2.2,0.8,2.8l7.6,4.3c0.6,0.3,1.1,0.7,1.5,1.3l4.8,6
			c0.3,0.3,0.5,0.7,0.6,1.1l0.2,0.6c0.2,0.5-0.2,1.1-0.8,1l-7.7-0.4c-0.5,0-1,0.1-1.4,0.4l-6.4,5.1c-0.9,0.7-1,2-0.3,2.9
			c0.7,0.9,2,1,2.9,0.3l0,0l5.4-4.2c0.3-0.2,0.6-0.3,0.9-0.3c5.8,0.2,7.9,0.3,8.7,0.4c0.4,0,0.7,0,1.1-0.2l8.2-2.9
			c0.1,0-0.1,1.1-0.1,1.3L27.4,27c-0.1,0.4-0.4,0.8-0.8,1l-4.8,2.4c-1,0.5-1.3,1.7-0.8,2.7c0.5,0.9,1.6,1.3,2.6,0.8l6.1-3.1
			c0.5-0.2,0.8-0.7,1-1.2l2.1-7c0.1-0.4,0.2-0.5,0.2-1.1C33.1,19.7,32.2,19.1,32.2,19.1L32.2,19.1z"/>
	</g>
	<g class="st1">
		<path class="st2" d="M374.6,627.7h-7.1c-1,0-0.8-0.8-0.8-1.5c0-0.7,0.7-1.3,1.2-1.8l1.9-2c0.5-0.5,1-1,1.4-1.5
			c0.7-0.9,1.6-1.9,1.6-3.1c0-1.2-0.3-1.5-1.5-1.5c-0.7,0-1.4,0.1-2.1,0.2c-0.3,0.1-0.7,0.2-1,0.2c-0.4,0-0.6-0.2-0.6-0.5
			c-0.1-0.3-0.2-0.7-0.2-1.1c0-0.5,0.4-0.7,0.8-0.8c1-0.2,2-0.2,3.1-0.2c2.3,0,4.1,0.8,4.1,3.4c0,1.2-0.4,2.3-1,3.3
			c-1,1.7-3.1,3.5-4.6,4.8c1.6-0.1,3.2-0.1,4.7-0.1c1,0,0.9,0.8,0.9,1.5C375.5,627.5,375.2,627.7,374.6,627.7z"/>
		<path class="st2" d="M383,621.4h-0.9c-0.3,0-0.4-0.2-0.5-0.5c-0.7,0.4-1.5,0.6-2.3,0.6c-1.4,0-2.3-0.7-2.3-2.2
			c0-2.6,2.7-2.4,4.6-2.4c0-0.6,0-1.1-0.7-1.1c-0.8,0-1.6,0.1-2.4,0.3c-0.1,0-0.1,0-0.2,0c-0.6,0-0.6-0.5-0.6-0.9
			c0-0.4,0.2-0.6,0.5-0.6c0.8-0.2,1.8-0.3,2.6-0.3c0.7,0,1.8,0.1,2.3,0.7c0.6,0.6,0.6,1.5,0.6,2.3v3.4
			C383.6,621.2,383.4,621.4,383,621.4z M381.5,618.4c-0.2,0-0.5,0-0.7,0c-0.7,0-1.9-0.1-1.9,0.9c0,0.3,0,0.8,0.5,0.8
			c0.8,0,1.4-0.3,2.1-0.7V618.4z"/>
	</g>
</g>
<path class="st2" d="M12.1,11.2c-2.6,0-4.6,2.1-4.8,4.8c0.1,2.6,2.2,4.6,4.8,4.8c2.6,0,4.6-2.1,4.8-4.8
	C16.8,13.3,14.7,11.2,12.1,11.2z M15.3,13.3l-0.5,1.3l-1,0.5l-1.4-1v-1.3l1.2-0.8C14.3,12.3,14.8,12.8,15.3,13.3z M13.4,15.6
	l-0.6,1.6h-1.6l-0.5-1.6l1.3-0.9L13.4,15.6z M12.1,11.8c0.2,0,0.5,0,0.7,0l-0.7,0.5l-0.7-0.5C11.7,11.8,11.9,11.8,12.1,11.8z
	 M10.7,12l1.2,0.8v1.3l-1.4,1l-1-0.5l-0.5-1.3C9.4,12.8,10,12.3,10.7,12z M8.5,14L8.5,14l0.2,0.8L8,15.2C8.1,14.8,8.2,14.4,8.5,14z
	 M8.7,18.1C8.3,17.6,8,16.9,8,16l1.2-0.8l1,0.5l0.6,1.6l-0.7,0.8H8.7z M9.3,18.7h0.8l0.2,0.8C9.9,19.3,9.5,19.1,9.3,18.7L9.3,18.7z
	 M13.2,19.9c-0.7,0.2-1.5,0.2-2.2,0l-0.5-1.4l0.6-0.7H13l0.6,0.7L13.2,19.9z M13.9,19.5L13.9,19.5l0.2-0.8H15
	C14.7,19.1,14.4,19.3,13.9,19.5L13.9,19.5z M15.5,18.1h-1.4l-0.6-0.7l0.6-1.6l1-0.5l1.2,0.8C16.1,16.7,16,17.4,15.5,18.1L15.5,18.1z
	 M15.8,14c0.2,0.3,0.3,0.8,0.3,1.2l-0.6-0.3L15.8,14z"/>
<path class="st0" d="M33,29c0.4,2,2.3,3.4,4.5,3l0,0c2.1-0.4,3.5-2.4,3-4.5c-0.4-2-2.3-3.4-4.5-3C34,24.8,32.7,26.8,33,29"/>
</svg>
