<?xml version="1.0" encoding="utf-8"?>
<!-- Generator: Adobe Illustrator 25.4.1, SVG Export Plug-In . SVG Version: 6.00 Build 0)  -->
<svg version="1.1" id="Capa_1" xmlns="http://www.w3.org/2000/svg" xmlns:xlink="http://www.w3.org/1999/xlink" x="0px" y="0px"
	 viewBox="0 0 31.3 40.9" style="enable-background:new 0 0 31.3 40.9;" xml:space="preserve">
<style type="text/css">
	.st0{fill:#00E9C5;}
</style>
<path class="st0" d="M0,15v13.5c0,1.6,1.1,3,2.7,3.4v8.2c0,0.4,0.3,0.7,0.7,0.7c0,0,0,0,0,0h5.4c0.4,0,0.7-0.3,0.7-0.7v-8.2
	c1.6-0.3,2.7-1.7,2.7-3.4v-0.4l2-2v5.1c0,1.6,1.1,3,2.7,3.4v5.5c0,0.4,0.3,0.7,0.7,0.7h0h5.4c0.4,0,0.7-0.3,0.7-0.7v-5.5
	c1.6-0.3,2.7-1.7,2.7-3.4v-1l4.2-4.2c0.8-0.8,0.8-2.2,0-3c-0.8-0.8-2.2-0.8-3,0l-1.2,1.2v-6.5c0-1.1-0.9-2-2-2c-0.2,0-0.4,0-0.6,0.1
	c2.3-5.9-0.6-12.7-6.5-15S4.7,1.4,2.4,7.3c-0.7,1.8-1,3.8-0.7,5.7C0.7,13.2,0,14.1,0,15L0,15z M13.1,21.8c-0.7,0-1.4-0.1-2.1-0.2
	l-1.3-3.8l1-1.4h4c-0.3,0.4-0.5,0.8-0.5,1.3v4C13.9,21.8,13.5,21.8,13.1,21.8L13.1,21.8z M5.5,18.4h3l0.9,2.7
	C7.9,20.5,6.6,19.6,5.5,18.4L5.5,18.4z M3.1,13.6l3.6-3l1.1,0.3l1.8,4.8l-1,1.4H4.5C3.8,16,3.3,14.8,3.1,13.6L3.1,13.6z M13.1,7.7
	l3.9,2.8L15.3,15h-4.5l-1.7-4.5L13.1,7.7z M18.4,10.9l1.2-0.2l3.5,2.9c-0.1,0.8-0.4,1.6-0.7,2.3c-0.7-0.2-1.5-0.1-2,0.4
	c-0.8-0.7-1.9-0.7-2.7,0c-0.3-0.3-0.6-0.4-1-0.5l-0.1-0.1L18.4,10.9z M28.7,24c0.3-0.3,0.8-0.3,1.1,0c0.3,0.3,0.3,0.8,0,1.1l0,0
	l-3.3,3.3v-2.2L28.7,24z M24.5,17.1c0.4,0,0.7,0.3,0.7,0.7v0v13.5c0,1.1-0.9,2.1-2,2.1c-0.4,0-0.7,0.3-0.7,0.7v5.4h-4.1v-5.4
	c0-0.4-0.3-0.7-0.7-0.7c-1.1,0-2-0.9-2-2.1V17.7c0-0.4,0.3-0.7,0.7-0.7c0.4,0,0.7,0.3,0.7,0.7l0,0v8.1h1.4v-8.1
	c0-0.4,0.3-0.7,0.7-0.7c0.4,0,0.6,0.3,0.7,0.7v8.1h1.4v-8.1c0-0.4,0.3-0.7,0.7-0.7c0.4,0,0.7,0.3,0.7,0.7l0,0v8.1h1.4v-8.1
	C23.8,17.4,24.1,17.1,24.5,17.1L24.5,17.1L24.5,17.1z M23.3,11.9l-2.8-2.3l1.3-3.3c1,1.6,1.5,3.4,1.5,5.3
	C23.3,11.7,23.3,11.8,23.3,11.9L23.3,11.9z M20.8,5l-1.6,4.3L18,9.6l-4.2-3V5.2l3.8-2.7C18.8,3.1,19.9,3.9,20.8,5z M16.1,1.9L13.1,4
	l-3-2.1C12.1,1.3,14.1,1.3,16.1,1.9z M8.6,2.5l3.8,2.7v1.3l-4.2,3L7,9.3L5.4,5C6.3,3.9,7.4,3.1,8.6,2.5L8.6,2.5z M4.4,6.3l1.3,3.4
	L2.9,12c0-0.1,0-0.2,0-0.3C2.9,9.7,3.4,7.9,4.4,6.3L4.4,6.3z M1.4,15c0-0.3,0.2-0.6,0.5-0.7c0.2,0.8,0.5,1.6,0.8,2.3v6.5h1.4v-4.4
	c0.4,0.5,0.9,1,1.4,1.4v2.9h1.4v-1.9c0.4,0.3,0.9,0.5,1.4,0.8v1.1h1.4v-0.6c0.6,0.2,1.3,0.3,1.9,0.4l-0.8,0.8
	c-2.9,0.2-5.2,2.5-5.2,5.4V30h1.4v-0.7c0-2.3,1.8-4.1,4.1-4.1c0.2,0,0.4-0.1,0.5-0.2l1.8-1.8c0.4,0,0.7,0,1.1-0.1v1.1l-3.2,3.2
	c-0.1,0.1-0.2,0.3-0.2,0.5v0.6c0,1.1-0.9,2.1-2.1,2.1c-0.4,0-0.7,0.3-0.7,0.7v8.2H4.1v-8.2c0-0.4-0.3-0.7-0.7-0.7
	c-1.1,0-2-0.9-2-2.1V15z"/>
</svg>
