<?xml version="1.0" encoding="utf-8"?>
<!-- Generator: Adobe Illustrator 25.4.1, SVG Export Plug-In . SVG Version: 6.00 Build 0)  -->
<svg version="1.1" id="Capa_1" xmlns="http://www.w3.org/2000/svg" xmlns:xlink="http://www.w3.org/1999/xlink" x="0px" y="0px"
	 viewBox="0 0 104.9 70.7" style="enable-background:new 0 0 104.9 70.7;" xml:space="preserve">
<style type="text/css">
	.st0{fill:#050B3D;}
</style>
<path class="st0" d="M97.3,33l-7.3-4.2c-0.7-0.2-1.4,0-1.8,0.5c0,0.2-0.1,0.4-0.3,0.5v4.4H76.6c-0.7,0-1.2,0.5-1.3,1.1
	c0,0.1,0,0.1,0,0.2l0,0V41c0,0.7,0.5,1.2,1.1,1.3c0.1,0,0.1,0,0.2,0H88v4.4c0,0.7,0.5,1.3,1.2,1.3c0,0,0.1,0,0.1,0
	c0.3,0,0.5,0,0.5-0.3l7.3-4.2l7.3-4.2c0.6-0.4,0.8-1.2,0.5-1.8c0-0.3-0.3-0.3-0.5-0.5L97.3,33z"/>
<path class="st0" d="M35.4,0C16,0.3,0.3,16,0,35.4c0.8,19.4,16.4,35,35.4,35.4c19.4-0.3,35.1-16,35.4-35.4C70.3,16,54.7,0.5,35.4,0z
	 M59.4,16.3l-3.4,9.9l-7.6,3.4l-10.6-7.6v-9.5L46,6.4C51.2,8.6,55.7,12,59.4,16.3L59.4,16.3z M45.2,33.8l-3.8,11.8H29.3l-3.8-11.8
	l9.9-7.2L45.2,33.8z M35.4,4.9c1.7-0.1,3.3,0.1,5,0.4l-5,3.4l-4.9-3.4C32,5,33.7,4.9,35.4,4.9z M24.8,6.8l8.4,6.1v9.5L22.5,30
	l-7.6-3.4l-3.4-9.9C14.8,12.2,19.4,8.8,24.8,6.8z M8,21.7L8,21.7l1.9,5.7l-4.9,3.4C5.4,27.6,6.5,24.5,8,21.7z M9.9,52.4
	c-3.1-4.6-4.9-10-4.9-15.6l8.4-6.1l7.6,3.4l4.2,12.5l-4.9,5.7H9.9z M13.7,57.4h6.1l1.9,5.7C18.7,61.7,16,59.8,13.7,57.4L13.7,57.4z
	 M43.3,65.4C38,67,32.3,67,27,65.4l-3-9.9l4.6-5.3h13.6l4.5,5.3L43.3,65.4z M49,63.2L49,63.2l1.9-5.7H57C54.7,59.8,52,61.7,49,63.2
	L49,63.2z M60.8,52.4H50.6L46,47.1l4.2-12.5l7.6-3.4l8.4,6.1C65.9,42.7,64,48,60.8,52.4z M62.8,21.7c1.5,2.8,2.5,5.9,3,9.1l-4.9-3.4
	L62.8,21.7z"/>
</svg>
