<?xml version="1.0" encoding="utf-8"?>
<!-- Generator: Adobe Illustrator 25.4.1, SVG Export Plug-In . SVG Version: 6.00 Build 0)  -->
<svg version="1.1" id="Capa_1" xmlns="http://www.w3.org/2000/svg" xmlns:xlink="http://www.w3.org/1999/xlink" x="0px" y="0px"
	 viewBox="0 0 699.7 513.4" style="enable-background:new 0 0 699.7 513.4;" xml:space="preserve">
<style type="text/css">
	.st0{fill:#00E9C5;}
</style>
<g>
	<path class="st0" d="M459.9,489.5v17.9c0,3.3-2.7,6.1-6.1,6.1H246.1c-3.3,0-6.1-2.7-6.1-6.1v-17.9c0-3.3-2.7-6.1-6.1-6.1
		c-0.1,0-0.1,0-0.2,0c-66.3,0-132.6-0.1-198.9,0.1c-13.4,0-24.5-4.9-30.7-18c-2.7-5.7-4-12.7-4-19.1C-0.1,309.7,0,173.1,0,36.4
		c0-2.8,0-5.7,0.6-8.4C3.6,11.8,16.1,0.6,31.4,0c2.2-0.1,4.3,0,6.5,0c209.2,0,418.4,0,627.6,0c20.7,0,34.2,14.5,34.2,36.8
		c0,136.3,0,272.6,0,408.9c0,23.5-13.1,37.6-34.8,37.7c-66.3,0-132.6,0-198.9,0c0,0,0,0-0.1,0C462.6,483.4,459.9,486.1,459.9,489.5z
		 M349.7,453.2c104.5,0,209.1,0,313.6,0c8.4,0,8.6-0.2,8.6-9.2c0-135,0-270,0-404.9c0-8.4-0.5-9-8.5-9c-209.1,0-418.1,0-627.2,0
		c-7.9,0-8.4,0.5-8.4,9c0,135,0,270,0,404.9c0,8.8,0.3,9.1,8.2,9.1C140.6,453.2,245.1,453.2,349.7,453.2z"/>
</g>
<g>
	<path class="st0" d="M267.9,178.2l-51.5,137.5c-5.8,15-14.5,12.5-29,12.5c-9.8,0-14-3.5-17.5-12.5l-54-139.8c-0.5-1.5-1-3-1-4.8
		c0-7,5.5-10,11.8-10h15.2c8,0,12,3.2,14.8,10.5l37,101.5l35.8-100c5.2-14.8,14-12,28-12c7,0,12.5,0.8,12.5,8.8
		C269.9,172.2,268.6,176,267.9,178.2z"/>
	<path class="st0" d="M423.9,328.2h-13.8c-7.8,0-11.8-3.2-14.5-10.2l-7.8-20.5c-20,0.5-40,0.5-60,0l-6.8,18.8c-3,8.2-6.2,12-15.5,12
		h-11.5c-7,0-12.8-0.8-12.8-8.8c0-2,1.5-6.2,2.2-8.2L335.1,173c5.5-15,13.5-12.8,27.8-12.8c9.8,0,14,3.5,17.5,12.5l54.2,140.8
		c0.5,1.5,1,3,1,4.8C435.6,325.2,430.1,328.2,423.9,328.2z M357.6,212.5L338.4,268h38.5L357.6,212.5z"/>
	<path class="st0" d="M574.4,328.2h-15c-7.8,0-12.8-1.5-17.8-7.8l-41.8-51h-3.5v45.2c0,15.8-13,13.5-24.2,13.5
		c-9.5,0-15-3.2-15-13.5V174c0-10,6.2-12.8,15-12.8h46.5c17.8,0,31.8-0.8,45,12.2c11.8,11.8,13.8,31.5,13.8,47.2
		c0,22-7.2,41.2-30.8,47l35.2,41c2.5,2.8,4,6.8,4,10.2C585.9,326,580.4,328.2,574.4,328.2z M533.1,196c-3-1.5-11.8-1.5-15.5-1.5h-7
		c-4.8,0-9.5,0-14.2,0.2v41.5h25.5c15,0,16.5-3,16.5-17.5C538.4,213.5,538.4,198.5,533.1,196z"/>
</g>
<g>
	<path class="st0" d="M251.2,431.1c-0.1,0-0.1,0-0.2,0c-57.1,0-114.2,0-171.3,0c-11.6,0-21.1-3.8-26.4-14.2
		c-2.3-4.5-3.5-10-3.5-15.1c-0.2-107.7-0.2-215.3-0.1-323c0-2.2,0-4.5,0.5-6.7c2.6-12.7,13.4-21.6,26.5-22c1.9-0.1,3.7,0,5.6,0
		c180.2,0,360.3,0,540.5,0c17.8,0,29.5,11.4,29.5,29c0,107.4,0,214.8,0,322.2c0,18.5-11.3,29.7-30,29.7c-57.1,0-114.2,0-171.3,0
		c0,0,0,0,0,0 M350.8,407.4c90,0,180,0,270,0c7.3,0,7.4-0.2,7.4-7.2c0-106.3,0-212.7,0-319c0-6.6-0.4-7.1-7.3-7.1
		c-180,0-360.1,0-540.1,0c-6.8,0-7.2,0.4-7.2,7.1c0,106.3,0,212.7,0,319c0,6.9,0.3,7.2,7.1,7.2C170.8,407.4,260.8,407.4,350.8,407.4
		z"/>
</g>
</svg>
