<svg id="american-football" xmlns="http://www.w3.org/2000/svg" width="45.769" height="45.982" viewBox="0 0 45.769 45.982">
  <g id="Grupo_1710" data-name="Grupo 1710" transform="translate(0 0)">
    <g id="Grupo_1709" data-name="Grupo 1709">
      <path id="Trazado_1950" data-name="Trazado 1950" d="M46.955,10.542c-.019-1.9-.275-6.525-2.224-8.4C42.68.178,36.867-.533,30.595.418,26.137,1.093,17.663,3.221,11,9.881,4.36,16.525,2.257,24.959,1.6,29.4c-.917,6.146-.25,11.967,1.622,14.155,1.628,1.9,5.471,2.327,7.617,2.41q.534.021,1.1.021c7.176,0,17.633-2.6,25.105-10.069C44.464,28.484,47.03,17.936,46.955,10.542ZM10.939,43.268c-3.156-.123-5.124-.826-5.674-1.469A8.7,8.7,0,0,1,4.04,37.668a30.289,30.289,0,0,1,.22-7.875c.042-.279.09-.576.145-.887L18.158,42.659A31.734,31.734,0,0,1,10.939,43.268ZM35.13,34.007a31.616,31.616,0,0,1-12.245,7.4q-.821.277-1.654.514L5.1,25.787a31.151,31.151,0,0,1,7.812-14,31.069,31.069,0,0,1,13.2-7.61L42.757,20.828A31.193,31.193,0,0,1,35.13,34.007Zm8.4-16.222L29.153,3.412c.673-.138,1.293-.247,1.846-.33a33.484,33.484,0,0,1,5-.393c3.668,0,6.146.706,6.871,1.4.646.62,1.359,2.913,1.4,6.479A34.221,34.221,0,0,1,43.525,17.785Z" transform="translate(-1.187 0)" fill="#050c42"/>
    </g>
  </g>
  <g id="Grupo_1712" data-name="Grupo 1712" transform="translate(12.186 13.3)">
    <g id="Grupo_1711" data-name="Grupo 1711">
      <path id="Trazado_1951" data-name="Trazado 1951" d="M156.744,152.538l-1.073-1.073.754-.753a1.347,1.347,0,0,0-1.905-1.905l-.754.754-1.073-1.073a1.347,1.347,0,0,0-1.905,1.905l1.073,1.073-1.474,1.475-1.073-1.073a1.347,1.347,0,1,0-1.905,1.905l1.073,1.073-1.534,1.534-1.105-1.105a1.347,1.347,0,1,0-1.905,1.905l1.105,1.105-1.474,1.474-1.105-1.105a1.347,1.347,0,0,0-1.905,1.905l1.105,1.105-1.411,1.411L139.177,162a1.347,1.347,0,0,0-1.905,1.905l1.073,1.073-.319.319a1.347,1.347,0,1,0,1.905,1.905l.319-.319,1.073,1.073a1.347,1.347,0,0,0,1.905-1.905l-1.073-1.073,1.411-1.411,1.042,1.042a1.347,1.347,0,0,0,1.905-1.905l-1.042-1.042,1.474-1.474,1.042,1.042a1.347,1.347,0,1,0,1.905-1.905l-1.042-1.042,1.534-1.534,1.073,1.073a1.347,1.347,0,0,0,1.905-1.905l-1.073-1.073,1.474-1.475,1.073,1.073a1.347,1.347,0,1,0,1.9-1.905Z" transform="translate(-136.877 -148.091)" fill="#050c42"/>
    </g>
  </g>
</svg>
