<svg xmlns="http://www.w3.org/2000/svg" xmlns:xlink="http://www.w3.org/1999/xlink" viewBox="0 0 759.12 1242.05"><defs><style>.cls-1{isolation:isolate;}.cls-2{fill:#00a517;}.cls-3{mix-blend-mode:lighten;}.cls-10,.cls-4,.cls-8,.cls-9{fill:#fff;}.cls-5{fill:#72e058;}.cls-5,.cls-7{stroke:#fff;stroke-miterlimit:10;stroke-width:2px;}.cls-6{fill:url(#Degradado_sin_nombre_15);}.cls-7{fill:none;}.cls-10,.cls-8,.cls-9{font-size:36px;font-family:Montserrat-Medium, Montserrat;font-weight:500;}.cls-8{letter-spacing:0.09em;}.cls-11,.cls-9{letter-spacing:0.1em;}.cls-10{letter-spacing:0.1em;}</style><radialGradient id="Degradado_sin_nombre_15" cx="374.88" cy="617.76" r="546.83" gradientTransform="translate(3.12 -612.8) scale(1 2)" gradientUnits="userSpaceOnUse"><stop offset="0" stop-opacity="0"/><stop offset="1" stop-opacity="0.6"/></radialGradient></defs><g class="cls-1"><g id="Suelo"><rect class="cls-2" x="3.12" y="2.54" width="756" height="1239.51"/><g id="Capa_2" data-name="Capa 2" class="cls-3"><g id="Capa_1-2" data-name="Capa 1-2"><path class="cls-4" d="M230.44,1102.91a7.45,7.45,0,0,0-4.45,6.81h0v51.9a2.57,2.57,0,0,1-2.58,2.57,2.43,2.43,0,0,1-.75-.11,27.75,27.75,0,0,1-19.78-26.56V1136c0-.29,0-.57.06-.86v-.23q.1-1.11.3-2.22l0-.24c.06-.32.12-.64.19-1a.94.94,0,0,0,0-.16c.18-.74.38-1.48.61-2.22l.05-.15c.11-.35.23-.69.36-1h0c.28-.74.58-1.48.9-2.14l.06-.12c.34-.7.69-1.38,1.08-2v0c.18-.3.36-.6.55-.89l.12-.18c.17-.27.36-.55.54-.81l.08-.11c.21-.29.41-.58.63-.86l.2-.25a30.79,30.79,0,0,1,3.08-3.38c.47-.44,1-.85,1.48-1.24a3.09,3.09,0,0,0,.59-4.34,2.61,2.61,0,0,0-.27-.31l-2.27-2.27a3.09,3.09,0,0,0-4.12-.22,37.4,37.4,0,0,0-4.82,4.68h0l-.06.06c-.33.39-.64.74-.95,1.17h0c-.31.38-.6.75-.88,1.15l-.14.2c-.46.79-1,1.62-1.52,2.48l-.13.24c-.51.85-1,1.72-1.41,2.62l-.13.26c-.19.4-.38.82-.56,1.23l-.07.1c-.2.45-.38.91-.55,1.37l-.11.29c-.15.41-.3.82-.44,1.24l-.07.2c-.14.46-.29.94-.43,1.41l-.06.27c-.11.41-.22.81-.32,1.22a1.09,1.09,0,0,1-.08.31c-.1.48-.2,1-.29,1.48v.2c-.1.43-.17.9-.23,1.3a3.48,3.48,0,0,1-.05.36c-.07.5-.13,1-.17,1.49a.43.43,0,0,0,0,.16c-.05.45-.08.9-.1,1.36v1.93h-.07A37.12,37.12,0,0,0,223.88,1174a2.6,2.6,0,0,1,2.14,2.54v14a2.58,2.58,0,0,0,2.56,2.58h4.14a2.59,2.59,0,0,0,2.58-2.58h0v-14a2.57,2.57,0,0,1,2.07-2.5,37,37,0,0,0,19.5-10.26,37.1,37.1,0,0,0-7.42-58.23,38,38,0,0,0-7.57-3.38A16.09,16.09,0,0,0,230.44,1102.91Zm25.31,46.67a27.8,27.8,0,0,1-17.15,14.53,2.57,2.57,0,0,1-3.2-1.73,2.64,2.64,0,0,1-.1-.74V1116a4.46,4.46,0,0,1,6.14-4.1,27.75,27.75,0,0,1,14.89,36.31c-.18.44-.38.87-.58,1.3Z" transform="translate(3.12 2.54)"/><path class="cls-4" d="M294.86,1146.84a13.68,13.68,0,0,1-1.9-.31,20,20,0,0,0-2.45-.15c-.56,0-1.48,0-1.84.51-.51.77-.36,4.3-.36,5.11h5.11c1.13,0,1.69.21,1.69,1.44v2c0,1.48-.36,1.94-1.84,1.94h-5v16.78c0,1.33-.2,2.3-1.79,2.3h-3.22c-1.38,0-1.53-.82-1.53-2v-17h-1.54c-1.12,0-1.23-.86-1.23-1.79v-2.21c0-1.79,1.44-1.44,2.77-1.44v-2c0-2.15,0-4.24,1.32-6,2.1-2.87,5.53-3,8.8-3,1,0,3.58,0,4.24,1a1.89,1.89,0,0,1,.26,1.07v.36C296.39,1144.43,296.39,1146.84,294.86,1146.84Zm10.48,1.53h-2c-1.84,0-2.71-.25-2.71-2.3v-1.79c0-1.63.67-2.25,2.25-2.25h2.41a2,2,0,0,1,2,2,2.45,2.45,0,0,1,0,.27v1.79c.09,1.43-.37,2.3-2,2.3Zm0,28.13h-2c-1.84,0-2.71-.26-2.71-2.3v-20c0-1.63.67-2.25,2.25-2.25h2.41a2,2,0,0,1,2,2,2.45,2.45,0,0,1,0,.27v20c.09,1.43-.37,2.3-2,2.3Z" transform="translate(3.12 2.54)"/><path class="cls-4" d="M323.69,1177.11a51.07,51.07,0,0,1-7.31-.36c-1.53-.2-1.43-.92-1.43-2.35v-.92c0-1.12.1-2.35,1.48-2.35a23.79,23.79,0,0,1,2.66.3c1.74.16,3.53.26,5.32.26s2.56,0,2.56-1.89a2.74,2.74,0,0,0-.31-1.69c-.41-.51-4.91-1.74-5.73-2-1-.35-2-.74-2.91-1.18-2.66-1.33-3.63-2.81-3.63-5.78,0-7.87,5.31-7.77,11.6-7.77,1.28,0,2.51,0,3.79.1,1.84.16,2.55.51,2.55,2.51,0,1.48.11,3.17-1.89,3.17-.87,0-1.79-.16-2.66-.21a34.9,34.9,0,0,0-4.09-.2c-1.94,0-3-.26-3,2a1.55,1.55,0,0,0,.25,1c.51.71,5.37,2,6.45,2.35,4,1.33,5.88,2.66,5.88,7.16C333.31,1176.19,330,1177.11,323.69,1177.11Z" transform="translate(3.12 2.54)"/><path class="cls-4" d="M344.91,1148.37H343c-1.84,0-2.71-.25-2.71-2.3v-1.79c0-1.63.66-2.25,2.25-2.25h2.4a2,2,0,0,1,2,2,2.45,2.45,0,0,1,0,.27v1.79C347,1147.5,346.5,1148.37,344.91,1148.37Zm0,28.13H343c-1.84,0-2.71-.26-2.71-2.3v-20c0-1.63.66-2.25,2.25-2.25h2.4a2,2,0,0,1,2,2,2.45,2.45,0,0,1,0,.27v20C347,1175.63,346.5,1176.5,344.91,1176.5Z" transform="translate(3.12 2.54)"/><path class="cls-4" d="M369.57,1177c-1.44.14-2.9.2-4.35.2-10,0-11.66-3.42-11.66-12.93s1.69-13,11.66-13a39.51,39.51,0,0,1,4.35.25c1.53.16,2.81,0,2.81,1.74v.1c0,1.28,0,4-1.84,4a15.64,15.64,0,0,1-2.05-.2,35.06,35.06,0,0,0-4.8-.41c-2.15,0-2.56.41-3,2.4a24.36,24.36,0,0,0-.41,5.12,40.15,40.15,0,0,0,.2,4.9c.21,2.3,1,2.56,3.23,2.56a39.5,39.5,0,0,0,4.85-.41,12.21,12.21,0,0,1,2-.2,1.37,1.37,0,0,1,1.22.51c.41.41.62,2.86.62,3.48C372.37,1176.86,371.14,1176.75,369.57,1177Z" transform="translate(3.12 2.54)"/><path class="cls-4" d="M396.81,1176.5h-2.87c-1.17,0-1.48-.77-1.48-1.84a13.93,13.93,0,0,1-7.56,2.5c-5,0-7.32-2.71-7.32-7.62,0-5.57,3.33-7.46,8.34-8a42.7,42.7,0,0,1,6.49-.41c0-2.05.31-4.91-2.56-4.91a32.14,32.14,0,0,0-7.36,1.07,6.27,6.27,0,0,1-1.23.15c-1.78,0-1.48-1.79-1.48-3.06a1.88,1.88,0,0,1,1.43-2.15,34.88,34.88,0,0,1,8.39-1c2.45,0,5.57.41,7.31,2.35,2,2.25,1.94,5.42,1.94,8.28v12.43C398.85,1175.78,398.34,1176.5,396.81,1176.5Zm-4.35-10.79c-.82,0-1.68-.1-2.5-.1a21.7,21.7,0,0,0-3.22.15c-2.15.31-3,1-3,3.22,0,1.23.2,3.43,1.89,3.43a11.72,11.72,0,0,0,6.85-2.56Z" transform="translate(3.12 2.54)"/><path class="cls-4" d="M410.36,1176.5h-1.79c-1.84,0-2.71-.26-2.71-2.3v-30.68c0-1.64.66-2.2,2.25-2.2h2.3a1.94,1.94,0,0,1,2,1.86,2,2,0,0,1,0,.34v30.68C412.35,1175.63,411.94,1176.5,410.36,1176.5Z" transform="translate(3.12 2.54)"/><path class="cls-4" d="M434.85,1177c-1.44.14-2.9.2-4.35.2-10,0-11.65-3.42-11.65-12.93s1.68-13,11.65-13a39.51,39.51,0,0,1,4.35.25c1.53.16,2.81,0,2.81,1.74v.1c0,1.28,0,4-1.84,4a14.89,14.89,0,0,1-2-.2,35.21,35.21,0,0,0-4.81-.41c-2.15,0-2.56.41-3,2.4a25,25,0,0,0-.41,5.12c0,1.63.06,3.27.21,4.9.2,2.3,1,2.56,3.22,2.56a39.49,39.49,0,0,0,4.86-.41,12.21,12.21,0,0,1,2-.2,1.39,1.39,0,0,1,1.23.51c.41.41.61,2.86.61,3.48C437.66,1176.86,436.44,1176.75,434.85,1177Z" transform="translate(3.12 2.54)"/><path class="cls-4" d="M455.05,1177.16c-8.54,0-11.76-4.91-11.76-12.93s3.17-13,11.76-13,11.71,4.91,11.71,13S463.64,1177.16,455.05,1177.16Zm4.19-18.87c-.92-1.68-2.46-1.63-4.19-1.63s-3.28,0-4.2,1.63-1,4.15-1,5.94.1,4.34,1,5.93,2.51,1.58,4.2,1.58,3.27,0,4.19-1.58.92-4.2.92-5.93S460.11,1159.88,459.24,1158.29Z" transform="translate(3.12 2.54)"/><path class="cls-4" d="M491.3,1176.5h-2.87c-1.17,0-1.48-.77-1.48-1.84a14,14,0,0,1-7.57,2.5c-5,0-7.31-2.71-7.31-7.62,0-5.57,3.33-7.46,8.34-8a42.7,42.7,0,0,1,6.49-.41c0-2.05.31-4.91-2.56-4.91a32.14,32.14,0,0,0-7.36,1.07,6.27,6.27,0,0,1-1.23.15c-1.79,0-1.48-1.79-1.48-3.06a1.88,1.88,0,0,1,1.43-2.15,34.88,34.88,0,0,1,8.39-1c2.45,0,5.57.41,7.31,2.35,2,2.25,1.94,5.42,1.94,8.28v12.43C493.34,1175.78,492.83,1176.5,491.3,1176.5ZM487,1165.71c-.82,0-1.69-.1-2.5-.1a21.7,21.7,0,0,0-3.22.15c-2.15.31-3,1-3,3.22,0,1.23.2,3.43,1.89,3.43a11.72,11.72,0,0,0,6.85-2.56Z" transform="translate(3.12 2.54)"/><path class="cls-4" d="M515.57,1177c-1.44.14-2.9.2-4.35.2-10,0-11.66-3.42-11.66-12.93s1.69-13,11.66-13a39.51,39.51,0,0,1,4.35.25c1.53.16,2.81,0,2.81,1.74v.1c0,1.28,0,4-1.84,4a15.64,15.64,0,0,1-2-.2,35.21,35.21,0,0,0-4.81-.41c-2.14,0-2.55.41-3,2.4a24.36,24.36,0,0,0-.41,5.12c0,1.63.05,3.27.2,4.9.21,2.3,1,2.56,3.22,2.56a39.49,39.49,0,0,0,4.86-.41,12.21,12.21,0,0,1,2-.2,1.37,1.37,0,0,1,1.22.51c.41.41.62,2.86.62,3.48C518.4,1176.86,517.17,1176.75,515.57,1177Z" transform="translate(3.12 2.54)"/><path class="cls-4" d="M543.3,1176.5h-2.73c-1.48,0-1.84-1-1.84-2.3v-13.09c0-.72.1-3.53-.36-4a2.12,2.12,0,0,0-1.64-.41,11,11,0,0,0-6.23,2.35v15.19c0,1.43-.41,2.3-2,2.3h-2.71c-1.38,0-1.84-.77-1.84-2v-31c0-1.64.66-2.2,2.25-2.2h2.37a1.94,1.94,0,0,1,2,1.86,2,2,0,0,1,0,.34V1153a16,16,0,0,1,6.9-1.74c4.75,0,7.87,2.35,7.87,7.26v15.7C545.29,1175.63,544.88,1176.5,543.3,1176.5Z" transform="translate(3.12 2.54)"/></g></g><rect class="cls-5" x="129.12" y="191.44" width="504" height="432.86"/><polyline class="cls-5" points="632.5 265.48 401.18 265.48 128.5 265.48"/><polyline class="cls-5" points="633.12 413.56 401.8 413.56 129.12 413.56"/><polyline class="cls-5" points="632.5 483.52 401.18 483.52 128.5 483.52"/><polyline class="cls-5" points="633.12 553.48 401.8 553.48 129.12 553.48"/><polyline class="cls-5" points="633.12 339.52 401.8 339.52 129.12 339.52"/><polyline class="cls-5" points="633.12 265.48 401.8 265.48 129.12 265.48"/><line class="cls-5" x1="633.12" y1="282.33" x2="614.22" y2="282.33"/><line class="cls-5" x1="633.12" y1="296.29" x2="614.22" y2="296.29"/><line class="cls-5" x1="633.12" y1="310.93" x2="614.22" y2="310.93"/><line class="cls-5" x1="633.12" y1="325.22" x2="614.22" y2="325.22"/><line class="cls-5" x1="486.39" y1="282.33" x2="467.5" y2="282.33"/><line class="cls-5" x1="486.39" y1="296.29" x2="467.5" y2="296.29"/><line class="cls-5" x1="486.39" y1="310.93" x2="467.5" y2="310.93"/><line class="cls-5" x1="486.39" y1="325.22" x2="467.5" y2="325.22"/><line class="cls-5" x1="296.6" y1="282.33" x2="277.71" y2="282.33"/><line class="cls-5" x1="296.6" y1="296.29" x2="277.71" y2="296.29"/><line class="cls-5" x1="296.6" y1="310.93" x2="277.71" y2="310.93"/><line class="cls-5" x1="296.6" y1="325.22" x2="277.71" y2="325.22"/><line class="cls-5" x1="148.71" y1="282.33" x2="129.82" y2="282.33"/><line class="cls-5" x1="148.71" y1="296.29" x2="129.82" y2="296.29"/><line class="cls-5" x1="148.71" y1="310.93" x2="129.82" y2="310.93"/><line class="cls-5" x1="148.71" y1="325.22" x2="129.82" y2="325.22"/><line class="cls-5" x1="633.12" y1="351.44" x2="614.22" y2="351.44"/><line class="cls-5" x1="633.12" y1="365.39" x2="614.22" y2="365.39"/><line class="cls-5" x1="633.12" y1="380.03" x2="614.22" y2="380.03"/><line class="cls-5" x1="633.12" y1="394.33" x2="614.22" y2="394.33"/><line class="cls-5" x1="486.39" y1="351.44" x2="467.5" y2="351.44"/><line class="cls-5" x1="486.39" y1="365.39" x2="467.5" y2="365.39"/><line class="cls-5" x1="486.39" y1="380.03" x2="467.5" y2="380.03"/><line class="cls-5" x1="486.39" y1="394.33" x2="467.5" y2="394.33"/><line class="cls-5" x1="296.6" y1="351.44" x2="277.71" y2="351.44"/><line class="cls-5" x1="296.6" y1="365.39" x2="277.71" y2="365.39"/><line class="cls-5" x1="296.6" y1="380.03" x2="277.71" y2="380.03"/><line class="cls-5" x1="296.6" y1="394.33" x2="277.71" y2="394.33"/><line class="cls-5" x1="148.71" y1="351.44" x2="129.82" y2="351.44"/><line class="cls-5" x1="148.71" y1="365.39" x2="129.82" y2="365.39"/><line class="cls-5" x1="148.71" y1="380.03" x2="129.82" y2="380.03"/><line class="cls-5" x1="148.71" y1="394.33" x2="129.82" y2="394.33"/><line class="cls-5" x1="632.76" y1="425.65" x2="613.87" y2="425.65"/><line class="cls-5" x1="632.76" y1="439.61" x2="613.87" y2="439.61"/><line class="cls-5" x1="632.76" y1="454.24" x2="613.87" y2="454.24"/><line class="cls-5" x1="632.76" y1="468.54" x2="613.87" y2="468.54"/><line class="cls-5" x1="486.04" y1="425.65" x2="467.15" y2="425.65"/><line class="cls-5" x1="486.04" y1="439.61" x2="467.15" y2="439.61"/><line class="cls-5" x1="486.04" y1="454.24" x2="467.15" y2="454.24"/><line class="cls-5" x1="486.04" y1="468.54" x2="467.15" y2="468.54"/><line class="cls-5" x1="296.25" y1="425.65" x2="277.36" y2="425.65"/><line class="cls-5" x1="296.25" y1="439.61" x2="277.36" y2="439.61"/><line class="cls-5" x1="296.25" y1="454.24" x2="277.36" y2="454.24"/><line class="cls-5" x1="296.25" y1="468.54" x2="277.36" y2="468.54"/><line class="cls-5" x1="148.36" y1="425.65" x2="129.47" y2="425.65"/><line class="cls-5" x1="148.36" y1="439.61" x2="129.47" y2="439.61"/><line class="cls-5" x1="148.36" y1="454.24" x2="129.47" y2="454.24"/><line class="cls-5" x1="148.36" y1="468.54" x2="129.47" y2="468.54"/><line class="cls-5" x1="632.76" y1="497.48" x2="613.87" y2="497.48"/><line class="cls-5" x1="632.76" y1="511.44" x2="613.87" y2="511.44"/><line class="cls-5" x1="632.76" y1="526.07" x2="613.87" y2="526.07"/><line class="cls-5" x1="632.76" y1="540.37" x2="613.87" y2="540.37"/><line class="cls-5" x1="486.04" y1="497.48" x2="467.15" y2="497.48"/><line class="cls-5" x1="486.04" y1="511.44" x2="467.15" y2="511.44"/><line class="cls-5" x1="486.04" y1="526.07" x2="467.15" y2="526.07"/><line class="cls-5" x1="486.04" y1="540.37" x2="467.15" y2="540.37"/><line class="cls-5" x1="296.25" y1="497.48" x2="277.36" y2="497.48"/><line class="cls-5" x1="296.25" y1="511.44" x2="277.36" y2="511.44"/><line class="cls-5" x1="296.25" y1="526.07" x2="277.36" y2="526.07"/><line class="cls-5" x1="296.25" y1="540.37" x2="277.36" y2="540.37"/><line class="cls-5" x1="148.36" y1="497.48" x2="129.47" y2="497.48"/><line class="cls-5" x1="148.36" y1="511.44" x2="129.47" y2="511.44"/><line class="cls-5" x1="148.36" y1="526.07" x2="129.47" y2="526.07"/><line class="cls-5" x1="148.36" y1="540.37" x2="129.47" y2="540.37"/><line class="cls-5" x1="632.76" y1="569.31" x2="613.87" y2="569.31"/><line class="cls-5" x1="632.76" y1="583.27" x2="613.87" y2="583.27"/><line class="cls-5" x1="632.76" y1="597.9" x2="613.87" y2="597.9"/><line class="cls-5" x1="632.76" y1="612.2" x2="613.87" y2="612.2"/><line class="cls-5" x1="486.04" y1="569.31" x2="467.15" y2="569.31"/><line class="cls-5" x1="486.04" y1="583.27" x2="467.15" y2="583.27"/><line class="cls-5" x1="486.04" y1="597.9" x2="467.15" y2="597.9"/><line class="cls-5" x1="486.04" y1="612.2" x2="467.15" y2="612.2"/><line class="cls-5" x1="296.25" y1="569.31" x2="277.36" y2="569.31"/><line class="cls-5" x1="296.25" y1="583.27" x2="277.36" y2="583.27"/><line class="cls-5" x1="296.25" y1="597.9" x2="277.36" y2="597.9"/><line class="cls-5" x1="296.25" y1="612.2" x2="277.36" y2="612.2"/><line class="cls-5" x1="148.36" y1="569.31" x2="129.47" y2="569.31"/><line class="cls-5" x1="148.36" y1="583.27" x2="129.47" y2="583.27"/><line class="cls-5" x1="148.36" y1="597.9" x2="129.47" y2="597.9"/><line class="cls-5" x1="148.36" y1="612.2" x2="129.47" y2="612.2"/><rect class="cls-5" x="128.81" y="624.3" width="504" height="432.86"/><polyline class="cls-5" points="129.42 983.12 360.74 983.12 633.42 983.12"/><polyline class="cls-5" points="128.81 835.03 360.13 835.03 632.81 835.03"/><polyline class="cls-5" points="129.42 765.07 360.74 765.07 633.42 765.07"/><polyline class="cls-5" points="128.81 695.12 360.13 695.12 632.81 695.12"/><polyline class="cls-5" points="128.81 909.07 360.13 909.07 632.81 909.07"/><polyline class="cls-5" points="128.81 983.12 360.13 983.12 632.81 983.12"/><line class="cls-5" x1="128.81" y1="966.27" x2="147.7" y2="966.27"/><line class="cls-5" x1="128.81" y1="952.31" x2="147.7" y2="952.31"/><line class="cls-5" x1="128.81" y1="937.67" x2="147.7" y2="937.67"/><line class="cls-5" x1="128.81" y1="923.37" x2="147.7" y2="923.37"/><line class="cls-5" x1="275.53" y1="966.27" x2="294.42" y2="966.27"/><line class="cls-5" x1="275.53" y1="952.31" x2="294.42" y2="952.31"/><line class="cls-5" x1="275.53" y1="937.67" x2="294.42" y2="937.67"/><line class="cls-5" x1="275.53" y1="923.37" x2="294.42" y2="923.37"/><line class="cls-5" x1="465.32" y1="966.27" x2="484.21" y2="966.27"/><line class="cls-5" x1="465.32" y1="952.31" x2="484.21" y2="952.31"/><line class="cls-5" x1="465.32" y1="937.67" x2="484.21" y2="937.67"/><line class="cls-5" x1="465.32" y1="923.37" x2="484.21" y2="923.37"/><line class="cls-5" x1="613.21" y1="966.27" x2="632.1" y2="966.27"/><line class="cls-5" x1="613.21" y1="952.31" x2="632.1" y2="952.31"/><line class="cls-5" x1="613.21" y1="937.67" x2="632.1" y2="937.67"/><line class="cls-5" x1="613.21" y1="923.37" x2="632.1" y2="923.37"/><line class="cls-5" x1="128.81" y1="897.16" x2="147.7" y2="897.16"/><line class="cls-5" x1="128.81" y1="883.2" x2="147.7" y2="883.2"/><line class="cls-5" x1="128.81" y1="868.56" x2="147.7" y2="868.56"/><line class="cls-5" x1="128.81" y1="854.27" x2="147.7" y2="854.27"/><line class="cls-5" x1="275.53" y1="897.16" x2="294.42" y2="897.16"/><line class="cls-5" x1="275.53" y1="883.2" x2="294.42" y2="883.2"/><line class="cls-5" x1="275.53" y1="868.56" x2="294.42" y2="868.56"/><line class="cls-5" x1="275.53" y1="854.27" x2="294.42" y2="854.27"/><line class="cls-5" x1="465.32" y1="897.16" x2="484.21" y2="897.16"/><line class="cls-5" x1="465.32" y1="883.2" x2="484.21" y2="883.2"/><line class="cls-5" x1="465.32" y1="868.56" x2="484.21" y2="868.56"/><line class="cls-5" x1="465.32" y1="854.27" x2="484.21" y2="854.27"/><line class="cls-5" x1="613.21" y1="897.16" x2="632.1" y2="897.16"/><line class="cls-5" x1="613.21" y1="883.2" x2="632.1" y2="883.2"/><line class="cls-5" x1="613.21" y1="868.56" x2="632.1" y2="868.56"/><line class="cls-5" x1="613.21" y1="854.27" x2="632.1" y2="854.27"/><line class="cls-5" x1="129.16" y1="822.95" x2="148.05" y2="822.95"/><line class="cls-5" x1="129.16" y1="808.99" x2="148.05" y2="808.99"/><line class="cls-5" x1="129.16" y1="794.35" x2="148.05" y2="794.35"/><line class="cls-5" x1="129.16" y1="780.05" x2="148.05" y2="780.05"/><line class="cls-5" x1="275.88" y1="822.95" x2="294.77" y2="822.95"/><line class="cls-5" x1="275.88" y1="808.99" x2="294.77" y2="808.99"/><line class="cls-5" x1="275.88" y1="794.35" x2="294.77" y2="794.35"/><line class="cls-5" x1="275.88" y1="780.05" x2="294.77" y2="780.05"/><line class="cls-5" x1="465.67" y1="822.95" x2="484.56" y2="822.95"/><line class="cls-5" x1="465.67" y1="808.99" x2="484.56" y2="808.99"/><line class="cls-5" x1="465.67" y1="794.35" x2="484.56" y2="794.35"/><line class="cls-5" x1="465.67" y1="780.05" x2="484.56" y2="780.05"/><line class="cls-5" x1="613.56" y1="822.95" x2="632.46" y2="822.95"/><line class="cls-5" x1="613.56" y1="808.99" x2="632.46" y2="808.99"/><line class="cls-5" x1="613.56" y1="794.35" x2="632.46" y2="794.35"/><line class="cls-5" x1="613.56" y1="780.05" x2="632.46" y2="780.05"/><line class="cls-5" x1="129.16" y1="751.12" x2="148.05" y2="751.12"/><line class="cls-5" x1="129.16" y1="737.16" x2="148.05" y2="737.16"/><line class="cls-5" x1="129.16" y1="722.52" x2="148.05" y2="722.52"/><line class="cls-5" x1="129.16" y1="708.22" x2="148.05" y2="708.22"/><line class="cls-5" x1="275.88" y1="751.12" x2="294.77" y2="751.12"/><line class="cls-5" x1="275.88" y1="737.16" x2="294.77" y2="737.16"/><line class="cls-5" x1="275.88" y1="722.52" x2="294.77" y2="722.52"/><line class="cls-5" x1="275.88" y1="708.22" x2="294.77" y2="708.22"/><line class="cls-5" x1="465.67" y1="751.12" x2="484.56" y2="751.12"/><line class="cls-5" x1="465.67" y1="737.16" x2="484.56" y2="737.16"/><line class="cls-5" x1="465.67" y1="722.52" x2="484.56" y2="722.52"/><line class="cls-5" x1="465.67" y1="708.22" x2="484.56" y2="708.22"/><line class="cls-5" x1="613.56" y1="751.12" x2="632.46" y2="751.12"/><line class="cls-5" x1="613.56" y1="737.16" x2="632.46" y2="737.16"/><line class="cls-5" x1="613.56" y1="722.52" x2="632.46" y2="722.52"/><line class="cls-5" x1="613.56" y1="708.22" x2="632.46" y2="708.22"/><line class="cls-5" x1="129.16" y1="679.29" x2="148.05" y2="679.29"/><line class="cls-5" x1="129.16" y1="665.33" x2="148.05" y2="665.33"/><line class="cls-5" x1="129.16" y1="650.69" x2="148.05" y2="650.69"/><line class="cls-5" x1="129.16" y1="636.39" x2="148.05" y2="636.39"/><line class="cls-5" x1="275.88" y1="679.29" x2="294.77" y2="679.29"/><line class="cls-5" x1="275.88" y1="665.33" x2="294.77" y2="665.33"/><line class="cls-5" x1="275.88" y1="650.69" x2="294.77" y2="650.69"/><line class="cls-5" x1="275.88" y1="636.39" x2="294.77" y2="636.39"/><line class="cls-5" x1="465.67" y1="679.29" x2="484.56" y2="679.29"/><line class="cls-5" x1="465.67" y1="665.33" x2="484.56" y2="665.33"/><line class="cls-5" x1="465.67" y1="650.69" x2="484.56" y2="650.69"/><line class="cls-5" x1="465.67" y1="636.39" x2="484.56" y2="636.39"/><line class="cls-5" x1="613.56" y1="679.29" x2="632.46" y2="679.29"/><line class="cls-5" x1="613.56" y1="665.33" x2="632.46" y2="665.33"/><line class="cls-5" x1="613.56" y1="650.69" x2="632.46" y2="650.69"/><line class="cls-5" x1="613.56" y1="636.39" x2="632.46" y2="636.39"/><rect class="cls-6" width="756" height="1239.51"/></g><g id="Lineas"><rect class="cls-7" x="128.81" y="624.3" width="504" height="432.86"/><polyline class="cls-7" points="129.42 983.12 360.74 983.12 633.42 983.12"/><polyline class="cls-7" points="128.81 835.03 360.13 835.03 632.81 835.03"/><polyline class="cls-7" points="129.42 765.07 360.74 765.07 633.42 765.07"/><polyline class="cls-7" points="128.81 695.12 360.13 695.12 632.81 695.12"/><polyline class="cls-7" points="128.81 909.07 360.13 909.07 632.81 909.07"/><polyline class="cls-7" points="128.81 983.12 360.13 983.12 632.81 983.12"/><line class="cls-7" x1="128.81" y1="966.27" x2="147.7" y2="966.27"/><line class="cls-7" x1="128.81" y1="952.31" x2="147.7" y2="952.31"/><line class="cls-7" x1="128.81" y1="937.67" x2="147.7" y2="937.67"/><line class="cls-7" x1="128.81" y1="923.37" x2="147.7" y2="923.37"/><line class="cls-7" x1="275.53" y1="966.27" x2="294.42" y2="966.27"/><line class="cls-7" x1="275.53" y1="952.31" x2="294.42" y2="952.31"/><line class="cls-7" x1="275.53" y1="937.67" x2="294.42" y2="937.67"/><line class="cls-7" x1="275.53" y1="923.37" x2="294.42" y2="923.37"/><line class="cls-7" x1="465.32" y1="966.27" x2="484.21" y2="966.27"/><line class="cls-7" x1="465.32" y1="952.31" x2="484.21" y2="952.31"/><line class="cls-7" x1="465.32" y1="937.67" x2="484.21" y2="937.67"/><line class="cls-7" x1="465.32" y1="923.37" x2="484.21" y2="923.37"/><line class="cls-7" x1="613.21" y1="966.27" x2="632.1" y2="966.27"/><line class="cls-7" x1="613.21" y1="952.31" x2="632.1" y2="952.31"/><line class="cls-7" x1="613.21" y1="937.67" x2="632.1" y2="937.67"/><line class="cls-7" x1="613.21" y1="923.37" x2="632.1" y2="923.37"/><line class="cls-7" x1="128.81" y1="897.16" x2="147.7" y2="897.16"/><line class="cls-7" x1="128.81" y1="883.2" x2="147.7" y2="883.2"/><line class="cls-7" x1="128.81" y1="868.56" x2="147.7" y2="868.56"/><line class="cls-7" x1="128.81" y1="854.27" x2="147.7" y2="854.27"/><line class="cls-7" x1="275.53" y1="897.16" x2="294.42" y2="897.16"/><line class="cls-7" x1="275.53" y1="883.2" x2="294.42" y2="883.2"/><line class="cls-7" x1="275.53" y1="868.56" x2="294.42" y2="868.56"/><line class="cls-7" x1="275.53" y1="854.27" x2="294.42" y2="854.27"/><line class="cls-7" x1="465.32" y1="897.16" x2="484.21" y2="897.16"/><line class="cls-7" x1="465.32" y1="883.2" x2="484.21" y2="883.2"/><line class="cls-7" x1="465.32" y1="868.56" x2="484.21" y2="868.56"/><line class="cls-7" x1="465.32" y1="854.27" x2="484.21" y2="854.27"/><line class="cls-7" x1="613.21" y1="897.16" x2="632.1" y2="897.16"/><line class="cls-7" x1="613.21" y1="883.2" x2="632.1" y2="883.2"/><line class="cls-7" x1="613.21" y1="868.56" x2="632.1" y2="868.56"/><line class="cls-7" x1="613.21" y1="854.27" x2="632.1" y2="854.27"/><line class="cls-7" x1="129.16" y1="822.95" x2="148.05" y2="822.95"/><line class="cls-7" x1="129.16" y1="808.99" x2="148.05" y2="808.99"/><line class="cls-7" x1="129.16" y1="794.35" x2="148.05" y2="794.35"/><line class="cls-7" x1="129.16" y1="780.05" x2="148.05" y2="780.05"/><line class="cls-7" x1="275.88" y1="822.95" x2="294.77" y2="822.95"/><line class="cls-7" x1="275.88" y1="808.99" x2="294.77" y2="808.99"/><line class="cls-7" x1="275.88" y1="794.35" x2="294.77" y2="794.35"/><line class="cls-7" x1="275.88" y1="780.05" x2="294.77" y2="780.05"/><line class="cls-7" x1="465.67" y1="822.95" x2="484.56" y2="822.95"/><line class="cls-7" x1="465.67" y1="808.99" x2="484.56" y2="808.99"/><line class="cls-7" x1="465.67" y1="794.35" x2="484.56" y2="794.35"/><line class="cls-7" x1="465.67" y1="780.05" x2="484.56" y2="780.05"/><line class="cls-7" x1="613.56" y1="822.95" x2="632.46" y2="822.95"/><line class="cls-7" x1="613.56" y1="808.99" x2="632.46" y2="808.99"/><line class="cls-7" x1="613.56" y1="794.35" x2="632.46" y2="794.35"/><line class="cls-7" x1="613.56" y1="780.05" x2="632.46" y2="780.05"/><line class="cls-7" x1="129.16" y1="751.12" x2="148.05" y2="751.12"/><line class="cls-7" x1="129.16" y1="737.16" x2="148.05" y2="737.16"/><line class="cls-7" x1="129.16" y1="722.52" x2="148.05" y2="722.52"/><line class="cls-7" x1="129.16" y1="708.22" x2="148.05" y2="708.22"/><line class="cls-7" x1="275.88" y1="751.12" x2="294.77" y2="751.12"/><line class="cls-7" x1="275.88" y1="737.16" x2="294.77" y2="737.16"/><line class="cls-7" x1="275.88" y1="722.52" x2="294.77" y2="722.52"/><line class="cls-7" x1="275.88" y1="708.22" x2="294.77" y2="708.22"/><line class="cls-7" x1="465.67" y1="751.12" x2="484.56" y2="751.12"/><line class="cls-7" x1="465.67" y1="737.16" x2="484.56" y2="737.16"/><line class="cls-7" x1="465.67" y1="722.52" x2="484.56" y2="722.52"/><line class="cls-7" x1="465.67" y1="708.22" x2="484.56" y2="708.22"/><line class="cls-7" x1="613.56" y1="751.12" x2="632.46" y2="751.12"/><line class="cls-7" x1="613.56" y1="737.16" x2="632.46" y2="737.16"/><line class="cls-7" x1="613.56" y1="722.52" x2="632.46" y2="722.52"/><line class="cls-7" x1="613.56" y1="708.22" x2="632.46" y2="708.22"/><line class="cls-7" x1="129.16" y1="679.29" x2="148.05" y2="679.29"/><line class="cls-7" x1="129.16" y1="665.33" x2="148.05" y2="665.33"/><line class="cls-7" x1="129.16" y1="650.69" x2="148.05" y2="650.69"/><line class="cls-7" x1="129.16" y1="636.39" x2="148.05" y2="636.39"/><line class="cls-7" x1="275.88" y1="679.29" x2="294.77" y2="679.29"/><line class="cls-7" x1="275.88" y1="665.33" x2="294.77" y2="665.33"/><line class="cls-7" x1="275.88" y1="650.69" x2="294.77" y2="650.69"/><line class="cls-7" x1="275.88" y1="636.39" x2="294.77" y2="636.39"/><line class="cls-7" x1="465.67" y1="679.29" x2="484.56" y2="679.29"/><line class="cls-7" x1="465.67" y1="665.33" x2="484.56" y2="665.33"/><line class="cls-7" x1="465.67" y1="650.69" x2="484.56" y2="650.69"/><line class="cls-7" x1="465.67" y1="636.39" x2="484.56" y2="636.39"/><line class="cls-7" x1="613.56" y1="679.29" x2="632.46" y2="679.29"/><line class="cls-7" x1="613.56" y1="665.33" x2="632.46" y2="665.33"/><line class="cls-7" x1="613.56" y1="650.69" x2="632.46" y2="650.69"/><line class="cls-7" x1="613.56" y1="636.39" x2="632.46" y2="636.39"/><rect class="cls-7" x="129.12" y="191.44" width="504" height="432.86"/><polyline class="cls-7" points="632.5 265.48 401.18 265.48 128.5 265.48"/><polyline class="cls-7" points="633.12 413.56 401.8 413.56 129.12 413.56"/><polyline class="cls-7" points="632.5 483.52 401.18 483.52 128.5 483.52"/><polyline class="cls-7" points="633.12 553.48 401.8 553.48 129.12 553.48"/><polyline class="cls-7" points="633.12 339.52 401.8 339.52 129.12 339.52"/><polyline class="cls-7" points="633.12 265.48 401.8 265.48 129.12 265.48"/><line class="cls-7" x1="633.12" y1="282.33" x2="614.22" y2="282.33"/><line class="cls-7" x1="633.12" y1="296.29" x2="614.22" y2="296.29"/><line class="cls-7" x1="633.12" y1="310.93" x2="614.22" y2="310.93"/><line class="cls-7" x1="633.12" y1="325.22" x2="614.22" y2="325.22"/><line class="cls-7" x1="486.39" y1="282.33" x2="467.5" y2="282.33"/><line class="cls-7" x1="486.39" y1="296.29" x2="467.5" y2="296.29"/><line class="cls-7" x1="486.39" y1="310.93" x2="467.5" y2="310.93"/><line class="cls-7" x1="486.39" y1="325.22" x2="467.5" y2="325.22"/><line class="cls-7" x1="296.6" y1="282.33" x2="277.71" y2="282.33"/><line class="cls-7" x1="296.6" y1="296.29" x2="277.71" y2="296.29"/><line class="cls-7" x1="296.6" y1="310.93" x2="277.71" y2="310.93"/><line class="cls-7" x1="296.6" y1="325.22" x2="277.71" y2="325.22"/><line class="cls-7" x1="148.71" y1="282.33" x2="129.82" y2="282.33"/><line class="cls-7" x1="148.71" y1="296.29" x2="129.82" y2="296.29"/><line class="cls-7" x1="148.71" y1="310.93" x2="129.82" y2="310.93"/><line class="cls-7" x1="148.71" y1="325.22" x2="129.82" y2="325.22"/><line class="cls-7" x1="633.12" y1="351.44" x2="614.22" y2="351.44"/><line class="cls-7" x1="633.12" y1="365.39" x2="614.22" y2="365.39"/><line class="cls-7" x1="633.12" y1="380.03" x2="614.22" y2="380.03"/><line class="cls-7" x1="633.12" y1="394.33" x2="614.22" y2="394.33"/><line class="cls-7" x1="486.39" y1="351.44" x2="467.5" y2="351.44"/><line class="cls-7" x1="486.39" y1="365.39" x2="467.5" y2="365.39"/><line class="cls-7" x1="486.39" y1="380.03" x2="467.5" y2="380.03"/><line class="cls-7" x1="486.39" y1="394.33" x2="467.5" y2="394.33"/><line class="cls-7" x1="296.6" y1="351.44" x2="277.71" y2="351.44"/><line class="cls-7" x1="296.6" y1="365.39" x2="277.71" y2="365.39"/><line class="cls-7" x1="296.6" y1="380.03" x2="277.71" y2="380.03"/><line class="cls-7" x1="296.6" y1="394.33" x2="277.71" y2="394.33"/><line class="cls-7" x1="148.71" y1="351.44" x2="129.82" y2="351.44"/><line class="cls-7" x1="148.71" y1="365.39" x2="129.82" y2="365.39"/><line class="cls-7" x1="148.71" y1="380.03" x2="129.82" y2="380.03"/><line class="cls-7" x1="148.71" y1="394.33" x2="129.82" y2="394.33"/><line class="cls-7" x1="632.76" y1="425.65" x2="613.87" y2="425.65"/><line class="cls-7" x1="632.76" y1="439.61" x2="613.87" y2="439.61"/><line class="cls-7" x1="632.76" y1="454.24" x2="613.87" y2="454.24"/><line class="cls-7" x1="632.76" y1="468.54" x2="613.87" y2="468.54"/><line class="cls-7" x1="486.04" y1="425.65" x2="467.15" y2="425.65"/><line class="cls-7" x1="486.04" y1="439.61" x2="467.15" y2="439.61"/><line class="cls-7" x1="486.04" y1="454.24" x2="467.15" y2="454.24"/><line class="cls-7" x1="486.04" y1="468.54" x2="467.15" y2="468.54"/><line class="cls-7" x1="296.25" y1="425.65" x2="277.36" y2="425.65"/><line class="cls-7" x1="296.25" y1="439.61" x2="277.36" y2="439.61"/><line class="cls-7" x1="296.25" y1="454.24" x2="277.36" y2="454.24"/><line class="cls-7" x1="296.25" y1="468.54" x2="277.36" y2="468.54"/><line class="cls-7" x1="148.36" y1="425.65" x2="129.47" y2="425.65"/><line class="cls-7" x1="148.36" y1="439.61" x2="129.47" y2="439.61"/><line class="cls-7" x1="148.36" y1="454.24" x2="129.47" y2="454.24"/><line class="cls-7" x1="148.36" y1="468.54" x2="129.47" y2="468.54"/><line class="cls-7" x1="632.76" y1="497.48" x2="613.87" y2="497.48"/><line class="cls-7" x1="632.76" y1="511.44" x2="613.87" y2="511.44"/><line class="cls-7" x1="632.76" y1="526.07" x2="613.87" y2="526.07"/><line class="cls-7" x1="632.76" y1="540.37" x2="613.87" y2="540.37"/><line class="cls-7" x1="486.04" y1="497.48" x2="467.15" y2="497.48"/><line class="cls-7" x1="486.04" y1="511.44" x2="467.15" y2="511.44"/><line class="cls-7" x1="486.04" y1="526.07" x2="467.15" y2="526.07"/><line class="cls-7" x1="486.04" y1="540.37" x2="467.15" y2="540.37"/><line class="cls-7" x1="296.25" y1="497.48" x2="277.36" y2="497.48"/><line class="cls-7" x1="296.25" y1="511.44" x2="277.36" y2="511.44"/><line class="cls-7" x1="296.25" y1="526.07" x2="277.36" y2="526.07"/><line class="cls-7" x1="296.25" y1="540.37" x2="277.36" y2="540.37"/><line class="cls-7" x1="148.36" y1="497.48" x2="129.47" y2="497.48"/><line class="cls-7" x1="148.36" y1="511.44" x2="129.47" y2="511.44"/><line class="cls-7" x1="148.36" y1="526.07" x2="129.47" y2="526.07"/><line class="cls-7" x1="148.36" y1="540.37" x2="129.47" y2="540.37"/><line class="cls-7" x1="632.76" y1="569.31" x2="613.87" y2="569.31"/><line class="cls-7" x1="632.76" y1="583.27" x2="613.87" y2="583.27"/><line class="cls-7" x1="632.76" y1="597.9" x2="613.87" y2="597.9"/><line class="cls-7" x1="632.76" y1="612.2" x2="613.87" y2="612.2"/><line class="cls-7" x1="486.04" y1="569.31" x2="467.15" y2="569.31"/><line class="cls-7" x1="486.04" y1="583.27" x2="467.15" y2="583.27"/><line class="cls-7" x1="486.04" y1="597.9" x2="467.15" y2="597.9"/><line class="cls-7" x1="486.04" y1="612.2" x2="467.15" y2="612.2"/><line class="cls-7" x1="296.25" y1="569.31" x2="277.36" y2="569.31"/><line class="cls-7" x1="296.25" y1="583.27" x2="277.36" y2="583.27"/><line class="cls-7" x1="296.25" y1="597.9" x2="277.36" y2="597.9"/><line class="cls-7" x1="296.25" y1="612.2" x2="277.36" y2="612.2"/><line class="cls-7" x1="148.36" y1="569.31" x2="129.47" y2="569.31"/><line class="cls-7" x1="148.36" y1="583.27" x2="129.47" y2="583.27"/><line class="cls-7" x1="148.36" y1="597.9" x2="129.47" y2="597.9"/><line class="cls-7" x1="148.36" y1="612.2" x2="129.47" y2="612.2"/></g><g id="Postes"><polyline class="cls-7" points="342.97 206.75 354.54 237.67 381.12 237.67 408.41 237.67 419.9 206.75"/><line class="cls-7" x1="381.25" y1="251.73" x2="381.12" y2="237.67"/><polyline class="cls-7" points="347.65 1042.8 359.22 1011.88 385.8 1011.88 413.1 1011.88 424.58 1042.8"/><line class="cls-7" x1="385.93" y1="997.82" x2="385.8" y2="1011.88"/></g><g id="N_" data-name="Nº"><text class="cls-8" transform="translate(207.58 646.32) rotate(-90)">50</text><text class="cls-8" transform="translate(208.8 721.27) rotate(-90)">40</text><text class="cls-9" transform="translate(208.8 787.11) rotate(-90)">30</text><text class="cls-10" transform="translate(208.8 857.58) rotate(-90)">2<tspan class="cls-11" x="24.16" y="0">0</tspan></text><text class="cls-10" transform="translate(207.58 436.13) rotate(-90)">2<tspan class="cls-11" x="24.16" y="0">0</tspan></text><text class="cls-9" transform="translate(207.58 354.43) rotate(-90)">10</text><text class="cls-9" transform="translate(208.8 923.37) rotate(-90)">10</text><text class="cls-9" transform="translate(207.58 505.69) rotate(-90)">30</text><text class="cls-8" transform="translate(207.58 579.51) rotate(-90)">40</text><text class="cls-8" transform="translate(552.4 601.77) rotate(90)">50</text><text class="cls-8" transform="translate(551.17 526.82) rotate(90)">40</text><text class="cls-9" transform="translate(551.17 460.98) rotate(90)">30</text><text class="cls-10" transform="translate(551.17 390.51) rotate(90)">2<tspan class="cls-11" x="24.16" y="0">0</tspan></text><text class="cls-10" transform="translate(552.4 811.96) rotate(90)">2<tspan class="cls-11" x="24.16" y="0">0</tspan></text><text class="cls-9" transform="translate(552.4 893.66) rotate(90)">10</text><text class="cls-9" transform="translate(551.17 324.71) rotate(90)">10</text><text class="cls-9" transform="translate(552.4 742.4) rotate(90)">30</text><text class="cls-8" transform="translate(552.4 668.58) rotate(90)">40</text></g></g></svg>