<svg xmlns="http://www.w3.org/2000/svg" xmlns:xlink="http://www.w3.org/1999/xlink" viewBox="0 0 756 971"><defs><style>.cls-1{fill:#00a517;}.cls-2{fill:url(#Degradado_sin_nombre_15);}.cls-3{fill:none;stroke:#fff;stroke-miterlimit:10;stroke-width:2px;}.cls-4,.cls-5,.cls-6{font-size:36px;fill:#fff;font-family:Montserrat-Medium, Montserrat;font-weight:500;}.cls-4{letter-spacing:0.09em;}.cls-5,.cls-7{letter-spacing:0.1em;}.cls-6{letter-spacing:0.1em;}</style><radialGradient id="Degradado_sin_nombre_15" cx="378" cy="485.5" r="546.83" gradientTransform="translate(0 -273.33) scale(1 1.56)" gradientUnits="userSpaceOnUse"><stop offset="0" stop-opacity="0"/><stop offset="1" stop-opacity="0.6"/></radialGradient></defs><g id="Suelo"><rect class="cls-1" width="756" height="971"/><rect class="cls-2" width="756" height="971"/></g><g id="Lineas"><rect class="cls-3" x="125.69" y="487.5" width="504" height="432.86"/><polyline class="cls-3" points="126.31 846.32 357.63 846.32 630.31 846.32"/><polyline class="cls-3" points="125.69 698.23 357.01 698.23 629.69 698.23"/><polyline class="cls-3" points="126.31 628.28 357.63 628.28 630.31 628.28"/><polyline class="cls-3" points="125.69 558.32 357.01 558.32 629.69 558.32"/><polyline class="cls-3" points="125.69 772.28 357.01 772.28 629.69 772.28"/><polyline class="cls-3" points="125.69 846.32 357.01 846.32 629.69 846.32"/><line class="cls-3" x1="125.69" y1="829.47" x2="144.59" y2="829.47"/><line class="cls-3" x1="125.69" y1="815.51" x2="144.59" y2="815.51"/><line class="cls-3" x1="125.69" y1="800.87" x2="144.59" y2="800.87"/><line class="cls-3" x1="125.69" y1="786.57" x2="144.59" y2="786.57"/><line class="cls-3" x1="272.41" y1="829.47" x2="291.31" y2="829.47"/><line class="cls-3" x1="272.41" y1="815.51" x2="291.31" y2="815.51"/><line class="cls-3" x1="272.41" y1="800.87" x2="291.31" y2="800.87"/><line class="cls-3" x1="272.41" y1="786.57" x2="291.31" y2="786.57"/><line class="cls-3" x1="462.2" y1="829.47" x2="481.1" y2="829.47"/><line class="cls-3" x1="462.2" y1="815.51" x2="481.1" y2="815.51"/><line class="cls-3" x1="462.2" y1="800.87" x2="481.1" y2="800.87"/><line class="cls-3" x1="462.2" y1="786.57" x2="481.1" y2="786.57"/><line class="cls-3" x1="610.1" y1="829.47" x2="628.99" y2="829.47"/><line class="cls-3" x1="610.1" y1="815.51" x2="628.99" y2="815.51"/><line class="cls-3" x1="610.1" y1="800.87" x2="628.99" y2="800.87"/><line class="cls-3" x1="610.1" y1="786.57" x2="628.99" y2="786.57"/><line class="cls-3" x1="125.69" y1="760.36" x2="144.59" y2="760.36"/><line class="cls-3" x1="125.69" y1="746.4" x2="144.59" y2="746.4"/><line class="cls-3" x1="125.69" y1="731.77" x2="144.59" y2="731.77"/><line class="cls-3" x1="125.69" y1="717.47" x2="144.59" y2="717.47"/><line class="cls-3" x1="272.41" y1="760.36" x2="291.31" y2="760.36"/><line class="cls-3" x1="272.41" y1="746.4" x2="291.31" y2="746.4"/><line class="cls-3" x1="272.41" y1="731.77" x2="291.31" y2="731.77"/><line class="cls-3" x1="272.41" y1="717.47" x2="291.31" y2="717.47"/><line class="cls-3" x1="462.2" y1="760.36" x2="481.1" y2="760.36"/><line class="cls-3" x1="462.2" y1="746.4" x2="481.1" y2="746.4"/><line class="cls-3" x1="462.2" y1="731.77" x2="481.1" y2="731.77"/><line class="cls-3" x1="462.2" y1="717.47" x2="481.1" y2="717.47"/><line class="cls-3" x1="610.1" y1="760.36" x2="628.99" y2="760.36"/><line class="cls-3" x1="610.1" y1="746.4" x2="628.99" y2="746.4"/><line class="cls-3" x1="610.1" y1="731.77" x2="628.99" y2="731.77"/><line class="cls-3" x1="610.1" y1="717.47" x2="628.99" y2="717.47"/><line class="cls-3" x1="126.04" y1="686.15" x2="144.94" y2="686.15"/><line class="cls-3" x1="126.04" y1="672.19" x2="144.94" y2="672.19"/><line class="cls-3" x1="126.04" y1="657.55" x2="144.94" y2="657.55"/><line class="cls-3" x1="126.04" y1="643.26" x2="144.94" y2="643.26"/><line class="cls-3" x1="272.77" y1="686.15" x2="291.66" y2="686.15"/><line class="cls-3" x1="272.77" y1="672.19" x2="291.66" y2="672.19"/><line class="cls-3" x1="272.77" y1="657.55" x2="291.66" y2="657.55"/><line class="cls-3" x1="272.77" y1="643.26" x2="291.66" y2="643.26"/><line class="cls-3" x1="462.55" y1="686.15" x2="481.45" y2="686.15"/><line class="cls-3" x1="462.55" y1="672.19" x2="481.45" y2="672.19"/><line class="cls-3" x1="462.55" y1="657.55" x2="481.45" y2="657.55"/><line class="cls-3" x1="462.55" y1="643.26" x2="481.45" y2="643.26"/><line class="cls-3" x1="610.45" y1="686.15" x2="629.34" y2="686.15"/><line class="cls-3" x1="610.45" y1="672.19" x2="629.34" y2="672.19"/><line class="cls-3" x1="610.45" y1="657.55" x2="629.34" y2="657.55"/><line class="cls-3" x1="610.45" y1="643.26" x2="629.34" y2="643.26"/><line class="cls-3" x1="126.04" y1="614.32" x2="144.94" y2="614.32"/><line class="cls-3" x1="126.04" y1="600.36" x2="144.94" y2="600.36"/><line class="cls-3" x1="126.04" y1="585.72" x2="144.94" y2="585.72"/><line class="cls-3" x1="126.04" y1="571.43" x2="144.94" y2="571.43"/><line class="cls-3" x1="272.77" y1="614.32" x2="291.66" y2="614.32"/><line class="cls-3" x1="272.77" y1="600.36" x2="291.66" y2="600.36"/><line class="cls-3" x1="272.77" y1="585.72" x2="291.66" y2="585.72"/><line class="cls-3" x1="272.77" y1="571.43" x2="291.66" y2="571.43"/><line class="cls-3" x1="462.55" y1="614.32" x2="481.45" y2="614.32"/><line class="cls-3" x1="462.55" y1="600.36" x2="481.45" y2="600.36"/><line class="cls-3" x1="462.55" y1="585.72" x2="481.45" y2="585.72"/><line class="cls-3" x1="462.55" y1="571.43" x2="481.45" y2="571.43"/><line class="cls-3" x1="610.45" y1="614.32" x2="629.34" y2="614.32"/><line class="cls-3" x1="610.45" y1="600.36" x2="629.34" y2="600.36"/><line class="cls-3" x1="610.45" y1="585.72" x2="629.34" y2="585.72"/><line class="cls-3" x1="610.45" y1="571.43" x2="629.34" y2="571.43"/><line class="cls-3" x1="126.04" y1="542.49" x2="144.94" y2="542.49"/><line class="cls-3" x1="126.04" y1="528.53" x2="144.94" y2="528.53"/><line class="cls-3" x1="126.04" y1="513.89" x2="144.94" y2="513.89"/><line class="cls-3" x1="126.04" y1="499.6" x2="144.94" y2="499.6"/><line class="cls-3" x1="272.77" y1="542.49" x2="291.66" y2="542.49"/><line class="cls-3" x1="272.77" y1="528.53" x2="291.66" y2="528.53"/><line class="cls-3" x1="272.77" y1="513.89" x2="291.66" y2="513.89"/><line class="cls-3" x1="272.77" y1="499.6" x2="291.66" y2="499.6"/><line class="cls-3" x1="462.55" y1="542.49" x2="481.45" y2="542.49"/><line class="cls-3" x1="462.55" y1="528.53" x2="481.45" y2="528.53"/><line class="cls-3" x1="462.55" y1="513.89" x2="481.45" y2="513.89"/><line class="cls-3" x1="462.55" y1="499.6" x2="481.45" y2="499.6"/><line class="cls-3" x1="610.45" y1="542.49" x2="629.34" y2="542.49"/><line class="cls-3" x1="610.45" y1="528.53" x2="629.34" y2="528.53"/><line class="cls-3" x1="610.45" y1="513.89" x2="629.34" y2="513.89"/><line class="cls-3" x1="610.45" y1="499.6" x2="629.34" y2="499.6"/><rect class="cls-3" x="126" y="54.64" width="504" height="432.86"/><polyline class="cls-3" points="629.38 128.68 398.06 128.68 125.38 128.68"/><polyline class="cls-3" points="630 276.77 398.68 276.77 126 276.77"/><polyline class="cls-3" points="629.38 346.72 398.06 346.72 125.38 346.72"/><polyline class="cls-3" points="630 416.68 398.68 416.68 126 416.68"/><polyline class="cls-3" points="630 202.72 398.68 202.72 126 202.72"/><polyline class="cls-3" points="630 128.68 398.68 128.68 126 128.68"/><line class="cls-3" x1="630" y1="145.53" x2="611.11" y2="145.53"/><line class="cls-3" x1="630" y1="159.49" x2="611.11" y2="159.49"/><line class="cls-3" x1="630" y1="174.13" x2="611.11" y2="174.13"/><line class="cls-3" x1="630" y1="188.43" x2="611.11" y2="188.43"/><line class="cls-3" x1="483.28" y1="145.53" x2="464.38" y2="145.53"/><line class="cls-3" x1="483.28" y1="159.49" x2="464.38" y2="159.49"/><line class="cls-3" x1="483.28" y1="174.13" x2="464.38" y2="174.13"/><line class="cls-3" x1="483.28" y1="188.43" x2="464.38" y2="188.43"/><line class="cls-3" x1="293.49" y1="145.53" x2="274.6" y2="145.53"/><line class="cls-3" x1="293.49" y1="159.49" x2="274.6" y2="159.49"/><line class="cls-3" x1="293.49" y1="174.13" x2="274.6" y2="174.13"/><line class="cls-3" x1="293.49" y1="188.43" x2="274.6" y2="188.43"/><line class="cls-3" x1="145.6" y1="145.53" x2="126.7" y2="145.53"/><line class="cls-3" x1="145.6" y1="159.49" x2="126.7" y2="159.49"/><line class="cls-3" x1="145.6" y1="174.13" x2="126.7" y2="174.13"/><line class="cls-3" x1="145.6" y1="188.43" x2="126.7" y2="188.43"/><line class="cls-3" x1="630" y1="214.64" x2="611.11" y2="214.64"/><line class="cls-3" x1="630" y1="228.6" x2="611.11" y2="228.6"/><line class="cls-3" x1="630" y1="243.23" x2="611.11" y2="243.23"/><line class="cls-3" x1="630" y1="257.53" x2="611.11" y2="257.53"/><line class="cls-3" x1="483.28" y1="214.64" x2="464.38" y2="214.64"/><line class="cls-3" x1="483.28" y1="228.6" x2="464.38" y2="228.6"/><line class="cls-3" x1="483.28" y1="243.23" x2="464.38" y2="243.23"/><line class="cls-3" x1="483.28" y1="257.53" x2="464.38" y2="257.53"/><line class="cls-3" x1="293.49" y1="214.64" x2="274.6" y2="214.64"/><line class="cls-3" x1="293.49" y1="228.6" x2="274.6" y2="228.6"/><line class="cls-3" x1="293.49" y1="243.23" x2="274.6" y2="243.23"/><line class="cls-3" x1="293.49" y1="257.53" x2="274.6" y2="257.53"/><line class="cls-3" x1="145.6" y1="214.64" x2="126.7" y2="214.64"/><line class="cls-3" x1="145.6" y1="228.6" x2="126.7" y2="228.6"/><line class="cls-3" x1="145.6" y1="243.23" x2="126.7" y2="243.23"/><line class="cls-3" x1="145.6" y1="257.53" x2="126.7" y2="257.53"/><line class="cls-3" x1="629.65" y1="288.85" x2="610.76" y2="288.85"/><line class="cls-3" x1="629.65" y1="302.81" x2="610.76" y2="302.81"/><line class="cls-3" x1="629.65" y1="317.45" x2="610.76" y2="317.45"/><line class="cls-3" x1="629.65" y1="331.74" x2="610.76" y2="331.74"/><line class="cls-3" x1="482.93" y1="288.85" x2="464.03" y2="288.85"/><line class="cls-3" x1="482.93" y1="302.81" x2="464.03" y2="302.81"/><line class="cls-3" x1="482.93" y1="317.45" x2="464.03" y2="317.45"/><line class="cls-3" x1="482.93" y1="331.74" x2="464.03" y2="331.74"/><line class="cls-3" x1="293.14" y1="288.85" x2="274.24" y2="288.85"/><line class="cls-3" x1="293.14" y1="302.81" x2="274.24" y2="302.81"/><line class="cls-3" x1="293.14" y1="317.45" x2="274.24" y2="317.45"/><line class="cls-3" x1="293.14" y1="331.74" x2="274.24" y2="331.74"/><line class="cls-3" x1="145.24" y1="288.85" x2="126.35" y2="288.85"/><line class="cls-3" x1="145.24" y1="302.81" x2="126.35" y2="302.81"/><line class="cls-3" x1="145.24" y1="317.45" x2="126.35" y2="317.45"/><line class="cls-3" x1="145.24" y1="331.74" x2="126.35" y2="331.74"/><line class="cls-3" x1="629.65" y1="360.68" x2="610.76" y2="360.68"/><line class="cls-3" x1="629.65" y1="374.64" x2="610.76" y2="374.64"/><line class="cls-3" x1="629.65" y1="389.28" x2="610.76" y2="389.28"/><line class="cls-3" x1="629.65" y1="403.57" x2="610.76" y2="403.57"/><line class="cls-3" x1="482.93" y1="360.68" x2="464.03" y2="360.68"/><line class="cls-3" x1="482.93" y1="374.64" x2="464.03" y2="374.64"/><line class="cls-3" x1="482.93" y1="389.28" x2="464.03" y2="389.28"/><line class="cls-3" x1="482.93" y1="403.57" x2="464.03" y2="403.57"/><line class="cls-3" x1="293.14" y1="360.68" x2="274.24" y2="360.68"/><line class="cls-3" x1="293.14" y1="374.64" x2="274.24" y2="374.64"/><line class="cls-3" x1="293.14" y1="389.28" x2="274.24" y2="389.28"/><line class="cls-3" x1="293.14" y1="403.57" x2="274.24" y2="403.57"/><line class="cls-3" x1="145.24" y1="360.68" x2="126.35" y2="360.68"/><line class="cls-3" x1="145.24" y1="374.64" x2="126.35" y2="374.64"/><line class="cls-3" x1="145.24" y1="389.28" x2="126.35" y2="389.28"/><line class="cls-3" x1="145.24" y1="403.57" x2="126.35" y2="403.57"/><line class="cls-3" x1="629.65" y1="432.51" x2="610.76" y2="432.51"/><line class="cls-3" x1="629.65" y1="446.47" x2="610.76" y2="446.47"/><line class="cls-3" x1="629.65" y1="461.11" x2="610.76" y2="461.11"/><line class="cls-3" x1="629.65" y1="475.4" x2="610.76" y2="475.4"/><line class="cls-3" x1="482.93" y1="432.51" x2="464.03" y2="432.51"/><line class="cls-3" x1="482.93" y1="446.47" x2="464.03" y2="446.47"/><line class="cls-3" x1="482.93" y1="461.11" x2="464.03" y2="461.11"/><line class="cls-3" x1="482.93" y1="475.4" x2="464.03" y2="475.4"/><line class="cls-3" x1="293.14" y1="432.51" x2="274.24" y2="432.51"/><line class="cls-3" x1="293.14" y1="446.47" x2="274.24" y2="446.47"/><line class="cls-3" x1="293.14" y1="461.11" x2="274.24" y2="461.11"/><line class="cls-3" x1="293.14" y1="475.4" x2="274.24" y2="475.4"/><line class="cls-3" x1="145.24" y1="432.51" x2="126.35" y2="432.51"/><line class="cls-3" x1="145.24" y1="446.47" x2="126.35" y2="446.47"/><line class="cls-3" x1="145.24" y1="461.11" x2="126.35" y2="461.11"/><line class="cls-3" x1="145.24" y1="475.4" x2="126.35" y2="475.4"/></g><g id="Postes"><polyline class="cls-3" points="339.85 69.96 351.43 100.87 378 100.87 405.3 100.87 416.79 69.96"/><line class="cls-3" x1="378.13" y1="114.94" x2="378" y2="100.87"/><polyline class="cls-3" points="344.53 906 356.11 875.09 382.68 875.09 409.98 875.09 421.47 906"/><line class="cls-3" x1="382.81" y1="861.02" x2="382.68" y2="875.09"/></g><g id="N_" data-name="Nº"><text class="cls-4" transform="translate(204.46 509.52) rotate(-90)">50</text><text class="cls-4" transform="translate(205.69 584.47) rotate(-90)">40</text><text class="cls-5" transform="translate(205.69 650.31) rotate(-90)">30</text><text class="cls-6" transform="translate(205.69 720.78) rotate(-90)">2<tspan class="cls-7" x="24.16" y="0">0</tspan></text><text class="cls-6" transform="translate(204.46 299.33) rotate(-90)">2<tspan class="cls-7" x="24.16" y="0">0</tspan></text><text class="cls-5" transform="translate(204.46 217.63) rotate(-90)">10</text><text class="cls-5" transform="translate(205.69 786.57) rotate(-90)">10</text><text class="cls-5" transform="translate(204.46 368.89) rotate(-90)">30</text><text class="cls-4" transform="translate(204.46 442.71) rotate(-90)">40</text><text class="cls-4" transform="translate(549.28 464.97) rotate(90)">50</text><text class="cls-4" transform="translate(548.06 390.02) rotate(90)">40</text><text class="cls-5" transform="translate(548.06 324.18) rotate(90)">30</text><text class="cls-6" transform="translate(548.06 253.71) rotate(90)">2<tspan class="cls-7" x="24.16" y="0">0</tspan></text><text class="cls-6" transform="translate(549.28 675.16) rotate(90)">2<tspan class="cls-7" x="24.16" y="0">0</tspan></text><text class="cls-5" transform="translate(549.28 756.86) rotate(90)">10</text><text class="cls-5" transform="translate(548.06 187.91) rotate(90)">10</text><text class="cls-5" transform="translate(549.28 605.6) rotate(90)">30</text><text class="cls-4" transform="translate(549.28 531.78) rotate(90)">40</text></g></svg>