<?xml version="1.0" encoding="utf-8"?>
<!-- Generator: Adobe Illustrator 25.4.1, SVG Export Plug-In . SVG Version: 6.00 Build 0)  -->
<svg version="1.1" id="Capa_1" xmlns="http://www.w3.org/2000/svg" xmlns:xlink="http://www.w3.org/1999/xlink" x="0px" y="0px"
	 viewBox="0 0 43.9 29.6" style="enable-background:new 0 0 43.9 29.6;" xml:space="preserve">
<style type="text/css">
	.st0{fill:none;stroke:#00E9C5;stroke-width:2;stroke-miterlimit:10.0001;}
	.st1{fill:none;stroke:#00E9C5;stroke-width:1.6;stroke-miterlimit:10;}
	.st2{fill:none;stroke:#00E9C5;stroke-width:2;stroke-miterlimit:10;}
	.st3{enable-background:new    ;}
	.st4{fill:#00E9C5;}
</style>
<g id="Iconos">
	<ellipse transform="matrix(4.367648e-03 -1 1 4.367648e-03 7.1033 36.8341)" class="st0" cx="22" cy="14.8" rx="13.8" ry="20.9"/>
</g>
<path class="st1" d="M0,8.3"/>
<path class="st1" d="M41.9,7.9"/>
<line class="st2" x1="38.3" y1="6.6" x2="38.4" y2="24.1"/>
<line class="st2" x1="6.4" y1="5.7" x2="6.5" y2="23.6"/>
<g class="st3">
	<path class="st4" d="M19.1,21.3c-0.7,0.1-1.5,0.1-2.2,0.1c-4.7,0-5.8-2.2-5.8-6.5c0-2.3,0.2-5.2,2.6-6.2c1-0.4,2.1-0.5,3.2-0.5
		c0.7,0,1.5,0,2.2,0.1c0.6,0.1,1.2,0.1,1.2,0.9v0.6c0,0.8-0.1,1.1-1,1.1c-0.7,0-1.4-0.1-2.1-0.1c-0.5,0-1.6,0-2,0.2
		c-1.2,0.5-1.1,2.8-1.1,3.9c0,1.4-0.2,3.5,1.6,3.8c0.5,0.1,1,0.1,1.4,0.1c0.7,0,1.4-0.1,2.1-0.1c1.2,0,1,0.8,1,1.7
		C20.3,21.2,19.7,21.3,19.1,21.3z"/>
	<path class="st4" d="M27.9,21.6c-4.3,0-5.7-2.9-5.7-6.8c0-3.9,1.4-6.8,5.7-6.8s5.7,2.9,5.7,6.8C33.6,18.6,32.2,21.6,27.9,21.6z
		 M30.1,11.6c-0.4-0.9-1.3-1.1-2.2-1.1s-1.8,0.2-2.2,1.1c-0.4,0.7-0.4,2.3-0.4,3.1c0,0.8,0,2.4,0.4,3.1c0.4,0.9,1.3,1.1,2.2,1.1
		s1.8-0.2,2.2-1.1c0.4-0.7,0.4-2.3,0.4-3.1C30.5,13.9,30.5,12.4,30.1,11.6z"/>
</g>
</svg>
