<?xml version="1.0" encoding="utf-8"?>
<!-- Generator: Adobe Illustrator 25.4.1, SVG Export Plug-In . SVG Version: 6.00 Build 0)  -->
<svg version="1.1" id="Capa_1" xmlns="http://www.w3.org/2000/svg" xmlns:xlink="http://www.w3.org/1999/xlink" x="0px" y="0px"
	 viewBox="0 0 43.9 29.6" style="enable-background:new 0 0 43.9 29.6;" xml:space="preserve">
<style type="text/css">
	.st0{fill:none;stroke:#00E9C5;stroke-width:2;stroke-miterlimit:10.0001;}
	.st1{fill:none;stroke:#00E9C5;stroke-width:1.6;stroke-miterlimit:10;}
	.st2{fill:none;stroke:#00E9C5;stroke-width:2;stroke-miterlimit:10;}
	.st3{enable-background:new    ;}
	.st4{fill:#00E9C5;}
</style>
<g id="Iconos">
	<ellipse transform="matrix(4.367648e-03 -1 1 4.367648e-03 7.1033 36.8341)" class="st0" cx="22" cy="14.8" rx="13.8" ry="20.9"/>
</g>
<path class="st1" d="M0,8.3"/>
<path class="st1" d="M41.9,7.9"/>
<line class="st2" x1="38.3" y1="6.6" x2="38.4" y2="24.1"/>
<line class="st2" x1="6.4" y1="5.7" x2="6.5" y2="23.6"/>
<g class="st3">
	<path class="st4" d="M20,21.3c-0.7,0.1-1.5,0.1-2.2,0.1c-4.7,0-5.8-2.2-5.8-6.5c0-2.3,0.2-5.2,2.6-6.2c1-0.4,2.1-0.5,3.2-0.5
		c0.7,0,1.5,0,2.2,0.1c0.6,0.1,1.2,0.1,1.2,0.9v0.6c0,0.8-0.1,1.1-1,1.1c-0.7,0-1.4-0.1-2.1-0.1c-0.5,0-1.6,0-2,0.2
		c-1.2,0.5-1.1,2.8-1.1,3.9c0,1.4-0.2,3.5,1.6,3.8c0.5,0.1,1,0.1,1.4,0.1c0.7,0,1.4-0.1,2.1-0.1c1.2,0,1,0.8,1,1.7
		C21.2,21.2,20.6,21.3,20,21.3z"/>
	<path class="st4" d="M27.8,21.4c-0.9,0-4.5-0.3-4.5-1.4c0-0.4,0.2-0.8,0.3-1.2c0.1-0.4,0.4-0.6,0.8-0.6c0.1,0,0.2,0,0.4,0.1
		c1,0.3,2,0.6,3.1,0.6c1.2,0,1.5-0.4,1.5-1.6c0-1.1-0.6-1.3-1.6-1.4c-0.8,0-1.6,0-2.3,0c-1.1,0-0.9-0.9-0.9-1.7
		c0-0.6,0.4-0.8,0.9-0.8h1.2c1.6,0,2.1,0,2.1-1.7c0-1.1-0.5-1.2-1.6-1.2c-0.5,0-1,0-1.6,0.1c-0.3,0-0.6,0.2-0.9,0.2
		c-0.9,0-0.8-1-0.9-1.6c0,0,0-0.1,0-0.1c0-0.3,0.1-0.5,0.3-0.7c0.3-0.2,2.5-0.3,2.9-0.3c2.5,0,4.5,0.7,4.5,3.5c0,1-0.2,1.9-0.9,2.6
		c1.2,0.7,1.5,1.7,1.5,3C32.3,20.2,30.7,21.4,27.8,21.4z"/>
</g>
</svg>
