<?xml version="1.0" encoding="utf-8"?>
<!-- Generator: Adobe Illustrator 25.4.1, SVG Export Plug-In . SVG Version: 6.00 Build 0)  -->
<svg version="1.1" id="Iconos" xmlns="http://www.w3.org/2000/svg" xmlns:xlink="http://www.w3.org/1999/xlink" x="0px" y="0px"
	 viewBox="0 0 44.9 36.1" style="enable-background:new 0 0 44.9 36.1;" xml:space="preserve">
<style type="text/css">
	.st0{fill:none;stroke:#FF3737;stroke-width:2;stroke-linecap:round;stroke-miterlimit:10;}
	.st1{fill:none;stroke:#FF3737;stroke-width:1.2;stroke-linecap:round;stroke-miterlimit:10;}
	.st2{fill:none;stroke:#FF3737;stroke-miterlimit:10;}
	.st3{fill:none;stroke:#FF3737;stroke-width:0.75;stroke-miterlimit:10;}
	.st4{fill:none;stroke:#FF3737;stroke-width:0.5;stroke-miterlimit:10;}
	.st5{fill:#FF3737;}
	.st6{fill:none;stroke:#FF3737;stroke-width:0.4;stroke-miterlimit:10;}
	.st7{enable-background:new    ;}
</style>
<g id="Porterái">
	<polyline class="st0" points="31.8,3.6 31.8,10.7 31.8,18.5 	"/>
	<polyline class="st0" points="43.8,3.5 43.8,10.6 43.8,18.4 	"/>
	<line class="st0" x1="31.8" y1="18.5" x2="43.8" y2="18.5"/>
</g>
<path class="st1" d="M27.4,20.4c0,0,3.3-6.6-1.5-13.1"/>
<circle class="st2" cx="13.8" cy="3.6" r="3.1"/>
<path class="st2" d="M21.8,14.9c-0.3-0.5-5.9-3.7-8.1-5.9c0,0-0.7-1.2-3.8-1.7c0,0-5.9-2.4-7.7-3.2c0,0-2.2,0.1-1.6,2
	c0.2,0.6,0.6,1.1,1.2,1.3l5.6,2.3C8,9.9,8.1,10.1,8,10.4L6.4,21.9c0,0.2,0,0.5,0.2,0.6l3.5,3.7c0.2,0.2,0.3,0.6,0.2,0.9L8.6,34
	c0,0,1.1,2.9,3.4,0.8l2.3-7.8c0.1-0.3,0.1-0.6-0.1-0.8l-0.4-0.8l10.7,3.3c0.4,0.1,0.8,0,1.1-0.3c0.3-0.3,0.6-0.8,0.7-1.5
	s-0.4-1.4-1-1.6l-11-3.8c-0.9-0.3-1.1-0.6-1.1-1l0.9-5.9c0-0.3,0.4-0.4,0.6-0.3l1.2,0.8c0.3,0.2,2.4,1.4,4.1,2.4
	C21.3,18.3,22.8,16.6,21.8,14.9z"/>
<g id="Pelota">
	<path class="st3" d="M24,25.3c0.5-1.9,1.8-3.2,3.2-3.2c2,0,3.5,2.4,3.5,5.3s-1.6,5.3-3.5,5.3c-1.6,0-3-1.6-3.4-3.9"/>
	<path class="st2" d="M25.7,22.6"/>
	<path class="st2" d="M25.7,32.3"/>
	<path class="st2" d="M28.7,22.6"/>
	<path class="st2" d="M28.7,32.3"/>
</g>
<g id="Balón">
	<path class="st4" d="M26.3,25.9"/>
	<path class="st4" d="M26.3,25"/>
	<path class="st4" d="M26.1,30.2"/>
	<path class="st4" d="M26.2,29.3"/>
	<path class="st4" d="M26.3,28.4"/>
	<path class="st4" d="M26.2,27.5"/>
	<path class="st4" d="M26.3,26.7"/>
</g>
<polygon class="st5" points="24.2,9.2 27.9,5.7 23,4.3 "/>
<line class="st6" x1="27.3" y1="25.2" x2="27.1" y2="29.6"/>
<line class="st6" x1="26.3" y1="26" x2="28.2" y2="26.1"/>
<line class="st6" x1="26.4" y1="25.2" x2="28.2" y2="25.2"/>
<line class="st6" x1="26.2" y1="29.5" x2="28.1" y2="29.5"/>
<line class="st6" x1="26.2" y1="28.6" x2="28.1" y2="28.6"/>
<line class="st6" x1="26.3" y1="27.7" x2="28.1" y2="27.8"/>
<line class="st6" x1="26.3" y1="26.9" x2="28.1" y2="27"/>
<g class="st7">
	<path class="st5" d="M35.2,35.8c-0.5,0-2.6-0.2-2.6-0.8c0-0.2,0.1-0.5,0.2-0.7s0.2-0.4,0.5-0.4c0.1,0,0.1,0,0.2,0
		c0.6,0.2,1.1,0.4,1.8,0.4s0.9-0.3,0.9-0.9c0-0.6-0.3-0.7-0.9-0.8c-0.5,0-0.9,0-1.3,0c-0.6,0-0.5-0.5-0.5-0.9c0-0.3,0.2-0.5,0.5-0.5
		h0.7c0.9,0,1.2,0,1.2-1c0-0.6-0.3-0.7-0.9-0.7c-0.3,0-0.6,0-0.9,0.1c-0.2,0-0.4,0.1-0.5,0.1c-0.5,0-0.5-0.5-0.5-0.9c0,0,0,0,0-0.1
		c0-0.2,0.1-0.3,0.2-0.4c0.2-0.1,1.4-0.2,1.7-0.2c1.4,0,2.6,0.4,2.6,2c0,0.6-0.1,1.1-0.5,1.5c0.7,0.4,0.8,1,0.8,1.7
		C37.8,35,36.9,35.8,35.2,35.8z"/>
	<path class="st5" d="M43.9,33.1c-0.7,0.3-1.8,0.2-2.5,0.2V35c0,0.7-0.6,0.6-1.1,0.6c-0.4,0-0.7-0.1-0.7-0.6v-6.2
		c0-0.4,0.3-0.6,0.7-0.6h2c0.8,0,1.4,0,2,0.5c0.5,0.5,0.6,1.4,0.6,2.1C45,31.8,44.8,32.7,43.9,33.1z M41.4,29.7v2.1h1.2
		c0.2,0,0.4,0,0.6-0.2c0.1-0.1,0.1-0.6,0.1-0.8c0-0.3,0-1-0.2-1.1c-0.2,0-0.6,0-0.8,0C42,29.7,41.7,29.7,41.4,29.7z"/>
</g>
<line class="st0" x1="37.8" y1="18.8" x2="37.8" y2="24.6"/>
</svg>
