<?xml version="1.0" encoding="utf-8"?>
<!-- Generator: Adobe Illustrator 25.4.1, SVG Export Plug-In . SVG Version: 6.00 Build 0)  -->
<svg version="1.1" id="Capa_1" xmlns="http://www.w3.org/2000/svg" xmlns:xlink="http://www.w3.org/1999/xlink" x="0px" y="0px"
	 viewBox="0 0 41.5 29.5" style="enable-background:new 0 0 41.5 29.5;" xml:space="preserve">
<style type="text/css">
	.st0{fill:none;stroke:#00E9C5;stroke-width:2;stroke-linecap:round;stroke-miterlimit:10;}
	.st1{fill:none;stroke:#00E9C5;stroke-miterlimit:10;}
	.st2{fill:#FFFFFF;stroke:#FF3737;stroke-width:0.5;stroke-linecap:round;stroke-miterlimit:10;}
	.st3{fill:none;stroke:#FF3737;stroke-width:2;stroke-linecap:round;stroke-linejoin:round;stroke-miterlimit:10;}
	.st4{fill:#FF3737;}
	.st5{fill:none;stroke:#FF3737;stroke-width:2;stroke-linecap:round;stroke-miterlimit:10;}
	.st6{fill:none;stroke:#FF3737;stroke-width:1.2;stroke-linecap:round;stroke-miterlimit:10;}
	.st7{enable-background:new    ;}
</style>
<path class="st0" d="M25.2,26"/>
<path class="st0" d="M35.2,12.7"/>
<path id="Soporte_00000033336003552258691360000014222915226302451079_" class="st1" d="M33.7,17.5"/>
<path class="st2" d="M31.7,13.1"/>
<rect x="1" y="2.5" class="st3" width="39.5" height="26"/>
<g>
	<path class="st4" d="M10.5,4.7c-1.2,0-2.2-1-2.2-2.2s1-2.2,2.2-2.2H31c1.2,0,2.2,1,2.2,2.2s-1,2.2-2.2,2.2H10.5z"/>
	<path class="st4" d="M31,0.5c1.1,0,2,0.9,2,2s-0.9,2-2,2H10.5c-1.1,0-2-0.9-2-2s0.9-2,2-2H31 M31,0H10.5C9.2,0,8,1.1,8,2.5
		S9.2,5,10.5,5H31c1.4,0,2.5-1.1,2.5-2.5S32.3,0,31,0L31,0z"/>
</g>
<path class="st5" d="M11.7,17.1"/>
<line class="st5" x1="7.3" y1="12.7" x2="16.1" y2="12.7"/>
<line class="st5" x1="36.6" y1="24.2" x2="4.7" y2="24.2"/>
<line class="st5" x1="20.7" y1="24.2" x2="20.7" y2="20.1"/>
<line class="st6" x1="6.3" y1="23.3" x2="6.3" y2="21.4"/>
<line class="st6" x1="9.2" y1="23.3" x2="9.2" y2="21.4"/>
<line class="st6" x1="29.2" y1="23.3" x2="29.2" y2="21.4"/>
<line class="st6" x1="12.1" y1="23.3" x2="12.1" y2="21.4"/>
<line class="st6" x1="14.9" y1="23.3" x2="14.9" y2="21.4"/>
<line class="st6" x1="17.8" y1="23.3" x2="17.8" y2="21.4"/>
<line class="st6" x1="23.5" y1="23.3" x2="23.5" y2="21.4"/>
<line class="st6" x1="26.3" y1="23.3" x2="26.3" y2="21.4"/>
<line class="st6" x1="32.1" y1="23.3" x2="32.1" y2="21.4"/>
<line class="st6" x1="35" y1="23.3" x2="35" y2="21.4"/>
<g class="st7">
	<path class="st4" d="M22.6,17.6c-0.6,0-2.3-0.2-2.9-0.5c-0.3-0.1-0.4-0.3-0.4-0.6c0-0.5,0.2-1.4,0.8-1.4c0.2,0,0.8,0.2,1,0.3
		c0.5,0.1,1,0.2,1.4,0.2c0.9,0,1.2-0.6,1.2-1.5c0-0.3-0.1-0.8-0.2-1.1c-0.2-0.3-0.9-0.3-1.2-0.3c-0.4,0-0.6,0-1,0.1
		c-0.3,0.1-0.8,0.2-1,0.1c-0.3,0-0.6-0.3-0.5-0.7v-0.1l0.3-4c0-0.5,0.2-0.8,0.8-0.8h4.2c0.8,0,0.8,0.5,0.8,1.2
		c0,0.6-0.2,0.9-0.8,0.9h-0.7c-0.8,0-1.5,0-2.3,0L22,10.9c0.2,0,0.4,0,0.5,0c0.5,0,1,0,1.5,0.1c1.5,0.3,2,1.8,2,3.2
		C26.1,16.4,24.7,17.6,22.6,17.6z"/>
	<path class="st4" d="M32.2,17.6c-3.2,0-3.9-2.5-3.9-5.2s0.6-5.2,3.9-5.2s3.9,2.5,3.9,5.2C36.1,15.1,35.4,17.6,32.2,17.6z M33.4,9.8
		c-0.2-0.5-0.7-0.6-1.2-0.6s-1,0.1-1.2,0.6c-0.3,0.6-0.3,1.9-0.3,2.6s0,2,0.3,2.6c0.2,0.5,0.7,0.6,1.2,0.6s1-0.1,1.2-0.6
		c0.3-0.6,0.4-1.9,0.4-2.6C33.8,11.7,33.7,10.4,33.4,9.8z"/>
</g>
</svg>
