<?xml version="1.0" encoding="utf-8"?>
<!-- Generator: Adobe Illustrator 25.4.1, SVG Export Plug-In . SVG Version: 6.00 Build 0)  -->
<svg version="1.1" id="Capa_1" xmlns="http://www.w3.org/2000/svg" xmlns:xlink="http://www.w3.org/1999/xlink" x="0px" y="0px"
	 viewBox="0 0 45.6 42.3" style="enable-background:new 0 0 45.6 42.3;" xml:space="preserve">
<style type="text/css">
	.st0{fill:none;stroke:#FF3737;stroke-width:2;stroke-miterlimit:10.0001;}
	.st1{fill:none;stroke:#00E9C5;stroke-width:1.6;stroke-miterlimit:10;}
	.st2{fill:none;stroke:#FF3737;stroke-width:1.6;stroke-miterlimit:10;}
	.st3{fill:none;stroke:#FF3737;stroke-miterlimit:10;}
</style>
<g id="Iconos">
	
		<ellipse transform="matrix(4.367535e-03 -1 1 4.367535e-03 1.6859 43.2527)" class="st0" cx="22.6" cy="20.8" rx="19.6" ry="12.9"/>
</g>
<path class="st1" d="M16.5,41.5"/>
<path class="st2" d="M17.1,2.2"/>
<line class="st2" x1="22.3" y1="12.5" x2="22.6" y2="29.4"/>
<line class="st2" x1="18.6" y1="15.7" x2="26" y2="15.6"/>
<line class="st2" x1="18.6" y1="12.3" x2="25.9" y2="12.2"/>
<line class="st2" x1="18.9" y1="29.3" x2="26.2" y2="29.2"/>
<line class="st2" x1="18.8" y1="25.9" x2="26.2" y2="25.8"/>
<line class="st2" x1="18.8" y1="22.5" x2="26.1" y2="22.3"/>
<line class="st2" x1="18.7" y1="19.2" x2="26" y2="19.1"/>
<path class="st3" d="M10.2,4.8C8.8,2.9,6,0.7,3.3,0.7"/>
<path class="st3" d="M7.2,9.7c-2.1-1.6-5-1.7-6-0.9"/>
<path class="st3" d="M9.1,7.7C7.9,6.4,5.4,4.2,0.4,4.2"/>
<path class="st3" d="M7.6,32.7c-2.3,0.2-5.8,1.4-7.2,3.7"/>
<path class="st3" d="M10.1,37.8c-2.4,0.9-4,3.3-3.9,4.5"/>
<path class="st3" d="M9.5,35.2c-1.8,0.3-4.9,1.3-7.6,5.5"/>
<path class="st3" d="M42.3,0.5c-2.7,0-5.5,2.2-6.9,4.1"/>
<path class="st3" d="M44.3,8.5c-1-0.7-3.9-0.7-6,0.9"/>
<path class="st3" d="M45.2,4c-5,0-7.5,2.2-8.7,3.5"/>
<path class="st3" d="M45.1,36.1c-1.4-2.3-4.9-3.5-7.2-3.7"/>
<path class="st3" d="M39.3,42.1c0.1-1.2-1.5-3.6-3.9-4.5"/>
<path class="st3" d="M43.7,40.5c-2.7-4.2-5.9-5.2-7.6-5.5"/>
</svg>
