<?xml version="1.0" encoding="utf-8"?>
<!-- Generator: Adobe Illustrator 25.4.1, SVG Export Plug-In . SVG Version: 6.00 Build 0)  -->
<svg version="1.1" id="Capa_1" xmlns="http://www.w3.org/2000/svg" xmlns:xlink="http://www.w3.org/1999/xlink" x="0px" y="0px"
	 viewBox="0 0 84.5 69.9" style="enable-background:new 0 0 84.5 69.9;" xml:space="preserve">
<style type="text/css">
	.st0{fill:none;stroke:#FF3737;stroke-width:3.7529;stroke-linecap:round;stroke-miterlimit:9.9992;}
	.st1{fill:none;stroke:#FF3737;stroke-width:3.7533;stroke-linecap:round;stroke-miterlimit:10;}
	.st2{fill:#00E9C5;stroke:#00E9C5;stroke-width:1.3;stroke-miterlimit:10;}
	.st3{fill:none;stroke:#00E9C5;stroke-width:2.8;stroke-miterlimit:10;}
	.st4{fill:none;stroke:#00E9C5;stroke-width:3.753;stroke-linecap:round;stroke-miterlimit:9.9994;}
	.st5{fill:#FFFFFF;stroke:#00E9C5;stroke-width:3.7533;stroke-linecap:round;stroke-miterlimit:10;}
</style>
<g id="Pelota">
	<path class="st0" d="M46.9,41.9"/>
	<path class="st0" d="M4.3,27.9"/>
	<path class="st1" d="M44.1,8.7"/>
</g>
<g>
	<g>
		<path class="st2" d="M49,48.8l1.2,1.6c1.6,2.1,3.8,3.6,6.7,4c3,0.1,5.2-0.3,5.3-0.5c0-0.3-4.8-0.7-5-0.7c-2.4-0.4-4.4-1.7-5.9-3.5
			l-1.2-1.6c-1.6-2.1-2.2-4.7-1.6-7.3l3.3-15.5c0.4-1.4,1.8-1.2,2.6-0.2c0.9,1.2,1,2.4,0.7,3.8L53.9,33c-0.5,1.5,1.3,3.1,2.8,2.1
			l2.7-1.7c0.1,0,1.4-0.5,10-11.6c0.9-1,2.6-1,3.3,0c0.5,0.7,0.6,1.7-0.2,2.5l-9.6,11.4c-0.7,0.7-0.1,1.5,0.8,0.9l13.2-8.8
			c1.5-1.1,3.6,0.2,3.3,1.8c-0.1,0.6-0.4,1-0.9,1.3l-12.7,8.9c-0.6,0.5-0.9,1.4,0.6,1l13-4.8c0.6-0.2,1.3-0.2,1.6,0.1
			c1.4,0.7,1.5,2.6,0.3,3.5c-0.2,0.2,0.8-0.2-13.7,5c-0.7,0.3-1.7,1.3,0.2,1.2l9.6-1c1.7-0.1,2.8,2.1,1.1,3.1
			c-0.2,0.2-0.5,0.3-0.9,0.3l-6.6,0.6c-2.6,0.4-5.5,1.2-7.7,2.9c-0.7,0.5-1.5,0.9-2.4,1.2c-2.3,0.5-4.2,0.3-4.6,0.3
			c-1.8-0.2,4.5,1,4.9,0.8c1.1-0.3,1.9-0.8,2.7-1.3c2.1-1.4,4.6-2.3,7-2.6l6.6-0.6c1.6-0.2,2.9-1.6,2.7-3.2
			c-0.2-1.6-1.6-2.7-3.3-2.5l-5,0.6l9-3.3c1.7-0.7,2.6-2.5,1.9-4.1s-2.6-2.4-4.2-1.8l-8.6,3.2l9-6.2c1.4-1.1,1.8-3.1,0.8-4.4
			c-1-1.4-3.2-1.7-4.6-0.7l-9.6,6.6l6.8-8.2c1-1.1,1.1-2.7,0.2-3.8c-1.3-1.6-3.8-1.7-5.3-0.1l-8.8,10.5c-0.3,0.3-1.2,0.9-1.6,1.2
			c-0.2,0.2-0.5,0.3-0.7,0.4l-1.1,0.4c-0.3,0.1-1.2-0.4-0.9-1.3c1.1-3.5,1.1-3.5,1.1-3.5c0.3-1.8,0-3.6-1-5.1
			c-1.3-1.8-4.4-1.3-4.9,1.1c-3.3,16.1-3.1,15.5-3.1,15.5C46.6,43.5,47.4,46.5,49,48.8L49,48.8z"/>
	</g>
</g>
<line class="st3" x1="30.6" y1="20" x2="21" y2="49.4"/>
<line class="st3" x1="22.6" y1="24.6" x2="34.2" y2="28.5"/>
<line class="st3" x1="24.3" y1="19.2" x2="36" y2="23"/>
<line class="st3" x1="15.5" y1="46.3" x2="27.1" y2="50.2"/>
<line class="st3" x1="17.3" y1="40.9" x2="29" y2="44.7"/>
<line class="st3" x1="19" y1="35.4" x2="30.8" y2="39.2"/>
<line class="st3" x1="20.8" y1="30.1" x2="32.5" y2="34"/>
<path class="st4" d="M46.9,41.9C41.1,59.8,26.8,71.1,15,67.2S-1.5,45.8,4.4,27.9S24.5-1.2,36.3,2.6S52.8,24.1,46.9,41.9"/>
<path class="st5" d="M25.1,67"/>
</svg>
