<?xml version="1.0" encoding="utf-8"?>
<!-- Generator: Adobe Illustrator 25.4.1, SVG Export Plug-In . SVG Version: 6.00 Build 0)  -->
<svg version="1.1" id="Capa_1" xmlns="http://www.w3.org/2000/svg" xmlns:xlink="http://www.w3.org/1999/xlink" x="0px" y="0px"
	 viewBox="0 0 35 45.5" style="enable-background:new 0 0 35 45.5;" xml:space="preserve">
<style type="text/css">
	.st0{fill:none;stroke:#FF3737;stroke-linecap:round;stroke-miterlimit:10;}
	.st1{fill:none;stroke:#00E9C5;stroke-linecap:round;stroke-miterlimit:10;}
	.st2{fill:none;stroke:#FF3737;stroke-miterlimit:10;}
	.st3{fill:none;stroke:#00E9C5;stroke-miterlimit:10;}
	.st4{fill:none;stroke:#FF3737;stroke-width:0.5;stroke-miterlimit:10;}
	.st5{enable-background:new    ;}
	.st6{fill:#00E9C5;}
</style>
<g id="Iconos">
	<path class="st0" d="M33.6,20.4"/>
	<path class="st1" d="M28.1,19.6c-0.5,2.5-1.6,4.9-3.4,6.8"/>
	<path class="st0" d="M19.7,38.7l1.9-1.5c0.1-0.1,0.6-7.1,0.6-7.8"/>
	<path class="st0" d="M12.6,39.6l-2,2.1c-0.7,0.6-0.9,1.5-0.6,2.4c0.3,0.8,1.5,1,2.5,0.4l1-0.9"/>
	<path class="st0" d="M17.7,16.5l-3.5,1c-0.8,0.2-1.4,0.9-1.6,1.6c-0.3,1.1-0.5,2.5-0.6,2.7L9.2,33.5c0,0.1-0.1,0.2-0.1,0.2
		l-8.4,8.2l0,0.1c-0.2,0.4-0.6,2.1,1.4,2.9c0.8,0.2,1.7-0.1,2.3-0.8l8-7.8c0,0,0.1-0.1,0.1-0.2l0.2-0.4"/>
	<path class="st2" d="M31.1,14.8c-0.9-0.4-1.9-0.6-2.8-0.8"/>
	<g id="Placado">
		<path class="st1" d="M21.1,25.9c0.5-0.9,0.9-1.1,0.9-2.1"/>
		<path class="st1" d="M13.4,27.9l-0.5,0.9c-0.2,0.3-0.1,1.3-0.1,1.6l0.1,11.9c0,0.9,0.7,1.9,1.7,1.7h0.1c0.8,0,0.8-0.4,0.9-0.9
			L17.1,30c0-0.2,0.1-0.4,0.3-0.5l0.9-0.8"/>
		<path class="st1" d="M28.5,16.1C27.8,8,23.7,5.9,23.7,5.9c-6.4-4-10.3,0.9-10.3,0.9l-4.5,6.5c-0.3,0.5-0.8,0.6-1.3,0.3L6.5,13
			C5.7,13,5,13.7,5,14.5c0,0.2,0,0.3,0.1,0.5l3.6,1.8c0.6,0.3,1.3,0.2,1.7-0.4l4.2-5.3c0.2-0.2,0.6-0.3,0.8-0.1
			c0.1,0.1,0.1,0.1,0.2,0.2l2.9,6.5c0.3,0.5,0.3,0.9,0,1.4l-3.3,5.7"/>
		<path class="st1" d="M17.4,29.7l-0.9,12.7c0,0.7,0.6,1.3,1.2,1.3l0,0h0.6c0.8-0.1,0.7-0.5,0.8-1L21,29.2"/>
		<path class="st3" d="M14.8,5.7c-1.2-1-1.4-2.9-0.4-4.2c1-1.2,2.9-1.4,4.2-0.4c1,0.8,1.3,2.2,0.9,3.5"/>
	</g>
	<path class="st0" d="M32.5,21.4c-0.5,0.6-1.8,2.8-5.7,7.7c-0.3,0.3-0.7,0.5-1.1,0.5l-8.9-1.2c-1.4-0.1-1.2-0.7-1.1-1.4l0.1-0.7
		c0.1-0.5-0.2-0.6,0.5-0.7l8.3,0.9c0.8,0.1,1.5-0.4,2-1l1.3-2.3c0.1-0.2,0.3-0.4,0.6-0.5L32.5,21.4"/>
	<path class="st0" d="M15.7,17.6"/>
	<path class="st0" d="M15.5,28.1l0.2-2.4c0-0.4-0.2-0.5-1.1-0.6c-0.5-0.1,1-4.9,1.6-8"/>
	<path class="st0" d="M12.6,19.2l-1.7,7.2c0,0.2,2.5,1.5,4.5,1.7"/>
	<circle class="st0" cx="31.2" cy="18.1" r="3.3"/>
	<g id="Balón">
		<path class="st2" d="M6.1,12.9c-1.2-2.6-0.6-5.4,1.1-6.2c1.5-0.7,3.4,0.1,4.7,1.9"/>
		<path class="st2" d="M13.3,12c0.4,2.1-0.1,4-1.5,4.5c-0.7,0.3-1.5,0.3-2.2,0"/>
		<line class="st4" x1="8.2" y1="9" x2="9.7" y2="12.2"/>
		<line class="st4" x1="7.8" y1="10.3" x2="9.5" y2="9.5"/>
		<line class="st4" x1="7.4" y1="9.6" x2="9.1" y2="8.7"/>
		<line class="st4" x1="8.5" y1="11.9" x2="10.3" y2="11.1"/>
		<line class="st4" x1="8.2" y1="11.2" x2="9.9" y2="10.4"/>
	</g>
</g>
<g class="st5">
	<path class="st6" d="M24.4,13.7c-0.3,0.6-0.7,1-1.2,1.2c0.2,0.2,0.9-0.1,1.2-0.2c0.5-0.1,0.6,0.3,0.7,0.7c0,0.1,0.1,0.3,0,0.4
		c-0.1,0.3-0.6,0.4-0.8,0.4c-1.1,0.3-2.2,0.2-2.7-0.9c-0.6,0-1.2-0.1-1.7-0.5c-0.8-0.6-1.1-1.5-1.4-2.5c-0.5-2-0.2-3.8,2.1-4.4
		c2.3-0.6,3.4,0.8,3.9,2.8C24.7,11.8,24.9,12.8,24.4,13.7z M22.2,9.7c-0.3-0.4-0.8-0.4-1.3-0.3c-0.5,0.1-0.9,0.4-1,0.9
		c-0.1,0.4,0.1,1.3,0.2,1.7c0.1,0.4,0.3,1.2,0.6,1.6c0.3,0.4,0.8,0.4,1.3,0.3s0.9-0.3,1-0.9c0.1-0.4-0.1-1.3-0.2-1.7
		C22.7,10.8,22.5,10,22.2,9.7z"/>
</g>
<path class="st3" d="M8.6,13.4"/>
<path class="st3" d="M23.5,6.1"/>
<path class="st1" d="M28.5,16c-0.7-8.1-4.8-10.2-4.8-10.2c-6.4-4-10.3,0.9-10.3,0.9l-4.5,6.5c-0.3,0.5-0.8,0.6-1.3,0.3l-1.1-0.6
	c-0.8,0-1.4,1.1-1.4,2c0,0.2-0.1-0.2,0,0l3.6,1.8C9.3,17,10,17,10.4,16.4l4.2-5.4c0.2-0.2,0.6-0.3,0.8-0.1c0.1,0.1,0.1,0.1,0.2,0.2"
	/>
<path class="st0" d="M27.9,18.2c-0.2-1.8,1.3-3.2,3.2-3.4"/>
</svg>
