<?xml version="1.0" encoding="utf-8"?>
<!-- Generator: Adobe Illustrator 25.4.1, SVG Export Plug-In . SVG Version: 6.00 Build 0)  -->
<svg version="1.1" id="Capa_1" xmlns="http://www.w3.org/2000/svg" xmlns:xlink="http://www.w3.org/1999/xlink" x="0px" y="0px"
	 viewBox="0 0 48.8 43.4" style="enable-background:new 0 0 48.8 43.4;" xml:space="preserve">
<style type="text/css">
	.st0{enable-background:new    ;}
	.st1{fill:#00E9C5;}
	.st2{fill:none;stroke:#00E9C5;stroke-linecap:round;stroke-linejoin:round;stroke-miterlimit:10;}
	.st3{fill:none;stroke:#00E9C5;stroke-width:0.7;stroke-miterlimit:10;}
	.st4{fill:none;stroke:#00E9C5;stroke-width:0.7;stroke-miterlimit:10.0002;}
	.st5{fill:none;stroke:#00E9C5;stroke-width:0.3;stroke-miterlimit:10;}
</style>
<g id="Iconos">
	<g class="st0">
		<path class="st1" d="M7.1,9c-0.7,0-1.4-0.1-2-0.5C4.1,7.9,4,6.8,4,5.6C4,4.5,4,3,4.3,1.9C4.8,0.3,6.1,0,7.6,0C8,0,8.5,0,9,0.1
			c0.5,0,0.8,0.2,0.8,0.7v0.4c0,0.4-0.2,0.6-0.6,0.6C9,1.8,8.8,1.7,8.5,1.7c-0.5,0-0.9-0.1-1.4-0.1c-0.4,0-0.7,0.1-0.8,0.4
			C6.2,2.4,6.1,3,6.1,3.4c0.5-0.1,1-0.2,1.5-0.2c2,0,2.8,1,2.8,2.9C10.3,8.2,9.1,9,7.1,9z M7.5,4.9C7,4.9,6.5,5,6,5.1
			C6,5.4,6,5.7,6,6c0,1,0.2,1.4,1.3,1.4c1,0,1.1-0.4,1.1-1.3C8.3,5.3,8.2,4.9,7.5,4.9z"/>
		<path class="st1" d="M17.2,5.9c-0.8,0.4-2.1,0.3-3,0.3v2c0,0.8-0.7,0.7-1.3,0.7c-0.5,0-0.8-0.2-0.8-0.7V0.8c0-0.5,0.3-0.7,0.8-0.7
			h2.4c0.9,0,1.7,0,2.3,0.6c0.6,0.6,0.7,1.6,0.7,2.5C18.4,4.3,18.3,5.4,17.2,5.9z M14.2,1.9v2.5h1.4c0.2,0,0.5,0,0.6-0.2
			s0.1-0.7,0.1-0.9c0-0.3,0-1.2-0.3-1.3c-0.2-0.1-0.6-0.1-0.8-0.1C15,1.9,14.6,1.9,14.2,1.9z"/>
	</g>
</g>
<line class="st2" x1="0.5" y1="35.1" x2="48.3" y2="35.1"/>
<g class="st0">
	<path class="st1" d="M5.4,39.3c-0.3,0-0.7,0-1,0l0,3.6c0,0.5-0.4,0.4-0.7,0.4c-0.3,0-0.5-0.1-0.5-0.4l0-3.6c-0.3,0-0.7,0-1,0
		c-0.4,0-0.4-0.3-0.4-0.6c0-0.3,0.1-0.4,0.4-0.4l3.2,0c0.4,0,0.4,0.2,0.4,0.6C5.8,39.1,5.7,39.3,5.4,39.3z"/>
	<path class="st1" d="M8.6,43.4c-1.7,0-2.2-1.1-2.2-2.6c0-1.5,0.5-2.7,2.2-2.7s2.2,1.1,2.3,2.6C10.9,42.3,10.3,43.4,8.6,43.4z
		 M9.5,39.5c-0.2-0.3-0.5-0.4-0.9-0.4s-0.7,0.1-0.9,0.4c-0.1,0.3-0.2,0.9-0.2,1.2c0,0.3,0,0.9,0.2,1.2c0.2,0.3,0.5,0.4,0.9,0.4
		s0.7-0.1,0.9-0.4c0.1-0.3,0.2-0.9,0.2-1.2C9.6,40.4,9.6,39.8,9.5,39.5z"/>
	<path class="st1" d="M15.9,41.9c-0.2,1.2-0.9,1.4-2,1.4c-2.2,0-2.1-1.3-2.1-3.1l0-1.7c0-0.5,0.4-0.4,0.8-0.4c0.3,0,0.4,0.1,0.4,0.4
		l0,2.1c0,0.4,0,0.9,0.2,1.3c0.2,0.3,0.5,0.3,0.8,0.3c0.3,0,0.7,0,0.8-0.3c0.2-0.3,0.1-0.9,0.1-1.3l0-2.1c0-0.5,0.5-0.4,0.8-0.4
		c0.3,0,0.4,0.1,0.4,0.4l0,1.7C16,40.8,16,41.4,15.9,41.9z"/>
	<path class="st1" d="M20.1,43.3c-0.3,0-0.6,0-0.9,0c-1.8,0-2.3-0.8-2.3-2.5c0-0.9,0.1-2.1,1-2.4c0.4-0.2,0.8-0.2,1.2-0.2
		c0.3,0,0.6,0,0.9,0c0.2,0,0.5,0.1,0.5,0.3l0,0.2c0,0.3,0,0.4-0.4,0.4c-0.3,0-0.5,0-0.8,0c-0.2,0-0.6,0-0.8,0.1
		c-0.5,0.2-0.4,1.1-0.4,1.5c0,0.5-0.1,1.4,0.6,1.5c0.2,0,0.4,0,0.6,0c0.3,0,0.5,0,0.8,0c0.5,0,0.4,0.3,0.4,0.7
		C20.5,43.2,20.3,43.2,20.1,43.3z"/>
	<path class="st1" d="M24.6,43.2c-0.3,0-0.5-0.1-0.5-0.4l0-1.8c-0.5,0-1.1,0-1.7,0l0,1.8c0,0.5-0.4,0.4-0.7,0.4
		c-0.3,0-0.5-0.1-0.5-0.4l0-4.2c0-0.5,0.4-0.4,0.8-0.4c0.3,0,0.4,0.1,0.4,0.4l0,1.5c0.5,0,1.1,0,1.7,0l0-1.5c0-0.5,0.4-0.4,0.8-0.4
		c0.3,0,0.4,0.1,0.4,0.4l0,4.2C25.4,43.2,25,43.2,24.6,43.2z"/>
	<path class="st1" d="M28.2,43.2l-1.3,0c-0.3,0-0.5-0.1-0.5-0.4l0-4.2c0-0.3,0.2-0.4,0.4-0.4l1.3,0c0.4,0,0.9,0,1.2,0.2
		c1,0.4,1,1.5,1,2.4C30.5,42.4,30,43.2,28.2,43.2z M29.3,40.5L29.3,40.5c0-0.5,0-1.1-0.4-1.2c-0.2-0.1-0.6-0.1-0.8-0.1
		c-0.2,0-0.3,0-0.4,0l0,3c0.1,0,0.3,0,0.4,0c1.1,0,1.2-0.4,1.2-1.4L29.3,40.5z"/>
	<path class="st1" d="M33.5,43.3c-1.7,0-2.2-1.1-2.2-2.6c0-1.5,0.5-2.7,2.2-2.7c1.7,0,2.2,1.1,2.2,2.6
		C35.8,42.1,35.2,43.3,33.5,43.3z M34.4,39.4c-0.2-0.3-0.5-0.4-0.9-0.4c-0.3,0-0.7,0.1-0.9,0.4c-0.1,0.3-0.2,0.9-0.2,1.2
		s0,0.9,0.2,1.2c0.2,0.3,0.5,0.4,0.9,0.4c0.3,0,0.7-0.1,0.9-0.4c0.1-0.3,0.2-0.9,0.2-1.2C34.5,40.3,34.5,39.7,34.4,39.4z"/>
	<path class="st1" d="M42.4,38.5l-1,4.2c-0.1,0.3-0.2,0.3-0.5,0.3l-0.5,0c-0.2,0-0.4-0.1-0.4-0.3c-0.2-0.7-0.4-1.3-0.6-2
		c-0.2,0.7-0.4,1.4-0.6,2c-0.1,0.2-0.2,0.3-0.5,0.3l-0.5,0c-0.3,0-0.4-0.1-0.4-0.3l-1-4.2c0,0,0-0.1,0-0.1c0-0.3,0.2-0.3,0.5-0.3
		l0.4,0c0.3,0,0.4,0.1,0.4,0.4l0.6,3c0.1-0.4,0.3-0.9,0.4-1.4c0.1-0.3,0.1-0.5,0.2-0.8C39,39,39.3,39,39.6,39c0.2,0,0.4,0.1,0.4,0.3
		c0.1,0.2,0.2,0.5,0.2,0.8c0.1,0.4,0.3,0.9,0.4,1.3l0.6-3c0.1-0.5,0.4-0.4,0.8-0.4c0.2,0,0.5,0.1,0.5,0.3
		C42.5,38.4,42.4,38.5,42.4,38.5z"/>
	<path class="st1" d="M46.9,43.1c-0.2,0-0.3,0-0.5-0.2c-0.2-0.3-0.5-0.6-0.7-0.9c-0.4-0.6-0.9-1.2-1.3-1.8l0,2.5
		c0,0.5-0.4,0.4-0.7,0.4c-0.3,0-0.5-0.1-0.5-0.4l0-4.2c0-0.4,0.3-0.4,0.6-0.4c0.2,0,0.3,0,0.5,0.2c0.2,0.3,0.5,0.6,0.7,0.9
		c0.4,0.6,0.9,1.2,1.3,1.8l0-2.5c0-0.5,0.4-0.4,0.7-0.4c0.3,0,0.4,0.1,0.4,0.4l0,4.2C47.5,43.1,47.2,43.1,46.9,43.1z"/>
</g>
<circle class="st2" cx="22.4" cy="8.8" r="2.5"/>
<path class="st2" d="M19.6,16.9l2.2,1c0.8,0.4,1.2,1.3,0.8,2.1l0,0c-0.3,0.8-1.2,1.1-2,0.8l-3.4-1.3c-1.1-0.5-1.6-1.7-1-2.9l1.3-2.7
	c0.4-0.7,1.2-1.2,2-1.2l6.3,0.2c0.9,0,1.7,0.5,2.1,1.2l1.2,2.3l3.3,0.4c0.9,0.1,1.5,0.9,1.4,1.7l0,0c0,1-0.9,1.6-1.8,1.5l-3.3-0.4
	c-1-0.2-1.8-0.7-2.4-1.6l-1.1-1.8L25,23.1l3.6,5l3.8,4c0.7,0.7,0.6,1.8-0.1,2.5l0,0c-0.7,0.6-1.8,0.6-2.5-0.1l-4.1-4.4L22,25.3
	l-2.6,2.4l-2.1,5.9c-0.3,1-1.3,1.5-1.7,1.3l0,0c-1-0.2-1.7-1.3-1.3-2.4l1.7-5.2c0.2-0.6,0.6-1.3,1-1.7l2.7-3l0.2-2.1"/>
<g id="Capa_4">
	<polygon class="st3" points="40.8,5.7 44.9,3.6 42.8,1.2 40,4.9 38.8,3.4 37.3,8 41.9,7.1 	"/>
</g>
<g id="Iconos_00000110460281211802302980000015577077934018005405_">
	<ellipse transform="matrix(0.7532 -0.6578 0.6578 0.7532 0.7823 24.9367)" class="st4" cx="33.6" cy="11.4" rx="3.3" ry="2.1"/>
</g>
<path class="st5" d="M35.6,8.4"/>
<path class="st5" d="M35.2,16.3"/>
<line class="st5" x1="34.7" y1="10.4" x2="32.6" y2="12.2"/>
<line class="st5" x1="33.4" y1="12.3" x2="32.6" y2="11.4"/>
<line class="st5" x1="32.9" y1="12.7" x2="32.1" y2="11.8"/>
<line class="st5" x1="35" y1="10.9" x2="34.3" y2="9.9"/>
<line class="st5" x1="34.6" y1="11.3" x2="33.8" y2="10.3"/>
<line class="st5" x1="34.2" y1="11.6" x2="33.4" y2="10.7"/>
<line class="st5" x1="33.8" y1="11.9" x2="33" y2="11.1"/>
</svg>
