<?xml version="1.0" encoding="utf-8"?>
<!-- Generator: Adobe Illustrator 25.4.1, SVG Export Plug-In . SVG Version: 6.00 Build 0)  -->
<svg version="1.1" id="Capa_1" xmlns="http://www.w3.org/2000/svg" xmlns:xlink="http://www.w3.org/1999/xlink" x="0px" y="0px"
	 viewBox="0 0 43.8 34.3" style="enable-background:new 0 0 43.8 34.3;" xml:space="preserve">
<style type="text/css">
	.st0{fill:none;stroke:#FF3737;stroke-linecap:round;stroke-linejoin:round;stroke-miterlimit:10;}
	.st1{enable-background:new    ;}
	.st2{fill:#FF3737;}
	.st3{fill:none;stroke:#FF3737;stroke-width:0.5;stroke-miterlimit:10.0007;}
	.st4{fill:none;stroke:#00E9C5;stroke-width:0.4;stroke-miterlimit:10;}
	.st5{fill:none;stroke:#FF3737;stroke-width:0.4;stroke-miterlimit:10;}
</style>
<circle class="st0" cx="13.2" cy="5.8" r="2.4"/>
<g class="st1">
	<path class="st2" d="M32.1,8.2h-4.3c-0.7,0-0.6-0.5-0.6-1S27.6,6.4,28,6l1.1-1.2c0.2-0.2,0.5-0.5,0.8-0.8c0.4-0.5,0.9-1.1,0.9-1.7
		s-0.1-0.7-0.7-0.7c-0.4,0-0.8,0-1.2,0.1c-0.2,0-0.5,0.1-0.7,0.1c-0.6,0-0.5-0.5-0.6-0.9V0.8c0-0.4,0.3-0.5,0.6-0.6
		C28.8,0.1,29.4,0,30.1,0c1.4,0,2.6,0.5,2.6,2.1c0,2-1.8,3.3-3.1,4.5c0.8,0,1.7-0.1,2.5-0.1c0.7,0,0.7,0.5,0.7,1
		C32.7,8,32.5,8.2,32.1,8.2z"/>
	<path class="st2" d="M39.6,5.4c-0.8,0.4-2,0.3-2.8,0.3v1.8c0,0.8-0.6,0.6-1.2,0.6c-0.4,0.1-0.7-0.1-0.7-0.6V0.8
		c0-0.5,0.3-0.6,0.7-0.6h2.3c0.8,0,1.5,0,2.2,0.6c0.6,0.6,0.7,1.5,0.7,2.3C40.7,4,40.5,5,39.6,5.4z M36.8,1.8v2.3h1.3
		c0.2,0,0.5,0,0.6-0.2s0.1-0.6,0.1-0.9s0-1.1-0.3-1.2c-0.1-0.1-0.6-0.1-0.7-0.1C37.5,1.8,37.1,1.8,36.8,1.8z"/>
</g>
<polyline class="st0" points="42.5,2.7 42.5,20.2 23.4,20.2 23.4,2.7 "/>
<line class="st0" x1="33" y1="20.2" x2="33" y2="30.5"/>
<line class="st0" x1="0.5" y1="33.8" x2="43.3" y2="33.8"/>
<path class="st0" d="M15.9,17.9l0.1,1.4l2.7,3c0.5,0.5,0.9,1.1,1,1.7l1.6,5.2c0.4,1-0.2,2.1-1.4,2.4l0,0c-1,0.2-2-0.4-2.2-1.2
	l-1.6-5.9l-2.2-2.4l-3.7,4.7l-4.1,4.4c-0.6,0.6-1.7,0.7-2.4,0.1l0,0C3,30.7,3,29.6,3.6,28.8l3.7-4l3.5-5l-0.2-6.6l-1.1,1.9
	C9,16,8.1,16.5,7.1,16.6L3.9,17c-1,0.1-1.7-0.6-1.9-1.5l0,0c0-0.9,0.6-1.6,1.5-1.7l3.4-0.4l1.2-2.2c0.4-0.7,1.1-1.2,2-1.2l6.2-0.2
	c0.9,0,1.6,0.5,2,1.2l1.4,2.6c0.5,1.1,0.1,2.4-1.1,2.9l-3.4,1.4c-0.7,0.2-1.6,0-2-0.7l0,0c-0.4-0.7,0-1.7,0.9-2.1l2.2-0.9"/>
<g id="Iconos">
	<ellipse transform="matrix(0.7013 -0.7129 0.7129 0.7013 -4.3778 4.7866)" class="st3" cx="3.5" cy="7.6" rx="2.3" ry="3.6"/>
</g>
<path class="st4" d="M4.4,10"/>
<path class="st5" d="M0.4,6"/>
<line class="st5" x1="2.4" y1="6.6" x2="4.6" y2="8.7"/>
<line class="st5" x1="2.3" y1="7.5" x2="3.2" y2="6.5"/>
<line class="st5" x1="1.9" y1="7" x2="2.8" y2="6.1"/>
<line class="st5" x1="4.1" y1="9.2" x2="5" y2="8.2"/>
<line class="st5" x1="3.7" y1="8.7" x2="4.6" y2="7.8"/>
<line class="st5" x1="3.2" y1="8.3" x2="4.1" y2="7.3"/>
<line class="st5" x1="2.8" y1="7.9" x2="3.7" y2="6.9"/>
<g class="st1">
	<path class="st2" d="M29,15.7c-0.6,0.3-1.5,0.2-2.1,0.2v1.4c0,0.6-0.5,0.5-0.9,0.5c-0.3,0-0.5-0.1-0.5-0.5v-5.1
		c0-0.4,0.2-0.5,0.5-0.5h1.7c0.6,0,1.1,0,1.6,0.4c0.4,0.4,0.5,1.1,0.5,1.7C29.8,14.7,29.7,15.4,29,15.7z M26.9,13v1.7h1
		c0.1,0,0.4,0,0.5-0.1s0.1-0.5,0.1-0.6c0-0.2,0-0.8-0.2-0.9C28.1,13,27.8,13,27.7,13C27.4,13,27.2,13,26.9,13z"/>
	<path class="st2" d="M35.5,17.8H35c-0.3,0-0.4-0.1-0.5-0.4l-0.3-0.7c-0.7,0-1.4,0-2.2,0l-0.2,0.7c-0.1,0.3-0.2,0.4-0.6,0.4h-0.3
		c-0.3,0-0.5,0-0.5-0.3c0-0.1,0.1-0.2,0.1-0.3l1.9-5c0.2-0.5,0.5-0.5,1-0.5c0.4,0,0.5,0.1,0.6,0.5l2,5.1c0,0.1,0,0.1,0,0.2
		C36,17.7,35.8,17.8,35.5,17.8z M33.1,13.6l-0.7,2h1.4L33.1,13.6z"/>
	<path class="st2" d="M40.7,13c-0.4,0-0.8,0-1.2,0v4.3c0,0.6-0.5,0.5-0.9,0.5s-0.5-0.1-0.5-0.5V13c-0.4,0-0.8,0-1.2,0
		c-0.5,0-0.5-0.4-0.5-0.7s0.2-0.5,0.5-0.5h3.9c0.5,0,0.5,0.3,0.5,0.7C41.2,12.8,41,13,40.7,13z"/>
</g>
<g>
	<path class="st2" d="M41.6,31h-0.8c-0.4,0-0.7-0.1-0.9-0.4L37.7,28h-0.2v2.4c0,0.8-0.7,0.7-1.3,0.7c-0.5,0-0.8-0.2-0.8-0.7V23
		c0-0.5,0.3-0.7,0.8-0.7h2.4c0.9,0,1.7,0,2.3,0.6c0.6,0.6,0.7,1.6,0.7,2.5c0,1.1-0.4,2.1-1.6,2.4l1.8,2.1c0.1,0.1,0.2,0.4,0.2,0.5
		C42.1,30.9,41.9,31,41.6,31z M39.4,24.2c-0.2-0.1-0.6-0.1-0.8-0.1h-0.4c-0.2,0-0.5,0-0.7,0v2.2h1.3c0.8,0,0.9-0.2,0.9-0.9
		C39.7,25.1,39.7,24.3,39.4,24.2z"/>
</g>
</svg>
