<?xml version="1.0" encoding="utf-8"?>
<!-- Generator: Adobe Illustrator 25.4.1, SVG Export Plug-In . SVG Version: 6.00 Build 0)  -->
<svg version="1.1" id="Capa_1" xmlns="http://www.w3.org/2000/svg" xmlns:xlink="http://www.w3.org/1999/xlink" x="0px" y="0px"
	 viewBox="0 0 42.7 45" style="enable-background:new 0 0 42.7 45;" xml:space="preserve">
<style type="text/css">
	.st0{enable-background:new    ;}
	.st1{fill:#FF3737;}
	.st2{fill:none;stroke:#050B3D;stroke-width:1.5;stroke-linecap:round;stroke-linejoin:round;stroke-miterlimit:10;}
	.st3{fill:none;stroke:#FF3737;stroke-width:1;stroke-miterlimit:9.9988;}
	.st4{fill:none;stroke:#FF3737;stroke-linecap:round;stroke-linejoin:round;stroke-miterlimit:10;}
	.st5{fill:none;}
	.st6{fill:none;stroke:#FF3737;stroke-miterlimit:10;}
</style>
<g>
	<g class="st0">
		<path class="st1" d="M3.2,9.6c-0.7,0-1.5-0.1-2.1-0.5C0.1,8.4,0,7.2,0,6.1c0-1.2,0-2.8,0.4-4c0.5-1.7,1.8-2,3.4-2
			c0.5,0,1,0,1.5,0.1c0.5,0,0.8,0.2,0.8,0.8v0.4C6.1,1.8,5.9,2,5.5,2C5.3,2,5,1.9,4.8,1.9c-0.5,0-0.9-0.1-1.4-0.1
			C3,1.9,2.7,1.9,2.5,2.3c-0.2,0.3-0.3,1-0.3,1.4c0.5-0.1,1-0.2,1.5-0.2c2.1,0,2.9,1,2.9,3C6.6,8.7,5.4,9.6,3.2,9.6z M3.7,5.3
			c-0.5,0-1.1,0.1-1.6,0.2c0,0.3,0,0.6,0,0.9c0,1.1,0.2,1.4,1.3,1.4c1,0,1.2-0.4,1.2-1.4C4.6,5.7,4.5,5.3,3.7,5.3z"/>
		<path class="st1" d="M14,6.3c-0.9,0.4-2.2,0.3-3.2,0.3v2.1c0,0.9-0.7,0.7-1.3,0.7C9,9.4,8.7,9.3,8.7,8.7V1c0-0.5,0.3-0.7,0.8-0.7
			H12c1,0,1.7,0,2.5,0.7c0.6,0.6,0.8,1.7,0.8,2.6C15.3,4.6,15.1,5.8,14,6.3z M10.8,2.1v2.6h1.5c0.2,0,0.5,0,0.7-0.2
			c0.1-0.2,0.1-0.7,0.1-1c0-0.3,0-1.3-0.3-1.4c-0.2-0.1-0.6-0.1-0.8-0.1C11.6,2.1,11.2,2.1,10.8,2.1z"/>
	</g>
</g>
<path class="st2" d="M30.1,41.6"/>
<g id="Balón">
	<path class="st3" d="M22.2,23.4c0.7,3.1,0.4,7-1.2,10.8c-3,7.2-9.2,11.5-14,9.5s-6.2-9.4-3.2-16.6c0.5-1.1,1-2.1,1.6-3.1"/>
</g>
<path class="st4" d="M8.8,20.4l-0.4,2.8c-0.1,0.9,0.4,1.8,1.3,2l0,0c1,0.3,2-0.4,2.2-1.4l0.4-1.6c0.2-0.8,0.7-1.4,1.4-1.9l3.2-1.9
	c0.8-0.5,1.8-0.3,2.5,0.3l0,0c0.8,0.8,0.8,2.1,0.1,2.9l-1.6,1.7c-0.7,0.8-0.5,1.9,0.4,2.5l0,0c0.7,0.4,1.5,0.3,2-0.3l3.3-3.5
	c0.5-0.5,0.8-1.1,1.1-1.7l2.1-7.8c0.3-1,0.8-1.9,1.5-2.6c0.8-0.9,1.8-2.3,1.1-3.5l-1.6-2.2c-1.1-1.8-3.5-2.4-5.3-1.3L22,3.2
	c-0.7,0.4-1.3,1-1.9,1.6l-6,6.8c-0.7,0.8-1.5,1.5-2.5,2L8.4,15c-0.6,0.3-1.1,0.7-1.5,1.2l-2.8,4.7c-0.6,0.7-0.6,1.7,0,2.4l0,0
	c0.9,0.9,2.2,0.9,2.9,0L8.8,20.4l0.7-1.8c0.3-0.8,0.9-1.4,1.6-1.8l1.9-1.1"/>
<line class="st5" x1="32.4" y1="0" x2="29" y2="45"/>
<path class="st1" d="M36.5,45L35,0c-1.1,0-2.3,0-3.5,0l-2.9,45H36.5z"/>
<g class="st0">
	<path class="st1" d="M40.3,3.8c0-0.3,0-0.7,0-1L36.8,3c-0.5,0-0.4-0.4-0.4-0.7c0-0.3,0.1-0.4,0.4-0.5l3.5-0.1c0-0.3,0-0.7,0-1
		c0-0.4,0.3-0.4,0.6-0.4c0.3,0,0.4,0.1,0.4,0.4l0.1,3.1c0,0.4-0.2,0.4-0.5,0.4C40.4,4.2,40.3,4.1,40.3,3.8z"/>
	<path class="st1" d="M36.4,7.1c-0.1-1.6,1-2.2,2.5-2.2c1.5-0.1,2.6,0.4,2.6,2.1c0.1,1.6-1,2.2-2.5,2.3C37.5,9.2,36.4,8.7,36.4,7.1z
		 M40.1,7.8c0.3-0.2,0.4-0.5,0.4-0.8c0-0.3-0.1-0.7-0.4-0.8C39.8,6,39.2,6,38.9,6c-0.3,0-0.9,0-1.2,0.2c-0.3,0.2-0.4,0.5-0.4,0.8
		c0,0.3,0.1,0.7,0.4,0.8C38.1,8,38.6,8,39,8C39.3,8,39.9,8,40.1,7.8z"/>
	<path class="st1" d="M38,14.1c-1.1-0.2-1.4-0.9-1.4-1.9c-0.1-2.1,1.2-2.1,2.9-2.2l1.6-0.1c0.4,0,0.4,0.4,0.4,0.7
		c0,0.2-0.1,0.4-0.4,0.4l-2.1,0.1c-0.4,0-0.9,0-1.2,0.2c-0.3,0.2-0.3,0.5-0.3,0.8c0,0.3,0,0.6,0.3,0.8c0.3,0.1,0.9,0.1,1.2,0.1
		l2.1-0.1c0.4,0,0.4,0.4,0.4,0.7c0,0.3-0.1,0.4-0.4,0.4l-1.6,0.1C39.1,14.2,38.5,14.2,38,14.1z"/>
	<path class="st1" d="M36.8,18.2c0-0.3-0.1-0.6-0.1-0.8c-0.1-1.8,0.8-2.2,2.4-2.3c0.9,0,2,0,2.4,0.9c0.2,0.4,0.2,0.8,0.2,1.2
		c0,0.3,0,0.6,0,0.8c0,0.2,0,0.5-0.3,0.5l-0.2,0c-0.3,0-0.4,0-0.4-0.3c0-0.3,0-0.5,0-0.8c0-0.2,0-0.6-0.1-0.8
		c-0.2-0.5-1.1-0.4-1.5-0.3c-0.5,0-1.3,0-1.4,0.7c0,0.2,0,0.4,0,0.5c0,0.3,0.1,0.5,0.1,0.8c0,0.4-0.3,0.4-0.6,0.4
		C36.9,18.6,36.9,18.4,36.8,18.2z"/>
	<path class="st1" d="M37,22.6c0-0.3,0.1-0.4,0.4-0.5l1.7-0.1c0-0.5-0.1-1.1-0.1-1.6l-1.7,0.1c-0.5,0-0.4-0.4-0.4-0.7
		c0-0.3,0.1-0.4,0.4-0.5l4.1-0.1c0.5,0,0.4,0.4,0.4,0.7c0,0.2-0.1,0.4-0.4,0.4l-1.4,0c0,0.5,0.1,1.1,0.1,1.6l1.4-0.1
		c0.4,0,0.4,0.4,0.4,0.7c0,0.2-0.1,0.4-0.4,0.4l-4.1,0.1C37,23.3,37.1,22.9,37,22.6z"/>
	<path class="st1" d="M37.2,26.1l0-1.3c0-0.3,0.1-0.4,0.4-0.4l4.1-0.1c0.3,0,0.4,0.2,0.4,0.4l0,1.3c0,0.4,0,0.8-0.1,1.2
		c-0.3,0.9-1.4,1.1-2.3,1.1C38,28.2,37.2,27.8,37.2,26.1z M39.8,27L39.8,27c0.5,0,1,0,1.2-0.4C41,26.4,41,26,41,25.8
		c0-0.1,0-0.3,0-0.4l-2.9,0.1c0,0.1,0,0.3,0,0.4c0,1.1,0.4,1.1,1.4,1.1L39.8,27z"/>
	<path class="st1" d="M37.2,31.2c-0.1-1.6,1-2.2,2.5-2.2c1.5-0.1,2.6,0.4,2.6,2.1c0.1,1.6-1,2.2-2.5,2.3
		C38.4,33.3,37.3,32.9,37.2,31.2z M41,31.9c0.3-0.2,0.4-0.5,0.4-0.9c0-0.3-0.1-0.7-0.4-0.8c-0.3-0.1-0.9-0.1-1.2-0.1
		c-0.3,0-0.9,0-1.2,0.2c-0.3,0.2-0.4,0.5-0.4,0.8c0,0.3,0.1,0.7,0.4,0.8c0.3,0.1,0.9,0.1,1.2,0.1C40.1,32.1,40.7,32.1,41,31.9z"/>
	<path class="st1" d="M42.1,39.7l-4.1-0.8c-0.3,0-0.3-0.2-0.3-0.4l0-0.5c0-0.2,0.1-0.4,0.3-0.4c0.6-0.2,1.3-0.5,1.9-0.7
		c-0.7-0.2-1.3-0.3-2-0.5c-0.2-0.1-0.3-0.2-0.3-0.4l0-0.5c0-0.3,0.1-0.4,0.3-0.4l4.1-1.1c0,0,0.1,0,0.1,0c0.3,0,0.3,0.2,0.3,0.4
		l0,0.4c0,0.3-0.1,0.4-0.3,0.4l-2.9,0.7c0.4,0.1,0.9,0.2,1.3,0.3c0.3,0.1,0.5,0.1,0.8,0.2c0.3,0.1,0.3,0.4,0.3,0.7
		c0,0.2-0.1,0.4-0.3,0.4c-0.2,0.1-0.5,0.2-0.7,0.3c-0.4,0.1-0.9,0.3-1.3,0.4l2.9,0.5c0.4,0.1,0.4,0.4,0.4,0.7c0,0.2,0,0.5-0.3,0.5
		C42.1,39.7,42.1,39.7,42.1,39.7z"/>
	<path class="st1" d="M37.8,44.1c0-0.2,0-0.3,0.2-0.5c0.3-0.3,0.6-0.5,0.9-0.7c0.6-0.4,1.1-0.9,1.7-1.3l-2.4,0.1
		c-0.4,0-0.4-0.3-0.4-0.7c0-0.3,0.1-0.4,0.4-0.4l4.1-0.1c0.4,0,0.4,0.3,0.4,0.6c0,0.2,0,0.3-0.2,0.4c-0.3,0.2-0.6,0.5-0.9,0.7
		c-0.6,0.4-1.1,0.9-1.7,1.3l2.5-0.1c0.4,0,0.4,0.4,0.4,0.7c0,0.2-0.1,0.4-0.4,0.4l-4.1,0.1C37.8,44.7,37.8,44.4,37.8,44.1z"/>
</g>
<line class="st6" x1="8.8" y1="39.5" x2="14.4" y2="25.8"/>
<line class="st6" x1="12.1" y1="37.9" x2="7.6" y2="36"/>
<line class="st6" x1="11.3" y1="40" x2="6.7" y2="38.1"/>
<line class="st6" x1="16.6" y1="27.1" x2="12" y2="25.2"/>
<line class="st6" x1="15.6" y1="29.4" x2="11.1" y2="27.5"/>
<line class="st6" x1="14.8" y1="31.5" x2="10.1" y2="29.6"/>
<line class="st6" x1="13.9" y1="33.7" x2="9.3" y2="31.8"/>
<line class="st6" x1="13" y1="35.7" x2="8.4" y2="33.8"/>
</svg>
