<?xml version="1.0" encoding="utf-8"?>
<!-- Generator: Adobe Illustrator 25.4.1, SVG Export Plug-In . SVG Version: 6.00 Build 0)  -->
<svg version="1.1" id="Capa_1" xmlns="http://www.w3.org/2000/svg" xmlns:xlink="http://www.w3.org/1999/xlink" x="0px" y="0px"
	 viewBox="0 0 37.3 38.9" style="enable-background:new 0 0 37.3 38.9;" xml:space="preserve">
<style type="text/css">
	.st0{fill:none;stroke:#FF3737;stroke-miterlimit:10;}
	.st1{fill:none;stroke:#FF3737;stroke-width:1;stroke-miterlimit:9.9992;}
	.st2{fill:none;stroke:#FF3737;stroke-width:0.75;stroke-miterlimit:10;}
	.st3{enable-background:new    ;}
	.st4{fill:#FF3737;}
	.st5{fill:none;stroke:#FF3737;stroke-linecap:round;stroke-miterlimit:10;}
	.st6{fill:none;stroke:#FF3737;stroke-width:1.2;stroke-linecap:round;stroke-miterlimit:10;}
</style>
<g id="Iconos">
	<path id="Soporte" class="st0" d="M2.7,38.4h7.2l-0.5-1.7c-0.1-0.3-0.3-0.4-0.6-0.4H4.2c-0.4,0-0.8,0.2-0.9,0.6L2.7,38.4z"/>
	<g id="Balón">
		
			<ellipse transform="matrix(0.9995 -3.123922e-02 3.123922e-02 0.9995 -0.8466 0.21)" class="st1" cx="6.3" cy="27.2" rx="5.8" ry="8.9"/>
		<line class="st2" x1="6.2" y1="22.4" x2="6.5" y2="31.7"/>
		<line class="st2" x1="4.7" y1="24.2" x2="7.8" y2="24.1"/>
		<line class="st2" x1="4.7" y1="22.8" x2="7.7" y2="22.7"/>
		<line class="st2" x1="4.9" y1="31.5" x2="8" y2="31.4"/>
		<line class="st2" x1="4.9" y1="30" x2="8" y2="29.9"/>
		<line class="st2" x1="4.8" y1="28.5" x2="7.9" y2="28.4"/>
		<line class="st2" x1="4.8" y1="27.1" x2="7.9" y2="27"/>
		<line class="st2" x1="4.7" y1="25.7" x2="7.8" y2="25.6"/>
	</g>
</g>
<g class="st3">
	<path class="st4" d="M19.1,34.9c-0.8,0.4-2.1,0.3-3,0.3v1.9c0,0.8-0.6,0.6-1.3,0.6c-0.5,0-0.7-0.2-0.7-0.6v-7.2
		c0-0.5,0.3-0.6,0.7-0.6h2.3c0.8,0,1.6,0,2.3,0.6c0.6,0.6,0.7,1.6,0.7,2.4C20.2,33.3,20,34.3,19.1,34.9z M16.1,30.9v2.4h1.4
		c0.2,0,0.5,0,0.6-0.2s0.1-0.6,0.1-1c0-0.3,0-1.2-0.3-1.3c-0.1-0.1-0.6-0.1-0.7-0.1C16.4,30.7,16.2,30.7,16.1,30.9z"/>
	<path class="st4" d="M28.3,37.7h-0.7c-0.4,0-0.6-0.2-0.7-0.5l-0.4-1.1c-1.1,0-1.7,0-2.8,0l-0.5,1.1c-0.2,0.4-0.3,0.6-0.7,0.6h-0.6
		c-0.3,0-0.6,0-0.6-0.4c0-0.1,0.1-0.3,0.1-0.4l2.6-7c0.3-0.7,0.6-0.6,1.4-0.6c0.5,0,0.7,0.2,0.8,0.6l2.8,7.2c0,0.1,0,0.1,0,0.2
		C28.9,37.6,28.6,37.7,28.3,37.7z M24.9,31.9l-1,2.9h1.9L24.9,31.9z"/>
	<path class="st4" d="M35.6,30.9c-0.6,0-1.2,0-1.7,0V37c0,0.8-0.6,0.6-1.3,0.6c-0.5,0-0.7-0.2-0.7-0.6v-6.1c-0.6,0-1.2,0-1.7,0
		c-0.7,0-0.6-0.5-0.6-1.1c0-0.4,0.2-0.6,0.6-0.6h5.5c0.6,0,0.6,0.4,0.6,1C36.3,30.7,36.1,30.9,35.6,30.9z"/>
</g>
<polyline class="st5" points="19.8,0.5 20,17.6 36.8,17.6 36.8,0.5 "/>
<line class="st5" x1="28.3" y1="27.4" x2="28.3" y2="17.6"/>
<path class="st6" d="M12.1,19c0,0,3.1-9.1,15.4-7.6"/>
<polygon class="st4" points="26.6,13.9 31.4,12.4 27.6,9.1 "/>
<g class="st3">
	<path class="st4" d="M2.7,8.3H2.3c-0.5,0-0.7-0.1-0.7-0.6V2.1C1.3,2.2,0.9,2.4,0.8,2.4c-0.5,0-0.6-0.5-0.6-0.8S0.4,1.1,0.7,1
		c0.6-0.3,1.3-0.6,2-0.6c0.4,0,0.6,0.3,0.6,0.6v6.8C3.3,8.1,3.1,8.3,2.7,8.3z"/>
	<path class="st4" d="M11.4,5.6C10.7,6,9.5,5.9,8.7,5.9v1.9c0,0.7-0.6,0.6-1.2,0.6C7,8.3,6.7,8.2,6.7,7.6V0.9c0-0.5,0.3-0.6,0.7-0.6
		h2.2c0.8,0,1.6,0,2.1,0.6c0.6,0.6,0.6,1.5,0.6,2.3C12.3,4.5,12.3,5.2,11.4,5.6z M8.7,1.9v2.3H10c0.2,0,0.5,0,0.6-0.2
		s0.1-0.6,0.1-0.8c0-0.3,0-1.1-0.3-1.2c-0.2-0.1-0.6-0.1-0.7-0.1C9.3,1.9,8.9,1.9,8.7,1.9z"/>
</g>
<g>
	<path class="st4" d="M30.8,8.2h-0.7c-0.4,0-0.6-0.1-0.8-0.4l-2-2.4h-0.2v2.2c0,0.7-0.6,0.6-1.2,0.6c-0.5,0-0.7-0.2-0.7-0.6V0.9
		c0-0.5,0.3-0.6,0.7-0.6h2.2c0.8,0,1.7-0.1,2.3,0.5C30.9,1.3,31,2.3,31,3.1c0,1-0.3,2-1.5,2.2l1.7,1.9c0.1,0.1,0.2,0.3,0.2,0.5
		C31.4,8.1,31.1,8.2,30.8,8.2z M28.9,1.9c-0.1-0.1-0.6-0.1-0.7-0.1h-0.3c-0.2,0-0.5,0-0.7,0v2h1.2c0.7,0,0.8-0.1,0.8-0.8
		C29.2,2.8,29.2,2.1,28.9,1.9z"/>
</g>
</svg>
