<?xml version="1.0" encoding="utf-8"?>
<!-- Generator: Adobe Illustrator 25.4.1, SVG Export Plug-In . SVG Version: 6.00 Build 0)  -->
<svg version="1.1" id="Capa_1" xmlns="http://www.w3.org/2000/svg" xmlns:xlink="http://www.w3.org/1999/xlink" x="0px" y="0px"
	 viewBox="0 0 50.2 42.5" style="enable-background:new 0 0 50.2 42.5;" xml:space="preserve">
<style type="text/css">
	.st0{fill:none;stroke:#00E9C5;stroke-width:0.5;stroke-miterlimit:10;}
	.st1{fill:#00E9C5;}
	.st2{fill:none;stroke:#00E9C5;stroke-linecap:round;stroke-miterlimit:10;}
	.st3{enable-background:new    ;}
	.st4{fill:none;stroke:#FF3737;stroke-linecap:round;stroke-miterlimit:10;}
	.st5{fill:none;stroke:#00E9C5;stroke-miterlimit:10;}
	.st6{fill:none;stroke:#FF3737;stroke-miterlimit:10;}
</style>
<line class="st0" x1="11" y1="15.3" x2="12.4" y2="14.6"/>
<g id="Iconos">
	<path class="st1" d="M3,42.5L2,0C1.6,0,1.1,0,0.5,0L0,42.5H3z"/>
	<g id="Porteria">
		<polyline class="st2" points="49.7,4.3 46.4,24 39.7,19.9 33.1,16.1 32.5,0.5 		"/>
		<line class="st2" x1="39.6" y1="28.8" x2="39.4" y2="19.7"/>
	</g>
	<g class="st3">
		<path class="st1" d="M38,40.8h-4.7c-0.8,0-0.7-0.5-0.7-1.1c0-0.5,0.5-0.9,0.8-1.2l1.2-1.2c0.3-0.3,0.6-0.6,0.9-0.9
			c0.4-0.5,1-1.2,1-1.8c0-0.7-0.2-0.8-0.8-0.8c-0.4,0-0.9,0-1.3,0.1c-0.2,0-0.5,0.1-0.7,0.1c-0.6,0-0.6-0.6-0.7-1c0-0.1,0-0.1,0-0.1
			c0-0.4,0.3-0.6,0.7-0.6c0.7-0.1,1.4-0.2,2-0.2c1.5,0,2.8,0.5,2.8,2.3c0,2.2-1.9,3.6-3.4,4.9c0.9,0,1.8-0.1,2.7-0.1
			c0.8,0,0.7,0.5,0.7,1.1C38.7,40.6,38.5,40.8,38,40.8z"/>
		<path class="st1" d="M46.2,37.8c-0.8,0.4-2.1,0.3-3,0.3v2c0,0.8-0.7,0.7-1.3,0.7c-0.5,0-0.8-0.2-0.8-0.7v-7.3
			c0-0.5,0.3-0.7,0.8-0.7h2.4c0.9,0,1.7,0,2.3,0.6s0.7,1.6,0.7,2.5C47.4,36.2,47.2,37.3,46.2,37.8z M43.2,33.9v2.5h1.4
			c0.2,0,0.5,0,0.7-0.2s0.1-0.7,0.1-0.9c0-0.3,0-1.2-0.3-1.3c-0.2-0.1-0.6-0.1-0.8-0.1C43.9,33.8,43.5,33.8,43.2,33.9z"/>
	</g>
	<g id="Iconos_00000165199858375597998440000011960035799788691373_">
		<path class="st4" d="M31.2,22.1"/>
		<path class="st4" d="M26.7,21.5c-0.4,2-1.1,3.5-2.5,5.1"/>
		<path class="st2" d="M20.4,36.5l0.7-0.9c0-0.3,0.7-5.5,0.7-6.1"/>
		<path class="st2" d="M14.2,37.6l-1.6,1.7c-0.6,0.5-0.7,1.2-0.5,1.9c0.2,0.6,1.2,0.8,2,0.3l0.8-0.7"/>
		<path class="st2" d="M18.4,19l-2.8,0.8c-0.6,0.2-1.1,0.7-1.3,1.3c-0.2,0.9-0.4,2-0.5,2.2l-2.3,9.4c0,0.1-0.1,0.2-0.1,0.2l-6.8,6.7
			l0,0c-0.1,0.4-0.5,1.7,1.1,2.3c0.6,0.2,1.4-0.1,1.9-0.6L14,35c0,0,0.1-0.1,0.1-0.2l0.2-0.3"/>
		<path class="st5" d="M28.7,17.5c-0.7-0.3-1-0.4-1.8-0.5"/>
		<g id="Placado">
			<path class="st4" d="M21.1,26.5c0.4-0.7,0.7-0.9,0.7-1.7"/>
			<path class="st4" d="M14.9,28.1l-0.4,0.7c-0.2,0.2-0.1,1-0.1,1.3l0.1,9.6c0,0.7,0.6,1.5,1.4,1.4H16c0.6,0,0.6-0.3,0.7-0.7
				l1.2-10.6c0-0.2,0.1-0.3,0.2-0.4l0.7-0.6"/>
			<path class="st4" d="M16.5,14.5L19,20c0.2,0.4,0.2,0.7,0,1.1l-2.7,4.6"/>
			<path class="st4" d="M27.1,18.2c-0.9-6.3-3.9-7.7-3.9-7.7c-5.2-3.2-8.3,0.7-8.3,0.7l-3.6,5.3c-0.2,0.4-0.6,0.5-1,0.2l-1-0.5
				c-0.6,0-1.2,0.6-1.2,1.2c0,0.2,0,0.2,0.1,0.4l2.9,1.5c0.5,0.2,1,0.2,1.4-0.3l3.2-4.1"/>
			<path class="st4" d="M18.1,29.6l-0.7,10.2c0,0.6,0.5,1,1,1l0,0h0.5c0.6-0.1,0.9-0.5,0.9-0.9L21,29.1"/>
			<path class="st6" d="M16,10.3c-1-0.8-1.1-2.3-0.3-3.4c0.8-1,2.3-1.1,3.4-0.3c0.8,0.6,1,1.8,0.7,2.8"/>
		</g>
		<path class="st2" d="M30.3,22.9c-0.4,0.5-1.5,2.3-4.6,6.2c-0.2,0.2-0.6,0.4-0.9,0.4l-7.2-1c-1.1-0.1-1-0.6-0.9-1.1l0.1-0.6
			c0.1-0.4-0.2-0.5,0.4-0.6l6.7,0.7c0.6,0.1,1.2-0.3,1.6-0.8l1-1.9c0.1-0.2,0.2-0.3,0.5-0.4L30.3,22.9"/>
		<path class="st4" d="M16.7,19.8"/>
		<path class="st2" d="M16.6,28.3l0.2-1.9c0-0.2-0.1-0.3-0.4-0.4s-0.6,0-0.5-0.3c0.2-1.2,1-4.3,1.3-6.1"/>
		<path class="st2" d="M13.2,27.1c0.9,0.6,1.6,1,3.2,1.2"/>
		<path class="st2" d="M14.2,21.1"/>
		<circle class="st2" cx="29.2" cy="20.2" r="2.7"/>
		<g id="Balón">
			<path class="st5" d="M9,16.1c-1-2.1-0.5-4.4,0.9-5c1.2-0.6,2.7,0.1,3.8,1.5"/>
			<path class="st6" d="M15.1,15.6c0.3,2-0.1,3.4-1.4,3.8c-0.6,0.2-1,0.2-1.5,0"/>
			<line class="st0" x1="10.7" y1="12.9" x2="11.9" y2="15.5"/>
			<line class="st0" x1="10.4" y1="14" x2="11.8" y2="13.3"/>
			<line class="st0" x1="10.1" y1="13.4" x2="11.4" y2="12.7"/>
			<path class="st0" d="M12.4,14.6"/>
			<line class="st0" x1="10.7" y1="14.7" x2="12.1" y2="14"/>
		</g>
	</g>
	<path class="st5" d="M11,16.5"/>
	<path class="st5" d="M23,10.6"/>
	<path class="st4" d="M22.9,10.3c-5.2-3.2-8,0.8-8,0.8l-3.6,5.2c-0.2,0.4-0.6,0.5-1,0.2l-1-0.4c-0.5-0.4-1.5,0.9-1.1,1.6
		c0.1,0.2-0.1-0.2,0,0l2.9,1.5c0.5,0.2,1,0.2,1.4-0.2l3.4-4.4c0.2-0.2,0.5-0.3,0.6-0.1"/>
	<path class="st2" d="M29.2,17.6"/>
</g>
</svg>
