<?xml version="1.0" encoding="utf-8"?>
<!-- Generator: Adobe Illustrator 25.4.1, SVG Export Plug-In . SVG Version: 6.00 Build 0)  -->
<svg version="1.1" id="Capa_1" xmlns="http://www.w3.org/2000/svg" xmlns:xlink="http://www.w3.org/1999/xlink" x="0px" y="0px"
	 viewBox="0 0 32.2 36" style="enable-background:new 0 0 32.2 36;" xml:space="preserve">
<style type="text/css">
	.st0{fill:none;stroke:#050B3D;stroke-linecap:round;stroke-linejoin:round;stroke-miterlimit:10;}
	.st1{fill:none;stroke:#050B3D;stroke-miterlimit:10;}
	.st2{fill:none;stroke:#050B3D;stroke-width:0.5;stroke-linecap:round;stroke-miterlimit:10;}
	.st3{fill:none;stroke:#050B3D;stroke-width:0.7;stroke-linecap:round;stroke-miterlimit:10;}
	.st4{fill:none;stroke:#050B3D;stroke-width:0.5;stroke-miterlimit:10;}
	.st5{fill:none;stroke:#050B3D;stroke-width:0.7;stroke-linecap:round;stroke-miterlimit:9.9996;}
	.st6{fill:#FFFFFF;stroke:#050B3D;stroke-width:0.7;stroke-linecap:round;stroke-miterlimit:10;}
</style>
<path class="st0" d="M25.6,18.3c1.3-0.1,2.7,2.2,0.7,3.4c-0.4,0.3-3.9,0.8-4.3,0.8l-8.5,1.6l0.7,0.9c0.7,0.8,0.8,2,0.6,2.9L13,34.1
	c-0.3,1-1.3,1.6-2.3,1.4l0,0c-1-0.2-1.7-1.4-1.4-2.4l1.8-5.9l-2.9-3.4c-1.1-1.4-1.6-3.1-1.3-4.8l1.6-9.2L5.3,8.7
	C4.6,8.5,4,8,3.6,7.3l-2.9-4C0.2,2.5,0.5,1.4,1.4,0.9l0,0c0.7-0.3,1.5-0.1,2,0.5l3,4.1l6.4,1.8c1.3,0.3,2.4,1.1,3.2,2.3l0.3,0.5
	L23,13c0.8,0.3,1.1,1.3,0.8,2.1l0,0c-0.3,0.8-1.3,1.3-2.1,0.9l-6.8-2.9l-1.1,7.2L25.6,18.3"/>
<ellipse class="st1" cx="14.5" cy="3.5" rx="3" ry="3"/>
<line class="st2" x1="15.9" y1="32.2" x2="19.7" y2="30.2"/>
<line class="st3" x1="15.2" y1="34.3" x2="22.5" y2="30.2"/>
<line class="st2" x1="16.7" y1="35.1" x2="21.7" y2="32.3"/>
<line class="st4" x1="29.4" y1="26.3" x2="26" y2="28.7"/>
<line class="st4" x1="28.2" y1="26.2" x2="29.1" y2="27.5"/>
<line class="st4" x1="28.8" y1="25.7" x2="29.7" y2="27.1"/>
<line class="st4" x1="25.7" y1="27.9" x2="26.6" y2="29.2"/>
<line class="st4" x1="26.3" y1="27.5" x2="27.2" y2="28.8"/>
<line class="st4" x1="26.9" y1="27" x2="27.9" y2="28.4"/>
<line class="st4" x1="27.5" y1="26.6" x2="28.5" y2="27.9"/>
<g id="Pelota">
	<ellipse transform="matrix(0.8199 -0.5725 0.5725 0.8199 -10.7601 20.823)" class="st5" cx="27.7" cy="27.5" rx="4.5" ry="3"/>
	<path class="st6" d="M31.9,26.9"/>
	<path class="st6" d="M24.5,30.4"/>
</g>
</svg>
