<?xml version="1.0" encoding="utf-8"?>
<!-- Generator: Adobe Illustrator 25.4.1, SVG Export Plug-In . SVG Version: 6.00 Build 0)  -->
<svg version="1.1" id="Capa_1" xmlns="http://www.w3.org/2000/svg" xmlns:xlink="http://www.w3.org/1999/xlink" x="0px" y="0px"
	 viewBox="0 0 41.5 29.5" style="enable-background:new 0 0 41.5 29.5;" xml:space="preserve">
<style type="text/css">
	.st0{fill:none;stroke:#FF3737;stroke-width:2;stroke-linecap:round;stroke-miterlimit:10;}
	.st1{fill:none;stroke:#00E9C5;stroke-width:2;stroke-linecap:round;stroke-miterlimit:10;}
	.st2{fill:none;stroke:#00E9C5;stroke-miterlimit:10;}
	.st3{fill:#FFFFFF;stroke:#FF3737;stroke-width:0.5;stroke-linecap:round;stroke-miterlimit:10;}
	.st4{fill:none;stroke:#FF3737;stroke-width:2;stroke-linecap:round;stroke-linejoin:round;stroke-miterlimit:10;}
	.st5{fill:#FF3737;}
	.st6{fill:none;stroke:#FF3737;stroke-width:1.2;stroke-linecap:round;stroke-miterlimit:10;}
</style>
<path class="st0" d="M25.2,26"/>
<path class="st1" d="M35.2,12.7"/>
<path id="Soporte_00000033336003552258691360000014222915226302451079_" class="st2" d="M33.7,17.5"/>
<path class="st3" d="M31.7,13.1"/>
<rect x="1" y="2.5" class="st4" width="39.5" height="26"/>
<g>
	<path class="st5" d="M10.5,4.7c-1.2,0-2.2-1-2.2-2.2s1-2.2,2.2-2.2H31c1.2,0,2.2,1,2.2,2.2s-1,2.2-2.2,2.2H10.5z"/>
	<path class="st5" d="M31,0.5c1.1,0,2,0.9,2,2s-0.9,2-2,2H10.5c-1.1,0-2-0.9-2-2s0.9-2,2-2H31 M31,0H10.5C9.2,0,8,1.1,8,2.5
		S9.2,5,10.5,5H31c1.4,0,2.5-1.1,2.5-2.5S32.3,0,31,0L31,0z"/>
</g>
<line class="st0" x1="7.3" y1="12.7" x2="16.1" y2="12.7"/>
<line class="st0" x1="36.6" y1="24.2" x2="4.7" y2="24.2"/>
<line class="st0" x1="20.7" y1="24.2" x2="20.7" y2="20.1"/>
<line class="st6" x1="6.3" y1="23.3" x2="6.3" y2="21.4"/>
<line class="st6" x1="9.2" y1="23.3" x2="9.2" y2="21.4"/>
<line class="st6" x1="29.2" y1="23.3" x2="29.2" y2="21.4"/>
<line class="st6" x1="12.1" y1="23.3" x2="12.1" y2="21.4"/>
<line class="st6" x1="14.9" y1="23.3" x2="14.9" y2="21.4"/>
<line class="st6" x1="17.8" y1="23.3" x2="17.8" y2="21.4"/>
<line class="st6" x1="23.5" y1="23.3" x2="23.5" y2="21.4"/>
<line class="st6" x1="26.3" y1="23.3" x2="26.3" y2="21.4"/>
<line class="st6" x1="32.1" y1="23.3" x2="32.1" y2="21.4"/>
<line class="st6" x1="35" y1="23.3" x2="35" y2="21.4"/>
<g>
	<path class="st5" d="M28.7,17.3c0,1-0.8,0.9-1.6,0.9c-0.6,0-1-0.2-1-0.9v-3.2l-3.2-5.6c-0.1-0.2-0.2-0.4-0.2-0.6
		c0-0.9,1.2-0.7,1.7-0.7c0.5,0,0.7,0.1,1,0.6l2.1,3.6l2.1-3.6c0.4-0.7,1-0.5,1.7-0.5c0.4,0,0.8,0.2,0.8,0.7c0,0.2-0.1,0.4-0.2,0.6
		l-3.2,5.4V17.3z"/>
</g>
</svg>
