<?xml version="1.0" encoding="utf-8"?>
<!-- Generator: Adobe Illustrator 25.4.1, SVG Export Plug-In . SVG Version: 6.00 Build 0)  -->
<svg version="1.1" id="Capa_1" xmlns="http://www.w3.org/2000/svg" xmlns:xlink="http://www.w3.org/1999/xlink" x="0px" y="0px"
	 viewBox="0 0 43.9 34.3" style="enable-background:new 0 0 43.9 34.3;" xml:space="preserve">
<style type="text/css">
	.st0{fill:none;stroke:#050B3D;stroke-linecap:round;stroke-linejoin:round;stroke-miterlimit:10;}
	.st1{enable-background:new    ;}
	.st2{fill:#050B3D;}
	.st3{fill:none;stroke:#050B3D;stroke-width:0.5;stroke-miterlimit:10.0007;}
	.st4{fill:none;stroke:#00E9C5;stroke-width:0.4;stroke-miterlimit:10;}
	.st5{fill:none;stroke:#FF3737;stroke-width:0.4;stroke-miterlimit:10;}
	.st6{fill:none;stroke:#050B3D;stroke-width:0.4;stroke-miterlimit:10;}
</style>
<circle class="st0" cx="13.3" cy="5.8" r="2.4"/>
<g class="st1">
	<path class="st2" d="M32.2,8.2h-4.3c-0.7,0-0.6-0.5-0.6-1s0.4-0.8,0.8-1.2l1.1-1.2C29.4,4.6,29.7,4.3,30,4c0.4-0.5,0.9-1.1,0.9-1.7
		s-0.1-0.7-0.7-0.7c-0.4,0-0.8,0-1.2,0.1c-0.2,0-0.5,0.1-0.7,0.1c-0.6,0-0.5-0.5-0.6-0.9V0.8c0-0.4,0.3-0.5,0.6-0.6
		C28.9,0.1,29.5,0,30.2,0c1.4,0,2.6,0.5,2.6,2.1c0,2-1.8,3.3-3.1,4.5c0.8,0,1.7-0.1,2.5-0.1c0.7,0,0.7,0.5,0.7,1
		C32.8,8,32.6,8.2,32.2,8.2z"/>
	<path class="st2" d="M39.7,5.4c-0.8,0.4-2,0.3-2.8,0.3v1.8c0,0.8-0.6,0.6-1.2,0.6C35.3,8.2,35,8,35,7.5V0.8c0-0.5,0.3-0.6,0.7-0.6
		H38c0.8,0,1.5,0,2.2,0.6c0.6,0.6,0.7,1.5,0.7,2.3C40.8,4,40.6,5,39.7,5.4z M36.9,1.8v2.3h1.3c0.2,0,0.5,0,0.6-0.2s0.1-0.6,0.1-0.9
		s0-1.1-0.3-1.2c-0.1-0.1-0.6-0.1-0.7-0.1C37.6,1.8,37.2,1.8,36.9,1.8z"/>
</g>
<polyline class="st0" points="42.6,2.7 42.6,20.2 23.5,20.2 23.5,2.7 "/>
<line class="st0" x1="33.1" y1="20.2" x2="33.1" y2="30.5"/>
<line class="st0" x1="0.5" y1="33.8" x2="43.4" y2="33.8"/>
<path class="st0" d="M16,17.9l0.1,1.4l2.7,3c0.5,0.5,0.9,1.1,1,1.7l1.6,5.2c0.4,1-0.2,2.1-1.4,2.4l0,0c-1,0.2-2-0.4-2.2-1.2
	l-1.6-5.9L14,22.1l-3.7,4.7l-4.1,4.4c-0.6,0.6-1.7,0.7-2.4,0.1l0,0c-0.7-0.6-0.7-1.7-0.1-2.5l3.7-4l3.5-5l-0.2-6.6l-1.1,1.9
	c-0.5,0.9-1.4,1.4-2.4,1.5L4,17c-1,0.1-1.7-0.6-1.9-1.5l0,0c0-0.9,0.6-1.6,1.5-1.7L7,13.4l1.2-2.2c0.4-0.7,1.1-1.2,2-1.2l6.2-0.2
	c0.9,0,1.6,0.5,2,1.2l1.4,2.6c0.5,1.1,0.1,2.4-1.1,2.9l-3.4,1.4c-0.7,0.2-1.6,0-2-0.7l0,0c-0.4-0.7,0-1.7,0.9-2.1l2.2-0.9"/>
<g id="Iconos">
	<ellipse transform="matrix(0.7013 -0.7129 0.7129 0.7013 -4.3472 4.857)" class="st3" cx="3.6" cy="7.6" rx="2.3" ry="3.6"/>
</g>
<path class="st4" d="M4.5,10"/>
<path class="st5" d="M0.5,6"/>
<line class="st6" x1="2.5" y1="6.6" x2="4.7" y2="8.7"/>
<line class="st6" x1="2.4" y1="7.5" x2="3.3" y2="6.5"/>
<line class="st6" x1="2" y1="7" x2="2.9" y2="6.1"/>
<line class="st6" x1="4.2" y1="9.2" x2="5.1" y2="8.2"/>
<line class="st6" x1="3.8" y1="8.7" x2="4.7" y2="7.8"/>
<line class="st6" x1="3.3" y1="8.3" x2="4.2" y2="7.3"/>
<line class="st6" x1="2.9" y1="7.9" x2="3.8" y2="6.9"/>
<g class="st1">
	<path class="st2" d="M29.1,15.7c-0.6,0.3-1.5,0.2-2.1,0.2v1.4c0,0.6-0.5,0.5-0.9,0.5c-0.3,0-0.5-0.1-0.5-0.5v-5.1
		c0-0.4,0.2-0.5,0.5-0.5h1.7c0.6,0,1.1,0,1.6,0.4c0.4,0.4,0.5,1.1,0.5,1.7C29.9,14.7,29.8,15.4,29.1,15.7z M27,13v1.7h1
		c0.1,0,0.4,0,0.5-0.1s0.1-0.5,0.1-0.6c0-0.2,0-0.8-0.2-0.9C28.2,13,27.9,13,27.8,13C27.5,13,27.3,13,27,13z"/>
	<path class="st2" d="M35.6,17.8h-0.5c-0.3,0-0.4-0.1-0.5-0.4l-0.3-0.7c-0.7,0-1.4,0-2.2,0l-0.2,0.7c-0.1,0.3-0.2,0.4-0.6,0.4H31
		c-0.3,0-0.5,0-0.5-0.3c0-0.1,0.1-0.2,0.1-0.3l1.9-5c0.2-0.5,0.5-0.5,1-0.5c0.4,0,0.5,0.1,0.6,0.5l2,5.1c0,0.1,0,0.1,0,0.2
		C36.1,17.7,35.9,17.8,35.6,17.8z M33.2,13.6l-0.7,2h1.4L33.2,13.6z"/>
	<path class="st2" d="M40.8,13c-0.4,0-0.8,0-1.2,0v4.3c0,0.6-0.5,0.5-0.9,0.5s-0.5-0.1-0.5-0.5V13c-0.4,0-0.8,0-1.2,0
		c-0.5,0-0.5-0.4-0.5-0.7s0.2-0.5,0.5-0.5h3.9c0.5,0,0.5,0.3,0.5,0.7C41.3,12.8,41.1,13,40.8,13z"/>
</g>
</svg>
