<?xml version="1.0" encoding="utf-8"?>
<!-- Generator: Adobe Illustrator 25.4.1, SVG Export Plug-In . SVG Version: 6.00 Build 0)  -->
<svg version="1.1" id="Capa_1" xmlns="http://www.w3.org/2000/svg" xmlns:xlink="http://www.w3.org/1999/xlink" x="0px" y="0px"
	 viewBox="0 0 84.2 69.9" style="enable-background:new 0 0 84.2 69.9;" xml:space="preserve">
<style type="text/css">
	.st0{fill:#050B3D;}
	.st1{fill:none;stroke:#050B3D;stroke-width:2.8;stroke-miterlimit:10;}
	.st2{fill:none;stroke:#050B3D;stroke-width:3.753;stroke-linecap:round;stroke-miterlimit:9.9994;}
	.st3{fill:#FFFFFF;stroke:#FF3737;stroke-width:3.7533;stroke-linecap:round;stroke-miterlimit:10;}
	.st4{fill:#FFFFFF;stroke:#050B3D;stroke-width:3.7533;stroke-linecap:round;stroke-miterlimit:10;}
</style>
<path class="st0" d="M76.4,32.5l-7.3-4.1c-0.5-0.3-1.3,0-1.8,0.5c0,0.3-0.3,0.5-0.3,0.5v4.4H55.7c-0.8,0-1.3,0.5-1.3,1.3l0,0v5.4
	c0,0.8,0.5,1.3,1.3,1.3l0,0h11.4v4.4c0,0.7,0.6,1.3,1.3,1.3h0.1c0.2,0,0.3,0,0.4-0.1l7.3-4.3l7.3-4.1c0.6-0.4,0.8-1.2,0.5-1.8
	c-0.3-0.4-0.6-0.5-0.9-0.8L76.4,32.5z"/>
<line class="st1" x1="30.6" y1="20" x2="21" y2="49.4"/>
<line class="st1" x1="22.6" y1="24.6" x2="34.2" y2="28.5"/>
<line class="st1" x1="24.3" y1="19.2" x2="36" y2="23"/>
<line class="st1" x1="15.5" y1="46.3" x2="27.1" y2="50.2"/>
<line class="st1" x1="17.3" y1="40.9" x2="29" y2="44.7"/>
<line class="st1" x1="19" y1="35.4" x2="30.8" y2="39.2"/>
<line class="st1" x1="20.8" y1="30.1" x2="32.5" y2="34"/>
<g id="Pelota_00000056407716106032567360000005852060988108605315_">
	<ellipse transform="matrix(0.3122 -0.95 0.95 0.3122 -15.5354 48.4055)" class="st2" cx="25.7" cy="34.9" rx="34" ry="22.4"/>
	<path class="st3" d="M44.3,8.7"/>
	<path class="st4" d="M25.1,67"/>
</g>
</svg>
