<?xml version="1.0" encoding="utf-8"?>
<!-- Generator: Adobe Illustrator 25.4.1, SVG Export Plug-In . SVG Version: 6.00 Build 0)  -->
<svg version="1.1" id="Capa_1" xmlns="http://www.w3.org/2000/svg" xmlns:xlink="http://www.w3.org/1999/xlink" x="0px" y="0px"
	 viewBox="0 0 27.4 37.2" style="enable-background:new 0 0 27.4 37.2;" xml:space="preserve">
<style type="text/css">
	.st0{fill:none;stroke:#050B3D;stroke-linecap:round;stroke-linejoin:round;stroke-miterlimit:10;}
	.st1{fill:none;stroke:#050B3D;stroke-width:0.7;stroke-miterlimit:10.0002;}
	.st2{fill:none;stroke:#050B3D;stroke-width:0.3;stroke-miterlimit:10;}
</style>
<circle class="st0" cx="16.4" cy="3.6" r="3.1"/>
<path class="st0" d="M19.8,18.3l0.2,2.6l3.4,3.8c0.6,0.6,1.1,1.4,1.3,2.2l2.1,6.6c0.4,1.3-0.4,2.7-1.7,3l0,0
	c-0.6,0.2-1.8-0.4-2.2-1.7l-2.6-7.4l-3.3-3l-4.7,6L7.1,36c-0.8,0.9-2.2,0.9-3.1,0.1l0,0c-0.9-0.8-1-2.2-0.1-3.1l4.8-5.1l4.5-6.3
	L13,13.1l-1.4,2.3c-0.7,1.1-1.8,1.8-3,2l-4.2,0.5C3.2,18,2.1,17.2,2.1,16l0,0c-0.1-1.1,0.7-2.1,1.8-2.2l4.2-0.5l1.5-2.9
	c0.5-0.9,1.5-1.5,2.6-1.5l7.9-0.3c1,0,2,0.6,2.5,1.5l1.7,3.4c0.7,1.4,0.1,3-1.3,3.6l-4.3,1.6c-1,0.4-2.1,0-2.5-1l0,0
	c-0.5-1,0-2.2,1-2.7l2.8-1.2"/>
<g id="Iconos_00000110460281211802302980000015577077934018005405_">
	<ellipse transform="matrix(0.6578 -0.7532 0.7532 0.6578 -3.2874 5.0127)" class="st1" cx="3.9" cy="6.1" rx="2.7" ry="4.1"/>
</g>
<path class="st2" d="M1.4,2.4"/>
<path class="st2" d="M0.3,13"/>
<line class="st2" x1="5.2" y1="7.3" x2="2.5" y2="5"/>
<line class="st2" x1="5.2" y1="6.2" x2="4.2" y2="7.4"/>
<line class="st2" x1="5.8" y1="6.7" x2="4.8" y2="7.9"/>
<line class="st2" x1="3" y1="4.4" x2="2.1" y2="5.6"/>
<line class="st2" x1="3.6" y1="4.9" x2="2.6" y2="6.1"/>
<line class="st2" x1="4.1" y1="5.3" x2="3.2" y2="6.5"/>
<line class="st2" x1="4.7" y1="5.8" x2="3.7" y2="6.9"/>
</svg>
