<?xml version="1.0" encoding="utf-8"?>
<!-- Generator: Adobe Illustrator 25.4.1, SVG Export Plug-In . SVG Version: 6.00 Build 0)  -->
<svg version="1.1" id="Capa_1" xmlns="http://www.w3.org/2000/svg" xmlns:xlink="http://www.w3.org/1999/xlink" x="0px" y="0px"
	 viewBox="0 0 48.8 44.6" style="enable-background:new 0 0 48.8 44.6;" xml:space="preserve">
<style type="text/css">
	.st0{enable-background:new    ;}
	.st1{fill:#00E9C5;}
	.st2{fill:none;stroke:#00E9C5;stroke-linecap:round;stroke-linejoin:round;stroke-miterlimit:10;}
	.st3{fill:none;stroke:#00E9C5;stroke-width:0.6608;stroke-miterlimit:10;}
	.st4{fill:none;stroke:#00E9C5;stroke-miterlimit:10;}
	.st5{fill:none;stroke:#00E9C5;stroke-width:0.3;stroke-miterlimit:10;}
	.st6{fill:none;stroke:#00E9C5;stroke-width:0.4;stroke-miterlimit:10;}
	.st7{fill:#FFFFFF;stroke:#FF3737;stroke-width:0.4;stroke-linecap:round;stroke-miterlimit:10;}
</style>
<g id="Iconos">
	<g class="st0">
		<path class="st1" d="M7.1,10.2c-0.7,0-1.4-0.1-2-0.5C4.1,9.1,4,7.9,4,6.8C4,5.6,4,4.2,4.3,3c0.5-1.6,1.7-1.9,3.2-1.9
			c0.5,0,1,0,1.4,0.1c0.5,0,0.8,0.2,0.8,0.7v0.4C9.8,2.7,9.6,3,9.2,3C9,3,8.8,2.9,8.5,2.9c-0.5,0-0.9-0.1-1.4-0.1
			c-0.4,0-0.7,0.1-0.8,0.4c-0.1,0.3-0.2,1-0.3,1.3c0.5-0.1,1-0.2,1.5-0.2c2,0,2.8,1,2.8,2.9C10.3,9.3,9.1,10.2,7.1,10.2z M7.5,6
			C7,6,6.5,6.1,6,6.3c0,0.3,0,0.6,0,0.9c0,1,0.2,1.4,1.3,1.4c1,0,1.1-0.4,1.1-1.3C8.3,6.4,8.2,6,7.5,6z"/>
		<path class="st1" d="M17.2,7c-0.8,0.4-2.1,0.3-3,0.3v2c0,0.8-0.7,0.7-1.3,0.7c-0.5,0-0.8-0.2-0.8-0.7V2c0-0.5,0.3-0.7,0.8-0.7h2.4
			c0.9,0,1.7,0,2.3,0.6c0.6,0.6,0.7,1.6,0.7,2.5C18.4,5.4,18.3,6.5,17.2,7z M14.2,3.1v2.5h1.4c0.2,0,0.5,0,0.6-0.2s0.1-0.7,0.1-0.9
			c0-0.3,0-1.2-0.3-1.3c-0.2-0.1-0.6-0.1-0.8-0.1C15,3.1,14.6,3.1,14.2,3.1z"/>
	</g>
</g>
<line class="st2" x1="0.5" y1="36.3" x2="48.3" y2="36.3"/>
<g class="st0">
	<path class="st1" d="M5.4,40.4c-0.3,0-0.7,0-1,0l0,3.6c0,0.5-0.4,0.4-0.7,0.4c-0.3,0-0.5-0.1-0.5-0.4l0-3.6c-0.3,0-0.7,0-1,0
		c-0.4,0-0.4-0.3-0.4-0.6c0-0.3,0.1-0.4,0.4-0.4l3.2,0c0.4,0,0.4,0.2,0.4,0.6C5.8,40.3,5.7,40.4,5.4,40.4z"/>
	<path class="st1" d="M8.6,44.6c-1.7,0-2.2-1.1-2.2-2.6c0-1.5,0.5-2.7,2.2-2.7s2.2,1.1,2.3,2.6C10.9,43.4,10.3,44.6,8.6,44.6z
		 M9.5,40.7c-0.2-0.3-0.5-0.4-0.9-0.4s-0.7,0.1-0.9,0.4c-0.1,0.3-0.2,0.9-0.2,1.2c0,0.3,0,0.9,0.2,1.2c0.2,0.3,0.5,0.4,0.9,0.4
		s0.7-0.1,0.9-0.4c0.1-0.3,0.2-0.9,0.2-1.2C9.6,41.6,9.6,41,9.5,40.7z"/>
	<path class="st1" d="M15.9,43.1c-0.2,1.2-0.9,1.4-2,1.4c-2.2,0-2.1-1.3-2.1-3.1l0-1.7c0-0.5,0.4-0.4,0.8-0.4c0.3,0,0.4,0.1,0.4,0.4
		l0,2.1c0,0.4,0,0.9,0.2,1.3c0.2,0.3,0.5,0.3,0.8,0.3c0.3,0,0.7,0,0.8-0.3c0.2-0.3,0.1-0.9,0.1-1.3l0-2.1c0-0.5,0.5-0.4,0.8-0.4
		c0.3,0,0.4,0.1,0.4,0.4l0,1.7C16,42,16,42.5,15.9,43.1z"/>
	<path class="st1" d="M20.1,44.4c-0.3,0-0.6,0-0.9,0c-1.8,0-2.3-0.8-2.3-2.5c0-0.9,0.1-2.1,1-2.4c0.4-0.2,0.8-0.2,1.2-0.2
		c0.3,0,0.6,0,0.9,0c0.2,0,0.5,0.1,0.5,0.3l0,0.2c0,0.3,0,0.4-0.4,0.4c-0.3,0-0.5,0-0.8,0c-0.2,0-0.6,0-0.8,0.1
		c-0.5,0.2-0.4,1.1-0.4,1.5c0,0.5-0.1,1.4,0.6,1.5c0.2,0,0.4,0,0.6,0c0.3,0,0.5,0,0.8,0c0.5,0,0.4,0.3,0.4,0.7
		C20.5,44.4,20.3,44.4,20.1,44.4z"/>
	<path class="st1" d="M24.6,44.3c-0.3,0-0.5-0.1-0.5-0.4l0-1.8c-0.5,0-1.1,0-1.7,0l0,1.8c0,0.5-0.4,0.4-0.7,0.4
		c-0.3,0-0.5-0.1-0.5-0.4l0-4.2c0-0.5,0.4-0.4,0.8-0.4c0.3,0,0.4,0.1,0.4,0.4l0,1.5c0.5,0,1.1,0,1.7,0l0-1.5c0-0.5,0.4-0.4,0.8-0.4
		c0.3,0,0.4,0.1,0.4,0.4l0,4.2C25.4,44.4,25,44.3,24.6,44.3z"/>
	<path class="st1" d="M28.2,44.3l-1.3,0c-0.3,0-0.5-0.1-0.5-0.4l0-4.2c0-0.3,0.2-0.4,0.4-0.4l1.3,0c0.4,0,0.9,0,1.2,0.2
		c1,0.4,1,1.5,1,2.4C30.5,43.5,30,44.3,28.2,44.3z M29.3,41.6L29.3,41.6c0-0.5,0-1.1-0.4-1.2c-0.2-0.1-0.6-0.1-0.8-0.1
		c-0.2,0-0.3,0-0.4,0l0,3c0.1,0,0.3,0,0.4,0c1.1,0,1.2-0.4,1.2-1.4L29.3,41.6z"/>
	<path class="st1" d="M33.5,44.5c-1.7,0-2.2-1.1-2.2-2.6c0-1.5,0.5-2.7,2.2-2.7c1.7,0,2.2,1.1,2.2,2.6
		C35.8,43.3,35.2,44.4,33.5,44.5z M34.4,40.6c-0.2-0.3-0.5-0.4-0.9-0.4c-0.3,0-0.7,0.1-0.9,0.4c-0.1,0.3-0.2,0.9-0.2,1.2
		s0,0.9,0.2,1.2c0.2,0.3,0.5,0.4,0.9,0.4c0.3,0,0.7-0.1,0.9-0.4c0.1-0.3,0.2-0.9,0.2-1.2C34.5,41.5,34.5,40.9,34.4,40.6z"/>
	<path class="st1" d="M42.4,39.7l-1,4.2c-0.1,0.3-0.2,0.3-0.5,0.3l-0.5,0c-0.2,0-0.4-0.1-0.4-0.3c-0.2-0.7-0.4-1.3-0.6-2
		c-0.2,0.7-0.4,1.4-0.6,2c-0.1,0.2-0.2,0.3-0.5,0.3l-0.5,0c-0.3,0-0.4-0.1-0.4-0.3l-1-4.2c0,0,0-0.1,0-0.1c0-0.3,0.2-0.3,0.5-0.3
		l0.4,0c0.3,0,0.4,0.1,0.4,0.4l0.6,3c0.1-0.4,0.3-0.9,0.4-1.4c0.1-0.3,0.1-0.5,0.2-0.8c0.1-0.3,0.4-0.3,0.7-0.3
		c0.2,0,0.4,0.1,0.4,0.3c0.1,0.2,0.2,0.5,0.2,0.8c0.1,0.4,0.3,0.9,0.4,1.3l0.6-3c0.1-0.5,0.4-0.4,0.8-0.4c0.2,0,0.5,0.1,0.5,0.3
		C42.5,39.6,42.4,39.6,42.4,39.7z"/>
	<path class="st1" d="M46.9,44.2c-0.2,0-0.3,0-0.5-0.2c-0.2-0.3-0.5-0.6-0.7-0.9c-0.4-0.6-0.9-1.2-1.3-1.8l0,2.5
		c0,0.5-0.4,0.4-0.7,0.4c-0.3,0-0.5-0.1-0.5-0.4l0-4.2c0-0.4,0.3-0.4,0.6-0.4c0.2,0,0.3,0,0.5,0.2c0.2,0.3,0.5,0.6,0.7,0.9
		c0.4,0.6,0.9,1.2,1.3,1.8l0-2.5c0-0.5,0.4-0.4,0.7-0.4c0.3,0,0.4,0.1,0.4,0.4l0,4.2C47.5,44.2,47.2,44.2,46.9,44.2z"/>
</g>
<g id="Iconos_00000085955612631139462960000001908511243040059781_">
	<g>
		<path class="st3" d="M23.2,14.2c0.2-0.2,0.4-0.2,0.6-0.4c1.5-0.8,3.2-0.6,3.8,0.4c0.6,1-0.3,2.5-1.9,3.3c-0.2,0.1-0.5,0.2-0.6,0.3
			"/>
	</g>
	<g>
		<path class="st2" d="M21,17.8l-0.6,1.6c-0.3,1,0,2,0.9,2.5l4.3,2.6l-5.4,6.9c-0.6,0.8-0.4,1.9,0.4,2.4l0,0
			c0.7,0.5,1.7,0.3,2.3-0.4l6-7.6c1-1.3,0.6-3.2-0.8-4l-1.9-1.1l1.6-4.5l0.3,0.8c0.4,1,1.5,1.5,2.6,1.2l5.1-1.4
			c1-0.2,1.4-1.3,1.1-2.3l0,0c-0.3-0.9-1.2-1.4-2.1-1l-3.9,1l-0.7-4.2c-0.1-1-1.4-1.9-2.5-2.3l-1.6-0.5c-0.2-0.1-0.4-0.1-0.6-0.2
			c-0.8-0.2-1.7,0.1-2.3,0.7c-0.2,0.2-0.3,0.3-0.5,0.6l-2.8,3.5c-0.7,0.9-0.8,2.2-0.2,3.2l2.2,3.3c0.5,0.8,1.6,1,2.4,0.4l0,0
			c0.7-0.5,0.9-1.4,0.5-2.3l-1.8-3l2.7-3.3"/>
		<path class="st4" d="M20.4,19.4l-3.2,7.2c-0.1,0.3-0.3,0.6-0.5,0.8l-5.6,5.3c-0.7,0.6-0.7,1.8,0,2.4l0,0c0.6,0.6,1.7,0.6,2.3,0
			l6.3-6c0.2-0.2,0.4-0.4,0.5-0.7l2.6-5.7"/>
		<circle class="st4" cx="28.6" cy="3.5" r="3"/>
	</g>
</g>
<line class="st5" x1="26.2" y1="15" x2="24.3" y2="16"/>
<line class="st5" x1="25.5" y1="14.7" x2="26" y2="15.7"/>
<line class="st5" x1="26" y1="14.4" x2="26.5" y2="15.5"/>
<path class="st6" d="M24.6,16.4"/>
<path class="st6" d="M24.1,15.4"/>
<line class="st5" x1="24.6" y1="15.2" x2="25.1" y2="16.2"/>
<line class="st5" x1="25.1" y1="14.9" x2="25.6" y2="16"/>
<path class="st7" d="M28,15.1"/>
</svg>
