<svg xmlns="http://www.w3.org/2000/svg" xmlns:xlink="http://www.w3.org/1999/xlink" viewBox="0 0 1080 1080"><defs><style>.a{fill:none;}.b{isolation:isolate;}.c{fill:#c4c4c4;}.d{clip-path:url(#a);}.e,.f{fill:#7f7f7f;}.f,.h,.l{mix-blend-mode:multiply;}.f,.l{opacity:0.5;}.g,.h{fill:#f4f4f4;}.i{fill:#fff;}.j{fill:#eaeaea;}.k,.l{fill:#464237;}.m{fill:#a0a0a0;}.n{fill:#c9c9c9;}</style><clipPath id="a"><circle class="a" cx="540" cy="540" r="540"/></clipPath></defs><g class="b"><circle class="c" cx="540" cy="540" r="540"/><g class="d"><path class="e" d="M772.93,892.46s-2.5,141,11.64,187.54H344.86s20.33-91,25.48-147.47l258.66-49Z"/><path class="f" d="M426.13,1080c-2.67-35.49,6.18-88.55,34.44-103.86,30.86-16.71,129.86-47.57,153-53.72s64-25,64-25L639.9,872.68l-81.45,33.48L370.34,932.53C365.19,989.05,344.86,1080,344.86,1080Z"/><path class="g" d="M665.44,332.45s-1.08,46.48,4.06,54.19,11.52,28.52,60.11,46l-20.25,68.46-44,81.64L551.21,593.64l-65.57-28.93L434.86,440.64l5.46-15.75s33.11-6.75,51.75-38.89l-7.71-98.36,90.2,111.22Z"/><path class="h" d="M562.47,536.75s33.1-10.61,7.82-29.89S537.71,475,540.93,440.64s39.3-35.33,39.3-35.33c-44.27-9.37-67.62-65-77-94.41l-14.75-18.19h-3.72L492.07,386c-18.64,32.14-51.75,38.89-51.75,38.89l-4.12,11.88,45.59,117.34,69.42,39.53L570.29,581C539.21,570.36,562.47,536.75,562.47,536.75Z"/><path class="a" d="M718.36,672.72l-1,8.23,5.29,17.55a98,98,0,0,1,9.38-25C725.57,673,720.75,672.71,718.36,672.72Z"/><path class="a" d="M473.71,724.09l9.78.39Z"/><path class="a" d="M718.36,672.72l-1,8.23,5.29,17.55h0a98,98,0,0,1,9.38-25C725.57,673,720.75,672.71,718.36,672.72Z"/><path class="a" d="M722.16,701.16l.12-.62Z"/><path class="a" d="M721.71,703.82l.12-.75Z"/><path class="a" d="M472.71,724.06c.38,0,.73,0,1,0Z"/><path class="e" d="M471.38,724l1.33,0C472.22,724,471.7,724,471.38,724Z"/><path class="h" d="M471.38,724l1.33,0C472.22,724,471.7,724,471.38,724Z"/><path class="e" d="M490.37,724.77h0l-.29,0h0l-6.53-.24c4.12.17,7,.31,7,.31Z"/><path class="h" d="M490.37,724.77h0l-.29,0h0l-6.53-.24c4.12.17,7,.31,7,.31Z"/><path class="e" d="M473.68,724.09Z"/><path class="h" d="M473.68,724.09Z"/><path class="e" d="M722.28,700.54c.14-.68.27-1.36.42-2C722.55,699.18,722.42,699.86,722.28,700.54Z"/><path class="h" d="M722.28,700.54c.14-.68.27-1.36.42-2C722.55,699.18,722.42,699.86,722.28,700.54Z"/><path class="e" d="M721.83,703.07c.1-.63.22-1.27.33-1.91C722.05,701.8,721.93,702.44,721.83,703.07Z"/><path class="h" d="M721.83,703.07c.1-.63.22-1.27.33-1.91C722.05,701.8,721.93,702.44,721.83,703.07Z"/><path class="e" d="M790,636.52c-27.93-.11-31.65.19-31.65.19h0c-.18.44-.38.89-.59,1.34l-.23.5c-.18.39-.38.78-.59,1.17-.12.23-.23.46-.36.69s-.39.71-.6,1.07l-.48.8c-.2.33-.41.66-.63,1s-.4.6-.61.9l-.64.91c-.24.33-.5.67-.76,1s-.42.55-.64.82-.65.77-1,1.16c-.19.22-.36.44-.56.65-.55.61-1.12,1.22-1.72,1.82a98.62,98.62,0,0,0-16.81,22.92h0c10.52.75,25.45,2,41.72,3.16A163.91,163.91,0,0,1,790.35,637,3.14,3.14,0,0,1,790,636.52Z"/><path class="a" d="M412.34,707.6l6.32-39.94c-3.21,0-7.57.1-12.78.3.63,2.66,1.3,5.45,2,8.61A217.32,217.32,0,0,1,412.34,707.6Z"/><path class="e" d="M711,743.43c-1,5.32,18-4.5,18-4.5l18-51.75-9.64-6.75c2.39,0-11.33,7.25-4.82,7.71,10.51.76-14.83-16.56,1.44-15.38,21.8,1.58,46,3.09,65.3,3.32,37.11.43,61.35-4,76.7-8.94,4-1.28,7.21-2.51,9.79-3.63,8.89-3.89,10.3-6.65,10.3-6.65-4.44-7.73-5.18-19.8-5.18-19.8C887,589.33,860.75,519.39,833.43,494c-13.57-12.61-34.29-16.29-71.14-41.14-9.67-6.52-32.68-20.25-32.68-20.25-12.59,6.51-46.79,35.08-65.5,48.53C644.93,494.93,577,527.82,577,527.82s-59.64-32.63-77.84-48c-16-13.45-58.82-55-58.82-55-22.14,3-53.45,35.86-64.37,39.59C359.79,470,323.17,493,307.57,503c-27.17,17.41-40.58,42.74-56.72,91.61-4.85,14.69-12.06,48.85-14.76,60.09,0,0,2.68,1,19,5.61l5.5,1.55c15.45,4.36,58.27,9.93,92,9.54,31.3-.36,28-2.15,48.82-3,5.21-.2,3.27,8.13,6.48,8.15l-8.36,23.14c.4,5.87,2.17,12.41,2,17.58l-2,6.61c5.35-1,40.49-.23,40.49-.23h17.36c3.26,0,8.58.15,14,.34.32,0,.84,0,1.33,0l1,0h0l9.78.39,6.53.24h0l.29,0h0l.09,0s124.4,34.71,152.36,28"/><path class="f" d="M376,464.48C359.79,470,323.17,493,307.57,503c-27.17,17.41-40.58,42.74-56.72,91.61-4.85,14.69-12.06,48.85-14.76,60.09,0,0,2.68,1,19,5.61l5.5,1.55c15.45,4.36,58.27,9.93,92,9.54,31.3-.36,28-2.15,48.82-3,5.21-.2,3.27,8.13,6.48,8.15l-8.36,23.14c.4,5.87,2.17,12.41,2,17.58l-2,6.61c5.35-1,40.49-.23,40.49-.23h10.12l2.74-2.1c13-92.92-50.15-200.57-50.15-223.71s55.61-55.69,55.61-55.69h0c-10.19-9.71-18-17.28-18-17.28C418.18,427.93,386.87,460.75,376,464.48Z"/><path class="g" d="M525.15,842.5c-52.46-28.57-109.58-36.07-141.72-37.36,0,.09,26.76-49.67,19.23-109-.4-3.2,3.68-24.36,3-27-20.82.83-40.28,7.5-86.58,2.33-33.5-3.75-28.89,6.31-44.34,2-2-.56-14.94-4.74-16.63-5.22-5,33.62-16.12,90-8.45,149.86,2.63,20.45,2.1,26.1,9,65.57,2.29,13.06-1.92,30.54,16.72,37s19.61-6.43,47.25,1.92S404.08,940,444.18,934c41.33-6.16,110.32-3.51,190-42.73C634.21,891.31,576.73,870.6,525.15,842.5Z"/><path class="i" d="M583.59,562.45a14.41,14.41,0,0,0-8.6,13.18h0V676a5,5,0,0,1-5,5,5.09,5.09,0,0,1-1.45-.21,53.7,53.7,0,0,1-38.21-51.39v-3c0-.56.07-1.1.11-1.66v-.45c.15-1.43.35-2.86.59-4.3l.09-.46c.11-.62.24-1.23.38-1.84v-.32c.35-1.43.73-2.87,1.19-4.3l.09-.29c.23-.67.46-1.33.7-2h0a37,37,0,0,1,1.75-4.14.23.23,0,0,1,.1-.23c.65-1.35,1.33-2.67,2.09-3.94v-.08c.33-.58.69-1.16,1.06-1.73l.22-.34c.34-.53.7-1.06,1.07-1.58l.13-.2c.4-.56.81-1.12,1.24-1.66l.37-.49a61.66,61.66,0,0,1,6-6.54,36.19,36.19,0,0,1,2.86-2.39,6,6,0,0,0,1.14-8.42,4,4,0,0,0-.51-.58l-4.4-4.39a6,6,0,0,0-8-.43,71.17,71.17,0,0,0-9.33,9h0l-.1.13c-.64.75-1.26,1.44-1.86,2.27h0c-.58.73-1.14,1.43-1.69,2.22l-.28.39c-1.11,1.56-2.16,3.17-3.15,4.81l-.27.46c-1,1.64-1.88,3.33-2.73,5.06-.08.16-.15.33-.24.5-.37.79-.75,1.6-1.09,2.4,0,.08-.07.16-.1.24-.39.88-.73,1.77-1.07,2.65,0,.19-.15.38-.21.56-.3.79-.57,1.59-.84,2.4l-.14.38c-.29.91-.56,1.82-.82,2.74a2.69,2.69,0,0,1-.14.52c-.22.79-.42,1.58-.61,2.36a3.56,3.56,0,0,1-.14.61c-.22.93-.42,1.87-.59,2.86a.77.77,0,0,1-.07.39c-.14.84-.29,1.69-.4,2.54a5.36,5.36,0,0,1-.1.7c-.13,1-.25,1.92-.33,2.87v.31c0,.88-.13,1.75-.19,2.64v3.73h0A71.8,71.8,0,0,0,570.9,700a5,5,0,0,1,4.15,4.92V732a5,5,0,0,0,5,5h8a5,5,0,0,0,5-5V704.89a5,5,0,0,1,4-4.89,71.78,71.78,0,0,0,8.74-139,31.17,31.17,0,0,0-22.16,1.43Zm49,90.31A53.74,53.74,0,0,1,599.39,681a5,5,0,0,1-6.19-3.39,4.75,4.75,0,0,1-.21-1.4V587.82a8.61,8.61,0,0,1,11.89-7.93,53.65,53.65,0,0,1,28.85,70.16c-.37.88-.76,1.75-1.17,2.6Z"/><path class="h" d="M564.71,915.71C274.14,935,293.43,890,293.43,890c-5.14-63-33.43-176.14-14.14-181.29s57.83-11.13,57.83-11.13L258,669.29C252.9,703,242.12,758.8,249.71,818c2.63,20.45,2.1,26.1,9,65.57,2.29,13.06-1.92,30.54,16.72,37s19.61-6.43,47.25,1.92S404.08,940,444.18,934c28.66-4.27,70.63-4.31,120.25-17Z"/><path class="j" d="M681.07,226.57s14.14-13.5,18-9.64-4.5,22.5-4.5,27-.64,18-5.14,23.78-1.29,20.5-19.93,25l.64-45.57Z"/><path class="j" d="M473,226.57s-14.15-13.5-18-9.64,4.5,22.5,4.5,27,.64,18,5.14,23.78,1.28,20.5,19.93,25l-.65-45.57Z"/><path class="h" d="M473,226.57s-14.15-13.5-18-9.64,4.5,22.5,4.5,27,.64,18,5.14,23.78,1.28,20.5,19.93,25l-.65-45.57Z"/><path class="k" d="M673.36,279.29s6.43-21.22,7.71-39.86,3.22-29.57,9.64-47.57,2.58-73.93-7.07-86.79c0,0,3.86-40.5-37.28-58.5S463.14,20.86,455.43,115.36c-1.92,23.47,11.57,82.93,13.5,93.21s12.86,41.79,14.14,67.5l26.36-109.93L665,206Z"/><path class="l" d="M503,82.57s-9.89-1.75-16.48,5c0,0,4.91-24.28,29-33.93a135.53,135.53,0,0,0-16.07-2.23c-23.84,12.18-41.46,32.34-44,64-1.92,23.47,11.57,82.93,13.5,93.21s12.86,41.79,14.14,67.5l5.05-21,10.55-91.45,63.8-11.48S467.32,138.5,503,82.57Z"/><path class="g" d="M479.21,231.71s-3.85-81,8.36-86.14,48.86,21.22,105.43-1.93,68.79-18.64,72,.65,5.14,53.35,7.07,63.64,4.5,57.21,2.57,64.93c0,0-7.07,33.43-7.07,37.93s1.29,32.78-18,48.85-31.5,45.65-64.28,45.65-39.22,3.21-71.36-30.86-29.57-86.79-29.57-86.79Z"/><path class="g" d="M790.35,637a2.19,2.19,0,0,0,.17-.29Z"/><path class="g" d="M642.82,752.75c-27.89,7-152.36-28-152.36-28s-28.71-3.22-37.6-3.22H435.5s-30.64,1.36-36,2.33l1.07,10-17.15,71.25s63.64,4.5,136.23,34.87c18.43,7.71,76.76,42,107.73,49.67,52.82,13.1,82.08,10.56,166.82,4.82,0,0,31.83,11.57,52.08-13.5,0,0,23.46-87.75,28.28-115.71,3.15-18.26,3.32-57.26-.87-87.43-2.58,1.13.63-.78-3.37.5-15.34,4.91,5.87,2-31.23,1.57-33.68-.39-82.43-4.71-107-6.47-4.18,7.8-9.27,16.11-9.38,25-.16,13.59-1.06,27.13,2.09,38.82A717.21,717.21,0,0,0,642.82,752.75Z"/><path class="h" d="M502,322.68c-15.43-38.57-11.58-63.64-13.5-81.32s-3.86-54.65,0-77.79c1.71-10.26,9.67-14.45,18-15.94-8.7-2.14-15.08-3.7-19-2.06-12.21,5.14-8.36,86.14-8.36,86.14l5.15,55.93s-2.57,52.72,29.57,86.79c26.54,28.13,35.56,30.84,56.36,30.93C505.46,370.4,517.46,361.25,502,322.68Z"/><path class="h" d="M742.14,760.14s-9-52.71,6.43-52.71,34.65-9.91,34.65-9.91l-7.16-20.74c-17.15-1.23-33-2.53-44-3.32-4.18,7.8-9.27,16.11-9.38,25-.16,13.59-1.06,27.13,2.09,38.82a717.21,717.21,0,0,0-82,15.43c-27.89,7-152.36-28-152.36-28s-28.71-3.22-37.6-3.22C629,803.86,742.14,760.14,742.14,760.14Z"/><path class="i" d="M407.86,667.66c-87.85,10.92-147.31-5.8-171.77-13-.13,1.4-2.9,13.91-9.1,22.31,0,0,5.44,7.3,22.47,13.28,12.42,4.35,31,8,58.11,7.62,31.44-.45,52.07-.46,65-.34l34.91-1.71Z"/><path class="i" d="M908.53,676.53c-6.23-8.4-12.41-18.59-12.5-19.67-41.37,26.75-173.17,12-173.17,12v27l29.34,2.8s27.29-1.73,61.66-1.23c29.95.42,49.64-.7,62.07-5.43S908.53,676.53,908.53,676.53Z"/><path class="h" d="M525.15,842.5C481.2,818.57,434,809.42,400.93,806.33c9.19-25.34,11.39-65.76,11.91-83.57-6,.38-11.37.78-13.33,1.14l1.07,10-17.15,71.25s-21.22-4.18-28.93-1.28c0,0,65.31,4.74,248.37,101,10.23-3.86,20.69-8.35,31.34-13.59C634.21,891.31,576.73,870.6,525.15,842.5Z"/></g><ellipse class="e" cx="532.57" cy="241.36" rx="8.36" ry="10.29"/><ellipse class="e" cx="629" cy="241.36" rx="8.36" ry="10.29"/><path class="e" d="M595.82,218A49,49,0,0,1,605,214.3a74.59,74.59,0,0,1,9.5-2.18c1.6-.26,3.21-.44,4.83-.56s3.24-.12,4.87-.08c3.27.14,6.53.35,9.81.6a75,75,0,0,1,9.88,1.31,32,32,0,0,1,9.57,3.78,24.93,24.93,0,0,1,7.39,7,22.08,22.08,0,0,1,3.64,9.2l-.79.15a21.71,21.71,0,0,0-4.81-7.78,22.13,22.13,0,0,0-7.3-5,27.46,27.46,0,0,0-8.54-2.07,71.62,71.62,0,0,0-9.17-.16c-3.09.09-6.2.51-9.3.91a77.12,77.12,0,0,1-9.37.69c-3.15.06-6.32,0-9.52-.16a73.73,73.73,0,0,1-9.75-1.11Z"/><path class="e" d="M562.38,217.73a109.62,109.62,0,0,1-13.75.65,100.36,100.36,0,0,1-13.24-.73c-1.09-.11-2.19-.27-3.29-.41s-2.19-.21-3.29-.31-2.21-.15-3.31-.17-2.2-.07-3.3,0l-3.3.09c-1.11,0-2.19.15-3.29.2-2.21.07-4.37.44-6.57.69l.41-.14c-1.4.56-2.91,1.24-4.32,2a44.31,44.31,0,0,0-4.18,2.4,29.72,29.72,0,0,0-3.83,2.88,17.48,17.48,0,0,0-3.15,3.6l-.72-.35a18.85,18.85,0,0,1,2.58-4.45,32.88,32.88,0,0,1,3.52-3.75,42.52,42.52,0,0,1,4-3.23,43.44,43.44,0,0,1,4.35-2.84l.08-.05.32-.1a82.59,82.59,0,0,1,13.72-2.86c1.16-.16,2.32-.24,3.48-.36l1.75-.18,1.74-.12c1.17-.09,2.34-.21,3.5-.28s2.34-.14,3.5-.16a48.07,48.07,0,0,1,13.81,1.8,45.63,45.63,0,0,1,13,5.5Z"/><path class="i" d="M534.71,336.29s13.64,4.08,27.76,2.19c8.83-1.18,10.06,2.31,14.51,4.23,0,0,10.88-5.6,17.31-3.23s24.85-3.23,24.85-3.23-12.64,19.9-42.16,19.9C558.61,356.15,550.14,351.71,534.71,336.29Z"/><path class="m" d="M577,356.15a68,68,0,0,1-12.09-.67,39.6,39.6,0,0,1-11.55-3.76,53.94,53.94,0,0,1-10.06-6.85c-3.11-2.6-6.06-5.38-8.91-8.24L533,335.3l1.82.52a76.78,76.78,0,0,0,10.6,2.12,81.37,81.37,0,0,0,10.81.64c1.81,0,3.61-.12,5.41-.32a26.46,26.46,0,0,1,5.49-.18,12.47,12.47,0,0,1,2.7.56,13,13,0,0,1,2.49,1.19,44.42,44.42,0,0,0,4.62,2.88,37.44,37.44,0,0,1-4.75-2.66,12.1,12.1,0,0,0-2.46-1.06,12.57,12.57,0,0,0-2.64-.45,27.11,27.11,0,0,0-5.38.33q-2.71.36-5.46.45a68.94,68.94,0,0,1-10.94-.49,78.23,78.23,0,0,1-10.78-2.07l.49-.82c2.87,2.82,5.75,5.63,8.81,8.22A56.75,56.75,0,0,0,553.7,351,38.48,38.48,0,0,0,565,355,74,74,0,0,0,577,356.15Z"/><path class="n" d="M589.57,259.57a135.14,135.14,0,0,0,3.1,17c.37,1.36.8,2.7,1.26,4,.23.66.51,1.29.75,1.93l.85,2a31.52,31.52,0,0,1,2.68,8.88,10.56,10.56,0,0,1-.86,5.22,13.77,13.77,0,0,1-3,4.06,27.13,27.13,0,0,1-3.65,2.88,16.82,16.82,0,0,1-4.31,2.13,12.38,12.38,0,0,1-4.83.59A13.21,13.21,0,0,1,577,307.1a16.5,16.5,0,0,1-6.67-6,19.53,19.53,0,0,0,7.36,4.13,11.13,11.13,0,0,0,7.65-.47,15.7,15.7,0,0,0,3.33-2.06,27.41,27.41,0,0,0,3-2.71,10.47,10.47,0,0,0,2.08-3,6.76,6.76,0,0,0,.49-3.3,34.4,34.4,0,0,0-2.23-7.82l-.74-2.06c-.24-.73-.49-1.46-.69-2.19a40.68,40.68,0,0,1-1-4.43A57.6,57.6,0,0,1,589.57,259.57Z"/></g></svg>