<?xml version="1.0" encoding="utf-8"?>
<!-- Generator: Adobe Illustrator 25.4.1, SVG Export Plug-In . SVG Version: 6.00 Build 0)  -->
<svg version="1.1" id="Capa_1" xmlns="http://www.w3.org/2000/svg" xmlns:xlink="http://www.w3.org/1999/xlink" x="0px" y="0px"
	 viewBox="0 0 33 28.8" style="enable-background:new 0 0 33 28.8;" xml:space="preserve">
<style type="text/css">
	.st0{fill:#00E9C5;}
</style>
<g transform="translate(0 -32.211)">
	<g transform="translate(0 32.211)">
		<g transform="translate(0 0)">
			<path class="st0" d="M2.6,12.3c0.2,0.1,0.4,0.1,0.5,0l5.4-2.4C8.9,9.7,9,9.3,8.9,8.9c0,0,0,0,0,0C8.7,8.6,8.3,8.5,8,8.6l-3.8,1.7
				c2.4-6.9,9.9-10.6,16.9-8.2c4.2,1.4,7.3,4.8,8.5,9.1c0.1,0.4,0.5,0.6,0.8,0.5c0.4-0.1,0.6-0.5,0.5-0.8l0,0
				C28.8,3,20.7-1.6,12.9,0.5c-4.7,1.3-8.4,4.8-10,9.4L1.3,5.9C1.2,5.6,0.8,5.4,0.5,5.5C0.1,5.6-0.1,6,0,6.4c0,0,0,0.1,0,0.1
				l2.2,5.5C2.3,12.1,2.5,12.2,2.6,12.3z"/>
			<path class="st0" d="M32.9,22.4C32.9,22.4,32.9,22.4,32.9,22.4l-2.2-5.5c-0.1-0.2-0.2-0.3-0.4-0.4c-0.2-0.1-0.4-0.1-0.5,0
				L24.4,19c-0.3,0.2-0.5,0.6-0.4,0.9c0.1,0.3,0.5,0.5,0.9,0.4l0,0l3.8-1.7c-2.4,6.9-9.9,10.6-16.9,8.2c-4.2-1.4-7.3-4.8-8.5-9.1
				c-0.1-0.4-0.5-0.6-0.8-0.5C2.2,17.3,2,17.7,2.1,18c2.1,7.8,10.2,12.4,18,10.3c4.7-1.3,8.4-4.8,10-9.4l1.6,3.9
				c0.1,0.4,0.5,0.5,0.9,0.4S33.1,22.8,32.9,22.4L32.9,22.4z"/>
		</g>
	</g>
</g>
</svg>
