<svg xmlns="http://www.w3.org/2000/svg" xmlns:xlink="http://www.w3.org/1999/xlink" viewBox="0 0 1080 1080"><defs><style>.a{fill:none;}.b{isolation:isolate;}.c{clip-path:url(#a);}.d{fill:#c4c4c4;}.e,.f{fill:#7f7f7f;}.f,.h,.i{mix-blend-mode:multiply;}.f,.i{opacity:0.5;}.g,.h{fill:#f4f4f4;}.j{fill:#fff;}.k{fill:#d3d3d3;}</style><clipPath id="a"><circle class="a" cx="541.57" cy="539" r="540"/></clipPath></defs><g class="b"><g class="c"><circle class="d" cx="541.57" cy="539" r="540"/><path class="e" d="M636.94,508s10.78-4,17.52,9.43c0,0,25.6,7.41,28.29,13.47S695.55,543,695.55,543l32.34,118.58-4,17.51s5.44,31.54,5.44,45-5.15,72-32.15,102.86c0,0,0,124.71,9.87,151.27,10,26.87,30.32,95.67,31,101.73H356.67s16.17-34.36,32.34-112.51c0,0-1.35-.68,5.39-54.57,0,0-3.37-70.74-8.09-109.82s-14.14-48.51-13.47-111.84c0,0-2.69-2-1.35-8.08,0,0,26.95-27.63,47.16-101.06s29.65-85.57,29.65-85.57,5.39-5.39,9.43-2.69,15.5-2.7,15.5-2.7,6.06-5.38,8.75-2.69l15.5,109.82,24.25,41.77,71.42,23.58,55.24-29,5.39-82.87Z"/><path class="f" d="M591,1080c-3.21-26-9.54-69.31-20.45-114.14-17.36-71.36,63.64-125.36,48.21-144.65s-40.5-3.85-67.5-3.85-57.85-28.93-57.85-92.57,51.79-66.87,51.79-66.87l-3.94-11.43-19.48-6.43-24.25-41.77L482,488.47c-2.69-2.69-8.75,2.69-8.75,2.69s-11.46,5.39-15.5,2.7-9.43,2.69-9.43,2.69-9.43,12.13-29.65,85.57-47.16,101.06-47.16,101.06c-1.34,6.06,1.35,8.08,1.35,8.08-.67,63.33,8.76,72.76,13.47,111.84s8.09,109.82,8.09,109.82c-6.74,53.89-5.39,54.57-5.39,54.57C372.84,1045.64,356.67,1080,356.67,1080Z"/><path class="e" d="M508.26,350.36s-6.74,24.92,7.41,53.89c0,0,3.37,22.24-10.11,34.36s-12.8,44.47-12.8,44.47l40.43-43.79-17.52-88.93Z"/><path class="f" d="M508.26,350.36s-6.74,24.92,7.41,53.89c0,0,3.37,22.24-10.11,34.36s-12.8,44.47-12.8,44.47l40.43-43.79-17.52-88.93Z"/><path class="g" d="M630.2,446s-17.51,24.92-4,50.52c0,0,21.56,19.54,24.93,32.34S693.53,662.29,595.17,667c0,0-94.32,10.1-108.47-99,0,0-4.72-64-4.72-79.5,0,0,33.69-24.25,33.69-51.2s-1.35-67.38-1.35-67.38L630.2,425.81Z"/><path class="h" d="M515.67,437.27c0,27-33.69,51.2-33.69,51.2,0,15.5,4.72,79.5,4.72,79.5,7,53.79,33.42,78.6,58.45,89.95-80.58-64.55-19-130.64-20.94-178.06C522.29,431.64,583,450.93,583,450.93c-37.61-13.5-44.36-62.68-46.29-69.43a5.53,5.53,0,0,1-.16-.86l-22.27-10.75S515.67,410.32,515.67,437.27Z"/><path class="g" d="M691.51,349.68s-22.9,86.24-56.59,95.67c0,0-15.5,5.39-23.58,6.07s-36.38,2-56.59-13.48-30.32-17.52-40.43-68.05c0,0-.67-11.45-.67-17.51,0,0-34.36-10.78-12.13-70.74l150.24-97L683.43,192l34.36,100.39Z"/><path class="h" d="M513.65,352.38c0,6.06.67,17.51.67,17.51,10.11,50.53,20.21,52.56,40.43,68.05a64.39,64.39,0,0,0,23.3,10.91c-33.23-15.85-39.46-60.91-41.3-67.35-1.93-6.75,8.68-47.25,1-64.61s35.68-78.1,35.68-78.1l-8.26,1.77-63.61,41.08C479.29,341.6,513.65,352.38,513.65,352.38Z"/><path class="e" d="M501.52,281.64s22.4-142.21,164.39-103.76c32.34,8.76,103.08,109.82,25.6,171.8,0,0,1.35-18.19,6.74-26.95s14.82-61.31-10.78-76.13c0,0,0-29-14.15-52.55a115.25,115.25,0,0,1,11.29,50.2s-126.32-58.5-164.22,68.38c0,0-7.75-4.38-6.4-16.51S512.3,279.28,501.52,281.64Z"/><path class="g" d="M682.75,530.91s73.44-7.41,132,18.87c0,0,16.17,10.78,30.32,12.13s53.9-3.37,83.54,22.23c0,0,12.13,4,20.21,4a145.1,145.1,0,0,1-5.39-31.66s-13.47-89.61-63.33-124c0,0-29.64,9.43-56.59,8.76S796.61,446,796.61,446s-19.54,6.73-21.56-7.42c0,0-.67-8.08,4.72-14.14,0,0-13.47,2-14.82-8.76,0,0-13.48,4-10.78-11.46,0,0,21.56-35.7,30.32-44.46s28.29-4,28.29-4,67.37,24.92,78.83,28.29,37.73,20.89,48.51,39.08,46.48,57.94,46.48,57.94,62,74.11,80.18,121.27c0,0,16.84,21.56,3.36,35,0,0-18.86,17.52-20.88,20.21S991.32,691.93,806,667.68c-20.57-2.69-69.39-27.62-82.19,11.45C723.85,679.13,727.22,617.83,682.75,530.91Z"/><path class="g" d="M448.3,496.55s-6.07,2-8.76.68-80.85-31-116.56-23.58-63.33-1.35-63.33-1.35-31-10.78-63.33-5.39c0,0-28.29-6.06-39.07-6.06,0,0,25.6-74.11,134.07-135.42l4.72-1.35s8.08,7.41,12.8,7.41c0,0,14.14,15.5,29.64,19.54,0,0,7.41,12.8,19.54,12.8,0,0,9.43,2,10.78,7.41,0,0,16.17,16.85,32.34,14.82,0,0,12.8,2,6.06-20.88,0,0,22.23-5.39,17.52-21.56l-4.05-49.18s4.05-12.13-22.9-13.48S321,269.51,316.25,269.51s-27.63-8.76-65.35,15.5-93.65,49.85-93.65,49.85S72.36,383.37,43.39,415c-9.17,10-35.71,22.24-38.4,38.41s10.78,24.92,10.78,24.92,6.06,31,34.36,38.41,75.45,35.7,75.45,35.7,110.49,47.84,192,47.16c0,0,54.58,5.39,53.9,83.55,0,0,28.3-.68,43.12-70.07,0,0,25.6-68.05,26.28-79.5S448.3,496.55,448.3,496.55Z"/><path class="h" d="M721.39,646.24c3.12,20.89,2.46,32.89,2.46,32.89,12.8-39.07,61.62-14.14,82.19-11.45,100.77,13.19,163.26,9.84,199.64,3.61C972.85,670.65,846,667.68,827,659.86,809.22,652.54,743.8,620.55,721.39,646.24Z"/><g class="i"><path class="g" d="M943.63,587.75l-.28,0,.28,0Z"/><path class="g" d="M943.35,587.73l-.57-.05Z"/><path class="g" d="M897.93,431.12c-3.92-4.17-18.14-18.18-32.36-18.55-16.71-.43-18.43-10.71-18.43-10.71-1.28,3.43-7.71,6.43-7.71,6.43-39.43,18.42-20.14,27.42-20.14,27.42-12.86,2.15-24.43-6.85-24.43-6.85-10.92,4.68-15.81-1.29-16.6-2.4a21.38,21.38,0,0,0-3.21,12.15c2,14.15,21.56,7.42,21.56,7.42s0-5.39,26.95-4.72a150.64,150.64,0,0,0,25.81-1.85l1-.16,1-.16,1.06-.17,1.64-.28.91-.16,1.06-.19.83-.16,1.76-.34.75-.15,1-.21.71-.14,1.95-.42.42-.09,1-.22.61-.14,1-.22.32-.07,1.82-.43.54-.13.86-.21.49-.12,1.41-.36.46-.11.75-.2.43-.11,1.2-.32.38-.1.6-.17.41-.11.84-.23.4-.12.44-.12.34-.1.35-.1.54-.16.25-.08.3-.09.17-.05.29-.09.14,0,.15,0,0,0,.06,0c1.07.74,2.12,1.51,3.16,2.3l.67.51c1,.8,2.06,1.62,3.06,2.47h0c44.22,37.42,56.44,118.69,56.44,118.69a145.1,145.1,0,0,0,5.39,31.66,83.75,83.75,0,0,1,26.63,6.43C958.65,511.88,919.16,450.47,897.93,431.12Z"/><path class="g" d="M942.24,587.64l-.31,0Z"/></g><path class="h" d="M339.71,581.43C262,538.79,257.6,586.66,33.18,507.94a42.62,42.62,0,0,0,17,8.83c28.29,7.41,75.45,35.7,75.45,35.7s110.49,47.84,192,47.16c0,0,54.25,5.37,53.9,82.87C382.42,664.74,403.62,616.47,339.71,581.43Z"/><path class="f" d="M541.57,251s0-13.5,16.07-27.64c0,0-14.78-4.5-21.21,1.93-6.27,6.26,2.13-16.17,10.89-28-37.64,32.62-45.8,84.38-45.8,84.38,10.78-2.36,13.81,2.35,12.47,14.48s6.4,16.51,6.4,16.51c10.85-39.44,31.91-61,55.29-72.24l.61-1S554.43,242.64,541.57,251Z"/><path class="j" d="M586.41,698a10.09,10.09,0,0,0-6,9.2h0v70a3.48,3.48,0,0,1-4.49,3.33,37.46,37.46,0,0,1-26.66-35.85v-2.07c0-.39,0-.77.08-1.16v-.31c.1-1,.24-2,.41-3l.06-.32q.12-.64.27-1.29v-.22c.24-1,.51-2,.83-3l.06-.2c.16-.47.32-.93.49-1.39h0a26.11,26.11,0,0,1,1.22-2.89.16.16,0,0,1,.07-.16c.45-.94.93-1.86,1.46-2.75v0c.23-.41.48-.81.74-1.21l.15-.24c.24-.37.49-.74.75-1.1l.09-.14c.28-.39.56-.78.86-1.16l.26-.34a46.2,46.2,0,0,1,4.17-4.56c.64-.59,1.31-1.15,2-1.67a4.18,4.18,0,0,0,.8-5.87,4.59,4.59,0,0,0-.36-.41l-3.07-3.06a4.18,4.18,0,0,0-5.56-.3,51.07,51.07,0,0,0-6.51,6.31h0l-.07.09c-.45.52-.88,1-1.3,1.58h0c-.4.51-.79,1-1.18,1.55l-.19.27c-.78,1.09-1.51,2.21-2.2,3.36l-.19.32c-.68,1.14-1.31,2.32-1.9,3.53-.06.11-.11.23-.17.35-.26.55-.52,1.11-.76,1.67,0,.06-.05.11-.07.17-.27.61-.51,1.23-.75,1.85a1.53,1.53,0,0,1-.14.39c-.21.55-.4,1.11-.59,1.67l-.1.27c-.2.63-.39,1.27-.57,1.91a1.78,1.78,0,0,1-.1.36l-.42,1.65a2.13,2.13,0,0,1-.1.42c-.15.65-.29,1.31-.41,2a.52.52,0,0,1-.05.27c-.1.59-.2,1.18-.28,1.77a3.85,3.85,0,0,1-.07.49c-.09.67-.17,1.34-.23,2v.22c0,.61-.09,1.22-.13,1.84v2.6h0a50.1,50.1,0,0,0,41,49.18,3.49,3.49,0,0,1,2.89,3.43v18.92a3.48,3.48,0,0,0,3.48,3.48h5.56a3.48,3.48,0,0,0,3.48-3.48V797.41a3.47,3.47,0,0,1,2.8-3.41,50.08,50.08,0,0,0,6.1-97,21.83,21.83,0,0,0-15.46,1Zm34.16,63a37.39,37.39,0,0,1-23.14,19.68,3.47,3.47,0,0,1-4.31-2.36,3.19,3.19,0,0,1-.15-1V715.74a6,6,0,0,1,6-6,6.08,6.08,0,0,1,2.27.45,37.42,37.42,0,0,1,20.13,48.95c-.26.61-.53,1.21-.82,1.81Z"/><path class="j" d="M469.8,866.47a10.57,10.57,0,0,1-1.66-.32A14.21,14.21,0,0,0,466,866c-.49,0-1.3,0-1.63.49-.45.76-.35,4.3-.36,5.12l4.51,0c1,0,1.49.22,1.48,1.45,0,.67,0,1.33,0,2,0,1.49-.34,1.95-1.64,1.93l-4.42,0q-.09,8.37-.17,16.76c0,1.33-.21,2.3-1.61,2.28l-2.83,0c-1.21,0-1.35-.84-1.33-2q.09-8.5.19-17l-1.35,0c-1,0-1.07-.88-1.06-1.8,0-.74,0-1.47,0-2.2,0-1.79,1.28-1.41,2.46-1.4,0-.69,0-1.38,0-2.08,0-2.15.09-4.23,1.24-6,1.88-2.83,4.89-2.93,7.77-2.89.88,0,3.14,0,3.72,1a2.23,2.23,0,0,1,.22,1.08V863C471.17,864,471.15,866.48,469.8,866.47ZM479,868.1h-1.71c-1.62,0-2.38-.29-2.36-2.33,0-.59,0-1.19,0-1.79,0-1.63.6-2.24,2-2.23l2.11,0a1.88,1.88,0,0,1,1.8,2c0,.11,0,.21,0,.32,0,.6,0,1.19,0,1.79C480.84,867.25,480.42,868.12,479,868.1Zm-.18,28.12h-1.72c-1.63,0-2.4-.29-2.39-2.33l.15-19.94c0-1.64.6-2.24,2-2.23l2.12,0a1.9,1.9,0,0,1,1.81,1.95,1.72,1.72,0,0,1,0,.32l-.12,19.94c0,1.43-.42,2.3-1.83,2.28Z"/><path class="j" d="M495.12,896.94a39.15,39.15,0,0,1-6.49-.39c-1.36-.21-1.26-.92-1.25-2.36v-.92c-.05-1.12.1-2.35,1.32-2.35a18.87,18.87,0,0,1,2.36.33c1.54.16,3.12.26,4.71.27s2.26,0,2.26-1.88a3.13,3.13,0,0,0-.26-1.69c-.36-.51-4.34-1.75-5.06-2a25.27,25.27,0,0,1-2.59-1.2c-2.35-1.34-3.2-2.83-3.18-5.79,0-7.88,4.72-7.74,10.27-7.73,1.13,0,2.21,0,3.33.12,1.62.16,2.26.52,2.25,2.51,0,1.48.09,3.17-1.67,3.16-.77,0-1.58-.15-2.35-.2a25.49,25.49,0,0,0-3.6-.22c-1.72,0-2.65-.26-2.66,2a1.52,1.52,0,0,0,.23,1c.44.71,4.73,2,5.68,2.37,3.53,1.34,5.19,2.67,5.19,7.17C503.64,896,500.71,897,495.12,896.94Z"/><path class="j" d="M513.89,868.23h-1.68c-1.62,0-2.39-.26-2.39-2.3v-1.79c0-1.64.59-2.25,2-2.25h2.12a1.88,1.88,0,0,1,1.77,2,2.17,2.17,0,0,1,0,.26v1.79C515.73,867.35,515.28,868.22,513.89,868.23Zm0,28.12h-1.69c-1.63,0-2.4-.26-2.4-2.3q0-10,0-19.94c0-1.64.59-2.25,2-2.25h2.12a1.89,1.89,0,0,1,1.78,2,2.17,2.17,0,0,1,0,.26q0,10,0,19.94c0,1.43-.4,2.3-1.81,2.31Z"/><path class="j" d="M535.78,896.67a35.34,35.34,0,0,1-3.84.24c-8.87.06-10.36-3.38-10.39-12.89s1.45-13,10.24-13a28.8,28.8,0,0,1,3.82.23c1.36.14,2.48,0,2.49,1.71V873c0,1.28,0,4-1.59,4a10.66,10.66,0,0,1-1.77-.2,30.22,30.22,0,0,0-4.25-.37c-1.89,0-2.24.42-2.63,2.42a27.33,27.33,0,0,0-.34,5.11,47.42,47.42,0,0,0,.2,4.91c.2,2.3.9,2.55,2.86,2.54a29.71,29.71,0,0,0,4.31-.45,10.44,10.44,0,0,1,1.76-.21,1.2,1.2,0,0,1,1.1.5c.36.41.56,2.86.56,3.47C538.27,896.57,537.19,896.48,535.78,896.67Z"/><path class="j" d="M559.94,896l-2.54,0c-1,0-1.32-.75-1.33-1.82a11.42,11.42,0,0,1-6.69,2.6c-4.43.06-6.5-2.63-6.54-7.54-.05-5.58,2.87-7.5,7.29-8.09a35.67,35.67,0,0,1,5.74-.48c0-2,.21-4.92-2.32-4.88a25.72,25.72,0,0,0-6.48,1.15,3.64,3.64,0,0,1-1.08.17c-1.58,0-1.32-1.77-1.34-3.05a1.89,1.89,0,0,1,1.25-2.16,28,28,0,0,1,7.38-1.1c2.16,0,4.91.34,6.47,2.26,1.79,2.22,1.78,5.39,1.82,8.26l.15,12.42C561.74,895.2,561.3,895.92,559.94,896Zm-4-10.74c-.72,0-1.49-.07-2.22-.06a18,18,0,0,0-2.84.18c-1.9.34-2.64,1-2.62,3.26,0,1.23.22,3.43,1.71,3.41a9.64,9.64,0,0,0,6-2.65C556,888,556,886.59,556,885.21Z"/><path class="j" d="M571.94,895.74l-1.63,0c-1.63,0-2.4-.22-2.43-2.26q-.23-15.33-.43-30.67c0-1.64.55-2.22,1.94-2.24l2,0a1.81,1.81,0,0,1,1.8,1.83c0,.11,0,.22,0,.34q.22,15.33.47,30.67C573.7,894.83,573.35,895.71,571.94,895.74Z"/><path class="j" d="M593.66,895.67a32.93,32.93,0,0,1-3.85.31c-8.86.22-10.39-3.19-10.55-12.7s1.27-13,10-13.23a30.75,30.75,0,0,1,3.84.16c1.35.12,2.48,0,2.51,1.67V872c0,1.28.09,4-1.54,4a10.39,10.39,0,0,1-1.76-.17,30.26,30.26,0,0,0-4.25-.3c-1.89,0-2.25.46-2.6,2.47a27.39,27.39,0,0,0-.27,5.12c0,1.63.11,3.27.28,4.9.22,2.3.93,2.53,2.9,2.49a29.59,29.59,0,0,0,4.28-.52,10.48,10.48,0,0,1,1.77-.25,1.2,1.2,0,0,1,1.09.48c.37.4.6,2.86.62,3.47C596.15,895.54,595.06,895.47,593.66,895.67Z"/><path class="j" d="M611.52,895.4c-7.56.24-10.53-4.6-10.7-12.62s2.51-13.07,10.07-13.31,10.44,4.57,10.66,12.66S619.17,895.16,611.52,895.4Zm3.25-19c-.85-1.66-2.21-1.57-3.74-1.52s-2.89.09-3.66,1.75-.79,4.17-.75,6,.19,4.34,1,5.9,2.26,1.52,3.74,1.48,2.91,0,3.68-1.71.71-4.22.66-6-.13-4.29-.92-5.9Z"/><path class="j" d="M643.65,893.57l-2.53.1c-1,.05-1.34-.71-1.37-1.78a11.56,11.56,0,0,1-6.63,2.77c-4.43.16-6.55-2.47-6.68-7.38-.16-5.58,2.72-7.57,7.12-8.27a35.75,35.75,0,0,1,5.73-.63c-.06-2,.11-4.92-2.41-4.82a25.77,25.77,0,0,0-6.46,1.32,4,4,0,0,1-1.08.2c-1.57.06-1.35-1.74-1.39-3a1.92,1.92,0,0,1,1.2-2.2,28.41,28.41,0,0,1,7.35-1.28c2.17-.08,4.93.22,6.52,2.09,1.83,2.18,1.88,5.35,2,8.22q.21,6.2.41,12.41C645.44,892.78,645,893.51,643.65,893.57Zm-4.13-10.63c-.73,0-1.5,0-2.22,0a18.07,18.07,0,0,0-2.84.26c-1.89.38-2.62,1.1-2.56,3.32,0,1.23.29,3.42,1.78,3.36a9.7,9.7,0,0,0,6-2.79C639.62,885.7,639.57,884.32,639.52,882.94Z"/><path class="j" d="M665.17,893.05a35.24,35.24,0,0,1-3.83.39c-8.86.41-10.44-3-10.76-12.47s1-13.05,9.83-13.45a30.65,30.65,0,0,1,3.83.08c1.36.09,2.47-.07,2.53,1.61v.11c.05,1.28.15,4-1.47,4.07a10.39,10.39,0,0,1-1.77-.12,30.39,30.39,0,0,0-4.26-.21c-1.89.08-2.24.51-2.56,2.53a28.23,28.23,0,0,0-.17,5.12c.05,1.63.16,3.26.35,4.9.25,2.29,1,2.5,2.93,2.41a29.74,29.74,0,0,0,4.29-.61,10.41,10.41,0,0,1,1.76-.28,1.19,1.19,0,0,1,1.1.46c.38.39.65,2.84.67,3.45C667.66,892.86,666.58,892.81,665.17,893.05Z"/><path class="j" d="M689.69,891.36l-2.4.13c-1.31.07-1.67-.91-1.73-2.21L685,876.21c0-.72,0-3.54-.48-4a1.66,1.66,0,0,0-1.46-.33,9.29,9.29,0,0,0-5.4,2.63l.6,15.18c.06,1.42-.27,2.31-1.67,2.38l-2.4.13c-1.22.06-1.66-.69-1.71-1.92q-.6-15.49-1.19-31c-.07-1.64.49-2.23,1.89-2.3l2-.1a1.79,1.79,0,0,1,1.84,1.77,1.93,1.93,0,0,1,0,.34q.18,4.72.38,9.45a13.17,13.17,0,0,1,6-2.06c4.18-.22,7,2,7.24,6.87q.35,7.85.68,15.68C691.42,890.39,691.09,891.28,689.69,891.36Z"/></g><path class="j" d="M634.86,406.43s-5.86-.72-8-2.43-11-14.14-20.15-9.14c0,0-5.67-7.36-12.1-6.93s-21.61.78-27.9-5.07c0,0,1,16.85,26.29,26.28S631.71,412.29,634.86,406.43Z"/><path class="k" d="M634.64,406.54a.16.16,0,0,0,.11.14h-1l-1,0q-1-.08-2.07-.21a12.57,12.57,0,0,1-4.22-1.25,11.42,11.42,0,0,1-1.79-1.44l-1.49-1.35c-1-.89-2-1.76-3-2.55a19.81,19.81,0,0,0-6.34-3.57,7.32,7.32,0,0,0-6.07.57,2.22,2.22,0,0,1-2.81-.52l-.06-.08a28.5,28.5,0,0,0-3.41-3.46,16.49,16.49,0,0,0-1.94-1.44,12.65,12.65,0,0,0-2-1.12,9.14,9.14,0,0,0-2.13-.59c-.64-.11-1.69-.08-2.58-.12-1.84-.06-3.68-.15-5.51-.29l-2.74-.22c-.91-.11-1.83-.18-2.74-.31-1.82-.18-3.63-.49-5.45-.8-3.59-.74-7.28-1.7-10.44-4.21l1.87-.88a18.15,18.15,0,0,0,1.57,4.58c.33.75.78,1.45,1.18,2.17s.92,1.37,1.38,2a35.79,35.79,0,0,0,6.9,7,19.15,19.15,0,0,0,2,1.47c.7.45,1.34,1,2.07,1.37,1.46.8,2.84,1.7,4.38,2.37l2.26,1.08,2.33.92c.78.3,1.55.64,2.34.92l2.41.84c3.19,1.14,6.44,2.05,9.71,2.87a63.07,63.07,0,0,0,9.92,1.51,35.65,35.65,0,0,0,9.89-.74c.8-.19,1.58-.46,2.37-.72a17,17,0,0,0,2.26-1,14.14,14.14,0,0,0,2.1-1.35Zm.44-.23a9.12,9.12,0,0,1-.6,1.47l-.79,1.13a12.84,12.84,0,0,1-2,1.95,19,19,0,0,1-2.27,1.61,25,25,0,0,1-7.76,2.83c-.9.15-1.81.39-2.72.45s-1.82.19-2.74.24a54.93,54.93,0,0,1-10.88-.69,71.24,71.24,0,0,1-10.46-2.66l-2.55-.88c-.84-.31-1.67-.69-2.51-1s-1.67-.72-2.5-1.1l-2.41-1.28a48.83,48.83,0,0,1-4.69-2.85c-.77-.5-1.47-1.11-2.21-1.65a22.33,22.33,0,0,1-2.12-1.77c-.68-.63-1.38-1.22-2-1.9L572,398.11c-.57-.73-1.11-1.48-1.66-2.23s-1-1.56-1.47-2.36-.85-1.65-1.23-2.49-.72-1.7-1-2.59a21.46,21.46,0,0,1-1.1-5.52v-.05a1.1,1.1,0,0,1,1.87-.83c2.31,2.35,5.79,3.63,9.23,4.35a42.24,42.24,0,0,0,10.66.66c1.78-.08,3.57-.26,5.34-.49a28,28,0,0,1,2.84-.31,9.67,9.67,0,0,1,1.62.07c.54.06,1.05.2,1.57.31a16.82,16.82,0,0,1,5.45,2.73,18.88,18.88,0,0,1,2.27,1.9,22.17,22.17,0,0,1,2,2.22l-2.87-.6a11.45,11.45,0,0,1,4.78-1.35,11.78,11.78,0,0,1,4.8.74,17.46,17.46,0,0,1,4,2.15,23.59,23.59,0,0,1,3.31,2.79c1,1,2,2,2.83,3.09l1.28,1.59a10.57,10.57,0,0,0,1.16,1.33,11.7,11.7,0,0,0,3.27,1.7q.93.36,1.89.66l1,.31.48.15.25.07.12,0,.07,0A.39.39,0,0,1,635.08,406.31Z"/><ellipse class="e" cx="584.8" cy="307.73" rx="8.84" ry="6.59" transform="translate(105.7 762.87) rotate(-71.28)"/><ellipse class="e" cx="660.02" cy="330.88" rx="8.84" ry="6.59" transform="translate(134.86 849.83) rotate(-71.28)"/><path class="e" d="M618.5,294.56a59,59,0,0,1-8.88-2.08c-2.85-.87-5.62-1.86-8.33-2.92a69.23,69.23,0,0,1-7.83-3.7,67.67,67.67,0,0,0-7.64-3.78,31.72,31.72,0,0,0-3.79-1.26,7.77,7.77,0,0,0-3.43-.19,51,51,0,0,0-8.27,1.69c-2.78.76-5.54,1.7-8.27,2.73a70.66,70.66,0,0,0-8,3.55l-.46-.66A58.54,58.54,0,0,1,561,282.8a83.24,83.24,0,0,1,8-4.23,54.88,54.88,0,0,1,8.71-3.18l1.19-.25.61-.12.79-.07A14.49,14.49,0,0,1,583,275a37.62,37.62,0,0,1,4.77.95c3,.8,6,1.65,8.84,2.61a42.94,42.94,0,0,1,8.2,3.77,65.82,65.82,0,0,1,7.44,5.11,44.9,44.9,0,0,1,6.64,6.39Z"/><path class="e" d="M648.93,303.24a33.57,33.57,0,0,1,11.21-2c.94,0,1.89,0,2.83,0s1.89.07,2.83.19,1.88.22,2.82.38,1.86.41,2.78.65a27.19,27.19,0,0,1,2.72.92c.45.17.9.32,1.34.51l1.32.61c.87.43,1.75.8,2.61,1.27s1.7.94,2.56,1.38a39.58,39.58,0,0,1,9.32,7.14l.24.26,0,.07a8.62,8.62,0,0,1,.47.84c.14.26.27.51.39.77.25.51.45,1,.67,1.54a32.89,32.89,0,0,1,1,3.14,29.29,29.29,0,0,1,1,6.41,30,30,0,0,1-.34,6.36,33.18,33.18,0,0,1-1.57,6.05l-.78-.2c.09-1,.24-2,.28-3s.09-2,0-3a31.11,31.11,0,0,0-.76-5.81,28,28,0,0,0-1.83-5.43,26.88,26.88,0,0,0-1.28-2.51c-.24-.39-.48-.79-.74-1.16a11.35,11.35,0,0,0-.73-1l.28.33a34,34,0,0,0-8.57-4.89c-3.14-1.23-6.53-1.76-9.81-2.59s-6.61-1.82-10-2.84A108.21,108.21,0,0,1,648.93,304Z"/><path class="k" d="M632.86,327.71c.6,6.17.91,12.32,1.31,18.41.24,3,.42,6.11.89,8.94l.4,2.28c.13.79.24,1.58.32,2.39a29.6,29.6,0,0,1,.14,4.91,16.86,16.86,0,0,1-1.07,5.1,8.76,8.76,0,0,1-3.7,4.42,10.27,10.27,0,0,1-5.42,1.17,36.56,36.56,0,0,1-4.78-.51,28.07,28.07,0,0,1-9.08-3.09,16.18,16.18,0,0,1-3.79-3,8.9,8.9,0,0,1-2.22-4.16c1.48,2.77,4.14,4.36,6.86,5.39a31.55,31.55,0,0,0,8.62,1.76c1.47.09,2.94.12,4.41.08a7.21,7.21,0,0,0,3.45-.89c1.81-1.1,2.56-3.76,2.73-6.52a29.53,29.53,0,0,0-.07-4.3c-.06-.72-.14-1.46-.23-2.19s-.22-1.42-.31-2.27a64,64,0,0,1-.26-9.45A133.07,133.07,0,0,1,632.86,327.71Z"/></g></svg>