<?xml version="1.0" encoding="utf-8"?>
<!-- Generator: Adobe Illustrator 25.4.1, SVG Export Plug-In . SVG Version: 6.00 Build 0)  -->
<svg version="1.1" id="Capa_1" xmlns="http://www.w3.org/2000/svg" xmlns:xlink="http://www.w3.org/1999/xlink" x="0px" y="0px"
	 viewBox="0 0 572.8 503.8" style="enable-background:new 0 0 572.8 503.8;" xml:space="preserve">
<style type="text/css">
	.st0{fill:none;stroke:#00E9C5;stroke-width:19;stroke-linecap:round;stroke-linejoin:round;stroke-miterlimit:10;}
	.st1{fill:none;stroke:#FFFFFF;stroke-width:22;stroke-miterlimit:10;}
</style>
<path class="st0" d="M173.7,243.5c12.3-50.8,58.2-88.6,112.7-88.6c64,0,116,52,116,116s-52,116-116,116
	c-54.5,0-100.3-37.8-112.7-88.5"/>
<line class="st0" x1="286.4" y1="154.8" x2="286.4" y2="116.9"/>
<line class="st0" x1="256.4" y1="116.9" x2="316.4" y2="116.9"/>
<line class="st0" x1="345" y1="212.7" x2="286.4" y2="271.4"/>
<g>
	<path class="st1" d="M209.9,280.9h-72.5c-5.2,0-9.5-4.3-9.5-9.5s4.3-9.5,9.5-9.5h72.5c5.2,0,9.5,4.3,9.5,9.5
		S215.2,280.9,209.9,280.9z"/>
	<path class="st1" d="M173.7,317.1c-5.2,0-9.5-4.3-9.5-9.5v-72.5c0-5.2,4.3-9.5,9.5-9.5s9.5,4.3,9.5,9.5v72.5
		C183.2,312.9,178.9,317.1,173.7,317.1z"/>
</g>
<g>
	<line class="st0" x1="137.4" y1="271.4" x2="209.9" y2="271.4"/>
	<line class="st0" x1="173.7" y1="235.1" x2="173.7" y2="307.6"/>
</g>
</svg>
