<?xml version="1.0" encoding="utf-8"?>
<!-- Generator: Adobe Illustrator 25.4.1, SVG Export Plug-In . SVG Version: 6.00 Build 0)  -->
<svg version="1.1" xmlns="http://www.w3.org/2000/svg" xmlns:xlink="http://www.w3.org/1999/xlink" x="0px" y="0px"
	 viewBox="0 0 1141.9 1080" style="enable-background:new 0 0 1141.9 1080;" xml:space="preserve">
<style type="text/css">
	.st0{display:none;}
	.st1{fill:#EAEAEA;}
	
		.st2{clip-path:url(#SVGID_00000040567743501073652960000001913684516531819956_);fill:url(#SVGID_00000134938947805378570590000007277148244253993135_);}
	
		.st3{opacity:0.5;clip-path:url(#SVGID_00000040567743501073652960000001913684516531819956_);fill:url(#SVGID_00000183238960108198752210000000973817221635169704_);}
	.st4{clip-path:url(#SVGID_00000040567743501073652960000001913684516531819956_);fill:#EDF219;}
	.st5{clip-path:url(#SVGID_00000040567743501073652960000001913684516531819956_);fill:#EFD4B4;}
	
		.st6{clip-path:url(#SVGID_00000040567743501073652960000001913684516531819956_);fill:url(#SVGID_00000173153987489765196040000003567639294020480936_);}
	.st7{opacity:0.5;clip-path:url(#SVGID_00000040567743501073652960000001913684516531819956_);fill:#EFD4B4;}
	.st8{clip-path:url(#SVGID_00000040567743501073652960000001913684516531819956_);fill:#CCAB87;}
	
		.st9{opacity:0.5;clip-path:url(#SVGID_00000040567743501073652960000001913684516531819956_);fill:url(#SVGID_00000159446000953753004250000001700697246130565802_);}
	.st10{clip-path:url(#SVGID_00000040567743501073652960000001913684516531819956_);fill:#00E9C5;}
	.st11{clip-path:url(#SVGID_00000040567743501073652960000001913684516531819956_);}
	.st12{fill:#EDF219;}
	.st13{clip-path:url(#SVGID_00000040567743501073652960000001913684516531819956_);fill:#703A28;}
	.st14{clip-path:url(#SVGID_00000040567743501073652960000001913684516531819956_);fill:none;}
	
		.st15{clip-path:url(#SVGID_00000040567743501073652960000001913684516531819956_);fill:url(#SVGID_00000084507933138881119670000004279038080326362297_);}
	.st16{fill:#CCAB87;}
	.st17{fill:#703A28;}
	.st18{clip-path:url(#SVGID_00000040567743501073652960000001913684516531819956_);fill:#442317;}
	.st19{clip-path:url(#SVGID_00000040567743501073652960000001913684516531819956_);fill:#FFFFFF;}
	.st20{opacity:0.5;clip-path:url(#SVGID_00000040567743501073652960000001913684516531819956_);}
	.st21{fill:#0DB796;}
	
		.st22{clip-path:url(#SVGID_00000040567743501073652960000001913684516531819956_);fill:url(#SVGID_00000127760308836683625870000006770871339237456792_);}
	.st23{opacity:0.5;clip-path:url(#SVGID_00000040567743501073652960000001913684516531819956_);fill:#C1C1C1;}
	.st24{fill:#FFFFFF;}
	.st25{fill:#EFD4B4;}
	.st26{fill:#606060;}
</style>
<g id="Capa_1" class="st0">
	
		<image style="display:inline;overflow:visible;opacity:0.34;" width="500" height="334" xlink:href="6731ACFB39D9B856.jpg"  transform="matrix(2.2482 0 0 2.2482 -63.6143 203.7064)">
	</image>
</g>
<g id="Capa_3">
</g>
<g id="Capa_4">
</g>
<g id="Capa_5">
	<g>
		<path class="st1" d="M974.8,449c-41.2-17.4-79.6-42.4-104.2-79.7s-26.5-178.5-94-261.5c-64.4-79.2-346.1-185.1-457.9,79.9
			c-24.4,57.7-62.2,109.7-105.1,155.3c-50,53.2-123.7,83.1-162.9,144.7c-24.5,38.5-32.5,87.2-21.7,131.5s40.5,83.8,80,106.6
			c101,58.3,240.3,3.8,339.3,65.4c32,19.9,43.6,53.9,71.6,78.4C894.6,1198.9,1346.6,605.9,974.8,449z"/>
	</g>
</g>
<g id="Capa_2">
	<g>
		<defs>
			<path id="SVGID_1_" d="M974.8,449c-41.2-17.4-79.6-42.4-104.2-79.7s-26.5-178.5-94-261.5c-64.4-79.2-346.1-185.1-457.9,79.9
				c-24.4,57.7-62.2,109.7-105.1,155.3c-50,53.2-123.7,83.1-162.9,144.7c-24.5,38.5-32.5,87.2-21.7,131.5s40.5,83.8,80,106.6
				c101,58.3,240.3,3.8,339.3,65.4c32,19.9,43.6,53.9,71.6,78.4C894.6,1198.9,1346.6,605.9,974.8,449z"/>
		</defs>
		<clipPath id="SVGID_00000154402797599609068150000004880503453822074559_">
			<use xlink:href="#SVGID_1_"  style="overflow:visible;"/>
		</clipPath>
		
			<linearGradient id="SVGID_00000001647403144511147880000002851874765762028478_" gradientUnits="userSpaceOnUse" x1="455.2748" y1="724.2842" x2="985.4633" y2="724.2842">
			<stop  offset="0" style="stop-color:#353535"/>
			<stop  offset="1" style="stop-color:#000000"/>
		</linearGradient>
		
			<path style="clip-path:url(#SVGID_00000154402797599609068150000004880503453822074559_);fill:url(#SVGID_00000001647403144511147880000002851874765762028478_);" d="
			M455.3,626.8c0,0,10.4,8.6,13.1,25c2.7,16.5,9,61.2,30.6,77.7c0,0,2.2,11.8-2.8,23.5c-5,11.8,8.3,54.1,2.8,71.8
			c-5.5,17.7-24.3,78.4-16.1,124c8.2,45.5,328.4,68.6,320.2,0c-8.2-68.6,34.1-149.9,34.1-149.9s0,59.7,24.7,104.8
			c24.7,45.1,11.8,60,11.8,60s111.8,41.9,111.8-14.9s-3.5-32.1-9.4-85.1c-5.9-53,9.4-87.2-14.1-170.1s2.4-101.3-60-161
			c-62.4-59.7-36.6-10.9-78.9-58.8l-122.7,19.4l-139.7-36.8L455.3,557.7V626.8z"/>
		
			<linearGradient id="SVGID_00000178179413131750525960000018071420963096319652_" gradientUnits="userSpaceOnUse" x1="455.2748" y1="724.848" x2="985.4633" y2="724.848">
			<stop  offset="0" style="stop-color:#353535"/>
			<stop  offset="1" style="stop-color:#000000"/>
		</linearGradient>
		
			<path style="opacity:0.5;clip-path:url(#SVGID_00000154402797599609068150000004880503453822074559_);fill:url(#SVGID_00000178179413131750525960000018071420963096319652_);" d="
			M493.4,682.7c13.2,55.1,28.3,43.1,49.4,66.3c21.2,23.2-23.2,31.2-25.3,107.1s-20.3,88.5,10.9,119.3l0,0
			c90,24.8,280.9,26.7,274.6-26.5c-8.2-68.6,34.1-149.9,34.1-149.9s0,59.7,24.7,104.8c24.7,45.1,11.8,60,11.8,60
			s111.8,41.9,111.8-14.9s-3.5-32.1-9.4-85.1c-5.9-53,9.4-87.2-14.1-170.1s2.4-101.3-60-161c-62.4-59.7-36.6-10.9-78.9-58.8
			l-122.7,19.4l-135.4-35.6L460.1,574.3l-4.9,52.5C455.3,626.8,480.2,627.5,493.4,682.7z"/>
		<path style="clip-path:url(#SVGID_00000154402797599609068150000004880503453822074559_);fill:#EDF219;" d="M899.9,971.9
			c2.4-19.8,2.6-55.2-18-84.6c-30.6-43.6-29.4-190.5-29.4-190.5s-75.3,46.9-83.6,122.2c-6.4,58.5,9.9,117.6-12.2,165.4
			c29.5-6.7,48.4-18.2,46.3-35.6c-8.2-68.6,34.1-149.9,34.1-149.9s0,59.7,24.7,104.8c24.7,45.1,11.8,60,11.8,60
			S884.7,968,899.9,971.9z"/>
		<path style="clip-path:url(#SVGID_00000154402797599609068150000004880503453822074559_);fill:#EDF219;" d="M597.7,554.2
			c81.7,20,134.7-51.8,134.7-51.8l-171.9-21.2C560.5,481.2,516,534.1,597.7,554.2z"/>
		<path style="clip-path:url(#SVGID_00000154402797599609068150000004880503453822074559_);fill:#EFD4B4;" d="M690.2,516.1
			c0,0-27.9,23.9-70.8,21.6c-43-2.4-69.4-32.6-46.5-51.2c39.8-32.4-8.7-80.6-8.7-80.6s-33.1-5.9-47.2-5.3s-26.5-17.1-10.6-48.3
			c15.9-31.2,21.2-94.8,21.2-94.8s-7.1-11.8,7.1-23.5c0,0,2.9-33,34.7-50s25.3,21.2,80,22.4c0,0,38.3,11.2,7.7,27.1
			c0,0,7.1,12.1-9.4,57.4c-16.5,45.3,17.1-12.7,17.1-12.7l40-9.4l21.8,24.7l-18.8,45.3L710,377l16.5,56L690.2,516.1"/>
		
			<linearGradient id="SVGID_00000134229855406893034280000016605846493555304884_" gradientUnits="userSpaceOnUse" x1="138.0832" y1="495.2659" x2="431.5571" y2="495.2659">
			<stop  offset="0" style="stop-color:#353535"/>
			<stop  offset="1" style="stop-color:#000000"/>
		</linearGradient>
		
			<path style="clip-path:url(#SVGID_00000154402797599609068150000004880503453822074559_);fill:url(#SVGID_00000134229855406893034280000016605846493555304884_);" d="
			M339.8,507.4c0,0-2.5,4.8-17.2,4.8c-14.7,0-21.8-5.1-34.7-2.4c0,0,3.5-32.6,17.3-48.7c13.7-16.1,37.3-60.4,46.3-65.1
			c0,0-21.3-5.4-39.3-18.7c-1.7,0.2-2.7,0.3-2.7,0.3c-9.6-7.4-15.6-17.3-19.1-27.8v0c0,0-22.5,41.9-51.1,67.8
			c-28.6,25.9-74.6,83.6-87.9,126c-13.3,42.4-19.6,40-3.9,55.3s19.2,29.4,58.9,33.7c0,0,107.7,24.2,197.3-11.2
			C493,585.9,339.8,507.4,339.8,507.4z"/>
		<path style="clip-path:url(#SVGID_00000154402797599609068150000004880503453822074559_);fill:#EDF219;" d="M502.9,834.3
			c0,0,10.7-7.1,0-73c0,0,13.5-19-6.8-46.2c-20.3-27.2-3.3-71-36-95.4c-1.5-1.1-3.1-2.1-4.9-2.9v10c0,0,10.4,8.6,13.1,25
			c2.7,16.5,9,61.2,30.6,77.7c0,0,2.2,11.8-2.8,23.5c-5,11.8,8.3,54.1,2.8,71.8c-5.5,17.7-24.3,78.4-16.1,124
			c0.8,4.3,4.3,8.3,10,12.2C488.6,943.4,486.3,906.7,502.9,834.3z"/>
		<path style="opacity:0.5;clip-path:url(#SVGID_00000154402797599609068150000004880503453822074559_);fill:#EFD4B4;" d="
			M704.7,268.7l-40,9.4c0,0-35.2,77.6-26.1,48.3L592.3,375l-4.4,28.7c0,0,25.2,0.4,24.8,25.1c-0.4,24.7-10.6,21.4,3.1,42.2
			c13.6,20.8-11.3,45.5-32.1,10.2c-0.8-1.3-1.5-2.5-2.3-3.5c-2.2,3-5,6-8.5,8.8c-23,18.7,3.5,48.9,46.5,51.2
			c43,2.4,70.8-21.6,70.8-21.6l36.3-83.1L710,377l-2.4-38.3l18.8-45.3L704.7,268.7z"/>
		<path style="clip-path:url(#SVGID_00000154402797599609068150000004880503453822074559_);fill:#CCAB87;" d="M527.9,320.7
			c0,0-1.9,7.1,19.2,11.4c0,0-13.8-1.6-21.4,0C518.1,333.6,520.9,321.5,527.9,320.7z"/>
		
			<linearGradient id="SVGID_00000064312085599083220360000018219561275867123871_" gradientUnits="userSpaceOnUse" x1="189.7142" y1="507.8646" x2="431.5571" y2="507.8646">
			<stop  offset="0" style="stop-color:#353535"/>
			<stop  offset="1" style="stop-color:#000000"/>
		</linearGradient>
		
			<path style="opacity:0.5;clip-path:url(#SVGID_00000154402797599609068150000004880503453822074559_);fill:url(#SVGID_00000064312085599083220360000018219561275867123871_);" d="
			M339.8,507.4c0,0-2.5,4.8-17.2,4.8c-14.7,0-21.8-5.1-34.7-2.4c0,0,3.5-32.6,17.3-48.7c13.7-16.1,37.3-60.4,46.3-65.1
			c0,0-21.3-5.4-39.3-18.7c-1.7,0.2-2.7,0.3-2.7,0.3c-1.1-0.8-2.1-1.7-3.1-2.6c-7.1,23.2-22.6,57.4-54.8,81.4
			c-53,39.4-12.4,64.7-53,117.9c-40.6,53.1,72.1,66,72.1,66h0c38.2,1.7,87.8-1.1,132.9-18.9C493,585.9,339.8,507.4,339.8,507.4z"/>
		<path style="clip-path:url(#SVGID_00000154402797599609068150000004880503453822074559_);fill:#00E9C5;" d="M710,377
			c0,0,4.1-7.1,18.8,15.3c14.7,22.4,24.1-1.2,49.4,47.7c25.3,48.9,61.8-2.9,70.6,115.9c8.8,118.9,25.3,184.8,14.7,190.7
			c-10.6,5.9-47.1-2.4-44.1,7.1c2.9,9.4,13.5,15.3,13.5,15.3s-101.8,13.5-117.7-11.2c-15.9-24.7-3.5-54.1-14.1-100.6
			c-10.6-46.5,0-54.7-9.4-122.4S717.1,422.3,710,377z"/>
		<g style="clip-path:url(#SVGID_00000154402797599609068150000004880503453822074559_);">
			<path class="st12" d="M154.4,557.7c18.8-42.4,45.9-85.9,93-135.4c23.7-24.9,38.4-46.8,47.3-62.4c-1.7-3.3-3.2-6.7-4.3-10.1v0
				c0,0-22.5,41.9-51.1,67.8c-28.6,25.9-74.6,83.6-87.9,126c-11,35-17.2,39.5-10.2,48.6C143.1,582.1,148.7,570.5,154.4,557.7z"/>
			<path class="st12" d="M418.4,613.7c-45.5,4.8-115.3,28-192.5,22.4c35.2,5.1,111.3,11.5,177.5-14.7
				C409.5,619,414.4,616.4,418.4,613.7z"/>
		</g>
		<path style="clip-path:url(#SVGID_00000154402797599609068150000004880503453822074559_);fill:#00E9C5;" d="M558.7,405.2
			c0,0-27.1,24.7-41.2,57.1c0,0-63-17.4-121.2,8.7s-29.4,24.2-72.4,45.1c0,0-15.9,9.2,61.2,86.9c0,0,40,37.7,48.3,57.1
			c0,0,36-57.1,55.4-77.7s30-76.5,84.1-95.9S578.8,402.3,558.7,405.2z"/>
		<path style="clip-path:url(#SVGID_00000154402797599609068150000004880503453822074559_);fill:#703A28;" d="M569.3,183.9
			c0,0-15.9-33.9,18.6-30.4c34.5,3.5,36.5-20.8,84.4,4.7s52.2,33.7,67.5,32.6c0,0,2.7,1.2-7.1,5.1c0,0,2.4,6.3,9,5.5
			c0,0,0.4,3.5-5.9,5.1c0,0,9,8.2,9.8,21.6s7.1,59.6-11,94.2S709.5,354.7,710,377c0,0-16.5-10-9.8-43.4c0,0,31-31.4,12.6-48.7
			c-18.4-17.3-41.6,2.7-43.9,5.9c-2.4,3.1-12.6,12.2-16.1,28.3s2.4,45.5-14.1,59.6c-16.5,14.1-27.9,25.1-74.4,27.1
			s-68-6.3-67.6-22.4c0.4-16.1,9.8-31.2,9.8-31.2s0.8-11.2,14.5-10.4c13.7,0.8-7.1,10.6-3.1,14.5c3.9,3.9,3.5,21.2,30.2,5.9
			s27.9-20,58.1-25.1c30.2-5.1,37.3-33.7,35.3-51.4c0,0,17.7-26.3,2.7-48.7c0,0,12.6-5.5,11-27.9c0,0-37.7-2-51.4-11.8
			C589.9,187.7,592.7,182.6,569.3,183.9z"/>
		<path style="clip-path:url(#SVGID_00000154402797599609068150000004880503453822074559_);fill:none;" d="M427.9,363.5
			c0.9-1,1.8-1.9,2.7-2.8c-2.8,0.4-5.7,0.9-8.6,1.3C427.9,365.9,427.9,363.5,427.9,363.5z"/>
		
			<linearGradient id="SVGID_00000088117733938758044150000015826233644588010426_" gradientUnits="userSpaceOnUse" x1="463.5959" y1="277.5049" x2="528.5855" y2="277.5049">
			<stop  offset="0" style="stop-color:#353535"/>
			<stop  offset="1" style="stop-color:#000000"/>
		</linearGradient>
		
			<path style="clip-path:url(#SVGID_00000154402797599609068150000004880503453822074559_);fill:url(#SVGID_00000088117733938758044150000015826233644588010426_);" d="
			M463.6,250.2l15.7-2.9c0,0-15.3-38.8,0-47.4c15.3-8.6,22,30.6,22.4,44.6c0,0,26.8,24.5,26.9,61.8s-10.6,48.5-45,50.2L463.6,250.2z
			"/>
		<path style="clip-path:url(#SVGID_00000154402797599609068150000004880503453822074559_);fill:#00E9C5;" d="M498.9,290.8
			c-11-37.2-24.7-41.7-35.3-40.6c0,0-1.6,6.2-29,10.9c-27.5,4.7-126,19.6-136.2,21.6c-7.6,1.5-18.1,37.1-8.1,67.2l0,0
			c4.1,11.6,12.5,20.6,21.8,27.5c10-1,46.2-4.7,79.3-10.3c10.3-1.8,20.6-3.5,30.6-5c2.9-0.5,5.8-0.9,8.6-1.3
			c21.4-21.5,33-16.7,33-16.7c7.5,4.7,4.8,8.3,0.9,12.6c8.5-0.7,15.2-0.8,19.1-0.1C496.2,358.8,509.9,328,498.9,290.8z"/>
		<path style="clip-path:url(#SVGID_00000154402797599609068150000004880503453822074559_);fill:#00E9C5;" d="M309.4,377.6
			c0,0,1-0.1,2.7-0.3c-9.3-6.9-17.7-16-21.8-27.5l0,0v0C293.8,360.3,299.8,370.2,309.4,377.6z"/>
		<path style="clip-path:url(#SVGID_00000154402797599609068150000004880503453822074559_);fill:#EFD4B4;" d="M463.6,343.9
			c0,0-11.6-4.7-33,16.7c-0.9,0.9-1.8,1.8-2.7,2.8c0,0,0,2.5-5.9-1.5c-10,1.6-20.4,3.3-30.6,5c-33.1,5.7-69.3,9.4-79.3,10.3
			c18,13.3,39.3,18.7,39.3,18.7s17.5,3.9,36.6,0c19.1-3.9,25,7.1,48.5-7.5c0,0,2.8-1.6,9.2-2.7c6.5-1.2,11.6-5.8,12-17.3
			c0.1-5,3.8-8.8,6.8-12.1C468.4,352.2,471.1,348.6,463.6,343.9z"/>
		<g style="clip-path:url(#SVGID_00000154402797599609068150000004880503453822074559_);">
			<path class="st16" d="M700.2,333.6c-9.3,9.5-23.5,13.9-36.5,11.1c-5.4-1.1-13-4.1-10.1-11c0.9-2.5,2.6-4.5,3.1-7.1
				c0.3,2.6-1.1,5.1-1.5,7.6c-0.6,2.3,0.1,4.3,2.2,5.3c2.5,1.3,5.8,1.9,8.7,2.3C678,343.3,690,339.7,700.2,333.6L700.2,333.6z"/>
		</g>
		<g style="clip-path:url(#SVGID_00000154402797599609068150000004880503453822074559_);">
			<path class="st17" d="M550,243.4c5.4-7.8,15.8-12.9,25.3-10.2c0.6,0.2,1.6,0.4,2.2,0.7c6.5,2.6,12.5,6.5,18.1,10.5
				c4.4,3.2,8.7,6.6,12.7,10.3l-0.4,0.5c-6.9-4.1-13.9-8-21.2-11.4c-3.5-1.6-7-3.2-10.8-4c-0.5-0.2-1.9-0.2-2.6-0.3
				c-7.9,0-14.8,2-22.8,4.5C550.4,244,550,243.4,550,243.4L550,243.4z"/>
		</g>
		
			<ellipse style="clip-path:url(#SVGID_00000154402797599609068150000004880503453822074559_);fill:#442317;" cx="571.3" cy="261" rx="5.4" ry="8.8"/>
		<g style="clip-path:url(#SVGID_00000154402797599609068150000004880503453822074559_);">
			<path class="st17" d="M538.5,247.5c-1.8,0.5-3.1,0.7-4.6,0.7c-0.5,0-0.9-0.1-1.2-0.4c-0.6-0.6-1.3-0.9-2.2-0.7
				c-1.8,0.3-3,1.7-4.4,3.1c0,0-0.7-0.2-0.7-0.2c-0.1-2.4,0.7-5.1,2.6-6.8c1.5-1.3,3.8-1.9,5.8-2.1c2-0.1,3.6,1.2,4.5,2.9
				c0.4,0.9,0.7,1.8,0.6,3L538.5,247.5L538.5,247.5z"/>
		</g>
		<path style="clip-path:url(#SVGID_00000154402797599609068150000004880503453822074559_);fill:#442317;" d="M538.7,259
			c0,0-1.2,5.3-9.1,10.9c0,0-3.2-13.2,1.8-15S538.7,257.6,538.7,259z"/>
		<g style="clip-path:url(#SVGID_00000154402797599609068150000004880503453822074559_);">
			<path class="st16" d="M533.7,307.8c6.3-1.5,15.7-1.8,16.9-9.6c0.3-2.3,0-4.8-0.3-7.4C559.5,303.8,546,312.2,533.7,307.8
				L533.7,307.8z"/>
		</g>
		<path style="clip-path:url(#SVGID_00000154402797599609068150000004880503453822074559_);fill:#EFD4B4;" d="M445.7,258.7
			c0,0-0.9-21.7-25.7-6.5c0,0-8.6-16.4-23.5-4.9c0,0-15.4-15.7-25.9,4.9c0,0-10.6-7.5-20,2.2c-9.4,9.7-12.4,14.4-20.3,23L351,274
			c0,0,9,4.3,17.7-2c0,0,14.9,12.2,22.4-3.5c0,0,5.5,3.9,16.9,1.4c11.4-2.6,14.9-7.3,14.9-7.3S441.2,265.1,445.7,258.7z"/>
		<path style="clip-path:url(#SVGID_00000154402797599609068150000004880503453822074559_);fill:#FFFFFF;" d="M626.4,612.5
			c-2.7,1.2-4.6,4.1-4.8,7.4l0,0l-4.2,59c-0.1,1.6-1.3,2.9-2.7,2.8c-0.2,0-0.5-0.1-0.7-0.2c-11-4.8-17.9-17.6-17-31.5
			c0-0.4,0.1-0.8,0.1-1.3l0-0.4c0-0.3,0.1-0.6,0.1-1l0-0.3c0.1-0.8,0.3-1.7,0.5-2.5l0.1-0.3c0.1-0.4,0.2-0.7,0.3-1.1
			c0-0.1,0-0.1,0-0.2c0.2-0.8,0.5-1.7,0.8-2.5l0.1-0.2c0.1-0.4,0.3-0.8,0.4-1.1l0,0c0.3-0.8,0.7-1.6,1-2.4l0.1-0.1
			c0.4-0.8,0.8-1.5,1.2-2.2l0,0c0.2-0.3,0.4-0.7,0.6-1c0-0.1,0.1-0.1,0.1-0.2c0.2-0.3,0.4-0.6,0.6-0.9l0.1-0.1
			c0.2-0.3,0.4-0.6,0.7-0.9l0.2-0.3c1-1.3,2.1-2.5,3.2-3.6c0.5-0.5,1-0.9,1.5-1.3c1.4-1.1,1.8-3.3,0.9-4.9c-0.1-0.1-0.2-0.3-0.2-0.4
			l-2-2.7c-1-1.3-2.7-1.6-4-0.5c-1.8,1.5-3.5,3.1-5,5l0,0l-0.1,0.1c-0.3,0.4-0.7,0.8-1,1.3l0,0c-0.3,0.4-0.6,0.8-0.9,1.2l-0.2,0.2
			c-0.5,0.9-1.1,1.8-1.7,2.7l-0.1,0.3c-0.6,0.9-1.1,1.9-1.6,2.9c0,0.1-0.1,0.2-0.1,0.3c-0.2,0.4-0.4,0.9-0.6,1.4l-0.1,0.1
			c-0.2,0.5-0.4,1-0.6,1.5l-0.1,0.3c-0.2,0.5-0.4,0.9-0.5,1.4l-0.1,0.2c-0.2,0.5-0.4,1-0.5,1.6l-0.1,0.3c-0.1,0.5-0.3,0.9-0.4,1.4
			c0,0.1-0.1,0.2-0.1,0.3c-0.1,0.5-0.3,1.1-0.4,1.7c0,0.1,0,0.2,0,0.2c-0.1,0.5-0.2,1-0.3,1.5c0,0.1-0.1,0.3-0.1,0.4
			c-0.1,0.6-0.2,1.1-0.3,1.7c0,0.1,0,0.1,0,0.2c-0.1,0.5-0.1,1-0.2,1.5c0,0.2,0,0.3,0,0.4c0,0.6-0.1,1.2-0.1,1.7l-0.1,0
			c-1.4,20.3,9.6,38.6,26.3,43.5c1.2,0.3,2,1.6,1.9,3l-1.1,15.9c-0.1,1.6,0.9,3,2.3,3.1c0,0,0,0,0,0l4,0.3c1.4,0.1,2.6-1.1,2.7-2.8
			l0,0l1.1-15.9c0.1-1.4,1-2.5,2.2-2.7c7.2-1,14.1-4.6,19.7-10.3c2.3-2.4,4.4-5.1,6.1-8c11.5-19.4,7.6-45.6-8.6-58.6
			c-2.2-1.8-4.6-3.2-7-4.4C634,610.8,630,610.9,626.4,612.5z M647.1,667.3c-3.9,7.8-10.3,13.3-17.7,15.3c-1.3,0.4-2.7-0.6-2.9-2.2
			c0-0.3-0.1-0.6,0-0.9l3.7-51.8c0.2-2.8,2.3-4.9,4.7-4.7c0.6,0,1.1,0.2,1.6,0.5c13.2,7.7,18.3,26.6,11.5,42.3
			C647.6,666.2,647.3,666.7,647.1,667.3L647.1,667.3z"/>
		<g style="opacity:0.5;clip-path:url(#SVGID_00000154402797599609068150000004880503453822074559_);">
			<path class="st21" d="M833,769c0,0-10.6-5.9-13.5-15.3c-0.8-2.5,1.2-3.8,4.8-4.4c-9.8,0.5-34.9-0.9-67.6-21.2
				c-31.2-19.4-49.6-12.1-49.4,6.2c0.8,6.3,2.2,12.2,4.8,17.8c0.9,1.9,2,3.8,3.2,5.8C731.2,782.5,833,769,833,769z"/>
			<path class="st21" d="M828.8,748.9C828.8,748.9,828.8,748.9,828.8,748.9c10.9-0.5,28.1,1.5,34.8-2.3
				c10.6-5.9-5.9-71.8-14.7-190.7s-45.3-67.1-70.6-115.9c-14.3-27.6-23.6-32.1-31.5-34.8h0c0,0,13.3,10.4,15.9,36
				c2.6,25.6,26.5,39.9,15.9,91.5C768,584.2,826.7,709,819,724.3C811.2,739.6,828.8,748.9,828.8,748.9z"/>
		</g>
		<path style="clip-path:url(#SVGID_00000154402797599609068150000004880503453822074559_);fill:#FFFFFF;" d="M835,688.8
			c-1,0.8-1.6,2.3-1.3,3.8l0,0l4.6,26c0.1,0.7-0.3,1.4-0.9,1.5c-0.1,0-0.2,0-0.3,0c-5.3-0.9-9.7-5.7-10.8-11.8
			c0-0.2-0.1-0.4-0.1-0.6l0-0.2c0-0.1,0-0.3-0.1-0.4l0-0.1c0-0.4-0.1-0.8-0.1-1.1l0-0.1c0-0.2,0-0.3,0-0.5c0,0,0-0.1,0-0.1
			c0-0.4,0-0.8,0.1-1.2l0-0.1c0-0.2,0-0.4,0.1-0.5l0,0c0.1-0.4,0.1-0.8,0.2-1.1l0-0.1c0.1-0.4,0.2-0.7,0.3-1.1l0,0
			c0-0.2,0.1-0.3,0.2-0.5c0,0,0-0.1,0-0.1c0.1-0.2,0.1-0.3,0.2-0.5l0-0.1c0.1-0.2,0.1-0.3,0.2-0.5l0.1-0.1c0.3-0.7,0.6-1.3,1-1.9
			c0.2-0.3,0.3-0.5,0.5-0.7c0.5-0.6,0.4-1.6-0.1-2.2c0,0-0.1-0.1-0.1-0.1l-1.2-1c-0.6-0.5-1.3-0.4-1.8,0.2c-0.6,0.8-1.2,1.7-1.6,2.7
			l0,0l0,0c-0.1,0.2-0.2,0.4-0.3,0.7l0,0c-0.1,0.2-0.2,0.4-0.3,0.6l0,0.1c-0.1,0.4-0.3,0.9-0.4,1.4l0,0.1c-0.1,0.5-0.3,0.9-0.4,1.4
			c0,0,0,0.1,0,0.1c0,0.2-0.1,0.4-0.1,0.7l0,0.1c0,0.2-0.1,0.5-0.1,0.7l0,0.2c0,0.2-0.1,0.4-0.1,0.7l0,0.1c0,0.2,0,0.5-0.1,0.7
			l0,0.1c0,0.2,0,0.4,0,0.6c0,0.1,0,0.1,0,0.2c0,0.2,0,0.5,0,0.8c0,0,0,0.1,0,0.1c0,0.2,0,0.5,0,0.7c0,0.1,0,0.1,0,0.2
			c0,0.3,0,0.5,0.1,0.8c0,0,0,0.1,0,0.1c0,0.2,0,0.5,0.1,0.7c0,0.1,0,0.1,0,0.2c0,0.3,0.1,0.5,0.1,0.8l0,0c1.6,9,8.4,15.7,16.1,16
			c0.5,0,1,0.5,1.1,1.1l1.2,7c0.1,0.7,0.7,1.2,1.3,1.1c0,0,0,0,0,0l1.8-0.3c0.6-0.1,1-0.8,0.9-1.5l0,0l-1.2-7
			c-0.1-0.6,0.2-1.2,0.7-1.4c3-1.2,5.6-3.5,7.4-6.6c0.7-1.3,1.3-2.7,1.8-4.1c2.9-9.6-1.6-20.6-10.1-24.5c-1.1-0.5-2.3-0.9-3.5-1.1
			C838.1,687.2,836.4,687.7,835,688.8z M849.9,710.3c-0.8,3.8-3,6.9-6,8.6c-0.5,0.3-1.2,0-1.5-0.6c-0.1-0.1-0.1-0.2-0.1-0.4l-4-22.9
			c-0.2-1.2,0.5-2.4,1.5-2.6c0.2,0,0.5,0,0.7,0c6.5,1.9,10.8,9.6,9.6,17.1C850,709.8,849.9,710,849.9,710.3L849.9,710.3z"/>
		
			<linearGradient id="SVGID_00000080925801046445256020000001020512596517801392_" gradientUnits="userSpaceOnUse" x1="369.4232" y1="308.6044" x2="446.0426" y2="308.6044">
			<stop  offset="0" style="stop-color:#353535"/>
			<stop  offset="1" style="stop-color:#000000"/>
		</linearGradient>
		
			<path style="clip-path:url(#SVGID_00000154402797599609068150000004880503453822074559_);fill:url(#SVGID_00000080925801046445256020000001020512596517801392_);" d="
			M444,303.9c-1.3-1.7-3.7-2.6-6.1-2.2l0,0l-42.7,6.9c-1.2,0.2-2.3-0.5-2.4-1.5c0-0.2,0-0.4,0-0.5c1.6-8.7,9.6-15.7,19.6-17.4
			c0.3-0.1,0.6-0.1,0.9-0.2l0.3-0.1c0.2,0,0.5,0,0.7-0.1l0.2,0c0.6-0.1,1.2-0.1,1.9-0.1l0.2,0c0.3,0,0.5,0,0.8,0c0,0,0.1,0,0.1,0
			c0.6,0,1.3,0.1,1.9,0.1l0.1,0c0.3,0,0.6,0.1,0.9,0.1l0,0c0.6,0.1,1.3,0.2,1.9,0.3l0.1,0c0.6,0.1,1.2,0.3,1.8,0.5l0,0
			c0.3,0.1,0.5,0.2,0.8,0.3c0.1,0,0.1,0,0.2,0.1c0.2,0.1,0.5,0.2,0.7,0.3l0.1,0c0.3,0.1,0.5,0.2,0.8,0.3l0.2,0.1
			c1.1,0.5,2.1,1.1,3.1,1.7c0.4,0.3,0.8,0.6,1.2,0.9c1,0.8,2.6,0.7,3.6-0.2c0.1-0.1,0.2-0.2,0.2-0.2l1.6-1.9
			c0.8-0.9,0.7-2.2-0.3-2.9c-1.4-1-2.8-2-4.4-2.8l0,0l-0.1,0c-0.4-0.2-0.7-0.4-1.1-0.5l0,0c-0.3-0.2-0.7-0.3-1-0.5l-0.2-0.1
			c-0.7-0.2-1.4-0.5-2.2-0.7l-0.2-0.1c-0.8-0.2-1.5-0.5-2.3-0.6c-0.1,0-0.1,0-0.2-0.1c-0.4-0.1-0.7-0.2-1.1-0.2l-0.1,0
			c-0.4-0.1-0.8-0.1-1.2-0.2l-0.3,0c-0.4,0-0.7-0.1-1.1-0.1l-0.2,0c-0.4,0-0.8-0.1-1.2-0.1l-0.2,0c-0.3,0-0.7,0-1-0.1
			c-0.1,0-0.2,0-0.3,0c-0.4,0-0.8,0-1.3,0c-0.1,0-0.1,0-0.2,0c-0.4,0-0.8,0-1.1,0c-0.1,0-0.2,0-0.3,0c-0.4,0-0.8,0-1.2,0.1
			c0,0-0.1,0-0.1,0c-0.4,0-0.8,0.1-1.1,0.1c-0.1,0-0.2,0-0.3,0.1c-0.4,0.1-0.8,0.1-1.3,0.2l0,0c-14.7,2.4-25.9,13.3-26.6,26.1
			c0,0.9-0.8,1.7-1.9,1.8l-11.5,1.9c-1.2,0.2-2,1.1-1.8,2.1c0,0,0,0,0,0l0.5,2.9c0.2,1,1.2,1.7,2.4,1.5l0,0l11.5-1.9
			c1-0.2,2,0.3,2.3,1.1c2,5,5.7,9.3,10.7,12.3c2.1,1.3,4.3,2.3,6.7,3c15.7,4.9,33.8-2.2,40.4-16c0.9-1.9,1.5-3.8,1.9-5.7
			C446.4,309,445.7,306.2,444,303.9z M408.4,327.8c-6.2-1.5-11.2-5.1-13.9-10.1c-0.5-0.9,0-2,1.1-2.5c0.2-0.1,0.4-0.1,0.6-0.2
			l37.6-6.1c2-0.3,3.9,0.8,4.2,2.5c0.1,0.4,0,0.8-0.1,1.2c-3.3,10.7-15.9,17.5-28.2,15.2C409.2,327.9,408.8,327.9,408.4,327.8
			L408.4,327.8z"/>
		<g style="opacity:0.5;clip-path:url(#SVGID_00000154402797599609068150000004880503453822074559_);">
			<path class="st21" d="M445.7,560.3c-46.2,15.1-103.7-5.9-114.8-20.4c8.3,13,24.2,32.8,54.2,63c0,0,40,37.7,48.3,57.1
				c0,0,36-57.1,55.4-77.7c19.4-20.6,30-76.5,84.1-95.9c49.7-17.8,13.1-73.8-8.7-80.6c0,0.2,1.2,11.1-25.5,41.9
				c-23.4,27.1-22.1,18-21.4,15.3C515,471,491.7,545.3,445.7,560.3z"/>
			<path class="st21" d="M328.8,536.4c0.3,0.5,0.6,1,0.9,1.5C329.2,536.9,328.9,536.4,328.8,536.4z"/>
			<path class="st21" d="M517.3,463c0.1-0.4,0.2-0.7,0.2-0.7S517.5,462.6,517.3,463z"/>
		</g>
		<path style="opacity:0.5;clip-path:url(#SVGID_00000154402797599609068150000004880503453822074559_);fill:#C1C1C1;" d="
			M317.1,332.2c-0.1,30.1-4.5,40.6-6.6,43.9c0.5,0.4,1,0.8,1.5,1.2c10-1,46.2-4.7,79.3-10.3c10.3-1.8,20.6-3.5,30.6-5
			c2.9-0.5,5.8-0.9,8.6-1.3c21.4-21.5,33-16.7,33-16.7c7.5,4.7,4.8,8.3,0.9,12.6c8.5-0.7,15.2-0.8,19.1-0.1
			c12.6,2.4,26.3-28.4,15.3-65.6c-7.8-26.5-17.1-36.4-25.6-39.5c0,0,7.7,7.9-2.3,10.9c-10,3-160.4,28.1-160.4,28.1
			s-6.2-6.9-12.2-7.7C298.4,282.6,317.3,289.2,317.1,332.2z"/>
		<g style="clip-path:url(#SVGID_00000154402797599609068150000004880503453822074559_);">
			<g>
				<path class="st24" d="M536.8,724.7c-0.4-0.1-0.9-0.3-1.3-0.5c-0.6-0.2-1.1-0.4-1.7-0.5c-0.4-0.1-1.1-0.2-1.4,0.3
					c-0.4,0.7-0.7,4.3-0.8,5.1c1.2,0.2,2.4,0.4,3.6,0.7c0.8,0.1,1.2,0.4,1,1.7c-0.1,0.7-0.1,1.3-0.2,2c-0.2,1.5-0.5,1.9-1.5,1.7
					c-1.2-0.2-2.4-0.4-3.6-0.6c-0.6,5.6-1.2,11.2-1.8,16.9c-0.1,1.3-0.4,2.3-1.5,2.1c-0.8-0.1-1.5-0.3-2.3-0.4c-1-0.2-1-1-0.9-2.2
					c0.6-5.7,1.2-11.4,1.8-17.1c-0.4-0.1-0.7-0.1-1.1-0.2c-0.8-0.2-0.8-1-0.7-2c0.1-0.7,0.2-1.5,0.2-2.2c0.2-1.8,1.2-1.2,2.1-1.1
					c0.1-0.7,0.2-1.4,0.2-2.1c0.2-2.2,0.5-4.3,1.6-5.9c1.8-2.6,4.3-2.3,6.6-1.9c0.7,0.1,2.5,0.5,2.9,1.5c0.1,0.4,0.1,0.7,0.1,1.1
					c0,0.1,0,0.2,0,0.4C538.1,722.4,537.9,724.9,536.8,724.7z M544.1,727.5c-0.5-0.1-0.9-0.2-1.4-0.2c-1.3-0.2-1.9-0.6-1.7-2.6
					c0.1-0.6,0.1-1.2,0.2-1.8c0.2-1.7,0.7-2.2,1.8-2c0.6,0.1,1.1,0.2,1.7,0.3c0.8,0.1,1.4,1.1,1.3,2.2c0,0.1,0,0.2,0,0.3
					c-0.1,0.6-0.1,1.2-0.2,1.8C545.7,726.9,545.2,727.7,544.1,727.5z M541,755.8c-0.5-0.1-0.9-0.2-1.4-0.2c-1.3-0.2-1.9-0.6-1.7-2.7
					c0.7-6.7,1.4-13.4,2.2-20.1c0.2-1.7,0.7-2.2,1.8-2c0.6,0.1,1.1,0.2,1.7,0.3c0.8,0.1,1.4,1.1,1.3,2.2c0,0.1,0,0.2,0,0.3
					c-0.7,6.7-1.4,13.4-2.2,20.1C542.6,755.2,542.2,756,541,755.8C541,755.8,541,755.8,541,755.8z"/>
				<path class="st24" d="M554.1,758.6c-1.7-0.2-3.5-0.6-5.2-1.2c-1.1-0.4-0.9-1.1-0.8-2.5c0-0.3,0.1-0.6,0.1-0.9
					c0.1-1.1,0.3-2.4,1.3-2.2c0.6,0.2,1.3,0.4,1.9,0.6c1.2,0.4,2.5,0.7,3.8,0.9c1.3,0.2,1.8,0.3,2-1.6c0.1-0.6,0.1-1.2,0-1.7
					c-0.2-0.6-3.3-2.3-3.9-2.7c-0.7-0.5-1.3-1-2-1.5c-1.8-1.6-2.3-3.3-2-6.2c0.9-7.9,4.6-7.2,9.1-6.5c0.9,0.1,1.8,0.3,2.7,0.5
					c1.3,0.4,1.8,0.8,1.6,2.8c-0.2,1.5-0.3,3.2-1.7,3c-0.6-0.1-1.3-0.3-1.9-0.5c-1-0.3-1.9-0.5-2.9-0.7c-1.4-0.2-2.1-0.6-2.4,1.7
					c-0.1,0.4,0,0.7,0.1,1c0.3,0.8,3.6,2.6,4.3,3.1c2.7,1.8,3.9,3.3,3.4,7.9C561,758.8,558.6,759.3,554.1,758.6z"/>
				<path class="st24" d="M572.3,731.9c-0.5-0.1-0.9-0.1-1.4-0.2c-1.3-0.2-1.9-0.5-1.7-2.6c0.1-0.6,0.1-1.2,0.2-1.8
					c0.2-1.7,0.7-2.2,1.8-2c0.6,0.1,1.1,0.2,1.7,0.3c0.8,0.1,1.3,1.1,1.2,2.2c0,0.1,0,0.2,0,0.3c-0.1,0.6-0.1,1.2-0.2,1.8
					C573.9,731.3,573.4,732.1,572.3,731.9z M569.3,760.3c-0.5-0.1-0.9-0.1-1.4-0.2c-1.3-0.2-1.9-0.6-1.7-2.6
					c0.7-6.7,1.4-13.4,2.2-20.1c0.2-1.7,0.7-2.2,1.8-2c0.6,0.1,1.1,0.2,1.7,0.3c0.8,0.1,1.3,1.1,1.2,2.2c0,0.1,0,0.2,0,0.3
					c-0.7,6.7-1.4,13.4-2.2,20.1C570.8,759.7,570.4,760.5,569.3,760.3L569.3,760.3z"/>
				<path class="st24" d="M586.8,763.3c-1,0-2.1-0.1-3.1-0.2c-7.1-1-7.9-4.6-6.9-14.2c1-9.6,2.6-13,9.7-12c1,0.2,2.1,0.4,3.1,0.7
					c1.1,0.3,2,0.3,1.8,2c0,0,0,0.1,0,0.1c-0.1,1.3-0.4,4-1.7,3.9c-0.5-0.1-0.9-0.2-1.4-0.4c-1.1-0.4-2.2-0.7-3.4-0.9
					c-1.5-0.2-1.9,0.2-2.4,2.1c-0.4,1.7-0.7,3.4-0.8,5.1c-0.2,1.6-0.4,3.3-0.4,5c-0.1,2.3,0.4,2.7,2,2.9c1.2,0.1,2.3,0.2,3.5,0.1
					c0.5-0.1,1-0.1,1.4,0c0.3,0,0.6,0.2,0.8,0.6c0.2,0.5,0.1,3,0.1,3.6C588.8,763.5,587.9,763.3,586.8,763.3z"/>
				<path class="st24" d="M606.2,765.5c-0.7-0.1-1.4-0.2-2-0.3c-0.8-0.1-1-0.9-0.9-2c-1.8,1.4-3.7,2-5.7,1.8
					c-3.6-0.5-4.9-3.4-4.4-8.4c0.6-5.6,3.2-7.2,6.8-7.3c1.6-0.1,3.1,0,4.7,0.2c0.2-2.1,0.7-4.9-1.3-5.2c-1.8-0.2-3.6,0-5.4,0.4
					c-0.3,0.1-0.6,0.1-0.9,0c-1.3-0.2-0.9-2-0.7-3.2c0-1,0.5-1.9,1.3-2c2-0.4,4.1-0.5,6.1-0.2c1.7,0.2,3.9,0.9,5,3.1
					c1.2,2.5,0.8,5.7,0.5,8.6c-0.4,4.2-0.9,8.4-1.3,12.6C607.8,764.9,607.3,765.6,606.2,765.5z M604.3,754.1
					c-0.6-0.1-1.2-0.3-1.8-0.3c-0.8-0.1-1.5-0.2-2.3-0.2c-1.6,0.1-2.2,0.7-2.5,3c-0.1,1.2-0.2,3.5,1,3.6c1.8,0.1,3.6-0.5,5.2-1.9
					C604,756.9,604.2,755.5,604.3,754.1z"/>
				<path class="st24" d="M615.9,766.7c-0.4-0.1-0.9-0.1-1.3-0.2c-1.3-0.2-1.9-0.5-1.7-2.6c1.1-10.3,2.2-20.7,3.3-31
					c0.2-1.7,0.7-2.2,1.8-2c0.5,0.1,1.1,0.1,1.6,0.2c0.8,0.1,1.3,1,1.2,2.1c0,0.1,0,0.2,0,0.3c-1.1,10.3-2.2,20.7-3.3,31
					C617.4,766,617,766.9,615.9,766.7z"/>
				<path class="st24" d="M633.3,769.5c-1,0-2.1-0.1-3.1-0.2c-7.1-0.9-7.9-4.6-6.9-14.2c1-9.6,2.6-13,9.7-12.1
					c1,0.1,2.1,0.4,3.1,0.7c1.1,0.3,2,0.3,1.8,2c0,0,0,0.1,0,0.1c-0.1,1.3-0.4,4-1.7,3.9c-0.5-0.1-0.9-0.2-1.4-0.4
					c-1.1-0.4-2.2-0.7-3.4-0.9c-1.5-0.2-1.9,0.2-2.4,2.2c-0.4,1.7-0.7,3.4-0.8,5.1c-0.2,1.6-0.3,3.3-0.4,5c-0.1,2.3,0.4,2.7,2,2.9
					c1.2,0.1,2.3,0.1,3.5,0c0.5-0.1,1-0.1,1.4,0c0.3,0,0.6,0.2,0.8,0.6c0.2,0.5,0.1,3,0.1,3.6C635.3,769.7,634.5,769.4,633.3,769.5z
					"/>
				<path class="st24" d="M647.7,771.6c-6.1-0.8-7.8-6.1-7-14.2c0.9-8.1,3.7-12.8,9.8-12c6.1,0.8,7.8,6.1,6.9,14.3
					C656.5,767.9,653.8,772.5,647.7,771.6z M652.7,753c-0.5-1.8-1.6-1.9-2.8-2.1c-1.2-0.2-2.3-0.3-3.2,1.2c-0.8,1.6-1.2,4.1-1.4,5.9
					c-0.2,1.8-0.4,4.4,0.1,6.1c0.5,1.7,1.6,1.9,2.8,2c1.2,0.2,2.3,0.4,3.2-1.2c0.8-1.6,1.1-4.1,1.3-5.9
					C652.9,757.3,653.2,754.7,652.7,753C652.7,753,652.7,753,652.7,753z"/>
				<path class="st24" d="M673.6,774.7c-0.7-0.1-1.4-0.2-2-0.3c-0.8-0.1-1-0.9-0.9-2c-1.8,1.3-3.7,1.9-5.7,1.7
					c-3.6-0.5-4.9-3.5-4.4-8.4c0.6-5.6,3.2-7.2,6.8-7.2c1.6-0.1,3.1,0,4.7,0.3c0.2-2.1,0.7-4.9-1.3-5.2c-1.8-0.2-3.6-0.1-5.4,0.3
					c-0.3,0.1-0.6,0.1-0.9,0c-1.3-0.2-0.9-2-0.7-3.3c0-1,0.5-1.9,1.3-2c2-0.4,4.1-0.4,6.1-0.1c1.8,0.3,3.9,1,5,3.2
					c1.2,2.5,0.8,5.7,0.5,8.6c-0.4,4.2-0.9,8.4-1.3,12.5C675.1,774.2,674.7,774.8,673.6,774.7z M671.7,763.3
					c-0.6-0.1-1.2-0.3-1.8-0.4c-0.8-0.1-1.5-0.2-2.3-0.2c-1.6,0.1-2.2,0.7-2.5,2.9c-0.1,1.2-0.2,3.5,1,3.7c1.8,0.2,3.6-0.5,5.2-1.9
					C671.4,766.1,671.6,764.7,671.7,763.3z"/>
				<path class="st24" d="M690.9,777.8c-1,0-2.1-0.1-3.1-0.3c-7.1-1.2-7.9-4.8-6.9-14.4c1-9.6,2.6-12.9,9.7-11.8
					c1,0.2,2.1,0.4,3.1,0.8c1.1,0.3,2,0.4,1.8,2.1c0,0,0,0.1,0,0.1c-0.1,1.3-0.4,4-1.7,3.8c-0.5-0.1-0.9-0.3-1.4-0.5
					c-1.1-0.4-2.2-0.8-3.4-1c-1.5-0.3-1.9,0.1-2.4,2.1c-0.4,1.7-0.7,3.4-0.8,5.1c-0.2,1.6-0.3,3.3-0.4,5c-0.1,2.3,0.4,2.7,2,2.9
					c1.2,0.2,2.3,0.2,3.5,0.2c0.5,0,1,0,1.4,0c0.3,0,0.6,0.3,0.8,0.7c0.2,0.5,0.1,3,0.1,3.6C692.9,778.1,692,777.9,690.9,777.8z"/>
				<path class="st24" d="M710.7,780.9c-0.6-0.1-1.3-0.2-1.9-0.4c-1.1-0.2-1.2-1.2-1.1-2.6c0.5-4.4,0.9-8.8,1.4-13.2
					c0.1-0.7,0.5-3.5,0.2-4.1c-0.3-0.5-0.8-0.6-1.1-0.6c-1.6-0.2-3.3,0.4-4.7,1.6c-0.5,5.1-1.1,10.2-1.6,15.3
					c-0.2,1.4-0.5,2.3-1.7,2.1c-0.6-0.1-1.3-0.2-1.9-0.3c-1-0.2-1.2-1-1.1-2.2c1.1-10.4,2.2-20.8,3.4-31.2c0.2-1.7,0.7-2.1,1.8-1.9
					c0.5,0.1,1.1,0.2,1.6,0.3c0.8,0.1,1.3,1,1.2,2.1c0,0.1,0,0.2,0,0.3c-0.3,3.2-0.7,6.3-1,9.5c1.6-0.8,3.4-1.1,5.1-0.9
					c3.4,0.6,5.4,3.4,4.8,8.4c-0.6,5.3-1.1,10.5-1.7,15.8C712.2,780.3,711.8,781.1,710.7,780.9z"/>
			</g>
		</g>
		<g style="opacity:0.5;clip-path:url(#SVGID_00000154402797599609068150000004880503453822074559_);">
			<path class="st25" d="M413.8,245.4c9.6,18.8-11.6,23-17.2,23c-5.6,0-2.3-13.9-2.3-13.9c-8.5,28.7-25.6,17.6-25.6,17.6
				s14.9,12.2,22.4-3.5c0,0,5.5,3.9,16.9,1.4c11.4-2.6,14.9-7.3,14.9-7.3s18.4,2.4,23-3.9c0,0-0.4-8-6.2-10.9
				c3.8,10.3-5,13.2-12.1,13.2c-7.1,0-7.5-8.8-7.5-8.8S417.9,248.1,413.8,245.4z"/>
			<path class="st25" d="M371,257.2c0.6,10.2-8.7,16.7-14.8,18.1c3.4,0.4,8,0,12.5-3.3C371.6,261.2,371,257.2,371,257.2z"/>
			<path class="st25" d="M351.2,262.4c0-0.1,0-0.1,0-0.2C351.3,262.2,351.3,262.3,351.2,262.4z"/>
			<path class="st25" d="M342,275.5l9-1.5c-1.1-4.5,0-10.5,0.3-11.6C349.7,271.9,342,275.5,342,275.5z"/>
		</g>
		<g style="opacity:0.5;clip-path:url(#SVGID_00000154402797599609068150000004880503453822074559_);">
			<path class="st17" d="M735.9,206.5c6.3-1.6,5.9-5.1,5.9-5.1c-6.7,0.8-9-5.5-9-5.5c9.8-3.9,7.1-5.1,7.1-5.1
				c-15.3,1.2-19.6-7.1-67.5-32.6c-42.5-22.7-48.8-6-73.9-4.5c4.4-0.2,28.6,0,52.4,21.3c26.2,23.5,63.9,18.8,63.9,18.8
				s1.6,7.1-14.5,7.1c-16.1,0,2.8,5.3,14.6,4.1c0,0,4.1,5.3-18.9,7.7c-23,2.4-16.5,20.4-16.5,41.7s-28.5,15.9-34,54.5
				c-5.5,38.6-7.2,32-52.6,49.8c-45.3,17.7-66,19.1-72.8,1.9c0,0-53.8,47.6,67.7,43c27.5-4.2,37.5-13.6,50.7-24.9
				c16.5-14.1,10.6-43.6,14.1-59.6c3.5-16.1,13.7-25.1,16.1-28.3c2.4-3.1,25.5-23.2,43.9-5.9c18.4,17.3-12.6,48.7-12.6,48.7
				C693.5,367,710,377,710,377c-0.5-22.3,6.7-20.2,24.7-54.7c18-34.5,11.8-80.8,11-94.2C744.9,214.7,735.9,206.5,735.9,206.5z"/>
			<path class="st17" d="M597.7,153.8L597.7,153.8C597.7,153.8,597.7,153.8,597.7,153.8C597.7,153.8,597.7,153.8,597.7,153.8z"/>
		</g>
		<g style="clip-path:url(#SVGID_00000154402797599609068150000004880503453822074559_);">
			<g>
				<path class="st26" d="M503.5,259.6c-0.1-0.2-0.3-0.4-0.4-0.6c-0.2-0.3-0.4-0.5-0.6-0.8c-0.1-0.2-0.4-0.4-0.6-0.5
					c-0.4-0.1-1.5,0.2-1.7,0.2c0.4,0.5,0.9,1,1.3,1.5c0.3,0.3,0.4,0.5,0,0.6c-0.2,0-0.4,0.1-0.7,0.1c-0.5,0.1-0.7,0-1.1-0.4
					c-0.4-0.5-0.8-1-1.3-1.5c-1.8,0.4-3.6,0.7-5.5,1.1c-0.4,0.1-0.8,0.1-1.2-0.4c-0.3-0.3-0.5-0.6-0.8-1c-0.4-0.4-0.1-0.5,0.3-0.6
					c1.8-0.4,3.7-0.7,5.5-1.1c-0.1-0.1-0.3-0.3-0.4-0.4c-0.3-0.3-0.1-0.4,0.2-0.5c0.2,0,0.5-0.1,0.7-0.1c0.6-0.1,0.8,0.3,1.2,0.7
					c0.2,0,0.4-0.1,0.7-0.1c0.7-0.1,1.4-0.2,2.3,0c1.5,0.4,2.4,1.4,3.3,2.4c0.3,0.3,0.9,1.1,0.7,1.3c-0.1,0.1-0.2,0.1-0.3,0.1
					c0,0-0.1,0-0.1,0C504.7,259.9,503.9,260.1,503.5,259.6z M505.5,263c-0.1-0.2-0.3-0.4-0.5-0.6c-0.4-0.6-0.6-0.9,0.1-1
					c0.2,0,0.4-0.1,0.6-0.1c0.5-0.1,0.9,0.1,1.3,0.5c0.2,0.2,0.4,0.5,0.6,0.7c0.3,0.3,0.2,0.7-0.2,0.8c0,0-0.1,0-0.1,0
					c-0.2,0-0.4,0.1-0.6,0.1C506.3,263.5,505.9,263.5,505.5,263z M496.2,264.9c-0.1-0.2-0.3-0.4-0.4-0.6c-0.4-0.6-0.5-0.9,0.1-1
					c2.2-0.4,4.4-0.9,6.6-1.3c0.5-0.1,0.9,0.1,1.3,0.6c0.2,0.3,0.4,0.5,0.6,0.8c0.3,0.3,0.2,0.7-0.2,0.8c0,0-0.1,0-0.1,0
					c-2.2,0.5-4.4,0.9-6.6,1.4C496.9,265.5,496.6,265.4,496.2,264.9C496.2,264.9,496.2,264.9,496.2,264.9z"/>
				<path class="st26" d="M499.8,270.9c-0.5-0.8-0.9-1.6-1.3-2.4c-0.2-0.5,0-0.5,0.5-0.6c0.1,0,0.2,0,0.3-0.1
					c0.4-0.1,0.8-0.1,1.1,0.3c0.2,0.3,0.3,0.6,0.4,0.9c0.3,0.6,0.6,1.2,1,1.8c0.3,0.6,0.5,0.9,1.1,0.7c0.2,0,0.4-0.1,0.5-0.2
					c0.1-0.2-0.4-1.8-0.4-2c-0.1-0.4-0.1-0.7-0.2-1c-0.1-1,0.2-1.4,1.2-1.6c2.6-0.5,3.7,1.2,5,3.3c0.2,0.4,0.5,0.8,0.7,1.3
					c0.3,0.6,0.3,0.9-0.4,1c-0.5,0.1-1.1,0.3-1.4-0.4c-0.2-0.3-0.3-0.6-0.4-0.9c-0.2-0.5-0.4-0.9-0.7-1.4c-0.4-0.6-0.5-1-1.3-0.8
					c-0.1,0-0.2,0.1-0.3,0.2c-0.1,0.2,0.4,1.9,0.5,2.3c0.3,1.4,0.2,2.2-1.4,2.5C501.8,274.1,501,273,499.8,270.9z"/>
				<path class="st26" d="M513.3,276c-0.1-0.2-0.2-0.4-0.3-0.7c-0.3-0.6-0.4-0.9,0.3-1.1c0.2,0,0.4-0.1,0.6-0.1
					c0.6-0.1,0.9,0.1,1.2,0.6c0.1,0.3,0.3,0.5,0.4,0.8c0.2,0.4,0,0.8-0.3,0.8c0,0-0.1,0-0.1,0c-0.2,0-0.4,0.1-0.6,0.1
					C514,276.7,513.6,276.5,513.3,276z M503.6,278.1c-0.1-0.2-0.2-0.4-0.3-0.7c-0.3-0.6-0.3-1,0.4-1.1c2.3-0.5,4.6-1,6.8-1.5
					c0.6-0.1,0.9,0.1,1.2,0.6c0.1,0.3,0.3,0.5,0.4,0.8c0.2,0.4,0,0.8-0.4,0.8c0,0-0.1,0-0.1,0c-2.3,0.5-4.6,1-6.9,1.5
					C504.3,278.7,503.9,278.6,503.6,278.1C503.6,278.1,503.6,278.1,503.6,278.1z"/>
				<path class="st26" d="M506.8,286.8c-0.2-0.5-0.4-1-0.6-1.5c-1.2-3.5-0.3-4.4,3-5.1c3.3-0.7,4.8-0.4,6.1,3.1
					c0.2,0.5,0.3,1,0.5,1.6c0.1,0.6,0.3,1-0.3,1.1c0,0,0,0,0,0c-0.5,0.1-1.4,0.3-1.6-0.4c-0.1-0.2-0.1-0.5-0.2-0.7
					c-0.1-0.6-0.3-1.2-0.5-1.7c-0.3-0.8-0.5-0.9-1.2-0.9c-0.6,0-1.3,0.1-1.8,0.2c-0.6,0.1-1.1,0.2-1.7,0.4c-0.8,0.2-0.8,0.5-0.5,1.3
					c0.2,0.6,0.5,1.1,0.7,1.7c0.1,0.2,0.2,0.5,0.3,0.7c0.1,0.2,0.1,0.3,0,0.5c-0.1,0.2-1,0.4-1.2,0.5
					C507.1,287.8,507,287.3,506.8,286.8z"/>
				<path class="st26" d="M509.4,296.5c-0.1-0.3-0.1-0.7-0.2-1c-0.1-0.4,0.2-0.6,0.6-0.7c-0.7-0.7-1.3-1.6-1.5-2.5
					c-0.4-1.8,0.3-2.8,2-3.2c2-0.4,3,0.6,3.7,2.4c0.3,0.8,0.5,1.5,0.7,2.3c0.7-0.2,1.8-0.3,1.6-1.3c-0.2-0.9-0.6-1.8-1.1-2.6
					c-0.1-0.1-0.1-0.3-0.2-0.4c-0.2-0.6,0.5-0.7,0.9-0.8c0.3-0.1,0.7,0,0.9,0.3c0.5,0.9,0.9,1.9,1.2,2.9c0.2,0.9,0.3,2-0.2,2.8
					c-0.7,0.9-1.8,1.1-2.9,1.3c-1.5,0.3-3,0.6-4.5,1C509.8,297.2,509.6,297.1,509.4,296.5z M513,294.1c0-0.3-0.1-0.6-0.2-0.9
					c-0.1-0.4-0.2-0.8-0.3-1.1c-0.3-0.8-0.6-1-1.4-0.8c-0.4,0.1-1.2,0.3-1.1,0.9c0.3,0.9,0.8,1.7,1.5,2.3
					C512,294.3,512.5,294.2,513,294.1z"/>
				<path class="st26" d="M510.2,301.4c0-0.2-0.1-0.4-0.1-0.7c-0.1-0.7,0-1,0.7-1.2c3.8-0.8,7.5-1.6,11.2-2.4
					c0.6-0.1,0.8,0.1,0.9,0.6c0,0.3,0.1,0.6,0.1,0.8c0.1,0.4-0.2,0.8-0.6,0.9c0,0-0.1,0-0.1,0c-3.8,0.8-7.5,1.6-11.3,2.4
					C510.6,302.1,510.3,302,510.2,301.4z"/>
				<path class="st26" d="M510.7,310.3c-0.1-0.5-0.1-1-0.1-1.6c-0.2-3.6,1-4.5,4.5-5.2c3.5-0.7,4.9-0.4,5.2,3.2c0,0.5,0,1.1,0,1.6
					c0,0.6,0,1-0.6,1.1c0,0,0,0,0,0c-0.5,0.1-1.5,0.3-1.5-0.4c0-0.2,0-0.5,0.1-0.7c0.1-0.6,0.1-1.2,0.1-1.8c0-0.8-0.2-0.9-1-0.9
					c-0.6,0-1.3,0.1-1.9,0.2c-0.6,0.1-1.2,0.3-1.8,0.5c-0.9,0.2-0.9,0.6-0.9,1.4c0,0.6,0.1,1.2,0.2,1.7c0,0.2,0.1,0.5,0.1,0.7
					c0,0.2-0.1,0.3-0.2,0.5c-0.2,0.2-1.1,0.4-1.3,0.5C510.7,311.3,510.8,310.9,510.7,310.3z"/>
				<path class="st26" d="M510.4,317.6c0.2-3,2.1-4.6,5.1-5.2c3-0.6,5,0.1,4.8,3.2c-0.2,3.1-2.2,4.5-5.4,5.1
					C511.8,321.3,510.1,320.6,510.4,317.6z M517.5,317.6c0.7-0.5,0.7-1,0.7-1.6c0-0.6,0.1-1.2-0.6-1.4c-0.6-0.2-1.6,0-2.3,0.1
					c-0.7,0.1-1.7,0.4-2.3,0.8c-0.6,0.4-0.7,1-0.7,1.6c0,0.6-0.1,1.2,0.5,1.4c0.6,0.2,1.6,0,2.3-0.1
					C515.9,318.3,516.9,318.1,517.5,317.6C517.5,317.6,517.5,317.6,517.5,317.6z"/>
				<path class="st26" d="M508.6,330.1c0.1-0.3,0.2-0.6,0.2-1c0.1-0.4,0.4-0.6,0.8-0.6c-0.4-0.6-0.6-1.5-0.4-2.4
					c0.3-1.7,1.5-2.7,3.4-3.1c2.2-0.4,2.8,0.6,2.6,2.3c0,0.7-0.1,1.5-0.3,2.2c0.8-0.1,1.9-0.3,2.1-1.2c0.1-0.8,0.2-1.7,0-2.5
					c0-0.1,0-0.3,0-0.4c0.1-0.6,0.8-0.6,1.3-0.7c0.4-0.1,0.7,0,0.8,0.3c0.1,0.9,0.1,1.9-0.1,2.8c-0.2,0.8-0.6,1.9-1.5,2.7
					c-1.1,0.8-2.3,1-3.4,1.3c-1.6,0.3-3.3,0.6-4.9,0.9C508.7,330.7,508.4,330.6,508.6,330.1z M513.2,327.8c0.1-0.3,0.2-0.6,0.2-0.9
					c0.1-0.4,0.1-0.7,0.2-1.1c0-0.7-0.2-1-1.1-0.8c-0.5,0.1-1.4,0.3-1.5,0.9c-0.1,0.9,0,1.6,0.5,2.2
					C512.1,328,512.6,327.9,513.2,327.8z"/>
				<path class="st26" d="M505.8,338c0.1-0.4,0.3-0.9,0.5-1.4c1.2-3.2,2.7-4.1,6.5-4.7c3.8-0.7,5.1-0.3,4,2.9
					c-0.2,0.5-0.4,0.9-0.6,1.4c-0.2,0.5-0.4,0.9-1,1c0,0,0,0,0,0c-0.5,0.1-1.6,0.3-1.4-0.3c0.1-0.2,0.2-0.4,0.3-0.7
					c0.3-0.5,0.5-1.1,0.7-1.6c0.2-0.7,0.1-0.8-0.6-0.8c-0.6,0-1.3,0.1-2,0.2c-0.7,0.1-1.3,0.2-2,0.4c-0.9,0.2-1.1,0.5-1.4,1.2
					c-0.2,0.5-0.3,1-0.4,1.5c0,0.2-0.1,0.4-0.2,0.6c0,0.1-0.2,0.3-0.4,0.4c-0.2,0.2-1.2,0.4-1.5,0.4
					C505.4,338.9,505.6,338.5,505.8,338z"/>
				<path class="st26" d="M501.7,346.5c0.2-0.3,0.3-0.5,0.5-0.8c0.3-0.4,0.7-0.6,1.3-0.7c1.8-0.3,3.6-0.6,5.4-0.8
					c0.3,0,1.4-0.2,1.7-0.4c0.3-0.2,0.3-0.4,0.4-0.5c0.3-0.7,0.3-1.3,0-1.8c-2.1,0.3-4.2,0.7-6.2,1c-0.6,0.1-0.9,0-0.6-0.5
					c0.1-0.3,0.3-0.6,0.4-0.8c0.2-0.4,0.6-0.6,1.1-0.7c4.2-0.7,8.4-1.4,12.7-2.1c0.7-0.1,0.8,0.1,0.6,0.6c-0.1,0.2-0.2,0.5-0.3,0.7
					c-0.1,0.3-0.6,0.7-1,0.8c0,0-0.1,0-0.1,0c-1.3,0.2-2.6,0.4-3.9,0.6c0.1,0.6,0,1.3-0.3,2c-0.7,1.4-2.3,2.5-4.3,2.8
					c-2.2,0.3-4.4,0.7-6.5,1C501.8,347,501.5,346.9,501.7,346.5z"/>
			</g>
		</g>
	</g>
</g>
</svg>
