<?xml version="1.0" encoding="utf-8"?>
<!-- Generator: Adobe Illustrator 25.4.1, SVG Export Plug-In . SVG Version: 6.00 Build 0)  -->
<svg version="1.1" xmlns="http://www.w3.org/2000/svg" xmlns:xlink="http://www.w3.org/1999/xlink" x="0px" y="0px"
	 viewBox="0 0 1554.9 1639.8" style="enable-background:new 0 0 1554.9 1639.8;" xml:space="preserve">
<style type="text/css">
	.st0{display:none;}
	.st1{fill:#DDDDDD;}
	.st2{clip-path:url(#SVGID_00000077308957936529409730000002660013611037858462_);fill:#C1C1C1;}
	.st3{fill:#00E9C5;}
	.st4{fill:#5D7075;}
	.st5{clip-path:url(#SVGID_00000034048131464673726940000007742817998142080414_);}
	.st6{fill:#FFFFFF;}
	.st7{opacity:0.5;fill:#5D7075;}
	.st8{fill:#C3855C;}
	.st9{fill:#AF7351;}
	.st10{fill:#4D362B;}
	.st11{fill:#A06444;}
	.st12{fill:none;}
	.st13{opacity:0.5;fill:#C3855C;}
	.st14{opacity:0.5;fill:#4D362B;}
	.st15{fill:none;stroke:#050B3D;stroke-width:2;stroke-miterlimit:10;}
	.st16{fill:none;stroke:#050B3D;stroke-width:2.3008;stroke-linecap:round;stroke-linejoin:round;stroke-miterlimit:10;}
	.st17{fill:#050B3D;}
	.st18{fill:none;stroke:#050B3D;stroke-width:2.3012;stroke-linecap:round;stroke-linejoin:round;stroke-miterlimit:10;}
	.st19{fill:none;stroke:#050B3D;stroke-width:1.2678;stroke-linecap:round;stroke-linejoin:round;stroke-miterlimit:10;}
	.st20{fill:#10B293;}
</style>
<g id="Capa_1" class="st0">
</g>
<g id="Capa_6">
	<path class="st1" d="M783.5,1556.4h356.7c288.5,0,468.9-312.3,324.6-562.2l-178.4-308.9l-178.4-308.9
		c-144.3-249.9-504.9-249.9-649.2,0L280.5,685.3L102.2,994.2c-144.3,249.9,36.1,562.2,324.6,562.2H783.5z"/>
</g>
<g id="Capa_5">
	<g>
		<defs>
			<path id="SVGID_1_" d="M783.5,1556.4h356.7c288.5,0,468.9-312.3,324.6-562.2l-178.4-308.9l-178.4-308.9
				c-144.3-249.9-504.9-249.9-649.2,0L280.5,685.3L102.2,994.2c-144.3,249.9,36.1,562.2,324.6,562.2H783.5z"/>
		</defs>
		<clipPath id="SVGID_00000147900931740938913140000004824137644106378428_">
			<use xlink:href="#SVGID_1_"  style="overflow:visible;"/>
		</clipPath>
		
			<rect y="1213.3" style="clip-path:url(#SVGID_00000147900931740938913140000004824137644106378428_);fill:#C1C1C1;" width="1731.1" height="357.4"/>
	</g>
</g>
<g id="Capa_7" class="st0">
	
		<image style="display:inline;overflow:visible;opacity:0.48;" width="2000" height="3000" xlink:href="64DB641776BF1BF9.jpg"  transform="matrix(0.5603 0 0 0.5603 217.1748 47.3086)">
	</image>
</g>
<g id="Capa_4">
	<polygon class="st3" points="1341.2,1427.7 213.7,1427.7 366,1264.6 1173,1264.6 	"/>
	<g>
		<path class="st4" d="M690,1117.4c0,0-16.1,37.4-21,58.2s-8.2,43.2-13.1,47.5c-4.9,4.4-148,8.7-169.9,13.7s-75.9,65-75.9,65
			s2.7,47,19.1,55.2c16.4,8.2,32.8,13.1,45.9,19.1c13.1,6,9.3,0,28.4,6c19.1,6,21.3,11.5,117.4,6.6s159.5-5.5,159.5-5.5
			s19.1-38.8-9.8-72.7l54.8,69v7.6c0,0,40.1,1.5,74.3,6.6c34.2,5.1,132.6,21.9,166.8,11.7c34.2-10.2,22.6,3.3,52.4-10.6
			c29.9-13.8,39-6.9,46.3-31.7c7.3-24.8,6.9-32.9,6.9-32.9l-70.6-85.1l-17.8-0.9c0,0-51.8-17.6-108.2-19.1c0,0-27.3-1.1-29.1-4.4
			c-1.8-3.3-15.3-43.3-15.7-56.8c-0.4-13.5-10.6-42.2-10.6-42.2L690,1117.4z"/>
		<g>
			<defs>
				<path id="SVGID_00000171000879766380639300000009330841205420776853_" d="M690,1117.4c0,0-16.1,37.4-21,58.2
					s-8.2,43.2-13.1,47.5c-4.9,4.4-148,8.7-169.9,13.7s-75.9,65-75.9,65s2.7,47,19.1,55.2c16.4,8.2,32.8,13.1,45.9,19.1
					c13.1,6,9.3,0,28.4,6c19.1,6,21.3,11.5,117.4,6.6s159.5-5.5,159.5-5.5s19.1-38.8-9.8-72.7l54.8,69v7.6c0,0,40.1,1.5,74.3,6.6
					c34.2,5.1,132.6,21.9,166.8,11.7c34.2-10.2,22.6,3.3,52.4-10.6c29.9-13.8,39-6.9,46.3-31.7c7.3-24.8,6.9-32.9,6.9-32.9
					l-70.6-85.1l-17.8-0.9c0,0-51.8-17.6-108.2-19.1c0,0-27.3-1.1-29.1-4.4c-1.8-3.3-15.3-43.3-15.7-56.8
					c-0.4-13.5-10.6-42.2-10.6-42.2L690,1117.4z"/>
			</defs>
			<clipPath id="SVGID_00000032648541290838285480000006007351307976556688_">
				<use xlink:href="#SVGID_00000171000879766380639300000009330841205420776853_"  style="overflow:visible;"/>
			</clipPath>
			<g style="clip-path:url(#SVGID_00000032648541290838285480000006007351307976556688_);">
				<g>
					<path class="st6" d="M862.2,1144.6c-0.2,0-0.4,0-0.6-0.1c-0.3,0-0.5-0.1-0.8-0.1c-0.2,0-0.5,0-0.6,0.2
						c-0.1,0.2,0.1,1.4,0.2,1.7c0.5,0,1.1,0,1.6,0c0.4,0,0.5,0.1,0.6,0.5c0,0.2,0.1,0.4,0.1,0.6c0.1,0.5,0,0.6-0.5,0.6
						c-0.5,0-1.1,0-1.6,0c0.3,1.8,0.6,3.7,0.9,5.5c0.1,0.4,0.1,0.8-0.4,0.7c-0.3,0-0.7,0-1,0c-0.4,0-0.5-0.3-0.6-0.7
						c-0.3-1.9-0.6-3.7-0.9-5.6c-0.2,0-0.3,0-0.5,0c-0.4,0-0.4-0.3-0.5-0.6c0-0.2-0.1-0.5-0.1-0.7c-0.1-0.6,0.4-0.4,0.8-0.4
						c0-0.2-0.1-0.4-0.1-0.7c-0.1-0.7-0.2-1.4,0.1-1.9c0.5-0.9,1.6-0.9,2.6-0.9c0.3,0,1.1,0,1.4,0.3c0.1,0.1,0.1,0.2,0.1,0.3
						c0,0,0,0.1,0,0.1C862.5,1143.8,862.7,1144.6,862.2,1144.6z M865.6,1145c-0.2,0-0.4,0-0.6,0c-0.6,0-0.9,0-1-0.7
						c0-0.2-0.1-0.4-0.1-0.6c-0.1-0.5,0.1-0.7,0.6-0.8c0.3,0,0.5,0,0.8,0c0.3,0,0.7,0.2,0.7,0.6c0,0,0,0.1,0,0.1
						c0,0.2,0.1,0.4,0.1,0.6C866.2,1144.7,866.1,1145,865.6,1145L865.6,1145z M867.1,1154.1c-0.2,0-0.4,0-0.6,0c-0.6,0-0.9,0-1-0.7
						c-0.4-2.2-0.7-4.3-1.1-6.5c-0.1-0.5,0.1-0.7,0.6-0.8c0.3,0,0.5,0,0.8,0c0.3,0,0.7,0.2,0.7,0.6c0,0,0,0.1,0,0.1
						c0.4,2.1,0.7,4.3,1.1,6.4C867.7,1153.7,867.6,1154,867.1,1154.1C867.1,1154.1,867.1,1154.1,867.1,1154.1z"/>
					<path class="st6" d="M873,1153.6c-0.8,0.1-1.5,0.2-2.3,0.2c-0.5,0-0.5-0.2-0.6-0.7c0-0.1,0-0.2-0.1-0.3
						c-0.1-0.4-0.1-0.8,0.3-0.8c0.3,0,0.6,0,0.9,0c0.6,0,1.1-0.1,1.7-0.1c0.6-0.1,0.8-0.1,0.7-0.7c0-0.2-0.1-0.4-0.2-0.5
						c-0.2-0.1-1.6-0.3-1.9-0.4c-0.3-0.1-0.7-0.2-1-0.3c-0.9-0.3-1.3-0.8-1.5-1.7c-0.4-2.5,1.3-2.6,3.2-2.9c0.4-0.1,0.8-0.1,1.2-0.1
						c0.6,0,0.8,0,0.9,0.7c0.1,0.5,0.2,1-0.4,1.1c-0.3,0-0.6,0-0.9,0.1c-0.4,0-0.9,0.1-1.3,0.1c-0.6,0.1-1,0-0.8,0.8
						c0,0.1,0.1,0.2,0.1,0.3c0.2,0.2,1.8,0.4,2.2,0.5c1.3,0.2,2,0.5,2.3,2C875.9,1152.8,875,1153.3,873,1153.6z"/>
					<path class="st6" d="M878.1,1143.4c-0.2,0-0.4,0.1-0.6,0.1c-0.6,0.1-0.9,0.1-1-0.6c0-0.2-0.1-0.4-0.1-0.6
						c-0.1-0.5,0.1-0.7,0.6-0.8c0.3,0,0.5-0.1,0.8-0.1c0.3-0.1,0.7,0.2,0.7,0.5c0,0,0,0.1,0,0.1c0,0.2,0.1,0.4,0.1,0.6
						C878.7,1143,878.6,1143.3,878.1,1143.4z M879.6,1152.2c-0.2,0-0.4,0.1-0.6,0.1c-0.6,0.1-0.9,0.1-1-0.6
						c-0.4-2.1-0.7-4.2-1.1-6.3c-0.1-0.5,0.1-0.7,0.6-0.8c0.3,0,0.5-0.1,0.8-0.1c0.3-0.1,0.7,0.1,0.7,0.5c0,0,0,0.1,0,0.1
						c0.4,2.1,0.7,4.2,1.1,6.3C880.2,1151.8,880.1,1152.1,879.6,1152.2z"/>
					<path class="st6" d="M887.5,1150.5c-0.5,0.2-0.9,0.3-1.4,0.4c-3.2,0.8-3.9-0.2-4.4-3.2c-0.5-3-0.2-4.2,3-4.9
						c0.5-0.1,0.9-0.2,1.4-0.3c0.5-0.1,0.9-0.2,1,0.3c0,0,0,0,0,0c0.1,0.4,0.2,1.2-0.4,1.4c-0.2,0.1-0.4,0.1-0.7,0.1
						c-0.5,0.1-1,0.1-1.5,0.3c-0.7,0.2-0.8,0.3-0.8,1c0,0.6,0,1.1,0.2,1.6c0.1,0.5,0.2,1,0.3,1.5c0.2,0.7,0.5,0.7,1.2,0.5
						c0.5-0.1,1-0.3,1.5-0.5c0.2-0.1,0.4-0.2,0.6-0.2c0.1-0.1,0.3,0,0.4,0.1c0.2,0.1,0.4,0.8,0.4,1
						C888.3,1150.2,887.9,1150.3,887.5,1150.5z"/>
					<path class="st6" d="M896,1148c-0.3,0.1-0.6,0.2-0.9,0.3c-0.4,0.1-0.5-0.1-0.6-0.4c-0.6,0.7-1.4,1.2-2.3,1.5
						c-1.6,0.4-2.5-0.2-2.7-1.7c-0.3-1.7,0.6-2.6,2.2-3.2c0.7-0.3,1.3-0.5,2-0.7c-0.1-0.6-0.2-1.6-1.1-1.3c-0.8,0.2-1.5,0.6-2.3,1
						c-0.1,0.1-0.2,0.1-0.4,0.2c-0.6,0.2-0.6-0.4-0.6-0.8c-0.1-0.3,0-0.6,0.3-0.8c0.8-0.4,1.7-0.8,2.6-1c0.8-0.2,1.8-0.4,2.4,0.1
						c0.8,0.5,0.9,1.5,1.1,2.4c0.2,1.3,0.5,2.6,0.7,3.9C896.7,1147.6,896.5,1147.8,896,1148z M894.1,1145c-0.3,0.1-0.5,0.1-0.8,0.2
						c-0.3,0.1-0.7,0.2-1,0.3c-0.7,0.3-0.9,0.6-0.8,1.3c0.1,0.4,0.3,1,0.8,0.9c0.8-0.3,1.5-0.7,2-1.4
						C894.2,1145.9,894.2,1145.4,894.1,1145z"/>
					<path class="st6" d="M900.3,1146.7c-0.2,0.1-0.4,0.1-0.6,0.2c-0.6,0.2-0.9,0.2-1-0.5c-0.6-3.2-1.1-6.3-1.7-9.5
						c-0.1-0.5,0.1-0.7,0.6-0.9c0.2-0.1,0.5-0.1,0.7-0.2c0.3-0.1,0.7,0.1,0.7,0.4c0,0,0,0.1,0,0.1c0.6,3.2,1.1,6.3,1.7,9.5
						C900.9,1146.3,900.8,1146.6,900.3,1146.7z"/>
					<path class="st6" d="M908.1,1144.6c-0.4,0.2-0.9,0.3-1.4,0.5c-3.2,0.9-3.9,0-4.4-2.9c-0.5-2.9-0.2-4.2,3-5.1
						c0.5-0.1,0.9-0.2,1.4-0.3c0.5-0.1,0.9-0.3,1,0.3c0,0,0,0,0,0c0.1,0.4,0.2,1.2-0.4,1.4c-0.2,0.1-0.4,0.1-0.6,0.1
						c-0.5,0.1-1,0.2-1.5,0.3c-0.7,0.2-0.8,0.4-0.8,1c0,0.6,0,1.1,0.2,1.6c0.1,0.5,0.2,1,0.3,1.5c0.2,0.7,0.5,0.7,1.2,0.5
						c0.5-0.2,1-0.3,1.5-0.6c0.2-0.1,0.4-0.2,0.6-0.2c0.1-0.1,0.3,0,0.4,0c0.2,0.1,0.3,0.8,0.4,1
						C909,1144.3,908.6,1144.4,908.1,1144.6z"/>
					<path class="st6" d="M914.5,1143c-2.7,0.7-4-0.5-4.4-3c-0.4-2.5,0.3-4.3,3-5c2.7-0.7,4,0.6,4.4,3.1
						C917.9,1140.5,917.2,1142.3,914.5,1143z M914.8,1136.7c-0.4-0.5-0.9-0.3-1.4-0.2c-0.5,0.1-1,0.3-1.2,0.9
						c-0.2,0.6-0.1,1.4,0,1.9c0.1,0.6,0.3,1.3,0.6,1.8c0.4,0.4,0.9,0.3,1.4,0.1c0.5-0.1,1-0.3,1.2-0.8c0.2-0.6,0.1-1.4,0-1.9
						C915.3,1138,915.2,1137.2,914.8,1136.7z"/>
					<path class="st6" d="M925.9,1140.3c-0.3,0-0.6,0.1-0.9,0.2c-0.4,0.1-0.5-0.2-0.6-0.5c-0.6,0.6-1.4,1-2.3,1.2
						c-1.6,0.3-2.5-0.4-2.7-1.9c-0.3-1.7,0.6-2.6,2.2-3.1c0.7-0.2,1.3-0.4,2-0.5c-0.1-0.6-0.2-1.6-1.1-1.4c-0.8,0.2-1.5,0.4-2.3,0.8
						c-0.1,0.1-0.2,0.1-0.4,0.1c-0.6,0.1-0.6-0.5-0.6-0.9c-0.1-0.3,0-0.6,0.3-0.8c0.8-0.4,1.7-0.7,2.6-0.9c0.8-0.2,1.8-0.2,2.4,0.3
						c0.8,0.6,0.9,1.6,1.1,2.5c0.2,1.3,0.5,2.6,0.7,3.9C926.5,1140,926.4,1140.2,925.9,1140.3z M924,1137.1c-0.3,0-0.5,0.1-0.8,0.1
						c-0.3,0.1-0.7,0.1-1,0.2c-0.7,0.2-0.9,0.5-0.8,1.2c0.1,0.4,0.3,1.1,0.8,1c0.8-0.2,1.5-0.6,2-1.2
						C924.1,1138,924,1137.6,924,1137.1z"/>
					<path class="st6" d="M933.6,1139.5c-0.4,0.1-0.9,0.1-1.4,0.2c-3.2,0.3-3.9-0.7-4.4-3.7c-0.5-3-0.2-4.2,3-4.6
						c0.5,0,0.9-0.1,1.4-0.1c0.5,0,0.9-0.1,1,0.5c0,0,0,0,0,0c0.1,0.4,0.2,1.3-0.4,1.3c-0.2,0-0.4,0-0.7,0c-0.5,0-1,0-1.5,0
						c-0.7,0.1-0.8,0.2-0.8,0.9c0,0.6,0,1.1,0.2,1.7c0.1,0.5,0.2,1,0.3,1.6c0.2,0.7,0.5,0.8,1.2,0.7c0.5-0.1,1-0.2,1.5-0.3
						c0.2-0.1,0.4-0.1,0.6-0.1c0.1,0,0.3,0,0.4,0.1c0.2,0.1,0.4,0.9,0.4,1.1C934.5,1139.5,934.1,1139.4,933.6,1139.5z"/>
					<path class="st6" d="M942.4,1139.3c-0.3,0-0.6,0-0.9,0c-0.5,0-0.6-0.4-0.7-0.8c-0.2-1.4-0.5-2.9-0.7-4.3c0-0.2-0.2-1.2-0.3-1.3
						c-0.2-0.2-0.4-0.1-0.5-0.1c-0.7,0-1.4,0.3-1.8,0.8c0.3,1.6,0.6,3.3,0.8,4.9c0.1,0.5,0,0.7-0.5,0.8c-0.3,0-0.6,0-0.9,0
						c-0.4,0-0.6-0.2-0.7-0.6c-0.6-3.3-1.1-6.7-1.7-10c-0.1-0.5,0.1-0.7,0.6-0.8c0.2,0,0.5,0,0.7,0c0.3,0,0.7,0.2,0.7,0.6
						c0,0,0,0.1,0,0.1c0.2,1,0.3,2,0.5,3.1c0.6-0.4,1.3-0.6,2.1-0.6c1.5,0,2.6,0.8,2.9,2.5c0.3,1.7,0.6,3.4,0.9,5.2
						C943,1139.1,942.9,1139.3,942.4,1139.3z"/>
				</g>
			</g>
			<g style="clip-path:url(#SVGID_00000032648541290838285480000006007351307976556688_);">
				<g>
					<path class="st6" d="M680.9,1119.8c-0.2-0.1-0.4-0.3-0.5-0.4c-0.2-0.2-0.5-0.3-0.7-0.4c-0.2-0.1-0.4-0.2-0.6-0.2
						c-0.2,0.1-0.6,1.1-0.7,1.4c0.5,0.3,1,0.6,1.5,0.8c0.3,0.2,0.5,0.3,0.3,0.7c-0.1,0.2-0.1,0.4-0.2,0.6c-0.2,0.4-0.3,0.5-0.8,0.2
						c-0.5-0.3-1-0.6-1.5-0.8c-0.6,1.6-1.3,3.1-1.9,4.7c-0.1,0.4-0.3,0.6-0.8,0.3c-0.3-0.2-0.6-0.4-1-0.6c-0.4-0.2-0.4-0.5-0.2-0.8
						c0.6-1.6,1.3-3.2,1.9-4.7c-0.2-0.1-0.3-0.2-0.5-0.3c-0.3-0.2-0.3-0.5-0.2-0.7c0.1-0.2,0.2-0.4,0.2-0.6c0.2-0.5,0.6-0.2,1,0.1
						c0.1-0.2,0.1-0.4,0.2-0.6c0.2-0.6,0.5-1.2,1.1-1.5c0.9-0.4,2,0.1,3,0.6c0.3,0.2,1.1,0.6,1.2,1c0,0.1,0,0.2,0,0.3
						c0,0,0,0.1,0,0.1C681.6,1119.4,681.3,1120.1,680.9,1119.8z M683.9,1121.9c-0.2-0.1-0.4-0.2-0.6-0.3c-0.6-0.3-0.8-0.5-0.6-1.1
						c0.1-0.2,0.1-0.3,0.2-0.5c0.2-0.5,0.5-0.5,0.9-0.3c0.2,0.1,0.5,0.3,0.7,0.4c0.3,0.2,0.5,0.6,0.4,0.9c0,0,0,0,0,0.1
						c-0.1,0.2-0.1,0.3-0.2,0.5C684.6,1122,684.3,1122.2,683.9,1121.9L683.9,1121.9z M680.7,1129.9c-0.2-0.1-0.4-0.2-0.6-0.3
						c-0.5-0.3-0.8-0.5-0.6-1.1c0.7-1.9,1.5-3.7,2.2-5.6c0.2-0.5,0.5-0.5,0.9-0.3c0.2,0.1,0.5,0.3,0.7,0.4c0.3,0.2,0.5,0.6,0.4,0.9
						c0,0,0,0,0,0.1c-0.7,1.9-1.5,3.8-2.2,5.6C681.4,1130,681.2,1130.1,680.7,1129.9L680.7,1129.9z"/>
					<path class="st6" d="M686.1,1133c-0.7-0.4-1.5-0.8-2.1-1.3c-0.4-0.3-0.3-0.5-0.2-0.9c0-0.1,0.1-0.2,0.1-0.3
						c0.1-0.3,0.3-0.6,0.7-0.4c0.3,0.2,0.5,0.3,0.8,0.5c0.5,0.3,1,0.6,1.6,0.9c0.5,0.3,0.8,0.4,1-0.1c0.1-0.2,0.1-0.3,0.1-0.5
						c-0.1-0.2-1.3-1.2-1.5-1.5c-0.3-0.3-0.5-0.5-0.7-0.8c-0.6-0.8-0.8-1.4-0.4-2.2c0.9-2.2,2.5-1.4,4.4-0.4
						c0.4,0.2,0.8,0.4,1.1,0.6c0.5,0.3,0.7,0.5,0.5,1.1c-0.2,0.4-0.3,0.9-0.9,0.6c-0.3-0.1-0.5-0.3-0.8-0.5
						c-0.4-0.2-0.8-0.5-1.2-0.7c-0.6-0.3-0.9-0.5-1.1,0.1c-0.1,0.1-0.1,0.2,0,0.3c0.1,0.3,1.4,1.4,1.7,1.7c1.1,1,1.5,1.6,1,2.9
						C689.1,1134.2,688,1134,686.1,1133z"/>
					<path class="st6" d="M695.7,1127.9c-0.2-0.1-0.4-0.2-0.6-0.3c-0.6-0.3-0.8-0.5-0.6-1.1c0.1-0.2,0.1-0.3,0.2-0.5
						c0.2-0.5,0.5-0.6,0.9-0.3c0.2,0.1,0.5,0.2,0.7,0.3c0.3,0.2,0.5,0.5,0.4,0.9c0,0,0,0.1,0,0.1c-0.1,0.2-0.1,0.3-0.2,0.5
						C696.5,1127.9,696.2,1128.1,695.7,1127.9z M692.6,1136c-0.2-0.1-0.4-0.2-0.6-0.3c-0.6-0.3-0.8-0.5-0.6-1.1
						c0.8-1.9,1.5-3.8,2.3-5.8c0.2-0.5,0.5-0.6,0.9-0.3c0.2,0.1,0.5,0.2,0.7,0.3c0.3,0.2,0.5,0.5,0.4,0.9c0,0,0,0.1,0,0.1
						c-0.8,1.9-1.5,3.9-2.3,5.8C693.3,1136,693,1136.2,692.6,1136z"/>
					<path class="st6" d="M699.9,1139.6c-0.5-0.2-0.9-0.3-1.3-0.5c-3-1.4-3.1-2.6-2.1-5.4c1.1-2.8,2-3.5,5-2.2
						c0.4,0.2,0.9,0.4,1.3,0.6c0.4,0.2,0.8,0.4,0.7,0.9c0,0,0,0,0,0c-0.1,0.4-0.5,1.2-1,0.9c-0.2-0.1-0.4-0.2-0.6-0.3
						c-0.5-0.3-0.9-0.5-1.4-0.8c-0.6-0.3-0.8-0.2-1.2,0.3c-0.3,0.4-0.5,0.9-0.7,1.4c-0.2,0.5-0.4,1-0.5,1.5c-0.2,0.7,0,0.9,0.7,1.2
						c0.5,0.2,1,0.4,1.5,0.5c0.2,0.1,0.4,0.1,0.6,0.2c0.1,0,0.3,0.2,0.3,0.3c0.1,0.2-0.1,0.9-0.2,1.1
						C700.8,1139.9,700.4,1139.7,699.9,1139.6z"/>
					<path class="st6" d="M708.2,1142.9c-0.3-0.1-0.6-0.2-0.9-0.4c-0.4-0.1-0.4-0.4-0.2-0.7c-0.8,0.2-1.7,0.1-2.6-0.2
						c-1.5-0.6-1.9-1.7-1.3-3.2c0.6-1.6,1.8-1.8,3.4-1.3c0.7,0.2,1.4,0.4,2,0.7c0.2-0.6,0.7-1.4-0.2-1.8c-0.8-0.3-1.5-0.5-2.3-0.6
						c-0.1,0-0.3-0.1-0.4-0.1c-0.5-0.2-0.2-0.7-0.1-1.1c0.1-0.3,0.4-0.5,0.7-0.5c0.9,0.1,1.8,0.4,2.6,0.7c0.7,0.3,1.6,0.8,1.9,1.6
						c0.3,0.9,0,1.8-0.4,2.7c-0.5,1.2-0.9,2.5-1.4,3.7C708.9,1143,708.7,1143.1,708.2,1142.9z M708.1,1139.2
						c-0.2-0.1-0.5-0.2-0.7-0.3c-0.3-0.1-0.7-0.3-1-0.4c-0.7-0.2-1-0.1-1.3,0.6c-0.1,0.4-0.3,1,0.2,1.3c0.8,0.3,1.6,0.3,2.4,0.1
						C707.8,1140,708,1139.6,708.1,1139.2z"/>
					<path class="st6" d="M712.3,1144.6c-0.2-0.1-0.4-0.1-0.5-0.2c-0.6-0.2-0.8-0.4-0.6-1c1.2-3.1,2.3-6.1,3.5-9.2
						c0.2-0.5,0.4-0.6,0.9-0.4c0.2,0.1,0.5,0.2,0.7,0.3c0.3,0.1,0.5,0.5,0.4,0.8c0,0,0,0.1,0,0.1c-1.2,3.1-2.3,6.2-3.5,9.2
						C713,1144.5,712.8,1144.7,712.3,1144.6z"/>
					<path class="st6" d="M719.6,1147.4c-0.5-0.1-0.9-0.2-1.3-0.4c-3-1.1-3.1-2.3-2.1-5.2c1.1-2.9,2-3.7,5-2.7
						c0.4,0.2,0.9,0.3,1.3,0.5c0.4,0.2,0.8,0.3,0.7,0.8c0,0,0,0,0,0c-0.1,0.4-0.5,1.2-1,1c-0.2-0.1-0.4-0.2-0.6-0.3
						c-0.5-0.2-0.9-0.4-1.4-0.6c-0.6-0.2-0.8-0.1-1.2,0.4c-0.3,0.5-0.5,1-0.7,1.5c-0.2,0.5-0.4,1-0.5,1.5c-0.2,0.7,0,0.9,0.7,1.1
						c0.5,0.2,1,0.3,1.5,0.4c0.2,0,0.4,0.1,0.6,0.1c0.1,0,0.3,0.1,0.3,0.3c0.1,0.2-0.1,0.9-0.2,1.1
						C720.5,1147.7,720.1,1147.5,719.6,1147.4z"/>
					<path class="st6" d="M725.7,1149.5c-2.6-0.8-3-2.7-2.1-5.1c0.9-2.5,2.4-3.7,5-2.9c2.6,0.8,3,2.6,2.1,5.1
						C729.8,1149.1,728.3,1150.3,725.7,1149.5z M729.1,1144.1c-0.1-0.6-0.6-0.7-1.1-0.9c-0.5-0.2-1-0.3-1.5,0.1
						c-0.5,0.4-0.8,1.2-1,1.7c-0.2,0.5-0.5,1.3-0.4,1.9c0.1,0.6,0.6,0.7,1.1,0.9c0.5,0.2,1,0.3,1.4-0.1c0.5-0.4,0.8-1.2,0.9-1.7
						C728.9,1145.5,729.2,1144.6,729.1,1144.1z"/>
					<path class="st6" d="M736.7,1152.5c-0.3-0.1-0.6-0.2-0.9-0.2c-0.4-0.1-0.4-0.4-0.2-0.7c-0.8,0.3-1.7,0.4-2.6,0.2
						c-1.5-0.4-1.9-1.5-1.3-3c0.6-1.7,1.8-2,3.4-1.8c0.7,0.1,1.3,0.2,2,0.4c0.2-0.6,0.6-1.5-0.2-1.7c-0.8-0.2-1.5-0.3-2.3-0.3
						c-0.1,0-0.3,0-0.4-0.1c-0.5-0.1-0.2-0.7-0.1-1.1c0.1-0.3,0.4-0.6,0.7-0.6c0.9,0,1.8,0.1,2.6,0.4c0.7,0.2,1.6,0.6,1.9,1.3
						c0.3,0.9,0,1.9-0.4,2.8c-0.5,1.3-0.9,2.6-1.4,3.9C737.4,1152.4,737.2,1152.6,736.7,1152.5z M736.6,1148.7
						c-0.2-0.1-0.5-0.2-0.7-0.2c-0.3-0.1-0.6-0.2-1-0.2c-0.7-0.1-1,0.1-1.3,0.8c-0.1,0.4-0.3,1.1,0.2,1.2c0.8,0.2,1.6,0.1,2.4-0.2
						C736.3,1149.6,736.5,1149.2,736.6,1148.7z"/>
					<path class="st6" d="M744,1154.4c-0.4-0.1-0.9-0.1-1.3-0.2c-3-0.7-3.1-1.9-2-4.9c1.1-3,2-4,5-3.3c0.4,0.1,0.9,0.2,1.3,0.4
						c0.4,0.1,0.8,0.2,0.6,0.7c0,0,0,0,0,0c-0.1,0.4-0.4,1.3-1,1.2c-0.2,0-0.4-0.1-0.6-0.2c-0.4-0.2-0.9-0.3-1.4-0.4
						c-0.6-0.1-0.8,0-1.2,0.6c-0.3,0.5-0.5,1-0.7,1.6c-0.2,0.5-0.4,1-0.5,1.6c-0.2,0.7,0,0.9,0.7,1c0.5,0.1,1,0.2,1.5,0.2
						c0.2,0,0.4,0,0.6,0.1c0.1,0,0.3,0.1,0.3,0.2c0.1,0.2-0.1,1-0.2,1.1C744.8,1154.6,744.5,1154.4,744,1154.4z"/>
					<path class="st6" d="M752.3,1156c-0.3-0.1-0.5-0.1-0.8-0.2c-0.4-0.1-0.4-0.4-0.3-0.8c0.5-1.4,1-2.8,1.5-4.2
						c0.1-0.2,0.4-1.1,0.3-1.3c-0.1-0.2-0.3-0.2-0.4-0.2c-0.7-0.1-1.4,0.1-2.1,0.4c-0.6,1.6-1.1,3.2-1.7,4.9
						c-0.2,0.5-0.4,0.7-0.9,0.6c-0.3-0.1-0.5-0.1-0.8-0.2c-0.4-0.1-0.5-0.4-0.3-0.8c1.2-3.3,2.3-6.6,3.5-9.9
						c0.2-0.5,0.4-0.7,0.9-0.6c0.2,0,0.5,0.1,0.7,0.1c0.3,0,0.5,0.4,0.4,0.7c0,0,0,0.1,0,0.1c-0.4,1-0.7,2-1.1,3
						c0.8-0.2,1.5-0.3,2.3-0.2c1.4,0.3,2.1,1.2,1.5,2.8c-0.6,1.7-1.2,3.4-1.8,5.1C753,1155.8,752.8,1156.1,752.3,1156z"/>
				</g>
			</g>
		</g>
		<g>
			<g>
				<path class="st6" d="M766.4,1147.7c-0.2,0-0.4-0.1-0.6-0.1c-0.3-0.1-0.5-0.1-0.8-0.1c-0.2,0-0.5,0-0.6,0.1
					c-0.2,0.2-0.1,1.4-0.1,1.6c0.5,0,1.1,0.1,1.6,0.1c0.4,0,0.5,0.1,0.5,0.5c0,0.2,0,0.4,0,0.6c0,0.5-0.1,0.6-0.6,0.6
					c-0.5,0-1.1-0.1-1.6-0.1c0,1.8,0,3.6,0.1,5.4c0,0.4-0.1,0.7-0.6,0.7c-0.3,0-0.7-0.1-1-0.1c-0.4,0-0.5-0.3-0.5-0.7
					c0-1.8,0-3.6-0.1-5.5c-0.2,0-0.3,0-0.5-0.1c-0.4,0-0.4-0.3-0.4-0.6c0-0.2,0-0.5,0-0.7c0-0.6,0.5-0.4,0.9-0.4c0-0.2,0-0.4,0-0.6
					c0-0.7,0-1.4,0.4-1.9c0.7-0.9,1.8-0.8,2.8-0.7c0.3,0,1.1,0.1,1.4,0.4c0.1,0.1,0.1,0.2,0.1,0.3c0,0,0,0.1,0,0.1
					C766.9,1147,766.9,1147.7,766.4,1147.7z M769.8,1148.4c-0.2,0-0.4,0-0.6,0c-0.6,0-0.9-0.1-0.9-0.8c0-0.2,0-0.4,0-0.6
					c0-0.5,0.2-0.7,0.7-0.7c0.3,0,0.5,0,0.8,0c0.4,0,0.6,0.3,0.7,0.7c0,0,0,0.1,0,0.1c0,0.2,0,0.4,0,0.6
					C770.4,1148.1,770.3,1148.4,769.8,1148.4L769.8,1148.4z M769.9,1157.4c-0.2,0-0.4,0-0.6,0c-0.6,0-0.9-0.1-0.9-0.8
					c0-2.1-0.1-4.3-0.1-6.4c0-0.5,0.2-0.7,0.7-0.7c0.3,0,0.5,0,0.8,0c0.4,0,0.6,0.3,0.7,0.7c0,0,0,0.1,0,0.1c0,2.1,0.1,4.3,0.1,6.4
					C770.5,1157.2,770.4,1157.4,769.9,1157.4L769.9,1157.4z"/>
				<path class="st6" d="M775.8,1157.8c-0.8,0-1.6,0-2.3-0.1c-0.5-0.1-0.5-0.3-0.5-0.8c0-0.1,0-0.2,0-0.3c0-0.4,0-0.8,0.5-0.7
					c0.3,0,0.6,0.1,0.9,0.1c0.6,0.1,1.1,0.1,1.7,0.1s0.8,0,0.8-0.6c0-0.2,0-0.4-0.1-0.5c-0.1-0.2-1.6-0.6-1.8-0.7
					c-0.3-0.1-0.6-0.2-0.9-0.4c-0.9-0.4-1.2-0.9-1.2-1.9c0-2.5,1.7-2.4,3.7-2.4c0.4,0,0.8,0,1.2,0c0.6,0,0.8,0.2,0.8,0.8
					c0,0.5,0,1-0.6,1c-0.3,0-0.6,0-0.9-0.1c-0.4,0-0.9-0.1-1.3-0.1c-0.6,0-1-0.1-1,0.6c0,0.1,0,0.2,0.1,0.3c0.2,0.2,1.7,0.7,2.1,0.8
					c1.3,0.4,1.9,0.8,1.9,2.3C778.9,1157.4,777.8,1157.8,775.8,1157.8z"/>
				<path class="st6" d="M782.5,1148.5c-0.2,0-0.4,0-0.6,0c-0.6,0-0.9-0.1-0.9-0.7c0-0.2,0-0.4,0-0.6c0-0.5,0.2-0.7,0.7-0.7
					c0.3,0,0.5,0,0.8,0c0.4,0,0.6,0.3,0.7,0.6c0,0,0,0.1,0,0.1c0,0.2,0,0.4,0,0.6C783.1,1148.2,783,1148.4,782.5,1148.5z
					 M782.6,1157.5c-0.2,0-0.4,0-0.6,0c-0.6,0-0.9-0.1-0.9-0.7c0-2.1-0.1-4.3-0.1-6.4c0-0.5,0.2-0.7,0.7-0.7c0.3,0,0.5,0,0.8,0
					c0.4,0,0.6,0.3,0.7,0.6c0,0,0,0.1,0,0.1c0,2.1,0.1,4.3,0.1,6.4C783.2,1157.2,783.1,1157.5,782.6,1157.5z"/>
				<path class="st6" d="M790.5,1157.3c-0.5,0.1-0.9,0.1-1.4,0.1c-3.2,0.2-3.8-0.9-3.8-4c0-3.1,0.5-4.2,3.7-4.3c0.5,0,0.9,0,1.4,0
					c0.5,0,0.9-0.1,0.9,0.5c0,0,0,0,0,0c0,0.4,0,1.3-0.6,1.3c-0.2,0-0.4,0-0.7,0c-0.5-0.1-1-0.1-1.5-0.1c-0.7,0-0.8,0.2-1,0.8
					c-0.1,0.5-0.1,1.1-0.1,1.6c0,0.5,0,1,0.1,1.6c0.1,0.7,0.3,0.8,1,0.8c0.5,0,1-0.1,1.6-0.2c0.2,0,0.4-0.1,0.6-0.1
					c0.1,0,0.3,0,0.4,0.1c0.1,0.1,0.2,0.9,0.2,1.1C791.4,1157.2,791,1157.2,790.5,1157.3z"/>
				<path class="st6" d="M799.3,1156.6c-0.3,0-0.6,0-0.9,0.1c-0.4,0-0.5-0.2-0.5-0.6c-0.7,0.5-1.5,0.9-2.4,1
					c-1.6,0.1-2.4-0.7-2.4-2.3c0-1.8,1-2.5,2.6-2.7c0.7-0.1,1.4-0.2,2.1-0.3c0-0.7,0.1-1.6-0.8-1.5c-0.8,0.1-1.6,0.2-2.4,0.5
					c-0.1,0-0.3,0.1-0.4,0.1c-0.6,0-0.5-0.5-0.5-1c-0.1-0.3,0.1-0.6,0.5-0.7c0.9-0.3,1.8-0.4,2.7-0.5c0.8-0.1,1.8,0,2.4,0.6
					c0.7,0.7,0.6,1.7,0.7,2.6c0,1.3,0,2.7,0,4C799.9,1156.3,799.7,1156.6,799.3,1156.6z M797.8,1153.2c-0.3,0-0.5,0-0.8,0
					c-0.3,0-0.7,0.1-1,0.1c-0.7,0.1-1,0.4-1,1.1c0,0.4,0.1,1.1,0.6,1.1c0.8-0.1,1.6-0.4,2.2-1
					C797.8,1154.1,797.8,1153.7,797.8,1153.2z"/>
				<path class="st6" d="M803.6,1156.3c-0.2,0-0.4,0-0.6,0c-0.6,0-0.9,0-0.9-0.7c0-3.3-0.1-6.6-0.1-9.8c0-0.5,0.2-0.7,0.7-0.8
					c0.2,0,0.5,0,0.7-0.1c0.3,0,0.6,0.2,0.7,0.5c0,0,0,0.1,0,0.1c0,3.3,0.1,6.6,0.1,9.8C804.2,1156,804.1,1156.2,803.6,1156.3z"/>
				<path class="st6" d="M811.5,1155.9c-0.5,0.1-0.9,0.1-1.4,0.2c-3.2,0.2-3.8-0.8-3.8-3.9c0-3,0.5-4.2,3.7-4.4c0.5,0,0.9,0,1.4,0
					c0.5,0,0.9-0.1,0.9,0.5c0,0,0,0,0,0c0,0.4,0,1.3-0.6,1.3c-0.2,0-0.4,0-0.6,0c-0.5,0-1-0.1-1.5,0c-0.7,0-0.8,0.2-1,0.8
					c-0.1,0.5-0.1,1.1-0.1,1.7c0,0.5,0,1,0.1,1.6c0.1,0.7,0.3,0.8,1,0.7c0.5,0,1-0.1,1.6-0.2c0.2-0.1,0.4-0.1,0.6-0.1
					c0.1,0,0.3,0,0.4,0.1c0.1,0.1,0.2,0.9,0.2,1.1C812.4,1155.8,812,1155.8,811.5,1155.9z"/>
				<path class="st6" d="M817.9,1155.5c-2.7,0.2-3.8-1.4-3.8-3.9c0-2.6,1-4.2,3.7-4.4c2.8-0.1,3.8,1.4,3.8,4
					C821.7,1153.8,820.7,1155.4,817.9,1155.5z M819.2,1149.4c-0.3-0.5-0.8-0.5-1.4-0.5c-0.6,0-1.1,0.1-1.3,0.6
					c-0.3,0.5-0.3,1.3-0.3,1.9c0,0.6,0,1.4,0.3,1.9c0.3,0.5,0.8,0.5,1.4,0.4c0.5,0,1-0.1,1.3-0.6c0.3-0.5,0.3-1.4,0.3-1.9
					C819.5,1150.8,819.5,1149.9,819.2,1149.4z"/>
				<path class="st6" d="M829.6,1154.9c-0.3,0-0.6,0-0.9,0c-0.4,0-0.5-0.2-0.5-0.6c-0.7,0.5-1.5,0.8-2.4,0.9c-1.6,0-2.4-0.8-2.4-2.4
					c0-1.8,1-2.4,2.6-2.6c0.7-0.1,1.4-0.2,2.1-0.2c0-0.7,0.1-1.6-0.8-1.6c-0.8,0-1.6,0.2-2.4,0.4c-0.1,0-0.3,0.1-0.4,0.1
					c-0.6,0-0.5-0.6-0.5-1c-0.1-0.3,0.1-0.6,0.5-0.7c0.9-0.2,1.8-0.4,2.7-0.4c0.8,0,1.8,0.1,2.4,0.7c0.7,0.7,0.6,1.7,0.7,2.7
					c0,1.3,0,2.7,0,4C830.2,1154.7,830.1,1154.9,829.6,1154.9z M828.1,1151.5c-0.3,0-0.5,0-0.8,0c-0.3,0-0.7,0-1,0.1
					c-0.7,0.1-1,0.3-1,1.1c0,0.4,0.1,1.1,0.6,1.1c0.8-0.1,1.6-0.4,2.2-0.9C828.2,1152.4,828.1,1151.9,828.1,1151.5z"/>
				<path class="st6" d="M837.4,1155.2c-0.5,0-0.9,0-1.4,0c-3.2-0.1-3.8-1.2-3.8-4.2c0-3,0.5-4.2,3.7-4.1c0.5,0,0.9,0.1,1.4,0.1
					c0.5,0.1,0.9,0,0.9,0.6c0,0,0,0,0,0c0,0.4,0,1.3-0.6,1.3c-0.2,0-0.4,0-0.7-0.1c-0.5-0.1-1-0.2-1.5-0.2c-0.7,0-0.8,0.1-1,0.8
					c-0.1,0.5-0.1,1.1-0.1,1.6c0,0.5,0,1.1,0.1,1.6c0.1,0.7,0.3,0.8,1,0.8c0.5,0,1,0,1.6-0.1c0.2,0,0.4,0,0.6,0
					c0.1,0,0.3,0.1,0.4,0.2c0.1,0.1,0.2,0.9,0.2,1.1C838.3,1155.2,837.9,1155.1,837.4,1155.2z"/>
				<path class="st6" d="M846.3,1155.7c-0.3,0-0.6-0.1-0.9-0.1c-0.5,0-0.6-0.4-0.6-0.8c0-1.4,0-2.8-0.1-4.2c0-0.2,0-1.1-0.1-1.3
					c-0.1-0.2-0.4-0.2-0.5-0.2c-0.7,0-1.4,0.2-2,0.6c0,1.6,0,3.3,0.1,4.9c0,0.5-0.1,0.7-0.6,0.7c-0.3,0-0.6,0-0.9-0.1
					c-0.4,0-0.6-0.3-0.6-0.7c0-3.3-0.1-6.6-0.1-10c0-0.5,0.2-0.7,0.7-0.7c0.3,0,0.5,0,0.8,0c0.3,0,0.6,0.3,0.7,0.6c0,0,0,0.1,0,0.1
					c0,1,0,2,0,3c0.7-0.3,1.4-0.4,2.2-0.4c1.5,0.1,2.5,1,2.6,2.6c0,1.7,0,3.4,0.1,5C846.9,1155.4,846.8,1155.7,846.3,1155.7z"/>
			</g>
		</g>
		<path class="st7" d="M1011,1310.5c86.9,3.8,105.4-43.4,105.4-43.4c-14.7,12.3-121.8,1.4-171.6,0c-49.7-1.4-48-33-48-33
			c-47.2,19.2-70.5,10.9-82-16.9c-11.5-27.9-10.1-75.9-10.1-75.9l-69.2-22.9l-45.5-0.8c0,0-16.1,37.4-21,58.2s-8.2,43.2-13.1,47.5
			c-4.9,4.4-148,8.7-169.9,13.7c-21.9,4.9-75.9,65-75.9,65s2.7,47,19.1,55.2c16.4,8.2,32.8,13.1,45.9,19.1c13.1,6,9.3,0,28.4,6
			c19.1,6,21.3,11.5,117.4,6.6c96.1-4.9,159.5-5.5,159.5-5.5s3.2-6.6,5-16.7c0-0.2-0.1-0.5-0.1-0.7c-4.3-32.7-22.7-36.2-22.7-36.2
			c-56.6,11.4-109-24.5-135.7-36.5c-26.8-12-73.7-16.9-73.7-16.9c61.2-7.6,100,18,100,18l59.5,17.9l28.4,5l21.6-7.4l15.2-1.8
			l2.3,14.7l6.8,8.5l32.8,25.9l-4.6,9.6l10.3,12.9v7.6c0,0,40.1,1.5,74.3,6.6c34.2,5.1,132.6,21.9,166.8,11.7
			c34.2-10.2,22.6,3.3,52.4-10.6c25.7-11.9,36-8.5,43-23C1007.1,1459.3,924.1,1306.7,1011,1310.5z"/>
		<path class="st4" d="M553.2,1276.1c0,0,23.3-10.3,55-13.1c31.7-2.8,74.6-3.3,103.1-9.4c28.6-6.1,31.5,63.9,68.8,69
			c37.4,5.1-53,3.6-53,3.6l-96.5-36.3L553.2,1276.1z"/>
		<path class="st8" d="M703.4,806.3c0,0,39.3-19.1,44.8-37.7c5.5-18.6,0-37.1,0-37.1s-11.7-12.9-13.1-35.1c0,0-4.4,3.3-8.9-7.1
			s-5.1-8.2-4.4-16c0.7-7.8-3.6-7.8-3.8-11.5s0.4-14.2,8-10.4c0,0,4.5,2.5,2.5-3.6c-1.9-6.1-4.1-23.1-4.1-23.1l4.6-32l25.4-29.5
			h39.9l32.8,3.8l33.3,22.9l1.6,52.2c0,0-1.7,9,0,9.2c1.7,0.2,9.7-6.2,8.3,10.6c-1.5,16.8-0.2,17.8-5.5,24
			c-5.3,6.2-4.6,11.8-12.6,11.8c0,0-5.1,20-11.7,28.8c0,0-1.8,32.8,17.7,49.3s36.4,16,36.4,16s45.7,12.2,58.3,19.3
			c0,0,50.8,20.8,48.6,88c-2.2,67.2,13.7,163.3,31.1,185.7c17.5,22.4,33.9,36.1,51.4,71c17.5,35,67.2,77,79.8,84.1
			c12.6,7.1,4.1-7.6,33.6,12.8c29.5,20.5,10.7,18.8,9,36.1c0,0,6-5.2,10.9,0c4.9,5.2,2.7,15.6,2.7,15.6s3-0.3,5.5,1.4
			c0,0,1.4-12.8,13.4-7.1c0,0,6.3,1.6,0,14.2c-6.3,12.6-3,15.6-13.1,15.6c0,0-2.7,1.4-7.1-3.3c0,0,0.5,7.1-8.2,9.3
			c-8.7,2.2-13.7-4.1-13.7-4.1s-0.5,8.2-7.1,8.2c-6.6,0-20.2-10.1-20.2-10.1s-0.3,2.5-6,1.6c-5.7-0.8-17.2-7.6-22.1-11.5
			s-3.6-9.8-12-19.1c-8.5-9.3-6.6-23.5-10.4-25.9s-53.8-45.9-70.5-56.8c-16.7-10.9-72.8-63.8-86.3-102.4s-6.6-21.9-14.9-52.8
			c-8.4-31-14.2-71.7-14.2-71.7s-3.3,36.8-8,59c-4.7,22.2-12.7,45.2-5.1,72.8c0,0-21.1,12.4-61.8,14c-40.7,1.6-56,11.5-105.7,1.6
			c-49.7-9.8-61.2-13.7-62.5-19.9c-1.4-6.3,8.7-20.8,3.3-37.1c-5.5-16.4-4.6-45.3-9.3-56.5c-4.6-11.2-11.2-32.8-11.2-32.8
			s-10.2,79.4-22.9,111.1c0,0-5.1,15.5-6.7,24.4c-1.6,8.9-7.3,12.6-12.6,22.6c-5.3,10-42.2,50.3-103.4,73.9
			c-61.2,23.7-69.8,33.1-71.3,34.6c-1.5,1.5-11.9,15.4-17.3,19.9c-5.5,4.5-9.8,14.3-18.6,16.3s0.1,4.4-9.8,8.1c0,0-3.3,0.8-8.6-1.6
			c0,0-2.2,2.9-7.4,4.6s-10-3.4-20.1-1.4s-18.4,3.8-20.9-1.8c-2.5-5.6-1.8-4.8-4.9-4.6c-3.1,0.1-10,1.6-14.1-9.6
			c-4.1-11.2-6-13.5-8.2-19.8c-2.2-6.3,0-10.7,6.6-10.2c6.6,0.4,12.6,15,12.6,15s-0.3-6.8-1.1-12.7c-0.8-5.9,0.8-9.4,7.6-9.7
			c6.8-0.3,8.1,6.1,11.3,22.7c0,0,1.8-0.4,3-1.8c0,0-4.2-15-6.4-18.7c-2.2-3.7-3.3-1.6-3.1-9.4c0.1-7.8,5.1-12,7.8-12
			s6.1,0.5,8.6-1.9s7.1-0.8,8.9-1.1c1.8-0.3,22.5-8.7,38.8-7c16.3,1.8,81.3-51.6,81.3-51.6s29.2-23.9,40-40.6s26.2-16.9,33.6-30.6
			s13.8-32.9,14.3-53.4c0.5-20.5,14.2-53.5,12-66.5c-2.2-13-5.9-76.8,8.9-107.6S639.5,832.3,703.4,806.3z"/>
		<path class="st8" d="M777.9,1320.8c0,0,14.3,0.4,15.1-4.2c0.8-4.6,9.3-27,28.1-28.7c18.8-1.6,33.3,13.9,47.3,6.8
			c13.9-7.1,46.2-32.2,65-29.2c18.8,3,18.8,2.2,22.9-0.2c4.1-2.5,30.3,2.7,32.8,22.1c0,0,7.4,6.8,3,11.7c0,0-8.5,3.8-27,6.6
			c-18.6,2.7-37.1,18-41.2,22.1c-4.1,4.1-34.7,27-47.8,31.7c-13.1,4.6-16.7,12.8-28.7,12s-5.5,10.1-25.7,9s-39.2-2.5-39.2-2.5
			S793.6,1347.4,777.9,1320.8z"/>
		<path class="st9" d="M793,1316.5c0,0-8.7-11.5-23.5-8.5c-14.7,3-43.4,13.7-69.9-1.6c0,0-3.8-4.1-9.3-4.4
			c-5.5-0.3-10.9-18.6-30-13.4c0,0-3,0.8-7.1,5.5c0,0,57.7,38.6,117.4,16.4c0,0,4.4,4.7,7.3,10.2
			C777.9,1320.8,791.5,1321.4,793,1316.5z"/>
		<path class="st10" d="M728.5,647.8c0,0-11.7-0.2-11.7-10.4c0,0-8.7-10.9-3.3-22.9c0,0-8-1.1-5.8-10.6c0,0-5.8,6.6-13.1-2.2
			c0,0-17.5-0.7-15.7-11.7c0,0-16-8.7-6.2-24.4c0,0-10-4.7-3.2-12c0,0-10.6-10.2-0.8-18.9c0,0-7.6-19.7,13.5-22.6
			c0,0-8.7-11.7,3.6-18.2c0,0,3.3-18.2,16-14.2c0,0,6.9-17.8,22.2-10.2c0,0,4.7-15.3,17.5-7.3c0,0,14.6-5.8,16,5.5
			c0,0,13.5-5.8,14.2,5.5c0,0,13.5-6.9,18.9,4.7c0,0,10.6,0.4,8.7,7.3c0,0,1.8-9.5,13.5-8.4c0,0,0.7-13.8,7.3-11.7
			c0,0,8-14.1,17.8-5.2c0,0,16.4-10.8,19.3,1.6c0,0,14.9-5.5,18.6,6.9c0,0,12-6.6,14.9,6.2c0,0,16.8,2.9,15.7,14.9
			c0,0,13.8,0,11.3,11.3c0,0,14.6,6.2,7.6,16.8c0,0,8.4,6.9,0.4,13.5c0,0,13.1,9.1,1.8,17.5c0,0,10.9,9.8-3.6,17.8
			c0,0,5.5,7.6-1.5,13.5c0,0,1.5,13.8-9.8,14.2c0,0-6.6,13.8-15.3,8c0,0,1.1,19.7-11.3,17.8c0,0,0.4,17.5-12,15.7
			c0,0,4.4,13.3-7.3,14.8c0,0-8.7,9.7-8.7,0c0-9.7,2.2-19.6-0.7-26.1c-2.9-6.6-8-12-7.6-21.1s-4.4-12.7-13.1-20.8
			c-8.7-8-65.9-20.8-93.2,3.6c0,0-5.8,5.8-5.1,12c0.7,6.2,3.3,10.9-1.8,17.5c-5.1,6.6-2.2,10.6-4.7,18.6
			C729.3,642.1,728.5,647.8,728.5,647.8z"/>
		<g>
			<path class="st10" d="M807.9,655.9c1.2-0.3,2.4,0,3.5,0.6c1,0.4,2.2,0.6,3.3,0.9c7.5,1.3,15.6,1.8,22.3-1.7
				c0.6-0.1,1.3,0,1.9,0.2c-0.6-0.1-1.2-0.1-1.8,0.1c-0.6,0.2-1.1,0.5-1.5,0.9c-6.3,3.5-14.1,2.8-21,1.2c-1.1-0.3-2.3-0.6-3.4-1.2
				C810.2,656.2,809.1,655.8,807.9,655.9L807.9,655.9z"/>
		</g>
		<g>
			<path class="st10" d="M776.8,655.9c-1.2-0.1-2.3,0.3-3.3,1c-1.1,0.6-2.2,0.9-3.4,1.2c-6.8,1.6-14.6,2.3-21-1.2
				c-0.4-0.4-0.9-0.8-1.5-0.9c-0.6-0.2-1.2-0.2-1.8-0.1c0.6-0.2,1.2-0.3,1.9-0.2c6.7,3.4,14.8,3,22.3,1.7c1.1-0.2,2.3-0.5,3.3-0.9
				C774.4,655.9,775.6,655.6,776.8,655.9L776.8,655.9z"/>
		</g>
		<g>
			<path class="st10" d="M804.9,638.7c2.2-3.4,5.3-5.7,8.7-7.5c3.4-1.8,7.4-2.1,11.2-2.4c7.5-0.8,16,1.2,20.9,7.2
				c0,0-0.4,0.5-0.4,0.5c-5.8-4-13.1-4.3-19.7-2.6c-3.3,0.8-6.3,2.6-9.6,3.4c-3.3,0.9-6.8,1.7-10.7,2L804.9,638.7L804.9,638.7z"/>
		</g>
		<g>
			<path class="st10" d="M779.9,642c-3.9-0.6-7.3-1.6-10.6-2.5c-3.3-0.9-6.3-2.6-9.6-3.3c-6.8-1.5-13.8-0.2-19.6,4
				c0,0-0.4-0.5-0.4-0.5c4.8-6.1,13-9.2,20.7-8.6c2,0.1,3.9,0.3,5.9,0.6c3.9,0.6,7.4,2.6,10.3,5.2c1.4,1.3,2.8,2.8,3.8,4.6
				L779.9,642L779.9,642z"/>
		</g>
		<g>
			<path class="st11" d="M786.3,652.8c2.5,7.3,3.5,15.7,0.3,23c-1.4,3.3-7.1,10.3-4,13.5c1.9,1.6,4.7,1.6,7.1,1.8
				c5.1,0.1,10.3-0.7,15.4-1.3c-5.9,1.1-18.1,4.1-23.1,0.3c-3.9-3.9,2-10.8,3.7-14.6C788.9,668.3,788.1,660.1,786.3,652.8
				L786.3,652.8z"/>
		</g>
		<path class="st11" d="M769.3,716.7c0,0,12.2-10.7,23.3-6.2c0,0,3.5,2,5.9,0.2c2.3-1.8,9.3-2,18.2,6
			C816.7,716.7,797.6,731.3,769.3,716.7z"/>
		<path class="st4" d="M911.5,880.4c-4.3-32.9,7-67.2,12-80.1c-14.7-4.6-28.8-8.3-28.8-8.3s-0.1,0-0.4,0
			c-10.6,25.4,1.7,22-26.5,88.5c-29.5,69.4-98.3,51.8-123.5,27c-21.5-21.3-36.6-83.7-40.5-101.3c-0.3,0.1-0.5,0.2-0.5,0.2
			c-10.2,4.1-19,7.8-26.9,11.1c3.5,18.5,11.5,71.9,10,83.1c-1.6,12-11.2,32.8-11.2,47.8c0,15-2.5,42.6-2.5,42.6s6.6,21.6,11.2,32.8
			c2.5,6,3.4,17.1,4.6,28.7c13.1,4.8,43,6.8,64.5,5.2c26.2-1.9,72.1-5.5,113.1-4.4c41,1.1,60.2-10.7,60.2-10.7
			c4.1-22.2,6.8-52.6,6.8-52.6c-4.3-26-5.3-50.8-5.3-50.8C921.9,928.1,917,922.1,911.5,880.4z"/>
		<path class="st6" d="M805.3,955.8c-1.4,0.7-2.3,2.2-2.3,3.8l0,0l1.2,28.3c0,0.8-0.6,1.4-1.3,1.5c-0.1,0-0.3,0-0.4,0
			c-6.5-1.6-11.1-7.3-11.4-14c0-0.2,0-0.4,0-0.6l0-0.2c0-0.2,0-0.3,0-0.5l0-0.1c0-0.4,0.1-0.8,0.1-1.2l0-0.1c0-0.2,0.1-0.4,0.1-0.5
			c0,0,0-0.1,0-0.1c0.1-0.4,0.2-0.8,0.3-1.2l0-0.1c0.1-0.2,0.1-0.4,0.2-0.6l0,0c0.1-0.4,0.3-0.8,0.4-1.2l0-0.1
			c0.2-0.4,0.3-0.8,0.5-1.1l0,0c0.1-0.2,0.2-0.3,0.3-0.5c0,0,0-0.1,0.1-0.1c0.1-0.2,0.2-0.3,0.3-0.5l0-0.1c0.1-0.2,0.2-0.3,0.3-0.5
			l0.1-0.1c0.5-0.7,1-1.3,1.6-1.9c0.2-0.2,0.5-0.5,0.8-0.7c0.7-0.6,0.8-1.7,0.2-2.4c0-0.1-0.1-0.1-0.2-0.2l-1.3-1.2
			c-0.6-0.6-1.6-0.6-2.3,0c-0.9,0.8-1.8,1.7-2.5,2.7l0,0l0,0c-0.2,0.2-0.3,0.4-0.5,0.7l0,0c-0.2,0.2-0.3,0.4-0.5,0.6l-0.1,0.1
			c-0.2,0.4-0.5,0.9-0.8,1.4l-0.1,0.1c-0.3,0.5-0.5,1-0.7,1.5c0,0,0,0.1-0.1,0.1c-0.1,0.2-0.2,0.5-0.3,0.7l0,0.1
			c-0.1,0.3-0.2,0.5-0.3,0.8l-0.1,0.2c-0.1,0.2-0.1,0.5-0.2,0.7l0,0.1c-0.1,0.3-0.1,0.5-0.2,0.8l0,0.1c-0.1,0.2-0.1,0.4-0.1,0.7
			c0,0.1,0,0.1,0,0.2c0,0.3-0.1,0.5-0.1,0.8c0,0,0,0.1,0,0.1c0,0.2-0.1,0.5-0.1,0.7c0,0.1,0,0.1,0,0.2c0,0.3,0,0.5-0.1,0.8
			c0,0,0,0.1,0,0.1c0,0.2,0,0.5,0,0.7c0,0.1,0,0.1,0,0.2c0,0.3,0,0.6,0,0.8l0,0c0.4,9.7,7.7,17.8,17.4,19.2c0.7,0.1,1.2,0.7,1.2,1.3
			l0.3,7.6c0,0.8,0.7,1.4,1.5,1.3c0,0,0,0,0,0l2.3-0.1c0.8,0,1.4-0.7,1.3-1.5l0,0l-0.3-7.6c0-0.7,0.4-1.3,1.1-1.4
			c4-0.9,7.6-3,10.4-6c1.2-1.3,2.1-2.7,3-4.2c5.3-9.9,1.5-22.1-8.3-27.4c-1.3-0.7-2.7-1.3-4.2-1.7
			C809.5,954.6,807.2,954.8,805.3,955.8z M820.2,980.7c-1.7,3.9-5,6.9-9,8.3c-0.7,0.3-1.5-0.1-1.8-0.9c0-0.1-0.1-0.3-0.1-0.4
			l-1-24.9c-0.1-1.3,1-2.5,2.3-2.5c0.3,0,0.6,0,0.9,0.1c7.8,2.9,11.9,11.6,9,19.5C820.4,980.2,820.3,980.4,820.2,980.7L820.2,980.7z
			"/>
		<g>
			<g>
				<path class="st6" d="M744.7,1018.9c-0.4,0-0.7-0.1-1.1-0.2c-0.5-0.1-0.9-0.1-1.4-0.1c-0.3,0-0.9,0-1.1,0.3
					c-0.3,0.4-0.3,2.5-0.3,2.9c1,0,2,0.1,2.9,0.1c0.7,0,1,0.1,1,0.9c0,0.4,0,0.8,0,1.1c0,0.8-0.2,1.1-1.1,1.1c-1,0-1.9-0.1-2.9-0.1
					c-0.1,3.2-0.2,6.4-0.3,9.6c0,0.8-0.2,1.3-1.1,1.3c-0.6,0-1.2,0-1.9-0.1c-0.8,0-0.9-0.5-0.9-1.2c0.1-3.3,0.2-6.5,0.3-9.8
					c-0.3,0-0.6,0-0.9,0c-0.6,0-0.7-0.5-0.7-1.1c0-0.4,0-0.8,0-1.3c0-1,0.9-0.8,1.6-0.8c0-0.4,0-0.8,0-1.1c0-1.2,0.1-2.4,0.9-3.4
					c1.3-1.6,3.2-1.6,5.1-1.6c0.6,0,2.1,0.1,2.4,0.6c0.1,0.2,0.1,0.4,0.1,0.6c0,0.1,0,0.1,0,0.2
					C745.6,1017.5,745.6,1018.9,744.7,1018.9z M750.7,1019.9c-0.4,0-0.8,0-1.2,0c-1.1,0-1.6-0.2-1.5-1.4c0-0.3,0-0.7,0-1
					c0-0.9,0.4-1.3,1.3-1.3c0.5,0,0.9,0,1.4,0c0.6,0,1.1,0.5,1.1,1.2c0,0.1,0,0.1,0,0.2c0,0.3,0,0.7,0,1
					C751.9,1019.5,751.6,1020,750.7,1019.9L750.7,1019.9z M750.3,1036.1c-0.4,0-0.8,0-1.2,0c-1.1,0-1.6-0.2-1.5-1.4
					c0.1-3.8,0.2-7.6,0.3-11.5c0-0.9,0.4-1.3,1.3-1.3c0.5,0,0.9,0,1.4,0c0.6,0,1.1,0.5,1.1,1.2c0,0.1,0,0.1,0,0.2
					c-0.1,3.8-0.2,7.6-0.3,11.5C751.5,1035.6,751.2,1036.1,750.3,1036.1L750.3,1036.1z"/>
				<path class="st6" d="M760.9,1036.7c-1.4,0-2.8-0.1-4.2-0.3c-0.9-0.1-0.8-0.5-0.8-1.4c0-0.2,0-0.4,0-0.5c0-0.6,0.1-1.3,0.9-1.3
					c0.5,0,1,0.1,1.5,0.2c1,0.1,2,0.2,3.1,0.2c1,0,1.5,0,1.5-1.1c0.1-0.3,0-0.7-0.2-1c-0.2-0.3-2.8-1.1-3.3-1.2
					c-0.6-0.2-1.1-0.4-1.7-0.7c-1.5-0.8-2.1-1.7-2-3.4c0.1-4.5,3.2-4.4,6.8-4.3c0.7,0,1.4,0,2.2,0.1c1.1,0.1,1.5,0.3,1.4,1.5
					c0,0.8,0,1.8-1.1,1.8c-0.5,0-1-0.1-1.5-0.1c-0.8-0.1-1.6-0.1-2.4-0.2c-1.1,0-1.7-0.2-1.8,1.1c0,0.2,0,0.4,0.1,0.6
					c0.3,0.4,3.1,1.2,3.7,1.4c2.3,0.8,3.4,1.6,3.3,4.2C766.5,1036.2,764.6,1036.7,760.9,1036.7z"/>
				<path class="st6" d="M773.5,1020.4c-0.4,0-0.7,0-1.1,0c-1.1,0-1.6-0.2-1.5-1.3c0-0.3,0-0.7,0-1c0-0.9,0.4-1.3,1.3-1.3
					c0.5,0,0.9,0,1.4,0c0.6,0,1.1,0.5,1.1,1.2c0,0.1,0,0.1,0,0.2c0,0.3,0,0.7,0,1C774.7,1019.9,774.4,1020.4,773.5,1020.4z
					 M773.3,1036.5c-0.4,0-0.8,0-1.1,0c-1.1,0-1.6-0.2-1.6-1.3c0-3.8,0.1-7.6,0.1-11.5c0-0.9,0.4-1.3,1.3-1.3c0.5,0,0.9,0,1.4,0
					c0.6,0,1.2,0.5,1.1,1.2c0,0.1,0,0.1,0,0.2c0,3.8-0.1,7.6-0.1,11.5C774.5,1036,774.2,1036.5,773.3,1036.5z"/>
				<path class="st6" d="M787.6,1036.9c-0.8,0.1-1.7,0.1-2.5,0.1c-5.8,0-6.8-2-6.7-7.5c0-5.5,1-7.4,6.8-7.4c0.8,0,1.7,0.1,2.5,0.2
					c0.9,0.1,1.6,0,1.6,1c0,0,0,0,0,0.1c0,0.7,0,2.3-1.1,2.3c-0.4,0-0.8-0.1-1.2-0.1c-0.9-0.1-1.8-0.2-2.8-0.2
					c-1.2,0-1.5,0.2-1.7,1.4c-0.2,1-0.3,2-0.3,2.9c0,0.9,0,1.9,0.1,2.8c0.1,1.3,0.6,1.5,1.9,1.5c0.9,0,1.9-0.1,2.8-0.2
					c0.4-0.1,0.8-0.1,1.2-0.1c0.3,0,0.5,0.1,0.7,0.3c0.2,0.2,0.4,1.6,0.4,2C789.2,1036.8,788.5,1036.7,787.6,1036.9z"/>
				<path class="st6" d="M803.5,1036.6c-0.6,0-1.1,0-1.7,0c-0.7,0-0.9-0.4-0.9-1.1c-1.3,0.9-2.8,1.4-4.4,1.5c-2.9,0-4.3-1.5-4.3-4.4
					c0-3.2,1.9-4.3,4.8-4.6c1.2-0.2,2.5-0.3,3.8-0.3c0-1.2,0.2-2.8-1.5-2.8c-1.4,0-2.9,0.3-4.2,0.6c-0.2,0.1-0.5,0.1-0.7,0.1
					c-1,0-0.9-1-0.9-1.8c-0.1-0.6,0.3-1.1,0.8-1.2c1.6-0.4,3.2-0.6,4.8-0.6c1.4,0,3.2,0.2,4.2,1.3c1.2,1.3,1.1,3.1,1.2,4.7
					c0,2.4,0,4.8,0.1,7.1C804.6,1036.1,804.3,1036.6,803.5,1036.6z M800.9,1030.4c-0.5,0-1-0.1-1.4-0.1c-0.6,0-1.2,0-1.9,0.1
					c-1.2,0.2-1.7,0.6-1.7,1.9c0,0.7,0.1,2,1.1,2c1.5-0.1,2.8-0.6,4-1.5C800.9,1032,800.9,1031.2,800.9,1030.4z"/>
				<path class="st6" d="M811.3,1036.5c-0.3,0-0.7,0-1,0c-1.1,0-1.6-0.1-1.6-1.3c-0.1-5.9-0.1-11.7-0.2-17.6c0-0.9,0.4-1.3,1.3-1.3
					c0.4,0,0.9,0,1.3,0c0.6,0,1.1,0.4,1.2,1.1c0,0.1,0,0.1,0,0.2c0.1,5.9,0.1,11.7,0.2,17.6C812.5,1036,812.2,1036.5,811.3,1036.5z"
					/>
				<path class="st6" d="M825.6,1036.5c-0.8,0.1-1.7,0.2-2.5,0.2c-5.8,0.1-6.8-1.9-6.9-7.3c-0.1-5.5,0.9-7.5,6.6-7.6
					c0.8,0,1.7,0,2.5,0.1c0.9,0.1,1.6,0,1.6,1c0,0,0,0,0,0.1c0,0.7,0,2.3-1,2.3c-0.4,0-0.8,0-1.2-0.1c-0.9-0.1-1.9-0.2-2.8-0.2
					c-1.2,0-1.5,0.3-1.7,1.4c-0.2,1-0.2,2-0.2,2.9c0,0.9,0.1,1.9,0.2,2.8c0.1,1.3,0.6,1.5,1.9,1.4c0.9,0,1.9-0.1,2.8-0.3
					c0.4-0.1,0.8-0.1,1.2-0.1c0.3,0,0.5,0.1,0.7,0.3c0.2,0.2,0.4,1.6,0.4,2C827.2,1036.4,826.5,1036.4,825.6,1036.5z"/>
				<path class="st6" d="M837.3,1036.4c-5,0.1-6.9-2.6-7-7.2c-0.1-4.6,1.7-7.5,6.6-7.6c4.9-0.1,6.8,2.6,7,7.3
					C844,1033.4,842.3,1036.2,837.3,1036.4z M839.4,1025.5c-0.6-0.9-1.4-0.9-2.4-0.9c-1,0-1.9,0.1-2.4,1c-0.5,0.9-0.5,2.4-0.5,3.4
					c0,1,0.1,2.5,0.7,3.4c0.5,0.9,1.5,0.9,2.5,0.8c1,0,1.9-0.1,2.4-1c0.5-0.9,0.5-2.4,0.4-3.4C840,1027.9,840,1026.4,839.4,1025.5z"
					/>
				<path class="st6" d="M858.3,1035.3c-0.6,0-1.1,0-1.7,0.1c-0.7,0-0.9-0.4-0.9-1c-1.3,0.9-2.8,1.5-4.3,1.6
					c-2.9,0.1-4.3-1.4-4.4-4.2c-0.1-3.2,1.8-4.3,4.7-4.8c1.2-0.2,2.5-0.3,3.7-0.4c0-1.2,0.1-2.8-1.6-2.8c-1.4,0.1-2.8,0.4-4.2,0.8
					c-0.2,0.1-0.5,0.1-0.7,0.1c-1,0-0.9-1-0.9-1.7c-0.1-0.6,0.2-1.1,0.8-1.3c1.6-0.4,3.2-0.7,4.8-0.7c1.4-0.1,3.2,0.1,4.3,1.2
					c1.2,1.2,1.2,3.1,1.3,4.7c0.1,2.4,0.2,4.7,0.3,7.1C859.5,1034.8,859.2,1035.2,858.3,1035.3z M855.6,1029.2c-0.5,0-1,0-1.4,0
					c-0.6,0-1.2,0.1-1.9,0.2c-1.2,0.2-1.7,0.6-1.7,1.9c0,0.7,0.2,2,1.2,1.9c1.4-0.1,2.8-0.7,3.9-1.6
					C855.6,1030.8,855.6,1030,855.6,1029.2z"/>
				<path class="st6" d="M872.4,1034.9c-0.8,0.1-1.7,0.2-2.5,0.2c-5.8,0.3-6.9-1.7-7.1-7.1c-0.2-5.5,0.7-7.5,6.4-7.8
					c0.8,0,1.7,0,2.5,0c0.9,0,1.6-0.1,1.7,0.9c0,0,0,0,0,0.1c0,0.7,0.1,2.3-0.9,2.3c-0.4,0-0.8,0-1.2-0.1c-0.9-0.1-1.9-0.1-2.8-0.1
					c-1.2,0.1-1.5,0.3-1.7,1.5c-0.1,1-0.2,2-0.1,2.9c0,0.9,0.1,1.9,0.2,2.8c0.2,1.3,0.6,1.4,1.9,1.4c0.9-0.1,1.9-0.2,2.8-0.4
					c0.4-0.1,0.8-0.1,1.2-0.2c0.3,0,0.5,0.1,0.7,0.3c0.2,0.2,0.4,1.6,0.5,2C874.1,1034.8,873.4,1034.8,872.4,1034.9z"/>
				<path class="st6" d="M888.5,1033.8c-0.5,0-1.1,0.1-1.6,0.1c-0.9,0-1.1-0.5-1.1-1.3c-0.1-2.5-0.3-5-0.4-7.5c0-0.4-0.1-2-0.3-2.3
					c-0.3-0.3-0.7-0.2-1-0.2c-1.3,0.1-2.5,0.7-3.5,1.5c0.2,2.9,0.3,5.8,0.5,8.7c0,0.8-0.2,1.3-1.1,1.4c-0.5,0-1,0.1-1.6,0.1
					c-0.8,0-1.1-0.4-1.1-1.1c-0.3-5.9-0.6-11.8-0.9-17.8c0-0.9,0.3-1.3,1.2-1.3c0.5,0,0.9,0,1.4-0.1c0.6-0.1,1.2,0.4,1.2,1
					c0,0.1,0,0.1,0,0.2c0.1,1.8,0.2,3.6,0.3,5.4c1.2-0.7,2.5-1.1,3.9-1.2c2.7-0.2,4.6,1.1,4.8,3.9c0.2,3,0.4,6,0.5,9
					C889.6,1033.2,889.4,1033.7,888.5,1033.8z"/>
			</g>
		</g>
		<path class="st12" d="M862.3,1053.1C862.3,1053.1,862.4,1053.2,862.3,1053.1C862.4,1053.2,862.3,1053.2,862.3,1053.1z"/>
		<path class="st4" d="M685.2,1027.5c-0.1-0.3-0.1-0.5-0.2-0.8C685.1,1026.9,685.2,1027.2,685.2,1027.5z"/>
		<path class="st4" d="M684.9,1026.1c-0.1-0.3-0.2-0.6-0.3-0.8C684.7,1025.6,684.8,1025.9,684.9,1026.1z"/>
		<path class="st4" d="M685.6,1028.9c-0.1-0.3-0.1-0.6-0.2-0.8C685.5,1028.4,685.5,1028.7,685.6,1028.9z"/>
		<polygon class="st4" points="676.5,817.4 676.5,817.4 676.5,817.4 		"/>
		<path class="st4" d="M684.5,1024.9c-0.1-0.4-0.3-0.8-0.4-1.1C684.2,1024.1,684.3,1024.5,684.5,1024.9z"/>
		<path class="st4" d="M685.5,813.7c0.2-0.1,0.3-0.1,0.5-0.2C685.8,813.5,685.7,813.6,685.5,813.7z"/>
		<path class="st4" d="M682.4,814.9c0.1-0.1,0.3-0.1,0.4-0.2C682.7,814.8,682.6,814.9,682.4,814.9z"/>
		<path class="st4" d="M685.9,1030.5c-0.1-0.3-0.1-0.6-0.2-0.9C685.8,1029.9,685.8,1030.2,685.9,1030.5z"/>
		<path class="st4" d="M687,1037.3c0-0.3-0.1-0.6-0.1-1C686.9,1036.7,686.9,1037,687,1037.3z"/>
		<path class="st4" d="M687.8,1044.6c0-0.2,0-0.4-0.1-0.5C687.8,1044.3,687.8,1044.5,687.8,1044.6z"/>
		<path class="st4" d="M687.6,1043c0-0.3-0.1-0.6-0.1-0.9C687.6,1042.4,687.6,1042.7,687.6,1043z"/>
		<path class="st4" d="M686.2,1032.1c-0.1-0.3-0.1-0.6-0.2-0.9C686.1,1031.5,686.1,1031.8,686.2,1032.1z"/>
		<path class="st4" d="M687.4,1041.1c0-0.3-0.1-0.6-0.1-1C687.4,1040.5,687.4,1040.8,687.4,1041.1z"/>
		<polygon class="st4" points="688.6,1052.4 688.6,1052.4 688.6,1052.4 		"/>
		<path class="st4" d="M686.7,1035.5c0-0.3-0.1-0.6-0.1-0.9C686.6,1034.9,686.7,1035.2,686.7,1035.5z"/>
		<path class="st4" d="M687.2,1039.2c0-0.3-0.1-0.7-0.1-1C687.1,1038.6,687.2,1038.9,687.2,1039.2z"/>
		<path class="st4" d="M692.4,810.8c0.2-0.1,0.3-0.1,0.5-0.2C692.7,810.7,692.6,810.7,692.4,810.8z"/>
		<path class="st4" d="M686.5,1033.8c0-0.3-0.1-0.6-0.1-0.9C686.4,1033.2,686.4,1033.5,686.5,1033.8z"/>
		<path class="st4" d="M699.1,808.1c0.3-0.1,0.6-0.2,0.9-0.4C699.7,807.8,699.4,808,699.1,808.1z"/>
		<path class="st4" d="M695.6,809.5c0.3-0.1,0.6-0.2,0.9-0.4C696.2,809.2,695.9,809.4,695.6,809.5z"/>
		<path class="st4" d="M703.5,806.3C703.5,806.3,703.5,806.3,703.5,806.3C703.5,806.3,703.5,806.3,703.5,806.3z"/>
		<path class="st4" d="M703.8,806.1C703.8,806.1,703.8,806.1,703.8,806.1C703.9,806.1,703.8,806.1,703.8,806.1z"/>
		<path class="st13" d="M745.8,728.3C745.8,728.3,745.8,728.3,745.8,728.3C745.8,728.3,745.8,728.3,745.8,728.3L745.8,728.3z"/>
		<path class="st13" d="M744.4,907.4c18.7,18.5,61.6,33,94.5,10.5h0c-82-7.3-46.4-77.7-42.9-92.5c3.6-14.7-13.4-9.8-19.2-26.8
			c-5.8-16.9,0.4-11.5,1.9-30.6c0.9-11.8,6-14.8,9.7-15.5c-26.5-2-41.5-22.8-42.5-24.2c1.4,2,2.3,3.1,2.3,3.1s5.5,18.6,0,37.1
			c-5.1,17.4-40,35.3-44.3,37.5c0,0,0,0,0,0C707.8,823.7,722.9,886.1,744.4,907.4z"/>
		<path class="st13" d="M686.9,1036.4c0-0.3-0.1-0.6-0.1-0.9C686.8,1035.8,686.8,1036.1,686.9,1036.4z"/>
		<path class="st13" d="M686.6,1034.6c0-0.3-0.1-0.5-0.1-0.8C686.5,1034,686.6,1034.3,686.6,1034.6z"/>
		<path class="st13" d="M745.9,728.4C745.9,728.4,745.9,728.4,745.9,728.4C745.8,728.4,745.9,728.4,745.9,728.4z"/>
		<path class="st13" d="M687.8,1044.1c0-0.4-0.1-0.8-0.1-1.1C687.7,1043.3,687.7,1043.7,687.8,1044.1z"/>
		<path class="st13" d="M688.6,1052.4c-0.3-2.6-0.5-5.2-0.8-7.8C688.1,1047.2,688.3,1049.8,688.6,1052.4z"/>
		<path class="st13" d="M862.3,1053.1c-40-0.8-83.8,2.6-109.2,4.5c-21.6,1.6-51.4-0.4-64.5-5.2c1,10,2.2,20.3,4.7,27.9
			c5.5,16.4-4.6,30.9-3.3,37.1c1.4,6.3,12.8,10.1,62.5,19.9c22.6,4.5,38.1,4.9,52.1,3.8c-6.9-44.2,24.3-40.4,50.5-60.1
			C881.4,1061.4,862.4,1053.2,862.3,1053.1C862.4,1053.2,862.4,1053.2,862.3,1053.1C862.4,1053.2,862.3,1053.1,862.3,1053.1z"/>
		<path class="st13" d="M687.5,1042.1c0-0.3-0.1-0.7-0.1-1C687.5,1041.4,687.5,1041.8,687.5,1042.1z"/>
		<path class="st13" d="M687.3,1040.1c0-0.3-0.1-0.6-0.1-0.9C687.3,1039.5,687.3,1039.8,687.3,1040.1z"/>
		<path class="st13" d="M687.1,1038.2c0-0.3-0.1-0.6-0.1-0.9C687,1037.6,687.1,1037.9,687.1,1038.2z"/>
		<path class="st13" d="M686.5,900.6c1.5-11.2-6.4-64.6-10-83.1c-41.5,17.8-53.6,27.1-66,53.1c-14.7,30.9-11.1,94.6-8.9,107.6
			c2.2,13-11.5,46-12,66.5s-7,39.7-14.3,53.4c-7.4,13.7-22.8,13.9-33.6,30.6c-10.8,16.7-40,40.6-40,40.6s-65,53.4-81.3,51.6
			c-16.3-1.8-37,6.7-38.8,7c-1.8,0.3-6.4-1.4-8.9,1.1s-5.9,1.9-8.6,1.9c-1.4,0-3.5,1.2-5.1,3.4c4-5,10.4,1,15.5,6.8
			c5.1,5.8,11.5,5.4,62.3-7.7c50.8-13.1,119.6-80.3,146.7-110.6c27-30.3,32-65.6,36.9-147.9s25.4-101.2,44.3-115.1
			c18.9-13.9,8.2,131.4,8.2,131.4s2.5-27.6,2.5-42.6C675.3,933.3,684.8,912.6,686.5,900.6z"/>
		<path class="st13" d="M676.5,817.4c1.9-0.8,3.9-1.7,5.9-2.5C680.4,815.8,678.4,816.6,676.5,817.4z"/>
		<path class="st13" d="M686,813.5c2.1-0.9,4.2-1.7,6.4-2.6C690.2,811.7,688.1,812.6,686,813.5z"/>
		<path class="st13" d="M700,807.7c1.1-0.5,2.3-0.9,3.4-1.4C702.3,806.8,701.1,807.3,700,807.7z"/>
		<path class="st13" d="M684.6,1025.3c0-0.1-0.1-0.3-0.1-0.4C684.5,1025,684.5,1025.2,684.6,1025.3z"/>
		<path class="st13" d="M696.5,809.1c0.8-0.3,1.7-0.7,2.6-1C698.2,808.4,697.4,808.8,696.5,809.1z"/>
		<path class="st13" d="M682.9,814.8c0.9-0.4,1.8-0.7,2.6-1.1C684.6,814,683.8,814.4,682.9,814.8z"/>
		<path class="st13" d="M692.9,810.6c0.9-0.4,1.8-0.7,2.7-1.1C694.7,809.9,693.8,810.2,692.9,810.6z"/>
		<path class="st13" d="M685.7,1029.6c0-0.2-0.1-0.5-0.1-0.7C685.6,1029.2,685.7,1029.4,685.7,1029.6z"/>
		<path class="st13" d="M703.6,806.2c0.1,0,0.1-0.1,0.3-0.1C703.7,806.2,703.6,806.2,703.6,806.2z"/>
		<path class="st13" d="M686,1031.2c0-0.2-0.1-0.5-0.1-0.7C685.9,1030.7,686,1031,686,1031.2z"/>
		<path class="st13" d="M686.3,1032.9c0-0.3-0.1-0.5-0.1-0.8C686.2,1032.3,686.3,1032.6,686.3,1032.9z"/>
		<path class="st13" d="M685,1026.7c-0.1-0.2-0.1-0.4-0.2-0.5C684.9,1026.3,685,1026.5,685,1026.7z"/>
		<path class="st13" d="M703.4,806.3C703.4,806.3,703.4,806.3,703.4,806.3C703.5,806.3,703.4,806.3,703.4,806.3z"/>
		<path class="st13" d="M685.4,1028.1c0-0.2-0.1-0.4-0.1-0.6C685.3,1027.7,685.3,1027.9,685.4,1028.1z"/>
		<polygon class="st4" points="862.4,1053.2 862.4,1053.2 862.4,1053.2 		"/>
		<polygon class="st13" points="862.4,1053.2 862.4,1053.2 862.4,1053.2 		"/>
		<path class="st13" d="M1162.3,1294.7c-6,5.7,1.6,16.9-5.2,14.2s-5.7-17.5-10.1-39.3c-4.4-21.9-44.8-28.4-90.1-69.4
			c-45.3-41-47-54.1-67.2-70.5s-29.7-22.3-30-81.9s-22.9-91.8-26.4-116.9c-3.5-25.1-14-39.9-12.4-21.9c1.6,18,7.1,30,7.1,30
			c0.7,9.6,2.5,33.8,4.4,59.3c0.5-5.2,0.8-8.5,0.8-8.5s5.8,40.8,14.2,71.7c8.4,31,1.5,14.2,14.9,52.8s69.7,91.5,86.3,102.4
			c16.7,10.9,66.6,54.4,70.5,56.8c3.8,2.5,1.9,16.7,10.4,25.9c8.5,9.3,7.1,15.3,12,19.1c4.2,3.3,13.2,8.7,19.3,10.8
			c7,0.9,5.8-7.5,5.6-11.3c-0.3-3.8-1.1-13.4,1.6-19.9C1170.8,1291.7,1168.3,1289,1162.3,1294.7z"/>
		<path class="st3" d="M728.5,647.8c0,0-40.1-83.1,61.7-84.5c106.2-1.4,72.1,90.9,72.1,90.9s65.8-111.1-71.8-111.1
			C663.1,543.1,728.5,647.8,728.5,647.8z"/>
		<path class="st14" d="M896.2,612.7c0,0-15.8,12.2-19.6-5.8c0,0-16.1-6.6-7.5-24c0,0-14.2-0.5-2.5-16.9c0,0-18.2,13.7-14.9-2.7
			c0,0-12.3,4.4-21.9-1.6c-10.9-6.9-4.6-18.2-4.6-18.2s-30.2,2.7-24.2-14.7c0,0-10.7-6.6-1-16.9c0,0-5.9-0.9-3.8-12.4
			c0,0-18.4-11.2-0.2-20.3l0,0c-2.5-1-5.3-1.1-5.3-1.1c-5.5-11.7-18.9-4.7-18.9-4.7c-0.7-11.3-14.2-5.5-14.2-5.5
			c-1.5-11.3-16-5.5-16-5.5c-12.7-8-17.5,7.3-17.5,7.3c-15.3-7.6-22.2,10.2-22.2,10.2c-12.7-4-16,14.2-16,14.2
			c-12.4,6.6-3.6,18.2-3.6,18.2c-21.1,2.9-13.5,22.6-13.5,22.6c-9.8,8.7,0.8,18.9,0.8,18.9c-6.8,7.3,3.2,12,3.2,12
			C663,581.3,679,590,679,590c-1.8,10.9,15.7,11.7,15.7,11.7c7.3,8.7,13.1,2.2,13.1,2.2c-2.2,9.5,5.8,10.6,5.8,10.6
			c-5.5,12,3.3,22.9,3.3,22.9c0,10.2,11.7,10.4,11.7,10.4s0.7-5.7,3.3-13.7c2.5-8-0.4-12,4.7-18.6c5.1-6.6,2.5-11.3,1.8-17.5
			c-0.7-6.2,5.1-12,5.1-12c27.3-24.4,84.5-11.7,93.2-3.6c8.7,8,13.5,11.7,13.1,20.8c-0.4,9.1,4.7,14.6,7.6,21.1
			c2.9,6.6,0.7,16.4,0.7,26.1c0,9.7,8.7,0,8.7,0c11.7-1.6,7.3-14.8,7.3-14.8c12.4,1.8,12-15.7,12-15.7
			C891.9,620.7,894.8,617,896.2,612.7L896.2,612.7z"/>
		<g>
			<g>
				<g id="Capa_2_00000092421798886427785150000009969645217993429394_">
					<g id="Capa_1-2_00000000188060335472465140000018377166497121941674_">
						<path class="st6" d="M770.4,547.3c-0.4,0.2-0.6,0.6-0.6,1.1l0,0c0.4,3,0.6,4.8,1.1,8.3c0,0.2-0.1,0.5-0.3,0.5c0,0-0.1,0-0.1,0
							c-1.9-0.3-3.4-2-3.7-3.9c0-0.1,0-0.1,0-0.2c0,0,0,0,0-0.1c0,0,0-0.1,0-0.1c0,0,0,0,0,0c0-0.1,0-0.2,0-0.4c0,0,0,0,0,0
							c0-0.1,0-0.1,0-0.2c0,0,0,0,0,0c0-0.1,0-0.2,0-0.4c0,0,0,0,0,0c0-0.1,0-0.1,0-0.2c0,0,0,0,0,0c0-0.1,0.1-0.2,0.1-0.4
							c0,0,0,0,0,0c0-0.1,0.1-0.2,0.1-0.3c0,0,0,0,0,0c0-0.1,0-0.1,0.1-0.2c0,0,0,0,0,0c0,0,0-0.1,0.1-0.1c0,0,0,0,0,0
							c0,0,0.1-0.1,0.1-0.1c0,0,0,0,0,0c0.1-0.2,0.3-0.4,0.4-0.6c0.1-0.1,0.1-0.2,0.2-0.2c0.2-0.2,0.2-0.5,0-0.7c0,0,0,0-0.1,0
							c-0.2-0.1-0.2-0.2-0.4-0.3c-0.2-0.1-0.5-0.1-0.7,0.1c-0.2,0.2-0.5,0.5-0.7,0.8l0,0c0,0,0,0,0,0c0,0.1-0.1,0.1-0.1,0.2l0,0
							c0,0.1-0.1,0.1-0.1,0.2c0,0,0,0,0,0c-0.1,0.1-0.1,0.3-0.2,0.4c0,0,0,0,0,0c-0.1,0.1-0.1,0.3-0.2,0.4c0,0,0,0,0,0
							c0,0.1,0,0.1-0.1,0.2c0,0,0,0,0,0c0,0.1,0,0.1-0.1,0.2c0,0,0,0,0,0c0,0.1,0,0.1,0,0.2c0,0,0,0,0,0c0,0.1,0,0.2,0,0.2
							c0,0,0,0,0,0c0,0.1,0,0.1,0,0.2c0,0,0,0,0,0.1c0,0.1,0,0.2,0,0.2c0,0,0,0,0,0c0,0.1,0,0.1,0,0.2c0,0,0,0,0,0.1
							c0,0.1,0,0.2,0,0.2c0,0,0,0,0,0c0,0.1,0,0.1,0,0.2c0,0,0,0,0,0.1c0,0.1,0,0.2,0,0.2c0,0,0,0,0,0c0.5,2.9,2.8,5.2,5.5,5.3
							c0.2,0,0.4,0.2,0.4,0.4c0.1,0.9,0.2,1.4,0.3,2.2c0,0.2,0.2,0.4,0.4,0.3c0,0,0,0,0,0c0.2,0,0.4-0.1,0.6-0.1
							c0.2,0,0.4-0.2,0.3-0.4l0,0c-0.1-0.9-0.2-1.3-0.3-2.2c0-0.2,0.1-0.4,0.3-0.4c1.1-0.4,2.1-1.1,2.8-2c0.3-0.4,0.6-0.8,0.8-1.3
							c1.3-3.1,0.1-6.7-2.9-7.8c-0.4-0.2-0.8-0.3-1.3-0.3C771.6,546.9,771,547,770.4,547.3z M775.3,554.1c-0.4,1.2-1.3,2.2-2.4,2.7
							c-0.2,0.1-0.4,0-0.5-0.2c0,0,0-0.1,0-0.1c-0.4-3-0.6-4.6-0.9-7.4c0-0.4,0.2-0.7,0.6-0.7c0.1,0,0.2,0,0.3,0
							c2.4,0.6,3.7,3.1,3,5.5C775.3,554,775.3,554,775.3,554.1C775.3,554.1,775.3,554.1,775.3,554.1z"/>
						<g>
							<path class="st6" d="M783.6,552.1c-0.1,0-0.2,0-0.3,0c-0.1,0-0.3,0-0.4,0c-0.1,0-0.2,0-0.3,0.1c-0.1,0.1,0,0.7,0,0.9
								c0.3,0,0.5,0,0.8,0c0.2,0,0.3,0,0.3,0.2c0,0.1,0,0.2,0,0.3c0,0.2,0,0.3-0.3,0.3c-0.3,0-0.5,0-0.8,0c0.1,1.1,0.1,1.7,0.2,2.8
								c0,0.2,0,0.4-0.2,0.4c-0.2,0-0.3,0-0.5,0c-0.2,0-0.2-0.1-0.3-0.3c-0.1-1.1-0.1-1.7-0.2-2.8c-0.1,0-0.1,0-0.2,0
								c-0.2,0-0.2-0.1-0.2-0.3c0-0.1,0-0.2,0-0.4c0-0.3,0.2-0.3,0.4-0.3c0-0.1,0-0.2,0-0.3c0-0.4,0-0.7,0.1-1
								c0.3-0.5,0.8-0.5,1.4-0.6c0.2,0,0.6,0,0.7,0.1c0,0.1,0.1,0.1,0.1,0.2c0,0,0,0,0,0.1C783.8,551.7,783.8,552.1,783.6,552.1z
								 M785.2,552.3c-0.1,0-0.2,0-0.3,0c-0.3,0-0.4,0-0.4-0.4c0-0.1,0-0.2,0-0.3c0-0.3,0.1-0.4,0.3-0.4c0.2,0,0.2,0,0.4,0
								c0.2,0,0.3,0.1,0.3,0.3c0,0,0,0,0,0c0,0.1,0,0.2,0,0.3C785.5,552.1,785.5,552.2,785.2,552.3L785.2,552.3z M785.4,556.9
								c-0.1,0-0.2,0-0.3,0c-0.3,0-0.4,0-0.4-0.4c-0.1-1.3-0.1-2-0.2-3.3c0-0.3,0.1-0.4,0.3-0.4c0.2,0,0.2,0,0.4,0
								c0.2,0,0.3,0.1,0.3,0.3c0,0,0,0,0,0c0.1,1.3,0.1,2,0.2,3.3C785.7,556.8,785.7,556.9,785.4,556.9L785.4,556.9z"/>
							<path class="st6" d="M788.3,556.9c-0.4,0-0.7,0-1.1,0c-0.2,0-0.2-0.1-0.2-0.4c0-0.1,0-0.1,0-0.2c0-0.2,0-0.4,0.2-0.4
								c0.1,0,0.3,0,0.4,0c0.3,0,0.5,0,0.8,0c0.3,0,0.4,0,0.4-0.3c0-0.1,0-0.2-0.1-0.3c-0.1-0.1-0.8-0.3-0.9-0.3
								c-0.2-0.1-0.3-0.1-0.5-0.2c-0.4-0.2-0.6-0.4-0.6-0.9c-0.1-1.3,0.8-1.3,1.8-1.3c0.2,0,0.4,0,0.6,0c0.3,0,0.4,0.1,0.4,0.4
								c0,0.2,0,0.5-0.3,0.5c-0.1,0-0.3,0-0.4,0c-0.2,0-0.4,0-0.6,0c-0.3,0-0.5,0-0.5,0.3c0,0.1,0,0.1,0,0.2c0.1,0.1,0.8,0.3,1,0.4
								c0.6,0.2,0.9,0.4,0.9,1.2C789.7,556.7,789.2,556.9,788.3,556.9z"/>
							<path class="st6" d="M791.4,552.1c-0.1,0-0.2,0-0.3,0c-0.3,0-0.4,0-0.4-0.4c0-0.1,0-0.2,0-0.3c0-0.3,0.1-0.4,0.3-0.4
								c0.2,0,0.2,0,0.4,0c0.2,0,0.3,0.1,0.3,0.3c0,0,0,0,0,0c0,0.1,0,0.2,0,0.3C791.7,552,791.7,552.1,791.4,552.1z M791.5,556.7
								c-0.1,0-0.2,0-0.3,0c-0.3,0-0.4,0-0.4-0.4c0-1.3,0-2-0.1-3.3c0-0.3,0.1-0.4,0.3-0.4c0.1,0,0.2,0,0.4,0c0.2,0,0.3,0.1,0.3,0.3
								c0,0,0,0,0,0c0,1.3,0,2,0.1,3.3C791.8,556.6,791.7,556.7,791.5,556.7z"/>
							<path class="st6" d="M795.3,556.8c-0.2,0-0.4,0-0.7,0c-1.5,0-1.8-0.5-1.8-2.1c0-1.6,0.2-2.2,1.8-2.1c0.2,0,0.5,0,0.7,0.1
								c0.2,0,0.4,0,0.4,0.3c0,0,0,0,0,0c0,0.2,0,0.7-0.3,0.7c-0.1,0-0.2,0-0.3,0c-0.2,0-0.5-0.1-0.7-0.1c-0.3,0-0.4,0.1-0.5,0.4
								c0,0.3-0.1,0.6-0.1,0.8c0,0.3,0,0.5,0,0.8c0,0.4,0.2,0.4,0.5,0.4c0.2,0,0.5,0,0.7-0.1c0.1,0,0.2,0,0.3,0c0.1,0,0.1,0,0.2,0.1
								c0.1,0.1,0.1,0.5,0.1,0.6C795.7,556.8,795.5,556.8,795.3,556.8z"/>
							<path class="st6" d="M799.4,556.8c-0.2,0-0.3,0-0.4,0c-0.2,0-0.2-0.1-0.2-0.3c-0.3,0.2-0.7,0.4-1.2,0.4
								c-0.8,0-1.1-0.5-1.1-1.3c0-0.9,0.5-1.2,1.3-1.3c0.3,0,0.7-0.1,1,0c0-0.3,0.1-0.8-0.4-0.8c-0.4,0-0.8,0-1.1,0.1
								c-0.1,0-0.1,0-0.2,0c-0.3,0-0.2-0.3-0.2-0.5c0-0.2,0.1-0.3,0.2-0.4c0.4-0.1,0.9-0.1,1.3-0.1c0.4,0,0.9,0.1,1.1,0.4
								c0.3,0.4,0.3,0.9,0.3,1.4c0,0.8,0,1.2-0.1,2C799.7,556.7,799.6,556.9,799.4,556.8z M798.8,555.1c-0.1,0-0.3,0-0.4,0
								c-0.2,0-0.3,0-0.5,0c-0.3,0-0.5,0.2-0.5,0.5c0,0.2,0,0.6,0.3,0.6c0.4,0,0.8-0.1,1.1-0.4C798.8,555.5,798.8,555.3,798.8,555.1
								z"/>
							<path class="st6" d="M801.5,556.9c-0.1,0-0.2,0-0.3,0c-0.3,0-0.4-0.1-0.4-0.4c0.1-2,0.1-3,0.2-5c0-0.3,0.1-0.4,0.4-0.3
								c0.1,0,0.2,0,0.4,0c0.2,0,0.3,0.1,0.3,0.3c0,0,0,0,0,0.1c-0.1,2-0.1,3.1-0.2,5C801.8,556.8,801.7,557,801.5,556.9z"/>
							<path class="st6" d="M805.2,557.2c-0.2,0-0.4,0-0.7,0c-1.5-0.1-1.7-0.6-1.7-2.2c0.1-1.6,0.3-2.1,1.9-2c0.2,0,0.5,0,0.7,0.1
								c0.2,0,0.4,0,0.4,0.3c0,0,0,0,0,0c0,0.2,0,0.7-0.3,0.6c-0.1,0-0.2,0-0.3-0.1c-0.2-0.1-0.5-0.1-0.7-0.1c-0.3,0-0.4,0-0.5,0.4
								c-0.1,0.3-0.1,0.6-0.1,0.8c0,0.3,0,0.5,0,0.8c0,0.4,0.1,0.4,0.5,0.4c0.2,0,0.5,0,0.7,0c0.1,0,0.2,0,0.3,0
								c0.1,0,0.1,0,0.2,0.1c0.1,0.1,0.1,0.5,0.1,0.6C805.6,557.3,805.5,557.2,805.2,557.2z"/>
							<path class="st6" d="M808.3,557.5c-1.3-0.1-1.7-0.9-1.7-2.2c0.1-1.3,0.6-2.1,2-2c1.3,0.1,1.8,1,1.7,2.3
								C810.1,557,809.6,557.7,808.3,557.5z M809.1,554.6c-0.1-0.3-0.4-0.3-0.6-0.3c-0.3,0-0.5,0-0.7,0.2c-0.2,0.3-0.2,0.7-0.2,1
								c0,0.3,0,0.7,0.1,1c0.1,0.3,0.4,0.3,0.6,0.3c0.3,0,0.5,0,0.7-0.2c0.2-0.2,0.2-0.7,0.2-0.9
								C809.2,555.3,809.3,554.8,809.1,554.6z"/>
							<path class="st6" d="M813.8,558c-0.2,0-0.3,0-0.4-0.1c-0.2,0-0.2-0.1-0.2-0.3c-0.4,0.2-0.8,0.3-1.2,0.3
								c-0.8-0.1-1.1-0.5-1-1.3c0.1-0.9,0.6-1.1,1.4-1.1c0.3,0,0.7,0,1,0.1c0-0.3,0.1-0.8-0.3-0.8c-0.4,0-0.8,0-1.2,0
								c-0.1,0-0.1,0-0.2,0c-0.3,0-0.2-0.3-0.2-0.5c0-0.2,0.1-0.3,0.3-0.3c0.4-0.1,0.9-0.1,1.3,0c0.4,0,0.9,0.2,1.1,0.5
								c0.3,0.4,0.2,0.9,0.2,1.4c-0.1,0.8-0.1,1.2-0.2,2C814.1,558,814,558.1,813.8,558z M813.3,556.3c-0.1,0-0.3,0-0.4-0.1
								c-0.2,0-0.3,0-0.5,0c-0.3,0-0.5,0.1-0.5,0.5c0,0.2,0,0.5,0.2,0.6c0.4,0,0.8-0.1,1.1-0.3C813.3,556.7,813.3,556.5,813.3,556.3
								z"/>
							<path class="st6" d="M817.5,558.6c-0.2,0-0.4,0-0.7-0.1c-1.5-0.2-1.7-0.8-1.5-2.3c0.2-1.5,0.5-2.1,2-1.9
								c0.2,0,0.4,0.1,0.7,0.1c0.2,0.1,0.4,0.1,0.4,0.4c0,0,0,0,0,0c0,0.2-0.1,0.7-0.4,0.6c-0.1,0-0.2,0-0.3-0.1
								c-0.2-0.1-0.5-0.1-0.7-0.2c-0.3,0-0.4,0-0.5,0.3c-0.1,0.3-0.1,0.5-0.2,0.8c0,0.3-0.1,0.5-0.1,0.8c0,0.4,0.1,0.4,0.4,0.5
								c0.2,0,0.5,0,0.7,0c0.1,0,0.2,0,0.3,0c0.1,0,0.1,0,0.2,0.1c0.1,0.1,0,0.5,0,0.6C817.9,558.7,817.7,558.6,817.5,558.6z"/>
							<path class="st6" d="M821.7,559.2c-0.2,0-0.2,0-0.4-0.1c-0.2,0-0.3-0.2-0.2-0.4c0.1-0.8,0.2-1.2,0.3-2.1c0-0.1,0.1-0.6,0-0.7
								c-0.1-0.1-0.2-0.1-0.2-0.1c-0.4,0-0.7,0-1,0.2c-0.1,1-0.2,1.5-0.3,2.4c0,0.2-0.1,0.3-0.4,0.3c-0.2,0-0.2,0-0.4-0.1
								c-0.2,0-0.3-0.2-0.2-0.4c0.3-1.9,0.4-2.9,0.7-5c0-0.3,0.1-0.3,0.4-0.3c0.1,0,0.2,0,0.4,0.1c0.2,0,0.3,0.2,0.3,0.4
								c0,0,0,0,0,0.1c-0.1,0.6-0.1,0.9-0.2,1.6c0.4-0.1,0.7-0.2,1.1-0.1c0.7,0.1,1.2,0.6,1,1.4c-0.2,1-0.2,1.5-0.4,2.5
								C822,559.2,821.9,559.3,821.7,559.2z"/>
						</g>
					</g>
				</g>
			</g>
		</g>
		<path class="st7" d="M830.1,960.3c43.7-32.3,8.8-42.4,8.8-42.4c-32.9,22.4-75.8,8-94.5-10.5c-21.5-21.3-36.6-83.7-40.5-101.3
			c0,0,0,0,0,0c0,0,0,0-0.1,0c-0.1,0.1-0.2,0.1-0.3,0.1c0,0-0.1,0-0.1,0c0,0-0.1,0-0.1,0c-1.2,0.5-2.3,0.9-3.4,1.4
			c-0.3,0.1-0.6,0.2-0.9,0.4c-0.9,0.4-1.7,0.7-2.6,1c-0.3,0.1-0.6,0.2-0.9,0.4c-0.9,0.4-1.8,0.8-2.7,1.1c-0.2,0.1-0.3,0.1-0.5,0.2
			c-2.2,0.9-4.3,1.8-6.4,2.6c-0.2,0.1-0.3,0.1-0.5,0.2c-0.9,0.4-1.8,0.7-2.6,1.1c-0.1,0.1-0.3,0.1-0.4,0.2c-2,0.9-4,1.7-5.9,2.5
			c0,0,0,0,0,0c3.5,18.5,11.5,71.9,10,83.1c-1.6,12-11.2,32.8-11.2,47.8s-2.5,42.6-2.5,42.6s6.6,21.6,11.2,32.8
			c0.2,0.4,0.3,0.7,0.4,1.1c0,0.1,0.1,0.3,0.1,0.4c0.1,0.3,0.2,0.5,0.3,0.8c0.1,0.2,0.1,0.4,0.2,0.5c0.1,0.3,0.2,0.5,0.2,0.8
			c0.1,0.2,0.1,0.4,0.1,0.6c0.1,0.3,0.1,0.5,0.2,0.8c0,0.2,0.1,0.4,0.1,0.7c0.1,0.3,0.1,0.6,0.2,0.9c0,0.2,0.1,0.5,0.1,0.7
			c0.1,0.3,0.1,0.6,0.2,0.9c0,0.3,0.1,0.5,0.1,0.8c0.1,0.3,0.1,0.6,0.1,0.9c0,0.3,0.1,0.5,0.1,0.8c0,0.3,0.1,0.6,0.1,0.9
			c0,0.3,0.1,0.6,0.1,0.9c0,0.3,0.1,0.6,0.1,1c0,0.3,0.1,0.6,0.1,0.9c0,0.3,0.1,0.7,0.1,1c0,0.3,0.1,0.6,0.1,0.9
			c0,0.3,0.1,0.6,0.1,1c0,0.3,0.1,0.7,0.1,1c0,0.3,0.1,0.6,0.1,0.9c0,0.4,0.1,0.8,0.1,1.1c0,0.2,0,0.4,0.1,0.5
			c0.3,2.5,0.5,5.1,0.8,7.8c0,0,0,0,0,0c13.1,4.8,43,6.8,64.5,5.2c25.4-1.9,69.2-5.2,109.2-4.5C811.1,1053,786.5,992.6,830.1,960.3z
			 M783.3,1005.2c-5.9,11.2-16.4,10.9-15.9-5.8c0.5-16.7-13.5-31.2-17.3-33.3c-3.3-1.8-12.1-9.1-6-15.7c6.1-6.6,21.4-5.5,36.4,21.7
			C780.5,972.1,789.2,993.9,783.3,1005.2z"/>
	</g>
	<g>
		<g>
			<circle class="st15" cx="394" cy="1074.2" r="73.1"/>
			<g>
				<path class="st16" d="M378,1126.8c0,0,12.8-23.9-1.4-23.6s-14.2-4.8-13.9-8.9c0.3-4,1-4.7-0.8-6.1c-1.7-1.3-1-2.6-0.8-2.8
					c0.2-0.2,0.6-0.7-0.3-1.5s-2-1.1-0.7-3s2.1-4.3-0.8-4.5c-2.8-0.2-5.7-1.8-3.8-5c1.9-3.3,5.8-9,6.3-10.8s1.1-2.8,0.2-6.2
					s2.1-13.4,5.4-18.9c3.3-5.5,10-11.9,22.7-13.3c12.7-1.4,23-0.8,31.6,5.9c8.6,6.7,13.5,22.6,7.5,39c-6.1,16.4-11.8,14-10,29
					s13.9,30.7,13.9,30.7H378z"/>
			</g>
			<polyline class="st16" points="402.8,1042.5 416.4,1042.5 402.8,1058.5 416.4,1058.5 			"/>
			<polyline class="st16" points="391.2,1050.5 401.7,1050.5 391.2,1062.8 401.7,1062.8 			"/>
			<polyline class="st16" points="380.6,1059.1 388,1059.1 380.6,1067.8 388,1067.8 			"/>
		</g>
		<g>
			<g>
				<path class="st17" d="M499.2,888.7H444c-0.4,0-0.8-0.2-1-0.6c-0.2-0.3-0.2-0.8,0-1.1l0,0c2.2-4,7.1-15.4,4.4-19.9
					c-0.8-1.4-2.4-2-4.7-2c-6.8,0.1-11.1-0.9-13.3-3.2c-2.1-2.2-1.9-5-1.8-6.8c0.1-1,0.2-1.8,0.2-2.5c0.2-2,0.2-2-0.6-2.6
					c-1.2-0.9-1.5-1.9-1.5-2.6c0-0.7,0.2-1.3,0.5-1.7c0,0,0,0-0.1,0c-0.1-0.1-0.2-0.2-0.3-0.3c-0.8-0.6-2.3-1.7-0.6-4.2
					c0.9-1.3,1-2.2,0.9-2.5c0-0.1-0.2-0.2-0.8-0.2c-2.4-0.2-4.3-1.1-5.1-2.6c-0.4-0.8-0.7-2.2,0.4-4.1c0.6-1,1.4-2.2,2.2-3.5
					c1.7-2.7,3.7-5.9,4.1-7c0.1-0.2,0.1-0.4,0.2-0.6c0.4-1.4,0.7-2.3,0-4.9c-0.7-2.4,0.4-6.9,1.1-9.3c1.1-3.9,2.8-7.8,4.4-10.5
					c2-3.4,4.8-6.3,8.2-8.5c4.3-2.9,9.5-4.7,15.4-5.3c7.2-0.8,12.8-0.9,17.6-0.1c5.7,0.9,10.5,2.9,14.8,6.2c2.3,1.8,4.3,4.1,5.9,6.9
					c1.7,2.9,2.9,6.1,3.7,9.6c1.7,7.7,1.1,15.9-1.8,23.8c-2.4,6.5-4.7,10.1-6.6,12.9c-2.8,4.4-4.4,6.8-3.3,15.5
					c0.9,7.5,4.6,15.3,7.5,20.5c3.2,5.7,6.2,9.6,6.2,9.6c0.3,0.3,0.3,0.8,0.1,1.2C500,888.4,499.6,888.7,499.2,888.7z M445.8,886.4
					h51c-1.2-1.7-3.1-4.5-5-8c-4.4-7.8-7-15-7.8-21.4c-1.1-9.6,0.8-12.5,3.7-17c1.8-2.8,4-6.2,6.3-12.5c3.5-9.5,2.9-17.5,1.7-22.5
					c-1.5-6.4-4.7-12-8.8-15.2c-9-7-20.1-6.8-30.7-5.6c-12.6,1.4-18.8,7.7-21.9,12.8c-3.2,5.4-6.1,15.1-5.3,18
					c0.9,3.3,0.5,4.7,0,6.2c-0.1,0.2-0.1,0.4-0.2,0.6c-0.4,1.3-2,3.8-4.3,7.6c-0.8,1.3-1.6,2.5-2.1,3.5c-0.5,0.8-0.6,1.4-0.3,1.9
					c0.4,0.7,1.7,1.3,3.2,1.4c1.7,0.1,2.4,0.9,2.7,1.5c0.7,1.5-0.2,3.4-1.1,4.7c-0.3,0.4-0.4,0.7-0.4,0.8c0.1,0.1,0.3,0.3,0.5,0.4
					c0.1,0.1,0.3,0.2,0.4,0.3c0.6,0.5,1,1.1,1,1.7c0,0.4-0.1,0.9-0.6,1.4c-0.1,0.2,0,0.6,0.6,1.1c1.8,1.4,1.7,2.6,1.4,4.7
					c-0.1,0.6-0.2,1.4-0.2,2.4c-0.1,2-0.1,3.8,1.1,5.1c1.7,1.8,5.6,2.7,11.6,2.5c3.2-0.1,5.4,1,6.7,3.1c1.7,2.8,1.5,7.5-0.7,13.8
					C447.7,882.4,446.6,884.8,445.8,886.4z M427.9,847C427.9,847,427.9,847,427.9,847C427.9,847,427.9,847,427.9,847z"/>
				<path class="st17" d="M455.7,823.1c-0.5,0-0.9-0.3-1.1-0.8l-4-11.4l-3.3,0.9c-0.4,0.1-0.8,0-1-0.2c-0.3-0.2-0.4-0.6-0.4-1
					l1.5-18.1c0-0.5,0.5-1,1-1c0.5-0.1,1,0.2,1.2,0.7l4.1,10.9l3.3-0.9c0.4-0.1,0.8,0,1,0.2c0.3,0.2,0.4,0.6,0.4,1l-1.6,18.7
					c0,0.5-0.5,1-1,1C455.8,823.1,455.7,823.1,455.7,823.1z M451.3,808.4c0.5,0,0.9,0.3,1.1,0.8l2.6,7.4l1-11.7l-2.7,0.8
					c-0.6,0.2-1.2-0.1-1.4-0.7l-2.7-7.1l-0.9,11.4l2.7-0.8C451.1,808.5,451.2,808.4,451.3,808.4z"/>
				<path class="st17" d="M465,818.8c-0.2,0-0.4,0-0.6-0.1c-0.5-0.3-0.7-0.8-0.5-1.3l3.5-11.6l-3.2-1.2c-0.4-0.1-0.6-0.4-0.7-0.8
					c-0.1-0.4,0-0.8,0.2-1l11.9-13.8c0.4-0.4,0.9-0.5,1.4-0.3c0.5,0.3,0.7,0.8,0.6,1.3l-3.1,11.2l3.2,1.2c0.4,0.1,0.6,0.4,0.7,0.8
					s0,0.8-0.2,1l-12.3,14.2C465.6,818.7,465.3,818.8,465,818.8z M466.5,803l2.6,1c0.6,0.2,0.9,0.8,0.7,1.4l-2.2,7.5l7.7-8.9l-2.7-1
					c-0.6-0.2-0.9-0.8-0.7-1.4l2-7.3L466.5,803z"/>
				<path class="st17" d="M464.6,830.4c-0.4,0-0.9-0.3-1-0.7c-0.2-0.5-0.1-1.1,0.4-1.4l9.7-7.2l-1.8-2.9c-0.2-0.3-0.2-0.7-0.1-1.1
					c0.1-0.3,0.4-0.6,0.8-0.7l17.8-3.9c0.5-0.1,1.1,0.1,1.3,0.6c0.2,0.5,0.1,1.1-0.3,1.4l-9.2,7.1l1.9,2.9c0.2,0.3,0.2,0.7,0.1,1.1
					c-0.1,0.3-0.5,0.6-0.8,0.7l-18.3,4C464.7,830.4,464.7,830.4,464.6,830.4z M474.6,818.4l1.5,2.4c0.3,0.5,0.2,1.2-0.3,1.5
					l-6.3,4.7l11.5-2.5l-1.5-2.4c-0.3-0.5-0.2-1.2,0.3-1.5l6-4.7L474.6,818.4z"/>
			</g>
			<circle class="st15" cx="460" cy="834.9" r="73.1"/>
		</g>
		<g>
			<g>
				<path class="st17" d="M572.3,649.4h-55.2c-0.4,0-0.8-0.2-1-0.6c-0.2-0.3-0.2-0.8,0-1.1l0,0c2.2-4,7.1-15.4,4.4-19.9
					c-0.8-1.4-2.4-2-4.7-2c-6.8,0.1-11.1-0.9-13.3-3.2c-2.1-2.2-1.9-5-1.8-6.8c0.1-1,0.2-1.8,0.2-2.5c0.2-2,0.2-2-0.6-2.6
					c-1.2-0.9-1.5-1.9-1.5-2.6c0-0.7,0.2-1.3,0.5-1.7c0,0,0,0-0.1,0c-0.1-0.1-0.2-0.2-0.3-0.3c-0.8-0.6-2.3-1.7-0.6-4.2
					c0.9-1.3,1-2.2,0.9-2.5c0-0.1-0.2-0.2-0.8-0.2c-2.4-0.2-4.3-1.1-5.1-2.6c-0.4-0.8-0.7-2.2,0.4-4.1c0.6-1,1.4-2.2,2.2-3.5
					c1.7-2.7,3.7-6,4.1-7.1c0.1-0.2,0.1-0.4,0.2-0.6c0.4-1.4,0.7-2.3,0-4.9c-0.7-2.4,0.4-6.9,1.1-9.3c1.1-3.9,2.8-7.8,4.4-10.5
					c2-3.4,4.8-6.3,8.2-8.5c4.3-2.9,9.5-4.7,15.4-5.3c7.2-0.8,12.8-0.9,17.6-0.1c5.7,0.9,10.5,2.9,14.8,6.2c2.3,1.8,4.3,4.1,5.9,6.9
					c1.7,2.9,2.9,6.1,3.7,9.6c1.7,7.7,1.1,15.9-1.8,23.8c-2.4,6.5-4.7,10.1-6.6,12.9c-2.8,4.4-4.4,6.8-3.3,15.5
					c0.9,7.5,4.6,15.3,7.5,20.5c3.2,5.7,6.2,9.6,6.2,9.6c0.3,0.3,0.3,0.8,0.1,1.2C573.1,649.2,572.7,649.4,572.3,649.4z M519,647.1
					h51c-1.2-1.7-3.1-4.5-5-8c-4.4-7.8-7-15-7.8-21.4c-1.1-9.6,0.8-12.5,3.7-17c1.8-2.8,4-6.2,6.3-12.5c3.5-9.5,2.9-17.5,1.7-22.5
					c-1.5-6.4-4.7-12-8.8-15.2c-9-7-20.1-6.8-30.7-5.6c-12.6,1.4-18.8,7.7-21.9,12.8c-3.2,5.4-6.1,15.1-5.3,18
					c0.9,3.3,0.5,4.7,0,6.2c-0.1,0.2-0.1,0.4-0.2,0.6c-0.4,1.3-2,3.8-4.3,7.6c-0.8,1.3-1.6,2.5-2.1,3.5c-0.5,0.8-0.6,1.4-0.3,1.9
					c0.4,0.7,1.7,1.3,3.2,1.4c1.7,0.1,2.4,0.9,2.7,1.5c0.7,1.5-0.2,3.4-1.1,4.7c-0.3,0.4-0.4,0.7-0.4,0.8c0.1,0.1,0.3,0.3,0.5,0.4
					c0.1,0.1,0.3,0.2,0.4,0.3c0.6,0.5,1,1.1,1,1.7c0,0.4-0.1,0.9-0.6,1.4c-0.1,0.2,0,0.6,0.6,1.1c1.8,1.4,1.7,2.6,1.4,4.7
					c-0.1,0.6-0.2,1.4-0.2,2.4c-0.1,2-0.1,3.8,1.1,5.1c1.7,1.8,5.6,2.7,11.6,2.5c3.2-0.1,5.4,1,6.7,3.1c1.7,2.8,1.5,7.5-0.7,13.8
					C520.8,643.1,519.7,645.6,519,647.1z M501.1,607.8C501.1,607.8,501.1,607.8,501.1,607.8C501.1,607.8,501.1,607.8,501.1,607.8z"
					/>
				<path class="st17" d="M536.6,572.9c-2.8,0-4.6-0.9-5.6-2.7c-1.1-2.1-0.6-5.3,1.4-9.6c1.4-3,3.1-5.4,3.2-5.5
					c0.2-0.3,0.6-0.5,0.9-0.5s0.7,0.2,0.9,0.5c0.1,0.1,1.8,2.5,3.2,5.5c2,4.2,2.5,7.5,1.4,9.6C541.2,572,539.4,572.9,536.6,572.9z
					 M536.6,557.9c-0.6,1-1.4,2.3-2.1,3.8c-1.6,3.4-2.2,6.1-1.4,7.5c0.5,0.9,1.7,1.4,3.5,1.4s3-0.5,3.5-1.4c0.7-1.4,0.2-4.1-1.4-7.5
					C538,560.2,537.2,558.9,536.6,557.9z M537.5,556.5L537.5,556.5L537.5,556.5z"/>
				<path class="st17" d="M545.9,582.3c-2.5,0-3.6-1.1-4.1-2c-0.8-1.6-0.5-3.9,1-6.9c1-2.1,2.2-3.7,2.2-3.8c0.2-0.3,0.6-0.5,0.9-0.5
					s0.7,0.2,0.9,0.5c0,0.1,1.2,1.7,2.2,3.8c1.4,3,1.8,5.3,1,6.9C549.5,581.2,548.4,582.3,545.9,582.3z M545.9,572.4
					c-1.5,2.4-2.8,5.5-2.1,6.9c0.3,0.5,1,0.8,2.1,0.8c1.1,0,1.8-0.3,2.1-0.8C548.6,577.9,547.3,574.8,545.9,572.4z M546.8,570.9
					L546.8,570.9L546.8,570.9z"/>
				<path class="st17" d="M533.2,587.6c-2.1,0-3-0.9-3.4-1.7c-0.7-1.3-0.4-3.1,0.7-5.6c0.8-1.6,1.7-2.9,1.7-3
					c0.2-0.3,0.6-0.5,0.9-0.5s0.7,0.2,0.9,0.5c0,0.1,1,1.4,1.7,3c1.2,2.4,1.4,4.3,0.7,5.6C536.2,586.7,535.3,587.6,533.2,587.6z
					 M533.2,580.2c-1,1.8-1.8,3.8-1.4,4.7c0.2,0.4,0.9,0.5,1.4,0.5c0.5,0,1.2-0.1,1.4-0.5C535,584.1,534.2,582,533.2,580.2z"/>
			</g>
			<circle class="st15" cx="533.2" cy="595.7" r="73.1"/>
		</g>
		<g>
			<circle class="st15" cx="1034.4" cy="595.7" r="73.1"/>
			<g>
				<path class="st18" d="M1018.4,648.3c0,0,12.8-23.9-1.4-23.6c-14.2,0.3-14.2-4.8-13.9-8.9c0.3-4,1-4.7-0.8-6.1s-1-2.6-0.8-2.8
					c0.2-0.2,0.6-0.7-0.3-1.5c-1-0.8-2-1.1-0.7-3c1.2-1.9,2.1-4.3-0.8-4.5c-2.8-0.2-5.7-1.8-3.8-5c1.9-3.3,5.8-9,6.3-10.8
					c0.5-1.8,1.1-2.8,0.2-6.2c-0.9-3.4,2.1-13.4,5.4-18.9s10-11.9,22.7-13.3c12.7-1.4,23-0.8,31.6,5.9c8.6,6.7,13.5,22.6,7.5,39
					c-6.1,16.4-11.8,14-10,29c1.8,14.9,13.9,30.7,13.9,30.7H1018.4z"/>
				<g>
					<g>
						<path class="st19" d="M1055.3,560.4c0,0-2.7,4-6.4,5.3c-3.7,1.2-13.8,5.7-15.7,21.8c0,0,0.1,1.5-2.8,6.3"/>
						<path class="st19" d="M1057.9,562.6c0,0-3.1,3.7-3.3,7.6c-0.2,3.9-1.7,14.8-16.5,21.1c0,0-1.4,0.3-5.3,4.4"/>
						<path class="st19" d="M1048.9,565.7c0,0,1.1-0.4,1.8-0.9c0.7-0.4,5.3-1.4,4.2,3.5c0,0-0.3,1-0.3,2"/>
						<path class="st19" d="M1033.4,586.1c0,0-0.1,0.8-0.3,1.9c-0.1,0.8-0.3,5.6,4.3,3.7c0,0,0.6-0.3,1.7-0.8"/>
						<line class="st19" x1="1053.4" y1="564.5" x2="1048" y2="572.8"/>
						<path class="st19" d="M1054.6,565.2c0,0-2.7,9.7-8,16c-5.6,6.6-12.1,10.7-12.1,10.7"/>
						<line class="st19" x1="1052.6" y1="564.4" x2="1045.8" y2="570.2"/>
						<path class="st19" d="M1033.7,591.1c0,0,7.1-9.1,8.8-11.9"/>
						<path class="st19" d="M1033.2,589.8c0,0,3.4-8.5,7.6-14.2"/>
					</g>
					<polygon class="st19" points="1031.6,551.3 1025.5,555.2 1028,567.2 1031.3,565.2 1032.9,573.9 1035.4,557.4 1031.4,560 					
						"/>
				</g>
			</g>
		</g>
		<g>
			<g>
				<path class="st17" d="M1150.6,888.7h-55.2c-0.4,0-0.8-0.2-1-0.6c-0.2-0.3-0.2-0.8,0-1.1c2.2-4,7.1-15.4,4.4-19.9
					c-0.8-1.4-2.4-2-4.7-2c-6.8,0.1-11.1-0.9-13.3-3.2c-2.1-2.2-1.9-5-1.8-6.8c0.1-1,0.2-1.8,0.2-2.5c0.2-2,0.2-2-0.6-2.6
					c-1.2-0.9-1.5-1.9-1.5-2.6c0-0.7,0.2-1.3,0.5-1.7c0,0,0,0-0.1,0c-0.1-0.1-0.2-0.2-0.3-0.3c-0.8-0.6-2.3-1.7-0.6-4.2
					c0.9-1.3,1-2.2,0.9-2.5c0-0.1-0.2-0.2-0.8-0.2c-2.4-0.2-4.3-1.1-5.1-2.6c-0.4-0.8-0.7-2.2,0.4-4.1c0.6-1,1.4-2.2,2.2-3.5
					c1.7-2.7,3.7-6,4.1-7.1c0.1-0.2,0.1-0.4,0.2-0.6c0.4-1.4,0.7-2.3,0-4.9c-0.7-2.4,0.4-6.9,1.1-9.3c1.1-3.9,2.8-7.8,4.4-10.5
					c2-3.4,4.8-6.3,8.2-8.5c4.3-2.9,9.5-4.7,15.4-5.3c7.2-0.8,12.8-0.9,17.6-0.1c5.7,0.9,10.5,2.9,14.8,6.2c2.3,1.8,4.3,4.1,5.9,6.9
					c1.7,2.9,2.9,6.1,3.7,9.6c1.7,7.7,1.1,15.9-1.8,23.8c-2.4,6.5-4.7,10.1-6.6,12.9c-2.8,4.4-4.4,6.8-3.3,15.5
					c0.9,7.5,4.6,15.3,7.5,20.5c3.2,5.7,6.2,9.6,6.2,9.6c0.3,0.3,0.3,0.8,0.1,1.2C1151.4,888.4,1151,888.7,1150.6,888.7z
					 M1097.3,886.4h51c-1.2-1.7-3.1-4.5-5-8c-4.4-7.8-7-15-7.8-21.4c-1.1-9.6,0.8-12.5,3.7-17c1.8-2.8,4-6.2,6.3-12.5
					c3.5-9.5,2.9-17.5,1.7-22.5c-1.5-6.4-4.7-12-8.8-15.2c-9-7-20.1-6.8-30.7-5.6c-12.6,1.4-18.8,7.7-21.9,12.8
					c-3.2,5.4-6.1,15.1-5.3,18c0.9,3.3,0.5,4.7,0,6.2c-0.1,0.2-0.1,0.4-0.2,0.6c-0.4,1.3-2,3.8-4.3,7.6c-0.8,1.3-1.6,2.5-2.1,3.5
					c-0.5,0.8-0.6,1.4-0.3,1.9c0.4,0.7,1.7,1.3,3.2,1.4c1.7,0.1,2.4,0.9,2.7,1.5c0.7,1.5-0.2,3.4-1.1,4.7c-0.3,0.4-0.4,0.7-0.4,0.8
					c0.1,0.1,0.3,0.3,0.5,0.4c0.1,0.1,0.3,0.2,0.4,0.3c0.6,0.5,1,1.1,1,1.7c0,0.4-0.1,0.9-0.6,1.4c-0.1,0.2,0,0.6,0.6,1.1
					c1.8,1.4,1.7,2.6,1.4,4.7c-0.1,0.6-0.2,1.4-0.2,2.4c-0.1,2-0.1,3.8,1.1,5.1c1.7,1.8,5.6,2.7,11.6,2.5c3.2-0.1,5.4,1,6.7,3.1
					c1.7,2.8,1.5,7.5-0.7,13.8C1099.1,882.4,1098,884.8,1097.3,886.4z M1079.4,847C1079.4,847,1079.4,847,1079.4,847
					C1079.4,847,1079.4,847,1079.4,847z"/>
				<g>
					<g>
						<g>
							<circle class="st17" cx="1108.1" cy="801.5" r="0.9"/>
							<path class="st17" d="M1108.1,803c-0.8,0-1.5-0.7-1.5-1.5s0.7-1.5,1.5-1.5c0.8,0,1.5,0.7,1.5,1.5S1109,803,1108.1,803z
								 M1108.1,801.2c-0.2,0-0.3,0.1-0.3,0.3s0.1,0.3,0.3,0.3s0.3-0.1,0.3-0.3S1108.3,801.2,1108.1,801.2z"/>
						</g>
						<g>
							<circle class="st17" cx="1113.4" cy="801.5" r="0.9"/>
							<path class="st17" d="M1113.4,803c-0.8,0-1.5-0.7-1.5-1.5s0.7-1.5,1.5-1.5s1.5,0.7,1.5,1.5S1114.3,803,1113.4,803z
								 M1113.4,801.2c-0.2,0-0.3,0.1-0.3,0.3s0.1,0.3,0.3,0.3c0.2,0,0.3-0.1,0.3-0.3S1113.6,801.2,1113.4,801.2z"/>
						</g>
					</g>
				</g>
				<path class="st17" d="M1110.7,809.8c-4.2,0-6.2-2.9-6.3-3l1.9-1.3l0,0c0.1,0.1,1.5,2,4.4,2c3,0,4.6-2,4.6-2.1
					c0.4-0.5,1.1-0.6,1.6-0.2c0.5,0.4,0.6,1.1,0.2,1.6C1117,807,1114.8,809.8,1110.7,809.8z"/>
				<path class="st17" d="M1110.8,815.5c-6.3,0-11.3-5.1-11.3-11.3s5.1-11.3,11.3-11.3c6.3,0,11.3,5.1,11.3,11.3
					c0,1.9-0.5,3.9-1.4,5.5c-0.1,0.3-0.4,0.4-0.7,0.5c-2.2,0.7-4,2.2-5.2,4.2c-0.1,0.3-0.4,0.4-0.7,0.5
					C1113.1,815.3,1112,815.5,1110.8,815.5z M1110.8,795.1c-5,0-9,4.1-9,9s4.1,9,9,9c0.8,0,1.5-0.1,2.3-0.3c1.4-2.2,3.4-3.8,5.8-4.7
					c0.6-1.2,1-2.6,1-4C1119.8,799.2,1115.8,795.1,1110.8,795.1z M1119.7,809.1L1119.7,809.1L1119.7,809.1z"/>
				<path class="st17" d="M1122.7,830.2c-6.3,0-11.3-5.1-11.3-11.3c0-6.3,5.1-11.3,11.3-11.3s11.3,5.1,11.3,11.3
					C1134.1,825.1,1129,830.2,1122.7,830.2z M1122.7,809.8c-5,0-9,4.1-9,9c0,5,4.1,9,9,9s9-4.1,9-9
					C1131.8,813.9,1127.7,809.8,1122.7,809.8z"/>
				<g>
					<g>
						<g>
							<circle class="st17" cx="1120.1" cy="816.2" r="0.9"/>
							<path class="st17" d="M1120.1,817.7c-0.8,0-1.5-0.7-1.5-1.5c0-0.8,0.7-1.5,1.5-1.5s1.5,0.7,1.5,1.5
								C1121.6,817.1,1120.9,817.7,1120.1,817.7z M1120.1,815.9c-0.2,0-0.3,0.1-0.3,0.3s0.1,0.3,0.3,0.3c0.2,0,0.3-0.1,0.3-0.3
								S1120.3,815.9,1120.1,815.9z"/>
						</g>
						<g>
							<circle class="st17" cx="1125.4" cy="816.2" r="0.9"/>
							<path class="st17" d="M1125.4,817.7c-0.8,0-1.5-0.7-1.5-1.5c0-0.8,0.7-1.5,1.5-1.5s1.5,0.7,1.5,1.5
								C1126.9,817.1,1126.2,817.7,1125.4,817.7z M1125.4,815.9c-0.2,0-0.3,0.1-0.3,0.3s0.1,0.3,0.3,0.3c0.2,0,0.3-0.1,0.3-0.3
								S1125.6,815.9,1125.4,815.9z"/>
						</g>
					</g>
				</g>
				<path class="st17" d="M1128.2,824.5c-0.3,0-0.7-0.2-0.9-0.4c-0.1-0.1-1.7-2.1-4.6-2.1c-2.9,0-4.3,1.9-4.4,2l-0.9-0.7l-0.9-0.7
					c0.1-0.1,2.1-3,6.3-3c4.1,0,6.4,2.8,6.5,2.9c0.4,0.5,0.3,1.2-0.2,1.6C1128.7,824.5,1128.4,824.5,1128.2,824.5z"/>
			</g>
			<circle class="st15" cx="1111.5" cy="834.9" r="73.1"/>
		</g>
		<g>
			<g>
				<path class="st17" d="M1212.1,1127.9h-55.2c-0.4,0-0.8-0.2-1-0.6c-0.2-0.3-0.2-0.8,0-1.1c2.2-4,7.1-15.4,4.4-19.9
					c-0.8-1.4-2.4-2-4.7-2c-6.8,0.1-11.1-0.9-13.3-3.2c-2.1-2.2-1.9-5-1.8-6.8c0.1-1,0.2-1.8,0.2-2.5c0.2-2,0.2-2-0.6-2.6
					c-1.2-0.9-1.5-1.9-1.5-2.6c0-0.7,0.2-1.3,0.5-1.7c0,0,0,0-0.1,0c-0.1-0.1-0.2-0.2-0.3-0.3c-0.8-0.6-2.3-1.7-0.6-4.2
					c0.9-1.3,1-2.2,0.9-2.5c0-0.1-0.2-0.2-0.8-0.2c-2.4-0.2-4.3-1.1-5.1-2.6c-0.4-0.8-0.7-2.2,0.4-4.1c0.6-1,1.4-2.2,2.2-3.5
					c1.7-2.7,3.7-5.9,4.1-7c0.1-0.2,0.1-0.4,0.2-0.6c0.4-1.4,0.7-2.3,0-4.9c-0.7-2.4,0.4-6.9,1.1-9.3c1.1-3.9,2.8-7.8,4.4-10.5
					c2-3.4,4.8-6.3,8.2-8.5c4.3-2.9,9.5-4.7,15.4-5.3c7.2-0.8,12.8-0.9,17.6-0.1c5.7,0.9,10.5,2.9,14.8,6.2c2.3,1.8,4.3,4.1,5.9,6.9
					c1.7,2.9,2.9,6.1,3.7,9.6c1.7,7.7,1.1,15.9-1.8,23.8c-2.4,6.5-4.7,10.1-6.6,12.9c-2.8,4.4-4.4,6.8-3.3,15.5
					c0.9,7.5,4.6,15.3,7.5,20.5c3.2,5.7,6.2,9.6,6.2,9.6c0.3,0.3,0.3,0.8,0.1,1.2C1212.9,1127.7,1212.5,1127.9,1212.1,1127.9z
					 M1158.8,1125.6h51c-1.2-1.7-3.1-4.5-5-8c-4.4-7.8-7-15-7.8-21.4c-1.1-9.6,0.8-12.5,3.7-17c1.8-2.8,4-6.2,6.3-12.5
					c3.5-9.5,2.9-17.5,1.7-22.5c-1.5-6.4-4.7-12-8.8-15.2c-9-7-20.1-6.8-30.7-5.6c-12.6,1.4-18.8,7.7-21.9,12.8
					c-3.2,5.4-6.1,15.1-5.3,18c0.9,3.3,0.5,4.7,0,6.2c-0.1,0.2-0.1,0.4-0.2,0.6c-0.4,1.3-2,3.8-4.3,7.6c-0.8,1.3-1.6,2.5-2.1,3.5
					c-0.5,0.8-0.6,1.4-0.3,1.9c0.4,0.7,1.7,1.3,3.2,1.4c1.7,0.1,2.4,0.9,2.7,1.5c0.7,1.5-0.2,3.4-1.1,4.7c-0.3,0.4-0.4,0.7-0.4,0.8
					c0.1,0.1,0.3,0.3,0.5,0.4c0.1,0.1,0.3,0.2,0.4,0.3c0.6,0.5,1,1.1,1,1.7c0,0.4-0.1,0.9-0.6,1.4c-0.1,0.2,0,0.6,0.6,1.1
					c1.8,1.4,1.7,2.6,1.4,4.7c-0.1,0.6-0.2,1.4-0.2,2.4c-0.1,2-0.1,3.8,1.1,5.1c1.7,1.8,5.6,2.7,11.6,2.5c3.2-0.1,5.4,1,6.7,3.1
					c1.7,2.8,1.5,7.5-0.7,13.8C1160.6,1121.6,1159.5,1124.1,1158.8,1125.6z M1140.9,1086.2
					C1140.9,1086.2,1140.9,1086.2,1140.9,1086.2C1140.9,1086.2,1140.9,1086.2,1140.9,1086.2z"/>
				<path class="st17" d="M1193.3,1058h-29.7c-1.4,0-2.5-1.1-2.5-2.5v-13.5c0-1.4,1.1-2.5,2.5-2.5h29.7c1.4,0,2.5,1.1,2.5,2.5v1.3
					h0.9c1.4,0,2.5,1.1,2.5,2.5v6.1c0,1.4-1.1,2.5-2.5,2.5h-0.9v1.3C1195.8,1056.9,1194.7,1058,1193.3,1058z M1163.6,1041.9
					c-0.1,0-0.2,0.1-0.2,0.2v13.5c0,0.1,0.1,0.2,0.2,0.2h29.7c0.1,0,0.2-0.1,0.2-0.2v-2.4c0-0.6,0.5-1.2,1.2-1.2h2.1
					c0.1,0,0.2-0.1,0.2-0.2v-6.1c0-0.1-0.1-0.2-0.2-0.2h-2.1c-0.6,0-1.2-0.5-1.2-1.2v-2.4c0-0.1-0.1-0.2-0.2-0.2H1163.6z"/>
				<g>
					
						<rect x="1176.9" y="1046.2" transform="matrix(6.123234e-17 -1 1 6.123234e-17 133.188 2230.8269)" class="st17" width="10.2" height="5.2"/>
					
						<rect x="1169.8" y="1046.2" transform="matrix(6.123234e-17 -1 1 6.123234e-17 126.067 2223.7061)" class="st17" width="10.2" height="5.2"/>
					
						<rect x="1162.6" y="1046.2" transform="matrix(6.123234e-17 -1 1 6.123234e-17 118.8797 2216.5188)" class="st17" width="10.2" height="5.2"/>
				</g>
			</g>
			<circle class="st15" cx="1173" cy="1074.2" r="73.1"/>
		</g>
	</g>
	<rect x="213.7" y="1427.7" class="st20" width="1127.5" height="16.9"/>
	<g>
		<g id="Capa_2_00000008118143526955893320000011362197393581037489_">
			<g id="Capa_1-2_00000011742914580721010620000013865474461189558696_">
				<path class="st20" d="M306.8,1384.9c-1.9,0.5-3.8,1.6-4.8,2.8l0,0c-7.2,8.2-9.8,11.2-15.9,18.2c-0.4,0.5-1.4,0.9-2.1,0.9
					c-0.1,0-0.3,0-0.4,0c-5.3-1.2-6.4-4.8-2.8-8.9c0.1-0.1,0.2-0.3,0.3-0.4c0-0.1,0.1-0.1,0.1-0.1c0.1-0.1,0.2-0.2,0.3-0.3
					c0,0,0,0,0.1-0.1c0.3-0.3,0.5-0.5,0.8-0.8c0,0,0.1,0,0.1-0.1c0.1-0.1,0.3-0.2,0.4-0.3c0,0,0,0,0.1-0.1c0.3-0.3,0.7-0.5,1-0.8
					c0,0,0,0,0.1-0.1c0.2-0.1,0.3-0.2,0.5-0.4l0,0c0.4-0.3,0.8-0.5,1.1-0.8c0,0,0,0,0.1,0c0.4-0.2,0.8-0.5,1.2-0.7c0,0,0,0,0,0
					c0.2-0.1,0.4-0.2,0.6-0.3c0,0,0.1,0,0.1-0.1c0.2-0.1,0.4-0.2,0.6-0.3c0,0,0,0,0.1,0c0.2-0.1,0.4-0.2,0.6-0.3
					c0.1,0,0.1-0.1,0.2-0.1c0.9-0.4,1.8-0.9,2.7-1.3c0.4-0.2,0.8-0.3,1.2-0.5c1.1-0.4,1.9-1.1,1.8-1.7c0,0,0-0.1,0-0.1
					c-0.2-0.4-0.3-0.5-0.4-0.9c-0.2-0.4-1.1-0.5-2.1-0.1c-1.4,0.6-2.8,1.2-4.2,1.8l0,0c0,0,0,0-0.1,0c-0.3,0.1-0.6,0.3-0.9,0.4l0,0
					c-0.3,0.1-0.6,0.3-0.8,0.4c-0.1,0-0.1,0-0.1,0.1c-0.5,0.3-1.1,0.6-1.6,0.9c-0.1,0-0.1,0.1-0.1,0.1c-0.5,0.3-1.1,0.6-1.6,1
					c0,0-0.1,0.1-0.1,0.1c-0.2,0.1-0.5,0.3-0.7,0.4c0,0,0,0-0.1,0c-0.2,0.2-0.5,0.3-0.7,0.5c-0.1,0-0.1,0.1-0.1,0.1
					c-0.2,0.1-0.4,0.3-0.6,0.4c0,0-0.1,0-0.1,0.1c-0.2,0.2-0.4,0.3-0.7,0.5c0,0-0.1,0.1-0.1,0.1c-0.2,0.1-0.4,0.3-0.5,0.4
					c0,0-0.1,0.1-0.1,0.1c-0.2,0.2-0.4,0.3-0.6,0.5c0,0,0,0-0.1,0.1c-0.2,0.1-0.4,0.3-0.5,0.4c0,0-0.1,0.1-0.1,0.1
					c-0.2,0.2-0.4,0.3-0.5,0.5c0,0,0,0,0,0.1c-0.2,0.2-0.3,0.3-0.5,0.5c0,0-0.1,0.1-0.1,0.1c-0.2,0.2-0.3,0.3-0.5,0.5c0,0,0,0,0,0
					c-5.3,6.1-3,11.2,5.4,12.4c0.6,0.1,0.7,0.5,0.4,0.9c-1.8,2-2.7,3.1-4.6,5.3c-0.5,0.6-0.3,1,0.5,1c0,0,0,0,0,0c0.9,0,1.3,0,2.2,0
					c0.8,0,1.8-0.5,2.3-1l0,0c1.9-2.2,2.9-3.3,4.6-5.3c0.4-0.4,1.2-0.8,1.9-0.9c4.4-0.5,9.2-1.7,13.7-3.5c1.9-0.8,3.6-1.6,5.3-2.5
					c10.8-5.9,14.4-13.9,8.6-18.2c-0.8-0.6-1.7-1-2.8-1.4C311.6,1384.1,309.3,1384.2,306.8,1384.9z M305.7,1401.9
					c-3.9,2.4-8.8,4.1-13.5,4.9c-0.9,0.1-1.4-0.1-1.2-0.6c0-0.1,0.1-0.2,0.2-0.3c5.4-6.2,7.7-8.9,13.7-15.8c0.8-0.9,2.6-1.7,3.9-1.7
					c0.3,0,0.6,0,0.8,0.1c5.6,2.3,4.2,8.1-3.1,12.9C306.2,1401.5,305.9,1401.7,305.7,1401.9C305.7,1401.8,305.7,1401.8,305.7,1401.9
					z"/>
				<g>
					<path class="st20" d="M337.6,1399.1c-0.3,0-0.7-0.1-1-0.1c-0.4,0-0.9-0.1-1.3-0.1c-0.3,0-0.8,0-1.2,0.2
						c-0.5,0.3-1.4,1.5-1.7,1.7c1.1,0,1.7,0,2.8,0c0.6,0,0.9,0.1,0.5,0.5c-0.2,0.3-0.3,0.4-0.6,0.7c-0.4,0.5-0.8,0.7-1.6,0.7
						c-1.1,0-1.7,0-2.8,0c-1.9,2.3-2.9,3.4-4.9,5.7c-0.4,0.5-0.8,0.8-1.7,0.8c-0.7,0-1.1,0-1.8,0c-0.8,0-0.6-0.3-0.2-0.7
						c2.1-2.4,3-3.5,5-5.8c-0.3,0-0.5,0-0.8,0c-0.6,0-0.4-0.3-0.2-0.6c0.3-0.3,0.4-0.4,0.6-0.7c0.5-0.6,1.2-0.5,1.9-0.5
						c0.2-0.3,0.3-0.4,0.6-0.7c0.6-0.7,1.3-1.4,2.5-2.1c2-1,3.9-1,5.7-1c0.6,0,2,0,2,0.3c0,0.1,0,0.2-0.2,0.4c0,0-0.1,0.1-0.1,0.1
						C339.2,1398.3,338.5,1399.1,337.6,1399.1z M343,1399.6c-0.4,0-0.7,0-1.1,0c-1,0-1.4-0.1-0.8-0.8c0.2-0.2,0.3-0.4,0.5-0.6
						c0.5-0.6,1-0.8,1.9-0.8c0.5,0,0.8,0,1.3,0c0.6,0,0.9,0.3,0.5,0.7c0,0-0.1,0.1-0.1,0.1c-0.2,0.2-0.3,0.4-0.5,0.6
						C344.4,1399.3,343.8,1399.6,343,1399.6L343,1399.6z M334.8,1409.3c-0.4,0-0.7,0-1.1,0c-1,0-1.4-0.1-0.8-0.8
						c2.4-2.8,3.5-4.1,5.8-6.9c0.5-0.6,1-0.8,1.9-0.8c0.5,0,0.8,0,1.3,0c0.6,0,0.9,0.3,0.5,0.7c0,0-0.1,0.1-0.1,0.1
						c-2.3,2.7-3.4,4.1-5.8,6.9C336.2,1409,335.7,1409.3,334.8,1409.3L334.8,1409.3z"/>
					<path class="st20" d="M344.8,1409.5c-1.4,0-2.7,0-3.9-0.1c-0.8-0.1-0.5-0.3-0.1-0.8c0.1-0.1,0.2-0.2,0.3-0.3
						c0.3-0.4,0.8-0.8,1.5-0.8c0.5,0,0.9,0.1,1.4,0.1c0.9,0.1,1.9,0.1,2.9,0.1s1.4,0,2-0.7c0.2-0.2,0.3-0.4,0.3-0.6
						c-0.1-0.2-2.2-0.6-2.6-0.7c-0.5-0.1-0.9-0.3-1.3-0.4c-1.1-0.5-1.2-1-0.3-2c2.3-2.7,5.2-2.7,8.7-2.7c0.7,0,1.4,0,2.1,0
						c1,0.1,1.3,0.2,0.7,0.9c-0.4,0.5-0.8,1.1-2,1.1c-0.5,0-0.9-0.1-1.4-0.1c-0.7,0-1.5-0.1-2.2-0.1c-1.1,0-1.6-0.1-2.2,0.7
						c-0.1,0.1-0.2,0.2-0.1,0.3c0.1,0.2,2.4,0.7,2.9,0.8c1.8,0.5,2.5,0.9,1.2,2.5C350.4,1409.2,348.3,1409.5,344.8,1409.5z"/>
					<path class="st20" d="M364.9,1399.6c-0.4,0-0.6,0-1.1,0c-1,0-1.4-0.1-0.8-0.8c0.2-0.2,0.3-0.4,0.5-0.6c0.5-0.6,1-0.8,1.9-0.8
						c0.5,0,0.8,0,1.3,0c0.6,0,0.9,0.3,0.5,0.7c0,0-0.1,0.1-0.1,0.1c-0.2,0.3-0.3,0.4-0.5,0.6
						C366.3,1399.3,365.8,1399.6,364.9,1399.6z M356.8,1409.3c-0.4,0-0.6,0-1.1,0c-1,0-1.4-0.1-0.8-0.8c2.4-2.8,3.5-4.1,5.8-6.9
						c0.5-0.6,1-0.8,1.9-0.8c0.5,0,0.8,0,1.3,0c0.6,0,0.9,0.3,0.6,0.7c0,0-0.1,0.1-0.1,0.1c-2.3,2.7-3.4,4.1-5.8,6.9
						C358.2,1409,357.6,1409.3,356.8,1409.3z"/>
					<path class="st20" d="M370.3,1409.5c-0.8,0-1.7,0.1-2.5,0.1c-5.6,0-5.4-1.2-2.7-4.5c2.7-3.3,4.6-4.5,10.2-4.5
						c0.8,0,1.6,0,2.3,0.1c0.8,0.1,1.6,0,1.1,0.6c0,0,0,0,0,0c-0.4,0.4-1.1,1.4-2.2,1.4c-0.4,0-0.7,0-1.1-0.1
						c-0.8-0.1-1.7-0.1-2.6-0.1c-1.2,0-1.5,0.1-2.3,0.8c-0.7,0.6-1.2,1.2-1.7,1.8c-0.5,0.6-0.9,1.1-1.3,1.7c-0.6,0.8-0.2,0.9,1,0.9
						c0.9,0,1.9-0.1,2.8-0.1c0.4,0,0.8-0.1,1.2-0.1c0.3,0,0.5,0.1,0.5,0.2c0.1,0.1-0.5,1-0.7,1.2
						C371.9,1409.5,371.3,1409.4,370.3,1409.5z"/>
					<path class="st20" d="M385.6,1409.4c-0.6,0-1,0-1.6,0c-0.7,0-0.6-0.3-0.3-0.7c-1.7,0.5-3.4,0.8-5,0.9c-2.8,0-3.2-1-1.8-2.7
						c1.6-1.9,4-2.6,6.9-2.8c1.3-0.1,2.5-0.1,3.7-0.1c0.6-0.7,1.6-1.7,0-1.7c-1.4,0-2.9,0.1-4.4,0.4c-0.3,0-0.5,0.1-0.7,0.1
						c-1,0-0.3-0.6,0-1.1c0.2-0.3,0.8-0.7,1.4-0.7c1.7-0.2,3.4-0.3,4.9-0.3c1.4,0,3,0.1,3.4,0.8c0.5,0.8-0.4,1.9-1.3,2.9
						c-1.4,1.7-2.1,2.6-3.6,4.3C387,1409.1,386.5,1409.4,385.6,1409.4z M386.4,1405.6c-0.5,0-0.9,0-1.4,0c-0.6,0-1.2,0-1.8,0
						c-1.3,0.1-2,0.3-2.6,1.1c-0.4,0.4-0.9,1.2,0,1.2c1.4,0,3-0.3,4.6-0.9C385.7,1406.5,385.9,1406.2,386.4,1405.6z"/>
					<path class="st20" d="M393.2,1409.4c-0.4,0-0.6,0-1,0c-1,0-1.4-0.1-0.8-0.8c3.7-4.3,5.2-6.3,8.8-10.7c0.5-0.6,1-0.8,1.9-0.8
						c0.5,0,0.8,0,1.3,0c0.6,0,0.9,0.3,0.6,0.7c0,0-0.1,0.1-0.1,0.1c-3.5,4.4-5.1,6.4-8.7,10.7
						C394.5,1409.1,394,1409.4,393.2,1409.4z"/>
					<path class="st20" d="M406.6,1409.6c-0.8,0-1.7,0.1-2.5,0.1c-5.5,0-5.4-1.2-2.6-4.5c2.7-3.3,4.6-4.5,10.1-4.5
						c0.8,0,1.6,0,2.3,0.1c0.8,0.1,1.5,0,1.1,0.6c0,0,0,0,0,0c-0.4,0.4-1.1,1.4-2.1,1.4c-0.4,0-0.7,0-1-0.1
						c-0.8-0.1-1.7-0.1-2.5-0.1c-1.2,0-1.5,0.1-2.3,0.8c-0.6,0.6-1.2,1.2-1.7,1.8c-0.5,0.6-0.9,1.1-1.3,1.7c-0.6,0.8-0.2,0.9,1,0.9
						c0.9,0,1.8-0.1,2.8-0.1c0.4,0,0.8-0.1,1.2-0.1c0.3,0,0.5,0.1,0.5,0.2c0.1,0.1-0.5,1-0.7,1.2
						C408.2,1409.6,407.5,1409.5,406.6,1409.6z"/>
					<path class="st20" d="M417.7,1409.7c-4.7,0-5-1.8-2.7-4.6c2.3-2.8,5.4-4.5,10.1-4.5c4.7,0,5.1,1.7,2.8,4.6
						C425.6,1408,422.4,1409.7,417.7,1409.7z M425.4,1403.1c0-0.6-0.9-0.6-1.8-0.6c-1,0-1.8,0-2.8,0.6c-1,0.6-1.7,1.4-2.2,2.1
						c-0.5,0.6-1.2,1.5-1.2,2.1c0,0.6,0.9,0.6,1.8,0.6c0.9,0,1.8,0,2.8-0.6c1-0.6,1.7-1.5,2.2-2.1
						C424.8,1404.6,425.5,1403.6,425.4,1403.1z"/>
					<path class="st20" d="M437.7,1409.5c-0.6,0-0.9,0-1.6,0c-0.6,0-0.6-0.3-0.3-0.7c-1.7,0.5-3.4,0.9-4.9,0.9c-2.7,0-3.2-1-1.7-2.7
						c1.6-2,3.9-2.6,6.8-2.8c1.3-0.1,2.5-0.1,3.7-0.1c0.6-0.7,1.5-1.7,0-1.7c-1.4,0-2.8,0.1-4.3,0.4c-0.2,0-0.5,0.1-0.7,0.1
						c-1,0-0.3-0.6,0-1.1c0.2-0.3,0.8-0.7,1.4-0.8c1.7-0.2,3.3-0.4,4.9-0.3c1.3,0,2.9,0.2,3.3,0.8c0.5,0.8-0.4,1.9-1.2,2.9
						c-1.4,1.7-2.1,2.6-3.6,4.4C439,1409.3,438.5,1409.5,437.7,1409.5z M438.5,1405.7c-0.4,0-0.9,0-1.3,0c-0.6,0-1.2,0-1.8,0
						c-1.3,0.1-1.9,0.3-2.6,1.1c-0.4,0.4-0.9,1.2,0,1.2c1.4,0,3-0.3,4.5-0.9C437.8,1406.6,438,1406.3,438.5,1405.7z"/>
					<path class="st20" d="M450.7,1409.7c-0.8,0-1.6,0.1-2.4,0.1c-5.4,0-5.2-1.2-2.5-4.6c2.7-3.3,4.5-4.6,9.9-4.6
						c0.8,0,1.5,0,2.3,0.1c0.8,0.1,1.5,0,1,0.6c0,0,0,0,0,0c-0.4,0.5-1.1,1.4-2.1,1.4c-0.4,0-0.7,0-1-0.1c-0.8-0.1-1.6-0.1-2.5-0.2
						c-1.2,0-1.5,0.1-2.3,0.8c-0.6,0.6-1.2,1.2-1.6,1.8c-0.5,0.6-0.9,1.1-1.3,1.7c-0.6,0.8-0.2,0.9,1,0.9c0.9,0,1.8-0.1,2.7-0.1
						c0.4,0,0.8-0.1,1.1-0.1c0.3,0,0.5,0.1,0.5,0.2c0.1,0.1-0.5,1-0.7,1.2C452.3,1409.7,451.7,1409.6,450.7,1409.7z"/>
					<path class="st20" d="M465.7,1409.6c-0.6,0-0.9,0-1.5,0c-0.8,0-0.7-0.4-0.3-0.8c1.6-1.9,2.3-2.8,3.7-4.6c0.2-0.3,1-1.2,0.9-1.4
						c-0.1-0.2-0.5-0.1-0.8-0.1c-1.2,0-2.6,0.3-4,0.8c-1.7,2.1-2.5,3.2-4.3,5.3c-0.4,0.5-0.9,0.8-1.8,0.8c-0.6,0-0.9,0-1.5,0
						c-0.7,0-0.8-0.3-0.4-0.7c3.7-4.4,5.2-6.5,8.7-11c0.5-0.6,1-0.8,1.8-0.8c0.5,0,0.8,0,1.3,0c0.6,0,0.8,0.3,0.6,0.7
						c0,0-0.1,0.1-0.1,0.1c-1.1,1.4-1.6,2.1-2.6,3.4c1.4-0.4,2.9-0.6,4.2-0.6c2.5,0,3.6,0.9,2.2,2.6c-1.7,2.2-2.6,3.3-4.5,5.5
						C467.1,1409.3,466.6,1409.6,465.7,1409.6z"/>
				</g>
			</g>
		</g>
	</g>
</g>
</svg>
