<?xml version="1.0" encoding="utf-8"?>
<!-- Generator: Adobe Illustrator 25.4.1, SVG Export Plug-In . SVG Version: 6.00 Build 0)  -->
<svg version="1.1" id="Capa_1" xmlns="http://www.w3.org/2000/svg" xmlns:xlink="http://www.w3.org/1999/xlink" x="0px" y="0px"
	 viewBox="0 0 509.6 445.5" style="enable-background:new 0 0 509.6 445.5;" xml:space="preserve">
<style type="text/css">
	.st0{display:none;fill:none;stroke:#00E9C5;stroke-width:7;stroke-linecap:round;stroke-linejoin:round;stroke-miterlimit:10;}
	.st1{fill:none;stroke:#00E9C5;stroke-width:30;stroke-linecap:round;stroke-linejoin:round;stroke-miterlimit:10;}
	.st2{enable-background:new    ;}
	.st3{fill:#00E9C5;}
</style>
<polyline class="st0" points="266.3,270.2 325.1,270 325.1,284.1 390.4,246.3 325.1,208.6 325.1,222.7 215,222.5 "/>
<polygon class="st1" points="254.9,15 494.6,430.5 15,430.5 "/>
<g class="st2">
	<path class="st3" d="M263.3,378.9c-13.6,0-27.5-0.8-40.8-3c-8.1-1.5-14.6-4.5-14.6-13.9V215.9c0-16.4,13.4-13.6,25.2-13.6
		c8.1,0,12.9,5.8,12.9,13.6v37.3c9.3-1.3,18.9-2,28.2-2c40.6,0,48.4,25.7,48.4,61.5C322.6,355.7,309.2,378.9,263.3,378.9z
		 M281.7,289.7c-1.8-7.3-5.5-7.3-12.6-7.3c-7.6,0-15.6,1.3-23.2,2.8v60.7c5.8,1,11.8,1.8,17.9,1.8c6.6,0,14.9-0.8,17.4-8.1
		c2.3-6.8,2.8-20.2,2.8-27.5C284,304.6,283.5,297,281.7,289.7z"/>
</g>
</svg>
