<?xml version="1.0" encoding="utf-8"?>
<!-- Generator: Adobe Illustrator 25.4.1, SVG Export Plug-In . SVG Version: 6.00 Build 0)  -->
<svg version="1.1" id="Capa_1" xmlns="http://www.w3.org/2000/svg" xmlns:xlink="http://www.w3.org/1999/xlink" x="0px" y="0px"
	 viewBox="0 0 101.9 101.9" style="enable-background:new 0 0 101.9 101.9;" xml:space="preserve">
<style type="text/css">
	.st0{fill:#00E9C5;}
	.st1{fill:#00E9C5;stroke:#00E9C5;stroke-miterlimit:10;}
	.st2{fill:#00E9C5;stroke:#00E9C5;stroke-width:0.6;stroke-miterlimit:10;}
	.st3{fill:#00E9C5;stroke:#00E9C5;stroke-width:0.6;stroke-linecap:round;stroke-miterlimit:10;}
	.st4{fill:#00E9C5;stroke:#00E9C5;stroke-width:3;stroke-linecap:round;stroke-miterlimit:10;}
</style>
<g>
	<g>
		<path class="st0" d="M74,96.6L69,99c-6.4,3.4-13.8,3.7-20.7,1.6c-0.8-0.3-1.3-1.1-1.1-2.1c0.3-0.8,1.1-1.3,2.1-1.1
			c6.1,2.1,12.7,1.3,18.3-1.3l5-2.4C79,90.3,84,84.9,85.9,78.3l12.5-40.8c1.3-4-2.7-6.4-5.6-5c-3.7,1.6-6.4,5-7.7,9l0,0l-2.9,12.7
			c-1.1,4-5.7,4.9-8.8,0.8L72,52.7c-0.2-0.5-2.3-5.5-2.4-6c-0.5-2-2.1-9.6-7.8-38.7c-0.8-3.7-4.8-5.3-8-4c-2.1,1.1-2.7,3.3-2.1,5.9
			l6.7,38.4c0.3,1.6-2.1,2.7-2.9,1.1L36.4,12c-2.4-4.2-8.8-4-10.3,0.8l0,0c-0.3,1.3-0.3,2.9,0.3,4.2l18,36.3
			c0.8,1.6-1.3,2.9-2.7,1.6l-23.9-27c-1.1-1.1-2.4-1.6-3.7-2.1l0,0c-4.2-0.3-7.2,4.2-5.3,8c0.3,1.1-1.6-1.3,25.5,28.9
			c1.3,1.3-0.8,3.4-2.1,2.4L10.9,51.2c-4-2.7-9,1.6-7.2,6.1c0.3,1.1,1.1,1.6,1.6,2.1l14.9,9.8c6.1,4,11.1,9.3,14.1,16.2
			c1.1,2.1,2.6,5,4.4,6.3c3.6,2.5,2.4,2.7,1.9,3.5s-2.4,0.9-4.7-1.8c-1.6-2.1-3.4-4-4.2-6.4c-2.9-6.1-7.4-11.1-13-14.9l-15-9.7
			C0,60-1.1,55,1.3,51.3c2.4-3.7,7.4-4.8,11.1-2.4l11,7.3c0,0,0.1,0,0,0L7.2,37.5C3.8,33.8,4.5,28.5,8,25c3.7-3.4,9-2.9,12.5,0.8
			l16,17.9c0,0,0.1,0,0,0L23.9,18.1c-2.1-4.2-0.3-9.3,4-11.7c4.2-2.1,9.3-0.3,11.7,4l13.7,27.1h0.1l-5-27.6
			c-0.8-3.7,1.1-7.7,4.8-9.3c5.3-1.9,10.6,0.9,12.3,6.1l0,0l7.2,39.2c0,0,0.5,1.6,1,2.9c0.3,0.9,0.8,1.8,1.3,2.6l1.4,2
			c0.8,1.3,2.4,1.1,2.9,0c2.4-9,2.9-12.9,2.9-13c1.6-4.8,5-8.8,9.3-10.6c5.6-2.7,11.9,2.4,10.1,8.8c-13,42.3-12.5,40.8-12.5,40.8
			C86.5,86.8,81.2,92.9,74,96.6L74,96.6z"/>
	</g>
</g>
<path class="st1" d="M46.4,61.3c-0.3,0-0.5-0.2-0.5-0.5c0-0.2,0.1-0.3,0.2-0.4c0.9-0.8,2-1.5,3.1-2.2c0.3-0.2,0.6-0.1,0.8,0.2
	c0.2,0.3,0.1,0.6-0.2,0.8l0,0c-1,0.6-2,1.3-2.9,2C46.7,61.2,46.6,61.3,46.4,61.3L46.4,61.3z"/>
<path class="st1" d="M58.6,94.1c-3.7,0-7.4-1.1-10.5-3.1c-2.2-1.5-4.1-3.4-5.6-5.6c-3.3-5.2-4-11.6-1.9-17.3
	c0.1-0.3,0.4-0.4,0.7-0.3s0.4,0.4,0.3,0.7c-2,5.4-1.4,11.5,1.8,16.3c1.4,2.1,3.2,3.9,5.3,5.3c8.4,5.5,19.7,3.1,25.1-5.3
	c3.9-6,3.9-13.8,0-19.8c-1.4-2.1-3.2-3.9-5.3-5.3c-4.8-3.2-10.9-3.8-16.3-1.8c-0.3,0.1-0.6,0-0.7-0.3c-0.1-0.3,0-0.6,0.3-0.7
	c5.8-2.2,12.2-1.5,17.4,1.8c8.9,5.8,11.4,17.7,5.6,26.6c-0.7,1.1-1.6,2.2-2.5,3.1C68.7,92.1,63.7,94.1,58.6,94.1L58.6,94.1z"/>
<path class="st1" d="M42.4,66.2c-0.3,0-0.5-0.2-0.5-0.5c0-0.1,0-0.2,0.1-0.3c0.6-1.1,1.3-2.1,2.2-3.1c0.2-0.2,0.5-0.3,0.8-0.1
	c0.2,0.2,0.3,0.5,0.1,0.8l0,0c-0.8,0.9-1.4,1.9-2,2.9C42.8,66.1,42.6,66.2,42.4,66.2L42.4,66.2z"/>
<path class="st1" d="M43,85.6c-0.3,0-0.5-0.2-0.5-0.5c0-0.1,0.1-0.3,0.2-0.4l25.9-25.9c0.2-0.2,0.6-0.2,0.8,0c0.2,0.2,0.2,0.6,0,0.8
	l0,0l-26,25.9C43.3,85.6,43.1,85.6,43,85.6L43,85.6z"/>
<path class="st1" d="M48.4,91.1c-0.3,0-0.5-0.2-0.5-0.5c0-0.1,0.1-0.3,0.2-0.4L74,64.3c0.2-0.2,0.6-0.2,0.8,0s0.2,0.6,0,0.8l0,0
	l-26,25.8C48.7,91,48.6,91.1,48.4,91.1L48.4,91.1z"/>
<path class="st2" d="M68.4,65.7c-0.3,0-0.5-0.2-0.5-0.5c0-0.1,0.1-0.3,0.2-0.4l1.1-1.1c0.2-0.2,0.6-0.2,0.8,0c0.2,0.2,0.2,0.5,0,0.8
	l-1.1,1.1C68.7,65.6,68.6,65.7,68.4,65.7L68.4,65.7z"/>
<path class="st2" d="M64.3,69.8c-0.3,0-0.5-0.2-0.5-0.5c0-0.1,0.1-0.3,0.2-0.4l1.1-1.1c0.2-0.2,0.6-0.2,0.8,0s0.2,0.6,0,0.8l0,0
	l-1.1,1.1C64.6,69.7,64.4,69.8,64.3,69.8z"/>
<path class="st2" d="M60.2,73.9c-0.3,0-0.5-0.2-0.5-0.6c0-0.1,0.1-0.3,0.2-0.4l1.1-1.1c0.2-0.2,0.6-0.2,0.8,0c0.2,0.2,0.2,0.6,0,0.8
	l0,0l-1.2,1.2C60.4,73.9,60.3,73.9,60.2,73.9L60.2,73.9z"/>
<path class="st2" d="M56,78c-0.3,0-0.5-0.2-0.5-0.5c0-0.1,0.1-0.3,0.2-0.4l1.1-1.1c0.2-0.2,0.6-0.2,0.8,0s0.2,0.6,0,0.8l-1.1,1.1
	C56.3,78,56.2,78,56,78z"/>
<path class="st2" d="M51.9,82.2c-0.3,0-0.5-0.2-0.5-0.5c0-0.1,0.1-0.3,0.2-0.4l1.1-1.1c0.2-0.2,0.6-0.2,0.8,0s0.2,0.5,0,0.8
	l-1.1,1.1C52.2,82.1,52,82.2,51.9,82.2L51.9,82.2z"/>
<path class="st3" d="M47.8,86.3c-0.3,0-0.5-0.2-0.5-0.5c0-0.1,0.1-0.3,0.2-0.4l1.1-1.1c0.2-0.2,0.6-0.2,0.8,0s0.2,0.5,0,0.8
	l-1.1,1.1C48.1,86.3,47.9,86.3,47.8,86.3L47.8,86.3z"/>
<path class="st4" d="M39.1,94.1c0.3,0.2,1.7,1,1.8,1.1"/>
<path class="st4" d="M44.6,97.5L44.6,97.5"/>
</svg>
