<svg id="bate-de-cricket" xmlns="http://www.w3.org/2000/svg" width="46.488" height="46.487" viewBox="0 0 46.488 46.487">
  <path id="Trazado_1960" data-name="Trazado 1960" d="M356.758,52.2l1.589-1.589,2.289,2.289-1.589,1.589Zm0,0" transform="translate(-319.399 -45.359)" fill="#050c42"/>
  <path id="Trazado_1961" data-name="Trazado 1961" d="M381.832,27.128l1.589-1.589,2.289,2.289-1.589,1.589Zm0,0" transform="translate(-341.848 -22.914)" fill="#050c42"/>
  <path id="Trazado_1962" data-name="Trazado 1962" d="M406.9,2.057,408.491.469l2.289,2.289-1.589,1.589Zm0,0" transform="translate(-364.292 -0.469)" fill="#050c42"/>
  <path id="Trazado_1963" data-name="Trazado 1963" d="M248.525,136.954l-2.1-2.1-5.035,7.138Zm0,0" transform="translate(-216.11 -120.78)" fill="#050c42"/>
  <path id="Trazado_1964" data-name="Trazado 1964" d="M331.688,77.272l1.589-1.589,2.289,2.289-1.589,1.589Zm0,0" transform="translate(-296.954 -67.807)" fill="#050c42"/>
  <path id="Trazado_1965" data-name="Trazado 1965" d="M4.2,143.152a2.983,2.983,0,0,0,4.214,0L35.134,116.43l-1.666-1.667-10.813,7.628a.733.733,0,0,1-1.021-1.022l7.628-10.812-1.667-1.666L.871,135.612a2.983,2.983,0,0,0,0,4.214Zm0,0" transform="translate(0 -97.536)" fill="#050c42"/>
  <path id="Trazado_1966" data-name="Trazado 1966" d="M306.617,102.347l1.589-1.589,2.289,2.289-1.589,1.589Zm0,0" transform="translate(-274.509 -90.256)" fill="#050c42"/>
</svg>
