<?xml version="1.0" encoding="utf-8"?>
<!-- Generator: Adobe Illustrator 25.4.1, SVG Export Plug-In . SVG Version: 6.00 Build 0)  -->
<svg version="1.1" id="Icons" xmlns="http://www.w3.org/2000/svg" xmlns:xlink="http://www.w3.org/1999/xlink" x="0px" y="0px"
	 viewBox="0 0 485.3 485.2" style="enable-background:new 0 0 485.3 485.2;" xml:space="preserve">
<style type="text/css">
	.st0{fill:#FF3737;stroke:#FF3737;stroke-miterlimit:10;}
</style>
<path class="st0" d="M89,71.5c-3.8,0-6.9-3.1-6.9-6.9c0-2,0.9-3.9,2.4-5.2c11.9-10.3,24.7-19.4,38.4-27.1c3.3-1.9,7.5-0.8,9.5,2.5
	c1.9,3.3,0.8,7.5-2.5,9.5c-0.1,0-0.1,0.1-0.2,0.1c-12.9,7.3-25,15.8-36.2,25.5C92.3,70.9,90.6,71.5,89,71.5L89,71.5z"/>
<path class="st0" d="M242.2,484.7c-46.8,0.1-92.7-13.5-131.9-39.1c-28.1-18.4-52.1-42.4-70.5-70.5c-42.1-64.8-50.9-145.7-23.7-218
	c1.4-3.6,5.3-5.4,8.9-4s5.4,5.3,4,8.9C3.4,230.2,11.7,306.4,51.4,367.5c17.4,26.5,40,49.1,66.5,66.5
	c105.7,68.9,247.2,39.1,316.1-66.6c49.4-75.8,49.4-173.7,0-249.5c-17.4-26.5-40-49.1-66.5-66.5C306.5,11.7,230.2,3.4,162,29
	c-3.6,1.4-7.6-0.5-8.9-4c-1.4-3.6,0.5-7.6,4-8.9C229.4-11.1,310.3-2.3,375,39.8c112,73.1,143.6,223.1,70.5,335.1
	c-9.2,14-19.8,27.1-31.6,39C368.3,459.3,306.5,484.8,242.2,484.7L242.2,484.7z"/>
<path class="st0" d="M38.2,133.2c-3.8,0-6.9-3.1-6.9-6.9c0-1.2,0.3-2.4,0.9-3.4c7.7-13.7,16.8-26.5,27.1-38.4
	c2.5-2.9,6.8-3.3,9.7-0.8c2.9,2.5,3.3,6.8,0.8,9.7l-0.1,0.1c-9.7,11.2-18.2,23.3-25.5,36.2C43,131.9,40.7,133.2,38.2,133.2
	L38.2,133.2z"/>
<path class="st0" d="M45.6,378.2c-3.8,0-6.9-3.1-6.9-6.9c0-1.8,0.7-3.6,2-4.9L366.3,40.7c2.7-2.7,7-2.8,9.8-0.2
	c2.7,2.7,2.8,7,0.2,9.8c-0.1,0.1-0.1,0.1-0.2,0.2L50.5,376.2C49.2,377.5,47.4,378.2,45.6,378.2L45.6,378.2z"/>
<path class="st0" d="M114.1,446.6c-3.8,0-6.9-3.1-6.9-6.9c0-1.8,0.7-3.6,2-4.9l325.6-325.6c2.7-2.7,7.1-2.7,9.8,0s2.7,7.1,0,9.8l0,0
	L119,444.6C117.7,445.9,115.9,446.7,114.1,446.6L114.1,446.6z"/>
<path class="st0" d="M365.4,126.8c-3.8,0-6.9-3.1-6.9-6.9c0-1.8,0.7-3.6,2-4.9l14.2-14.2c2.7-2.7,7.1-2.6,9.8,0.2
	c2.6,2.7,2.6,6.9,0,9.6l-14.2,14.2C369,126.1,367.2,126.8,365.4,126.8L365.4,126.8z"/>
<path class="st0" d="M313.5,178.8c-3.8,0-6.9-3.1-6.9-6.9c0-1.8,0.7-3.6,2-4.9l14.2-14.2c2.7-2.7,7.1-2.7,9.8,0s2.7,7.1,0,9.8l0,0
	l-14.2,14.2C317,178.1,315.3,178.8,313.5,178.8z"/>
<path class="st0" d="M261.5,230.7c-3.8,0-6.9-3.1-6.9-7c0-1.8,0.7-3.6,2-4.8l14.2-14.2c2.7-2.7,7-2.8,9.8-0.2c2.7,2.7,2.8,7,0.2,9.8
	c-0.1,0.1-0.1,0.1-0.2,0.2l-14.2,14.2C265.1,230,263.3,230.7,261.5,230.7L261.5,230.7z"/>
<path class="st0" d="M209.6,282.7c-3.8,0-6.9-3.1-6.9-6.9c0-1.8,0.7-3.6,2-4.9l14.2-14.2c2.7-2.7,7.1-2.7,9.8,0s2.7,7.1,0,9.8
	l-14.3,14.2C213.1,281.9,211.4,282.7,209.6,282.7z"/>
<path class="st0" d="M157.6,334.6c-3.8,0-6.9-3.1-6.9-6.9c0-1.8,0.7-3.6,2-4.9l14.2-14.2c2.7-2.7,7.1-2.6,9.8,0.2
	c2.6,2.7,2.6,6.9,0,9.6l-14.2,14.2C161.2,333.9,159.4,334.6,157.6,334.6L157.6,334.6z"/>
<path class="st0" d="M105.7,386.6c-3.8,0-6.9-3.1-6.9-6.9c0-1.8,0.7-3.6,2-4.9l14.2-14.2c2.7-2.7,7.1-2.6,9.8,0.2
	c2.6,2.7,2.6,6.9,0,9.6l-14.2,14.2C109.3,385.9,107.5,386.6,105.7,386.6L105.7,386.6z"/>
</svg>
