<svg id="Capa_1" data-name="Capa 1" xmlns="http://www.w3.org/2000/svg" viewBox="0 0 31.78 41.67"><defs><style>.cls-1{fill:#ff3737;}</style></defs><g id="Iconos"><path class="cls-1" d="M27.2,18.85a3.13,3.13,0,1,1,2.07-3.91h0A3.13,3.13,0,0,1,27.2,18.85Zm-1.64-5.36a2.48,2.48,0,1,0,3.09,1.66h0A2.49,2.49,0,0,0,25.56,13.49Z" transform="translate(-9.53 -5.99)"/><path class="cls-1" d="M34.71,7.34,32.61,8a.31.31,0,0,0-.21.4.32.32,0,0,0,.4.22h0l1.8-.55.84,2.73-4.56,2.3a.32.32,0,0,0-.14.43h0A5,5,0,1,1,24,11.41h0a4.89,4.89,0,0,1,.82-.34l1.27-.39.26.85a.31.31,0,0,0,.39.22h0l1.62-.5a.32.32,0,0,0,.22-.38v0l-.3-.85L30,9.45a.32.32,0,0,0,.21-.4.31.31,0,0,0-.39-.22h0l-2,.62a.33.33,0,0,0-.21.41h0l.26.86-1,.31-.26-.86a.31.31,0,0,0-.39-.22h0l-1.6.49a5.67,5.67,0,0,0-2.73,1.88l-.29-.16a1.31,1.31,0,0,0-1.23,2.32h0l.4.21h0a5.68,5.68,0,1,0,11-.5,5.4,5.4,0,0,0-.25-.67L36,11.24a.35.35,0,0,0,.17-.39l-1-3.3a.32.32,0,0,0-.38-.22h-.08ZM20.62,13.91a.66.66,0,0,1,.62-1.17h0l.23.12c-.08.12-.14.24-.21.36a6.24,6.24,0,0,0-.36.84Z" transform="translate(-9.53 -5.99)"/><path class="cls-1" d="M27.44,15.85a.33.33,0,0,1-.4-.21h0a.8.8,0,0,0-1-.52.32.32,0,0,1-.4-.21.33.33,0,0,1,.21-.41,1.44,1.44,0,0,1,1.79.95.33.33,0,0,1-.21.41Z" transform="translate(-9.53 -5.99)"/><path class="cls-1" d="M26.39,7.81A.33.33,0,0,1,26,7.6l-.37-1.23A.34.34,0,0,1,25.82,6a.34.34,0,0,1,.41.22l.37,1.23A.31.31,0,0,1,26.39,7.81Z" transform="translate(-9.53 -5.99)"/><path class="cls-1" d="M24.83,9.1a.36.36,0,0,1-.25,0l-1.13-.6a.33.33,0,0,1-.18-.42A.35.35,0,0,1,23.32,8a.32.32,0,0,1,.43-.13l1.14.6a.34.34,0,0,1,.13.44.38.38,0,0,1-.19.16Z" transform="translate(-9.53 -5.99)"/><path class="cls-1" d="M28.4,8a.33.33,0,0,1-.4-.21.36.36,0,0,1,0-.25l.6-1.14a.32.32,0,1,1,.57.31h0l-.6,1.13A.37.37,0,0,1,28.4,8Z" transform="translate(-9.53 -5.99)"/><path class="cls-1" d="M31.41,9a.33.33,0,0,1-.4-.21h0a.3.3,0,0,1,.19-.39h0a.32.32,0,0,1,.4.21.28.28,0,0,1,0,.25A.31.31,0,0,1,31.41,9Z" transform="translate(-9.53 -5.99)"/><path class="cls-1" d="M21.76,30.82a7.32,7.32,0,0,0-3.37-1.39h-.07a.56.56,0,0,0-.52.49.53.53,0,0,0,.38.62,9.21,9.21,0,0,1,2.94,1.2.5.5,0,0,0,.5,0,.73.73,0,0,0,.38-.51l-.06-.13A.84.84,0,0,0,21.76,30.82Z" transform="translate(-9.53 -5.99)"/><path class="cls-1" d="M21.57,36.13c-.68-.36-1.42-.71-2.2-1.05a4.18,4.18,0,0,0-.69-.2h-.21a.64.64,0,0,0-.68.52.57.57,0,0,0,.42.61A9.36,9.36,0,0,1,21,37.12a.6.6,0,0,0,.83-.12.05.05,0,0,1,0,0,.59.59,0,0,0,.07-.45A.6.6,0,0,0,21.57,36.13Z" transform="translate(-9.53 -5.99)"/><path class="cls-1" d="M40.3,26.63H37.19v-.35a1,1,0,0,1,0-.25V22.71A.91.91,0,0,0,37,22a.79.79,0,0,0-.65-.11A18,18,0,0,0,26.28,26l-.44.41-.46.44-.46-.44L24.48,26a17.92,17.92,0,0,0-10.07-4.13.77.77,0,0,0-.64.11.92.92,0,0,0-.19.68V26a1,1,0,0,1,0,.25v.35H10.46a.89.89,0,0,0-.93.42v17.8c.14.3.39.43.88.46l1.24.08c1.94.12,3.94.25,5.9.44a26.17,26.17,0,0,1,7.6,1.79c.2.09.2.06.27.06a.8.8,0,0,0,.28-.06,26.1,26.1,0,0,1,7.59-1.79c2-.19,4-.32,5.9-.44l1.24-.08a.84.84,0,0,0,.88-.46V27.05A.89.89,0,0,0,40.3,26.63ZM21.43,45.23a65.15,65.15,0,0,0-10.24-1.08h-.56V27.89h2.91V40.32c0,.86,0,.91.91,1.09a19.42,19.42,0,0,1,6.82,2.8,3.5,3.5,0,0,1,.49.37l1,.94Zm3.35.32L24.15,45a18.24,18.24,0,0,0-3.64-2.59,20.45,20.45,0,0,0-5.17-2,.73.73,0,0,1-.64-.8V23.08l.92.19c.35.06.68.12,1,.2a16.41,16.41,0,0,1,6.73,3.18c1.37,1.13,1.42,1.24,1.42,3Zm1.12,0V29.64c0-1.75.05-1.86,1.42-3a16.41,16.41,0,0,1,6.73-3.18c.33-.08.66-.14,1-.2l.93-.19V39.62a.73.73,0,0,1-.64.8,20.45,20.45,0,0,0-5.17,2A18.9,18.9,0,0,0,26.53,45Zm14.15-1.43h-.56A65.15,65.15,0,0,0,29.25,45.2l-1.35.29,1-.94a3.5,3.5,0,0,1,.49-.37,19.42,19.42,0,0,1,6.82-2.8c.87-.18.91-.23.91-1.09V27.89H40Z" transform="translate(-9.53 -5.99)"/><path class="cls-1" d="M29.06,31.76a.5.5,0,0,0,.5,0,9.44,9.44,0,0,1,2.94-1.2.54.54,0,0,0,.39-.62.57.57,0,0,0-.53-.49h-.07a7.32,7.32,0,0,0-3.37,1.39.92.92,0,0,0-.18.3l-.06.13A.75.75,0,0,0,29.06,31.76Z" transform="translate(-9.53 -5.99)"/><path class="cls-1" d="M32.89,35.36a.64.64,0,0,0-.68-.52H32a5.6,5.6,0,0,0-.7.2c-.78.34-1.52.69-2.2,1.05a.64.64,0,0,0-.32.38.59.59,0,0,0,.07.45.58.58,0,0,0,.81.18l0,0A9.23,9.23,0,0,1,32.47,36,.57.57,0,0,0,32.89,35.36Z" transform="translate(-9.53 -5.99)"/></g></svg>