<?xml version="1.0" encoding="utf-8"?>
<!-- Generator: Adobe Illustrator 25.4.1, SVG Export Plug-In . SVG Version: 6.00 Build 0)  -->
<svg version="1.1" id="Capa_1" xmlns="http://www.w3.org/2000/svg" xmlns:xlink="http://www.w3.org/1999/xlink" x="0px" y="0px"
	 viewBox="0 0 412.7 423.4" style="enable-background:new 0 0 412.7 423.4;" xml:space="preserve">
<style type="text/css">
	.st0{fill:none;}
	.st1{fill:#00E9C5;}
	.st2{fill:#00E9C5;stroke:#00E9C5;stroke-miterlimit:10;}
</style>
<g>
	<g>
		<line class="st0" x1="146.1" y1="212.5" x2="150.6" y2="207.8"/>
		<line class="st0" x1="200.6" y1="156.2" x2="205.2" y2="151.5"/>
	</g>
	<line class="st0" x1="173.3" y1="184.3" x2="177.9" y2="179.6"/>
</g>
<g>
	<path class="st1" d="M410.7,42.6c-2.9-7.5-8.9-15.9-17.5-24.2C374.1-0.1,356.8-5,346.8,5.3l0,0L119.5,239.8
		c-1.3,1.3-1.2,3.4,0.1,4.6c9.1,8.8,9.3,23.3,0.5,32.3L5.8,394.7l-0.3-0.3c-1.3-1.3-3.4-1.2-4.6,0.1c-1.3,1.3-1.2,3.4,0.1,4.6
		l2.7,2.6l0,0l0,0l18.7,18.2l0,0l0,0l2.7,2.6c0.6,0.6,1.5,0.9,2.3,0.9s1.7-0.3,2.3-1c1.3-1.3,1.2-3.4-0.1-4.6l-0.3-0.3l114.2-117.9
		l0,0l0,0c8.8-9,23.3-9.3,32.3-0.5c0.6,0.6,1.5,0.9,2.3,0.9s1.7-0.3,2.3-1L407.7,64.4l0,0C411.5,60.5,415,53.7,410.7,42.6z
		 M10.5,399.3l112-115.6l14.1,13.6l-52.3,54c0.4-0.4,0.6-0.8,0.8-1.3c0.5-1.7-0.4-3.6-2.1-4.1l-13.9-4.4c-1.7-0.5-3.6,0.4-4.1,2.1
		s0.4,3.6,2.1,4.1l13.9,4.4c0.3,0.1,0.7,0.2,1,0.1c0.9,0,1.7-0.4,2.3-1l-59.7,61.6L10.5,399.3z M141.3,292.8l-14.4-13.9
		c8.4-10.8,8.1-26.1-0.6-36.7L351.5,9.8l0,0c8.4-8.7,24.7,1.2,37.2,13.3s22.8,28.1,14.4,36.7l0,0L178,292.2
		C167.1,283.8,151.8,284,141.3,292.8z"/>
	<path class="st1" d="M211.8,210.3c0,0,0-0.1,0.1-0.1c0.1-0.1,0.1-0.2,0.2-0.3c0-0.1,0.1-0.2,0.1-0.3s0.1-0.2,0.1-0.3
		s0.1-0.2,0.1-0.3s0-0.2,0-0.3s0-0.2,0-0.3s0-0.2,0-0.3s0-0.2,0-0.3s0-0.2-0.1-0.3c0-0.1-0.1-0.2-0.1-0.3s-0.1-0.2-0.1-0.3
		c-0.1-0.1-0.1-0.2-0.2-0.3c0,0,0-0.1-0.1-0.1l-0.1-0.1c-0.1-0.1-0.2-0.2-0.2-0.3c-0.1-0.1-0.2-0.2-0.3-0.2l-0.1-0.1
		c0,0-0.1,0-0.1-0.1c-0.1-0.1-0.2-0.1-0.4-0.2c-0.1,0-0.1-0.1-0.2-0.1c-0.1-0.1-0.3-0.1-0.4-0.1s-0.1,0-0.2-0.1c-0.1,0-0.3,0-0.4,0
		s-0.2,0-0.2,0c-0.1,0-0.2,0-0.4,0c-0.1,0-0.2,0-0.3,0c-0.1,0-0.2,0.1-0.3,0.1c-0.1,0-0.2,0.1-0.3,0.1c-0.1,0-0.2,0.1-0.3,0.1
		c-0.1,0.1-0.2,0.1-0.3,0.2c0,0-0.1,0-0.1,0.1l-68.5,51.9c-1.4,1.1-1.7,3.1-0.6,4.6c0.7,0.9,1.7,1.3,2.7,1.3c0.7,0,1.3-0.2,1.9-0.7
		l51.6-39.1l-37.4,52.8c-1,1.5-0.7,3.5,0.8,4.6c0.6,0.4,1.3,0.6,1.9,0.6c1,0,2-0.5,2.6-1.4L211.8,210.3z"/>
	<path class="st1" d="M108,305.5l13.9,4.4c0.3,0.1,0.7,0.2,1,0.1c1.4,0,2.6-0.9,3.1-2.3c0.5-1.7-0.4-3.6-2.1-4.1l-13.9-4.4
		c-1.7-0.5-3.6,0.4-4.1,2.1C105.3,303.1,106.3,304.9,108,305.5z"/>
	<path class="st1" d="M94.4,319.6l13.9,4.4c0.3,0.1,0.7,0.2,1,0.1c1.4,0,2.6-0.9,3.1-2.3c0.5-1.7-0.4-3.6-2.1-4.1l-13.9-4.4
		c-1.7-0.5-3.6,0.4-4.1,2.1C91.7,317.2,92.6,319,94.4,319.6z"/>
	<path class="st1" d="M80.7,333.6l13.9,4.4c0.3,0.1,0.7,0.2,1,0.1c1.4,0,2.6-0.9,3.1-2.3c0.5-1.7-0.4-3.6-2.1-4.1l-13.9-4.4
		c-1.7-0.6-3.6,0.4-4.1,2.1C78,331.3,79,333.1,80.7,333.6z"/>
	<path class="st1" d="M69.3,360l-13.9-4.4c-1.7-0.5-3.6,0.4-4.1,2.1s0.4,3.6,2.1,4.1l13.9,4.4c0.3,0.1,0.7,0.2,1,0.1
		c1.4,0,2.6-0.9,3.1-2.3C72,362.3,71.1,360.5,69.3,360z"/>
	<path class="st1" d="M55.7,374l-13.9-4.4c-1.7-0.6-3.6,0.4-4.1,2.1s0.4,3.6,2.1,4.1l13.9,4.4c0.3,0.1,0.7,0.2,1,0.1
		c1.4,0,2.6-0.9,3.1-2.3C58.4,376.4,57.4,374.6,55.7,374z"/>
	<path class="st1" d="M42.1,388.1l-13.9-4.4c-1.7-0.6-3.6,0.4-4.1,2.1s0.4,3.6,2.1,4.1l13.9,4.4c0.3,0.1,0.7,0.2,1,0.1
		c1.4,0,2.6-0.9,3.1-2.3C44.7,390.5,43.8,388.7,42.1,388.1z"/>
	<path class="st1" d="M222.8,197.6c0.8,0,1.7-0.3,2.3-1L366,51.1c1.3-1.3,1.2-3.4-0.1-4.6c-1.3-1.3-3.4-1.2-4.6,0.1L220.4,192
		c-1.3,1.3-1.2,3.4,0.1,4.6C221.2,197.3,222,197.6,222.8,197.6z"/>
</g>
<path class="st2" d="M363.4,338.9c1.3-0.1,2.4,0.9,2.5,2.2c0,0.7-0.2,1.4-0.7,1.8c-3.8,3.8-8,7.2-12.5,10.1
	c-1.1,0.7-2.6,0.4-3.3-0.6c-0.7-1.1-0.4-2.6,0.6-3.3c0,0,0,0,0.1,0c4.2-2.8,8.2-6,11.8-9.5C362.3,339.2,362.9,338.9,363.4,338.9
	L363.4,338.9z"/>
<path class="st2" d="M301.8,201c16-1.1,32,2.6,46,10.4c10,5.7,18.8,13.3,25.7,22.5c15.8,21.2,20.7,48.7,13,74c-0.4,1.3-1.7,2-3,1.6
	s-2-1.7-1.6-3c7.3-23.9,2.7-49.8-12.2-69.8c-6.5-8.7-14.8-15.9-24.2-21.3c-37.7-21.2-85.4-7.9-106.6,29.8c-15.2,27-13,60.5,5.6,85.3
	c6.5,8.7,14.8,15.9,24.2,21.3c21.8,12.2,48,13.4,70.8,3.1c1.2-0.5,2.6,0,3.1,1.2s0,2.6-1.2,3.1c-24.1,10.9-52,9.7-75.1-3.3
	c-39.9-22.5-54.1-73.1-31.6-113.1c2.8-5,6.2-9.7,10-14C259.3,212.4,279.8,202.4,301.8,201"/>
<path class="st2" d="M379.4,316.6c1.3-0.1,2.4,0.9,2.5,2.2c0,0.4-0.1,0.8-0.2,1.2c-2.3,4.8-5.2,9.5-8.4,13.7
	c-0.8,1.1-2.3,1.3-3.3,0.5c-1.1-0.8-1.3-2.3-0.5-3.3c0,0,0,0,0-0.1c3.1-4,5.7-8.4,7.9-12.9C377.8,317.2,378.6,316.7,379.4,316.6
	L379.4,316.6z"/>
<path class="st2" d="M371.5,233c1.3-0.1,2.4,0.9,2.5,2.2c0,0.6-0.2,1.2-0.6,1.7L269.3,355.6c-0.8,1-2.3,1.1-3.3,0.3
	c-1-0.8-1.1-2.3-0.3-3.3c0,0,0,0,0.1-0.1l104-118.7C370.3,233.3,370.8,233.1,371.5,233L371.5,233z"/>
<path class="st2" d="M346.5,211.1c1.3-0.1,2.4,0.9,2.5,2.2c0,0.6-0.2,1.2-0.6,1.7L244.3,333.7c-0.9,1-2.4,1.1-3.3,0.2
	s-1.1-2.4-0.2-3.3l0,0l104.1-118.7C345.3,211.4,345.9,211.2,346.5,211.1L346.5,211.1z"/>
<path class="st2" d="M267.7,326.1c1.3-0.1,2.4,0.9,2.5,2.2c0,0.6-0.2,1.2-0.6,1.7l-4.5,5.2c-0.9,1-2.4,1-3.4,0.2
	c-0.9-0.9-1-2.3-0.2-3.3l4.5-5.2C266.4,326.4,267,326.1,267.7,326.1L267.7,326.1z"/>
<path class="st2" d="M284.3,307.2c1.3-0.1,2.4,0.9,2.5,2.2c0,0.6-0.2,1.2-0.6,1.7l-4.5,5.2c-0.9,1-2.4,1.1-3.3,0.2s-1.1-2.4-0.2-3.3
	l0,0l4.5-5.2C283.1,307.5,283.6,307.2,284.3,307.2z"/>
<path class="st2" d="M300.9,288.3c1.3-0.1,2.4,0.9,2.5,2.2c0,0.6-0.2,1.2-0.6,1.7l-4.5,5.2c-0.8,1-2.3,1.1-3.3,0.3s-1.1-2.3-0.3-3.3
	c0,0,0,0,0.1-0.1l4.6-5.2C299.7,288.6,300.3,288.3,300.9,288.3L300.9,288.3z"/>
<path class="st2" d="M317.5,269.3c1.3-0.1,2.4,0.9,2.5,2.2c0,0.6-0.2,1.2-0.6,1.7l-4.5,5.2c-0.9,1-2.4,1.1-3.3,0.2s-1.1-2.4-0.2-3.3
	l4.6-5.2C316.3,269.7,316.9,269.4,317.5,269.3z"/>
<path class="st2" d="M334.1,250.4c1.3-0.1,2.4,0.9,2.5,2.2c0,0.6-0.2,1.3-0.6,1.7l-4.5,5.2c-0.9,1-2.4,1-3.4,0.2
	c-0.9-0.9-1-2.3-0.2-3.3l4.5-5.2C332.9,250.7,333.5,250.4,334.1,250.4L334.1,250.4z"/>
<path class="st2" d="M350.7,231.5c1.3-0.1,2.4,0.9,2.5,2.2c0,0.6-0.2,1.2-0.6,1.7l-4.5,5.2c-0.9,1-2.4,1-3.4,0.2
	c-0.9-0.9-1-2.3-0.2-3.3l4.5-5.2C349.5,231.8,350.1,231.5,350.7,231.5L350.7,231.5z"/>
</svg>
