<?xml version="1.0" encoding="utf-8"?>
<!-- Generator: Adobe Illustrator 25.4.1, SVG Export Plug-In . SVG Version: 6.00 Build 0)  -->
<svg version="1.1" id="Capa_1" xmlns="http://www.w3.org/2000/svg" xmlns:xlink="http://www.w3.org/1999/xlink" x="0px" y="0px"
	 viewBox="0 0 266.8 455" style="enable-background:new 0 0 266.8 455;" xml:space="preserve">
<style type="text/css">
	.st0{fill:#FF3737;}
</style>
<g>
	<path class="st0" d="M266.8,187.3c0,36.8,0,154,0,190.8c0,4.2-0.8,8.1-2.3,12c-7.2,18.5-14.3,37.1-21.4,55.7
		c-0.4,1.1-0.9,2.3-1.3,3.4c-1.5,3.5-3.9,5.9-7.9,5.8c-4.2,0-6.7-2.4-8.2-6.2c-4.1-10.8-8.3-21.6-12.4-32.3
		c-2.6-6.8-4.9-13.8-7.9-20.4c-3.8-8.4-4.7-17-4.7-26.1c0.2-70.3,0.1-221.2,0.1-291.5c0-2.1,0-4.3,0.3-6.4c0.8-5,3.5-7.8,8.5-7.9
		c16.1-0.2,32.2-0.2,48.3,0c5.4,0.1,8.6,3.5,8.7,9.2c0.2,7.9,0.1,15.8,0.1,23.7C266.8,127.2,266.8,157.2,266.8,187.3z M233.3,422
		c0.4,0,0.9,0,1.3-0.1c5-13.3,10.1-26.6,15.1-39.9c0.3-0.7,0.2-1.5,0.2-2.3c0-34.3,0-149.1,0.1-183.4c0-3.1-1.1-4.4-4.3-4.3
		c-7.4,0.1-14.9,0.3-22.3-0.1c-4.7-0.2-5.9,1.4-5.9,6c0.2,26.4,0.6,133.3-0.1,159.7c-0.4,15.6,1.3,30.4,8.1,44.6
		C228.7,408.5,230.8,415.4,233.3,422z M250,112.4c0-9-0.1-17.9,0-26.9c0.1-3.3-1-4.7-4.4-4.6c-7.9,0.2-15.8,0.2-23.7,0
		c-3.5-0.1-4.4,1.4-4.3,4.6c0.1,17.8,0.1,35.5,0,53.3c0,3.8,1.4,4.6,4.8,4.6c7.6-0.2,15.2-0.2,22.8,0c3.9,0.1,4.9-1.4,4.9-5.1
		C249.9,129.7,250,121,250,112.4z M233.8,175.2L233.8,175.2c4.2,0,8.5,0,12.7,0c1.4,0,3.1,0,3.3-1.7c0.4-3.9,0.5-7.9-0.1-11.8
		c-0.2-1.5-1.6-1.7-2.9-1.7c-8.6,0-17.3,0-25.9,0c-2.3,0-3.6,1.2-3.2,3.4c0.8,3.9-2.4,8.5,2,11.6c0.6,0.4,1.8,0.2,2.7,0.2
		C226.2,175.3,230,175.2,233.8,175.2z"/>
	<path class="st0" d="M0.2,187.3c0-37.5,0-75.1,0-112.6c0-7.4,3.2-10.6,10.5-10.6c14.7,0,29.5,0,44.2,0c8.1,0,11.1,3,11.1,11.6
		c0.1,19.6,0,39.2,0,58.8c0,54.1,0,188.6,0,242.7c0,4.3-0.7,8.4-2.3,12.4c-7.5,19.3-14.8,38.6-22.1,57.9c-1.6,4.1-3.8,7.4-8.7,7.4
		c-5,0.1-7-3.4-8.6-7.5c-7.6-20-15.3-40-23-60c-1.1-2.8-1.3-5.6-1.3-8.5C0.2,342,0.2,224.4,0.2,187.3z M32.4,421.9
		c1.7-0.1,1.8-1.2,2.1-2c4.7-12.2,9.3-24.4,14-36.6c0.7-1.7,0.8-3.5,0.8-5.4c0-33.6-0.1-147.6,0.1-181.1c0-3.9-1.5-5-5.1-4.9
		c-7.1,0.2-14.3,0-21.4,0c-5.8,0-5.9,0.1-5.9,5.8c0,33.1,0,146.7,0,179.8c0,1.8,0,3.7,0.6,5.4C22.4,395.9,27.3,408.7,32.4,421.9z
		 M17,111.8c0,9.1,0.1,18.2,0,27.3c0,3.2,1.1,4.3,4.3,4.2c8-0.1,16.1-0.1,24.1,0c2.9,0,4-1,4-4c-0.1-18.1-0.1-36.1,0-54.2
		c0-3.2-1.1-4.3-4.2-4.3c-7.9,0.1-15.8,0.1-23.7,0c-3.4-0.1-4.6,1.1-4.5,4.5C17.1,94.2,17,103,17,111.8z M33.2,175.2
		c1.8,0,3.6,0,5.5,0c12.3-0.3,10.3,2.3,10.7-10.9c0.1-3.5-1.5-4.4-4.7-4.4c-5.6,0.1-11.2-0.1-16.8,0c-12.4,0.2-10.8-2.3-10.9,11.7
		c0,2.5,1,3.6,3.5,3.5C24.7,175.2,29,175.2,33.2,175.2z"/>
	<path class="st0" d="M166.4,187.4c0,36.8,0,154,0,190.8c0,3.7-0.5,7.2-1.9,10.7c-7.5,19.6-15.1,39.1-22.5,58.7
		c-1.6,4.1-3.8,7.5-8.7,7.4c-4.8,0-7-3.4-8.6-7.5c-7.4-19.6-15-39.1-22.5-58.7c-1.2-3.2-1.8-6.4-1.8-9.8c0-73.8,0-228.1,0-302
		c0-1.4,0-2.7,0.1-4.1c0.6-5.6,3.6-8.7,9.2-8.7c15.6-0.1,31.3-0.1,46.9,0c6,0,9.3,3.3,9.6,9.3c0.2,3.6,0.1,7.3,0.1,10.9
		C166.4,118.7,166.4,153,166.4,187.4z M133.1,422.8c0.9-1.4,1.3-1.9,1.5-2.4c4.8-12.5,9.6-24.9,14.3-37.4c0.5-1.2,0.6-2.7,0.6-4
		c0-34,0-148.5,0.1-182.5c0-3.3-1.1-4.6-4.5-4.6c-7.3,0.1-14.6,0-21.9,0c-6,0-6,0-6,6.1c0,32.8,0,146,0,178.8c0,1.7-0.2,3.5,0.3,5
		C122.6,395.2,127.7,408.5,133.1,422.8z M149.6,112.2c0-9-0.1-17.9,0.1-26.9c0.1-3.4-1.2-4.5-4.5-4.5c-7.9,0.2-15.8,0.1-23.7,0
		c-3.2-0.1-4.2,1.2-4.2,4.3c0.1,18.1,0.1,36.1,0,54.2c0,3,1.1,4,4,4c8-0.1,16.1-0.1,24.1,0c3.2,0.1,4.3-1.2,4.2-4.3
		C149.6,130.1,149.7,121.2,149.6,112.2z M133.4,175.2c4.2,0,8.5,0,12.7,0c1.4,0,3.2,0,3.3-1.7c0.2-3.9,0.1-7.9-0.1-11.8
		c-0.1-1.4-1.6-1.7-2.8-1.7c-8.6,0-17.3,0-25.9,0c-2.3,0-3.6,1.2-3.2,3.4c0.8,3.9-2.4,8.5,2,11.7c0.6,0.4,1.8,0.2,2.7,0.2
		C125.9,175.3,129.7,175.2,133.4,175.2z"/>
	<path class="st0" d="M69.2,0.2c11.7,0,23.4,0,35.1,0c7.8,0,10.7,2.9,11,10.6c0.2,6.1,0.2,6.1,6.2,6.1c8.4,0,16.7-0.1,25.1,0
		c3.6,0.1,5.1-1.1,5.2-4.9c0.1-9.5,2.7-11.8,12-11.8c23.1,0,46.2,0,69.3,0c8.2,0,11.2,2.7,10.9,10.9c-0.2,4.6,1.3,6.4,6,5.9
		c3.3-0.3,6.7-0.2,10,0.5c4.1,0.9,7,4.6,6.7,8.5c-0.3,4-3.5,7.3-7.8,7.5c-3.2,0.2-6.4,0.3-9.6,0c-3.9-0.3-5.8,0.9-5.2,5
		c0.1,0.6,0,1.2,0,1.8c-0.1,7.2-3.1,10.3-10.3,10.4c-13.2,0.1-26.4,0-39.7,0c-10.3,0-20.7,0-31,0c-8.3,0-11.3-3-11.5-11.2
		c-0.1-6-0.1-6-6.1-6c-8.5,0-17,0.1-25.5-0.1c-3.2-0.1-4.6,0.8-4.7,4.3c-0.3,10.9-2.5,13-13.3,13c-22.3,0-44.7,0-67,0
		c-9.3,0-12.1-2.6-11.9-11.9c0.1-4.2-1.2-5.8-5.4-5.4c-3,0.3-6.1,0.2-9.1,0C4,33.2,0.7,30,0.5,25.7c-0.2-3.9,2.6-7.5,6.8-8.5
		c3.1-0.7,6.4-0.5,9.5-0.5c6.1-0.1,6.1-0.1,6.2-6c0-1.4,0-2.8,0.3-4.1c1-4.3,4.1-6.6,9.1-6.6C44.6,0.2,56.9,0.2,69.2,0.2z
		 M69.4,16.9c-5.9,0-11.8,0-17.8,0C37.1,17,40.2,15.3,39.6,29c-0.2,3.7,1.2,5.1,5,5c16.4-0.2,32.8-0.1,49.2,0c3.4,0,5.1-0.9,4.8-4.6
		c-0.2-2.6-0.2-5.2,0-7.7c0.3-3.5-1-4.9-4.7-4.8C85.7,17.1,77.5,17,69.4,16.9z M198.2,34c5.8,0,11.5,0,17.3,0
		c11.8,0,11.6,0,11.8-11.8c0.1-4.3-1.6-5.4-5.6-5.4c-13.7,0.2-27.3,0-41,0.1c-15,0.1-11.9-2.4-12.4,12.9c-0.1,3.3,1.3,4.2,4.3,4.2
		C181.2,33.9,189.7,34,198.2,34z"/>
</g>
</svg>
