<?xml version="1.0" encoding="utf-8"?>
<!-- Generator: Adobe Illustrator 25.4.1, SVG Export Plug-In . SVG Version: 6.00 Build 0)  -->
<svg version="1.1" id="Capa_1" xmlns="http://www.w3.org/2000/svg" xmlns:xlink="http://www.w3.org/1999/xlink" x="0px" y="0px"
	 viewBox="0 0 353.9 455" style="enable-background:new 0 0 353.9 455;" xml:space="preserve">
<style type="text/css">
	.st0{fill:none;stroke:#00E9C5;stroke-width:7;stroke-miterlimit:10;}
	.st1{fill:none;stroke:#00E9C5;stroke-width:7;stroke-linecap:round;stroke-linejoin:round;stroke-miterlimit:10;}
	.st2{fill:none;stroke:#00E9C5;stroke-width:8;stroke-linecap:round;stroke-linejoin:round;stroke-miterlimit:10;}
</style>
<g>
	<path class="st0" d="M164.5,113.4c18.9,0.1,33.7,15.2,33.6,34.1c-0.1,18.8-15.2,33.5-34.3,33.4c-18.6-0.1-33.7-15.4-33.4-33.9
		C130.6,128.1,145.7,113.2,164.5,113.4z"/>
	<path class="st1" d="M23.5,177.6c-5.5,2.7-8.6,8.3-8.3,14.1"/>
	<path class="st1" d="M60.2,196.7c11.1-3.8,21.5-5.6,32.4-4.7c2.5,0.2,3.3,1.2,3.2,3.9c-0.3,12.1-5.8,11.5-13.7,9.2
		c-2.7-0.8-5.4-1.5-8.1-2.4c-0.4-0.1-0.8-0.2-1.2-0.4c-4.5-1.5-9-3-14.8-5l-22-7.8c-8.6-3.1-18,1.8-20.5,10.6l0,0
		c-2.2,7.9,2,16.2,9.7,19c2.4,0.9,4.4,1.6,5.5,2c13.3,5,26.7,9.6,40.4,13.6c7.6,2.3,15.3,4.7,23.5,2.7c4.3-1,5.3,0.9,5.8,4.6
		c0.7,6.1,1.8,12.1,2.7,18.1c1.3,8,4.4,16.3,3.4,24s-5.5,15.3-9.5,22.4c-10.9,19.6-15.6,28.1-15.4,58.8c0,14,3,69.5,3.2,70.7
		c1.3,7.3,5.6,12.3,12.6,14.6c12,3.8,23.5-5,23.7-18.5c0.2-17.3,0.1-67.4,0.1-84.7c0-2.5,0-5.1,1.1-7.5c4.2-9.1,8.3-18.2,12.3-27.4
		c1.1-2.6,2.7-3.4,5.6-3c4,0.7,8.2,0.8,12.2-0.2c3.9-0.9,5.7,0.2,6.3,4.2c0.9,6.2,2.6,12.3,3.3,18.5c1.4,11.3,5.4,21.5,10.9,31.5
		c8.5,15.3,36.1,60.8,44.3,76.2c4.6,8.6,11.5,12.6,19.2,11.6c13.4-1.7,20.3-14.9,13.8-27.6c-8.9-17.4-37.9-64.5-47-81.7
		c-1.4-2.7-3-5.3-3.6-8.4c-8-42.7-15.8-85.4-21.5-128.4c-1.3-9.7-1.3-9.7-11.2-9.2c-0.3,0-0.7,0-1,0c-22.2,0-38.3-9.7-47.9-29.9
		c-0.9-2-1.5-4.3-4.2-4.6c-12-1-23.9-2.9-36-1.7c-0.4,0-0.8,0.1-1.2,0.2c-6.3,0.7-12.5,2.2-18.7,3.8c-0.4,0.1-0.8,0.3-1.2,0.3
		c-0.9,0.3-2.2,0.6-3.9,1.2"/>
</g>
<polyline class="st2" points="196.4,303.5 269.1,303.2 269.1,325.7 349.9,265.4 269.1,205.2 269.1,227.7 184.4,227.3 "/>
<g>
	<path class="st0" d="M36.2,186.9l25.6-35.3l0,0l0,0c3.4-4.6,9.8-5.6,14.5-2.3c0.3,0.2,0.7,0.3,1.1,0.3c0.4-0.1,0.7-0.3,1-0.6
		l87-119.7l0,0c1.4-1.9,2.5-5.2-0.1-9.9c-1.8-3.2-5-6.6-9.4-9.7c-9.7-7.1-17.8-8.2-21.7-2.9l0,0l-87,119.7c-0.5,0.7-0.3,1.6,0.3,2.1
		c4.6,3.4,5.6,9.9,2.3,14.5L6.1,203.3l-0.2-0.1c-0.7-0.5-1.6-0.3-2.1,0.3s-0.3,1.6,0.3,2.1l1.4,1l0,0l0,0l9.6,7l0,0l0,0l1.4,1
		c0.3,0.2,0.7,0.3,1.1,0.3c0.4-0.1,0.7-0.3,1-0.6"/>
	<line class="st0" x1="49.9" y1="143" x2="61.8" y2="151.7"/>
</g>
</svg>
