<?xml version="1.0" encoding="utf-8"?>
<!-- Generator: Adobe Illustrator 25.4.1, SVG Export Plug-In . SVG Version: 6.00 Build 0)  -->
<svg version="1.1" id="Capa_1" xmlns="http://www.w3.org/2000/svg" xmlns:xlink="http://www.w3.org/1999/xlink" x="0px" y="0px"
	 viewBox="0 0 459.2 459.2" style="enable-background:new 0 0 459.2 459.2;" xml:space="preserve">
<style type="text/css">
	.st0{display:none;fill:none;stroke:#00E9C5;stroke-width:7;stroke-linecap:round;stroke-linejoin:round;stroke-miterlimit:10;}
	.st1{fill:none;stroke:#00E9C5;stroke-width:30;stroke-linecap:round;stroke-linejoin:round;stroke-miterlimit:10;}
	.st2{enable-background:new    ;}
	.st3{fill:#00E9C5;}
</style>
<polyline class="st0" points="241.1,277.2 299.9,277 299.9,291.1 365.2,253.3 299.9,215.6 299.9,229.7 189.8,229.5 "/>
<circle class="st1" cx="229.6" cy="229.6" r="214.6"/>
<g class="st2">
	<path class="st3" d="M181.8,314.5c-12.6,0-19.6-2.8-19.6-16.5v-75.6c0-6.4,1.2-21.4-8.3-21.4c-13.2,0-24.5,7-34.3,14.7V298
		c0,18.4-12.6,16.5-26.6,16.5c-12.6,0-19.6-2.8-19.6-16.5V184.1c0-11.3,5.8-16.2,16.8-16.2h13.8c5.5,0,9.8,2.1,12.9,6.7
		c12.6-7.3,26-11.3,40.7-11.3c28.8,0,50.8,13.5,50.8,44.1V298C208.5,316.4,195.9,314.5,181.8,314.5z"/>
	<path class="st3" d="M316.2,318.5c-16.5,0-33.4-0.9-49.6-3.7c-9.8-1.8-17.8-5.5-17.8-16.8V120.4c0-19.9,16.2-16.5,30.6-16.5
		c9.8,0,15.6,7,15.6,16.5v45.3c11.3-1.5,23-2.4,34.3-2.4c49.3,0,58.8,31.2,58.8,74.7C388.2,290.4,372,318.5,316.2,318.5z
		 M338.6,210.1c-2.1-8.9-6.7-8.9-15.3-8.9c-9.2,0-19,1.5-28.2,3.4v73.8c7,1.2,14.4,2.1,21.7,2.1c8,0,18.1-0.9,21.1-9.8
		c2.8-8.3,3.4-24.5,3.4-33.4C341.4,228.2,340.7,219,338.6,210.1z"/>
</g>
</svg>
