<?xml version="1.0" encoding="utf-8"?>
<!-- Generator: Adobe Illustrator 25.4.1, SVG Export Plug-In . SVG Version: 6.00 Build 0)  -->
<svg version="1.1" id="Capa_1" xmlns="http://www.w3.org/2000/svg" xmlns:xlink="http://www.w3.org/1999/xlink" x="0px" y="0px"
	 viewBox="0 0 362.8 440.1" style="enable-background:new 0 0 362.8 440.1;" xml:space="preserve">
<style type="text/css">
	.st0{fill:none;stroke:#00E9C5;stroke-width:9.6331;stroke-linecap:round;stroke-linejoin:round;stroke-miterlimit:10;}
	.st1{enable-background:new    ;}
	.st2{fill:#00E9C5;}
</style>
<g>
	<path class="st0" d="M271.7,104.8c18.4,0.1,32.9,14.8,32.8,33.3c-0.1,18.3-14.9,32.7-33.5,32.6c-18.1-0.1-32.9-15.1-32.6-33.1
		C238.6,119.2,253.3,104.7,271.7,104.8z"/>
	<path class="st0" d="M134,167.5c-5.3,2.6-8.4,8.1-8.1,13.8"/>
	<path class="st0" d="M169.8,186.2c10.9-3.7,21-5.5,31.6-4.6c2.5,0.2,3.2,1.2,3.2,3.8c-0.3,11.8-5.6,11.2-13.3,9
		c-2.6-0.8-5.3-1.5-7.9-2.3c-0.4-0.1-0.8-0.2-1.1-0.3c-4.4-1.4-8.8-3-14.4-4.9l-21.5-7.6c-8.4-3-17.6,1.8-20,10.4l0,0
		c-2.1,7.7,2,15.8,9.5,18.6c2.3,0.9,4.3,1.6,5.3,2c13,4.8,26.1,9.4,39.4,13.3c7.5,2.2,15,4.6,22.9,2.7c4.1-1,5.2,0.9,5.6,4.5
		c0.7,5.9,1.7,11.8,2.7,17.7c1.3,7.8,4.3,15.9,3.4,23.4c-1,7.6-5.4,14.9-9.3,21.8c-10.7,19.1-15.2,27.4-15,57.4
		c0,13.7,3,67.9,3.2,69c1.3,7.2,5.4,12,12.3,14.2c11.8,3.7,23-4.9,23.1-18c0.2-16.9,0.1-65.8,0.1-82.7c0-2.5,0-4.9,1.1-7.3
		c4.1-8.9,8.1-17.8,12-26.7c1.1-2.5,2.6-3.4,5.4-2.9c3.9,0.7,8,0.8,11.9-0.2c3.8-0.9,5.5,0.2,6.1,4.1c0.9,6.1,2.5,12,3.3,18.1
		c1.3,11.1,5.3,21,10.7,30.7c8.3,14.9,35.2,59.4,43.3,74.4c4.5,8.4,11.2,12.3,18.7,11.3c13.1-1.7,19.8-14.6,13.5-26.9
		c-8.6-17-37-62.9-45.9-79.8c-1.4-2.6-2.9-5.2-3.5-8.2c-7.8-41.7-15.4-83.3-21-125.4c-1.3-9.4-1.2-9.4-10.9-8.9c-0.3,0-0.7,0-1,0
		c-21.7,0-37.4-9.5-46.8-29.2c-0.9-1.9-1.5-4.2-4.1-4.5c-11.7-1-23.4-2.8-35.2-1.6c-0.4,0-0.8,0.1-1.2,0.2
		c-6.2,0.7-12.2,2.2-18.3,3.7c-0.4,0.1-0.8,0.3-1.2,0.3c-0.9,0.2-2.2,0.6-3.8,1.2"/>
</g>
<g>
	<path class="st0" d="M144.1,178.7l24.3-33.4l0,0l0,0c3.2-4.4,9.3-5.3,13.7-2.2c0.3,0.2,0.7,0.3,1,0.3c0.4-0.1,0.7-0.2,0.9-0.6
		l82.5-113.5l0,0c1.3-1.8,2.4-5-0.1-9.4c-1.7-3-4.8-6.2-8.9-9.2C248.3,4,240.6,2.9,237,7.9l0,0l-82.5,113.5c-0.5,0.6-0.3,1.5,0.3,2
		c4.4,3.2,5.4,9.3,2.2,13.7l-41.5,57.1l-0.2-0.1c-0.6-0.5-1.5-0.3-2,0.3s-0.3,1.5,0.3,2l1.3,0.9l0,0l0,0l9.1,6.6l0,0l0,0l1.3,0.9
		c0.3,0.2,0.7,0.3,1,0.3c0.4-0.1,0.7-0.2,0.9-0.6"/>
	<line class="st0" x1="157.1" y1="137" x2="168.4" y2="145.2"/>
</g>
<g class="st1">
	<path class="st2" d="M64.8,335.8c-3.9,0-6.2-0.3-8.8-3.4c-4.4-5.3-8.4-11.2-12.5-16.7c-7.7-10.6-15.2-21.3-22.8-32.1v44.9
		c0,8.2-6.7,7.3-12.7,7.3C3,335.8,0,334,0,328.5v-75.9c0-7.5,6.2-6.9,11.6-6.9c3.8,0,5.5,0.3,8.1,3.4c4.4,5.4,8.4,11.3,12.4,16.8
		c7.8,10.8,15.5,21.6,23.3,32.3v-45.7c0-8.2,7.8-6.9,13.5-6.9c4.6,0,7.3,2.2,7.3,6.9v75.9C76.1,336.2,70.6,335.8,64.8,335.8z"/>
	<path class="st2" d="M133.3,338.6c-30.3,0-40-20.5-40-47.7c0-27.4,9.6-47.7,40-47.7s40.2,20.3,40.2,47.7
		C173.4,318.1,163.6,338.6,133.3,338.6z M148.8,268.9c-3-6.1-9.3-7.4-15.5-7.4c-6.2,0-12.4,1.3-15.4,7.4c-2.6,5.3-2.8,16-2.8,22
		c0,5.9,0.3,16.6,2.8,21.8c3,6.1,9.2,7.5,15.4,7.5c6.2,0,12.5-1.5,15.5-7.5c2.6-5.3,2.8-15.9,2.8-21.8
		C151.6,285,151.3,274.2,148.8,268.9z"/>
</g>
</svg>
