<?xml version="1.0" encoding="utf-8"?>
<!-- Generator: Adobe Illustrator 25.4.1, SVG Export Plug-In . SVG Version: 6.00 Build 0)  -->
<svg version="1.1" id="Capa_1" xmlns="http://www.w3.org/2000/svg" xmlns:xlink="http://www.w3.org/1999/xlink" x="0px" y="0px"
	 viewBox="0 0 324.2 440.1" style="enable-background:new 0 0 324.2 440.1;" xml:space="preserve">
<style type="text/css">
	.st0{fill:none;stroke:#FF3737;stroke-width:9.6331;stroke-linecap:round;stroke-linejoin:round;stroke-miterlimit:10;}
</style>
<path class="st0" d="M267,160.6c29.5,0.2,52.5,23.7,52.3,53.2c-0.2,29.3-23.8,52.3-53.4,52.1c-28.9-0.2-52.5-24.1-52.1-52.8
	C214.1,183.6,237.6,160.4,267,160.6z"/>
<g>
	<line class="st0" x1="240.9" y1="238.9" x2="292.2" y2="187.6"/>
	<line class="st0" x1="240.9" y1="187.6" x2="292.2" y2="238.9"/>
</g>
<g>
	<path class="st0" d="M163.5,104.8c18.4,0.1,32.9,14.8,32.8,33.3c-0.1,18.3-14.9,32.7-33.5,32.6c-18.1-0.1-32.9-15.1-32.6-33.1
		C130.4,119.2,145.1,104.7,163.5,104.8z"/>
	<path class="st0" d="M25.8,167.5c-5.3,2.6-8.4,8.1-8.1,13.8"/>
	<path class="st0" d="M61.6,186.2c10.9-3.7,21-5.5,31.6-4.6c2.5,0.2,3.2,1.2,3.2,3.8c-0.3,11.8-5.6,11.2-13.3,9
		c-2.6-0.8-5.3-1.5-7.9-2.3c-0.4-0.1-0.8-0.2-1.1-0.3c-4.4-1.4-8.8-3-14.4-4.9l-21.5-7.6c-8.4-3-17.6,1.8-20,10.4l0,0
		c-2.1,7.7,2,15.8,9.5,18.6c2.3,0.9,4.3,1.6,5.3,2c13,4.8,26.1,9.4,39.4,13.3c7.5,2.2,15,4.6,22.9,2.7c4.1-1,5.2,0.9,5.6,4.5
		c0.7,5.9,1.7,11.8,2.7,17.7c1.3,7.8,4.3,15.9,3.4,23.4c-1,7.6-5.4,14.9-9.3,21.8c-10.7,19.1-15.2,27.4-15,57.4
		c0,13.7,3,67.9,3.2,69c1.3,7.2,5.4,12,12.3,14.2c11.8,3.7,23-4.9,23.1-18c0.2-16.9,0.1-65.8,0.1-82.7c0-2.5,0-4.9,1.1-7.3
		c4.1-8.9,8.1-17.8,12-26.7c1.1-2.5,2.6-3.4,5.4-2.9c3.9,0.7,8,0.8,11.9-0.2c3.8-0.9,5.5,0.2,6.1,4.1c0.9,6.1,2.5,12,3.3,18.1
		c1.3,11.1,5.3,21,10.7,30.7c8.3,14.9,35.2,59.4,43.3,74.4c4.5,8.4,11.2,12.3,18.7,11.3c13.1-1.7,19.8-14.6,13.5-26.9
		c-8.6-17-37-62.9-45.9-79.8c-1.4-2.6-2.9-5.2-3.5-8.2c-7.8-41.7-15.4-83.3-21-125.4c-1.3-9.4-1.2-9.4-10.9-8.9c-0.3,0-0.7,0-1,0
		c-21.7,0-37.4-9.5-46.8-29.2c-0.9-1.9-1.5-4.2-4.1-4.5c-11.7-1-23.4-2.8-35.2-1.6c-0.4,0-0.8,0.1-1.2,0.2
		c-6.2,0.7-12.2,2.2-18.3,3.7c-0.4,0.1-0.8,0.3-1.2,0.3c-0.9,0.2-2.2,0.6-3.8,1.2"/>
</g>
<g>
	<path class="st0" d="M35.9,178.7l24.3-33.4l0,0l0,0c3.2-4.4,9.3-5.3,13.7-2.2c0.3,0.2,0.7,0.3,1,0.3c0.4-0.1,0.7-0.2,0.9-0.6
		l82.5-113.5l0,0c1.3-1.8,2.4-5-0.1-9.4c-1.7-3-4.8-6.2-8.9-9.2c-9.2-6.7-16.9-7.8-20.5-2.8l0,0L46.3,121.4c-0.5,0.6-0.3,1.5,0.3,2
		c4.4,3.2,5.4,9.3,2.2,13.7L7.3,194.2l-0.2-0.1c-0.6-0.5-1.5-0.3-2,0.3s-0.3,1.5,0.3,2l1.3,0.9l0,0l0,0l9.1,6.6l0,0l0,0l1.3,0.9
		c0.3,0.2,0.7,0.3,1,0.3c0.4-0.1,0.7-0.2,0.9-0.6"/>
	<line class="st0" x1="48.9" y1="137" x2="60.2" y2="145.2"/>
</g>
</svg>
