<?xml version="1.0" encoding="utf-8"?>
<!-- Generator: Adobe Illustrator 25.4.1, SVG Export Plug-In . SVG Version: 6.00 Build 0)  -->
<svg version="1.1" id="Capa_1" xmlns="http://www.w3.org/2000/svg" xmlns:xlink="http://www.w3.org/1999/xlink" x="0px" y="0px"
	 viewBox="0 0 418.1 450.2" style="enable-background:new 0 0 418.1 450.2;" xml:space="preserve">
<style type="text/css">
	.st0{fill:#00E9C5;}
	.st1{enable-background:new    ;}
</style>
<g>
	<path class="st0" d="M308.6,333.4l-13.9,4.6c-0.3,0.1-0.7,0.2-1,0.2c-1.4,0-2.6-0.9-3.1-2.2c-0.6-1.7,0.4-3.6,2.1-4.1l13.9-4.6
		c1.7-0.6,3.6,0.4,4.1,2.1C311.2,331,310.3,332.8,308.6,333.4z"/>
	<path class="st0" d="M322.5,347.3l-13.9,4.6c-0.3,0.1-0.7,0.2-1,0.2c-1.4,0-2.6-0.9-3.1-2.2c-0.6-1.7,0.4-3.6,2.1-4.1l13.9-4.6
		c1.7-0.6,3.6,0.4,4.1,2.1C325.1,344.9,324.2,346.7,322.5,347.3z"/>
	<path class="st0" d="M336.3,361.1l-13.9,4.6c-0.3,0.1-0.7,0.2-1,0.2c-1.4,0-2.6-0.9-3.1-2.2c-0.6-1.7,0.4-3.6,2.1-4.1l13.9-4.6
		c1.7-0.6,3.6,0.4,4.1,2.1C338.9,358.7,338,360.6,336.3,361.1z"/>
	<path class="st0" d="M348.1,387.3l13.9-4.6c1.7-0.6,3.6,0.4,4.1,2.1c0.6,1.7-0.4,3.6-2.1,4.1l-13.9,4.6c-0.3,0.1-0.7,0.2-1,0.2
		c-1.4,0-2.6-0.9-3.1-2.2C345.5,389.7,346.4,387.9,348.1,387.3z"/>
	<path class="st0" d="M362,401.1l13.9-4.6c1.7-0.6,3.6,0.4,4.1,2.1c0.6,1.7-0.4,3.6-2.1,4.1l-13.9,4.6c-0.3,0.1-0.7,0.2-1,0.2
		c-1.4,0-2.6-0.9-3.1-2.2C359.3,403.6,360.2,401.7,362,401.1z"/>
	<path class="st0" d="M375.8,415l13.9-4.6c1.7-0.6,3.6,0.4,4.1,2.1c0.6,1.7-0.4,3.6-2.1,4.1l-13.9,4.6c-0.3,0.1-0.7,0.2-1,0.2
		c-1.4,0-2.6-0.9-3.1-2.2C373.2,417.4,374.1,415.6,375.8,415z"/>
	<g>
		<path class="st0" d="M153.6,236.4l-144-144l0,0c-8.5-8.5,1.6-24.7,13.9-37s28.4-22.4,37-13.9l0,0l144,144l4.6-4.6l-144-144l0,0
			C55,26.8,37.7,32,18.9,50.8C10.5,59.2,4.5,67.7,1.8,75.3C-2.3,86.5,1.3,93.3,5,97l0,0l144,144L153.6,236.4z"/>
		<path class="st0" d="M417.1,420.7c-1.3-1.3-3.3-1.3-4.6,0l-0.3,0.3L296,304.9c-8.9-8.9-8.9-23.4,0-32.3c1.3-1.3,1.3-3.3,0-4.6
			l-26.9-26.9l-4.6,4.6l24.7,24.7c-8.6,10.7-8.5,26,0,36.7l-14.1,14.1c-10.7-8.6-26-8.6-36.7,0L214,296.8l-4.6,4.6L236,328
			c0.6,0.6,1.5,1,2.3,1s1.7-0.3,2.3-1c8.9-8.9,23.4-8.9,32.3,0l0,0l0,0L389,444.1l-0.3,0.3c-1.3,1.3-1.3,3.3,0,4.6
			c0.6,0.6,1.5,1,2.3,1s1.7-0.3,2.3-1l2.6-2.6l0,0l0,0l18.5-18.5l0,0l0,0l2.7-2.7C418.4,424.1,418.4,422,417.1,420.7z M393.7,439.5
			L333,378.8c0.6,0.6,1.4,0.9,2.3,0.9c0.3,0,0.7-0.1,1-0.2l13.9-4.6c1.7-0.6,2.6-2.4,2.1-4.1c-0.6-1.7-2.4-2.6-4.1-2.1l-13.9,4.6
			c-1.7,0.6-2.6,2.4-2.1,4.1c0.2,0.5,0.5,0.9,0.8,1.3l-53.1-53.1l13.9-13.9l113.8,113.8L393.7,439.5z"/>
	</g>
	<path class="st0" d="M181.3,208.7L51.2,78.5c-1.3-1.3-3.3-1.3-4.6,0c-1.3,1.3-1.3,3.3,0,4.6l130.1,130.1L181.3,208.7z"/>
	<g>
		<path class="st0" d="M236.3,273.8l-4.7,4.7l22.5,30.7c0.6,0.9,1.6,1.3,2.6,1.3c0.7,0,1.3-0.2,1.9-0.6c1.5-1.1,1.8-3.1,0.7-4.6
			L236.3,273.8z"/>
		<path class="st0" d="M277.2,286.1l-30.7-22.5l-4.7,4.7l31.5,23.1c0.6,0.4,1.3,0.6,1.9,0.6c1,0,2-0.5,2.6-1.3
			C278.9,289.2,278.6,287.2,277.2,286.1z"/>
	</g>
</g>
<g>
	<path class="st0" d="M416.3,75.3c-2.7-7.6-8.7-16-17.1-24.5c-18.8-18.8-36.1-24-46.2-13.9l0,0l-231,231c-1.3,1.3-1.3,3.3,0,4.6
		c8.9,8.9,8.9,23.4,0,32.3L5.9,421.1l-0.3-0.3c-1.3-1.3-3.3-1.3-4.6,0c-1.3,1.3-1.3,3.3,0,4.6l2.7,2.7l0,0l0,0l18.5,18.5l0,0l0,0
		l2.6,2.6c0.6,0.6,1.5,1,2.3,1s1.7-0.3,2.3-1c1.3-1.3,1.3-3.3,0-4.6l-0.3-0.3l116.1-116.1l0,0l0,0c8.9-8.9,23.4-8.9,32.3,0
		c0.6,0.6,1.5,1,2.3,1s1.7-0.3,2.3-1l231-231l0,0C416.8,93.3,420.3,86.5,416.3,75.3z M10.5,425.7l113.8-113.8l13.9,13.9l-53.1,53.1
		c0.4-0.4,0.6-0.8,0.8-1.3c0.6-1.7-0.4-3.6-2.1-4.1l-13.9-4.6c-1.7-0.6-3.6,0.4-4.1,2.1c-0.6,1.7,0.4,3.6,2.1,4.1l13.9,4.6
		c0.3,0.1,0.7,0.2,1,0.2c0.9,0,1.7-0.3,2.3-0.9l-60.7,60.7L10.5,425.7z M142.9,321.2l-14.1-14.1c8.6-10.7,8.6-26,0-36.7L357.6,41.6
		l0,0c8.5-8.5,24.7,1.6,37,13.9s22.4,28.4,13.9,37l0,0L179.6,321.2C168.9,312.7,153.6,312.7,142.9,321.2z"/>
	<path class="st0" d="M214.7,239.9c0,0,0-0.1,0.1-0.1c0.1-0.1,0.1-0.2,0.2-0.3c0.1-0.1,0.1-0.2,0.1-0.3c0-0.1,0.1-0.2,0.1-0.3
		c0-0.1,0.1-0.2,0.1-0.3c0-0.1,0-0.2,0-0.3c0-0.1,0-0.2,0-0.3c0-0.1,0-0.2,0-0.3c0-0.1,0-0.2,0-0.3c0-0.1,0-0.2-0.1-0.3
		c0-0.1-0.1-0.2-0.1-0.3c0-0.1-0.1-0.2-0.1-0.3c-0.1-0.1-0.1-0.2-0.2-0.3c0,0,0-0.1-0.1-0.1l-0.1-0.1c-0.1-0.1-0.1-0.2-0.2-0.3
		c-0.1-0.1-0.2-0.2-0.3-0.2l-0.1-0.1c0,0-0.1,0-0.1-0.1c-0.1-0.1-0.2-0.1-0.4-0.2c-0.1,0-0.1-0.1-0.2-0.1c-0.1-0.1-0.3-0.1-0.4-0.1
		s-0.1,0-0.2-0.1c-0.1,0-0.3,0-0.4-0.1c-0.1,0-0.2,0-0.2,0c-0.1,0-0.2,0-0.4,0c-0.1,0-0.2,0-0.3,0c-0.1,0-0.2,0-0.3,0.1
		c-0.1,0-0.2,0.1-0.3,0.1c-0.1,0-0.2,0.1-0.3,0.1c-0.1,0.1-0.2,0.1-0.3,0.2c0,0-0.1,0-0.1,0.1l-69.2,50.8c-1.5,1.1-1.8,3.1-0.7,4.6
		c0.6,0.9,1.6,1.3,2.6,1.3c0.7,0,1.3-0.2,1.9-0.6l52.2-38.3l-38.3,52.2c-1.1,1.5-0.8,3.5,0.7,4.6c0.6,0.4,1.3,0.6,1.9,0.6
		c1,0,2-0.5,2.6-1.3L214.7,239.9z"/>
	<path class="st0" d="M109.4,333.4l13.9,4.6c0.3,0.1,0.7,0.2,1,0.2c1.4,0,2.6-0.9,3.1-2.2c0.6-1.7-0.4-3.6-2.1-4.1l-13.9-4.6
		c-1.7-0.6-3.6,0.4-4.1,2.1C106.8,331,107.7,332.8,109.4,333.4z"/>
	<path class="st0" d="M95.6,347.3l13.9,4.6c0.3,0.1,0.7,0.2,1,0.2c1.4,0,2.6-0.9,3.1-2.2c0.6-1.7-0.4-3.6-2.1-4.1l-13.9-4.7
		c-1.7-0.6-3.6,0.4-4.1,2.1C92.9,344.9,93.8,346.7,95.6,347.3z"/>
	<path class="st0" d="M81.7,361.1l13.9,4.6c0.3,0.1,0.7,0.2,1,0.2c1.4,0,2.6-0.9,3.1-2.2c0.6-1.7-0.4-3.6-2.1-4.1L83.7,355
		c-1.7-0.6-3.6,0.4-4.1,2.1C79.1,358.7,80,360.6,81.7,361.1z"/>
	<path class="st0" d="M69.9,387.3L56,382.7c-1.7-0.6-3.6,0.4-4.1,2.1c-0.6,1.7,0.4,3.6,2.1,4.1l13.9,4.6c0.3,0.1,0.7,0.2,1,0.2
		c1.4,0,2.6-0.9,3.1-2.2C72.5,389.7,71.6,387.9,69.9,387.3z"/>
	<path class="st0" d="M56.1,401.1l-13.9-4.6c-1.7-0.6-3.6,0.4-4.1,2.1c-0.6,1.7,0.4,3.6,2.1,4.1l13.9,4.6c0.3,0.1,0.7,0.2,1,0.2
		c1.4,0,2.6-0.9,3.1-2.2C58.7,403.6,57.8,401.7,56.1,401.1z"/>
	<path class="st0" d="M42.2,415l-13.9-4.6c-1.7-0.6-3.6,0.4-4.1,2.1c-0.6,1.7,0.4,3.6,2.1,4.1l13.9,4.6c0.3,0.1,0.7,0.2,1,0.2
		c1.4,0,2.6-0.9,3.1-2.2C44.8,417.4,43.9,415.6,42.2,415z"/>
	<path class="st0" d="M226,227.3c0.8,0,1.7-0.3,2.3-1L371.5,83.1c1.3-1.3,1.3-3.3,0-4.6c-1.3-1.3-3.3-1.3-4.6,0L223.6,221.7
		c-1.3,1.3-1.3,3.3,0,4.6C224.3,227,225.1,227.3,226,227.3z"/>
</g>
<g class="st1">
	<path class="st0" d="M209.3,125.9c-40,0-52.8-27-52.8-62.9c0-36.1,12.6-62.9,52.8-62.9c40.2,0,53,26.8,53,62.9
		C262.3,98.8,249.3,125.9,209.3,125.9z M229.8,34c-3.9-8-12.3-9.8-20.4-9.8c-8.2,0-16.4,1.8-20.3,9.8c-3.4,6.9-3.7,21.2-3.7,29
		s0.4,21.9,3.7,28.8c3.9,8,12.1,10,20.3,10c8.2,0,16.5-2,20.4-10c3.4-6.9,3.7-21,3.7-28.8S233.2,40.9,229.8,34z"/>
</g>
</svg>
