<?xml version="1.0" encoding="utf-8"?>
<!-- Generator: Adobe Illustrator 25.4.1, SVG Export Plug-In . SVG Version: 6.00 Build 0)  -->
<svg version="1.1" id="Capa_1" xmlns="http://www.w3.org/2000/svg" xmlns:xlink="http://www.w3.org/1999/xlink" x="0px" y="0px"
	 viewBox="0 0 235.3 436.5" style="enable-background:new 0 0 235.3 436.5;" xml:space="preserve">
<style type="text/css">
	.st0{display:none;fill:none;stroke:#00E9C5;stroke-width:7;stroke-linecap:round;stroke-linejoin:round;stroke-miterlimit:10;}
	.st1{fill:none;stroke:#00E9C5;stroke-width:7;stroke-linecap:round;stroke-linejoin:round;stroke-miterlimit:10;}
	.st2{fill:none;stroke:#00E9C5;stroke-width:13;stroke-linecap:round;stroke-linejoin:round;stroke-miterlimit:10;}
	.st3{fill:#00E9C5;stroke:#00E9C5;stroke-width:1.2;stroke-miterlimit:10;}
</style>
<polyline class="st0" points="113.3,260.9 172.1,260.7 172.1,274.8 237.4,237 172.1,199.3 172.1,213.4 62,213.2 "/>
<g>
	<path class="st1" d="M13.7,280.7c0,0-10.4-13.3-10.2-29.3c0-1,0.2-31.6,0.2-32.7c0-19.4,1.7-40.4,4.3-65.7c2-19,4.7-34.6,7-53.6
		C16.6,86.7,31.6,73.5,44.4,75c13.2,1.6,26.8,6.3,42.2,9.2c14.5,2.7,13.8,19,13.8,19s-13.4-4.4-20-6.9c-9.5-3.6-19.2-6.3-28.8-9.5
		c-8.4-2.8-17.8,2.7-20.7,10.3c-3.4,8.9,0.3,19,9.4,22.3c16.6,6.1,51.3,16.9,51.3,16.9L59,255c0,0,18.1,42.2,23.1,53.8
		c2.1,4.9,4.8,9.9,3.9,15.4c-2.3,14.5-4.9,29-7.4,43.5c-3.5,20-4.2,18.9-7.4,39c-1.9,11.8-4.7,22.6-18,26.3c-2.7,0-5.4,0-8.1,0
		c-1.6-0.8-3.2-1.6-4.7-2.3c-8.1-4-12.7-12.5-11.3-21.4s3-17.8,4.6-26.8c4.1-23.5,5.3-25.9,9.3-49.4c0.7-4,2.5-8.3,0-12.2
		C32.8,305.1,28.2,303.5,13.7,280.7z"/>
	<path class="st1" d="M59.2,254.9c19.3-1.2,38.7-2.3,58-3.6c3.3-0.2,4.2,0.9,3.9,4c-1.1,11-5.9,58.4-7.1,66.1
		c-1.8,11.7,5.9,23.2,16.8,24.5c12.6,1.5,22.9-4.3,24-19.7c1.9-21.5,2.7-19.2,4.7-40.7c1.3-14.4,2.4-28.8,3.8-43.2
		c0.4-4.3,0.9-8.6,0.9-12.9c-0.1-11.6-8.8-20.6-20.5-20.3c-8.1,0.2-49,2.6-73.3,4.2"/>
	<path class="st1" d="M54.4,35c-1.6,17.4,12.3,33,31.1,34.7c16.5,1.6,33.2-12.4,34.7-29.1c1.7-19.8-11.3-35.6-31-37
		C71.7,2.4,55.1,16,54.4,35z"/>
	<path class="st1" d="M194.3,77.8c-0.1-0.1-0.3-0.2-0.4-0.3c-7.9-5.5-18.8-1.1-20.8,8.3l-12.3,58.9c0,0,23-30.6,36.4-47.7
		C202,91,200.7,82.2,194.3,77.8z"/>
	<path class="st1" d="M158.5,153.9"/>
	<path class="st1" d="M30.8,97.2c2.9-7.7,12.3-13.2,20.7-10.3c9.6,3.2,19.4,5.9,28.8,9.5c6.7,2.5,51.5,17.4,51.5,17.4
		s9.3-47.6,13-58.5c5.1-8.4,10.9-10.8,21.8-8.6c6.2,1.6,9.4,7,10.2,13.5c0.7,3.3-0.1,6.5-0.7,9.6c-1.2,5.7-9.4,46.3-14.2,70.1
		c-1.9,9.4-11.4,15.1-20.6,12.4c-12.6-3.8-84.6-26.9-101.2-33C31.2,116.2,27.4,106.1,30.8,97.2z"/>
</g>
<path class="st2" d="M235.3,233.9"/>
<g>
	<path class="st3" d="M138.5,17.6c0.2,0,0.3-0.1,0.4-0.2c1-0.9,2.1-1.7,3.3-2.4l0,0c0.3-0.2,0.4-0.6,0.2-0.9
		c-0.2-0.3-0.6-0.4-0.9-0.2c-1.3,0.7-2.4,1.6-3.5,2.5c-0.1,0.1-0.2,0.3-0.2,0.5C137.8,17.3,138.1,17.6,138.5,17.6z"/>
	<path class="st3" d="M133.8,23.3c0.2,0,0.4-0.1,0.6-0.3c0.7-1.2,1.5-2.3,2.4-3.3l0,0c0.2-0.3,0.2-0.7-0.1-0.9
		c-0.3-0.2-0.7-0.2-0.9,0.1c-0.9,1.1-1.8,2.3-2.5,3.5c-0.1,0.1-0.1,0.2-0.1,0.3C133.1,23,133.4,23.3,133.8,23.3z"/>
	<path class="st3" d="M164.8,20.3l-1.3,1.3c-0.1,0.1-0.2,0.3-0.2,0.5c0,0.4,0.3,0.6,0.6,0.6c0.2,0,0.3-0.1,0.5-0.2l1.3-1.3
		c0.2-0.2,0.2-0.6,0-0.9C165.5,20.1,165.1,20.1,164.8,20.3z"/>
	<path class="st3" d="M160.1,25.1l-1.3,1.3c-0.1,0.1-0.2,0.3-0.2,0.5c0,0.4,0.3,0.6,0.6,0.6c0.2,0,0.3-0.1,0.5-0.2L161,26
		c0.2-0.2,0.2-0.7,0-0.9C160.7,24.9,160.3,24.9,160.1,25.1z"/>
	<path class="st3" d="M155.3,29.9l-1.3,1.3c-0.1,0.1-0.2,0.3-0.2,0.4c0,0.4,0.3,0.6,0.6,0.6c0.2,0,0.3-0.1,0.5-0.2l1.3-1.3l0,0
		c0.2-0.3,0.2-0.7,0-0.9C155.9,29.6,155.5,29.6,155.3,29.9z"/>
	<path class="st3" d="M150.5,34.7l-1.3,1.3c-0.1,0.1-0.2,0.3-0.2,0.5c0,0.4,0.3,0.6,0.6,0.6c0.2,0,0.3-0.1,0.4-0.2l1.3-1.3
		c0.2-0.2,0.2-0.7,0-0.9C151.1,34.4,150.7,34.4,150.5,34.7z"/>
	<path class="st3" d="M145.7,39.5l-1.3,1.3c-0.1,0.1-0.2,0.3-0.2,0.5c0,0.4,0.3,0.6,0.6,0.6c0.2,0,0.3-0.1,0.5-0.2l1.3-1.3
		c0.2-0.2,0.2-0.6,0-0.9C146.3,39.2,145.9,39.2,145.7,39.5z"/>
	<path class="st3" d="M140.9,44.3l-1.3,1.3c-0.1,0.1-0.2,0.3-0.2,0.5c0,0.4,0.3,0.6,0.6,0.6c0.2,0,0.3-0.1,0.5-0.2l1.3-1.3
		c0.2-0.2,0.2-0.6,0-0.9C141.5,44,141.1,44,140.9,44.3z"/>
	<path class="st3" d="M142.9,54.5c1.6-3,29.5-14.3,1.3-5.5l26.6-26.5c4.1,6.8,4,15.3-0.2,22c0.4,0.2,0.7,0.4,1.1,0.6
		c6.4-10.3,3.4-23.8-6.7-30.4c-0.1-0.1-0.1-0.1-0.2-0.1c-6-3.8-13.4-4.6-20-2.1c-0.3,0.1-0.5,0.5-0.4,0.8s0.5,0.5,0.8,0.4
		c6-2.3,12.8-1.7,18.3,1.6l-28.9,28.9c-3.3-5.5-3.9-12.2-1.6-18.3c0.1-0.3,0-0.7-0.4-0.8c-0.3-0.1-0.7,0-0.8,0.4
		c-2.5,6.7-1.7,14.1,2.2,20.1l0,0c1.7,2.6,3.9,4.8,6.5,6.5C140.7,52.3,145,53.7,142.9,54.5z M135.3,45.3L164.6,16
		c2.1,1.5,4,3.3,5.4,5.4l-29.3,29.3C138.6,49.3,136.8,47.5,135.3,45.3z"/>
</g>
</svg>
