<?xml version="1.0" encoding="utf-8"?>
<!-- Generator: Adobe Illustrator 25.4.1, SVG Export Plug-In . SVG Version: 6.00 Build 0)  -->
<svg version="1.1" id="Capa_1" xmlns="http://www.w3.org/2000/svg" xmlns:xlink="http://www.w3.org/1999/xlink" x="0px" y="0px"
	 viewBox="0 0 567.3 506.8" style="enable-background:new 0 0 567.3 506.8;" xml:space="preserve">
<style type="text/css">
	.st0{fill:#FF3737;}
	.st1{fill:none;stroke:#FF3737;stroke-width:7;stroke-miterlimit:10;}
	.st2{fill:#FF3737;stroke:#FF3737;stroke-width:7;stroke-miterlimit:10;}
	.st3{enable-background:new    ;}
	.st4{fill:none;stroke:#FF3737;stroke-width:24;stroke-linecap:round;stroke-miterlimit:10;}
</style>
<g>
	<g>
		<path class="st0" d="M526.9,387.1c-3.5-2.4-8.3-1.5-10.7,2C473.3,451,401.4,491.7,318.1,490.9c-65.8-0.7-126.1-28.4-169-73.4
			c-2.9-3.1-7.8-3.3-10.9-0.5l0,0c-3.3,2.9-3.5,8.1-0.5,11.2c11.5,11.9,24.3,22.9,38.3,32.8c32.2,22.7,68.1,37.2,107.3,42.7
			c7.4,1.1,14.8,1.9,22.3,2.9c0.4,0.1,0.7,0.1,1.1,0.1c9.1,0,18.1,0,27-0.1c0.6,0,1.2-0.1,1.8-0.2c0.8-0.2,1.6-0.4,2.5-0.5
			c12.3-1.8,24.8-2.6,37-5.3c62-13.6,111.8-46.3,149.7-97c1.4-1.9,2.8-3.8,4.2-5.7C531.4,394.4,530.5,389.6,526.9,387.1
			C527,387.2,526.9,387.2,526.9,387.1z"/>
		<path class="st0" d="M469.7,48.3c-31.5-23-66.5-38.1-105.1-44.4c-9.6-1.6-19.4-2.6-29.2-3.8c-0.3,0-0.7-0.1-1-0.1h-27.2
			c-0.7,0-1.4,0.1-2,0.3c-1.1,0.3-2.2,0.5-3.3,0.6c-12.6,1.9-25.5,2.8-37.9,5.7c-57,13.4-104,43-140.7,88.7
			C94.7,131,77.2,171.2,70.6,215.7c-0.7,4.4,2.3,8.8,6.8,9.4c4.4,0.6,8.2-2.5,8.8-6.7C102.9,104.6,200.4,16.3,321.3,15.9
			c72.4,0.2,137.6,32.6,181.3,84.2c2.5,2.9,6.7,3.6,9.9,1.6l0.1-0.1c4.2-2.6,5-8.3,1.9-12C501.5,74.4,486.6,60.6,469.7,48.3z"/>
		<path class="st0" d="M198.1,141.9l0.1,0.1c3.1,2.8,7.8,2.6,10.7-0.3c3-3,11.2-9.5,14.4-12.3c3.5-3-1.5-4.6-4.8-7.8l-0.1-0.1
			c-2.9-2.8-1.4-7.5-4.5-4.9c-3.5,3-12.9,10.7-16.2,13.9C194.6,133.7,194.7,138.9,198.1,141.9z"/>
		<path class="st0" d="M248.5,104.5c0,0,0-0.1-0.1-0.1c-2-4.1-7-5.7-11-3.4c-7.7,4.5-16.4,10.4-23.5,15.7c-3.1,2.3-4.1,6.5-2.3,9.9
			c0,0.1,0.1,0.2,0.1,0.3c2.2,4.2,7.7,5.5,11.5,2.7c6.7-4.9,15.2-10.8,22.1-14.9C248.9,112.5,250.2,108.1,248.5,104.5z"/>
		<path class="st0" d="M384,98.4c-0.1,0.1-0.1,0.2-0.2,0.3c-2.2,3.9-0.6,8.9,3.5,10.8c54.3,24.8,92.5,79.5,92.3,145.2
			c-0.4,86.5-70.9,159-162,157.1c-41.5-0.9-79-17.6-106.7-44.5c-2.8-2.7-7.2-3-10.2-0.5c-0.1,0.1-0.2,0.2-0.3,0.3
			c-3.6,2.9-3.8,8.3-0.5,11.5c30.8,30,72.5,48.3,117.2,49.3c99.8,2,176.5-77.4,178.4-170.3c1.4-72.8-41.1-134.4-101.5-162.2
			C390.2,93.5,385.9,94.9,384,98.4z"/>
	</g>
</g>
<g>
	<path class="st1" d="M193,279.1l0.6-11.7l0,0l0,0c0.1-3.1,2.7-5.6,5.9-5.4c0.2,0,0.4-0.1,0.6-0.2s0.2-0.3,0.3-0.6l3.1-80.9l0,0
		c0-1.3-0.4-3.1-3.1-4.5c-1.8-0.9-4.3-1.5-7.2-1.6c-6.6-0.3-10.6,1.7-10.7,5.3l0,0l-3.1,80.8c0,0.4,0.3,0.8,0.8,0.8
		c3.1,0.1,5.5,2.8,5.4,5.9l-0.3,8"/>
	<path class="st2" d="M193.3,286.2l-1.4,21.5c0.9,0,1,1.1,1,1.1c0,0.2-0.1,0.4-0.3,0.6c-0.2,0.1-0.4,0.2-0.6,0.2h-0.9l0,0l0,0
		l-6.4-0.2l0,0l0,0h-0.9c-0.4,0-0.8-0.4-0.8-0.8s0.4-0.8,0.8-0.8h0.1l0.7-10.4"/>
	<line class="st1" x1="185.5" y1="267.1" x2="193.6" y2="267.4"/>
</g>
<path class="st0" d="M4.5,288.6c0,2.5,2,4.4,4.4,4.4h35.5c2.5,0,4.4-2,4.4-4.4s-2-4.4-4.4-4.4H8.9C6.5,284.2,4.5,286.2,4.5,288.6z"
	/>
<path class="st0" d="M18.6,307.8c0,2.5,2,4.4,4.4,4.4h35.6c2.5,0,4.4-2,4.4-4.4s-2-4.4-4.4-4.4H23.1
	C20.6,303.3,18.6,305.3,18.6,307.8z"/>
<path class="st0" d="M3.4,326.9c0,2.5,2,4.4,4.4,4.4h35.5c2.5,0,4.4-2,4.4-4.4s-2-4.4-4.4-4.4H7.8C5.3,322.5,3.4,324.5,3.4,326.9z"
	/>
<path class="st1" d="M189.8,275.2c4.5,3.6,5,10.3,1.2,14.6c-7.6,8.6-19.1,21.6-22.1,24.4c-3.5,3.4-8.8,3.7-12.7,0.9
	c-7.6-5.5-15.2-11-22.7-16.6c-0.8-0.6-1.3-0.7-2,0.2c-4.2,5.3-8.5,10.6-12.7,15.9c-3.1,3.9-6.3,7.8-9.5,11.6c-1,1.2-2,2.5-3,3.7
	c-0.8,1-0.4,1.3,0.5,1.7c3.2,1.3,6.4,2.6,9.5,4c5.8,2.4,11.6,4.9,17.4,7.4c4.4,1.9,6.9,5.2,7.1,10.1c0.1,2.6-1.1,4.9-2.2,7.1
	c-4.2,8-8.4,16-12.6,24c-3.5,6.7-7,13.5-10.5,20.2c-3.8,7.2-13.1,8.5-18.2,2c-2.7-3.4-3.1-7.3-1.2-11.3c2.7-5.3,5.5-10.6,8.2-15.8
	c3.4-6.6,6.8-13.1,10.3-19.7c0.6-1.1,0.1-1.4-0.8-1.8c-5.4-2.3-10.8-4.5-16.1-6.8c-6.2-2.7-12.5-5.3-18.7-8
	c-2.1-0.9-4.3-1.8-6.4-2.7c-4.1-1.7-6.4-4.9-6.9-9.1c-0.3-2.7,0.4-5.5,2.2-7.7c3.7-4.8,7.5-9.4,11.3-14.1c5.3-6.7,10.7-13.3,16-20
	c3.2-4,6.4-7.9,9.7-11.8c0.5-0.6,0.5-1.6-0.1-2.2c-4.5-4.2-9-8.5-13.5-12.7c-0.8-0.8-1.4-0.9-2.5-0.5c-4.3,1.4-8.7,2.7-13.1,4.1
	c-4.2,1.3-8.4,2.7-12.6,4c-2.8,0.8-5.5,2-8.5,2.1c-5.4,0.1-10.4-5.2-10.1-10.6c0.3-4.9,3.2-8.7,9.1-10.4c3.6-1,7.2-2.3,10.8-3.4
	c6.1-1.9,12.1-3.7,18.2-5.6c2.5-0.8,5-1.5,7.4-2.3c3.7-1.3,6.9-0.3,9.7,2.1c4,3.3,57.9,47.7,60.2,49.7c0.7,0.5,1.1,0.5,1.6-0.1
	c1.5-1.7,8.9-9.7,14.5-15.7C179.7,272.3,185.7,271.8,189.8,275.2L189.8,275.2z"/>
<path class="st1" d="M78.3,344.9c-8,9.6-21.2,25.6-21.7,26.4c-2.5,3.7-6.4,4.7-10.4,5.4c-3,0.5-19,3.1-30.3,5
	c-6.2,1-12-3.6-12.4-9.9l0,0c-0.4-5.5,3.5-10.4,8.9-11.3c10.8-1.8,27-4.5,28.8-4.9c0.6-0.1,1-0.5,1.4-1c4-4.9,24.3-29.5,25.5-31"/>
<path class="st1" d="M168.2,244.5c0.5,10.6-7.2,19.5-17.7,20.2c-10.9,0.7-19.5-7.1-20.3-17.5c-0.8-10.7,6.8-19.5,17.5-20.3
	C158.5,226,167.2,233.8,168.2,244.5z"/>
<g class="st3">
	<path class="st0" d="M560.5,186.7h-6.4c-3.3,0-5.4-0.6-7.6-3.3l-17.8-21.7h-1.5V181c0,6.7-5.5,5.7-10.3,5.7c-4,0-6.4-1.4-6.4-5.7
		v-60c0-4.3,2.7-5.4,6.4-5.4h19.8c7.6,0,13.5-0.3,19.1,5.2c5,5,5.9,13.4,5.9,20.1c0,9.4-3.1,17.6-13.1,20l15,17.4
		c1.1,1.2,1.7,2.9,1.7,4.4C565.4,185.7,563,186.7,560.5,186.7z M542.9,130.4c-1.3-0.6-5-0.6-6.6-0.6h-3c-2,0-4,0-6.1,0.1v17.7h10.9
		c6.4,0,7-1.3,7-7.4C545.1,137.8,545.1,131.4,542.9,130.4z"/>
</g>
<line class="st4" x1="314.2" y1="138.5" x2="314.2" y2="61.3"/>
<line class="st4" x1="352.9" y1="99.9" x2="275.6" y2="99.9"/>
<g class="st3">
	<path class="st0" d="M566.1,256.2c-2.9,15.5-12.7,18.9-27.2,18.9c-29.2,0-28.4-17.5-28.4-40.8v-22.4c0-6.1,6-5.1,10.2-5.1
		c3.4,0,5.5,1.6,5.5,5.1v28.5c0,4.9-0.2,12.5,2,17c2,4,6.7,4.1,10.7,4.1s8.7,0,10.7-4.1c2.2-4.6,2-12.1,2-17v-28.5
		c0-6.1,6.2-5.1,10.4-5.1c3.5,0,5.3,1.6,5.3,5.1v22.4C567.3,241.6,567.4,249.1,566.1,256.2z"/>
</g>
<g class="st3">
	<path class="st0" d="M558.8,359.3c-2.9,0-4.6-0.2-6.5-2.5c-3.3-3.9-6.2-8.3-9.3-12.4c-5.7-7.9-11.3-15.8-16.9-23.8v33.3
		c0,6.1-5,5.4-9.4,5.4c-3.8,0-6-1.3-6-5.4v-56.3c0-5.6,4.6-5.1,8.6-5.1c2.8,0,4.1,0.2,6,2.5c3.3,4,6.2,8.4,9.2,12.5
		c5.8,8,11.5,16,17.3,24v-33.9c0-6.1,5.8-5.1,10-5.1c3.4,0,5.4,1.6,5.4,5.1v56.3C567.2,359.6,563.1,359.3,558.8,359.3z"/>
</g>
<g class="st3">
	<path class="st0" d="M361.5,323.1v27.5c0,14.6-8.9,14.6-20.8,14.6c-11.1,0-17.3-2.4-17.3-14.6v-27.5h-50.2h-14.6
		c-11.3,0-15.9-14-15.9-23.5c0-4.3,1.3-8.6,4-12.2l74.8-95.9c2.7-3.5,6.5-6.8,11.3-6.8h14.8c8.6,0,13.8,5.7,13.8,14v88
		c18.9,0,18.9,5.9,18.9,22.1C380.4,322,371.8,323.1,361.5,323.1z M323.5,241.3L287,289.4c12.2-0.8,24.3-0.8,36.5-1.4V241.3z"/>
</g>
</svg>
