<?xml version="1.0" encoding="utf-8"?>
<!-- Generator: Adobe Illustrator 25.4.1, SVG Export Plug-In . SVG Version: 6.00 Build 0)  -->
<svg version="1.1" id="Capa_1" xmlns="http://www.w3.org/2000/svg" xmlns:xlink="http://www.w3.org/1999/xlink" x="0px" y="0px"
	 viewBox="0 0 414.1 444.3" style="enable-background:new 0 0 414.1 444.3;" xml:space="preserve">
<style type="text/css">
	.st0{fill:none;stroke:#FF3737;stroke-width:9.7979;stroke-miterlimit:10;}
	.st1{fill:#FF3737;}
</style>
<g>
	<path class="st0" d="M376.1,202.9l2.7-22l0,0l0,0c0.7-5.9,5.9-10.1,11.8-9.5c0.4,0,0.8-0.1,1.1-0.3c0.3-0.2,0.5-0.6,0.6-1L409.1,18
		l0,0c0.3-2.5-0.4-6-5.2-8.9c-3.2-2-7.9-3.3-13.4-3.9c-12.4-1.4-20.2,1.8-20.9,8.5l0,0l-16.8,152.1c-0.1,0.8,0.5,1.6,1.4,1.7
		c5.9,0.6,10.1,6,9.5,11.8l-1.7,15.1"/>
	<path class="st0" d="M375.8,216.4l-5.6,40.4c1.7,0.2,1.7,2.2,1.7,2.2c0,0.4-0.3,0.8-0.6,1c-0.3,0.2-0.7,0.4-1.1,0.3l-1.7-0.2l0,0
		l0,0l-12.1-1.3l0,0l0,0l-1.7-0.2c-0.8-0.1-1.4-0.8-1.4-1.7c0.1-0.8,0.8-1.4,1.7-1.4h0.2l2.7-19.5"/>
	<line class="st0" x1="363.6" y1="179.2" x2="378.8" y2="180.9"/>
</g>
<path class="st0" d="M370.7,195.1c8,7.5,8.1,20.1,0.3,27.7c-15.6,15.2-39.1,38.1-45.1,43.1c-7.1,5.9-17.2,5.9-24.2,0
	c-13.6-11.4-27.2-22.8-40.7-34.3c-1.5-1.3-2.4-1.4-3.8,0c-8.7,9.4-17.5,18.8-26.3,28.2c-6.5,6.9-13,13.8-19.5,20.7
	c-2.1,2.2-4.2,4.4-6.2,6.7c-1.6,1.8-0.9,2.5,0.8,3.3c5.8,2.9,11.7,5.8,17.5,8.8c10.7,5.4,21.4,10.8,32,16.2
	c8.1,4.2,12.4,10.8,12.1,20.1c-0.2,4.9-2.7,9-5.2,13.1c-9,14.6-18.1,29.1-27.2,43.6c-7.6,12.2-15,24.5-22.6,36.7
	c-8.1,13-25.9,14.2-34.7,1.3c-4.7-6.7-5-14.3-0.7-21.5c5.8-9.7,11.8-19.2,17.7-28.7c7.4-11.9,14.7-23.9,22.1-35.7
	c1.2-1.9,0.4-2.6-1.2-3.4c-9.9-5-19.8-10-29.6-15.1c-11.4-5.8-22.9-11.7-34.3-17.6c-3.9-2-7.8-3.9-11.7-5.9
	c-7.5-3.8-11.4-10-11.8-18.2c-0.2-5.2,1.5-10.3,5.1-14.3c7.7-8.5,15.5-16.7,23.3-25.1c11-11.8,22-23.7,33-35.5
	c6.6-7,13.2-14,19.9-20.9c1.1-1.1,1.1-2.9,0-4.1c-8-8.5-15.9-17.2-23.7-25.8c-1.4-1.5-2.6-1.8-4.6-1.3c-8.4,2.1-16.8,3.9-25.3,5.9
	c-8.2,1.9-16.3,4-24.4,5.8c-5.4,1.2-10.6,3-16.3,2.7c-10.2-0.5-19-11.2-17.7-21.3c1.2-9.1,7.3-15.9,18.5-18.3
	c7-1.5,13.9-3.3,20.8-4.9c11.7-2.7,23.4-5.4,35.2-8.2c4.8-1.1,9.6-2.1,14.3-3.4c7.2-2,13,0.4,18.1,5.2c7.1,6.8,103,97.8,107.2,101.8
	c1.2,1.1,1.9,1.2,3.1,0c3.1-3,18.2-17,29.5-27.6C351.9,188.2,363.3,188.2,370.7,195.1L370.7,195.1z"/>
<path class="st0" d="M150.2,311.5c-16.4,17.1-43.6,45.5-44.6,46.8c-5.3,6.6-12.7,8.1-20.5,8.8c-5.7,0.5-36.3,3.4-58,5.4
	c-12,1.1-22.2-8.3-22.2-20.3l0,0c0.1-10.4,8-19.1,18.4-20.1c20.6-2,51.7-4.9,55.2-5.3c1.2-0.1,1.9-0.8,2.7-1.6
	c8.3-8.7,49.9-52.3,52.5-55"/>
<path class="st0" d="M333.9,134.2c-0.4,20-16.2,35.8-36.1,35.7c-20.8-0.1-36-16-36-35.8c0-20.2,15.6-35.9,35.9-36
	C318,98.1,333.4,113.9,333.9,134.2z"/>
<path class="st1" d="M143.6,237.4c3.7,0,6.7-2.5,6.7-5.5v-44c0-3.1-3-5.5-6.7-5.5s-6.7,2.5-6.7,5.5v44
	C137,234.9,139.9,237.4,143.6,237.4z"/>
<path class="st1" d="M143.6,434.9c3.7,0,6.7-3.8,6.7-8.5V359c0-4.7-3-8.5-6.7-8.5s-6.7,3.8-6.7,8.5v67.4
	C137,431.1,139.9,434.9,143.6,434.9z"/>
<path class="st1" d="M143.6,109.3c3.7,0,6.7-2.5,6.7-5.5v-44c0-3.1-3-5.5-6.7-5.5s-6.7,2.5-6.7,5.5v44
	C137,106.9,139.9,109.3,143.6,109.3z"/>
<path class="st1" d="M143.6,109.3c3.7,0,6.7-4.3,6.7-9.8V21.7c0-5.4-3-9.8-6.7-9.8s-6.7,4.3-6.7,9.8v77.9
	C137,105,139.9,109.3,143.6,109.3z"/>
<path class="st1" d="M143.6,400.1c3.7,0,6.7-2.5,6.7-5.5v-44c0-3.1-3-5.5-6.7-5.5s-6.7,2.5-6.7,5.5v44
	C137,397.7,139.9,400.1,143.6,400.1z"/>
</svg>
