<?xml version="1.0" encoding="utf-8"?>
<!-- Generator: Adobe Illustrator 25.4.1, SVG Export Plug-In . SVG Version: 6.00 Build 0)  -->
<svg version="1.1" id="Capa_1" xmlns="http://www.w3.org/2000/svg" xmlns:xlink="http://www.w3.org/1999/xlink" x="0px" y="0px"
	 viewBox="0 0 502.4 365.2" style="enable-background:new 0 0 502.4 365.2;" xml:space="preserve">
<style type="text/css">
	.st0{fill:#FF3737;}
	.st1{enable-background:new    ;}
</style>
<g>
	<path class="st0" d="M372.4,95.4c-22.1,0-44.1,0-66.2,0c-14.7,0-20.2-5.4-20.8-20c-0.4-11.5-0.4-11.5-11.6-11.5
		c-15.8,0-31.5,0.2-47.3-0.1c-6.8-0.1-9.7,2-9.8,9.3c-0.2,17.9-5.1,22.3-22.7,22.3c-43.6,0-87.1,0-130.7,0
		c-15.5,0-21.1-5.1-20.6-20.5c0.3-8.7-2.5-12-11.2-11.2c-6.2,0.6-12.6,0.4-18.8-1C4.9,61-0.6,54.1,0,46.7C0.6,39.1,6.6,33,14.7,32.5
		c6-0.4,12.1-0.5,18,0c7.3,0.6,11-1.7,9.9-9.5c-0.2-1.1,0-2.3,0-3.4C42.8,6,48.5,0.1,62,0c24.9-0.1,49.9,0,74.8,0
		c19.5,0,39-0.1,58.5,0c15.6,0.1,21.3,5.7,21.6,21.1c0.3,11.2,0.3,11.3,11.6,11.3c16,0,32.1-0.2,48.1,0.1c6,0.1,8.8-1.4,8.9-8.1
		C286.1,3.8,290.2,0,310.6,0c42.1,0,84.3,0,126.4,0c17.6,0,22.9,4.9,22.5,22.4c-0.2,7.9,2.3,11,10.2,10.2c5.7-0.6,11.5-0.3,17.2,0
		c8.6,0.4,14.9,6.5,15.4,14.5c0.4,7.4-5,14.1-12.9,15.9c-5.9,1.4-12,0.9-18,0.9c-11.5,0.1-11.5,0.1-11.7,11.3
		c-0.1,2.6,0,5.2-0.5,7.7c-1.8,8.1-7.7,12.5-17.1,12.5C418.8,95.5,395.6,95.4,372.4,95.4z M372.1,63.8c11.2,0,22.3,0.1,33.5,0
		c27.4-0.2,21.5,3.1,22.6-22.8c0.3-7.1-2.2-9.5-9.4-9.5c-30.9,0.3-61.8,0.3-92.8,0c-6.5,0-9.7,1.7-9.1,8.7c0.4,4.8,0.4,9.8,0,14.6
		c-0.5,6.6,2,9.2,8.8,9.1C341.1,63.5,356.6,63.8,372.1,63.8z M129,31.6c-10.9,0-21.8,0-32.6,0c-22.2,0-21.9,0-22.3,22.2
		c-0.2,8.2,3,10.2,10.6,10.1c25.8-0.3,51.5,0.1,77.3-0.2c28.2-0.3,22.5,4.5,23.4-24.4c0.2-6.2-2.5-7.9-8.2-7.8
		C161.1,31.7,145,31.6,129,31.6z"/>
</g>
<g class="st1">
	<path class="st0" d="M239.1,342.3c-11.6,21.2-41.8,22.9-63.2,22.9c-14.2,0-29-0.6-43.2-2c-9-0.9-18-2-18-13v-9.6
		c0-11.6,2-16.8,14.5-16.8c6.1,0,11.9,0.6,18,1.2c11,1.2,22,1.2,33.1,1.2c22.3,0,20-1.7,20-22.9c0-7.8-0.9-10.2-8.1-13.3
		c-12.2-5.2-24.6-9.6-36.8-14.8c-31.3-13-38.3-20-38.3-54.8c0-49.6,25.2-53.4,68.1-53.4c12.5,0,25.2,0.6,37.7,1.4
		c9,0.6,18.3,2,18.3,13v9.3c0,11.6-2,16.8-14.5,16.8c-10.4,0-20.9-1.5-31.3-1.5c-7,0-14.2-0.3-21.2-0.3c-10.7,0-12.5,3.5-12.5,13.6
		v3.5c0,8.4,0.3,10.1,8.1,13.6c7.8,3.5,15.9,6.4,24.1,9.6c9.9,4.1,19.7,7.8,29,13c19.4,10.4,22,21.5,22,42.6
		C244.9,313.3,244.6,332.2,239.1,342.3z"/>
	<path class="st0" d="M409.6,207.8c-13.3,0-26.4-0.3-39.7-0.6V347c0,18.3-14.8,15.7-28.1,15.7c-11.3,0-17.4-3.8-17.4-15.7V207.2
		c-13.3,0.3-26.4,0.6-39.7,0.6c-16.8,0-15.7-11.6-15.7-24.1c0-10.1,5.8-14.8,15.7-14.8h125c15.7,0,15.7,9.6,15.7,22.3
		C425.2,202,420.9,207.8,409.6,207.8z"/>
</g>
</svg>
