<?xml version="1.0" encoding="utf-8"?>
<!-- Generator: Adobe Illustrator 25.4.1, SVG Export Plug-In . SVG Version: 6.00 Build 0)  -->
<svg version="1.1" id="Capa_1" xmlns="http://www.w3.org/2000/svg" xmlns:xlink="http://www.w3.org/1999/xlink" x="0px" y="0px"
	 viewBox="0 0 445.2 255.4" style="enable-background:new 0 0 445.2 255.4;" xml:space="preserve">
<style type="text/css">
	.st0{display:none;fill:none;stroke:#00E9C5;stroke-width:7;stroke-linecap:round;stroke-linejoin:round;stroke-miterlimit:10;}
	.st1{enable-background:new    ;}
	.st2{fill:#00E9C5;}
</style>
<polyline class="st0" points="240.2,182.2 299,182 299,196.1 364.3,158.3 299,120.6 299,134.7 188.9,134.5 "/>
<g class="st1">
	<path class="st2" d="M240.2,98.5L195.1,239c-4.7,14.9-20,11.6-32.8,11.6c-14.2,0-17.5-5.1-21.8-17.5l-20-58.2l-19.7,58.2
		c-6.9,20.7-15.7,17.5-36,17.5c-9.5,0-15.3-2.2-18.6-11.6L0.7,98.5C0,96.3,0,93.8,0,91.2C0,73,23.3,76.3,34.9,76.3
		c12,0,18.9,3.6,21.8,16l19.3,85.2l17.5-61.2c4.7-16,18.6-13.8,32-13.8c10.9,0,18.9,2.2,22.2,13.8l17.5,61.2l19.3-85.2
		c4.4-20,21.5-16,37.9-16c9.8,0,18.9,3.6,18.9,14.9C241.3,93.8,241,96.3,240.2,98.5z"/>
	<path class="st2" d="M413.5,251c-6.9,0-15.3-0.4-20-6.2c-14.6,6.6-29.5,10.6-45.5,10.6c-52.8,0-70.3-43.3-70.3-89.5
		c0-56.8,20.7-95,82.3-95c10.2,0,20,1.1,30.2,2.2V19.9c0-23.3,18.9-19.7,36-19.7c11.6,0,18.9,8.4,18.9,19.7v210.8
		C445.2,252.8,430.2,251,413.5,251z M390.2,120c-10.2-2.2-21.1-4-31.7-4c-4.7,0-8.4,0-12.7,2.2c-12.4,6.2-12.7,40.8-12.7,52.1
		c0,15.3,2.2,40,22.6,40c11.6,0,25.5-6.9,34.6-13.8V120z"/>
</g>
</svg>
