<?xml version="1.0" encoding="utf-8"?>
<!-- Generator: Adobe Illustrator 25.4.1, SVG Export Plug-In . SVG Version: 6.00 Build 0)  -->
<svg version="1.1" xmlns="http://www.w3.org/2000/svg" xmlns:xlink="http://www.w3.org/1999/xlink" x="0px" y="0px"
	 viewBox="0 0 1766.5 633" style="enable-background:new 0 0 1766.5 633;" xml:space="preserve">
<style type="text/css">
	.st0{clip-path:url(#SVGID_00000009580528522709211960000006978702815875584935_);fill:#F9F9F9;}
	.st1{clip-path:url(#SVGID_00000009580528522709211960000006978702815875584935_);fill:#C19870;}
	.st2{clip-path:url(#SVGID_00000009580528522709211960000006978702815875584935_);fill:#302011;}
	.st3{clip-path:url(#SVGID_00000009580528522709211960000006978702815875584935_);fill:#E8C5AA;}
	.st4{opacity:0.5;clip-path:url(#SVGID_00000009580528522709211960000006978702815875584935_);}
	.st5{fill:#E8C5AA;}
	.st6{clip-path:url(#SVGID_00000009580528522709211960000006978702815875584935_);fill:#F2E3C7;}
	.st7{opacity:0.5;clip-path:url(#SVGID_00000009580528522709211960000006978702815875584935_);fill:#F2E3C7;}
	.st8{clip-path:url(#SVGID_00000009580528522709211960000006978702815875584935_);fill:#634F37;}
	.st9{clip-path:url(#SVGID_00000009580528522709211960000006978702815875584935_);fill:#8E7859;}
	.st10{clip-path:url(#SVGID_00000009580528522709211960000006978702815875584935_);fill:#D1B5AA;}
	.st11{opacity:0.5;clip-path:url(#SVGID_00000009580528522709211960000006978702815875584935_);fill:#E8C5AA;}
	.st12{clip-path:url(#SVGID_00000009580528522709211960000006978702815875584935_);fill:#CCA49A;}
	.st13{opacity:0.5;clip-path:url(#SVGID_00000009580528522709211960000006978702815875584935_);fill:#634F37;}
	.st14{opacity:0.5;clip-path:url(#SVGID_00000009580528522709211960000006978702815875584935_);fill:#8E7859;}
	.st15{opacity:0.5;clip-path:url(#SVGID_00000009580528522709211960000006978702815875584935_);fill:#D1B5AA;}
	.st16{opacity:0.5;clip-path:url(#SVGID_00000009580528522709211960000006978702815875584935_);fill:#CCA49A;}
	.st17{fill:#CCA49A;}
	.st18{clip-path:url(#SVGID_00000009580528522709211960000006978702815875584935_);fill:#00E9C5;}
	.st19{clip-path:url(#SVGID_00000009580528522709211960000006978702815875584935_);}
	.st20{fill:#C9C9C9;}
	.st21{fill:#3F301F;}
	.st22{fill:none;stroke:#F2E3C7;stroke-miterlimit:10;}
	.st23{fill:#C6B395;}
	.st24{fill:#C49E83;}
	.st25{fill:#6D573D;}
	.st26{fill:#BA9175;}
	.st27{fill:#A8867B;}
	.st28{fill:#A5786F;}
</style>
<g id="Capa_4">
</g>
<g id="Capa_2">
	<g>
		<defs>
			<rect id="SVGID_1_" width="1766.5" height="633"/>
		</defs>
		<clipPath id="SVGID_00000110469763827309855320000002754209296570495622_">
			<use xlink:href="#SVGID_1_"  style="overflow:visible;"/>
		</clipPath>
		
			<rect x="-2" y="-6.5" style="clip-path:url(#SVGID_00000110469763827309855320000002754209296570495622_);fill:#F9F9F9;" width="1786.7" height="653.6"/>
		<path style="clip-path:url(#SVGID_00000110469763827309855320000002754209296570495622_);fill:#C19870;" d="M828.2,151.2
			c0,0,4,17.5,8.5,24.5c0,0,4.4,2.4-7.4,13.2c-11.8,10.8-4.2,18.3-12.9,18.6s-8.4-13.8-8.4-13.8L828.2,151.2z"/>
		<path style="clip-path:url(#SVGID_00000110469763827309855320000002754209296570495622_);fill:#302011;" d="M660.9,260.6
			c0,0,0.9,14.4,3.8,21.8c2.9,7.4-6.4,12.9-19.6,8s10.1-32.8,10.1-32.8h5L660.9,260.6z"/>
		<path style="clip-path:url(#SVGID_00000110469763827309855320000002754209296570495622_);fill:#E8C5AA;" d="M712.1-3
			c0,0,37.3,64.3,54,86.6c16.7,22.3,49.3,40.3,49.3,40.3s13.7,3.9,12.9,26.6c-0.9,22.7,6.9,46.7-9,48.9c0,0-8.6,3-13.3-5.6
			c0,0-3,11.6-9.4,11.1c-6.4-0.4-11.1-2.6-12-6c-0.9-3.4,0,8.1-7.7,9.9c-7.7,1.7-13.3-1.7-15.4-10.3c0,0-3.9,9-10.7,8.6
			c-6.9-0.4-9-7.3-9-7.3l-29.5-44.5v-12c0,0-11.6-26.5-10.7-37.2c0,0-51.9-89.1-67.3-108.9C618.7-22.7,712.1-3,712.1-3z"/>
		<g style="opacity:0.5;clip-path:url(#SVGID_00000110469763827309855320000002754209296570495622_);">
			<path class="st5" d="M828.7,167.4c-4,26.8-22.3,18.5-22.3,18.5c-9.1,12.8-22.7,3.3-22.7,3.3c-13.2,14.8-24.6-1.5-24.6-1.5
				c-22.4,19.7-44.5-64-54.1-84c-5.6-11.6-18-27.2-27.5-38.3c13.2,22,23.9,40.5,23.9,40.5c-0.9,10.7,10.7,37.2,10.7,37.2v12
				l29.5,44.5c0,0,2.2,6.9,9,7.3c6.9,0.4,10.7-8.6,10.7-8.6c2.1,8.6,7.7,12,15.4,10.3s6.9-13.3,7.7-9.9c0.9,3.4,5.6,5.6,12,6
				c6.4,0.4,9.4-11.1,9.4-11.1c4.7,8.6,13.3,5.6,13.3,5.6C831.1,197.7,829.8,183.8,828.7,167.4z"/>
			<path class="st5" d="M828.3,148.7c0-3.4-0.3-6.3-0.8-8.9L828.3,148.7z"/>
		</g>
		<path style="clip-path:url(#SVGID_00000110469763827309855320000002754209296570495622_);fill:#F2E3C7;" d="M490.3-6.5
			c0,0,34.7,43.4,68.8,65.2c34.1,21.9,76.5,59.1,104.8,67.5s56.6,19.9,59.1,21.9c2.6,1.9,12.9,8.4,16.1,30.9
			c3.2,22.5,7.7,44.4-15.4,46.9c0,0-6.4,23.8-25.1,10.3c0,0-6.1,20.6-20.1,13.5l-66.7-12.9l-13.7-46.1l-17.8-30.4
			c0.6-9-43.7-23.1-43.7-23.1s-123.4-65.6-187.7-117c0,0-13.5-14.8-18.6-23.1s34.1-3.5,34.1-3.5H490.3z"/>
		<path style="opacity:0.5;clip-path:url(#SVGID_00000110469763827309855320000002754209296570495622_);fill:#F2E3C7;" d="
			M722,209.1c-1.6,19.9-24.8,16.6-24.8,16.6c-10.3,17.8-31.9,2-31.9,2s-33.6,10.3-42.5-34.1C614,149.3,550,114.6,461.9,74.1
			c-60.4-27.8-98.9-62.8-117.1-82.1c-9-0.1-17.1,0.8-14.6,4.9c5.1,8.4,18.6,23.1,18.6,23.1c64.3,51.4,187.7,117,187.7,117
			s44.4,14.1,43.7,23.1l17.8,30.4l13.7,46.1l66.7,12.9c14,7.1,20.1-13.5,20.1-13.5c18.6,13.5,25.1-10.3,25.1-10.3
			c20.7-2.3,19.3-20.1,16.4-39.9C742.5,212.9,722,209.1,722,209.1z"/>
		<path style="clip-path:url(#SVGID_00000110469763827309855320000002754209296570495622_);fill:#634F37;" d="M151.2-6.5
			c0,0,29.9,30.9,39.5,43.4c9.6,12.5,35.7-9.6,211.2,111.9c0,0,72.3,36.6,105.1,43.4c32.8,6.8,45.3,13.5,84.9,0
			c0,0,24.6-6.1,31.1-4.4c6.4,1.7,21,10.7,26.1,18c5.1,7.3,24.9,28.3,24.9,28.3s10.3,15.4,0,22.7c-10.3,7.3-16.7,2.6-16.7,2.6
			s8.6,14.1,0,22.3s-10.3,5.1-10.3,5.1s1.7,12-6,15.4c-7.7,3.4-13.3,0-13.3,0s-2.1,12.4-8.6,14.4c0,0-18,4.9-27,4.1
			S579.2,306,579.2,306s-39.4-3-53.6-6.9c-14.1-3.9-36.9-19.7-54.9-27.4s-74.6-23.6-74.6-23.6s-193.9-62.8-250.8-105.2
			c0,0-13.5-8.7-27-9.6S-13.8,57.4-13.8,57.4l5.1-64H151.2z"/>
		<path style="clip-path:url(#SVGID_00000110469763827309855320000002754209296570495622_);fill:#8E7859;" d="M906.2-3.9
			c0,0,3,43.3,7.3,50.6s44.1,48,44.1,48s3.9,6.4-3.9,39.9c0,0-3.9,21.9-18,22.5c0,0-7.3,4.9-13.3,7.1c-6,2.1-8.6,0-8.6,0
			s-6.9,8.6-11.1,10.7c0,0-8.1,2.6-13.3-3.9c0,0-4.7,9.9-13.3,9c-8.6-0.9-12.4-5.1-12.4-9.9c0,0-4.3,2.1-10.7,2.1
			c0,0-11.1-9-11.6-15.2c-0.4-6.2-5.6-24.6-6.4-28.5c-0.9-3.9-3.9-12.9-2.1-20.6s-5.1-23.1,2.6-39.9s4.3-32.6,4.3-36
			s-4.3-40.1-4.3-40.1L906.2-3.9z"/>
		<path style="clip-path:url(#SVGID_00000110469763827309855320000002754209296570495622_);fill:#E8C5AA;" d="M1062.7,243.4
			c0,0-3.4-6-2.1-11.1c1.3-5.1,7.3-27,7.3-32.1c0-5.1,7.3-15.9,18.4-15.9c11.1,0,34.7-11.6,47.1-11.6s22.6-13.9,29.6-19.3
			c9.1-7,13.7-6.9,39.4-23.6c0,0,98.1-79.7,141.9-99c43.7-19.3,81-63,81-63L1573.5,0c0,0-106.3,78.8-117,92.1
			c-10.7,13.3-52.7,28.7-55.3,29.1c-2.6,0.4-30,13.7-39.9,20.6s-91.7,28.7-91.7,28.7s-58.7,22.7-77.6,46.7
			c-18.9,24-16.7,32.6-21.9,36c-5.1,3.4-33.4,37.7-48.4,47.6c0,0-4.7,12-22.7,4.7c0,0-13.7-1.3-17.1,0s-15.9,0.4-0.9-14.6
			c0,0-9.9-5.6-9.4-12c0,0-11.6-3-7.3-19.3C1064.4,259.7,1059.7,250.3,1062.7,243.4z"/>
		<path style="clip-path:url(#SVGID_00000110469763827309855320000002754209296570495622_);fill:#D1B5AA;" d="M970.9,209.3
			c0,0-5.8-3.7-7.1-8.9c-1.2-5.2-6-27.3-8.4-31.9s-0.9-17.4,9-22.6c9.9-5.2,25.4-26.3,36.4-32.1c11-5.8,13.6-22.8,17.3-30.8
			c4.8-10.4,9-12.4,24-39.1c0,0,50.1-116.1,79.9-153.4c29.8-37.3,42.6-93.3,42.6-93.3l146.3-40.1c0,0-57.7,119.1-61.1,135.8
			s-33.4,49.9-35.5,51.4c-2.1,1.6-20.2,26-25.8,36.7c-5.6,10.6-68,67.9-68,67.9s-41.5,47.3-47.1,77.3s0.3,36.6-2.7,42
			c-3,5.4-12.2,48.9-20.9,64.6c0,0,1.4,12.8-18,14.7c0,0-12.8,5.2-15.2,7.9s-13.9,7.7-7.5-12.5c0,0-11.3-0.4-13.9-6.3
			c0,0-11.6,2.7-15.4-13.7C979.9,222.9,971.4,216.7,970.9,209.3z"/>
		<path style="opacity:0.5;clip-path:url(#SVGID_00000110469763827309855320000002754209296570495622_);fill:#E8C5AA;" d="
			M1502-15.5c-12.4,27.1-42,78.6-90.6,87.1c-66.5,11.6-220.8,133.1-234.3,136s-47.2,31.8-51.4,48.5s-37.2,29.8-37.2,29.8
			c-12.4-2.6-7.2-23.7-7.2-23.7c-9.8,1.1-9.7-15.2-9.7-15.2c-6.6,1-2.3-17.6-2.3-17.6c-6.7,1.8-4.3-14.6-4.3-14.9
			c-1.8,7.3-3.8,15-4.5,17.8c-1.3,5.1,2.1,11.1,2.1,11.1c-3,6.9,1.7,16.3,1.7,16.3c-4.3,16.3,7.3,19.3,7.3,19.3
			c-0.4,6.4,9.4,12,9.4,12c-15,15-2.6,15.9,0.9,14.6s17.1,0,17.1,0c18,7.3,22.7-4.7,22.7-4.7c15-9.9,43.3-44.1,48.4-47.6
			c5.1-3.4,3-12,21.9-36s77.6-46.7,77.6-46.7s81.9-21.9,91.7-28.7c9.9-6.9,37.3-20.1,39.9-20.6c2.6-0.4,44.6-15.9,55.3-29.1
			c10.7-13.3,117-92.1,117-92.1L1502-15.5z"/>
		<path style="clip-path:url(#SVGID_00000110469763827309855320000002754209296570495622_);fill:#CCA49A;" d="M1227.7,264.4
			c0,0-52.5,0.9-63.6,3.9c-11.1,3-35.7,0.2-35.2,27.1c0,0-6.6,6.3-3.4,15.3c0,0-9.6,20.6-5.1,25.7c0,0-6.4,19.9-3.9,25.7
			c0,0-20.6,29.6-3.9,35.4c16.7,5.8,12.9,5.8,12.9,5.8s19.3,22.5,34.7,24.4c0,0,8.4-5.1,20.6-12.2c12.2-7.1,39.9-28.9,55.9-45
			c16.1-16.1,16.7-21.2,28.9-28.9c12.2-7.7,102.9-51.4,157.5-60.4c54.6-9,131.1-35.4,197.4-66.2s187.1-82.9,211.5-98.4
			s3.2-127.9,3.2-127.9L1743.9,0c0,0-74.6,40.1-88.7,50.3c-14.1,10.3-31.7,8.1-42.4,9.6c-38,5.5-86.1,27.6-137.9,68.1
			S1227.7,264.4,1227.7,264.4z"/>
		<path style="clip-path:url(#SVGID_00000110469763827309855320000002754209296570495622_);fill:#634F37;" d="M1784.7,639.5
			c0,0-55-26-84.9-45.3c-29.9-19.3-147.5-110.9-288.3-116.7c-140.8-5.8-185.1-32.8-185.1-32.8s-22.2-8.7-34.7-4.8
			c-12.5,3.9-85.6-42.4-85.6-42.4s-16.6-8.7-26.2,0c0,0,1,1.9-5.1,2.9c-6.1,1-23.8,11.2-25.7,18.3c0,0-18,16.4-19.3,24.1
			c0,0-18.6,17.7-15.4,27.3c0,0-18,22.8-10.6,36c7.4,13.2,16.4,10.4,16.4,10.4s5.1,10.4,2.6,15.6c-2.6,5.1-5.5,19.9,8,28.9
			S1064,581,1064,581l9-0.6l117.3-30.5c0,0,64.9,1.3,78.4,6.4c13.5,5.1,108.1,66.2,124.5,83.2S1784.7,639.5,1784.7,639.5z"/>
		<path style="opacity:0.5;clip-path:url(#SVGID_00000110469763827309855320000002754209296570495622_);fill:#634F37;" d="
			M644.8,239.3c0,0,25.2,57.1-12.5,26.6c0,0,17.7,46.1-17.7,20.3c0,0,0.3,22.1-25.3,7.8c-25.6-14.3-18.1-6.5-53.6-12.3
			c-35.5-5.8-58.7-30.2-95.3-38.2c-36.6-8-197.7-109.3-292.2-130.5C80.8,97.9,24.6,30.7-2-6.5h-6.7l-5.1,64
			c0,0,118.7,74.9,132.2,75.9s27,9.6,27,9.6c56.9,42.4,250.8,105.2,250.8,105.2s56.6,15.9,74.6,23.6s40.7,23.6,54.9,27.4
			c14.1,3.9,53.6,6.9,53.6,6.9s3.9,13.7,12.9,14.6c9,0.9,27-4.1,27-4.1c6.4-1.9,8.6-14.4,8.6-14.4s5.6,3.4,13.3,0
			c7.7-3.4,6-15.4,6-15.4s1.7,3,10.3-5.1c8.6-8.1,0-22.3,0-22.3s6.4,4.7,16.7-2.6s0-22.7,0-22.7S673.8,266.3,644.8,239.3z"/>
		<path style="opacity:0.5;clip-path:url(#SVGID_00000110469763827309855320000002754209296570495622_);fill:#8E7859;" d="
			M1536.7,646.9c-241-115.9-275.9-133.4-355.7-113.8c-81,19.9-98,7.5-98,7.5c-45-44.9-43.7-30.3-62.9-34.2
			c-19.2-3.9-16.3-17.5-16.3-17.5c-2.1,5.9-2.9,12.2-0.1,17.2c7.4,13.2,16.4,10.4,16.4,10.4s5.1,10.4,2.6,15.6
			c-2.6,5.1-5.5,19.9,8,28.9S1064,581,1064,581l9-0.6l117.3-30.5c0,0,64.9,1.3,78.4,6.4s108.1,66.2,124.5,83.2
			C1399.7,646.3,1462.9,647.7,1536.7,646.9z"/>
		<path style="clip-path:url(#SVGID_00000110469763827309855320000002754209296570495622_);fill:#8E7859;" d="M1261.7,637.3
			c0,0-18-18.6-25.1-20.6c-7.1-1.9-7.1-15.4-14.8-22.5c-7.7-7.1-31.8-70-61.1-49.5c0,0-3.9,3.9-9.3,0c-5.5-3.9-20.9-4.8-24.1,4.2
			c0,0-11.6-8.4-19-6.1c-7.4,2.2-10.6,17-14.5,19.3s-11.6-1.3-17.7,2.2s-13.5,13.5-11.2,27.6c0,0-1.9,5.8-3.5,13.2
			c-1.6,7.4,0,19.6,0,19.6s-1.8,4.3-0.7,8.3C1061.8,637,1261.7,637.3,1261.7,637.3z"/>
		<path style="clip-path:url(#SVGID_00000110469763827309855320000002754209296570495622_);fill:#E8C5AA;" d="M1030.9,635.3
			c0,0,1.3-19.9,0-25.4c0,0,5.3-7.1,0.6-15.1s0.1-30.9-23.1-36.6c0,0-9.3-3.5-13.5-10c-4.2-6.4-11.2-7.1-19.9-6.1
			c-8.7,1-10.6-9.3-10.6-9.3s-12.2-15.1-29.6,0c0,0-6.1,5.5-14.5,0.3c-8.4-5.1-24.1-10.9-31.2,10.6c-7.1,21.5-14.8,54-14.8,54
			s-18.3,2.6-21.2,9c-2.9,6.4-5.8,19.3-3.9,28.6C851.3,644.7,1030.9,635.3,1030.9,635.3z"/>
		<path style="clip-path:url(#SVGID_00000110469763827309855320000002754209296570495622_);fill:#D1B5AA;" d="M-43.2,413.6
			c0,0,11.4,12.8,115.6,7.1c15.6-0.9,183.2,11.6,235.3,0c52.1-11.6,147.9-17.4,153-15.4s20.8,14.1,59.1,14.1s52.1-3.7,52.1-3.7
			l42.7-26.9c0,0,17-14.3,0-26.6c0,0,19.4-9.9-1.6-25.7s-26.6-24.6-32.9-27.7c-6.3-3.2-31.4,2.6-31.4,2.6s-27.6,0.6-41.1,16.1
			c-13.5,15.4-70.7,9-70.7,9s-128.6-5.2-181.9-15.8s-176.2-22.8-285.5,6.8C-84.8,342.1-43.2,413.6-43.2,413.6z"/>
		<path style="clip-path:url(#SVGID_00000110469763827309855320000002754209296570495622_);fill:#CCA49A;" d="M733.9,636.4
			c0,0,10.3-10.3,17.6-14.6s43.7-28.3,53.6-48c0,0,16.3-8.1,18.4-10.3c2.1-2.1,18-25.6,8.6-37.5c0,0-4.7-3.2-13.3-3.2
			c0,0,5.6-13.3-3.4-19.7c-9-6.4-21.9-4.3-21.9-4.3s-16.7-15-23.6-15s-6.4-6.4-20.6-6.4c-14.1,0-10.3-12.4-24.9-12
			c-14.6,0.4-27.4,19.3-30.9,25.7c-3.4,6.4-39.9,72.4-56.1,83.1s-92.6,65.1-92.6,65.1L733.9,636.4z"/>
		<path style="opacity:0.5;clip-path:url(#SVGID_00000110469763827309855320000002754209296570495622_);fill:#D1B5AA;" d="
			M613.1,336.4c-6.7-5-11.8-9.3-15.8-13c0,0,23.5,42.5,2.9,22.3c0,0,17,37.1-1.8,20.9c0,0,8.9,32.4-11.4,19.1
			c0,0-5.1,18.8-51.2,11.7c-46.2-7.1-60.3-19-113.7-11.7c0,0-162,24.6-237.9,13.3c-65.6-9.7-133.2-18.4-239.3-14
			c4.5,15.8,11.9,28.5,11.9,28.5s11.4,12.8,115.6,7.1c15.6-0.9,183.2,11.6,235.3,0c52.1-11.6,147.9-17.4,153-15.4
			c5.1,1.9,20.8,14.1,59.1,14.1c38.4,0.1,52.1-3.7,52.1-3.7l42.7-26.9c0,0,17-14.3,0-26.6C614.6,362.1,634.1,352.3,613.1,336.4z"/>
		<path style="clip-path:url(#SVGID_00000110469763827309855320000002754209296570495622_);fill:#F2E3C7;" d="M646.9,495.8
			c0,0,15.9,0.9,21.4,3c5.6,2.1,15.9-0.9,17.6-6.4c1.7-5.6,16.3-18,16.3-18s6-11.1-8.6-15c0,0,5.6-8.1-15.4-19.7c0,0,0-9-36.4-36
			c0,0-5.1-13.3-21.4-9.9c0,0-12.9-17.8-32.1-0.6c-19.3,17.3-45.4,39.1-62.6,54.1c0,0,10.7,0.9-69.9,21.4
			c-80.6,20.6-76.3,25.7-131.1,33.9S42.8,513.4-27.9,561.4l14.1,85.7l100.1-6l221.6-8.1c0,0,117.4-50.6,144-69.4
			c26.6-18.9,76.3-32.6,96.4-32.6C568.5,531,617.4,520.3,646.9,495.8z"/>
		<path style="opacity:0.5;clip-path:url(#SVGID_00000110469763827309855320000002754209296570495622_);fill:#CCA49A;" d="
			M1721.9,119.8c-44.4-9.6-47.2,4.8-47.2,4.8s-28.9,71.4-175.5,104.8c-146.6,33.4-244,107.4-269,112.2s-64.6,33.8-84.6,43.6
			c-20,9.8-35.4-12-35.4-12c-4.3,9-7.5,20.9,2.4,24.3c16.7,5.8,12.9,5.8,12.9,5.8s19.3,22.5,34.7,24.4c0,0,8.4-5.1,20.6-12.2
			c12.2-7.1,39.9-28.9,55.9-45s16.7-21.2,28.9-28.9c12.2-7.7,102.9-51.4,157.5-60.4c54.6-9,131.1-35.4,197.4-66.2
			c66.2-30.9,187.1-82.9,211.5-98.4c10.7-6.8,12.6-32.1,11.4-58.5C1810.2,84.8,1752.4,126.4,1721.9,119.8z"/>
		<path style="opacity:0.5;clip-path:url(#SVGID_00000110469763827309855320000002754209296570495622_);fill:#D1B5AA;" d="
			M1073.5,126.2c5.6-30,47.1-77.3,47.1-77.3s13.9-12.8,29.2-27.4c-2.7,1.1-36.1,28.4-39.5,30.8c-47.7,33.8-46,111.9-46,111.9
			c-7.9,76.3-35.2,58.3-35.2,58.3c-23.4,14.1-33.6-10.4-33.6-10.4c-8.6,5.9-15.1-10.6-15.1-10.6c-7,4.7-10.7-12.2-10.7-12.2
			c-5.4,2.4-9.3-5.9-11.4-11.9c1.8,6.9,3.8,15.7,5,20.6c0.1,0.3,0.1,0.5,0.2,0.8c0,0.1,0,0.2,0.1,0.2c0,0.2,0.1,0.4,0.1,0.6
			c0,0.1,0,0.2,0.1,0.3c0.1,0.2,0.1,0.5,0.2,0.7c1.2,5.2,7.1,8.9,7.1,8.9c0.5,7.5,9.1,13.6,9.1,13.6c3.7,16.4,15.4,13.7,15.4,13.7
			c2.6,5.9,13.9,6.3,13.9,6.3c-6.4,20.2,5.1,15.2,7.5,12.5c2.4-2.7,15.2-7.9,15.2-7.9c19.3-1.9,18-14.7,18-14.7
			c8.7-15.7,17.9-59.2,20.9-64.6S1067.9,156.2,1073.5,126.2z"/>
		<polygon style="clip-path:url(#SVGID_00000110469763827309855320000002754209296570495622_);fill:#D1B5AA;" points="956.6,171.5 
			956.6,171.5 956.6,171.5 		"/>
		<path style="opacity:0.5;clip-path:url(#SVGID_00000110469763827309855320000002754209296570495622_);fill:#8E7859;" d="
			M957.4,116.2c-0.3,0.9-0.6,2.1-0.8,3.6c-2,14.9-20.9,20-20.9,20c-9.1,13.6-27.8,2.2-27.8,2.2c-8.6,17-24.8,6.1-24.8,6.1
			c-14.1,11.6-23.9-6.1-23.9-6.1s-3.7,2.2-14-4.1c-10.3-6.3-10.7-67.1-10.7-67.1c-5.9,15.7,0.1,29.9-1.5,37.2
			c-1.7,7.7,1.3,16.7,2.1,20.6c0.9,3.9,6,22.3,6.4,28.5c0.4,6.2,11.6,15.2,11.6,15.2c6.4,0,10.7-2.1,10.7-2.1c0,4.7,3.9,9,12.4,9.9
			c8.6,0.9,13.3-9,13.3-9c5.1,6.4,13.3,3.9,13.3,3.9c4.3-2.1,11.1-10.7,11.1-10.7s2.6,2.1,8.6,0c6-2.1,13.3-7.1,13.3-7.1
			c14.1-0.6,18-22.5,18-22.5C955.5,127.2,956.6,121.1,957.4,116.2z"/>
		<path style="opacity:0.5;clip-path:url(#SVGID_00000110469763827309855320000002754209296570495622_);fill:#F2E3C7;" d="
			M693.7,459.4c0,0,5.6-8.1-15.4-19.7c0,0,0-5.8-18.9-22.1c0.3,0.4,14.7,16.3,7.4,16.8c0,0,22.4,20.2,9.8,20.3
			c0,0-9.1,29.6-29.5,27.4c-20.4-2.2-28.8,22.2-114.3,34.4c-76.7,11-229.3,87.3-343,120.9l118.3-4.3c0,0,117.4-50.6,144-69.4
			c26.6-18.9,76.3-32.6,96.4-32.6s69-10.7,98.6-35.1c0,0,15.9,0.9,21.4,3c5.6,2.1,15.9-0.9,17.6-6.4c1.7-5.6,16.3-18,16.3-18
			S708.2,463.3,693.7,459.4z"/>
		<g style="opacity:0.5;clip-path:url(#SVGID_00000110469763827309855320000002754209296570495622_);">
			<path class="st17" d="M832.1,526.1c0,0-4.7-3.2-13.3-3.2c0,0,5.6-13.3-3.4-19.7c-9-6.4-21.9-4.3-21.9-4.3s-16.7-15-23.6-15
				c-2.4,0-3.9-0.8-5.4-1.8c1.2,0.8,18,12.2,12.7,18.7c0,0,38.9,6.1,22.8,28.6c0,0,23.1,7.1,10.3,14.8s-14.8,32.1-28.3,43.7
				c-11.5,9.9-43.2,28.5-58.6,48.8l10.5-0.2c0,0,10.3-10.3,17.6-14.6c7.3-4.3,43.7-28.3,53.6-48c0,0,16.3-8.1,18.4-10.3
				C825.7,561.4,841.5,537.9,832.1,526.1z"/>
			<path class="st17" d="M764.5,482L764.5,482C764.5,482,764.5,482,764.5,482C764.5,482,764.5,482,764.5,482z"/>
		</g>
		<path style="opacity:0.5;clip-path:url(#SVGID_00000110469763827309855320000002754209296570495622_);fill:#E8C5AA;" d="
			M851.4,636.8c5.4,1.8,20.7,2.6,40.3,2.7c-16.7-17.8-15.3-36.7-16.5-45.1c-0.1,0.2-0.1,0.4-0.2,0.7c0,0.1,0,0.1,0,0.2
			c0,0.2-0.1,0.4-0.1,0.6c0,0,0,0,0,0c-0.1,0.6-0.2,1-0.3,1.4c0,0,0,0,0,0.1c0,0.1,0,0.2-0.1,0.2c0,0,0,0,0,0c0,0.1,0,0.2,0,0.2
			s-18.3,2.6-21.2,9c-2.9,6.4-5.8,19.3-3.9,28.6C849.4,635.7,850.1,636.2,851.4,636.8z"/>
		<path style="opacity:0.5;clip-path:url(#SVGID_00000110469763827309855320000002754209296570495622_);fill:#E8C5AA;" d="
			M1030.9,635.3c0,0,1.3-19.9,0-25.4c0,0,5.3-7.1,0.6-15.1c-1.3-2.2-1.9-5.4-2.5-9.1l0,0c0,0,2.6,37.8-9,47.2
			c-1.4,1.1-2.9,2.1-4.5,3.1C1025.1,635.7,1030.9,635.3,1030.9,635.3z"/>
		<path style="opacity:0.5;clip-path:url(#SVGID_00000110469763827309855320000002754209296570495622_);fill:#8E7859;" d="
			M1102.2,633c-25-20.1-34.8-42.6-37.4-49.7c-0.3,2.7-0.3,5.5,0.2,8.6c0,0-1.9,5.8-3.5,13.2c-1.6,7.4,0,19.6,0,19.6
			s-1.8,4.3-0.7,8.3c0.3,1.2,18.9,2.1,44.7,2.7C1104.5,634.8,1103.4,633.9,1102.2,633z"/>
		<path style="opacity:0.5;clip-path:url(#SVGID_00000110469763827309855320000002754209296570495622_);fill:#8E7859;" d="
			M1221.8,609.5c0,3.3,6.5,5.2,12.8,6.2c-5.1-3.7-5.9-15.2-12.8-21.5c-1.9-1.8-4.9-7-8.7-13.6
			C1213.2,580.6,1221.8,602.9,1221.8,609.5z"/>
		<path style="clip-path:url(#SVGID_00000110469763827309855320000002754209296570495622_);fill:#00E9C5;" d="M871.6,262.6
			c-5.9,2.6-9.7,8.5-9.8,15l0,0v113.8c0,3.1-2.5,5.7-5.7,5.7c-0.6,0-1.1-0.1-1.6-0.2c-25.7-7.7-43.4-31.4-43.4-58.3
			c0-0.8,0-1.6,0-2.5v-0.8c0-0.6,0.1-1.3,0.1-1.9v-0.5c0.1-1.6,0.4-3.3,0.7-4.9l0.1-0.5c0.1-0.7,0.3-1.4,0.4-2.1
			c0-0.1,0.1-0.2,0.1-0.4c0.4-1.6,0.8-3.3,1.3-4.9l0.1-0.3c0.2-0.8,0.5-1.5,0.8-2.3l0,0c0.6-1.6,1.3-3.3,2-4.7l0.1-0.3
			c0.7-1.5,1.5-3,2.4-4.5v-0.1c0.4-0.7,0.8-1.3,1.2-2c0.1-0.1,0.2-0.3,0.3-0.4c0.4-0.6,0.8-1.2,1.2-1.8l0.2-0.2
			c0.5-0.6,0.9-1.3,1.4-1.9l0.4-0.6c2.1-2.6,4.3-5.1,6.8-7.4c1-1,2.1-1.9,3.3-2.7c3-2.3,3.6-6.5,1.3-9.5c-0.2-0.2-0.4-0.5-0.6-0.7
			l-5-5c-2.4-2.4-6.3-2.7-9-0.5c-3.8,3.1-7.4,6.5-10.6,10.3l0,0l-0.1,0.1c-0.7,0.8-1.4,1.6-2.1,2.6l0,0c-0.7,0.8-1.3,1.6-1.9,2.5
			l-0.3,0.4c-1,1.7-2.2,3.5-3.3,5.4l-0.3,0.5c-1.1,1.9-2.1,3.8-3.1,5.7c-0.1,0.2-0.2,0.4-0.3,0.6c-0.4,0.9-0.8,1.8-1.2,2.7l-0.2,0.2
			c-0.4,1-0.8,2-1.2,3l-0.2,0.6c-0.3,0.9-0.7,1.8-1,2.7l-0.1,0.4c-0.3,1-0.6,2.1-0.9,3.1l-0.1,0.6c-0.2,0.9-0.5,1.8-0.7,2.7
			c0,0.2-0.1,0.5-0.2,0.7c-0.2,1.1-0.5,2.1-0.7,3.3c0,0.1,0,0.3,0,0.4c-0.2,0.9-0.4,2-0.5,2.8c0,0.3-0.1,0.5-0.1,0.8
			c-0.1,1.1-0.3,2.2-0.4,3.3c0,0.1,0,0.2,0,0.4c-0.1,1-0.2,2-0.2,3c0,0.3,0,0.6,0,0.9c0,1.1,0,2.2,0,3.4h-0.1
			c0,39.2,28,72.9,66.5,80c2.7,0.5,4.7,2.8,4.7,5.6v30.7c0,3.1,2.5,5.6,5.6,5.7c0,0,0,0,0,0h9.1c3.1,0,5.7-2.5,5.7-5.7l0,0V424
			c0-2.7,1.9-5,4.6-5.5c16.2-3,31.1-10.8,42.8-22.5c4.9-4.9,9.1-10.3,12.6-16.3c22.8-38.8,9.9-88.7-28.9-111.5
			c-5.2-3.1-10.8-5.6-16.6-7.4C888.4,258.4,879.5,259,871.6,262.6z M927.1,364.9c-7.5,15.4-21.1,27-37.6,31.9c-3,0.9-6.1-0.8-7-3.8
			c-0.2-0.5-0.2-1.1-0.2-1.6V291.3c0-5.4,4.4-9.7,9.8-9.7c1.3,0,2.5,0.3,3.7,0.7c31,13,45.6,48.6,32.7,79.6c-0.4,1-0.8,1.9-1.3,2.9
			V364.9z"/>
		<g style="clip-path:url(#SVGID_00000110469763827309855320000002754209296570495622_);">
			<path class="st20" d="M833.4,73.7C833.4,73.7,833.4,73.7,833.4,73.7c-3.2,10.9-1,20.9-0.4,28.1c0,0.1,0,0.1,0,0.2
				c0,0.3,0,0.5,0.1,0.8c0,0.1,0,0.2,0,0.3c0,0.2,0,0.4,0,0.6c0,0.1,0,0.2,0,0.3c0,0.2,0,0.4,0,0.6c0,0.1,0,0.2,0,0.3
				c0,0.2,0,0.4,0,0.5c0,0.1,0,0.2,0,0.3c0,0.2,0,0.3,0,0.5c0,0.1,0,0.2,0,0.3c0,0.2,0,0.4-0.1,0.5c0,0.1,0,0.2,0,0.2
				c0,0.2-0.1,0.5-0.1,0.7c-1.7,7.7,1.3,16.7,2.1,20.6c0.9,3.9,6,22.3,6.4,28.5c0.4,6.2,11.6,15.2,11.6,15.2
				c6.4,0,10.7-2.1,10.7-2.1c0,4.7,3.9,9,12.4,9.9c8.6,0.9,13.3-9,13.3-9c5.1,6.4,13.3,3.9,13.3,3.9c4.3-2.1,11.1-10.7,11.1-10.7
				s2.6,2.1,8.6,0c6-2.1,13.3-7.1,13.3-7.1c14.1-0.6,18-22.5,18-22.5c0.2-1,0.4-2,0.7-2.9c0.1-0.3,0.1-0.6,0.2-0.9
				c0.1-0.6,0.3-1.2,0.4-1.8c0.1-0.4,0.2-0.7,0.2-1.1c0.1-0.5,0.2-1,0.3-1.5c0.1-0.4,0.1-0.7,0.2-1.1c0.1-0.5,0.2-0.9,0.3-1.4
				c0.1-0.4,0.1-0.7,0.2-1.1c0.1-0.4,0.2-0.8,0.2-1.2c0.1-0.4,0.1-0.7,0.2-1.1c0.1-0.4,0.1-0.7,0.2-1.1c0.1-0.4,0.1-0.7,0.2-1.1
				c0.1-0.3,0.1-0.7,0.2-1c0.1-0.4,0.1-0.7,0.2-1.1c0,0,0,0,0,0v0c2.6-17.5,0.3-21.5,0.3-21.5s-39.9-40.7-44.1-48
				c-4.3-7.3-7.3-50.6-7.3-50.6l-70.7-4.1c0,0,4.3,36.6,4.3,40.1c0,3.4,3.4,19.3-4.3,36c-0.6,1.4-1.2,2.7-1.6,4.1c0,0,0,0,0,0
				C833.7,72.7,833.6,73.2,833.4,73.7z"/>
			<path class="st20" d="M955.4,168.5c0.8,1.5,1.8,4.8,2.9,8.7l0,0c0.1,0.4,0.2,0.9,0.3,1.3c0,0,0,0,0,0c0.1,0.4,0.2,0.9,0.3,1.3
				c0,0,0,0,0,0c0.8,3.2,1.6,6.6,2.4,9.7c0,0,0,0,0,0.1c0.1,0.4,0.2,0.8,0.3,1.3c0,0,0,0.1,0,0.1c0.1,0.4,0.2,0.8,0.3,1.1
				c0,0.1,0,0.2,0.1,0.2c0.1,0.3,0.1,0.6,0.2,0.9c0,0.1,0.1,0.2,0.1,0.3c0.1,0.2,0.1,0.5,0.2,0.7c0,0.2,0.1,0.3,0.1,0.5
				c0,0.1,0,0.1,0,0.2c0.3,1.4,0.6,2.6,0.8,3.6c0,0.1,0,0.1,0,0.2c0,0,0,0,0,0c0,0.2,0.1,0.4,0.1,0.6c0,0,0,0,0,0
				c0,0.1,0,0.2,0.1,0.3c0,0,0,0,0,0c0.1,0.2,0.1,0.5,0.2,0.7c1.2,5.2,7.1,8.9,7.1,8.9c0.5,7.5,9.1,13.6,9.1,13.6
				c3.7,16.4,15.4,13.7,15.4,13.7c2.6,5.9,13.9,6.3,13.9,6.3c-6.4,20.2,5.1,15.2,7.5,12.5c2.4-2.7,15.2-7.9,15.2-7.9
				c19.3-1.9,18-14.7,18-14.7c8.7-15.7,17.9-59.2,20.9-64.6s-2.9-12,2.7-42s47.1-77.3,47.1-77.3s0,0,0.1-0.1c0,0,0.1-0.1,0.2-0.2
				c0,0,0,0,0.1-0.1c0,0,0.1-0.1,0.1-0.1c0.1,0,0.1-0.1,0.2-0.1c0,0,0.1-0.1,0.1-0.1c0.1-0.1,0.2-0.1,0.2-0.2c0,0,0.1-0.1,0.1-0.1
				c0.1-0.1,0.2-0.2,0.3-0.3c0,0,0.1-0.1,0.1-0.1c0.1-0.1,0.2-0.2,0.3-0.2c0.1-0.1,0.3-0.3,0.4-0.4c0,0,0.1-0.1,0.1-0.1
				c0.2-0.1,0.3-0.3,0.5-0.5c0,0,0.1,0,0.1-0.1c0.2-0.2,0.4-0.4,0.6-0.6c0,0,0,0,0,0c0.2-0.2,0.5-0.4,0.7-0.6c0,0,0,0,0.1-0.1
				c0.2-0.2,0.5-0.5,0.7-0.7c0,0,0,0,0,0c4.3-4,11-10.2,18.3-17.2c0,0,0.1,0,0.1-0.1c0.4-0.4,0.9-0.8,1.3-1.2c0,0,0.1-0.1,0.1-0.1
				c0.4-0.4,0.9-0.8,1.3-1.3c0,0,0,0,0,0c17.8-16.9,38.5-37.3,41.6-43.2c5.6-10.6,23.7-35.1,25.8-36.7s32.2-34.7,35.5-51.4
				c3.3-16.7,61.1-135.8,61.1-135.8l-146.3,40.1c0,0-12.8,56-42.6,93.3c-29.8,37.3-79.9,153.4-79.9,153.4
				c-15.1,26.7-19.2,28.7-24,39.1c-3.7,8-6.3,25-17.3,30.8c-11,5.8-26.6,26.9-36.4,32.1C954.5,151.1,953,164,955.4,168.5z"/>
			<path class="st20" d="M1835.3,113.5c0.2-0.2,0.4-0.4,0.5-0.7c0.1-0.2,0.2-0.3,0.3-0.5c0.2-0.2,0.3-0.5,0.5-0.8
				c0.1-0.2,0.2-0.3,0.3-0.5c0.2-0.3,0.3-0.6,0.5-0.9c0.1-0.2,0.2-0.3,0.2-0.5c0.2-0.4,0.5-0.9,0.7-1.4c0,0,0,0,0-0.1
				c0.2-0.5,0.4-1,0.6-1.6c0.1-0.2,0.1-0.4,0.2-0.5c0.1-0.4,0.3-0.7,0.4-1.1c0.1-0.2,0.1-0.5,0.2-0.7c0.1-0.4,0.2-0.7,0.3-1.1
				c0.1-0.2,0.1-0.5,0.2-0.7c0.1-0.4,0.2-0.7,0.3-1.1c0.1-0.3,0.1-0.5,0.2-0.8c0.1-0.4,0.2-0.8,0.3-1.2c0.1-0.3,0.1-0.5,0.2-0.8
				c0.1-0.4,0.2-0.9,0.3-1.3c0-0.2,0.1-0.5,0.1-0.7c0.1-0.6,0.2-1.3,0.3-1.9c0-0.1,0-0.1,0-0.2c0.1-0.7,0.2-1.4,0.3-2.1
				c0-0.2,0.1-0.5,0.1-0.7c0.1-0.5,0.1-1,0.2-1.5c0-0.3,0.1-0.6,0.1-0.9c0-0.5,0.1-0.9,0.1-1.4c0-0.3,0.1-0.6,0.1-1
				c0-0.5,0.1-0.9,0.1-1.4c0-0.3,0.1-0.7,0.1-1c0-0.5,0.1-0.9,0.1-1.4c0-0.3,0-0.6,0.1-1c0-0.5,0.1-1,0.1-1.6c0-0.3,0-0.6,0-0.9
				c0-0.7,0.1-1.4,0.1-2.1c0-0.1,0-0.2,0-0.4c0-0.8,0-1.7,0.1-2.5c0-0.3,0-0.6,0-0.9c0-0.5,0-1.1,0-1.7c0-0.4,0-0.7,0-1.1
				c0-0.5,0-1,0-1.5c0-0.4,0-0.7,0-1.1c0-0.5,0-1,0-1.5c0-0.4,0-0.7,0-1.1c0-0.5,0-1,0-1.5c0-0.4,0-0.7,0-1.1c0-0.5,0-1.1-0.1-1.6
				c0-0.3,0-0.7,0-1c0-0.7-0.1-1.4-0.1-2.2c0-0.2,0-0.3,0-0.5c0,0,0,0,0,0v0c-1.5-33.9-8.2-69.4-8.2-69.4L1743.9,0
				c0,0-74.6,40.1-88.7,50.3c-14.1,10.3-31.7,8.1-42.4,9.6c-38,5.5-86.1,27.6-137.9,68.1s-247.2,136.3-247.2,136.3
				s-52.5,0.9-63.6,3.9c-2.7,0.7-6.2,1.1-9.9,1.7c7.7-8.3,14-15.2,16.1-16.7c5.1-3.4,3-12,21.9-36s77.6-46.7,77.6-46.7
				s81.9-21.9,91.7-28.7c0.9-0.6,2-1.3,3.2-2.1c2.8-1.7,6.2-3.7,9.9-5.6c9.4-5.1,20.1-10.2,24.7-12.1c1-0.4,1.7-0.7,2-0.7
				c0.4-0.1,1.5-0.4,3.2-1c0.2-0.1,0.4-0.1,0.6-0.2c0.6-0.2,1.3-0.5,2-0.7c0.2-0.1,0.5-0.2,0.8-0.3c0.5-0.2,1.1-0.4,1.6-0.6
				c2.2-0.9,4.8-1.9,7.6-3c0.7-0.3,1.4-0.6,2.1-0.9c4.3-1.8,9-4,13.6-6.2c0.8-0.4,1.5-0.8,2.3-1.2c1.5-0.8,3-1.6,4.5-2.4
				c0.7-0.4,1.5-0.8,2.2-1.2c1.8-1,3.5-2.1,5.1-3.1c4.2-2.7,7.6-5.5,9.8-8.2c0.7-0.8,1.7-1.9,3.1-3.2c0.3-0.3,0.7-0.7,1.1-1
				c1.5-1.4,3.4-3,5.5-4.8c0.5-0.5,1.1-0.9,1.6-1.4c1.1-0.9,2.3-1.9,3.5-3c7.4-6.1,16.8-13.7,27-21.6c1.7-1.3,3.4-2.6,5.1-4
				c0.9-0.7,1.7-1.3,2.6-2c1.7-1.3,3.5-2.7,5.2-4c0.9-0.7,1.7-1.3,2.6-2c1.7-1.3,3.5-2.7,5.2-4c1.7-1.3,3.5-2.7,5.2-4
				c2.6-2,5.2-3.9,7.7-5.8c2.5-1.9,5-3.8,7.4-5.6c1.6-1.2,3.2-2.4,4.7-3.6c0.8-0.6,1.5-1.2,2.3-1.7C1562.1,8.5,1573.5,0,1573.5,0
				l-148.3-32.2c0,0-37.3,43.7-81,63c-43.7,19.3-141.9,99-141.9,99c-25.7,16.7-30.3,16.6-39.4,23.6c-7,5.4-17.1,19.3-29.6,19.3
				s-36,11.6-47.1,11.6c-11.1,0-18.4,10.7-18.4,15.9c0,2.4-1.3,8.2-2.7,14.4c-1.3,5.6-2.9,11.4-3.8,15.1c0,0.1,0,0.1-0.1,0.2
				c0,0.2-0.1,0.4-0.1,0.5c0,0.1-0.1,0.3-0.1,0.4c0,0.1-0.1,0.2-0.1,0.4c0,0.1-0.1,0.2-0.1,0.3c0,0.1-0.1,0.2-0.1,0.3
				c-0.1,0.2-0.1,0.4-0.1,0.5c-1.3,5.1,2.1,11.1,2.1,11.1c-3,6.9,1.7,16.3,1.7,16.3c-4.3,16.3,7.3,19.3,7.3,19.3
				c-0.4,6.4,9.4,12,9.4,12c-15,15-2.6,15.9,0.9,14.6s17.1,0,17.1,0c18,7.3,22.7-4.7,22.7-4.7c2.1-1.4,4.5-3.3,7-5.5c0,0,0,0,0,0
				c0,0-6.6,6.3-3.4,15.3c0,0-9.6,20.6-5.1,25.7c0,0-6.4,19.9-3.9,25.7c0,0-3.4,4.9-6.3,11l0,0c0,0,0,0,0,0c0,0,0,0.1,0,0.1
				c-0.2,0.4-0.4,0.8-0.5,1.2c0,0.1-0.1,0.2-0.1,0.3c-0.2,0.4-0.4,0.8-0.5,1.3c0,0.1-0.1,0.2-0.1,0.3c-0.2,0.4-0.4,0.9-0.5,1.3
				c0,0,0,0.1,0,0.1c-0.2,0.4-0.3,0.8-0.5,1.3c0,0.1-0.1,0.2-0.1,0.2c-0.1,0.4-0.3,0.9-0.4,1.3c0,0.1-0.1,0.2-0.1,0.3
				c-0.1,0.4-0.3,0.9-0.4,1.3c0,0.1,0,0.1,0,0.2c-0.1,0.4-0.2,0.8-0.3,1.3c0,0.1,0,0.1,0,0.2c-0.1,0.4-0.2,0.9-0.2,1.3
				c0,0.1,0,0.2,0,0.3c-0.1,0.4-0.1,0.9-0.1,1.3c0,0.1,0,0.1,0,0.2c0,0.4,0,0.8,0,1.2c0,0.1,0,0.1,0,0.2c0,0.4,0,0.8,0.1,1.2
				c0,0.1,0,0.2,0,0.2c0,0.4,0.1,0.8,0.2,1.1c0,0.1,0,0.1,0,0.2c0.1,0.4,0.2,0.7,0.3,1.1c0,0,0,0.1,0,0.1c0.1,0.4,0.3,0.7,0.5,1
				c0,0.1,0.1,0.1,0.1,0.2c0.2,0.3,0.4,0.6,0.6,0.9c0,0.1,0.1,0.1,0.1,0.2c0.2,0.3,0.5,0.6,0.8,0.8c0,0,0,0,0,0
				c0.3,0.3,0.6,0.5,0.9,0.8c0.1,0,0.1,0.1,0.2,0.1c0.3,0.2,0.7,0.4,1.1,0.6c0.1,0,0.1,0.1,0.2,0.1c0.4,0.2,0.8,0.4,1.3,0.6
				c16.7,5.8,12.9,5.8,12.9,5.8s7.7,8.9,17.2,16c-19.2-10.8-36.6-21.8-36.6-21.8s-16.6-8.7-26.2,0c0,0,1,1.9-5.1,2.9
				c-6.1,1-23.8,11.2-25.7,18.3c0,0-18,16.4-19.3,24.1c0,0-18.6,17.7-15.4,27.3c0,0-7,8.9-10.5,18.8l0,0l0,0c0,0,0,0.1,0,0.1
				c-0.1,0.4-0.3,0.8-0.4,1.2c0,0.1-0.1,0.3-0.1,0.4c-0.1,0.3-0.2,0.6-0.3,1c0,0.1-0.1,0.3-0.1,0.4c-0.1,0.4-0.2,0.9-0.3,1.3
				c0,0,0,0,0,0.1c-0.1,0.4-0.2,0.9-0.2,1.3c0,0.1,0,0.3-0.1,0.4c-0.1,0.3-0.1,0.7-0.1,1c0,0.1,0,0.3,0,0.4c0,0.4-0.1,0.9-0.1,1.3
				c0,0,0,0,0,0c0,0.4,0,0.9,0,1.3c0,0.1,0,0.3,0,0.4c0,0.3,0,0.6,0.1,0.9c0,0.1,0,0.3,0,0.4c0.1,0.4,0.1,0.8,0.2,1.3c0,0,0,0,0,0
				c0.1,0.4,0.2,0.8,0.3,1.2c0,0.1,0.1,0.2,0.1,0.4c0.1,0.3,0.2,0.6,0.3,0.9c0,0.1,0.1,0.2,0.1,0.3c0.2,0.4,0.4,0.8,0.6,1.1
				c7.4,13.2,16.4,10.4,16.4,10.4s5.1,10.4,2.6,15.6c-2.6,5.1-5.5,19.9,8,28.9S1064,581,1064,581l1.2-0.1c-0.3,1.4-0.5,2.8-0.5,4.3
				c0,0.1,0,0.2,0,0.3c0,0.6,0,1.2,0,1.8c0,0.3,0,0.6,0,0.8c0,0.5,0,0.9,0.1,1.4c0.1,0.8,0.2,1.6,0.3,2.4c0,0-1.9,5.8-3.5,13.2
				c-1.6,7.4,0,19.6,0,19.6s-1.8,4.3-0.7,8.3c0,0,0,0.1,0.1,0.1c0,0,0,0,0,0c0,0,0.1,0,0.1,0.1c0,0,0.1,0,0.1,0c0.1,0,0.1,0,0.2,0.1
				c0,0,0.1,0,0.1,0c0.1,0,0.2,0,0.3,0.1c0,0,0.1,0,0.1,0c0.1,0,0.3,0.1,0.5,0.1c0,0,0.1,0,0.1,0c0.1,0,0.3,0.1,0.5,0.1
				c0.1,0,0.1,0,0.2,0c0.1,0,0.3,0,0.4,0.1c0.1,0,0.2,0,0.2,0c0.2,0,0.3,0,0.5,0.1c0.1,0,0.2,0,0.2,0c0.2,0,0.4,0,0.6,0.1
				c0.1,0,0.1,0,0.2,0c0.3,0,0.6,0.1,0.9,0.1c0.1,0,0.1,0,0.2,0c0.2,0,0.5,0,0.7,0.1c0.1,0,0.2,0,0.3,0c0.2,0,0.5,0,0.7,0.1
				c0.1,0,0.2,0,0.4,0c0.3,0,0.5,0,0.8,0.1c0.1,0,0.2,0,0.3,0c0.8,0.1,1.6,0.1,2.5,0.2c0.1,0,0.2,0,0.3,0c0.3,0,0.7,0,1.1,0.1
				c0.1,0,0.3,0,0.4,0c0.3,0,0.7,0,1.1,0.1c0.1,0,0.3,0,0.4,0c0.4,0,0.8,0,1.2,0.1c0.1,0,0.2,0,0.3,0c1,0.1,2.1,0.1,3.2,0.1
				c0.1,0,0.2,0,0.3,0c0.4,0,0.9,0,1.4,0.1c0.1,0,0.3,0,0.4,0c0.5,0,0.9,0,1.4,0.1c0.1,0,0.2,0,0.4,0c1.2,0,2.5,0.1,3.8,0.1
				c0,0,0.1,0,0.1,0c0.6,0,1.2,0,1.8,0.1c0.1,0,0.2,0,0.3,0c0.6,0,1.1,0,1.7,0.1c0.1,0,0.2,0,0.3,0c0.6,0,1.3,0,1.9,0.1
				c0.1,0,0.1,0,0.2,0c1.4,0,2.9,0.1,4.4,0.1c0,0,0,0,0.1,0c0.7,0,1.5,0,2.2,0.1c0.1,0,0.1,0,0.2,0c0.7,0,1.4,0,2.1,0.1
				c0.1,0,0.2,0,0.3,0c59,1.5,158.5,1.6,158.5,1.6s-18-18.6-25.1-20.6c-0.7-0.2-1.4-0.5-2-1c-3-2.1-4.5-6.8-6.5-11.7
				c-0.2-0.4-0.3-0.7-0.5-1.1c-0.1-0.1-0.1-0.3-0.2-0.4c-0.2-0.4-0.4-0.8-0.6-1.2c0-0.1-0.1-0.2-0.1-0.3c-0.2-0.4-0.4-0.8-0.6-1.2
				c0-0.1-0.1-0.2-0.1-0.2c-0.2-0.4-0.5-0.9-0.8-1.3c-0.1-0.1-0.1-0.2-0.2-0.3c-0.3-0.4-0.5-0.8-0.8-1.2c-0.1-0.1-0.1-0.1-0.2-0.2
				c-0.3-0.4-0.6-0.8-1-1.2c0-0.1-0.1-0.1-0.1-0.2c-0.4-0.4-0.7-0.8-1.1-1.2c-0.2-0.1-0.3-0.3-0.5-0.5c-0.2-0.2-0.3-0.4-0.5-0.6
				c-0.1-0.1-0.1-0.2-0.2-0.2c0-0.1-0.1-0.1-0.1-0.2c-0.1-0.1-0.2-0.3-0.3-0.4c-0.1-0.1-0.1-0.2-0.2-0.3c-0.1-0.1-0.2-0.2-0.3-0.4
				c-0.1-0.1-0.2-0.3-0.3-0.5c-0.1-0.1-0.1-0.2-0.2-0.3c-0.1-0.2-0.3-0.4-0.4-0.6c0-0.1-0.1-0.1-0.1-0.2c-0.1-0.2-0.2-0.3-0.3-0.5
				c-0.1-0.1-0.2-0.2-0.2-0.4c-0.1-0.1-0.2-0.3-0.2-0.4c-0.1-0.2-0.2-0.3-0.3-0.5c-0.1-0.2-0.2-0.4-0.3-0.5
				c-0.1-0.1-0.2-0.3-0.3-0.4c-0.1-0.2-0.3-0.5-0.4-0.7c-0.1-0.1-0.1-0.2-0.2-0.3c-0.1-0.2-0.3-0.5-0.4-0.7
				c-0.1-0.1-0.1-0.2-0.2-0.4c-0.1-0.2-0.2-0.4-0.3-0.5c-0.1-0.2-0.2-0.4-0.3-0.6c-0.1-0.1-0.1-0.3-0.2-0.4
				c-0.2-0.3-0.3-0.6-0.5-0.8c-5.7-10-13.7-23.9-23.2-33c8.1,0.2,64.9,1.6,77.5,6.4c2.5,1,7.9,3.9,15.1,8.1c1.2,0.7,2.4,1.4,3.7,2.2
				c3.9,2.3,8.2,5,12.7,7.8c1.5,0.9,3.1,1.9,4.6,2.9c1.6,1,3.2,2,4.8,3c1.6,1,3.3,2.1,4.9,3.1c1.7,1.1,3.3,2.1,5,3.2
				c9.3,6,18.9,12.4,28,18.6c0.8,0.6,1.7,1.1,2.5,1.7c3.3,2.3,6.5,4.5,9.6,6.6c0.8,0.5,1.5,1.1,2.3,1.6c3,2.1,6,4.2,8.7,6.3
				c0.7,0.5,1.4,1,2,1.5c9.4,6.9,16.7,12.7,20.3,16.5c0,0,0,0,0,0c0.1,0.1,0.3,0.2,0.4,0.4c0,0,0.1,0.1,0.2,0.1
				c0.1,0.1,0.2,0.2,0.4,0.2c0.1,0,0.1,0.1,0.2,0.1c0.1,0.1,0.3,0.2,0.5,0.2c0.1,0,0.1,0.1,0.2,0.1c0.2,0.1,0.5,0.2,0.8,0.3
				c0,0,0.1,0,0.1,0c0.2,0.1,0.5,0.2,0.8,0.3c0.1,0,0.2,0.1,0.3,0.1c0.2,0.1,0.4,0.1,0.7,0.2c0.1,0,0.2,0.1,0.4,0.1
				c0.3,0.1,0.5,0.1,0.8,0.2c0.1,0,0.2,0.1,0.3,0.1c0.4,0.1,0.8,0.2,1.2,0.3c0.1,0,0.1,0,0.2,0c0.4,0.1,0.7,0.2,1.1,0.2
				c0.1,0,0.3,0.1,0.5,0.1c0.3,0.1,0.6,0.1,1,0.2c0.2,0,0.3,0.1,0.5,0.1c0.4,0.1,0.7,0.1,1.1,0.2c0.1,0,0.3,0,0.4,0.1
				c0.5,0.1,1,0.2,1.6,0.2c0.1,0,0.3,0,0.4,0.1c0.4,0.1,0.9,0.1,1.3,0.2c0.2,0,0.4,0.1,0.6,0.1c0.4,0.1,0.8,0.1,1.2,0.1
				c0.2,0,0.4,0.1,0.7,0.1c0.5,0.1,0.9,0.1,1.4,0.2c0.2,0,0.3,0,0.5,0.1c0.6,0.1,1.3,0.1,1.9,0.2c0.2,0,0.4,0,0.6,0.1
				c0.5,0,1,0.1,1.5,0.1c0.3,0,0.5,0,0.8,0.1c0.5,0,0.9,0.1,1.4,0.1c0.3,0,0.5,0,0.8,0.1c0.5,0,1.1,0.1,1.6,0.1c0.2,0,0.4,0,0.6,0
				c0.7,0.1,1.5,0.1,2.3,0.2c0.2,0,0.5,0,0.8,0.1c0.5,0,1.1,0.1,1.6,0.1c0.3,0,0.6,0,0.9,0.1c0.5,0,1.1,0.1,1.6,0.1
				c0.3,0,0.6,0,0.9,0.1c0.6,0,1.3,0.1,1.9,0.1c0.2,0,0.4,0,0.7,0c0.8,0,1.7,0.1,2.5,0.1c0.3,0,0.7,0,1,0c0.6,0,1.1,0.1,1.7,0.1
				c0.4,0,0.8,0,1.2,0.1c0.6,0,1.1,0,1.7,0.1c0.4,0,0.7,0,1.1,0c0.7,0,1.5,0.1,2.2,0.1c0.2,0,0.5,0,0.7,0c0.9,0,1.8,0.1,2.7,0.1
				c0.4,0,0.8,0,1.2,0c0.6,0,1.2,0,1.8,0.1c0.4,0,0.8,0,1.3,0c0.6,0,1.2,0,1.8,0.1c0.4,0,0.8,0,1.2,0c0.7,0,1.5,0,2.2,0.1
				c0.5,0,1.1,0,1.6,0c0.7,0,1.5,0,2.2,0.1c0.5,0,0.9,0,1.4,0c0.6,0,1.2,0,1.8,0c0.5,0,1,0,1.5,0c0.6,0,1.2,0,1.8,0c0.5,0,1,0,1.5,0
				c0.8,0,1.6,0,2.4,0c0.6,0,1.3,0,1.9,0c0.7,0,1.4,0,2.1,0c0.5,0,1,0,1.6,0c0.6,0,1.2,0,1.9,0c0.5,0,1.1,0,1.6,0c0.6,0,1.2,0,1.8,0
				c0.6,0,1.1,0,1.7,0c0.8,0,1.6,0,2.4,0c0.8,0,1.6,0,2.4,0c0.7,0,1.3,0,2,0c0.6,0,1.2,0,1.8,0c0.6,0,1.2,0,1.8,0c0.6,0,1.2,0,1.8,0
				c0.6,0,1.2,0,1.8,0c0.6,0,1.2,0,1.8,0c0.6,0,1.2,0,1.7,0c1.2,0,2.4,0,3.6,0c0.6,0,1.1,0,1.7,0c0.7,0,1.3,0,2,0c0.6,0,1.1,0,1.7,0
				c0.7,0,1.4,0,2.1,0c0.5,0,1,0,1.5,0c2.6,0,5.2,0,7.8,0c0.5,0,1,0,1.5,0c0.7,0,1.5,0,2.2,0c0.5,0,1.1,0,1.6,0c0.8,0,1.5,0,2.3,0
				c0.5,0,0.9,0,1.4,0c1.8,0,3.5,0,5.3-0.1c0.2,0,0.3,0,0.5,0l0,0c111.8-1.2,248-7.4,248-7.4s-55-26-84.9-45.3
				c-29.9-19.3-147.5-110.9-288.3-116.7s-185.1-32.8-185.1-32.8s-22.2-8.7-34.7-4.8c-5,1.5-19.4-4.8-35-13c1.2,0.4,2.4,0.6,3.5,0.8
				c0,0,8.4-5.1,20.6-12.2c12.2-7.1,39.9-28.9,55.9-45s16.7-21.2,28.9-28.9c4-2.5,16.5-8.9,33.3-16.7c1.6-0.7,3.3-1.5,4.9-2.3
				c5-2.3,10.4-4.7,16-7.1c1.9-0.8,3.8-1.6,5.7-2.4c9.6-4.1,19.7-8.2,30-12c2.1-0.8,4.1-1.5,6.2-2.3c1-0.4,2.1-0.8,3.1-1.1
				c20.6-7.4,41.2-13.6,58.3-16.4c39.3-6.5,89.8-21.9,139.8-41.5c2.2-0.9,4.3-1.7,6.5-2.6c8.7-3.5,17.3-7.1,25.8-10.8
				c2.1-0.9,4.3-1.9,6.4-2.8c4.2-1.9,8.5-3.8,12.6-5.7c2.1-1,4.2-1.9,6.2-2.9c4.1-1.9,8.5-3.9,13-6c3.4-1.6,6.9-3.2,10.5-4.8
				c3.6-1.6,7.2-3.3,11-5c2.5-1.1,5-2.3,7.5-3.4c2.5-1.1,5.1-2.3,7.7-3.5c5.2-2.3,10.4-4.7,15.8-7.1c1.3-0.6,2.7-1.2,4-1.8
				c2.7-1.2,5.3-2.4,8-3.6c1.3-0.6,2.7-1.2,4-1.8c6.7-3,13.4-6,20.1-9c1.3-0.6,2.7-1.2,4-1.8c29.3-13.2,57.2-25.9,77.6-35.7
				c0.9-0.4,1.8-0.9,2.7-1.3c9-4.4,16.3-8.1,21.5-11c1.6-0.9,2.9-1.7,4.1-2.4c0.4-0.2,0.7-0.5,1-0.7c0.1-0.1,0.2-0.2,0.3-0.3
				c0.2-0.2,0.4-0.4,0.7-0.6c0.1-0.1,0.2-0.2,0.4-0.4c0.2-0.2,0.4-0.4,0.6-0.6C1835,113.8,1835.2,113.7,1835.3,113.5z"/>
			<path class="st20" d="M646.9,495.8c0,0,15.9,0.9,21.4,3c5.6,2.1,15.9-0.9,17.6-6.4c1.7-5.6,16.3-18,16.3-18s6-11.1-8.6-15
				c0,0,5.6-8.1-15.4-19.7c0,0,0,0,0,0c0,0,0,0,0,0c0,0,0,0,0,0c0,0,0,0,0-0.1c0,0,0,0,0,0c0,0,0-0.1,0-0.1c0,0,0,0,0,0
				c0-0.1-0.1-0.3-0.2-0.6c0,0,0,0,0,0c0-0.1-0.1-0.2-0.1-0.3c0,0,0,0,0,0c-0.9-2.4-4.4-8.7-18.6-20.9c0,0,0,0,0,0l0,0
				c-4.6-4-10.4-8.6-17.5-13.9c0,0-5.1-13.3-21.4-9.9c0,0-2-2.8-5.7-5.1l0,0c0,0,17-14.3,0-26.6c0,0,19.4-9.9-1.6-25.7
				c-0.8-0.6-1.5-1.1-2.2-1.7c-0.2-0.2-0.4-0.3-0.7-0.5c-0.5-0.4-1-0.8-1.5-1.2c-0.2-0.2-0.4-0.4-0.7-0.5c-0.5-0.4-1-0.8-1.5-1.2
				c-0.2-0.1-0.3-0.3-0.5-0.4c-0.6-0.5-1.3-1-1.9-1.5c-0.1,0-0.1-0.1-0.2-0.1c-0.5-0.5-1.1-0.9-1.6-1.3c-0.1-0.1-0.3-0.2-0.4-0.4
				c-0.4-0.4-0.9-0.7-1.3-1.1c-0.1-0.1-0.3-0.2-0.4-0.3c-0.5-0.4-1-0.8-1.4-1.2c0,0-0.1-0.1-0.1-0.1c-0.5-0.5-1.1-0.9-1.6-1.4l0,0
				c-1.1-1-2.1-1.9-3.1-2.8c9.4,0.1,24.9-4.2,24.9-4.2c6.4-1.9,8.6-14.4,8.6-14.4s5.6,3.4,13.3,0c4.7-2.1,5.9-7.3,6.1-11.1
				c12.2,3.6,20.5-1.6,17.7-8.7c-2.9-7.4-3.8-21.8-3.8-21.8c2.9,0.5,7.4,0.1,13-3.9c2.7-1.9,4-4.5,4.4-7.1l0.2,0
				c14,7.1,20.1-13.5,20.1-13.5c18.6,13.5,25.1-10.3,25.1-10.3c0.7-0.1,1.3-0.2,2-0.3c0.2,0,0.4-0.1,0.6-0.1
				c0.4-0.1,0.8-0.2,1.2-0.3c0.2-0.1,0.5-0.1,0.7-0.2c0.4-0.1,0.7-0.2,1-0.3c0.2-0.1,0.4-0.2,0.7-0.2c0.3-0.1,0.6-0.2,0.9-0.3
				c0.2-0.1,0.4-0.2,0.6-0.3c0.3-0.1,0.6-0.3,0.8-0.4c0.2-0.1,0.4-0.2,0.6-0.3c0.3-0.1,0.5-0.3,0.8-0.5c0.2-0.1,0.3-0.2,0.5-0.3
				c0.3-0.2,0.5-0.4,0.7-0.5c0.1-0.1,0.3-0.2,0.4-0.3c0.3-0.2,0.5-0.4,0.8-0.7c0.1-0.1,0.2-0.2,0.3-0.3c0.3-0.3,0.6-0.7,0.9-1
				c0.1-0.1,0.2-0.2,0.2-0.3c0.2-0.3,0.4-0.5,0.6-0.8c0.1-0.1,0.2-0.3,0.3-0.5c0.2-0.2,0.3-0.5,0.4-0.7c0.1-0.2,0.2-0.4,0.3-0.5
				c0.1-0.2,0.2-0.5,0.4-0.7c0.1-0.2,0.2-0.4,0.3-0.6c0.1-0.2,0.2-0.5,0.3-0.7c0.1-0.2,0.1-0.4,0.2-0.6c0.1-0.3,0.2-0.5,0.2-0.8
				c0.1-0.2,0.1-0.4,0.2-0.6c0.1-0.3,0.1-0.5,0.2-0.8c0.1-0.2,0.1-0.4,0.1-0.6c0.1-0.3,0.1-0.6,0.2-0.9c0-0.2,0.1-0.4,0.1-0.6
				c0.1-0.4,0.1-0.7,0.1-1.1c0-0.2,0.1-0.5,0.1-0.7c0-0.4,0.1-0.9,0.1-1.3c0-0.2,0-0.5,0-0.7c0-0.3,0-0.6,0-0.9c0-0.3,0-0.5,0-0.8
				c0-0.3,0-0.6,0-0.9c0-0.3,0-0.6,0-0.9c0-0.3,0-0.6,0-0.9c0-0.3,0-0.6,0-0.9c0-0.3,0-0.6,0-0.9c0,0,0-0.1,0-0.1c0,0,2.2,6.9,9,7.3
				c6.9,0.4,10.7-8.6,10.7-8.6c2.1,8.6,7.7,12,15.4,10.3s6.9-13.3,7.7-9.9c0.9,3.4,5.6,5.6,12,6c6.4,0.4,9.4-11.1,9.4-11.1
				c0.7,1.3,1.5,2.3,2.4,3.1c0.5,4.1,2.1,10.9,8.2,10.7c5.8-0.2,4.3-3.7,6.3-9.3c0.1,0,0.2-0.1,0.3-0.1c0,0,0,0,0,0
				c0.3-0.2,0.6-0.4,0.9-0.5c0.1-0.1,0.2-0.1,0.3-0.2c0.2-0.2,0.4-0.3,0.6-0.5c0.1-0.1,0.2-0.1,0.2-0.2c0.3-0.2,0.5-0.5,0.7-0.8
				c0,0,0,0,0,0c0.2-0.3,0.4-0.5,0.6-0.8c0.1-0.1,0.1-0.2,0.2-0.3c0.1-0.2,0.3-0.5,0.4-0.7c0.1-0.1,0.1-0.2,0.2-0.3
				c0.2-0.3,0.3-0.7,0.5-1c0,0,0-0.1,0-0.1c0.1-0.3,0.3-0.7,0.4-1c0-0.1,0.1-0.2,0.1-0.4c0.1-0.3,0.2-0.6,0.2-0.9
				c0-0.1,0.1-0.2,0.1-0.4c0-0.2,0.1-0.4,0.1-0.6c0.2-0.2,0.4-0.4,0.7-0.6c11.8-10.8,7.4-13.2,7.4-13.2c-4.5-7-8.4-24.2-8.5-24.5
				c0-0.3,0-0.5,0-0.8c0.1-2.3,0-4.5-0.2-6.4c0-0.1,0-0.2,0-0.2c-0.1-0.6-0.1-1.2-0.2-1.8c0-0.1,0-0.2,0-0.3
				c-2.4-15-12.4-17.8-12.4-17.8s-32.6-18-49.3-40.3S712.1-3,712.1-3s-93.4-19.7-78,0c8.4,10.7,27.6,42.1,43.4,68.4v0
				c0.4,0.6,0.7,1.2,1.1,1.8c0.1,0.1,0.1,0.2,0.2,0.3c0.4,0.6,0.7,1.2,1.1,1.8c0.1,0.1,0.1,0.2,0.2,0.3c0.3,0.6,0.7,1.2,1,1.7
				c0.1,0.1,0.1,0.2,0.2,0.3c0.3,0.6,0.7,1.1,1,1.7c0.1,0.1,0.1,0.2,0.2,0.3c0.3,0.5,0.6,1,0.9,1.6c0.1,0.2,0.2,0.3,0.3,0.5
				c0.3,0.5,0.6,1,0.9,1.5c0,0.1,0.1,0.2,0.1,0.2c2.9,4.9,5.6,9.5,8,13.5c0,0,0,0.1,0.1,0.1c0.3,0.5,0.5,0.9,0.8,1.4
				c0,0,0,0.1,0.1,0.1c0.3,0.5,0.5,0.9,0.8,1.3c0,0,0,0.1,0.1,0.1c0.2,0.4,0.5,0.8,0.7,1.2c0.1,0.1,0.1,0.2,0.2,0.3
				c0.2,0.3,0.4,0.6,0.6,1c0.1,0.1,0.2,0.3,0.2,0.4c1.1,1.8,2,3.4,2.7,4.7c0.1,0.1,0.2,0.3,0.3,0.4c0.1,0.2,0.2,0.3,0.3,0.5
				c0.1,0.1,0.1,0.2,0.2,0.3c0.3,0.5,0.5,0.9,0.8,1.3c0,0,0,0.1,0.1,0.1c0.1,0.2,0.2,0.3,0.3,0.5c0,0,0,0.1,0.1,0.1
				c0.1,0.1,0.1,0.3,0.2,0.4c0.1,0.2,0.2,0.4,0.3,0.5c0,0,0,0.1,0.1,0.1c0.1,0.1,0.1,0.2,0.1,0.2c-0.9,10.7,10.7,37.2,10.7,37.2
				c-11.3-4.6-29.8-11.4-48.2-16.9c-28.3-8.4-70.7-45.6-104.8-67.5C525,36.8,490.3-6.5,490.3-6.5h-126c0,0-10.8-1.3-20.3-1.4
				c0,0,0,0,0,0c-0.3,0-0.5,0-0.8,0c0,0,0,0-0.1,0c-0.2,0-0.5,0-0.7,0c0,0-0.1,0-0.1,0c-0.2,0-0.5,0-0.7,0c0,0-0.1,0-0.1,0
				c-0.2,0-0.4,0-0.7,0c0,0-0.1,0-0.1,0c-0.2,0-0.4,0-0.6,0c-0.1,0-0.1,0-0.2,0c-0.2,0-0.4,0-0.6,0c-0.1,0-0.1,0-0.2,0
				c-0.2,0-0.4,0-0.6,0c-0.1,0-0.1,0-0.2,0c-0.2,0-0.4,0-0.5,0c-0.1,0-0.1,0-0.2,0c-0.2,0-0.3,0-0.5,0c-0.1,0-0.1,0-0.2,0
				c-0.2,0-0.3,0-0.5,0.1c-0.1,0-0.2,0-0.2,0c-0.1,0-0.3,0-0.4,0.1c-0.1,0-0.2,0-0.2,0c-0.1,0-0.3,0-0.4,0.1c-0.1,0-0.2,0-0.2,0
				c-0.1,0-0.3,0-0.4,0.1c-0.1,0-0.2,0-0.2,0c-0.1,0-0.2,0-0.4,0.1c-0.1,0-0.2,0-0.2,0.1c-0.1,0-0.2,0.1-0.3,0.1
				c-0.1,0-0.1,0-0.2,0.1c-0.1,0-0.2,0.1-0.3,0.1c-0.1,0-0.1,0-0.2,0.1c-0.1,0-0.2,0.1-0.3,0.1c-0.1,0-0.1,0.1-0.2,0.1
				c-0.1,0-0.2,0.1-0.2,0.1c-0.1,0-0.1,0.1-0.2,0.1c-0.1,0-0.1,0.1-0.2,0.1c-0.1,0-0.1,0.1-0.2,0.1c-0.1,0-0.1,0.1-0.2,0.1
				c-0.1,0-0.1,0.1-0.2,0.1c-0.1,0-0.1,0.1-0.2,0.1c-0.1,0-0.1,0.1-0.1,0.1c0,0-0.1,0.1-0.1,0.1c0,0-0.1,0.1-0.1,0.1
				c0,0-0.1,0.1-0.1,0.1c0,0-0.1,0.1-0.1,0.1c0,0-0.1,0.1-0.1,0.1c0,0,0,0.1-0.1,0.1c0,0,0,0.1-0.1,0.1c0,0.1,0,0.1,0,0.2
				c0,0,0,0.1,0,0.1c0,0.1,0,0.1,0,0.2c0,0,0,0.1,0,0.1c0,0.1,0,0.1,0,0.2c0,0,0,0.1,0,0.1c0,0.1,0,0.1,0.1,0.2c0,0,0,0.1,0,0.1
				c0,0.1,0.1,0.2,0.1,0.2c0,0,0,0.1,0,0.1c0.1,0.1,0.1,0.2,0.2,0.4c5.1,8.4,18.6,23.1,18.6,23.1c64.3,51.4,187.7,117,187.7,117
				s44.4,14.1,43.7,23.1l17.8,30.4l0,0c-3.7,0.8-6.2,1.4-6.2,1.4c-39.5,13.5-52.1,6.8-84.9,0s-105.1-43.4-105.1-43.4
				C226.4,27.2,200.4,49.4,190.7,36.8c-9.6-12.5-39.5-43.4-39.5-43.4H-2h-6.7l-5.1,64c0,0,118.7,74.9,132.2,75.9s27,9.6,27,9.6
				c56.9,42.4,250.8,105.2,250.8,105.2s56.6,15.9,74.6,23.6s40.7,23.6,54.9,27.4c14.1,3.9,53.6,6.9,53.6,6.9s0.3,1.1,1,2.7
				c-6.3-3.2-31.4,2.6-31.4,2.6s-27.6,0.6-41.1,16.1c-13.5,15.4-70.7,9-70.7,9s-128.6-5.2-181.9-15.8
				c-53.4-10.6-176.2-22.8-285.5,6.8c-31.4,8.5-30.7,36-24.6,57.7c0.2,0.5,0.3,1.1,0.5,1.6c0.1,0.2,0.1,0.4,0.2,0.6
				c0.1,0.3,0.2,0.7,0.3,1c0.1,0.2,0.1,0.4,0.2,0.6c0.1,0.3,0.2,0.6,0.3,0.9c0.1,0.2,0.1,0.4,0.2,0.6c0.1,0.3,0.2,0.6,0.3,0.9
				c0.1,0.2,0.1,0.4,0.2,0.6c0.1,0.4,0.2,0.7,0.4,1c0.1,0.1,0.1,0.3,0.2,0.5c0.2,0.5,0.4,1,0.5,1.4c0.1,0.2,0.1,0.3,0.2,0.5
				c0.1,0.3,0.2,0.6,0.4,1c0.1,0.2,0.1,0.4,0.2,0.6c0.1,0.3,0.2,0.6,0.3,0.8c0.1,0.2,0.2,0.4,0.2,0.6c0.1,0.3,0.2,0.5,0.3,0.8
				c0.1,0.2,0.2,0.4,0.2,0.5c0.1,0.3,0.2,0.6,0.3,0.8c0.1,0.2,0.1,0.3,0.2,0.5c0.2,0.4,0.4,0.8,0.5,1.2c0,0.1,0.1,0.2,0.1,0.3
				c0.1,0.3,0.3,0.6,0.4,0.9c0.1,0.2,0.1,0.3,0.2,0.4c0.1,0.2,0.2,0.5,0.3,0.7c0.1,0.2,0.1,0.3,0.2,0.5c0.1,0.2,0.2,0.4,0.3,0.6
				c0.1,0.1,0.1,0.3,0.2,0.4c0.1,0.2,0.2,0.4,0.3,0.6c0.1,0.1,0.1,0.3,0.2,0.4c0.1,0.2,0.2,0.5,0.3,0.7c0,0.1,0.1,0.2,0.1,0.2
				c0.1,0.3,0.3,0.6,0.4,0.9c0,0.1,0.1,0.2,0.1,0.3c0.1,0.2,0.2,0.4,0.3,0.5c0.1,0.1,0.1,0.2,0.2,0.3c0.1,0.2,0.2,0.3,0.2,0.4
				c0,0.1,0.1,0.2,0.1,0.3c0.1,0.1,0.1,0.3,0.2,0.4c0,0.1,0.1,0.2,0.1,0.2c0.1,0.1,0.1,0.3,0.2,0.4c0,0.1,0.1,0.1,0.1,0.2
				c0.1,0.2,0.2,0.3,0.3,0.5c0,0.1,0.1,0.1,0.1,0.1c0.1,0.1,0.1,0.2,0.2,0.3c0,0,0,0.1,0.1,0.1c0,0.1,0.1,0.2,0.1,0.2
				c0,0,0,0.1,0.1,0.1c0,0.1,0.1,0.1,0.1,0.1c0,0,0,0.1,0,0.1c0,0,0,0.1,0,0.1c0,0,0,0,0,0c0,0,0,0,0,0s11.4,12.8,115.6,7.1
				c15.6-0.9,183.2,11.6,235.3,0c52.1-11.6,147.9-17.4,153-15.4c5.1,1.9,20.8,14.1,59.1,14.1c19.3,0,32.4-0.9,40.6-1.9
				c-12.6,10.8-25.1,21.5-34.8,29.9c0,0,10.7,0.9-69.9,21.4c-80.6,20.6-76.3,25.7-131.1,33.9c-54.9,8.1-281.9,10.7-352.6,58.7
				l14.1,85.7l100.1-6l103.3-3.8l0,0l118.3-4.3c0,0,117.4-50.6,144-69.4c26.6-18.9,76.3-32.6,96.4-32.6S617.4,520.3,646.9,495.8z"/>
			<path class="st20" d="M818.8,522.8c0,0,5.6-13.3-3.4-19.7c-9-6.4-21.9-4.3-21.9-4.3s-16.7-15-23.6-15c-0.3,0-0.5,0-0.8,0
				c-0.1,0-0.1,0-0.2,0c-0.2,0-0.4,0-0.5-0.1c-0.1,0-0.1,0-0.2,0c-0.2,0-0.4-0.1-0.6-0.1c0,0-0.1,0-0.1,0c-0.2,0-0.3-0.1-0.5-0.2
				c-0.1,0-0.1,0-0.2-0.1c-0.2-0.1-0.3-0.1-0.5-0.2c0,0,0,0-0.1,0c-0.2-0.1-0.4-0.2-0.5-0.3c0,0-0.1,0-0.1-0.1
				c-0.1-0.1-0.3-0.2-0.4-0.3c0,0-0.1,0-0.1-0.1c-0.2-0.1-0.4-0.2-0.5-0.3c-2.9-1.9-5.9-4.7-15.2-4.7c-14.1,0-10.3-12.4-24.9-12
				c-14.6,0.4-27.4,19.3-30.9,25.7c-3.4,6.4-39.9,72.4-56.1,83.1c-16.3,10.7-92.6,65.1-92.6,65.1l189-3c0,0,10.3-10.3,17.6-14.6
				c7.3-4.3,43.7-28.3,53.6-48c0,0,16.3-8.1,18.4-10.3c2.1-2.1,18-25.6,8.6-37.5C832.1,526.1,827.4,522.8,818.8,522.8z"/>
			<path class="st20" d="M1031.5,594.8c-0.2-0.3-0.3-0.5-0.4-0.8c0-0.1-0.1-0.2-0.1-0.3c-0.1-0.2-0.2-0.4-0.3-0.6
				c0-0.1-0.1-0.3-0.1-0.4c-0.1-0.2-0.1-0.4-0.2-0.6c0-0.1-0.1-0.3-0.1-0.4c-0.1-0.2-0.1-0.4-0.2-0.7c0-0.1-0.1-0.3-0.1-0.5
				c-0.1-0.2-0.1-0.5-0.2-0.7c0-0.2-0.1-0.3-0.1-0.5c-0.1-0.2-0.1-0.5-0.2-0.8c0-0.2-0.1-0.3-0.1-0.5c-0.1-0.3-0.1-0.6-0.2-0.8
				c0-0.1,0-0.3-0.1-0.4c-0.1-0.4-0.1-0.7-0.2-1.1c-1.7-10-3.7-23.3-20.6-27.6c0,0-9.3-3.5-13.5-10c-4.2-6.4-11.2-7.1-19.9-6.1
				c-8.7,1-10.6-9.3-10.6-9.3s-12.2-15.1-29.6,0c0,0-6.1,5.5-14.5,0.3c-8.4-5.1-24.1-10.9-31.2,10.6c-5.8,17.8-12.1,43-14.1,51.3
				c0,0,0,0,0,0c0,0.1,0,0.1,0,0.2c0,0,0,0,0,0c-0.1,0.5-0.2,1-0.3,1.3c0,0,0,0,0,0c0,0.2-0.1,0.4-0.1,0.5c0,0,0,0,0,0
				c0,0,0,0,0,0.1c0,0.1,0,0.2-0.1,0.3c0,0,0,0,0,0c0,0,0,0,0,0.1c0,0,0,0.1,0,0.1c0,0,0,0.1,0,0.1s-18.3,2.6-21.2,9
				c-2.9,6.4-5.8,19.3-3.9,28.6c0.2,1.2,3.5,2.1,8.8,2.7c0,0,0,0,0,0c0.7,0.1,1.3,0.2,2.1,0.2c0,0,0,0,0,0c0.4,0,0.7,0.1,1.1,0.1
				c0,0,0,0,0,0c0.4,0,0.8,0.1,1.1,0.1c0,0,0,0,0,0c0.4,0,0.8,0.1,1.2,0.1c0,0,0,0,0,0c0.4,0,0.8,0.1,1.2,0.1c0,0,0,0,0,0
				c0.4,0,0.8,0.1,1.2,0.1c0,0,0,0,0,0c0.4,0,0.8,0.1,1.3,0.1c0,0,0,0,0.1,0c0.4,0,0.9,0,1.3,0.1c0,0,0,0,0,0c0.4,0,0.9,0,1.3,0.1
				c0,0,0,0,0.1,0c0.5,0,0.9,0,1.4,0.1c0,0,0.1,0,0.1,0c0.5,0,0.9,0,1.4,0.1c0,0,0,0,0.1,0c0.5,0,1,0,1.4,0.1c0,0,0.1,0,0.1,0
				c0.5,0,1,0,1.5,0c0,0,0.1,0,0.1,0c0.5,0,1,0,1.5,0c0,0,0.1,0,0.1,0c0.5,0,1,0,1.5,0c0,0,0.1,0,0.1,0c0.5,0,1,0,1.5,0
				c0,0,0.1,0,0.1,0c0.5,0,1,0,1.6,0c0,0,0.1,0,0.1,0c0.5,0,1.1,0,1.6,0c0,0,0.1,0,0.1,0c0.5,0,1.1,0,1.6,0c0,0,0.1,0,0.1,0
				c0.6,0,1.1,0,1.7,0c0,0,0,0,0,0c0.6,0,1.1,0,1.7,0c0,0,0.1,0,0.1,0c0.6,0,1.2,0,1.8,0c0,0,0,0,0,0l0,0
				c39.6,0.2,96.6-2.1,123.7-3.4h0c0,0,0,0,0.1,0c0.5,0,0.9,0,1.4-0.1c0.3,0,0.5,0,0.8,0c0.3,0,0.5,0,0.8,0c0.2,0,0.4,0,0.6,0
				c0.4,0,0.9,0,1.3-0.1c0.1,0,0.2,0,0.3,0c0.4,0,0.7,0,1.1-0.1c0.1,0,0.2,0,0.3,0c0.8,0,1.6-0.1,2.4-0.1c0.1,0,0.2,0,0.3,0
				c0.3,0,0.6,0,0.9,0c0.1,0,0.2,0,0.3,0c0.3,0,0.5,0,0.8,0c0.1,0,0.1,0,0.2,0c0.3,0,0.6,0,0.8,0c0,0,0.1,0,0.1,0c0.2,0,0.5,0,0.7,0
				c0.1,0,0.2,0,0.3,0c0.2,0,0.4,0,0.6,0c0,0,0,0,0,0c0.4,0,0.7,0,0.9,0c0.1,0,0.2,0,0.3,0c0.1,0,0.2,0,0.3,0c0,0,0.1,0,0.1,0
				c0,0,0,0,0,0s1.3-19.9,0-25.4C1030.9,610,1036.3,602.9,1031.5,594.8z"/>
			<path class="st20" d="M867.6,460.4C867.6,460.4,867.6,460.4,867.6,460.4l9.1,0c3.1,0,5.7-2.5,5.7-5.7V424c0-2.7,1.9-5,4.6-5.5
				c16.2-3,31.1-10.8,42.8-22.5c4.9-4.9,9.1-10.3,12.6-16.3c22.8-38.8,9.9-88.7-28.9-111.5c-5.2-3.1-10.8-5.6-16.6-7.4
				c-8.3-2.6-17.2-2-25.1,1.6c-5.9,2.6-9.7,8.5-9.8,15v113.8c0,3.1-2.5,5.7-5.7,5.7c-0.6,0-1.1-0.1-1.6-0.2
				c-25.7-7.7-43.4-31.4-43.4-58.3c0-0.8,0-1.6,0-2.5v-0.8c0-0.6,0.1-1.3,0.1-1.9v-0.5c0.1-1.6,0.4-3.3,0.7-4.9l0.1-0.5
				c0.1-0.7,0.3-1.4,0.4-2.1c0-0.1,0.1-0.2,0.1-0.4c0.4-1.6,0.8-3.3,1.3-4.9l0.1-0.3c0.2-0.8,0.5-1.5,0.8-2.3c0.6-1.6,1.3-3.3,2-4.7
				l0.1-0.3c0.7-1.5,1.5-3,2.4-4.5v-0.1c0.4-0.7,0.8-1.3,1.2-2c0.1-0.1,0.2-0.3,0.3-0.4c0.4-0.6,0.8-1.2,1.2-1.8l0.2-0.2
				c0.5-0.6,0.9-1.3,1.4-1.9l0.4-0.6c2.1-2.6,4.3-5.1,6.8-7.4c1-1,2.1-1.9,3.3-2.7c3-2.3,3.6-6.5,1.3-9.5c-0.2-0.2-0.4-0.5-0.6-0.7
				l-5-5c-2.4-2.4-6.3-2.7-9-0.5c-3.8,3.1-7.4,6.5-10.6,10.3l-0.1,0.1c-0.7,0.8-1.4,1.6-2.1,2.6c-0.7,0.8-1.3,1.6-1.9,2.5l-0.3,0.4
				c-1,1.7-2.2,3.5-3.3,5.4l-0.3,0.5c-1.1,1.9-2.1,3.8-3.1,5.7c-0.1,0.2-0.2,0.4-0.3,0.6c-0.4,0.9-0.8,1.8-1.2,2.7l-0.2,0.2
				c-0.4,1-0.8,2-1.2,3l-0.2,0.6c-0.3,0.9-0.7,1.8-1,2.7l-0.1,0.4c-0.3,1-0.6,2.1-0.9,3.1l-0.1,0.6c-0.2,0.9-0.5,1.8-0.7,2.7
				c0,0.2-0.1,0.5-0.2,0.7c-0.2,1.1-0.5,2.1-0.7,3.3c0,0.1,0,0.3,0,0.4c-0.2,0.9-0.4,2-0.5,2.8c0,0.3-0.1,0.5-0.1,0.8
				c-0.1,1.1-0.3,2.2-0.4,3.3c0,0.1,0,0.2,0,0.4c-0.1,1-0.2,2-0.2,3c0,0.3,0,0.6,0,0.9c0,1.1,0,2.2,0,3.4h-0.1
				c0,39.2,28,72.9,66.5,80c2.7,0.5,4.7,2.8,4.7,5.6v30.7C861.9,457.9,864.4,460.4,867.6,460.4z M882.3,291.3c0-5.4,4.4-9.7,9.8-9.7
				c1.3,0,2.5,0.3,3.7,0.7c31,13,45.6,48.6,32.7,79.6c-0.4,1-0.8,1.9-1.3,2.9v0.1c-7.5,15.4-21.1,27-37.6,31.9c-3,0.9-6.1-0.8-7-3.8
				c-0.2-0.5-0.2-1.1-0.2-1.6V291.3z"/>
		</g>
	</g>
</g>
<g id="Capa_3">
	<g>
		<path class="st21" d="M657.2,259.3c-0.6-1.5-1.2-2.9-1.9-4.3c-0.7-1.4-1.3-2.8-2.1-4.2c-1.5-2.7-3.2-5.4-5.2-7.8
			c-0.5-0.6-1-1.2-1.6-1.7l-0.8-0.8l-0.9-0.8c-0.6-0.5-1.2-1-1.8-1.5c-0.6-0.5-1.2-1.1-1.7-1.7c-1.1-1.2-2.1-2.5-2.8-3.9
			c-0.7-1.4-1.2-3.1-0.7-4.7c-0.3,1.6,0.3,3.1,1.1,4.4c0.8,1.3,1.8,2.5,2.9,3.6c0.6,0.5,1.2,1,1.8,1.5c0.6,0.5,1.2,1,1.8,1.5
			l0.9,0.8l0.9,0.9c0.6,0.6,1.1,1.2,1.6,1.8c2.1,2.5,3.7,5.2,5.1,8.1C655.3,253.2,656.4,256.2,657.2,259.3z"/>
	</g>
	<g>
		<path class="st21" d="M647.4,291.2c-0.4-2.1-0.9-4.2-1.5-6.2c-0.6-2-1.4-4-2.2-6c-0.9-1.9-1.9-3.8-3.1-5.5c-0.7-0.8-1.2-1.7-2-2.4
			c-0.4-0.4-0.7-0.8-1.1-1.1l-1.2-1c-0.4-0.4-0.8-0.6-1.3-0.9c-0.4-0.3-0.9-0.6-1.3-0.8c-0.9-0.5-1.9-1-2.8-1.6
			c-1.8-1.1-3.7-2.3-5.3-3.6c-1.7-1.4-3.2-2.9-4.4-4.8c-0.5-0.9-1-1.9-1.3-3c-0.3-1-0.4-2.1-0.5-3.2c0.2,1.1,0.4,2.1,0.8,3.1
			c0.4,1,0.9,1.9,1.4,2.8c1.2,1.7,2.8,3.2,4.5,4.4c1.7,1.2,3.5,2.4,5.3,3.4c0.9,0.5,1.9,1,2.8,1.6c0.5,0.3,0.9,0.6,1.4,0.9
			c0.5,0.3,0.9,0.6,1.4,0.9l1.2,1.1c0.4,0.4,0.8,0.8,1.1,1.2c0.8,0.8,1.4,1.7,2,2.5c1.2,1.8,2.3,3.7,3,5.7
			C646,282.7,647.1,286.9,647.4,291.2z"/>
	</g>
	<g>
		<path class="st21" d="M627.7,302.1c-0.4-1.3-0.9-2.6-1.6-3.8c-0.6-1.2-1.3-2.4-2.1-3.5c-0.8-1.1-1.7-2.1-2.8-3
			c-1-0.9-2.1-1.6-3.3-2.4c-2.3-1.6-4.5-3.4-6.5-5.4c-1-1-1.9-2.1-2.7-3.2c-0.8-1.2-1.5-2.4-1.8-3.8c0.4,1.3,1.2,2.5,2.1,3.5
			c0.9,1.1,1.9,2,2.9,2.9c2.1,1.8,4.2,3.5,6.5,5.1c1.1,0.8,2.3,1.6,3.4,2.6c1,1,2,2.1,2.8,3.3C626.1,296.7,627.2,299.4,627.7,302.1z
			"/>
	</g>
	<g>
		<path class="st21" d="M579.2,306c1.7,0.5,3.6,0.6,5.1-0.1c0.7-0.4,1.4-0.9,1.8-1.6c0.3-0.3,0.4-0.7,0.6-1.1
			c0.2-0.4,0.3-0.8,0.4-1.2l0.9,0.3c-0.3,0.8-0.5,1.7-0.6,2.6c-0.1,0.9,0.1,1.8,0.4,2.6c0.3,0.8,0.8,1.6,1.5,2.1
			c0.3,0.3,0.7,0.5,1.1,0.8c0.4,0.2,0.8,0.4,1.2,0.6c-0.5-0.1-0.9-0.2-1.4-0.4c-0.4-0.2-0.9-0.4-1.3-0.7c-0.8-0.5-1.5-1.3-2-2.2
			c-0.5-0.9-0.6-1.9-0.6-2.9c0-1,0.2-2,0.6-2.9l0.9,0.3c-0.2,0.4-0.3,0.9-0.5,1.3c-0.2,0.4-0.4,0.9-0.7,1.2
			c-0.5,0.8-1.4,1.4-2.3,1.8c-0.9,0.4-1.9,0.4-2.8,0.3C580.9,306.7,580,306.4,579.2,306z"/>
	</g>
	<path class="st22" d="M665.3,224.6c0,0-2.5-10.7-2.1-15.5"/>
	<g>
		<path class="st23" d="M698.6,236.1l-1.4-8.5c-0.5-2.8-1-5.7-1.7-8.4c-0.1-0.3-0.2-0.7-0.3-1c-0.1-0.3-0.2-0.6-0.4-0.9l-0.1-0.2
			l-0.2-0.3c-0.1-0.2-0.2-0.4-0.3-0.5c-0.1-0.4-0.3-0.7-0.4-1.1c-0.4-1.4-0.7-2.9-0.8-4.3c-0.4-2.9-0.5-5.8-0.5-8.6
			c0.2,1.4,0.4,2.9,0.6,4.3c0.2,1.4,0.4,2.8,0.7,4.2c0.3,1.4,0.5,2.8,1,4.1c0.1,0.3,0.2,0.6,0.4,1c0.1,0.2,0.2,0.3,0.2,0.4l0.3,0.5
			c0.2,0.4,0.4,0.7,0.5,1.1c0.1,0.4,0.2,0.7,0.3,1.1c0.8,2.8,1.2,5.7,1.5,8.5C698.2,230.4,698.5,233.3,698.6,236.1z"/>
	</g>
	<g>
		<path class="st23" d="M723.7,225.8c-0.1-1.6-0.2-3.2-0.4-4.9c-0.1-1.6-0.3-3.2-0.5-4.8c-0.4-3.2-0.9-6.4-1.8-9.5
			c-0.8-3.1-2.1-6.1-2.7-9.4c-0.3-1.6-0.4-3.3-0.3-4.9c0.2-1.6,0.6-3.2,1.2-4.8c-0.8,3.1-0.9,6.4-0.1,9.5c0.8,3.1,2,6.1,2.9,9.3
			c0.9,3.2,1.4,6.4,1.6,9.7C723.7,219.3,723.8,222.6,723.7,225.8z"/>
	</g>
	<g>
		<path class="st24" d="M761.4,198.4c-0.7-2-1.2-4.1-1.7-6.1c-0.5-2.1-1-4.1-1.4-6.2c-0.4-2.1-0.8-4.2-1.1-6.3
			c-0.3-2.1-0.6-4.2-0.7-6.3c0.3,1,0.5,2.1,0.8,3.1l0.7,3.1c0.5,2.1,0.9,4.1,1.3,6.2c0.4,2.1,0.8,4.2,1.2,6.3l0.5,3.1
			C761.1,196.3,761.2,197.4,761.4,198.4z"/>
	</g>
	<g>
		<path class="st24" d="M784.5,198.8c-0.4-2.3-0.7-4.5-1-6.8c-0.3-2.3-0.5-4.5-0.7-6.8c-0.2-2.3-0.4-4.6-0.5-6.8l-0.2-3.4
			c0-1.1-0.1-2.3-0.1-3.4c0.2,1.1,0.4,2.3,0.5,3.4l0.4,3.4c0.3,2.3,0.5,4.5,0.7,6.8c0.2,2.3,0.4,4.6,0.5,6.8
			C784.4,194.3,784.5,196.6,784.5,198.8z"/>
	</g>
	<g>
		<path class="st24" d="M805.9,193.7l0-9.5c0-3.2-0.1-6.3-0.2-9.5c-0.1-1.6-0.3-3.1-0.4-4.7c-0.1-1.6-0.2-3.2-0.2-4.8
			c0-3.2,0.3-6.4,0.8-9.5c-0.1,1.6-0.1,3.2-0.1,4.7c0,1.6,0,3.2,0.1,4.7c0.1,1.6,0.2,3.1,0.4,4.7c0.2,1.5,0.4,3.2,0.5,4.7
			c0.2,3.2,0.2,6.4,0,9.5C806.6,187.4,806.4,190.6,805.9,193.7z"/>
	</g>
	<g>
		<path class="st25" d="M863.8,170.1c-0.3-1.9-0.5-3.8-0.8-5.6c-0.3-1.9-0.6-3.7-0.9-5.6c-0.6-3.7-1.3-7.4-2-11.1
			c-0.7-3.7-1.8-7.3-3.3-10.7c-0.7-1.7-1.6-3.4-2.6-5c-0.5-0.8-1-1.6-1.6-2.3c-0.3-0.4-0.6-0.7-0.9-1.1c-0.3-0.3-0.7-0.7-1.1-0.9
			c0.9,0.4,1.6,1.1,2.2,1.8c0.7,0.7,1.2,1.5,1.8,2.2c1.1,1.6,2.1,3.2,2.9,4.9c1.7,3.4,2.8,7.1,3.6,10.8c0.7,3.7,1.4,7.5,1.8,11.2
			C863.3,162.6,863.7,166.3,863.8,170.1z"/>
	</g>
	<g>
		<path class="st25" d="M889.5,171c-1.3-3.2-2.4-6.4-3.5-9.6c-1.1-3.2-2-6.5-2.8-9.9c-0.2-0.8-0.3-1.7-0.5-2.5
			c-0.1-0.8-0.3-1.7-0.4-2.5c-0.3-1.7-0.6-3.3-0.9-5c-0.6-3.3-1.4-6.7-1.7-10.1c0.3,1.7,0.8,3.3,1.2,5l1.2,5c0.4,1.7,0.8,3.3,1.1,5
			c0.2,0.8,0.3,1.7,0.4,2.5c0.1,0.8,0.3,1.6,0.5,2.5c0.7,3.3,1.7,6.6,2.5,9.9L889.5,171z"/>
	</g>
	<g>
		<path class="st25" d="M913.9,164.1c-0.6-1.8-1.1-3.6-1.7-5.4l-1.6-5.5c-1.1-3.6-2.1-7.3-3.2-10.9c-0.3-0.9-0.5-1.8-0.8-2.7
			c-0.3-0.9-0.6-1.8-0.8-2.8c-0.4-1.9-0.6-3.8-0.8-5.7c-0.3-3.8-0.3-7.6-0.2-11.4c0.1,1.9,0.2,3.8,0.4,5.7c0.1,1.9,0.3,3.8,0.5,5.6
			c0.2,1.9,0.5,3.7,0.9,5.6c0.2,0.9,0.5,1.8,0.8,2.7c0.3,0.9,0.6,1.8,0.9,2.7c1.1,3.7,2.1,7.3,3,11
			C912.3,156.7,913.2,160.4,913.9,164.1z"/>
	</g>
	<g>
		<path class="st25" d="M935.8,157.1c0.2-2.1,0.3-4.1,0.2-6.2c0-2.1-0.2-4.1-0.4-6.2c-0.2-2-0.5-4.1-0.5-6.2c-0.1-2.1,0-4.2,0.2-6.3
			c0.3-4.2,1-8.3,1-12.4c0-0.5,0-1-0.1-1.5c0-0.5-0.1-1-0.2-1.5l-0.2-1.6c0-0.5-0.1-1.1-0.1-1.6c0-1.1,0.3-2.1,0.8-3.1
			c0.6-0.9,1.5-1.6,2.5-1.7c-1,0.3-1.9,1-2.3,1.9c-0.5,0.9-0.6,1.9-0.6,2.9c0,0.5,0.1,1,0.1,1.5l0.3,1.5c0.1,0.5,0.2,1,0.3,1.6
			c0.1,0.5,0.1,1,0.1,1.6c0.1,2.1,0,4.2-0.2,6.3c-0.2,2.1-0.4,4.1-0.5,6.2c-0.2,2.1-0.3,4.1-0.3,6.2c0,2.1,0.3,4.1,0.4,6.2
			C936.6,148.8,936.6,153,935.8,157.1z"/>
	</g>
	<g>
		<path class="st26" d="M1071.7,279c1.5-3.4,3.2-6.7,4.9-9.9c1.8-3.2,3.7-6.4,5.8-9.4c2.2-3,4.4-6,7.3-8.4l2.2-1.6
			c0.7-0.6,1.2-1.3,1.6-2.1c0.4-0.8,0.6-1.7,0.7-2.6c0.1-0.9,0-1.8-0.1-2.7c0.5,1.8,0.6,3.7-0.2,5.5c-0.4,0.9-0.9,1.7-1.6,2.3
			c-0.2,0.2-0.4,0.3-0.6,0.5l-0.5,0.4l-1,0.8c-2.6,2.5-4.9,5.4-7,8.4c-2.1,3-4.1,6.1-6,9.2c-1,1.6-1.9,3.1-2.8,4.7
			C1073.5,275.8,1072.6,277.4,1071.7,279z"/>
	</g>
	<g>
		<path class="st26" d="M1064.4,259.7c1.3-2.6,2.6-5.2,4-7.7c1.4-2.6,2.8-5.1,4.2-7.6c1.4-2.5,2.9-5,4.3-7.5l2.2-3.7
			c0.8-1.2,1.5-2.5,2.3-3.7c-1.1,2.7-2.5,5.3-3.8,7.8c-1.3,2.6-2.7,5.1-4.1,7.6c-1.4,2.5-2.9,5-4.4,7.5
			C1067.5,254.8,1066,257.3,1064.4,259.7z"/>
	</g>
	<g>
		<path class="st26" d="M1062.7,243.4c1.1-2.6,2.2-5.1,3.4-7.7c1.1-2.6,2.2-5.1,3.3-7.7c1.1-2.6,2-5.1,2.6-7.8
			c0.3-1.3,0.5-2.7,0.7-4.1c0.2-1.4,0.3-2.8,0.3-4.2c0.4,2.8,0.2,5.6-0.2,8.4c-0.2,1.4-0.5,2.8-0.9,4.1c-0.4,1.3-0.9,2.7-1.4,4
			c-1.1,2.6-2.2,5.1-3.5,7.6C1065.4,238.6,1064.1,241,1062.7,243.4z"/>
	</g>
	<g>
		<path class="st27" d="M995.6,236c-0.3-3.7-0.4-7.4-0.3-11.1c0-3.7,0.3-7.4,0.7-11.1c0.5-3.7,1.1-7.4,2.5-10.9l1.2-2.5
			c0.3-0.8,0.5-1.7,0.4-2.6c0-0.9-0.2-1.8-0.6-2.6c-0.3-0.8-0.9-1.6-1.4-2.4c1.3,1.3,2.2,3,2.4,4.9c0.1,1,0,1.9-0.3,2.8
			c-0.1,0.2-0.2,0.5-0.3,0.7l-0.3,0.6l-0.5,1.2c-1.2,3.4-1.8,7.1-2.2,10.7c-0.5,3.6-0.7,7.3-0.9,11c-0.1,1.8-0.2,3.7-0.3,5.5
			C995.7,232.3,995.6,234.1,995.6,236z"/>
	</g>
	<g>
		<path class="st27" d="M980.1,222.4c-0.1-2.9-0.1-5.8-0.1-8.7c0-2.9,0.1-5.8,0.1-8.7c0.1-2.9,0.2-5.8,0.3-8.7l0.2-4.3
			c0.1-1.4,0.1-2.9,0.2-4.3c0.2,2.9,0.3,5.8,0.3,8.7c0,2.9,0,5.8-0.1,8.7c-0.1,2.9-0.2,5.8-0.3,8.7
			C980.5,216.6,980.4,219.5,980.1,222.4z"/>
	</g>
	<g>
		<path class="st27" d="M970.9,208.8c-0.2-2.8-0.4-5.6-0.6-8.3c-0.2-2.8-0.4-5.5-0.7-8.3c-0.3-2.8-0.7-5.5-1.4-8.1
			c-0.4-1.3-0.8-2.6-1.3-3.9c-0.5-1.3-1-2.6-1.7-3.8c1.6,2.3,2.8,4.9,3.7,7.5c0.5,1.3,0.8,2.7,1.1,4.1c0.3,1.4,0.4,2.8,0.6,4.2
			c0.3,2.8,0.4,5.6,0.5,8.4C971.1,203.3,971.1,206.1,970.9,208.8z"/>
	</g>
	<g>
		<path class="st26" d="M1081.1,291c2.7,0.5,5.4,0.8,8.1,0.8c2.7,0,5.4-0.1,8-0.7c2.7-0.5,4.9-2,7.1-3.5c2.2-1.6,4.2-3.3,6.2-5.1
			c4-3.6,7.8-7.5,11.4-11.5c0.9-1,1.8-2.1,2.4-3.1c0.5-1.1,0.7-2.5,0.9-3.8c0.5-2.7,0.8-5.3,1.2-8l0.6,0c0,1.1,0.1,2.2,0.2,3.3
			c0.1,1.1,0.3,2.2,0.8,3.2c0.2,0.5,0.6,0.9,1.1,1c0.5,0.1,1-0.2,1.5-0.5c0.9-0.7,1.6-1.6,2.3-2.5c-0.6,0.9-1.2,1.9-2.1,2.6
			c-0.4,0.4-1,0.7-1.6,0.6c-0.7-0.1-1.1-0.6-1.4-1.1c-0.6-1-0.8-2.2-1-3.3c-0.2-1.1-0.3-2.2-0.3-3.4l0.6,0c-0.2,2.7-0.5,5.4-0.9,8.1
			c-0.1,0.7-0.2,1.3-0.4,2c-0.2,0.7-0.3,1.4-0.6,2c-0.8,1.3-1.6,2.3-2.5,3.3c-3.5,4.1-7.4,8-11.4,11.6c-2,1.8-4.1,3.6-6.4,5.1
			c-1.1,0.8-2.3,1.5-3.5,2.1c-0.6,0.4-1.3,0.5-1.9,0.8c-0.7,0.2-1.3,0.4-2,0.5c-2.7,0.5-5.4,0.7-8.2,0.5
			C1086.4,292.1,1083.7,291.7,1081.1,291z"/>
	</g>
	<g>
		<path class="st27" d="M1009.7,243.7c2.5-1.1,4.9-2.4,7.1-3.8c2.3-1.5,4.4-3.1,6.2-5.1c1.9-1.9,2.9-4.4,3.9-6.9
			c0.9-2.5,1.6-5.1,2.3-7.7c1.2-5.3,2.2-10.6,2.9-15.9c0.1-1.3,0.3-2.7,0.3-3.9c-0.2-1.2-0.9-2.5-1.4-3.7c-1.1-2.5-2.3-4.9-3.6-7.3
			l0.5-0.3c0.6,0.9,1.3,1.8,2,2.6c0.7,0.8,1.5,1.6,2.4,2.2c0.5,0.2,1,0.4,1.5,0.2c0.5-0.2,0.7-0.7,0.9-1.2c0.4-1,0.4-2.2,0.5-3.3
			c0,1.1,0,2.3-0.3,3.4c-0.2,0.5-0.4,1.1-1,1.4c-0.6,0.3-1.2,0.1-1.7-0.2c-1-0.5-1.9-1.3-2.7-2.2c-0.8-0.8-1.5-1.7-2.1-2.6l0.5-0.3
			c1.3,2.4,2.6,4.8,3.8,7.2c0.3,0.6,0.6,1.2,0.8,1.9c0.3,0.6,0.5,1.3,0.7,2c0.1,1.5-0.1,2.8-0.2,4.2c-0.6,5.4-1.5,10.8-2.9,16.1
			c-0.7,2.6-1.4,5.3-2.4,7.8c-0.5,1.3-1,2.5-1.7,3.7c-0.3,0.6-0.8,1.2-1.1,1.7c-0.4,0.5-0.9,1.1-1.4,1.5c-1.9,1.9-4.1,3.6-6.5,5
			C1014.7,241.6,1012.3,242.8,1009.7,243.7z"/>
	</g>
	<g>
		<path class="st28" d="M1116.4,362.1c1.4-2.6,3.1-5.1,4.7-7.6l2.4-3.7c0.8-1.3,1.6-2.5,2.2-3.8c-0.3,1.5-0.8,2.9-1.5,4.2
			c-0.7,1.3-1.4,2.6-2.2,3.9C1120.3,357.6,1118.5,360,1116.4,362.1z"/>
	</g>
	<g>
		<path class="st28" d="M1142.1,384c1,0.6,2.1,0.9,3.3,1c1.1,0.1,2.3,0.1,3.4-0.2l-0.1,0.1c2.1-2.8,5.5-4.3,8.8-5.2
			c1.7-0.4,3.4-0.6,5.1-0.7c1.7,0,3.5,0.1,5.2,0.7c0.8,0.3,1.7,0.7,2.3,1.6c0.3,0.4,0.4,1,0.3,1.5c-0.1,0.5-0.2,0.9-0.4,1.3
			c-0.8,1.6-1.8,3-2.9,4.4c-2.2,2.7-4.7,5.1-7.3,7.3c-2.6,2.2-5.5,4.2-8.5,5.8c-1.5,0.8-3.2,1.4-4.9,1.8c-1.7,0.3-3.4,0.5-5.2,0.5
			c-3.4,0-6.9-0.4-10.2-0.9c-3.4-0.6-6.7-1.3-10-2.3c3.3,0.7,6.7,1.4,10.1,1.8c3.4,0.4,6.8,0.8,10.1,0.7c6.9,0.3,12.8-3.8,18-8.1
			c2.6-2.2,5-4.5,7.2-7.1c1.1-1.3,2.1-2.7,2.8-4.1c0.3-0.7,0.6-1.5,0.2-2c-0.3-0.6-1.1-1-1.9-1.2c-1.5-0.5-3.2-0.7-4.9-0.7
			c-1.7,0-3.4,0.2-5,0.5c-1.6,0.4-3.2,0.9-4.7,1.7c-1.5,0.8-2.9,1.8-3.9,3.1l0,0l0,0c-1.2,0.2-2.4,0.3-3.5,0.1
			C1144.2,385,1143.1,384.6,1142.1,384z"/>
	</g>
	<g>
		<path class="st21" d="M1020,516.6c2.1,0.3,4.1,0.7,6.1,1.1c2,0.4,4.1,0.8,6.1,1.3c2,0.5,4,1,6,1.6c2,0.6,4,1.3,5.9,2.3l-0.5,0
			c0.2-0.2,0.4-0.6,0.5-1c0.1-0.4,0-0.8,0-1.2c-0.1-0.9-0.5-1.7-0.9-2.5c-0.4-0.8-0.9-1.6-1.4-2.3c-0.5-0.8-1.1-1.5-1.7-2.2l0.7-0.6
			c1.7,2.2,3.5,4.4,5.3,6.5c1.8,2.1,3.7,4.2,5.8,6c0.5,0.5,1.1,0.9,1.6,1.3c0.6,0.4,1.1,0.8,1.7,1.2c1.1,0.8,2.2,1.7,3.3,2.6
			c2.1,1.8,4.3,3.5,6.6,5.1l-0.4,0.5c-1.1-0.9-2.4-1.7-3.8-2.3c-1.3-0.6-2.7-1.1-4.2-1.3c-1.5-0.2-3-0.1-4.3,0.5
			c-1.4,0.6-2.4,1.7-3.4,2.8c0.9-1.2,1.9-2.4,3.3-3c1.4-0.7,2.9-0.9,4.5-0.7c1.5,0.1,3,0.6,4.4,1.2c1.4,0.6,2.7,1.4,3.9,2.3
			l-0.4,0.5c-2.3-1.5-4.6-3.2-6.8-5c-1.1-0.9-2.2-1.7-3.3-2.6c-0.6-0.4-1.1-0.8-1.7-1.2c-0.6-0.4-1.2-0.9-1.7-1.3
			c-2.2-1.9-4.1-3.9-5.9-6c-1.8-2.1-3.6-4.3-5.3-6.5l0.7-0.6c0.6,0.7,1.2,1.5,1.7,2.3c0.5,0.8,1,1.6,1.5,2.5
			c0.4,0.9,0.8,1.8,0.9,2.8c0.1,1,0.1,2.1-0.8,3l-0.2,0.2l-0.3-0.2c-1.8-1-3.7-1.7-5.7-2.4c-2-0.6-3.9-1.2-6-1.8c-2-0.5-4-1.1-6-1.5
			C1024.1,517.5,1022,517,1020,516.6z"/>
	</g>
	<g>
		<path class="st25" d="M1088.1,633c-1.3-0.7-2.3-1.7-3.3-2.8c-1-1-1.9-2.2-2.7-3.3c-1.7-2.4-3-4.9-4.4-7.5
			c-1.3-2.6-2.5-5.2-3.7-7.8c-1.2-2.6-2.3-5.2-3.4-7.9l0.9-0.3c0.8,2.3,1.4,4.5,1.8,6.9c0.2,1.2,0.3,2.4,0.2,3.6
			c-0.1,0.6-0.2,1.3-0.6,1.8c-0.4,0.6-1.1,1-1.8,1l0.2-0.7c1.1,0.8,2.1,1.6,3,2.4c1,0.9,1.9,1.8,2.7,2.8c0.4,0.5,0.8,1.1,1,1.7
			c0.1,0.3,0.2,0.6,0.2,1c0,0.3-0.1,0.7-0.3,1c-0.4,0.6-1.1,0.8-1.8,0.9c-0.6,0.1-1.3,0.1-1.9,0.2c0.6-0.1,1.3-0.1,1.9-0.3
			c0.6-0.2,1.2-0.4,1.6-0.9c0.4-0.5,0.2-1.1,0-1.7c-0.3-0.6-0.6-1.1-1.1-1.5c-1.7-1.9-3.7-3.5-5.8-4.9l-0.9-0.6l1.1-0.1
			c1-0.1,1.5-1.1,1.6-2.2c0.1-1.1,0-2.3-0.2-3.4c-0.4-2.3-1-4.5-1.8-6.7l0.9-0.3c1.1,2.6,2.2,5.3,3.4,7.9c1.1,2.6,2.3,5.2,3.5,7.8
			c1.2,2.6,2.5,5.2,4.1,7.5C1084,629,1085.7,631.3,1088.1,633z"/>
	</g>
	<g>
		<path class="st26" d="M874.4,597.7c0.2,0.6,0.2,1.3,0.2,1.9c0,0.7-0.1,1.3-0.3,1.9c-0.2,0.6-0.4,1.3-0.8,1.8
			c-0.4,0.6-0.8,1.1-1.4,1.4c0.6-1.2,0.9-2.3,1.3-3.5C873.7,600.2,874,599,874.4,597.7z"/>
	</g>
	<g>
		<path class="st27" d="M805.1,573.8c1.4-2.1,2.8-4.2,4-6.4c0.6-1.1,1.2-2.2,1.7-3.3c0.2-0.5,0.4-1.3,0.8-1.8c0.4-0.5,0.9-1,1.4-1.4
			c1-0.8,2.1-1.5,3.1-2.2c1.1-0.7,2.1-1.4,3.1-2.1c2.1-1.4,4.1-2.9,6-4.5l0.6,0.6c-1.7,1.6-3.4,3.2-5,4.9c-0.8,0.9-1.6,1.7-2.4,2.6
			c-0.4,0.4-0.7,0.9-1.1,1.4c-0.1,0.2-0.3,0.5-0.4,0.8c-0.1,0.2-0.1,0.6,0.2,0.7c-0.1,0-0.3-0.1-0.3-0.3c0-0.1,0-0.3,0-0.5
			c0.1-0.3,0.2-0.6,0.3-0.8c0.3-0.5,0.6-1,1-1.5c0.7-1,1.4-1.9,2.2-2.8c1.6-1.8,3.2-3.5,4.8-5.2l0.6,0.6c-1.9,1.7-3.9,3.3-6,4.7
			c-2.1,1.4-4.3,2.7-6.3,4.1c-0.5,0.4-0.9,0.8-1.3,1.2c-0.3,0.5-0.5,0.9-0.8,1.6c-0.5,1.2-1.2,2.3-1.9,3.3
			C808.2,569.9,806.7,571.9,805.1,573.8z"/>
	</g>
	<g>
		<path class="st27" d="M818.8,522.8c-1,0.5-2,0.9-3,1.3l-3,1.3l-6.1,2.5l-6.1,2.5c-1,0.4-2,0.9-3,1.3l-1.5,0.7
			c-0.5,0.2-1,0.5-1.5,0.7c0.9-0.7,1.8-1.3,2.7-1.8c1-0.5,1.9-1.1,2.9-1.6c2-1,4-1.9,6-2.7c2-0.8,4.1-1.6,6.2-2.3
			C814.6,524,816.7,523.4,818.8,522.8z"/>
	</g>
	<g>
		<path class="st27" d="M793.5,498.8c-2.7,0.9-5.4,1.6-8.1,2.2c-2.7,0.6-5.4,1.2-8.2,1.6c2.6-1.1,5.3-1.9,8-2.5
			C788,499.5,790.7,499,793.5,498.8z"/>
	</g>
	<g>
		<path class="st23" d="M693.7,459.4c-3-0.2-5.9-0.6-8.9-1.1c-2.9-0.5-5.9-1.1-8.8-1.9c-2.9-0.8-5.8-1.6-8.6-2.7
			c-2.8-1.1-5.5-2.3-8.1-3.8c1.4,0.5,2.7,1.2,4.2,1.6c1.4,0.6,2.8,1,4.2,1.5c2.8,0.9,5.7,1.7,8.6,2.5c2.9,0.8,5.8,1.4,8.7,2.1
			c1.4,0.3,2.9,0.7,4.4,1C690.7,458.8,692.2,459.1,693.7,459.4z"/>
	</g>
	<g>
		<path class="st23" d="M646.9,495.8c1.9-0.9,3.9-1.9,5.8-2.8c1.9-1,3.8-2,5.6-3.1c1.8-1.1,3.6-2.3,5.3-3.5c0.8-0.6,1.7-1.3,2.4-2.1
			c0.7-0.7,1.4-1.6,1.8-2.5l0.5-1.2l0.3,1.3c0.2,0.6,0.6,1.3,1.2,1.7c0.6,0.5,1.3,0.8,2,1c1.5,0.4,3.1,0.3,4.7,0.1
			c0.8-0.2,1.6-0.3,2.4-0.5c0.8-0.2,1.6-0.4,2.3-0.7c1.5-0.5,3-1.2,4.5-1.8l0.4,0.8c-2.7,1.4-5.3,2.9-7.8,4.5
			c-1.2,0.9-2.5,1.7-3.6,2.8c-0.5,0.5-1,1.1-1.4,1.7c-0.4,0.6-0.6,1.4-0.2,2.1c-0.4-0.7-0.3-1.5,0.1-2.2c0.4-0.7,0.8-1.3,1.4-1.9
			c1.1-1.1,2.2-2.1,3.5-3c2.5-1.8,5.1-3.4,7.8-4.9l0.4,0.8c-1.5,0.7-3,1.4-4.6,1.9c-0.8,0.3-1.6,0.5-2.4,0.8
			c-0.8,0.3-1.6,0.4-2.4,0.6c-1.7,0.2-3.4,0.4-5.1,0c-0.8-0.2-1.7-0.6-2.4-1.2c-0.7-0.6-1.2-1.3-1.5-2.3l0.9,0.1
			c-0.5,1.1-1.2,1.9-2,2.7c-0.8,0.8-1.6,1.5-2.5,2.1c-1.8,1.3-3.6,2.4-5.5,3.4c-1.9,1-3.8,2-5.8,2.9
			C650.9,494.2,649,495.1,646.9,495.8z"/>
	</g>
	<g>
		<path class="st23" d="M678.2,439.7c-3.7-1.2-7.3-2.7-10.8-4.4c-1.7-0.9-3.4-1.8-5.1-2.8c-1.7-1-3.3-2.1-4.7-3.5
			c1.6,1,3.4,1.9,5.1,2.8c1.7,0.9,3.4,1.7,5.2,2.6C671.4,436.1,674.8,437.8,678.2,439.7z"/>
	</g>
	<g>
		<path class="st27" d="M591.8,390.4c-1.1-0.5-1.9-1.2-2.8-2c-0.8-0.8-1.5-1.6-2.1-2.7c1.1,0.5,1.9,1.2,2.8,2
			C590.5,388.5,591.3,389.4,591.8,390.4z"/>
	</g>
	<g>
		<path class="st27" d="M611.4,385.7c-1.5-1.6-2.8-3.2-4.1-4.9c-1.3-1.7-2.6-3.4-3.8-5.1c-1.2-1.8-2.3-3.5-3.4-5.4
			c-1.1-1.8-2.1-3.7-2.9-5.7l3.5,5.3l3.6,5.2l3.6,5.2l1.8,2.6C610.3,384,610.8,384.8,611.4,385.7z"/>
	</g>
	<g>
		<path class="st27" d="M614.6,362.1c-3.1-2.1-5.8-4.6-8.2-7.3c-2.5-2.7-4.7-5.7-6.3-9.1c1.1,1.4,2.3,2.9,3.4,4.3
			c1.2,1.4,2.3,2.8,3.6,4.1C609.6,356.9,612.1,359.5,614.6,362.1z"/>
	</g>
</g>
</svg>
