<svg id="Iconos" xmlns="http://www.w3.org/2000/svg" viewBox="0 0 27.26 31.37"><defs><style>.cls-1,.cls-3{fill:none;}.cls-1{stroke:#00e9c5;stroke-linecap:round;stroke-linejoin:round;stroke-width:1.5px;}.cls-2{font-size:7.36px;font-family:MyriadPro-Regular, Myriad Pro;}.cls-2,.cls-4{fill:#00e9c5;}</style></defs><polygon class="cls-1" points="21.04 5.7 26.51 6.47 22.56 10.34 23.52 15.79 18.62 13.23 13.73 15.82 14.65 10.37 10.68 6.53 16.15 5.71 18.57 0.75 21.04 5.7"/><text class="cls-2" transform="translate(16.63 11.63)">P</text><path class="cls-3" d="M15.08,33.16a1.25,1.25,0,0,0-.81,0A2.65,2.65,0,0,0,12.38,36a2.72,2.72,0,0,0,2.34,2.42l3.34.35,7.45.82.23-1.39v-.11Q20.41,35.6,15.08,33.16Z" transform="translate(-10.35 -11.19)"/><path class="cls-3" d="M26,21.64l1.75,2.58.88-.46a.75.75,0,0,1,.7,0l3.55,1.85-.69-3.94a.77.77,0,0,1,.22-.67l2.86-2.8-4-.56a.76.76,0,0,1-.57-.41l-1.78-3.59-1.76,3.6a.74.74,0,0,1-.57.41l-4,.59L25.52,21l0,0A4.31,4.31,0,0,1,26,21.64Z" transform="translate(-10.35 -11.19)"/><path class="cls-3" d="M24.08,27.76a.73.73,0,0,1-.44-.15.74.74,0,0,1-.3-.73l.74-4.4a2.65,2.65,0,0,0-2.95-.88,2.72,2.72,0,0,0-1.84,2.51A1.66,1.66,0,0,0,20,25.56c2.92,2.21,5.83,4.47,8.75,6.7l.42.31,1.17-.88-3.55-5.26-2.33,1.24A.73.73,0,0,1,24.08,27.76Z" transform="translate(-10.35 -11.19)"/><polygon class="cls-3" points="14.73 14.45 15.57 14 14.96 13.08 14.73 14.45"/><path class="cls-3" d="M18.47,26.81a2.59,2.59,0,0,0-2.86-.33,2.69,2.69,0,0,0,.12,4.89c3.19,1.39,6.4,2.95,9.64,4.42l1.41.64,1.33-2.19C24.87,31.75,21.66,29.3,18.47,26.81Z" transform="translate(-10.35 -11.19)"/><path class="cls-3" d="M27.85,40.05a1,1,0,0,0,.4.22,3.59,3.59,0,0,0,4-.43A3.73,3.73,0,0,0,33.67,36a4,4,0,0,0-1.47-2.25,1,1,0,0,0-1.43,0,1.21,1.21,0,0,0-.22.32l-2.77,4.55A1,1,0,0,0,27.85,40.05Z" transform="translate(-10.35 -11.19)"/><path class="cls-4" d="M30.31,31.69l-1.17.88-.42-.31C25.8,30,22.89,27.77,20,25.56a1.66,1.66,0,0,1-.68-1.45,2.72,2.72,0,0,1,1.84-2.51,2.65,2.65,0,0,1,2.95.88l.11-.66-2.41-2.34a5.18,5.18,0,0,0-.79.11,4.6,4.6,0,0,0-3.57,4.1l-.07.55a4.72,4.72,0,0,0-4.46,7.29,2.31,2.31,0,0,1-.57.31,4.65,4.65,0,0,0,2.15,8.42l11.67,1.31a3.68,3.68,0,0,1,1.21.36,5.76,5.76,0,0,0,5.92-9.84,2.43,2.43,0,0,1-.66-.62c-1.3-2-2.66-4-4-6l-1.82,1Zm-4.8,7.88-7.45-.82-3.34-.35A2.72,2.72,0,0,1,12.38,36a2.65,2.65,0,0,1,1.89-2.82,1.25,1.25,0,0,1,.81,0q5.32,2.43,10.65,4.91v.11Zm1.27-3.14-1.41-.64c-3.24-1.47-6.45-3-9.64-4.42a2.69,2.69,0,0,1-.12-4.89,2.59,2.59,0,0,1,2.86.33c3.19,2.49,6.4,4.94,9.64,7.43Zm4-2.67a1,1,0,0,1,1.43,0A4,4,0,0,1,33.67,36a3.73,3.73,0,0,1-1.39,3.82,3.59,3.59,0,0,1-4,.43,1,1,0,0,1-.4-.22,1,1,0,0,1-.07-1.42l2.77-4.55A1.21,1.21,0,0,1,30.77,33.76Z" transform="translate(-10.35 -11.19)"/></svg>