<svg id="Capa_1" data-name="Capa 1" xmlns="http://www.w3.org/2000/svg" viewBox="0 0 493.83 305.47"><defs><style>.cls-1,.cls-2,.cls-3,.cls-5{fill:none;}.cls-1,.cls-2,.cls-3{stroke:#050b3d;}.cls-1,.cls-5{stroke-miterlimit:10;}.cls-1,.cls-2{stroke-width:7px;}.cls-2,.cls-3,.cls-5{stroke-linecap:round;}.cls-2,.cls-3{stroke-linejoin:round;}.cls-3{stroke-width:6.49px;}.cls-4{fill:#050b3d;}.cls-5{stroke:#fff;stroke-width:4.05px;}</style></defs><path class="cls-1" d="M147.81,162.67a23.92,23.92,0,1,1-24.2,23.83A23.8,23.8,0,0,1,147.81,162.67Z" transform="translate(-21.01 -100.52)"/><path class="cls-2" d="M47.86,208.17a10.53,10.53,0,0,0-5.87,10" transform="translate(-21.01 -100.52)"/><path class="cls-1" d="M56.48,215.73,71.14,193s21.09-22.63,26.13-29.23c14.31-18.72,26.07-38.8,28.06-41.48,4.2-5.67,3.2-12.59-2.23-16.25s-12.1-2.09-15.94,3.88c-.71,1.1-13.3,19.19-27.19,42.39-1.51,2.51-16.71,33.79-18.13,36.15C52.12,204.62,34,232.71,34,232.71l8.25,5.07,1.28-2" transform="translate(-21.01 -100.52)"/><path class="cls-1" d="M71.14,193" transform="translate(-21.01 -100.52)"/><path class="cls-1" d="M43.13,248.19a4.58,4.58,0,0,1-2.4-.68l-14-8.68a4.57,4.57,0,1,1,4.8-7.78l14.06,8.68a4.57,4.57,0,0,1-2.41,8.46Z" transform="translate(-21.01 -100.52)"/><path class="cls-2" d="M73.85,221.75c7.89-2.68,15.27-4,23-3.35,1.8.16,2.34.87,2.29,2.78-.21,8.6-4.09,8.14-9.69,6.54-1.92-.55-3.84-1.09-5.74-1.69l-.83-.25c-3.19-1-6.36-2.14-10.46-3.53l-15.58-5.53a11.2,11.2,0,0,0-14.52,7.55h0a11.2,11.2,0,0,0,6.88,13.49L53,239.2c9.44,3.51,18.95,6.81,28.61,9.67,5.41,1.61,10.88,3.34,16.62,1.94,3-.73,3.78.66,4.09,3.27.51,4.3,1.24,8.57,1.93,12.84.91,5.68,3.14,11.52,2.44,17s-3.93,10.82-6.72,15.84c-7.74,13.9-11.07,19.92-10.9,41.71,0,9.93,2.15,49.26,2.3,50.09a12.46,12.46,0,0,0,9,10.32c8.53,2.7,16.67-3.55,16.79-13.09.16-12.27,0-47.78.06-60a12.16,12.16,0,0,1,.78-5.3q4.42-9.69,8.73-19.42c.81-1.83,1.92-2.44,4-2.09a21.52,21.52,0,0,0,8.61-.12c2.75-.67,4,.13,4.45,2.95.68,4.39,1.84,8.72,2.38,13.12,1,8,3.83,15.27,7.75,22.3,6,10.82,25.57,43.09,31.42,54,3.27,6.09,8.15,8.92,13.6,8.21,9.52-1.23,14.36-10.58,9.8-19.53-6.28-12.32-26.86-45.68-33.29-57.92a21.33,21.33,0,0,1-2.54-5.95c-5.67-30.24-11.21-60.5-15.26-91-.91-6.86-.88-6.86-7.9-6.49l-.72,0c-15.73,0-27.17-6.87-34-21.18-.66-1.39-1.09-3.07-3-3.24-8.49-.74-17-2-25.53-1.17l-.87.12a101.92,101.92,0,0,0-13.27,2.68c-.28.07-.59.19-.88.24-.63.18-1.57.46-2.79.85" transform="translate(-21.01 -100.52)"/><path class="cls-3" d="M508.46,291c1.44-3.39,3.9-6.59,2.9-10.68,0-.64.05-1.29,0-1.92q-2.42-23.34-4.85-46.69c-1.23-11.71-2.34-23.44-3.78-35.13-1-7.82-7.32-12.27-15.17-11.34-8.13.95-16.28,1.81-24.44,2.51-9.05.78-8.5,11.72-8.5,11.72s8.23-2.69,12.33-4.24c5.82-2.22,11.85-3.88,17.76-5.87,5.17-1.75,11,1.63,12.78,6.35,2.1,5.51-.22,11.69-5.78,13.72-10.25,3.73-31.6,10.38-31.6,10.38l20,73.09S469,318.88,465.9,326c-1.31,3-2.93,6.07-2.39,9.49,1.42,8.94,3,17.84,4.56,26.76,2.14,12.34,2.59,11.63,4.54,24,1.15,7.28,2.87,13.9,11.1,16.21h5l2.92-1.44a12.48,12.48,0,0,0,7-13.18c-.88-5.51-1.87-11-2.83-16.48-2.52-14.49-3.27-15.94-5.7-30.44-.41-2.45-1.17-4.89,0-7.54Q499.42,312.27,508.46,291Z" transform="translate(-21.01 -100.52)"/><path class="cls-3" d="M480,292.84c-11.91-.72-23.82-1.41-35.73-2.2-2-.14-2.59.55-2.41,2.46.66,6.76,3.64,36,4.35,40.7,1.09,7.23-3.6,14.29-10.36,15.11-7.79.95-14.06-4.29-14.77-12.12-1.19-13.24-1.64-11.84-2.87-25.08-.83-8.85-1.5-17.73-2.37-26.58a75.63,75.63,0,0,1-.53-8c0-7.13,5.44-12.7,12.64-12.48,5,.15,25.52,1.44,40.49,2.39" transform="translate(-21.01 -100.52)"/><path class="cls-3" d="M489,154.24c1.11,12.33-8.73,23.32-22,24.56-11.7,1.1-23.51-8.8-24.53-20.57-1.22-14,8-25.16,21.92-26.17A23.18,23.18,0,0,1,489,154.24Z" transform="translate(-21.01 -100.52)"/><path class="cls-3" d="M399.19,206,410.86,196l6.51,29S402.62,209.65,399.19,206Z" transform="translate(-21.01 -100.52)"/><path class="cls-3" d="M418.85,230.68" transform="translate(-21.01 -100.52)"/><path class="cls-3" d="M497.48,195.72c-1.8-4.72-7.61-8.1-12.78-6.35-5.91,2-11.94,3.65-17.76,5.87-4.1,1.55-31.75,10.72-31.75,10.72s-5.75-29.3-8-36c-3.11-5.2-6.74-6.63-13.42-5.29-3.25,1.92-5.82,4.34-6.29,8.35a14.3,14.3,0,0,0,.43,5.93c.72,3.51,5.79,28.5,8.77,43.2a10,10,0,0,0,12.69,7.63c7.79-2.31,52.08-16.57,62.33-20.3C497.26,207.41,499.58,201.23,497.48,195.72Z" transform="translate(-21.01 -100.52)"/><path class="cls-4" d="M377,158.33c-8.63,2.07-15.58,9.94-17.05,19.22-1.37,8.6,3.36,18.76,10.39,21.32,7.67,2.79,16,3.82,23.85,6.09a11.9,11.9,0,0,0,11.33-2.86,12.12,12.12,0,0,0,3.59-6.38,9.36,9.36,0,0,0-.17-4.47c-1-3.44-3.48-12.31-4.85-16.44-.67-2-1.6-6.23-2.8-7.91C397.58,161.73,387.4,155.84,377,158.33Z" transform="translate(-21.01 -100.52)"/><line class="cls-5" x1="344.99" y1="85.66" x2="366.39" y2="94.41"/><line class="cls-5" x1="376.09" y1="84.22" x2="366.3" y2="63.27"/><line class="cls-5" x1="371.4" y1="89.15" x2="352.19" y2="70.86"/><line class="cls-1" x1="227.93" y1="137.21" x2="283.54" y2="137.21"/><polygon class="cls-4" points="280.99 145.93 296.1 137.21 280.99 128.48 280.99 145.93"/><line class="cls-1" x1="240.49" y1="164.17" x2="296.1" y2="164.17"/><polygon class="cls-4" points="243.04 172.89 227.93 164.17 243.04 155.44 243.04 172.89"/><path class="cls-4" d="M409.18,168.31a11.1,11.1,0,0,1-1.82-.85,12.37,12.37,0,0,1-6.14-8.67,8.11,8.11,0,0,1-.16-1.4c0-.2.06-.31.27-.33a14.18,14.18,0,0,0,3.4-.7c.14-.05.2,0,.26.13.12.3.24.6.37.9a.66.66,0,0,0,.87.4.67.67,0,0,0,.35-.91c-.11-.28-.23-.56-.35-.84s-.06-.28.13-.37a12.7,12.7,0,0,0,3-2c.12-.11.2-.11.31,0l.69.68a.64.64,0,0,0,1,0,.64.64,0,0,0,0-1c-.21-.23-.43-.45-.66-.67s-.15-.21,0-.36a12.3,12.3,0,0,0,2-3c.1-.21.21-.25.41-.15l.87.36a.66.66,0,0,0,.86-.37.63.63,0,0,0-.34-.83c-.31-.15-.63-.28-1-.41-.15-.06-.18-.14-.13-.29a12.44,12.44,0,0,0,.69-3.3c0-.35.22-.38.36-.35a12.53,12.53,0,0,1,11.56,10.73c.05.29,0,.58.09.87s-.15.41-.42.43a11.1,11.1,0,0,0-2.28.39c-.31.08-.62.18-.93.28-.16.06-.25,0-.31-.14s-.24-.6-.38-.89a.63.63,0,0,0-.87-.38.67.67,0,0,0-.34.89l.36.87c.08.16,0,.26-.12.35a12.91,12.91,0,0,0-3,2c-.13.12-.21.07-.31,0s-.44-.45-.67-.66a.66.66,0,1,0-.93.92l.67.67a.21.21,0,0,1,0,.34,11.6,11.6,0,0,0-1.51,2.11,9.36,9.36,0,0,1,1.77-.31c.21-.29.42-.59.66-.87s.21-.12.33,0,.41.42.62.63a.68.68,0,0,0,1,.06.67.67,0,0,0-.06-1c-.19-.21-.39-.41-.59-.6s-.17-.22,0-.36a13.11,13.11,0,0,1,2.57-1.72c.19-.09.26,0,.33.14s.23.58.37.87a.65.65,0,0,0,.86.35.67.67,0,0,0,.34-.87,6.76,6.76,0,0,0-.33-.78c-.12-.25,0-.35.2-.43a14.55,14.55,0,0,1,2.7-.56c.29,0,.34,0,.3.38a13.07,13.07,0,0,1-.9,3.58,15.84,15.84,0,0,1-1,1.92.66.66,0,0,0,.41,1,.7.7,0,0,0,.74-.42,13.67,13.67,0,0,0,2.11-7.37,10.76,10.76,0,0,0-.14-2c-.06-.39-.13-.79-.22-1.17a13.82,13.82,0,0,0-14.83-10.61,13.31,13.31,0,0,0-8,3.55,13.48,13.48,0,0,0-4.42,11.85,13.07,13.07,0,0,0,4.92,9,15.31,15.31,0,0,0,4.19,2.42A6.63,6.63,0,0,1,409.18,168.31Zm-8.1-12.95a11.89,11.89,0,0,1,.83-3.42,12.41,12.41,0,0,1,9.86-7.75c.22,0,.44-.05.73-.09s.22.1.2.31a14.15,14.15,0,0,1-.57,2.72c-.07.24-.18.29-.41.19s-.51-.23-.78-.33a.67.67,0,0,0-.89.36.66.66,0,0,0,.38.85c.27.13.55.24.83.35s.25.15.15.35a13.22,13.22,0,0,1-1.71,2.55c-.12.14-.21.16-.35,0l-.62-.62a.67.67,0,0,0-1-.05.66.66,0,0,0,0,1c.2.21.41.42.62.62s.16.23,0,.36a13.48,13.48,0,0,1-2.58,1.72c-.19.09-.26,0-.32-.14s-.23-.56-.36-.84a.65.65,0,0,0-.87-.38.67.67,0,0,0-.33.9q.15.41.33.81c.09.19,0,.28-.15.35a13.58,13.58,0,0,1-2.82.58C401,155.77,401.06,155.54,401.08,155.36Z" transform="translate(-21.01 -100.52)"/><path class="cls-4" d="M412.32,163.9a.62.62,0,0,0,0,.23,7.64,7.64,0,0,1,1-.58.05.05,0,0,0,0,0A.66.66,0,0,0,412.32,163.9Z" transform="translate(-21.01 -100.52)"/></svg>