<svg id="Capa_1" data-name="Capa 1" xmlns="http://www.w3.org/2000/svg" viewBox="0 0 321.58 251"><defs><style>.cls-1,.cls-3{fill:none;}.cls-1,.cls-5{stroke:#00e9c5;stroke-width:19px;}.cls-1{stroke-linecap:round;stroke-linejoin:round;}.cls-2,.cls-5{fill:#fff;}.cls-4{fill:#00e9c5;}.cls-5{stroke-miterlimit:10;}</style></defs><path class="cls-1" d="M176.17,215.73a116,116,0,1,1,3.19,80.85" transform="translate(-122.48 -126.39)"/><path class="cls-2" d="M234.79,215.73a36.15,36.15,0,1,1,0,72.3H135.93v-72.3h98.86m0-13.45H122.48v99.2H234.79a49.6,49.6,0,0,0,0-99.2Z" transform="translate(-122.48 -126.39)"/><polygon class="cls-3" points="117.18 182.61 216.08 125.5 117.18 68.39 117.18 182.61"/><path class="cls-4" d="M254.79,221l53.5,30.9-53.5,30.89v-10.3l-15.19,0-88.54.32V230.92l88.54.31,15.19.05V221m-15.14-26.21V216.1l-103.72-.37V288l103.72-.36V309l98.9-57.1-98.9-57.11Z" transform="translate(-122.48 -126.39)"/><circle class="cls-5" cx="278.38" cy="125.5" r="33.7"/></svg>