<svg id="Capa_1" data-name="Capa 1" xmlns="http://www.w3.org/2000/svg" viewBox="0 0 278.24 305.47"><defs><style>.cls-1,.cls-2{fill:none;stroke:#00e9c5;stroke-width:7px;}.cls-1{stroke-miterlimit:10;}.cls-2{stroke-linecap:round;stroke-linejoin:round;}</style></defs><path class="cls-1" d="M274.09,161.3a23.92,23.92,0,1,1-24.2,23.82A23.79,23.79,0,0,1,274.09,161.3Z" transform="translate(-147.28 -99.15)"/><path class="cls-2" d="M174.14,206.8a10.55,10.55,0,0,0-5.88,10" transform="translate(-147.28 -99.15)"/><path class="cls-1" d="M182.75,214.36l14.67-22.78s21.09-22.63,26.13-29.23c14.31-18.72,26.07-38.8,28-41.48,4.21-5.67,3.21-12.59-2.22-16.25s-12.1-2.09-15.94,3.88c-.71,1.1-13.3,19.19-27.2,42.39-1.5,2.51-16.7,33.79-18.12,36.15-9.72,16.21-27.81,44.3-27.81,44.3l8.25,5.07,1.27-2" transform="translate(-147.28 -99.15)"/><path class="cls-1" d="M197.42,191.58" transform="translate(-147.28 -99.15)"/><path class="cls-1" d="M169.41,246.82a4.58,4.58,0,0,1-2.4-.68L153,237.46a4.57,4.57,0,0,1,4.81-7.78l14.05,8.68a4.57,4.57,0,0,1-2.4,8.46Z" transform="translate(-147.28 -99.15)"/><path class="cls-2" d="M200.12,220.38c7.9-2.68,15.27-4,22.95-3.35,1.81.16,2.35.87,2.3,2.78-.21,8.6-4.09,8.14-9.69,6.54-1.92-.55-3.84-1.09-5.75-1.69l-.82-.25c-3.19-1-6.36-2.14-10.46-3.53l-15.58-5.53a11.2,11.2,0,0,0-14.52,7.55h0a11.19,11.19,0,0,0,6.88,13.49l3.87,1.44c9.44,3.51,18.95,6.81,28.61,9.67,5.41,1.61,10.87,3.34,16.62,1.94,3-.73,3.77.66,4.08,3.27.52,4.3,1.25,8.57,1.94,12.84.91,5.68,3.14,11.52,2.44,17s-3.93,10.82-6.72,15.84c-7.74,13.9-11.07,19.92-10.9,41.71,0,9.92,2.14,49.26,2.3,50.09a12.45,12.45,0,0,0,9,10.32c8.54,2.7,16.68-3.55,16.8-13.09.16-12.27.05-47.78.06-60a12.31,12.31,0,0,1,.77-5.3c2.95-6.46,5.88-12.92,8.74-19.42.81-1.83,1.91-2.44,3.95-2.09a21.57,21.57,0,0,0,8.62-.12c2.75-.67,4,.13,4.45,2.95.67,4.39,1.84,8.71,2.37,13.12a60.47,60.47,0,0,0,7.75,22.3c6,10.82,25.58,43.09,31.43,54,3.27,6.09,8.14,8.92,13.59,8.21,9.53-1.23,14.36-10.58,9.81-19.53-6.28-12.32-26.86-45.68-33.3-57.92a21.31,21.31,0,0,1-2.53-5.95c-5.67-30.24-11.22-60.5-15.26-91-.91-6.86-.89-6.86-7.91-6.49l-.72,0c-15.73,0-27.16-6.87-34-21.18-.66-1.39-1.09-3.07-3-3.24-8.49-.74-17-2-25.53-1.17l-.87.12a101.58,101.58,0,0,0-13.27,2.68c-.28.07-.59.19-.88.24-.63.18-1.57.46-2.79.84" transform="translate(-147.28 -99.15)"/><polyline class="cls-2" points="150.59 200.34 209.4 200.13 209.4 214.22 274.74 176.5 209.4 138.76 209.4 152.85 140.88 152.61"/></svg>