<svg id="Capa_1" data-name="Capa 1" xmlns="http://www.w3.org/2000/svg" viewBox="0 0 294.99 288.87"><defs><style>.cls-1,.cls-2{fill:none;}.cls-1{stroke:#050b3d;stroke-linecap:round;stroke-linejoin:round;stroke-width:19px;}.cls-2{stroke:#fff;stroke-miterlimit:10;stroke-width:22px;}</style></defs><path class="cls-1" d="M173.66,243.46a116,116,0,1,1,0,54.86" transform="translate(-116.91 -107.45)"/><line class="cls-1" x1="169.49" y1="47.37" x2="169.49" y2="9.5"/><line class="cls-1" x1="139.52" y1="9.5" x2="199.46" y2="9.5"/><line class="cls-1" x1="228.11" y1="105.3" x2="169.49" y2="163.91"/><path class="cls-2" d="M209.91,280.86h-72.5a9.5,9.5,0,1,1,0-19h72.5a9.5,9.5,0,0,1,0,19Z" transform="translate(-116.91 -107.45)"/><path class="cls-2" d="M173.66,317.11a9.51,9.51,0,0,1-9.5-9.5v-72.5a9.5,9.5,0,0,1,19,0v72.5A9.5,9.5,0,0,1,173.66,317.11Z" transform="translate(-116.91 -107.45)"/><line class="cls-1" x1="20.5" y1="163.91" x2="93" y2="163.91"/><line class="cls-1" x1="56.75" y1="127.66" x2="56.75" y2="200.16"/></svg>