<svg id="Capa_1" data-name="Capa 1" xmlns="http://www.w3.org/2000/svg" viewBox="0 0 385.13 269.19"><defs><style>.cls-1,.cls-3{fill:none;stroke-linecap:round;}.cls-1{stroke:#00e9c5;stroke-linejoin:round;stroke-width:7px;}.cls-2{fill:#00e9c5;}.cls-3{stroke:#fff;stroke-miterlimit:10;stroke-width:4.05px;}</style></defs><polyline class="cls-1" points="243.86 189.46 316.29 189.2 316.29 203.29 381.63 165.56 316.29 127.83 316.29 141.92 206.22 141.68"/><path class="cls-1" d="M132.62,225.66h0a13.56,13.56,0,0,0,11.76,15l41.4,5.28a46.85,46.85,0,0,0,18.33-1.28l32.16-8.77,11.3,39.94a46,46,0,0,1-1,28.07l-11.34,31.4L179,364.15a14.7,14.7,0,0,0-6.52,19.54h0a14.71,14.71,0,0,0,20,6.62l58.77-30.57a31.88,31.88,0,0,0,15.18-17.15l15.45-41.31,37.51,31.18L339.48,393a15.2,15.2,0,0,0,18.72,9.8h0a15.21,15.21,0,0,0,10.07-19.54l-21.7-62.84a32.72,32.72,0,0,0-8.92-13.54l-24.11-21.94A38.8,38.8,0,0,1,302.37,267l-12.95-44.84,29.91-6.34,39.84,25.86a11.63,11.63,0,0,0,15.13-2.14h0a11.64,11.64,0,0,0-2.4-17.34L332,195.93a29.19,29.19,0,0,0-18.75-4.69l-43.67,4a104.88,104.88,0,0,0-24.64,5.3l-53.24,18.33-44-5.14A13.56,13.56,0,0,0,132.62,225.66Z" transform="translate(-105.04 -137.72)"/><path class="cls-1" d="M223.79,163.46c-1.11,12.34,8.73,23.32,22,24.56,11.7,1.1,23.51-8.8,24.54-20.56,1.21-14-8-25.16-21.93-26.18A23.18,23.18,0,0,0,223.79,163.46Z" transform="translate(-105.04 -137.72)"/><path class="cls-2" d="M409.86,240.16c1.08,8.81-3.86,18.07-12,22.7-7.57,4.29-18.75,3.41-23.6-2.27-5.3-6.21-9.17-13.65-14.06-20.22a11.92,11.92,0,0,1-1.28-11.62,12.09,12.09,0,0,1,4.73-5.59,9.32,9.32,0,0,1,4.24-1.41c3.56-.3,12.75-1,17.1-1.2,2.14-.08,6.4-.68,8.39-.14C399.48,222.06,408.56,229.54,409.86,240.16Z" transform="translate(-105.04 -137.72)"/><line class="cls-3" x1="282.58" y1="122.48" x2="266.89" y2="105.49"/><line class="cls-3" x1="273.05" y1="92.84" x2="296.1" y2="94.69"/><line class="cls-3" x1="270.07" y1="98.96" x2="293.92" y2="110.56"/><path class="cls-2" d="M139.76,210.3a17.12,17.12,0,0,1-2.64,9.26.87.87,0,0,1-.93.52.83.83,0,0,1-.52-1.32,19.57,19.57,0,0,0,1.24-2.41,15.77,15.77,0,0,0,1.13-4.48c.05-.44,0-.52-.38-.48a17.06,17.06,0,0,0-3.38.7c-.3.1-.41.22-.25.53a9.24,9.24,0,0,1,.41,1,.82.82,0,0,1-.43,1.09.81.81,0,0,1-1.08-.43c-.17-.36-.32-.72-.46-1.09-.08-.21-.17-.29-.41-.17a15.84,15.84,0,0,0-3.23,2.16c-.2.17-.16.29,0,.44s.5.5.75.75a.83.83,0,1,1-1.16,1.18q-.39-.37-.78-.78c-.14-.16-.26-.18-.41,0a16.13,16.13,0,0,0-2.18,3.26c-.1.19-.06.29.13.37.36.15.73.29,1.09.46a.82.82,0,0,1,.49,1.09.85.85,0,0,1-1.16.42c-.31-.13-.63-.25-.94-.4s-.4-.08-.5.21a18.5,18.5,0,0,0-.72,3.46c0,.36.16.39.43.36a16.42,16.42,0,0,0,4-.93,15.62,15.62,0,0,0,2.81-1.39,1.3,1.3,0,0,1,.62-.23.84.84,0,0,1,.8.6.82.82,0,0,1-.39.95,14.11,14.11,0,0,1-2.61,1.37c-6.43,2.45-12.41,1.67-17.79-2.65a16.37,16.37,0,0,1-6.18-11.33,16.9,16.9,0,0,1,5.54-14.86,16.73,16.73,0,0,1,10-4.46,17.36,17.36,0,0,1,18.62,13.31q.17.73.27,1.47A12.78,12.78,0,0,1,139.76,210.3Zm-16.31-15.64c-.17,0-.43,0-.46.43a15.89,15.89,0,0,1-.86,4.15c-.06.19,0,.29.17.36.4.16.8.32,1.19.51a.79.79,0,0,1,.43,1,.82.82,0,0,1-1.07.46c-.37-.14-.74-.29-1.1-.45s-.39-.07-.51.19a15.6,15.6,0,0,1-2.5,3.71c-.16.19-.15.3,0,.46s.57.55.84.83a.82.82,0,0,1,.05,1.2.8.8,0,0,1-1.22,0c-.3-.28-.59-.56-.87-.86-.14-.14-.24-.14-.39,0a16.06,16.06,0,0,1-3.78,2.54c-.23.11-.26.24-.16.46s.3.7.43,1.06a.83.83,0,1,1-1.52.64c-.17-.37-.32-.75-.47-1.13-.07-.16-.15-.23-.33-.17a16.75,16.75,0,0,1-4.26.89c-.26,0-.35.15-.34.41a10.31,10.31,0,0,0,.2,1.76A15.52,15.52,0,0,0,114.65,224a15,15,0,0,0,6.6,2c.4,0,.55-.12.57-.49a15.3,15.3,0,0,1,.84-4c.08-.25,0-.36-.21-.44-.38-.15-.76-.3-1.13-.48a.8.8,0,0,1-.44-1,.81.81,0,0,1,1.1-.46,11.37,11.37,0,0,1,1.09.45c.25.11.38.05.49-.19a15.81,15.81,0,0,1,2.52-3.75c.15-.17.12-.28,0-.42s-.56-.55-.83-.84a.83.83,0,1,1,1.17-1.16q.42.4.84.84c.12.13.22.19.39,0a15.81,15.81,0,0,1,3.81-2.56.29.29,0,0,0,.16-.44c-.16-.36-.32-.72-.46-1.09a.83.83,0,0,1,.43-1.12.81.81,0,0,1,1.09.48c.17.37.33.74.48,1.12.07.21.18.25.38.18q.59-.19,1.17-.36a15.41,15.41,0,0,1,2.86-.49c.35,0,.59-.1.52-.53s-.05-.74-.1-1.1a15.73,15.73,0,0,0-14.51-13.46Zm-2.35,0c-.37,0-.64.06-.91.11a15.57,15.57,0,0,0-12.38,9.72,15.19,15.19,0,0,0-1,4.31c0,.22-.1.51.31.47a17,17,0,0,0,3.53-.73c.25-.08.31-.2.2-.44s-.29-.67-.42-1a.83.83,0,0,1,.42-1.12.8.8,0,0,1,1.09.47c.16.35.31.7.44,1.05s.18.3.41.18a16.4,16.4,0,0,0,3.23-2.16c.2-.17.17-.29,0-.44s-.53-.52-.78-.78a.84.84,0,0,1,0-1.23.85.85,0,0,1,1.23.07c.26.25.53.51.78.78s.29.16.44,0a16.55,16.55,0,0,0,2.14-3.2c.13-.25,0-.34-.18-.43s-.71-.28-1-.45a.82.82,0,1,1,.64-1.51,8.59,8.59,0,0,1,1,.41c.28.13.41.07.51-.24a18.07,18.07,0,0,0,.71-3.42C121.37,194.79,121.3,194.64,121.1,194.67Z" transform="translate(-105.04 -137.72)"/><path class="cls-2" d="M134.87,222a.81.81,0,1,1-1.62,0,.81.81,0,0,1,1.62,0Z" transform="translate(-105.04 -137.72)"/></svg>