<svg id="Capa_1" data-name="Capa 1" xmlns="http://www.w3.org/2000/svg" viewBox="0 0 269 324.72"><defs><style>.cls-1,.cls-2{fill:none;stroke:#00e9c5;stroke-width:7px;}.cls-1{stroke-miterlimit:10;}.cls-2{stroke-linecap:round;stroke-linejoin:round;}</style></defs><path class="cls-1" d="M274.09,161.3a23.92,23.92,0,1,1-24.2,23.82A23.79,23.79,0,0,1,274.09,161.3Z" transform="translate(-156.53 -79.9)"/><path class="cls-2" d="M174.14,206.8a10.55,10.55,0,0,0-5.88,10" transform="translate(-156.53 -79.9)"/><path class="cls-2" d="M200.12,220.38c7.9-2.68,15.27-4,22.95-3.35,1.81.16,2.35.87,2.3,2.78-.21,8.6-4.09,8.14-9.69,6.54-1.92-.55-3.84-1.09-5.75-1.69l-.82-.25c-3.19-1-6.36-2.14-10.46-3.53l-15.58-5.53a11.2,11.2,0,0,0-14.52,7.55h0a11.19,11.19,0,0,0,6.88,13.49l3.87,1.44c9.44,3.51,18.95,6.81,28.61,9.67,5.41,1.61,10.87,3.34,16.62,1.94,3-.73,3.77.66,4.08,3.27.52,4.3,1.25,8.57,1.94,12.84.91,5.68,3.14,11.52,2.44,17s-3.93,10.82-6.72,15.84c-7.74,13.9-11.07,19.92-10.9,41.71,0,9.92,2.14,49.26,2.3,50.09a12.45,12.45,0,0,0,9,10.32c8.54,2.7,16.68-3.55,16.8-13.09.16-12.27.05-47.78.06-60a12.31,12.31,0,0,1,.77-5.3c2.95-6.46,5.88-12.92,8.74-19.42.81-1.83,1.91-2.44,3.95-2.09a21.57,21.57,0,0,0,8.62-.12c2.75-.67,4,.13,4.45,2.95.67,4.39,1.84,8.71,2.37,13.12a60.47,60.47,0,0,0,7.75,22.3c6,10.82,25.58,43.09,31.43,54,3.27,6.09,8.14,8.92,13.59,8.21,9.53-1.23,14.36-10.58,9.81-19.53-6.28-12.32-26.86-45.68-33.3-57.92a21.31,21.31,0,0,1-2.53-5.95c-5.67-30.24-11.22-60.5-15.26-91-.91-6.86-.89-6.86-7.91-6.49l-.72,0c-15.73,0-27.16-6.87-34-21.18-.66-1.39-1.09-3.07-3-3.24-8.49-.74-17-2-25.53-1.17l-.87.12a101.58,101.58,0,0,0-13.27,2.68c-.28.07-.59.19-.88.24-.63.18-1.57.46-2.79.84" transform="translate(-156.53 -79.9)"/><polyline class="cls-2" points="141.34 219.59 200.16 219.38 200.16 233.47 265.5 195.74 200.16 158.01 200.16 172.09 131.63 171.85"/><path class="cls-1" d="M183.14,213.42l18.16-25h0a7.35,7.35,0,0,1,10.25-1.62,1.07,1.07,0,0,0,.78.19,1,1,0,0,0,.69-.42l61.66-84.82h0c1-1.37,1.79-3.71-.06-7.05a22.89,22.89,0,0,0-6.65-6.9c-6.91-5-12.64-5.8-15.35-2.08h0L191,170.55a1,1,0,0,0,.23,1.46,7.35,7.35,0,0,1,1.62,10.26l-31,42.64-.12-.09a1.05,1.05,0,1,0-1.24,1.7l1,.71h0l6.77,4.92h0l1,.7a1,1,0,0,0,.78.18,1,1,0,0,0,.68-.41" transform="translate(-156.53 -79.9)"/><line class="cls-1" x1="36.29" y1="102.37" x2="44.77" y2="108.54"/></svg>