<svg id="Capa_1" data-name="Capa 1" xmlns="http://www.w3.org/2000/svg" viewBox="0 0 418.14 430.18"><defs><style>.cls-1,.cls-2{fill:#050b3d;}.cls-2{font-size:97.82px;font-family:CachetStd-Medium, Cachet Std;font-weight:500;}</style></defs><path class="cls-1" d="M386,344.32l-13.86,4.62a3.09,3.09,0,0,1-1,.17,3.27,3.27,0,0,1-1-6.37l13.86-4.62a3.27,3.27,0,1,1,2.06,6.2Z" transform="translate(-77.34 -30.79)"/><path class="cls-1" d="M399.85,358.18,386,362.8a3.37,3.37,0,0,1-1,.17,3.27,3.27,0,0,1-1-6.37L397.78,352a3.27,3.27,0,1,1,2.07,6.2Z" transform="translate(-77.34 -30.79)"/><path class="cls-1" d="M413.71,372l-13.86,4.62a3.35,3.35,0,0,1-1,.16,3.26,3.26,0,0,1-1-6.36l13.86-4.62a3.27,3.27,0,0,1,2.07,6.2Z" transform="translate(-77.34 -30.79)"/><path class="cls-1" d="M425.5,398.18l13.86-4.62a3.27,3.27,0,0,1,2.07,6.2l-13.86,4.62a3.4,3.4,0,0,1-1,.16,3.26,3.26,0,0,1-1-6.36Z" transform="translate(-77.34 -30.79)"/><path class="cls-1" d="M439.36,412l13.86-4.61a3.24,3.24,0,0,1,4.13,2.06,3.28,3.28,0,0,1-2.06,4.14l-13.86,4.62a3.46,3.46,0,0,1-1,.16,3.27,3.27,0,0,1-1-6.37Z" transform="translate(-77.34 -30.79)"/><path class="cls-1" d="M453.22,425.89l13.86-4.62a3.27,3.27,0,1,1,2.06,6.2l-13.85,4.62a3.19,3.19,0,0,1-1,.17,3.27,3.27,0,0,1-1-6.37Z" transform="translate(-77.34 -30.79)"/><path class="cls-1" d="M231,247.29l-144-144h0c-8.52-8.52,1.57-24.68,13.85-37S129.3,44,137.82,52.5h0l144,144,4.62-4.62-144-144h0c-10.13-10.12-27.39-4.94-46.19,13.86C87.8,70.19,81.88,78.65,79.13,86.21c-4.06,11.2-.48,18,3.25,21.72h0l144,144Z" transform="translate(-77.34 -30.79)"/><path class="cls-1" d="M494.51,431.61a3.26,3.26,0,0,0-4.62,0l-.34.34L373.43,315.83a22.9,22.9,0,0,1,0-32.34,3.26,3.26,0,0,0,0-4.62l-26.93-26.93-4.59,4.65,24.72,24.72a29.46,29.46,0,0,0,0,36.7l-14.12,14.12a29.46,29.46,0,0,0-36.7,0l-24.44-24.44-4.6,4.64,26.6,26.59a3.25,3.25,0,0,0,4.61,0,22.9,22.9,0,0,1,32.33,0l0,0,0,0,116.1,116.1-.34.34a3.27,3.27,0,1,0,4.62,4.62l2.62-2.62,0,0,0,0,18.46-18.46h0l2.65-2.65A3.26,3.26,0,0,0,494.51,431.61Zm-23.44,18.82L410.4,389.76a3.27,3.27,0,0,0,2.27.93,3.15,3.15,0,0,0,1-.17l13.86-4.62a3.27,3.27,0,0,0-2.07-6.2l-13.86,4.62a3.27,3.27,0,0,0-1.25,5.43l-53.13-53.13,13.86-13.86L484.93,436.57Z" transform="translate(-77.34 -30.79)"/><path class="cls-1" d="M258.69,219.57,128.56,89.44a3.26,3.26,0,0,0-4.62,4.61L254.07,224.19Z" transform="translate(-77.34 -30.79)"/><path class="cls-1" d="M313.68,284.69,309,289.37l22.51,30.69a3.26,3.26,0,0,0,2.64,1.33,3.22,3.22,0,0,0,1.92-.63,3.27,3.27,0,0,0,.71-4.57Z" transform="translate(-77.34 -30.79)"/><path class="cls-1" d="M354.55,297,323.86,274.5l-4.67,4.68,31.5,23.1a3.27,3.27,0,0,0,4.56-.7A3.26,3.26,0,0,0,354.55,297Z" transform="translate(-77.34 -30.79)"/><path class="cls-1" d="M493.67,86.21c-2.75-7.56-8.66-16-17.11-24.47-18.8-18.8-36.06-24-46.2-13.86h0l-231,231a3.26,3.26,0,0,0,0,4.62,22.9,22.9,0,0,1,0,32.34L83.26,432l-.35-.34a3.27,3.27,0,1,0-4.62,4.62L81,438.88h0L99.4,457.34l0,0,0,0,2.62,2.62a3.27,3.27,0,0,0,4.62-4.62l-.34-.34L222.46,339l0,0,0,0a22.89,22.89,0,0,1,32.32,0,3.27,3.27,0,0,0,2.31,1,3.23,3.23,0,0,0,2.31-1l231-231h0C494.16,104.2,497.73,97.41,493.67,86.21ZM87.88,436.57,201.69,322.76l13.86,13.86-53.13,53.13a3.23,3.23,0,0,0,.81-1.3,3.26,3.26,0,0,0-2.06-4.13l-13.86-4.62a3.27,3.27,0,0,0-2.07,6.2l13.86,4.62a3.13,3.13,0,0,0,1,.17,3.27,3.27,0,0,0,2.28-.93l-60.67,60.67ZM220.3,332.13,206.18,318a29.45,29.45,0,0,0,0-36.7L435,52.5h0c8.52-8.53,24.67,1.57,36.95,13.86s22.38,28.44,13.86,37h0L257,332.13A29.46,29.46,0,0,0,220.3,332.13Z" transform="translate(-77.34 -30.79)"/><path class="cls-1" d="M292.12,250.76l.08-.14.17-.28c.05-.1.09-.2.13-.3a2.31,2.31,0,0,0,.1-.28l.09-.33,0-.28c0-.11,0-.22,0-.34s0-.19,0-.29a3.06,3.06,0,0,0-.05-.32c0-.1,0-.2-.07-.3a2.83,2.83,0,0,0-.11-.31c0-.09-.08-.18-.13-.27a1.92,1.92,0,0,0-.18-.31s0-.08-.07-.12l-.1-.11c-.08-.09-.15-.18-.23-.26l-.27-.24-.1-.09a1.05,1.05,0,0,1-.11-.07l-.36-.21-.2-.09a3,3,0,0,0-.39-.14l-.22-.05-.39-.06h-.24l-.37,0-.27,0-.32.08a1.82,1.82,0,0,0-.3.11,1.23,1.23,0,0,0-.26.12,2.79,2.79,0,0,0-.33.19,1.05,1.05,0,0,1-.11.07L218.26,297a3.26,3.26,0,0,0,1.93,5.9,3.23,3.23,0,0,0,1.93-.63L274.29,264,236,316.19a3.27,3.27,0,0,0,5.27,3.87Z" transform="translate(-77.34 -30.79)"/><path class="cls-1" d="M186.82,344.32l13.86,4.62a3.09,3.09,0,0,0,1,.17,3.27,3.27,0,0,0,1-6.37l-13.86-4.62a3.27,3.27,0,1,0-2.06,6.2Z" transform="translate(-77.34 -30.79)"/><path class="cls-1" d="M173,358.18l13.86,4.62a3.37,3.37,0,0,0,1,.17,3.27,3.27,0,0,0,1-6.37L175,352a3.27,3.27,0,1,0-2.06,6.2Z" transform="translate(-77.34 -30.79)"/><path class="cls-1" d="M159.1,372,173,376.66a3.35,3.35,0,0,0,1,.16,3.26,3.26,0,0,0,1-6.36l-13.86-4.62a3.27,3.27,0,0,0-2.07,6.2Z" transform="translate(-77.34 -30.79)"/><path class="cls-1" d="M147.31,398.18l-13.86-4.62a3.27,3.27,0,0,0-2.07,6.2l13.86,4.62a3.35,3.35,0,0,0,1,.16,3.26,3.26,0,0,0,1-6.36Z" transform="translate(-77.34 -30.79)"/><path class="cls-1" d="M133.45,412l-13.86-4.61a3.24,3.24,0,0,0-4.13,2.06,3.28,3.28,0,0,0,2.06,4.14l13.86,4.62a3.41,3.41,0,0,0,1,.16,3.27,3.27,0,0,0,1-6.37Z" transform="translate(-77.34 -30.79)"/><path class="cls-1" d="M119.59,425.89l-13.86-4.62a3.27,3.27,0,0,0-2.07,6.2l13.86,4.62a3.15,3.15,0,0,0,1,.17,3.27,3.27,0,0,0,1-6.37Z" transform="translate(-77.34 -30.79)"/><path class="cls-1" d="M303.35,238.23a3.25,3.25,0,0,0,2.31-1L448.87,94.05a3.26,3.26,0,0,0-4.62-4.61L301,232.65a3.27,3.27,0,0,0,2.31,5.58Z" transform="translate(-77.34 -30.79)"/><path class="cls-1" d="M316.87,399.39a35.91,35.91,0,1,0,4.52,27.1A35.73,35.73,0,0,0,316.87,399.39Zm-3.25,25.3a27.94,27.94,0,1,1-3.53-21.08A27.78,27.78,0,0,1,313.62,424.69Z" transform="translate(-77.34 -30.79)"/><path class="cls-1" d="M291.47,434.06,274.57,407a4,4,0,0,0-6.77,4.22l16.9,27.08a4,4,0,0,0,3.39,1.88,3.9,3.9,0,0,0,2.11-.61A4,4,0,0,0,291.47,434.06Z" transform="translate(-77.34 -30.79)"/><path class="cls-1" d="M305,425.6l-16.9-27.08a4,4,0,0,0-6.77,4.22l16.9,27.09a4,4,0,0,0,3.39,1.87,3.92,3.92,0,0,0,2.1-.6A4,4,0,0,0,305,425.6Z" transform="translate(-77.34 -30.79)"/><text class="cls-2" transform="translate(151.99 81.63)">+1</text></svg>