<svg id="Capa_1" data-name="Capa 1" xmlns="http://www.w3.org/2000/svg" viewBox="0 0 384.36 269.19"><defs><style>.cls-1{fill:none;stroke:#00e9c5;stroke-linecap:round;stroke-linejoin:round;stroke-width:7px;}.cls-2{fill:#00e9c5;}</style></defs><polyline class="cls-1" points="243.09 189.46 315.52 189.2 315.52 203.29 380.86 165.56 315.52 127.83 315.52 141.92 205.45 141.68"/><path class="cls-1" d="M132.62,225.66h0a13.56,13.56,0,0,0,11.76,15l41.4,5.28a46.85,46.85,0,0,0,18.33-1.28l32.16-8.77,11.3,39.94a46,46,0,0,1-1,28.07l-11.34,31.4L179,364.15a14.7,14.7,0,0,0-6.52,19.54h0a14.71,14.71,0,0,0,20,6.62l58.77-30.57a31.88,31.88,0,0,0,15.18-17.15l15.45-41.31,37.51,31.18L339.48,393a15.2,15.2,0,0,0,18.72,9.8h0a15.21,15.21,0,0,0,10.07-19.54l-21.7-62.84a32.72,32.72,0,0,0-8.92-13.54l-24.11-21.94A38.8,38.8,0,0,1,302.37,267l-12.95-44.84,29.91-6.34,39.84,25.86a11.63,11.63,0,0,0,15.13-2.14h0a11.64,11.64,0,0,0-2.4-17.34L332,195.93a29.19,29.19,0,0,0-18.75-4.69l-43.67,4a104.88,104.88,0,0,0-24.64,5.3l-53.24,18.33-44-5.14A13.56,13.56,0,0,0,132.62,225.66Z" transform="translate(-105.81 -137.72)"/><path class="cls-1" d="M223.79,163.46c-1.11,12.34,8.73,23.32,22,24.56,11.7,1.1,23.51-8.8,24.54-20.56,1.21-14-8-25.16-21.93-26.18A23.18,23.18,0,0,0,223.79,163.46Z" transform="translate(-105.81 -137.72)"/><path class="cls-2" d="M111.87,198.62a.43.43,0,0,0,.31-.12,15.79,15.79,0,0,1,2.48-1.74h0a.47.47,0,0,0,.17-.65.48.48,0,0,0-.65-.17,16,16,0,0,0-2.63,1.86.48.48,0,0,0-.16.36A.47.47,0,0,0,111.87,198.62Z" transform="translate(-105.81 -137.72)"/><path class="cls-2" d="M131.54,196.5a.42.42,0,0,0-.14-.09,16.6,16.6,0,0,0-14.86-1.58.47.47,0,1,0,.33.88,15.71,15.71,0,0,1,13.58,1.23L109,218.41a15.69,15.69,0,0,1-1.22-13.58.49.49,0,0,0-.27-.62.49.49,0,0,0-.62.28,16.63,16.63,0,0,0,1.63,14.93h0a16.61,16.61,0,0,0,25.63,2.66,17.29,17.29,0,0,0,2.16-2.67A16.58,16.58,0,0,0,131.54,196.5Zm-22,22.72,21.76-21.76a15.84,15.84,0,0,1,4,4l-21.76,21.77A15.72,15.72,0,0,1,109.51,219.22Zm26-.32a15.64,15.64,0,0,1-21.16,4.87l21.47-21.47A15.66,15.66,0,0,1,135.51,218.9Z" transform="translate(-105.81 -137.72)"/><path class="cls-2" d="M108.39,202.85h0a.46.46,0,0,0,.41-.24,15.85,15.85,0,0,1,1.75-2.48h0a.47.47,0,0,0-.72-.61,16.12,16.12,0,0,0-1.86,2.64.46.46,0,0,0-.06.23A.47.47,0,0,0,108.39,202.85Z" transform="translate(-105.81 -137.72)"/><path class="cls-2" d="M130.81,202.41h0a.43.43,0,0,0,.34-.13l1-1a.47.47,0,0,0-.67-.67l-1,1a.45.45,0,0,0-.14.33A.47.47,0,0,0,130.81,202.41Z" transform="translate(-105.81 -137.72)"/><path class="cls-2" d="M127.25,206a.48.48,0,0,0,.34-.14l1-1a.46.46,0,0,0,0-.67.48.48,0,0,0-.67,0l-1,1a.45.45,0,0,0-.14.33A.48.48,0,0,0,127.25,206Z" transform="translate(-105.81 -137.72)"/><path class="cls-2" d="M123.69,209.53h0a.43.43,0,0,0,.34-.13l1-1h0a.48.48,0,0,0-.69-.66l-1,1a.44.44,0,0,0-.14.33A.47.47,0,0,0,123.69,209.53Z" transform="translate(-105.81 -137.72)"/><path class="cls-2" d="M120.14,213.09a.51.51,0,0,0,.33-.13l1-1a.48.48,0,0,0,0-.67.48.48,0,0,0-.68,0l-1,1a.47.47,0,0,0,.34.81Z" transform="translate(-105.81 -137.72)"/><path class="cls-2" d="M116.57,216.66a.48.48,0,0,0,.34-.14l1-1a.47.47,0,0,0-.67-.67l-1,1a.45.45,0,0,0-.14.33A.48.48,0,0,0,116.57,216.66Z" transform="translate(-105.81 -137.72)"/><path class="cls-2" d="M114.32,219.1a.47.47,0,0,0-.67-.67l-1,1a.45.45,0,0,0-.14.33.47.47,0,0,0,.81.34Z" transform="translate(-105.81 -137.72)"/></svg>