<svg id="Iconos" xmlns="http://www.w3.org/2000/svg" viewBox="0 0 37.16 38.96"><defs><style>.cls-1,.cls-2{fill:none;stroke:#00e9c5;stroke-linecap:round;stroke-linejoin:round;}.cls-1{stroke-width:1.88px;}.cls-2{stroke-width:1.5px;}.cls-3{font-size:7.36px;fill:#00e9c5;font-family:MyriadPro-Regular, Myriad Pro;}</style></defs><g id="Pelota"><line class="cls-1" x1="15.89" y1="38.02" x2="15.89" y2="38.02"/><path class="cls-1" d="M35.62,23.35A16.06,16.06,0,0,1,23.09,46.26" transform="translate(-4.18 -8.32)"/><path class="cls-1" d="M16.5,45.69a16,16,0,0,1,4.67-31.4,15.88,15.88,0,0,1,4.44.62" transform="translate(-4.18 -8.32)"/><path class="cls-1" d="M8.59,27.17C6.3,34.66,11.49,44.68,22.25,40.5l14.48-6.68" transform="translate(-4.18 -8.32)"/><path class="cls-1" d="M27.14,17.51,15.36,20.38a9.77,9.77,0,0,0-4.68,3" transform="translate(-4.18 -8.32)"/></g><polygon class="cls-2" points="30.94 5.7 36.41 6.47 32.46 10.34 33.42 15.79 28.52 13.23 23.64 15.82 24.55 10.37 20.58 6.53 26.05 5.71 28.47 0.75 30.94 5.7"/><text class="cls-3" transform="translate(26.54 11.63)">P</text></svg>