<svg id="Iconos" xmlns="http://www.w3.org/2000/svg" viewBox="0 0 33.23 32.53"><defs><style>.cls-1{fill:none;stroke:#00e9c5;stroke-linecap:round;stroke-linejoin:round;stroke-width:1.5px;}.cls-2{font-size:7.36px;fill:#00e9c5;font-family:MyriadPro-Regular, Myriad Pro;}</style></defs><g id="Pelota"><line class="cls-1" x1="12.66" y1="31.78" x2="12.66" y2="31.78"/><path class="cls-1" d="M32.68,24.76A12.8,12.8,0,0,1,22.7,43" transform="translate(-7.63 -11.3)"/><path class="cls-1" d="M17.45,42.56a12.78,12.78,0,0,1,3.72-25,12.93,12.93,0,0,1,3.54.49" transform="translate(-7.63 -11.3)"/><path class="cls-1" d="M26.51,20l-10,2.43c-9.87,2.89-6.61,20.72,5.49,16l11.53-5.32" transform="translate(-7.63 -11.3)"/></g><polygon class="cls-1" points="27.01 5.7 32.48 6.47 28.54 10.34 29.49 15.79 24.59 13.23 19.71 15.82 20.63 10.37 16.66 6.53 22.12 5.71 24.55 0.75 27.01 5.7"/><text class="cls-2" transform="translate(22.61 11.63)">P</text></svg>