<?xml version="1.0" encoding="utf-8"?>
<!-- Generator: Adobe Illustrator 25.4.1, SVG Export Plug-In . SVG Version: 6.00 Build 0)  -->
<svg version="1.1" xmlns="http://www.w3.org/2000/svg" xmlns:xlink="http://www.w3.org/1999/xlink" x="0px" y="0px"
	 viewBox="0 0 1080 1080" style="enable-background:new 0 0 1080 1080;" xml:space="preserve">
<style type="text/css">
	.st0{display:none;}
	.st1{display:inline;}
	.st2{fill:#F2F2F2;}
	.st3{clip-path:url(#SVGID_00000009587936933471379340000013316961269104382113_);fill:#F7DEA5;}
	.st4{clip-path:url(#SVGID_00000009587936933471379340000013316961269104382113_);fill:#BF8819;}
	.st5{clip-path:url(#SVGID_00000009587936933471379340000013316961269104382113_);fill:#00E9C5;}
	.st6{clip-path:url(#SVGID_00000009587936933471379340000013316961269104382113_);fill:#D3C263;}
	.st7{clip-path:url(#SVGID_00000009587936933471379340000013316961269104382113_);fill:#E8E8E8;}
	.st8{clip-path:url(#SVGID_00000009587936933471379340000013316961269104382113_);fill:#A8905E;}
	.st9{clip-path:url(#SVGID_00000009587936933471379340000013316961269104382113_);fill:#FCEB4C;}
	.st10{clip-path:url(#SVGID_00000009587936933471379340000013316961269104382113_);}
	.st11{fill:#A8905E;}
	.st12{clip-path:url(#SVGID_00000009587936933471379340000013316961269104382113_);fill:#DBCA2A;}
	.st13{clip-path:url(#SVGID_00000009587936933471379340000013316961269104382113_);fill:#A59205;}
	.st14{clip-path:url(#SVGID_00000009587936933471379340000013316961269104382113_);fill:#F9F4D2;}
</style>
<g id="Capa_3" class="st0">
	<g class="st1">
		<path class="st2" d="M848.3,308.2c-2.2,45.6-56.3,142.8-46.6,187.7c11.5,52.6,37,101.6,57.1,152c20.1,50.4,34.8,105,23.5,157.4
			S827.2,906.8,770,911.8c-69.9,6.2-134.5-52.1-203.9-42.4c-57,7.9-93.9,57.6-129.5,99.7c-25.2,29.9-53.8,58.4-90.1,75.9
			s-81.7,22.2-118.1,4.4c-39.4-19.2-61.1-60.1-72.4-100.2c-21-74.4-13.5-158,33.3-220.8c26.1-34.9,63.2-62.5,83.6-100.6
			c11-20.6,17.9-43.3,20.1-66.3c19.3-206.8-8.9-276.5,47.2-378.2C387.3,97.8,544.2,35.3,646.3,52.6s194.2,100.5,201.4,197
			C850.4,285.7,849.3,267.6,848.3,308.2z"/>
	</g>
</g>
<g id="Capa_4">
	<circle class="st2" cx="540" cy="540" r="540"/>
</g>
<g id="Capa_2">
	<g>
		<defs>
			<circle id="SVGID_1_" cx="540" cy="540" r="540"/>
		</defs>
		<clipPath id="SVGID_00000013904071131580642760000005200904832973162674_">
			<use xlink:href="#SVGID_1_"  style="overflow:visible;"/>
		</clipPath>
		<path style="clip-path:url(#SVGID_00000013904071131580642760000005200904832973162674_);fill:#F7DEA5;" d="M78.7,1050.7
			c0,0,241.1-237.2,297-379.9c55.2-140.9,76.5-135.2,32.5-202.8s-94.3-143-55-187s67.6-99,103.7-100.5c0,0,14.1-70.7,53.4-67.6
			s53.4,36.1,53.4,36.1s28.3,0,39.3,11c11,11,61.3,64.4,61.3,64.4s39.3-4.7,62.8,47.1c0,0,44,12.6,33,70.7S744,490,744,490
			s-15.3,51.8-38.8,75.4s-171.5,304-209.2,541.2L78.7,1050.7z"/>
		
			<circle style="clip-path:url(#SVGID_00000013904071131580642760000005200904832973162674_);fill:#BF8819;" cx="593.7" cy="885.7" r="108.5"/>
		<path style="clip-path:url(#SVGID_00000013904071131580642760000005200904832973162674_);fill:#BF8819;" d="M610.9,750.8
			C555.4,744.7,565,781,565,781c2.1-0.7,5.4-0.9,9.7-0.8c-0.3-7.4,2.9-23.1,35.7-19.5c36.7,4,33.8,24.3,31.8,30.9
			c5.6,1.3,9.1,2.1,9.1,2.1S668.3,757.1,610.9,750.8z"/>
		<path style="clip-path:url(#SVGID_00000013904071131580642760000005200904832973162674_);fill:#00E9C5;" d="M659.1,398v176.9
			c0,0,0.5,168.8-19.6,198.3c0,0-57,0.2-62.2-3.3c-5.1-3.5,16.6-104.2,15.4-171.4s-1-144.9,14-169.9c1.1-1.9,5.4,4.3,7.4,3.8
			c6-1.4,12.4-6.4,16.3-11.1C648.2,400.1,659.1,398,659.1,398z"/>
		
			<circle style="clip-path:url(#SVGID_00000013904071131580642760000005200904832973162674_);fill:#D3C263;" cx="593.7" cy="885.7" r="97.6"/>
		<path style="clip-path:url(#SVGID_00000013904071131580642760000005200904832973162674_);fill:#E8E8E8;" d="M638.8,417v157.9
			c0,0,0.6,168.8-9.9,198.2c0,0-32.3,0.3-37-1.1c-4.3-1.3,12.9-106.4,14.6-173.5c1.6-63.2-4.8-142.9,7.7-166
			C616.4,428.3,638.8,417,638.8,417z"/>
		<path style="clip-path:url(#SVGID_00000013904071131580642760000005200904832973162674_);fill:#A8905E;" d="M394.1,306.2
			c0,0,42.4,7.9,44-25.1c0,0,59.7,45.6,117.8,0c0,0-44,66-22,84.8c0,0,19.7,31.4,40.5-14.1c0,0-34.2,56.6,8.2,72.3
			c0,0,47.1,20.4,62.8-31.4c0,0,11-30.6,39.3-38.1c0,0-37.7,33.4,0,34.9c0,0-36.1,3.1-44,31.4c-7.9,28.3-48.7,23.6-48.7,23.6
			s-26.7,14.1-29.8,42.4c0,0-16.1-27.8-9.4-45.6c3.6-9.6,17.3-23.6-4.7-40.8c-22-17.3-47.1-75.4-100.5-84.8
			C394.1,306.2,394.1,306.2,394.1,306.2z"/>
		
			<circle style="clip-path:url(#SVGID_00000013904071131580642760000005200904832973162674_);fill:#FCEB4C;" cx="593.7" cy="885.7" r="80.4"/>
		<g style="clip-path:url(#SVGID_00000013904071131580642760000005200904832973162674_);">
			<g>
				<path class="st11" d="M555.9,281.1c4-6.4,7.7-13,10.5-19.8c1.4-3.4,2.7-6.9,3.5-10.5c0.8-3.5,1.2-7.2,0.8-10.6
					c-0.2-1.7-0.7-3.3-1.4-4.8c-0.7-1.5-1.7-2.7-3-4l-0.9-1c-0.3-0.3-0.7-0.6-1-0.9c-0.7-0.6-1.3-1.2-2-1.7l-2.2-1.5
					c-0.4-0.3-0.7-0.5-1.1-0.7l-1.2-0.6c-1.5-0.9-3.2-1.6-4.8-2.4c-1.7-0.6-3.4-1.4-5.1-1.9c-3.5-1.2-7.1-2-10.7-2.7
					c-7.2-1.5-14.7-2.4-22.1-3.2l-5.6-0.7c-2-0.3-4-0.7-5.9-1.3c-3.8-1.1-7.3-2.8-10.7-4.6c-6.8-3.6-13-8-19-12.7
					c-5.9-4.7-11.7-9.7-16.9-15.1c6,4.6,12.1,9,18.3,13.1c6.2,4.1,12.7,8,19.3,11.2c1.7,0.8,3.4,1.5,5.1,2.2
					c0.8,0.3,1.7,0.6,2.6,0.9c0.9,0.3,1.7,0.6,2.6,0.8c1.7,0.5,3.4,0.8,5.2,1l5.6,0.5c7.5,0.7,15.1,1.6,22.6,3
					c3.8,0.8,7.5,1.7,11.2,3c1.9,0.6,3.7,1.4,5.5,2.1c1.8,0.9,3.6,1.6,5.3,2.7l1.3,0.8c0.4,0.2,0.8,0.5,1.2,0.8l2.4,1.8
					c0.8,0.6,1.5,1.3,2.3,2c0.4,0.3,0.8,0.7,1.1,1l1,1.1l1,1.1l0.5,0.6c0.2,0.2,0.3,0.4,0.5,0.7c0.3,0.5,0.6,0.9,0.9,1.4l0.7,1.4
					c0.8,2,1.3,4,1.5,6.1c0.3,4.1-0.3,8.1-1.5,11.8c-1.1,3.7-2.7,7.3-4.4,10.7C565.1,269,560.8,275.3,555.9,281.1z"/>
			</g>
			<g>
				<path class="st11" d="M521.3,213.1c0.4-1.7,0.8-3.3,1.3-4.9c0.5-1.6,1-3.1,1.5-4.7c0.5-1.6,1.1-3.1,1.7-4.6
					c0.6-1.5,1.3-3,1.9-4.5c2.6-6,5.7-11.8,9.2-17.3c3.5-5.5,7.5-10.7,12-15.4l3.4-3.5l3.7-3.2l1.8-1.6l2-1.4l3.9-2.9l-3.7,3.1
					l-1.9,1.5l-1.7,1.7l-3.4,3.4l-3.1,3.6c-4.1,4.9-7.8,10.2-10.8,15.9c-3.1,5.6-5.7,11.4-7.9,17.4c-0.5,1.5-1.1,3-1.5,4.5
					c-0.5,1.5-1,3-1.4,4.6c-0.9,3-1.6,6.2-2.1,9.2L521.3,213.1z"/>
			</g>
			<g>
				<path class="st11" d="M567.2,230.4c0.4-0.7,0.7-1.1,1.1-1.5c0.4-0.5,0.8-0.9,1.2-1.3c0.4-0.4,0.8-0.8,1.2-1.2
					c0.4-0.4,0.8-0.8,1.3-1.1c1.7-1.5,3.6-2.7,5.5-3.8c3.8-2.2,8-3.6,12.2-4.7c8.4-2,17-2.2,25.4-1.4c8.4,0.8,16.7,1.9,24.9,3.3
					c4.1,0.7,8.2,1.5,12.3,2.4c4.1,0.9,8.2,1.9,12.1,3.5c-4-1.3-8.1-2.1-12.2-2.9c-4.1-0.7-8.2-1.3-12.4-1.8
					c-8.3-1-16.6-1.7-24.9-2.1c-8.2-0.4-16.5,0.2-24.3,2.5c-3.9,1.2-7.6,2.7-10.9,4.8c-1.7,1.1-3.3,2.2-4.7,3.5
					c-0.4,0.3-0.7,0.6-1,1c-0.3,0.4-0.7,0.7-1,1c-0.3,0.4-0.6,0.7-0.9,1.1c-0.3,0.3-0.6,0.8-0.7,1L567.2,230.4z"/>
			</g>
			<g>
				<path class="st11" d="M574.4,351.8c1.2-6.3,3.1-12.4,5.4-18.3c2.4-5.9,5.2-11.8,8.9-17.1c1.8-2.7,3.9-5.3,6.2-7.6
					c2.3-2.3,5-4.5,8-6.2c1.5-0.9,3-1.5,4.5-2.1c1.5-0.7,3-1.2,4.6-1.8c1.5-0.6,3.1-1.1,4.6-1.5l2.3-0.7l2.3-0.7
					c12.4-3.4,24.8-5.6,37.2-8.1c6.2-1.2,12.4-2.5,18.5-4c6.1-1.5,12.2-3.2,18-5.7c-5.4,3.5-11.4,5.8-17.4,8c-3,1.1-6.1,2-9.1,2.9
					c-3.1,0.9-6.1,1.7-9.2,2.5c-6.1,1.6-12.3,3-18.5,4.5c-6.2,1.4-12.3,2.9-18.3,4.6c-6,1.6-12,3.5-17.4,6.2
					c-5.2,2.7-9.6,7.1-13.3,12c-3.8,4.9-7,10.3-9.8,15.9C579.2,340,576.7,345.8,574.4,351.8z"/>
			</g>
		</g>
		<path style="clip-path:url(#SVGID_00000013904071131580642760000005200904832973162674_);fill:#DBCA2A;" d="M596.5,835.3
			c-3.2,1.4-5.3,4.6-5.3,8.1l0,0v62c0,1.7-1.4,3.1-3.1,3.1c-0.3,0-0.6,0-0.9-0.1c-14-4.2-23.6-17.1-23.6-31.7c0-0.5,0-0.9,0-1.4
			v-0.5c0-0.3,0-0.7,0.1-1v-0.3c0.1-0.9,0.2-1.8,0.4-2.7l0.1-0.3c0.1-0.4,0.2-0.8,0.2-1.1c0-0.1,0-0.1,0-0.2
			c0.2-0.9,0.5-1.8,0.7-2.7l0.1-0.2c0.1-0.4,0.3-0.8,0.4-1.2l0,0c0.3-0.9,0.7-1.8,1.1-2.6l0.1-0.1c0.4-0.8,0.8-1.6,1.3-2.4v0
			c0.2-0.4,0.4-0.7,0.7-1.1c0.1-0.1,0.1-0.1,0.1-0.2c0.2-0.3,0.4-0.7,0.7-1l0.1-0.1c0.2-0.3,0.5-0.7,0.8-1l0.2-0.3
			c1.1-1.4,2.4-2.8,3.7-4c0.6-0.5,1.2-1,1.8-1.5c1.6-1.2,1.9-3.6,0.7-5.2c-0.1-0.1-0.2-0.3-0.3-0.4l-2.7-2.7
			c-1.3-1.3-3.5-1.4-4.9-0.3c-2.1,1.7-4,3.6-5.8,5.6l0,0l-0.1,0.1c-0.4,0.5-0.8,0.9-1.1,1.4l0,0c-0.4,0.5-0.7,0.9-1,1.4l-0.2,0.2
			c-0.5,0.9-1.2,1.9-1.8,3l-0.2,0.3c-0.6,1-1.2,2.1-1.7,3.1c-0.1,0.1-0.1,0.2-0.2,0.3c-0.2,0.5-0.5,1-0.7,1.5l-0.1,0.1
			c-0.2,0.5-0.5,1.1-0.7,1.6l-0.1,0.3c-0.2,0.5-0.4,1-0.5,1.5l-0.1,0.2c-0.2,0.6-0.3,1.1-0.5,1.7L554,865c-0.1,0.5-0.3,1-0.4,1.5
			c0,0.1-0.1,0.2-0.1,0.4c-0.1,0.6-0.2,1.2-0.4,1.8c0,0.1,0,0.2,0,0.2c-0.1,0.5-0.2,1.1-0.3,1.5c0,0.2,0,0.3-0.1,0.4
			c-0.1,0.6-0.2,1.2-0.2,1.8c0,0.1,0,0.1,0,0.2c-0.1,0.5-0.1,1.1-0.1,1.6c0,0.2,0,0.3,0,0.5c0,0.6,0,1.2,0,1.8h-0.1
			c0,21.4,15.2,39.7,36.2,43.6c1.5,0.3,2.6,1.5,2.6,3v16.7c0,1.7,1.4,3.1,3.1,3.1c0,0,0,0,0,0h4.9c1.7,0,3.1-1.4,3.1-3.1l0,0v-16.7
			c0-1.5,1-2.7,2.5-3c8.8-1.6,17-5.9,23.3-12.3c2.6-2.7,4.9-5.6,6.9-8.9c12.4-21.1,5.4-48.3-15.7-60.7c-2.9-1.7-5.9-3-9-4
			C605.7,833.1,600.8,833.4,596.5,835.3z M626.7,891.1c-4.1,8.4-11.5,14.7-20.5,17.4c-1.6,0.5-3.3-0.4-3.8-2.1
			c-0.1-0.3-0.1-0.6-0.1-0.9V851c0-2.9,2.4-5.3,5.3-5.3c0.7,0,1.4,0.1,2,0.4c16.9,7.1,24.9,26.5,17.8,43.4
			C627.2,890,627,890.5,626.7,891.1L626.7,891.1z"/>
		<path style="clip-path:url(#SVGID_00000013904071131580642760000005200904832973162674_);fill:#A59205;" d="M592.5,835.3
			c-3.2,1.4-5.3,4.6-5.3,8.1l0,0v62c0,1.7-1.4,3.1-3.1,3.1c-0.3,0-0.6,0-0.9-0.1c-14-4.2-23.6-17.1-23.6-31.7c0-0.5,0-0.9,0-1.4
			v-0.5c0-0.3,0-0.7,0.1-1v-0.3c0.1-0.9,0.2-1.8,0.4-2.7l0.1-0.3c0.1-0.4,0.2-0.8,0.2-1.1c0-0.1,0-0.1,0-0.2
			c0.2-0.9,0.5-1.8,0.7-2.7l0.1-0.2c0.1-0.4,0.3-0.8,0.4-1.2l0,0c0.3-0.9,0.7-1.8,1.1-2.6l0.1-0.1c0.4-0.8,0.8-1.6,1.3-2.4v0
			c0.2-0.4,0.4-0.7,0.7-1.1c0.1-0.1,0.1-0.1,0.1-0.2c0.2-0.3,0.4-0.7,0.7-1l0.1-0.1c0.2-0.3,0.5-0.7,0.8-1l0.2-0.3
			c1.1-1.4,2.4-2.8,3.7-4c0.6-0.5,1.2-1,1.8-1.5c1.6-1.2,1.9-3.6,0.7-5.2c-0.1-0.1-0.2-0.3-0.3-0.4l-2.7-2.7
			c-1.3-1.3-3.5-1.4-4.9-0.3c-2.1,1.7-4,3.6-5.8,5.6l0,0l-0.1,0.1c-0.4,0.5-0.8,0.9-1.1,1.4l0,0c-0.4,0.5-0.7,0.9-1,1.4l-0.2,0.2
			c-0.5,0.9-1.2,1.9-1.8,3l-0.2,0.3c-0.6,1-1.2,2.1-1.7,3.1c-0.1,0.1-0.1,0.2-0.2,0.3c-0.2,0.5-0.5,1-0.7,1.5l-0.1,0.1
			c-0.2,0.5-0.5,1.1-0.7,1.6l-0.1,0.3c-0.2,0.5-0.4,1-0.5,1.5l-0.1,0.2c-0.2,0.6-0.3,1.1-0.5,1.7L550,865c-0.1,0.5-0.3,1-0.4,1.5
			c0,0.1-0.1,0.2-0.1,0.4c-0.1,0.6-0.2,1.2-0.4,1.8c0,0.1,0,0.2,0,0.2c-0.1,0.5-0.2,1.1-0.3,1.5c0,0.2,0,0.3-0.1,0.4
			c-0.1,0.6-0.2,1.2-0.2,1.8c0,0.1,0,0.1,0,0.2c-0.1,0.5-0.1,1.1-0.1,1.6c0,0.2,0,0.3,0,0.5c0,0.6,0,1.2,0,1.8h-0.1
			c0,21.4,15.2,39.7,36.2,43.6c1.5,0.3,2.6,1.5,2.6,3v16.7c0,1.7,1.4,3.1,3.1,3.1c0,0,0,0,0,0h4.9c1.7,0,3.1-1.4,3.1-3.1l0,0v-16.7
			c0-1.5,1-2.7,2.5-3c8.8-1.6,17-5.9,23.3-12.3c2.6-2.7,4.9-5.6,6.9-8.9c12.4-21.1,5.4-48.3-15.7-60.7c-2.9-1.7-5.9-3-9-4
			C601.7,833.1,596.8,833.4,592.5,835.3z M622.7,891.1c-4.1,8.4-11.5,14.7-20.5,17.4c-1.6,0.5-3.3-0.4-3.8-2.1
			c-0.1-0.3-0.1-0.6-0.1-0.9V851c0-2.9,2.4-5.3,5.3-5.3c0.7,0,1.4,0.1,2,0.4c16.9,7.1,24.9,26.5,17.8,43.4
			C623.2,890,623,890.5,622.7,891.1L622.7,891.1z"/>
		<path style="clip-path:url(#SVGID_00000013904071131580642760000005200904832973162674_);fill:#F9F4D2;" d="M558.5,779.6l31.5,8.7
			l-31.7,8.3c-4.8,1.3-8.6,5-10,9.8l-8.7,31.5l-8.3-31.7c-1.3-4.8-5-8.6-9.8-10l-31.5-8.7l31.7-8.3c4.8-1.3,8.6-5,10-9.8l8.7-31.5
			l8.3,31.7C549.9,774.5,553.6,778.3,558.5,779.6z"/>
	</g>
</g>
</svg>
