<?xml version="1.0" encoding="utf-8"?>
<!-- Generator: Adobe Illustrator 25.4.1, SVG Export Plug-In . SVG Version: 6.00 Build 0)  -->
<svg version="1.1" xmlns="http://www.w3.org/2000/svg" xmlns:xlink="http://www.w3.org/1999/xlink" x="0px" y="0px"
	 viewBox="0 0 1080 1096.4" style="enable-background:new 0 0 1080 1096.4;" xml:space="preserve">
<style type="text/css">
	.st0{fill:#F2F2F2;}
	.st1{fill:#00E9C5;}
	.st2{fill:#E8C695;}
	.st3{fill:#EFEFEF;}
	.st4{fill:url(#SVGID_1_);}
	.st5{fill:#3A383B;}
	.st6{fill:#282828;}
	.st7{opacity:0.5;fill:#3A383B;}
	.st8{fill:#23212C;}
	.st9{fill:#E9E8E6;}
	.st10{fill:#FFFFFF;}
	.st11{fill:#CAE5E1;}
	.st12{fill:#E2C7AF;}
	.st13{opacity:0.5;fill:#E2C7AF;}
	.st14{fill:#2E726E;}
	.st15{fill:#888B92;}
	.st16{fill:#C1C1C1;}
	.st17{fill:#CCAF97;}
	.st18{fill:#CCB140;}
	.st19{fill:#110F0F;}
	.st20{fill:#C5E5ED;}
	.st21{fill:#A49EA2;}
	.st22{fill:#E8E8E8;}
	.st23{fill:none;stroke:#A49EA2;stroke-width:20;stroke-linecap:round;stroke-miterlimit:10;}
	.st24{opacity:0.5;fill:#CCB140;}
	.st25{opacity:0.5;fill:#282828;}
	.st26{fill:#F1F1F1;}
	.st27{fill:#BA8F72;}
	.st28{fill:#543104;}
	.st29{display:none;}
</style>
<g id="Capa_4">
	<g>
		<path class="st0" d="M592.4,929.5c17.3-42.3,12.4-152.2,39.5-189c31.7-43.2,73.9-77.5,111.9-115.2c38.1-37.8,73.4-81.4,85.8-133.5
			s-3.9-114.3-50-141.7c-56.4-33.6-135.2-6.5-189.7-43.1c-44.7-30-55-89.9-67.4-142.3c-8.8-37.2-20.9-74.6-44.2-104.9
			S418.8,6.9,380.6,8.5c-41.3,1.7-76.8,30.1-103.1,62c-49,59.2-77.7,138.1-64.6,213.7c7.3,42.1,27.1,82.1,28.3,124.8
			c0.7,23.1-3,46.5-10.9,68.2c-70.5,195.5-123.5,247.5-118.8,362.3c3.9,96.6,110,216.1,203.3,241.2c93.3,25.1,205.9-13.6,252.4-98.3
			C584.6,950.8,576.1,966.8,592.4,929.5z"/>
	</g>
</g>
<g id="Capa_6">
	<circle class="st1" cx="721.6" cy="189.8" r="139.4"/>
	<path class="st2" d="M779.4,70.4c0,0-2.6,36.4-3.2,42c-0.6,5.6,10.3,16.9,18.6,24.4c8.4,7.5,24.4,30,0,62.2
		c0,0-19.3,15.2-24.4,19.5c-5.1,4.3-14.8,17.9-17.4,31.7c-2.6,13.8-7.7,33-9,40.4s-2.5,25.5-14.1,32.1s-20.6,3.8-20.6,3.8l-42.8-8.5
		l-17.6-20.7c0,0,4.5-9.7,10.9-16.1c0,0,2.9-16.7,11.6-27.6c8.7-10.9,17-26.4,19.3-29.6s7.7-31.2,8-37.3c0.3-6.1,7.4-24.8,8.4-27.3
		c1-2.6,4.2-64.3-1.6-99.6l43.9-6.5L779.4,70.4z"/>
	<g>
		<path class="st2" d="M674.9,319.5c1.4-2.4,3-4.6,5.1-6.6c0.5-0.5,1.2-1,1.7-1.3c0.6-0.4,1.1-0.8,1.6-1.2c1.1-0.8,2.1-1.6,3.2-2.5
			c2.1-1.7,4-3.6,5.7-5.6c1.6-2.1,2.9-4.4,3.1-7.2c0.6,2.7-0.3,5.7-1.9,8.1c-1.5,2.4-3.5,4.4-5.7,6.2c-1.1,0.9-2.2,1.7-3.4,2.5
			c-0.6,0.4-1.2,0.8-1.8,1.1c-0.6,0.4-1.1,0.7-1.6,1.1C678.9,315.8,676.9,317.7,674.9,319.5z"/>
	</g>
	<g>
		<path class="st2" d="M661.8,312.3c1.9-2.1,3.9-4.1,5.9-6c2-2,4.1-3.8,6.1-5.8c1-0.9,2-1.9,2.9-2.9c0.4-0.4,0.9-1.1,1.4-1.6
			c0.5-0.5,1-1,1.5-1.5c1-0.9,1.8-1.9,2.4-3.1c0.6-1.2,0.9-2.6,1.2-4c0.1,1.4,0.1,2.9-0.3,4.3c-0.2,0.7-0.5,1.4-0.8,2.1
			c-0.4,0.7-0.8,1.3-1.3,1.8l-1.4,1.6c-0.4,0.5-0.8,1-1.3,1.7c-1,1.1-2,2.1-3,3.1c-2.1,1.9-4.2,3.8-6.5,5.5
			C666.5,309.2,664.2,310.8,661.8,312.3z"/>
	</g>
	<g>
		<path class="st2" d="M657.2,305.8c1.2-1.7,2.5-3.3,3.9-4.8c1.4-1.5,2.8-2.9,4.5-4.2c1.7-1.3,3.4-2.3,5-3.4
			c0.8-0.6,1.6-1.1,2.4-1.8c0.7-0.6,1.4-1.3,1.8-2.3c0,1.1-0.5,2.1-1.1,2.9c-0.6,0.9-1.4,1.6-2.1,2.3c-1.5,1.4-3.2,2.6-4.8,3.8
			c-1.5,1.2-3.1,2.5-4.7,3.8C660.6,303.5,659,304.7,657.2,305.8z"/>
	</g>
	<g>
		<path class="st2" d="M653.1,300.9c0.8-1.6,1.7-3.1,2.8-4.5c1-1.4,2.2-2.7,3.5-4c0.6-0.6,1.4-1.2,2.1-1.7c0.7-0.5,1.4-0.9,2.2-1.4
			c0.7-0.5,1.4-0.9,2.1-1.4c0.6-0.5,1.2-1.1,1.5-1.9c0.2,0.9-0.2,1.9-0.8,2.6c-0.5,0.8-1.2,1.4-1.8,2c-0.6,0.6-1.3,1.1-2,1.7
			c-0.6,0.5-1.2,1-1.8,1.6C658.2,296.3,655.9,298.8,653.1,300.9z"/>
	</g>
	<path class="st3" d="M728.4,229.4c0,0-7.2,0.9-6.8-6.4c0.4-7.3-0.5-13.9,12.4-18s14.1,2.1,13.5,5.4c-0.6,3.2-6.2,21.2-11.4,21.6
		C731,232.4,731.8,229.8,728.4,229.4z"/>
	<path class="st3" d="M731.2,59.1c0,0,4.5,38.9,0,54s-12.2,25.7,9,33.8c21.2,8,31.8,14.1,27.3-10.9c0,0-2.6-9.3-4.2-11.9
		c-1.6-2.6-4.2-14.8-5.1-21.2c-1-6.4-4.8-35-4.2-38.6C754.7,60.7,731.2,59.1,731.2,59.1z"/>
	<path class="st3" d="M727.7,118.9c0.7-2,1.4-4.1,2-6.2c4.4-14.6,0-53-0.1-53.4l0-0.2h-5.1c0,0,0.6,44.4-2.9,53.7s-10,32.5,9.8,35.4
		l5.3,1.3l1-2C720.5,140.1,723.8,130.3,727.7,118.9z"/>
	<path class="st3" d="M785.2,144.1c-3.2-3.7-11.7-0.9-15.2,0.4c0,1.8-0.1,3.3-0.3,4.7c2.2,1.9,6.4,7.4,4.3,19.6
		c0,0.2-0.5,2.3-2.3,4.8c7.3,0.2,12,1.2,18.8-3.4C801.1,163.1,789.3,148.8,785.2,144.1z"/>
	<path class="st3" d="M740.4,185.6c-2.8-0.1-5.3-0.7-7.2-1.4c-1.9-0.6-3.1-1.2-3.1-1.2c-0.5-0.3-0.9-0.5-1.3-0.8
		c-7.9-4.4-11.5-0.7-14.3,4.2c-3,5.1,11.1,11.6,11.1,11.6c11.1,5.1,19.6,6.4,22-0.5c0.1-0.4,0.2-0.7,0.3-1.1c0.3-1.1,0.4-2,0.4-3
		C748.2,188.9,744.8,185.8,740.4,185.6z"/>
	<path class="st3" d="M769.3,150.8c-0.5,1.3-1.2,2.3-2.1,3c-1.3,1.1-2.9,1.5-4.8,1.5c-4.3,0-10.2-2.3-17.9-5.3
		c-1.5-0.6-3.1-1.2-4.8-1.9c-0.2-0.1-0.4-0.2-0.6-0.3l-1.5,3.2l-6.4-1.6c-0.3-0.1-0.7-0.1-1-0.2c-3.2,4.8,2.1,15.9,2.5,20.8
		c0.3,3.9-1.1,9-1.9,11.4c0.1,0,0.2,0.1,0.2,0.1c0.6,0.3,4.8,2.2,9.6,2.4c3.2,0.1,6,1.6,7.7,4c1.3,2,1.9,4.4,1.5,7
		c8.5,0.6,9.1-4.5,9.3-6.4c0.2-2,3.6-8.9,8.1-12.5c4.5-3.6,5.4-7.7,5.4-7.7C774.4,158,771.2,152.9,769.3,150.8z"/>
	<path class="st3" d="M721.5,212.7c-3.2-1.1-7.1-3.7-6.4-8.2c0.6-3.5,2.1-6.1,4.4-7.4c0.2-0.1,0.4-0.2,0.5-0.3
		c-1.8-1.2-3.8-2.6-5.3-4.2c-2.6,3.7-10,14.6-8.6,17.9c1.7,4.1,13.3,5.6,13.3,5.6s0.6-0.7,1.5-1.8
		C721.1,213.7,721.3,213.2,721.5,212.7z"/>
	<path class="st3" d="M732.4,203.9c-0.1-0.6-0.4-1.2-0.7-1.8c-2-0.7-4.3-1.6-6.7-2.7c-0.4-0.2-1.7-0.8-3.3-1.7
		c-2.7,0.6-4.5,3.2-5.1,7c-0.6,3.9,3.3,5.8,5.5,6.6C723.8,208.4,726.8,205.9,732.4,203.9z"/>
	<path class="st3" d="M730,178.4c-4.1-3-11.8-8.4-13.4-6c-2.2,3.2-8.5,23.6-10.6,29.1c-0.9,2.4-1,4-0.9,5c1.6-5,6.3-11.8,8.7-15.1
		c-0.4-0.6-0.8-1.2-1-1.9c-0.4-1.3-0.3-2.6,0.4-3.8c1.6-2.8,3.8-5.8,7.4-6.7c2.5-0.6,5.4,0,8.8,1.8
		C729.5,180.2,729.8,179.4,730,178.4z"/>
	<radialGradient id="SVGID_1_" cx="734.6133" cy="173.3739" r="103.8571" gradientUnits="userSpaceOnUse">
		<stop  offset="0" style="stop-color:#FF0000;stop-opacity:0.5"/>
		<stop  offset="1" style="stop-color:#FF120D;stop-opacity:0"/>
	</radialGradient>
	<circle class="st4" cx="734.6" cy="173.4" r="103.9"/>
</g>
<g id="Capa_2">
	<path class="st5" d="M323.4,991.3l4.3,10.6c0,0-13.2,6.6-22.7,4.5L323.4,991.3z"/>
	<path class="st6" d="M429.7,975.7c0,0,19.7,18.7,28,28.4c0,0,15.1,8.4,28,9.3s17.4,4.8,17,7.1c0,0,7.4,4.5-7.7,9.6
		c-15.1,5.1-27.1,8.4-65.3,1.9c0,0-21.8-2.6-32.4-2.2s-29.9-1.3-33.4-1.9l-2.6-16.7l4.2-9.3L429.7,975.7z"/>
	<path class="st6" d="M365.4,1001.9c0,0-3.2,16.7-1.6,26s-4.5,19.9-27,19c-22.5-1-28.9-3.5-28.9-17.4s13.8-27.6,13.8-27.6
		s2.9-6,1.6-10.6c-1.3-4.5,13.3-12.6,13.3-12.6l19.4,3.5L365.4,1001.9z"/>
	<path class="st5" d="M462,659.5l-4.6-170l-75.4-6.4c0,0-79.5,183.9-76.3,210.5s-5.1,119.9-5.1,129.5c0,9.6,0,77.1,4.5,120.9
		s0,62.4,0,62.4c6.4,0,9.6-4.5,9.6-4.5c30.2-43.7,50.8,0,50.8,0c34.7,0,66.9-28.3,66.9-28.3c-3.9-4.5-6.1-13.5-6.1-13.5
		c-0.9-52.1,15.1-167.1,16.4-174.2c1.3-7.1,10.9-28.3,9-50.8C449.7,712.6,462,659.5,462,659.5z M381.3,748.6
		c-4.7,15.6-15.2,114.7-14.6,138.2c0.1,1.2,0.1,1.9,0.1,1.9c0-0.6-0.1-1.2-0.1-1.9c-0.4-10.7-2.4-62.5,0-75.2
		c2.7-14.1,3.3-25.1,2.7-34.7c0,0,8.4-65,5.1-81.7c-3.2-16.7,6.8,0,6.8,0S386.1,732.5,381.3,748.6z"/>
	<path class="st7" d="M381.3,1000c-11.8-46.2,9.9-247.6,17.3-266.9c7.4-19.3,9.3-194.1,1-217.9c-8.3-23.8,35.9-23.7,35.9-23.7
		l-0.9-4l-46-3.9l-4.9-0.2l-4.8,14.5l-4.5,137.9l3.1,54.2c1.9,2.2,3.7,5.2,3.7,5.2s4.9,37.3,0,53.4c-4.6,15-14.3,106.9-14.6,135
		c3,48.7-1.2,118.3-1.2,118.3s3.9,0,8-0.5C376.7,1001,381.2,1000,381.3,1000C381.2,1000,381.3,1000,381.3,1000z"/>
	<path class="st8" d="M389.3,488.4c0,0,37.8,6.5,68,1.1l-5.8-27.8l-69.7-5L389.3,488.4z"/>
	<polygon class="st9" points="427.2,464.4 403.1,462.7 399.6,490.4 425.2,492.1 423.6,489.4 404.8,487.7 407.8,466.5 426.9,467.3 	
		"/>
	<path class="st10" d="M451.6,461.7l-17.4,2.7c0,0-11.6,0.6-22.3-2.7c0,0-7.4,5.2-23.4-2.5c-16-7.7,2.4-50.1,2.4-50.1l14.1-100.3
		l-40.5-87.9l15.6-11.3l32.7,0l10.8,25.9l13.1,65.4l13.2,88L451.6,461.7z"/>
	<path class="st11" d="M418.6,223.3l-5.7-13.7l-7,0l-0.5,2.3c0,0,9.1,6.9,13.7,15.3L418.6,223.3z"/>
	<path class="st11" d="M385,209.7l-16,11.3v4.4c0,0,12.6-6.7,14.4-8.4c0,0,5,9,8.4,10.9c0,0-4.2,40.4,1.6,52.6l5.6,10.1l7.2-6.4
		l-10-65.2L385,209.7z"/>
	<path class="st1" d="M409.4,236.9c-1-3-1.4-7.5-1.6-9.9c0.5-1.7,3-10.7,0.4-15.6c0,0-4.4-6.4-11.9-3.4c0,0-10.3-1-11.9,5.8
		c0,0,6.5,11.9,10.2,13.5c-4,22.8,3.9,60.7,3.9,60.7c2.7,9.5,10.3,22.8,9.2,27c-1.1,4.2-5.2,32-5.2,32l5.7,1.4l18,7.4l8.4,1.5
		C428.5,316.5,410.8,241,409.4,236.9z"/>
	<path class="st12" d="M443.2,122.8c0,0-0.6,4.5-1.9,5.1c0,0-1,3.2-2.6,6.1c0,0-1.9,2.2-1.9,6.1c0,0,0.7,19-10.6,29.6
		c0,0-10,13.8-15.1,18c0,0-4.5,7.7-24.8-1.9s-29.9-25.4-29.9-43.1c0,0-5.1,2.9-8.7-7.1c-3.5-10-8.7-14.1,2.2-27.6l3.5-2.9l7.4,7.1
		l20.9-16.7l4.2-19l31.8,5.5L441,97.4l4.8,14.5L443.2,122.8z"/>
	<path class="st13" d="M356.3,140.8c0,0-4.3,1.4-5.2-15.8s10.5-4.4,10.5-4.4l2.5-10.8l-3.1,2.5l-6.7-6.4l-1.3-0.2L350,108
		c-10.9,13.5-5.8,17.7-2.2,27.6s8.7,7.1,8.7,7.1c0,17.7,9.6,33.4,29.9,43.1c3.6,1.7,6.6,2.9,9.3,3.6c1.9,0.5,3.1,0.8,3.1,0.8
		c0,0,0,0,0,0C361.4,179.4,356.3,140.8,356.3,140.8z"/>
	<path class="st10" d="M352.6,166.3c0,0-12.6,4.7-2.3,26.8c10.3,22.2,17.4,28.3,18.7,32.2c0,0,23.1-19,27.3-17.4
		c0,0-16.1-17.3-35.7-28.6C348.1,172.1,352.6,166.3,352.6,166.3z"/>
	<path class="st11" d="M377.1,218.9L377.1,218.9c-13.4,4.6-12.1-34.1-12.1-34.1l-4.9-5.8c-8-4.7-8.9-8.3-8.6-10.2l-0.5-2.6
		c-2.4,1.8-8,9.6,0,26.7c10.3,22.2,16.6,28.5,17.9,32.3C369,225.3,372.6,222.4,377.1,218.9z"/>
	<path class="st7" d="M305.6,693.6c3.2,26.7-5.1,119.9-5.1,129.5c0,9.6,0,77.1,4.5,120.9s0,62.4,0,62.4c6.4,0,9.6-4.5,9.6-4.5
		c2.1-3,7.1-9.6,11.8-13.3c-4.5-41.9-12-141.9-5.7-192.4c6.7-54,4.4-123.4,4.4-123.4h-16C306.5,682.4,305.1,689.7,305.6,693.6z"/>
	<path class="st10" d="M396.3,207.9c0,0,10-7.3,11.9-17.3c0,0,10.6,27.9,10.9,36.6C419.1,227.2,410.1,204.7,396.3,207.9z"/>
	<path class="st10" d="M333.2,190.6c0,0-7.9,5.2-11.2,5.8s-47.6,5.7-51.4,50.7c-3.9,45-5.8,59-2.6,70.3s8.7,69.8,7.7,79.5
		c-1,9.6,10,26.4,10,26.4s1.9,18.6-1,33.8s-24.1,190-25.4,228.5c0,0,36.6,3.2,43.1,7.1c6.4,3.9,19.9-4.5,104.8,5.1
		c0,0,6.1-43.1-19.9-223.7c0,0,3.3-43.1,6.2-59.8c2.8-16.7,11.5-84.9,14.2-99.3c2.7-14.5-1.8-10-4.3-16.1l-23.2-38.2l-8.2-20.4
		l-30.3-52.6L333.2,190.6z"/>
	<path class="st10" d="M431,207.2c0,0,29.7,11,34.4,20c4.7,9.1,9.3,13,9.3,13l10.3,37l5.5,45.4v63.7l0.3,47.7
		c0,0,14.1,201.4,24.4,246.4c0,0-39.2,9.6-52.1,9c0,0-7.9-219.9-15.2-261.6s-11.1-72-11.1-72s-6.3-32.6-8-47.2
		c-1.7-14.6,1-55.6,1-55.6l-16-59L431,207.2z"/>
	<path class="st11" d="M377.1,273.8c11.8,10.8,16.5,12.2,23.3,20.5c-9.5-13.6-25.1-27.9-26.3-34c-1.3-6.8,1.3-12.2,1.3-12.2
		c-2.9-1-7.7,0-7.7,0c-9.3,7-13.5,2.9-13.5,2.9c0.6-2.6-0.3-5.8-0.3-5.8c-3.2-17-13.8-45.3-13.8-45.3c-0.7-4.3-0.9-8.1-0.8-11.4
		l-6,2.1c0,0-7.9,5.2-11.2,5.8c-2.1,0.4-21.1,2.7-35.5,16.2l64.6,101.3l17.9,23.2l34.1,8.7c0,0-17.5-11.7-31.8-44.2
		c-4.5-10.3-4.1-25.5-1.5-37.7C371,266.9,373.2,270.2,377.1,273.8z"/>
	<path class="st14" d="M340.1,181.6c0,0-9.6,4.3-6.1,16.7c3.4,12.4,20.6,71.6,21.9,93.2c0,0,4.3,7.9,4.3,10.1c0,0,6.2-0.6,8.6,0
		c2.4,0.6-7.4-41.8-10-49.4C356.1,244.6,340.1,181.6,340.1,181.6z"/>
	<path class="st10" d="M403.4,298.9c0,0-0.3-0.6-0.7-1.7c-0.8-1.1-1.5-2-2.2-2.9C401.5,295.9,402.5,297.4,403.4,298.9z"/>
	<path class="st10" d="M380.6,248.7c-8.9-18.9-18-37.4-22.7-44.1c-10.8-15.3-12.9-36.5-5.7-37.2v-2.2c0,0-12.3,4.4-13,23.3
		c-0.1,3.3,0.1,7.1,0.8,11.4c0,0,10.6,28.3,13.8,45.3c0,0,1,3.2,0.3,5.8c0,0,4.2,4.2,13.5-2.9c0,0,4.8-1,7.7,0c0,0-2.6,5.5-1.3,12.2
		c1.2,6.1,16.8,20.4,26.3,34c0.7,0.9,1.5,1.9,2.2,2.9C400,291.2,390.5,269.7,380.6,248.7z"/>
	<path class="st12" d="M351.2,139.5c0,0,0.8,20.4,0,27.8c0,0-3.5,6.7,3.5,10.4c7.1,3.7,32.8,25.3,42.3,30.2c0,0,10.8-3.8,12.4-18.1
		l-52.1-56.3L351.2,139.5z"/>
	<path class="st13" d="M356.3,140.8c0,0-1.7,0.6-3.2-3.2l-2,1.9c0,0,0.8,20.4,0,27.8c0,0-3.5,6.7,3.5,10.4c2.1,1.1,5.9,3.8,10.4,7.2
		c0.7-2.6,2.5-5.7,6.9-3.2c6.8,3.9,26.8,8.5,26.8,8.5C361.4,179.4,356.3,140.8,356.3,140.8z"/>
	<path class="st10" d="M431,207.2c0,0,10,4.3,16.1,5.6c6.1,1.3,30.2,12.2,36.3,43.7s19,70.1,21.9,74.2c2.9,4.2,6.1,9.6,3.2,18
		c-2.9,8.4,8.4,12.5,8.4,12.5l38.6,28c0,0-1.6,47.6-20.6,48.9c0,0-12.9-3.6-20.6-4.1c-7.7-0.4-22.5-2.7-27-7.2s-2.5-67.1-2.5-67.1
		s0.3-45.4-3.3-71.1C477.9,262.9,484,227.6,431,207.2z"/>
	<g>
		<path class="st11" d="M435.8,209.1c-1.5-0.7-3.1-1.3-4.8-1.9C431,207.2,433,208,435.8,209.1z"/>
		<path class="st11" d="M529.4,396.2c-32.7-2.9-27.7-33-27.7-33c-16.3-26.3-13.8-62.2-13.8-62.2c0.9-36.2-9.8-60.2-18.8-73.9
			c-8.7-9.5-18.4-13.6-22-14.3c-3.4-0.7-7.9-2.3-11.3-3.7c47.9,20.7,42.3,54.6,45.7,79.5c3.5,25.7,3.3,71.1,3.3,71.1
			s-2,62.6,2.5,67.1s19.3,6.8,27,7.2c7.7,0.4,20.6,4.1,20.6,4.1c2.5-0.2,4.6-1.1,6.5-2.6L529.4,396.2z"/>
	</g>
	<path class="st15" d="M532.3,386c0,0-0.1,0.2-0.2,0.6l1.1-0.6H532.3z"/>
	<path class="st16" d="M551,386h-17.8l-1.1,0.6c-0.6,2-2.9,9.2-4.4,17.6c-2.6,13.8-3.4,30.9,7.2,33.9c11.5-0.8,16.6-18.6,18.9-32.4
		c1.5-9,1.7-16.4,1.7-16.4L551,386z"/>
	<path class="st17" d="M580.4,379.2l1.8-5.1c0.8-4.8-3.7-10.9-3.7-10.9L533.2,386l-1.1,0.6c-0.6,2-2.9,9.2-4.4,17.6
		c2.8,0.1-0.8,0.3,11.7,0.1c0.7,0,9.7-3.2,10.3-3.2c1.4-0.1,5.8-0.4,7.1-0.6c16.7-3.3,23.4-13.7,25.5-15.8
		C584.6,382.5,580.4,379.2,580.4,379.2z"/>
	<path class="st12" d="M581.6,354.7c0.1-8.1-11.3-9.2-11.3-9.2c-0.2-3-2-3.5-2-3.5s-7.1,0.6-10.6-2.2c-3.5-2.9-12.5,1.9-16.1,1.9
		c-3.5,0-9.6,3.2-9.6,3.2s-19.6,11.6-21.5,13.8c-1.9,2.2-5.8,2.2-5.8,2.2l-8.2,25.3l4.3,8.1c4.5-3.6,12.2-1.7,13.5-1.7
		s8.8,2.8,8.8,2.8c18.9,2.6,28.5-1.7,40.1-9.9s10.3-11.8,10.3-11.8c7.1-5.1,4.5-7.1,4.5-7.1s2.4-1.1,3.8-1.9
		C583,363.9,581.6,354.7,581.6,354.7z M548.2,355.8c-2.1,0.2-2.6-1.5-2.6-1.5c0.6-1.9,6.6-3.4,6.6-3.4c-0.9,1.9,1.3,3.4,1.3,3.4
		C549.9,352.8,548.2,355.8,548.2,355.8z"/>
	<path class="st1" d="M442,426.7v2.1c0,0-17.7,20.1-19.8,21.4c-2.1,1.3-22.7-21.4-22.7-21.4v-13.9V413l21.3,1.7L442,426.7z"/>
	<path class="st18" d="M443.2,122.8c0,0,3.7-4.7,3-15.8c0,0,6-28.3-24.2-45.3c0,0-27.3-13.5-49.5,2.9c0,0-10.6,7.3-17.4,25
		c0,0-2.6,15.5-5.1,18.4c0,0,7.7-4.5,11.6,12.5l2.2,1c0,0,4.5-21.5,21.9-22.5c0,0-1.6-10,1.6-19c0,0,15-0.6,24.8,3.2
		c0,0,8.1,6.4,17.4,8.7C438.5,94.1,447.7,108.9,443.2,122.8z"/>
	<path class="st11" d="M411.1,187.7c0,0,15.1,38.2,38.9,63.6c0,0-20.2,40.5-21.2,57.2l-9.6-81.3l-10.9-30.8v-5.8L411.1,187.7z"/>
	<g id="Capa_2_1_">
		<g id="Capa_1-2">
			<path class="st1" d="M454.4,284.7c-0.6,0.3-1,1-0.9,1.7l0,0l1,12.2c0,0.3-0.2,0.6-0.6,0.7c-0.1,0-0.1,0-0.2,0
				c-2.8-0.6-4.9-3-5.2-5.8c0-0.1,0-0.2,0-0.3l0-0.1c0-0.1,0-0.1,0-0.2l0-0.1c0-0.2,0-0.4,0-0.5l0-0.1c0-0.1,0-0.2,0-0.2
				c0,0,0,0,0,0c0-0.2,0.1-0.4,0.1-0.5l0,0c0-0.1,0-0.2,0.1-0.2l0,0c0-0.2,0.1-0.4,0.2-0.5l0,0c0.1-0.2,0.1-0.3,0.2-0.5l0,0
				c0-0.1,0.1-0.1,0.1-0.2c0,0,0,0,0,0c0-0.1,0.1-0.1,0.1-0.2l0,0c0-0.1,0.1-0.1,0.1-0.2l0-0.1c0.2-0.3,0.4-0.6,0.7-0.9
				c0.1-0.1,0.2-0.2,0.3-0.3c0.3-0.3,0.3-0.7,0.1-1c0,0,0,0-0.1-0.1l-0.6-0.5c-0.3-0.2-0.7-0.2-1,0c-0.4,0.4-0.7,0.8-1,1.2l0,0l0,0
				c-0.1,0.1-0.1,0.2-0.2,0.3l0,0c-0.1,0.1-0.1,0.2-0.2,0.3l0,0c-0.1,0.2-0.2,0.4-0.3,0.6l0,0.1c-0.1,0.2-0.2,0.4-0.3,0.6
				c0,0,0,0,0,0.1c0,0.1-0.1,0.2-0.1,0.3l0,0c0,0.1-0.1,0.2-0.1,0.3l0,0.1c0,0.1-0.1,0.2-0.1,0.3l0,0c0,0.1,0,0.2-0.1,0.3l0,0.1
				c0,0.1,0,0.2-0.1,0.3c0,0,0,0,0,0.1c0,0.1,0,0.2,0,0.4c0,0,0,0,0,0c0,0.1,0,0.2,0,0.3c0,0,0,0.1,0,0.1c0,0.1,0,0.2,0,0.4
				c0,0,0,0,0,0c0,0.1,0,0.2,0,0.3c0,0,0,0.1,0,0.1c0,0.1,0,0.2,0,0.4l0,0c0.4,4.2,3.6,7.5,7.8,7.9c0.3,0,0.5,0.3,0.6,0.6l0.3,3.3
				c0,0.3,0.3,0.6,0.7,0.6c0,0,0,0,0,0l1-0.1c0.3,0,0.6-0.3,0.6-0.7l0,0l-0.3-3.3c0-0.3,0.2-0.5,0.4-0.6c1.7-0.5,3.2-1.4,4.4-2.8
				c0.5-0.6,0.9-1.2,1.2-1.8c2.1-4.3,0.3-9.6-4.1-11.6c-0.6-0.3-1.2-0.5-1.8-0.6C456.1,284.1,455.2,284.2,454.4,284.7z M461.2,295.1
				c-0.7,1.7-2,3.1-3.7,3.7c-0.3,0.1-0.7,0-0.8-0.3c0-0.1,0-0.1,0-0.2l-0.9-10.7c0-0.6,0.4-1.1,1-1.1c0.1,0,0.3,0,0.4,0
				c3.4,1.1,5.3,4.8,4.2,8.2C461.3,294.9,461.3,295,461.2,295.1L461.2,295.1z"/>
			<g>
				<path class="st19" d="M436.3,313c-0.1,0-0.2,0-0.3,0c-0.1,0-0.3,0-0.4,0c-0.1,0-0.3,0-0.3,0.1c-0.1,0.1,0,0.8,0,0.9l0.9-0.1
					c0.2,0,0.3,0,0.3,0.2l0,0.3c0,0.3,0,0.3-0.3,0.4l-0.9,0.1l0.2,2.9c0,0.2,0,0.4-0.3,0.4l-0.6,0c-0.2,0-0.3-0.1-0.3-0.3l-0.3-3
					l-0.3,0c-0.2,0-0.2-0.1-0.2-0.3l0-0.4c0-0.3,0.2-0.3,0.5-0.3l0-0.3c0-0.4-0.1-0.7,0.1-1.1c0.3-0.5,0.9-0.6,1.5-0.7
					c0.2,0,0.6-0.1,0.8,0.1c0,0.1,0.1,0.1,0.1,0.2l0,0.1C436.5,312.6,436.6,313,436.3,313z M438.1,313.1l-0.3,0
					c-0.3,0-0.5,0-0.5-0.4l0-0.3c0-0.3,0.1-0.4,0.4-0.4l0.4,0c0.2,0,0.4,0.1,0.4,0.3c0,0,0,0,0,0l0,0.3
					C438.5,312.9,438.4,313.1,438.1,313.1L438.1,313.1z M438.6,318l-0.3,0c-0.3,0-0.5,0-0.5-0.4l-0.3-3.5c0-0.3,0.1-0.4,0.4-0.4
					l0.4,0c0.2,0,0.4,0.1,0.4,0.3c0,0,0,0,0,0l0.3,3.5C438.9,317.8,438.8,318,438.6,318L438.6,318z"/>
				<path class="st19" d="M441.7,317.8c-0.4,0-0.8,0.1-1.3,0c-0.3,0-0.3-0.1-0.3-0.4l0-0.2c0-0.2,0-0.4,0.2-0.4c0.2,0,0.3,0,0.5,0
					c0.3,0,0.6,0,0.9,0c0.3,0,0.4,0,0.4-0.4c0-0.1,0-0.2-0.1-0.3c-0.1-0.1-0.9-0.2-1-0.3c-0.2,0-0.4-0.1-0.5-0.2
					c-0.5-0.2-0.7-0.4-0.7-1c-0.1-1.4,0.8-1.4,1.9-1.5c0.2,0,0.4,0,0.7,0c0.3,0,0.5,0.1,0.5,0.4c0,0.3,0.1,0.5-0.3,0.6
					c-0.2,0-0.3,0-0.5,0c-0.2,0-0.5,0-0.7,0c-0.3,0-0.5,0-0.5,0.4c0,0.1,0,0.1,0.1,0.2c0.1,0.1,1,0.3,1.2,0.3
					c0.7,0.2,1.1,0.4,1.1,1.2C443.4,317.5,442.8,317.8,441.7,317.8z"/>
				<path class="st19" d="M445,312.5l-0.3,0c-0.3,0-0.5,0-0.5-0.4l0-0.3c0-0.3,0.1-0.4,0.4-0.4l0.4,0c0.2,0,0.4,0.1,0.4,0.3
					c0,0,0,0,0,0l0,0.3C445.4,312.4,445.3,312.5,445,312.5z M445.4,317.4l-0.3,0c-0.3,0-0.5,0-0.5-0.4l-0.3-3.5
					c0-0.3,0.1-0.4,0.4-0.4l0.4,0c0.2,0,0.4,0.1,0.4,0.3c0,0,0,0,0,0l0.3,3.5C445.8,317.3,445.7,317.4,445.4,317.4z"/>
				<path class="st19" d="M449.7,317.1c-0.2,0-0.5,0.1-0.8,0.1c-1.7,0.1-2.1-0.4-2.2-2.1s0.1-2.3,1.8-2.4c0.3,0,0.5,0,0.8,0
					c0.3,0,0.5,0,0.5,0.3l0,0c0,0.2,0.1,0.7-0.3,0.7c-0.1,0-0.2,0-0.4,0c-0.3,0-0.6,0-0.8,0c-0.4,0-0.4,0.1-0.5,0.5
					c0,0.3,0,0.6,0,0.9c0,0.3,0,0.6,0.1,0.8c0.1,0.4,0.2,0.4,0.6,0.4c0.3,0,0.6-0.1,0.8-0.1c0.1,0,0.2-0.1,0.3-0.1
					c0.1,0,0.2,0,0.2,0.1c0.1,0.1,0.1,0.5,0.2,0.6C450.2,317.1,450,317.1,449.7,317.1z"/>
				<path class="st19" d="M454.4,316.7l-0.5,0c-0.2,0-0.3-0.1-0.3-0.3c-0.4,0.3-0.8,0.5-1.3,0.5c-0.9,0.1-1.3-0.4-1.4-1.2
					c-0.1-1,0.5-1.3,1.3-1.5c0.4-0.1,0.7-0.1,1.1-0.2c0-0.4,0-0.9-0.5-0.8c-0.4,0-0.9,0.1-1.3,0.3c-0.1,0-0.1,0-0.2,0
					c-0.3,0-0.3-0.3-0.3-0.5c0-0.2,0.1-0.3,0.2-0.4c0.5-0.2,1-0.3,1.4-0.3c0.4,0,1,0,1.3,0.3c0.4,0.4,0.4,0.9,0.5,1.4l0.2,2.2
					C454.8,316.5,454.7,316.6,454.4,316.7z M453.5,314.9c-0.1,0-0.3,0-0.4,0c-0.2,0-0.4,0-0.6,0.1c-0.4,0.1-0.5,0.2-0.5,0.6
					c0,0.2,0.1,0.6,0.4,0.6c0.4-0.1,0.8-0.2,1.2-0.5L453.5,314.9z"/>
				<path class="st19" d="M456.8,316.5l-0.3,0c-0.3,0-0.5,0-0.5-0.4l-0.5-5.3c0-0.3,0.1-0.4,0.4-0.4l0.4,0c0.2,0,0.4,0.1,0.4,0.3
					c0,0,0,0,0,0.1l0.5,5.3C457.1,316.3,457.1,316.4,456.8,316.5z"/>
				<path class="st19" d="M461,316.2c-0.2,0-0.5,0.1-0.8,0.1c-1.7,0.1-2.1-0.4-2.2-2.1c-0.1-1.7,0.1-2.3,1.8-2.4c0.3,0,0.5,0,0.8,0
					c0.3,0,0.5,0,0.5,0.3l0,0c0,0.2,0.1,0.7-0.3,0.7c-0.1,0-0.2,0-0.4,0c-0.3,0-0.6,0-0.8,0c-0.4,0-0.4,0.1-0.5,0.5
					c0,0.3,0,0.6,0,0.9c0,0.3,0.1,0.6,0.1,0.8c0.1,0.4,0.2,0.4,0.6,0.4c0.3,0,0.6-0.1,0.8-0.1c0.1,0,0.2-0.1,0.3-0.1
					c0.1,0,0.2,0,0.2,0.1c0.1,0.1,0.1,0.5,0.2,0.6C461.5,316.1,461.3,316.1,461,316.2z"/>
				<path class="st19" d="M464.6,315.9c-1.5,0.1-2.1-0.7-2.2-2.1c-0.1-1.4,0.4-2.3,1.9-2.4c1.5-0.1,2.1,0.7,2.2,2.1
					S466,315.8,464.6,315.9z M465,312.6c-0.2-0.3-0.5-0.2-0.8-0.2c-0.3,0-0.6,0-0.7,0.3s-0.1,0.7-0.1,1s0.1,0.8,0.3,1
					s0.5,0.2,0.8,0.2s0.6,0,0.7-0.3c0.1-0.3,0.1-0.7,0.1-1C465.2,313.3,465.2,312.9,465,312.6z"/>
				<path class="st19" d="M470.8,315.3l-0.5,0c-0.2,0-0.3-0.1-0.3-0.3c-0.4,0.3-0.8,0.5-1.3,0.5c-0.9,0.1-1.3-0.4-1.4-1.2
					c-0.1-1,0.5-1.3,1.3-1.5c0.4-0.1,0.7-0.1,1.1-0.2c0-0.4,0-0.9-0.5-0.8c-0.4,0-0.9,0.1-1.3,0.3c-0.1,0-0.1,0-0.2,0
					c-0.3,0-0.3-0.3-0.3-0.5c0-0.2,0.1-0.3,0.2-0.4c0.5-0.2,1-0.3,1.4-0.3c0.4,0,1,0,1.3,0.3c0.4,0.4,0.4,0.9,0.5,1.4l0.2,2.2
					C471.2,315.1,471.1,315.3,470.8,315.3z M469.9,313.5c-0.1,0-0.3,0-0.4,0c-0.2,0-0.4,0-0.6,0.1c-0.4,0.1-0.5,0.2-0.5,0.6
					c0,0.2,0.1,0.6,0.4,0.6c0.4-0.1,0.8-0.2,1.2-0.5L469.9,313.5z"/>
				<path class="st19" d="M475.1,315c-0.2,0-0.5,0.1-0.8,0.1c-1.7,0.1-2.1-0.4-2.2-2.1c-0.1-1.7,0.1-2.3,1.8-2.4c0.3,0,0.5,0,0.8,0
					c0.3,0,0.5,0,0.5,0.3l0,0c0,0.2,0.1,0.7-0.3,0.7c-0.1,0-0.2,0-0.4,0c-0.3,0-0.6,0-0.8,0c-0.4,0-0.4,0.1-0.5,0.5
					c0,0.3,0,0.6,0,0.9c0,0.3,0.1,0.6,0.1,0.8c0.1,0.4,0.2,0.4,0.6,0.4c0.3,0,0.6-0.1,0.8-0.1c0.1,0,0.2-0.1,0.3-0.1
					c0.1,0,0.2,0,0.2,0.1c0.1,0.1,0.1,0.5,0.2,0.6C475.5,314.9,475.3,314.9,475.1,315z"/>
				<path class="st19" d="M479.9,314.5l-0.5,0c-0.3,0-0.3-0.1-0.4-0.4l-0.2-2.3c0-0.1,0-0.6-0.1-0.7c-0.1-0.1-0.2-0.1-0.3,0
					c-0.4,0.1-0.8,0.2-1,0.5l0.2,2.6c0,0.2,0,0.4-0.3,0.4l-0.5,0c-0.2,0-0.3-0.1-0.3-0.3l-0.5-5.4c0-0.3,0.1-0.4,0.4-0.4l0.4,0
					c0.2,0,0.4,0.1,0.4,0.3c0,0,0,0,0,0.1l0.1,1.6c0.4-0.2,0.8-0.4,1.2-0.4c0.8-0.1,1.4,0.3,1.5,1.1l0.2,2.7
					C480.2,314.3,480.1,314.5,479.9,314.5z"/>
			</g>
		</g>
	</g>
	<path class="st14" d="M413.8,193.9c0,0,22.9,8.6,32,27.7c0,0-4.2,0.7-5.1,3.7c0,0-6.2-12.4-15.9-16.4c0,0,0.3,2.5,1.4,4.8
		c0,0-2.1,1-2.3,0.6C424,214.3,415.1,201.4,413.8,193.9z"/>
	<path class="st20" d="M368.7,301.6c0,0,1.3,1.1,1.3,4.1c0,0,8.4,4.1,7.1,12.9c-1.3,8.8-8,10.7-8,10.7L356,311l4.1-9.4
		C360.1,301.6,366.1,300.3,368.7,301.6z"/>
	<path class="st20" d="M445.7,221.6c0,0,1.1,1.8,0.9,3.7l26.8,48h-1.9l-27.6-46.1c0,0-2.4-0.4-3.2-1.9
		C440.7,225.3,440.5,218.9,445.7,221.6z"/>
	<path class="st20" d="M426.2,213.7c0,0,3.3,1.2,2.9,7.2l30.2,45.5l-2.3,1.3l-29.9-46.8c0,0-4.5-3.5-3.2-6.6
		S426.2,213.7,426.2,213.7z"/>
	<path class="st21" d="M473.4,273.3c0,0,5.8,12-7.5,6c0,0-2.4,4.5-7.7,0.2c-5.4-4.3,0.9-8.6,4.3-5.1c0,0,3.6,3.4,4.9,3.9
		c1.3,0.4,8.2,3.1,4.1-4.9H473.4z"/>
	<path class="st21" d="M459.3,266.4c0,0,4.8,7.5,10.5,11.6c0,0,2,1.9,2,0c0,0-2.4-5.2,2.9-4c5.3,1.3,2.4,5.7,1.2,6.1
		c-1.2,0.4-5.1,3.8-12.3-4.8c-7.2-8.7-6.5-7.6-6.5-7.6L459.3,266.4z"/>
	<circle class="st21" cx="366" cy="317.5" r="8.9"/>
	<circle class="st22" cx="366" cy="317.5" r="3.6"/>
	<line class="st23" x1="499.4" y1="401.5" x2="620.8" y2="286.1"/>
	<path class="st12" d="M547.4,359.4c0,0-8.1-2.1-10.3-2.1c0,0-5.1,2.8-1.7-4c2.9-5.8-24.6,8.8-32.5,13l-2.4,7.2l-0.8,18.8l1,1.9
		c4.5-3.6,12.2-1.7,13.5-1.7s8.8,2.8,8.8,2.8c7.9,1.1,14.2,0.9,19.7-0.2l17.2-26.8l2.1-12.7c0,0-3.1,1.2-12.3,3.6
		C540.4,361.8,547.4,359.4,547.4,359.4z"/>
	<path class="st10" d="M488.2,359.9c-5.6,0-40.9-4.1-51.4-4.1c-10.6,0-23.3-6.1-28.6-7.4c-1.3-0.3-3-1.3-5.1-2.6
		c-6.3-3.9-16.5-11.3-34.1-16.6c0,0-6-12.2-15-19.1c0,0,0.3-17-14.8-32.9c-15.1-15.9-2.2-40.3-34-60c-5.7-3.5-10.8-5.9-15.4-7.5
		c-9.4,7.5-17.7,19.2-19.2,37.4c-1,11.1-1.8,20.3-2.5,28.1c3.3,21.8,10.2,57.9,21.4,76.1c16.7,27,25.1,27,30.2,33.4
		c5.1,6.4,25.4,17.1,49.8,21.4c7.6,1.3,15.4,3.9,24.1,6.8c19.1,6.5,42.3,15,77.4,17.6c0,0,18,3,19.7,3.4c0,0,14.6-45.9,15.4-73.3
		C506.2,360.7,493.8,359.9,488.2,359.9z"/>
	<circle class="st23" cx="721.6" cy="189.8" r="139.4"/>
	<path class="st24" d="M387.3,80c0,0,15-0.6,24.8,3.2c0,0,8.1,6.4,17.4,8.7c6.1,1.5,12.2,8.6,14.3,17.2c0,0,1.2-0.5,2.6-1.4
		c0-0.3,0-0.5,0-0.7c0,0,6-28.3-24.2-45.3c0,0-27.3-13.5-49.5,2.9c0,0-10.6,7.3-17.4,25c0,0-0.1,0.8-0.4,2.1
		c5.4-1.5,16.3-2.5,30.9,7.3C385.7,99,384.1,89,387.3,80z"/>
	<path class="st11" d="M328.5,379.6c-55.8-42.3-39.1-136.1-38.2-138c13.4-26.7,38.1,6.5,38.1,6.5l1.8-14.5l-18.6-22.3l-5.9,6
		c-0.1-0.1-0.2-0.1-0.3-0.2c-5.7-3.5-10.8-5.9-15.4-7.5c-9.4,7.5-17.7,19.2-19.2,37.4c-1,11.1-1.8,20.3-2.5,28.1
		c3.3,21.8,10.2,57.9,21.4,76.1c16.7,27,25.1,27,30.2,33.4c5.1,6.4,25.4,17.1,49.8,21.4c4.1,0.7,8.2,1.8,12.4,3
		C349.4,396.8,328.5,379.6,328.5,379.6z"/>
	<path class="st11" d="M320.7,693.2c-71.2-3,3.9-245.2-15.4-272.2s-15.7-69.8-15.7-69.8l-9.3-120.1h-6.1c-1.8,4.7-3,9.9-3.5,15.9
		c-3.9,45-5.8,59-2.6,70.3c3.2,11.3,8.7,69.8,7.7,79.5c-1,9.6,10,26.4,10,26.4s1.9,18.6-1,33.8c-2.9,15.1-24.1,190-25.4,228.5
		c0,0,36.6,3.2,43.1,7.1C305.3,694.4,309.5,693.7,320.7,693.2L320.7,693.2z"/>
	<path class="st25" d="M467.4,1029.3c-19.3-1.3-47.1-9.3-70.7-5.3c0,0-18.8-0.6-34-3.1l1.1,7.1c3.5,0.6,22.8,2.2,33.4,1.9
		c10.6-0.3,32.4,2.2,32.4,2.2c38.2,6.4,50.2,3.2,65.3-1.9c15.1-5.1,7.7-9.6,7.7-9.6S486.7,1030.6,467.4,1029.3z"/>
	<path class="st25" d="M336.7,1042.1c-24-0.4-25.8-8.2-28.5-15.7c-0.1,1-0.2,2-0.2,3c0,13.8,6.4,16.4,28.9,17.4
		c22.5,1,28.6-9.6,27-19C363.8,1027.9,361.3,1042.6,336.7,1042.1z"/>
</g>
<g id="Capa_3">
	<path class="st26" d="M417.9,165.2c0,0-1.3-5.9-8.6-7.8s-21-2.4-22.2-5.1C387.2,152.2,399.1,164.4,417.9,165.2z"/>
	<g>
		<path class="st27" d="M422,125.2c-0.6,1.2-0.9,2.5-0.9,3.8c0,1.3,0.1,2.6,0.5,3.9c0.3,1.3,0.8,2.5,1.2,3.8c0.4,1.3,0.7,2.7,0.8,4
			c0.1,1.4,0,2.8-0.4,4.2c-0.4,1.3-1.3,2.7-2.7,3.3c-1.4,0.6-2.9,0.4-4.2,0c-1.3-0.4-2.5-1.1-3.6-1.8c1.2,0.5,2.5,1.1,3.8,1.3
			c1.3,0.3,2.6,0.4,3.7-0.2c1.1-0.5,1.8-1.6,2.1-2.9c0.3-1.2,0.4-2.5,0.3-3.8c-0.1-1.3-0.3-2.6-0.7-3.9c-0.4-1.2-0.9-2.6-1.1-3.9
			c-0.3-1.3-0.3-2.7-0.2-4.1C420.8,127.7,421.2,126.3,422,125.2z"/>
	</g>
	
		<ellipse transform="matrix(0.3619 -0.9322 0.9322 0.3619 139.5128 447.2539)" class="st28" cx="396.5" cy="121.7" rx="4.5" ry="2.9"/>
	
		<ellipse transform="matrix(0.3619 -0.9322 0.9322 0.3619 150.3246 484.4966)" class="st28" cx="429.1" cy="132.4" rx="4.5" ry="2.9"/>
	<g>
		<path class="st18" d="M411.2,115.7c-1.3-0.1-2.4-0.3-3.5-0.6c-1.1-0.3-2.2-0.6-3.2-1c-1-0.4-2-0.9-3-1.4c-0.9-0.6-1.9-1.1-2.9-1.5
			c-0.5-0.2-1-0.4-1.4-0.5c-0.2-0.1-0.4-0.1-0.7-0.2c-0.2-0.1-0.4-0.1-0.7-0.1c-1-0.1-2.1,0.1-3.1,0.2c-2.2,0.3-4.3,1-6.4,1.8
			l-0.2-0.3c1.9-1.4,3.9-2.5,6.1-3.4c1.1-0.4,2.3-0.8,3.5-1c0.6-0.1,1.4-0.1,2,0c0.7,0.1,1.3,0.2,1.9,0.3c2.4,0.6,4.7,1.1,6.6,2.4
			c1,0.6,1.9,1.3,2.8,2.1c0.9,0.8,1.7,1.7,2.4,2.7L411.2,115.7z"/>
	</g>
	<g>
		<path class="st18" d="M426.2,119.9c1.9-1.1,3.8-1.3,5.8-1.2c2,0,3.8,1,5.5,1.9c0.9,0.4,1.7,1,2.6,1.6c0.4,0.3,0.8,0.7,1.2,1
			c0.4,0.4,0.7,0.8,1,1.3c0.5,0.9,0.9,2.1,0.6,3.2c-0.3,1.1-1.2,1.8-2.1,2.2l-0.2-0.3c0.6-0.6,1.1-1.4,1.1-2.1c0-0.7-0.4-1.3-1-1.9
			c-0.3-0.3-0.6-0.5-0.9-0.7c-0.4-0.2-0.7-0.4-1.1-0.6c-0.7-0.4-1.5-0.6-2.3-0.9c-0.4-0.1-0.8-0.2-1.2-0.3c-0.4-0.1-0.8-0.1-1.3-0.2
			c-0.8-0.1-1.7-0.3-2.5-0.5c-1.7-0.5-3.3-1.2-5.1-2.3V119.9z"/>
	</g>
</g>
<g id="Capa_5" class="st29">
	
		<image style="display:inline;overflow:visible;opacity:0.46;" width="1920" height="1200" xlink:href="9FC25166C179EDF4.jpg"  transform="matrix(0.1853 0 0 0.1853 615.825 84.6194)">
	</image>
</g>
</svg>
