<?xml version="1.0" encoding="utf-8"?>
<!-- Generator: Adobe Illustrator 25.4.1, SVG Export Plug-In . SVG Version: 6.00 Build 0)  -->
<svg version="1.1" xmlns="http://www.w3.org/2000/svg" xmlns:xlink="http://www.w3.org/1999/xlink" x="0px" y="0px"
	 viewBox="0 0 1228.1 1163.3" style="enable-background:new 0 0 1228.1 1163.3;" xml:space="preserve">
<style type="text/css">
	.st0{fill:#F2F2F2;}
	.st1{fill:#00E9C5;}
	.st2{font-family:'CachetStd-Bold';}
	.st3{font-size:278.5701px;}
	.st4{font-size:177.8639px;}
	.st5{fill:#EDC9B9;}
	.st6{opacity:0.5;fill:#AA776B;}
	.st7{fill:#222325;}
	.st8{fill:#FFFFFF;}
	.st9{opacity:0.5;fill:#C9C9C9;}
	.st10{fill:#1D1F1E;}
	.st11{fill:#D3AA9B;}
	.st12{fill:#825D34;}
	.st13{fill:#494307;}
	.st14{fill:#686868;}
	.st15{opacity:0.5;fill:#686868;}
	.st16{opacity:0.5;fill:#1D1F1E;}
	.st17{fill:#846755;}
	.st18{fill:#342D23;}
	.st19{opacity:0.5;}
	.st20{fill:#C9C9C9;}
	.st21{fill:#424242;}
	.st22{fill:#DE9C82;}
	.st23{opacity:0.5;fill:#DE9C82;}
	.st24{fill:url(#SVGID_1_);}
	.st25{fill:#6A7378;}
	.st26{opacity:0.5;fill:#6A7378;}
	.st27{fill:#3F6B92;}
	.st28{opacity:0.5;fill:#3F6B92;}
	.st29{fill:#331303;}
	.st30{fill:#BA7A63;}
	.st31{opacity:0.5;fill:#846755;}
</style>
<g id="Capa_4">
	<g>
		<path class="st0" d="M982.5,345.8c-22.5,28.5-30.2,54.7-54.3,82c-13.2,15-28.2,30.2-33.4,49.6c-34.4,129,57.1,262.8,79.3,313.2
			c26.4,60,47.1,125.5,37.8,190.5c-9.3,64.9-55.7,128.3-120.4,138.9c-66.3,10.8-137.3-9.6-203.4-14.5c-85.4-6.3-163.8,26.6-246,45.2
			c-59.5,13.4-121.6,20.8-181.3,8.4c-29.2-6.1-58.5-17.6-78.7-39.6c-80.3-87.6,29.1-209.6-9-309.6c-14.6-38.4-38.9-72.3-56.9-109.2
			c-18-36.9-29.6-80-16.7-119c11.4-34.5,39.8-60.1,67.1-84.1c24.1-21.1,48.1-42.3,72.2-63.4c23.2-20.4,47.2-41.9,58.4-70.7
			c10.9-28.1,9.7-59.7,12.8-89.1c2.1-19.9-2.9-42.2,8.2-59.9c7.3-11.7,18.5-20.4,29.8-28.3c15.7-11,32.8-21,51.7-24.1
			c48.6-8.1,96.4,30.2,144.8,20.9c19-3.7,35.8-14.4,52-25.1c69.3-45.9,140-96.5,222.3-107.5c22.6-3,45.5-2.9,68.4-2.8
			c28.9,0.1,59.7,3.8,83.9,19.6c17.9,11.7,29.9,27.3,41.2,45.5c7.6,12.3,15.1,24.8,20.4,38.3c19.5,49.7,5.7,107.2-21.3,153.2
			C1002.8,318.7,993,332.5,982.5,345.8z"/>
	</g>
	<text transform="matrix(1 0 0 1 770.6793 280.3539)" class="st1 st2 st3">?</text>
	<text transform="matrix(0.9329 0.3601 -0.3601 0.9329 860.3756 280.396)" class="st1 st2 st4">?</text>
</g>
<g id="Capa_3">
	<path class="st1" d="M603.3,993c0,0,9,6,4.7,12.4c-4.3,6.4-9.8,8.3-23.7,10c-14,1.6-20.4-3.6-33.3,6.5s-47.1,9.2-47.1,9.2l-8.1-9.2
		l40.7-9.8L603.3,993z"/>
	<path class="st1" d="M749.9,988.6c0,0-2.1,1.2-2.9,5.1c-0.8,3.9,0.4,11.8,7.5,11.8c10.1,0,12.4,6.7,12.4,6.7s-4.7,24.6,50.1,13.1
		c14.8-3.1,5.6-13.1,5.6-13.1L749.9,988.6z"/>
	<path class="st5" d="M768.5,725.7c0,0-0.3,30.1,0,39.6c0.3,9.5,6.3,26.9,10.6,36.6c3,6.8,9.4,18.3,5.6,67.7c0,0-3.5,55.6,1.7,87.8
		l-30.2,18l-2-15.4c0,0,3.3-35-3.9-59.4c-7.2-24.4-21.7-57.2-20-89.4c0,0,0-12.8-8.9-22.8c-8.9-10-16.7-56.3-16.7-56.3v-6.7
		l43.3-5.9h15L768.5,725.7z"/>
	<path class="st6" d="M765.3,970.1v-10.3c8.4-36.6-19.8-119.6-19.8-119.6s10.1-30.9-6.9-52.1s-23.1-55.8-23.1-55.8l-10.9-6.7v6.7
		c0,0,7.8,46.3,16.7,56.3c8.9,10,8.9,22.8,8.9,22.8c-1.7,32.2,12.8,65,20,89.4c7.2,24.4,3.9,59.4,3.9,59.4l1.4,10.3l6.7,1.5
		L765.3,970.1z"/>
	<path class="st5" d="M576,727.1c0,0-0.5,16.6,0,25.4c0.5,8.9-4,15-4.5,30.5c0,0-5,23.7-5,29.4c0,6.1-3.3,47.7-3.9,139.4l-3.9,17.8
		l26.9,3.1l8.1-8.6c0,0,2.2-40,9.4-75c7.2-35,23.9-42.8,19.4-89.4c0,0,0.6-19.4,8.3-32.8c7.8-13.3,10-42.7,10-42.7l-7.8-4.5
		l-53.3,2.8L576,727.1z"/>
	<path class="st6" d="M576,727.1c0,0-0.5,16.6,0,25.4c0.5,8.9-4,15-4.5,30.5c0,0-5,23.7-5,29.4c0,6.1-3.3,47.7-3.9,139.4l-3.9,17.8
		l7.8,0.9l2.5-1.6c-0.3-40.5,13.7-168.6,20.2-179.5c6.4-10.9,0.6-19.3,3.9-37.3s12.3-24.8,12.3-24.8l-11.5-5.5l-14.1,0.7L576,727.1z
		"/>
	<path class="st7" d="M754.4,956.8c0,0-5.3,7.3-3.8,16.2s-3.5,20,1.8,25.2c5.3,5.2,13.8,5.2,18.2,13s10,14.1,28.5,8.9
		c0,0,9.6-2.2,16.7,0c7,2.2,13.8-7.5,0-18.9c-3.4-2.8-11.8-6.5-13.3-11.8c-1.5-5.2-4.8-16.3-11.1-23s-1.9-11.1-12.2-11.1
		c-10.4,0-15.2,2.2-14.1,8.9c0,0-6.8,3.9-8.9,0C754.1,960.2,754.4,956.8,754.4,956.8z"/>
	<path class="st7" d="M593.9,960.2c0,0,6-5,4.9,12.4s14.7,28.1,0.1,32.2c-14.6,4.1-27.9,3.3-40.9,6.7s-26.5,11.7-48.2,11.9
		c-21.7,0.3-30.2-22.3-30.2-22.3s7.8-3.7,14.8-3.7s28.1-17.8,42.9-26.3c14.8-8.5-1-22.6,13.6-20.4s11.6,13.3,11.6,13.3
		s1.3,5.6,12.6,5.6C586.4,969.7,593.4,967.4,593.9,960.2z"/>
	<path class="st5" d="M825.4,410.6c0,0,5.9,17.2,9.8,22.2c3.9,5,19.4,30,17.2,63.8s2.8,66.6,2.8,66.6s2.8,37.2-2.2,38.3
		c0,0-2.2,11.7-6.1,12.2c0,0-1.8,5.7-6.2,6.7c0,0-3.8,4.4-7.1,4.4c0,0-2.5,9-8.1,7.8c-6.1-1.4-2.1-6.8,0-10.8
		c3.2-6.2,12-15.9,4.3-34.7c0,0-3.3,15.5-7.8,16.1c0,0-6.5,5-3.5-12.8c0,0,0.4-3.9-0.8-14.4c-1.2-10.5,0.8-14.4,7.8-21.7
		s0-28.3,0-28.3s-18.5-29.2-24.1-57.1c-5.6-27.9-10.6-32.3-10.6-32.3l9.5-17.9L825.4,410.6z"/>
	<path class="st6" d="M835.1,580.3c0.4-11.6,5.1-52.7-5.6-60.4s-34.4-74.4-29.1-78.1c5.3-3.8,8.1-15,8.1-15l-14,2.7l-3.9,7.3
		c0,0,5.1,4.4,10.6,32.3c5.6,27.9,24.1,57.1,24.1,57.1s7,21.1,0,28.3c-7,7.2-9.1,11.1-7.8,21.7s0.8,14.4,0.8,14.4
		c-3,17.8,3.5,12.8,3.5,12.8c4.4-0.6,7.8-16.1,7.8-16.1c7.8,18.9-1,28.5-4.3,34.7c-2.1,4-6.1,9.4,0,10.8c5.6,1.3,8.1-7.8,8.1-7.8
		C848.2,601.3,834.7,591.9,835.1,580.3z"/>
	<path class="st8" d="M750.7,554.4c0,0,12.2,45.5,15.4,70c3.3,25.6,13.9,94.9,13.9,94.9s-24.1,17.2-88.5,12.2
		c0,0-10.2-57.7-12.7-91.6c0,0-7.3,0-16.5-1.7c0,0-11.2,65.5-6,85.5c0,0-11-0.6-39.9,2.8s-58.7-1.7-58.7-1.7s10-29.4,11.1-41.6
		c1.1-12.2,15.8-109.7,21.3-125.1l78.3,2.4l72.8-11.1L750.7,554.4z"/>
	<path class="st1" d="M771.8,723.4c5.6-2.3,8.2-4.1,8.2-4.1s-10.6-69.3-13.9-94.9c-3.1-24.4-15.4-70-15.4-70l-9.6-5l-3,0.5
		C739.8,556.9,761.2,646.3,771.8,723.4z"/>
	<path class="st1" d="M602.7,558.5l-12.6-0.4c-5.4,15.4-20.2,112.9-21.3,125.1c-1.1,12.2-11.1,41.6-11.1,41.6s5.3,0.9,13.5,1.7
		C577.9,686,599.8,573.4,602.7,558.5z"/>
	<path class="st9" d="M660.5,560.2l-70.4-2.2c-5.4,15.4-20.2,112.9-21.3,125.1c-1.1,12.2-11.1,41.6-11.1,41.6s22.7,3.8,47.7,2.6
		c-18-26,15.5-83.9,16.7-118.6c1.4-39.9,54.3-43.4,54.3-43.4L660.5,560.2z"/>
	<path class="st10" d="M795.5,339.9c-6.2-10.3-16.8-41.1-33.7-45c-16.7-3.9-34.2-17.2-52.4-23.4l-21,22.3l-38.4-0.7l-8.9-20.7
		c0,0-15.9,8.9-26.4,14.4c-13.7,7.2-32.6,8.5-41.5,16.7c-7.4,6.8-19.8,32.7-24.6,47.7c-8.5,26.7-10.9,36.6-16.1,44
		c-1.7,2.4,3.3,4.3,11.2,5.6c16.2,2.6,44.6,2.4,52-1.9c11.7-5,15-16.7,15-16.7c-0.3-21.4,5.2-16.2,13.3-20.4c12.8-6.6,14.9,1,11,6
		c-0.8,1-2.9,1.3-3.4,2.2c-1.4,2.1-0.4,5.2-0.4,5.2s5.8,3.9,12.2,2.5c6.4-1.4,14.4-11.7,18.7-10c4.2,1.7,0,7.8,0,7.8
		c3.7-3.1,6.6-1.1,6.6-1.1c4.4,2.8-3.1,17.2-3.1,17.2c-1.7,11.7-16.1,16.1-25.3,15.4c-9.2-0.7-12.4,7.4-12.4,7.4
		c-11.6,13.7-10.4,13.6-20.3,20.1c0.9,27.3-6.5,68.1-11,90.6c0,0-3.8,27.7-6.8,32.9c0,0,16.2,10.4,83.5,7.4
		c67.4-3,62.4-8.7,77.1-11.1c0,0-5.3-18.4-9.2-51.7c-3.7-31.2,4.2-116.4,4.2-116.4s24.5,43.6,23.5,53c-1,9.4,54.9-12.7,60.8-34.2
		C830,405.2,829,395.8,795.5,339.9z"/>
	<path class="st8" d="M672,328.1c-1.7,0.7-2.8,2.4-2.8,4.3l0,0v32.6c0,0.9-0.7,1.6-1.6,1.6c-0.2,0-0.3,0-0.5-0.1
		c-7.4-2.2-12.4-9-12.4-16.7c0-0.2,0-0.5,0-0.7v-0.2c0-0.2,0-0.4,0-0.5v-0.1c0-0.5,0.1-0.9,0.2-1.4l0-0.1c0-0.2,0.1-0.4,0.1-0.6
		c0,0,0-0.1,0-0.1c0.1-0.5,0.2-0.9,0.4-1.4l0-0.1c0.1-0.2,0.1-0.4,0.2-0.6l0,0c0.2-0.5,0.4-0.9,0.6-1.3l0-0.1
		c0.2-0.4,0.4-0.9,0.7-1.3v0c0.1-0.2,0.2-0.4,0.3-0.6c0,0,0.1-0.1,0.1-0.1c0.1-0.2,0.2-0.3,0.3-0.5l0-0.1c0.1-0.2,0.3-0.4,0.4-0.5
		l0.1-0.2c0.6-0.8,1.2-1.5,1.9-2.1c0.3-0.3,0.6-0.5,0.9-0.8c0.9-0.6,1-1.9,0.4-2.7c-0.1-0.1-0.1-0.1-0.2-0.2l-1.4-1.4
		c-0.7-0.7-1.8-0.8-2.6-0.1c-1.1,0.9-2.1,1.9-3,2.9l0,0l0,0c-0.2,0.2-0.4,0.5-0.6,0.7l0,0c-0.2,0.2-0.4,0.5-0.5,0.7l-0.1,0.1
		c-0.3,0.5-0.6,1-1,1.6L652,338c-0.3,0.5-0.6,1.1-0.9,1.6c0,0.1-0.1,0.1-0.1,0.2c-0.1,0.3-0.2,0.5-0.4,0.8l0,0.1
		c-0.1,0.3-0.2,0.6-0.3,0.9l-0.1,0.2c-0.1,0.3-0.2,0.5-0.3,0.8l0,0.1c-0.1,0.3-0.2,0.6-0.3,0.9l0,0.2c-0.1,0.3-0.1,0.5-0.2,0.8
		c0,0.1,0,0.1,0,0.2c-0.1,0.3-0.1,0.6-0.2,0.9c0,0,0,0.1,0,0.1c-0.1,0.3-0.1,0.6-0.1,0.8c0,0.1,0,0.2,0,0.2c0,0.3-0.1,0.6-0.1,0.9
		c0,0,0,0.1,0,0.1c0,0.3,0,0.6-0.1,0.9c0,0.1,0,0.2,0,0.2c0,0.3,0,0.6,0,1h0c0,11.2,8,20.9,19,22.9c0.8,0.1,1.3,0.8,1.3,1.6v8.8
		c0,0.9,0.7,1.6,1.6,1.6c0,0,0,0,0,0h2.6c0.9,0,1.6-0.7,1.6-1.6l0,0v-8.8c0-0.8,0.6-1.4,1.3-1.6c4.6-0.9,8.9-3.1,12.2-6.4
		c1.4-1.4,2.6-3,3.6-4.7c6.5-11.1,2.8-25.4-8.3-31.9c-1.5-0.9-3.1-1.6-4.7-2.1C676.8,326.9,674.2,327,672,328.1z M687.8,357.4
		c-2.1,4.4-6.1,7.7-10.8,9.1c-0.9,0.3-1.8-0.2-2-1.1c0-0.2-0.1-0.3-0.1-0.5v-28.6c0-1.5,1.3-2.8,2.8-2.8c0.4,0,0.7,0.1,1.1,0.2
		c8.9,3.7,13.1,13.9,9.3,22.8C688.1,356.8,688,357.1,687.8,357.4L687.8,357.4z"/>
	<path class="st5" d="M716.8,212.9c-1.6,0.1-4.2,2.5-4.2,2.5c0.3-43.3-21.8-48.3-21.8-48.3c-20.4-4.4-32.4,2-39.3,10.5
		c-8.3,10.2-9.5,23.3-9.6,24.3c0,0,0,0,0,0l0,0l-0.7,11.7c1.8,4.1,1,9.5-0.1,14c-1.1,4.4-0.6,5.6,0,17.5c0.6,11.9,4.1,9.4,5.5,17.5
		c1.4,8.1-5.5,9.7-5.5,9.7c1.1,9.2,4.1,28,32.5,28.9c28.3,0.8,35.8-29.7,35.8-29.7c-6.1-15.5,0-28.3,0-28.3c6.1,1.4,6.3-1.8,6.3-1.8
		C722.4,228.2,723.1,212.3,716.8,212.9z"/>
	<path class="st1" d="M735.4,684.8c-1,0.6-1.6,1.8-1.5,3l0,0l2.4,21.2c0.1,0.6-0.4,1.1-0.9,1.2c-0.1,0-0.2,0-0.3,0
		c-5-0.9-8.7-4.9-9.3-9.9c0-0.2,0-0.3-0.1-0.5l0-0.2c0-0.1,0-0.2,0-0.4l0-0.1c0-0.3,0-0.6,0-0.9l0-0.1c0-0.1,0-0.3,0-0.4
		c0,0,0,0,0-0.1c0-0.3,0.1-0.6,0.1-0.9l0-0.1c0-0.1,0.1-0.3,0.1-0.4l0,0c0.1-0.3,0.2-0.6,0.3-0.9l0-0.1c0.1-0.3,0.2-0.6,0.3-0.9l0,0
		c0.1-0.1,0.1-0.3,0.2-0.4c0,0,0-0.1,0-0.1c0.1-0.1,0.1-0.2,0.2-0.4l0,0c0.1-0.1,0.1-0.3,0.2-0.4l0.1-0.1c0.3-0.5,0.7-1,1.1-1.5
		c0.2-0.2,0.4-0.4,0.5-0.6c0.5-0.5,0.5-1.3,0-1.8c0,0-0.1-0.1-0.1-0.1l-1-0.8c-0.5-0.4-1.2-0.4-1.7,0.1c-0.6,0.7-1.2,1.4-1.8,2.1
		l0,0l0,0c-0.1,0.2-0.2,0.3-0.3,0.5l0,0c-0.1,0.2-0.2,0.3-0.3,0.5l0,0.1c-0.2,0.3-0.3,0.7-0.5,1.1l0,0.1c-0.2,0.4-0.3,0.7-0.5,1.1
		c0,0,0,0.1,0,0.1c-0.1,0.2-0.1,0.4-0.2,0.5l0,0c-0.1,0.2-0.1,0.4-0.2,0.6l0,0.1c0,0.2-0.1,0.3-0.1,0.5l0,0.1c0,0.2-0.1,0.4-0.1,0.6
		l0,0.1c0,0.2-0.1,0.3-0.1,0.5c0,0,0,0.1,0,0.1c0,0.2,0,0.4-0.1,0.6c0,0,0,0.1,0,0.1c0,0.2,0,0.4,0,0.5c0,0.1,0,0.1,0,0.2
		c0,0.2,0,0.4,0,0.6c0,0,0,0,0,0.1c0,0.2,0,0.4,0,0.6c0,0.1,0,0.1,0,0.2c0,0.2,0,0.4,0.1,0.6l0,0c0.8,7.3,6.7,13,14.1,13.5
		c0.5,0,0.9,0.4,1,0.9l0.6,5.7c0.1,0.6,0.6,1,1.2,0.9c0,0,0,0,0,0l1.7-0.2c0.6-0.1,1-0.6,0.9-1.2l0,0l-0.6-5.7
		c-0.1-0.5,0.3-1,0.7-1.1c3-0.9,5.6-2.7,7.5-5.1c0.8-1,1.5-2.1,2-3.3c3.4-7.7,0-16.7-7.7-20.2c-1-0.5-2.1-0.8-3.2-1
		C738.4,683.7,736.8,684,735.4,684.8z M747.9,702.7c-1.1,3-3.4,5.5-6.3,6.7c-0.5,0.2-1.2,0-1.4-0.6c0-0.1-0.1-0.2-0.1-0.3l-2.1-18.6
		c-0.1-1,0.6-1.9,1.6-2c0.2,0,0.5,0,0.7,0.1c6,1.8,9.5,8.1,7.7,14.1C748,702.3,747.9,702.5,747.9,702.7L747.9,702.7z"/>
	<g>
		<path class="st11" d="M661.4,257.1c1.7-0.3,3.3-0.6,4.9-0.9c1.6-0.3,3.2-0.8,4.7-1.2c1.5-0.5,3-1,4.5-1.7c1.5-0.6,2.9-1.5,4.4-2.2
			c-1,1.4-2.2,2.7-3.7,3.6c-1.4,1-3,1.8-4.7,2.2c-1.7,0.5-3.4,0.8-5.1,0.9C664.8,257.7,663,257.6,661.4,257.1z"/>
	</g>
	<g>
		<path class="st12" d="M669.7,214c1.5-1.6,3.5-2.4,5.5-2.7c1-0.1,2.1-0.1,3.1,0.2c1,0.2,2.1,0.4,3.1,0.8c2,0.7,3.6,1.8,5.2,3
			c1.6,1.2,3,2.5,4.3,4l-0.2,0.2c-1.5-1.1-3.1-2.2-4.8-3c-1.7-0.8-3.4-1.5-5.1-1.9c-0.8-0.2-1.7-0.2-2.6-0.2
			c-0.9,0.1-1.7,0.2-2.6,0.2c-1.8,0-3.6,0-5.7-0.3L669.7,214z"/>
	</g>
	<g>
		<path class="st12" d="M657.2,214.5c-1.7,0-2.8,0.1-4,0c-0.6,0-1.1-0.3-1.8-0.3c-0.3,0-0.6,0-0.9,0c-0.3,0-0.6,0.1-1,0.1
			c-1.3,0.2-2.6,0.7-3.8,1.3c-1.2,0.7-2.3,1.5-3.1,2.6l-0.3-0.1c0.6-1.4,1.6-2.5,2.7-3.5c1.1-1,2.4-1.7,3.8-2.4
			c0.7-0.3,1.5-0.6,2.3-0.8c0.8-0.2,1.6-0.4,2.5-0.3c1.7,0.3,3.3,1.4,3.8,3.1L657.2,214.5z"/>
	</g>
	<ellipse class="st13" cx="679.1" cy="224.4" rx="3.3" ry="4.9"/>
	<ellipse class="st13" cx="650.8" cy="224.4" rx="3.3" ry="4.9"/>
	<g>
		<path class="st11" d="M660.3,224.4c0,2.4-0.3,4.7-0.9,7.1c-0.3,1.2-0.8,2.3-1.3,3.4c-0.3,0.5-0.7,1.1-1,1.6
			c-0.3,0.4-0.6,0.9-0.8,1.4c-0.4,0.9-0.6,1.9-0.4,2.7c0.2,0.8,0.9,1.3,1.9,1.6c0.5,0.2,1,0.2,1.6,0.3c0.6,0,1.1,0,1.7,0
			c0.6,0,1.1-0.1,1.7-0.1c0.6-0.1,1.2-0.1,1.8-0.2c-0.5,0.3-1.1,0.5-1.6,0.7c-0.6,0.2-1.1,0.4-1.7,0.6c-0.6,0.2-1.2,0.2-1.8,0.3
			c-0.6,0-1.3,0.1-1.9,0l-0.5-0.1c-0.2,0-0.3-0.1-0.5-0.2l-0.5-0.2c-0.2-0.1-0.3-0.2-0.5-0.3c-0.6-0.4-1.1-1.1-1.4-1.8
			c-0.4-1.5-0.1-2.9,0.4-4.1c0.3-0.6,0.6-1.2,1-1.7c0.4-0.5,0.6-0.9,0.9-1.4c0.6-0.9,1-2,1.5-3C658.8,228.9,659.5,226.7,660.3,224.4
			z"/>
	</g>
	<g>
		<path class="st1" d="M628.1,414.5c-11.6,13.7-10.4,13.6-20.3,20.1c0.9,27.3-6.5,68.1-11,90.6c0,0-0.5,3.8-1.3,8.9
			c5.6,0,12-0.2,19.3-0.6c47.4-2.6,35.2-74.6,21.5-126.1C630.3,408.9,628.1,414.5,628.1,414.5z"/>
		<path class="st1" d="M595.9,398.9c11.7-5,15-16.7,15-16.7c-0.3-20.5,11.1-15.6,11.1-16.6c-0.6-11.7-6.6-18.8-12.2-5
			c-6.1,14.9-25.6,41-25.6,41C589.3,401.1,593.6,400.2,595.9,398.9z"/>
	</g>
	<g>
		<path class="st14" d="M635.2,367.9c-0.8,1-2.9,1.3-3.4,2.2c-1.4,2.1-0.4,5.2-0.4,5.2s5.8,3.9,12.2,2.5c6.4-1.4,14.4-11.7,18.7-10
			c0.4,0.2,0.8,0.4,1,0.7c-2.7-6.9-9.5-11.8-17.3-11.8c-4,0-7.6,1.3-10.7,3.4C637.7,361.6,637.4,365.1,635.2,367.9z"/>
		<path class="st14" d="M662.3,375.6c0.8-0.7,1.6-1.1,2.3-1.4c-0.1-1.1-0.2-2.1-0.5-3.2C663.9,373.3,662.3,375.6,662.3,375.6z"/>
	</g>
	<circle class="st15" cx="645.8" cy="378.8" r="17.1"/>
	<path class="st16" d="M595.9,398.9c11.7-5,15-16.7,15-16.7c0-9.8,0-8.3,0.1-5.7l-0.8-25.2c0,0-3.3,30.5-12.9,38.5
		c-9.5,8-32.7,12.6-32.7,12.6l0,0C577.7,402.7,591.1,401.6,595.9,398.9z"/>
	<path class="st1" d="M740.2,356.7c-14.1,2.2-66.9,135.6-44.7,164.9c11.7,15.4,32.6,13.3,49.9,7.9c-1.3-7.4-2.7-16.3-3.9-26.8
		c-3.7-31.2,4.2-116.4,4.2-116.4s24.5,43.6,23.5,53c-0.4,3.6,7.1,2.8,16.7-0.7l0,0C785.9,438.6,754.4,354.5,740.2,356.7z"/>
	<path class="st5" d="M668.9,374.5c0,0-2.9-1.9-6.6,1.1c0,0,4.2-6.1,0-7.8c-4.2-1.7-12.3,8.6-18.7,10c-6.4,1.4-12.2-2.5-12.2-2.5
		s-1-3.1,0.4-5.2c0.6-0.9,2.6-1.1,3.4-2.2c3.9-5,1.8-12.6-11-6c-8.2,4.2-13.6-1-13.3,20.4c0,0-3.3,11.7-15,16.7
		c-7.5,4.2-35.8,4.4-52,1.9h0c0,0-0.4,4.8,0,9.2c0,0-8.5,11.7-5.7,21.1c2.8,9.4-7.7,26.6,24.4,17.2c15.2-4.4,26.3-6,35.9-9.4
		c10.7-3.8,19.4-9.8,29.6-24.4c0,0,3.2-8.1,12.4-7.4c9.2,0.7,23.7-3.7,25.3-15.4C665.8,391.7,673.3,377.3,668.9,374.5z"/>
	<g>
		<path class="st17" d="M570.3,402.4l-5.4,1.4c-1.8,0.5-3.6,0.9-5.3,1.5c-1.8,0.5-3.5,1-5.3,1.6c-1.8,0.5-3.5,1.2-5.4,1.6
			c1.5-1.1,3.2-2.1,4.9-2.9c1.7-0.8,3.5-1.5,5.3-2c1.8-0.5,3.7-0.9,5.6-1.1C566.5,402.3,568.4,402.2,570.3,402.4z"/>
	</g>
	<path class="st18" d="M687.5,172.1c-0.4,0.1-0.7,0.2-0.7,0.2S687.1,172.3,687.5,172.1z"/>
	<path class="st6" d="M664.6,273.9c-5.2-1.2-8.1-2.9-10.7-5.1c-2.2-1.8-6.3-8.4-8.8-11.1c1.7,3.2,1.8,5.9,1.8,6.3c0,0.1,0,0.3,0,0.4
		c0,0.3,0,0.6,0,0.8c0,0.1,0,0.3,0,0.4c0,0.3-0.1,0.5-0.1,0.7c0,0.1,0,0.2-0.1,0.3c-0.1,0.2-0.1,0.5-0.2,0.7c0,0.1,0,0.2-0.1,0.2
		c-0.2,0.6-0.5,1.1-0.8,1.6c0,0,0,0-0.1,0.1c-0.1,0.2-0.3,0.4-0.4,0.6c0,0-0.1,0.1-0.1,0.1c-0.1,0.2-0.3,0.3-0.4,0.4
		c0,0-0.1,0.1-0.1,0.1c-0.1,0.1-0.3,0.3-0.4,0.4c0,0-0.1,0.1-0.1,0.1c-0.2,0.1-0.3,0.2-0.5,0.3c0,0,0,0,0,0
		c-0.2,0.1-0.4,0.2-0.5,0.3c-0.1,0-0.1,0.1-0.2,0.1c-0.1,0.1-0.2,0.1-0.3,0.1c-0.1,0-0.2,0.1-0.2,0.1c0,0-0.1,0-0.1,0.1
		c-0.1,0-0.2,0.1-0.3,0.1c-0.3,0.1-0.5,0.2-0.5,0.2c0.4,3.3,1.1,7.9,3.1,12.4c2.6-2.7,4.7-5.3,6.3-7.4c11,4.6,27.3,6.7,36.3-7.3
		C686.9,270,674,276,664.6,273.9z"/>
	<path class="st6" d="M623.9,362c-8,3.9-13.3-0.9-13,20.2c0,0-3.3,11.7-15,16.7c-7.5,4.2-35.8,4.4-52,1.9h0c0,0-0.4,4.8,0,9.2
		c0,0-8.5,11.7-5.7,21.1c1.9,6.6-2.6,16.8,5.4,19.3l12-0.4c0,0,0,0,0,0l4.1-7.3c-2.9-2.7,1-16.6,13.2-22.1
		c12.2-5.5,37.9-21.5,43.1-32.5c5.1-10.9,3.2-16.4,11.2-20.9C632.9,364.2,627.4,362.6,623.9,362z"/>
	<path class="st16" d="M676.4,565.3c-38.1-7-42-65.8-36.7-104.2c2.9-21.2-0.3-40.3-3.9-53.6c-5.6,1.7-7.7,6.9-7.7,6.9
		c-11.6,13.7-10.4,13.6-20.3,20.1c0.9,27.3-6.5,68.1-11,90.6c0,0-3.8,27.7-6.8,32.9c0,0,16.2,10.4,83.5,7.4
		C674.5,565.4,675.5,565.4,676.4,565.3z"/>
	<path class="st16" d="M753.7,378.8c-11.6-11.7-8,7.6-8,7.6s24.5,43.6,23.5,53c-0.5,4.4,10.5,2.3,22.9-3.4
		C787.8,418.4,763.3,388.4,753.7,378.8z"/>
	<g class="st19">
		<g>
			<path class="st20" d="M717.3,732.4c-0.5,0-1.1,0-1.7,0C716.2,732.4,716.7,732.4,717.3,732.4z"/>
			<path class="st20" d="M691.5,731.5c8.8,0.7,16.8,0.9,24.1,0.9c-17.1,0.7-30.4-99-34.3-97.7c-3.9,1.3-19,3.5-19,3.5
				c9.2,1.7,16.5,1.7,16.5,1.7C681.3,673.7,691.5,731.5,691.5,731.5z"/>
		</g>
	</g>
	<path class="st21" d="M562.6,964.1C562.6,964.1,562.6,964.1,562.6,964.1C562.6,964.1,562.6,964.1,562.6,964.1l0-4.6
		c-0.7-3.3-3.3-7.5-11.6-8.8c-14.6-2.2,1.2,11.8-13.6,20.4c-8.6,5-19.4,13-28.2,18.9c2.3,11.8,19.1,6.1,33.2,0.4
		c15.8-6.4,20.2-24.9,20.2-24.9L562.6,964.1z"/>
	<path class="st21" d="M803.9,992.1c-0.7-0.9-1.2-1.8-1.5-2.8c-1.5-5.2-4.8-16.3-11.1-23s-1.9-11.1-12.2-11.1
		c-10.4,0-15.2,2.2-14.1,8.9c0,0,7.1,29.3,17.8,28.9C791.4,992.7,798.5,991.5,803.9,992.1z"/>
</g>
<g id="Capa_2">
	<polygon class="st21" points="467.8,975.6 465,984.9 453.2,982 456.7,972.7 	"/>
	<path class="st7" d="M401,913.6c0,0,6.9-11.1,16.5,7.2s17.9,27.2,27.9,33.3c10,6.1,36.6,23.3,13.3,25h-18.9l-36.6-17.8l-33.3-11.1
		L348,926.4l-7-12.9l18.3-16l32.2,5L401,913.6z"/>
	<path class="st21" d="M417.5,920.8c-9.6-18.3-16.5-7.2-16.5-7.2l-4.5-5.3l-1.3,15.2c0,0,26.4,32.8,41.8,24.3h0
		C430.5,942,424.3,933.8,417.5,920.8z"/>
	<path class="st22" d="M360.9,896.6c0,0-5.7,3.2-2.9,6.2s-1.4,11.6,2.7,16.3s33.6,9.9,34.5,4.5c0.9-5.4,5.8-10,5.8-10l3.5-8.2
		L360.9,896.6z"/>
	<path class="st22" d="M313.4,907.5c0,0-6.6,2.8-8.4,6.9c-1.8,4.1-6.1,7-6.1,7v12.8h20.5h17.8l10.9-7.8v-12.9l-29.2-6H313.4z"/>
	<path class="st10" d="M370.2,643.5c0,0-0.8,8,11.9,10.8S478.7,692.6,507,722c28.3,29.4-7.2,78.8-28.9,100.5
		C456.5,844.2,406,903,401,913.6c0,0-8.9,2.2-36.6-11.1L348,919c0,0-38.5-9.2-36.1-13.9c3.9-7.8,5.1-11.5,15.8-28.2
		c18.9-29.4,23.3-36.6,24.4-44.4c1.1-7.8,16.7-52.2,55-68.3c0,0-40-3.3-93.6-14.4c-53.6-11.1-98-44.4-98-85.5
		c0-41.1,50-70.5,50-70.5H285l39.2,22.2l29.6,31.1L370.2,643.5z"/>
	<path class="st23" d="M313.4,907.5c0,0-6.6,2.8-8.4,6.9c-1.3,3.1-4.2,5.5-5.5,6.5l-0.7,4.7v6.8l3.2,1.8h11.3l0.5-1.8
		c8.9-8.2,9-20.5,9-20.5l-1.8-3.8l-2.3-0.5H313.4z"/>
	<path class="st1" d="M359.8,812c-4.8,9.7-7.2,17.6-7.7,20.5c-1.1,7.8-5.6,15-24.4,44.4c-10.7,16.7-11.9,20.4-15.8,28.2
		C309.6,909.8,348,919,348,919l51.8-60.8C399.8,858.2,372.1,847.1,359.8,812z"/>
	<path class="st1" d="M427.1,483.9c0,0,39.9,53.1-1.7,86.6c0,0-49.4,36.6-57.7,83.3c0,0-1.7,15.5-37.8-22.8s-64.4-37.2-64.4-37.2
		s36.4-3.1,52.8-45.5c13.3-34.4,10.6-46.4,10.6-46.4s47.1,20.3,74.9-13.4L427.1,483.9z"/>
	<path class="st16" d="M380.9,665.4c-9.6-4.5-11.6-18.8-11.6-18.8s-1.3-0.8-3.4-2.1l-12.1,2.6l-17.7-18.6c-6.2-2.2-8.7-1.2-1.4,7.4
		C354.7,659.8,380.9,665.4,380.9,665.4z"/>
	<path class="st1" d="M372.5,700.1c-42.4-10.9-86.1-35.8-88.1-67.5c0,0-7.8,63.8,63.6,94.9c0,0,19.5,14.2,14.2,31.1
		c27.4,4.2,44.9,5.7,44.9,5.7S414.9,711,372.5,700.1z"/>
	<path class="st16" d="M422.6,752.8c-76.5,0-117.6-43.7-110.8-71.4c6.8-27.6,45.4-26.2,45.4-26.2L320.6,614L285,593.8h-19.4
		c0,0-50,29.4-50,70.5c0,41.1,44.4,74.4,98,85.5s93.6,14.4,93.6,14.4c-38.3,16.1-53.9,60.5-55,68.3c-1.1,7.8-5.6,15-24.4,44.4
		c-10.7,16.7-11.9,20.4-15.8,28.2c-0.9,1.8,4.3,4.3,11,6.7l0.5-0.6c24.9-42.8,25.3-42.7,84.2-109.6S422.6,752.8,422.6,752.8z"/>
	<linearGradient id="SVGID_1_" gradientUnits="userSpaceOnUse" x1="321.4505" y1="624.5362" x2="376.5392" y2="534.5325">
		<stop  offset="0" style="stop-color:#00E9C5"/>
		<stop  offset="5.368328e-02" style="stop-color:#01D7B6"/>
		<stop  offset="0.2449" style="stop-color:#069B84"/>
		<stop  offset="0.429" style="stop-color:#0A695A"/>
		<stop  offset="0.6013" style="stop-color:#0D4239"/>
		<stop  offset="0.7589" style="stop-color:#0F2622"/>
		<stop  offset="0.8968" style="stop-color:#111514"/>
		<stop  offset="1" style="stop-color:#110F0F"/>
	</linearGradient>
	<path class="st24" d="M427.1,483.9c0,0,39.9,53.1-1.7,86.6c0,0-49.4,36.6-57.7,83.3c0,0-1.7,15.5-37.8-22.8s-64.4-37.2-64.4-37.2
		s36.4-3.1,52.8-45.5c13.3-34.4,10.6-46.4,10.6-46.4s47.1,20.3,74.9-13.4L427.1,483.9z"/>
	<path class="st25" d="M522,1053.5v28.9c0,0-48.8,22.2-164,20s-164.1-20-164.1-20v-26.1l9.4-2.8l183.2,16.1l118.8-16.1H522z"/>
	<path class="st26" d="M193.9,1056.3v26.1c0,0,31.5,11.4,103.5,17.1l0,0l1.5-22.4c-0.9-5.3-1.4-10.4-1.4-15.3l-94-8.3L193.9,1056.3z
		"/>
	<path class="st22" d="M532.6,446.5c0,0,24-5.3,65-3.2c41,2.2,89.2-1.2,112,6.2c22.8,7.4,88.2,4.3,81.8,14.3c0,0-3.3,7-57.2,4.9
		c0,0-10,7,1.2,19.6c11.2,12.6-0.7,15.5-7.2,6.7s-8.7-23-15.2-25.7s-16.8,1.4-22.6-2.4s-119.4,21.8-157.9,22V446.5z"/>
	<path class="st23" d="M532.6,446.5c0,0,24-5.3,65-3.2c41,2.2,89.2-1.2,112,6.2c22.8,7.4,88.2,4.3,81.8,14.3c0,0-3.3,7-57.2,4.9
		c0,0-10,7,1.2,19.6c11.2,12.6-0.7,15.5-7.2,6.7s-8.7-23-15.2-25.7s-16.8,1.4-22.6-2.4s-119.4,21.8-157.9,22V446.5z"/>
	<path class="st16" d="M328.9,501.9c0,0,2.7,12-10.6,46.4c-16.4,42.4-52.8,45.5-52.8,45.5s16.7-0.7,40.8,16.4
		c58.6,38.7,48.1-8.5,71.9-22.6c23.8-14.1,15.4-26.4,15.4-26.4c-19.9-32.8,10.1-72.7,10.1-72.7C376,522.2,328.9,501.9,328.9,501.9z"
		/>
	<path class="st22" d="M460.4,316.2c0,0,4.1,16.5,0,25c-4.1,8.5,9.3,19.6,9.3,19.6s6.7,4.8-2.6,8.5c0,0-5.4,2.9-1.3,8.3
		c0.8,1-1.7,2.7-4.2,3c0,0-1.6,1.2,1.1,3.2c2.6,1.9,0.6,3.1-0.6,4.2s4.9,15.1-6.1,14.7c-25.3-0.9-30.6-12-33.9-5.1
		c-5.6,11.7-3.9,30.5-3.9,30.5l-0.3,10.6l-41.5-9.7l-9,3.1c0,0,12.5-27.5,16.5-41.2c4-13.7,7.7-19.6,7.7-19.6l-1.6-31.1l25.3,1.1
		l21.5-22.2L460.4,316.2z"/>
	<path class="st23" d="M397.6,368.9l-3.6-3.8l-4.1,6.8h1.2c-1.1,2-4.1,7.9-7.3,18.9c-4,13.7-16.5,41.2-16.5,41.2l9-3.1l22.8,5.3h4.7
		C403.9,434.2,395.1,387.3,397.6,368.9z"/>
	<path class="st22" d="M403.8,488.5c0,0-9.8,34.1-74.8,19.7l-0.3-9.2l3.7-30.1l19.5-21.5c0,0,10.3-30,38.1-17.7s66.4,7.4,128.5,18.1
		c0,0,23.5-7.2,64.6-8.3c41.1-1.1,88.8-8.3,112.2-2.8c23.3,5.6,88.3-2.8,82.7,7.8c0,0-2.8,7.2-56.6,9.4c0,0-9.4,7.8,2.8,19.4
		c12.2,11.7,0.6,15.5-6.7,7.2c-7.2-8.3-10.5-22.2-17.2-24.4c-6.7-2.2-16.7,2.8-22.8-0.6s-96.6,29.4-134.9,32.8
		C504.3,491.6,403.8,488.5,403.8,488.5z"/>
	<path class="st23" d="M443.4,439.4c-21.8-1.7-39-3.5-53.4-9.8c-27.9-12.2-38.1,17.7-38.1,17.7l-19.5,21.5l-3.7,30.1l0.3,9.2
		c64.9,14.4,74.8-19.7,74.8-19.7s47.2,1.5,89.3,1.3C455.2,481.2,411.6,465,443.4,439.4z"/>
	<path class="st17" d="M374.4,289c3.5-2.8,21.7-14.4,58.9-5s27.2,32.2,27.2,32.2s-28.3,1.1-34.4,26.1c0,0-4.9,10-8,10.5
		c-3.1,0.6-3.1,0.6-3.1,0.6s-7.8-10.9-14.6-10.2c-11.6,1.2-4.9,17.2-4.2,23.7c0.8,8.2,0.2,26.1,0.2,26.1s-12-1.5-18.3-4.1
		c-3.6-1.5-8.5-3.2-11.3-14.4c0,0,2.7,17.3-4.4,21.7c0,0,6.2,19.3-3.8,25.4c0,0,3.3,11.8-6.7,14.6c0,0,2.2,13.3-1.7,13.9
		c0,0-2.8,6.7-6.7,6.7c0,0-3.3,9.4-5,9.4c0,0,0,9.4-4.4,11.7c0,0-1.1,10-4.4,11.7c0,0,2.2,8.9-2.2,12.8c0,0,2.2,9.4-2.2,10.5
		c0,0,5.6,15-3.9,21.1c0,0-6.1-10.5,0-21.1c0,0-1.1-8.3,0.6-11.1c0,0-0.6-11.7,2.2-12.8c0,0-1.1-11.7,2.8-12.8c0,0-2.2-8.3,0-11.1
		c0,0-1.7-6.1,2.8-11.7c0,0-3.9-11.7,3.9-17.2c0,0-3.3-15,3.3-19.4c0,0-4.4-16.1,4.4-25c0,0-2.2-16.7,5-21.1c0,0-7.2-15.5,1.7-25
		C356.6,336.2,341,315.1,374.4,289z"/>
	<path class="st27" d="M193.9,1056.3c0,0,0.6-25.5,13.3-44.4c12.8-18.9,43.3-60,146-60s140.5,50.5,155.5,70
		c15,19.4,13.3,31.6,13.3,31.6s-41.1,28.3-164,25.1C358,1078.6,267.2,1082.9,193.9,1056.3z"/>
	<path class="st28" d="M403.5,956.5L403.5,956.5c-14.7-2.9-31.4-4.6-50.2-4.6c-102.7,0-133.2,41.1-146,60
		c-12.8,18.9-13.3,44.4-13.3,44.4c34.9,12.7,73.8,18.4,104.9,20.8C282.7,982.6,403.5,956.5,403.5,956.5z"/>
	<path class="st7" d="M305,914.3c0,0-10.6-5.8-11.7,12.6c-1.1,18.3-25,31.6-9.4,39.4c15.5,7.8,47.2,12.8,61.1,25
		c13.9,12.2,57.7,12.8,67.2,2.8c9.4-10,6.1-18.9-7.2-25.5s-33.9-22.2-36.1-27.8s-5-27.8-32.2-15.5c0,0-5.6,1.1-3.3,7.8
		c0,0-12.8-3.3-21.7,0C302.7,936.4,298.4,927.5,305,914.3z"/>
	<ellipse class="st29" cx="453.7" cy="347.1" rx="2.9" ry="4.6"/>
	<g>
		<path class="st17" d="M461.3,338.8c-1.4-0.6-2.6-1.1-4-1.4c-1.3-0.3-2.6-0.6-4-0.5c-1.4,0.1-2.8,0.3-4.2,0.6
			c-1.4,0.3-2.8,0.7-4.1,1.3l-0.1-0.1c1.2-0.9,2.6-1.5,4-2c1.4-0.5,2.9-0.9,4.3-1.1c1.5-0.2,3.2-0.3,4.7,0.2
			c1.5,0.6,2.8,1.5,3.6,2.9L461.3,338.8z"/>
	</g>
	<path class="st23" d="M358,902.8c2.8,3-1.4,11.6,2.7,16.3c1.6,1.8,7.1,3.7,13.2,5.1c3.4-3.6,10.6-12.2,8.8-20.6
		c-0.2-1.1-0.6-2-1.2-2.8l-20.7-4.2C360.9,896.6,355.2,899.8,358,902.8z"/>
	<path class="st8" d="M461.6,380.5c0,0-3.7-0.6-5.5-1.8c0,0,2.7,3.5,6.6,5C460.1,381.8,461.6,380.5,461.6,380.5z"/>
	<path class="st1" d="M407.9,862.6c-5.9-0.5-9.8-1.3-10.4-1.5c-26.7,32.9-35,41.4-35,41.4c7.6,3.7,14,6.1,19.2,7.8
		c13.7,4.4,19.4,3.2,19.4,3.2c2.7-5.6,26.2-34.2,43.5-54.3C430.5,863.4,416.8,863.4,407.9,862.6z"/>
	<path class="st1" d="M397.4,861.1l-42.4,36.4l1.4,11.8l6.1-6.8C362.4,902.5,370.7,894.1,397.4,861.1
		C397.4,861.1,397.4,861.1,397.4,861.1z"/>
	<path class="st16" d="M487.6,706.1c0,0,17.3,21.6,12.2,33.2c-1,2.3-1.5,16.1-6.7,22.5c-20.5,25.5-70.4,68.2-93.3,96.4
		c-0.8,1-1.6,2-2.4,2.9c-26.7,32.9-35,41.4-35,41.4c7.6,3.7,14,6.1,19.2,7.8c0,0-9.3-8.8,7.6-28.3c3.5-4.1,10.2-10.9,18.7-19.4
		c32.4-32.6,90.8-89.1,93.8-103.4C505.6,741.2,512.7,728.9,487.6,706.1z"/>
	<g>
		<path class="st30" d="M396,366.9c0.9,0.9,1.8,1.8,2.7,2.6c0.9,0.8,1.8,1.6,2.8,2.3c1,0.7,2,1.3,3.1,1.7c1.1,0.4,2.3,0.5,3.6,0.3
			c-1.1,0.6-2.5,0.8-3.8,0.5c-0.7-0.1-1.2-0.4-1.8-0.7c-0.6-0.3-1.1-0.6-1.6-1C398.8,371.1,397.2,369.1,396,366.9z"/>
	</g>
	<path class="st6" d="M645.5,269.3C645.5,269.3,645.5,269.2,645.5,269.3C645.5,269.2,645.5,269.3,645.5,269.3z"/>
	<path class="st6" d="M646.6,266.6c0-0.1,0-0.2,0.1-0.3C646.7,266.4,646.7,266.5,646.6,266.6z"/>
	<path class="st6" d="M646.4,267.6c0-0.1,0.1-0.2,0.1-0.2C646.4,267.4,646.4,267.5,646.4,267.6z"/>
	<path class="st6" d="M644.9,270c0,0,0.1-0.1,0.1-0.1C645,269.9,645,269.9,644.9,270z"/>
	<path class="st6" d="M642,272c0.1,0,0.2-0.1,0.2-0.1C642.2,271.9,642.1,272,642,272z"/>
	<path class="st6" d="M641.6,272.2c0.1,0,0.2-0.1,0.3-0.1C641.8,272.1,641.7,272.1,641.6,272.2z"/>
	<path class="st6" d="M643.8,271c0,0,0.1-0.1,0.1-0.1C643.9,270.9,643.8,271,643.8,271z"/>
	<path class="st6" d="M646.8,265.6c0-0.1,0-0.3,0-0.4C646.8,265.3,646.8,265.4,646.8,265.6z"/>
	<path class="st6" d="M642.6,271.8c0.1,0,0.1,0,0.2-0.1C642.7,271.7,642.6,271.7,642.6,271.8z"/>
	<path class="st6" d="M643.3,271.4C643.3,271.4,643.3,271.4,643.3,271.4C643.3,271.4,643.3,271.4,643.3,271.4z"/>
	<path class="st6" d="M646.8,263.9c0,0.1,0,0.3,0,0.4C646.8,264.2,646.8,264.1,646.8,263.9z"/>
	<path class="st6" d="M644.5,270.4c0,0-0.1,0.1-0.1,0.1C644.4,270.5,644.5,270.5,644.5,270.4z"/>
	<path class="st6" d="M642.7,271.7c0.2-0.1,0.3-0.2,0.5-0.3C643.1,271.5,642.9,271.6,642.7,271.7z"/>
	<path class="st6" d="M641.9,272.1c0,0,0.1,0,0.1-0.1C642,272,641.9,272.1,641.9,272.1z"/>
	<path class="st6" d="M646.7,266.3c0-0.2,0.1-0.5,0.1-0.7C646.8,265.8,646.8,266.1,646.7,266.3z"/>
	<path class="st6" d="M643.3,271.3c0.2-0.1,0.3-0.2,0.5-0.3C643.6,271.1,643.5,271.2,643.3,271.3z"/>
	<path class="st6" d="M642.3,271.9c0.1,0,0.2-0.1,0.3-0.1C642.5,271.8,642.4,271.9,642.3,271.9z"/>
	<path class="st6" d="M646.8,264.3c0,0.3,0,0.6,0,0.8C646.9,264.9,646.9,264.6,646.8,264.3z"/>
	<path class="st6" d="M646.4,267.3c0.1-0.2,0.1-0.5,0.2-0.7C646.6,266.9,646.5,267.1,646.4,267.3z"/>
	<path class="st6" d="M646.8,263.9c0-0.4-0.1-0.9-0.2-1.3C646.8,263.1,646.8,263.5,646.8,263.9z"/>
	<path class="st6" d="M645.5,269.2c0.3-0.5,0.6-1,0.8-1.6C646.2,268.2,645.9,268.7,645.5,269.2z"/>
	<path class="st6" d="M644.9,270c-0.1,0.2-0.3,0.3-0.4,0.4C644.6,270.3,644.8,270.1,644.9,270z"/>
	<path class="st6" d="M643.9,270.9c0.1-0.1,0.3-0.2,0.4-0.4C644.2,270.7,644.1,270.8,643.9,270.9z"/>
	<path class="st6" d="M645,269.9c0.2-0.2,0.3-0.4,0.4-0.6C645.3,269.5,645.2,269.7,645,269.9z"/>
	<path class="st31" d="M430.9,283.4c-35.6-8.4-53.1,2.8-56.5,5.6c-33.3,26.1-17.8,47.2-26.6,56.6c-8.9,9.4-1.7,25-1.7,25
		c-7.2,4.4-5,21.1-5,21.1c-8.9,8.9-4.4,25-4.4,25c-6.7,4.4-3.3,19.4-3.3,19.4c-7.8,5.6-3.9,17.2-3.9,17.2
		c-4.4,5.6-2.8,11.7-2.8,11.7c-2.2,2.8,0,11.1,0,11.1c-3.9,1.1-2.8,12.8-2.8,12.8c-2.8,1.1-2.2,12.8-2.2,12.8
		c-1.7,2.8-0.6,11.1-0.6,11.1c-6.1,10.5,0,21.1,0,21.1c9.4-6.1,3.9-21.1,3.9-21.1c4.4-1.1,2.2-10.5,2.2-10.5
		c4.4-3.9,2.2-12.8,2.2-12.8c3.3-1.7,4.4-11.7,4.4-11.7c4.4-2.2,4.4-11.7,4.4-11.7c1.7,0,5-9.4,5-9.4c3.9,0,6.7-6.7,6.7-6.7
		c3.9-0.6,1.7-13.9,1.7-13.9c10-2.8,6.7-14.6,6.7-14.6c10-6.1,3.8-25.4,3.8-25.4c7.2-4.3,4.4-21.7,4.4-21.7
		c2.8,11.2,7.7,12.9,11.3,14.4c6.3,2.6,18.3,4.1,18.3,4.1s0.7-17.9-0.2-26.1c0-0.2,0-0.4-0.1-0.6c-0.2-0.8-0.4-1.6-0.4-2.3
		c-1.1-5.3-3.4-13.1-1-17.5c-6.8-14.3,7.5-22.9,7.5-22.9c-22.5-23.1,2.3-30.4,2.3-30.4C399.1,277.9,428.3,282.9,430.9,283.4z"/>
	<path class="st21" d="M417.2,985.4c-5.9,4.5-19,11.9-38.1,7.6c-26.6-6-29.1-9.3-44.1-19.2c-13.1-8.7-44.7-14.4-52.3-23.7
		c-4.4,6.8-6.8,12.3,1.2,16.3c15.5,7.8,47.2,12.8,61.1,25c13.9,12.2,57.7,12.8,67.2,2.8C415,991.1,416.6,988.2,417.2,985.4z"/>
	<path class="st21" d="M368.8,940.8c-2.2-5.6-5-27.8-32.2-15.5c0,0-5.6,1.1-3.3,7.8c0,0,19.4,22.3,33.3,26.1
		c9.7,2.7,17.8,0.7,21.8-0.7C378.8,951.7,370.2,944.3,368.8,940.8z"/>
</g>
</svg>
