<?xml version="1.0" encoding="utf-8"?>
<!-- Generator: Adobe Illustrator 25.4.1, SVG Export Plug-In . SVG Version: 6.00 Build 0)  -->
<svg version="1.1" xmlns="http://www.w3.org/2000/svg" xmlns:xlink="http://www.w3.org/1999/xlink" x="0px" y="0px"
	 viewBox="0 0 1080 1080" style="enable-background:new 0 0 1080 1080;" xml:space="preserve">
<style type="text/css">
	.st0{display:none;}
	.st1{display:inline;}
	.st2{fill:#F2F2F2;}
	.st3{clip-path:url(#SVGID_00000072265379144495299940000015924452328478972832_);}
	.st4{fill:#E0E0E0;}
	.st5{clip-path:url(#SVGID_00000044178356461995739500000017705490861166479286_);}
	.st6{fill:#00E9C5;}
	.st7{fill:#E8E8E8;}
	.st8{fill:#CCB829;}
	.st9{fill:#D8C536;}
	.st10{fill:#BF8819;}
	.st11{fill:#D3C263;}
	.st12{fill:#FCEB4C;}
	.st13{fill:#DBCA2A;}
	.st14{fill:#A59205;}
</style>
<g id="Capa_2" class="st0">
	<g class="st1">
		<path class="st2" d="M726.1,850.6c-53.7-5.3-165.2-75-218.6-66.1c-62.8,10.4-122.1,37.6-182.8,58.3
			c-60.7,20.7-125.9,34.8-187.1,18.3C76.3,844.5,21,789.9,18.5,722.2c-3.1-82.9,69.5-155.6,62.2-238.1
			c-5.9-67.7,35.2-291.2,387.5-149.9c227.7,91.3,319-148.1,435.6-75.8c98.1,60.8,162.5,249.7,136,369.1
			c-26.6,119.4-130.2,223.1-244.4,225.9C752.5,854.4,774,854.2,726.1,850.6z"/>
	</g>
</g>
<g id="Capa_4">
	<circle class="st2" cx="540" cy="540" r="540"/>
	<g>
		<defs>
			<circle id="SVGID_1_" cx="540" cy="540" r="540"/>
		</defs>
		<clipPath id="SVGID_00000150088821208924521420000001913349303522637203_">
			<use xlink:href="#SVGID_1_"  style="overflow:visible;"/>
		</clipPath>
		<g style="clip-path:url(#SVGID_00000150088821208924521420000001913349303522637203_);">
			<rect y="490.1" class="st4" width="1080" height="601.7"/>
		</g>
	</g>
</g>
<g id="Capa_1">
	<g>
		<defs>
			<circle id="SVGID_00000072973536858569339490000010742850599490424717_" cx="540" cy="540" r="540"/>
		</defs>
		<clipPath id="SVGID_00000029027412445478448160000002332210408280555951_">
			<use xlink:href="#SVGID_00000072973536858569339490000010742850599490424717_"  style="overflow:visible;"/>
		</clipPath>
		<g style="clip-path:url(#SVGID_00000029027412445478448160000002332210408280555951_);">
			<g>
				<path class="st6" d="M318.8,553.9L976,517c0,0,430.7,39.2,438.1,78.5c0,0-131.9,69.6-148.3,73.3c-16.3,3.7-150.4-73.7-312-92.7
					c-191.3-7.7-448.7-3.4-533.5-6.4c-6.7-0.1,19.2-3.9,18.3-4.9c-2.5-2.8-18.7-4.8-35.5-5.4C323.5,558.3,318.8,553.9,318.8,553.9z"
					/>
			</g>
			<g>
				<path class="st7" d="M371.6,549.4l584.6-23.9c0,0,406.8,48,427,77.3c0,0-82,39.5-95.6,44.2c-12.2,4.2-149.8-71-308.9-91.7
					c-183.8-8-467.4,2.4-552.2,1.2C410.6,556.6,371.6,549.4,371.6,549.4z"/>
			</g>
			<path class="st8" d="M324.9,632.4v20.5l-132.6,28.8l36.9,17.2v26.2l-33.4,28.6L170,708.1l16.1-59.6l89.8-82.1l9.2-14.6l18.4-6.9
				l49-4v10l-11.2,7.7c0,0-19.7-1-37.8,1.8l31.3,17.4v18.5l-41.5,12L324.9,632.4z"/>
			<polygon class="st8" points="349.4,600.6 349.4,621 366.5,654.6 239.3,663.2 239.3,686.8 265,718.9 392.4,662 			"/>
			<polygon class="st8" points="456.3,579.8 456.3,598 446,596.6 443.4,588.9 			"/>
			<path class="st9" d="M497.8,652.7L497.8,652.7c-0.1,0.2-0.1,0.4-0.1,0.6L497.8,652.7z"/>
			<path class="st8" d="M397.7,563.6v9.2c0,0,60.1,8.7,37.8,21.1l10.5-16.5l-21.9-14.9l-20.1-1.9L397.7,563.6z"/>
			<path class="st10" d="M497.7,653.3l-0.9,6.5C497.3,657.6,497.6,655.4,497.7,653.3z"/>
			<g>
				<path class="st9" d="M187.6,722.5c-59.9-7.7-96.3-30.8-94.6-60l-0.1,0L91.4,691c-0.1,1.1-0.2,2.1-0.2,3.1l0,0.3l0,0
					c-0.1,29.9,40.2,53,104.6,59.2L187.6,722.5L187.6,722.5z"/>
				<path class="st10" d="M111.9,655.5c0.9-4.4,2.7-8.9,5.5-13.4c25.2-41.3,110.7-74.3,191.1-73.7c8.8,0.1,17.3,0.5,25.5,1.4
					l-0.9-8.7c-6.7-0.5-13.5-0.8-20.6-0.9c-9.5-0.1-19.1,0.3-28.6,1c3.3-5.8,15-15.9,56.9-13.4l11.8-7c-1.7-0.1-3.5-0.3-5.4-0.4
					c-78.1-5.4-78.5,22.4-78.5,22.4c-73.8,9.1-144.6,41-168.5,79.3c-4.4,7.1-6.7,13.9-7.1,20.5l13.5-1.3
					C108.2,659.3,110,657.4,111.9,655.5z M270.4,562.5c-0.6,0.1-1.2,0.1-1.8,0.2C269.2,562.6,269.8,562.6,270.4,562.5z"/>
				<path class="st10" d="M187.6,722.5l13.1-7.5c-59.6-6.7-94.9-30.1-88.8-59.5c-1.9,1.9-3.7,3.7-5.4,5.6l-13.5,1.3
					C91.3,691.7,127.7,714.8,187.6,722.5z"/>
				<path class="st11" d="M334.5,569.8c-0.2,0-0.3,0-0.5-0.1l0,0C334.2,569.8,334.4,569.8,334.5,569.8z"/>
				<path class="st11" d="M295.5,581.6c2.3,0,4.5-0.1,6.8-0.1c5.5,0,10.9,0.3,16.1,0.7l16.5-4.6l0,0
					C315.8,576.8,303.4,578.8,295.5,581.6z"/>
				<path class="st11" d="M164.8,621c24.9-18.9,65.2-33.3,107.4-37.9c7.1-6.8,23.6-14.5,61.8-13.3l0,0c-8.1-0.8-16.6-1.3-25.5-1.4
					c-80.4-0.6-165.9,32.4-191.1,73.7c-2.8,4.6-4.6,9.1-5.5,13.4C125.1,642.6,143.4,630.9,164.8,621z"/>
				<path class="st11" d="M145,642.2c4.4-7.5,11.2-14.6,19.9-21.2c-21.4,9.9-39.7,21.6-52.9,34.5c-6.1,29.3,29.2,52.7,88.8,59.5
					l21.2-12C160.9,698.1,127.1,672.7,145,642.2z"/>
				<path class="st11" d="M272.2,583.1c7.7-0.8,15.5-1.4,23.3-1.5c8-2.8,20.3-4.8,39.3-4l-0.8-7.8
					C295.7,568.6,279.3,576.3,272.2,583.1z"/>
				<path class="st12" d="M282.1,591.2c4.9-0.4,9.8-0.7,14.8-0.8l-1.2-1.8l22.6-6.4c-5.2-0.4-10.6-0.6-16.1-0.7
					c-2.2,0-4.5,0-6.8,0.1C287.3,584.5,283.7,588.4,282.1,591.2z"/>
				<path class="st12" d="M272.2,583.1c-42.1,4.6-82.4,19-107.4,37.9c29.7-13.7,65.5-23.8,102-28.3
					C266.8,592.8,266.9,588.2,272.2,583.1z"/>
				<path class="st12" d="M299,616.4l-11.1,23.7l37-7.7l-11.7-17.6c-2.2-0.8-4.6-1.6-7.3-2.2c0,0,0,0,0,0
					C302.6,613.3,299.8,614.7,299,616.4z"/>
				<path class="st12" d="M191.2,660.2l17.5-3.6c-6.6-5.8-8.4-13.1-4.2-21l0.1,0c0.3-0.5,0.5-0.9,0.8-1.4c0.1-0.1,0.1-0.2,0.2-0.4
					c0.3-0.4,0.5-0.8,0.9-1.2c0,0,0-0.1,0.1-0.1c0.3-0.4,0.7-0.9,1.1-1.3c0.1-0.1,0.2-0.2,0.3-0.3c0.3-0.4,0.7-0.8,1.1-1.2
					c0-0.1,0.1-0.1,0.1-0.2c0.4-0.5,0.9-0.9,1.3-1.3c0.1-0.1,0.2-0.2,0.3-0.3c0.4-0.4,0.8-0.7,1.2-1.1l0.3-0.2
					c0.5-0.4,1-0.9,1.5-1.3l0.2-0.2c0.5-0.4,0.9-0.8,1.4-1.1l0.3-0.3c0.5-0.4,1.1-0.8,1.7-1.2l0.2-0.1c0.5-0.4,1.1-0.8,1.7-1.1
					c0.1-0.1,0.2-0.2,0.4-0.2c1.3-0.8,2.5-1.6,3.9-2.4l0.4-0.2c1.4-0.8,2.8-1.5,4-2.2l0.4-0.2c0.7-0.4,1.4-0.7,2.2-1
					c0.8-0.4,1.5-0.7,2.3-1.1l0.1-0.1c3.5-1.5,7.3-2.9,11.2-4.2c2.4-0.8,5.1-0.8,6.8-0.1c2.6-0.7,5.5-0.6,6.9,0.4l3.2,2.1
					c0.1,0.1,0.3,0.2,0.4,0.3c1.3,1.2-0.1,3-3.1,3.9c-1.1,0.3-2.2,0.7-3.3,1.1c-2.5,0.9-5,2-7.3,3l-0.5,0.2
					c-0.5,0.3-1.1,0.5-1.6,0.8l-0.2,0.1c-0.5,0.2-0.9,0.5-1.4,0.7c-0.1,0.1-0.2,0.1-0.3,0.2c-0.5,0.3-1,0.5-1.4,0.8l0,0
					c-1,0.6-2,1.2-3,1.8l-0.2,0.1c-0.9,0.6-1.8,1.3-2.7,1.9c-0.4,0.3-0.8,0.6-1.2,0.9l-0.2,0.1c-0.8,0.7-1.5,1.3-2.2,2
					c0,0.1-0.1,0.1-0.1,0.1c-0.3,0.3-0.6,0.6-0.8,0.9l-0.2,0.2c-0.6,0.7-1.1,1.3-1.6,2l-0.1,0.2c-0.2,0.3-0.4,0.5-0.5,0.8l-0.2,0.4
					c-0.2,0.4-0.4,0.7-0.5,1c-3.1,6-1.5,11.6,3.8,16l28.8-6l17.2-35.1c1.3-2.7,5.7-5.1,11.2-6.2c5.4-1.1,10.9-1.4,16-1.1l-8.6-12.8
					c-4.9,0.2-9.9,0.4-14.8,0.8c1.6-2.9,5.2-6.7,13.4-9.6c-7.8,0.2-15.6,0.7-23.3,1.5c-5.3,5.1-5.4,9.6-5.4,9.6
					c-36.5,4.5-72.3,14.6-102,28.3c-8.7,6.6-15.5,13.7-19.9,21.2c-17.9,30.5,16,55.9,77,60.8l7.2-4.1L191.2,660.2z"/>
				<path class="st13" d="M254.6,611.8c0.1,0.1,0.3,0.2,0.4,0.3c1.3,1.2-0.1,3-3.1,3.9c-1.1,0.3-2.2,0.7-3.3,1.1c-2.5,0.9-5,2-7.3,3
					l-0.5,0.2c-0.5,0.3-1.1,0.5-1.6,0.8l-0.2,0.1c-0.5,0.2-0.9,0.5-1.4,0.7c-0.1,0.1-0.2,0.1-0.3,0.2c-0.5,0.3-1,0.5-1.4,0.8l0,0
					c-1,0.6-2,1.2-3,1.8l-0.2,0.1c-0.9,0.6-1.8,1.3-2.7,1.9c-0.4,0.3-0.8,0.6-1.2,0.9l-0.2,0.1c-0.8,0.7-1.5,1.3-2.2,2
					c0,0.1-0.1,0.1-0.1,0.1c-0.3,0.3-0.6,0.6-0.8,0.9l-0.2,0.2c-0.6,0.7-1.2,1.3-1.6,2l-0.1,0.2c-0.2,0.3-0.4,0.5-0.5,0.8l-0.2,0.4
					c-0.2,0.4-0.4,0.7-0.5,1c-3.4,6.5-1.3,12.5,5.1,17l5-1c-5.3-4.4-6.9-10-3.8-16c0.2-0.4,0.4-0.7,0.5-1l0.2-0.4
					c0.1-0.3,0.3-0.5,0.5-0.8l0.1-0.2c0.5-0.7,1-1.3,1.6-2l0.2-0.2c0.3-0.3,0.5-0.6,0.8-0.9c0.1,0,0.1-0.1,0.1-0.1
					c0.7-0.7,1.4-1.3,2.2-2l0.2-0.1c0.4-0.3,0.8-0.6,1.2-0.9c0.9-0.7,1.8-1.3,2.7-1.9l0.2-0.1c1-0.6,1.9-1.2,3-1.8l0,0
					c0.5-0.3,1-0.5,1.4-0.8c0.1-0.1,0.2-0.1,0.3-0.2c0.5-0.2,0.9-0.5,1.4-0.7l0.2-0.1c0.5-0.3,1-0.5,1.6-0.8l0.5-0.2
					c2.3-1.1,4.8-2.1,7.3-3c1.1-0.4,2.2-0.8,3.3-1.1c3-0.9,4.4-2.7,3.1-3.9c-0.1-0.1-0.2-0.2-0.4-0.3l-3.2-2.1
					c-1.4-1-4.3-1.1-6.9-0.4c0.3,0.1,0.5,0.2,0.7,0.4L254.6,611.8z"/>
				<path class="st13" d="M299,616.4c0.8-1.7,3.6-3.1,6.9-3.7c-0.9-0.2-1.9-0.3-2.9-0.3c-4.5,0-9.1,1.8-10.2,4l-12,25.2l7.1-1.5
					L299,616.4z"/>
				<path class="st14" d="M210.9,635.6l0.1,0c0.2-0.5,0.5-0.9,0.7-1.4c0.1-0.1,0.1-0.2,0.2-0.4c0.3-0.4,0.5-0.8,0.8-1.2
					c0,0,0-0.1,0.1-0.1c0.3-0.4,0.7-0.9,1-1.3c0.1-0.1,0.2-0.2,0.3-0.3c0.3-0.4,0.7-0.8,1.1-1.2c0-0.1,0.1-0.1,0.1-0.2
					c0.4-0.5,0.8-0.9,1.3-1.3c0.1-0.1,0.2-0.2,0.3-0.3c0.4-0.4,0.8-0.7,1.2-1.1l0.3-0.2c0.5-0.4,1-0.9,1.5-1.3l0.2-0.2
					c0.5-0.4,0.9-0.8,1.4-1.1l0.3-0.3c0.5-0.4,1.1-0.8,1.7-1.2l0.2-0.1c0.5-0.4,1.1-0.8,1.6-1.1c0.1-0.1,0.2-0.2,0.4-0.2
					c1.2-0.8,2.5-1.6,3.9-2.4l0.4-0.2c1.4-0.8,2.8-1.5,4-2.2l0.4-0.2c0.7-0.4,1.4-0.7,2.2-1c0.8-0.4,1.5-0.7,2.3-1.1l0.1-0.1
					c3.5-1.5,7.2-2.9,11.1-4.2c0.2-0.1,0.4-0.1,0.6-0.2c-1.7-0.7-4.4-0.6-6.8,0.1c-3.9,1.3-7.6,2.7-11.2,4.2l-0.1,0.1
					c-0.8,0.3-1.6,0.7-2.3,1.1c-0.7,0.3-1.5,0.7-2.2,1l-0.4,0.2c-1.2,0.7-2.6,1.5-4,2.2l-0.4,0.2c-1.3,0.8-2.6,1.6-3.9,2.4
					c-0.1,0.1-0.2,0.2-0.4,0.2c-0.6,0.4-1.1,0.7-1.7,1.1l-0.2,0.1c-0.6,0.4-1.2,0.8-1.7,1.2l-0.3,0.3c-0.5,0.4-1,0.7-1.4,1.1
					l-0.2,0.2c-0.5,0.4-1,0.9-1.5,1.3l-0.3,0.2c-0.4,0.4-0.8,0.7-1.2,1.1c-0.1,0.1-0.2,0.2-0.3,0.3c-0.4,0.4-0.9,0.9-1.3,1.3
					c0,0.1-0.1,0.1-0.1,0.2c-0.4,0.4-0.8,0.8-1.1,1.2c-0.1,0.1-0.2,0.2-0.3,0.3c-0.4,0.5-0.7,0.9-1.1,1.3c0,0-0.1,0.1-0.1,0.1
					c-0.3,0.4-0.6,0.8-0.9,1.2c-0.1,0.1-0.1,0.2-0.2,0.4c-0.3,0.5-0.5,0.9-0.8,1.4l-0.1,0c-4.2,7.8-2.5,15.2,4.2,21l5.3-1.1
					C208.3,649.8,207,642.9,210.9,635.6z"/>
				<path class="st14" d="M305.5,603.2c0,0-0.1,0-0.1,0l0,0C305.5,603.2,305.5,603.2,305.5,603.2z"/>
				<path class="st14" d="M289.5,604.4c-5.5,1.1-9.9,3.5-11.2,6.2l-17.2,35.1l7.1-1.5l16.2-33.6c1.3-2.7,5.7-5.1,11.2-6.1
					c3.3-0.6,6.6-1,9.8-1.2l0,0C300.3,602.9,294.8,603.3,289.5,604.4z"/>
				<path class="st14" d="M305.9,612.7C305.9,612.7,305.9,612.7,305.9,612.7c2.7,0.6,5.1,1.3,7.3,2.2l-1.5-2.2
					c-0.8-0.2-1.7-0.2-2.6-0.3C308,612.4,306.9,612.5,305.9,612.7z"/>
				<path class="st14" d="M239,613.7l-0.1,0.1c-0.8,0.3-1.5,0.7-2.3,1.1c-0.7,0.3-1.5,0.7-2.2,1L234,616c-1.2,0.7-2.6,1.5-4,2.2
					l-0.4,0.2c-1.3,0.8-2.6,1.6-3.9,2.4c-0.1,0.1-0.2,0.2-0.4,0.2c-0.6,0.4-1.1,0.7-1.6,1.1l-0.2,0.1c-0.6,0.4-1.1,0.8-1.7,1.2
					l-0.3,0.3c-0.5,0.4-1,0.7-1.4,1.1l-0.2,0.2c-0.5,0.4-1,0.9-1.5,1.3l-0.3,0.2c-0.4,0.4-0.8,0.7-1.2,1.1c-0.1,0.1-0.2,0.2-0.3,0.3
					c-0.4,0.4-0.9,0.9-1.3,1.3c0,0.1-0.1,0.1-0.1,0.2c-0.4,0.4-0.8,0.8-1.1,1.2c-0.1,0.1-0.2,0.2-0.3,0.3c-0.4,0.5-0.7,0.9-1,1.3
					c0,0-0.1,0.1-0.1,0.1c-0.3,0.4-0.6,0.8-0.8,1.2c-0.1,0.1-0.1,0.2-0.2,0.4c-0.2,0.5-0.5,0.9-0.7,1.4l-0.1,0
					c-3.9,7.3-2.6,14.2,3.1,19.9l13.3-2.8c-6.4-4.6-8.4-10.6-5.1-17c0.2-0.4,0.4-0.7,0.5-1l0.2-0.4c0.1-0.3,0.3-0.5,0.5-0.8l0.1-0.2
					c0.5-0.7,1-1.3,1.6-2l0.2-0.2c0.3-0.3,0.5-0.6,0.8-0.9c0.1,0,0.1-0.1,0.1-0.1c0.7-0.7,1.4-1.3,2.2-2l0.2-0.1
					c0.4-0.3,0.8-0.6,1.2-0.9c0.9-0.7,1.8-1.3,2.7-1.9l0.2-0.1c1-0.6,1.9-1.2,3-1.8l0,0c0.5-0.3,1-0.5,1.4-0.8
					c0.1-0.1,0.2-0.1,0.3-0.2c0.5-0.2,0.9-0.5,1.4-0.7l0.2-0.1c0.5-0.3,1-0.5,1.6-0.8l0.5-0.2c2.3-1.1,4.8-2.1,7.3-3
					c1.1-0.4,2.2-0.8,3.3-1.1c3-0.9,4.4-2.7,3.1-3.9c-0.1-0.1-0.2-0.2-0.4-0.3l-3.1-2.1c-0.2-0.1-0.5-0.3-0.7-0.4
					c-0.2,0.1-0.4,0.1-0.6,0.2C246.3,610.7,242.5,612.1,239,613.7z"/>
				<path class="st14" d="M292.8,616.3c1.1-2.2,5.6-4,10.2-4c1.1,0,2.1,0.1,2.9,0.3c1.1-0.2,2.2-0.3,3.3-0.3c0.9,0,1.8,0.1,2.6,0.3
					l-6.3-9.4c-3.2,0.1-6.5,0.5-9.8,1.2c-5.5,1.1-9.9,3.5-11.2,6.1l-16.2,33.6l12.6-2.6L292.8,616.3z"/>
			</g>
			<g>
				<path class="st9" d="M275.8,731.6c-16.3-1.4-31.4-3.6-45.2-6.5l0,0l5.6,31.7c11.1,2,22.9,3.6,35.4,4.6
					c101.8,8.5,199.6-20.2,218.4-64c1.5-3.6,2.6-7.2,3.1-10.7l0,0l3.8-27c-0.6,2.6-1.4,5.2-2.6,7.8
					C475.4,711.4,377.6,740.1,275.8,731.6z"/>
				<polygon class="st10" points="447.4,593.5 447.4,593.5 447.4,593.5 				"/>
				<path class="st10" d="M400,564c46.2,7,42,19.1,36.6,24.9c-13.9-5.5-29.9-9.8-47.7-12.7l0.2,8.8c0.2,0,0.3,0.1,0.5,0.1
					c3.4,0.4,7,0.9,10.8,1.5c37.9,5.8,49.6,14.2,51.4,21.6c18,11.7,28.4,26.2,28.7,41.6c0.9,1,1.8,2.1,2.6,3.2l14.6-0.2
					c1-22.9-18.2-44.2-50.3-59.2h0l0,0c0,0,0,0,0,0c0,0,36.3-23.4-37.3-35.9l-12.3,6C398.5,563.7,399.2,563.8,400,564z"/>
				<path class="st10" d="M497.7,652.7l-14.6,0.2c-0.8-1.1-1.7-2.1-2.6-3.2c0.1,5.4-1,10.9-3.5,16.4
					c-17.6,39.4-105.6,65.2-196.5,57.6c-12.9-1.1-25-2.8-36.2-5l-13.7,6.4c13.8,3,28.9,5.2,45.2,6.5c101.8,8.5,199.6-20.2,218.4-64
					c1.1-2.6,2-5.2,2.6-7.8l0.9-6.5C497.7,653.1,497.7,652.9,497.7,652.7z"/>
				<path class="st10" d="M400.4,586.6c-3.8-0.6-7.3-1.1-10.8-1.5c25.3,4.8,46.6,12.9,62.1,23C450,600.8,438.3,592.3,400.4,586.6z"
					/>
				<path class="st11" d="M451.8,608.1c2,8.3-8.7,15.2-8.7,15.2h0c16,7.4,28.7,16.4,37.4,26.4C480.1,634.3,469.8,619.9,451.8,608.1z
					"/>
				<path class="st11" d="M372.5,596.1c25.4,4.1,46.2,12,60.3,22.2c5.1-6,8.1-17.7-37-24.5c-2.2-0.3-4.4-0.6-6.4-0.9l0,0
					L372.5,596.1z"/>
				<path class="st11" d="M443.1,623.3c0,0,10.7-6.9,8.7-15.2c-15.6-10.2-36.8-18.2-62.1-23c-0.2,0-0.3,0-0.5-0.1l0.1,7.8
					c2.1,0.3,4.2,0.5,6.4,0.9c45.1,6.8,42.1,18.6,37,24.5c17.6,12.7,24.6,28.9,16.9,45.4c-15.3,32.4-87.7,53.6-161.7,47.4
					c-7.5-0.6-14.6-1.5-21.4-2.6l-22.1,10.2c11.2,2.2,23.3,3.9,36.2,5c91,7.6,179-18.2,196.5-57.6c2.5-5.5,3.6-11,3.5-16.4
					C471.8,639.7,459,630.7,443.1,623.3L443.1,623.3z"/>
				<path class="st12" d="M349.4,600.6l1.1,1.9c4.6,0.2,9.2,0.5,13.8,1c26.1,2.4,49.1,7.8,68.1,15.3c0.1-0.1,0.2-0.3,0.4-0.4
					c-14.1-10.2-34.9-18.1-60.3-22.2L349.4,600.6z"/>
				<path class="st12" d="M303.3,666.1l6.9-11.5l-29.2,3.6c4,3.9,10.5,7.3,19.1,9.6C301.6,667.5,302.9,666.9,303.3,666.1z"/>
				<path class="st12" d="M366.1,660.5c0.6-0.3,1.2-0.7,1.7-1c15.8-10.1,13.8-23.2-3.2-31.3l10.2,18.5l-37.5,4.6l-9.7,17
					c-0.1,0.2-0.2,0.4-0.2,0.7c0,0.5,0.5,1,1.2,1.3C343.2,669.3,356.7,665.9,366.1,660.5L366.1,660.5z"/>
				<path class="st12" d="M364.2,603.4c-4.6-0.4-9.2-0.7-13.8-1l7.5,13.5c0,0,0.1,0,0.1,0c4,0.2,7.9,0.7,11.4,1.6
					c4.4,1.2,8.5,2.6,12.2,4.2c27.7,11.9,28.5,32.7,0.8,46.4c-4.3,2.1-9.1,3.9-14.4,5.5c-12.7,3.8-27.6,5.7-42.6,5.7
					c-2.4,0-4.6,0.8-5.3,1.8l-7,12.2c-0.7,1.2-3.6,2-6.4,1.8l-8.1-0.7c0,0,0,0,0,0l-6.6-0.6c0,0,0,0,0,0c-2.8-0.2-4.4-1.4-3.7-2.7
					l7.3-12.2c0.6-1.1-0.6-2.2-2.8-2.6c-16.8-3-29.1-8.6-35.7-15.5l-17.8,2.2L274,705l-7.6,3.5c6.8,1.1,13.9,2,21.4,2.6
					c74.1,6.2,146.5-15,161.7-47.4c7.8-16.5,0.7-32.7-16.9-45.4c-0.1,0.1-0.2,0.3-0.4,0.4C413.3,611.2,390.3,605.8,364.2,603.4z"/>
				<path class="st13" d="M327.4,668.9c0-0.2,0-0.4,0.2-0.7l9.7-17l-7.2,0.9l-9,15.5c-0.1,0.2-0.2,0.4-0.2,0.7
					c0.1,1.3,2.5,2.2,5.3,2c0.8,0,1.6-0.1,2.4-0.1C327.9,669.9,327.4,669.4,327.4,668.9z"/>
				<path class="st13" d="M295.6,667.7c0.4,0.1,0.9,0.2,1.4,0.2c1.1,0.1,2.2,0,3.1-0.2c-8.6-2.3-15.2-5.7-19.1-9.6l-5.1,0.6
					C280.2,662.5,286.9,665.6,295.6,667.7z"/>
				<path class="st13" d="M375.4,621.2c27.7,11.9,28.4,32.7,0.6,46.4c-4.3,2.1-9.2,3.9-14.5,5.5c-12.8,3.8-27.6,5.7-42.6,5.7
					c-2.4,0-4.6,0.8-5.3,1.8l-7.1,12.2c-0.7,1.2-3.6,2-6.4,1.8l-1.5-0.1c0,0,0,0,0,0l8.1,0.7c2.8,0.2,5.6-0.6,6.4-1.8l7-12.2
					c0.6-1.1,2.8-1.8,5.3-1.8c15,0,29.8-1.9,42.6-5.7c5.3-1.6,10.1-3.4,14.4-5.5c27.7-13.7,26.9-34.5-0.8-46.4
					c-3.7-1.6-7.8-3-12.2-4.2c-3.5-0.9-7.4-1.4-11.4-1.6c1.8,0.3,3.6,0.6,5.2,1C367.6,618.2,371.7,619.6,375.4,621.2z"/>
				<path class="st14" d="M367.9,659.5c-0.6,0.4-1.1,0.7-1.7,1l0,0c-9.4,5.3-22.9,8.7-37.5,9.7c1,0.5,2.4,0.8,4.1,0.7
					c15.5-0.7,30-4.2,39.8-9.8l0,0c0.6-0.3,1.2-0.7,1.7-1c17.7-11.3,12.8-26.6-10.5-34.1c-0.1,0-0.3-0.1-0.4-0.1l1.3,2.3
					C381.6,636.3,383.7,649.4,367.9,659.5z"/>
				<path class="st14" d="M294.9,691.8l7.2-12.2c0.6-1.1-0.6-2.2-2.8-2.6c-17.7-3.2-30.5-9.3-36.8-16.7l-5.3,0.7
					c6.6,6.9,18.9,12.5,35.7,15.5c2.3,0.4,3.5,1.5,2.8,2.6l-7.3,12.2c-0.7,1.2,0.9,2.4,3.7,2.7c0,0,0,0,0,0l6.6,0.6c0,0,0,0,0,0
					C295.9,694.3,294.2,693.1,294.9,691.8z"/>
				<path class="st14" d="M300.2,667.8c0.6,0.2,1.3,0.4,1.9,0.5c0.4,0.1,0.9,0.2,1.4,0.2c2.7,0.2,5.6-0.6,6.3-1.8l7.7-13l-7.2,0.9
					l-6.9,11.5C302.9,666.9,301.6,667.5,300.2,667.8z"/>
				<path class="st14" d="M363.3,625.9c0.1,0,0.3,0.1,0.4,0.1c23.3,7.5,28.2,22.7,10.5,34.1c-0.6,0.4-1.1,0.7-1.7,1l0,0
					c-9.8,5.6-24.3,9.1-39.8,9.8c-1.6,0.1-3.1-0.2-4.1-0.7c-0.8,0-1.6,0.1-2.4,0.1c-2.8,0.1-5.2-0.8-5.3-2c0-0.2,0-0.4,0.2-0.7
					l9-15.5l-12.8,1.6l-7.7,13c-0.7,1.2-3.5,2.1-6.3,1.8c-0.5,0-1-0.1-1.4-0.2c-0.7-0.2-1.3-0.3-1.9-0.5c-1,0.2-2.1,0.3-3.1,0.2
					c-0.5,0-1-0.1-1.4-0.2c-8.7-2.1-15.4-5.2-19.7-8.9l-13.4,1.6c6.3,7.4,19.1,13.5,36.8,16.7c2.3,0.4,3.5,1.5,2.8,2.6l-7.2,12.2
					c-0.7,1.2,0.9,2.4,3.7,2.7c0,0,0,0,0,0l1.5,0.1c2.8,0.2,5.7-0.6,6.4-1.8l7.1-12.2c0.6-1.1,2.8-1.8,5.3-1.8
					c15,0,29.9-1.9,42.6-5.7c5.3-1.6,10.2-3.4,14.5-5.5c27.8-13.7,27.1-34.5-0.6-46.4c-3.7-1.6-7.8-3-12.2-4.2
					c-1.7-0.4-3.4-0.8-5.2-1c0,0-0.1,0-0.1,0L363.3,625.9z"/>
			</g>
		</g>
	</g>
</g>
</svg>
