<svg width="256" height="256" viewBox="0 0 256 256" fill="none" xmlns="http://www.w3.org/2000/svg">
<path d="M86.6667 66.2308C86.6667 71.9235 82.0403 76.5385 76.3333 76.5385C70.6264 76.5385 66 71.9235 66 66.2308C66 60.538 70.6264 55.9231 76.3333 55.9231C82.0403 55.9231 86.6667 60.538 86.6667 66.2308ZM76.3333 107.462C82.0403 107.462 86.6667 102.847 86.6667 97.1538C86.6667 91.4611 82.0403 86.8462 76.3333 86.8462C70.6264 86.8462 66 91.4611 66 97.1538C66 102.847 70.6264 107.462 76.3333 107.462ZM86.6667 128.077C86.6667 133.77 82.0403 138.385 76.3333 138.385C70.6264 138.385 66 133.77 66 128.077C66 122.384 70.6264 117.769 76.3333 117.769C82.0403 117.769 86.6667 122.384 86.6667 128.077ZM86.6667 159C86.6667 164.693 82.0403 169.308 76.3333 169.308C70.6264 169.308 66 164.693 66 159C66 153.307 70.6264 148.692 76.3333 148.692C82.0403 148.692 86.6667 153.307 86.6667 159ZM76.3333 200.231C82.0403 200.231 86.6667 195.616 86.6667 189.923C86.6667 184.23 82.0403 179.615 76.3333 179.615C70.6264 179.615 66 184.23 66 189.923C66 195.616 70.6264 200.231 76.3333 200.231ZM148.667 169.308C154.374 169.308 159 164.693 159 159C159 153.307 154.374 148.692 148.667 148.692C142.96 148.692 138.333 153.307 138.333 159C138.333 164.693 142.96 169.308 148.667 169.308ZM179.667 169.308C185.374 169.308 190 164.693 190 159C190 153.307 185.374 148.692 179.667 148.692C173.96 148.692 169.333 153.307 169.333 159C169.333 164.693 173.96 169.308 179.667 169.308ZM179.667 138.385C185.374 138.385 190 133.77 190 128.077C190 122.384 185.374 117.769 179.667 117.769C173.96 117.769 169.333 122.384 169.333 128.077C169.333 133.77 173.96 138.385 179.667 138.385ZM159 128.077C159 133.77 154.374 138.385 148.667 138.385C142.96 138.385 138.333 133.77 138.333 128.077C138.333 122.384 142.96 117.769 148.667 117.769C154.374 117.769 159 122.384 159 128.077ZM179.667 107.462C185.374 107.462 190 102.847 190 97.1538C190 91.4611 185.374 86.8462 179.667 86.8462C173.96 86.8462 169.333 91.4611 169.333 97.1538C169.333 102.847 173.96 107.462 179.667 107.462ZM159 97.1538C159 102.847 154.374 107.462 148.667 107.462C142.96 107.462 138.333 102.847 138.333 97.1538C138.333 91.4611 142.96 86.8462 148.667 86.8462C154.374 86.8462 159 91.4611 159 97.1538ZM148.667 55.9231V48.1923C148.667 35.3836 138.257 25 125.417 25H58.25C45.4094 25 35 35.3835 35 48.1923V218.269C35 222.539 38.4698 226 42.75 226H213.25C217.53 226 221 222.539 221 218.269V79.1154C221 66.3066 210.591 55.9231 197.75 55.9231H148.667ZM50.5 48.1923C50.5 43.9227 53.9698 40.4615 58.25 40.4615H125.417C129.697 40.4615 133.167 43.9227 133.167 48.1923V55.9231H130.583C117.743 55.9231 107.333 66.3066 107.333 79.1154V210.538H50.5V48.1923ZM153.833 210.538V195.077H174.5V210.538H153.833ZM190 187.346C190 183.077 186.53 179.615 182.25 179.615H146.083C141.803 179.615 138.333 183.077 138.333 187.346V210.538H122.833V79.1154C122.833 74.8458 126.303 71.3846 130.583 71.3846H197.75C202.03 71.3846 205.5 74.8458 205.5 79.1154V210.538H190V187.346Z" fill="#050C44" fill-opacity="0.5"/>
</svg>
