<svg width="256" height="256" viewBox="0 0 256 256" fill="none" xmlns="http://www.w3.org/2000/svg">
<path d="M163.357 113.333C163.357 109.406 160.191 106.222 156.286 106.222C152.38 106.222 149.214 109.406 149.214 113.333V134.667C149.214 138.594 152.38 141.778 156.286 141.778C160.191 141.778 163.357 138.594 163.357 134.667V113.333ZM128 106.222C131.905 106.222 135.071 109.406 135.071 113.333V134.667C135.071 138.594 131.905 141.778 128 141.778C124.095 141.778 120.929 138.594 120.929 134.667V113.333C120.929 109.406 124.095 106.222 128 106.222ZM106.786 113.333C106.786 109.406 103.62 106.222 99.7143 106.222C95.8088 106.222 92.6429 109.406 92.6429 113.333V134.667C92.6429 138.594 95.8088 141.778 99.7143 141.778C103.62 141.778 106.786 138.594 106.786 134.667V113.333ZM71.4286 156C75.334 156 78.5 159.184 78.5 163.111V184.444C78.5 188.372 75.334 191.555 71.4286 191.555C67.5231 191.555 64.3571 188.372 64.3571 184.444V163.111C64.3571 159.184 67.5231 156 71.4286 156ZM191.643 163.111C191.643 159.184 188.477 156 184.571 156C180.666 156 177.5 159.184 177.5 163.111V184.444C177.5 188.372 180.666 191.555 184.571 191.555C188.477 191.555 191.643 188.372 191.643 184.444V163.111ZM128 28H161.002C163.606 28 165.717 30.1225 165.717 32.7407V51.7037C165.717 54.3219 163.606 56.4444 161.002 56.4444H135.071V63.9462C166.893 67.4835 191.643 94.613 191.643 127.556L205.786 127.556C217.502 127.556 227 137.107 227 148.889V212.889C227 216.816 223.834 220 219.929 220H36.0714C32.166 220 29 216.816 29 212.889V148.889C29 137.107 38.498 127.556 50.2143 127.556L64.3571 127.556C64.3571 94.6129 89.1075 67.4835 120.929 63.9462V35.1111C120.929 31.1838 124.095 28 128 28ZM128 77.7778C100.662 77.7778 78.5 100.064 78.5 127.556V134.667C78.5 138.594 75.334 141.778 71.4286 141.778H50.2143C46.3088 141.778 43.1429 144.962 43.1429 148.889V205.778H103.25V184.444C103.25 180.517 106.416 177.333 110.321 177.333H145.679C149.584 177.333 152.75 180.517 152.75 184.444V205.778H212.857V148.889C212.857 144.962 209.691 141.778 205.786 141.778H184.571C180.666 141.778 177.5 138.594 177.5 134.667V127.556C177.5 100.064 155.338 77.7778 128 77.7778ZM138.607 191.556H117.393V205.778H138.607V191.556Z" fill="#050C44" fill-opacity="0.5"/>
</svg>
