<?xml version="1.0" encoding="utf-8"?>
<!-- Generator: Adobe Illustrator 26.5.0, SVG Export Plug-In . SVG Version: 6.00 Build 0)  -->
<svg version="1.1" id="Capa_1" xmlns="http://www.w3.org/2000/svg" xmlns:xlink="http://www.w3.org/1999/xlink" x="0px" y="0px"
	 viewBox="0 0 19.4 20.8" style="enable-background:new 0 0 19.4 20.8;" xml:space="preserve">
<style type="text/css">
	.st0{fill:#050C44;}
</style>
<g transform="translate(-17.379)">
	<g transform="translate(17.379 3.121)">
		<g transform="translate(0)">
			<path class="st0" d="M13.1,4l-0.6,0C12.2,4,12,4.2,12,4.5l-0.3,8.6c0,0.3,0.2,0.5,0.5,0.5l0.6,0c0.3,0,0.5-0.2,0.5-0.5l0.3-8.6
				C13.6,4.3,13.4,4,13.1,4z"/>
			<path class="st0" d="M9.4,4H10c0.3,0,0.5,0.2,0.5,0.5v8.6c0,0.3-0.2,0.5-0.5,0.5H9.4c-0.3,0-0.5-0.2-0.5-0.5V4.5
				C8.9,4.2,9.1,4,9.4,4z"/>
			<path class="st0" d="M7.7,13.1L7.4,4.5C7.4,4.2,7.1,4,6.9,4L6.2,4C6,4,5.7,4.3,5.7,4.5l0.3,8.6c0,0.3,0.2,0.5,0.5,0.5l0.6,0
				C7.5,13.6,7.7,13.4,7.7,13.1z"/>
			<path class="st0" d="M0,0.5v0.6c0,0.3,0.2,0.5,0.5,0.5h0.7c0.3,0,0.5,0.2,0.5,0.5L3,16.5c0.1,0.7,0.6,1.2,1.3,1.2H15
				c0.7,0,1.3-0.5,1.3-1.2l1.3-14.4c0-0.3,0.2-0.5,0.5-0.5h0.8c0.3,0,0.5-0.2,0.5-0.5V0.5c0-0.3-0.2-0.5-0.5-0.5H0.5
				C0.2,0,0,0.2,0,0.5z M14.3,16H5.1c-0.3,0-0.5-0.2-0.5-0.5L3.4,2.2c0-0.3,0.2-0.5,0.5-0.5h11.6c0.3,0,0.5,0.3,0.5,0.5l-1.2,13.4
				C14.8,15.8,14.6,16,14.3,16z"/>
		</g>
	</g>
	<g transform="translate(23.051)">
		<path class="st0" d="M6.7,0H1.9C0.8,0,0,0.8,0,1.9v1.6c0,0.3,0.2,0.5,0.5,0.5h0.6c0.3,0,0.5-0.2,0.5-0.5V2.1
			c0-0.3,0.2-0.5,0.5-0.5h3.8c0.3,0,0.5,0.2,0.5,0.5v1.3c0,0.3,0.2,0.5,0.5,0.5h0.6C7.8,3.9,8,3.7,8,3.4V1.4C8,0.6,7.4,0,6.7,0z"/>
	</g>
</g>
</svg>
