<svg width="256" height="256" viewBox="0 0 256 256" fill="none" xmlns="http://www.w3.org/2000/svg">
<path d="M214.281 225V203.601C214.281 192.25 209.737 181.364 201.647 173.338C193.557 165.311 182.585 160.802 171.144 160.802H84.8564C73.4156 160.802 62.4434 165.311 54.3535 173.338C46.2637 181.364 41.7189 192.25 41.7189 203.601V225" stroke="#050C44" stroke-opacity="0.5" stroke-width="16" stroke-linecap="round" stroke-linejoin="round"/>
<path d="M171.132 81.7984C171.132 90.2632 168.602 98.5378 163.862 105.576C159.122 112.614 152.385 118.1 144.502 121.339C136.62 124.578 127.947 125.426 119.579 123.775C111.211 122.123 103.525 118.047 97.4916 112.062C91.4587 106.076 87.3503 98.4501 85.6858 90.148C84.0214 81.8459 84.8756 73.2406 88.1406 65.4202C91.4056 57.5998 96.9346 50.9156 104.029 46.2128C111.122 41.5101 119.463 39 127.994 39C139.435 39 150.407 43.5091 158.497 51.5354C166.587 59.5616 171.132 70.4476 171.132 81.7984V81.7984Z" stroke="#050C44" stroke-opacity="0.5" stroke-width="16" stroke-linecap="round" stroke-linejoin="round"/>
</svg>
