<svg width="256" height="256" viewBox="0 0 256 256" fill="none" xmlns="http://www.w3.org/2000/svg">
<path d="M128 80.6971C128 106.822 106.822 128 80.6971 128C54.5725 128 33 106.822 33 80.6971C33 54.5725 54.5725 33 80.6971 33C106.822 33 128 54.5725 128 80.6971Z" stroke="#050C44" stroke-width="13" stroke-miterlimit="10" stroke-linecap="round" stroke-linejoin="round"/>
<path d="M223 175.303C223 201.428 201.428 223 175.303 223C149.178 223 128 201.428 128 175.303C128 149.178 149.178 128 175.303 128C201.428 128 223 149.178 223 175.303Z" stroke="#050C44" stroke-width="13" stroke-miterlimit="10" stroke-linecap="round" stroke-linejoin="round"/>
<path d="M80.6971 128V198.954" stroke="#050C44" stroke-width="13" stroke-miterlimit="10" stroke-linecap="round" stroke-linejoin="round"/>
<path d="M57.0457 175.303H104.349" stroke="#050C44" stroke-width="13" stroke-miterlimit="10" stroke-linecap="round" stroke-linejoin="round"/>
<path d="M175.303 58.623V128" stroke="#050C44" stroke-width="13" stroke-miterlimit="10" stroke-linecap="round" stroke-linejoin="round"/>
<path d="M151.651 80.6971L175.303 57.0456L198.954 80.6971" stroke="#050C44" stroke-width="13" stroke-miterlimit="10" stroke-linecap="round" stroke-linejoin="round"/>
</svg>
