<svg width="256" height="256" viewBox="0 0 256 256" fill="none" xmlns="http://www.w3.org/2000/svg">
<path d="M172.305 127.582C172.305 144.867 186.367 158.93 203.652 158.93C220.937 158.93 235 144.867 235 127.582C235 126.746 234.785 125.791 234.503 125.134L211.009 66.3968L220.624 56.7811C223.073 54.3326 223.073 50.3631 220.624 47.9147C218.176 45.4666 214.206 45.4666 211.758 47.9147L201.055 58.6172H146.809V39.8086C146.809 29.4375 138.371 21 128 21C117.629 21 109.191 29.4375 109.191 39.8086V58.6172H54.9445L44.2416 47.9143C41.7935 45.4662 37.8237 45.4662 35.3752 47.9143C32.9267 50.3627 32.9267 54.3322 35.3752 56.7806L44.991 66.3964L21.4953 125.136C21.4305 125.289 21.3097 125.631 21.2349 125.9C21.0823 126.448 21 127.116 21 127.582C21 144.867 35.0626 158.93 52.3477 158.93C69.6328 158.93 83.6953 144.867 83.6953 127.582C83.6953 126.738 83.4801 125.796 83.2 125.136L61.6082 71.1562H109.191V172.305H102.922C92.5508 172.305 84.1133 180.742 84.1133 191.113V197.383H52.7656C42.3946 197.383 33.957 205.82 33.957 216.191V228.73C33.957 232.193 36.7641 235 40.2266 235H215.773C219.236 235 222.043 232.193 222.043 228.73V216.191C222.043 205.82 213.605 197.383 203.234 197.383H171.887V191.113C171.887 180.742 163.449 172.305 153.078 172.305H146.809V71.1562H194.392L172.801 125.134C172.494 125.851 172.305 126.798 172.305 127.582ZM52.3477 146.391C44.1739 146.391 37.2009 141.15 34.6132 133.852H70.0821C67.4944 141.15 60.5215 146.391 52.3477 146.391ZM68.1657 121.312H36.5296L52.3477 81.7681L68.1657 121.312ZM121.73 39.8086C121.73 36.3516 124.543 33.5391 128 33.5391C131.457 33.5391 134.27 36.3516 134.27 39.8086V172.305H121.73V39.8086ZM203.234 209.922C206.691 209.922 209.504 212.734 209.504 216.191V222.461H46.4961V216.191C46.4961 212.734 49.3086 209.922 52.7656 209.922C53.7955 209.922 198.834 209.922 203.234 209.922ZM153.078 184.844C156.535 184.844 159.348 187.656 159.348 191.113V197.383H96.6523V191.113C96.6523 187.656 99.4649 184.844 102.922 184.844C108.195 184.844 147.647 184.844 153.078 184.844ZM203.652 81.7681L219.47 121.312H187.835L203.652 81.7681ZM221.386 133.852C218.799 141.15 211.827 146.391 203.652 146.391C195.478 146.391 188.506 141.15 185.918 133.852H221.386Z" fill="#050C44"/>
</svg>
