<svg width="256" height="256" viewBox="0 0 256 256" fill="none" xmlns="http://www.w3.org/2000/svg">
<path d="M127.988 11.913C104.397 11.9442 81.7801 21.3811 65.0983 38.1545C48.4165 54.9279 39.031 77.6685 39 101.39C39 129.139 53.285 161.433 81.4451 197.188C94.1375 213.325 108.109 228.4 123.223 242.268C124.541 243.44 126.24 244.087 128 244.087C129.76 244.087 131.459 243.44 132.777 242.268C147.891 228.4 161.862 213.324 174.555 197.188C202.727 161.374 217 129.139 217 101.39C216.969 77.6685 207.584 54.9279 190.902 38.1545C174.22 21.3811 151.603 11.9442 128.012 11.913L127.988 11.913ZM127.988 226.939C110.799 210.516 53.4255 151.72 53.4255 101.39C53.4255 81.5042 61.2818 62.4333 75.2661 48.3723C89.2505 34.3112 108.217 26.4118 127.994 26.4118C147.771 26.4118 166.738 34.3112 180.722 48.3723C194.707 62.4333 202.563 81.5042 202.563 101.39C202.551 151.72 145.142 210.516 127.988 226.939Z" fill="#050C44" fill-opacity="0.5"/>
<path d="M128 128C121.303 128 114.757 126.014 109.189 122.294C103.621 118.573 99.2813 113.285 96.7186 107.098C94.1559 100.912 93.4854 94.1037 94.7918 87.5358C96.0983 80.9679 99.323 74.9348 104.058 70.1996C108.793 65.4644 114.826 62.2396 121.394 60.9332C127.962 59.6267 134.77 60.2973 140.957 62.8599C147.144 65.4226 152.432 69.7624 156.152 75.3304C159.873 80.8984 161.859 87.4447 161.859 94.1413C161.849 103.118 158.278 111.724 151.931 118.072C145.583 124.42 136.977 127.99 128 128ZM128 69.6878C123.163 69.6878 118.436 71.122 114.414 73.809C110.393 76.4959 107.259 80.3151 105.408 84.7833C103.557 89.2516 103.073 94.1684 104.016 98.9119C104.96 103.655 107.289 108.013 110.709 111.433C114.129 114.852 118.486 117.181 123.229 118.125C127.973 119.068 132.89 118.584 137.358 116.733C141.826 114.883 145.645 111.748 148.332 107.727C151.019 103.706 152.453 98.9777 152.453 94.1413C152.446 87.6581 149.867 81.4426 145.283 76.8583C140.699 72.274 134.483 69.6953 128 69.6878Z" fill="#050C44" fill-opacity="0.5" stroke="#050C44" stroke-opacity="0.5" stroke-width="5"/>
</svg>
