<svg width="256" height="256" viewBox="0 0 256 256" fill="none" xmlns="http://www.w3.org/2000/svg">
<path d="M221.567 171.96C221.213 171.667 181.24 143.227 170.447 144.967C165.24 145.887 162.267 149.44 156.3 156.547C155.34 157.693 153.027 160.433 151.24 162.387C147.469 161.158 143.791 159.661 140.233 157.907C121.87 148.967 107.033 134.13 98.0933 115.767C96.3391 112.209 94.8419 108.531 93.6133 104.76C95.5733 102.967 98.32 100.653 99.4933 99.6667C106.567 93.7333 110.113 90.7533 111.033 85.54C112.92 74.7467 84.3333 34.7867 84.04 34.4267C82.7382 32.5804 81.0426 31.0462 79.0758 29.9348C77.109 28.8234 74.9199 28.1626 72.6667 28C61.08 28 28 70.9067 28 78.14C28 78.56 28.6067 121.253 81.2533 174.807C134.747 227.393 177.44 228 177.86 228C185.087 228 228 194.92 228 183.333C227.836 181.08 227.173 178.891 226.061 176.924C224.949 174.957 223.414 173.262 221.567 171.96V171.96ZM177.12 214.627C171.333 214.133 135.467 209.407 90.6667 165.4C46.4467 120.38 41.84 84.4533 41.38 78.8867C50.1185 65.171 60.6719 52.7001 72.7533 41.8133C73.02 42.08 73.3733 42.48 73.8267 43C83.0922 55.6482 91.0738 69.1885 97.6533 83.42C95.5137 85.5725 93.2522 87.6003 90.88 89.4933C87.2013 92.2963 83.8232 95.4733 80.8 98.9733C80.2885 99.6911 79.9243 100.503 79.7286 101.363C79.533 102.222 79.5096 103.112 79.66 103.98C81.0709 110.092 83.2317 116.005 86.0933 121.587C96.3459 142.64 113.358 159.65 134.413 169.9C139.994 172.766 145.908 174.929 152.02 176.34C152.888 176.494 153.779 176.472 154.639 176.276C155.498 176.081 156.31 175.715 157.027 175.2C160.539 172.164 163.727 168.773 166.54 165.08C168.633 162.587 171.427 159.26 172.487 158.32C186.754 164.893 200.325 172.884 212.993 182.173C213.547 182.64 213.94 183 214.2 183.233C203.313 195.319 190.839 205.874 177.12 214.613V214.627Z" fill="#050C44" fill-opacity="0.5"/>
</svg>
