<?xml version="1.0" encoding="utf-8"?>
<!-- Generator: Adobe Illustrator 27.0.1, SVG Export Plug-In . SVG Version: 6.00 Build 0)  -->
<svg version="1.1" id="Capa_1" xmlns="http://www.w3.org/2000/svg" xmlns:xlink="http://www.w3.org/1999/xlink" x="0px" y="0px"
	 viewBox="0 0 512 512" style="enable-background:new 0 0 512 512;" xml:space="preserve">
<style type="text/css">
	.st0{opacity:0.5;fill:#050C44;}
</style>
<path class="st0" d="M172.2,131.8c0-2.7,0-5.5,0-8.2c0-16.2-13.1-29.4-29.3-29.4h-7.4V79.6c0-8.5-6.9-15.5-15.4-15.5H98
	c-8.5,0-15.4,6.9-15.4,15.5v14.7h-7.4c-16.1,0-29.3,13.2-29.3,29.4v8.2h-7.8c-1,0-2.5,0.1-4.3,0.3c-2.5,0.3-4.1,0.5-5.4,1.1
	c-3,1.4-6.2,5.5-5.2,9.2c1.1,4,5.2,6.3,9.2,5.2c1.8-0.5,3.7-0.8,5.6-0.8H180c11.5,0,20.9,9.4,20.9,21c0,11.6-9.4,21-20.9,21H38.1
	c-11.5,0-20.9-9.4-20.9-21c0-1.5,0.2-2.8,0.3-3.5c1.9-10.8,12.5-16,15-16.7c1.4-0.4,2.5-0.5,2.5-0.5c1-0.1,4.2-0.3,3.1-0.2
	c0,0,0-15,0-15c0,0-2.6,0.1-4.3,0.3c0,0-2.3,0.2-5.4,1.1c-8.8,2.4-14.9,7.9-14.9,7.9c-11.1,9.8-11.3,25.3-11.3,26.8
	c0,2.8,0.5,16.3,11.5,26.5c9.9,9.1,21.5,9.4,24.3,9.5c14.8,0,29.7,0,44.5,0v129.4H38.1c-19.8,0-35.8,16.1-35.8,36
	c0,9.6,3.7,18.6,10.5,25.5c6.8,6.8,15.8,10.5,25.3,10.5h7.8v8.2c0,16.2,13.1,29.4,29.3,29.4h7.4v14.7c0,8.5,6.9,15.5,15.4,15.5h22.2
	c8.5,0,15.4-6.9,15.4-15.5v-14.7h0.3c1.5,2,3.2,4,5.1,5.8c10,9.8,23,14.8,36.2,14.8h268.8c15.7,0,28.5-12.8,28.5-28.6v-44.3h4
	c18.1,0,32.8-14.8,32.8-32.9V190.3c0-0.1,0-0.2,0-0.3v-35.5c0-9.6-7.8-17.4-17.3-17.4c-6.1,0-11.9-2.4-16.2-6.7
	c-4.3-4.4-6.7-10.1-6.7-16.3V51.6c0-9.7-7.9-17.7-17.6-17.7h-21.2c-9.7,0-17.6,7.9-17.6,17.7v36.6c0,22.7-18,41.5-40.2,41.9
	c-11,0.2-21.5-4-29.4-11.8c-7.9-7.8-12.2-18.2-12.2-29.3V51.6c0-9.7-7.9-17.7-17.6-17.7H294c-9.7,0-17.6,7.9-17.6,17.7
	c0,17.5,0,35,0,52.5c-0.2,7,4.9,11.5,8.5,11.1c3.3-0.4,6.9-5,6.4-11.1c0-17.5,0-35,0-52.5c0-1.5,1.2-2.7,2.7-2.7h21.2
	c1.5,0,2.7,1.2,2.7,2.7V89c0,15.1,5.9,29.3,16.7,40c10.7,10.6,25,16.3,40.1,16.1c30.2-0.5,54.8-26,54.8-56.8V51.6
	c0-1.5,1.2-2.7,2.7-2.7h21.2c1.5,0,2.7,1.2,2.7,2.7v62.5c0,10.1,3.9,19.7,11.1,26.9c7.1,7.2,16.6,11.1,26.7,11.1
	c1.3,0,2.4,1.1,2.4,2.4v30.9l-122.6,59.1l-122.6-59.1v-30.9c0-0.8,0.4-1.4,0.7-1.7c0.3-0.3,0.8-0.7,1.7-0.7c20.8,0,37.8-17,37.8-38
	v-10c0-4.1-3.3-7.5-7.5-7.5c-4.1,0-7.5,3.4-7.5,7.5v10c0,12.7-10.3,23-22.9,23c-4.6,0-9,1.8-12.2,5.1c-3.3,3.3-5.1,7.7-5.1,12.3V190
	c0,0.2,0,0.3,0,0.5v124.4L197.9,338c-5.4-3.1-11.6-4.8-17.9-4.8h-44.5V203.8H180c19.7,0,35.8-16.2,35.8-36s-16.2-36-35.8-36
	C177.4,131.8,174.8,131.8,172.2,131.8z M98.3,82c0-0.3,0.2-0.5,0.5-0.5H121c0.3,0,0.5,0.2,0.5,0.5v14.7H98.3V82z M61.6,134.2V126
	c0-7.9,6.4-14.4,14.4-14.4h14.7h0.2H91h37.8h0.2h0.2h14.7c7.9,0,14.4,6.5,14.4,14.4v8.2H61.6z M315.7,300.4c3.3,0,6.3,2.1,7.5,5.3
	c8.7,24,31.5,40.1,56.9,40.1c25.9,0,49-16.6,57.3-41.2c0.8-2.5,3.1-4.1,5.7-4.1h4.6c6.9,0,12.5,5.6,12.5,12.6v94.3H357.1l-24.5-35.2
	c-2.4-3.4-7-4.2-10.4-1.9c-3.4,2.4-4.2,7-1.8,10.4l18.5,26.6H321L275,341l12.6-7.6c10.9,15.8,21.9,31.5,32.8,47.3
	c0.6,0.2,4.8,1.3,7.3-1c3.3-3.1,0.4-9.8,0-10.7c-3.5-8-13.8-12.1-15.8-10.1c-2.8,3,9.1,22.3,15.8,20.8c2.7-0.6,4.2-4.6,5-7.6
	c-11-15.8-21.9-31.6-32.9-47.4c4.2-4.8,6.7-11,6.7-17.5v-6.8H315.7z M285.5,407.3l-35.6-51.2l12.2-7.4l40.7,58.6H285.5z
	 M249.4,407.3l-24.9-35.9l12.6-7.6l30.2,43.5L249.4,407.3L249.4,407.3z M180.4,368.8c0.4,0.7,0.8,1.4,1.3,2c5,6.5,12.5,10,20.2,10
	c3.3,0,6.6-0.6,9.7-1.9l19.7,28.4h-89.7c1.8-10.5,8.2-20,17.4-25.5L180.4,368.8z M291.5,302v5.2c0,3.9-2.1,7.6-5.4,9.7
	c-0.1,0.1-0.3,0.2-0.4,0.2l-25,15.1c-0.1,0.1-0.3,0.2-0.4,0.2l-24.8,14.9c0,0-0.1,0.1-0.1,0.1l-28.1,16.9
	c-4.6,2.8-10.5,1.6-13.7-2.6c0-0.1-0.2-0.2-0.1-0.5c0-0.2,0.2-0.3,0.2-0.4l8.5-5.1c0.1-0.1,0.2-0.1,0.3-0.2l88.7-53.4
	C291.3,302.1,291.4,302,291.5,302z M98.3,206.2h23.2v129.4H98.3V206.2z M61.6,415.7v-8.2h71.1c0,0,2.4-3.4,2.4-7.5
	c0-4.1,2.2-7.5-1.9-7.5H38.9c-5.6,0-10.8-2.2-14.8-6.1c-4-4-6.1-9.3-6.1-14.9c0-11.6,9.4-21,20.9-21h141.9c0.3,0,0.6,0,0.9,0
	l-30.4,18.3c-15.6,9.4-25.2,26.5-25.2,44.7c0,5,0.7,9.8,2,14.4c0,0.1,0,0.1,0.1,0.2c0,0,0,0.1,0,0.1c0.2,0.6,0.4,1.3,0.6,1.9H76
	C68.1,430.1,61.6,423.7,61.6,415.7z M121.5,459.8c0,0.3-0.2,0.5-0.5,0.5H98.8c-0.3,0-0.5-0.2-0.5-0.5v-14.7h23.2V459.8z
	 M460.3,437.1c0,7.5-6.1,13.6-13.6,13.6c-172,0-269,0-269.7,0c-17-0.4-31.2-12.5-35-28.5h103.3c0.1,0,0.1,0,0.2,0c0.1,0,0.1,0,0.2,0
	h35.7c0.1,0,0.1,0,0.2,0c0.1,0,0.1,0,0.2,0H317c0.1,0,0.1,0,0.2,0c0.1,0,0.1,0,0.2,0H353c0.1,0,0.1,0,0.2,0s0.1,0,0.2,0h106.9V437.1
	z M479.2,377.8h-4v-64.9c0-15.2-12.3-27.6-27.4-27.6h-4.6c-9,0-17,5.7-19.9,14.3c-6.3,18.6-23.7,31.1-43.2,31.1
	c-19.1,0-36.4-12.1-42.9-30.2c-3.3-9.1-11.9-15.1-21.5-15.1c-16.6,0.4-23-1.6-32.2,3.9l-31.5,19V204.5L371.3,262
	c1,0.5,2.1,0.7,3.2,0.7s2.2-0.2,3.2-0.7l119.3-57.5v155.3C497.1,369.7,489.1,377.8,479.2,377.8z"/>
<path class="st0" d="M365.9,168.1h-5c-4.1,0-7.5,3.4-7.5,7.5c0,4.1,3.4,7.5,7.5,7.5h1.6v25.9h-0.9c-4.1,0-7.5,3.4-7.5,7.5
	s3.4,7.5,7.5,7.5h16.8c4.1,0,7.5-3.4,7.5-7.5s-3.4-7.5-7.5-7.5h-0.9v-29.4C377.4,173.3,372.2,168.1,365.9,168.1z"/>
</svg>
