<svg id="Iconos" xmlns="http://www.w3.org/2000/svg" viewBox="0 0 42.08 36.48"><defs><style>.cls-1{fill:#00e9c5;}.cls-2,.cls-4,.cls-5{fill:none;}.cls-2,.cls-3,.cls-4,.cls-5{stroke:#00e9c5;stroke-linecap:round;}.cls-2,.cls-3{stroke-miterlimit:10;stroke-width:0.24px;}.cls-3{fill:#fff;}.cls-4,.cls-5{stroke-linejoin:round;}.cls-5{stroke-width:0.95px;}</style></defs><rect class="cls-1" x="20.51" y="11.36" width="0.87" height="16.31" rx="0.43"/><rect class="cls-1" x="20.51" y="28.89" width="0.87" height="7.59" rx="0.43"/><g id="Balón"><circle class="cls-2" cx="20.95" cy="5.21" r="2.46"/><path class="cls-3" d="M28.09,10.38a.65.65,0,0,0-.52.26.09.09,0,0,0,0,.1,2.44,2.44,0,0,1-.95,2.9.15.15,0,0,0-.06.09.69.69,0,0,0,.31.65.14.14,0,0,0,.17,0,3.36,3.36,0,0,0,1.2-3.91A.13.13,0,0,0,28.09,10.38Z" transform="translate(-5.47 -6.84)"/><path class="cls-3" d="M27.34,9.77s-.87.1-1,.52" transform="translate(-5.47 -6.84)"/><path class="cls-3" d="M26,9.62a.63.63,0,0,0-.39.42" transform="translate(-5.47 -6.84)"/><path class="cls-3" d="M25.06,10a17.59,17.59,0,0,1,2.49.69" transform="translate(-5.47 -6.84)"/><path class="cls-3" d="M24.29,10.8s.92-.26,3.36,1.1l0,0" transform="translate(-5.47 -6.84)"/><path class="cls-3" d="M27.47,12.72a8.42,8.42,0,0,1-3.49-1" transform="translate(-5.47 -6.84)"/><path class="cls-3" d="M24.09,12.83l2.51.79-1.28-.4a2.25,2.25,0,0,0,.52,1.21" transform="translate(-5.47 -6.84)"/><path class="cls-3" d="M24.64,13a1,1,0,0,0,.1.82" transform="translate(-5.47 -6.84)"/></g><path class="cls-4" d="M40.66,13.77l-3-.58-4.94-4.6a1.29,1.29,0,0,0-1.83.08h0A1.3,1.3,0,0,0,31,10.44l5.91,5.74-.68,6.13L33.76,27a2.66,2.66,0,0,0,.1,2.62l2.82,4.6a1.43,1.43,0,0,0,1.9.51h0a1.42,1.42,0,0,0,.51-2l-2.7-4.31,1.75-3.51,1,4.4A2.71,2.71,0,0,0,40.48,31l4.41,2.55a1.43,1.43,0,0,0,2-.6h0a1.43,1.43,0,0,0-.55-1.88L42,28.52l-1.15-6.14.38-4.63,2.7,5.3a1.33,1.33,0,0,0,1.81.57h0a1.34,1.34,0,0,0,.54-1.82l-3.61-6.56A3,3,0,0,0,40.66,13.77Z" transform="translate(-5.47 -6.84)"/><circle class="cls-5" cx="34.89" cy="2.99" r="2.52"/><circle class="cls-5" cx="8.95" cy="4.25" r="2.52"/><path class="cls-4" d="M12.43,14.47,10,12.71v-3a1.4,1.4,0,0,0-1.4-1.4h0a1.4,1.4,0,0,0-1.41,1.4v3.07a2.56,2.56,0,0,0,1,2l4,3v4.68L11,28.68,6.67,31.25a1.43,1.43,0,0,0-.55,1.88h0a1.44,1.44,0,0,0,2,.6l4.41-2.55a2.68,2.68,0,0,0,1.3-1.74l1-4.4,1.75,3.51-2.7,4.31a1.41,1.41,0,0,0,.52,2h0a1.41,1.41,0,0,0,1.89-.5l2.82-4.6a2.66,2.66,0,0,0,.1-2.62l-2.4-4.68V17.77l4-3.22a2.38,2.38,0,0,0,.9-1.87V9.46a1.37,1.37,0,0,0-1.37-1.38h0a1.37,1.37,0,0,0-1.37,1.38v3.25l-2.31,1.72A3.65,3.65,0,0,1,12.43,14.47Z" transform="translate(-5.47 -6.84)"/></svg>