<svg id="Iconos" xmlns="http://www.w3.org/2000/svg" viewBox="0 0 34.66 40.46"><defs><style>.cls-1,.cls-6{fill:#ff3737;}.cls-2,.cls-4,.cls-5{fill:none;}.cls-2,.cls-3,.cls-4,.cls-5{stroke:#ff3737;stroke-linecap:round;}.cls-2,.cls-3{stroke-miterlimit:10;stroke-width:0.24px;}.cls-3{fill:#fff;}.cls-4,.cls-5{stroke-linejoin:round;}.cls-5{stroke-width:0.95px;}.cls-6{font-size:10.93px;font-family:CachetStd-Medium, Cachet Std;font-weight:500;}</style></defs><rect class="cls-1" x="23.14" y="15.34" width="0.87" height="16.31" rx="0.43"/><rect class="cls-1" x="23.14" y="32.87" width="0.87" height="7.59" rx="0.43"/><g id="Balón"><circle class="cls-2" cx="20.09" cy="9.29" r="2.46"/><path class="cls-3" d="M26.83,10.71a.65.65,0,0,1,.52.26.09.09,0,0,1,0,.1A2.45,2.45,0,0,0,28.3,14a.15.15,0,0,1,.06.09.68.68,0,0,1-.31.65.14.14,0,0,1-.17,0,3.36,3.36,0,0,1-1.2-3.91A.13.13,0,0,1,26.83,10.71Z" transform="translate(-8.42 -3.08)"/><path class="cls-3" d="M27.58,10.1s.87.11,1,.52" transform="translate(-8.42 -3.08)"/><path class="cls-3" d="M28.9,10a.61.61,0,0,1,.38.43" transform="translate(-8.42 -3.08)"/><path class="cls-3" d="M29.87,10.33a17.86,17.86,0,0,0-2.5.69" transform="translate(-8.42 -3.08)"/><path class="cls-3" d="M30.63,11.13s-.92-.25-3.35,1.1l0,0" transform="translate(-8.42 -3.08)"/><path class="cls-3" d="M27.45,13.05a8.22,8.22,0,0,0,3.49-1" transform="translate(-8.42 -3.08)"/><path class="cls-3" d="M30.83,13.17l-2.5.78,1.27-.4a2.28,2.28,0,0,1-.51,1.21" transform="translate(-8.42 -3.08)"/><path class="cls-3" d="M30.28,13.34a1,1,0,0,1-.1.83" transform="translate(-8.42 -3.08)"/></g><path class="cls-4" d="M15.3,14.1l3-.57,4.95-4.61A1.28,1.28,0,0,1,25.08,9h0A1.28,1.28,0,0,1,25,10.77l-5.9,5.74.68,6.13L22.2,27.3a2.69,2.69,0,0,1-.09,2.62l-2.83,4.61a1.42,1.42,0,0,1-1.89.5h0a1.42,1.42,0,0,1-.52-2l2.7-4.31-1.75-3.51-1,4.4a2.74,2.74,0,0,1-1.29,1.75L11.07,33.9a1.44,1.44,0,0,1-2-.6h0a1.43,1.43,0,0,1,.55-1.88L14,28.85l1.14-6.14-.38-4.62L12,23.38a1.33,1.33,0,0,1-1.81.57h0a1.34,1.34,0,0,1-.55-1.82l3.61-6.55A3,3,0,0,1,15.3,14.1Z" transform="translate(-8.42 -3.08)"/><circle class="cls-5" cx="7.19" cy="7.08" r="2.52"/><text class="cls-6" transform="translate(27.94 9.12)">R</text></svg>