<svg id="Iconos" xmlns="http://www.w3.org/2000/svg" viewBox="0 0 45.2 31.42"><defs><style>.cls-1{fill:none;}.cls-1,.cls-2{stroke:#00e9c5;stroke-linecap:round;stroke-miterlimit:10;stroke-width:1.03px;}.cls-2{fill:#fff;}</style></defs><g id="Balón"><circle class="cls-1" cx="11.1" cy="12.64" r="10.58"/><path class="cls-1" d="M7.5,17.81a3,3,0,0,1,2.25,1.13.59.59,0,0,1,0,.45c-.46,1.31-2.45,8.2,4.07,12.47a.62.62,0,0,1,.27.4,3,3,0,0,1-1.34,2.8.6.6,0,0,1-.72,0A14.44,14.44,0,0,1,6.84,18.22.63.63,0,0,1,7.5,17.81Z" transform="translate(-3.62 -12.35)"/><path class="cls-1" d="M10.72,15.19s3.76.45,4.41,2.25" transform="translate(-3.62 -12.35)"/><path class="cls-1" d="M16.39,14.54A2.63,2.63,0,0,1,18,16.38" transform="translate(-3.62 -12.35)"/><path class="cls-1" d="M20.57,16.18a75.28,75.28,0,0,0-10.74,3" transform="translate(-3.62 -12.35)"/><path class="cls-1" d="M23.85,19.64s-3.94-1.11-14.44,4.74l-.16.1" transform="translate(-3.62 -12.35)"/><path class="cls-1" d="M10.17,27.89s9.84-.65,15-4.37" transform="translate(-3.62 -12.35)"/><path class="cls-1" d="M24.73,28.4l-10.8,3.38,5.5-1.71a9.72,9.72,0,0,1-2.22,5.2" transform="translate(-3.62 -12.35)"/><path class="cls-2" d="M22.36,29.15a4.43,4.43,0,0,1-.43,3.55" transform="translate(-3.62 -12.35)"/></g><path class="cls-1" d="M28.83,17.6c.76,1.76,1.52,3.53,2.29,5.28A6,6,0,0,1,30,29.81q-2.8,3.11-5.31,6.46a8.72,8.72,0,0,1-2.26,1.64c-.28.2-.58.39-.87.57a2.1,2.1,0,0,0-.71,2.89v0A3.35,3.35,0,0,0,26,42.53,17,17,0,0,1,30.3,40.7a19.32,19.32,0,0,0,5.83-3.12,8.45,8.45,0,0,1,4.68-1.81,12.8,12.8,0,0,0,5.27-1.85A4.65,4.65,0,0,0,48,28.23a8.79,8.79,0,0,0-2.12-3.3,16,16,0,0,1-4.58-7.38c-.46-1.57-1-3.11-1.44-4.68" transform="translate(-3.62 -12.35)"/><path class="cls-1" d="M40.26,26.49s1.79.4.77,2.66" transform="translate(-3.62 -12.35)"/></svg>