<?xml version="1.0" encoding="utf-8"?>
<!-- Generator: Adobe Illustrator 25.4.1, SVG Export Plug-In . SVG Version: 6.00 Build 0)  -->
<svg version="1.1" id="Capa_1" xmlns="http://www.w3.org/2000/svg" xmlns:xlink="http://www.w3.org/1999/xlink" x="0px" y="0px"
	 viewBox="0 0 62.4 34.3" style="enable-background:new 0 0 62.4 34.3;" xml:space="preserve">
<style type="text/css">
	.st0{fill:none;stroke:#FF3737;}
</style>
<path class="st0" d="M58.9,27.8H31.6l6.1-7.6l7.2,4.8c1.3,0.9,3.2,0.6,4.1-0.8c0.9-1.3,0.6-3.2-0.8-4.1c0,0,0,0-0.1,0l-9.3-6.2
	c-1.2-0.8-2.9-0.6-3.8,0.5l-4.6,5.2l-11.7-6.6c0,0,1.2-6.6,1.7-9.5c0.2-1.3-0.7-2.6-2-2.8c-0.3,0-0.6,0-0.9,0L6.7,2.8
	C5.4,3.1,4.6,4.4,4.8,5.7C5,6.4,5.4,7,6,7.4c-2.8-0.3-5.3,1.8-5.5,4.6s1.8,5.3,4.6,5.5s5.3-1.8,5.5-4.6c0.2-2.3-1.1-4.4-3.3-5.2
	c0.1,0,0.3,0,0.4,0L15,6.1l-0.8,4.8L8.1,21.7c-0.3,0.6-0.4,1.2-0.2,1.9l2.4,8.5c0.3,1,1.3,1.7,2.3,1.7h11c1.3,0.1,2.4-1,2.4-2.2
	c0,0,0-0.1,0-0.1c0-1.3-1.1-2.4-2.4-2.4l-9.1,0l-1.2-4.3l4.9,2.8l5.5,0c2.2,0,4,1.8,4,4c0,0.4-0.1,0.8-0.2,1.2
	c0.6,0.8,1.5,1.2,2.5,1.1h29.1c1.7-0.1,2.9-1.4,2.9-3.1C61.9,29.1,60.6,27.8,58.9,27.8L58.9,27.8z"/>
</svg>
