<svg id="Iconos" xmlns="http://www.w3.org/2000/svg" viewBox="0 0 23.89 37.95"><defs><style>.cls-1,.cls-2,.cls-3{fill:none;stroke:#ff3737;stroke-linecap:round;}.cls-1{stroke-miterlimit:10;stroke-width:0.29px;}.cls-2,.cls-3{stroke-linejoin:round;}.cls-3{stroke-width:0.9px;}</style></defs><g id="Balón"><circle class="cls-1" cx="20.78" cy="7.01" r="2.97"/><path class="cls-1" d="M30.67,11.69a.83.83,0,0,1,.63.32.15.15,0,0,1,0,.13,2.93,2.93,0,0,0,1.14,3.49.2.2,0,0,1,.08.12.84.84,0,0,1-.38.78.15.15,0,0,1-.2,0,4.05,4.05,0,0,1-1.45-4.72A.16.16,0,0,1,30.67,11.69Z" transform="translate(-11.91 -6.7)"/><path class="cls-1" d="M31.57,11s1.06.13,1.24.63" transform="translate(-11.91 -6.7)"/><path class="cls-1" d="M33.16,10.78a.71.71,0,0,1,.47.51" transform="translate(-11.91 -6.7)"/><path class="cls-1" d="M34.34,11.23a21.79,21.79,0,0,0-3,.84" transform="translate(-11.91 -6.7)"/><path class="cls-1" d="M35.26,12.21s-1.11-.31-4,1.33l-.05,0" transform="translate(-11.91 -6.7)"/><path class="cls-1" d="M31.42,14.52a9.91,9.91,0,0,0,4.21-1.23" transform="translate(-11.91 -6.7)"/><path class="cls-1" d="M35.51,14.66l-3,.95L34,15.13a2.7,2.7,0,0,1-.63,1.46" transform="translate(-11.91 -6.7)"/><path class="cls-1" d="M34.84,14.87a1.28,1.28,0,0,1-.12,1" transform="translate(-11.91 -6.7)"/></g><path class="cls-2" d="M24.18,20.22l0-2.22,7.41,4.61a1.38,1.38,0,0,0,1.88-.41h0A1.39,1.39,0,0,0,33,20.25L25.13,15.5a4,4,0,0,0-3.24-.41l-3.44,1.05A1.89,1.89,0,0,0,17.11,18h0A1.89,1.89,0,0,0,18,19.55l9.59,6.29a1.37,1.37,0,0,0,1.82-.29h0a1.37,1.37,0,0,0-.3-2L20.94,18" transform="translate(-11.91 -6.7)"/><path class="cls-2" d="M24.18,23.62v2.9l3.08,6a5.24,5.24,0,0,1,.59,2.42v7.41a1.8,1.8,0,0,1-1.8,1.8h0a1.8,1.8,0,0,1-1.8-1.8V34.53l-2.92-5-.72,4.37a8,8,0,0,1-1,2.71L16,43.06a1.89,1.89,0,0,1-2.43.78h0a1.89,1.89,0,0,1-.86-2.68l3.89-6.69,1.38-8.09-.28-7.08" transform="translate(-11.91 -6.7)"/><circle class="cls-3" cx="9.74" cy="3.52" r="3.07"/></svg>