<svg id="Iconos" xmlns="http://www.w3.org/2000/svg" viewBox="0 0 50 50"><title>1</title><path d="M23.55,31.23a2.08,2.08,0,0,0,1.35,2.14,2.06,2.06,0,0,0-.25.94,2,2,0,0,0,2,2h.45l.06.2.69,2.09A3.75,3.75,0,0,1,28,39.8v4.87a.56.56,0,0,0,.56.56H39.22a.56.56,0,0,0,.56-.56.13.13,0,0,0,0-.06l-.93-7.46a6.23,6.23,0,0,1,.27-2.71l1.58-4.74a4,4,0,0,0-1.31-4.44L35.3,22s-1.11-.09-1.12.22v.06l0,6.05-.47.61-2.27-7.14a3.3,3.3,0,0,0-3.16-2.33,1.68,1.68,0,0,0-1.68,1.68,2.64,2.64,0,0,0,0,.29l1.24,7a3.93,3.93,0,0,1-.08,1.67l-4.2,0S23.55,31,23.55,31.23Zm1.1.28a.94.94,0,0,1,.06-.29h2.64l-.14.38a6.34,6.34,0,0,0-.23.74H25.49A.84.84,0,0,1,24.65,31.51Zm2,3.64a.84.84,0,1,1,0-1.68h.17a7.87,7.87,0,0,0,0,1.68Zm11.12,2.14.86,6.82H29.13V39.8a5.1,5.1,0,0,0-.25-1.6l-.7-2.09A6.17,6.17,0,0,1,28.25,32l.42-1.11a5.09,5.09,0,0,0,.24-2.65l-1.23-7a.55.55,0,0,1,.45-.65h.1a2.18,2.18,0,0,1,2.09,1.54l2.2,7a.48.48,0,0,0,.08.16,0,0,0,0,0,0,0l1.68,2.24a.55.55,0,0,0,.77.15.56.56,0,0,0,.16-.78l0,0-1.13-1.51,1-2.08h.84a.55.55,0,0,0,.59-.53.56.56,0,0,0-.53-.59h-.62V23.43l3.39,2.7a3,3,0,0,1,1,3.21l-1.58,4.74A7.28,7.28,0,0,0,37.73,37.29Z" style="fill:#ff3737"/><path d="M18.61,27.61l-3,.8a.46.46,0,0,1-.57-.33L10.22,10a.46.46,0,0,1,.32-.57L23.76,5.88a.47.47,0,0,1,.57.33l.59,2.21L26,8.19l-.61-2.27a1.56,1.56,0,0,0-1.91-1.1h0L10.26,8.37a1.56,1.56,0,0,0-1.11,1.91L14,28.37a1.55,1.55,0,0,0,1.91,1.1l3.69-1Z" style="fill:#ffde37"/><path d="M33.27,29.85a1.56,1.56,0,0,0,1.63-1.48l.9-18.71A1.56,1.56,0,0,0,34.32,8L20.64,7.37A1.56,1.56,0,0,0,19,8.85l-.9,18.71a1.56,1.56,0,0,0,1.48,1.63l8.9.43.1-1.1-8.95-.43a.45.45,0,0,1-.43-.48L20.1,8.9a.47.47,0,0,1,.49-.43l13.67.65a.47.47,0,0,1,.44.49l-.6,12.45-.3,6.25a.46.46,0,0,1-.48.44Z" style="fill:#ff3737"/><path d="M22.52,28.73h1.17l1.07.32a2.4,2.4,0,0,1-.74.36c-.61,0-.86.69,0,.72.39,0,.73,1.09.73,1.09a4.55,4.55,0,0,1-1.61-.28C22.08,30.42,22.52,28.73,22.52,28.73Z" style="fill:#ff3737"/></svg>