<svg id="Iconos" xmlns="http://www.w3.org/2000/svg" viewBox="0 0 50 50"><title>1</title><path d="M39,28.05a5.18,5.18,0,0,0-1.67-5.66l-5.21-4.16V10a.72.72,0,1,0-1.43-.07V24.05L29.56,25.6,27.17,18a4.23,4.23,0,0,0-4-3A2.14,2.14,0,0,0,21,17.14a2.31,2.31,0,0,0,0,.37l1.57,8.93a4.94,4.94,0,0,1-.09,2.13H12.85a.71.71,0,0,1-.71-.71V4.27a.71.71,0,0,1,.71-.71H30a.71.71,0,0,1,.72.71V7.13a.71.71,0,1,0,1.42.07.09.09,0,0,0,0-.07V4.27A2.14,2.14,0,0,0,30,2.13H12.85a2.14,2.14,0,0,0-2.14,2.14V27.86A2.14,2.14,0,0,0,12.85,30h4.32a2.47,2.47,0,0,0,1.72,2.73,2.42,2.42,0,0,0-.32,1.2,2.5,2.5,0,0,0,2.5,2.51h.57c0,.08,0,.16.07.24l.89,2.67a5.09,5.09,0,0,1,.26,1.59v6.22a.71.71,0,0,0,.71.71H37.15a.71.71,0,0,0,.71-.72v-.08l-1.19-9.51A7.94,7.94,0,0,1,37,34.1ZM18.57,30.36a1,1,0,0,1,.07-.36H22l-.18.48a7.5,7.5,0,0,0-.3.95H19.64A1.07,1.07,0,0,1,18.57,30.36ZM21.07,35a1.07,1.07,0,0,1,0-2.14h.21a9.58,9.58,0,0,0,0,2.14Zm14.18,2.74,1.09,8.7H24.29V40.93a6.69,6.69,0,0,0-.33-2l-.9-2.67a8,8,0,0,1,.1-5.25l.53-1.41A6.48,6.48,0,0,0,24,26.19l-1.58-8.93a.73.73,0,0,1,.58-.83h.13a2.8,2.8,0,0,1,2.67,2l2.8,9a.78.78,0,0,0,.11.2h0l2.15,2.86a.72.72,0,0,0,1,.19.71.71,0,0,0,.19-1l0-.06-1.82-2.43L31.78,25h1.08a.71.71,0,0,0,.75-.67.72.72,0,0,0-.68-.75h-.79V20.05l4.32,3.46a3.73,3.73,0,0,1,1.21,4.09l-2,6A9.49,9.49,0,0,0,35.25,37.74Z" style="fill:#ffde37"/></svg>