<?xml version="1.0" encoding="utf-8"?>
<!-- Generator: Adobe Illustrator 25.4.1, SVG Export Plug-In . SVG Version: 6.00 Build 0)  -->
<svg version="1.1" id="Capa_1" xmlns="http://www.w3.org/2000/svg" xmlns:xlink="http://www.w3.org/1999/xlink" x="0px" y="0px"
	 viewBox="0 0 67.5 68.7" style="enable-background:new 0 0 67.5 68.7;" xml:space="preserve">
<style type="text/css">
	.st0{fill:#00E9C5;}
</style>
<g>
	<path class="st0" d="M34.4,68.5c-1.2-0.2-2.4-0.3-3.6-0.5c-6-1-11-3.8-15.3-8c-4.2-4.1-7.1-9-9.5-14.3c-3-6.8-4.8-13.9-5.8-21.3
		c-0.1-1-0.3-2.2,0-3.2c0.7-3.1,3.9-4.9,7-4c0.2,0.1,0.4,0.1,0.6,0.2c3.9-6.2,9.8-9.1,17.1-9.3c0-1.1,0.1-2.2,0-3.2
		c-0.1-1.5,0.3-2.7,1.5-3.6c1.3-1,2.7-1.5,4.3-1.2c2.3,0.3,4.1,1.6,5.7,3.1c1,1,2,1.2,3.4,0.9c0.7-0.2,1.5-0.3,2.3-0.3
		c2.6-0.2,4.5,0.9,5.7,3.2c0.4,0.7,0.8,0.9,1.5,0.7c0.7-0.2,1.4-0.3,2.2-0.4c2.5-0.4,4.6,0.3,6.1,2.3c0.8,1.1,1.5,2.3,2.1,3.5
		c0.4,0.8,0.9,1.4,1.8,1.8c3.9,2,6.1,5.2,6,9.5c-0.1,7.2-1,14.3-3.2,21.2c-1.6,5.1-3.7,9.8-7.2,13.9c-4.7,5.6-10.7,8.6-17.9,9.1
		c-0.2,0-0.4,0.1-0.7,0.1C37.1,68.5,35.7,68.5,34.4,68.5z M21.9,37.5c-0.1,0-0.1,0-0.2,0c-3.2,0.5-5.8-0.6-7.4-3.3
		c-1.3-2.2-2.5-4.6-3.6-7c-0.8-1.9-1.5-3.8-2.2-5.7c-0.6-1.5-2.2-2.4-3.7-2s-2.6,1.8-2.4,3.4c0.8,6,2.1,11.8,4.1,17.5
		c1.9,5.4,4.4,10.6,8.1,15.1c3.4,4.1,7.4,7.3,12.5,9.1C31,66,35,66.4,39.2,66.1c5.5-0.4,10.4-2.5,14.3-6.4c3.6-3.5,5.9-7.8,7.6-12.5
		c2.7-7.4,3.7-15,3.9-22.8c0.1-3.4-1.6-5.8-4.6-7.3c-1.4-0.7-2.3-1.7-3-3.1c-0.5-1.1-1.1-2.1-1.9-3c-0.9-1.1-2.1-1.5-3.5-1.3
		c-0.6,0.1-1.2,0.2-1.8,0.4c-2.3,0.5-3.7,0.3-4.7-2c0-0.1-0.1-0.2-0.1-0.2c-0.7-1-1.6-1.6-2.9-1.5c-0.9,0.1-1.7,0.2-2.6,0.4
		c-1.9,0.4-3.6,0.2-5-1.4c-0.9-0.9-2-1.6-3.1-2.2c-0.6-0.3-1.4-0.5-2.2-0.5c-1.4,0-2.3,1-2.3,2.4c0,7.3,0,14.5,0,21.8
		c0,0.2,0,0.5,0,0.7c7-4.3,13.3-3.6,19.2,2.2c0-2.2,0.1-4.2,0.1-6.2c-0.1-2.5-0.3-5-0.4-7.5c0-0.9,0.4-1.4,1.1-1.5s1.2,0.5,1.3,1.3
		c0.2,2.5,0.3,5,0.4,7.5c0.1,3,0,6-0.6,9c-0.1,0.3,0,0.8,0.1,1.1c3.1,7.6-1.1,16.3-9,18.5c-1.4,0.4-2.9,0.5-4.3,0.7
		c0.3,0.8,0.6,1.6,0.9,2.5c0.3,0.8,0,1.5-0.7,1.7c-0.7,0.3-1.3-0.1-1.6-1c0-0.1-0.1-0.3-0.1-0.4c-0.9-2.6-2-5.2-3.8-7.3
		c-2.5-3-5.6-4.8-9.6-4.6c-0.7,0-1.3-0.5-1.3-1.2c0-0.6,0.4-1.2,1.2-1.2c0.7,0,1.3,0,2,0C22,39.7,21.9,38.6,21.9,37.5z M40.1,48.8
		c3.5-1.1,6.9-5.6,6.9-9.1c-3.5-0.2-6.6-1.6-9.4-3.6c-2.9-2.1-4.7-5-5.7-8.4c-3.4,1-7.2,5.2-7.2,8.1C31.6,36.1,37.6,41.2,40.1,48.8z
		 M14.4,29.6c1.1-2.1,2.5-3.6,4.4-4.8c1.8-1.2,3.9-1.8,6.1-2.1c0-1.7,0-3.3,0-4.9c-0.2,0-0.4,0-0.6-0.1c-5.1-0.6-10.2,2.6-11.3,7.4
		c-0.1,0.2-0.2,0.5-0.2,0.7C13.2,27.1,13.8,28.3,14.4,29.6z M47,37.4c-0.3-6.7-7-11.5-12.8-10.4C36.2,33.4,40.9,36.2,47,37.4z
		 M24.8,10.6c-2.3,0-4.5,0.4-6.6,1.2c-3.4,1.3-6.2,3.5-8.1,6.7C10,18.7,9.8,19,9.9,19.1c0.5,1.1,1,2.1,1.5,3.1
		c2.9-5.1,7.5-7.2,13.4-6.8C24.8,13.8,24.8,12.2,24.8,10.6z M24.2,38c0.2,1.1,0.3,2,0.5,2.9c0.1,0.3,0.4,0.5,0.6,0.7
		c0.9,0.5,1.8,0.8,2.7,1.4c2.4,1.5,4.2,3.6,5.6,6.1c0.1,0.2,0.3,0.5,0.5,0.6c1.2,0.2,2.4,0.2,3.7,0C35.9,42.5,31,39.3,24.2,38z
		 M24.9,25.2c-0.5,0.1-1,0.1-1.4,0.3c-3.5,0.9-6.1,2.9-7.3,6.4c-0.1,0.2-0.1,0.6,0,0.8c0.9,2.1,3.7,3.2,5.9,2.3
		c0.2-0.1,0.4-0.3,0.5-0.5c0.5-1.6,1.2-3,2.2-4.3c0.1-0.1,0.2-0.3,0.2-0.4C24.9,28.2,24.9,26.7,24.9,25.2z"/>
	<path class="st0" d="M58.6,25c0,3.5-0.4,7-1.1,10.5c-0.2,1-0.7,1.5-1.4,1.4c-0.8-0.1-1.1-0.8-0.9-1.8c0.7-3.7,1.1-7.4,1-11.1
		c0-0.8-0.1-1.6-0.1-2.4c0-0.9,0.3-1.4,1.1-1.5c0.8-0.1,1.3,0.4,1.3,1.3C58.5,22.6,58.6,23.8,58.6,25z"/>
	<path class="st0" d="M36.8,20.5c-0.3,0.5-0.5,0.8-0.7,1.2c-0.4,0.7-1.1,0.9-1.7,0.5c-0.6-0.3-0.8-1-0.4-1.7
		c0.4-0.7,0.8-1.4,1.1-2.1c0.1-0.2,0.1-0.6,0-0.8c-0.3-0.7-0.7-1.4-1.1-2.1c-0.4-0.7-0.2-1.4,0.4-1.7c0.6-0.4,1.3-0.1,1.7,0.6
		c0.2,0.3,0.4,0.7,0.6,1.1c0.2-0.4,0.4-0.8,0.6-1.1c0.4-0.7,1.1-1,1.7-0.6c0.6,0.4,0.8,1,0.4,1.7c-0.4,0.7-0.8,1.4-1.1,2.1
		c-0.1,0.2-0.1,0.5,0,0.7c0.3,0.7,0.8,1.4,1.1,2.1c0.4,0.7,0.2,1.4-0.4,1.7c-0.6,0.4-1.3,0.1-1.7-0.6C37.2,21.3,37,21,36.8,20.5z"/>
	<path class="st0" d="M53.9,45.6c-1,0-1.6-0.8-1.4-1.5c0.4-1.2,0.8-2.4,1.3-3.5c0.2-0.6,0.9-0.9,1.5-0.7s1,0.8,0.8,1.4
		c-0.4,1.2-0.8,2.4-1.3,3.5C54.6,45.2,54.1,45.4,53.9,45.6z"/>
</g>
</svg>
