<svg xmlns="http://www.w3.org/2000/svg" viewBox="0 0 756 971"><defs><style>.cls-1{isolation:isolate;}.cls-2{fill:#c45366;}.cls-3{fill:#4baa54;}.cls-4{fill:#c99c7d;}.cls-5{fill:none;stroke:#fff;stroke-miterlimit:10;stroke-width:4px;}.cls-6{fill:#fff;}.cls-7{mix-blend-mode:lighten;}</style></defs><g class="cls-1"><g id="Suelo"><rect class="cls-2" width="756" height="971"/></g><g id="Lineas"><path class="cls-3" d="M331.51,735.53,42.72,448S143.84,237.25,378,237.25,713.28,448,713.28,448l-290,288.7Z"/><path class="cls-4" d="M582.13,560.91C563.43,528.91,501,441.2,378,441.2c-123.47,0-185.95,88.45-204.37,120.12L338.81,724.16a50.3,50.3,0,1,0,76.78.1Z"/><path class="cls-3" d="M273.67,659.94s19.25-10.45,19.25-35.65-20.54-34.11-20.54-34.11l69.54-69.75s11.85,19.23,36.08,19.23a38.65,38.65,0,0,0,34-19.23l69.19,69S461.5,600.5,461.5,624.29s19.67,35.65,19.67,35.65l-65.58,64.32s-14.92-17.87-38.44-17.87-38.34,17.77-38.34,17.77Z"/><circle class="cls-4" cx="377.15" cy="624.64" r="30.91"/><path class="cls-5" d="M331.51,735.53,42.72,448S143.84,237.25,378,237.25,713.28,448,713.28,448l-290,288.7"/><path class="cls-5" d="M167.7,572.43S227.6,441.2,378,441.2,588.3,572.43,588.3,572.43"/><rect class="cls-5" x="347.18" y="732.2" width="15.28" height="37.93"/><rect class="cls-5" x="393.01" y="732.2" width="15.28" height="37.93"/><circle class="cls-5" cx="377.15" cy="756.7" r="50.31"/><circle class="cls-5" cx="377.15" cy="624.64" r="30.91"/><line class="cls-5" x1="407.9" y1="731.8" x2="707.77" y2="437.69"/><line class="cls-5" x1="48.23" y1="437.69" x2="347.08" y2="732.31"/><rect class="cls-6" x="367.11" y="622.01" width="20.02" height="4.57"/><polygon class="cls-6" points="386.36 753.56 378 761.19 369.64 753.56 369.64 744.55 386.36 744.55 386.36 753.56"/><rect class="cls-5" x="367.28" y="488.37" width="20.11" height="20.11" transform="translate(-241.92 412.81) rotate(-45)"/><rect class="cls-5" x="493.15" y="614.24" width="20.11" height="20.11" transform="translate(-294.05 538.67) rotate(-45)"/><rect class="cls-5" x="241.42" y="614.24" width="20.11" height="20.11" transform="translate(-367.79 360.67) rotate(-45)"/><path class="cls-5" d="M481.17,659.94s-19.67-11.85-19.67-35.65,19.67-34.85,19.67-34.85l-69.19-69a38.65,38.65,0,0,1-34,19.23c-24.23,0-36.08-19.23-36.08-19.23l-69.54,69.75s20.54,8.91,20.54,34.11-19.25,35.65-19.25,35.65"/><g id="Capa_2" data-name="Capa 2" class="cls-7"><g id="Capa_1-2" data-name="Capa 1-2"><path class="cls-6" d="M230.44,829.11a7.46,7.46,0,0,0-4.45,6.82h0v51.89a2.57,2.57,0,0,1-2.58,2.58,2.78,2.78,0,0,1-.75-.11,27.75,27.75,0,0,1-19.78-26.56v-1.54c0-.28,0-.57.06-.86v-.23q.1-1.11.3-2.22l0-.24c.06-.31.12-.63.19-.95a.94.94,0,0,0,0-.16c.18-.74.38-1.49.61-2.23l.05-.14c.11-.35.23-.69.36-1h0c.28-.75.58-1.49.9-2.15l.06-.11c.34-.7.69-1.38,1.08-2v0c.18-.3.36-.6.55-.9l.12-.17c.17-.28.36-.55.54-.82l.08-.1c.21-.29.41-.58.63-.86l.2-.25a30.79,30.79,0,0,1,3.08-3.38c.47-.44,1-.85,1.48-1.24a3.09,3.09,0,0,0,.59-4.34,2.61,2.61,0,0,0-.27-.31l-2.27-2.27a3.09,3.09,0,0,0-4.12-.22,37.32,37.32,0,0,0-4.82,4.67h0l-.06.07c-.33.39-.64.74-.95,1.17h0c-.31.38-.6.74-.88,1.15l-.14.2c-.46.78-1,1.61-1.52,2.48l-.13.24c-.51.84-1,1.72-1.41,2.61,0,.09-.08.17-.13.26-.19.41-.38.83-.56,1.24l-.07.1c-.2.45-.38.91-.55,1.37l-.11.29c-.15.4-.3.82-.44,1.23l-.07.2c-.14.47-.29.94-.43,1.42l-.06.27c-.11.4-.22.81-.32,1.22a1.18,1.18,0,0,1-.08.31c-.1.48-.2,1-.29,1.48v.2c-.1.42-.17.9-.23,1.3,0,.12,0,.24-.05.36-.07.5-.13,1-.17,1.48a.49.49,0,0,0,0,.17c-.05.45-.08.9-.1,1.36v1.93h-.07a37.12,37.12,0,0,0,30.33,36.49,2.59,2.59,0,0,1,2.14,2.54v14a2.56,2.56,0,0,0,2.56,2.57h4.14a2.58,2.58,0,0,0,2.58-2.57h0v-14a2.56,2.56,0,0,1,2.07-2.5A37,37,0,0,0,256.87,890a37.11,37.11,0,0,0-15-61.61A16.14,16.14,0,0,0,230.44,829.11Zm25.31,46.68a27.8,27.8,0,0,1-17.15,14.53,2.58,2.58,0,0,1-3.2-1.73,2.66,2.66,0,0,1-.1-.75V842.23a4.44,4.44,0,0,1,6.14-4.1,27.74,27.74,0,0,1,14.89,36.3c-.18.44-.38.88-.58,1.31Z"/><path class="cls-6" d="M294.86,873a12.33,12.33,0,0,1-1.9-.31,20,20,0,0,0-2.45-.15c-.56,0-1.48,0-1.84.51-.51.77-.36,4.3-.36,5.11h5.11c1.13,0,1.69.21,1.69,1.44v2c0,1.48-.36,1.94-1.84,1.94h-5v16.78c0,1.33-.2,2.3-1.79,2.3h-3.22c-1.38,0-1.53-.82-1.53-2v-17h-1.54c-1.12,0-1.23-.86-1.23-1.79v-2.21c0-1.79,1.44-1.44,2.77-1.44v-2c0-2.15,0-4.24,1.32-6,2.1-2.87,5.53-3,8.8-3,1,0,3.58,0,4.24,1a1.93,1.93,0,0,1,.26,1.07v.36C296.39,870.63,296.39,873,294.86,873Zm10.48,1.53h-2c-1.84,0-2.71-.25-2.71-2.3v-1.79c0-1.63.67-2.25,2.25-2.25h2.41a2,2,0,0,1,2,2,2.46,2.46,0,0,1,0,.26v1.79c.09,1.43-.37,2.3-2,2.3Zm0,28.13h-2c-1.84,0-2.71-.26-2.71-2.3v-20c0-1.63.67-2.25,2.25-2.25h2.41a2,2,0,0,1,2,2,2.46,2.46,0,0,1,0,.26v20c.09,1.43-.37,2.3-2,2.3Z"/><path class="cls-6" d="M323.69,903.31a49.66,49.66,0,0,1-7.31-.36c-1.53-.2-1.43-.92-1.43-2.35v-.92c0-1.12.1-2.35,1.48-2.35a23.79,23.79,0,0,1,2.66.3c1.74.16,3.53.26,5.32.26s2.56,0,2.56-1.89a2.77,2.77,0,0,0-.31-1.69c-.41-.51-4.91-1.74-5.73-2a28.12,28.12,0,0,1-2.91-1.18c-2.66-1.33-3.63-2.81-3.63-5.78,0-7.87,5.31-7.77,11.6-7.77,1.28,0,2.51,0,3.79.1,1.84.16,2.55.51,2.55,2.51,0,1.48.11,3.17-1.89,3.17-.87,0-1.79-.16-2.66-.21a37.21,37.21,0,0,0-4.09-.2c-1.94,0-3-.26-3,2a1.53,1.53,0,0,0,.25,1c.51.71,5.37,2,6.45,2.35,4,1.33,5.88,2.66,5.88,7.16C333.31,902.39,330,903.31,323.69,903.31Z"/><path class="cls-6" d="M344.91,874.57H343c-1.84,0-2.71-.25-2.71-2.3v-1.79c0-1.63.66-2.25,2.25-2.25h2.4a2,2,0,0,1,2,2,2.46,2.46,0,0,1,0,.26v1.79C347,873.7,346.5,874.57,344.91,874.57Zm0,28.13H343c-1.84,0-2.71-.26-2.71-2.3v-20c0-1.63.66-2.25,2.25-2.25h2.4a2,2,0,0,1,2,2,2.46,2.46,0,0,1,0,.26v20C347,901.83,346.5,902.7,344.91,902.7Z"/><path class="cls-6" d="M369.57,903.16a42.08,42.08,0,0,1-4.35.2c-10,0-11.66-3.42-11.66-12.93s1.69-13,11.66-13a42.13,42.13,0,0,1,4.35.25c1.53.16,2.81,0,2.81,1.74v.1c0,1.28,0,4-1.84,4a14.09,14.09,0,0,1-2.05-.2,36.71,36.71,0,0,0-4.8-.41c-2.15,0-2.56.41-3,2.4a24.47,24.47,0,0,0-.41,5.12,40.15,40.15,0,0,0,.2,4.9c.21,2.3,1,2.56,3.23,2.56a37.63,37.63,0,0,0,4.85-.41,14.89,14.89,0,0,1,2-.2,1.42,1.42,0,0,1,1.22.51c.41.41.62,2.86.62,3.48C372.37,903.06,371.14,903,369.57,903.16Z"/><path class="cls-6" d="M396.81,902.7h-2.87c-1.17,0-1.48-.77-1.48-1.84a13.93,13.93,0,0,1-7.56,2.5c-5,0-7.32-2.71-7.32-7.62,0-5.57,3.33-7.46,8.34-8a44,44,0,0,1,6.49-.41c0-2.05.31-4.91-2.56-4.91a32.7,32.7,0,0,0-7.36,1.07,5.05,5.05,0,0,1-1.23.15c-1.78,0-1.48-1.79-1.48-3.06a1.89,1.89,0,0,1,1.43-2.15,35.39,35.39,0,0,1,8.39-1c2.45,0,5.57.41,7.31,2.35,2,2.25,1.94,5.42,1.94,8.28v12.43C398.85,902,398.34,902.7,396.81,902.7Zm-4.35-10.79c-.82,0-1.68-.1-2.5-.1a24.79,24.79,0,0,0-3.22.15c-2.15.31-3,1-3,3.22,0,1.23.2,3.43,1.89,3.43a11.65,11.65,0,0,0,6.85-2.56Z"/><path class="cls-6" d="M410.36,902.7h-1.79c-1.84,0-2.71-.26-2.71-2.3V869.72c0-1.64.66-2.2,2.25-2.2h2.3a2,2,0,0,1,2,1.86,1.88,1.88,0,0,1,0,.34V900.4C412.35,901.83,411.94,902.7,410.36,902.7Z"/><path class="cls-6" d="M434.85,903.16a42.08,42.08,0,0,1-4.35.2c-10,0-11.65-3.42-11.65-12.93s1.68-13,11.65-13a42.13,42.13,0,0,1,4.35.25c1.53.16,2.81,0,2.81,1.74v.1c0,1.28,0,4-1.84,4a13.42,13.42,0,0,1-2-.2,36.87,36.87,0,0,0-4.81-.41c-2.15,0-2.56.41-3,2.4a25.16,25.16,0,0,0-.41,5.12c0,1.63.06,3.27.21,4.9.2,2.3,1,2.56,3.22,2.56a37.63,37.63,0,0,0,4.86-.41,14.89,14.89,0,0,1,2-.2,1.44,1.44,0,0,1,1.23.51c.41.41.61,2.86.61,3.48C437.66,903.06,436.44,903,434.85,903.16Z"/><path class="cls-6" d="M455.05,903.36c-8.54,0-11.76-4.91-11.76-12.93s3.17-13,11.76-13,11.71,4.91,11.71,13S463.64,903.36,455.05,903.36Zm4.19-18.87c-.92-1.68-2.46-1.63-4.19-1.63s-3.28,0-4.2,1.63-1,4.15-1,5.94.1,4.34,1,5.93,2.51,1.58,4.2,1.58,3.27,0,4.19-1.58.92-4.2.92-5.93S460.11,886.08,459.24,884.49Z"/><path class="cls-6" d="M491.3,902.7h-2.87c-1.17,0-1.48-.77-1.48-1.84a14,14,0,0,1-7.57,2.5c-5,0-7.31-2.71-7.31-7.62,0-5.57,3.33-7.46,8.34-8a44,44,0,0,1,6.49-.41c0-2.05.31-4.91-2.56-4.91a32.7,32.7,0,0,0-7.36,1.07,5.05,5.05,0,0,1-1.23.15c-1.79,0-1.48-1.79-1.48-3.06a1.89,1.89,0,0,1,1.43-2.15,35.39,35.39,0,0,1,8.39-1c2.45,0,5.57.41,7.31,2.35,2,2.25,1.94,5.42,1.94,8.28v12.43C493.34,902,492.83,902.7,491.3,902.7ZM487,891.91c-.82,0-1.69-.1-2.5-.1a24.79,24.79,0,0,0-3.22.15c-2.15.31-3,1-3,3.22,0,1.23.2,3.43,1.89,3.43a11.65,11.65,0,0,0,6.85-2.56Z"/><path class="cls-6" d="M515.57,903.16a42.08,42.08,0,0,1-4.35.2c-10,0-11.66-3.42-11.66-12.93s1.69-13,11.66-13a42.13,42.13,0,0,1,4.35.25c1.53.16,2.81,0,2.81,1.74v.1c0,1.28,0,4-1.84,4a14.09,14.09,0,0,1-2-.2,36.87,36.87,0,0,0-4.81-.41c-2.14,0-2.55.41-3,2.4a24.47,24.47,0,0,0-.41,5.12c0,1.63.05,3.27.2,4.9.21,2.3,1,2.56,3.22,2.56a37.63,37.63,0,0,0,4.86-.41,14.89,14.89,0,0,1,2-.2,1.42,1.42,0,0,1,1.22.51c.41.41.62,2.86.62,3.48C518.4,903.06,517.17,903,515.57,903.16Z"/><path class="cls-6" d="M543.3,902.7h-2.73c-1.48,0-1.84-1-1.84-2.3V887.31c0-.72.1-3.53-.36-4a2.12,2.12,0,0,0-1.64-.41,11.14,11.14,0,0,0-6.23,2.35v15.19c0,1.43-.41,2.3-2,2.3h-2.71c-1.38,0-1.84-.77-1.84-2v-31c0-1.64.66-2.2,2.25-2.2h2.37a2,2,0,0,1,2,1.86,1.88,1.88,0,0,1,0,.34v9.46a16.09,16.09,0,0,1,6.9-1.74c4.75,0,7.87,2.35,7.87,7.26v15.7C545.29,901.83,544.88,902.7,543.3,902.7Z"/></g></g></g></g></svg>