<svg id="jugador-de-baseball" xmlns="http://www.w3.org/2000/svg" width="53.966" height="47.529" viewBox="0 0 53.966 47.529">
  <g id="Grupo_1731" data-name="Grupo 1731" transform="translate(0 1.014)">
    <g id="Grupo_1730" data-name="Grupo 1730">
      <path id="Trazado_1999" data-name="Trazado 1999" d="M53.664,42.526l-2.111-2.075a1.011,1.011,0,0,0-1.48.05L37.74,54.681h0a2.328,2.328,0,0,0-2.321-.6l-7.706,2.293-5.318-4.434,2.719,1.279a2.52,2.52,0,0,0-1.7-2.421L18,48.946a2.519,2.519,0,0,0-3.2,1.567L9.633,65.589a6.417,6.417,0,0,0-.318,1.477l-.811,8.6-7.66,6.68a2.464,2.464,0,0,0,3.239,3.713l8.4-7.327a2.463,2.463,0,0,0,.833-1.626l.619-6.572-1.452-.783,9.472,3.1L25.44,84.89a2.464,2.464,0,0,0,3.141,1.653,2.5,2.5,0,0,0,1.575-3.081l-3.83-13.225a2.464,2.464,0,0,0-1.6-1.656L14.019,65.072l6.838.955,2.072-6.049L19.82,55.847l5.873,4.9a2.333,2.333,0,0,0,2.151.442L32.172,59.9a1.043,1.043,0,0,0,.313.726l1.3,1.281a1.071,1.071,0,0,0,1.445.069,1.046,1.046,0,0,0,.091-1.491L53.624,44A1.01,1.01,0,0,0,53.664,42.526Z" transform="translate(0 -40.153)" fill="#050c42"/>
    </g>
  </g>
  <g id="Grupo_1733" data-name="Grupo 1733" transform="translate(17.989 0)">
    <g id="Grupo_1732" data-name="Grupo 1732">
      <path id="Trazado_2000" data-name="Trazado 2000" d="M176.73,30.784a4.574,4.574,0,1,0,2.845,5.81A4.574,4.574,0,0,0,176.73,30.784Z" transform="translate(-170.672 -30.536)" fill="#050c42"/>
    </g>
  </g>
</svg>
