<?xml version="1.0" encoding="utf-8"?>
<!-- Generator: Adobe Illustrator 25.4.1, SVG Export Plug-In . SVG Version: 6.00 Build 0)  -->
<svg version="1.1" id="Capa_1" xmlns="http://www.w3.org/2000/svg" xmlns:xlink="http://www.w3.org/1999/xlink" x="0px" y="0px"
	 viewBox="0 0 330 330.4" style="enable-background:new 0 0 330 330.4;" xml:space="preserve">
<style type="text/css">
	.st0{fill:none;stroke:#00E9C5;stroke-width:14;stroke-linecap:round;stroke-linejoin:round;stroke-miterlimit:10;}
	.st1{fill:none;stroke:#00E9C5;stroke-width:12;stroke-linecap:round;stroke-linejoin:round;stroke-miterlimit:10;}
	.st2{fill:none;stroke:#00E9C5;stroke-width:11.3179;stroke-linecap:round;stroke-linejoin:round;stroke-miterlimit:10;}
</style>
<g>
	<line class="st0" x1="165.9" y1="182.9" x2="165.9" y2="182.9"/>
	<path class="st0" d="M161.2,187"/>
	<path class="st1" d="M165.9,182.9c10.9-9.4,40.7-25.5,56.5-39.1c45-38.6,84.4-81.9,90.7-87.3c13.3-11.7,14.4-29.4,3-41.1
		c-11.6-11.9-28.7-11.5-41.3,1.2c-2.3,2.4-42.8,40.2-89,90.1c-5,5.4-58.7,74.4-63.5,79.5c-32.4,34.8-90.4,93.3-90.4,93.3l17.7,16.7
		l91.1-94.2"/>
	<line class="st2" x1="152" y1="191.9" x2="152" y2="191.9"/>
	<path class="st2" d="M143,202.1"/>
	<path class="st2" d="M45.2,323.4c-2-0.4-4-1.4-5.5-3l-30-28.7c-4.6-4.4-4.8-11.6-0.4-16.2c4.4-4.6,11.6-4.8,15.5-1.7l30,28.7
		c5.4,5.7,5.5,12.9,1.2,17.5C53,323.1,49,324.2,45.2,323.4z"/>
	<line class="st2" x1="48.8" y1="263.9" x2="65.8" y2="279.5"/>
	<line class="st2" x1="65.4" y1="247.5" x2="81.8" y2="262.9"/>
	<line class="st2" x1="81.2" y1="229.3" x2="98.7" y2="245.4"/>
</g>
</svg>
