<?xml version="1.0" encoding="utf-8"?>
<!-- Generator: Adobe Illustrator 25.4.1, SVG Export Plug-In . SVG Version: 6.00 Build 0)  -->
<svg version="1.1" id="Capa_1" xmlns="http://www.w3.org/2000/svg" xmlns:xlink="http://www.w3.org/1999/xlink" x="0px" y="0px"
	 viewBox="0 0 316 339.9" style="enable-background:new 0 0 316 339.9;" xml:space="preserve">
<style type="text/css">
	.st0{fill:none;stroke:#00E9C5;stroke-width:9.6331;stroke-miterlimit:10;}
	.st1{fill:#00E9C5;stroke:#00E9C5;stroke-width:1.4;stroke-miterlimit:10;}
</style>
<g>
	<path class="st0" d="M211.5,275.1l0.3,36c0.1,9.8,8.1,17.7,17.9,17.6c6.1,0,11.4-3.1,14.6-7.8c1.9-2.9,3-6.3,3-10l-0.6-74.6"/>
	<path class="st0" d="M191.9,144.1l5.4-21.2l5-19.9c6-16.1-9.2-31.3-22.6-34.2l-22.3-1c-13-0.6-27.2,8.3-29.1,21.2l-17.7,108.2
		c-1.1,6.9-3.9,13.4-8.2,18.9l-27.7,36.2l-63.3,51.2c-5.4,4.4-7.6,11.4-6.1,17.8c0.6,2.5,1.7,5,3.5,7.2c6.2,7.6,17.3,8.8,24.9,2.6
		l64.9-52.6c1.1-0.9,2.1-1.9,2.9-3l40.5-52.9c0.2-0.3,0.4-0.6,0.7-0.9c2.4-3.4,6.6-5,10.7-4.1l18.7,4.1l39,16.5l0.1,7.9"/>
	<path class="st0" d="M224.1,227.8l-2.5-2l-48-41.2c-2-1.7-3.5-3.7-4.6-6l-37.8-80.7c-4.2-8.9-0.3-19.4,8.5-23.6
		c8.9-4.2,19.4-0.3,23.6,8.5l34.9,74.4c0.9,1.8,2.1,3.5,3.6,4.8l45.6,39.1"/>
	<path class="st0" d="M182.7,69.2c3.2,0.2,6.7,1.1,10.4,2.5l63.2,28.3c1.1,0.8,2,1.7,2.9,2.7c1.2,1.4,2.4,2.9,3.7,4.2l38.5,40.8
		c5.5,8.1,3.3,19.1-4.8,24.6c-3,2-6.5,3-9.9,3c-5.7,0-11.3-2.7-14.7-7.8l-34.6-35.9c-3.2-3.3-7-5.9-11.3-7.7l-26.1-11.1"/>
	<path class="st0" d="M301.4,147.1c2.5-3.6,3.6-5.2,3.6-5.2l-8.6-5.6l-1.8,2.7"/>
	<path class="st0" d="M273.5,170.3l-4.3,6.4l-13,15.7c-3.8,4.7-15,13.6-20.5,20.4c-15.8,19.3-28.9,40.2-31.1,42.9
		c-4.6,5.9-3.8,13.2,1.8,17.3c5.7,4.1,12.7,2.6,17-3.6c0.8-1.1,14.7-19.9,30.2-43.9c0.7-1,19.4-36.1,20.4-37.6
		c1.1-1.7,2.3-3.5,3.5-5.4c1.5-2.3,3.2-4.8,4.8-7.3"/>
	<path class="st0" d="M264.3,182.7"/>
	<path class="st0" d="M295,130.9c0.8,0,1.4,0.3,2.1,0.7l12.3,8.2c1.8,1.3,2.4,3.8,1.2,5.6c-1.3,1.8-3.8,2.4-5.6,1.2l-12.3-8.2
		c-1.8-1.3-2.4-3.8-1.2-5.6C292.3,131.5,293.6,130.9,295,130.9z"/>
	<circle class="st0" cx="207" cy="32.9" r="28.1"/>
</g>
<g>
	<g>
		<path class="st1" d="M294.7,249.2c0,4.5-1.2,8.8-3.6,12.6c-0.3,0.5-0.7,0.8-1.3,0.7c-0.8-0.2-1.2-1-0.7-1.8c0.7-1,1.2-2.2,1.7-3.3
			c0.8-2,1.3-4,1.5-6.1c0-0.7,0-0.7-0.5-0.7c-1.5,0.2-3.2,0.5-4.6,1c-0.3,0.2-0.5,0.3-0.3,0.7c0.2,0.5,0.3,0.8,0.5,1.3
			c0.2,0.7,0,1.2-0.7,1.5c-0.5,0.2-1.2,0-1.5-0.7c-0.2-0.5-0.5-1-0.7-1.5c-0.2-0.3-0.2-0.3-0.5-0.2c-1.7,0.8-3,1.8-4.5,3
			c-0.3,0.2-0.2,0.3,0,0.7c0.3,0.3,0.7,0.7,1,1c0.5,0.5,0.5,1.2,0.2,1.7c-0.5,0.5-1.2,0.3-1.7-0.2c-0.3-0.3-0.7-0.7-1-1
			c-0.2-0.2-0.3-0.2-0.5,0c-1.2,1.3-2.2,2.8-3,4.5c-0.2,0.3,0,0.3,0.2,0.5c0.5,0.2,1,0.3,1.5,0.7c0.7,0.3,0.8,0.8,0.7,1.5
			c-0.3,0.7-0.8,0.8-1.5,0.5c-0.5-0.2-0.8-0.3-1.3-0.5c-0.3-0.2-0.5-0.2-0.7,0.3c-0.5,1.5-0.8,3.2-1,4.6c0,0.5,0.2,0.5,0.7,0.5
			c1.8-0.2,3.6-0.7,5.5-1.3c1.3-0.5,2.7-1.2,3.8-1.8c0.3-0.2,0.5-0.3,0.8-0.3c0.5,0,1,0.3,1,0.8c0.2,0.5,0,1-0.5,1.3
			c-1.2,0.7-2.3,1.3-3.5,1.8c-8.8,3.3-16.9,2.3-24.2-3.6c-4.8-4-7.8-9.1-8.5-15.4c-0.8-8,1.7-14.8,7.5-20.2
			c3.8-3.5,8.5-5.5,13.6-6.1c11.8-1.2,22.6,6.5,25.4,18.1c0.2,0.7,0.3,1.3,0.3,2C294.7,246.9,294.7,248.1,294.7,249.2z M272.5,227.8
			c-0.2,0-0.7,0-0.7,0.7c-0.2,2-0.5,3.8-1.2,5.6c-0.2,0.3,0,0.3,0.2,0.5c0.5,0.2,1.2,0.5,1.7,0.7c0.7,0.3,0.8,0.8,0.7,1.5
			c-0.2,0.5-0.8,0.8-1.5,0.7c-0.5-0.2-1-0.3-1.5-0.7c-0.3-0.2-0.5-0.2-0.7,0.3c-0.8,1.8-2,3.5-3.3,5c-0.2,0.2-0.2,0.3,0,0.7
			c0.3,0.3,0.8,0.8,1.2,1.2c0.5,0.5,0.5,1.2,0,1.7s-1.2,0.5-1.7,0c-0.3-0.3-0.8-0.8-1.2-1.2c-0.2-0.2-0.3-0.2-0.5,0
			c-1.5,1.3-3.3,2.5-5.1,3.5c-0.3,0.2-0.3,0.3-0.2,0.7c0.2,0.5,0.3,1,0.7,1.5c0.3,0.7,0,1.3-0.7,1.5c-0.7,0.2-1.2,0-1.5-0.7
			c-0.2-0.5-0.5-1-0.7-1.5c-0.2-0.2-0.2-0.3-0.5-0.2c-1.8,0.7-3.8,1-5.8,1.2c-0.3,0-0.5,0.2-0.5,0.5c0,0.8,0.2,1.7,0.3,2.3
			c1.3,6.5,4.8,11.4,10.5,14.8c2.8,1.7,5.8,2.5,9,2.7c0.5,0,0.7-0.2,0.8-0.7c0.2-1.8,0.5-3.6,1.2-5.5c0.2-0.3,0-0.5-0.3-0.7
			c-0.5-0.2-1-0.3-1.5-0.7c-0.7-0.3-0.8-0.8-0.7-1.5c0.2-0.7,0.8-0.8,1.5-0.7c0.5,0.2,1,0.3,1.5,0.7c0.3,0.2,0.5,0,0.7-0.3
			c0.8-1.8,2-3.5,3.5-5.1c0.2-0.2,0.2-0.3,0-0.5c-0.3-0.3-0.8-0.8-1.2-1.2c-0.5-0.5-0.5-1.2,0-1.7s1.2-0.5,1.7,0
			c0.3,0.3,0.8,0.8,1.2,1.2c0.2,0.2,0.3,0.3,0.5,0c1.5-1.3,3.3-2.5,5.1-3.5c0.3-0.2,0.3-0.3,0.2-0.7c-0.2-0.5-0.5-1-0.7-1.5
			c-0.3-0.7,0-1.3,0.5-1.5c0.5-0.3,1.2,0,1.5,0.7c0.2,0.5,0.5,1,0.7,1.5c0.2,0.3,0.3,0.3,0.5,0.2c0.5-0.2,1-0.3,1.7-0.5
			c1.3-0.3,2.7-0.7,3.8-0.7c0.5,0,0.8-0.2,0.7-0.7c0-0.5,0-1-0.2-1.5c-0.8-5.6-3.5-10.3-8-13.8C280.9,229.7,277.1,228.3,272.5,227.8
			z M269.3,228c-0.5,0-0.8,0-1.3,0.2c-8,1.3-13.6,5.8-16.8,13.3c-0.8,1.8-1.2,3.8-1.5,5.8c0,0.3-0.2,0.7,0.5,0.7
			c1.7-0.2,3.3-0.5,4.8-1c0.3-0.2,0.5-0.3,0.3-0.7c-0.2-0.5-0.3-1-0.5-1.3c-0.3-0.7,0-1.3,0.5-1.5c0.7-0.3,1.2,0,1.5,0.7
			c0.2,0.5,0.3,1,0.7,1.5c0.2,0.3,0.2,0.3,0.5,0.2c1.7-0.8,3-1.8,4.5-3c0.3-0.2,0.2-0.3,0-0.7c-0.3-0.3-0.7-0.7-1-1
			c-0.5-0.5-0.5-1.2,0-1.7s1.2-0.5,1.7,0.2c0.3,0.3,0.7,0.7,1,1c0.2,0.3,0.3,0.2,0.7,0c1.2-1.3,2.2-2.8,3-4.3c0.2-0.3,0-0.5-0.2-0.7
			c-0.5-0.2-1-0.3-1.5-0.7c-0.7-0.3-0.8-0.8-0.7-1.5c0.2-0.7,0.8-0.8,1.5-0.7c0.5,0.2,0.8,0.3,1.3,0.5c0.3,0.2,0.5,0.2,0.7-0.3
			c0.5-1.5,0.8-3.2,1-4.6C269.7,228.2,269.7,227.8,269.3,228z"/>
		<path class="st1" d="M288.1,265.2c0,0.7-0.5,1.2-1.2,1.2c-0.7,0-1.2-0.5-1.2-1.2c0-0.7,0.5-1,1.2-1.2
			C287.6,264,288.1,264.5,288.1,265.2z"/>
	</g>
</g>
</svg>
