<?xml version="1.0" encoding="utf-8"?>
<!-- Generator: Adobe Illustrator 25.4.1, SVG Export Plug-In . SVG Version: 6.00 Build 0)  -->
<svg version="1.1" id="Capa_1" xmlns="http://www.w3.org/2000/svg" xmlns:xlink="http://www.w3.org/1999/xlink" x="0px" y="0px"
	 viewBox="0 0 273.1 525.8" style="enable-background:new 0 0 273.1 525.8;" xml:space="preserve">
<style type="text/css">
	.st0{fill:none;stroke:#00E9C5;stroke-width:12;stroke-linecap:round;stroke-linejoin:round;stroke-miterlimit:10;}
	.st1{fill:#00E9C5;}
	.st2{fill:#00E9C5;stroke:#00E9C5;stroke-width:1.4;stroke-miterlimit:10;}
</style>
<g>
	<path class="st0" d="M168.9,519.8c-9.2,0-16.7-7.5-16.7-16.7c0-17.7,0-73.1,0-95.6c0-5.8-3.6-11.1-9-13.2l0,0
		c-5.2-2.1-11.2-0.9-15.2,3.1c-8.1,8.1-21.9,21.8-30.2,30c-12.6,12.5-25.1,25.1-37.6,37.6c-3.6,3.6-7,7.4-10.5,11
		c-6.1,6.2-14.1,8.2-20.8,5.2c-6.1-2.7-9.9-9.1-9.7-16.2c0.1-4.4,2.1-7.9,5.1-11c19.4-19.4,38.7-38.8,58.2-58.1
		c4.5-4.5,11.9-12,18.2-18.4c7.5-7.7,11.8-17.9,11.9-28.6c0.3-20.8,0.7-33.2,0.8-52.5c0-1.3-26.3-39.2-41-60.4
		c-6.4-9.2-10.5-19.7-12-30.7l-8.9-65.7c-1.4-10.4,6.7-19.6,17.1-19.6l0,0c8.6,0,15.9,6.3,17.1,14.9l7.8,55.7
		c1.6,11.1,5.8,21.7,12.3,30.9l9.8,13.8c2.3,3.3,6.1,5.3,10.1,5.4l56.7,1.9c3.7,0.1,7.3,1.7,9.8,4.4l70.3,74.6
		c7.7,8.1,5.4,21.3-4.6,26.4l0,0c-6.5,3.3-14.4,2-19.5-3.2l-30.3-31c-8.1-8.3-22.1-2.6-22.1,9c-0.1,51.5-0.3,150.8-0.3,180.4
		C185.5,512.4,178.1,519.8,168.9,519.8L168.9,519.8z"/>
	<path class="st0" d="M182.9,193.3c-0.2,16.5-13.1,29-29.8,29c-17-0.1-30.6-13.7-30.2-30.3c0.4-16.2,14.5-29.6,30.8-29
		C170.9,163.4,183.1,176.2,182.9,193.3z"/>
</g>
<path class="st1" d="M107,92.7c-0.5,3.6-4.6,10.3-6.2,13.8c-3.3,7.2-11.1,21.9-14.1,27.7c-1.2,2.4-3,4.5-5.3,6.1
	c-2.8,1.9-7,4-12.6,3.9c-7.8-0.1-14.8-4.2-18.5-10.4C42.8,121,33.2,109.2,26.6,96c-6-12.1,0.4-31.4,12.9-40.9
	c13.5-10.3,32.3-12,46.3-4C102.6,60.9,108.6,81.3,107,92.7z M53.9,112.2 M36.8,74 M92.5,71.2 M79.3,110.9 M64.6,63.6 M67,111.5
	 M57.1,111.3L39.4,71.9c-0.6-1.3-2.2-1.9-3.5-1.3l-1.2,0.5c-1.3,0.6-1.9,2.2-1.3,3.5l17.8,39.4c0.6,1.3,2.2,1.9,3.5,1.3l1.2-0.5
	C57.1,114.3,57.8,112.7,57.1,111.3z M77.6,113.8l1.2,0.4c1.4,0.5,2.9-0.3,3.4-1.7l13.7-41c0.5-1.4-0.3-2.9-1.7-3.4L93,67.7
	c-1.4-0.5-2.9,0.3-3.4,1.7l-13.7,41C75.4,111.8,76.2,113.3,77.6,113.8z M66.5,114.8l1.3-0.1c1.5-0.1,2.6-1.3,2.5-2.8l-2.5-49
	c-0.1-1.5-1.3-2.6-2.8-2.5l-1.3,0.1c-1.5,0.1-2.6,1.3-2.5,2.8l2.5,49C63.8,113.7,65.1,114.8,66.5,114.8z"/>
<g>
	<g>
		<path class="st2" d="M30,1.3c4.4,1.1,8.2,3.3,11.4,6.5c0.4,0.4,0.6,0.9,0.4,1.4c-0.4,0.7-1.3,0.9-1.9,0.2C39,8.6,38,7.9,37,7.1
			c-1.7-1.3-3.6-2.2-5.6-2.9C30.8,4,30.8,4,30.7,4.5c-0.2,1.5-0.3,3.2-0.1,4.7c0.1,0.3,0.2,0.6,0.6,0.5c0.5-0.1,0.8-0.1,1.4-0.2
			c0.7,0,1.2,0.3,1.3,1c0.1,0.5-0.3,1.2-1,1.3c-0.5,0.1-1.1,0.2-1.6,0.3c-0.3,0.1-0.3,0.1-0.3,0.4c0.4,1.8,1,3.3,1.8,5.1
			c0.1,0.3,0.2,0.3,0.7,0.2c0.4-0.2,0.8-0.5,1.2-0.7c0.6-0.4,1.3-0.2,1.7,0.2c0.4,0.6,0,1.2-0.6,1.6c-0.4,0.2-0.8,0.5-1.2,0.7
			c-0.2,0.1-0.3,0.2-0.1,0.5c1,1.5,2.2,2.8,3.6,4c0.2,0.3,0.3,0.1,0.5-0.1c0.3-0.4,0.5-0.9,1-1.3c0.5-0.6,1-0.6,1.6-0.3
			c0.6,0.5,0.6,1,0.1,1.6c-0.3,0.4-0.5,0.7-0.8,1.1c-0.3,0.2-0.3,0.4,0.1,0.8c1.3,0.8,2.9,1.5,4.2,2.1c0.5,0.1,0.5-0.1,0.7-0.6
			c0.2-1.8,0.2-3.7,0.1-5.7c-0.2-1.4-0.5-2.9-0.8-4.1c-0.1-0.3-0.2-0.6-0.1-0.8c0.1-0.5,0.5-0.9,1-0.8c0.5-0.1,1,0.2,1.1,0.8
			c0.4,1.3,0.7,2.5,0.9,3.8c1.1,9.3-1.9,17-9.3,22.6c-5,3.7-10.7,5.4-17,4.5c-8-1.2-13.9-5.2-17.8-12.2C1.1,31.1,0.3,26.1,0.9,21
			C2.6,9.2,12.7,0.6,24.6,0.7c0.7,0,1.3,0,2,0.2C27.8,0.8,29,1.1,30,1.3z M3.9,17.7c0,0.2-0.2,0.7,0.5,0.8C6.3,19.2,8,20,9.6,21.1
			c0.2,0.3,0.3,0.1,0.5-0.1c0.3-0.4,0.8-1,1.1-1.5c0.5-0.6,1-0.6,1.6-0.3c0.4,0.3,0.6,1,0.3,1.6c-0.3,0.4-0.5,0.9-1,1.3
			c-0.3,0.2-0.3,0.4,0.1,0.8c1.6,1.2,2.9,2.8,4.1,4.4c0.1,0.2,0.2,0.3,0.7,0.2c0.4-0.2,1-0.6,1.5-0.9c0.6-0.4,1.3-0.2,1.6,0.4
			c0.4,0.6,0.2,1.3-0.4,1.6c-0.4,0.2-1,0.6-1.5,0.9c-0.2,0.1-0.3,0.2-0.1,0.5c0.9,1.8,1.6,3.8,2.2,5.8c0.1,0.3,0.2,0.4,0.6,0.4
			c0.5-0.1,1,0,1.6-0.3c0.8-0.1,1.3,0.3,1.3,1c0,0.7-0.3,1.2-1,1.3c-0.5,0.1-1.1,0.2-1.6,0.3c-0.2,0.1-0.3,0.1-0.3,0.4
			c0.2,1.9,0.1,3.9-0.2,5.9c-0.1,0.3,0.1,0.5,0.4,0.6c0.8,0.2,1.7,0.2,2.3,0.3c6.6,0.3,12.2-1.9,16.9-6.6c2.3-2.3,3.8-5,4.8-8.1
			c0.1-0.5,0-0.7-0.5-0.9c-1.7-0.6-3.4-1.4-5-2.5c-0.2-0.3-0.5-0.1-0.8,0.1c-0.3,0.4-0.5,0.9-1,1.3c-0.5,0.6-1,0.6-1.6,0.3
			c-0.6-0.4-0.6-1-0.3-1.6c0.3-0.4,0.5-0.9,1-1.3c0.3-0.2,0.1-0.5-0.1-0.8c-1.6-1.2-2.9-2.8-4.1-4.6c-0.1-0.2-0.2-0.3-0.5-0.1
			c-0.4,0.2-1,0.6-1.5,0.9c-0.6,0.4-1.3,0.2-1.6-0.4c-0.4-0.6-0.2-1.3,0.4-1.6c0.4-0.2,1-0.6,1.5-0.9c0.2-0.1,0.4-0.2,0.1-0.5
			c-0.9-1.8-1.6-3.8-2.2-5.8c-0.1-0.3-0.2-0.4-0.6-0.4c-0.5,0.1-1.1,0.2-1.6,0.3c-0.8,0.1-1.3-0.3-1.3-0.8c-0.2-0.6,0.3-1.2,1-1.3
			c0.5-0.1,1.1-0.2,1.6-0.3c0.3-0.1,0.4-0.2,0.3-0.4c-0.1-0.5,0-1-0.1-1.8C28,6.5,28,5,28.2,4c0.1-0.5,0-0.8-0.5-0.8
			c-0.5-0.1-1-0.2-1.5-0.2c-5.6-0.6-10.8,0.9-15.3,4.4C7.8,10,5.5,13.4,3.9,17.7z M3.3,20.9c-0.1,0.5-0.2,0.8-0.1,1.3
			C2.5,30.2,5.5,36.8,12,41.7c1.6,1.2,3.4,2.1,5.3,2.9c0.3,0.1,0.6,0.4,0.8-0.3c0.2-1.7,0.3-3.3,0.2-4.9c-0.1-0.3-0.2-0.6-0.6-0.5
			c-0.5,0.1-1,0-1.4,0.2c-0.8,0.1-1.3-0.3-1.3-0.8c-0.1-0.8,0.3-1.2,1-1.3c0.5-0.1,1,0,1.6-0.3c0.3-0.1,0.3-0.1,0.3-0.4
			c-0.4-1.8-1-3.3-1.8-5.1c-0.1-0.3-0.2-0.3-0.7-0.2c-0.4,0.2-0.8,0.5-1.2,0.7c-0.6,0.4-1.3,0.2-1.6-0.4c-0.4-0.6-0.2-1.3,0.6-1.6
			c0.4-0.2,0.8-0.5,1.2-0.7c0.3-0.1,0.3-0.2,0.2-0.7c-1-1.5-2.2-2.8-3.4-4c-0.2-0.3-0.5-0.1-0.7,0c-0.3,0.4-0.5,0.9-1,1.3
			c-0.5,0.6-1,0.6-1.6,0.3c-0.6-0.4-0.6-1-0.3-1.6c0.3-0.4,0.5-0.7,0.8-1.1c0.3-0.2,0.3-0.4-0.1-0.8c-1.3-0.8-2.9-1.5-4.2-2.1
			C3.6,20.5,3.2,20.4,3.3,20.9z"/>
		<path class="st2" d="M44,11.6c0.7,0.2,1,0.8,0.9,1.5c-0.2,0.7-0.8,1-1.5,0.9s-0.8-0.7-0.9-1.5C42.7,11.8,43.3,11.4,44,11.6z"/>
	</g>
</g>
</svg>
