<?xml version="1.0" encoding="utf-8"?>
<!-- Generator: Adobe Illustrator 25.4.1, SVG Export Plug-In . SVG Version: 6.00 Build 0)  -->
<svg version="1.1" id="Capa_1" xmlns="http://www.w3.org/2000/svg" xmlns:xlink="http://www.w3.org/1999/xlink" x="0px" y="0px"
	 viewBox="0 0 444 343.7" style="enable-background:new 0 0 444 343.7;" xml:space="preserve">
<style type="text/css">
	.st0{fill:none;stroke:#00E9C5;stroke-width:9.6331;stroke-miterlimit:10;}
	.st1{fill:#00E9C5;stroke:#00E9C5;stroke-width:1.4;stroke-miterlimit:10;}
</style>
<path class="st0" d="M106.3,42.7c-13.7-5.2-29.2,3.7-31,18.9l-9,75.3c-2,16.4-0.6,33.1,3.9,49l24.5,85.8l-76.2,27.2
	c-11.3,4-16.8,16.8-11.9,27.7l0,0c4.4,9.9,15.8,14.8,26,11l89.8-33.1c17.3-6.4,26.5-25.1,21.1-42.7l-4.2-13.5l43.8,20l55.7,55.1
	c8.8,8.7,23,8.8,31.9,0.1l0,0c8.9-8.7,9.2-23,0.5-32l-56.9-59.2c-6.1-6.3-13.3-11.4-21.3-15.1l-41.3-18.8v-57.9L173,152
	c8.7,4.7,19.1,5.4,28.3,1.7l54.7-21.4c11.4-4.5,15.9-18.2,9.4-28.6l0,0c-5-7.9-14.9-11.2-23.6-7.8L197,113.3
	c-3.7,1.4-20.4-6.7-23.8-8.8l-8.2-5.1c-3-1.9-5.7-4.3-7.7-7.2l-18.2-25"/>
<path class="st0" d="M144.7,75.1"/>
<path class="st0" d="M138.1,68.2l37.1,6.9c0.2,0,0.3,0.1,0.5,0.1c13.3,3.7,22.3,6.2,25.7,7.5l38.2,14.2L208.3,109"/>
<circle class="st0" cx="138.1" cy="36.5" r="31.7"/>
<g>
	<line class="st0" x1="316.9" y1="142.6" x2="316.9" y2="142.6"/>
	<path class="st0" d="M314,141.5"/>
	<path class="st0" d="M261.2,124.7l32.9,9.1l22.8,8.8c6.8,2.6,21.1,11.9,31,15.6c28,10.6,56.7,17.6,60.7,19.1c8.4,3,16.5-0.6,19-8.6
		c2.5-8-1.8-15.5-10.5-18c-1.6-0.5-28.1-9.2-61.5-17.8c-3.6-1-47.1-8-50.6-8.9c-11.4-2.9-27-7.2-40.1-11"/>
	<line class="st0" x1="305.8" y1="138.2" x2="305.8" y2="138.2"/>
	<path class="st0" d="M302.8,137.1"/>
</g>
<g>
	<g>
		<path class="st1" d="M443.3,106.2c0.2,4.5-0.7,8.8-3,12.8c-0.3,0.5-0.7,0.8-1.3,0.8c-0.8-0.2-1.2-0.9-0.8-1.8
			c0.6-1,1.1-2.3,1.5-3.4c0.7-2,1.1-4.1,1.2-6.2c0-0.7,0-0.7-0.5-0.7c-1.5,0.3-3.2,0.7-4.5,1.2c-0.3,0.2-0.5,0.3-0.3,0.7
			c0.2,0.5,0.3,0.8,0.6,1.3c0.2,0.7,0.1,1.2-0.6,1.5c-0.5,0.2-1.2,0.1-1.5-0.6c-0.2-0.5-0.6-1-0.8-1.5c-0.2-0.3-0.2-0.3-0.5-0.2
			c-1.7,0.9-2.9,2-4.3,3.2c-0.3,0.2-0.2,0.3,0,0.7c0.3,0.3,0.7,0.7,1,0.9c0.5,0.5,0.6,1.2,0.3,1.7c-0.5,0.5-1.2,0.4-1.7-0.1
			c-0.3-0.3-0.7-0.7-1-0.9c-0.2-0.2-0.3-0.2-0.5,0c-1.1,1.4-2.1,2.9-2.8,4.6c-0.2,0.3,0,0.3,0.2,0.5c0.5,0.2,1,0.2,1.5,0.6
			c0.7,0.3,0.8,0.8,0.8,1.5c-0.3,0.7-0.8,0.8-1.5,0.6c-0.5-0.2-0.8-0.3-1.3-0.4c-0.3-0.2-0.5-0.2-0.7,0.3c-0.4,1.5-0.6,3.2-0.8,4.6
			c0,0.5,0.2,0.5,0.7,0.5c1.8-0.3,3.6-0.9,5.4-1.6c1.3-0.6,2.6-1.3,3.7-2c0.3-0.2,0.5-0.3,0.8-0.3c0.5,0,1,0.2,1,0.7
			c0.2,0.5,0.1,1-0.4,1.3c-1.2,0.8-2.2,1.4-3.4,2c-8.6,3.7-16.8,3.2-24.4-2.4c-5-3.7-8.3-8.7-9.3-14.9c-1.2-7.9,0.9-14.9,6.5-20.6
			c3.6-3.7,8.2-5.9,13.3-6.8c11.7-1.8,22.9,5.3,26.3,16.8c0.2,0.7,0.4,1.3,0.4,2C443.2,103.9,443.2,105.1,443.3,106.2z M420,86
			c-0.2,0-0.7,0-0.7,0.7c-0.1,2-0.3,3.8-0.9,5.7c-0.2,0.3,0,0.3,0.2,0.5c0.5,0.2,1.2,0.4,1.7,0.6c0.7,0.3,0.8,0.8,0.8,1.5
			c-0.2,0.5-0.8,0.8-1.5,0.8c-0.5-0.2-1-0.2-1.5-0.6c-0.3-0.2-0.5-0.2-0.7,0.3c-0.7,1.8-1.8,3.6-3,5.2c-0.2,0.2-0.2,0.3,0,0.7
			c0.3,0.3,0.8,0.8,1.3,1.1c0.5,0.5,0.6,1.2,0.1,1.7s-1.2,0.6-1.7,0.1c-0.3-0.3-0.8-0.8-1.3-1.1c-0.2-0.2-0.3-0.2-0.5,0
			c-1.4,1.4-3.2,2.7-4.9,3.8c-0.3,0.2-0.3,0.3-0.2,0.7c0.2,0.5,0.4,1,0.8,1.5c0.3,0.7,0.1,1.3-0.6,1.5c-0.7,0.2-1.2,0.1-1.5-0.6
			c-0.2-0.5-0.6-1-0.8-1.5c-0.2-0.2-0.2-0.3-0.5-0.2c-1.8,0.8-3.7,1.2-5.7,1.5c-0.3,0-0.5,0.2-0.5,0.5c0,0.8,0.3,1.7,0.4,2.3
			c1.6,6.4,5.4,11.1,11.2,14.2c2.9,1.6,5.9,2.2,9.1,2.2c0.5,0,0.7-0.2,0.8-0.7c0.1-1.8,0.3-3.6,0.9-5.6c0.2-0.3,0-0.5-0.3-0.7
			c-0.5-0.2-1-0.2-1.5-0.6c-0.7-0.3-0.8-0.8-0.8-1.5c0.2-0.7,0.8-0.8,1.5-0.8c0.5,0.2,1,0.2,1.5,0.6c0.3,0.2,0.5,0,0.7-0.3
			c0.7-1.8,1.8-3.6,3.2-5.3c0.2-0.2,0.2-0.3,0-0.5c-0.3-0.3-0.8-0.8-1.3-1.1c-0.5-0.5-0.6-1.2-0.1-1.7c0.5-0.5,1.2-0.6,1.7-0.1
			c0.3,0.3,0.8,0.8,1.3,1.1c0.2,0.2,0.3,0.3,0.5,0c1.4-1.4,3.2-2.7,4.9-3.8c0.3-0.2,0.3-0.3,0.2-0.7c-0.2-0.5-0.6-1-0.8-1.5
			c-0.3-0.7-0.1-1.3,0.4-1.5c0.5-0.3,1.2-0.1,1.5,0.6c0.2,0.5,0.6,1,0.8,1.5c0.2,0.3,0.3,0.3,0.5,0.2c0.5-0.2,1-0.4,1.7-0.6
			c1.3-0.4,2.7-0.8,3.8-0.9c0.5,0,0.8-0.2,0.7-0.7c0-0.5-0.1-1-0.3-1.5c-1.1-5.6-4-10.1-8.7-13.4C428.5,87.5,424.6,86.3,420,86z
			 M416.8,86.4c-0.5,0-0.8,0-1.3,0.3c-7.9,1.7-13.3,6.5-16.1,14.1c-0.7,1.8-1,3.9-1.2,5.9c0,0.3-0.2,0.7,0.5,0.7
			c1.7-0.3,3.3-0.7,4.7-1.2c0.3-0.2,0.5-0.3,0.3-0.7c-0.2-0.5-0.4-1-0.6-1.3c-0.3-0.7-0.1-1.3,0.4-1.5c0.7-0.3,1.2-0.1,1.5,0.6
			c0.2,0.5,0.4,1,0.8,1.5c0.2,0.3,0.2,0.3,0.5,0.2c1.7-0.9,2.9-2,4.3-3.2c0.3-0.2,0.2-0.3,0-0.7c-0.3-0.3-0.7-0.7-1-0.9
			c-0.5-0.5-0.6-1.2-0.1-1.7c0.5-0.5,1.2-0.6,1.7,0.1c0.3,0.3,0.7,0.7,1,0.9c0.2,0.3,0.3,0.2,0.7,0c1.1-1.4,2.1-2.9,2.8-4.4
			c0.2-0.3,0-0.5-0.2-0.7c-0.5-0.2-1-0.2-1.5-0.6c-0.7-0.3-0.8-0.8-0.8-1.5c0.2-0.7,0.8-0.8,1.5-0.8c0.5,0.2,0.8,0.3,1.3,0.4
			c0.3,0.2,0.5,0.2,0.7-0.3c0.4-1.5,0.6-3.2,0.8-4.6C417.2,86.5,417.2,86.1,416.8,86.4z"/>
		<path class="st1" d="M437.5,122.6c0,0.7-0.4,1.2-1.1,1.3s-1.2-0.4-1.3-1.1s0.4-1,1.1-1.3C436.9,121.4,437.5,121.9,437.5,122.6z"/>
	</g>
</g>
</svg>
