<svg id="Iconos" xmlns="http://www.w3.org/2000/svg" viewBox="0 0 50 50"><defs><style>.cls-1{fill:#ff3737;}</style></defs><path class="cls-1" d="M26.86,17.05a3.13,3.13,0,1,1,2.07-3.91h0A3.13,3.13,0,0,1,26.86,17.05Zm-1.65-5.36a2.48,2.48,0,1,0,3.1,1.64A2.49,2.49,0,0,0,25.21,11.69Z"/><path class="cls-1" d="M34.37,5.53l-2.1.65a.32.32,0,0,0-.22.4.34.34,0,0,0,.41.22h0l1.79-.55L35.09,9,30.54,11.3a.32.32,0,0,0-.14.43h0A5,5,0,1,1,23.62,9.6a5.9,5.9,0,0,1,.82-.34l1.27-.39.26.86a.31.31,0,0,0,.4.21L28,9.45A.32.32,0,0,0,28.2,9l-.26-.86,1.74-.53a.32.32,0,0,0,.21-.4.32.32,0,0,0-.4-.22h0l-2,.63a.31.31,0,0,0-.21.4h0l.26.86-1,.3-.26-.86a.33.33,0,0,0-.41-.21l-1.59.49a5.6,5.6,0,0,0-2.73,1.88l-.3-.16A1.31,1.31,0,0,0,20,12.68l.4.22h0A5.67,5.67,0,1,0,31.5,15.22a5.78,5.78,0,0,0-.13-2.83,5.26,5.26,0,0,0-.25-.66l4.51-2.3a.31.31,0,0,0,.16-.38l-1-3.3a.32.32,0,0,0-.4-.22ZM20.28,12.11a.66.66,0,0,1,.62-1.17l.23.12a3.35,3.35,0,0,0-.21.36,6.24,6.24,0,0,0-.36.84Z"/><path class="cls-1" d="M27.1,14a.33.33,0,0,1-.41-.21h0a.77.77,0,0,0-1-.52.32.32,0,0,1-.4-.22.32.32,0,0,1,.21-.4,1.43,1.43,0,0,1,1.79,1,.32.32,0,0,1-.21.4Z"/><path class="cls-1" d="M26.05,6a.34.34,0,0,1-.41-.22l-.37-1.23a.31.31,0,0,1,.21-.4.32.32,0,0,1,.4.21l.38,1.23A.33.33,0,0,1,26.05,6Z"/><path class="cls-1" d="M24.49,7.29a.31.31,0,0,1-.25,0l-1.13-.6A.32.32,0,0,1,23,6.23a.31.31,0,0,1,.43-.13l1.14.6a.32.32,0,0,1,.13.43.3.3,0,0,1-.19.16Z"/><path class="cls-1" d="M28.06,6.2A.34.34,0,0,1,27.65,6a.33.33,0,0,1,0-.24l.6-1.14a.32.32,0,0,1,.44-.13.32.32,0,0,1,.13.43h0L28.25,6A.38.38,0,0,1,28.06,6.2Z"/><path class="cls-1" d="M31.07,7.22a.32.32,0,1,1-.19-.61.32.32,0,0,1,.38.46A.32.32,0,0,1,31.07,7.22Z"/><path class="cls-1" d="M21.42,29a7.48,7.48,0,0,0-3.37-1.38H18a.57.57,0,0,0-.52.5.54.54,0,0,0,.38.62,9.08,9.08,0,0,1,2.94,1.2.5.5,0,0,0,.5,0,.77.77,0,0,0,.38-.51l-.06-.14A1.12,1.12,0,0,0,21.42,29Z"/><path class="cls-1" d="M21.23,34.32c-.68-.35-1.42-.71-2.2-1a3.68,3.68,0,0,0-.7-.2l-.2,0a.65.65,0,0,0-.68.52.57.57,0,0,0,.42.62,9,9,0,0,1,2.76,1.15.59.59,0,0,0,.85-.17.56.56,0,0,0,.07-.45A.63.63,0,0,0,21.23,34.32Z"/><path class="cls-1" d="M40,24.83c-.64,0-1.27,0-1.92,0h-.85l-.34,0,0-.34a1.47,1.47,0,0,1,0-.25V20.91a.92.92,0,0,0-.19-.69.83.83,0,0,0-.64-.1A18,18,0,0,0,25.9,24.24c-.15.13-.3.28-.44.42L25,25.1l-.46-.44c-.14-.14-.29-.29-.44-.42A18,18,0,0,0,14,20.12a.83.83,0,0,0-.64.1.92.92,0,0,0-.19.69v3.31a1.47,1.47,0,0,1,0,.25l0,.34-.34,0H12c-.65,0-1.28,0-1.92,0a.89.89,0,0,0-.93.41V43c.14.31.39.43.88.47l1.24.08c1.94.12,3.94.25,5.9.44a25.71,25.71,0,0,1,7.59,1.79c.21.08.21.06.28.06s.07,0,.28-.06A25.71,25.71,0,0,1,32.87,44c2-.19,4-.32,5.9-.44L40,43.48c.49,0,.74-.16.88-.47V25.24A.89.89,0,0,0,40,24.83ZM21.09,43.42a65.76,65.76,0,0,0-10.24-1.07l-.56,0V26.08H13.2V38.51c0,.87,0,.92.91,1.1a19.6,19.6,0,0,1,6.82,2.79,5.85,5.85,0,0,1,.49.38l1,.93Zm3.35.33-.63-.57a19.06,19.06,0,0,0-3.64-2.6,20.58,20.58,0,0,0-5.17-2,.74.74,0,0,1-.64-.8c0-4.31,0-8.62,0-12.94v-3.6l.93.18c.35.07.67.13,1,.21A16.52,16.52,0,0,1,23,24.85c1.37,1.12,1.42,1.24,1.42,3Zm1.12,0V27.84c0-1.75.05-1.87,1.42-3a16.52,16.52,0,0,1,6.73-3.18c.33-.08.65-.14,1-.21l.93-.18v3.6c0,4.32,0,8.63,0,12.94a.74.74,0,0,1-.64.8,20.58,20.58,0,0,0-5.17,2,19.06,19.06,0,0,0-3.64,2.6Zm14.15-1.43-.56,0a65.76,65.76,0,0,0-10.24,1.07l-1.35.29,1-.93a5.85,5.85,0,0,1,.49-.38,19.6,19.6,0,0,1,6.82-2.79c.87-.18.91-.23.91-1.1V26.08h2.91Z"/><path class="cls-1" d="M28.72,30a.5.5,0,0,0,.5,0,9.08,9.08,0,0,1,2.94-1.2.54.54,0,0,0,.38-.62.57.57,0,0,0-.52-.5H32A7.48,7.48,0,0,0,28.58,29a1.12,1.12,0,0,0-.18.3l-.06.14A.77.77,0,0,0,28.72,30Z"/><path class="cls-1" d="M32.55,33.55a.65.65,0,0,0-.68-.52l-.2,0a3.68,3.68,0,0,0-.7.2c-.78.33-1.52.69-2.2,1a.63.63,0,0,0-.32.38.56.56,0,0,0,.07.45.59.59,0,0,0,.85.17,9,9,0,0,1,2.76-1.15A.57.57,0,0,0,32.55,33.55Z"/></svg>