<?xml version="1.0" encoding="utf-8"?>
<!-- Generator: Adobe Illustrator 25.4.1, SVG Export Plug-In . SVG Version: 6.00 Build 0)  -->
<svg version="1.1" id="Capa_1" xmlns="http://www.w3.org/2000/svg" xmlns:xlink="http://www.w3.org/1999/xlink" x="0px" y="0px"
	 viewBox="0 0 186.3 289.7" style="enable-background:new 0 0 186.3 289.7;" xml:space="preserve">
<style type="text/css">
	.st0{fill:none;stroke:#FF3737;stroke-width:14;stroke-linecap:round;stroke-linejoin:round;stroke-miterlimit:10;}
</style>
<path class="st0" d="M7,182.1V17.3C7,11.6,11.6,7,17.3,7h145.6c5.7,0,10.3,4.6,10.3,10.3v29.3c0,5.7-4.6,10.3-10.3,10.3H70.1
	c-5.7,0-10.3,4.6-10.3,10.3v35.3c0,5.7,4.6,10.3,10.3,10.3h86.6c5.7,0,10.3,4.6,10.3,10.3v29.2c0,5.7-4.6,10.3-10.3,10.3H70.1
	c-5.7,0-10.3,4.6-10.3,10.3v49.6c0,5.7,4.6,10.3,10.3,10.3H169c5.7,0,10.3,4.6,10.3,10.3v29.3c0,5.7-4.6,10.3-10.3,10.3H17.3
	c-5.7,0-10.3-4.6-10.3-10.3v-20.6"/>
<line class="st0" x1="7" y1="207.6" x2="7" y2="207.6"/>
</svg>
