<?xml version="1.0" encoding="utf-8"?>
<!-- Generator: Adobe Illustrator 25.4.1, SVG Export Plug-In . SVG Version: 6.00 Build 0)  -->
<svg version="1.1" id="Capa_1" xmlns="http://www.w3.org/2000/svg" xmlns:xlink="http://www.w3.org/1999/xlink" x="0px" y="0px"
	 viewBox="0 0 264.1 362.8" style="enable-background:new 0 0 264.1 362.8;" xml:space="preserve">
<style type="text/css">
	.st0{fill:none;stroke:#FF3737;stroke-width:14;stroke-linecap:round;stroke-linejoin:round;stroke-miterlimit:10;}
</style>
<path class="st0" d="M137.5,199.5c8.4-11,33.2-32.1,45.4-48.1c34.6-45.3,63.1-93.9,67.9-100.3c10.2-13.7,7.7-30.5-5.4-39.3
	c-13.3-8.9-29.3-5.1-38.6,9.4c-1.7,2.7-32.2,46.4-65.8,102.6c-3.6,6.1-40.4,81.7-43.9,87.5c-23.5,39.2-67.3,107.2-67.3,107.2
	l20,12.3l59.1-94.3"/>
<line class="st0" x1="123.4" y1="217.3" x2="123.4" y2="217.3"/>
<path class="st0" d="M119.8,222.1"/>
<path class="st0" d="M52,355.8c-2,0-4-0.5-5.8-1.7l-34-21c-5.2-3.2-6.8-10-3.6-15.2s10-6.8,15.2-3.6l34,21c5.2,3.2,6.8,10,3.6,15.2
	C59.3,353.9,55.7,355.8,52,355.8z"/>
<line class="st0" x1="43.5" y1="299.1" x2="62.6" y2="310.4"/>
<line class="st0" x1="55.8" y1="280.3" x2="74.4" y2="291.5"/>
<line class="st0" x1="67.1" y1="260" x2="86.8" y2="271.7"/>
</svg>
