<?xml version="1.0" encoding="utf-8"?>
<!-- Generator: Adobe Illustrator 25.4.1, SVG Export Plug-In . SVG Version: 6.00 Build 0)  -->
<svg version="1.1" id="Capa_1" xmlns="http://www.w3.org/2000/svg" xmlns:xlink="http://www.w3.org/1999/xlink" x="0px" y="0px"
	 viewBox="0 0 330 330.4" style="enable-background:new 0 0 330 330.4;" xml:space="preserve">
<style type="text/css">
	.st0{fill:#FF3737;}
</style>
<g>
	<g>
		<path class="st0" d="M329.9,164.8c0,31.7-8.3,61-25.1,88c-2.1,3.3-4.7,5.7-8.8,4.9c-5.8-1-8.3-7-5-12.5c4.4-7.4,8.5-15,11.9-22.9
			c5.8-13.7,9-27.9,10.7-42.6c0.5-4.1-0.1-4.9-3.6-4.5c-10.9,1.2-21.7,3.3-32.2,6.6c-2.9,0.9-3.9,2.1-2.4,5.1s2.7,6.2,3.9,9.3
			c1.6,4.4-0.1,8.6-4.1,10.4c-3.9,1.7-8.2,0.1-10.3-4.2c-1.6-3.4-3-6.8-4.4-10.3c-0.8-2-1.7-2.8-3.9-1.7
			c-11.1,5.6-21.3,12.5-30.7,20.5c-1.9,1.6-1.5,2.7,0.1,4.2c2.5,2.3,4.8,4.7,7.1,7.1c3.8,3.9,4,8.7,0.7,11.9
			c-3.2,3.1-7.9,2.9-11.7-0.7c-2.5-2.4-5-4.9-7.4-7.4c-1.4-1.5-2.5-1.7-4,0c-8.2,9.5-15.1,19.8-20.7,31c-0.9,1.8-0.5,2.7,1.3,3.5
			c3.5,1.4,7,2.8,10.3,4.3c4.5,2.1,6.4,6.4,4.7,10.4c-1.8,4.2-6.1,5.8-11,4c-3-1.2-6.1-2.3-9-3.7c-2.5-1.2-3.8-0.8-4.7,1.9
			c-3.5,10.7-5.5,21.7-6.8,32.9c-0.4,3.4,1.5,3.7,4.1,3.4c13.1-1.5,25.8-4.1,38.2-8.8c9.4-3.5,18.3-7.9,26.8-13.2
			c1.8-1.1,3.7-2.1,5.9-2.2c3.5,0,6.4,2.2,7.5,5.7c1.1,3.4-0.2,6.7-3.7,9c-7.8,5.2-16,9.7-24.8,13c-61.1,23.4-118,15.9-169.1-25.2
			C25.5,264.5,5.8,228,1.1,184.4c-6-55.6,11.7-103.1,52.7-141.3c26.7-24.8,58.7-38.7,95-42.3c82.5-8.1,157.8,45.8,176.9,126.5
			c1.1,4.6,1.9,9.3,2.6,14C329.5,149,330.2,156.9,329.9,164.8z M174.9,16.1c-1.6-0.3-4.1,0-4.4,4.2c-0.9,13.5-3.8,26.6-8.2,39.4
			c-0.6,1.8-0.2,2.7,1.6,3.4c3.8,1.5,7.7,3,11.4,4.8c4.1,2,5.7,6.2,4.1,10c-1.7,4-5.9,5.9-10.2,4.3c-3.5-1.3-7-2.7-10.4-4.3
			c-2.5-1.2-3.7-0.6-4.9,1.8c-6.2,12.9-14.1,24.7-23.7,35.3c-1.6,1.7-1.4,2.8,0.2,4.3c2.7,2.5,5.4,5.2,7.9,7.9
			c3.5,3.7,3.7,8.1,0.5,11.4c-3.3,3.4-7.8,3.3-11.6-0.3c-2.8-2.7-5.5-5.4-8.2-8.2c-1.3-1.4-2.3-1.4-3.8-0.1
			c-10.8,9.8-22.8,17.8-35.9,24.1c-2.2,1.1-2.5,2.3-1.6,4.4c1.5,3.3,2.9,6.6,4.2,10c1.8,4.8,0.1,9.1-4.2,10.9
			c-4.1,1.7-8.1-0.1-10.3-4.8c-1.6-3.5-3.1-7.1-4.5-10.7c-0.6-1.5-1.4-2.2-3.1-1.6c-13.1,4.5-26.6,7.4-40.5,8.4
			c-2.5,0.2-3.3,1.5-3.3,3.9c0.2,5.6,0.9,11.2,1.9,16.7c8.8,45.5,33.4,80,73.3,103.4c19.3,11.4,40.4,17.4,62.8,19
			c3.8,0.3,5.1-1.1,5.4-4.7c0.8-13.1,3.7-25.9,8-38.3c0.8-2.4,0.2-3.4-2-4.2c-3.6-1.4-7.2-2.8-10.7-4.5c-4.2-2-5.8-6.1-4.2-9.9
			c1.7-4.2,6-6.1,10.5-4.4c3.5,1.3,7,2.7,10.4,4.3c2.3,1.1,3.5,0.5,4.6-1.8c6.3-13,14.2-24.9,23.9-35.6c1.5-1.6,1.2-2.7-0.2-4
			c-2.7-2.6-5.4-5.2-7.9-7.9c-3.7-3.9-3.8-8.3-0.5-11.6c3.4-3.3,7.7-3.2,11.6,0.6c2.7,2.6,5.3,5.2,7.9,7.9c1.2,1.2,2.2,1.8,3.7,0.4
			c10.9-9.8,23-18,36.2-24.3c2-1,2.4-2.2,1.5-4.2c-1.5-3.4-3-6.9-4.3-10.4c-1.7-4.6-0.1-8.8,4-10.7c4-1.8,8.3,0,10.4,4.5
			c1.6,3.5,3.1,7.1,4.5,10.7c0.7,2,1.8,2.3,3.7,1.7c3.7-1.2,7.3-2.4,11.1-3.4c8.9-2.3,18-4.1,27.2-4.7c3.2-0.2,5.6-1,4.9-5.1
			c-0.5-3.4-0.5-7-1-10.4c-6-39.4-24.5-71.6-55.7-96.4C233.6,28.9,206.5,18.7,174.9,16.1z M152.6,16.2c-3.5,0.4-6.1,0.6-8.7,1
			C88,26.7,48.8,57.6,26.3,109.6c-5.6,13-8.4,26.8-10,40.9c-0.2,2.1-1,4.9,2.9,4.5c11.4-1.2,22.7-3.3,33.6-6.9
			c2.3-0.8,2.9-1.9,1.9-4.2c-1.5-3.2-2.8-6.4-4-9.7c-1.7-4.6-0.1-8.9,4-10.7s8.3-0.1,10.4,4.5c1.5,3.3,2.9,6.6,4.2,10
			c0.8,2,1.6,2.8,3.9,1.7c11.1-5.6,21.3-12.5,30.7-20.5c1.9-1.6,1.5-2.7-0.1-4.2c-2.5-2.4-5-4.9-7.4-7.4c-3.5-3.7-3.7-8.5-0.4-11.6
			c3.2-3.2,7.9-2.9,11.7,0.7c2.5,2.4,5,4.8,7.4,7.4c1.6,1.7,2.8,1.5,4.2-0.2c7.9-9.4,14.8-19.4,20.3-30.4c1.2-2.4,0.5-3.3-1.7-4.1
			c-3.4-1.3-6.7-2.7-10-4.2c-4.3-2-6-6.2-4.4-10.2c1.7-4.1,6-5.9,10.6-4.2c3.2,1.2,6.3,2.4,9.3,3.8c2.7,1.3,4,0.7,4.9-2.2
			c3.4-10.6,5.4-21.5,6.7-32.5C155.2,17.3,154.6,15.9,152.6,16.2z"/>
		<path class="st0" d="M283.5,275.8c0,4.5-3.3,7.8-7.8,7.8s-7.7-3.4-7.7-7.8c0.1-4.3,3.3-7.5,7.6-7.6
			C280.1,268,283.5,271.3,283.5,275.8z"/>
	</g>
</g>
</svg>
