<?xml version="1.0" encoding="utf-8"?>
<!-- Generator: Adobe Illustrator 25.4.1, SVG Export Plug-In . SVG Version: 6.00 Build 0)  -->
<svg version="1.1" id="Capa_1" xmlns="http://www.w3.org/2000/svg" xmlns:xlink="http://www.w3.org/1999/xlink" x="0px" y="0px"
	 viewBox="0 0 307.1 420.7" style="enable-background:new 0 0 307.1 420.7;" xml:space="preserve">
<style type="text/css">
	.st0{fill:none;stroke:#00E9C5;stroke-width:9.6331;stroke-miterlimit:10;}
	.st1{fill:none;stroke:#00E9C5;stroke-width:9.6331;stroke-linecap:round;stroke-linejoin:round;stroke-miterlimit:10;}
</style>
<g>
	<path class="st0" d="M174.5,85.6c18.4,0.1,32.8,14.8,32.7,33.3c-0.1,18.3-14.9,32.7-33.4,32.6c-18.1-0.1-32.8-15.1-32.6-33
		C141.4,100,156.1,85.5,174.5,85.6z"/>
	<path class="st1" d="M36.9,148.2c-5.3,2.6-8.4,8.1-8.1,13.8"/>
	<g>
		<path class="st0" d="M48.8,158.6L69,127.2c0,0,29-31.1,36-40.2c19.7-25.8,35.9-53.4,38.6-57.1c5.8-7.8,4.4-17.3-3.1-22.4
			c-7.6-5.1-16.7-2.9-21.9,5.3c-1,1.5-18.3,26.4-37.4,58.3c-2.1,3.5-23,46.5-24.9,49.7c-13.4,22.3-38.3,61-38.3,61l11.4,7l1.8-2.7"
			/>
		<path class="st0" d="M69,127.3"/>
		<path class="st0" d="M30.4,203.3c-1.1,0-2.3-0.3-3.3-0.9L7.8,190.5c-3-1.8-3.9-5.7-2-8.7c1.8-3,5.7-3.9,8.7-2l19.3,11.9
			c3,1.8,3.9,5.7,2,8.7C34.6,202.2,32.5,203.3,30.4,203.3z"/>
	</g>
	<path class="st1" d="M72.7,166.9c10.9-3.7,21-5.5,31.6-4.6c2.5,0.2,3.2,1.2,3.2,3.8c-0.3,11.8-5.6,11.2-13.3,9
		c-2.6-0.8-5.3-1.5-7.9-2.3c-0.4-0.1-0.8-0.2-1.1-0.3c-4.4-1.4-8.8-3-14.4-4.9L49.4,160c-8.4-3-17.6,1.8-20,10.4l0,0
		c-2.1,7.7,2,15.8,9.5,18.6c2.3,0.9,4.3,1.6,5.3,2c13,4.8,26.1,9.4,39.4,13.3c7.5,2.2,15,4.6,22.9,2.7c4.1-1,5.2,0.9,5.6,4.5
		c0.7,5.9,1.7,11.8,2.7,17.7c1.3,7.8,4.3,15.9,3.4,23.4c-1,7.6-5.4,14.9-9.2,21.8c-10.6,19.1-15.2,27.4-15,57.4
		c0,13.7,3,67.8,3.2,68.9c1.3,7.2,5.4,12,12.3,14.2c11.7,3.7,22.9-4.9,23.1-18c0.2-16.9,0.1-65.8,0.1-82.6c0-2.5,0-4.9,1.1-7.3
		c4.1-8.9,8.1-17.8,12-26.7c1.1-2.5,2.6-3.4,5.4-2.9c3.9,0.7,8,0.8,11.9-0.2c3.8-0.9,5.5,0.2,6.1,4.1c0.9,6,2.5,12,3.3,18.1
		c1.3,11,5.3,21,10.7,30.7c8.3,14.9,35.2,59.3,43.3,74.3c4.5,8.4,11.2,12.3,18.7,11.3c13.1-1.7,19.8-14.6,13.5-26.9
		c-8.6-17-37-62.9-45.8-79.7c-1.4-2.6-2.9-5.2-3.5-8.2c-7.8-41.6-15.4-83.3-21-125.2c-1.3-9.4-1.2-9.4-10.9-8.9c-0.3,0-0.7,0-1,0
		c-21.6,0-37.4-9.4-46.8-29.1c-0.9-1.9-1.5-4.2-4.1-4.5c-11.7-1-23.3-2.8-35.1-1.6c-0.4,0-0.8,0.1-1.2,0.2
		c-6.2,0.7-12.2,2.2-18.3,3.7c-0.4,0.1-0.8,0.3-1.2,0.3c-0.9,0.2-2.2,0.6-3.8,1.2"/>
</g>
<path class="st1" d="M261.5,142.2c23,0.2,41,18.5,40.9,41.6c-0.2,22.9-18.6,40.9-41.7,40.7c-22.6-0.2-41-18.8-40.7-41.2
	C220.1,160.1,238.5,142,261.5,142.2z"/>
<g>
	<line class="st1" x1="241.1" y1="203.3" x2="281.1" y2="163.3"/>
	<line class="st1" x1="241.1" y1="163.3" x2="281.1" y2="203.3"/>
</g>
</svg>
