<?xml version="1.0" encoding="utf-8"?>
<!-- Generator: Adobe Illustrator 25.4.1, SVG Export Plug-In . SVG Version: 6.00 Build 0)  -->
<svg version="1.1" id="Capa_1" xmlns="http://www.w3.org/2000/svg" xmlns:xlink="http://www.w3.org/1999/xlink" x="0px" y="0px"
	 viewBox="0 0 658.7 459.7" style="enable-background:new 0 0 658.7 459.7;" xml:space="preserve">
<style type="text/css">
	.st0{fill:#FF3737;}
	.st1{fill:none;stroke:#FF3737;stroke-width:18.8421;stroke-linecap:round;stroke-linejoin:round;}
	.st2{fill:none;stroke:#FF3737;stroke-width:18.8421;stroke-linecap:round;stroke-linejoin:round;stroke-dasharray:37.077,37.077;}
	
		.st3{fill:none;stroke:#FF3737;stroke-width:18.8421;stroke-linecap:round;stroke-linejoin:round;stroke-dasharray:39.4513,39.4513;}
	
		.st4{fill:none;stroke:#FF3737;stroke-width:18.8421;stroke-linecap:round;stroke-linejoin:round;stroke-dasharray:41.6867,41.6867;}
	.st5{fill:none;stroke:#FF3737;stroke-width:14;stroke-linecap:round;stroke-linejoin:round;stroke-miterlimit:10;}
	.st6{enable-background:new    ;}
</style>
<path class="st0" d="M270.9,382l46.2-38.4c7.1-5.9,17.3-5.9,24.4,0l46.2,38.4c4.4,3.6,6.9,9,6.9,14.7v43.9
	c0,10.5-8.5,19.1-19.1,19.1h-92.4c-10.5,0-19.1-8.5-19.1-19.1v-43.9C264,391,266.5,385.6,270.9,382z"/>
<g>
	<g>
		<line class="st1" x1="219.6" y1="360.2" x2="205.3" y2="345.6"/>
		<line class="st2" x1="179.3" y1="319.1" x2="36.6" y2="173.4"/>
		<path class="st1" d="M23.7,160.2L9.4,145.6c0,0,5.2-5.4,14.9-14.1"/>
		<path class="st3" d="M54.8,106.6C146.1,38,365-78.9,618.3,119.8"/>
		<path class="st1" d="M633.7,132.2c5.2,4.3,10.4,8.7,15.6,13.3L635,160.1"/>
		<line class="st4" x1="605.7" y1="190" x2="445.3" y2="353.8"/>
		<line class="st1" x1="430.7" y1="368.6" x2="416.4" y2="383.3"/>
		<g>
			<polygon class="st0" points="231.6,338.9 243.3,384.4 198,371.8 			"/>
		</g>
	</g>
</g>
<path class="st5" d="M567,157.1L328.8,400.3h1L91.5,157.1C91.5,157.1,308.1-70.4,567,157.1z"/>
<polyline class="st5" points="185,252.5 329.3,107.3 473.6,252.5 "/>
<circle class="st0" cx="329.3" cy="111.3" r="24.6"/>
<circle class="st0" cx="473.6" cy="252.5" r="24.6"/>
<circle class="st0" cx="185" cy="252.5" r="24.6"/>
<g class="st6">
	<path class="st0" d="M308.1,295.8c-5.1,0-8-1.7-8-7.2v-31.8c-9.7,0.3-19.6,0.3-29.3,0v31.8c0,8.4-6.8,7.2-12.9,7.2
		c-5.1,0-8-1.7-8-7.2v-74.9c0-8.2,8-6.8,13.7-6.8c4.5,0,7.2,2.1,7.2,6.8V240c9.7-0.3,19.6-0.3,29.3,0v-26.3c0-8.1,8-6.8,13.6-6.8
		c4.5,0,7.3,2.1,7.3,6.8v74.9C321,296.8,314,295.8,308.1,295.8z"/>
	<path class="st0" d="M402.5,295.8h-8c-4.1,0-6.8-0.8-9.4-4.1l-22.2-27.1H361v24.1c0,8.4-6.9,7.2-12.9,7.2c-5.1,0-8-1.7-8-7.2v-74.9
		c0-5.3,3.3-6.8,8-6.8h24.7c9.4,0,16.9-0.4,23.9,6.5c6.3,6.3,7.3,16.8,7.3,25.1c0,11.7-3.9,21.9-16.4,25l18.8,21.8
		c1.3,1.5,2.1,3.6,2.1,5.5C408.6,294.6,405.7,295.8,402.5,295.8z M380.5,225.4c-1.6-0.8-6.3-0.8-8.2-0.8h-3.7c-2.5,0-5.1,0-7.6,0.1
		v22.1h13.6c8,0,8.8-1.6,8.8-9.3C383.3,234.7,383.3,226.7,380.5,225.4z"/>
</g>
</svg>
