<?xml version="1.0" encoding="utf-8"?>
<!-- Generator: Adobe Illustrator 25.4.1, SVG Export Plug-In . SVG Version: 6.00 Build 0)  -->
<svg version="1.1" id="Capa_1" xmlns="http://www.w3.org/2000/svg" xmlns:xlink="http://www.w3.org/1999/xlink" x="0px" y="0px"
	 viewBox="0 0 473.6 369.5" style="enable-background:new 0 0 473.6 369.5;" xml:space="preserve">
<style type="text/css">
	.st0{enable-background:new    ;}
	.st1{fill:#00E9C5;}
	.st2{fill:none;stroke:#00E9C5;stroke-width:12;stroke-linecap:round;stroke-linejoin:round;stroke-miterlimit:10;}
	.st3{fill:#00E9C5;stroke:#00E9C5;stroke-width:2;stroke-miterlimit:10;}
	.st4{fill:none;stroke:#00E9C5;stroke-width:7;stroke-linecap:round;stroke-linejoin:round;stroke-miterlimit:10;}
	.st5{fill:none;stroke:#00E9C5;stroke-width:20;stroke-linecap:round;stroke-miterlimit:10;}
</style>
<g class="st0">
	<path class="st1" d="M461.5,366.5l-6.9,0c-7.7,0-12.1-1.8-12.1-10.3l0.2-87.5c-1.9,0.8-9.5,3.9-11.3,3.9c-7.7,0-8.5-7-8.5-13.1
		c0-5.4,2.3-8.2,7.2-10.2c10.5-4.3,20.1-9.4,31.6-9.4c6.1,0,9.7,3.9,9.7,9.8l-0.2,106.5C471.1,362.7,468.2,366.5,461.5,366.5z"/>
</g>
<g>
	<path class="st2" d="M6,236.6c4.6-12.4,9.6-15.4,23.3-14.9c21.5,0.7,43.1,1.2,64.6,2c2.8,0.1,4.3-0.8,5.8-2.9
		c7.9-11.9,16.1-23.7,23.7-35.8c7.5-11.7,17.5-21.1,26.7-31.3c11.6-12.9,31.2-31.9,43.7-44c7.7-7.3,17.3-12.2,27.6-14l118-20.6
		c10.4-1.8,20.2,5.5,21.5,15.9l0,0c1.1,9.8-5.6,18.6-15.2,20.3l-101.9,17.1l29.5-4.9c0,0-0.9,45.6-1.9,59.1c-0.3,4,0.7,5.2,4.9,4.7
		c12.3-1.4,24.6-2.5,36.9-3.6c4-0.4,8-0.2,11.6,1.9c5.3,3.1,8.2,9.2,7.2,15.5c-1,6.3-5.5,11.3-11.9,12.1
		c-10.1,1.4-20.2,2.2-30.3,3.2c-9.1,0.9-18.2,1.7-27.3,2.4c-2.1,0.2-4.1,0.4-6.2,0.5c-10.6,0-16.8-6.5-16.4-17
		c0.2-6.2,0.7-12.4,1-18.6c0.1-1.4,0.5-2.9-0.8-4.7c-3.8,4.1-7.2,7.6-10.8,11.8c-3.1,3.7-6.3,7.3-9.9,10.6c-3,2.9-3.1,4.3-0.2,6.6
		c10.1,7.9,20,16.1,30.2,23.9c5.7,4.4,9,9.9,10.2,16.9c5.1,30.9,10.3,61.8,15.5,92.6c1.8,11-4.1,19.9-14.5,21.7
		c-10.3,1.8-19.1-4.5-21-15.4c-4.9-28.2-9.9-56.4-14.6-84.7c-0.6-3.4-2-6-4.7-8.1c-20.9-16.6-41.6-33.1-62.3-49.7
		c-2.4-1.9-3.7-1.5-5.2,0.9c-8.8,13.2-17.5,26.3-26.3,39.4c-1.9,2.8-3.8,5.6-6,8.2c-3.7,4.6-8.7,6.6-14.4,6.5
		c-27.2-0.8-54.5-1.7-81.8-2.5c-7.6-0.2-13-4.1-17.1-10.2C6.9,244.2,6.5,240,6,236.6z"/>
	<path class="st2" d="M235.2,43.9c-3.1-17.9,8.6-34.4,26.8-37.5c17.8-3,34.5,8.8,37.7,26.7c3,17.7-9,34.7-26.8,37.7
		C255,73.9,238.3,62,235.2,43.9z"/>
</g>
<g>
	<g>
		<path class="st3" d="M472.2,73.5c0.9,5.2,0.4,10.3-1.6,15.4c-0.2,0.5-0.6,1.1-1.2,1c-1,0-1.6-0.8-1.1-1.9c0.6-1.4,0.9-2.8,1.2-4.1
			c0.6-2.3,0.8-4.8,0.5-7.4c-0.1-0.6-0.1-0.8-0.7-0.7c-1.7,0.5-3.6,1.1-5.1,2c-0.5,0.3-0.5,0.4-0.2,0.8c0.4,0.4,0.7,0.9,0.9,1.5
			c0.4,0.7,0.2,1.4-0.3,1.9c-0.5,0.4-1.4,0.2-1.9-0.3c-0.4-0.5-0.7-1-1.1-1.6c-0.2-0.3-0.4-0.4-0.6-0.2c-1.7,1.3-3.1,2.7-4.4,4.3
			c-0.2,0.3-0.2,0.5,0.1,0.6c0.5,0.2,0.9,0.7,1.5,1.1c0.7,0.5,0.8,1.3,0.6,2c-0.4,0.6-1.2,0.7-1.9,0.1c-0.6-0.4-0.9-0.7-1.5-1.1
			c-0.2-0.3-0.5-0.2-0.6,0.1c-1.1,1.8-2,3.8-2.5,5.8c-0.1,0.3-0.1,0.5,0.3,0.6c0.6,0.1,1.2,0.3,1.9,0.5c0.8,0.2,1.3,0.9,1.1,1.6
			c-0.2,0.6-0.8,1.2-1.8,0.9c-0.5-0.1-1-0.1-1.5-0.4c-0.5-0.1-0.6-0.1-0.7,0.4c-0.3,1.9-0.3,3.8-0.1,5.7c0.1,0.6,0.4,0.5,0.7,0.5
			c2.1-0.7,4.1-1.3,6.1-2.5c1.5-0.9,2.7-1.8,4.1-2.9c0.3-0.2,0.5-0.4,0.9-0.5c0.6-0.1,1.1,0.1,1.5,0.8c0.3,0.6,0.2,1.1-0.4,1.5
			c-1.1,1-2.4,2-3.8,2.9c-9.4,5.7-19,6.1-28.7,0.6c-6.5-3.5-10.8-9-12.9-16.1c-2.6-9-1.1-17.5,4.6-25c3.7-4.9,8.6-8.2,14.5-9.8
			c13.5-3.8,27.4,3,32.9,15.9c0.3,0.8,0.6,1.5,0.9,2.3C471.7,71,472,72.2,472.2,73.5z M442.3,53.5c-0.3,0.1-0.6,0.1-0.7,0.7
			c0.2,2.2,0.2,4.5-0.2,6.7c-0.1,0.3,0.1,0.5,0.4,0.5c0.6,0.2,1.4,0.3,2,0.5c0.6,0.2,1.2,0.8,0.9,1.7c-0.2,0.6-0.8,1.2-1.6,1.1
			c-0.6-0.1-1.2-0.3-1.9-0.3c-0.5-0.1-0.6-0.1-0.7,0.4c-0.7,2.4-1.6,4.6-2.9,6.5c-0.2,0.3-0.1,0.5,0.1,0.8c0.6,0.4,1.1,0.6,1.5,1.1
			c0.7,0.5,0.8,1.2,0.5,1.8c-0.4,0.7-1.2,0.8-1.9,0.3c-0.6-0.4-1.2-0.8-1.6-1.1c-0.2-0.2-0.3-0.1-0.6,0.1c-1.5,1.9-3.2,3.6-5.3,5
			c-0.3,0.2-0.4,0.4-0.2,0.8c0.4,0.4,0.7,1,0.9,1.7c0.4,0.7,0.3,1.6-0.3,1.9c-0.5,0.4-1.4,0.2-1.9-0.5c-0.4-0.5-0.7-1-1.1-1.6
			c-0.2-0.3-0.2-0.3-0.5-0.2c-2,1.2-4.2,2.1-6.6,2.6c-0.5,0.1-0.5,0.4-0.4,0.7c0.2,1,0.5,1.8,0.8,2.8c2.7,7.3,7.8,12.2,15.1,15
			c3.5,1.3,7.3,1.7,10.9,1.3c0.6-0.1,0.8-0.3,0.8-1c-0.2-2.2-0.1-4.3,0.2-6.5c0.1-0.3-0.1-0.6-0.4-0.5c-0.6-0.1-1.4-0.3-1.9-0.5
			c-0.6-0.2-1.2-0.8-0.9-1.5c0.2-0.6,0.8-1.2,1.6-1.1c0.6,0.1,1.2,0.3,1.9,0.5c0.3,0.1,0.6-0.1,0.7-0.4c0.7-2.4,1.6-4.6,2.9-6.5
			c0.2-0.3,0.1-0.5-0.1-0.6c-0.6-0.4-1.2-0.8-1.5-1.1c-0.7-0.5-0.8-1.3-0.3-1.9c0.5-0.7,1.2-0.7,1.9-0.1c0.6,0.4,1.2,0.8,1.5,1.1
			c0.2,0.2,0.3,0.2,0.6-0.1c1.5-1.9,3.2-3.6,5.3-5.2c0.3-0.2,0.2-0.3,0.2-0.6c-0.4-0.5-0.7-1-1.1-1.6c-0.4-0.7-0.2-1.4,0.3-1.9
			c0.5-0.4,1.4-0.2,1.9,0.5c0.4,0.5,0.7,1,1.1,1.6c0.2,0.3,0.3,0.2,0.6,0.2c0.6-0.3,1.2-0.7,1.8-0.9c1.3-0.5,2.9-1.1,4.4-1.6
			c0.5-0.1,1-0.4,0.7-0.9c-0.3-0.6-0.4-1-0.5-1.7c-2.1-6.3-6.2-11.1-12-14.2C452.2,53.8,447.6,52.9,442.3,53.5z M438.6,54.1
			c-0.6,0.1-1,0.4-1.3,0.4c-9,3.2-14.6,9.5-16.8,18.7c-0.6,2.3-0.6,4.7-0.4,7.1c0.1,0.3-0.1,0.8,0.6,0.7c1.8-0.5,3.7-1.1,5.3-2
			c0.3-0.2,0.4-0.4,0.2-0.6c-0.4-0.4-0.7-1-0.9-1.5c-0.4-0.7-0.2-1.4,0.3-1.9c0.5-0.4,1.4-0.2,1.9,0.5c0.4,0.4,0.7,1,0.9,1.7
			c0.2,0.3,0.4,0.4,0.6,0.2c1.7-1.3,3.1-2.7,4.4-4.3c0.2-0.3,0.2-0.5-0.1-0.6c-0.6-0.4-0.9-0.7-1.5-1.1c-0.7-0.5-0.8-1.3-0.3-1.9
			c0.4-0.6,1.2-0.7,1.9-0.1c0.6,0.4,0.9,0.7,1.5,1.1c0.3,0.2,0.5,0.2,0.6-0.1c1-1.8,2-3.6,2.5-5.6c0.1-0.3-0.1-0.5-0.4-0.5
			c-0.6-0.1-1.2-0.3-1.9-0.3c-0.8-0.2-1.2-0.9-1.1-1.6c0.2-0.6,0.8-1.2,1.7-0.9c0.5,0.1,1.2,0.3,1.7,0.3c0.5,0.1,0.6,0.1,0.7-0.4
			c0.3-1.9,0.3-3.8,0.2-5.5C439,54.1,438.9,54.1,438.6,54.1z"/>
		<path class="st3" d="M467.7,93.3c0.1,0.8-0.3,1.4-1.1,1.5c-0.8,0.1-1.4-0.4-1.5-1.1c-0.1-0.8,0.3-1.4,1.1-1.5
			C466.9,92.1,467.6,92.5,467.7,93.3z"/>
	</g>
</g>
<line class="st4" x1="379.7" y1="96.2" x2="396.8" y2="93.8"/>
<line class="st4" x1="387.1" y1="75.5" x2="403.9" y2="73.1"/>
<line class="st5" x1="365.1" y1="351.9" x2="365.2" y2="262"/>
<line class="st5" x1="320.2" y1="306.9" x2="410" y2="307.1"/>
</svg>
