<?xml version="1.0" encoding="utf-8"?>
<!-- Generator: Adobe Illustrator 25.4.1, SVG Export Plug-In . SVG Version: 6.00 Build 0)  -->
<svg version="1.1" id="Capa_1" xmlns="http://www.w3.org/2000/svg" xmlns:xlink="http://www.w3.org/1999/xlink" x="0px" y="0px"
	 viewBox="0 0 261.5 360.1" style="enable-background:new 0 0 261.5 360.1;" xml:space="preserve">
<style type="text/css">
	.st0{fill:none;stroke:#00E9C5;stroke-width:14;stroke-linecap:round;stroke-linejoin:round;stroke-miterlimit:10;}
	.st1{fill:none;stroke:#00E9C5;stroke-width:11.3179;stroke-linecap:round;stroke-linejoin:round;stroke-miterlimit:10;}
</style>
<line class="st0" x1="136.2" y1="198.1" x2="136.2" y2="198.1"/>
<path class="st0" d="M132.6,202.9"/>
<path class="st1" d="M136.2,198.1c8.4-11,33.2-32.1,45.4-48.1c34.6-45.3,63.1-93.9,67.9-100.3c10.2-13.7,7.7-30.5-5.4-39.3
	c-13.3-8.9-29.3-5.1-38.6,9.4c-1.7,2.7-32.2,46.4-65.8,102.6c-3.6,6.1-40.4,81.7-43.9,87.5c-23.5,39.2-67.3,107.2-67.3,107.2
	l20,12.3l59.1-94.3"/>
<line class="st1" x1="122.1" y1="215.9" x2="122.1" y2="215.9"/>
<path class="st1" d="M118.5,220.7"/>
<path class="st1" d="M50.7,354.4c-2,0-4-0.5-5.8-1.7l-34-21c-5.2-3.2-6.8-10-3.6-15.2s10-6.8,15.2-3.6l34,21
	c5.2,3.2,6.8,10,3.6,15.2C58,352.5,54.4,354.4,50.7,354.4z"/>
<line class="st1" x1="42.2" y1="297.7" x2="61.3" y2="309"/>
<line class="st1" x1="54.5" y1="278.9" x2="73.1" y2="290.1"/>
<line class="st1" x1="65.8" y1="258.6" x2="85.5" y2="270.3"/>
</svg>
