<?xml version="1.0" encoding="utf-8"?>
<!-- Generator: Adobe Illustrator 25.4.1, SVG Export Plug-In . SVG Version: 6.00 Build 0)  -->
<svg version="1.1" id="Capa_1" xmlns="http://www.w3.org/2000/svg" xmlns:xlink="http://www.w3.org/1999/xlink" x="0px" y="0px"
	 viewBox="0 0 332.6 321.9" style="enable-background:new 0 0 332.6 321.9;" xml:space="preserve">
<style type="text/css">
	.st0{fill:none;stroke:#FF3737;stroke-width:14;stroke-linecap:round;stroke-linejoin:round;stroke-miterlimit:10;}
	.st1{enable-background:new    ;}
	.st2{fill:#FF3737;}
	.st3{fill:none;stroke:#FF3737;stroke-width:20;stroke-linecap:round;stroke-miterlimit:10;}
</style>
<polyline class="st0" points="7,96.8 7,182.4 166.3,314.9 325.6,182.4 325.6,7 7,7 7,39.3 "/>
<g class="st1">
	<path class="st2" d="M114.9,103.5h-6.7c-3.4,0-5.7-0.7-7.9-3.4L81.9,77.4h-1.6v20.1c0,7-5.8,6-10.8,6c-4.2,0-6.7-1.4-6.7-6V34.9
		c0-4.4,2.8-5.7,6.7-5.7h20.7c7.9,0,14.1-0.3,20,5.4c5.2,5.2,6.1,14,6.1,21c0,9.8-3.2,18.3-13.7,20.9l15.7,18.2
		c1.1,1.2,1.8,3,1.8,4.6C120.1,102.5,117.6,103.5,114.9,103.5z M96.6,44.7C95.3,44,91.4,44,89.7,44h-3.1c-2.1,0-4.2,0-6.3,0.1v18.4
		h11.3c6.7,0,7.3-1.3,7.3-7.8C99,52.5,99,45.8,96.6,44.7z"/>
	<path class="st2" d="M194,84.1c-3.2,17.2-14.1,21-30.2,21c-32.4,0-31.5-19.4-31.5-45.3V34.9c0-6.8,6.7-5.7,11.3-5.7
		c3.8,0,6.1,1.8,6.1,5.7v31.7c0,5.4-0.2,13.9,2.2,18.9c2.2,4.4,7.4,4.6,11.9,4.6c4.4,0,9.7,0,11.9-4.6c2.4-5.1,2.2-13.4,2.2-18.9
		V34.9c0-6.8,6.9-5.7,11.5-5.7c3.9,0,5.9,1.8,5.9,5.7v24.9C195.3,67.9,195.5,76.3,194,84.1z"/>
	<path class="st2" d="M264,103.5c-3.2,0-5.1-0.2-7.2-2.8c-3.7-4.3-6.9-9.2-10.3-13.8c-6.3-8.8-12.5-17.5-18.8-26.4v37
		c0,6.8-5.6,6-10.4,6c-4.2,0-6.7-1.4-6.7-6V34.9c0-6.2,5.1-5.7,9.6-5.7c3.1,0,4.6,0.2,6.7,2.8c3.7,4.4,6.9,9.3,10.2,13.9
		c6.4,8.9,12.8,17.8,19.2,26.7V34.9c0-6.8,6.4-5.7,11.1-5.7c3.8,0,6,1.8,6,5.7v62.5C273.3,103.8,268.7,103.5,264,103.5z"/>
</g>
<line class="st3" x1="118.8" y1="219.3" x2="118.8" y2="145.5"/>
<line class="st3" x1="84.3" y1="184.8" x2="153.3" y2="184.8"/>
<g class="st1">
	<path class="st2" d="M209.7,241.2h-7.3c-8.4,0-13.1-1.5-13.1-9.1v-78c-2,0.7-10.2,3.6-12.2,3.6c-8.4,0-9.1-6.2-9.1-11.6
		c0-4.9,2.5-7.3,7.7-9.1c11.2-3.9,21.5-8.4,33.9-8.4c6.5,0,10.4,3.6,10.4,8.8V232C220.1,237.8,216.9,241.2,209.7,241.2z"/>
</g>
</svg>
