<?xml version="1.0" encoding="utf-8"?>
<!-- Generator: Adobe Illustrator 25.4.1, SVG Export Plug-In . SVG Version: 6.00 Build 0)  -->
<svg version="1.1" id="Capa_1" xmlns="http://www.w3.org/2000/svg" xmlns:xlink="http://www.w3.org/1999/xlink" x="0px" y="0px"
	 viewBox="0 0 658.7 459.7" style="enable-background:new 0 0 658.7 459.7;" xml:space="preserve">
<style type="text/css">
	.st0{fill:#FF3737;}
	.st1{fill:none;stroke:#FF3737;stroke-width:18.8421;stroke-linecap:round;stroke-linejoin:round;}
	.st2{fill:none;stroke:#FF3737;stroke-width:18.8421;stroke-linecap:round;stroke-linejoin:round;stroke-dasharray:37.077,37.077;}
	
		.st3{fill:none;stroke:#FF3737;stroke-width:18.8421;stroke-linecap:round;stroke-linejoin:round;stroke-dasharray:39.4513,39.4513;}
	
		.st4{fill:none;stroke:#FF3737;stroke-width:18.8421;stroke-linecap:round;stroke-linejoin:round;stroke-dasharray:41.6867,41.6867;}
	.st5{fill:none;stroke:#FF3737;stroke-width:14;stroke-linecap:round;stroke-linejoin:round;stroke-miterlimit:10;}
	.st6{fill:none;stroke:#FF3737;stroke-width:20;stroke-linecap:round;stroke-miterlimit:10;}
	.st7{enable-background:new    ;}
</style>
<path class="st0" d="M270.9,382l46.2-38.4c7.1-5.9,17.3-5.9,24.4,0l46.2,38.4c4.4,3.6,6.9,9,6.9,14.7v43.9
	c0,10.5-8.5,19.1-19.1,19.1h-92.4c-10.5,0-19.1-8.5-19.1-19.1v-43.9C264,391,266.5,385.6,270.9,382z"/>
<g>
	<g>
		<line class="st1" x1="219.6" y1="360.2" x2="205.3" y2="345.6"/>
		<line class="st2" x1="179.3" y1="319.1" x2="36.6" y2="173.4"/>
		<path class="st1" d="M23.7,160.2L9.4,145.6c0,0,5.2-5.4,14.9-14.1"/>
		<path class="st3" d="M54.8,106.6C146.1,38,365-78.9,618.3,119.8"/>
		<path class="st1" d="M633.7,132.2c5.2,4.3,10.4,8.7,15.6,13.3L635,160.1"/>
		<line class="st4" x1="605.7" y1="190" x2="445.3" y2="353.8"/>
		<line class="st1" x1="430.7" y1="368.6" x2="416.4" y2="383.3"/>
		<g>
			<polygon class="st0" points="231.6,338.9 243.3,384.4 198,371.8 			"/>
		</g>
	</g>
</g>
<path class="st5" d="M567,157.1L328.8,400.3h1L91.5,157.1C91.5,157.1,308.1-70.4,567,157.1z"/>
<polyline class="st5" points="185,252.5 329.3,107.3 473.6,252.5 "/>
<circle class="st0" cx="329.3" cy="111.3" r="24.6"/>
<circle class="st0" cx="473.6" cy="252.5" r="24.6"/>
<circle class="st0" cx="185" cy="252.5" r="24.6"/>
<line class="st6" x1="264" y1="275.7" x2="264" y2="229.2"/>
<line class="st6" x1="240.8" y1="252.5" x2="287.2" y2="252.5"/>
<g class="st7">
	<path class="st0" d="M345.3,313.3c-8.6,0-44.5-2.7-44.5-14.2c0-4,1.9-8,3.2-11.6s3.8-6.3,8-6.3c1.1,0,2.5,0.2,3.6,0.6
		c10.1,3.2,19.6,6.3,30.4,6.3c12,0,15-4.4,15-16c0-11-5.5-12.9-15.4-13.5c-7.8-0.4-15.4-0.2-23.2-0.2c-10.5,0-8.6-8.7-8.6-16.3
		c0-5.5,3.8-7.8,8.9-7.8h12.4c15.4,0,21.1-0.2,21.1-16.7c0-11-5.3-11.8-15.4-11.8c-5.1,0-10.3,0.4-15.4,1.1
		c-2.7,0.4-6.1,1.5-8.9,1.5c-8.6,0-8.2-9.5-8.7-15.6c0-0.4,0-0.8,0-1.1c0-3,1.1-4.9,3.4-6.8c3.2-2.5,24.7-3.4,29.1-3.4
		c24.5,0,44.5,6.5,44.5,34.6c0,9.9-2.3,18.6-9.3,25.8c11.6,6.5,14.4,17.3,14.4,29.8C389.9,301.1,373.6,313.3,345.3,313.3z"/>
</g>
</svg>
