<?xml version="1.0" encoding="utf-8"?>
<!-- Generator: Adobe Illustrator 25.4.1, SVG Export Plug-In . SVG Version: 6.00 Build 0)  -->
<svg version="1.1" id="Capa_1" xmlns="http://www.w3.org/2000/svg" xmlns:xlink="http://www.w3.org/1999/xlink" x="0px" y="0px"
	 viewBox="0 0 658.7 459.7" style="enable-background:new 0 0 658.7 459.7;" xml:space="preserve">
<style type="text/css">
	.st0{fill:#FF3737;}
	.st1{fill:none;stroke:#FF3737;stroke-width:18.8421;stroke-linecap:round;stroke-linejoin:round;}
	.st2{fill:none;stroke:#FF3737;stroke-width:18.8421;stroke-linecap:round;stroke-linejoin:round;stroke-dasharray:37.077,37.077;}
	
		.st3{fill:none;stroke:#FF3737;stroke-width:18.8421;stroke-linecap:round;stroke-linejoin:round;stroke-dasharray:39.4513,39.4513;}
	
		.st4{fill:none;stroke:#FF3737;stroke-width:18.8421;stroke-linecap:round;stroke-linejoin:round;stroke-dasharray:41.6867,41.6867;}
	.st5{fill:none;stroke:#FF3737;stroke-width:14;stroke-linecap:round;stroke-linejoin:round;stroke-miterlimit:10;}
	.st6{fill:none;stroke:#FF3737;stroke-width:20;stroke-linecap:round;stroke-miterlimit:10;}
	.st7{enable-background:new    ;}
</style>
<path class="st0" d="M270.9,382l46.2-38.4c7.1-5.9,17.3-5.9,24.4,0l46.2,38.4c4.4,3.6,6.9,9,6.9,14.7v43.9
	c0,10.5-8.5,19.1-19.1,19.1h-92.4c-10.5,0-19.1-8.5-19.1-19.1v-43.9C264,391,266.5,385.6,270.9,382z"/>
<g>
	<g>
		<line class="st1" x1="219.6" y1="360.2" x2="205.3" y2="345.6"/>
		<line class="st2" x1="179.3" y1="319.1" x2="36.6" y2="173.4"/>
		<path class="st1" d="M23.7,160.2L9.4,145.6c0,0,5.2-5.4,14.9-14.1"/>
		<path class="st3" d="M54.8,106.6C146.1,38,365-78.9,618.3,119.8"/>
		<path class="st1" d="M633.7,132.2c5.2,4.3,10.4,8.7,15.6,13.3L635,160.1"/>
		<line class="st4" x1="605.7" y1="190" x2="445.3" y2="353.8"/>
		<line class="st1" x1="430.7" y1="368.6" x2="416.4" y2="383.3"/>
		<g>
			<polygon class="st0" points="231.6,338.9 243.3,384.4 198,371.8 			"/>
		</g>
	</g>
</g>
<path class="st5" d="M567,157.1L328.8,400.3h1L91.5,157.1C91.5,157.1,308.1-70.4,567,157.1z"/>
<polyline class="st5" points="185,252.5 329.3,107.3 473.6,252.5 "/>
<circle class="st0" cx="329.3" cy="111.3" r="24.6"/>
<circle class="st0" cx="473.6" cy="252.5" r="24.6"/>
<circle class="st0" cx="185" cy="252.5" r="24.6"/>
<line class="st6" x1="270" y1="275.7" x2="270" y2="229.2"/>
<line class="st6" x1="246.8" y1="252.5" x2="293.2" y2="252.5"/>
<g class="st7">
	<path class="st0" d="M377,310.8h-68c-11,0-9.9-7.8-9.9-16c0-7.6,7-13.3,12-18.2l18.1-18.2c4.6-4.6,9.3-8.9,13.5-13.9
		c6.1-7.2,14.4-16.9,14.4-27c0-9.7-2.3-11.2-11.8-11.2c-6.3,0-12.7,0.6-18.8,1.5c-3.2,0.4-7.4,1.7-10.6,1.7c-8.7,0-8.5-8.4-9.5-14.8
		c0-0.8-0.2-1.3-0.2-2.1c0-5.9,4.6-8.2,9.7-8.9c9.7-1.3,19.8-2.3,29.5-2.3c22.4,0,41.4,7.8,41.4,33.1c0,31.5-27.7,53-49.2,72
		c13.1-0.6,26.4-1.1,39.5-1.1c11,0,10.5,7.6,10.5,15.8C387.5,307.9,383.5,310.8,377,310.8z"/>
</g>
</svg>
