<?xml version="1.0" encoding="utf-8"?>
<!-- Generator: Adobe Illustrator 25.4.1, SVG Export Plug-In . SVG Version: 6.00 Build 0)  -->
<svg version="1.1" id="Capa_1" xmlns="http://www.w3.org/2000/svg" xmlns:xlink="http://www.w3.org/1999/xlink" x="0px" y="0px"
	 viewBox="0 0 298.1 268.4" style="enable-background:new 0 0 298.1 268.4;" xml:space="preserve">
<style type="text/css">
	.st0{fill:#00E9C5;}
	.st1{fill:none;stroke:#00E9C5;stroke-width:6.2402;stroke-linecap:round;stroke-linejoin:round;stroke-miterlimit:10;}
	.st2{fill:none;stroke:#00E9C5;stroke-width:6.2402;stroke-linecap:round;stroke-linejoin:round;stroke-dasharray:19.7398,19.7398;}
	.st3{fill:none;stroke:#00E9C5;stroke-width:6.2402;stroke-linecap:round;stroke-linejoin:round;}
	.st4{enable-background:new    ;}
	.st5{fill:none;stroke:#00E9C5;stroke-width:20;stroke-linecap:round;stroke-miterlimit:10;}
</style>
<g id="Capa_1_00000062902902829589047450000001561394434965207440_">
	<path class="st0" d="M158.5,220.6h-45.8c-2,0-3.7,1.7-3.7,3.7s1.7,3.7,3.7,3.7h45.8c2,0,3.7-1.7,3.7-3.7
		C162.2,222.2,160.5,220.6,158.5,220.6z"/>
	<path class="st0" d="M112,140.3c0-2-1.7-3.7-3.7-3.7H61.4c-2,0-3.7,1.7-3.7,3.7s1.7,3.7,3.7,3.7h46.8
		C110.3,144.1,112,142.5,112,140.3z"/>
	<path class="st0" d="M95.4,228.1h4.4c2,0,3.7-1.7,3.7-3.7s-1.7-3.7-3.7-3.7h-4.4c-2,0-3.7,1.7-3.7,3.7
		C91.7,226.4,93.4,228.1,95.4,228.1z"/>
	<path class="st0" d="M44,144.1h4.4c2,0,3.7-1.7,3.7-3.7s-1.7-3.7-3.7-3.7H44c-2,0-3.7,1.7-3.7,3.7S42,144.1,44,144.1z"/>
	<circle class="st1" cx="176.3" cy="20.8" r="17.7"/>
	<path class="st1" d="M156,75.4L169.5,89h32c5.1,0,9.3-4.2,9.3-9.3l0,0c0-5.1-4.2-9.3-9.3-9.3h-22.2v-3.1c0-7.2-4.9-13.6-11.8-15.6
		l-0.8-0.3c-8.2-2.4-16.8,2.2-19.6,10.4l-8.8,25.7v80.8h-26.4c-5,0-9.2,4-9.2,9.2l0,0c0,5,4,9.2,9.2,9.2h46.3v-41l17,28.8v43.8
		c0,5.6,4.4,10,10,10l0,0c5.6,0,10-4.4,10-10v-47.1l-23.9-46L166,92.4l1.9-5.3"/>
	<path class="st1" d="M156.6,52.1L130,63.7c-2.4,1.1-3.4,4-2.1,6.3l10.2,17.8"/>
	<g>
		<g>
			<line class="st2" x1="46.3" y1="259" x2="206.8" y2="259"/>
			<line class="st3" x1="220.2" y1="259" x2="231.8" y2="259"/>
			<g>
				<polygon class="st0" points="229.1,268.4 245.2,259 229.1,249.8 				"/>
			</g>
		</g>
	</g>
</g>
<g id="Capa_2_00000157309693482034019810000017343183942546267537_">
</g>
<path class="st1" d="M268.6,236l23.7-15.4c3.7-2.3,3.7-5.9,0-8.2l-23.7-15.4c-2.3-1.4-5.5-2.3-9.1-2.3h-27.1
	c-6.5,0-11.8,2.8-11.8,6.4V232c0,3.6,5.3,6.4,11.8,6.4h27.1C262.9,238.3,266.3,237.4,268.6,236z"/>
<g class="st4">
	<path class="st0" d="M287.4,161.7h-3.6c-4.1,0-6.4-0.9-6.4-5.4v-46.4c-1,0.4-5,2.1-6,2.1c-4.1,0-4.5-3.7-4.5-6.9
		c0-2.9,1.2-4.3,3.8-5.4c5.5-2.3,10.7-5,16.8-5c3.2,0,5.1,2.1,5.1,5.2v56.5C292.6,159.7,291,161.7,287.4,161.7z"/>
</g>
<line class="st5" x1="228.7" y1="151.3" x2="228.7" y2="104.9"/>
<line class="st5" x1="205.5" y1="128.1" x2="251.9" y2="128.1"/>
<path class="st1" d="M51.1,236l23.7-15.4c3.7-2.3,3.7-5.9,0-8.2l-23.7-15.4c-2.3-1.4-5.5-2.3-9.1-2.3H14.9c-6.5,0-11.8,2.8-11.8,6.4
	V232c0,3.6,5.3,6.4,11.8,6.4H42C45.4,238.3,48.8,237.4,51.1,236z"/>
<g>
	<path class="st0" d="M47,65.8C42.8,73.4,32,74,24.3,74c-5.1,0-10.4-0.2-15.5-0.7c-3.2-0.3-6.4-0.7-6.4-4.7v-3.4c0-4.2,0.7-6,5.2-6
		c2.2,0,4.3,0.2,6.4,0.4C18,60,21.9,60,25.9,60c8,0,7.2-0.6,7.2-8.2c0-2.8-0.3-3.6-2.9-4.8c-4.4-1.9-8.8-3.4-13.2-5.3
		C5.7,37,3.2,34.5,3.2,22c0-17.8,9-19.1,24.4-19.1c4.5,0,9,0.2,13.5,0.5c3.2,0.2,6.6,0.7,6.6,4.7v3.3c0,4.2-0.7,6-5.2,6
		c-3.7,0-7.5-0.5-11.2-0.5c-2.5,0-5.1-0.1-7.6-0.1c-3.8,0-4.5,1.2-4.5,4.9v1.2c0,3,0.1,3.6,2.9,4.9c2.8,1.2,5.7,2.3,8.6,3.4
		c3.5,1.5,7.1,2.8,10.4,4.7c7,3.7,7.9,7.7,7.9,15.3C49.1,55.4,49,62.2,47,65.8z"/>
	<path class="st0" d="M107.8,67.6c-4.8,5-12,5.5-18.5,5.5h-20c-4,0-6.2-1.4-6.2-5.6V8.9c0-4.2,2.6-5.3,6.2-5.3h15.4
		c5.1,0,11.4-0.4,16.1,1.9c6.6,3.2,8.6,9.9,8.6,16.7c0,4.9-0.9,9.5-4.5,13c6.6,3.4,8,9.8,8,16.6C113,57.5,111.9,63.3,107.8,67.6z
		 M93,18.7c-1.1-1.9-2.7-1.7-4.6-1.7c-3,0-6,0-8.9,0.1v15.2h4.4c7.7,0,10-0.4,10-8.9C93.8,22,93.7,19.8,93,18.7z M93.7,45.8
		c-3-0.7-6.2-0.7-9.3-0.7h-5v14.5c1.6,0.1,3,0.1,4.6,0.1h2.4c6.4,0,10.4,0,10.4-7.8C96.8,49.1,96.7,46.5,93.7,45.8z"/>
</g>
</svg>
