<?xml version="1.0" encoding="utf-8"?>
<!-- Generator: Adobe Illustrator 25.4.1, SVG Export Plug-In . SVG Version: 6.00 Build 0)  -->
<svg version="1.1" xmlns="http://www.w3.org/2000/svg" xmlns:xlink="http://www.w3.org/1999/xlink" x="0px" y="0px"
	 viewBox="0 0 1080 1080" style="enable-background:new 0 0 1080 1080;" xml:space="preserve">
<style type="text/css">
	.st0{fill:#F2F2F2;}
	.st1{clip-path:url(#SVGID_00000130616197180964749470000016605131726682393782_);fill:#494949;}
	.st2{clip-path:url(#SVGID_00000130616197180964749470000016605131726682393782_);fill:#E7B49F;}
	.st3{opacity:0.5;clip-path:url(#SVGID_00000130616197180964749470000016605131726682393782_);fill:#E7B49F;}
	.st4{clip-path:url(#SVGID_00000130616197180964749470000016605131726682393782_);fill:#00E9C5;}
	.st5{clip-path:url(#SVGID_00000130616197180964749470000016605131726682393782_);fill:#7A5A13;}
	.st6{opacity:0.5;clip-path:url(#SVGID_00000130616197180964749470000016605131726682393782_);fill:#E0E0E0;}
	.st7{clip-path:url(#SVGID_00000130616197180964749470000016605131726682393782_);}
	.st8{fill:#E7B49F;}
	.st9{fill:#43251A;}
	.st10{opacity:0.5;clip-path:url(#SVGID_00000130616197180964749470000016605131726682393782_);fill:#494949;}
	.st11{clip-path:url(#SVGID_00000130616197180964749470000016605131726682393782_);fill:#FFFFFF;}
	.st12{fill:#B27B67;}
	.st13{fill:#FFFFFF;}
	.st14{fill:#E8BA7C;}
	.st15{fill:#826C3A;}
	.st16{fill:#B27767;}
	.st17{fill:#633020;}
	.st18{clip-path:url(#SVGID_00000130616197180964749470000016605131726682393782_);fill:#E0E0E0;}
	.st19{fill:#00E9C5;}
	.st20{font-family:'CachetStd-Bold';}
	.st21{font-size:52.7523px;}
	.st22{clip-path:url(#SVGID_00000106120537065854591110000002572342276804935046_);fill:#494949;}
	.st23{clip-path:url(#SVGID_00000106120537065854591110000002572342276804935046_);fill:#E7B49F;}
	.st24{opacity:0.5;clip-path:url(#SVGID_00000106120537065854591110000002572342276804935046_);fill:#E7B49F;}
	.st25{clip-path:url(#SVGID_00000106120537065854591110000002572342276804935046_);fill:#00E9C5;}
	.st26{clip-path:url(#SVGID_00000106120537065854591110000002572342276804935046_);fill:#43251A;}
	.st27{opacity:0.5;clip-path:url(#SVGID_00000106120537065854591110000002572342276804935046_);fill:#43251A;}
	.st28{clip-path:url(#SVGID_00000106120537065854591110000002572342276804935046_);fill:#7A5A13;}
	.st29{opacity:0.5;clip-path:url(#SVGID_00000106120537065854591110000002572342276804935046_);fill:#E0E0E0;}
	.st30{clip-path:url(#SVGID_00000106120537065854591110000002572342276804935046_);}
	.st31{opacity:0.5;clip-path:url(#SVGID_00000106120537065854591110000002572342276804935046_);fill:#494949;}
	.st32{clip-path:url(#SVGID_00000106120537065854591110000002572342276804935046_);fill:#FFFFFF;}
	.st33{clip-path:url(#SVGID_00000106120537065854591110000002572342276804935046_);fill:#E0E0E0;}
</style>
<g id="Capa_3">
	<g>
		<path class="st0" d="M132,507.1c8.6-13.5,17.5-26.6,26.4-39.3c37.6-53.4,75.7-101.8,94.4-165.3c15.7-53.5,37.1-110.9,86.7-142.3
			c33.2-21,77.6-24.1,115.1-13c20.9,6.2,39.4,18.4,56.9,31.5c45.6,34.1,86.2,74.7,132.6,107.6c40.4,28.6,102.7,65.7,154.3,52.9
			c51.4-12.8,91.6-13,137.1,17.6c37.8,25.5,66.4,65.4,75.2,110.4c2.1,10.9,3.2,22.1,1.8,33.1c-1.3,10-4.5,19.7-7.8,29.3
			c-8,23.2-16.4,46.6-29.8,67.2c-40.9,61.3-109.9,71.3-176.2,84.3c-23.5,4.6-47.2,9.3-68.8,19.5c-47.4,22.5-78.5,68.6-107.1,112.5
			c-24.4,37.4-29,81.8-56.6,119.5c-22.4,30.7-53.4,56.4-90.2,66.1c-24.9,6.6-51.1,5.6-76.8,4.1c-35.7-2.1-71.6-5.1-106.4-13.8
			C198.9,965.7,117.4,898.5,75,811.8C25.2,709.9,75.7,595,132,507.1z"/>
	</g>
</g>
<g id="Capa_2">
	<g>
		<defs>
			<path id="SVGID_1_" d="M132,507.1c8.6-13.5,17.5-26.6,26.4-39.3c37.6-53.4,75.7-101.8,94.4-165.3
				c15.7-53.5,37.1-110.9,86.7-142.3c33.2-21,77.6-24.1,115.1-13c20.9,6.2,39.4,18.4,56.9,31.5c45.6,34.1,86.2,74.7,132.6,107.6
				c40.4,28.6,102.7,65.7,154.3,52.9c51.4-12.8,91.6-13,137.1,17.6c37.8,25.5,66.4,65.4,75.2,110.4c2.1,10.9,3.2,22.1,1.8,33.1
				c-1.3,10-4.5,19.7-7.8,29.3c-8,23.2-16.4,46.6-29.8,67.2c-40.9,61.3-109.9,71.3-176.2,84.3c-23.5,4.6-47.2,9.3-68.8,19.5
				c-47.4,22.5-78.5,68.6-107.1,112.5c-24.4,37.4-29,81.8-56.6,119.5c-22.4,30.7-53.4,56.4-90.2,66.1c-24.9,6.6-51.1,5.6-76.8,4.1
				c-35.7-2.1-71.6-5.1-106.4-13.8C198.9,965.7,117.4,898.5,75,811.8C25.2,709.9,75.7,595,132,507.1z"/>
		</defs>
		<clipPath id="SVGID_00000060030577086584934040000016622993837007105959_">
			<use xlink:href="#SVGID_1_"  style="overflow:visible;"/>
		</clipPath>
		<path style="clip-path:url(#SVGID_00000060030577086584934040000016622993837007105959_);fill:#494949;" d="M544.3,891.1H400.5
			l-126.4-19.3l-16.5-4.3c0,0,0,7.8-0.4,18.8l-7.3,61.2c0,0-11.7,29.9-17.6,36.6c-6,6.8,23,9.6,23,9.6l227.1,34.7l87.3-55
			C569.5,973.6,549,928.2,544.3,891.1z"/>
		<path style="clip-path:url(#SVGID_00000060030577086584934040000016622993837007105959_);fill:#E7B49F;" d="M418.1,445.1
			c0,0-8.1-3.7-8.4-24.1c-0.3-20.4-100.2-33.4-100.2-33.4s1.4,28.5-12.8,48.8l3.7,29l37.5,35.1h62.1l29.7-28.3l-4-20.8L418.1,445.1z
			"/>
		<path style="opacity:0.5;clip-path:url(#SVGID_00000060030577086584934040000016622993837007105959_);fill:#E7B49F;" d="
			M356.9,440.7c2.4-0.3,4.7-0.7,6.9-1.2l-51.5-51.5c-1.8-0.2-2.7-0.4-2.7-0.4s0.8,15.9-4.8,32.4c0,0.1,0,0.1-0.1,0.2
			c-0.2,0.5-0.4,1-0.5,1.5c-0.1,0.2-0.1,0.3-0.2,0.5c-0.2,0.5-0.4,1-0.6,1.5c-0.1,0.1-0.1,0.3-0.2,0.4c-0.7,1.7-1.5,3.5-2.3,5.2
			c-1.2,2.4-2.6,4.8-4.2,7.1l3.7,29l15.9,14.9l18.5,3.7C327.2,453.1,346.1,443.6,356.9,440.7z"/>
		<path style="clip-path:url(#SVGID_00000060030577086584934040000016622993837007105959_);fill:#E7B49F;" d="M305.7,363
			c-0.7,6.5,2.4,21.8,7.8,37.8c8,23.7,39.9,38.7,50.2,38.7c9.9,0,43.1-6.5,53.7-36.3c3.6-10.1,7.6-21.4,10.2-33.4c0,0-1.3,5.7,2,5.9
			s3.4-7.1,10.9-26.3c7.5-19.2-1.5-18.4-1.5-18.4l-4.2,1.4l-4.5-9l-44.5-18.9l-53.1-4.5l-25.2,12.6l-4,10.8c0,0-7.9-3.7-2.7,17.2
			c0,0,1,10,0,17.1C299.7,364.8,305.7,363,305.7,363z"/>
		<path style="clip-path:url(#SVGID_00000060030577086584934040000016622993837007105959_);fill:#00E9C5;" d="M440.2,300
			c0,0,2.2,42.3-5.4,32.4c-7.6-9.9-26.5-23.8-67.5-26.5c-40.9-2.7-51.7,3.1-63.9,17.5c0,0-4.1,0-2.7-12.1s3.2-22,3.2-22l2.2-15.3
			l72.4-12.1l55.8,24.3L440.2,300z"/>
		<path style="clip-path:url(#SVGID_00000060030577086584934040000016622993837007105959_);fill:#E7B49F;" d="M577.4,603.7
			c0,0,18,31.5,20.2,54c0,0,0,8.4,6.1,11.6c0,0,18.9-15.5,53.3-32.8c34.4-17.3,87.7-67.2,87.7-67.2s2.7-17.5,25.6-17.5
			c22.9,0,18.9-6.7,29.7,0c0,0,7.4,11.5-8.8,13.5c0,0,14.8,6.1,31.7,4.7c16.9-1.3,64.1-9.4,70.2-9.4c6.1,0,6.1,9.4,0,9.4
			c0,0,6.7,8.1-18.9,12.8c0,0,5.4,6.1-18.9,8.8s-5.4,4-27,6.1c-21.6,2-54,0.7-67.5,6.1c-13.5,5.4-58.7,56.7-84.3,91.8
			c-25.6,35.1-38.7,34.7-51.3,46.6c-8,7.5-20.2,39.1-43.2,7.4c0,0-47.9-34.4-64.8-68.2l-3.3-12l-5.4-59.5L577.4,603.7z"/>
		<path style="opacity:0.5;clip-path:url(#SVGID_00000060030577086584934040000016622993837007105959_);fill:#E7B49F;" d="
			M663.8,632.8c-72.2,33.6-89.1,69.7-89.1,69.7c-39.8-27.2-37.4-92.8-37.4-92.8c-2.3,0.4-4.7-0.3-7.2-1.9l-21.6,1.9l5.4,59.5l3.3,12
			c16.9,33.7,64.8,68.2,64.8,68.2c22.9,31.7,35.2,0.1,43.2-7.4c0.8-0.8,1.6-1.5,2.4-2.1C617,708,646.2,656.9,663.8,632.8z"/>
		<path style="clip-path:url(#SVGID_00000060030577086584934040000016622993837007105959_);fill:#00E9C5;" d="M296.7,436.3
			c0,0,22.9,63.4,83,58s38.5-49.3,38.5-49.3s34.4,22.3,84.3,34.4s77.2,124.7,77.2,124.7s-47.3,2.4-70.3,14.6c0,0,4.2,41.5,3.6,63.1
			s14.5,170.1,31.4,209.2c0,0-157.2,25-231.5,0c0,0-48.6-12.1-55.3-23.6c0,0,2.7-74.9-6.7-112s5.4-112,5.4-112l-12.1-4.7L211,626.6
			h-38.5l-16.9,7.4c0,0-3.4-89.7,37.8-139.7c0,0,16.2-10.3,61.4-30.4S296.7,436.3,296.7,436.3z"/>
		
			<ellipse style="clip-path:url(#SVGID_00000060030577086584934040000016622993837007105959_);fill:#7A5A13;" cx="339.2" cy="340.6" rx="4.4" ry="6.7"/>
		<path style="opacity:0.5;clip-path:url(#SVGID_00000060030577086584934040000016622993837007105959_);fill:#E0E0E0;" d="
			M512.9,681.9c0.7-21.6-3.6-63.1-3.6-63.1c7.5-4,17.6-6.9,27.9-9.1c-17.9,2.9-42.2-61-42.2-61v99.2l18,42.2
			C512.9,686.5,512.9,683.7,512.9,681.9z"/>
		
			<ellipse style="clip-path:url(#SVGID_00000060030577086584934040000016622993837007105959_);fill:#7A5A13;" cx="395.2" cy="342.7" rx="4.4" ry="6.7"/>
		<g style="clip-path:url(#SVGID_00000060030577086584934040000016622993837007105959_);">
			<path class="st8" d="M373.6,349.3c0.7,3.4,1.3,6.9,1.9,10.3c0.3,1.7,0.6,3.4,1,5c0.2,0.8,0.4,1.6,0.7,2.4c0.2,0.5,0.8,1.6,1,2.5
				c0.5,1.8,0.6,3.8,0.2,5.6c-0.4,1.9-1.4,3.7-3,4.8c-1.6,1.1-3.4,1.7-5.2,1.8c-0.9,0.1-1.8,0-2.7-0.1c-0.9-0.1-1.7-0.3-2.6-0.5
				c0.9,0,1.7-0.1,2.6-0.1c0.9-0.1,1.7-0.2,2.5-0.4l1.2-0.3c0.4-0.1,0.8-0.3,1.1-0.5l0.6-0.2l0.5-0.3c0.3-0.2,0.7-0.4,0.9-0.7
				c2.3-2,2.7-5.6,1.9-8.6c-0.2-0.8-0.5-1.2-0.9-2.3c-0.3-0.9-0.5-1.8-0.7-2.7c-0.3-1.8-0.6-3.5-0.7-5.2
				C373.6,356.3,373.4,352.8,373.6,349.3z"/>
		</g>
		<g style="clip-path:url(#SVGID_00000060030577086584934040000016622993837007105959_);">
			<path class="st9" d="M355.5,326.9c-3.4-2-6.6-4-9.9-5.5c-1.6-0.8-3.3-1.5-4.9-2.1c-1.7-0.6-3.4-1.1-5.2-1.2
				c-1.8-0.1-3.6,0.1-5.3,0.5c-1.8,0.4-3.5,1.1-5.1,2c-3.3,1.8-6.2,4.3-8.8,7.2l-0.3-0.3c2.1-3.3,4.8-6.3,8-8.7
				c1.6-1.2,3.4-2.2,5.4-2.9c2-0.7,4-1.1,6.2-1.2c2.1-0.1,4.2,0.1,6.3,0.6c2.1,0.5,4,1.3,5.8,2.4c1.8,1.1,3.3,2.4,4.7,3.9
				c1.4,1.5,2.6,3.1,3.5,5L355.5,326.9z"/>
		</g>
		<g style="clip-path:url(#SVGID_00000060030577086584934040000016622993837007105959_);">
			<path class="st9" d="M380.7,327.5c1.1-1.5,2.5-2.7,3.9-3.8c1.5-1.1,3.1-2,4.8-2.7c1.7-0.7,3.5-1.2,5.4-1.3
				c1.9-0.1,3.8-0.1,5.6,0.1c1.9,0.2,3.7,0.6,5.5,1.4c1.7,0.7,3.3,1.7,4.8,2.8c2.9,2.3,5.1,5.2,6.7,8.3l-0.4,0.2
				c-2.1-2.7-4.6-5.2-7.5-6.8c-2.9-1.6-6.1-2.5-9.3-2.5c-1.6,0-3.2,0.2-4.8,0.6c-1.6,0.4-3.1,0.8-4.7,1.2c-3.2,0.8-6.4,1.9-9.8,2.9
				L380.7,327.5z"/>
		</g>
		<path style="opacity:0.5;clip-path:url(#SVGID_00000060030577086584934040000016622993837007105959_);fill:#494949;" d="
			M383.3,902.2l-82.2-26.3l-27.1-4.1l-16.5-4.3c0,0,0,7.8-0.4,18.8l-7.3,61.2c0,0-11.7,29.9-17.6,36.6c-6,6.8,23,9.6,23,9.6
			l74.2,11.3C334.9,923.8,383.3,902.2,383.3,902.2z"/>
		<path style="opacity:0.5;clip-path:url(#SVGID_00000060030577086584934040000016622993837007105959_);fill:#E0E0E0;" d="
			M296.7,436.3c0.2,0.5,1.9,8.2-41.8,27.6c-45.2,20.1-61.4,30.4-61.4,30.4C152.3,544.3,155.7,634,155.7,634l16.9-7.4H211l13.1,4.8
			c-0.5-4.4-0.7-7.5-0.7-7.5s-4-86.4,40.6-103c44.5-16.6,72.7-35.9,72.7-35.9C308.6,468.6,297,437.1,296.7,436.3z"/>
		<path style="clip-path:url(#SVGID_00000060030577086584934040000016622993837007105959_);fill:#FFFFFF;" d="M375.2,494.6
			c-0.9,0-1.9,0-2.8,0c-0.2,0-0.4,0-0.7,0c-1.1,0-2.2,0-3.3-0.1c-0.2,0-0.5,0-0.7,0c-0.9-0.1-1.8-0.1-2.6-0.2
			c-0.3,0-0.5-0.1-0.8-0.1c-1.1-0.1-2.1-0.3-3.2-0.4c-0.1,0-0.2,0-0.2,0c-1-0.2-1.9-0.3-2.9-0.5c-0.2,0-0.5-0.1-0.7-0.1
			c-0.9-0.2-1.9-0.4-2.8-0.7c-0.1,0-0.1,0-0.2,0c-1-0.3-2-0.5-3-0.8c-0.2-0.1-0.3-0.1-0.5-0.2c-0.9-0.3-1.7-0.6-2.5-0.9
			c-0.1,0-0.3-0.1-0.4-0.1c-1-0.4-1.9-0.7-2.8-1.1c0,0-2.3-1-2.3-1s-68.3,36.6-109.5,48.5c0,0,35.9,1.7,22.7,106.6l0.2,0.1
			c0,0,0,0,0,0.1c0,0.1-0.1,0.4-0.2,0.8c0,0,0,0,0,0c-0.1,0.6-0.3,1.4-0.5,2.5c0,0,0,0,0,0c0,0,0,0,0,0c-3.7,28.2-6.2,55.3-7.9,79.8
			c0,0,0,0,0,0c0,1.2,0,2.5,0.1,3.7c0,0.1,0,0.3,0,0.4c0,1.2,0.1,2.3,0.1,3.5c0,0.2,0,0.3,0,0.5c0.1,1.2,0.1,2.3,0.2,3.4
			c0,0.1,0,0.2,0,0.3c0.1,1.2,0.2,2.3,0.3,3.5c0,0,0,0,0,0c0.1,1.1,0.2,2.2,0.4,3.3c0,0.2,0,0.3,0.1,0.5c0.1,1,0.3,2,0.5,3
			c0,0.2,0.1,0.4,0.1,0.5c0.2,1,0.3,1.9,0.5,2.9c0,0.1,0.1,0.3,0.1,0.4c0.2,1,0.4,2,0.7,2.9c9.4,37.1,6.7,112,6.7,112
			c6.7,11.5,55.3,23.6,55.3,23.6c74.2,25,231.5,0,231.5,0c-16.9-39.1-32.1-187.6-31.4-209.2c0-0.7,0-1.3,0-2c0,0,0,0,0,0
			c0-0.7,0-1.4,0-2.1c0,0,0,0,0-0.1c0-0.7,0-1.4,0-2.2c0,0,0-0.1,0-0.1c0-0.7,0-1.5,0-2.2c0,0,0-0.1,0-0.1c0-0.7,0-1.5,0-2.3
			c0,0,0-0.1,0-0.1c0-0.8,0-1.5-0.1-2.3c0-0.1,0-0.1,0-0.2c0-0.8,0-1.5-0.1-2.3c0-0.1,0-0.1,0-0.2c0-0.8-0.1-1.6-0.1-2.4
			c0-0.1,0-0.1,0-0.2c0-0.8-0.1-1.6-0.1-2.4c0-0.1,0-0.1,0-0.2c0-0.8-0.1-1.6-0.1-2.4c0-0.1,0-0.1,0-0.2c0-0.8-0.1-1.6-0.1-2.4
			c0-0.1,0-0.1,0-0.2c0-0.8-0.1-1.6-0.1-2.4c0,0,0-0.1,0-0.1c0-0.8-0.1-1.6-0.1-2.5c0,0,0-0.1,0-0.1c0-0.8-0.1-1.6-0.2-2.4
			c0,0,0-0.1,0-0.1c-0.1-0.8-0.1-1.6-0.2-2.4c0,0,0-0.1,0-0.1c-0.1-0.8-0.1-1.6-0.2-2.4c0,0,0,0,0,0l-3-32.9
			c0,0-17.6-58.5-14.8-86.5c0,0-78.6-42.6-78.8-42.4c-0.1,0.1-0.2,0.2-0.3,0.3c-0.2,0.2-0.4,0.4-0.6,0.6c-0.1,0.1-0.2,0.2-0.3,0.3
			c-0.2,0.2-0.4,0.4-0.6,0.6c-0.1,0.1-0.2,0.2-0.4,0.3c-0.2,0.2-0.4,0.4-0.7,0.6c-0.1,0.1-0.2,0.2-0.3,0.3c-0.5,0.4-1,0.8-1.5,1.1
			c-0.1,0.1-0.2,0.2-0.4,0.3c-0.2,0.2-0.4,0.3-0.7,0.4c-0.2,0.1-0.4,0.3-0.6,0.4c-0.2,0.1-0.5,0.3-0.7,0.4c-0.2,0.1-0.4,0.3-0.7,0.4
			c-0.2,0.1-0.5,0.3-0.7,0.4c-0.2,0.1-0.5,0.3-0.7,0.4c-0.2,0.1-0.5,0.2-0.7,0.4c-0.3,0.1-0.5,0.3-0.8,0.4c-0.2,0.1-0.5,0.2-0.7,0.3
			c-0.3,0.1-0.6,0.3-0.9,0.4c-0.2,0.1-0.5,0.2-0.7,0.3c-0.3,0.1-0.7,0.3-1,0.4c-0.2,0.1-0.5,0.2-0.7,0.3c-0.5,0.2-1,0.3-1.4,0.5
			c-0.1,0-0.2,0.1-0.4,0.1c-0.6,0.2-1.2,0.4-1.8,0.6c-0.2,0.1-0.5,0.1-0.7,0.2c-0.4,0.1-0.9,0.2-1.3,0.4c-0.3,0.1-0.5,0.1-0.8,0.2
			c-0.4,0.1-0.8,0.2-1.3,0.3c-0.3,0.1-0.6,0.1-0.9,0.2c-0.4,0.1-0.8,0.2-1.3,0.3c-0.3,0.1-0.6,0.1-0.9,0.2c-0.4,0.1-0.9,0.2-1.4,0.2
			c-0.3,0.1-0.6,0.1-1,0.2c-0.5,0.1-1,0.2-1.5,0.2c-0.3,0-0.6,0.1-1,0.1c-0.5,0.1-1.1,0.1-1.7,0.2c-0.3,0-0.5,0.1-0.8,0.1
			c-0.9,0.1-1.7,0.2-2.6,0.3c-1.2,0.1-2.4,0.2-3.5,0.2C375.9,494.6,375.5,494.6,375.2,494.6z"/>
		<path style="clip-path:url(#SVGID_00000060030577086584934040000016622993837007105959_);fill:#FFFFFF;" d="M340.7,394.2
			c0,0,5.9-0.8,10.6,1.7c4.7,2.5,20.8,1.9,25.4,0s12.7-0.1,12.7-0.1s-10.5,9.6-23.1,9.4S346.2,400.6,340.7,394.2z"/>
		<g style="clip-path:url(#SVGID_00000060030577086584934040000016622993837007105959_);">
			<path class="st12" d="M366.2,405.3c-2.4,0.1-4.8,0-7.2-0.4c-2.4-0.3-4.8-0.9-7-1.8c-2.3-0.9-4.4-2.1-6.4-3.5
				c-2-1.4-3.8-3.1-5.4-4.9l-0.9-1l1.4-0.2c2.2-0.3,4.3-0.2,6.4,0.2c1.1,0.2,2.1,0.5,3.1,0.9c0.5,0.2,1,0.4,1.5,0.7
				c0.5,0.2,0.8,0.4,1.3,0.5c1.9,0.6,3.9,0.8,5.9,1c2,0.2,4.1,0.2,6.1,0.2c2,0,4.1-0.1,6.1-0.3c2-0.2,4-0.5,5.9-1.2
				c2.1-0.7,4.2-0.7,6.3-0.5c2.1,0.1,4.1,0.5,6.1,1c-2-0.3-4.1-0.5-6.1-0.5c-1,0-2,0-3,0.2c-1,0.1-2,0.3-2.9,0.7
				c-1.9,0.8-4,1.2-6.1,1.5c-2.1,0.3-4.1,0.5-6.2,0.6c-2.1,0.1-4.2,0.1-6.2,0c-2.1-0.2-4.2-0.4-6.3-1c-0.5-0.1-1.1-0.4-1.6-0.6
				c-0.4-0.2-0.9-0.4-1.3-0.6c-0.9-0.4-1.9-0.6-2.8-0.8c-1.9-0.4-4-0.4-5.9-0.2l0.4-1.2c3,3.6,6.8,6.6,11.1,8.5
				c2.2,0.9,4.4,1.6,6.8,2.1C361.4,404.8,363.8,405.1,366.2,405.3z"/>
		</g>
		<path style="clip-path:url(#SVGID_00000060030577086584934040000016622993837007105959_);fill:#00E9C5;" d="M450.4,556.7
			c-2.1,0.9-3.4,3-3.4,5.3l0,0v40.2c0,1.1-0.9,2-2,2c-0.2,0-0.4,0-0.6-0.1c-9.1-2.7-15.3-11.1-15.3-20.6c0-0.3,0-0.6,0-0.9v-0.3
			c0-0.2,0-0.4,0-0.7v-0.2c0.1-0.6,0.1-1.1,0.2-1.7l0-0.2c0-0.2,0.1-0.5,0.1-0.7c0,0,0-0.1,0-0.1c0.1-0.6,0.3-1.1,0.5-1.7l0-0.1
			c0.1-0.3,0.2-0.5,0.3-0.8l0,0c0.2-0.6,0.4-1.1,0.7-1.7l0-0.1c0.3-0.5,0.5-1.1,0.8-1.6v0c0.1-0.2,0.3-0.5,0.4-0.7
			c0,0,0.1-0.1,0.1-0.1c0.1-0.2,0.3-0.4,0.4-0.6l0.1-0.1c0.2-0.2,0.3-0.4,0.5-0.7l0.2-0.2c0.7-0.9,1.5-1.8,2.4-2.6
			c0.4-0.3,0.7-0.7,1.1-1c1.1-0.8,1.3-2.3,0.5-3.4c-0.1-0.1-0.1-0.2-0.2-0.2l-1.8-1.8c-0.9-0.9-2.2-0.9-3.2-0.2
			c-1.4,1.1-2.6,2.3-3.7,3.6l0,0l0,0.1c-0.3,0.3-0.5,0.6-0.7,0.9l0,0c-0.2,0.3-0.5,0.6-0.7,0.9l-0.1,0.2c-0.4,0.6-0.8,1.3-1.2,1.9
			l-0.1,0.2c-0.4,0.7-0.8,1.3-1.1,2c0,0.1-0.1,0.1-0.1,0.2c-0.1,0.3-0.3,0.6-0.4,1l-0.1,0.1c-0.1,0.4-0.3,0.7-0.4,1.1l-0.1,0.2
			c-0.1,0.3-0.2,0.6-0.3,1l-0.1,0.2c-0.1,0.4-0.2,0.7-0.3,1.1l-0.1,0.2c-0.1,0.3-0.2,0.6-0.2,0.9c0,0.1,0,0.2-0.1,0.2
			c-0.1,0.4-0.2,0.8-0.2,1.1c0,0.1,0,0.1,0,0.2c-0.1,0.3-0.1,0.7-0.2,1c0,0.1,0,0.2,0,0.3c-0.1,0.4-0.1,0.8-0.1,1.1c0,0,0,0.1,0,0.1
			c0,0.4-0.1,0.7-0.1,1.1c0,0.1,0,0.2,0,0.3c0,0.4,0,0.8,0,1.2h-0.1c0,13.9,9.9,25.7,23.5,28.3c1,0.2,1.7,1,1.7,2v10.9
			c0,1.1,0.9,2,2,2c0,0,0,0,0,0h3.2c1.1,0,2-0.9,2-2l0,0v-10.9c0-0.9,0.7-1.8,1.6-1.9c5.7-1.1,11-3.8,15.1-8
			c1.7-1.7,3.2-3.6,4.4-5.7c8.1-13.7,3.5-31.3-10.2-39.4c-1.8-1.1-3.8-2-5.9-2.6C456.4,555.2,453.2,555.4,450.4,556.7z M470,592.9
			c-2.6,5.5-7.5,9.5-13.3,11.3c-1.1,0.3-2.2-0.3-2.5-1.3c-0.1-0.2-0.1-0.4-0.1-0.6v-35.3c0-1.9,1.6-3.4,3.5-3.4
			c0.4,0,0.9,0.1,1.3,0.3c11,4.6,16.1,17.2,11.5,28.1C470.3,592.1,470.2,592.5,470,592.9L470,592.9z"/>
		<path style="opacity:0.5;clip-path:url(#SVGID_00000060030577086584934040000016622993837007105959_);fill:#E0E0E0;" d="
			M258,868.1c0,0.1,0.1,0.1,0.1,0.2c0.1,0.2,0.2,0.3,0.4,0.5c0.1,0.1,0.1,0.1,0.2,0.2c0.2,0.2,0.3,0.3,0.5,0.5c0,0,0.1,0.1,0.1,0.1
			c0.2,0.2,0.4,0.4,0.7,0.6c0.1,0.1,0.1,0.1,0.2,0.2c0.2,0.2,0.4,0.3,0.6,0.5c0.1,0.1,0.2,0.1,0.3,0.2c0.2,0.2,0.4,0.3,0.6,0.5
			c0.1,0.1,0.1,0.1,0.2,0.2c0.3,0.2,0.6,0.4,0.9,0.6c0.1,0,0.1,0.1,0.2,0.1c0.2,0.2,0.5,0.3,0.8,0.5c0.1,0.1,0.2,0.1,0.3,0.2
			c0.2,0.1,0.5,0.3,0.7,0.4c0.1,0.1,0.2,0.1,0.3,0.2c0.4,0.2,0.7,0.4,1.1,0.6c0,0,0,0,0.1,0c0.3,0.2,0.7,0.4,1.1,0.6
			c0.1,0.1,0.2,0.1,0.4,0.2c0.3,0.1,0.6,0.3,0.8,0.4c0.1,0.1,0.3,0.1,0.4,0.2c0.3,0.2,0.7,0.3,1,0.5c0.1,0,0.2,0.1,0.2,0.1
			c0.4,0.2,0.8,0.4,1.3,0.6c0.1,0.1,0.2,0.1,0.4,0.2c0.3,0.1,0.6,0.3,1,0.4c0.1,0.1,0.3,0.1,0.4,0.2c0.3,0.2,0.7,0.3,1,0.5
			c0.1,0,0.2,0.1,0.3,0.1c0.4,0.2,0.9,0.4,1.4,0.6c0.1,0,0.2,0.1,0.3,0.1c0.4,0.2,0.7,0.3,1.1,0.4c0.1,0.1,0.3,0.1,0.4,0.2
			c0.3,0.1,0.7,0.3,1,0.4c0.1,0.1,0.3,0.1,0.4,0.2c0.5,0.2,0.9,0.4,1.4,0.6c0,0,0.1,0,0.1,0c0.5,0.2,0.9,0.3,1.4,0.5
			c0.1,0.1,0.3,0.1,0.4,0.2c0.4,0.1,0.7,0.3,1.1,0.4c0.1,0,0.3,0.1,0.4,0.1c0.5,0.2,0.9,0.3,1.4,0.5c0,0,0,0,0,0
			c0.5,0.2,1,0.4,1.5,0.5c0.1,0,0.2,0.1,0.3,0.1c0.4,0.1,0.8,0.3,1.2,0.4c0.1,0,0.2,0.1,0.3,0.1c0.4,0.1,0.9,0.3,1.3,0.4
			c0,0,0.1,0,0.1,0.1c0.5,0.2,1,0.3,1.5,0.5c0,0,0,0,0.1,0c0.5,0.2,0.9,0.3,1.4,0.4c0.1,0,0.2,0.1,0.2,0.1c0.4,0.1,0.9,0.3,1.3,0.4
			c0,0,0.1,0,0.1,0c1,0.3,1.9,0.6,2.9,0.9c0,0,0,0,0.1,0c0.5,0.1,0.9,0.3,1.4,0.4c0,0,0,0,0,0h0c2.5,0.5,4.8,1,7.1,1.3l-0.5,0.6
			c4.5,1.3,7.4,2,7.4,2c20.9,7,48.4,10.1,77.1,10.9c-5.2-0.2-48.3-3.6-48.1-60.8l-0.8,1.1c0-7.4,0-15.1,0.8-22.3
			c3.8-35.7-4-141.7-42.9-161c-26.3-13.1-35.8-55.7-39.2-81.9c0,1,0.1,2.1,0.1,3.2c0,0.2,0,0.4,0,0.7c0,0.8,0,1.7,0,2.6
			c0,0.4,0,0.7,0,1.1c0,0.7,0,1.5,0,2.2c0,0.4,0,0.9,0,1.3c0,0.7,0,1.4,0,2.1c0,0.5,0,1,0,1.5c0,0.7,0,1.4,0,2.1c0,0.5,0,1,0,1.6
			c0,0.7,0,1.4-0.1,2.1c0,0.5,0,1.1-0.1,1.6c0,0.7-0.1,1.4-0.1,2.2c0,0.6,0,1.1-0.1,1.7c0,0.7-0.1,1.5-0.1,2.2
			c0,0.6-0.1,1.2-0.1,1.8c0,0.8-0.1,1.5-0.1,2.3c0,0.6-0.1,1.2-0.1,1.8c0,0.8-0.1,1.6-0.2,2.3c0,0.6-0.1,1.3-0.1,1.9
			c-0.1,0.8-0.1,1.6-0.2,2.4c-0.1,0.6-0.1,1.3-0.2,1.9c-0.1,0.8-0.1,1.7-0.2,2.5c-0.1,0.7-0.1,1.3-0.2,2c-0.1,0.9-0.2,1.8-0.3,2.7
			c-0.1,0.7-0.1,1.3-0.2,2c-0.1,0.9-0.2,1.9-0.3,2.9c-0.1,0.6-0.1,1.3-0.2,1.9c-0.1,1.1-0.2,2.1-0.4,3.2c-0.1,0.6-0.1,1.1-0.2,1.7
			c-0.2,1.6-0.4,3.3-0.6,5l0.2,0.1c0,0,0,0,0,0.1c0,0.1-0.1,0.4-0.2,0.8c0,0,0,0,0,0c-0.1,0.6-0.3,1.4-0.5,2.5c0,0,0,0,0,0
			c0,0,0,0,0,0c-3.7,28.2-6.2,55.3-7.9,79.8c0,0,0,0,0,0c0,1.2,0,2.5,0.1,3.7c0,0.1,0,0.3,0,0.4c0,1.2,0.1,2.3,0.1,3.5
			c0,0.2,0,0.3,0,0.5c0.1,1.2,0.1,2.3,0.2,3.4c0,0.1,0,0.2,0,0.3c0.1,1.2,0.2,2.3,0.3,3.5c0,0,0,0,0,0c0.1,1.1,0.2,2.2,0.4,3.3
			c0,0.2,0,0.3,0.1,0.5c0.1,1,0.3,2,0.5,3c0,0.2,0.1,0.4,0.1,0.5c0.2,1,0.3,1.9,0.5,2.9c0,0.1,0.1,0.3,0.1,0.4c0.2,1,0.4,2,0.7,2.9
			c9.4,37.1,6.7,112,6.7,112C257.7,867.7,257.8,867.9,258,868.1z"/>
		<path style="clip-path:url(#SVGID_00000060030577086584934040000016622993837007105959_);fill:#E7B49F;" d="M447.8,530.3
			c-8.8,0.7-54.7,4.7-74.9,6.1c-20.2,1.3-4-25-4-25s6.1-25-9.4-26.3c0,0-6.8-2.1-4.4,14.5c2.4,16.6-11.1,28-11.1,28
			s-6.7,3.4-18.2,42.5c0,0-32.4,52.3-49.8,64l-20.2,12.8l0.6-3.4c0,0-16.9-21.6-49.9-21.6c-33.1,0-37.8,2-50.6,12.1
			c0,0-0.7,6.1-3.4,15.5c-2.7,9.4-6.1,55.3,0,85c6.1,29.7,21.6,73.6,45.9,51.3c0,0,15-5.8,29-14.8c17.7-11.4,51.3-43,80.8-93.1
			c10.3-17.6,18.1-42.4,57.4-57.9c9.7-3.8,30.4-6.1,39.1-14.2c8.8-8.1,3.4-18.9,3.4-18.9s7.3-7.4,1.6-16.9c0,0,4.4-10.7-2.3-17.2
			c0,0,26.3-6.4,41.2-6.4c14.8,0,17.5-2.7,17.5-6.7S456.5,529.6,447.8,530.3z"/>
		<path style="clip-path:url(#SVGID_00000060030577086584934040000016622993837007105959_);fill:#FFFFFF;" d="M379.4,274.4
			c-0.9,0.2-1.5,1-1.6,1.9l0,0l-2.1,15.6c-0.1,0.4-0.5,0.7-0.9,0.7c-0.1,0-0.2,0-0.2-0.1c-3.4-1.5-5.3-5.1-4.9-8.8
			c0-0.1,0-0.2,0-0.3l0-0.1c0-0.1,0-0.2,0.1-0.3l0-0.1c0.1-0.2,0.1-0.4,0.2-0.7l0-0.1c0-0.1,0.1-0.2,0.1-0.3c0,0,0,0,0,0
			c0.1-0.2,0.2-0.4,0.3-0.6l0,0c0-0.1,0.1-0.2,0.2-0.3l0,0c0.1-0.2,0.2-0.4,0.4-0.6l0,0c0.1-0.2,0.3-0.4,0.4-0.6l0,0
			c0.1-0.1,0.1-0.2,0.2-0.2c0,0,0,0,0,0c0.1-0.1,0.1-0.1,0.2-0.2l0,0c0.1-0.1,0.1-0.2,0.2-0.2l0.1-0.1c0.3-0.3,0.7-0.6,1.1-0.9
			c0.2-0.1,0.3-0.2,0.5-0.3c0.5-0.3,0.6-0.8,0.4-1.3c0,0,0-0.1-0.1-0.1l-0.6-0.8c-0.3-0.4-0.8-0.5-1.2-0.2c-0.6,0.4-1.1,0.8-1.6,1.2
			l0,0l0,0c-0.1,0.1-0.2,0.2-0.3,0.3l0,0c-0.1,0.1-0.2,0.2-0.3,0.3l-0.1,0.1c-0.2,0.2-0.4,0.4-0.6,0.7l0,0.1
			c-0.2,0.2-0.4,0.5-0.5,0.7c0,0,0,0,0,0.1c-0.1,0.1-0.1,0.2-0.2,0.3l0,0c-0.1,0.1-0.2,0.3-0.2,0.4l0,0.1c-0.1,0.1-0.1,0.2-0.2,0.4
			l0,0.1c-0.1,0.1-0.1,0.3-0.2,0.4l0,0.1c0,0.1-0.1,0.2-0.1,0.4c0,0,0,0.1,0,0.1c-0.1,0.1-0.1,0.3-0.1,0.4c0,0,0,0,0,0.1
			c0,0.1-0.1,0.3-0.1,0.4c0,0,0,0.1,0,0.1c0,0.1-0.1,0.3-0.1,0.4c0,0,0,0,0,0c0,0.1-0.1,0.3-0.1,0.4c0,0,0,0.1,0,0.1
			c0,0.2,0,0.3-0.1,0.5l0,0c-0.7,5.4,2.5,10.5,7.6,12.2c0.4,0.1,0.6,0.5,0.5,0.8l-0.6,4.2c-0.1,0.4,0.2,0.8,0.7,0.9c0,0,0,0,0,0
			l1.2,0.2c0.4,0.1,0.8-0.2,0.9-0.7l0,0l0.6-4.2c0.1-0.4,0.4-0.6,0.7-0.7c2.3-0.1,4.5-0.9,6.3-2.3c0.8-0.6,1.4-1.2,2-2
			c3.8-4.9,3-11.9-1.9-15.8c-0.7-0.5-1.4-1-2.1-1.3C381.8,274.1,380.6,274.1,379.4,274.4z M385.1,289.4c-1.3,2-3.4,3.3-5.7,3.7
			c-0.4,0.1-0.8-0.2-0.9-0.6c0-0.1,0-0.2,0-0.2l1.9-13.7c0.1-0.7,0.8-1.3,1.5-1.1c0.2,0,0.3,0.1,0.5,0.2c4,2.3,5.3,7.5,3,11.5
			C385.3,289.2,385.2,289.3,385.1,289.4L385.1,289.4z"/>
		<g style="clip-path:url(#SVGID_00000060030577086584934040000016622993837007105959_);">
			<path class="st13" d="M296.7,436.3C296.7,436.3,296.7,436.3,296.7,436.3C296.7,436.3,296.7,436.3,296.7,436.3z"/>
			<path class="st13" d="M296.7,436.3c0.2,0.5,1.9,8.2-41.8,27.6c-45.2,20.1-61.4,30.4-61.4,30.4c-7.7,9.3-13.8,20-18.7,31.2
				c-1.3,30.9,5.8,55.2,5.8,55.2c0-32.4,28.3-68.8,58-80.3c21-8.1,57.1-24.6,76.5-33.6C302.5,452,296.9,436.8,296.7,436.3z"/>
		</g>
		<path style="clip-path:url(#SVGID_00000060030577086584934040000016622993837007105959_);fill:#FFFFFF;" d="M555.7,537.5
			c-12.4-26.7-30.7-52.6-53.2-58c-49.9-12.1-84.3-34.4-84.3-34.4s1.7,3.4,2.8,8.3c22.8,11.5,57.1,28.2,87.6,40.9
			C525,501.2,542.8,516.2,555.7,537.5z"/>
		<g style="clip-path:url(#SVGID_00000060030577086584934040000016622993837007105959_);">
			<g>
				<circle class="st14" cx="815.6" cy="473.4" r="34.9"/>
				<path class="st9" d="M850,479c0,0-1.2-20.5-18.1-21.9c-16.9-1.4-45.6-3.9-50.9,21.9c0,0-13.1-54.4,22.9-47.8
					C843.8,438.6,854.9,438.4,850,479z"/>
			</g>
			<g>
				<path class="st15" d="M873.2,486.2c0,0-11.4,1.8-9.3,11.5s10.1,15.8,4.5,19.7c-5.6,3.9,16.6-3,15.2-16.9
					C882.2,486.5,873.2,486.2,873.2,486.2z"/>
				<circle class="st8" cx="905.6" cy="473.4" r="34.9"/>
				<path class="st15" d="M870.7,473.4c0,0-6.5-35.3,26.2-40.3c0,0-4.3-7.2,5.4-8.3s6.5,8.3,6.5,8.3s34.6,0.2,31.8,40.3
					c0,0-9.5-22-18.6-17.7c-7.3,3.5-21.9,3.5-33,1.1C877.9,454.3,870.7,473.4,870.7,473.4z"/>
			</g>
			<g>
				<circle class="st16" cx="727.8" cy="473.4" r="34.9"/>
				<path class="st17" d="M762.2,479c0,0,4.2-40.6-34.5-40.6c-38.5,0-34.9,40.6-34.9,40.6s6.3-1.9,8.5-5.6s6.1-18.5,6.1-18.5
					s32.7,3.9,39.8,0C747.3,454.9,748.7,477.6,762.2,479z"/>
			</g>
		</g>
		<path style="clip-path:url(#SVGID_00000060030577086584934040000016622993837007105959_);fill:#E0E0E0;" d="M296.7,436.3
			C296.7,436.3,296.7,436.3,296.7,436.3C296.7,436.3,296.7,436.3,296.7,436.3z"/>
		<g style="clip-path:url(#SVGID_00000060030577086584934040000016622993837007105959_);">
			<text transform="matrix(1 0 0 1 716.0872 413.3209)" class="st19 st20 st21">?</text>
		</g>
		<g style="clip-path:url(#SVGID_00000060030577086584934040000016622993837007105959_);">
			<text transform="matrix(1 0 0 1 804.1586 413.3209)" class="st19 st20 st21">?</text>
		</g>
		<g style="clip-path:url(#SVGID_00000060030577086584934040000016622993837007105959_);">
			<text transform="matrix(1 0 0 1 892.2301 413.3209)" class="st19 st20 st21">?</text>
		</g>
		<path style="opacity:0.5;clip-path:url(#SVGID_00000060030577086584934040000016622993837007105959_);fill:#E7B49F;" d="
			M227.2,771c0.4-0.3,0.8-0.6,1.3-0.8c5.7-3.8,13-9.8,21.4-17.7c22-22.4,57.1-83,66.1-102.9s37.3-35.4,37.3-35.4
			c18.6-18.6-9-62.4,4.5-86.8c13.5-24.4,1.6-42.4,1.6-42.4l-4.4,3.6c-0.6,2.2-0.8,5.6,0,10.9c2.4,16.6-11.1,28-11.1,28
			s-6.7,3.4-18.2,42.5c0,0-32.4,52.3-49.8,64l-20.2,12.8c0,0-11.9,9.2-24.5,15.2c0,0,0,0-6.1,3c-27.9,14-50.4,41.8-50.4,41.8
			c16.1-28.9,54.7-47.8,54.7-47.8c-6.4-8.1-5.9-35.1-5.9-35.1c-0.3-0.1-0.7-0.2-1.1-0.2c-0.4-0.1-0.8-0.2-1.2-0.3
			c-0.4-0.1-0.7-0.2-1.1-0.2c-0.4-0.1-0.9-0.2-1.3-0.2c-0.3-0.1-0.7-0.1-1-0.2c-0.8-0.1-1.6-0.2-2.3-0.3c-0.2,0-0.4,0-0.6-0.1
			c-0.6-0.1-1.3-0.1-2-0.2c-0.3,0-0.6,0-0.9-0.1c-0.6,0-1.2-0.1-1.9-0.1c-0.3,0-0.6,0-0.8,0c-0.9,0-1.8-0.1-2.8-0.1c-1,0-2,0-3,0
			c-2,0-3.8,0-5.6,0.1c-3.5,0.1-6.6,0.1-9.4,0.3c-17.5,0.9-22.6,3.9-32.6,11.8c0,0-0.3,2.9-1.4,7.7c-0.5,2.2-1.1,4.8-2,7.8
			c-0.2,0.6-0.3,1.3-0.5,2.2c-0.3,1.3-0.5,2.9-0.8,4.7s-0.5,3.9-0.7,6.2c-0.2,2.3-0.4,4.8-0.6,7.4c-0.1,1.8-0.2,3.6-0.3,5.5
			c-0.3,6.6-0.5,14-0.4,21.5c0,3.2,0.1,6.5,0.3,9.7c0.4,9.7,1.4,19.4,3.1,27.7c1.5,7.4,3.6,15.7,6.3,23.7c1.3,4,2.8,7.8,4.5,11.5
			c0.4,0.9,0.8,1.8,1.3,2.7c5.7,11.8,13.1,20.3,22.1,19.5c0.1,0,0.1,0,0.2,0c0.6-0.1,1.1-0.1,1.7-0.3c0.2,0,0.3-0.1,0.5-0.1
			c0.6-0.2,1.2-0.3,1.8-0.6c2.4-1,5-2.6,7.7-5c0,0,0.5-0.2,1.5-0.6c0.3-0.1,0.7-0.3,1.1-0.5c2.6-1.1,7.1-3.1,12.3-5.7
			C217.4,776.8,222.4,774.1,227.2,771C227.2,771,227.2,771,227.2,771z"/>
		<g style="clip-path:url(#SVGID_00000060030577086584934040000016622993837007105959_);">
			<g>
				<path class="st13" d="M229.5,518.3c-0.2,0.1-0.5,0.1-0.7,0.2c-0.3,0.1-0.6,0.2-0.8,0.3c-0.2,0.1-0.5,0.2-0.5,0.4
					c-0.1,0.3,0.5,1.4,0.6,1.7c0.6-0.2,1.1-0.5,1.7-0.7c0.4-0.2,0.6-0.2,0.8,0.2c0.1,0.2,0.2,0.4,0.3,0.6c0.2,0.5,0.2,0.7-0.3,0.9
					c-0.6,0.2-1.1,0.5-1.7,0.7c0.8,1.8,1.7,3.6,2.5,5.4c0.2,0.4,0.3,0.8-0.3,1c-0.4,0.2-0.7,0.3-1.1,0.5c-0.5,0.2-0.6,0-0.8-0.4
					c-0.8-1.8-1.7-3.7-2.5-5.5c-0.2,0.1-0.3,0.1-0.5,0.2c-0.4,0.2-0.5-0.1-0.7-0.4c-0.1-0.2-0.2-0.5-0.3-0.7
					c-0.3-0.6,0.3-0.7,0.7-0.8c-0.1-0.2-0.2-0.4-0.3-0.6c-0.3-0.7-0.6-1.4-0.4-2.1c0.3-1.2,1.4-1.7,2.5-2.2c0.3-0.1,1.2-0.5,1.6-0.3
					c0.1,0.1,0.2,0.2,0.2,0.3c0,0,0,0.1,0.1,0.1C229.7,517.3,230,518.1,229.5,518.3z M233.3,517.3c-0.2,0.1-0.4,0.2-0.7,0.3
					c-0.6,0.3-0.9,0.3-1.2-0.4c-0.1-0.2-0.2-0.4-0.3-0.6c-0.2-0.5-0.1-0.8,0.4-1c0.3-0.1,0.5-0.2,0.8-0.3c0.4-0.2,0.8,0,1,0.4
					c0,0,0,0.1,0,0.1c0.1,0.2,0.2,0.4,0.3,0.6C233.8,516.7,233.8,517.1,233.3,517.3L233.3,517.3z M237.5,526.3
					c-0.2,0.1-0.4,0.2-0.7,0.3c-0.6,0.3-1,0.3-1.3-0.4c-1-2.1-2-4.3-3-6.4c-0.2-0.5-0.1-0.8,0.4-1c0.3-0.1,0.5-0.2,0.8-0.3
					c0.4-0.2,0.8,0,1,0.4c0,0,0,0.1,0,0.1c1,2.1,2,4.3,3,6.4C238,525.8,238,526.1,237.5,526.3C237.5,526.3,237.5,526.3,237.5,526.3z
					"/>
				<path class="st13" d="M243.7,523.9c-0.8,0.4-1.6,0.7-2.5,0.9c-0.5,0.2-0.6-0.1-0.8-0.5c0-0.1-0.1-0.2-0.1-0.3
					c-0.2-0.4-0.3-0.8,0.1-1c0.3-0.1,0.6-0.2,0.9-0.3c0.6-0.2,1.2-0.4,1.8-0.7c0.6-0.3,0.9-0.4,0.6-1c-0.1-0.2-0.2-0.4-0.4-0.5
					c-0.2-0.1-1.9,0.2-2.2,0.2c-0.4,0-0.8,0-1.2,0c-1.1,0-1.6-0.4-2.1-1.3c-1.2-2.5,0.6-3.3,2.7-4.2c0.4-0.2,0.8-0.4,1.3-0.5
					c0.6-0.2,0.9-0.2,1.2,0.4c0.2,0.5,0.5,1-0.1,1.3c-0.3,0.1-0.6,0.2-0.9,0.3c-0.5,0.2-0.9,0.3-1.4,0.5c-0.6,0.3-1,0.3-0.7,1.1
					c0,0.1,0.1,0.2,0.2,0.3c0.3,0.2,2.1-0.1,2.5-0.2c1.5-0.2,2.4,0,3,1.4C246.8,522.2,245.8,523,243.7,523.9z"/>
				<path class="st13" d="M246.4,511.6c-0.2,0.1-0.4,0.2-0.6,0.3c-0.6,0.3-0.9,0.3-1.2-0.3c-0.1-0.2-0.2-0.4-0.3-0.6
					c-0.2-0.5-0.1-0.8,0.4-1c0.3-0.1,0.5-0.2,0.8-0.3c0.4-0.2,0.8,0,1,0.3c0,0,0,0.1,0,0.1c0.1,0.2,0.2,0.4,0.3,0.6
					C246.9,511,246.9,511.4,246.4,511.6z M250.7,520.6c-0.2,0.1-0.4,0.2-0.6,0.3c-0.6,0.3-0.9,0.3-1.3-0.3c-1-2.1-2-4.3-3.1-6.4
					c-0.2-0.5-0.1-0.8,0.4-1c0.3-0.1,0.5-0.2,0.8-0.4c0.4-0.2,0.8,0,1,0.3c0,0,0,0.1,0,0.1c1,2.1,2,4.3,3.1,6.4
					C251.2,520,251.2,520.4,250.7,520.6z"/>
				<path class="st13" d="M258.9,517.1c-0.5,0.3-0.9,0.5-1.4,0.7c-3.3,1.5-4.4,0.7-5.9-2.4c-1.5-3-1.4-4.4,1.8-5.9
					c0.5-0.2,1-0.4,1.5-0.6c0.5-0.2,0.9-0.4,1.2,0.1c0,0,0,0,0,0c0.2,0.4,0.6,1.3,0,1.5c-0.2,0.1-0.5,0.2-0.7,0.2
					c-0.6,0.2-1.1,0.4-1.6,0.6c-0.7,0.3-0.8,0.5-0.6,1.2c0.2,0.6,0.4,1.2,0.7,1.7c0.3,0.5,0.5,1,0.8,1.5c0.4,0.7,0.7,0.7,1.5,0.3
					c0.5-0.3,1-0.5,1.5-0.9c0.2-0.1,0.4-0.3,0.6-0.4c0.1-0.1,0.3-0.1,0.5,0c0.2,0.1,0.7,0.8,0.7,1
					C259.8,516.6,259.4,516.8,258.9,517.1z"/>
				<path class="st13" d="M267.8,512.8c-0.3,0.1-0.6,0.3-0.9,0.4c-0.4,0.2-0.6,0-0.8-0.4c-0.5,0.8-1.2,1.5-2.1,1.9
					c-1.6,0.8-2.8,0.3-3.6-1.3c-0.9-1.8-0.1-2.9,1.5-3.8c0.7-0.4,1.3-0.8,2.1-1.1c-0.3-0.6-0.7-1.6-1.6-1.2
					c-0.8,0.4-1.5,0.9-2.2,1.5c-0.1,0.1-0.2,0.2-0.4,0.2c-0.6,0.3-0.8-0.3-1-0.7c-0.2-0.3-0.1-0.7,0.1-0.9c0.8-0.6,1.7-1.2,2.6-1.6
					c0.8-0.4,1.9-0.7,2.7-0.4c1,0.4,1.5,1.4,1.9,2.3c0.7,1.3,1.3,2.6,2,3.9C268.4,512.2,268.3,512.6,267.8,512.8z M264.7,510
					c-0.3,0.1-0.6,0.2-0.8,0.3c-0.4,0.2-0.7,0.3-1,0.5c-0.7,0.4-0.8,0.8-0.5,1.5c0.2,0.4,0.6,1.1,1.2,0.8c0.8-0.4,1.4-1.1,1.8-1.9
					C265.1,510.9,264.9,510.5,264.7,510z"/>
				<path class="st13" d="M272.2,510.7c-0.2,0.1-0.4,0.2-0.6,0.3c-0.6,0.3-0.9,0.3-1.2-0.3c-1.6-3.2-3.2-6.5-4.8-9.7
					c-0.3-0.5-0.1-0.8,0.4-1c0.2-0.1,0.5-0.2,0.7-0.4c0.3-0.2,0.8-0.1,0.9,0.3c0,0,0,0.1,0,0.1c1.6,3.2,3.2,6.5,4.9,9.7
					C272.7,510.1,272.7,510.5,272.2,510.7z"/>
				<path class="st13" d="M280.2,507c-0.4,0.3-0.9,0.5-1.4,0.7c-3.2,1.6-4.3,0.7-5.8-2.2c-1.5-3-1.5-4.4,1.7-5.9
					c0.5-0.2,0.9-0.4,1.4-0.6c0.5-0.2,0.9-0.4,1.2,0.1c0,0,0,0,0,0c0.2,0.4,0.6,1.3,0,1.5c-0.2,0.1-0.4,0.2-0.7,0.3
					c-0.6,0.2-1.1,0.4-1.6,0.6c-0.7,0.3-0.8,0.5-0.6,1.2c0.2,0.6,0.4,1.1,0.7,1.7c0.3,0.5,0.5,1,0.9,1.5c0.4,0.7,0.7,0.6,1.5,0.3
					c0.5-0.3,1-0.6,1.5-0.9c0.2-0.1,0.4-0.3,0.6-0.4c0.1-0.1,0.3-0.1,0.5,0c0.2,0.1,0.7,0.8,0.8,1
					C281.1,506.5,280.7,506.7,280.2,507z"/>
				<path class="st13" d="M286.8,503.9c-2.7,1.4-4.6,0.3-5.9-2.2c-1.3-2.5-1.1-4.6,1.7-5.9c2.7-1.4,4.5-0.3,5.8,2.2
					C289.7,500.5,289.5,502.5,286.8,503.9z M285,497.3c-0.6-0.4-1-0.1-1.6,0.2c-0.6,0.3-1,0.5-1.1,1.2c0,0.7,0.3,1.5,0.6,2
					c0.3,0.6,0.7,1.3,1.3,1.7c0.5,0.4,1.1,0.1,1.6-0.2c0.5-0.3,1-0.5,1.1-1.2c0-0.6-0.4-1.5-0.7-2C286,498.5,285.6,497.7,285,497.3z
					"/>
				<path class="st13" d="M298.2,497.8c-0.3,0.2-0.6,0.3-0.9,0.5c-0.4,0.2-0.6,0-0.8-0.3c-0.4,0.8-1.1,1.5-2,2
					c-1.6,0.8-2.8,0.3-3.6-1.2c-0.9-1.7-0.2-2.9,1.3-3.8c0.6-0.4,1.3-0.8,2-1.2c-0.3-0.6-0.7-1.6-1.6-1.1c-0.8,0.4-1.5,0.9-2.2,1.5
					c-0.1,0.1-0.2,0.2-0.4,0.2c-0.6,0.3-0.8-0.3-1-0.7c-0.2-0.3-0.2-0.7,0.1-0.9c0.8-0.7,1.6-1.2,2.5-1.7c0.8-0.4,1.8-0.8,2.7-0.5
					c1,0.4,1.5,1.4,2,2.3c0.7,1.3,1.4,2.6,2.1,3.9C298.7,497.3,298.7,497.6,298.2,497.8z M295,495.2c-0.3,0.1-0.6,0.2-0.8,0.4
					c-0.3,0.2-0.7,0.4-1,0.6c-0.6,0.4-0.8,0.8-0.4,1.5c0.2,0.4,0.6,1,1.2,0.8c0.8-0.4,1.4-1.1,1.8-1.9
					C295.5,496,295.3,495.6,295,495.2z"/>
				<path class="st13" d="M305.9,493.9c-0.4,0.3-0.9,0.5-1.3,0.8c-3.1,1.7-4.3,0.9-5.8-2.1c-1.6-3-1.6-4.3,1.5-6
					c0.5-0.2,0.9-0.4,1.4-0.6c0.5-0.2,0.9-0.5,1.2,0.1c0,0,0,0,0,0c0.2,0.4,0.7,1.2,0.1,1.5c-0.2,0.1-0.4,0.2-0.7,0.3
					c-0.5,0.2-1.1,0.4-1.6,0.7c-0.7,0.4-0.7,0.5-0.5,1.2c0.2,0.6,0.4,1.1,0.7,1.7c0.3,0.5,0.6,1,0.9,1.5c0.4,0.7,0.7,0.6,1.4,0.3
					c0.5-0.3,1-0.6,1.5-0.9c0.2-0.1,0.4-0.3,0.6-0.4c0.1-0.1,0.3-0.1,0.5,0c0.2,0.1,0.7,0.8,0.8,1
					C306.8,493.4,306.4,493.6,305.9,493.9z"/>
				<path class="st13" d="M314.5,489.2c-0.3,0.2-0.6,0.3-0.9,0.5c-0.5,0.2-0.7,0-1-0.4c-0.7-1.3-1.5-2.7-2.2-4
					c-0.1-0.2-0.6-1.1-0.8-1.2c-0.2-0.1-0.4,0.1-0.6,0.1c-0.7,0.4-1.2,1-1.5,1.8c0.8,1.6,1.7,3.1,2.6,4.7c0.2,0.4,0.3,0.8-0.2,1
					c-0.3,0.2-0.6,0.3-0.8,0.5c-0.4,0.2-0.7,0.1-0.9-0.3c-1.7-3.2-3.5-6.4-5.2-9.6c-0.3-0.5-0.2-0.8,0.3-1.1
					c0.2-0.1,0.5-0.3,0.7-0.4c0.3-0.2,0.7-0.1,0.9,0.2c0,0,0,0.1,0.1,0.1c0.5,1,1,2,1.6,2.9c0.5-0.7,1.1-1.3,1.8-1.7
					c1.5-0.8,2.8-0.6,3.7,0.9c0.9,1.6,1.8,3.2,2.7,4.8C315,488.6,315,488.9,314.5,489.2z"/>
			</g>
		</g>
	</g>
	<g>
		<defs>
			<path id="SVGID_00000102528071318972049520000006956539280672892853_" d="M132,507.1c8.6-13.5,17.5-26.6,26.4-39.3
				c37.6-53.4,75.7-101.8,94.4-165.3c15.7-53.5,37.1-110.9,86.7-142.3c33.2-21,77.6-24.1,115.1-13c20.9,6.2,39.4,18.4,56.9,31.5
				c45.6,34.1,86.2,74.7,132.6,107.6c40.4,28.6,102.7,65.7,154.3,52.9c51.4-12.8,91.6-13,137.1,17.6c37.8,25.5,66.4,65.4,75.2,110.4
				c2.1,10.9,3.2,22.1,1.8,33.1c-1.3,10-4.5,19.7-7.8,29.3c-8,23.2-16.4,46.6-29.8,67.2c-40.9,61.3-109.9,71.3-176.2,84.3
				c-23.5,4.6-47.2,9.3-68.8,19.5c-47.4,22.5-78.5,68.6-107.1,112.5c-24.4,37.4-29,81.8-56.6,119.5c-22.4,30.7-53.4,56.4-90.2,66.1
				c-24.9,6.6-51.1,5.6-76.8,4.1c-35.7-2.1-71.6-5.1-106.4-13.8C198.9,965.7,117.4,898.5,75,811.8C25.2,709.9,75.7,595,132,507.1z"
				/>
		</defs>
		<clipPath id="SVGID_00000037670332987237806810000013496985483128837020_">
			<use xlink:href="#SVGID_00000102528071318972049520000006956539280672892853_"  style="overflow:visible;"/>
		</clipPath>
		<path style="clip-path:url(#SVGID_00000037670332987237806810000013496985483128837020_);fill:#494949;" d="M544.3,891.1H400.5
			l-126.4-19.3l-16.5-4.3c0,0,0,7.8-0.4,18.8l-7.3,61.2c0,0-11.7,29.9-17.6,36.6c-6,6.8,23,9.6,23,9.6l227.1,34.7l87.3-55
			C569.5,973.6,549,928.2,544.3,891.1z"/>
		<path style="clip-path:url(#SVGID_00000037670332987237806810000013496985483128837020_);fill:#E7B49F;" d="M418.1,445.1
			c0,0-8.1-3.7-8.4-24.1c-0.3-20.4-100.2-33.4-100.2-33.4s1.4,28.5-12.8,48.8l3.7,29l37.5,35.1h62.1l29.7-28.3l-4-20.8L418.1,445.1z
			"/>
		<path style="opacity:0.5;clip-path:url(#SVGID_00000037670332987237806810000013496985483128837020_);fill:#E7B49F;" d="
			M356.9,440.7c2.4-0.3,4.7-0.7,6.9-1.2l-51.5-51.5c-1.8-0.2-2.7-0.4-2.7-0.4s0.8,15.9-4.8,32.4c0,0.1,0,0.1-0.1,0.2
			c-0.2,0.5-0.4,1-0.5,1.5c-0.1,0.2-0.1,0.3-0.2,0.5c-0.2,0.5-0.4,1-0.6,1.5c-0.1,0.1-0.1,0.3-0.2,0.4c-0.7,1.7-1.5,3.5-2.3,5.2
			c-1.2,2.4-2.6,4.8-4.2,7.1l3.7,29l15.9,14.9l18.5,3.7C327.2,453.1,346.1,443.6,356.9,440.7z"/>
		<path style="clip-path:url(#SVGID_00000037670332987237806810000013496985483128837020_);fill:#E7B49F;" d="M305.7,363
			c-0.7,6.5,2.4,21.8,7.8,37.8c8,23.7,39.9,38.7,50.2,38.7c9.9,0,43.1-6.5,53.7-36.3c3.6-10.1,7.6-21.4,10.2-33.4c0,0-1.3,5.7,2,5.9
			s3.4-7.1,10.9-26.3c7.5-19.2-1.5-18.4-1.5-18.4l-4.2,1.4l-4.5-9l-44.5-18.9l-53.1-4.5l-25.2,12.6l-4,10.8c0,0-7.9-3.7-2.7,17.2
			c0,0,1,10,0,17.1C299.7,364.8,305.7,363,305.7,363z"/>
		<path style="clip-path:url(#SVGID_00000037670332987237806810000013496985483128837020_);fill:#00E9C5;" d="M440.2,300
			c0,0,2.2,42.3-5.4,32.4c-7.6-9.9-26.5-23.8-67.5-26.5c-40.9-2.7-51.7,3.1-63.9,17.5c0,0-4.1,0-2.7-12.1s3.2-22,3.2-22l2.2-15.3
			l72.4-12.1l55.8,24.3L440.2,300z"/>
		<path style="clip-path:url(#SVGID_00000037670332987237806810000013496985483128837020_);fill:#E7B49F;" d="M577.4,603.7
			c0,0,18,31.5,20.2,54c0,0,0,8.4,6.1,11.6c0,0,18.9-15.5,53.3-32.8c34.4-17.3,87.7-67.2,87.7-67.2s2.7-17.5,25.6-17.5
			c22.9,0,18.9-6.7,29.7,0c0,0,7.4,11.5-8.8,13.5c0,0,14.8,6.1,31.7,4.7c16.9-1.3,64.1-9.4,70.2-9.4c6.1,0,6.1,9.4,0,9.4
			c0,0,6.7,8.1-18.9,12.8c0,0,5.4,6.1-18.9,8.8s-5.4,4-27,6.1c-21.6,2-54,0.7-67.5,6.1c-13.5,5.4-58.7,56.7-84.3,91.8
			c-25.6,35.1-38.7,34.7-51.3,46.6c-8,7.5-20.2,39.1-43.2,7.4c0,0-47.9-34.4-64.8-68.2l-3.3-12l-5.4-59.5L577.4,603.7z"/>
		<path style="opacity:0.5;clip-path:url(#SVGID_00000037670332987237806810000013496985483128837020_);fill:#E7B49F;" d="
			M663.8,632.8c-72.2,33.6-89.1,69.7-89.1,69.7c-39.8-27.2-37.4-92.8-37.4-92.8c-2.3,0.4-4.7-0.3-7.2-1.9l-21.6,1.9l5.4,59.5l3.3,12
			c16.9,33.7,64.8,68.2,64.8,68.2c22.9,31.7,35.2,0.1,43.2-7.4c0.8-0.8,1.6-1.5,2.4-2.1C617,708,646.2,656.9,663.8,632.8z"/>
		<path style="clip-path:url(#SVGID_00000037670332987237806810000013496985483128837020_);fill:#43251A;" d="M440.2,300
			c0,0,8.1-0.4,2.7-22.9s-21.6-42.7-57.1-47.7c-35.5-4.9-45.4-0.9-57.1,9.9c-11.7,10.8-18.9,10.8-24.7,21.6c0,0-7.2,15.3,0,28.3
			c0,0,4-8.1,9.4-10.3c0,0-4,4.5-2.7,9c0,0,7.2-12.6,9.9-13.5c2.7-0.9,49.5-12.1,76.5-2.2C424,282,435.2,291,440.2,300z"/>
		<path style="opacity:0.5;clip-path:url(#SVGID_00000037670332987237806810000013496985483128837020_);fill:#43251A;" d="
			M320.9,274.2c0.1,0,0.3-0.1,0.5-0.1c0,0,0.1,0,0.1,0c0.2,0,0.4-0.1,0.6-0.2c0,0,0.1,0,0.1,0c0.2-0.1,0.5-0.1,0.8-0.2
			c0,0,0.1,0,0.1,0c0.3-0.1,0.6-0.2,1-0.2c0,0,0,0,0.1,0c0.4-0.1,0.7-0.2,1.1-0.3c0,0,0.1,0,0.1,0c0.4-0.1,0.8-0.2,1.3-0.3
			c0.1,0,0.1,0,0.2,0c0.4-0.1,0.9-0.2,1.4-0.3c0.1,0,0.2,0,0.2,0c0.5-0.1,1-0.2,1.5-0.3c0.1,0,0.2,0,0.2,0c0.5-0.1,1.1-0.2,1.7-0.3
			c0.1,0,0.1,0,0.2,0c0.6-0.1,1.2-0.2,1.8-0.3c0,0,0.1,0,0.1,0c0.6-0.1,1.3-0.2,1.9-0.3c0.1,0,0.2,0,0.3,0c0.6-0.1,1.3-0.2,1.9-0.3
			c0.1,0,0.2,0,0.3-0.1c0.7-0.1,1.3-0.2,2-0.3c0.1,0,0.2,0,0.3-0.1c0.7-0.1,1.4-0.2,2.1-0.3c0.1,0,0.2,0,0.2,0
			c0.8-0.1,1.5-0.2,2.3-0.3l0.1,0c0,0-14.1-1.6-20.6-8.4c-6.4-6.8,5.1-14.5,5.1-14.5c-5.8-5.1,7.1-12.9,19.4-18.6
			c-0.6,0.1-1.1,0.2-1.6,0.3c0,0,0,0-0.1,0c-0.5,0.1-1,0.2-1.5,0.4c0,0-0.1,0-0.1,0c-0.5,0.1-0.9,0.3-1.4,0.4c0,0-0.1,0-0.1,0
			c-0.4,0.1-0.9,0.3-1.3,0.4c-0.1,0-0.1,0-0.2,0.1c-0.4,0.1-0.8,0.3-1.2,0.5c-0.1,0-0.1,0.1-0.2,0.1c-0.4,0.2-0.8,0.3-1.1,0.5
			c-0.1,0-0.1,0.1-0.2,0.1c-0.4,0.2-0.7,0.3-1.1,0.5c-0.1,0-0.1,0.1-0.2,0.1c-0.3,0.2-0.7,0.4-1,0.5c-0.1,0-0.2,0.1-0.2,0.1
			c-0.3,0.2-0.6,0.4-1,0.6c-0.1,0.1-0.2,0.1-0.3,0.2c-0.3,0.2-0.6,0.4-0.9,0.6c-0.1,0.1-0.2,0.1-0.3,0.2c-0.3,0.2-0.6,0.4-0.9,0.6
			c-0.1,0.1-0.2,0.1-0.3,0.2c-0.3,0.2-0.6,0.4-0.9,0.6c-0.1,0.1-0.2,0.1-0.3,0.2c-0.3,0.2-0.6,0.4-0.8,0.7c-0.1,0.1-0.2,0.2-0.3,0.2
			c-0.3,0.2-0.5,0.5-0.8,0.7c-0.1,0.1-0.2,0.2-0.3,0.3c-0.3,0.2-0.6,0.5-0.8,0.7c-0.1,0.1-0.2,0.2-0.3,0.2c-0.4,0.3-0.7,0.7-1.1,1
			c-11.7,10.8-18.9,10.8-24.7,21.6c0,0-7.2,15.3,0,28.3c0,0,4-8.1,9.4-10.3c0,0-4,4.5-2.7,9c0,0,7.2-12.6,9.9-13.5
			C320.6,274.3,320.7,274.3,320.9,274.2C320.9,274.3,320.9,274.3,320.9,274.2z"/>
		<path style="clip-path:url(#SVGID_00000037670332987237806810000013496985483128837020_);fill:#00E9C5;" d="M296.7,436.3
			c0,0,22.9,63.4,83,58s38.5-49.3,38.5-49.3s34.4,22.3,84.3,34.4s77.2,124.7,77.2,124.7s-47.3,2.4-70.3,14.6c0,0,4.2,41.5,3.6,63.1
			s14.5,170.1,31.4,209.2c0,0-157.2,25-231.5,0c0,0-48.6-12.1-55.3-23.6c0,0,2.7-74.9-6.7-112s5.4-112,5.4-112l-12.1-4.7L211,626.6
			h-38.5l-16.9,7.4c0,0-3.4-89.7,37.8-139.7c0,0,16.2-10.3,61.4-30.4S296.7,436.3,296.7,436.3z"/>
		
			<ellipse style="clip-path:url(#SVGID_00000037670332987237806810000013496985483128837020_);fill:#7A5A13;" cx="339.2" cy="340.6" rx="4.4" ry="6.7"/>
		<path style="opacity:0.5;clip-path:url(#SVGID_00000037670332987237806810000013496985483128837020_);fill:#E0E0E0;" d="
			M512.9,681.9c0.7-21.6-3.6-63.1-3.6-63.1c7.5-4,17.6-6.9,27.9-9.1c-17.9,2.9-42.2-61-42.2-61v99.2l18,42.2
			C512.9,686.5,512.9,683.7,512.9,681.9z"/>
		
			<ellipse style="clip-path:url(#SVGID_00000037670332987237806810000013496985483128837020_);fill:#7A5A13;" cx="395.2" cy="342.7" rx="4.4" ry="6.7"/>
		<g style="clip-path:url(#SVGID_00000037670332987237806810000013496985483128837020_);">
			<path class="st8" d="M373.6,349.3c0.7,3.4,1.3,6.9,1.9,10.3c0.3,1.7,0.6,3.4,1,5c0.2,0.8,0.4,1.6,0.7,2.4c0.2,0.5,0.8,1.6,1,2.5
				c0.5,1.8,0.6,3.8,0.2,5.6c-0.4,1.9-1.4,3.7-3,4.8c-1.6,1.1-3.4,1.7-5.2,1.8c-0.9,0.1-1.8,0-2.7-0.1c-0.9-0.1-1.7-0.3-2.6-0.5
				c0.9,0,1.7-0.1,2.6-0.1c0.9-0.1,1.7-0.2,2.5-0.4l1.2-0.3c0.4-0.1,0.8-0.3,1.1-0.5l0.6-0.2l0.5-0.3c0.3-0.2,0.7-0.4,0.9-0.7
				c2.3-2,2.7-5.6,1.9-8.6c-0.2-0.8-0.5-1.2-0.9-2.3c-0.3-0.9-0.5-1.8-0.7-2.7c-0.3-1.8-0.6-3.5-0.7-5.2
				C373.6,356.3,373.4,352.8,373.6,349.3z"/>
		</g>
		<g style="clip-path:url(#SVGID_00000037670332987237806810000013496985483128837020_);">
			<path class="st9" d="M355.5,326.9c-3.4-2-6.6-4-9.9-5.5c-1.6-0.8-3.3-1.5-4.9-2.1c-1.7-0.6-3.4-1.1-5.2-1.2
				c-1.8-0.1-3.6,0.1-5.3,0.5c-1.8,0.4-3.5,1.1-5.1,2c-3.3,1.8-6.2,4.3-8.8,7.2l-0.3-0.3c2.1-3.3,4.8-6.3,8-8.7
				c1.6-1.2,3.4-2.2,5.4-2.9c2-0.7,4-1.1,6.2-1.2c2.1-0.1,4.2,0.1,6.3,0.6c2.1,0.5,4,1.3,5.8,2.4c1.8,1.1,3.3,2.4,4.7,3.9
				c1.4,1.5,2.6,3.1,3.5,5L355.5,326.9z"/>
		</g>
		<g style="clip-path:url(#SVGID_00000037670332987237806810000013496985483128837020_);">
			<path class="st9" d="M380.7,327.5c1.1-1.5,2.5-2.7,3.9-3.8c1.5-1.1,3.1-2,4.8-2.7c1.7-0.7,3.5-1.2,5.4-1.3
				c1.9-0.1,3.8-0.1,5.6,0.1c1.9,0.2,3.7,0.6,5.5,1.4c1.7,0.7,3.3,1.7,4.8,2.8c2.9,2.3,5.1,5.2,6.7,8.3l-0.4,0.2
				c-2.1-2.7-4.6-5.2-7.5-6.8c-2.9-1.6-6.1-2.5-9.3-2.5c-1.6,0-3.2,0.2-4.8,0.6c-1.6,0.4-3.1,0.8-4.7,1.2c-3.2,0.8-6.4,1.9-9.8,2.9
				L380.7,327.5z"/>
		</g>
		<path style="opacity:0.5;clip-path:url(#SVGID_00000037670332987237806810000013496985483128837020_);fill:#494949;" d="
			M383.3,902.2l-82.2-26.3l-27.1-4.1l-16.5-4.3c0,0,0,7.8-0.4,18.8l-7.3,61.2c0,0-11.7,29.9-17.6,36.6c-6,6.8,23,9.6,23,9.6
			l74.2,11.3C334.9,923.8,383.3,902.2,383.3,902.2z"/>
		<path style="opacity:0.5;clip-path:url(#SVGID_00000037670332987237806810000013496985483128837020_);fill:#E0E0E0;" d="
			M296.7,436.3c0.2,0.5,1.9,8.2-41.8,27.6c-45.2,20.1-61.4,30.4-61.4,30.4C152.3,544.3,155.7,634,155.7,634l16.9-7.4H211l13.1,4.8
			c-0.5-4.4-0.7-7.5-0.7-7.5s-4-86.4,40.6-103c44.5-16.6,72.7-35.9,72.7-35.9C308.6,468.6,297,437.1,296.7,436.3z"/>
		<path style="clip-path:url(#SVGID_00000037670332987237806810000013496985483128837020_);fill:#FFFFFF;" d="M375.2,494.6
			c-0.9,0-1.9,0-2.8,0c-0.2,0-0.4,0-0.7,0c-1.1,0-2.2,0-3.3-0.1c-0.2,0-0.5,0-0.7,0c-0.9-0.1-1.8-0.1-2.6-0.2
			c-0.3,0-0.5-0.1-0.8-0.1c-1.1-0.1-2.1-0.3-3.2-0.4c-0.1,0-0.2,0-0.2,0c-1-0.2-1.9-0.3-2.9-0.5c-0.2,0-0.5-0.1-0.7-0.1
			c-0.9-0.2-1.9-0.4-2.8-0.7c-0.1,0-0.1,0-0.2,0c-1-0.3-2-0.5-3-0.8c-0.2-0.1-0.3-0.1-0.5-0.2c-0.9-0.3-1.7-0.6-2.5-0.9
			c-0.1,0-0.3-0.1-0.4-0.1c-1-0.4-1.9-0.7-2.8-1.1c0,0-2.3-1-2.3-1s-68.3,36.6-109.5,48.5c0,0,35.9,1.7,22.7,106.6l0.2,0.1
			c0,0,0,0,0,0.1c0,0.1-0.1,0.4-0.2,0.8c0,0,0,0,0,0c-0.1,0.6-0.3,1.4-0.5,2.5c0,0,0,0,0,0c0,0,0,0,0,0c-3.7,28.2-6.2,55.3-7.9,79.8
			c0,0,0,0,0,0c0,1.2,0,2.5,0.1,3.7c0,0.1,0,0.3,0,0.4c0,1.2,0.1,2.3,0.1,3.5c0,0.2,0,0.3,0,0.5c0.1,1.2,0.1,2.3,0.2,3.4
			c0,0.1,0,0.2,0,0.3c0.1,1.2,0.2,2.3,0.3,3.5c0,0,0,0,0,0c0.1,1.1,0.2,2.2,0.4,3.3c0,0.2,0,0.3,0.1,0.5c0.1,1,0.3,2,0.5,3
			c0,0.2,0.1,0.4,0.1,0.5c0.2,1,0.3,1.9,0.5,2.9c0,0.1,0.1,0.3,0.1,0.4c0.2,1,0.4,2,0.7,2.9c9.4,37.1,6.7,112,6.7,112
			c6.7,11.5,55.3,23.6,55.3,23.6c74.2,25,231.5,0,231.5,0c-16.9-39.1-32.1-187.6-31.4-209.2c0-0.7,0-1.3,0-2c0,0,0,0,0,0
			c0-0.7,0-1.4,0-2.1c0,0,0,0,0-0.1c0-0.7,0-1.4,0-2.2c0,0,0-0.1,0-0.1c0-0.7,0-1.5,0-2.2c0,0,0-0.1,0-0.1c0-0.7,0-1.5,0-2.3
			c0,0,0-0.1,0-0.1c0-0.8,0-1.5-0.1-2.3c0-0.1,0-0.1,0-0.2c0-0.8,0-1.5-0.1-2.3c0-0.1,0-0.1,0-0.2c0-0.8-0.1-1.6-0.1-2.4
			c0-0.1,0-0.1,0-0.2c0-0.8-0.1-1.6-0.1-2.4c0-0.1,0-0.1,0-0.2c0-0.8-0.1-1.6-0.1-2.4c0-0.1,0-0.1,0-0.2c0-0.8-0.1-1.6-0.1-2.4
			c0-0.1,0-0.1,0-0.2c0-0.8-0.1-1.6-0.1-2.4c0,0,0-0.1,0-0.1c0-0.8-0.1-1.6-0.1-2.5c0,0,0-0.1,0-0.1c0-0.8-0.1-1.6-0.2-2.4
			c0,0,0-0.1,0-0.1c-0.1-0.8-0.1-1.6-0.2-2.4c0,0,0-0.1,0-0.1c-0.1-0.8-0.1-1.6-0.2-2.4c0,0,0,0,0,0l-3-32.9
			c0,0-17.6-58.5-14.8-86.5c0,0-78.6-42.6-78.8-42.4c-0.1,0.1-0.2,0.2-0.3,0.3c-0.2,0.2-0.4,0.4-0.6,0.6c-0.1,0.1-0.2,0.2-0.3,0.3
			c-0.2,0.2-0.4,0.4-0.6,0.6c-0.1,0.1-0.2,0.2-0.4,0.3c-0.2,0.2-0.4,0.4-0.7,0.6c-0.1,0.1-0.2,0.2-0.3,0.3c-0.5,0.4-1,0.8-1.5,1.1
			c-0.1,0.1-0.2,0.2-0.4,0.3c-0.2,0.2-0.4,0.3-0.7,0.4c-0.2,0.1-0.4,0.3-0.6,0.4c-0.2,0.1-0.5,0.3-0.7,0.4c-0.2,0.1-0.4,0.3-0.7,0.4
			c-0.2,0.1-0.5,0.3-0.7,0.4c-0.2,0.1-0.5,0.3-0.7,0.4c-0.2,0.1-0.5,0.2-0.7,0.4c-0.3,0.1-0.5,0.3-0.8,0.4c-0.2,0.1-0.5,0.2-0.7,0.3
			c-0.3,0.1-0.6,0.3-0.9,0.4c-0.2,0.1-0.5,0.2-0.7,0.3c-0.3,0.1-0.7,0.3-1,0.4c-0.2,0.1-0.5,0.2-0.7,0.3c-0.5,0.2-1,0.3-1.4,0.5
			c-0.1,0-0.2,0.1-0.4,0.1c-0.6,0.2-1.2,0.4-1.8,0.6c-0.2,0.1-0.5,0.1-0.7,0.2c-0.4,0.1-0.9,0.2-1.3,0.4c-0.3,0.1-0.5,0.1-0.8,0.2
			c-0.4,0.1-0.8,0.2-1.3,0.3c-0.3,0.1-0.6,0.1-0.9,0.2c-0.4,0.1-0.8,0.2-1.3,0.3c-0.3,0.1-0.6,0.1-0.9,0.2c-0.4,0.1-0.9,0.2-1.4,0.2
			c-0.3,0.1-0.6,0.1-1,0.2c-0.5,0.1-1,0.2-1.5,0.2c-0.3,0-0.6,0.1-1,0.1c-0.5,0.1-1.1,0.1-1.7,0.2c-0.3,0-0.5,0.1-0.8,0.1
			c-0.9,0.1-1.7,0.2-2.6,0.3c-1.2,0.1-2.4,0.2-3.5,0.2C375.9,494.6,375.5,494.6,375.2,494.6z"/>
		<path style="clip-path:url(#SVGID_00000037670332987237806810000013496985483128837020_);fill:#FFFFFF;" d="M340.7,394.2
			c0,0,5.9-0.8,10.6,1.7c4.7,2.5,20.8,1.9,25.4,0s12.7-0.1,12.7-0.1s-10.5,9.6-23.1,9.4S346.2,400.6,340.7,394.2z"/>
		<g style="clip-path:url(#SVGID_00000037670332987237806810000013496985483128837020_);">
			<path class="st12" d="M366.2,405.3c-2.4,0.1-4.8,0-7.2-0.4c-2.4-0.3-4.8-0.9-7-1.8c-2.3-0.9-4.4-2.1-6.4-3.5
				c-2-1.4-3.8-3.1-5.4-4.9l-0.9-1l1.4-0.2c2.2-0.3,4.3-0.2,6.4,0.2c1.1,0.2,2.1,0.5,3.1,0.9c0.5,0.2,1,0.4,1.5,0.7
				c0.5,0.2,0.8,0.4,1.3,0.5c1.9,0.6,3.9,0.8,5.9,1c2,0.2,4.1,0.2,6.1,0.2c2,0,4.1-0.1,6.1-0.3c2-0.2,4-0.5,5.9-1.2
				c2.1-0.7,4.2-0.7,6.3-0.5c2.1,0.1,4.1,0.5,6.1,1c-2-0.3-4.1-0.5-6.1-0.5c-1,0-2,0-3,0.2c-1,0.1-2,0.3-2.9,0.7
				c-1.9,0.8-4,1.2-6.1,1.5c-2.1,0.3-4.1,0.5-6.2,0.6c-2.1,0.1-4.2,0.1-6.2,0c-2.1-0.2-4.2-0.4-6.3-1c-0.5-0.1-1.1-0.4-1.6-0.6
				c-0.4-0.2-0.9-0.4-1.3-0.6c-0.9-0.4-1.9-0.6-2.8-0.8c-1.9-0.4-4-0.4-5.9-0.2l0.4-1.2c3,3.6,6.8,6.6,11.1,8.5
				c2.2,0.9,4.4,1.6,6.8,2.1C361.4,404.8,363.8,405.1,366.2,405.3z"/>
		</g>
		<path style="clip-path:url(#SVGID_00000037670332987237806810000013496985483128837020_);fill:#00E9C5;" d="M450.4,556.7
			c-2.1,0.9-3.4,3-3.4,5.3l0,0v40.2c0,1.1-0.9,2-2,2c-0.2,0-0.4,0-0.6-0.1c-9.1-2.7-15.3-11.1-15.3-20.6c0-0.3,0-0.6,0-0.9v-0.3
			c0-0.2,0-0.4,0-0.7v-0.2c0.1-0.6,0.1-1.1,0.2-1.7l0-0.2c0-0.2,0.1-0.5,0.1-0.7c0,0,0-0.1,0-0.1c0.1-0.6,0.3-1.1,0.5-1.7l0-0.1
			c0.1-0.3,0.2-0.5,0.3-0.8l0,0c0.2-0.6,0.4-1.1,0.7-1.7l0-0.1c0.3-0.5,0.5-1.1,0.8-1.6v0c0.1-0.2,0.3-0.5,0.4-0.7
			c0,0,0.1-0.1,0.1-0.1c0.1-0.2,0.3-0.4,0.4-0.6l0.1-0.1c0.2-0.2,0.3-0.4,0.5-0.7l0.2-0.2c0.7-0.9,1.5-1.8,2.4-2.6
			c0.4-0.3,0.7-0.7,1.1-1c1.1-0.8,1.3-2.3,0.5-3.4c-0.1-0.1-0.1-0.2-0.2-0.2l-1.8-1.8c-0.9-0.9-2.2-0.9-3.2-0.2
			c-1.4,1.1-2.6,2.3-3.7,3.6l0,0l0,0.1c-0.3,0.3-0.5,0.6-0.7,0.9l0,0c-0.2,0.3-0.5,0.6-0.7,0.9l-0.1,0.2c-0.4,0.6-0.8,1.3-1.2,1.9
			l-0.1,0.2c-0.4,0.7-0.8,1.3-1.1,2c0,0.1-0.1,0.1-0.1,0.2c-0.1,0.3-0.3,0.6-0.4,1l-0.1,0.1c-0.1,0.4-0.3,0.7-0.4,1.1l-0.1,0.2
			c-0.1,0.3-0.2,0.6-0.3,1l-0.1,0.2c-0.1,0.4-0.2,0.7-0.3,1.1l-0.1,0.2c-0.1,0.3-0.2,0.6-0.2,0.9c0,0.1,0,0.2-0.1,0.2
			c-0.1,0.4-0.2,0.8-0.2,1.1c0,0.1,0,0.1,0,0.2c-0.1,0.3-0.1,0.7-0.2,1c0,0.1,0,0.2,0,0.3c-0.1,0.4-0.1,0.8-0.1,1.1c0,0,0,0.1,0,0.1
			c0,0.4-0.1,0.7-0.1,1.1c0,0.1,0,0.2,0,0.3c0,0.4,0,0.8,0,1.2h-0.1c0,13.9,9.9,25.7,23.5,28.3c1,0.2,1.7,1,1.7,2v10.9
			c0,1.1,0.9,2,2,2c0,0,0,0,0,0h3.2c1.1,0,2-0.9,2-2l0,0v-10.9c0-0.9,0.7-1.8,1.6-1.9c5.7-1.1,11-3.8,15.1-8
			c1.7-1.7,3.2-3.6,4.4-5.7c8.1-13.7,3.5-31.3-10.2-39.4c-1.8-1.1-3.8-2-5.9-2.6C456.4,555.2,453.2,555.4,450.4,556.7z M470,592.9
			c-2.6,5.5-7.5,9.5-13.3,11.3c-1.1,0.3-2.2-0.3-2.5-1.3c-0.1-0.2-0.1-0.4-0.1-0.6v-35.3c0-1.9,1.6-3.4,3.5-3.4
			c0.4,0,0.9,0.1,1.3,0.3c11,4.6,16.1,17.2,11.5,28.1C470.3,592.1,470.2,592.5,470,592.9L470,592.9z"/>
		<path style="opacity:0.5;clip-path:url(#SVGID_00000037670332987237806810000013496985483128837020_);fill:#E0E0E0;" d="
			M258,868.1c0,0.1,0.1,0.1,0.1,0.2c0.1,0.2,0.2,0.3,0.4,0.5c0.1,0.1,0.1,0.1,0.2,0.2c0.2,0.2,0.3,0.3,0.5,0.5c0,0,0.1,0.1,0.1,0.1
			c0.2,0.2,0.4,0.4,0.7,0.6c0.1,0.1,0.1,0.1,0.2,0.2c0.2,0.2,0.4,0.3,0.6,0.5c0.1,0.1,0.2,0.1,0.3,0.2c0.2,0.2,0.4,0.3,0.6,0.5
			c0.1,0.1,0.1,0.1,0.2,0.2c0.3,0.2,0.6,0.4,0.9,0.6c0.1,0,0.1,0.1,0.2,0.1c0.2,0.2,0.5,0.3,0.8,0.5c0.1,0.1,0.2,0.1,0.3,0.2
			c0.2,0.1,0.5,0.3,0.7,0.4c0.1,0.1,0.2,0.1,0.3,0.2c0.4,0.2,0.7,0.4,1.1,0.6c0,0,0,0,0.1,0c0.3,0.2,0.7,0.4,1.1,0.6
			c0.1,0.1,0.2,0.1,0.4,0.2c0.3,0.1,0.6,0.3,0.8,0.4c0.1,0.1,0.3,0.1,0.4,0.2c0.3,0.2,0.7,0.3,1,0.5c0.1,0,0.2,0.1,0.2,0.1
			c0.4,0.2,0.8,0.4,1.3,0.6c0.1,0.1,0.2,0.1,0.4,0.2c0.3,0.1,0.6,0.3,1,0.4c0.1,0.1,0.3,0.1,0.4,0.2c0.3,0.2,0.7,0.3,1,0.5
			c0.1,0,0.2,0.1,0.3,0.1c0.4,0.2,0.9,0.4,1.4,0.6c0.1,0,0.2,0.1,0.3,0.1c0.4,0.2,0.7,0.3,1.1,0.4c0.1,0.1,0.3,0.1,0.4,0.2
			c0.3,0.1,0.7,0.3,1,0.4c0.1,0.1,0.3,0.1,0.4,0.2c0.5,0.2,0.9,0.4,1.4,0.6c0,0,0.1,0,0.1,0c0.5,0.2,0.9,0.3,1.4,0.5
			c0.1,0.1,0.3,0.1,0.4,0.2c0.4,0.1,0.7,0.3,1.1,0.4c0.1,0,0.3,0.1,0.4,0.1c0.5,0.2,0.9,0.3,1.4,0.5c0,0,0,0,0,0
			c0.5,0.2,1,0.4,1.5,0.5c0.1,0,0.2,0.1,0.3,0.1c0.4,0.1,0.8,0.3,1.2,0.4c0.1,0,0.2,0.1,0.3,0.1c0.4,0.1,0.9,0.3,1.3,0.4
			c0,0,0.1,0,0.1,0.1c0.5,0.2,1,0.3,1.5,0.5c0,0,0,0,0.1,0c0.5,0.2,0.9,0.3,1.4,0.4c0.1,0,0.2,0.1,0.2,0.1c0.4,0.1,0.9,0.3,1.3,0.4
			c0,0,0.1,0,0.1,0c1,0.3,1.9,0.6,2.9,0.9c0,0,0,0,0.1,0c0.5,0.1,0.9,0.3,1.4,0.4c0,0,0,0,0,0h0c2.5,0.5,4.8,1,7.1,1.3l-0.5,0.6
			c4.5,1.3,7.4,2,7.4,2c20.9,7,48.4,10.1,77.1,10.9c-5.2-0.2-48.3-3.6-48.1-60.8l-0.8,1.1c0-7.4,0-15.1,0.8-22.3
			c3.8-35.7-4-141.7-42.9-161c-26.3-13.1-35.8-55.7-39.2-81.9c0,1,0.1,2.1,0.1,3.2c0,0.2,0,0.4,0,0.7c0,0.8,0,1.7,0,2.6
			c0,0.4,0,0.7,0,1.1c0,0.7,0,1.5,0,2.2c0,0.4,0,0.9,0,1.3c0,0.7,0,1.4,0,2.1c0,0.5,0,1,0,1.5c0,0.7,0,1.4,0,2.1c0,0.5,0,1,0,1.6
			c0,0.7,0,1.4-0.1,2.1c0,0.5,0,1.1-0.1,1.6c0,0.7-0.1,1.4-0.1,2.2c0,0.6,0,1.1-0.1,1.7c0,0.7-0.1,1.5-0.1,2.2
			c0,0.6-0.1,1.2-0.1,1.8c0,0.8-0.1,1.5-0.1,2.3c0,0.6-0.1,1.2-0.1,1.8c0,0.8-0.1,1.6-0.2,2.3c0,0.6-0.1,1.3-0.1,1.9
			c-0.1,0.8-0.1,1.6-0.2,2.4c-0.1,0.6-0.1,1.3-0.2,1.9c-0.1,0.8-0.1,1.7-0.2,2.5c-0.1,0.7-0.1,1.3-0.2,2c-0.1,0.9-0.2,1.8-0.3,2.7
			c-0.1,0.7-0.1,1.3-0.2,2c-0.1,0.9-0.2,1.9-0.3,2.9c-0.1,0.6-0.1,1.3-0.2,1.9c-0.1,1.1-0.2,2.1-0.4,3.2c-0.1,0.6-0.1,1.1-0.2,1.7
			c-0.2,1.6-0.4,3.3-0.6,5l0.2,0.1c0,0,0,0,0,0.1c0,0.1-0.1,0.4-0.2,0.8c0,0,0,0,0,0c-0.1,0.6-0.3,1.4-0.5,2.5c0,0,0,0,0,0
			c0,0,0,0,0,0c-3.7,28.2-6.2,55.3-7.9,79.8c0,0,0,0,0,0c0,1.2,0,2.5,0.1,3.7c0,0.1,0,0.3,0,0.4c0,1.2,0.1,2.3,0.1,3.5
			c0,0.2,0,0.3,0,0.5c0.1,1.2,0.1,2.3,0.2,3.4c0,0.1,0,0.2,0,0.3c0.1,1.2,0.2,2.3,0.3,3.5c0,0,0,0,0,0c0.1,1.1,0.2,2.2,0.4,3.3
			c0,0.2,0,0.3,0.1,0.5c0.1,1,0.3,2,0.5,3c0,0.2,0.1,0.4,0.1,0.5c0.2,1,0.3,1.9,0.5,2.9c0,0.1,0.1,0.3,0.1,0.4c0.2,1,0.4,2,0.7,2.9
			c9.4,37.1,6.7,112,6.7,112C257.7,867.7,257.8,867.9,258,868.1z"/>
		<path style="clip-path:url(#SVGID_00000037670332987237806810000013496985483128837020_);fill:#E7B49F;" d="M447.8,530.3
			c-8.8,0.7-54.7,4.7-74.9,6.1c-20.2,1.3-4-25-4-25s6.1-25-9.4-26.3c0,0-6.8-2.1-4.4,14.5c2.4,16.6-11.1,28-11.1,28
			s-6.7,3.4-18.2,42.5c0,0-32.4,52.3-49.8,64l-20.2,12.8l0.6-3.4c0,0-16.9-21.6-49.9-21.6c-33.1,0-37.8,2-50.6,12.1
			c0,0-0.7,6.1-3.4,15.5c-2.7,9.4-6.1,55.3,0,85c6.1,29.7,21.6,73.6,45.9,51.3c0,0,15-5.8,29-14.8c17.7-11.4,51.3-43,80.8-93.1
			c10.3-17.6,18.1-42.4,57.4-57.9c9.7-3.8,30.4-6.1,39.1-14.2c8.8-8.1,3.4-18.9,3.4-18.9s7.3-7.4,1.6-16.9c0,0,4.4-10.7-2.3-17.2
			c0,0,26.3-6.4,41.2-6.4c14.8,0,17.5-2.7,17.5-6.7S456.5,529.6,447.8,530.3z"/>
		<path style="clip-path:url(#SVGID_00000037670332987237806810000013496985483128837020_);fill:#FFFFFF;" d="M379.4,274.4
			c-0.9,0.2-1.5,1-1.6,1.9l0,0l-2.1,15.6c-0.1,0.4-0.5,0.7-0.9,0.7c-0.1,0-0.2,0-0.2-0.1c-3.4-1.5-5.3-5.1-4.9-8.8
			c0-0.1,0-0.2,0-0.3l0-0.1c0-0.1,0-0.2,0.1-0.3l0-0.1c0.1-0.2,0.1-0.4,0.2-0.7l0-0.1c0-0.1,0.1-0.2,0.1-0.3c0,0,0,0,0,0
			c0.1-0.2,0.2-0.4,0.3-0.6l0,0c0-0.1,0.1-0.2,0.2-0.3l0,0c0.1-0.2,0.2-0.4,0.4-0.6l0,0c0.1-0.2,0.3-0.4,0.4-0.6l0,0
			c0.1-0.1,0.1-0.2,0.2-0.2c0,0,0,0,0,0c0.1-0.1,0.1-0.1,0.2-0.2l0,0c0.1-0.1,0.1-0.2,0.2-0.2l0.1-0.1c0.3-0.3,0.7-0.6,1.1-0.9
			c0.2-0.1,0.3-0.2,0.5-0.3c0.5-0.3,0.6-0.8,0.4-1.3c0,0,0-0.1-0.1-0.1l-0.6-0.8c-0.3-0.4-0.8-0.5-1.2-0.2c-0.6,0.4-1.1,0.8-1.6,1.2
			l0,0l0,0c-0.1,0.1-0.2,0.2-0.3,0.3l0,0c-0.1,0.1-0.2,0.2-0.3,0.3l-0.1,0.1c-0.2,0.2-0.4,0.4-0.6,0.7l0,0.1
			c-0.2,0.2-0.4,0.5-0.5,0.7c0,0,0,0,0,0.1c-0.1,0.1-0.1,0.2-0.2,0.3l0,0c-0.1,0.1-0.2,0.3-0.2,0.4l0,0.1c-0.1,0.1-0.1,0.2-0.2,0.4
			l0,0.1c-0.1,0.1-0.1,0.3-0.2,0.4l0,0.1c0,0.1-0.1,0.2-0.1,0.4c0,0,0,0.1,0,0.1c-0.1,0.1-0.1,0.3-0.1,0.4c0,0,0,0,0,0.1
			c0,0.1-0.1,0.3-0.1,0.4c0,0,0,0.1,0,0.1c0,0.1-0.1,0.3-0.1,0.4c0,0,0,0,0,0c0,0.1-0.1,0.3-0.1,0.4c0,0,0,0.1,0,0.1
			c0,0.2,0,0.3-0.1,0.5l0,0c-0.7,5.4,2.5,10.5,7.6,12.2c0.4,0.1,0.6,0.5,0.5,0.8l-0.6,4.2c-0.1,0.4,0.2,0.8,0.7,0.9c0,0,0,0,0,0
			l1.2,0.2c0.4,0.1,0.8-0.2,0.9-0.7l0,0l0.6-4.2c0.1-0.4,0.4-0.6,0.7-0.7c2.3-0.1,4.5-0.9,6.3-2.3c0.8-0.6,1.4-1.2,2-2
			c3.8-4.9,3-11.9-1.9-15.8c-0.7-0.5-1.4-1-2.1-1.3C381.8,274.1,380.6,274.1,379.4,274.4z M385.1,289.4c-1.3,2-3.4,3.3-5.7,3.7
			c-0.4,0.1-0.8-0.2-0.9-0.6c0-0.1,0-0.2,0-0.2l1.9-13.7c0.1-0.7,0.8-1.3,1.5-1.1c0.2,0,0.3,0.1,0.5,0.2c4,2.3,5.3,7.5,3,11.5
			C385.3,289.2,385.2,289.3,385.1,289.4L385.1,289.4z"/>
		<g style="clip-path:url(#SVGID_00000037670332987237806810000013496985483128837020_);">
			<path class="st13" d="M296.7,436.3C296.7,436.3,296.7,436.3,296.7,436.3C296.7,436.3,296.7,436.3,296.7,436.3z"/>
			<path class="st13" d="M296.7,436.3c0.2,0.5,1.9,8.2-41.8,27.6c-45.2,20.1-61.4,30.4-61.4,30.4c-7.7,9.3-13.8,20-18.7,31.2
				c-1.3,30.9,5.8,55.2,5.8,55.2c0-32.4,28.3-68.8,58-80.3c21-8.1,57.1-24.6,76.5-33.6C302.5,452,296.9,436.8,296.7,436.3z"/>
		</g>
		<path style="clip-path:url(#SVGID_00000037670332987237806810000013496985483128837020_);fill:#FFFFFF;" d="M555.7,537.5
			c-12.4-26.7-30.7-52.6-53.2-58c-49.9-12.1-84.3-34.4-84.3-34.4s1.7,3.4,2.8,8.3c22.8,11.5,57.1,28.2,87.6,40.9
			C525,501.2,542.8,516.2,555.7,537.5z"/>
		<g style="clip-path:url(#SVGID_00000037670332987237806810000013496985483128837020_);">
			<g>
				<circle class="st14" cx="815.6" cy="473.4" r="34.9"/>
				<path class="st9" d="M850,479c0,0-1.2-20.5-18.1-21.9c-16.9-1.4-45.6-3.9-50.9,21.9c0,0-13.1-54.4,22.9-47.8
					C843.8,438.6,854.9,438.4,850,479z"/>
			</g>
			<g>
				<path class="st15" d="M873.2,486.2c0,0-11.4,1.8-9.3,11.5s10.1,15.8,4.5,19.7c-5.6,3.9,16.6-3,15.2-16.9
					C882.2,486.5,873.2,486.2,873.2,486.2z"/>
				<circle class="st8" cx="905.6" cy="473.4" r="34.9"/>
				<path class="st15" d="M870.7,473.4c0,0-6.5-35.3,26.2-40.3c0,0-4.3-7.2,5.4-8.3s6.5,8.3,6.5,8.3s34.6,0.2,31.8,40.3
					c0,0-9.5-22-18.6-17.7c-7.3,3.5-21.9,3.5-33,1.1C877.9,454.3,870.7,473.4,870.7,473.4z"/>
			</g>
			<g>
				<circle class="st16" cx="727.8" cy="473.4" r="34.9"/>
				<path class="st17" d="M762.2,479c0,0,4.2-40.6-34.5-40.6c-38.5,0-34.9,40.6-34.9,40.6s6.3-1.9,8.5-5.6s6.1-18.5,6.1-18.5
					s32.7,3.9,39.8,0C747.3,454.9,748.7,477.6,762.2,479z"/>
			</g>
		</g>
		<path style="clip-path:url(#SVGID_00000037670332987237806810000013496985483128837020_);fill:#E0E0E0;" d="M296.7,436.3
			C296.7,436.3,296.7,436.3,296.7,436.3C296.7,436.3,296.7,436.3,296.7,436.3z"/>
		<g style="clip-path:url(#SVGID_00000037670332987237806810000013496985483128837020_);">
			<text transform="matrix(1 0 0 1 716.0872 413.3209)" class="st19 st20 st21">?</text>
		</g>
		<g style="clip-path:url(#SVGID_00000037670332987237806810000013496985483128837020_);">
			<text transform="matrix(1 0 0 1 804.1586 413.3209)" class="st19 st20 st21">?</text>
		</g>
		<g style="clip-path:url(#SVGID_00000037670332987237806810000013496985483128837020_);">
			<text transform="matrix(1 0 0 1 892.2301 413.3209)" class="st19 st20 st21">?</text>
		</g>
		<path style="opacity:0.5;clip-path:url(#SVGID_00000037670332987237806810000013496985483128837020_);fill:#E7B49F;" d="
			M227.2,771c0.4-0.3,0.8-0.6,1.3-0.8c5.7-3.8,13-9.8,21.4-17.7c22-22.4,57.1-83,66.1-102.9s37.3-35.4,37.3-35.4
			c18.6-18.6-9-62.4,4.5-86.8c13.5-24.4,1.6-42.4,1.6-42.4l-4.4,3.6c-0.6,2.2-0.8,5.6,0,10.9c2.4,16.6-11.1,28-11.1,28
			s-6.7,3.4-18.2,42.5c0,0-32.4,52.3-49.8,64l-20.2,12.8c0,0-11.9,9.2-24.5,15.2c0,0,0,0-6.1,3c-27.9,14-50.4,41.8-50.4,41.8
			c16.1-28.9,54.7-47.8,54.7-47.8c-6.4-8.1-5.9-35.1-5.9-35.1c-0.3-0.1-0.7-0.2-1.1-0.2c-0.4-0.1-0.8-0.2-1.2-0.3
			c-0.4-0.1-0.7-0.2-1.1-0.2c-0.4-0.1-0.9-0.2-1.3-0.2c-0.3-0.1-0.7-0.1-1-0.2c-0.8-0.1-1.6-0.2-2.3-0.3c-0.2,0-0.4,0-0.6-0.1
			c-0.6-0.1-1.3-0.1-2-0.2c-0.3,0-0.6,0-0.9-0.1c-0.6,0-1.2-0.1-1.9-0.1c-0.3,0-0.6,0-0.8,0c-0.9,0-1.8-0.1-2.8-0.1c-1,0-2,0-3,0
			c-2,0-3.8,0-5.6,0.1c-3.5,0.1-6.6,0.1-9.4,0.3c-17.5,0.9-22.6,3.9-32.6,11.8c0,0-0.3,2.9-1.4,7.7c-0.5,2.2-1.1,4.8-2,7.8
			c-0.2,0.6-0.3,1.3-0.5,2.2c-0.3,1.3-0.5,2.9-0.8,4.7s-0.5,3.9-0.7,6.2c-0.2,2.3-0.4,4.8-0.6,7.4c-0.1,1.8-0.2,3.6-0.3,5.5
			c-0.3,6.6-0.5,14-0.4,21.5c0,3.2,0.1,6.5,0.3,9.7c0.4,9.7,1.4,19.4,3.1,27.7c1.5,7.4,3.6,15.7,6.3,23.7c1.3,4,2.8,7.8,4.5,11.5
			c0.4,0.9,0.8,1.8,1.3,2.7c5.7,11.8,13.1,20.3,22.1,19.5c0.1,0,0.1,0,0.2,0c0.6-0.1,1.1-0.1,1.7-0.3c0.2,0,0.3-0.1,0.5-0.1
			c0.6-0.2,1.2-0.3,1.8-0.6c2.4-1,5-2.6,7.7-5c0,0,0.5-0.2,1.5-0.6c0.3-0.1,0.7-0.3,1.1-0.5c2.6-1.1,7.1-3.1,12.3-5.7
			C217.4,776.8,222.4,774.1,227.2,771C227.2,771,227.2,771,227.2,771z"/>
		<g style="clip-path:url(#SVGID_00000037670332987237806810000013496985483128837020_);">
			<g>
				<path class="st13" d="M229.5,518.3c-0.2,0.1-0.5,0.1-0.7,0.2c-0.3,0.1-0.6,0.2-0.8,0.3c-0.2,0.1-0.5,0.2-0.5,0.4
					c-0.1,0.3,0.5,1.4,0.6,1.7c0.6-0.2,1.1-0.5,1.7-0.7c0.4-0.2,0.6-0.2,0.8,0.2c0.1,0.2,0.2,0.4,0.3,0.6c0.2,0.5,0.2,0.7-0.3,0.9
					c-0.6,0.2-1.1,0.5-1.7,0.7c0.8,1.8,1.7,3.6,2.5,5.4c0.2,0.4,0.3,0.8-0.3,1c-0.4,0.2-0.7,0.3-1.1,0.5c-0.5,0.2-0.6,0-0.8-0.4
					c-0.8-1.8-1.7-3.7-2.5-5.5c-0.2,0.1-0.3,0.1-0.5,0.2c-0.4,0.2-0.5-0.1-0.7-0.4c-0.1-0.2-0.2-0.5-0.3-0.7
					c-0.3-0.6,0.3-0.7,0.7-0.8c-0.1-0.2-0.2-0.4-0.3-0.6c-0.3-0.7-0.6-1.4-0.4-2.1c0.3-1.2,1.4-1.7,2.5-2.2c0.3-0.1,1.2-0.5,1.6-0.3
					c0.1,0.1,0.2,0.2,0.2,0.3c0,0,0,0.1,0.1,0.1C229.7,517.3,230,518.1,229.5,518.3z M233.3,517.3c-0.2,0.1-0.4,0.2-0.7,0.3
					c-0.6,0.3-0.9,0.3-1.2-0.4c-0.1-0.2-0.2-0.4-0.3-0.6c-0.2-0.5-0.1-0.8,0.4-1c0.3-0.1,0.5-0.2,0.8-0.3c0.4-0.2,0.8,0,1,0.4
					c0,0,0,0.1,0,0.1c0.1,0.2,0.2,0.4,0.3,0.6C233.8,516.7,233.8,517.1,233.3,517.3L233.3,517.3z M237.5,526.3
					c-0.2,0.1-0.4,0.2-0.7,0.3c-0.6,0.3-1,0.3-1.3-0.4c-1-2.1-2-4.3-3-6.4c-0.2-0.5-0.1-0.8,0.4-1c0.3-0.1,0.5-0.2,0.8-0.3
					c0.4-0.2,0.8,0,1,0.4c0,0,0,0.1,0,0.1c1,2.1,2,4.3,3,6.4C238,525.8,238,526.1,237.5,526.3C237.5,526.3,237.5,526.3,237.5,526.3z
					"/>
				<path class="st13" d="M243.7,523.9c-0.8,0.4-1.6,0.7-2.5,0.9c-0.5,0.2-0.6-0.1-0.8-0.5c0-0.1-0.1-0.2-0.1-0.3
					c-0.2-0.4-0.3-0.8,0.1-1c0.3-0.1,0.6-0.2,0.9-0.3c0.6-0.2,1.2-0.4,1.8-0.7c0.6-0.3,0.9-0.4,0.6-1c-0.1-0.2-0.2-0.4-0.4-0.5
					c-0.2-0.1-1.9,0.2-2.2,0.2c-0.4,0-0.8,0-1.2,0c-1.1,0-1.6-0.4-2.1-1.3c-1.2-2.5,0.6-3.3,2.7-4.2c0.4-0.2,0.8-0.4,1.3-0.5
					c0.6-0.2,0.9-0.2,1.2,0.4c0.2,0.5,0.5,1-0.1,1.3c-0.3,0.1-0.6,0.2-0.9,0.3c-0.5,0.2-0.9,0.3-1.4,0.5c-0.6,0.3-1,0.3-0.7,1.1
					c0,0.1,0.1,0.2,0.2,0.3c0.3,0.2,2.1-0.1,2.5-0.2c1.5-0.2,2.4,0,3,1.4C246.8,522.2,245.8,523,243.7,523.9z"/>
				<path class="st13" d="M246.4,511.6c-0.2,0.1-0.4,0.2-0.6,0.3c-0.6,0.3-0.9,0.3-1.2-0.3c-0.1-0.2-0.2-0.4-0.3-0.6
					c-0.2-0.5-0.1-0.8,0.4-1c0.3-0.1,0.5-0.2,0.8-0.3c0.4-0.2,0.8,0,1,0.3c0,0,0,0.1,0,0.1c0.1,0.2,0.2,0.4,0.3,0.6
					C246.9,511,246.9,511.4,246.4,511.6z M250.7,520.6c-0.2,0.1-0.4,0.2-0.6,0.3c-0.6,0.3-0.9,0.3-1.3-0.3c-1-2.1-2-4.3-3.1-6.4
					c-0.2-0.5-0.1-0.8,0.4-1c0.3-0.1,0.5-0.2,0.8-0.4c0.4-0.2,0.8,0,1,0.3c0,0,0,0.1,0,0.1c1,2.1,2,4.3,3.1,6.4
					C251.2,520,251.2,520.4,250.7,520.6z"/>
				<path class="st13" d="M258.9,517.1c-0.5,0.3-0.9,0.5-1.4,0.7c-3.3,1.5-4.4,0.7-5.9-2.4c-1.5-3-1.4-4.4,1.8-5.9
					c0.5-0.2,1-0.4,1.5-0.6c0.5-0.2,0.9-0.4,1.2,0.1c0,0,0,0,0,0c0.2,0.4,0.6,1.3,0,1.5c-0.2,0.1-0.5,0.2-0.7,0.2
					c-0.6,0.2-1.1,0.4-1.6,0.6c-0.7,0.3-0.8,0.5-0.6,1.2c0.2,0.6,0.4,1.2,0.7,1.7c0.3,0.5,0.5,1,0.8,1.5c0.4,0.7,0.7,0.7,1.5,0.3
					c0.5-0.3,1-0.5,1.5-0.9c0.2-0.1,0.4-0.3,0.6-0.4c0.1-0.1,0.3-0.1,0.5,0c0.2,0.1,0.7,0.8,0.7,1
					C259.8,516.6,259.4,516.8,258.9,517.1z"/>
				<path class="st13" d="M267.8,512.8c-0.3,0.1-0.6,0.3-0.9,0.4c-0.4,0.2-0.6,0-0.8-0.4c-0.5,0.8-1.2,1.5-2.1,1.9
					c-1.6,0.8-2.8,0.3-3.6-1.3c-0.9-1.8-0.1-2.9,1.5-3.8c0.7-0.4,1.3-0.8,2.1-1.1c-0.3-0.6-0.7-1.6-1.6-1.2
					c-0.8,0.4-1.5,0.9-2.2,1.5c-0.1,0.1-0.2,0.2-0.4,0.2c-0.6,0.3-0.8-0.3-1-0.7c-0.2-0.3-0.1-0.7,0.1-0.9c0.8-0.6,1.7-1.2,2.6-1.6
					c0.8-0.4,1.9-0.7,2.7-0.4c1,0.4,1.5,1.4,1.9,2.3c0.7,1.3,1.3,2.6,2,3.9C268.4,512.2,268.3,512.6,267.8,512.8z M264.7,510
					c-0.3,0.1-0.6,0.2-0.8,0.3c-0.4,0.2-0.7,0.3-1,0.5c-0.7,0.4-0.8,0.8-0.5,1.5c0.2,0.4,0.6,1.1,1.2,0.8c0.8-0.4,1.4-1.1,1.8-1.9
					C265.1,510.9,264.9,510.5,264.7,510z"/>
				<path class="st13" d="M272.2,510.7c-0.2,0.1-0.4,0.2-0.6,0.3c-0.6,0.3-0.9,0.3-1.2-0.3c-1.6-3.2-3.2-6.5-4.8-9.7
					c-0.3-0.5-0.1-0.8,0.4-1c0.2-0.1,0.5-0.2,0.7-0.4c0.3-0.2,0.8-0.1,0.9,0.3c0,0,0,0.1,0,0.1c1.6,3.2,3.2,6.5,4.9,9.7
					C272.7,510.1,272.7,510.5,272.2,510.7z"/>
				<path class="st13" d="M280.2,507c-0.4,0.3-0.9,0.5-1.4,0.7c-3.2,1.6-4.3,0.7-5.8-2.2c-1.5-3-1.5-4.4,1.7-5.9
					c0.5-0.2,0.9-0.4,1.4-0.6c0.5-0.2,0.9-0.4,1.2,0.1c0,0,0,0,0,0c0.2,0.4,0.6,1.3,0,1.5c-0.2,0.1-0.4,0.2-0.7,0.3
					c-0.6,0.2-1.1,0.4-1.6,0.6c-0.7,0.3-0.8,0.5-0.6,1.2c0.2,0.6,0.4,1.1,0.7,1.7c0.3,0.5,0.5,1,0.9,1.5c0.4,0.7,0.7,0.6,1.5,0.3
					c0.5-0.3,1-0.6,1.5-0.9c0.2-0.1,0.4-0.3,0.6-0.4c0.1-0.1,0.3-0.1,0.5,0c0.2,0.1,0.7,0.8,0.8,1
					C281.1,506.5,280.7,506.7,280.2,507z"/>
				<path class="st13" d="M286.8,503.9c-2.7,1.4-4.6,0.3-5.9-2.2c-1.3-2.5-1.1-4.6,1.7-5.9c2.7-1.4,4.5-0.3,5.8,2.2
					C289.7,500.5,289.5,502.5,286.8,503.9z M285,497.3c-0.6-0.4-1-0.1-1.6,0.2c-0.6,0.3-1,0.5-1.1,1.2c0,0.7,0.3,1.5,0.6,2
					c0.3,0.6,0.7,1.3,1.3,1.7c0.5,0.4,1.1,0.1,1.6-0.2c0.5-0.3,1-0.5,1.1-1.2c0-0.6-0.4-1.5-0.7-2C286,498.5,285.6,497.7,285,497.3z
					"/>
				<path class="st13" d="M298.2,497.8c-0.3,0.2-0.6,0.3-0.9,0.5c-0.4,0.2-0.6,0-0.8-0.3c-0.4,0.8-1.1,1.5-2,2
					c-1.6,0.8-2.8,0.3-3.6-1.2c-0.9-1.7-0.2-2.9,1.3-3.8c0.6-0.4,1.3-0.8,2-1.2c-0.3-0.6-0.7-1.6-1.6-1.1c-0.8,0.4-1.5,0.9-2.2,1.5
					c-0.1,0.1-0.2,0.2-0.4,0.2c-0.6,0.3-0.8-0.3-1-0.7c-0.2-0.3-0.2-0.7,0.1-0.9c0.8-0.7,1.6-1.2,2.5-1.7c0.8-0.4,1.8-0.8,2.7-0.5
					c1,0.4,1.5,1.4,2,2.3c0.7,1.3,1.4,2.6,2.1,3.9C298.7,497.3,298.7,497.6,298.2,497.8z M295,495.2c-0.3,0.1-0.6,0.2-0.8,0.4
					c-0.3,0.2-0.7,0.4-1,0.6c-0.6,0.4-0.8,0.8-0.4,1.5c0.2,0.4,0.6,1,1.2,0.8c0.8-0.4,1.4-1.1,1.8-1.9
					C295.5,496,295.3,495.6,295,495.2z"/>
				<path class="st13" d="M305.9,493.9c-0.4,0.3-0.9,0.5-1.3,0.8c-3.1,1.7-4.3,0.9-5.8-2.1c-1.6-3-1.6-4.3,1.5-6
					c0.5-0.2,0.9-0.4,1.4-0.6c0.5-0.2,0.9-0.5,1.2,0.1c0,0,0,0,0,0c0.2,0.4,0.7,1.2,0.1,1.5c-0.2,0.1-0.4,0.2-0.7,0.3
					c-0.5,0.2-1.1,0.4-1.6,0.7c-0.7,0.4-0.7,0.5-0.5,1.2c0.2,0.6,0.4,1.1,0.7,1.7c0.3,0.5,0.6,1,0.9,1.5c0.4,0.7,0.7,0.6,1.4,0.3
					c0.5-0.3,1-0.6,1.5-0.9c0.2-0.1,0.4-0.3,0.6-0.4c0.1-0.1,0.3-0.1,0.5,0c0.2,0.1,0.7,0.8,0.8,1
					C306.8,493.4,306.4,493.6,305.9,493.9z"/>
				<path class="st13" d="M314.5,489.2c-0.3,0.2-0.6,0.3-0.9,0.5c-0.5,0.2-0.7,0-1-0.4c-0.7-1.3-1.5-2.7-2.2-4
					c-0.1-0.2-0.6-1.1-0.8-1.2c-0.2-0.1-0.4,0.1-0.6,0.1c-0.7,0.4-1.2,1-1.5,1.8c0.8,1.6,1.7,3.1,2.6,4.7c0.2,0.4,0.3,0.8-0.2,1
					c-0.3,0.2-0.6,0.3-0.8,0.5c-0.4,0.2-0.7,0.1-0.9-0.3c-1.7-3.2-3.5-6.4-5.2-9.6c-0.3-0.5-0.2-0.8,0.3-1.1
					c0.2-0.1,0.5-0.3,0.7-0.4c0.3-0.2,0.7-0.1,0.9,0.2c0,0,0,0.1,0.1,0.1c0.5,1,1,2,1.6,2.9c0.5-0.7,1.1-1.3,1.8-1.7
					c1.5-0.8,2.8-0.6,3.7,0.9c0.9,1.6,1.8,3.2,2.7,4.8C315,488.6,315,488.9,314.5,489.2z"/>
			</g>
		</g>
	</g>
</g>
</svg>
