<?xml version="1.0" encoding="utf-8"?>
<!-- Generator: Adobe Illustrator 25.4.1, SVG Export Plug-In . SVG Version: 6.00 Build 0)  -->
<svg version="1.1" id="Iconos" xmlns="http://www.w3.org/2000/svg" xmlns:xlink="http://www.w3.org/1999/xlink" x="0px" y="0px"
	 viewBox="0 0 35.5 40.4" style="enable-background:new 0 0 35.5 40.4;" xml:space="preserve">
<style type="text/css">
	.st0{enable-background:new    ;}
	.st1{fill:#00E9C5;}
</style>
<g class="st0">
	<path class="st1" d="M33.4,40.4h-3.3c-1.6,0-2.3-0.7-2.8-2.1l-2.6-7.5c-4.7,0.1-9.4,0.1-14,0l-2.4,7.1c-1.1,3.2-2.7,2.5-5.8,2.5
		c-1.1,0-2.3-0.1-2.3-1.4c0-0.5,0.3-1.4,0.5-1.9L12.8,2.7C14-0.6,15.6,0,18.8,0c2.1,0,2.8,0.7,3.5,2.6l13,35
		c0.1,0.3,0.2,0.6,0.2,0.9C35.5,39.9,34.6,40.4,33.4,40.4z M17.5,10.4l-4.8,14.2h9.6L17.5,10.4z"/>
</g>
</svg>
