<svg id="Grupo_1855" data-name="Grupo 1855" xmlns="http://www.w3.org/2000/svg" width="38.535" height="38.534" viewBox="0 0 38.535 38.534">
  <path id="Trazado_2005" data-name="Trazado 2005" d="M37.591,17.366l-6.777-1.517L30.094,9.5a1.2,1.2,0,0,0-1.06-1.06L22.79,7.736l-.744-6.661a1.2,1.2,0,0,0-.477-.828,1.176,1.176,0,0,0-.93-.222l-6.811,1.2a1.206,1.206,0,0,0-.934.8L6.173,22.147,2.967,25.353l-.853.853A7.225,7.225,0,1,0,12.333,36.421l.853-.853,3.205-3.205,20.117-6.722a1.213,1.213,0,0,0,.8-.9l1.2-5.958A1.208,1.208,0,0,0,37.591,17.366ZM22.262,10.1l5.546.629.631,5.549L13.311,27.183l-1.958-1.958ZM14.951,3.473l4.843-.855.655,5.876L9.628,23.5,8.6,22.475ZM3.82,34.718a4.814,4.814,0,0,1,0-6.811l6.811,6.811A4.929,4.929,0,0,1,3.82,34.718Zm8.513-1.7L5.522,26.2l1.7-1.705,6.813,6.813ZM35.082,23.58,16.063,29.935,15.038,28.91,29.981,18.132l5.934,1.327Z" transform="translate(0 -0.004)" fill="#050c42"/>
</svg>
