<?xml version="1.0" encoding="utf-8"?>
<!-- Generator: Adobe Illustrator 25.4.1, SVG Export Plug-In . SVG Version: 6.00 Build 0)  -->
<svg version="1.1" id="Iconos" xmlns="http://www.w3.org/2000/svg" xmlns:xlink="http://www.w3.org/1999/xlink" x="0px" y="0px"
	 viewBox="0 0 15.4 44.1" style="enable-background:new 0 0 15.4 44.1;" xml:space="preserve">
<style type="text/css">
	.st0{fill:#FF3737;}
</style>
<path class="st0" d="M0,9.7C0,9.7,0,9.7,0,9.7c0,2.2,1,4.3,2.6,5.7C3.3,16,4,16.4,4.8,16.8c0.2,0.1,0.4,0.3,0.5,0.5
	c0.3,0.8,0.6,1.7,0.9,2.5c0.1,0.1,0.1,0.3,0.1,0.4v14l0,0v1c0,0.1,0,0.2-0.1,0.3c-0.3,0.2-0.5,0.6-0.5,1c0,1.7,0,3.3,0,5
	c-0.1,0.6,0.1,1.2,0.4,1.8l0.5,0.5C7,44.1,7.7,44.2,8.3,44c0.2-0.1,0.4-0.2,0.6-0.3l0.4-0.4c0.2-0.4,0.4-0.8,0.4-1.2
	c0-1.9,0-3.9,0-5.8c0-0.3-0.2-0.6-0.4-0.8c-0.1-0.1-0.2-0.2-0.2-0.4V20.2c0-0.1,0-0.3,0.1-0.4c0.3-0.9,0.6-1.7,0.9-2.6
	c0.1-0.2,0.2-0.4,0.4-0.4c0.3-0.1,0.6-0.3,0.8-0.4c2.1-1.1,3.5-3.1,3.9-5.4c0.2-1.3,0.2-2.6,0.1-3.9c-0.1-2.3-1.3-4.4-3.1-5.7
	C8.8-1,4-0.3,1.5,3.1C0.9,4,0.4,5,0.2,6C0,7.2,0,8.5,0,9.7z M6.5,40.1h2.4c0,0.7,0.1,1.4,0,2.1c-0.1,0.6-0.6,1.1-1.2,1.1
	c-0.6,0-1.1-0.4-1.2-1.1C6.4,41.5,6.5,40.8,6.5,40.1z M8.9,39.1H6.5v-1h2.4L8.9,39.1z M6.4,37.2c0-0.3,0-0.6,0-0.9s0.1-0.3,0.3-0.3
	h1.9c0.1,0,0.3,0.1,0.3,0.2c0,0,0,0.1,0,0.1c0,0.3,0,0.6,0,0.8L6.4,37.2z M7.1,34.2V20.4h1.2v14.9H7L7.1,34.2L7.1,34.2z M6.1,17.4
	c1,0.3,2.1,0.3,3.1,0c-0.3,0.7-0.5,1.4-0.8,2.1c0,0.1-0.1,0.1-0.2,0.1H7.1c-0.1,0-0.2-0.1-0.2-0.1C6.6,18.7,6.4,18,6.1,17.4
	L6.1,17.4z M0.8,9.8V7.5c0-2.2,1.1-4.2,2.9-5.4c2-1.5,4.8-1.7,7-0.5c2.3,1.1,3.8,3.4,3.8,5.9c0,0.7,0,1.3,0,2
	c0.1,2.7-1.4,5.2-3.8,6.4c-0.7,0.4-1.5,0.7-2.2,0.9c-1.1,0.2-2.1,0-3.1-0.5c-1.2-0.5-2.3-1.3-3.1-2.4C1.3,12.7,0.8,11.2,0.8,9.8
	L0.8,9.8z"/>
<path class="st0" d="M3.9,3.5C5.4,2,7.7,1.6,9.7,2.5c2.1,0.8,3.5,2.8,3.5,5c0,0.8,0,1.6,0,2.4c0,2.1-1.3,4-3.2,4.8
	c-1.9,1-4.1,0.8-5.8-0.5C2.9,13.1,2,11.5,2,9.7C2,9,2,8.3,2,7.5C2.1,6,2.8,4.6,3.9,3.5z M5.5,6v2.2h1.7V6H5.5z M8.1,6v2.2h1.7V6
	L8.1,6z M7.2,11.3V9.1H5.5v2.2L7.2,11.3z M8.1,11.3h1.8V9.1H8.1L8.1,11.3z M2.9,8.3h1.7V5.9c-0.4,0-0.8,0-1.3,0C3.2,6,3.2,6,3.1,6.1
	C2.9,6.8,2.8,7.5,2.9,8.3L2.9,8.3z M10.7,8.3h1.7c0.1-0.7,0-1.5-0.3-2.1C12.2,6,12.1,6,12.1,6l-1.4,0L10.7,8.3z M2.9,9.1
	c-0.1,0.7,0,1.4,0.2,2c0,0.1,0.1,0.2,0.2,0.2c0.5,0,0.9,0,1.4,0V9.1L2.9,9.1z M10.7,11.4c0.4,0,0.8,0,1.2,0c0.2,0,0.2-0.1,0.3-0.2
	c0.2-0.6,0.3-1.3,0.2-2h-1.8V11.4z M8.1,14.4c0.6-0.1,1.1-0.2,1.6-0.5c0.1,0,0.1-0.1,0.1-0.1v-1.6H8.1V14.4z M5.5,12.2
	c0,0.5,0,1,0,1.6c0,0.1,0,0.2,0.1,0.2c0.5,0.3,1.1,0.4,1.6,0.5v-2.2L5.5,12.2z M7.3,2.9c-0.6,0-1.1,0.2-1.6,0.4
	c-0.1,0-0.1,0.1-0.1,0.2c0,0.5,0,1.1,0,1.6h1.8L7.3,2.9z M8.1,5.1h1.8c0-0.5,0-1,0-1.5c0-0.1,0-0.1-0.1-0.2C9.3,3.1,8.7,2.9,8.1,2.9
	L8.1,5.1z M4.6,5.1V3.9l-1,1.3L4.6,5.1z M4.6,13.4v-1.2h-1L4.6,13.4z M10.7,12.1v1.2l1-1.2L10.7,12.1z M10.7,3.9V5h1L10.7,3.9z"/>
</svg>
