<svg id="Iconos" xmlns="http://www.w3.org/2000/svg" viewBox="0 0 49.1 27.27135"><defs><style>.cls-1,.cls-2,.cls-3{fill:none;stroke:#00e9c5;}.cls-1,.cls-3{stroke-linecap:round;stroke-linejoin:round;}.cls-2{stroke-miterlimit:10;}.cls-2,.cls-3{stroke-width:0.5px;}.cls-3{stroke-dasharray:2.89 2.89;}.cls-4{fill:#00e9c5;}</style></defs><polyline class="cls-1" points="0.5 26.771 48.6 26.771 24.3 26.771 24.3 17.871"/><path class="cls-2" d="M5.4,14.771"/><path class="cls-3" d="M3.298,20.05138C4.72436,12.41056,15.84077-2.37251,37.22537,1.3052"/><path class="cls-4" d="M36.69817,2.72835l2.96505-.67145c.11533-.02763.167-.08977.044-.1989L37.30069.04736c-.10147-.09484-.13584-.03936-.17518.09648L36.553,2.62825C36.5662,2.70655,36.6231,2.7105,36.69817,2.72835Z"/><path class="cls-4" d="M41.04949,3.38362a.89752.89752,0,0,1,.0897-1.2577.96228.96228,0,0,1,.57549-.22307l.00675-.10756a.87046.87046,0,0,1,.583-.85964.8971.8971,0,0,1,.98744.26711c.504.57151,1.00806,1.143,1.47042,1.69033.04169.02422.09207.08136.13374.10556a1.08109,1.08109,0,0,1,.46283,1.45716l-.004.00773A1.09835,1.09835,0,0,1,44.015,4.995l-.22384-.04644c-.7354.01862-1.47083.0373-2.24793.03174a.88752.88752,0,0,1-.89654-.85529,1.0726,1.0726,0,0,1,.2798-.6735C40.99234,3.434,41.02525,3.42529,41.04949,3.38362Zm2.96111.13179L42.01034,2.35333a.53007.53007,0,0,0-.562.00794.49276.49276,0,0,0-.14649.6813l.01591.02315a.45573.45573,0,0,0,.30044.20241c.64731.181,1.2704.40364,1.91771.58463l.27424.10358Zm.3564-.51752-1.36961-1.576a.5266.5266,0,0,0-.59691-.12382A.50784.50784,0,0,0,42.11,1.7981a.22834.22834,0,0,0,.16867.23734c.61635.33021,1.20849.70209,1.7919,1.041l.08335.04841Zm-.70883,1.316h0c-.69772-.2381-1.42837-.46753-2.12608-.70566a.25525.25525,0,0,0-.17343.01072.47781.47781,0,0,0-.27306.56594.51189.51189,0,0,0,.49331.39808c.20638-.01945.4215-.006.62787-.0254l1.4379-.02857Zm1.43-.59053a.71257.71257,0,0,0-.34413-.36714.20625.20625,0,0,0-.27228.03689.47073.47073,0,0,0-.0639.158l-.37665.84019a.21112.21112,0,0,0,.03691.27229l.08334.04841a.727.727,0,0,0,.76638-.16787A.82243.82243,0,0,0,45.08812,3.72339Z"/></svg>