<svg xmlns="http://www.w3.org/2000/svg" xmlns:xlink="http://www.w3.org/1999/xlink" viewBox="0 0 756 1247.68"><defs><style>.cls-1{isolation:isolate;}.cls-2{fill:#e0782a;}.cls-3{fill:url(#Degradado_sin_nombre_15);}.cls-4{fill:green;}.cls-5{mix-blend-mode:lighten;}.cls-6{fill:#f2d16b;}.cls-7,.cls-8{fill:none;stroke:#fff;stroke-miterlimit:10;}.cls-7{stroke-width:2px;}.cls-8{stroke-width:10px;}.cls-9{fill:#fff;}</style><radialGradient id="Degradado_sin_nombre_15" cx="378" cy="623.84" r="546.83" gradientTransform="translate(0 -629.04) scale(1 2.01)" gradientUnits="userSpaceOnUse"><stop offset="0" stop-opacity="0"/><stop offset="1" stop-opacity="0.6"/></radialGradient></defs><g class="cls-1"><g id="Suelo"><rect class="cls-2" width="756" height="1247.68"/><rect class="cls-3" width="756" height="1247.68"/><rect class="cls-4" x="143.78" y="184.86" width="467.22" height="879.26"/><g id="Capa_2" data-name="Capa 2" class="cls-5"><g id="Capa_1-2" data-name="Capa 1-2"><path class="cls-6" d="M230.44,1106.67a7.45,7.45,0,0,0-4.45,6.81h0v51.9a2.58,2.58,0,0,1-2.58,2.58,2.78,2.78,0,0,1-.75-.11,27.77,27.77,0,0,1-19.78-26.57v-1.53c0-.29,0-.57.06-.86v-.23q.1-1.11.3-2.22l0-.24c.06-.32.12-.64.19-1a1,1,0,0,0,0-.17c.18-.74.38-1.48.61-2.22l.05-.15c.11-.35.23-.69.36-1h0c.28-.74.58-1.48.9-2.14l.06-.12c.34-.7.69-1.38,1.08-2v0c.18-.31.36-.6.55-.9l.12-.18c.17-.27.36-.55.54-.81l.08-.11c.21-.29.41-.57.63-.86l.2-.25a32.73,32.73,0,0,1,3.08-3.38c.47-.43,1-.85,1.48-1.23a3.1,3.1,0,0,0,.59-4.34,2.69,2.69,0,0,0-.27-.32l-2.27-2.26a3.09,3.09,0,0,0-4.12-.23,37.4,37.4,0,0,0-4.82,4.68h0l-.06.07c-.33.38-.64.74-.95,1.17h0c-.31.37-.6.74-.88,1.14l-.14.2c-.46.79-1,1.62-1.52,2.49l-.13.23c-.51.85-1,1.72-1.41,2.62l-.13.26c-.19.41-.38.82-.56,1.24l-.07.09c-.2.45-.38.91-.55,1.37l-.11.29c-.15.41-.3.82-.44,1.24l-.07.2c-.14.47-.29.94-.43,1.41l-.06.27c-.11.41-.22.82-.32,1.22a1.25,1.25,0,0,1-.08.32c-.1.48-.2,1-.29,1.48v.2c-.1.42-.17.89-.23,1.29,0,.13,0,.25-.05.37-.07.49-.13,1-.17,1.48a.43.43,0,0,0,0,.16c-.05.45-.08.91-.1,1.36v1.93h-.07a37.12,37.12,0,0,0,30.33,36.49,2.6,2.6,0,0,1,2.14,2.54v14a2.57,2.57,0,0,0,2.56,2.58h4.14a2.58,2.58,0,0,0,2.58-2.58h0v-14a2.55,2.55,0,0,1,2.07-2.49,37,37,0,0,0,19.5-10.27,37.73,37.73,0,0,0,5.74-7.4,37.11,37.11,0,0,0-20.73-54.2A16.09,16.09,0,0,0,230.44,1106.67Zm25.31,46.68a27.83,27.83,0,0,1-17.15,14.53,2.58,2.58,0,0,1-3.2-1.74,2.64,2.64,0,0,1-.1-.74v-45.62a4.46,4.46,0,0,1,6.14-4.1A27.75,27.75,0,0,1,256.33,1152c-.18.44-.38.87-.58,1.3Z"/><path class="cls-6" d="M294.86,1150.6a13.68,13.68,0,0,1-1.9-.31,20,20,0,0,0-2.45-.15c-.56,0-1.48,0-1.84.51-.51.77-.36,4.3-.36,5.11h5.11c1.13,0,1.69.21,1.69,1.44v2c0,1.48-.36,1.94-1.84,1.94h-5v16.78c0,1.33-.2,2.3-1.79,2.3h-3.22c-1.38,0-1.53-.82-1.53-2v-17h-1.54c-1.12,0-1.23-.86-1.23-1.79v-2.21c0-1.79,1.44-1.44,2.77-1.44v-2c0-2.15,0-4.24,1.32-6,2.1-2.87,5.53-3,8.8-3,1,0,3.58,0,4.24,1a1.89,1.89,0,0,1,.26,1.07v.36C296.39,1148.19,296.39,1150.6,294.86,1150.6Zm10.48,1.53h-2c-1.84,0-2.71-.25-2.71-2.3V1148c0-1.63.67-2.25,2.25-2.25h2.41a2,2,0,0,1,2,2,2.45,2.45,0,0,1,0,.27v1.79c.09,1.43-.37,2.3-2,2.3Zm0,28.13h-2c-1.84,0-2.71-.26-2.71-2.3v-20c0-1.63.67-2.25,2.25-2.25h2.41a2,2,0,0,1,2,2,2.45,2.45,0,0,1,0,.27v20c.09,1.43-.37,2.3-2,2.3Z"/><path class="cls-6" d="M323.69,1180.87a49.66,49.66,0,0,1-7.31-.36c-1.53-.2-1.43-.92-1.43-2.35v-.92c0-1.12.1-2.35,1.48-2.35a23.79,23.79,0,0,1,2.66.3c1.74.16,3.53.26,5.32.26s2.56,0,2.56-1.89a2.75,2.75,0,0,0-.31-1.69c-.41-.51-4.91-1.74-5.73-2a30.54,30.54,0,0,1-2.91-1.18c-2.66-1.33-3.63-2.81-3.63-5.78,0-7.87,5.31-7.77,11.6-7.77,1.28,0,2.51,0,3.79.1,1.84.16,2.55.51,2.55,2.51,0,1.48.11,3.17-1.89,3.17-.87,0-1.79-.16-2.66-.21a34.9,34.9,0,0,0-4.09-.2c-1.94,0-3-.26-3,2a1.55,1.55,0,0,0,.25,1c.51.71,5.37,2,6.45,2.35,4,1.33,5.88,2.66,5.88,7.16C333.31,1180,330,1180.87,323.69,1180.87Z"/><path class="cls-6" d="M344.91,1152.13H343c-1.84,0-2.71-.25-2.71-2.3V1148c0-1.63.66-2.25,2.25-2.25h2.4a2,2,0,0,1,2,2,2.45,2.45,0,0,1,0,.27v1.79C347,1151.26,346.5,1152.13,344.91,1152.13Zm0,28.13H343c-1.84,0-2.71-.26-2.71-2.3v-20c0-1.63.66-2.25,2.25-2.25h2.4a2,2,0,0,1,2,2,2.45,2.45,0,0,1,0,.27v20C347,1179.39,346.5,1180.26,344.91,1180.26Z"/><path class="cls-6" d="M369.57,1180.72a42.08,42.08,0,0,1-4.35.2c-10,0-11.66-3.42-11.66-12.93s1.69-13,11.66-13a42.13,42.13,0,0,1,4.35.25c1.53.16,2.81,0,2.81,1.74v.1c0,1.28,0,4-1.84,4a15.64,15.64,0,0,1-2.05-.2,36.71,36.71,0,0,0-4.8-.41c-2.15,0-2.56.41-3,2.4a24.36,24.36,0,0,0-.41,5.12,40.15,40.15,0,0,0,.2,4.9c.21,2.3,1,2.56,3.23,2.56a37.63,37.63,0,0,0,4.85-.41,12.21,12.21,0,0,1,2-.2,1.4,1.4,0,0,1,1.22.51c.41.41.62,2.86.62,3.48C372.37,1180.62,371.14,1180.51,369.57,1180.72Z"/><path class="cls-6" d="M396.81,1180.26h-2.87c-1.17,0-1.48-.77-1.48-1.84a13.93,13.93,0,0,1-7.56,2.5c-5,0-7.32-2.71-7.32-7.62,0-5.57,3.33-7.46,8.34-8a42.7,42.7,0,0,1,6.49-.41c0-2.05.31-4.91-2.56-4.91a32.14,32.14,0,0,0-7.36,1.07,5.05,5.05,0,0,1-1.23.15c-1.78,0-1.48-1.79-1.48-3.06a1.89,1.89,0,0,1,1.43-2.15,34.88,34.88,0,0,1,8.39-1c2.45,0,5.57.41,7.31,2.35,2,2.25,1.94,5.42,1.94,8.28v12.43C398.85,1179.54,398.34,1180.26,396.81,1180.26Zm-4.35-10.79c-.82,0-1.68-.1-2.5-.1a21.7,21.7,0,0,0-3.22.15c-2.15.31-3,1-3,3.22,0,1.23.2,3.43,1.89,3.43a11.72,11.72,0,0,0,6.85-2.56Z"/><path class="cls-6" d="M410.36,1180.26h-1.79c-1.84,0-2.71-.26-2.71-2.3v-30.68c0-1.64.66-2.2,2.25-2.2h2.3a1.92,1.92,0,0,1,2,2.2V1178C412.35,1179.39,411.94,1180.26,410.36,1180.26Z"/><path class="cls-6" d="M434.85,1180.72a42.08,42.08,0,0,1-4.35.2c-10,0-11.65-3.42-11.65-12.93s1.68-13,11.65-13a42.13,42.13,0,0,1,4.35.25c1.53.16,2.81,0,2.81,1.74v.1c0,1.28,0,4-1.84,4a14.89,14.89,0,0,1-2-.2,36.87,36.87,0,0,0-4.81-.41c-2.15,0-2.56.41-3,2.4a25.1,25.1,0,0,0-.41,5.12c0,1.63.06,3.27.21,4.9.2,2.3,1,2.56,3.22,2.56a37.63,37.63,0,0,0,4.86-.41,12.21,12.21,0,0,1,2-.2,1.44,1.44,0,0,1,1.23.51c.41.41.61,2.86.61,3.48C437.66,1180.62,436.44,1180.51,434.85,1180.72Z"/><path class="cls-6" d="M455.05,1180.92c-8.54,0-11.76-4.91-11.76-12.93s3.17-13,11.76-13,11.71,4.91,11.71,13S463.64,1180.92,455.05,1180.92Zm4.19-18.87c-.92-1.68-2.46-1.63-4.19-1.63s-3.28,0-4.2,1.63-1,4.15-1,5.94.1,4.34,1,5.93,2.51,1.58,4.2,1.58,3.27,0,4.19-1.58.92-4.2.92-5.93S460.11,1163.64,459.24,1162.05Z"/><path class="cls-6" d="M491.3,1180.26h-2.87c-1.17,0-1.48-.77-1.48-1.84a14,14,0,0,1-7.57,2.5c-5,0-7.31-2.71-7.31-7.62,0-5.57,3.33-7.46,8.34-8a42.7,42.7,0,0,1,6.49-.41c0-2.05.31-4.91-2.56-4.91a32.14,32.14,0,0,0-7.36,1.07,5.05,5.05,0,0,1-1.23.15c-1.79,0-1.48-1.79-1.48-3.06a1.89,1.89,0,0,1,1.43-2.15,34.88,34.88,0,0,1,8.39-1c2.45,0,5.57.41,7.31,2.35,2,2.25,1.94,5.42,1.94,8.28v12.43C493.34,1179.54,492.83,1180.26,491.3,1180.26ZM487,1169.47c-.82,0-1.69-.1-2.5-.1a21.7,21.7,0,0,0-3.22.15c-2.15.31-3,1-3,3.22,0,1.23.2,3.43,1.89,3.43a11.72,11.72,0,0,0,6.85-2.56Z"/><path class="cls-6" d="M515.57,1180.72a42.08,42.08,0,0,1-4.35.2c-10,0-11.66-3.42-11.66-12.93s1.69-13,11.66-13a42.13,42.13,0,0,1,4.35.25c1.53.16,2.81,0,2.81,1.74v.1c0,1.28,0,4-1.84,4a15.64,15.64,0,0,1-2-.2,36.87,36.87,0,0,0-4.81-.41c-2.14,0-2.55.41-3,2.4a24.36,24.36,0,0,0-.41,5.12c0,1.63.05,3.27.2,4.9.21,2.3,1,2.56,3.22,2.56a37.63,37.63,0,0,0,4.86-.41,12.21,12.21,0,0,1,2-.2,1.42,1.42,0,0,1,1.22.51c.41.41.62,2.86.62,3.48C518.4,1180.62,517.17,1180.51,515.57,1180.72Z"/><path class="cls-6" d="M543.3,1180.26h-2.73c-1.48,0-1.84-1-1.84-2.3v-13.09c0-.72.1-3.53-.36-4a2.12,2.12,0,0,0-1.64-.41,11.14,11.14,0,0,0-6.23,2.35V1178c0,1.43-.41,2.3-2,2.3h-2.71c-1.38,0-1.84-.77-1.84-2v-31c0-1.64.66-2.2,2.25-2.2h2.37a1.92,1.92,0,0,1,2,2.2v9.46a16,16,0,0,1,6.9-1.74c4.75,0,7.87,2.35,7.87,7.26V1178C545.29,1179.39,544.88,1180.26,543.3,1180.26Z"/></g></g></g><g id="Lineas"><rect class="cls-7" x="143.78" y="184.86" width="467.22" height="879.26"/><line class="cls-7" x1="143.78" y1="623.84" x2="611" y2="623.84"/><line class="cls-7" x1="143.78" y1="721.53" x2="611" y2="721.53"/><line class="cls-7" x1="143.78" y1="526.15" x2="611" y2="526.15"/><line class="cls-7" x1="143.78" y1="238.98" x2="611" y2="238.98"/><line class="cls-7" x1="143.78" y1="1008.7" x2="611" y2="1008.7"/><line class="cls-7" x1="177.47" y1="184.86" x2="177.47" y2="1064.12"/><line class="cls-7" x1="378.09" y1="526.15" x2="378.09" y2="184.86"/><line class="cls-7" x1="574.23" y1="184.86" x2="574.23" y2="1064.12"/><line class="cls-7" x1="378.09" y1="721.53" x2="378.09" y2="1064.12"/><line class="cls-8" x1="134.14" y1="625.35" x2="622.84" y2="624.95"/><path class="cls-9" d="M134.71,636.63A11.28,11.28,0,1,1,146,625.34,11.27,11.27,0,0,1,134.71,636.63Z"/><path class="cls-9" d="M622.28,636.22A11.28,11.28,0,1,0,611,625,11.27,11.27,0,0,0,622.28,636.22Z"/></g></g></svg>