<svg id="Iconos" xmlns="http://www.w3.org/2000/svg" viewBox="0 0 28.94299 13.97624"><defs><style>.cls-1,.cls-2{fill:none;stroke:#00e9c5;stroke-linecap:round;stroke-linejoin:round;}.cls-2{stroke-width:0.5px;stroke-dasharray:2.89 2.89;}.cls-3{fill:#00e9c5;}</style></defs><polyline class="cls-1" points="0.5 13.476 28.443 13.476 15.348 13.476 15.348 4.576"/><path class="cls-2" d="M.5,3.05342C8.66624,1.10929,13.88819.94069,22.4433,1.73369" transform="translate(0 0)"/><path class="cls-3" d="M19.45292,2.89952,22.343,1.95631c.11228-.0382.15794-.10485.02538-.20212L19.80452.17424c-.10982-.085-.1389-.02661-.16549.1123l-.33989,2.52675C19.3195,2.89,19.37652,2.88869,19.45292,2.89952Z" transform="translate(0 0)"/><path class="cls-3" d="M23.457,2.73243a.89752.89752,0,0,1-.11662-1.2555.96226.96226,0,0,1,.5314-.31394l-.01088-.10722a.87045.87045,0,0,1,.435-.94321.89707.89707,0,0,1,1.01777.10249c.59049.48165,1.181.96331,1.72641,1.42787.04509.0171.10412.06526.14918.08234a1.08109,1.08109,0,0,1,.69428,1.36216l-.00273.0083a1.09835,1.09835,0,0,1-1.23526.74281l-.22842-.00931c-.72252.13831-1.44505.27668-2.21265.39793a.88751.88751,0,0,1-1.024-.69762,1.07256,1.07256,0,0,1,.16621-.71011C23.40888,2.79147,23.43992,2.77749,23.457,2.73243ZM26.4,2.37951l-2.163-.82029a.53009.53009,0,0,0-.55316.09949.49276.49276,0,0,0-.03341.69607l.01947.02025a.45576.45576,0,0,0,.32943.1507c.66816.073,1.31922.191,1.98738.264l.28746.05747Zm.26722-.56872L25.05891.47925A.52658.52658,0,0,0,24.4498.45443a.50783.50783,0,0,0-.20507.54075.22833.22833,0,0,0,.20512.20665c.66194.22526,1.30681.4956,1.93769.73484l.09012.03418Zm-.48471,1.414h0c-.7272-.12112-1.48549-.22831-2.2127-.34946a.25523.25523,0,0,0-.16936.03886.4778.4778,0,0,0-.17709.6029.51188.51188,0,0,0,.55162.31229c.20044-.05285.41488-.07461.61532-.12746l1.414-.26269ZM27.497,2.409a.71254.71254,0,0,0-.3994-.30609.20625.20625,0,0,0-.26262.0808.4707.4707,0,0,0-.03728.16627l-.23457.89036c-.03419.09018-.00931.22842.08081.26262l.09013.03418a.727.727,0,0,0,.72873-.29061A.82243.82243,0,0,0,27.497,2.409Z" transform="translate(0 0)"/></svg>