<?xml version="1.0" encoding="utf-8"?>
<!-- Generator: Adobe Illustrator 25.4.1, SVG Export Plug-In . SVG Version: 6.00 Build 0)  -->
<svg version="1.1" id="Iconos" xmlns="http://www.w3.org/2000/svg" xmlns:xlink="http://www.w3.org/1999/xlink" x="0px" y="0px"
	 viewBox="0 0 38.2 34.6" style="enable-background:new 0 0 38.2 34.6;" xml:space="preserve">
<style type="text/css">
	.st0{fill:#00E9C5;}
	.st1{fill:none;stroke:#00E9C5;stroke-linecap:round;stroke-linejoin:round;stroke-miterlimit:10;}
	.st2{enable-background:new    ;}
</style>
<path class="st0" d="M25.8,22.3c1.3-0.6,2.9-0.1,3.5,1.2c0.3,0.6,0.3,1.2,0.2,1.8l0.3,0.1c1.1,0.2,1.9,1.2,2,2.3s-0.5,2.1-1.5,2.6
	c-2,1-4,2-5.9,2.9c-0.1,0.1-0.3,0.2-0.4,0.3c-1.2,1.3-3.2,1.4-4.5,0.2c-1.2-1.1-1.4-2.9-0.5-4.2c0.1-0.2,0.2-0.4,0.3-0.6
	c0.5-2.1,1-4.2,1.6-6.4c0.3-1.4,1.8-2.2,3.1-1.9c0.7,0.2,1.3,0.7,1.7,1.3C25.7,22.1,25.7,22.2,25.8,22.3z M23.2,30.6
	c1.6-1.6,3.2-3.2,4.8-4.8c0.4-0.4,0.6-1,0.4-1.6c-0.3-0.8-1.1-1.2-1.9-0.9c-0.3,0.1-0.6,0.3-0.8,0.7c-1,1.7-2.1,3.3-3.1,5l-0.5,0.7
	L23.2,30.6z M24.4,32l5.5-2.7c0.6-0.3,0.9-1,0.8-1.6s-0.6-1.1-1.2-1.2c-0.3-0.1-0.6,0-0.8,0.3c-1.4,1.5-2.9,2.9-4.3,4.3l-0.2,0.2
	L24.4,32z M21.2,29L21.2,29c1.2-1.8,2.4-3.7,3.6-5.5c0.1-0.1,0.1-0.3,0.1-0.5c-0.1-0.7-0.7-1.2-1.4-1.2s-1.3,0.4-1.5,1.1
	c-0.1,0.6-0.3,1.2-0.4,1.8l-1,4.1L21.2,29z M21.8,33.5c0.5-0.1,1-0.3,1.3-0.7c0.2-0.2,0.3-0.5,0.1-0.8c-0.1-0.1-0.2-0.2-0.4-0.3
	L20.7,30c-0.2-0.2-0.6-0.3-0.8-0.1c-0.1,0.1-0.1,0.1-0.2,0.2c-0.5,0.7-0.5,1.6-0.1,2.3C20.2,33.2,21,33.6,21.8,33.5z"/>
<path class="st1" d="M3,0.5l18.3,2.4c0.7,0.1,1.4,0.3,2,0.7l13.5,8.6c1,0.6,1.2,2,0.5,2.9l0,0c-0.6,0.8-1.8,1-2.6,0.4l-8.3-5.1
	L28,13c0.5,0.8,0.7,1.6,0.5,2.5l-0.8,5c-0.2,1-1.1,1.7-2.2,1.5l0,0c-0.9-0.2-1.5-1-1.4-2l0.6-5.2l-1.8-2.7c-0.8-1.1-2.3-1.3-3.4-0.5
	l0,0c-1,0.8-1.2,2.2-0.5,3.2l2.9,4.3c0.7,1.1,0.4,2.6-0.7,3.3l0,0c-1,0.6-2.3,0.4-3-0.6l-3.8-4.6l-7-3.6c-0.5-0.3-0.9-0.6-1.3-1
	l-1.6-1.8c-0.8-0.9-1.8-1.5-3-1.7l0,0C0.8,9,0.4,8.3,0.5,7.7l0.9-6.2C1.7,0.9,2.3,0.4,3,0.5z"/>
<g class="st2">
	<path class="st0" d="M11,34.6h-0.7c-0.7,0-1.1-0.2-1.1-0.9v-7.9c-0.2,0.1-0.8,0.4-1,0.4c-0.7,0-0.8-0.6-0.8-1.2
		c0-0.5,0.2-0.7,0.6-0.9c0.9-0.4,1.8-0.8,2.8-0.8c0.5,0,0.9,0.4,0.9,0.9v9.6C11.8,34.2,11.6,34.6,11,34.6z"/>
</g>
</svg>
