<svg id="Iconos" xmlns="http://www.w3.org/2000/svg" viewBox="0 0 49.1 31.54299"><defs><style>.cls-1,.cls-2,.cls-3{fill:none;stroke:#00e9c5;}.cls-1,.cls-3{stroke-linecap:round;stroke-linejoin:round;}.cls-2{stroke-miterlimit:10;}.cls-2,.cls-3{stroke-width:0.5px;}.cls-3{stroke-dasharray:2.89 2.89;}.cls-4{fill:#00e9c5;}</style></defs><polyline class="cls-1" points="0.5 31.043 48.6 31.043 24.3 31.043 24.3 22.143"/><path class="cls-2" d="M5.4,19.04267" transform="translate(0 -0.00001)"/><path class="cls-3" d="M2.86735,29.19474C3.24144,9.49792,47.27044-20.338,46.236,21.09312" transform="translate(0 -0.00001)"/><path class="cls-4" d="M44.8334,20.00569l1.28243,2.7564c.05136.1069.123.14425.2037.001l1.26164-2.7346c.07127-.11921.00979-.14109-.1313-.15086l-2.54927-.03494C44.82684,19.87209,44.835,19.92854,44.8334,20.00569Z" transform="translate(0 -0.00001)"/><path class="cls-4" d="M45.38835,26.30663a.89751.89751,0,0,1,1.18026-.44369.9623.9623,0,0,1,.443.42976l.10055-.03878a.87045.87045,0,0,1,1.02456.17079.89708.89708,0,0,1,.16963,1.00876c-.30882.69663-.61764,1.39327-.92187,2.04193-.0046.048-.03548.11764-.04007.16561a1.08109,1.08109,0,0,1-1.13948,1.02858,1.09834,1.09834,0,0,1-1.04236-.99555l-.05128-.22278c-.324-.66044-.64808-1.32088-.96753-2.0293a.88752.88752,0,0,1,.40277-1.17179,1.07257,1.07257,0,0,1,.72881-.027C45.31869,26.27575,45.34037,26.302,45.38835,26.30663Zm1.11676,2.74561.22064-2.30278a.53008.53008,0,0,0-.24189-.50732.49276.49276,0,0,0-.69462.17552.45575.45575,0,0,0-.05846.35751c.10585.66375.16374,1.32289.26959,1.98664l.0204.29244Zm.61907.10773.86011-1.9026a.52658.52658,0,0,0-.13674-.59408.50784.50784,0,0,0-.5757-.05516.22835.22835,0,0,0-.14522.25237c-.04266.69792-.1333,1.39126-.19765,2.0629l-.00919.09595Zm-1.4918-.09452h0c-.075-.7334-.17164-1.4931-.24662-2.22651.0046-.048-.03878-.10054-.08216-.15311a.47781.47781,0,0,0-.62826-.01178.51188.51188,0,0,0-.15571.61447c.10385.1794.18141.3805.28526.5599l.6264,1.2946Zm1.13371,1.05272a.71262.71262,0,0,0,.18989-.466.20625.20625,0,0,0-.14722-.232.47042.47042,0,0,0-.17021.0079l-.92071.00861c-.096-.00919-.22278.05128-.232.14723l-.00919.09595a.727.727,0,0,0,.47256.62626A.82243.82243,0,0,0,46.76609,30.11817Z" transform="translate(0 -0.00001)"/></svg>