<?xml version="1.0" encoding="utf-8"?>
<!-- Generator: Adobe Illustrator 25.4.1, SVG Export Plug-In . SVG Version: 6.00 Build 0)  -->
<svg version="1.1" id="Capa_1" xmlns="http://www.w3.org/2000/svg" xmlns:xlink="http://www.w3.org/1999/xlink" x="0px" y="0px"
	 viewBox="0 0 44.7 31.7" style="enable-background:new 0 0 44.7 31.7;" xml:space="preserve">
<style type="text/css">
	.st0{fill:none;stroke:#00E9C5;stroke-linecap:round;stroke-miterlimit:10;}
	.st1{fill:none;stroke:#00E9C5;stroke-miterlimit:10;}
	.st2{fill:none;stroke:#00E9C5;stroke-width:0.75;stroke-linecap:round;stroke-miterlimit:10;}
	.st3{fill:none;stroke:#FFDE37;stroke-width:3;stroke-miterlimit:10;}
	.st4{fill:#00E9C5;}
</style>
<path class="st0" d="M0.5,31.2V15.5c0-1,1.3-2,2.7-2h38.3c1.4,0,2.7,1,2.7,2v15.6"/>
<path class="st0" d="M42.1,30.9V17.3c0-1-1.2-1.7-2.4-1.7h-4.2h-4.4H27h-4.5H18h-4.8H9.3h-4c-1.3,0-2.4,0.9-2.4,1.7v3v3.1v3.3v4.1
	c3.5,0,10.4,0,19.9,0C32.4,30.8,38.7,30.9,42.1,30.9z"/>
<line class="st1" x1="8.3" y1="15.5" x2="8.2" y2="30.7"/>
<line class="st1" x1="13.3" y1="15.5" x2="13.4" y2="31.2"/>
<line class="st1" x1="18" y1="15.5" x2="18" y2="31.2"/>
<line class="st1" x1="22.5" y1="15.5" x2="22.5" y2="31"/>
<line class="st1" x1="27" y1="15.5" x2="27" y2="31.2"/>
<line class="st1" x1="32.3" y1="15.5" x2="32.2" y2="31.1"/>
<line class="st1" x1="36.6" y1="15.5" x2="36.6" y2="30.6"/>
<path class="st1" d="M42.1,26.7c-3.5-1.2-10.5-2.2-19.7-2.3c-9.1,0-16.2,1.1-19.7,2.3"/>
<path class="st1" d="M42.2,23.7c-3.5-1.3-10.6-2.1-19.8-2.3c-9.1,0-16.1,1-19.6,2.1"/>
<path class="st1" d="M42.5,20.7c-3.5-1.3-10.4-2.4-19.7-2.5c-9.1,0-16.2,1.2-19.7,2.4"/>
<path class="st1" d="M42.2,29.9c-3.5-1.3-10.4-2.1-19.7-2.3c-9.1,0-16.2,1-19.7,2.1"/>
<path class="st2" d="M14.4,3.5C14,2.4,11.1,1.6,9.6,1.9"/>
<path class="st2" d="M15.6,8.6C14,7.4,10,8.2,9.6,9.1"/>
<path class="st2" d="M14.9,6c-1.2-1.2-4.3-1.3-5.7-0.8"/>
<line class="st2" x1="29.7" y1="5.4" x2="41.3" y2="1.9"/>
<line class="st2" x1="29.9" y1="2.4" x2="35.5" y2="0.8"/>
<line class="st2" x1="31.6" y1="7.3" x2="36.6" y2="6"/>
<path class="st3" d="M15.5,3.6"/>
<path class="st3" d="M27.8,1.8"/>
<path class="st4" d="M23.3,1.4c1-0.5,2.2-0.1,2.7,1c0.2,0.4,0.3,0.9,0.1,1.4l0.2,0.1c0.9,0.2,1.5,0.9,1.6,1.8s-0.4,1.7-1.2,2
	c-1.6,0.8-3.1,1.6-4.6,2.3c-0.1,0.1-0.2,0.1-0.3,0.2c-0.9,1-2.5,1.1-3.5,0.1c-0.9-0.8-1.1-2.2-0.4-3.3c0.1-0.2,0.2-0.3,0.2-0.5
	c0.4-1.7,0.8-3.3,1.2-5c0.3-1.1,1.4-1.7,2.4-1.5c0.6,0.1,1,0.5,1.3,1C23.2,1.2,23.2,1.3,23.3,1.4z M21.2,7.8
	c1.3-1.3,2.5-2.5,3.8-3.7c0.3-0.3,0.5-0.8,0.3-1.2c-0.2-0.6-0.9-0.9-1.5-0.7c-0.3,0.1-0.5,0.3-0.6,0.5c-0.8,1.3-1.6,2.6-2.5,3.9
	l-0.3,0.5L21.2,7.8z M22.2,8.9l4.3-2.1c0.4-0.2,0.7-0.7,0.6-1.2s-0.5-0.9-1-0.9c-0.2,0-0.5,0-0.7,0.2C24.3,6,23.1,7.2,22,8.3
	l-0.2,0.2L22.2,8.9z M19.7,6.5L19.7,6.5c1-1.4,1.9-2.9,2.8-4.3c0.1-0.1,0.1-0.2,0-0.4c-0.1-0.5-0.6-1-1.1-1s-1,0.3-1.2,0.9
	c-0.1,0.5-0.2,1-0.3,1.4l-0.8,3.2L19.7,6.5z M20.2,10.1c0.4,0,0.8-0.2,1.1-0.5c0.2-0.1,0.2-0.4,0.1-0.6l-0.1-0.1l-1.9-1.5
	c-0.2-0.2-0.4-0.2-0.6,0c-0.1,0-0.1,0.1-0.1,0.2c-0.4,0.5-0.4,1.2,0,1.8C18.9,9.8,19.5,10.2,20.2,10.1z"/>
</svg>
