<svg id="Iconos" xmlns="http://www.w3.org/2000/svg" viewBox="0 0 25.7 15.14248"><defs><style>.cls-1,.cls-2{fill:none;stroke:#00e9c5;stroke-linecap:round;stroke-linejoin:round;}.cls-2{stroke-width:0.5px;stroke-dasharray:2.81 2.81;}.cls-3{fill:#00e9c5;}</style></defs><polyline class="cls-1" points="0.5 14.642 25.2 14.642 12.3 14.642 12.3 5.642"/><path class="cls-2" d="M6.74125,12.65138C4.93188-.68084,16.98652-3.656,18.35639,5.64248"/><path class="cls-3" d="M16.97762,5.69421,18.498,8.32686c.06058.102.13521.13285.203-.017l1.01571-2.83516c.06048-.125-.00269-.1414-.14409-.1387l-2.54243.18988C16.95931,5.56171,16.97241,5.61722,16.97762,5.69421Z"/><path class="cls-3" d="M17.94849,9.84089a.89751.89751,0,0,1,1.18026-.44368.96225.96225,0,0,1,.443.42976l.10055-.03878a.87044.87044,0,0,1,1.02456.17078.89708.89708,0,0,1,.16963,1.00876c-.30882.69664-.61764,1.39328-.92187,2.04194-.00459.048-.03548.11763-.04007.16561a1.08107,1.08107,0,0,1-1.13947,1.02857,1.09832,1.09832,0,0,1-1.04237-.99554l-.05128-.22278c-.324-.66045-.64808-1.32089-.96752-2.0293a.88751.88751,0,0,1,.40276-1.17179,1.07251,1.07251,0,0,1,.72881-.027C17.87883,9.81,17.90052,9.8363,17.94849,9.84089Zm1.11676,2.74562.22064-2.30278a.53007.53007,0,0,0-.24189-.50732.49276.49276,0,0,0-.69462.17552.45575.45575,0,0,0-.05846.35751c.10585.66374.16374,1.32289.26959,1.98663l.0204.29245Zm.61907.10773.86011-1.90261a.52658.52658,0,0,0-.13674-.59408.50786.50786,0,0,0-.5757-.05515.22835.22835,0,0,0-.14522.25236c-.04266.69793-.1333,1.39127-.19765,2.06291l-.00919.096Zm-1.4918-.09452h0c-.075-.73341-.17164-1.4931-.24662-2.22651.0046-.048-.03878-.10054-.08216-.15312a.47782.47782,0,0,0-.62826-.01178.5119.5119,0,0,0-.15571.61448c.10385.1794.18141.38049.28526.5599l.6264,1.29459Zm1.13371,1.05272a.71262.71262,0,0,0,.18989-.466.20625.20625,0,0,0-.14722-.232.4702.4702,0,0,0-.17021.0079L18.278,12.971c-.09595-.00919-.22278.05128-.232.14723l-.0092.096a.727.727,0,0,0,.47256.62625A.82245.82245,0,0,0,19.32623,13.65244Z"/></svg>