<?xml version="1.0" encoding="utf-8"?>
<!-- Generator: Adobe Illustrator 25.4.1, SVG Export Plug-In . SVG Version: 6.00 Build 0)  -->
<svg version="1.1" id="Iconos" xmlns="http://www.w3.org/2000/svg" xmlns:xlink="http://www.w3.org/1999/xlink" x="0px" y="0px"
	 viewBox="0 0 35.3 39.5" style="enable-background:new 0 0 35.3 39.5;" xml:space="preserve">
<style type="text/css">
	.st0{fill:#00E9C5;}
</style>
<path class="st0" d="M14.1,2.2c0.9-1.9,3.2-2.7,5.1-1.8c0.8,0.4,1.4,1,1.8,1.8L21.4,2c1.4-0.7,3.2-0.4,4.3,0.8s1.4,2.9,0.7,4.3
	c-1.3,2.9-2.7,5.8-4,8.7c-0.1,0.2-0.1,0.5-0.2,0.7c-0.2,2.6-2.4,4.5-5,4.3c-2.3-0.2-4.1-2-4.3-4.2c0-0.3-0.1-0.7-0.3-1
	c-1.3-2.9-2.7-5.8-4-8.6c-0.8-1.9,0-4.1,1.9-5c1-0.4,2.1-0.4,3,0L14.1,2.2z M18.6,13.9c0.4-3.3,0.7-6.5,1.1-9.8
	c0.1-0.8-0.3-1.7-1-2.1c-1-0.7-2.3-0.4-3,0.6c-0.3,0.4-0.4,1-0.3,1.5l1,8.5c0,0.4,0.1,0.9,0.1,1.2L18.6,13.9z M21.3,14.3
	c1.3-2.7,2.5-5.4,3.8-8.1c0.4-0.9,0.1-1.9-0.6-2.5C23.8,3.1,22.8,3,22,3.5c-0.4,0.2-0.7,0.6-0.7,1c-0.3,3-0.6,5.9-1,8.9
	c0,0.1,0,0.3,0,0.4L21.3,14.3z M14.9,13.9v-0.1c-0.4-3.1-0.7-6.3-1.1-9.4c0-0.2-0.2-0.4-0.3-0.6c-0.7-0.7-1.9-0.7-2.7-0.1
	C10,4.3,9.7,5.4,10.1,6.4l1.2,2.5l2.5,5.5L14.9,13.9z M19.7,18.5c0.5-0.5,0.9-1.2,0.9-2c0-0.7-0.2-1-0.9-1c-1.4,0-2.9,0-4.3,0
	c-0.7,0-1,0.3-0.9,1c0.1,1.2,0.9,2.2,2,2.6S18.9,19.3,19.7,18.5z"/>
<path class="st0" d="M0.8,24.7h22.8c0.5,0,0.8,0.4,0.8,0.8l0,0c0,0.5-0.4,0.8-0.8,0.8H0.8c-0.5,0-0.8-0.4-0.8-0.8l0,0
	C-0.1,25.1,0.3,24.7,0.8,24.7z"/>
<path class="st0" d="M27.1,24.7h7.4c0.5,0,0.8,0.4,0.8,0.8l0,0c0,0.5-0.4,0.8-0.8,0.8h-7.4c-0.5,0-0.8-0.4-0.8-0.8l0,0
	C26.2,25.1,26.6,24.7,27.1,24.7z"/>
<path class="st0" d="M11.1,23.5c-0.1,0-0.1,0-0.2,0l-3-1.1c-0.3-0.1-0.4-0.4-0.3-0.6c0.1-0.3,0.4-0.4,0.6-0.3l0,0l3,1.1
	c0.2,0.1,0.4,0.4,0.3,0.6C11.5,23.4,11.4,23.5,11.1,23.5z"/>
<path class="st0" d="M6.4,21.8H6.2l-1.4-0.5c-0.3-0.1-0.4-0.4-0.3-0.6s0.4-0.4,0.6-0.3l1.4,0.5c0.3,0.1,0.4,0.4,0.3,0.6
	C6.8,21.7,6.6,21.8,6.4,21.8z"/>
<path class="st0" d="M13.3,22.6c-0.1,0-0.2,0-0.3-0.1l-3.8-2.7c-0.2-0.2-0.3-0.5-0.1-0.7s0.5-0.3,0.7-0.1l3.8,2.7
	c0.2,0.2,0.3,0.5,0.1,0.7C13.6,22.5,13.5,22.6,13.3,22.6z"/>
<path class="st0" d="M8,18.7c-0.1,0-0.2,0-0.3-0.1l-1.9-1.4c-0.2-0.2-0.3-0.5-0.1-0.7c0.2-0.2,0.5-0.3,0.7-0.1l1.9,1.4
	c0.2,0.2,0.3,0.5,0.1,0.7C8.3,18.7,8.2,18.7,8,18.7z"/>
<path class="st0" d="M12.7,19.8c-0.1,0-0.3-0.1-0.4-0.2l-1.6-1.8c-0.2-0.2-0.2-0.5,0-0.7s0.5-0.2,0.7,0l0,0l1.6,1.8
	c0.2,0.2,0.2,0.5,0,0.7l0,0C13,19.8,12.9,19.8,12.7,19.8z"/>
<path class="st0" d="M10.2,16.9c-0.1,0-0.3-0.1-0.4-0.2l-1.2-1.4c-0.2-0.2-0.2-0.5,0-0.7l0,0c0.2-0.2,0.5-0.2,0.7,0l1.2,1.5
	c0.2,0.2,0.2,0.5,0,0.7C10.5,16.9,10.3,16.9,10.2,16.9z"/>
<path class="st0" d="M24.1,23.5c-0.2,0-0.4-0.1-0.5-0.3c-0.1-0.3,0-0.5,0.3-0.6l3-1.1c0.3-0.1,0.5,0,0.6,0.3l0,0
	c0.1,0.3,0,0.5-0.3,0.6L24.1,23.5C24.2,23.5,24.1,23.5,24.1,23.5z"/>
<path class="st0" d="M28.8,21.8c-0.2,0-0.4-0.1-0.5-0.3c-0.1-0.3,0-0.5,0.3-0.6l1.4-0.5c0.3-0.1,0.5,0.1,0.6,0.3
	c0.1,0.3,0,0.5-0.3,0.6L28.8,21.8L28.8,21.8z"/>
<path class="st0" d="M21.9,22.6c-0.2,0-0.3-0.1-0.4-0.2c-0.2-0.2-0.1-0.5,0.1-0.7l3.8-2.7c0.2-0.2,0.5-0.1,0.7,0.1s0.1,0.5-0.1,0.7
	l-3.8,2.7C22.1,22.5,22,22.6,21.9,22.6z"/>
<path class="st0" d="M27.2,18.7c-0.2,0-0.3-0.1-0.4-0.2c-0.2-0.2-0.1-0.5,0.1-0.7l1.9-1.4c0.2-0.2,0.5-0.1,0.7,0.1s0.1,0.5-0.1,0.7
	l0,0l-1.9,1.4C27.4,18.7,27.3,18.7,27.2,18.7z"/>
<path class="st0" d="M22.5,19.8c-0.1,0-0.2,0-0.3-0.1c-0.2-0.2-0.2-0.5,0-0.7l0,0l1.5-1.8c0.2-0.2,0.5-0.2,0.7-0.1l0,0
	c0.2,0.2,0.2,0.5,0,0.7l-1.6,1.8C22.7,19.8,22.6,19.8,22.5,19.8z"/>
<path class="st0" d="M25,16.9c-0.1,0-0.2,0-0.3-0.1c-0.2-0.2-0.2-0.5,0-0.7l1.2-1.4c0.2-0.2,0.5-0.2,0.7,0s0.2,0.5,0.1,0.7l0,0
	l-1.2,1.4C25.3,16.9,25.2,16.9,25,16.9z"/>
<g>
	<path class="st0" d="M13.9,39.4h-0.6c-0.7,0-1-0.1-1-0.9v-7.4c-0.2,0.1-0.8,0.3-1,0.3c-0.7,0-0.7-0.6-0.7-1.1s0.2-0.7,0.6-0.9
		c0.9-0.4,1.7-0.8,2.7-0.8c0.5,0,0.8,0.3,0.8,0.8v9C14.8,39,14.5,39.4,13.9,39.4z"/>
</g>
<g>
	<path class="st0" d="M24.5,35.7c-1,0.5-2.6,0.4-3.7,0.4v2.5c0,1-0.8,0.9-1.6,0.9c-0.6,0-1-0.2-1-0.9v-9c0-0.6,0.4-0.8,1-0.8h3
		c1.1,0,2,0,2.9,0.8c0.8,0.8,0.9,2,0.9,3C26,33.7,25.7,35.1,24.5,35.7z M20.8,30.8v3.1h1.7c0.2,0,0.6,0,0.8-0.2s0.2-0.9,0.2-1.1
		c0-0.4,0-1.5-0.3-1.6c-0.2-0.1-0.8-0.1-1-0.1C21.7,30.8,21.2,30.8,20.8,30.8z"/>
</g>
</svg>
