<?xml version="1.0" encoding="utf-8"?>
<!-- Generator: Adobe Illustrator 25.4.1, SVG Export Plug-In . SVG Version: 6.00 Build 0)  -->
<svg version="1.1" id="Iconos" xmlns="http://www.w3.org/2000/svg" xmlns:xlink="http://www.w3.org/1999/xlink" x="0px" y="0px"
	 viewBox="0 0 33.5 44.6" style="enable-background:new 0 0 33.5 44.6;" xml:space="preserve">
<style type="text/css">
	.st0{fill:#00E9C5;}
</style>
<path class="st0" d="M9.6,6.8L9.6,6.8c-1,2.2-1,4.7-0.1,6.8c0.4,0.9,0.9,1.7,1.6,2.4c0.2,0.2,0.3,0.4,0.3,0.7
	c-0.1,1-0.2,1.9-0.3,2.9c0,0.2-0.1,0.3-0.1,0.5L4.5,34l0,0L4,35c0,0.1-0.1,0.2-0.2,0.2c-0.5,0.1-0.8,0.4-1,0.8
	c-0.8,1.6-1.5,3.3-2.3,4.9C0.2,41.5,0,42.1,0,42.8l0.2,0.7c0.4,0.6,0.9,1,1.6,1.1c0.3,0,0.5,0,0.8,0l0.6-0.2c0.4-0.2,0.7-0.6,0.9-1
	l2.7-5.8c0.2-0.3,0.1-0.7-0.1-1c-0.1-0.1-0.1-0.3,0-0.5l7.1-14.7c0.1-0.1,0.1-0.2,0.2-0.3c0.7-0.7,1.4-1.4,2.1-2.1
	c0.2-0.2,0.4-0.2,0.6-0.2c0.3,0,0.7,0,1,0c2.6-0.1,4.9-1.5,6.4-3.6c0.8-1.2,1.4-2.5,1.8-3.9c0.9-2.3,0.7-4.9-0.5-7
	C23.2,0.3,18.1-1.2,14,1c-1,0.6-1.9,1.4-2.6,2.3C10.7,4.3,10.1,5.5,9.6,6.8z M2,39.8l2.4,1.1c-0.3,0.7-0.6,1.4-1,2.1
	c-0.3,0.6-1.1,0.8-1.7,0.5s-0.9-1-0.7-1.6C1.3,41.2,1.7,40.6,2,39.8L2,39.8z M4.8,40l-2.4-1.1l0.5-1L5.3,39L4.8,40z M3.2,36.9
	c0.1-0.3,0.3-0.6,0.4-0.8c0-0.1,0.2-0.2,0.3-0.2c0,0,0,0,0.1,0l1.9,1c0.1,0,0.2,0.2,0.2,0.3c0,0,0,0,0,0.1l-0.4,0.9L3.2,36.9z
	 M5.3,34.2l6.3-13.5l0.1-0.2l1.2,0.5L6.1,35.8l-1.3-0.5C4.9,35,5.1,34.6,5.3,34.2L5.3,34.2z M12.2,17.2c0.9,0.7,1.9,1.2,3.1,1.4
	c-0.6,0.6-1.1,1.2-1.7,1.7c-0.1,0.1-0.1,0.1-0.2,0.1c-0.4-0.2-0.8-0.4-1.2-0.5c-0.1-0.1-0.1-0.2-0.1-0.3C12,18.8,12.1,18,12.2,17.2z
	 M10.4,7.2l1-2.3c1-2.1,3-3.6,5.4-4c2.7-0.6,5.5,0.5,7.2,2.7c1.8,2.1,2.2,5.1,1.1,7.6c-0.3,0.7-0.6,1.4-0.9,2
	c-1.1,2.7-3.8,4.5-6.7,4.5c-0.9,0.1-1.8,0-2.6-0.2c-1.1-0.3-2.1-1-2.9-1.9c-1-1.1-1.7-2.4-2-3.8C9.6,10.3,9.7,8.7,10.4,7.2z"/>
<path class="st0" d="M16.3,2.4C18.5,1.6,21,2.3,22.6,4c1.7,1.7,2.2,4.3,1.2,6.5c-0.3,0.8-0.7,1.6-1.1,2.4c-1,2-3.1,3.3-5.4,3.3
	c-2.3,0.1-4.4-1.1-5.5-3.2c-1-1.7-1-3.7-0.2-5.4c0.3-0.7,0.7-1.4,1-2.2C13.4,4.1,14.7,2.9,16.3,2.4z M16.8,5.6l-1,2.2l1.7,0.8l1-2.2
	L16.8,5.6z M19.4,6.8l-1,2.2l1.7,0.8l1-2.2L19.4,6.8z M16,11.7l1-2.2l-1.7-0.8l-1,2.2L16,11.7z M16.9,12l1.7,0.8l1-2.1l-1.7-0.8
	L16.9,12z M13.1,6.6l1.7,0.8l1-2.2C15.4,5,15,4.8,14.5,4.6c-0.1,0-0.2,0-0.3,0.1C13.8,5.2,13.4,5.9,13.1,6.6z M20.9,10.2l1.7,0.8
	c0.4-0.7,0.6-1.5,0.7-2.2c0-0.1,0-0.1-0.1-0.2l-1.3-0.7L20.9,10.2z M12.7,7.5c-0.4,0.7-0.6,1.4-0.7,2.1c0,0.1,0,0.3,0.1,0.3
	c0.4,0.2,0.9,0.4,1.4,0.7l1-2.2L12.7,7.5z M19.4,13.3c0.4,0.2,0.8,0.4,1.2,0.6c0.1,0.1,0.3,0,0.4-0.1c0.5-0.6,0.9-1.2,1.2-1.9
	l-1.7-0.8L19.4,13.3z M15.4,15.2c0.6,0.2,1.2,0.3,1.9,0.3c0.1,0,0.1,0,0.2-0.1l0.7-1.6L16.5,13L15.4,15.2z M13.8,11.8
	c-0.2,0.5-0.5,1-0.7,1.5c0,0.1,0,0.1,0,0.2c0.4,0.5,0.9,0.9,1.4,1.2l1-2.2L13.8,11.8z M19.9,3.3C19.3,3.1,18.7,3,18,3
	c-0.1,0-0.2,0-0.2,0.1c-0.3,0.5-0.5,1.1-0.7,1.6l1.8,0.8L19.9,3.3z M19.7,5.9l1.8,0.8l0.6-1.5c0-0.1,0-0.2,0-0.2
	c-0.3-0.5-0.8-0.9-1.3-1.2L19.7,5.9z M16.3,4.3l0.6-1.2l-1.6,0.7L16.3,4.3z M12.5,12.6l0.6-1.2L12,10.9L12.5,12.6z M19.2,14.2
	l-0.5,1.2l1.6-0.7L19.2,14.2z M22.9,6l-0.6,1.1l1,0.5L22.9,6z"/>
<path class="st0" d="M31.4,17.4c0,0.7-0.5,1.2-1.1,1.5c-0.6,0.2-1.3,0-1.8-0.6c-0.8-1.1-1.7-2.1-2.6-3.1c-0.1-0.1-0.2-0.2-0.3-0.3
	c-0.9-0.6-1.2-1.8-0.6-2.7c0.5-0.8,1.6-1.2,2.5-0.8c0.1,0,0.2,0.1,0.3,0.1c1.4,0,2.7,0.1,4.1,0.1c0.7,0,1.3,0.4,1.5,1.1
	c0.2,0.7,0,1.4-0.5,1.8l-0.2,0.1c0.6,0.7,0.4,1.7-0.3,2.3c-0.3,0.2-0.6,0.3-1,0.3L31.4,17.4z M27.4,14.1l0.4,0.3l3.1,2
	c0.4,0.3,1,0.2,1.3-0.2c0.3-0.4,0.2-0.9-0.2-1.2c-0.1-0.1-0.2-0.1-0.3-0.2l-3.9-1.6L27.4,14.1z M28,12.7c0.1,0,0.2,0.1,0.3,0.1
	c1.2,0.4,2.3,0.9,3.5,1.3c0.2,0.1,0.4,0,0.5-0.1c0.4-0.3,0.5-0.9,0.3-1.3c-0.2-0.2-0.4-0.4-0.7-0.4c-1.3,0-2.5-0.1-3.8-0.1L28,12.7z
	 M26.7,15l1.6,2l0.7,0.9c0.3,0.3,0.8,0.4,1.1,0.3c0.4-0.2,0.7-0.6,0.5-1c-0.1-0.2-0.2-0.3-0.2-0.3c-1.1-0.8-2.3-1.5-3.4-2.2l0,0
	L26.7,15z M25.4,13c-0.1,0.4,0.2,1,0.6,1.3c0.1,0.1,0.4,0,0.5-0.1c0,0,0,0,0.1-0.1l0.8-1.6c0.1-0.2,0-0.5-0.1-0.6c0,0,0,0-0.1,0
	c-0.3-0.1-0.6-0.1-0.9,0C25.7,12.1,25.5,12.5,25.4,13z"/>
<path class="st0" d="M26.7,28.8L23.2,28c-0.3-0.1-0.5-0.3-0.4-0.6c0-0.1,0.1-0.2,0.1-0.3l1.3-1.4l-3.5-3.3c-0.2-0.2-0.2-0.5,0-0.8
	l1.6-1.7c0.2-0.2,0.5-0.2,0.8,0l3.5,3.3l1.3-1.4c0.2-0.2,0.4-0.2,0.7,0c0.1,0.1,0.1,0.1,0.2,0.2l1,3.4l1,3.4
	c0.1,0.3-0.1,0.6-0.3,0.7c-0.1,0-0.2,0-0.3,0L26.7,28.8z"/>
</svg>
