<svg id="Iconos" xmlns="http://www.w3.org/2000/svg" viewBox="0 0 41.33762 45.01573"><defs><style>.cls-1{fill:none;stroke:#00e9c5;stroke-linecap:round;stroke-linejoin:round;}.cls-2{fill:#00e9c5;}</style></defs><circle class="cls-1" cx="19.24034" cy="4.6" r="4.1"/><path class="cls-1" d="M21.94034,31.1l-4.7,3.3-3.4,7.7a2.49239,2.49239,0,0,1-3.1,1.4h0a2.57107,2.57107,0,0,1-1.7-3.5l2.6-5.7a7.4586,7.4586,0,0,1,.7-1.2"/><path class="cls-1" d="M12.87532,25.83794,14.34035,14.3a3.87537,3.87537,0,0,1,2.4-3h0a14.08107,14.08107,0,0,1,8.6-.6l1.2.4a4.66448,4.66448,0,0,1,2,1.2l6.6,7.7a6.97222,6.97222,0,0,1,1.5,3.9l.6,10.5,3.2,6.4c.7,1.3.5,2.7-.8,3.3l-.4.2c-1.2.6-2.8-.1-3.7-1.5l-3.2-5.8a6.109,6.109,0,0,1-.8-3l-.4-7.7-2.1-.2"/><path class="cls-1" d="M12.65324,25.165"/><path class="cls-1" d="M11.98359,29.47748"/><path class="cls-1" d="M17.04034,27.2l6.4-3.1-5.4-5.4-1.8,12.4a2.31147,2.31147,0,0,1-2.5,1.9h0a2.1034,2.1034,0,0,1-1.9-2.6l.37216-1.29134"/><path class="cls-1" d="M27.24034,17.5l1.5,9.6-2.5,6.5a2.2831,2.2831,0,0,1-3,1.3h0a2.36782,2.36782,0,0,1-1.3-3l2-5.3-1.3-8.4"/><path class="cls-2" d="M.98894,13.9779h0a4.76293,4.76293,0,0,0,2.98117,2.51285,6.36827,6.36827,0,0,0,1.61035.20111.74993.74993,0,0,1,.41444.148c.3819.37.79045.7962,1.17235,1.16617.08289.0296.13619.14207.16283.19831l3.73069,7.87362h0l.26648.5624a.22865.22865,0,0,1,.0237.19536.76591.76591,0,0,0-.01472.69564l1.33238,2.812a1.84979,1.84979,0,0,0,.70462.90573l.41444.148a1.22568,1.22568,0,0,0,1.00938-.34053l.2575-.32861.11837-.33155a1.76894,1.76894,0,0,0-.09482-.78147l-1.54557-3.26192a.76823.76823,0,0,0-.43814-.34333.32336.32336,0,0,1-.21907-.17167L8.90481,17.45817a.37411.37411,0,0,1-.05035-.25161c-.07111-.5861-.11558-1.116-.18669-1.70207.00295-.13913.00589-.27826.11837-.33155a3.69527,3.69527,0,0,0,.34333-.43814,4.66637,4.66637,0,0,0,.75439-4.07623,10.56271,10.56271,0,0,0-.983-2.22A4.66034,4.66034,0,0,0,5.63847,6.059,4.83355,4.83355,0,0,0,.07379,9.86634a5.20764,5.20764,0,0,0,.04167,1.97739A14.28533,14.28533,0,0,0,.98894,13.9779ZM12.74547,29.34279l1.34976-.63955a9.15987,9.15987,0,0,1,.5596,1.181.79551.79551,0,0,1-.38176.93841.74235.74235,0,0,1-.968-.29886A9.15987,9.15987,0,0,1,12.74547,29.34279Zm1.08328-1.20195-1.34976.63955-.26648-.56241,1.34976-.63954Zm-1.91231-.40237-.23983-.50616c-.07994-.16872-.0237-.19537.08878-.24866l1.06856-.50631c.05624-.02665.19537-.0237.222.03254l.02664.05624.21319.44992Zm-.40575-1.87373L7.8333,18.1036l.67488-.31977L12.4787,26.1636l-.73113.34642-.23688-.64528ZM6.47147,16.68288a3.39263,3.39263,0,0,0,1.74344-.82608c.01781.47362.09187.9206.10968,1.39422.02665.05624-.02959.08289-.08583.10954l-.61864.29312a.21728.21728,0,0,1-.13913-.00294c-.3819-.37-.68092-.71036-1.00952-.96786ZM1.46551,13.821l-.6129-1.29352a4.02557,4.02557,0,0,1,.192-3.80975A4.08956,4.08956,0,0,1,4.84816,6.57115,4.10956,4.10956,0,0,1,8.55751,8.8767l.53295,1.1248a4.28213,4.28213,0,0,1-.43167,4.612,6.34959,6.34959,0,0,1-.99745,1.09241,2.97558,2.97558,0,0,1-1.87668.54488,4.51624,4.51624,0,0,1-2.383-.52368A4.03815,4.03815,0,0,1,1.46551,13.821Z"/><path class="cls-2" d="M1.53015,9.45176a3.21855,3.21855,0,0,1,2.99544-2.108A3.35677,3.35677,0,0,1,7.82638,9.22312l.63955,1.34976a3.26762,3.26762,0,0,1-.52059,3.55225A3.31457,3.31457,0,0,1,4.55018,15.3895,3.69977,3.69977,0,0,1,2.11375,13.445l-.58626-1.23728A3.90953,3.90953,0,0,1,1.53015,9.45176Zm1.566.97964.58625,1.23728.95608-.453L4.05226,9.97838Zm1.46224-.69285.58625,1.23729.95609-.453L5.51451,9.28554Zm.90617,3.22056-.58625-1.23728-.95608.453.58625,1.23728Zm.50617-.23983,1.01232-.47966-.58625-1.23728L5.3845,11.482Zm-3.86567-.23436,1.09783-.52017L2.56337,10.615l-.73112.34643c-.05918.04093-.02959.08288-.05918.16577a3.32263,3.32263,0,0,0,.47377,1.29058Zm4.52847-2.14569.95609-.453a3.58809,3.58809,0,0,0-.60657-1.10883C6.905,8.6281,6.808,8.67264,6.808,8.67264l-.78736.37307ZM2.46,12.86768a2.75114,2.75114,0,0,0,.64544,1.07151.13384.13384,0,0,0,.16577.05918l.78736-.37307L3.47234,12.388Zm4.99962-.785.67489-.31978c.11248-.05329.11542-.09422.11542-.19242a2.7513,2.7513,0,0,0-.42047-1.1781L6.81715,10.872l.58625,1.23728Zm-.6628,2.38a2.66614,2.66614,0,0,0,.7666-.70756.061.061,0,0,0,.02959-.08289l-.42636-.89984-.95609.453Zm-2.0485-.54444.42637.89984c.02664.05624.05329.11248.10953.08583a3.07349,3.07349,0,0,0,1.03308-.14516l-.58625-1.23728Zm-1.46592-5.71a2.60933,2.60933,0,0,0-.79325.65133c-.05624.02665-.02959.08289-.00294.13913l.42636.89984,1.01232-.47966Zm1.03617,1.0241,1.01233-.47966-.39972-.8436c-.02665-.05624-.02665-.05624-.10954-.08583a2.098,2.098,0,0,0-1.08932.17181Zm-1.9684.93267-.31977-.67488-.216.9976ZM4.562,14.833l-.31977-.67488-.5624.26648Zm3.08423-2.35663.31977.67488.24263-.94136ZM5.46106,7.86467l.29313.61864.5624-.26648Z"/></svg>