<svg id="Iconos" xmlns="http://www.w3.org/2000/svg" viewBox="0 0 34.02007 42.18862"><defs><style>.cls-1,.cls-2,.cls-3{fill:none;stroke:#00e9c5;}.cls-1,.cls-3{stroke-miterlimit:10;}.cls-2,.cls-3{stroke-linecap:round;}.cls-2{stroke-linejoin:round;}.cls-3{stroke-width:0.5px;}.cls-4{fill:#00e9c5;}</style></defs><circle class="cls-1" cx="17.10559" cy="13.07578" r="2.6"/><path class="cls-2" d="M9.27019,16.72372q.01826.02565.0354.05206l2.6,3.6,5.3-2.2a11.59905,11.59905,0,0,0,3.9-2.6l2.1-2,.2-2.5a1.66927,1.66927,0,0,1,1.8-1.5h0a1.55566,1.55566,0,0,1,1.40029,1.69687l-.00029.00313-.2,2.4a4.42012,4.42012,0,0,1-1.1,2.4l-2.6,2.6.4,9.8,1.8,5.3a3.5984,3.5984,0,0,1,.1,2.3l-.9,4.4a1.53744,1.53744,0,0,1-1.7,1.2h-.2a1.55728,1.55728,0,0,1-1.2-1.8l1.1-4.9-2.4-6-3.6,11.3a1.48936,1.48936,0,0,1-1.7,1h0a1.47258,1.47258,0,0,1-1.2-1.9l3.7-12.2-.3-5.4-4.2,1.7a2.32774,2.32774,0,0,1-2.7-.8l-2.9-4.1"/><path class="cls-2" d="M6.80559,18.57578c-1.27048-2.65287,2.30962-2.583,2.661-1.57708"/><path class="cls-2" d="M6.64968,17.767"/><path class="cls-2" d="M6.80559,18.57578"/><path class="cls-3" d="M33.77007,9.9894s-4.13478-5.06081-13.483-5.37711"/><path class="cls-3" d="M28.78214,5.4157A20.37645,20.37645,0,0,0,23.5687,3.83421"/><path class="cls-3" d="M31.28762,9.168a18.81782,18.81782,0,0,0-6.56173-2.8467"/><path class="cls-4" d="M17.0339.50581A.89753.89753,0,0,1,18.26725.768a.96232.96232,0,0,1,.14163.60074l.1056.02151a.87046.87046,0,0,1,.7711.69591.8971.8971,0,0,1-.40063.9412c-.63551.42046-1.271.84094-1.87682,1.22345-.02974.038-.09328.08-.123.11793a1.08109,1.08109,0,0,1-1.507.25761L15.371,4.62125a1.09835,1.09835,0,0,1-.34169-1.40032l.07684-.21531c.0829-.73095.16574-1.46193.27834-2.23085a.8875.8875,0,0,1,.97067-.77009,1.0725,1.0725,0,0,1,.62851.36994C16.99185.4423,16.996.4761,17.0339.50581Zm-.53859,2.91474,1.42663-1.821a.5301.5301,0,0,0,.06958-.55772.49276.49276,0,0,0-.65461-.239h0l-.02512.01256a.45576.45576,0,0,0-.24188.26968c-.26847.61619-.57482,1.20267-.84329,1.81886l-.14038.25735Zm.46347.42431L18.7085,2.7055a.52658.52658,0,0,0,.2049-.57415.50781.50781,0,0,0-.45526-.35665.22832.22832,0,0,0-.25831.13435c-.412.565-.86193,1.1002-1.278,1.63135l-.05944.07587ZM15.753,2.96144h0c.332-.65824.6599-1.35031.99191-2.00856a.25526.25526,0,0,0,.01328-.17325A.4778.4778,0,0,0,16.23527.4312.51188.51188,0,0,0,15.773.86494c-.00917.20709-.05219.41829-.06137.62538l-.16986,1.42813Zm.3878,1.49767a.71253.71253,0,0,0,.41105-.29026.20625.20625,0,0,0,.001-.27477.47058.47058,0,0,0-.14765-.08505l-.78027-.48883a.21111.21111,0,0,0-.27477-.001l-.05944.07588a.727.727,0,0,0,.06066.78219A.82241.82241,0,0,0,16.1408,4.45911Z"/><path class="cls-4" d="M.47141,5.76375h0A3.27642,3.27642,0,0,0,2.337,7.69077a4.381,4.381,0,0,0,1.08811.2496.516.516,0,0,1,.27334.1301c.23564.27978.48561.59987.72126.87962.05467.026.08332.1067.09765.147L6.5231,14.74507h0l.14327.40342a.15731.15731,0,0,1,.00264.13535.52687.52687,0,0,0-.05844.47506L7.32692,17.776a1.27247,1.27247,0,0,0,.41925.66885l.27335.1301A.84311.84311,0,0,0,8.734,18.4121l.19908-.207.10406-.21868a1.21686,1.21686,0,0,0-.01056-.54141l-.831-2.33986a.5285.5285,0,0,0-.276-.26543.22244.22244,0,0,1-.138-.13272L5.64691,8.696a.25739.25739,0,0,1-.017-.1757c-.00791-.40606-.0015-.7718-.00942-1.17784.01169-.095.02337-.19.10406-.21868a2.54229,2.54229,0,0,0,.26543-.276,3.21,3.21,0,0,0,.7997-2.73725,7.26611,7.26611,0,0,0-.5184-1.58767A3.20588,3.20588,0,0,0,4.204.66748,3.325,3.325,0,0,0,.131,2.88625,3.58231,3.58231,0,0,0,.022,4.24244,9.82691,9.82691,0,0,0,.47141,5.76375ZM7.44908,17.09659l.96822-.34385a6.301,6.301,0,0,1,.30087.84716.54723.54723,0,0,1-.32652.61568.51066.51066,0,0,1-.6417-.27183A6.30152,6.30152,0,0,1,7.44908,17.09659Zm.82495-.74728-.96822.34385-.14327-.40343.96821-.34384ZM6.99325,15.941l-.12894-.36308c-.043-.121-.00264-.13536.07805-.164l.7665-.27221c.04035-.01433.13536-.00264.14967.0377l.01433.04034.11462.32274Zm-.14741-1.31056L4.86871,9.06317l.48411-.17192,2.13473,6.011-.52446.18625ZM4.03548,7.99617A2.33378,2.33378,0,0,0,5.28609,7.552c-.02074.32537-.00113.63643-.02187.9618.01433.04034-.026.05467-.06636.069l-.44376.15759a.14947.14947,0,0,1-.095-.01168C4.42345,8.449,4.24247,8.19525,4.03548,7.99617ZM.80848,5.68951.479,4.76164a2.76923,2.76923,0,0,1,.39628-2.594A2.81324,2.81324,0,0,1,3.62756.963,2.827,2.827,0,0,1,6.00587,2.79881l.28653.80684A2.94571,2.94571,0,0,1,5.67632,6.732a4.36769,4.36769,0,0,1-.75859.67827,2.04692,2.04692,0,0,1-1.32225.24243A3.10679,3.10679,0,0,1,2.001,7.12863,2.77785,2.77785,0,0,1,.80848,5.68951Z"/><path class="cls-4" d="M1.33387,2.635A2.214,2.214,0,0,1,3.546,1.42876a2.30911,2.30911,0,0,1,2.1088,1.54273l.33147.97253a2.2478,2.2478,0,0,1-.63379,2.387,2.28011,2.28011,0,0,1-2.41933.59842,2.5451,2.5451,0,0,1-1.513-1.51962l-.30384-.89148A2.68938,2.68938,0,0,1,1.33387,2.635Zm.9936.79208.30384.89148.68887-.23478-.30382-.89149ZM3.381,3.068l.30384.89149.68887-.23477-.30381-.8915ZM3.74831,5.34,3.44448,4.4485l-.68888.23477.30384.89148Zm.36471-.1243.72939-.24859L4.53858,4.0756l-.72939.2486ZM1.48941,4.753l.791-.26959L1.949,3.51088l-.52679.17955c-.04365.02334-.02671.05433-.05342.10866a2.28571,2.28571,0,0,0,.2228.91911Zm3.26285-1.112.68888-.23478a2.46819,2.46819,0,0,0-.32778-.80528c-.04166-.10815-.11144-.0853-.11144-.0853l-.5673.19335ZM1.702,5.04236a1.89265,1.89265,0,0,0,.35726.78282A.09208.09208,0,0,0,2.168,5.8786l.5673-.19335-.30382-.8915ZM5.1804,4.89712l.48627-.16573c.08105-.02762.08626-.05536.09394-.12248a1.89257,1.89257,0,0,0-.19517-.83806l-.72938.24857.30384.89148ZM4.54116,6.47183a1.83377,1.83377,0,0,0,.5793-.42358.042.042,0,0,0,.02726-.0527l-.00055-.00163-.221-.64835-.68888.23477Zm-1.35741-.5324.221.64835c.0138.04052.02761.081.06814.06723a2.114,2.114,0,0,0,.7174-.01836l-.30384-.89148Zm-.555-4.01715a1.79491,1.79491,0,0,0-.59311.38307c-.04052.01381-.02671.05433-.0129.09485l.221.64835L2.9731,2.8Zm.628.781.7294-.24859L3.779,1.84686c-.01381-.04053-.01381-.04053-.06815-.06724a1.44324,1.44324,0,0,0-.75792.03218Zm-1.41826.48338-.16573-.48627-.2257.6649ZM2.98482,6.55,2.8191,6.06377l-.40522.13811ZM5.27713,5.18079l.16573.48626.23949-.62437ZM4.14461,1.858l.15192.44574.40522-.13811Z"/></svg>