<svg id="Iconos" xmlns="http://www.w3.org/2000/svg" viewBox="0 0 43.1469 21.06431"><defs><style>.cls-1,.cls-2{fill:none;stroke:#050b3d;stroke-linecap:round;stroke-linejoin:round;}.cls-2{stroke-width:0.5px;stroke-dasharray:2.81 2.81;}.cls-3{fill:#050b3d;}</style></defs><polyline class="cls-1" points="0.5 20.564 42.647 20.564 22.737 20.564 22.737 11.564"/><path class="cls-2" d="M1.15854,3.49427C11.16762-2.97966,25.49873.52152,26.71367,11.44819"/><path class="cls-3" d="M25.3349,11.61652l1.52038,2.63265c.06058.102.13521.13285.203-.017L28.074,11.397c.06048-.125-.00269-.1414-.14409-.1387l-2.54243.18988C25.31659,11.484,25.32969,11.53953,25.3349,11.61652Z"/><path class="cls-3" d="M26.385,15.7632a.89751.89751,0,0,1,1.18026-.44368.96227.96227,0,0,1,.443.42976l.10055-.03878a.87045.87045,0,0,1,1.02456.17078A.89708.89708,0,0,1,29.303,16.89c-.30882.69664-.61764,1.39328-.92187,2.04194-.00459.048-.03548.11763-.04007.16561a1.08107,1.08107,0,0,1-1.13073,1.029l-.00874-.00045a1.09831,1.09831,0,0,1-1.04237-.99554l-.05128-.22278c-.324-.66045-.64808-1.32089-.96752-2.0293a.88751.88751,0,0,1,.40276-1.17179,1.07251,1.07251,0,0,1,.72881-.027C26.31538,15.73231,26.33707,15.75861,26.385,15.7632Zm1.11676,2.74562.22064-2.30278a.53007.53007,0,0,0-.24189-.50732.49277.49277,0,0,0-.68023.15139l-.01439.02413a.45572.45572,0,0,0-.05846.35751c.10585.66374.16374,1.32289.26959,1.98663l.0204.29245Zm.61907.10773.86011-1.90261a.52659.52659,0,0,0-.13674-.59408.50788.50788,0,0,0-.5757-.05515.22834.22834,0,0,0-.14522.25236c-.04266.69793-.1333,1.39127-.19765,2.06291l-.00919.096Zm-1.4918-.09452h0c-.075-.73341-.17164-1.4931-.24662-2.22651.0046-.048-.03878-.10054-.08216-.15312a.47782.47782,0,0,0-.62826-.01178.51189.51189,0,0,0-.15571.61448c.10385.1794.18141.38049.28526.5599l.6264,1.29459Zm1.13371,1.05272a.71258.71258,0,0,0,.18989-.466.20625.20625,0,0,0-.14722-.232.47046.47046,0,0,0-.17021.0079l-.92069.00866c-.09595-.00919-.22278.05128-.232.14723l-.0092.096a.727.727,0,0,0,.47256.62625A.82245.82245,0,0,0,27.76278,19.57475Z"/></svg>