<svg id="Iconos" xmlns="http://www.w3.org/2000/svg" viewBox="0 0 38.22962 34.55368"><defs><style>.cls-1{fill:#050b3d;}.cls-2{fill:none;stroke:#050b3d;stroke-linecap:round;stroke-linejoin:round;}</style></defs><path class="cls-1" d="M25.8,22.3a2.63367,2.63367,0,0,1,3.5,1.2,2.82382,2.82382,0,0,1,.2,1.8l.3.1a2.55423,2.55423,0,0,1,2,2.3,2.63237,2.63237,0,0,1-1.5,2.6c-2,1-4,2-5.9,2.9-.1.1-.3.2-.4.3a3.17231,3.17231,0,0,1-4.5.2,3.22293,3.22293,0,0,1-.5-4.2l.3-.6c.5-2.1,1-4.2,1.6-6.4A2.6043,2.6043,0,0,1,24,20.6a3.1472,3.1472,0,0,1,1.7,1.3C25.7,22.1,25.7,22.2,25.8,22.3Zm-2.6,8.3L28,25.8a1.55544,1.55544,0,0,0,.4-1.6,1.446,1.446,0,0,0-1.9-.9,1.33747,1.33747,0,0,0-.8.7c-1,1.7-2.1,3.3-3.1,5l-.5.7ZM24.4,32l5.5-2.7a1.54517,1.54517,0,0,0,.8-1.6,1.49023,1.49023,0,0,0-1.2-1.2.67.67,0,0,0-.8.3c-1.4,1.5-2.9,2.9-4.3,4.3l-.2.2Zm-3.2-3h0c1.2-1.8,2.4-3.7,3.6-5.5a.74936.74936,0,0,0,.1-.5,1.40214,1.40214,0,0,0-1.4-1.2A1.50209,1.50209,0,0,0,22,22.9c-.1.6-.3,1.2-.4,1.8l-1,4.1Zm.6,4.5a2.0911,2.0911,0,0,0,1.3-.7.61942.61942,0,0,0,.1-.8c-.1,0-.1,0-.2-.1L20.7,30a.61942.61942,0,0,0-.8-.1l-.2.2a2.13314,2.13314,0,0,0-.1,2.3A2.41338,2.41338,0,0,0,21.8,33.5Z" transform="translate(0.01521 0.01281)"/><path class="cls-2" d="M3,.5,21.3,2.9a4.79268,4.79268,0,0,1,2,.7l13.5,8.6a1.99588,1.99588,0,0,1,.5,2.9h0a1.89628,1.89628,0,0,1-2.6.4l-8.3-5.1L28,13a3.20086,3.20086,0,0,1,.5,2.5l-.8,5A1.85772,1.85772,0,0,1,25.5,22h0a1.79341,1.79341,0,0,1-1.4-2l.6-5.2-1.8-2.7a2.40731,2.40731,0,0,0-3.4-.5h0a2.36462,2.36462,0,0,0-.5,3.2l2.9,4.3a2.403,2.403,0,0,1-.7,3.3h0a2.22191,2.22191,0,0,1-3-.6l-3.8-4.6-7-3.6a6.42,6.42,0,0,1-1.3-1L4.5,10.8a5.06711,5.06711,0,0,0-3-1.7h0a1.22393,1.22393,0,0,1-1-1.4l.9-6.2A1.62388,1.62388,0,0,1,3,.5Z" transform="translate(0.01521 0.01281)"/></svg>