<svg id="Iconos" xmlns="http://www.w3.org/2000/svg" viewBox="0 0 29.40635 40.10277"><defs><style>.cls-1{isolation:isolate;}.cls-2{fill:#050b3d;}</style></defs><g class="cls-1"><path class="cls-2" d="M27.4,40.1H23.8a4.05252,4.05252,0,0,1-3.7-1.6L9.9,25.5H8V37.4C8,40.6,5.3,40,2.9,40,.9,40,0,39.5,0,37.4V2.4C0,.4,1.1,0,2.9,0H14c4,0,7.3-.2,10.3,2.8C27,5.6,27.4,10.4,27.4,14c0,5.6-1.9,10.3-8,11.2l9.2,11.2a3.22723,3.22723,0,0,1,.8,2.1C29.5,39.7,28.4,40.1,27.4,40.1ZM17.8,7.3c-1-.5-3.5-.5-4.6-.5-1.7,0-3.4.1-5.2.2V18.7h6.8c4.1,0,4.6-1.3,4.6-5.1C19.4,12.1,19.4,8.2,17.8,7.3Z" transform="translate(0 0.00277)"/></g></svg>