<svg xmlns="http://www.w3.org/2000/svg" xmlns:xlink="http://www.w3.org/1999/xlink" viewBox="0 0 1080 1141.15"><defs><style>.cls-1{fill:none;}.cls-2{isolation:isolate;}.cls-3{clip-path:url(#clip-path);}.cls-4{fill:#c4c4c4;}.cls-5,.cls-7{fill:#f4f4f4;}.cls-6{fill:#707070;}.cls-7,.cls-8{mix-blend-mode:multiply;}.cls-8,.cls-9{fill:#7f7f7f;}.cls-8{opacity:0.5;}.cls-10{fill:#b7b7b7;}.cls-11{fill:#d3d3d3;}.cls-12{fill:#fff;}</style><clipPath id="clip-path"><circle class="cls-1" cx="540" cy="540" r="540"/></clipPath></defs><g class="cls-2"><g id="Capa_2" data-name="Capa 2"><g id="Capa_2-2" data-name="Capa 2"><g class="cls-3"><circle class="cls-4" cx="540" cy="540" r="540"/><polygon class="cls-5" points="726.74 1008.77 743.32 1080 437.88 1141.15 333.81 1100.3 360.7 1008.77 726.74 1008.77"/><path class="cls-6" d="M703.51,768.16s-16,63.88,0,133.08,23.23,107.53,23.23,107.53-179.73,82-366,0c0,0,29.73-154,26.57-261.19S703.51,768.16,703.51,768.16Z"/><path class="cls-5" d="M765.31,624.72s14.15,54.19,21.25,99.26,23.06,68.14,21.29,79.5,4.26,40.1-34.42,62.81-127.94-5.5-127.94-5.5L714.16,617Z"/><path class="cls-7" d="M782.3,807.56c6.39-13.84-19.17-71.33-29.81-111.26s-9.17-63.92-9.17-63.92l-15.06-13.26-11.62-1.76-3.38,2.81L645.49,860.79s82,25.91,122.84,8.07C810.12,845,775.91,821.39,782.3,807.56Z"/><path class="cls-6" d="M308.87,562.68c-7.81,90.85-7.4,106.47-12.36,114.28,0,0,56.07,11.94,115-7.51l-43,120.19,242.74,31.94,17-36.2,68.14-.71,32.64-151.18s17,2.13,41.17-11.36c0,0-26.26-131.3-67.43-156.86,0,0-15.61-7.8-31.23-8.51-7.53-.35-75.25-14.68-143.3-15.62C455.32,440.12,316.68,471.84,308.87,562.68Z"/><path class="cls-8" d="M464,800.64s55.57-63.94,55.46-94.81-44-73.16-49.38-125.33,34.64-95.9,34.64-95.9a91.2,91.2,0,0,0-13.38-5h1.76L488,441.79c-71.72,14.67-169.38,37.86-179.15,120.89-10.66,90.56-7.4,106.47-12.36,114.28,0,0,14.91,3.18,37.45,3.58,2.19-1.12,10.53-6.69,13.29-27.63,3.2-24.21,17.22-141.86,63.71-81.7,22.18,27.68,11.35,141.06,10.82,96.76S409,621.25,411,631.36s-4.56,39-4.56,39l-.16.74h0l2.58-.8,2.19-.7.44-.15h0L368.8,787.58Zm-18.86-321Z"/><path class="cls-5" d="M623.45,255.47c3.2-45.24-34.07-64.41-34.07-64.41-21.82,9.59-68.67,12.25-70.26,21.3S509,257.07,500,307.11,469.1,452.5,469.1,452.5s7.77,37.26,72,37.26c36.12,0,45.44-22.65,39.83-48.62,0-.18-.07-.35-.11-.53-5.86-26.2,0-41.94,0-41.94a99.71,99.71,0,0,0,32.41-40.55,35.21,35.21,0,0,1,1.85-4.43h0c5.27-13.45,7.17-25.76,8.52-33.8C626.5,302.85,620.26,300.72,623.45,255.47Z"/><path class="cls-7" d="M519.12,212.36c-1.6,9-10.12,44.71-19.17,94.75S469.1,452.5,469.1,452.5s7,33.35,62.16,36.94c-2.76-2.84-22.82-24.6-18.85-52.29,4.26-29.73,27.68-31.5,27.68-31.5-22.69-2.34-37.79-37.26-30.34-65.24s-1.07-16.73-2.13-41.4,11.71-34.91,11.71-34.91c-4.26,0-2.66-16.55,2.27-37.31s26.45-25.16,26.45-25.16h0C532.8,204.72,519.94,207.69,519.12,212.36Z"/><path class="cls-9" d="M679.88,410.15c-10.12-24.49-24.49-156.8-46.31-199.92s-45.25-44.72-45.25-44.72S581.4,133,512.2,146.88s-90.5,105.4-96.35,156.5-38.53,79.51-25.56,102.51c12.79,22.67,66.44,31,113.92,33.86C500,407,493.43,343.19,500,307.11c9.05-50,17.57-85.7,19.17-94.75s48.44-11.71,70.26-21.3c0,0,37.27,19.17,34.07,64.41s3,47.38.2,64.42-8.18,53.23-42.78,78.78c0,0-5.85,15.73,0,41.91l2.25-.09S690,434.64,679.88,410.15Z"/><path class="cls-8" d="M558.92,886.34c-13.64-70.27-3.95-91.45-3.95-91.45l-165-64a40.6,40.6,0,0,0-2.74,16.69c3.16,107.17-26.57,261.19-26.57,261.19,110.19,48.48,218.07,39.62,287.83,24.28C511.57,1049.88,572.56,956.6,558.92,886.34Z"/><path class="cls-5" d="M615.13,353.69a35.21,35.21,0,0,0-1.85,4.43C613.94,356.63,614.55,355.15,615.13,353.69Z"/><polygon class="cls-8" points="615.13 353.69 615.13 353.69 615.13 353.69 615.13 353.69"/><path class="cls-8" d="M580.87,398.67s-5.86,15.74,0,41.94c0,.18.07.35.11.53l2.13-.65a198.88,198.88,0,0,0,26.77-2.36c-6.46-45,0-70.44,3.4-80A99.71,99.71,0,0,1,580.87,398.67Z"/><path class="cls-5" d="M543.73,452.5,581,441.14c0-.18-.07-.35-.11-.53-5.86-26.2,0-41.94,0-41.94a99.71,99.71,0,0,0,32.41-40.55,35.21,35.21,0,0,1,1.85-4.43h0L577.67,373.2Z"/><polygon class="cls-5" points="421.38 761.98 494.31 506.26 746.3 582.39 682.75 816.08 479.4 837.37 421.38 761.98"/><path class="cls-8" d="M469.08,264.1c7.1-66.62,72.39-86.26,72.39-86.26C523,176.86,498,190.12,498,190.12c6.15-16.38,31.81-31.26,31.81-31.26-13.13-4.34-44.36,13.25-44.36,13.25,31.23-34.39,81.2-25.44,81.2-25.44h0l-1.18-.36-.56-.16-.8-.22-.59-.16-.92-.23-.48-.12-1.36-.3-.59-.12-1-.18-.63-.12-1.13-.19-.45-.07-1.56-.22-.62-.08-1.11-.13-.66-.07-1.37-.13-.4,0c-.59,0-1.18-.09-1.78-.12l-.63,0-1.31-.06-.68,0-1.64,0h-3l-1.49,0H540l-1.92.07h-.27l-2.22.12-.71.05-1.7.13-.73,0-2.23.21-.18,0-2.47.27-.75.09-1.88.24-.79.1-2.55.37h-.09l-2.71.44-.81.14-2.08.36-.83.16c-1,.17-1.91.36-2.88.55-69.21,13.84-90.5,105.4-96.35,156.5s-38.92,79.73-25.56,102.51c15.48,26.38,83.63,31.26,83.63,31.26C472.47,387.22,464.67,305.51,469.08,264.1Z"/><polygon class="cls-9" points="437.88 772.96 503.89 552.04 730.13 620.18 666.25 842.16 477.28 848.01 437.88 772.96"/><path class="cls-5" d="M735.28,772.6c9.93-4.43.35-4.79,3.19-12.42s-3.73-14.9-10.47-16.32-21.65,11.35-39.75,13.48-35.84,16.33-41.16,20.23-18.81,7.81-18.81,7.81-80.91,12.06-129.89,0-68.85-32.82-93-30.69c0,0,11-43.84,6.08-86.72,0,0-15.09,9.16-53.47,12.07-31.23,2.36-50.64-1.36-50.64-1.36-3.19,62.63-4.17,120.71,20,158.33S607,872,628.28,866.29c43.83-3.9,85.88-10.29,90-12.42s3.55-9.58,7.63-12.24A16.4,16.4,0,0,0,733.32,828c.18-6.38,12.42-8.51,9.59-17s-1.42-6.74,2.66-17.39S735.28,772.6,735.28,772.6Z"/><path class="cls-7" d="M742.63,810.08a33.33,33.33,0,0,1-1-3.5c-5.89-17.13-11.87-12-23.22-20.49S662.35,837.19,615.13,848s-157.19-20.4-190.91-29.27-60.33,7.8-78.43,9.93-9.6-18.61-19.16-55.9c-10.56-41.15-1-82.68,5.72-86.58s18.77-5.72,18.77-5.72h0c-27.16,1.38-43.74-1.79-43.74-1.79-3.19,62.63-4.17,120.71,20,158.33S607,872,628.28,866.29c43.83-3.9,85.88-10.29,90-12.42s3.55-9.58,7.63-12.24A16.4,16.4,0,0,0,733.32,828c.16-5.62,9.68-8,10-14.25C743.12,812.46,742.89,811.24,742.63,810.08Z"/><path class="cls-9" d="M574.63,270.67a28.61,28.61,0,0,1,5.78-2.72,43.9,43.9,0,0,1,6-1.63,28.54,28.54,0,0,1,6.13-.54l6.21.23c4.16.17,8.3.3,12.61,1.72a10.11,10.11,0,0,1,1.6.74c.46.28.92.54,1.37.84a18.09,18.09,0,0,1,2.54,2c1.52,1.49,3,3.35,3,5.68h-.63a5.26,5.26,0,0,0-1.38-2.37,10.75,10.75,0,0,0-2.2-1.77,17.48,17.48,0,0,0-2.55-1.3c-.44-.2-.9-.35-1.35-.52a6.7,6.7,0,0,0-1.25-.3,26.4,26.4,0,0,0-5.66-.18c-2,.07-3.93.23-5.91.45s-3.94.58-5.91.95a36.13,36.13,0,0,1-6,.58,59.4,59.4,0,0,1-6.09-.21,35.14,35.14,0,0,1-6.25-1Z"/><path class="cls-9" d="M551.74,269.24a77.5,77.5,0,0,1-12.32-.43,44.21,44.21,0,0,1-5.84-1,52.63,52.63,0,0,0-5.86-1.11c-1-.15-2-.22-3-.31s-2-.17-3-.18c-2-.15-4-.11-6-.09l-3,.17a12,12,0,0,0-2.83.51,15.54,15.54,0,0,0-2.74,1,6.79,6.79,0,0,0-2.29,1.7l-.54-.32a7.61,7.61,0,0,1,2.12-2.49,16.31,16.31,0,0,1,2.73-1.73c.48-.24,1-.47,1.47-.68l.77-.3c.35-.11.53-.14.81-.22l3.09-.76c2.07-.38,4.15-.77,6.25-1,1.05-.13,2.1-.2,3.16-.24s2.11-.12,3.17-.11c2.11,0,4.23-.08,6.36,0a25.62,25.62,0,0,1,6.28,1,35,35,0,0,1,5.94,2.32,22.87,22.87,0,0,1,5.4,3.66Z"/><path class="cls-10" d="M533.36,358.18c4.71,4.44,19.42,5.56,24.83,4.87,5.49-.26,8.23.68,8.25.71,5-2,21.22-3,21.37-3.48q-1.27,2.76-2.8,5.47a83.77,83.77,0,0,1-23.9,8,82.89,82.89,0,0,1-23.47-8.57q-2-1.54-3.9-3.19C533.59,360.73,533.46,359.46,533.36,358.18Z"/><path class="cls-11" d="M587.78,360.28c.05-.12-2.33,5.62-11.74,7-9.24,1-6.48,2-12.07,1.52-5.56-1.12-2-2.1-16.67-2.59-14.88-1.76-13.92-8.39-13.91-8.06s-1.23,1.53,1.31,5.46c2.66,3.62,9.14,9.86,27.17,12.86C561.28,377,581.65,377.46,587.78,360.28Z"/><ellipse class="cls-9" cx="528.27" cy="288.61" rx="6.39" ry="8.28"/><ellipse class="cls-9" cx="593.29" cy="290.73" rx="6.39" ry="8.28"/><path class="cls-12" d="M419.25,979.59a5.52,5.52,0,0,1-.75-.42,8.05,8.05,0,0,0-1-.43c-.24-.09-.62-.22-.84,0a9,9,0,0,0-.81,2.36l2.14.76c.48.16.69.34.53.92-.08.31-.17.62-.26.94-.19.7-.4.86-1,.65l-2.11-.75q-1.11,3.95-2.25,7.87c-.18.63-.4,1-1.08.81l-1.37-.5c-.59-.21-.54-.62-.38-1.17q1.17-4,2.33-8l-.65-.24c-.47-.17-.39-.59-.27-1l.3-1c.24-.83.79-.44,1.35-.24.09-.33.19-.65.28-1a5,5,0,0,1,1.35-2.61c1.25-1,2.69-.58,4-.11.42.15,1.49.52,1.64,1.09a1.14,1.14,0,0,1,0,.55l-.05.17C420.2,978.66,419.89,979.81,419.25,979.59Zm4.21,2.22-.82-.27c-.77-.26-1.1-.51-.85-1.47.08-.28.15-.56.23-.85.2-.77.55-1,1.22-.74l1,.34a1,1,0,0,1,.63,1.2.83.83,0,0,1,0,.15c-.07.28-.15.56-.22.84C424.43,981.69,424.13,982,423.46,981.81Zm-3.54,13.28-.84-.28c-.8-.27-1.14-.52-.88-1.48q1.31-4.7,2.56-9.4c.21-.77.56-1,1.24-.74l1,.34a1,1,0,0,1,.64,1.2.88.88,0,0,1,0,.15q-1.23,4.71-2.5,9.42c-.18.68-.49,1-1.18.79Z"/><path class="cls-12" d="M427.84,998a20.25,20.25,0,0,1-3.15-1.17c-.64-.31-.51-.63-.33-1.31l.12-.44c.11-.54.33-1.1.93-.91a9.33,9.33,0,0,1,1.11.52c.74.3,1.51.6,2.29.84s1.11.34,1.33-.56a1.45,1.45,0,0,0,.07-.85,16.44,16.44,0,0,0-2.24-1.71,14.69,14.69,0,0,1-1.13-1,2.92,2.92,0,0,1-.86-3.23c1-3.73,3.2-3,5.89-2.14.55.17,1.07.33,1.6.54.77.31,1,.58.82,1.52-.17.71-.32,1.53-1.18,1.27-.37-.11-.75-.3-1.12-.44a14.93,14.93,0,0,0-1.73-.64c-.83-.25-1.26-.51-1.52.55a.75.75,0,0,0,0,.51,12.44,12.44,0,0,0,2.5,2c1.57,1.16,2.24,2,1.72,4.18C432.17,998.79,430.61,998.8,427.84,998Z"/><path class="cls-12" d="M440.31,987l-.82-.23c-.79-.23-1.13-.46-.91-1.43.06-.29.13-.57.19-.86.18-.78.53-1,1.2-.8l1,.29a1,1,0,0,1,.65,1.19l0,.12c-.07.29-.13.57-.19.86C441.3,986.81,441,987.17,440.31,987Zm-3.07,13.43-.84-.24c-.81-.23-1.16-.46-.93-1.43q1.13-4.75,2.21-9.52c.18-.78.54-1,1.22-.8l1,.3a1,1,0,0,1,.65,1.19.53.53,0,0,1,0,.12q-1.06,4.77-2.16,9.53c-.14.69-.46,1.05-1.16.85Z"/><path class="cls-12" d="M448.14,1003.51a18.83,18.83,0,0,1-2-.38c-4.46-1.15-4.81-3-3.8-7.55s2.08-6,6.41-4.91a16.09,16.09,0,0,1,1.86.6c.65.24,1.22.32,1.05,1.13v.05c-.12.62-.38,1.93-1.19,1.73a5.47,5.47,0,0,1-.85-.32,16.75,16.75,0,0,0-2.06-.72c-.94-.24-1.15-.09-1.55.81a12.56,12.56,0,0,0-.7,2.41,20.76,20.76,0,0,0-.42,2.38c-.15,1.12.18,1.34,1.16,1.59a16.36,16.36,0,0,0,2.19.35,5.53,5.53,0,0,1,.91.12.67.67,0,0,1,.5.38,4.91,4.91,0,0,1-.08,1.74C449.4,1003.79,448.86,1003.61,448.14,1003.51Z"/><path class="cls-12" d="M460.4,1006.13l-1.29-.28c-.53-.11-.6-.51-.5-1a5.9,5.9,0,0,1-3.63.45c-2.25-.52-3-2.07-2.54-4.44.53-2.68,2.17-3.24,4.44-3a19.11,19.11,0,0,1,2.91.44c.18-1,.57-2.34-.69-2.62a13.91,13.91,0,0,0-3.34-.22,2.12,2.12,0,0,1-.56-.05c-.78-.18-.48-1-.36-1.63a.88.88,0,0,1,.82-.89,15.45,15.45,0,0,1,3.77.35,4.44,4.44,0,0,1,3,1.84c.69,1.27.39,2.8.15,4.19-.36,2-.71,4-1.08,6C461.39,1006,461.09,1006.28,460.4,1006.13Zm-1-5.64c-.36-.1-.74-.21-1.11-.29a10.09,10.09,0,0,0-1.44-.25c-1-.07-1.43.18-1.63,1.25-.12.59-.23,1.68.53,1.85a4.92,4.92,0,0,0,3.29-.55Z"/><path class="cls-12" d="M466.52,1007.39l-.83-.17c-.84-.16-1.21-.37-1-1.36q1.29-7.43,2.51-14.87c.13-.8.47-1,1.16-.87l1,.19a1,1,0,0,1,.74,1.08.45.45,0,0,1,0,.16q-1.17,7.46-2.43,14.9C467.5,1007.14,467.24,1007.53,466.52,1007.39Z"/><path class="cls-12" d="M477.63,1009.61a19.44,19.44,0,0,1-2-.23c-4.56-.79-5-2.62-4.3-7.23s1.74-6.17,6.17-5.41a17.88,17.88,0,0,1,1.92.46c.67.18,1.25.22,1.14,1v.06c-.09.62-.27,2-1.1,1.81a5.5,5.5,0,0,1-.88-.25,17,17,0,0,0-2.12-.56c-1-.16-1.17,0-1.52.94a13.71,13.71,0,0,0-.56,2.46c-.12.79-.22,1.59-.27,2.4-.08,1.14.27,1.32,1.27,1.5a15.25,15.25,0,0,0,2.24.17,5.74,5.74,0,0,1,.92.05.66.66,0,0,1,.52.34,4.82,4.82,0,0,1,0,1.74C478.92,1009.79,478.37,1009.65,477.63,1009.61Z"/><path class="cls-12" d="M486.86,1011.14c-3.94-.56-5.07-3.2-4.53-7.11s2.27-6.12,6.12-5.58,5,3.1,4.55,7.06S490.84,1011.69,486.86,1011.14Zm3.06-9c-.31-.88-1-.95-1.8-1.06s-1.47-.21-2,.53a7,7,0,0,0-.82,2.83,7.07,7.07,0,0,0,.07,3c.31.83,1.05.94,1.82,1s1.5.23,2-.52a6.73,6.73,0,0,0,.77-2.84,7.2,7.2,0,0,0-.05-3Z"/><path class="cls-12" d="M503.68,1012.77l-1.33-.13c-.55,0-.65-.44-.6-1a6.2,6.2,0,0,1-3.63.87c-2.32-.26-3.24-1.72-3-4.12.31-2.74,1.92-3.48,4.24-3.5a21.41,21.41,0,0,1,3,.11c.09-1,.36-2.4-.94-2.53a14.32,14.32,0,0,0-3.4.17,1.82,1.82,0,0,1-.57,0c-.81-.09-.58-.95-.51-1.58a.91.91,0,0,1,.75-1,15.92,15.92,0,0,1,3.84-.08,4.35,4.35,0,0,1,3.22,1.48c.81,1.19.65,2.74.52,4.15-.18,2-.37,4.07-.56,6.11C504.67,1012.51,504.4,1012.84,503.68,1012.77Zm-1.47-5.49c-.38-.06-.77-.13-1.15-.17a10.55,10.55,0,0,0-1.49-.08c-1,.05-1.42.34-1.54,1.43-.06.61-.08,1.7.7,1.78a5.14,5.14,0,0,0,3.29-.93C502.08,1008.63,502.15,1008,502.21,1007.28Z"/><path class="cls-12" d="M515,1013.88a17.36,17.36,0,0,1-2,0c-4.68-.34-5.29-2.11-4.89-6.78s1.29-6.32,5.84-6a18.63,18.63,0,0,1,2,.26c.7.12,1.28.11,1.23.93v.06c0,.63-.13,2-1,1.92a7.23,7.23,0,0,1-.91-.16,16.13,16.13,0,0,0-2.19-.36c-1-.07-1.19.12-1.46,1.09a12.49,12.49,0,0,0-.38,2.5c-.07.8-.11,1.61-.1,2.43,0,1.13.36,1.29,1.39,1.36a15.78,15.78,0,0,0,2.28-.05,5.92,5.92,0,0,1,.94,0,.62.62,0,0,1,.55.29,4.88,4.88,0,0,1,.17,1.73C516.31,1013.93,515.74,1013.84,515,1013.88Z"/><path class="cls-12" d="M528,1014.27l-1.28,0c-.69,0-.84-.52-.8-1.16.11-2.15.22-4.31.32-6.46a5.87,5.87,0,0,0-.07-2,.93.93,0,0,0-.75-.23,5.15,5.15,0,0,0-2.94,1c-.13,2.5-.28,5-.43,7.49,0,.71-.26,1.13-1,1.09l-1.27-.06c-.65,0-.84-.42-.8-1q.5-7.65.92-15.29c.05-.81.36-1.07,1.09-1l1,0a.91.91,0,0,1,.87,1,.88.88,0,0,1,0,.16c-.07,1.56-.15,3.11-.24,4.67a7.24,7.24,0,0,1,3.21-.73c2.19.08,3.58,1.27,3.48,3.69-.1,2.59-.22,5.17-.34,7.75C529,1013.87,528.77,1014.29,528,1014.27Z"/><path class="cls-12" d="M399.42,958.08a2.51,2.51,0,0,0-2.07,1.82h0l-4.73,16.9a.87.87,0,0,1-1.07.6,1.22,1.22,0,0,1-.24-.1,9.4,9.4,0,0,1-4-10.45l.1-.38,0-.12c0-.1.06-.18.1-.28l0-.07c.09-.24.19-.47.3-.7l0-.07a1.59,1.59,0,0,1,.15-.29v-.06c.13-.22.26-.44.41-.66l0-.05.22-.3h0a7.8,7.8,0,0,1,.48-.62l0,0a5.73,5.73,0,0,1,.54-.56v0l.26-.24.06,0,.25-.21,0,0,.29-.22.08-.07a11.11,11.11,0,0,1,1.32-.81,6.28,6.28,0,0,1,.59-.27,1.05,1.05,0,0,0,.59-1.37l-.06-.12-.53-.94a1,1,0,0,0-1.32-.45,12.43,12.43,0,0,0-2,1.08h0l0,0a3.93,3.93,0,0,0-.42.29h0l-.39.3-.07.05q-.39.31-.75.66l-.07.07c-.24.23-.47.47-.7.72l-.06.07-.3.35s0,0,0,0l-.3.4s0,.05-.06.08l-.26.36,0,.06-.27.42s0,.06,0,.09-.15.24-.22.36a.31.31,0,0,1-.05.1c-.08.15-.16.3-.23.45l0,.07c-.07.13-.13.27-.19.4s0,.08-.05.12-.13.31-.19.47l0,.05c0,.15-.1.29-.15.43l0,.13-.14.5h0a12.54,12.54,0,0,0,6.58,14.63.88.88,0,0,1,.46,1L390,986.22a.87.87,0,0,0,.6,1.08l1.34.37a.87.87,0,0,0,1.08-.6l1.28-4.57a.86.86,0,0,1,.9-.63,12.55,12.55,0,0,0,8-23,5.47,5.47,0,0,0-3.8-.8Zm4,17.51a9.39,9.39,0,0,1-6.91,3.19.89.89,0,0,1-.89-.87.67.67,0,0,1,0-.24l4.16-14.88a1.51,1.51,0,0,1,2.37-.77,9.38,9.38,0,0,1,1.55,13.17c-.1.13-.21.26-.32.38Z"/><path class="cls-12" d="M586.76,665.68a5.78,5.78,0,0,0-4.67,4.22h0l-10.24,38.83a2,2,0,0,1-2.44,1.42,1.94,1.94,0,0,1-.53-.23,21.47,21.47,0,0,1-9.54-23.77l.22-.86.08-.29c.06-.22.14-.42.21-.63l0-.17c.2-.54.43-1.08.67-1.61l.08-.17c.1-.22.22-.45.33-.67l0-.12c.28-.52.57-1,.9-1.55l.06-.1.47-.7h0a16.16,16.16,0,0,1,1.1-1.42.12.12,0,0,1,.06-.08c.39-.45.79-.89,1.22-1.31v0l.59-.56.12-.11.57-.5.08-.07c.21-.17.42-.35.64-.51l.2-.15a25.08,25.08,0,0,1,3-1.92,13,13,0,0,1,1.36-.64,2.4,2.4,0,0,0,1.3-3.13,2.44,2.44,0,0,0-.14-.28l-1.26-2.15a2.39,2.39,0,0,0-3-1,28.09,28.09,0,0,0-4.54,2.55h0l-.05,0c-.32.22-.63.42-.95.68h0c-.3.23-.58.44-.88.69l-.14.12c-.6.49-1.17,1-1.72,1.54l-.15.15c-.54.54-1.06,1.1-1.57,1.68l-.14.17c-.23.27-.45.54-.67.82,0,0,0,0-.06.08-.24.3-.46.61-.69.92a.8.8,0,0,1-.13.19q-.3.42-.57.84l-.1.14c-.2.32-.4.64-.59,1a1.86,1.86,0,0,1-.11.19l-.48.85a1.51,1.51,0,0,1-.11.22c-.18.34-.36.68-.52,1.05a.37.37,0,0,1-.07.14c-.14.31-.28.63-.41.94,0,.1-.08.18-.11.26q-.22.54-.42,1.08l0,.12c-.09.34-.23.66-.34,1l-.08.29-.3,1.15h0a28.74,28.74,0,0,0,15.54,33.26,2,2,0,0,1,1.1,2.32l-2.77,10.49a2,2,0,0,0,1.43,2.44l3.08.81a2,2,0,0,0,2.44-1.42l2.76-10.49a2,2,0,0,1,2-1.48,28.71,28.71,0,0,0,17.57-52.88,12.47,12.47,0,0,0-8.72-1.7Zm9.73,39.92a21.46,21.46,0,0,1-15.71,7.52,2,2,0,0,1-2-1.93,1.78,1.78,0,0,1,.06-.57l9-34.17A3.44,3.44,0,0,1,592,674a3.54,3.54,0,0,1,1.2.59,21.45,21.45,0,0,1,4,30.07c-.23.3-.47.6-.72.89Z"/><path class="cls-11" d="M569.39,298.94c.85,5,1.64,9.92,2.93,14.67a34.51,34.51,0,0,0,2.44,6.78,13.14,13.14,0,0,0,.88,1.46,18,18,0,0,1,1.1,1.67,12.06,12.06,0,0,1,1.35,4,11.72,11.72,0,0,1-1.58,8.13,10,10,0,0,1-3,3,12,12,0,0,1-3.8,1.59,14.1,14.1,0,0,1-4,.36,20.58,20.58,0,0,1-3.86-.47,31.72,31.72,0,0,1-7.18-2.53,47.17,47.17,0,0,0,7.36,1.31,18.87,18.87,0,0,0,7.11-.62,8.83,8.83,0,0,0,5.16-4,9.79,9.79,0,0,0,1-6.39,9.41,9.41,0,0,0-1.09-3.09,17.35,17.35,0,0,0-.95-1.48,15.22,15.22,0,0,1-1-1.79,29.34,29.34,0,0,1-2.32-7.47,54.34,54.34,0,0,1-.83-7.6A50.59,50.59,0,0,1,569.39,298.94Z"/><path class="cls-12" d="M516.93,734c-.26-.1-.5-.21-.74-.33a7.11,7.11,0,0,0-1-.34c-.23-.07-.6-.17-.81,0a7.38,7.38,0,0,0-.71,2l2.08.57c.46.13.67.27.53.77l-.22.82c-.17.6-.37.75-1,.58l-2-.55-1.86,6.82c-.15.54-.35.91-1,.74l-1.3-.36c-.55-.15-.53-.5-.4-1l1.89-6.93-.62-.17c-.46-.12-.4-.49-.3-.86l.25-.9c.19-.73.74-.42,1.28-.27l.23-.85a4.07,4.07,0,0,1,1.21-2.29c1.17-.93,2.57-.61,3.91-.25.41.11,1.45.4,1.61.88a.83.83,0,0,1,0,.47l0,.15C517.82,733.16,517.55,734.16,516.93,734Zm4.09,1.79-.79-.22c-.75-.2-1.07-.4-.85-1.23l.2-.73c.18-.67.52-.84,1.17-.67l1,.27a.84.84,0,0,1,.63,1,.5.5,0,0,1,0,.13l-.2.73C522,735.65,521.67,736,521,735.78Zm-3.12,11.44-.79-.22c-.75-.2-1.08-.4-.85-1.23l2.22-8.12c.18-.66.51-.84,1.16-.66l1,.27a.83.83,0,0,1,.62,1,.65.65,0,0,1,0,.13L519,746.51c-.16.58-.45.89-1.09.71Z"/><path class="cls-12" d="M525.3,749.51a21.94,21.94,0,0,1-2.94-1c-.6-.25-.48-.53-.32-1.12l.11-.37c.1-.46.3-.95.86-.79a9.57,9.57,0,0,1,1,.42c.69.25,1.41.49,2.13.69s1,.29,1.25-.48a1.19,1.19,0,0,0,.07-.72,14.71,14.71,0,0,0-2.11-1.46,10.15,10.15,0,0,1-1.06-.8,2.34,2.34,0,0,1-.84-2.75c.88-3.21,3-2.58,5.59-1.88a15.73,15.73,0,0,1,1.52.47c.74.26,1,.49.77,1.3-.17.6-.31,1.3-1.12,1.08-.36-.1-.71-.26-1.06-.38a16.54,16.54,0,0,0-1.64-.54c-.79-.21-1.2-.43-1.45.48a.66.66,0,0,0,0,.44,12.61,12.61,0,0,0,2.36,1.67c1.48,1,2.09,1.74,1.59,3.57C529.31,750.2,527.87,750.21,525.3,749.51Z"/><path class="cls-12" d="M537.12,740.17l-.77-.21c-.75-.2-1.08-.4-.85-1.23l.2-.73c.18-.67.52-.84,1.16-.67l1,.27a.83.83,0,0,1,.6,1l0,.11-.2.73C538.07,740.05,537.77,740.35,537.12,740.17ZM534,751.62l-.78-.22c-.75-.2-1.07-.4-.84-1.23l2.21-8.12c.18-.66.52-.84,1.17-.66l1,.27a.84.84,0,0,1,.6,1,.42.42,0,0,1,0,.1l-2.21,8.12c-.14.58-.45.88-1.09.71Z"/><path class="cls-12" d="M544,754.53c-.6-.1-1.2-.24-1.79-.4-4.07-1.11-4.36-2.69-3.31-6.56s2.13-5.1,6.19-4a15.49,15.49,0,0,1,1.74.59c.61.23,1.14.33,1,1v.05c-.15.52-.45,1.62-1.2,1.42a5.88,5.88,0,0,1-.79-.31,16.16,16.16,0,0,0-1.91-.7c-.87-.24-1.08-.12-1.49.65a10.46,10.46,0,0,0-.73,2,19.14,19.14,0,0,0-.47,2c-.17,1,.13,1.15,1,1.4a17.48,17.48,0,0,0,2,.37,5.66,5.66,0,0,1,.84.14.57.57,0,0,1,.44.34,4,4,0,0,1-.13,1.49C545.13,754.81,544.64,754.64,544,754.53Z"/><path class="cls-12" d="M555.11,757.38l-1.16-.32c-.48-.13-.52-.48-.4-.91a5.92,5.92,0,0,1-3.36.18c-2-.56-2.67-1.91-2.12-3.91.62-2.27,2.18-2.67,4.27-2.33a18.87,18.87,0,0,1,2.69.55c.23-.83.67-2-.49-2.28a14.24,14.24,0,0,0-3.12-.38,2.16,2.16,0,0,1-.51-.07c-.73-.2-.41-.9-.27-1.42a.79.79,0,0,1,.83-.71,15,15,0,0,1,3.52.52,4.2,4.2,0,0,1,2.71,1.77c.57,1.14.19,2.42-.13,3.59l-1.38,5.05C556,757.32,555.74,757.55,555.11,757.38Zm-.56-4.87c-.33-.11-.68-.23-1-.32a10.21,10.21,0,0,0-1.33-.3c-.91-.11-1.33.08-1.58,1-.14.5-.29,1.42.39,1.61a4.9,4.9,0,0,0,3.07-.29Z"/><path class="cls-12" d="M560.63,758.89l-.75-.21c-.75-.2-1.08-.41-.85-1.24L562.44,745c.18-.67.52-.82,1.16-.64l.93.25a.82.82,0,0,1,.62,1,.58.58,0,0,1,0,.14l-3.4,12.48C561.54,758.75,561.27,759.06,560.63,758.89Z"/><path class="cls-12" d="M570.55,761.78a15.61,15.61,0,0,1-1.8-.4c-4.06-1.11-4.36-2.69-3.3-6.56s2.13-5.1,6.19-4a15.49,15.49,0,0,1,1.74.59c.6.23,1.13.33,1,1v0c-.15.52-.45,1.63-1.2,1.42a5.82,5.82,0,0,1-.79-.3,14.56,14.56,0,0,0-1.91-.7c-.87-.24-1.08-.12-1.48.64a9.75,9.75,0,0,0-.74,2c-.18.66-.34,1.33-.46,2-.17,1,.13,1.15,1,1.39a15.28,15.28,0,0,0,2,.37,5.77,5.77,0,0,1,.83.15.57.57,0,0,1,.44.34,4,4,0,0,1-.13,1.48C571.7,762.07,571.21,761.89,570.55,761.78Z"/><path class="cls-12" d="M578.72,764.12c-3.48-1-4.24-3.31-3.35-6.57s2.74-4.94,6.23-4,4.22,3.3,3.32,6.59S582.23,765.08,578.72,764.12Zm3.8-7.21c-.18-.79-.81-.94-1.52-1.14s-1.33-.36-1.89.21a5.46,5.46,0,0,0-1.07,2.3,5.69,5.69,0,0,0-.25,2.52c.19.75.85.93,1.53,1.11s1.33.39,1.89-.18a5.54,5.54,0,0,0,1-2.31,5.93,5.93,0,0,0,.3-2.51Z"/><path class="cls-12" d="M593.56,767.88l-1.16-.32c-.49-.13-.52-.48-.4-.91a6,6,0,0,1-3.36.18c-2-.56-2.67-1.92-2.13-3.92.62-2.27,2.18-2.67,4.28-2.33a18.89,18.89,0,0,1,2.69.56c.23-.83.67-2-.5-2.28a13,13,0,0,0-3.11-.38,2.25,2.25,0,0,1-.52-.08c-.73-.2-.4-.89-.26-1.41a.8.8,0,0,1,.82-.72,15,15,0,0,1,3.52.53,4.18,4.18,0,0,1,2.72,1.77,5.06,5.06,0,0,1-.13,3.59l-1.38,5.05C594.47,767.81,594.19,768.05,593.56,767.88ZM593,763c-.33-.11-.67-.23-1-.32a9.86,9.86,0,0,0-1.33-.3c-.9-.11-1.33.08-1.57,1-.14.5-.3,1.42.39,1.61a4.9,4.9,0,0,0,3.07-.28Z"/><path class="cls-12" d="M603.39,770.75a15.92,15.92,0,0,1-1.79-.4c-4.06-1.11-4.36-2.69-3.3-6.56s2.13-5.1,6.19-4a14.68,14.68,0,0,1,1.73.59c.61.23,1.14.33.95,1v.05c-.14.52-.44,1.63-1.19,1.42a5.4,5.4,0,0,1-.79-.31,18.15,18.15,0,0,0-1.91-.7c-.88-.24-1.09-.12-1.49.65a10.46,10.46,0,0,0-.73,2c-.18.67-.34,1.34-.47,2-.17,1,.13,1.15,1,1.4a15.58,15.58,0,0,0,2,.37,7.36,7.36,0,0,1,.84.14.61.61,0,0,1,.44.35,4,4,0,0,1-.13,1.48C604.55,771,604.06,770.86,603.39,770.75Z"/><path class="cls-12" d="M614.72,773.65l-1.11-.3c-.6-.16-.63-.61-.49-1.14l1.45-5.32c.08-.3.44-1.43.31-1.67a.94.94,0,0,0-.63-.35,4.72,4.72,0,0,0-2.8.26l-1.68,6.18c-.16.59-.42.89-1.07.72l-1.1-.3c-.57-.16-.67-.52-.53-1l3.44-12.62c.19-.67.52-.82,1.16-.65l.94.26a.81.81,0,0,1,.61,1,.5.5,0,0,1,0,.13l-1,3.85a6.9,6.9,0,0,1,3,.06c1.94.53,2.94,1.83,2.4,3.83l-1.74,6.39C615.63,773.52,615.36,773.83,614.72,773.65Z"/></g></g></g></g></svg>