<svg xmlns="http://www.w3.org/2000/svg" xmlns:xlink="http://www.w3.org/1999/xlink" viewBox="0 0 1080 1140.13"><defs><style>.cls-1,.cls-10{fill:none;}.cls-2{isolation:isolate;}.cls-3{clip-path:url(#clip-path);}.cls-4{fill:#c4c4c4;}.cls-11,.cls-5{fill:#f4f4f4;}.cls-6{fill:#e8e8e8;}.cls-7{fill:#707070;}.cls-8{fill:#7f7f7f;opacity:0.5;}.cls-11,.cls-8{mix-blend-mode:multiply;}.cls-9{fill:#d3d3d3;}.cls-10{stroke:#707070;stroke-miterlimit:10;stroke-width:5.37px;}.cls-12{fill:#fff;}</style><clipPath id="clip-path"><circle class="cls-1" cx="540" cy="540" r="540"/></clipPath></defs><g class="cls-2"><g id="Capa_2" data-name="Capa 2"><g id="Capa_2-2" data-name="Capa 2"><g class="cls-3"><circle class="cls-4" cx="540" cy="540" r="540"/><polygon class="cls-5" points="674.2 969.17 694.83 1080 524.79 1140.13 340.96 1100.3 356.41 948.64 674.2 969.17"/><path class="cls-6" d="M271.53,608.91s-34.37,31.19-57.34,45.25S249.3,754.37,249.3,754.37s27-13,90-64.3S271.53,608.91,271.53,608.91Z"/><path class="cls-7" d="M654.55,277.45s8.22-60.79-8.23-69.47,19.2-49.82-79.52-75.41c0,0-59.42-6.4-67.64,29.7S474.93,197.46,480,265.11l-.52,34.26,153.17,12.35h8.23Z"/><path class="cls-7" d="M493.67,437.41s-3.88,10-44.33,19.65-74.73,14.4-92.55,54.16-50.73,53.47-78.84,85,43.88,88.43,66.5,96l13-8.91s22.62,151.51,2.74,235.15S400,1046,500.07,1056.23s159.73-49.36,174.13-87.06S651.8,750,693.85,674.61c0,0,2.21-3.37,6.78,19.48s123.79,4.52,103.82-50.56c-22.54-62.22-52-130.55-81.7-150.2S618.9,429.64,618.9,429.64Z"/><path class="cls-8" d="M804.45,643.53c-22.54-62.22-52-130.55-81.7-150.2S618.9,429.64,618.9,429.64l-44.7,2.77-1.46.66-2.8,99s-55.47,31.25-58.9,81.3,30.8,160.41,28.08,210.46,33.93,262.8-130.41,207.5c23.83,13,54.91,21.16,91.36,24.9,100.09,10.28,159.73-49.36,174.13-87.06S651.8,750,693.85,674.61c0,0,2.21-3.37,6.78,19.48S824.42,698.61,804.45,643.53Z"/><path class="cls-8" d="M654.55,277.45s8.22-60.79-8.23-69.47,19.2-49.82-79.52-75.41a120.45,120.45,0,0,0-20.32,0c-39.12,7.7-9,29.33-12.13,57.16-3.2,28.34,35.5,37.43,35.5,37.43L621,310.79l11.58.93h8.23Z"/><path class="cls-5" d="M654.55,277.45c-14.17,2.74-17.83,31.07-17.83,31.07h-3.2s1.83-38.39-2.28-46.61-3.81-32.46-19.43-36.57C587.7,219,558.65,237.23,523,221.23s-37.1,33.36-37.1,33.36-.46,18.29-4.57,34.74-6.4,53,4.57,76.32c2.81,6,5.66,12.65,8.79,19.36h0l-1,52.4S457.57,541.15,527,540.7s93.7-52.56,91.87-95.07,12.35-94.71,12.37-94.75C633.1,345.4,634,342,634,342s7.77,10.87,16.45-12S668.71,274.7,654.55,277.45Z"/><polygon class="cls-5" points="439.19 727.45 554.92 984.63 719.09 882.79 601.86 631 439.19 727.45"/><polygon class="cls-5" points="462.94 727.45 579.68 996.63 743.85 894.78 625.62 631 462.94 727.45"/><polygon class="cls-7" points="459.42 735.67 575.16 992.86 739.33 891.01 622.1 639.23 459.42 735.67"/><path class="cls-5" d="M179.57,709.34S169,732.65,172.72,746s-5,27.08,36.73,21.94,55.82-25.37,64.05-46.28,8.91-28.45,28.79-26,11,3.94,35.65-.43,18.51-7.11,28.79-6.42,12.34-13.37,9.6-17.83a19.75,19.75,0,0,1,10.28-4.45c6.17-.69,9.94-11.32,2.06-17.14s4.45-5.14,6.51-12.69-9.6-7.88-5.14-12.68,9.6-18.85-7.2-26.74S340.68,603.42,340,587s5.15-15.71,2.4-27.71S322.85,524,309.83,534.92s14.81,13,7.2,26.05-15.19,19.15-27.42,45.54-54.49,46-64.1,46.27S184.71,661,179.57,709.34Z"/><path class="cls-5" d="M806.71,657.24c8.68,13,18.31,34.28,19.68,63.76S862,830,844.9,849.88s-54.84,26.74-92.55,37-98,4.8-116.54,14.4-28.11,11-44.11,8.68-33.7,6.84-57.7,1-37.36-6.9-40.79-24.38-15.42-16.46-15.42-25.71-6.86-14.4-4.8-24c0,0-24.34-11,2.74-29.82l6.17,13.71s20.57,8.92,31.54,3.09,18.51-12,12.68-27.42-27.76-13.71-18.51-44.22,35.65,52.1,59.3,61.36c0,0,10.28,2.74,16.11,18.51s37,13.71,50.73,9.94,62.39-13.37,91.87-36.34S722,741.88,706.54,700.9,791.48,634.5,806.71,657.24Z"/><path class="cls-9" d="M511.81,358.87a74.77,74.77,0,0,1,16.32-.32,58.42,58.42,0,0,1,8.15,1.34c.67.18,1.34.33,2,.53l2,.64a17,17,0,0,0,3.64,1,8.53,8.53,0,0,0,3.46,0c.43-.11,1.2-.4,1.83-.6s1.32-.43,2-.62c2.66-.78,5.36-1.37,8.07-1.88s5.45-.86,8.19-1.12,5.49-.36,8.24-.41l3.18-.06-1.55,2.74a46.73,46.73,0,0,1-6.19,8.54,51.51,51.51,0,0,1-7.79,7,40.8,40.8,0,0,1-9.23,5.06l-2.48.91-2.56.68a18.94,18.94,0,0,1-5.39.69,24.63,24.63,0,0,1-10.34-2.61,40.87,40.87,0,0,1-8.61-5.83A65.38,65.38,0,0,1,511.81,358.87Zm0,0a84.6,84.6,0,0,0,6.69,7.56A69,69,0,0,0,526,373a40.43,40.43,0,0,0,8.46,5,21.74,21.74,0,0,0,9.23,1.9,8.92,8.92,0,0,0,1.16-.08c.38-.05.77-.06,1.15-.13a18,18,0,0,0,2.29-.54l2.32-.69,2.24-.9a42.93,42.93,0,0,0,8.39-4.82,48.48,48.48,0,0,0,7.15-6.59c1.09-1.21,2.11-2.48,3.1-3.77a42.38,42.38,0,0,0,2.64-4l1.63,2.68c-2.67,0-5.33.12-8,.33s-5.3.46-7.93.86-5.24.92-7.81,1.56c-.64.15-1.28.32-1.92.5s-1.17.36-2.06.56a11.42,11.42,0,0,1-4.6-.11,20.06,20.06,0,0,1-4.11-1.38l-1.8-.71c-.61-.22-1.25-.41-1.88-.62a66.61,66.61,0,0,0-7.77-1.86A97,97,0,0,0,511.81,358.87Z"/><ellipse class="cls-7" cx="513.67" cy="284.3" rx="5.37" ry="8.23"/><ellipse class="cls-7" cx="588.65" cy="290.14" rx="5.37" ry="8.23"/><path class="cls-10" d="M476.76,266.71s44.56-11.89,61,11.65c0,0,5.49,34.51-30.5,35.88S476.76,266.71,476.76,266.71Z"/><path class="cls-10" d="M621.63,280s-41.72-19.66-62.12.55c0,0-11.57,33,23.6,40.76S621.63,280,621.63,280Z"/><line class="cls-10" x1="621.63" y1="280.03" x2="642.99" y2="287.9"/><path class="cls-10" d="M559.51,280.58a38.3,38.3,0,0,0-21.74-2.22"/><path class="cls-11" d="M654.55,277.45c-14.17,2.74-17.83,31.07-17.83,31.07h-3.2s1.83-38.39-2.28-46.61-3.81-32.46-19.43-36.57c-12.57-3.31-26.48.06-42,1.78h0S615,223.29,621.63,248s1.84,43.19-9.82,54.84,6.86,40.46-3.42,55.88-20.89,51.07-64.61,50.38c0,0,20.57,2.76,39.5,0s41.92,89-13.34,123c36.78-16.62,50.34-54.27,49-86.44-1.83-42.48,12.35-94.71,12.37-94.75C633.1,345.4,634,342,634,342s7.77,10.87,16.45-12S668.71,274.7,654.55,277.45Z"/><path class="cls-12" d="M522.46,580.52a6.85,6.85,0,0,0-4.85,5.69h0l-6.06,47.24a2.38,2.38,0,0,1-2.65,2,2.57,2.57,0,0,1-.67-.19,25.49,25.49,0,0,1-14.88-26.49l.14-1.05,0-.35c0-.26.1-.51.16-.77l0-.21c.16-.67.34-1.33.54-2l.07-.21c.09-.29.19-.57.29-.85l0-.15c.25-.65.52-1.3.82-2l.06-.13c.15-.3.29-.6.45-.89h0a17.24,17.24,0,0,1,1.07-1.85s0-.07.06-.1c.39-.59.79-1.17,1.23-1.73v0q.29-.39.6-.75l.13-.15c.19-.23.39-.46.6-.68l.07-.09.68-.7.21-.21a28.48,28.48,0,0,1,3.2-2.71,14.68,14.68,0,0,1,1.5-1,2.84,2.84,0,0,0,1-3.89,3.28,3.28,0,0,0-.2-.31l-1.81-2.33a2.83,2.83,0,0,0-3.72-.68,33.6,33.6,0,0,0-4.94,3.69h0l-.05.06c-.35.31-.68.6-1,.95h0c-.31.31-.62.61-.93.94l-.15.17c-.62.67-1.21,1.36-1.77,2.08l-.16.19c-.56.71-1.08,1.46-1.59,2.22l-.14.22c-.23.35-.45.71-.66,1.06a.6.6,0,0,1-.06.11c-.24.39-.45.79-.67,1.18,0,.09-.09.17-.13.26-.19.35-.36.71-.54,1.07l-.09.17c-.19.41-.37.83-.55,1.24a1.22,1.22,0,0,1-.1.24c-.15.36-.29.72-.42,1.07a2.33,2.33,0,0,1-.11.28c-.16.42-.31.86-.45,1.31a.32.32,0,0,1-.06.18c-.11.39-.23.78-.34,1.17a1.68,1.68,0,0,1-.09.32c-.12.45-.23.89-.33,1.33v.15c-.06.41-.17.82-.25,1.23l-.05.36-.18,1.39h0a34.07,34.07,0,0,0,23.4,36.73,2.37,2.37,0,0,1,1.65,2.56l-1.64,12.76a2.36,2.36,0,0,0,2.05,2.65l3.75.48a2.37,2.37,0,0,0,2.65-2l1.63-12.76a2.35,2.35,0,0,1,2.19-2.06A34.06,34.06,0,0,0,533,581.16a14.81,14.81,0,0,0-10.52-.66ZM540,626a25.46,25.46,0,0,1-17.31,11.26,2.36,2.36,0,0,1-2.71-2,2.15,2.15,0,0,1,0-.67L525.35,593a4.08,4.08,0,0,1,4.57-3.52,4,4,0,0,1,1.5.51,25.44,25.44,0,0,1,9.33,34.75c-.22.39-.46.78-.7,1.16Z"/><path class="cls-12" d="M626.42,687.2a2.68,2.68,0,0,0-2.93-.28h0l-16.59,8.7a.93.93,0,0,1-1.26-.39,1.14,1.14,0,0,1-.09-.26,10,10,0,0,1,5.18-10.77l.37-.19.12-.07.28-.12.08,0,.76-.28.08,0,.34-.1,0,0,.82-.17h0l.39-.06h0a6.2,6.2,0,0,1,.84-.07h.89l.38,0h.08l.35,0h0l.39.06.11,0a11.08,11.08,0,0,1,1.6.42c.22.08.43.17.64.27a1.12,1.12,0,0,0,1.49-.54.78.78,0,0,0,0-.14l.35-1.11a1.11,1.11,0,0,0-.62-1.35,13.58,13.58,0,0,0-2.31-.76h0l-.53-.11h0l-.52-.08-.08,0c-.36,0-.72-.08-1.07-.1H616c-.36,0-.72,0-1.08,0h-.1a4,4,0,0,0-.49,0h-.05l-.53.05s-.07,0-.11,0l-.47.07h-.08l-.52.1-.1,0-.44.1a.45.45,0,0,1-.11,0l-.53.15a.09.09,0,0,1-.07,0l-.45.15-.13,0-.5.2,0,0-.45.19-.13.07-.49.26h0A13.41,13.41,0,0,0,602.58,697a.93.93,0,0,1-.45,1.11l-4.48,2.35a.93.93,0,0,0-.39,1.26l.69,1.31a.93.93,0,0,0,1.25.4l4.49-2.36a.94.94,0,0,1,1.15.24,13.4,13.4,0,0,0,23.75-10.61,5.86,5.86,0,0,0-2.16-3.54Zm-10.68,15.92a10,10,0,0,1-7.54-3,.93.93,0,0,1,0-1.32,1.06,1.06,0,0,1,.21-.16L623,691a1.61,1.61,0,0,1,2.17.68,1.79,1.79,0,0,1,.17.6,10,10,0,0,1-9.09,10.85l-.54,0Z"/><path class="cls-12" d="M628,719a4.89,4.89,0,0,1-.27-.76,8,8,0,0,0-.44-.94c-.11-.21-.3-.55-.56-.58a7.34,7.34,0,0,0-2,.91l1,1.89c.22.41.27.67-.19.91l-.74.41c-.55.3-.79.26-1.09-.29l-1-1.85-6.2,3.4c-.49.27-.89.39-1.21-.2l-.65-1.18c-.28-.5,0-.73.43-1l6.3-3.45-.31-.56c-.23-.42.07-.63.41-.82l.82-.45c.66-.36.82.24,1.09.74l.77-.43a4.06,4.06,0,0,1,2.48-.72c1.49.2,2.23,1.44,2.9,2.65.2.37.72,1.32.49,1.77a.87.87,0,0,1-.35.31l-.14.08C629.23,719.07,628.32,719.57,628,719Zm1.55,4.19-.39-.72c-.37-.68-.45-1.05.3-1.46l.66-.37a.81.81,0,0,1,1.29.38l.49.89a.84.84,0,0,1-.3,1.15.34.34,0,0,1-.12.06l-.66.36C630.3,723.77,629.88,723.78,629.56,723.19Zm-10.4,5.69-.4-.71c-.37-.68-.45-1.06.31-1.47l7.37-4a.81.81,0,0,1,1.29.38l.49.89a.84.84,0,0,1-.3,1.15l-.12.06-7.38,4c-.53.29-.94.29-1.26-.3Z"/><path class="cls-12" d="M622.65,735.8A20.83,20.83,0,0,1,621.3,733c-.24-.62.05-.72.58-1l.34-.19c.4-.25.89-.44,1.17.07.16.35.3.69.43,1.05.29.68.62,1.36,1,2s.52.94,1.22.56a1.24,1.24,0,0,0,.56-.45,13.61,13.61,0,0,0-.42-2.53,11.6,11.6,0,0,1-.16-1.32,2.36,2.36,0,0,1,1.4-2.51c2.92-1.6,4,.39,5.23,2.72.26.47.51.93.73,1.42.31.71.33,1-.41,1.45-.55.3-1.15.68-1.56,0-.17-.33-.3-.7-.46-1a14.75,14.75,0,0,0-.75-1.55c-.39-.72-.52-1.17-1.35-.71a.62.62,0,0,0-.32.3,12.94,12.94,0,0,0,.44,2.86c.32,1.75.21,2.71-1.46,3.62C624.93,739.17,623.93,738.14,622.65,735.8Z"/><path class="cls-12" d="M637.57,737.84l-.38-.71c-.37-.68-.45-1.06.3-1.47l.66-.36a.81.81,0,0,1,1.29.38l.49.89a.83.83,0,0,1-.33,1.14l-.1,0-.66.37C638.32,738.43,637.89,738.42,637.57,737.84Zm-10.4,5.69-.39-.71c-.37-.68-.45-1.05.31-1.47l7.37-4a.8.8,0,0,1,1.29.37l.49.9a.83.83,0,0,1-.33,1.14l-.1,0-7.38,4c-.51.31-.94.29-1.26-.29Z"/><path class="cls-12" d="M632,752.73a17.61,17.61,0,0,1-1-1.56c-2-3.7-1.09-5,2.43-6.93s5.15-2,7.17,1.68a16.73,16.73,0,0,1,.78,1.66c.26.6.55,1-.07,1.39l0,0c-.47.26-1.48.81-1.85.13a6,6,0,0,1-.33-.79,17,17,0,0,0-.82-1.86c-.44-.79-.67-.86-1.5-.62a10,10,0,0,0-2,.88,17.85,17.85,0,0,0-1.78,1.07c-.81.54-.74.89-.29,1.71a15,15,0,0,0,1.14,1.71,6.58,6.58,0,0,1,.47.7.59.59,0,0,1,.06.56c-.06.24-.93.81-1.16.93C632.59,753.76,632.38,753.29,632,752.73Z"/><path class="cls-12" d="M637.68,762.73l-.58-1.06c-.24-.43,0-.7.38-.92a5.91,5.91,0,0,1-2.46-2.29c-1-1.85-.48-3.26,1.34-4.25,2.06-1.13,3.43-.28,4.64,1.46a18.86,18.86,0,0,1,1.47,2.32c.76-.41,1.88-.88,1.3-1.94a13.47,13.47,0,0,0-1.89-2.5,2.24,2.24,0,0,1-.31-.43c-.36-.66.37-.91.84-1.17a.8.8,0,0,1,1.09.1,14.8,14.8,0,0,1,2.06,2.9,4.14,4.14,0,0,1,.61,3.18c-.42,1.2-1.61,1.82-2.67,2.4L638.91,763C638.36,763.34,638,763.3,637.68,762.73Zm3.11-3.79c-.15-.32-.31-.65-.47-1a10.59,10.59,0,0,0-.71-1.16c-.55-.73-1-.91-1.8-.46-.45.25-1.22.77-.88,1.4a4.91,4.91,0,0,0,2.33,2Z"/><path class="cls-12" d="M640.42,767.74l-.37-.68c-.38-.68-.46-1,.3-1.47l11.35-6.21c.61-.33.95-.2,1.27.39l.47.85a.82.82,0,0,1-.28,1.12l-.13.06L641.68,768C641.15,768.31,640.74,768.33,640.42,767.74Z"/><path class="cls-12" d="M645.22,776.89a16.75,16.75,0,0,1-1-1.56c-2-3.7-1.09-5,2.43-6.94s5.15-2,7.17,1.68a16.9,16.9,0,0,1,.78,1.67c.26.59.55,1-.07,1.39l0,0c-.47.26-1.48.81-1.85.13a5.88,5.88,0,0,1-.33-.78,15.43,15.43,0,0,0-.82-1.86c-.43-.8-.67-.87-1.5-.63a10.26,10.26,0,0,0-2,.89c-.6.33-1.2.68-1.77,1.07-.81.54-.75.89-.3,1.71a15.88,15.88,0,0,0,1.14,1.71,7.18,7.18,0,0,1,.48.7.6.6,0,0,1,.06.55c-.07.24-.94.81-1.17.94C645.82,777.92,645.6,777.44,645.22,776.89Z"/><path class="cls-12" d="M649.21,784.4c-1.73-3.16-.56-5.35,2.41-7s5.45-1.46,7.19,1.72.55,5.32-2.44,7S651,787.59,649.21,784.4Zm7.83-2.27c.44-.68.11-1.24-.24-1.89s-.66-1.2-1.46-1.21a5.39,5.39,0,0,0-2.39.83,5.47,5.47,0,0,0-2,1.57c-.41.65-.08,1.25.26,1.87s.64,1.22,1.44,1.23a5.6,5.6,0,0,0,2.38-.86,6,6,0,0,0,2-1.52Z"/><path class="cls-12" d="M656.81,797.69l-.58-1.06c-.24-.44,0-.7.38-.92a5.91,5.91,0,0,1-2.46-2.29c-1-1.85-.48-3.26,1.34-4.25,2.06-1.13,3.43-.28,4.64,1.46A18.86,18.86,0,0,1,661.6,793c.76-.41,1.88-.88,1.3-1.94a13.47,13.47,0,0,0-1.89-2.5,1.84,1.84,0,0,1-.3-.43c-.37-.66.36-.91.83-1.16a.78.78,0,0,1,1.09.09,14.8,14.8,0,0,1,2.06,2.9,4.19,4.19,0,0,1,.62,3.18c-.43,1.2-1.62,1.82-2.68,2.4L658,798C657.49,798.3,657.12,798.26,656.81,797.69Zm3.12-3.77c-.15-.32-.3-.65-.47-.95a10.59,10.59,0,0,0-.71-1.16c-.55-.74-1-.91-1.8-.46-.45.25-1.22.77-.88,1.4a4.91,4.91,0,0,0,2.33,2Z"/><path class="cls-12" d="M661.57,806.76a15.53,15.53,0,0,1-1-1.56c-2-3.7-1.09-5,2.43-6.93s5.15-2,7.17,1.68a16.73,16.73,0,0,1,.78,1.66c.26.6.55,1-.07,1.39l0,0c-.48.26-1.48.81-1.86.13-.12-.26-.23-.52-.32-.78a18.26,18.26,0,0,0-.82-1.87c-.44-.79-.67-.86-1.5-.62a10.34,10.34,0,0,0-2,.89c-.6.33-1.2.68-1.77,1.07-.81.53-.74.88-.29,1.7a16.44,16.44,0,0,0,1.13,1.72,4.82,4.82,0,0,1,.48.7.61.61,0,0,1,.06.56c-.07.23-.94.8-1.16.93C662.16,807.79,662,807.32,661.57,806.76Z"/><path class="cls-12" d="M667.33,816.93l-.54-1c-.3-.55,0-.89.47-1.15l4.85-2.65c.26-.15,1.33-.67,1.41-.94a.91.91,0,0,0-.18-.69,4.77,4.77,0,0,0-2.14-1.83l-5.62,3.07c-.53.29-.93.32-1.25-.27l-.55-1c-.28-.52-.09-.84.37-1.09l11.47-6.28c.61-.33,1-.2,1.27.39l.47.85a.82.82,0,0,1-.28,1.12l-.13.06-3.5,1.92a6.82,6.82,0,0,1,2,2.2c1,1.76.73,3.39-1.09,4.38l-5.81,3.18C668.06,817.49,667.66,817.52,667.33,816.93Z"/><path class="cls-9" d="M539.13,307a90.77,90.77,0,0,1-6.66,14.57,74,74,0,0,1-4.34,6.83,37.55,37.55,0,0,1-2.64,3.25l-1.25,1.3a3.21,3.21,0,0,0-.51,1c-.49,1.49.19,3.66,1.56,5.31a11.85,11.85,0,0,0,5.53,3.73,16.71,16.71,0,0,0,7.19.66,33,33,0,0,0,7.58-1.86,21.89,21.89,0,0,1-7.12,4,17.2,17.2,0,0,1-8.52.58,14.35,14.35,0,0,1-7.83-4.36,12,12,0,0,1-2.45-4.11,8.65,8.65,0,0,1-.15-5.2,7.51,7.51,0,0,1,1.32-2.48l.48-.52.41-.41.63-.62c.85-.85,1.66-1.82,2.47-2.8,1.62-2,3.18-4.06,4.75-6.16C532.71,315.5,535.77,311.19,539.13,307Z"/></g></g></g></g></svg>