<?xml version="1.0" encoding="utf-8"?>
<!-- Generator: Adobe Illustrator 25.4.1, SVG Export Plug-In . SVG Version: 6.00 Build 0)  -->
<svg version="1.1" xmlns="http://www.w3.org/2000/svg" xmlns:xlink="http://www.w3.org/1999/xlink" x="0px" y="0px"
	 viewBox="0 0 1141.9 1261.4" style="enable-background:new 0 0 1141.9 1261.4;" xml:space="preserve">
<style type="text/css">
	.st0{display:none;}
	.st1{fill:#DDDDDD;}
	.st2{clip-path:url(#SVGID_00000096753550534690839330000007916009192047420582_);fill:#BCBCBC;}
	.st3{fill:#00E9C5;}
	.st4{fill:#353468;}
	.st5{fill:#FFFFFF;}
	.st6{opacity:0.5;fill:#353468;}
	.st7{fill:#CEA995;}
	.st8{fill:#E2BFA8;}
	.st9{fill:#F8D8C1;}
	.st10{fill:#C47E5B;}
	.st11{fill:#422D12;}
	.st12{fill:#BFA98C;}
	.st13{fill:#846A29;}
	.st14{opacity:0.5;fill:#141414;}
	.st15{opacity:0.5;fill:#F8D8C1;}
	.st16{fill:#EB4748;}
	.st17{fill:#F9757C;}
	.st18{fill:#DDCF52;}
	.st19{opacity:0.5;}
	.st20{clip-path:url(#SVGID_00000141452835826105371880000008131068581571890582_);fill:#F8D8C1;}
	.st21{clip-path:url(#SVGID_00000141452835826105371880000008131068581571890582_);fill:#F2F2F2;}
	.st22{opacity:0.5;clip-path:url(#SVGID_00000141452835826105371880000008131068581571890582_);fill:#F8D8C1;}
	.st23{fill:#F25A5A;}
	.st24{fill:url(#SVGID_00000016770302725000638670000007020750270424126861_);}
	.st25{fill:none;stroke:#A49EA2;stroke-width:14.4786;stroke-linecap:round;stroke-miterlimit:10;}
	.st26{fill:none;stroke:#A49EA2;stroke-width:6;stroke-linecap:round;stroke-miterlimit:10;}
	.st27{fill:none;stroke:#A49EA2;stroke-width:6;stroke-linecap:round;stroke-miterlimit:10;stroke-dasharray:12.5332,12.5332;}
	.st28{clip-path:url(#SVGID_00000084521253359354584350000005524627505336989373_);fill:#00E9C4;}
	.st29{clip-path:url(#SVGID_00000084521253359354584350000005524627505336989373_);fill:#4F4F4F;}
	.st30{clip-path:url(#SVGID_00000084521253359354584350000005524627505336989373_);}
	.st31{fill:#202121;}
	.st32{fill:#4E4E4E;}
	.st33{fill:#74C59C;}
	.st34{fill:#E79E2D;}
	.st35{fill:#63BD6E;}
	.st36{fill:#67B8CB;}
	.st37{fill:#E84849;}
	.st38{opacity:0.15;enable-background:new    ;}
	.st39{font-family:'CachetStd-Bold';}
	.st40{font-size:40.9708px;}
	.st41{fill:#A49EA2;}
</style>
<g id="Capa_1" class="st0">
</g>
<g id="Capa_6">
	<g>
		<path class="st1" d="M802.8,1044c-92.7-34.8-195.1-32.7-293.4-21.2s-196.1,31.9-295.1,32.2c-49.5,0.1-102.5-6.3-139.8-38.8
			c-23.2-20.2-37.9-48.8-46.1-78.4c-9.5-34.1-10.8-71.3,1.8-104.4c22.6-59.7,83.4-93.9,132.7-134.4
			c85.8-70.3,176.4-160.5,187.9-270.9c31.9-305.8,307.8-224.6,351.9-99c21.8,62,67.5,114.8,119.7,154.8
			c73.2,56.1,173.6,76.2,232,147.5c30.2,36.9,45.7,83.7,55,130.5c17,85.3,12,183.3-48.3,245.9C994,1077.5,890.9,1083.9,802.8,1044z"
			/>
	</g>
	<g>
		<defs>
			<path id="SVGID_1_" d="M802.8,1044c-92.7-34.8-195.1-32.7-293.4-21.2s-196.1,31.9-295.1,32.2c-49.5,0.1-102.5-6.3-139.8-38.8
				c-23.2-20.2-37.9-48.8-46.1-78.4c-9.5-34.1-10.8-71.3,1.8-104.4c22.6-59.7,83.4-93.9,132.7-134.4
				c85.8-70.3,176.4-160.5,187.9-270.9c31.9-305.8,307.8-224.6,351.9-99c21.8,62,67.5,114.8,119.7,154.8
				c73.2,56.1,173.6,76.2,232,147.5c30.2,36.9,45.7,83.7,55,130.5c17,85.3,12,183.3-48.3,245.9C994,1077.5,890.9,1083.9,802.8,1044z
				"/>
		</defs>
		<clipPath id="SVGID_00000139294680098310283970000000684486342860605079_">
			<use xlink:href="#SVGID_1_"  style="overflow:visible;"/>
		</clipPath>
		<polygon style="clip-path:url(#SVGID_00000139294680098310283970000000684486342860605079_);fill:#BCBCBC;" points="1.8,851.9 
			1172.1,851.9 1058.8,1115 14,1147.1 		"/>
	</g>
</g>
<g id="Capa_4">
	<path class="st3" d="M521.9,684.2c0,0-15.3-7.5-25.9-12.6s-31-6.1-62,12.6c-31,18.7-57.2,35.1-70.1,61.3
		c-12.9,26.2-29.6,48.7-3.1,84.8c26.6,36.1,40.5-6.5,40.5-6.5l28.9-13.3l96.3,1l29.5,41.7l19.9-3.6l28.3-25.2l2-57.5l-44.3-79.7
		L521.9,684.2z"/>
	<path class="st4" d="M875.3,743.4c0,0-5.1,1.7-3.1-4.9c2-6.6,7.5-43.7-0.5-56.3c-8-12.6,7,0.3-2.6-26.6s-47-36.1-69.4-35.7
		c-22.5,0.3-44.3-5.4-47.3-6.5c-3.1-1-14.6,6.1-16.7,15.3c-2,9.2-127,34.4-127,34.4s-10.6,0-16.3,5.1c-5.8,5.1-6.1,4.8-13.3,5.1
		c-7.1,0.3-14.6-0.2-21.8,5.2s-21.6-6.9-35.2,1.2s12.4-13.2,56.7,90.6s57.9,97.8,57.9,97.8l-9.1,62.3c0,0,102-1.5,124.9-1.1
		c22.8,0.3,79.3,2.4,83.1,0c3.7-2.4,19.7-15.3,21.8-55.5c2-40.2,0.7-32.4,0.7-32.4L875.3,743.4z"/>
	<path class="st5" d="M710,893.3c-0.2-1.2-5.2-28.6-3.9-53.2l12,0.6c-1.2,23.1,3.6,50.1,3.7,50.4L710,893.3z"/>
	<path class="st5" d="M745.1,893.3c-0.2-1.2-5.2-28.6-3.9-53.2l12,0.6c-1.2,23.1,3.6,50.1,3.7,50.4L745.1,893.3z"/>
	<path class="st3" d="M792.7,891.8c-44.7,0.9-49-6.7-92.9,1.4c-37,6.9-63.8,25.4-71.4,31.1l-0.9,6.1c0,0,102-1.5,124.9-1.1
		c22.8,0.3,79.3,2.4,83.1,0s19.7-15.3,21.8-55.5C857.2,873.8,837.4,890.9,792.7,891.8z"/>
	<path class="st3" d="M871.7,682.1c-8-12.6,7,0.3-2.6-26.6s-47-36.1-69.4-35.7c-22.5,0.3-44.3-5.4-47.3-6.5
		c-3.1-1-14.6,6.1-16.7,15.3c-0.3,1.3-3.2,3-7.9,4.9l22.3,75.6c0,0,24.7,8,46.1,3.9c21.4-4.1,66.4,14.1,78.1-24.1
		C873.8,686.3,872.9,683.9,871.7,682.1z"/>
	<path class="st6" d="M852.8,778.8c0,0-6.5-18.6-26.9,9.4s-8.1,43.1-50.6,39.5c-42.5-3.6-51.2,42.1-105.8,13.5
		c-54.6-28.6-91.7-77.7-104.5-100.4c0,0,0,0,0,0c4.3,8.5,8.9,18.2,13.7,29.4c44.3,103.8,57.9,97.8,57.9,97.8l-9.1,62.3
		c0,0,102-1.5,124.9-1.1c22.8,0.3,79.3,2.4,83.1,0s19.7-15.3,21.8-55.5s0.7-32.4,0.7-32.4l3.3-18.6L852.8,778.8z"/>
	<path class="st7" d="M699.8,893.3c-37,6.9-63.8,25.4-71.4,31.1l-0.9,6.1c0,0,40.8-0.6,76.5-0.9c0.1-20.1,4.1-31.8,7.6-38.2
		C708,891.8,704.1,892.5,699.8,893.3z"/>
	<path class="st8" d="M683.2,881.1c0,0,6.6,17.5-5.4,26S655,923,633.9,930.4s-37.8,14.2-64,12.8s-125.6,1.7-125.6,1.7l-6.8-27.9
		l13.3-18c0,0,24.5-3.7,38.1-11.2c13.6-7.5,32.2-18.7,66.1-18.4l18.3-11.2l18.7-17.5l53.4-8.4l30.3,27.2L683.2,881.1z"/>
	<path class="st9" d="M875.3,743.4c0,0,14.3,5.8,42.2,5.1c0,0-1.4-4.8-4.1-5.1s0.7-8.5,12.9-3.1c12.3,5.4,11.6-6,17.4,8.2
		c5.8,14.2,22.1,5,49.7,30.2s3.7,67.8-13.3,72.9c-17,5.1-29.3,10.2-48,7.8c-18.7-2.4-9.9,10.2-22.8,5.8s-28.6-6.8-17.4-12.6
		c0,0-20.4-16.7-49.4-9.5c0,0-10.6-32.7,10.2-64.4C873.6,747.1,875.3,743.4,875.3,743.4z"/>
	<path class="st5" d="M946.4,782.8c0,0,2.8,4.6,8.4,8.4c5.6,3.8,10.5,11.7,8.4,19.1c-2,7.4-4.9,13.8-27.6,21.2
		C935.7,831.6,960.7,814.7,946.4,782.8z"/>
	<g>
		<path class="st10" d="M935.7,831.6c1.6-1.7,3-3.4,4.3-5.2c1.3-1.8,2.5-3.6,3.6-5.5c2.1-3.8,3.7-7.8,4.5-12
			c0.4-2.1,0.7-4.2,0.8-6.4c0.1-1.1,0-2.1,0.1-3.2c-0.1-1.1-0.1-2.2-0.2-3.3c-0.4-4.4-1.3-8.7-2.4-13.2c2.6,3.8,4.4,8.1,5.5,12.7
			c0.3,1.1,0.4,2.3,0.6,3.5c0.1,1.2,0.2,2.4,0.2,3.5c0.1,2.4-0.2,4.8-0.7,7.1c-0.9,4.7-3,9.1-5.8,12.9
			C943.4,826.3,939.9,829.5,935.7,831.6z"/>
	</g>
	<g>
		<path class="st10" d="M946.4,782.8c1.8,2.3,3.9,4.4,6.2,6.2c1.2,0.9,2.3,1.6,3.6,2.5c1.2,0.9,2.3,2,3.4,3.1c1,1.1,1.9,2.4,2.7,3.7
			c0.8,1.3,1.4,2.8,1.8,4.3c0.4,1.5,0.7,3.1,0.6,4.6c0,1.6-0.4,3.2-0.8,4.6c-0.4,1.4-1,2.9-1.7,4.3c-0.7,1.4-1.6,2.7-2.6,3.8
			c-2.1,2.3-4.6,4.1-7.2,5.5c-5.3,2.8-11,4.7-16.7,6.2c1.4-0.6,2.7-1.1,4.1-1.7c1.3-0.6,2.7-1.2,4-1.8c2.7-1.2,5.3-2.6,7.8-4
			c2.5-1.5,4.8-3.2,6.6-5.4c0.9-1,1.7-2.2,2.3-3.5c0.6-1.2,1.1-2.6,1.5-4c1.9-5.3,0-11.2-3.5-15.7c-0.9-1.1-1.9-2.1-3-3.1
			c-1.1-0.9-2.4-1.8-3.4-2.8C949.9,787.6,947.9,785.4,946.4,782.8z"/>
	</g>
	<path class="st11" d="M975.2,804.5c0,0,4.1-4.1,6.8,1.5s0.9,6.8,0,7.1s-2.7,1.7-5.6-3.1C973.5,805.3,975.2,804.5,975.2,804.5z"/>
	<path class="st5" d="M716.3,772.3l-12-0.2c0.5-29.2,0-67.4,0-67.7l12-0.2C716.3,704.6,716.8,742.9,716.3,772.3z"/>
	<path class="st11" d="M975.9,818.6c0,0,4.6-0.5,5.1,1.2c0.5,1.7,0,6.3-3.6,7S964.3,826.8,975.9,818.6z"/>
	<g>
		<path class="st12" d="M981.2,778.8c0.5,1.7,0.9,3.4,1.1,5.1c0.2,1.7,0.3,3.5,0.2,5.2c-0.1,1.8-0.4,3.5-0.8,5.2
			c-0.5,1.7-1.1,3.4-2.1,4.9l-0.9,1.5l0.2-1.7c0.1-0.5,0-1,0-1.5c0-0.5-0.1-1.1-0.2-1.6c-0.1-1.1-0.4-2.1-0.7-3.1c0.5,1,0.9,2,1.2,3
			c0.1,0.5,0.3,1.1,0.3,1.6c0.1,0.6,0.1,1.1,0.1,1.7l-0.7-0.3c0.8-1.4,1.4-3.1,1.8-4.7c0.4-1.6,0.7-3.3,0.8-5
			c0.1-0.8,0.1-1.7,0.1-2.6c0-0.9,0-1.7,0-2.6c0-0.9-0.2-1.7-0.2-2.6L981.2,778.8z"/>
	</g>
	<g>
		<path class="st12" d="M966.7,847.9c0.4-0.6,0.9-1.2,1.3-1.8c0.4-0.6,0.8-1.2,1.2-1.9c0.4-0.6,0.8-1.3,1.1-2c0.3-0.7,0.6-1.3,0.9-2
			c0.5-1.4,1-2.8,1.2-4.2c0.2-1.4,0.4-2.9,0.2-4.3l-0.2-1.4l0.9,0.9c0.5,0.6,0.7,1.1,0.9,1.7c0.2,0.6,0.3,1.2,0.4,1.7
			c0.2,1.2,0.2,2.3,0.1,3.5l-0.3-1.7c-0.1-0.6-0.2-1.1-0.4-1.7c-0.1-0.6-0.3-1.1-0.5-1.6c-0.2-0.5-0.5-1-0.8-1.3l0.7-0.4
			c0.3,1.6,0.2,3.1,0,4.7c-0.2,1.5-0.7,3-1.3,4.4c-0.6,1.4-1.4,2.7-2.3,4c-0.4,0.6-0.9,1.2-1.4,1.8
			C967.8,846.8,967.2,847.4,966.7,847.9z"/>
	</g>
	<g>
		<path class="st13" d="M981.8,802.2c1.2-2,1.9-3.8,2.4-5.6l0.8-2.7c0.3-0.9,0.5-1.9,0.6-2.9c0-1,0-2-0.1-3c-0.1-1-0.3-2.1-0.5-3.1
			c-0.5-2.1-1.3-4.1-2.4-6l0.3-0.3c1.6,1.6,2.9,3.5,3.9,5.5c1,2.1,1.7,4.3,2,6.7c0.1,1.2,0.2,2.4,0.1,3.6c-0.1,1.2-0.4,2.5-1,3.6
			c-0.6,1.1-1.4,2.2-2.4,2.9c-1,0.8-2.2,1.4-3.5,1.4L981.8,802.2z"/>
	</g>
	<path class="st5" d="M741.3,772.5c-1.5-29.6-3.5-70.7-3.5-70.7l12-0.6c0,0,2,41.1,3.5,70.7L741.3,772.5z"/>
	<path class="st4" d="M510.8,771.9c-16.9-17.3-29.1-42.3-27.7-57c0.4-4.6,2.2-8.1,5.2-10.2c9.2-6.4,17.9-16.8,24-25.2
		c-2-1-4.2-2-6.4-3.1c-5.8,7.8-13.6,17-21.6,22.6c-4.7,3.3-7.6,8.6-8.2,15.3c-1.8,19.1,13.9,46.5,29.7,62.5L510.8,771.9z"/>
	<g>
		<path class="st13" d="M982,831.5c1.7,1.1,2.5,3,2.8,4.9c0.1,0.9,0,1.9-0.3,2.8c-0.2,0.4-0.3,0.9-0.5,1.3c-0.2,0.4-0.4,0.8-0.6,1.3
			c-0.9,1.6-2,3.1-3.3,4.2c-0.6,0.6-1.4,1.1-2.1,1.6c-0.7,0.5-1.5,0.9-2.2,1.2l-0.2-0.3l1.6-1.8c0.5-0.7,1-1.3,1.4-1.9l0.6-1
			c0.2-0.3,0.3-0.7,0.5-1c0.4-0.7,0.5-1.4,0.8-2.1c0.1-0.4,0.1-0.7,0.2-1.1c0-0.4,0-0.7,0-1.1c0-0.7,0.1-1.4,0.2-2.1
			c0.2-1.4,0.5-2.8,0.9-4.7L982,831.5z"/>
	</g>
	<path class="st4" d="M491.3,771.9c-16.9-17.3-29.1-42.3-27.7-57c0.4-4.6,2.2-8.1,5.2-10.2c12.1-8.4,23.2-23.6,29-32.3
		c-0.6-0.3-1.2-0.6-1.8-0.9c-1.4-0.7-3.1-1.3-4.9-1.8c-5.7,8.4-15.8,21.9-26.3,29.2c-4.7,3.3-7.6,8.6-8.2,15.3
		c-1.8,19.1,13.9,46.5,29.7,62.5L491.3,771.9z"/>
	<path class="st4" d="M470.6,771.9c-16.9-17.3-29.1-42.3-27.7-57c0.4-4.6,2.2-8.1,5.2-10.2c14.3-10,27.2-29.4,31.6-36.4
		c-2.7,0-5.7,0.3-8.9,0.9c-5.6,8.4-15.9,22.3-26.7,29.8c-4.7,3.3-7.6,8.6-8.2,15.3c-1.8,19.1,13.9,46.5,29.7,62.5L470.6,771.9z"/>
	<path class="st14" d="M604.3,824.4l1.4-39.7l-40.6-43.9c0,0-19.1-6.1-18.3,5.5c0.8,11.7,42,64.9,8.1,32.4
		c-33.8-32.5-85.2-16.3-85.2-16.3l-38,31.3c0,0-84.9,28.2-58-63.5c-3.8,4.7-7,9.7-9.7,15.2c-12.9,26.2-29.6,48.7-3.1,84.8
		c26.6,36.1,40.5-6.5,40.5-6.5l28.9-13.3l96.3,1l29.5,41.7l19.9-3.6L604.3,824.4z"/>
	<path class="st9" d="M396.3,824.1c0,0,29.3-24.4,41.5-35.9s21.1-31.8,57.2-27.4c36.1,4.4,57.8,21.7,59.9,58.5
		c2.1,36.8,2.1,56.5,2.1,56.5l-104.9,45.3l-132.1-10.6c0,0-38.1,0.7-51.7,0c-13.6-0.7-37.8,1.4-54.5,10.6c0,0-7.8-20.1-16.7-31.3
		c-8.9-11.2,0-21.8,0-21.8s18.4,2.7,49.7-7.5S364.6,824.1,396.3,824.1z"/>
	<path class="st15" d="M556.8,865.9c-0.2-9.3-0.7-25-1.9-46.6c-2.1-36.8-23.8-54.1-59.9-58.5c-5.8-0.7-10.8-0.8-15.3-0.3
		c-0.1,0.1-6.5,9.5,18.1,18.3c24.8,8.9,17.1,32.5-24.3,44.7c-23.7,7-31,9.7-32.9,10.6l-3.2-10.3c0,0,38.6-50.4-5.8-30c0,0,0,0,0,0
		c-13.9,12.3-35.4,30.3-35.4,30.3c-3,0-6.5,0.2-10.4,0.7l-4.1,11.9c0,0,19.2,26.9,22,27s68.3,8.1,68.3,8.1l12.1,29.1l22.3-3.2
		l39.3-17L556.8,865.9z"/>
	<path class="st16" d="M197.2,868c0,0-19.7-4.1-35.4,7.5s-22.8-8.6-40.9-4.1c-28.8,7.2-17.3,55.4-13.6,59c2.9,2.9,10.4,2.7,24.2,3.3
		c10.5,0.4,39.5-2.5,54.8-3.3s24.5-2.5,27.6-9.3C216.9,914.3,197.2,868,197.2,868z"/>
	<path class="st17" d="M213.8,921.1c0.9-2.1-0.2-7.8-2.3-14.7l-12-13.3c0,0-3.8-14.1-24.2-9.6s-6.5,6.8,2.4,25.4
		c5.6,11.9,9.8,19.5,16.8,20.9c5-0.5,9.1-1.3,12.3-2.6c1-0.5,2-1,3.1-1.6C211.7,924.4,213,923,213.8,921.1z"/>
	<path class="st4" d="M246.9,860.5c-31.3,10.2-49.7,7.5-49.7,7.5s-8.9,10.6,0,21.8c8.9,11.2,16.7,31.3,16.7,31.3
		c16.7-9.2,40.9-11.2,54.5-10.6s51.7,0,51.7,0l124.5,10l13.5-2l29.6-12.8c1.6-5.6,3.3-12.9,3.4-19.2c0.2-12.1-9.4-58.3-14.6-62
		c-5.2-3.7-16.3,3-29.9-0.9c-13.6-3.9-4.1,2.5-15.7,0.5c-11.6-2-34.7,0-34.7,0s-2.6,0.1-7.1,0.3C353.2,827.5,276.1,851,246.9,860.5z
		"/>
	<path class="st18" d="M942.8,746.4c0,0,30.2,0.2,48.8,18.3c18.6,18.1,16.6,13,31.1,21.4s17.1,33.7,17.1,33.7s-1.8-6.6-6.6-7.7
		c0,0,7.4,8.9,0.8,27.9c0,0-0.3-10.2-6.4-13.1c0,0,2.3,15.5-8.7,27.3c0,0,2.6-8-1.8-14.2c0,0-5.1,2.2-2.6,6.6c0,0-3.1,6.4-15.6,7.7
		c-12.5,1.3-17.4,13.5-40.3,13.8c-23,0.3-40.5-4.5-40.5-4.5s8.1-4.4,0-7.5c-8.1-3.1,9.7,4.5,20.8,4c11-0.5,16.8-0.3,30.9-5.2
		c14.1-4.9,18.5-4.9,29.9-23.2c11.4-18.4,4.4-44.2-6.4-52.8s-25.3-16.4-33.9-19.5S945.5,757.2,942.8,746.4z"/>
	<path class="st3" d="M487.7,905.7c1.6-5.6,3.3-12.9,3.4-19.2c0.2-12.1-9.4-58.3-14.6-62c-5.2-3.7-16.3,3-29.9-0.9
		c-2.5-0.7-4.2-1.1-5.5-1.2l-3.7,1.4c0,0,15.1,41,8.5,73.9c-2.4,11.9,5,17.3,15.5,19.4L487.7,905.7z"/>
	<g class="st19">
		<path class="st4" d="M473.6,823.4L473.6,823.4l1.6,0.4c-0.2-0.1-0.3-0.2-0.5-0.2C474.3,823.5,474,823.5,473.6,823.4z"/>
		<path class="st4" d="M487.7,905.7c1.6-5.6,3.3-12.9,3.4-19.2c0.2-12.1-9.4-58.3-14.6-62c-0.2-0.2-0.5-0.3-0.7-0.4l-0.7-0.2
			c1.1,0.7,2.3,2.3,0.8,6.6c-2.4,7.2-23.7,9-60.3,6.6c-36.6-2.5-109.1,19.3-142.8,29.6c-33.7,10.3-64.8-0.4-79.6,11.3
			c-0.2,3.5,0.6,7.6,3.9,11.8c8.9,11.2,16.7,31.3,16.7,31.3c16.7-9.2,40.9-11.2,54.5-10.6s51.7,0,51.7,0l116.2,9.3l23.1-1.8
			L487.7,905.7z"/>
	</g>
	<path class="st4" d="M642.6,927.1c0,0,18.3-19.2,12.2-37.4c-6.1-18.1-22-39.1-54.6-39.3c-5.7,0-12.9,0.7-20.7,1.8l-6.2,5.8
		L555,869.3c-34-0.3-52.5,10.9-66.1,18.4c-13.6,7.5-38.1,11.2-38.1,11.2l-13.3,18l6.8,27.9c0,0,99.4-3.1,125.6-1.7s42.9-5.4,64-12.8
		C637,929.3,639.9,928.2,642.6,927.1z"/>
	<path class="st3" d="M621.7,893.9c6.6,20.7,11.5,28.3,4.2,39.4c2.6-0.9,5.3-1.9,8-2.8c3.1-1.1,6-2.2,8.7-3.3
		c0,0,18.3-19.2,12.2-37.4c-6.1-18.1-22-39.1-54.6-39.3c-5.7,0-12.9,0.7-20.7,1.8l-6.2,5.8L555,869.3
		C555,869.3,613,866.8,621.7,893.9z"/>
	<path class="st14" d="M874.4,689c-0.6-2.7-1.5-5-2.7-6.9c-8-12.6,7,0.3-2.6-26.6c-1.1-3.1-2.6-5.9-4.3-8.6
		c1.8,3,18.7,32.4-12.3,32.9c-32.7,0.5-63-16.7-95.6-3.5c-5.2,2.1-10.3,3.1-15.4,3.2l8.7,29.6c0,0,24.7,8,46.1,3.9
		C817.8,709,862.7,727.1,874.4,689z"/>
	<path class="st6" d="M600.2,850.5c-5.1,0-11.2,0.5-17.9,1.4l15.1,14.3c0,0,9.7-0.4,8.9,5.5c-0.8,5.9,0.7,15.4-41.2,10.9
		s-70.1,23.5-121.7,26.3l-6,8.1l6.8,27.9c0,0,99.4-3.1,125.6-1.7s42.9-5.4,64-12.8c3.1-1.1,6-2.2,8.7-3.3c0,0,18.3-19.2,12.2-37.4
		C648.7,871.6,632.9,850.7,600.2,850.5z"/>
	<path class="st16" d="M319.4,930.4c0,0,6.1-7.6,2.4-11c-3.7-3.4-4.1-9.9,2.7-10.2s8.9-8.2,22.3-8.9c13.4-0.7,38,1.7,45.4-4.4
		c7.5-6.1,51.1-22.1,59.6,10.2c8.5,32.3-10.6,50.4-43.6,46.6S314.9,947.5,319.4,930.4z"/>
	<g>
		<g>
			<path class="st3" d="M298.4,848.9c-0.3,0.1-0.5,0.1-0.8,0.1c-0.3,0.1-0.7,0.2-1,0.3c-0.2,0.1-0.6,0.2-0.7,0.4
				c-0.2,0.3,0.1,1.4,0.2,1.7c0.7-0.2,1.4-0.4,2.1-0.6c0.4-0.1,0.7-0.1,0.8,0.3c0,0.2,0.1,0.4,0.1,0.6c0.1,0.5,0,0.7-0.6,0.9
				c-0.7,0.2-1.3,0.4-2,0.6c0.3,1.8,0.6,3.6,1,5.4c0.1,0.4,0,0.8-0.6,1c-0.4,0.1-0.9,0.3-1.3,0.4c-0.5,0.2-0.7-0.1-0.7-0.4
				c-0.3-1.8-0.6-3.6-1-5.5c-0.2,0.1-0.4,0.1-0.6,0.2c-0.5,0.1-0.5-0.1-0.6-0.4c0-0.2-0.1-0.5-0.1-0.7c-0.1-0.6,0.5-0.6,1-0.8
				c0-0.2-0.1-0.4-0.1-0.7c-0.1-0.7-0.2-1.4,0.2-2.1c0.7-1.2,2-1.7,3.4-2.1c0.4-0.1,1.4-0.4,1.8-0.2c0.1,0.1,0.1,0.2,0.2,0.3
				c0,0,0,0.1,0,0.1C298.9,848,299,848.7,298.4,848.9z M302.7,848.1c-0.3,0.1-0.5,0.2-0.8,0.2c-0.7,0.2-1.1,0.2-1.2-0.4
				c0-0.2-0.1-0.4-0.1-0.6c-0.1-0.5,0.1-0.8,0.8-1c0.3-0.1,0.6-0.2,1-0.3c0.4-0.1,0.9,0,0.9,0.4c0,0,0,0.1,0,0.1
				c0,0.2,0.1,0.4,0.1,0.6C303.5,847.6,303.4,848,302.7,848.1z M304.3,857.2c-0.3,0.1-0.5,0.2-0.8,0.2c-0.7,0.2-1.1,0.2-1.2-0.4
				c-0.4-2.1-0.8-4.3-1.1-6.4c-0.1-0.5,0.1-0.8,0.8-1c0.3-0.1,0.6-0.2,1-0.3c0.4-0.1,0.9,0,0.9,0.4c0,0,0,0.1,0,0.1
				c0.4,2.1,0.8,4.3,1.1,6.4C305.1,856.7,305,857,304.3,857.2C304.3,857.2,304.3,857.2,304.3,857.2z"/>
			<path class="st3" d="M311.7,855.3c-1,0.3-2,0.5-3,0.7c-0.6,0.1-0.6-0.1-0.7-0.6c0-0.1,0-0.2-0.1-0.3c-0.1-0.4-0.1-0.8,0.5-0.9
				c0.4-0.1,0.7-0.2,1.1-0.2c0.7-0.2,1.4-0.3,2.2-0.5c0.7-0.2,1-0.3,0.9-0.9c0-0.2-0.1-0.4-0.2-0.5c-0.2-0.1-2.1,0-2.4,0
				c-0.4,0-0.8,0-1.2,0c-1.1-0.1-1.6-0.5-1.8-1.4c-0.4-2.5,1.7-3.1,4.2-3.8c0.5-0.1,1-0.3,1.5-0.4c0.7-0.2,1.1-0.1,1.2,0.5
				c0.1,0.5,0.2,1-0.6,1.2c-0.3,0.1-0.7,0.2-1.1,0.2c-0.6,0.1-1.1,0.2-1.7,0.4c-0.8,0.2-1.2,0.3-1.1,1c0,0.1,0.1,0.2,0.2,0.3
				c0.2,0.2,2.3,0,2.7,0c1.7,0,2.5,0.2,2.8,1.7C315.6,853.9,314.3,854.6,311.7,855.3z"/>
			<path class="st3" d="M318.6,843.6c-0.3,0.1-0.5,0.1-0.8,0.2c-0.7,0.2-1.1,0.2-1.2-0.4c0-0.2-0.1-0.4-0.1-0.6
				c-0.1-0.5,0.1-0.8,0.8-1c0.3-0.1,0.6-0.2,1-0.3c0.4-0.1,0.9,0.1,0.9,0.4c0,0,0,0.1,0,0.1c0,0.2,0.1,0.4,0.1,0.6
				C319.4,843.1,319.3,843.5,318.6,843.6z M320.2,852.7c-0.3,0.1-0.5,0.1-0.8,0.2c-0.7,0.2-1.1,0.2-1.2-0.5
				c-0.4-2.2-0.8-4.3-1.1-6.5c-0.1-0.5,0.1-0.8,0.8-1c0.3-0.1,0.6-0.2,1-0.3c0.4-0.1,0.9,0.1,0.9,0.4c0,0,0,0.1,0,0.1
				c0.4,2.2,0.8,4.3,1.1,6.5C321,852.2,320.9,852.6,320.2,852.7L320.2,852.7z"/>
			<path class="st3" d="M330.2,850.4c-0.6,0.2-1.2,0.4-1.7,0.5c-4,1-4.9,0.1-5.4-3c-0.5-3.1-0.1-4.4,4-5.4c0.6-0.1,1.2-0.3,1.8-0.4
				c0.6-0.1,1.1-0.3,1.2,0.3c0,0,0,0,0,0c0.1,0.4,0.2,1.3-0.5,1.5c-0.3,0.1-0.5,0.1-0.8,0.1c-0.7,0.1-1.3,0.2-2,0.4
				c-0.9,0.2-1,0.4-1.1,1.1c0,0.6,0,1.1,0.1,1.7c0.1,0.5,0.2,1.1,0.4,1.6c0.2,0.7,0.5,0.7,1.4,0.5c0.7-0.2,1.3-0.4,1.9-0.6
				c0.3-0.1,0.5-0.2,0.8-0.3c0.2-0.1,0.4,0,0.5,0c0.2,0.1,0.4,0.9,0.4,1.1C331.3,850.1,330.8,850.1,330.2,850.4z"/>
			<path class="st3" d="M341.1,847.6c-0.4,0.1-0.8,0.2-1.2,0.3c-0.5,0.1-0.6-0.1-0.7-0.5c-0.8,0.7-1.8,1.2-2.9,1.5
				c-2,0.5-3.1-0.2-3.4-1.8c-0.3-1.8,0.9-2.8,2.9-3.4c0.9-0.3,1.7-0.5,2.6-0.7c-0.1-0.7-0.2-1.6-1.3-1.4c-1,0.3-2,0.6-2.9,1
				c-0.2,0.1-0.3,0.1-0.5,0.2c-0.7,0.2-0.7-0.4-0.8-0.9c-0.1-0.3,0.1-0.7,0.5-0.8c1.1-0.5,2.2-0.9,3.3-1.1c1-0.2,2.3-0.4,3.1,0.1
				c0.9,0.6,1.1,1.6,1.3,2.5c0.2,1.4,0.5,2.7,0.7,4.1C341.9,847.2,341.8,847.5,341.1,847.6z M338.8,844.5c-0.3,0.1-0.7,0.1-1,0.2
				c-0.4,0.1-0.9,0.2-1.3,0.3c-0.8,0.3-1.2,0.6-1,1.3c0.1,0.4,0.3,1.1,1,0.9c1-0.3,1.9-0.8,2.6-1.5
				C338.9,845.4,338.8,845,338.8,844.5z"/>
			<path class="st3" d="M346.6,846.5c-0.2,0.1-0.5,0.1-0.7,0.2c-0.7,0.2-1.1,0.1-1.2-0.5c-0.6-3.3-1.2-6.7-1.8-10
				c-0.1-0.5,0.1-0.8,0.8-0.9c0.3-0.1,0.6-0.1,0.9-0.2c0.4-0.1,0.8,0.1,0.9,0.4c0,0,0,0.1,0,0.1c0.6,3.3,1.2,6.7,1.8,10
				C347.3,846,347.2,846.3,346.6,846.5z"/>
			<path class="st3" d="M356.5,844.6c-0.6,0.2-1.2,0.3-1.7,0.4c-4,0.8-4.9-0.2-5.4-3.3c-0.5-3.1-0.1-4.4,4-5.2
				c0.6-0.1,1.2-0.2,1.8-0.3c0.6-0.1,1.1-0.2,1.2,0.3c0,0,0,0,0,0c0.1,0.4,0.2,1.3-0.5,1.5c-0.3,0-0.5,0.1-0.8,0.1
				c-0.7,0-1.3,0.1-2,0.2c-0.9,0.2-1,0.3-1.1,1c0,0.6,0,1.1,0.1,1.7c0.1,0.5,0.2,1.1,0.4,1.6c0.2,0.7,0.5,0.8,1.4,0.6
				c0.7-0.1,1.3-0.3,1.9-0.5c0.3-0.1,0.5-0.2,0.8-0.2c0.2-0.1,0.4,0,0.5,0.1c0.2,0.1,0.4,0.9,0.4,1.1
				C357.6,844.4,357.1,844.4,356.5,844.6z"/>
			<path class="st3" d="M364.6,843.2c-3.4,0.6-5-0.8-5.5-3.4c-0.5-2.6,0.5-4.5,4-5.1c3.5-0.6,5,0.8,5.5,3.5
				C369,840.8,368.1,842.6,364.6,843.2z M365.2,836.7c-0.5-0.5-1.1-0.4-1.8-0.2c-0.7,0.1-1.3,0.2-1.6,0.8c-0.3,0.6-0.2,1.4-0.1,2
				c0.1,0.6,0.3,1.4,0.7,1.9c0.5,0.5,1.1,0.3,1.8,0.2c0.7-0.1,1.3-0.2,1.6-0.8c0.3-0.6,0.1-1.4,0-2
				C365.8,838,365.7,837.1,365.2,836.7C365.2,836.7,365.2,836.7,365.2,836.7z"/>
			<path class="st3" d="M379.2,840.6c-0.4,0.1-0.8,0.1-1.2,0.2c-0.5,0.1-0.6-0.2-0.7-0.5c-0.8,0.6-1.8,1.1-2.9,1.3
				c-2,0.3-3.1-0.4-3.4-2c-0.3-1.8,0.9-2.7,2.9-3.2c0.8-0.2,1.7-0.4,2.6-0.5c-0.1-0.7-0.2-1.6-1.3-1.5c-1,0.2-2,0.5-2.9,0.8
				c-0.2,0.1-0.3,0.1-0.5,0.1c-0.7,0.1-0.7-0.5-0.8-0.9c-0.1-0.3,0.1-0.7,0.5-0.8c1.1-0.4,2.2-0.7,3.3-0.9c1-0.2,2.3-0.2,3.1,0.3
				c0.9,0.6,1.1,1.7,1.3,2.6c0.2,1.4,0.5,2.7,0.7,4.1C379.9,840.2,379.8,840.5,379.2,840.6z M376.8,837.3c-0.3,0-0.7,0.1-1,0.1
				c-0.4,0.1-0.9,0.1-1.3,0.3c-0.8,0.2-1.1,0.5-1,1.3c0.1,0.4,0.3,1.1,1,1c1-0.2,1.9-0.6,2.6-1.3C377,838.2,376.9,837.7,376.8,837.3
				z"/>
			<path class="st3" d="M389,839.4c-0.6,0.1-1.1,0.2-1.7,0.3c-4,0.5-4.9-0.5-5.4-3.6c-0.5-3.1-0.1-4.4,3.9-5
				c0.6-0.1,1.2-0.1,1.8-0.1c0.6,0,1.1-0.1,1.2,0.4c0,0,0,0,0,0c0.1,0.4,0.2,1.3-0.5,1.4c-0.3,0-0.5,0-0.8,0c-0.7,0-1.3,0-2,0.1
				c-0.9,0.1-1,0.3-1.1,1c0,0.6,0,1.1,0.1,1.7c0.1,0.5,0.2,1.1,0.4,1.6c0.2,0.8,0.5,0.8,1.4,0.7c0.7-0.1,1.3-0.2,1.9-0.4
				c0.3-0.1,0.5-0.1,0.8-0.2c0.2,0,0.4,0,0.5,0.1c0.2,0.1,0.4,0.9,0.4,1.1C390.1,839.2,389.6,839.2,389,839.4z"/>
			<path class="st3" d="M400.1,837.9c-0.4,0-0.7,0.1-1.1,0.1c-0.6,0.1-0.8-0.3-0.9-0.7c-0.2-1.5-0.5-2.9-0.7-4.4
				c0-0.2-0.2-1.2-0.4-1.3c-0.2-0.1-0.5-0.1-0.7-0.1c-0.9,0.1-1.7,0.5-2.4,1.1c0.3,1.7,0.6,3.4,0.9,5c0.1,0.5,0,0.8-0.7,0.9
				c-0.4,0-0.7,0.1-1.1,0.1c-0.6,0.1-0.8-0.2-0.9-0.6c-0.6-3.4-1.2-6.9-1.8-10.3c-0.1-0.5,0.1-0.8,0.8-0.8c0.3,0,0.6-0.1,0.9-0.1
				c0.4-0.1,0.8,0.2,0.9,0.5c0,0,0,0.1,0,0.1c0.2,1,0.4,2.1,0.5,3.1c0.8-0.5,1.7-0.8,2.7-0.9c1.9-0.2,3.3,0.4,3.6,2.1
				c0.3,1.7,0.6,3.5,0.9,5.2C400.8,837.6,400.7,837.9,400.1,837.9z"/>
		</g>
	</g>
	<g>
		<path class="st12" d="M972.4,830.3c0.2,0.6,0.4,1.3,0.4,1.9c0.1,0.7,0,1.3-0.1,2c-0.2,0.6-0.4,1.3-0.8,1.8c-0.4,0.5-1,0.9-1.6,1.2
			c0.5-0.4,0.9-0.9,1.2-1.4c0.3-0.5,0.5-1.1,0.6-1.7C972.5,832.9,972.5,831.6,972.4,830.3z"/>
	</g>
	<path class="st4" d="M478.9,863.1c-0.4-0.6-1.1-0.9-1.9-0.9l0,0l-13.8,0.8c-0.4,0-0.7-0.2-0.7-0.5c0-0.1,0-0.1,0-0.2
		c0.8-2.7,3.6-4.7,6.8-4.9c0.1,0,0.2,0,0.3,0l0.1,0c0.1,0,0.2,0,0.2,0l0.1,0c0.2,0,0.4,0,0.6,0l0.1,0c0.1,0,0.2,0,0.3,0c0,0,0,0,0,0
		c0.2,0,0.4,0.1,0.6,0.1l0,0c0.1,0,0.2,0,0.3,0.1l0,0c0.2,0.1,0.4,0.1,0.6,0.2l0,0c0.2,0.1,0.4,0.1,0.6,0.2l0,0
		c0.1,0,0.2,0.1,0.2,0.1c0,0,0,0,0,0c0.1,0,0.2,0.1,0.2,0.1l0,0c0.1,0,0.2,0.1,0.2,0.1l0.1,0c0.3,0.2,0.6,0.4,0.9,0.6
		c0.1,0.1,0.2,0.2,0.3,0.3c0.3,0.3,0.8,0.3,1.2,0.1c0,0,0.1,0,0.1-0.1l0.6-0.5c0.3-0.3,0.3-0.7,0-0.9c-0.4-0.4-0.8-0.7-1.3-1l0,0
		l0,0c-0.1-0.1-0.2-0.1-0.3-0.2l0,0c-0.1-0.1-0.2-0.1-0.3-0.2l-0.1,0c-0.2-0.1-0.4-0.2-0.7-0.3l-0.1,0c-0.2-0.1-0.5-0.2-0.7-0.3
		c0,0,0,0-0.1,0c-0.1,0-0.2-0.1-0.3-0.1l0,0c-0.1,0-0.2-0.1-0.4-0.1l-0.1,0c-0.1,0-0.2-0.1-0.3-0.1l-0.1,0c-0.1,0-0.3-0.1-0.4-0.1
		l-0.1,0c-0.1,0-0.2,0-0.3-0.1c0,0-0.1,0-0.1,0c-0.1,0-0.3,0-0.4,0c0,0,0,0-0.1,0c-0.1,0-0.2,0-0.3,0c0,0-0.1,0-0.1,0
		c-0.1,0-0.3,0-0.4,0c0,0,0,0,0,0c-0.1,0-0.2,0-0.4,0c0,0-0.1,0-0.1,0c-0.1,0-0.3,0-0.4,0l0,0c-4.8,0.3-8.7,3.4-9.3,7.4
		c0,0.3-0.3,0.5-0.7,0.5l-3.7,0.2c-0.4,0-0.7,0.3-0.7,0.6c0,0,0,0,0,0l0.1,0.9c0,0.3,0.3,0.6,0.7,0.5l0,0l3.7-0.2
		c0.3,0,0.6,0.2,0.7,0.4c0.5,1.7,1.5,3.1,3,4.3c0.6,0.5,1.3,0.9,2,1.2c4.8,2.1,10.8,0.4,13.4-3.7c0.3-0.6,0.6-1.2,0.8-1.8
		C479.5,864.8,479.4,863.9,478.9,863.1z M466.8,869.5c-1.9-0.7-3.4-2-4.1-3.7c-0.1-0.3,0.1-0.6,0.4-0.7c0.1,0,0.1,0,0.2,0l12.2-0.7
		c0.7,0,1.2,0.4,1.2,0.9c0,0.1,0,0.3-0.1,0.4c-1.4,3.3-5.6,5-9.5,3.9C467,869.6,466.9,869.5,466.8,869.5L466.8,869.5z"/>
	<path class="st16" d="M200.9,903.9c-0.4-0.4-1-0.5-1.6-0.3l0,0l-10,3.4c-0.3,0.1-0.6,0-0.6-0.3c0,0,0-0.1,0-0.1c0-2.2,1.7-4.2,4-5
		c0.1,0,0.1,0,0.2-0.1l0.1,0c0.1,0,0.1,0,0.2,0l0,0c0.1,0,0.3-0.1,0.4-0.1l0,0c0.1,0,0.1,0,0.2,0c0,0,0,0,0,0c0.2,0,0.3,0,0.5,0l0,0
		c0.1,0,0.1,0,0.2,0l0,0c0.2,0,0.3,0,0.5,0l0,0c0.2,0,0.3,0,0.5,0l0,0c0.1,0,0.1,0,0.2,0c0,0,0,0,0,0c0.1,0,0.1,0,0.2,0l0,0
		c0.1,0,0.1,0,0.2,0l0.1,0c0.3,0.1,0.6,0.2,0.8,0.3c0.1,0,0.2,0.1,0.3,0.2c0.3,0.2,0.7,0.1,0.9-0.2c0,0,0,0,0-0.1l0.3-0.5
		c0.2-0.3,0.1-0.6-0.2-0.7c-0.4-0.2-0.8-0.4-1.2-0.5l0,0l0,0c-0.1,0-0.2-0.1-0.3-0.1l0,0c-0.1,0-0.2,0-0.3-0.1l0,0
		c-0.2,0-0.4-0.1-0.6-0.1l-0.1,0c-0.2,0-0.4,0-0.6-0.1c0,0,0,0-0.1,0c-0.1,0-0.2,0-0.3,0l0,0c-0.1,0-0.2,0-0.3,0l-0.1,0
		c-0.1,0-0.2,0-0.3,0l0,0c-0.1,0-0.2,0-0.3,0l-0.1,0c-0.1,0-0.2,0-0.3,0c0,0,0,0-0.1,0c-0.1,0-0.2,0-0.3,0c0,0,0,0,0,0
		c-0.1,0-0.2,0-0.3,0c0,0,0,0-0.1,0c-0.1,0-0.2,0-0.3,0.1c0,0,0,0,0,0c-0.1,0-0.2,0-0.3,0.1c0,0-0.1,0-0.1,0c-0.1,0-0.2,0.1-0.3,0.1
		l0,0c-3.5,1.2-5.7,4.3-5.3,7.4c0,0.2-0.1,0.4-0.4,0.5l-2.7,0.9c-0.3,0.1-0.4,0.4-0.4,0.6c0,0,0,0,0,0l0.2,0.7
		c0.1,0.2,0.4,0.3,0.6,0.3l0,0l2.7-0.9c0.2-0.1,0.5,0,0.6,0.2c0.7,1.1,1.7,2,3.1,2.5c0.6,0.2,1.1,0.4,1.8,0.5c4,0.5,8.1-1.9,9.1-5.5
		c0.1-0.5,0.2-1,0.2-1.5C201.7,905,201.4,904.4,200.9,903.9z M193.3,911.1c-1.6-0.1-2.9-0.8-3.8-1.9c-0.2-0.2-0.1-0.5,0.2-0.6
		c0,0,0.1-0.1,0.1-0.1l8.8-3c0.5-0.2,1,0,1.1,0.4c0,0.1,0,0.2,0,0.3c-0.3,2.7-3.1,4.9-6.2,4.8C193.5,911.1,193.4,911.1,193.3,911.1
		L193.3,911.1z"/>
	<path class="st4" d="M646.6,890.1c-0.5-0.4-1.2-0.5-1.8-0.3l0,0l-10.3,4.9c-0.3,0.1-0.6,0-0.8-0.3c0-0.1,0-0.1-0.1-0.2
		c-0.5-2.7,0.9-5.4,3.3-6.6c0.1,0,0.1-0.1,0.2-0.1l0.1,0c0.1,0,0.1,0,0.2-0.1l0,0c0.2-0.1,0.3-0.1,0.5-0.1l0.1,0
		c0.1,0,0.1,0,0.2-0.1c0,0,0,0,0,0c0.2,0,0.3-0.1,0.5-0.1l0,0c0.1,0,0.2,0,0.2,0l0,0c0.2,0,0.4,0,0.5,0l0,0c0.2,0,0.3,0,0.5,0l0,0
		c0.1,0,0.2,0,0.2,0c0,0,0,0,0,0c0.1,0,0.1,0,0.2,0l0,0c0.1,0,0.2,0,0.2,0l0.1,0c0.3,0.1,0.7,0.2,1,0.3c0.1,0.1,0.3,0.1,0.4,0.2
		c0.3,0.2,0.7,0.1,0.9-0.3c0,0,0-0.1,0-0.1l0.2-0.7c0.1-0.3,0-0.7-0.4-0.9c-0.5-0.2-0.9-0.4-1.4-0.5l0,0l0,0c-0.1,0-0.2-0.1-0.3-0.1
		l0,0c-0.1,0-0.2-0.1-0.3-0.1l-0.1,0c-0.2,0-0.4-0.1-0.6-0.1l-0.1,0c-0.2,0-0.4,0-0.7,0c0,0,0,0-0.1,0c-0.1,0-0.2,0-0.3,0l0,0
		c-0.1,0-0.2,0-0.3,0l-0.1,0c-0.1,0-0.2,0-0.3,0l0,0c-0.1,0-0.2,0-0.3,0l-0.1,0c-0.1,0-0.2,0-0.3,0.1c0,0,0,0-0.1,0
		c-0.1,0-0.2,0-0.3,0.1c0,0,0,0,0,0c-0.1,0-0.2,0.1-0.3,0.1c0,0-0.1,0-0.1,0c-0.1,0-0.2,0.1-0.3,0.1c0,0,0,0,0,0
		c-0.1,0-0.2,0.1-0.3,0.1c0,0-0.1,0-0.1,0c-0.1,0-0.2,0.1-0.3,0.1l0,0c-3.5,1.7-5.3,5.8-4.3,9.7c0.1,0.3,0,0.6-0.3,0.7l-2.8,1.3
		c-0.3,0.1-0.4,0.5-0.3,0.8c0,0,0,0,0,0l0.4,0.8c0.1,0.3,0.5,0.4,0.8,0.3l0,0l2.8-1.3c0.2-0.1,0.5,0,0.7,0.2c1,1.4,2.4,2.4,3.9,3
		c0.7,0.2,1.3,0.4,2,0.5c4.5,0.5,8.4-2.9,8.8-7.5c0-0.6,0-1.2-0.1-1.9C647.7,891.5,647.3,890.7,646.6,890.1z M639.8,899.7
		c-1.7,0-3.4-0.8-4.6-2.1c-0.2-0.2-0.2-0.6,0-0.8c0,0,0.1-0.1,0.1-0.1l9-4.3c0.5-0.2,1.1,0,1.3,0.5c0.1,0.1,0.1,0.2,0.1,0.4
		c0.2,3.5-2.4,6.4-5.7,6.5C640.1,899.7,639.9,899.7,639.8,899.7L639.8,899.7z"/>
	<g>
		<path class="st12" d="M978.7,800.7c0.6-1.3,1.4-2.4,2.2-3.6c0.4-0.6,0.8-1.1,1.2-1.7l1.3-1.7c-0.3,1.4-1.1,2.6-1.9,3.8
			C980.7,798.7,979.8,799.7,978.7,800.7z"/>
	</g>
	<path class="st9" d="M758.5,623.2c0,0-35.4,2-51.7,9.2c-16.3,7.1-39.5,4.8-57.9,10.2c-18.4,5.4-36.1,8.5-38.8,13.6
		s-0.7,15.7-2.7,23.1s-12.6,51-6.5,110.3c0,0,1.6,13.8-6.6,26.3c-8.2,12.5-10,11-17.1,19.9c-7.1,8.9-8.2,4.9-12.5,11.5
		c-4.3,6.6-9.4,2.6-9.7,9.4c-0.3,6.9,0,12.5,0,12.5l14-1.3l16.3-0.5c0,0,16.1,2.6,11.5-4.6s-2.6-12.8-2.6-12.8s4.3,3.8,18.1,0.8
		c0,0,1.8,15.8,7.9,16.3c6.1,0.5,9.7-0.8,7.4-16.9c-2.3-16.1,30.4-3.6,30.4-3.6s18.1,10.7,25,34.2c0,0,3.6,0-1.5-10.7
		c-5.1-10.7,3.8-7.9-6.4-20.2c-10.2-12.3-2.3-11.7-15.1-20.7c-12.8-8.9-20.9-23.2-18.4-43.4c2.6-20.2,0.5-29.6,13-49.3
		c12.5-19.7,17.4-36,17.4-36s13.8,3.3,22.2,8.4s51.3,2,51.3,2s13,0.3,15.8-39.1S758.5,623.2,758.5,623.2z"/>
	<g class="st19">
		<polygon class="st9" points="570.7,842.1 570.7,842.1 570.7,842.1 		"/>
		<path class="st9" d="M660.2,829.5c-12.8-8.9-20.9-23.2-18.4-43.4c2.6-20.2,0.5-29.6,13-49.3c12.5-19.7,17.4-36,17.4-36
			s13.8,3.3,22.2,8.4s51.3,2,51.3,2s12.5,0.2,15.6-36.6c-1.5,0.5-3,1-4.5,1.6c-32.6,13.2-62.7-19.4-92.3,0
			c-29.6,19.3-55.4,119.6-65.2,62.1c-0.6,15-0.4,32.3,1.6,51.2c0,0,1.6,13.8-6.6,26.3c-6.4,9.8-8.9,11-13.1,15.3
			c3.1-1.9,6.5-2.5,9.2,0.3c7.7,7.7,19.9-4.6,19.9-4.6s9.5-8.9,17.1-2.8C635.1,830.3,644.1,820.3,660.2,829.5z"/>
	</g>
	<g>
		<circle class="st3" cx="538.4" cy="443.9" r="100.9"/>
		<g>
			<defs>
				<circle id="SVGID_00000175306764891012430400000001812827708195507902_" cx="538.4" cy="443.9" r="100.9"/>
			</defs>
			<clipPath id="SVGID_00000163786985403861521800000012692612329066994578_">
				<use xlink:href="#SVGID_00000175306764891012430400000001812827708195507902_"  style="overflow:visible;"/>
			</clipPath>
			<path style="clip-path:url(#SVGID_00000163786985403861521800000012692612329066994578_);fill:#F8D8C1;" d="M538.4,544.8
				c0,0-8.4-35.7-23.3-48.7c-14.9-13-22.3-22.5-24.2-39.6c-1.9-17.1,2.8-28.9,16.8-39.8c14-10.9,62.8-62.5,64.7-64.8
				s70.7,50.5,70.7,50.5l-3.8,55.4c0,0-27.4,14.4-37.2,16.1c0,0,16.3,9.2,26.1,30.8l-49.8,38.1L538.4,544.8z"/>
			<path style="clip-path:url(#SVGID_00000163786985403861521800000012692612329066994578_);fill:#F2F2F2;" d="M600.3,366.4
				c0,0-52.6,40.3-56.8,43.6c-4.2,3.3-18.6,10.7-24.4,13c-5.8,2.3-14.6,23.6,11.9,34.8s49.8-15.2,44.2-27.8
				c-5.6-12.6,42.2-47.2,42.2-47.2L600.3,366.4z"/>
			<path style="clip-path:url(#SVGID_00000163786985403861521800000012692612329066994578_);fill:#F2F2F2;" d="M586.3,528.2
				c0,0-13-15.4-16.8-31.6c-3.7-16.3,14.4-40-18.1-25.6c0,0-13,2.3-20.9,0s-27.8-5.8,3.3,33.4s25,38.4,25,38.4L586.3,528.2z"/>
			<path style="clip-path:url(#SVGID_00000163786985403861521800000012692612329066994578_);fill:#F2F2F2;" d="M506.7,432.8
				c0,0-8.4,10.7-7.4,20.9c0.9,10.2,7.4,25.8,11.2,26.6c3.7,0.8,0.5-9,0-17.8C510,453.7,511.9,433.2,506.7,432.8z"/>
			<path style="opacity:0.5;clip-path:url(#SVGID_00000163786985403861521800000012692612329066994578_);fill:#F8D8C1;" d="
				M640.7,437.1c-11.7,9.8-39.1,31.6-56.3,37.1c0,0,25.4,10.7,32.5,39.1l0.5-0.4l8.4-13c-9.8-18.2-23.7-26.1-23.7-26.1
				c9.8-1.8,37.2-16.1,37.2-16.1L640.7,437.1z"/>
		</g>
		<path class="st23" d="M522.2,457.1c0,0,17.2,15.5,41.1,1.4c0,0-2.4,10.2-21,10.8C536.6,469.6,527,466.9,522.2,457.1z"/>
		
			<radialGradient id="SVGID_00000000203960042992963970000009457349825657161888_" cx="537.3997" cy="449.1624" r="75.1851" gradientUnits="userSpaceOnUse">
			<stop  offset="0" style="stop-color:#FF0000;stop-opacity:0.5"/>
			<stop  offset="1" style="stop-color:#FF120D;stop-opacity:0"/>
		</radialGradient>
		<circle style="fill:url(#SVGID_00000000203960042992963970000009457349825657161888_);" cx="537.4" cy="449.2" r="75.2"/>
		<circle class="st25" cx="538.4" cy="443.9" r="100.9"/>
	</g>
	<g>
		<g>
			<line class="st26" x1="561.2" y1="565.2" x2="562.9" y2="571"/>
			<line class="st27" x1="566.2" y1="583.1" x2="631.8" y2="818.5"/>
			<line class="st26" x1="633.5" y1="824.5" x2="635.1" y2="830.3"/>
		</g>
	</g>
	<g class="st19">
		<path class="st18" d="M918.2,856.1C918.2,856.1,918.2,856.1,918.2,856.1C915.3,854.9,915.8,855.3,918.2,856.1z"/>
		<path class="st18" d="M1023.2,848.6c0,0,5.6-24.3-4.2-35c0,0-2.4,22.7-28.6,31.6c-0.4,0.1-0.7,0.2-1.1,0.4
			c-5.4,5-10.4,6.2-19.3,9.3c-14.1,4.9-19.9,4.7-30.9,5.2c-7,0.3-16.6-2.6-20.8-4c8,3.1,0,7.5,0,7.5s17.5,4.7,40.5,4.5
			c23-0.3,27.8-12.5,40.3-13.8c12.5-1.3,15.6-7.7,15.6-7.7c-2.6-4.3,2.6-6.6,2.6-6.6c4.3,6.2,1.8,14.2,1.8,14.2
			C1020.7,852.5,1022,850.5,1023.2,848.6z"/>
	</g>
	<path class="st15" d="M925,859.4l-8.8-4c0,0-21.5-8.9-7.6-25c14-16.1,24.5-15.7,18.7-42.1c-5.8-26.4-12.3,32.8-32.3,22.6
		c-20.1-10.2-16-11.1-31.3-10.1c-15.3,0.9-16-14.1-10.9-21.9c-20.8,31.6-10.2,64.4-10.2,64.4c28.9-7.1,49.4,9.5,49.4,9.5
		c-11.2,5.8,4.4,8.2,17.4,12.6C920.2,869,915.7,860.7,925,859.4z"/>
	<g>
		<g>
			<defs>
				<circle id="SVGID_00000083051097706379185640000007560872477812637079_" cx="935.7" cy="340.1" r="140.5"/>
			</defs>
			<clipPath id="SVGID_00000031921702194708811820000010051446082037043347_">
				<use xlink:href="#SVGID_00000083051097706379185640000007560872477812637079_"  style="overflow:visible;"/>
			</clipPath>
			
				<circle style="clip-path:url(#SVGID_00000031921702194708811820000010051446082037043347_);fill:#00E9C4;" cx="935.7" cy="340.1" r="140.5"/>
			<path style="clip-path:url(#SVGID_00000031921702194708811820000010051446082037043347_);fill:#4F4F4F;" d="M1004.5,149.2
				c-7.7-23-22.3-50.8-22.3-50.8c-4.9,24.4-23.2,47.3-23.2,47.3c-11.3-0.2-23.6,4.2-30.2,6.9c2.5-1.2,4.8-2.6,6.8-4.2
				c22.2-16.7,38.9-64,38.9-64S946.3,9.6,895,34.5l0,0c4.6-2.6,7.4-5.9,7.4-10.6c0,0,33.9-20.2,61,19.5l16.7,27.8L999,30.8
				c3.2,3.4,6.7,7.1,10.3,11l-20.2,43.4c0,0,36.1,62.1,43.4,88.8C1018.5,153.7,1004.5,149.2,1004.5,149.2z"/>
			<g style="clip-path:url(#SVGID_00000031921702194708811820000010051446082037043347_);">
				<path class="st31" d="M1005.8,413.9c0,12.5-10.2,22.7-22.7,22.7h-94.7c-12.5,0-22.7-10.2-22.7-22.7V266.3
					c0-12.5,10.2-22.7,22.7-22.7H983c12.5,0,22.7,10.2,22.7,22.7V413.9L1005.8,413.9z"/>
				<g>
					<path class="st32" d="M900.1,416.5c0,1.7-1.4,3.1-3.1,3.1h-13.1c-1.7,0-3.1-1.4-3.1-3.1v-13c0-1.7,1.4-3.1,3.1-3.1H897
						c1.7,0,3.1,1.4,3.1,3.1V416.5z"/>
					<path class="st32" d="M922.7,416.5c0,1.7-1.4,3.1-3.1,3.1h-13.1c-1.7,0-3.1-1.4-3.1-3.1v-13c0-1.7,1.4-3.1,3.1-3.1h13.1
						c1.7,0,3.1,1.4,3.1,3.1V416.5z"/>
					<path class="st32" d="M945.2,416.5c0,1.7-1.4,3.1-3.1,3.1H929c-1.7,0-3.1-1.4-3.1-3.1v-13c0-1.7,1.4-3.1,3.1-3.1h13.1
						c1.7,0,3.1,1.4,3.1,3.1V416.5z"/>
					<path class="st32" d="M900.1,394c0,1.7-1.4,3.1-3.1,3.1h-13.1c-1.7,0-3.1-1.4-3.1-3.1v-13c0-1.7,1.4-3.1,3.1-3.1H897
						c1.7,0,3.1,1.4,3.1,3.1V394z"/>
					<path class="st32" d="M922.7,394c0,1.7-1.4,3.1-3.1,3.1h-13.1c-1.7,0-3.1-1.4-3.1-3.1v-13c0-1.7,1.4-3.1,3.1-3.1h13.1
						c1.7,0,3.1,1.4,3.1,3.1V394z"/>
					<path class="st32" d="M945.2,394c0,1.7-1.4,3.1-3.1,3.1H929c-1.7,0-3.1-1.4-3.1-3.1v-13c0-1.7,1.4-3.1,3.1-3.1h13.1
						c1.7,0,3.1,1.4,3.1,3.1V394z"/>
					<path class="st32" d="M900.1,371.4c0,1.7-1.4,3.1-3.1,3.1h-13.1c-1.7,0-3.1-1.4-3.1-3.1v-13c0-1.7,1.4-3.1,3.1-3.1H897
						c1.7,0,3.1,1.4,3.1,3.1V371.4z"/>
					<path class="st32" d="M922.7,371.4c0,1.7-1.4,3.1-3.1,3.1h-13.1c-1.7,0-3.1-1.4-3.1-3.1v-13c0-1.7,1.4-3.1,3.1-3.1h13.1
						c1.7,0,3.1,1.4,3.1,3.1V371.4z"/>
					<path class="st32" d="M945.2,371.4c0,1.7-1.4,3.1-3.1,3.1H929c-1.7,0-3.1-1.4-3.1-3.1v-13c0-1.7,1.4-3.1,3.1-3.1h13.1
						c1.7,0,3.1,1.4,3.1,3.1V371.4z"/>
					<path class="st32" d="M900.1,348.9c0,1.7-1.4,3.1-3.1,3.1h-13.1c-1.7,0-3.1-1.4-3.1-3.1v-13c0-1.7,1.4-3.1,3.1-3.1H897
						c1.7,0,3.1,1.4,3.1,3.1V348.9z"/>
					<path class="st32" d="M991,314.8c0,1.7-1.4,3.1-3.1,3.1H883.9c-1.7,0-3.1-1.4-3.1-3.1v-50.9c0-1.7,1.4-3.1,3.1-3.1h103.9
						c1.7,0,3.1,1.4,3.1,3.1V314.8z"/>
				</g>
				<path class="st33" d="M987.2,310.1c0,1.6-1.3,2.9-2.9,2.9h-96.8c-1.6,0-2.9-1.3-2.9-2.9v-41.5c0-1.6,1.3-2.9,2.9-2.9h96.8
					c1.6,0,2.9,1.3,2.9,2.9L987.2,310.1L987.2,310.1z"/>
				<g>
					<path class="st32" d="M922.7,348.9c0,1.7-1.4,3.1-3.1,3.1h-13.1c-1.7,0-3.1-1.4-3.1-3.1v-13c0-1.7,1.4-3.1,3.1-3.1h13.1
						c1.7,0,3.1,1.4,3.1,3.1V348.9z"/>
					<path class="st32" d="M945.2,348.9c0,1.7-1.4,3.1-3.1,3.1H929c-1.7,0-3.1-1.4-3.1-3.1v-13c0-1.7,1.4-3.1,3.1-3.1h13.1
						c1.7,0,3.1,1.4,3.1,3.1V348.9z"/>
				</g>
				<path class="st34" d="M987.5,400.3H965h-1.9h-11.2c-1.7,0-3.1,1.4-3.1,3.1v13c0,1.7,1.4,3.1,3.1,3.1h11.2h1.9h22.5
					c1.7,0,3.1-1.4,3.1-3.1v-13C990.6,401.7,989.2,400.3,987.5,400.3z"/>
				<g>
					<path class="st35" d="M968.1,394c0,1.7-1.4,3.1-3.1,3.1h-13.1c-1.7,0-3.1-1.4-3.1-3.1v-13c0-1.7,1.4-3.1,3.1-3.1H965
						c1.7,0,3.1,1.4,3.1,3.1V394L968.1,394z"/>
					<path class="st35" d="M990.6,394c0,1.7-1.4,3.1-3.1,3.1h-13.1c-1.7,0-3.1-1.4-3.1-3.1v-13c0-1.7,1.4-3.1,3.1-3.1h13.1
						c1.7,0,3.1,1.4,3.1,3.1V394z"/>
				</g>
				<g>
					<path class="st36" d="M968.1,371.4c0,1.7-1.4,3.1-3.1,3.1h-13.1c-1.7,0-3.1-1.4-3.1-3.1v-13c0-1.7,1.4-3.1,3.1-3.1H965
						c1.7,0,3.1,1.4,3.1,3.1V371.4L968.1,371.4z"/>
					<path class="st36" d="M990.6,371.4c0,1.7-1.4,3.1-3.1,3.1h-13.1c-1.7,0-3.1-1.4-3.1-3.1v-13c0-1.7,1.4-3.1,3.1-3.1h13.1
						c1.7,0,3.1,1.4,3.1,3.1V371.4z"/>
				</g>
				<g>
					<path class="st37" d="M968.1,348.9c0,1.7-1.4,3.1-3.1,3.1h-13.1c-1.7,0-3.1-1.4-3.1-3.1v-13c0-1.7,1.4-3.1,3.1-3.1H965
						c1.7,0,3.1,1.4,3.1,3.1V348.9L968.1,348.9z"/>
					<path class="st37" d="M990.6,348.9c0,1.7-1.4,3.1-3.1,3.1h-13.1c-1.7,0-3.1-1.4-3.1-3.1v-13c0-1.7,1.4-3.1,3.1-3.1h13.1
						c1.7,0,3.1,1.4,3.1,3.1V348.9z"/>
				</g>
				<path class="st38" d="M884.8,310.1v-41.5c0-1.6,1.3-2.9,2.9-2.9H930l47.3,47.3h-89.6C886.1,313,884.8,311.7,884.8,310.1z"/>
				<text transform="matrix(1 0 0 1 898.8962 304.5095)" class="st31 st39 st40">????</text>
			</g>
		</g>
		<path class="st41" d="M935.7,487.4c-81.2,0-147.3-66.1-147.3-147.3s66.1-147.3,147.3-147.3S1083,258.9,1083,340.1
			S1016.9,487.4,935.7,487.4z M935.7,206.5c-73.7,0-133.6,60-133.6,133.6s60,133.6,133.6,133.6s133.6-60,133.6-133.6
			S1009.4,206.5,935.7,206.5z"/>
	</g>
	<path class="st5" d="M445.7,905.4c-2.7-17.7-26.9-18.6-26.9-18.6l-8.8,1.6c-8.3,2.1-15.1,5.4-17.7,7.5c-7.5,6.1-32,3.7-45.4,4.4
		c-0.4,0-0.7,0-1,0.1c-7.9-0.1-29.2,1.4-28.1,19.5c1.2,20.2,1.1,19.2,15.1,23c1.4,0.4,2.9,0.9,4.5,1.3c0,0,0,0,0,0c0,0,0,0,0,0
		c0.1,0,0.1,0,0.2,0c0.3,0.1,0.5,0.1,0.8,0.2c17.6,4.2,43.8,5.8,63.6,7.7c0,0,0,0,0,0C445.4,953.4,448.4,923.1,445.7,905.4z"/>
	<path class="st5" d="M128,933.6c-15.3-6.8-17.4-29.1-17.4-29.1c-3-34.2,17.7-33.5,18.2-33.5c-2.4-0.3-5-0.2-8,0.5
		c-28.8,7.2-17.3,55.4-13.6,59C109.9,933,116.4,933.1,128,933.6C128,933.6,128,933.6,128,933.6z"/>
	<path class="st17" d="M161.8,875.5c-9.3,6.9-15.7,2.5-23.1-1.2c5.8,6,17.9,14.6,32.3,4.3c9.8-7,17.4-9.9,22.6-11
		C187.2,866.9,173.3,866.9,161.8,875.5z"/>
	<path class="st17" d="M173.7,931.2c-2.1-0.1-2.9,0-5.3-1.4c-4.2-2.6-10.3-0.5-15,3C160.1,932.3,167.2,931.7,173.7,931.2z"/>
	<g>
		<path class="st17" d="M140.6,882.6c2.3,2.4,3.6,5.6,4.6,8.8c0.9,3.2,1.4,6.5,1.6,9.9l0.1,1.2l0,1.3l0,2.5c-0.1,1.7-0.1,3.3-0.3,5
			c-0.2,1.7-0.4,3.3-0.6,4.9c-0.3,1.6-0.6,3.3-0.9,4.9c0.1-1.7,0.3-3.3,0.4-4.9c0.1-1.6,0.2-3.3,0.3-4.9c0-1.6,0.1-3.3,0.1-4.9
			c-0.1-1.6,0-3.3-0.1-4.9c-0.1-3.3-0.6-6.5-1.3-9.7c-0.4-1.6-0.9-3.2-1.5-4.7C142.4,885.4,141.7,883.9,140.6,882.6z"/>
	</g>
	<path class="st16" d="M346.5,923.4c-0.2-0.5-0.8-0.8-1.4-0.8l0,0l-10.6,0.1c-0.3,0-0.5-0.2-0.5-0.4c0,0,0-0.1,0-0.1
		c0.7-2,2.9-3.5,5.4-3.5c0.1,0,0.2,0,0.2,0l0.1,0c0.1,0,0.1,0,0.2,0l0,0c0.2,0,0.3,0,0.5,0l0,0c0.1,0,0.1,0,0.2,0c0,0,0,0,0,0
		c0.2,0,0.3,0.1,0.5,0.1l0,0c0.1,0,0.1,0,0.2,0.1l0,0c0.2,0,0.3,0.1,0.4,0.2l0,0c0.1,0.1,0.3,0.1,0.4,0.2l0,0c0.1,0,0.1,0.1,0.2,0.1
		c0,0,0,0,0,0c0.1,0,0.1,0.1,0.2,0.1l0,0c0.1,0,0.1,0.1,0.2,0.1l0.1,0c0.2,0.2,0.5,0.3,0.7,0.5c0.1,0.1,0.2,0.2,0.3,0.3
		c0.2,0.2,0.6,0.3,0.9,0.1c0,0,0,0,0.1,0l0.5-0.4c0.2-0.2,0.2-0.5,0-0.7c-0.3-0.3-0.6-0.6-1-0.8l0,0l0,0c-0.1-0.1-0.2-0.1-0.2-0.2
		l0,0c-0.1-0.1-0.2-0.1-0.2-0.1l0,0c-0.2-0.1-0.3-0.2-0.5-0.3l0,0c-0.2-0.1-0.4-0.2-0.5-0.2c0,0,0,0-0.1,0c-0.1,0-0.2-0.1-0.3-0.1
		l0,0c-0.1,0-0.2-0.1-0.3-0.1l-0.1,0c-0.1,0-0.2,0-0.3-0.1l0,0c-0.1,0-0.2,0-0.3-0.1l-0.1,0c-0.1,0-0.2,0-0.2-0.1c0,0,0,0-0.1,0
		c-0.1,0-0.2,0-0.3,0c0,0,0,0,0,0c-0.1,0-0.2,0-0.3,0c0,0,0,0-0.1,0c-0.1,0-0.2,0-0.3,0c0,0,0,0,0,0c-0.1,0-0.2,0-0.3,0
		c0,0-0.1,0-0.1,0c-0.1,0-0.2,0-0.3,0l0,0c-3.6,0-6.7,2.3-7.4,5.3c0,0.2-0.3,0.4-0.5,0.4l-2.9,0c-0.3,0-0.5,0.2-0.5,0.5c0,0,0,0,0,0
		l0,0.7c0,0.2,0.2,0.4,0.5,0.4l0,0l2.9,0c0.2,0,0.5,0.1,0.5,0.4c0.3,1.3,1,2.4,2.1,3.4c0.5,0.4,1,0.7,1.5,1
		c3.6,1.8,8.3,0.7,10.3-2.4c0.3-0.4,0.5-0.9,0.7-1.3C346.9,924.7,346.8,924,346.5,923.4z M337,927.8c-1.4-0.6-2.5-1.6-3-2.9
		c-0.1-0.2,0.1-0.5,0.3-0.6c0,0,0.1,0,0.2,0l9.3-0.1c0.5,0,0.9,0.3,0.9,0.8c0,0.1,0,0.2-0.1,0.3c-1.2,2.5-4.5,3.7-7.4,2.7
		C337.2,927.9,337.1,927.9,337,927.8L337,927.8z"/>
	<path class="st3" d="M752.2,806.9c-0.8-1.8-2.7-3-4.7-3l0,0l-35.5,0.3c-1,0-1.8-0.8-1.8-1.7c0-0.2,0-0.3,0.1-0.5
		c2.3-8,9.7-13.6,18.1-13.7c0.3,0,0.5,0,0.8,0l0.3,0c0.2,0,0.4,0,0.6,0l0.2,0c0.5,0,1,0.1,1.5,0.2l0.2,0c0.2,0,0.4,0.1,0.7,0.1
		c0,0,0.1,0,0.1,0c0.5,0.1,1,0.3,1.5,0.4l0.1,0c0.2,0.1,0.5,0.2,0.7,0.2l0,0c0.5,0.2,1,0.4,1.5,0.6l0.1,0c0.5,0.2,0.9,0.5,1.4,0.7
		l0,0c0.2,0.1,0.4,0.2,0.6,0.4c0,0,0.1,0.1,0.1,0.1c0.2,0.1,0.4,0.2,0.6,0.4l0.1,0.1c0.2,0.1,0.4,0.3,0.6,0.4l0.2,0.1
		c0.8,0.6,1.6,1.3,2.3,2.1c0.3,0.3,0.6,0.7,0.9,1c0.7,0.9,2,1.1,3,0.4c0.1-0.1,0.1-0.1,0.2-0.2l1.5-1.6c0.8-0.8,0.8-2,0.1-2.8
		c-1-1.2-2.1-2.3-3.2-3.3l0,0l0,0c-0.3-0.2-0.5-0.4-0.8-0.6l0,0c-0.3-0.2-0.5-0.4-0.8-0.6l-0.1-0.1c-0.5-0.3-1.1-0.7-1.7-1l-0.2-0.1
		c-0.6-0.3-1.2-0.7-1.8-0.9c-0.1,0-0.1-0.1-0.2-0.1c-0.3-0.1-0.6-0.3-0.8-0.4l-0.1-0.1c-0.3-0.1-0.6-0.3-0.9-0.4l-0.2-0.1
		c-0.3-0.1-0.6-0.2-0.8-0.3l-0.1,0c-0.3-0.1-0.6-0.2-1-0.3l-0.2,0c-0.3-0.1-0.6-0.1-0.8-0.2c-0.1,0-0.1,0-0.2,0
		c-0.3-0.1-0.7-0.1-1-0.2c0,0-0.1,0-0.1,0c-0.3-0.1-0.6-0.1-0.9-0.2c-0.1,0-0.2,0-0.2,0c-0.3,0-0.7-0.1-1-0.1c0,0-0.1,0-0.1,0
		c-0.3,0-0.6,0-0.9-0.1c-0.1,0-0.2,0-0.3,0c-0.3,0-0.7,0-1,0l0,0c-12.2,0.1-22.7,8.9-24.8,20.9c-0.1,0.8-0.9,1.5-1.7,1.5l-9.6,0.1
		c-1,0-1.8,0.8-1.7,1.8c0,0,0,0,0,0l0,2.8c0,1,0.8,1.8,1.8,1.7l0,0l9.6-0.1c0.8,0,1.6,0.6,1.7,1.4c1,5,3.5,9.7,7.1,13.3
		c1.5,1.5,3.2,2.8,5.1,3.9c12.1,7,27.7,2.9,34.7-9.3c0.9-1.6,1.7-3.4,2.3-5.2C753.5,812.1,753.3,809.4,752.2,806.9z M720.4,824.4
		c-4.8-2.3-8.5-6.5-10-11.6c-0.3-0.9,0.2-1.9,1.2-2.2c0.2-0.1,0.3-0.1,0.5-0.1l31.2-0.2c1.7,0,3,1.3,3.1,3c0,0.4-0.1,0.8-0.2,1.2
		c-4,9.7-15,14.3-24.7,10.4C721,824.7,720.7,824.6,720.4,824.4L720.4,824.4z"/>
	<path class="st5" d="M780.4,756c0-0.3,0.1-0.6,0.1-0.9c0-0.4,0.1-0.7,0.1-1.1c0-0.3,0-0.7-0.2-0.8c-0.4-0.2-2-0.1-2.3-0.1l0,2.3
		c0,0.5-0.1,0.8-0.6,0.8l-0.9,0c-0.7,0-0.9-0.2-0.9-0.8l0-2.3l-7.6,0.1c-0.6,0-1-0.1-1.1-0.8l0-1.5c0-0.6,0.4-0.7,0.9-0.7l7.7-0.1
		l0-0.7c0-0.5,0.4-0.6,0.8-0.6l1,0c0.8,0,0.7,0.6,0.7,1.3l0.9,0c1,0,1.9,0,2.7,0.6c1.3,0.9,1.4,2.5,1.4,4c0,0.5,0,1.6-0.4,1.9
		c-0.1,0.1-0.3,0.1-0.5,0.1l-0.2,0C781.5,756.7,780.4,756.7,780.4,756z M779.7,760.8l0-0.9c0-0.8,0.1-1.2,1-1.2l0.8,0
		c0.7,0,1,0.3,1,1l0,1.1c0,0.5-0.4,0.9-0.9,0.9c0,0-0.1,0-0.1,0l-0.8,0C780.1,761.7,779.7,761.5,779.7,760.8L779.7,760.8z
		 M766.9,760.9l0-0.9c0-0.8,0.1-1.2,1-1.2l9.1-0.1c0.7,0,1,0.3,1,1l0,1.1c0,0.5-0.4,0.9-0.9,0.9c0,0-0.1,0-0.1,0l-9.1,0.1
		C767.3,761.8,766.9,761.6,766.9,760.9L766.9,760.9z"/>
	<path class="st5" d="M766.7,769.3c0-1.1,0-2.2,0.1-3.3c0.1-0.7,0.4-0.7,1.1-0.7l0.4,0c0.5,0,1.1,0,1.1,0.7c0,0.4-0.1,0.8-0.1,1.2
		c-0.1,0.8-0.1,1.6-0.1,2.4c0,0.8,0,1.2,0.9,1.2c0.3,0,0.5,0,0.8-0.1c0.2-0.2,0.8-2.2,0.9-2.6c0.2-0.5,0.3-0.9,0.5-1.3
		c0.6-1.2,1.3-1.7,2.6-1.7c3.6,0,3.6,2.4,3.6,5.2c0,0.6,0,1.1,0,1.7c-0.1,0.8-0.2,1.2-1.1,1.2c-0.7,0-1.4,0.1-1.5-0.8
		c0-0.4,0.1-0.8,0.1-1.2c0.1-0.6,0.1-1.2,0.1-1.9c0-0.9,0.1-1.4-0.9-1.4c-0.2,0-0.3,0-0.5,0.1c-0.3,0.2-0.9,2.5-1,2.9
		c-0.6,1.8-1.2,2.7-3.2,2.7C767.2,773.6,766.8,772.2,766.7,769.3z"/>
	<path class="st5" d="M779.9,778.8l0-0.9c0-0.8,0.1-1.2,1-1.2l0.8,0c0.7,0,1,0.3,1,1l0,1.1c0,0.5-0.4,0.9-0.9,0.9c0,0-0.1,0-0.1,0
		l-0.8,0C780.3,779.7,779.9,779.5,779.9,778.8z M767.1,778.9l0-0.9c0-0.8,0.1-1.2,1-1.2l9.1-0.1c0.7,0,1,0.3,1,1l0,1.1
		c0,0.5-0.4,0.9-0.9,0.9c0,0-0.1,0-0.1,0l-9.1,0.1C767.5,779.8,767.1,779.6,767.1,778.9z"/>
	<path class="st5" d="M767,790.1c-0.1-0.7-0.1-1.3-0.1-2c0-4.5,1.5-5.3,5.8-5.4c4.3,0,5.9,0.7,6,5.2c0,0.7,0,1.3-0.1,2
		c-0.1,0.7,0,1.3-0.8,1.3l0,0c-0.6,0-1.8,0-1.8-0.8c0-0.3,0-0.6,0.1-0.9c0.1-0.7,0.2-1.5,0.2-2.2c0-1-0.2-1.2-1.1-1.4
		c-0.8-0.1-1.6-0.2-2.3-0.2c-0.7,0-1.5,0-2.2,0.1c-1,0.1-1.2,0.5-1.2,1.5c0,0.7,0.1,1.5,0.2,2.2c0.1,0.3,0.1,0.6,0.1,0.9
		c0,0.2-0.1,0.4-0.2,0.6c-0.2,0.2-1.3,0.3-1.6,0.3C767.1,791.4,767.1,790.9,767,790.1z"/>
	<path class="st5" d="M767.3,802.5l0-1.3c0-0.5,0.3-0.7,0.8-0.7c-0.7-1-1.1-2.2-1.2-3.4c0-2.3,1.2-3.3,3.4-3.4
		c2.5,0,3.4,1.5,3.7,3.8c0.1,1,0.2,2,0.2,3c0.9,0,2.2,0.1,2.2-1.2c0-1.1-0.2-2.3-0.5-3.3c0-0.2-0.1-0.4-0.1-0.6
		c0-0.8,0.8-0.7,1.4-0.7c0.4-0.1,0.9,0.2,1,0.6c0.3,1.2,0.5,2.5,0.5,3.8c0,1.1-0.2,2.5-1,3.3c-1,0.9-2.5,0.9-3.8,0.9l-5.7,0.1
		C767.7,803.5,767.4,803.2,767.3,802.5z M772.2,800.5c0-0.4,0-0.8,0-1.1c0-0.5,0-1-0.1-1.5c-0.2-1-0.5-1.4-1.5-1.4
		c-0.6,0-1.6,0.1-1.6,0.9c0.1,1.1,0.5,2.2,1.2,3.1L772.2,800.5z"/>
	<path class="st5" d="M767.4,808.7l0-0.8c0-0.8,0.1-1.2,1-1.2l14-0.1c0.7,0,1,0.3,1,1l0,1c0,0.5-0.4,0.9-0.8,0.9c-0.1,0-0.1,0-0.2,0
		l-14,0.1C767.8,809.6,767.4,809.4,767.4,808.7z"/>
	<path class="st5" d="M767.3,819.8c-0.1-0.7-0.1-1.3-0.1-2c0-4.5,1.5-5.3,5.8-5.4c4.3,0,5.9,0.7,6,5.2c0,0.7,0,1.3-0.1,2
		c-0.1,0.7,0,1.3-0.8,1.3l0,0c-0.6,0-1.8,0-1.8-0.8c0-0.3,0-0.6,0.1-0.9c0.1-0.7,0.2-1.5,0.2-2.2c0-1-0.2-1.2-1.1-1.4
		c-0.8-0.1-1.6-0.2-2.3-0.2c-0.7,0-1.5,0-2.2,0.1c-1,0.1-1.2,0.5-1.2,1.5c0,0.7,0.1,1.5,0.2,2.2c0.1,0.3,0.1,0.6,0.1,0.9
		c0,0.2-0.1,0.4-0.2,0.6c-0.2,0.2-1.3,0.3-1.6,0.3C767.4,821.1,767.4,820.6,767.3,819.8z"/>
	<path class="st5" d="M767.3,829c0-3.9,2.2-5.4,5.8-5.4s5.9,1.4,6,5.3c0,3.9-2.2,5.3-5.9,5.4C769.6,834.3,767.3,832.9,767.3,829z
		 M775.9,830.8c0.8-0.4,0.7-1.1,0.7-1.9s0-1.5-0.8-1.9c-0.7-0.4-1.9-0.4-2.7-0.4c-0.8,0-2,0.1-2.7,0.5s-0.7,1.1-0.7,1.9
		s0,1.5,0.7,1.9s1.9,0.4,2.7,0.4C774,831.3,775.2,831.2,775.9,830.8z"/>
	<path class="st5" d="M767.8,845.5l0-1.3c0-0.5,0.3-0.7,0.8-0.7c-0.7-1-1.1-2.2-1.2-3.4c0-2.3,1.2-3.3,3.4-3.4
		c2.5,0,3.4,1.5,3.7,3.8c0.1,1,0.2,2,0.2,3c0.9,0,2.2,0.1,2.2-1.2c0-1.1-0.2-2.3-0.5-3.3c0-0.2-0.1-0.4-0.1-0.6
		c0-0.8,0.8-0.7,1.4-0.7c0.4-0.1,0.9,0.2,1,0.6c0.3,1.2,0.5,2.5,0.5,3.8c0,1.1-0.2,2.5-1,3.3c-1,0.9-2.5,0.9-3.8,0.9l-5.7,0.1
		C768.1,846.4,767.8,846.2,767.8,845.5z M772.7,843.5c0-0.4,0-0.8,0-1.1c0-0.5,0-1-0.1-1.5c-0.2-1-0.5-1.4-1.5-1.4
		c-0.6,0-1.6,0.1-1.6,0.9c0.1,1.1,0.5,2.2,1.2,3.1L772.7,843.5z"/>
	<path class="st5" d="M767.7,856.6c-0.1-0.7-0.1-1.3-0.1-2c0-4.5,1.5-5.3,5.8-5.4s5.9,0.7,6,5.2c0,0.7,0,1.3-0.1,2
		c-0.1,0.7,0,1.3-0.8,1.3l0,0c-0.6,0-1.8,0-1.8-0.8c0-0.3,0-0.6,0.1-0.9c0.1-0.7,0.2-1.5,0.2-2.2c0-1-0.2-1.2-1.1-1.4
		c-0.8-0.1-1.6-0.2-2.3-0.2c-0.7,0-1.5,0-2.2,0.1c-1,0.1-1.2,0.5-1.2,1.5c0,0.7,0.1,1.5,0.2,2.2c0.1,0.3,0.1,0.6,0.1,0.9
		c0,0.2-0.1,0.4-0.2,0.6c-0.2,0.2-1.3,0.3-1.6,0.3C767.7,857.8,767.8,857.3,767.7,856.6z"/>
	<path class="st5" d="M768,869.2l0-1.2c0-0.7,0.4-0.8,1-0.8l6-0.1c0.3,0,1.6,0,1.8-0.2s0.2-0.5,0.2-0.7c-0.1-1-0.5-2-1.1-2.8
		l-6.9,0.1c-0.7,0-1-0.2-1.1-0.9l0-1.2c0-0.6,0.3-0.8,0.9-0.8l14.1-0.1c0.7,0,1,0.3,1,1l0,1.1c0,0.5-0.4,0.9-0.8,0.9
		c-0.1,0-0.1,0-0.2,0l-4.3,0c0.5,1,0.8,2,0.8,3.1c0,2.2-1,3.6-3.3,3.6l-7.1,0.1C768.4,870.1,768,869.9,768,869.2z"/>
</g>
</svg>
