<?xml version="1.0" encoding="utf-8"?>
<!-- Generator: Adobe Illustrator 25.4.1, SVG Export Plug-In . SVG Version: 6.00 Build 0)  -->
<svg version="1.1" xmlns="http://www.w3.org/2000/svg" xmlns:xlink="http://www.w3.org/1999/xlink" x="0px" y="0px"
	 viewBox="0 0 1235.3 1302.7" style="enable-background:new 0 0 1235.3 1302.7;" xml:space="preserve">
<style type="text/css">
	.st0{display:none;}
	.st1{fill:#DDDDDD;}
	.st2{clip-path:url(#SVGID_00000056421793566130468500000006201568095486107060_);fill:#C1C1C1;}
	.st3{fill:#FCEADC;}
	.st4{fill:#00E9C5;}
	.st5{fill:#0F1726;}
	.st6{fill:#FFFFFF;}
	.st7{opacity:0.5;fill:#FCEADC;}
	.st8{fill:#0B1222;}
	.st9{opacity:0.5;}
	.st10{opacity:0.5;fill:#0B1222;}
	.st11{fill:#F8E7D3;}
	.st12{opacity:0.5;fill:#C6C6C6;}
	.st13{fill:url(#SVGID_00000157267030187918637010000018260598599863028368_);}
	.st14{opacity:0.5;fill:#F8E7D3;}
	.st15{fill:#D8D375;}
	.st16{opacity:0.5;fill:#D8D375;}
	.st17{fill:#EFC4B1;}
	.st18{fill:#7AC2EA;}
	.st19{fill:#C9C26D;}
	.st20{fill:#CECECE;}
	.st21{fill:#ACACAD;}
	.st22{fill:#161616;}
	.st23{fill:#4C4C4C;}
	.st24{fill:none;stroke:#4C4C4C;stroke-width:0.5445;stroke-miterlimit:10;}
	.st25{fill:#D89C05;}
	.st26{fill:#D8A923;}
	.st27{fill:#EAD74E;}
	.st28{fill:#E2B544;}
	.st29{fill:#10C4A1;}
	.st30{fill:#CEAD9B;}
	.st31{fill:#D8D080;}
	.st32{fill:#3F3F3F;}
	.st33{opacity:0.5;fill:#3F3F3F;}
	.st34{fill:#A09853;}
	.st35{opacity:0.5;fill:#141414;}
	.st36{fill:#E0C1AE;}
	.st37{opacity:0.5;fill:#E0C1AE;}
	.st38{fill:#7F3B64;}
	.st39{opacity:0.5;fill:#C45151;}
	.st40{fill:#563D14;}
	.st41{opacity:0.5;fill:#563D14;}
	.st42{fill:#EDE46B;}
	.st43{fill:#282828;}
	.st44{fill:#868283;}
	.st45{fill:#A3A3A3;}
	.st46{fill:#662E08;}
	.st47{fill:#AF846D;}
	.st48{fill:#7A7A7A;}
	.st49{opacity:0.5;fill:#99CED8;}
	.st50{fill:#18B799;}
	.st51{fill:#9B9B9B;}
</style>
<g id="Capa_1" class="st0">
</g>
<g id="Capa_5">
	<path class="st1" d="M919.6,942.3c-87.4,26.3,34,292.1-348.2,302.2c-281.7,7.4-485.6-223-402.9-504.1c18-61.2,18.9-128,10.3-193.7
		c-10-76.6-43.1-153.5-53.2-228C89.6,54.8,336.7,62.9,391.4,74.8c139.5,30.2,160.6,193.8,302.9,197.9
		C1314.2,290.9,1244.8,844.5,919.6,942.3z"/>
</g>
<g id="Capa_6">
	<g>
		<defs>
			<path id="SVGID_1_" d="M919.6,942.3c-87.4,26.3,34,292.1-348.2,302.2c-281.7,7.4-485.6-223-402.9-504.1
				c18-61.2,18.9-128,10.3-193.7c-10-76.6-43.1-153.5-53.2-228C89.6,54.8,336.7,62.9,391.4,74.8c139.5,30.2,160.6,193.8,302.9,197.9
				C1314.2,290.9,1244.8,844.5,919.6,942.3z"/>
		</defs>
		<clipPath id="SVGID_00000181045060362485385650000002001212714077125802_">
			<use xlink:href="#SVGID_1_"  style="overflow:visible;"/>
		</clipPath>
		
			<rect x="132.1" y="962.2" style="clip-path:url(#SVGID_00000181045060362485385650000002001212714077125802_);fill:#C1C1C1;" width="1191.5" height="298.8"/>
	</g>
</g>
<g id="Capa_4">
	<g>
		<path class="st3" d="M392.1,852.7c0,0-3.6,9.4-4.9,19.1c-1.3,9.7,6.5,23.4-6.5,75.9c0,0-9.1,53.2-3.2,82.4c0,0,1,13.8,1,17.2
			c0,0-1.3,0-4.5,1.9c-3.2,1.9-1-3.9-14.3-3.6c-13.3,0.3-18.2-13.3-18.2-13.3l-5.5-18.2c0,0,4.5,1.3,4.5-28.9s-1.9-38.3-4.5-45.4
			c-2.6-7.1-6.5-30.8-2.9-47.4c3.6-16.5,6.5-41.4,6.5-41.4l22.3-4.7L392.1,852.7z"/>
		<path class="st4" d="M327.7,1037.6c0,0-10.1,12,0,18.3c10.1,6.3,17.4,9.3,23.4,9.3s17.3,11.3,35.6,11.6s41.9-0.7,43.8-19.6
			l-14.2,7.7l-34.6,0.7l-22.6-8.3l-23-9L327.7,1037.6z"/>
		<path class="st5" d="M379.3,1020.7c0,0-2-11-9.3-7.7c-7.3,3.3-10.7,3.4-9.5,10.4c1.2,6.9-15.7,8.2-17.8,5.3
			c-2.1-2.9-6.7-7.3-5-16.3c0,0-4.3,0.3-4.7,5.3c-0.3,5-0.7,11.3-2,14.3c-1.3,3-7,8.3,0,16.3c7,8,13,10.3,25.9,12s8.6,14,41.6,12.6
			s35.3-21,29.9-21.3c-5.3-0.3-14.3-5.2-19.6-8.9C403.6,1039,390.9,1027.3,379.3,1020.7z"/>
		<path class="st6" d="M346.5,1035.5c-0.4,0.3-0.7,0.8-0.6,1.4l0,0l1.6,9.3c0,0.3-0.1,0.5-0.4,0.5c0,0-0.1,0-0.1,0
			c-2.2-0.3-4-2-4.4-4.2c0-0.1,0-0.1,0-0.2l0-0.1c0-0.1,0-0.1,0-0.2l0,0c0-0.1,0-0.3,0-0.4l0,0c0-0.1,0-0.1,0-0.2c0,0,0,0,0,0
			c0-0.1,0-0.3,0-0.4l0,0c0-0.1,0-0.1,0-0.2l0,0c0-0.1,0.1-0.3,0.1-0.4l0,0c0-0.1,0.1-0.3,0.1-0.4l0,0c0-0.1,0-0.1,0.1-0.2
			c0,0,0,0,0,0c0-0.1,0-0.1,0.1-0.2l0,0c0-0.1,0.1-0.1,0.1-0.2l0-0.1c0.1-0.2,0.3-0.5,0.4-0.7c0.1-0.1,0.1-0.2,0.2-0.3
			c0.2-0.2,0.2-0.6,0-0.8c0,0,0,0-0.1,0l-0.5-0.3c-0.2-0.2-0.6-0.1-0.7,0.1c-0.3,0.3-0.5,0.6-0.7,1l0,0l0,0c0,0.1-0.1,0.2-0.1,0.2
			l0,0c0,0.1-0.1,0.2-0.1,0.2l0,0c-0.1,0.2-0.1,0.3-0.2,0.5l0,0c-0.1,0.2-0.1,0.3-0.2,0.5c0,0,0,0,0,0.1c0,0.1,0,0.2-0.1,0.2l0,0
			c0,0.1,0,0.2-0.1,0.3l0,0.1c0,0.1,0,0.2,0,0.2l0,0c0,0.1,0,0.2,0,0.3l0,0.1c0,0.1,0,0.2,0,0.2c0,0,0,0,0,0.1c0,0.1,0,0.2,0,0.3
			c0,0,0,0,0,0c0,0.1,0,0.2,0,0.2c0,0,0,0,0,0.1c0,0.1,0,0.2,0,0.3c0,0,0,0,0,0c0,0.1,0,0.2,0,0.2c0,0,0,0,0,0.1c0,0.1,0,0.2,0,0.3
			l0,0c0.6,3.2,3.3,5.6,6.6,5.6c0.2,0,0.4,0.2,0.5,0.4l0.4,2.5c0,0.3,0.3,0.4,0.5,0.4c0,0,0,0,0,0l0.7-0.1c0.3,0,0.4-0.3,0.4-0.5
			l0,0l-0.4-2.5c0-0.2,0.1-0.4,0.3-0.5c1.3-0.5,2.4-1.3,3.2-2.5c0.3-0.5,0.6-1,0.8-1.5c1.3-3.5-0.5-7.4-4-8.7
			c-0.5-0.2-1-0.3-1.5-0.4C347.8,1034.9,347.1,1035.1,346.5,1035.5z M352.5,1043.1c-0.4,1.4-1.3,2.5-2.6,3.2c-0.2,0.1-0.5,0-0.6-0.2
			c0,0,0-0.1,0-0.1l-1.4-8.2c-0.1-0.4,0.2-0.9,0.7-0.9c0.1,0,0.2,0,0.3,0c2.7,0.6,4.4,3.3,3.8,6.1
			C352.6,1042.9,352.6,1043,352.5,1043.1L352.5,1043.1z"/>
		<path class="st4" d="M360.1,1025.9c0.4-0.7,0.6-1.6,0.5-2.5c-1.2-6.9,2.2-7,9.5-10.4c7.3-3.3,9.3,7.7,9.3,7.7
			c5.6,3.2,11.5,7.7,16.7,11.8c1.6,4.7,0.3,8.9-7.9,10.2C373.4,1045.1,364.5,1033.9,360.1,1025.9z"/>
		<path class="st3" d="M332.7,855.6c0,0-2.8,31.1-1.1,51.9c1.7,20.8,1.1,25.3-0.5,51.9c-1.6,26.6,2.3,68.7,13.3,87.8
			c0,0-19.1,5.3-24,8.8c0,0-8.8,0-12-4.2c-3.2-4.2-3.6-19.1-5.2-22.4s4.7-7.5-6.5-40.1c-11.2-32.6-20-75.4-18-93.9s3.9-44,3.9-44
			l9.7-14.9L332.7,855.6z"/>
		<path class="st7" d="M323.2,1054.6c-2-12.1-7.1-39-13.6-53c-8.6-18.5-19.6-111-5-141c2-4.2,3.7-9.5,5.1-15.7l-17.4-8.2l-9.7,14.9
			c0,0-2,25.5-3.9,44c-1.9,18.5,6.8,61.3,18,93.9c11.2,32.6,4.9,36.8,6.5,40.1c1,1.9,1.5,7.9,2.4,13.4l-2.4-1.7v8.5l16.3,10l0.5-3.6
			c0.3,0,0.5,0,0.5,0C321.1,1055.6,322.1,1055.1,323.2,1054.6z"/>
		<path class="st8" d="M406.5,555.9c0,0,10.9,47.6,13.8,95.3c2.9,47.7-12.7,115.8-18.5,130.4c-5.8,14.6,0,43.8-9.7,71
			c0,0-15.1,1.5-28.7,0c-13.6-1.5-20.4,1-23.8-1.5v-11.7c0,0-7.3,6.8-6.8,16.1c0,0-4.4,4.9-15.1,4.9c-10.7,0-22.4,0-22.4,0
			s1-7.8,0-16.5c0,0-8.8,6.3-10.2,9.7c0,0-6.3-3.9-2.9-8.8c3.4-4.9,9.2-33.6,8.8-43.8c-0.5-10.2-15.6-44.8-18.5-75.9
			c-2.9-31.1-23.2-95.4-14-136.3c9.2-40.9,20.2-50.1,20.2-50.1L406.5,555.9z"/>
		<path class="st7" d="M333.1,892.6c-3.6,16.5,0.3,40.2,2.9,47.4c2.6,7.1,4.5,15.2,4.5,45.4c0,30.2-4.5,28.9-4.5,28.9l5.5,18.2
			c0,0,0.9,2.5,2.9,5.3c0-0.2,2.5-20.6,6.5-30.8c4-10.2-1.5-67.2-4-94.4c-2.4-27.3,8.3-60.1,8.3-60.1l-3.2-3.8l-12.4,2.6
			C339.6,851.3,336.6,876.1,333.1,892.6z"/>
		<g class="st9">
			<path class="st8" d="M356.2,617.5c1.8,20.1,14.5,131.1-5.3,201.1c0,0-5.8,12.8-11.6,21.2c0.1-0.1,0.2-0.2,0.2-0.2v11.7
				c2.1,1.5,5.4,1.2,10.7,1v0c0,0,18.2-75.8,16.2-134.8c-1.9-59-0.7-102.7-1.3-112.7C364.6,594.5,354.4,597.4,356.2,617.5z"/>
			<path class="st8" d="M334.6,846.7c0.5-1.1,1-2,1.6-2.9C335.3,844.8,334.8,845.7,334.6,846.7z"/>
		</g>
		<path class="st4" d="M293.5,1049.1c0,0-10.1,12,0,18.3c10.1,6.3,17.4,9.3,23.4,9.3s17.3,11.3,35.6,11.6
			c18.3,0.3,41.9-0.7,43.8-19.6l-14.2,7.7l-34.6,0.7l-22.6-8.3l-23-9L293.5,1049.1z"/>
		<path class="st8" d="M345.1,1032.2c0,0-2-11-9.3-7.7c-7.3,3.3-10.7,3.4-9.5,10.4c1.2,6.9-15.7,8.2-17.8,5.3s-6.7-7.3-5-16.3
			c0,0-4.3,0.3-4.7,5.3s-0.7,11.3-2,14.3c-1.3,3-7,8.3,0,16.3c7,8,13,10.3,25.9,12c13,1.7,8.6,14,41.6,12.6s35.3-21,29.9-21.3
			c-5.3-0.3-14.3-5.2-19.6-8.9C369.4,1050.5,356.7,1038.8,345.1,1032.2z"/>
		<path class="st4" d="M325.8,1037.4c0.4-0.7,0.6-1.6,0.5-2.5c-1.2-6.9,2.2-7,9.5-10.4c7.3-3.3,9.3,7.7,9.3,7.7
			c5.6,3.2,11.5,7.7,16.7,11.8c1.6,4.7,0.3,8.9-7.9,10.2C339.2,1056.6,330.2,1045.4,325.8,1037.4z"/>
		<path class="st10" d="M258.3,589c-9.2,40.9,11.1,105.1,14,136.3c2.9,31.1,18,65.7,18.5,75.9c0.5,10.2-5.4,38.9-8.8,43.8
			c-3.4,4.9,2.9,8.8,2.9,8.8c1.5-3.4,10.2-9.7,10.2-9.7c1,8.8,0,16.5,0,16.5s3.9,0,9.3,0c14.6-30.1,12.7-114.9-3.9-194.7
			c-16.5-79.8,30.8-117,30.8-117l-18.8-10.5l-34.2,0.6C278.6,538.9,267.5,548.1,258.3,589z"/>
		<g>
			<path class="st11" d="M421.1,340.6c0,0,18.2-2.3,12.6,128.9c-0.5,12.2-30.8,24.5-30.8,24.5s5.1,7.2-4.8-15
				c-15-33.5,4.6-37.3,4.6-37.3l14.5-53.9L421.1,340.6z"/>
			<path class="st12" d="M427,389c0,0,2.2-23.7-1.5-37.2c-3.6-13.5-9.6-21.2-28.8-27.7c-19.3-6.5-24.8-13.1-24.8-13.1l-11.8,0.6
				c-1.4,0.8-2.3,1.3-2.3,1.3s12-1.9,20.1,16.6c8.1,18.5,20.8,5.3,13.2,37.2c-7.6,31.9,22.6,31.4,26,48c3.3,16.6-5.3,33.1-40.1,24.7
				c-34.8-8.4,6,44.4,11.1,93.9c4.2,41.3-7.7,50.1-11.7,51.8c18.3-0.5,36.4,4.2,36.4,4.2s-11.4-46.8-9-74c2.5-28.1,7.2-59.3,8.7-63
				c1.5-3.6,17.3-3.4,19.8-27.5c0,0-1.5-10.9-5.8-30.3L427,389z"/>
			
				<linearGradient id="SVGID_00000011015931916216722140000008691322528869705147_" gradientUnits="userSpaceOnUse" x1="341.7737" y1="599.3569" x2="341.1265" y2="372.846">
				<stop  offset="0" style="stop-color:#00E9C5"/>
				<stop  offset="4.241341e-02" style="stop-color:#01D7B7"/>
				<stop  offset="0.1778" style="stop-color:#04A390"/>
				<stop  offset="0.3156" style="stop-color:#06776E"/>
				<stop  offset="0.453" style="stop-color:#085253"/>
				<stop  offset="0.5903" style="stop-color:#09363D"/>
				<stop  offset="0.7272" style="stop-color:#0A222E"/>
				<stop  offset="0.8638" style="stop-color:#0B1625"/>
				<stop  offset="1" style="stop-color:#0B1222"/>
			</linearGradient>
			<path style="fill:url(#SVGID_00000011015931916216722140000008691322528869705147_);" d="M412.6,452.2
				c1.5-3.6,17.3-3.4,19.8-27.5c0,0-1.5-10.9-5.8-30.3l0.4-5.5c0,0,2.2-23.7-1.5-37.2c-3.6-13.5-9.6-21.2-28.8-27.7
				c-19.3-6.5-24.8-13.1-24.8-13.1l-55.1-5.6l0,0c0,0-28.8,22.4-39.3,28.8c-0.3,0.2-0.6,0.4-0.9,0.5c-34.2,18.5-33,58.4-10.8,77.7
				l14.3,25.3c0,0,4.7,6.2,6.7,18.1c3.7,23,2.8,65.6-15.4,93c0,0-12.3,27.1-13,40.3c0,0,6.3,17,52.5,12.2
				c34.1-3.6,36.8-6.6,50.9-13.3c17.5-8.3,51.2,1.3,51.2,1.3s-8.2-46.7-9-74C403.1,487,411.2,455.8,412.6,452.2z"/>
			<path class="st11" d="M398.4,229.9c0,0-1.5,7.8,0,12.5c1.5,4.8,0,35.5-9,42.7c-9,7.2-5.7,13.1-15.2,13.7c0,0-3,21.5-3.3,26.3
				c-0.3,4.8,11.8,39.2-11.8,38.4c-18.8-0.6-25.8-24.4-34.3-38.8c-7.8-13.1-7.5-11-9.8-17.6l2.2-16.9l2.4-26l-13.1-11.6v-18.5
				l10.5-7.8l9.3,10.5l5.4-10.5l3.9-27.5h32.5l27.5,1.6L398.4,229.9z"/>
			<path class="st14" d="M374.2,298.9c-41.5-12.8-38.8-39.1-40.6-50s4.6-21.9,4.6-21.9l-6.5-2.1l-0.2,1.5l-5.4,10.5l-9.3-10.5
				l-5.9,4.4l-4.5,5.3v16.6l13.1,11.6l-1.9,20.9c0.7,0.8,1.4,1.6,2.2,2.4c0.1,0.1,0.2,0.1,0.2,0.2l-2.8,0.6l-0.2,1.9l-2.2,16.9
				c3.6,7.9,6.5,12.2,11.3,20.4c4.8-6.5,11.6-25.5,11-30.8C354.7,301.6,374.2,298.9,374.2,298.9z"/>
			<path class="st15" d="M316.9,305.2L316.9,305.2L316.9,305.2c4.5-5.4,12.1-18.5,6.9-42.7c0,0-11.4-7.5-11.8-14.6
				c-0.4-7.2-4.6-14.9,3.5-15.2c0,0,9.6,18.8,14.6,17.6c5.1-1.2-5.4-17.9,8.2-23.3c0,0-7.3-23,5.5-23.3c12.8-0.3,28.1,6.6,41.2,0.6
				c13.1-6,13.4,25.7,13.4,25.7s3.9-25.1-7.5-35.8c-11.3-10.7-9.9-23-29-23.9c-19.1-0.9-30.8,10.5-30.8,10.5s-22.1,5.4-23.6,31.6
				c0,0,2.1,9.6-7.2,17.6c-9.3,8.1-11.3,19.7-4.2,28.1c0,0,0.3,1.8-2.1,4.2c-2.4,2.4-6,14-0.9,20.3c0,0,1.2,2.4-1.2,3.3
				c-2.4,0.9-11.1,9-1.4,20c0,0,2,3.3-1.9,5.1c-2.9,1.3-12.6,11.8-11.2,23.2l0,0C288.1,327.6,316.9,305.2,316.9,305.2z"/>
			<path class="st14" d="M433.7,469.5c5.6-131.2-12.6-128.9-12.6-128.9l-3.8,47.1l-6.8,25.1l6.5,31l-5,42.6l14.6-6
				C430.6,476.9,433.6,473.2,433.7,469.5z"/>
			<path class="st16" d="M316.9,305.2L316.9,305.2c4.5-5.4,12.1-18.5,6.9-42.7c0,0-11.4-7.5-11.8-14.6c-0.4-7.2-4.6-14.9,3.5-15.2
				c0,0,9.6,18.8,14.6,17.6c5.1-1.2-5.4-17.9,8.2-23.3c0,0-2-6.3-2.1-12.4c-2.1-12.4,5.1-15.7,5.1-15.7c-8-4.8-10.1-18.2-10.1-18.2
				s-22.1,5.4-23.6,31.6c0,0,2.1,9.6-7.2,17.6c-9.3,8.1-11.3,19.7-4.2,28.1c0,0,0.3,1.8-2.1,4.2c-2.4,2.4-6,14-0.9,20.3
				c0,0,1.2,2.4-1.2,3.3c-2.4,0.9-11.1,9-1.4,20c0,0,2,3.3-1.9,5.1c-2.9,1.3-12.6,11.8-11.2,23.2
				C288.1,327.6,316.9,305.2,316.9,305.2z"/>
			<path class="st17" d="M376,270.7c0,0-3-2.4-6.7-0.8c-3.7,1.6-13.6,0.8-13.6,0.8s5.4,11,19.3,11.5c13.9,0.4,12.5-13.8,12.5-13.8
				s-4.3,1.3-7.6,0.6C378.6,268.7,376,270.7,376,270.7z"/>
			<ellipse class="st18" cx="356.6" cy="244.9" rx="2.5" ry="4"/>
			<ellipse class="st18" cx="387.9" cy="243.3" rx="2.5" ry="4"/>
			<g>
				<path class="st19" d="M383.1,235.9c1-1.2,2.1-2,3.3-2.7c1.2-0.7,2.6-0.8,4-1.1c0.7-0.2,1.4-0.3,2.1-0.4c0.4,0,0.7-0.1,1.1-0.1
					c0.2,0,0.4,0,0.6,0c0.2,0,0.5,0,0.7,0.1c0.8,0.2,1.5,0.7,1.9,1.3c0.5,0.6,0.9,1.2,1.1,1.8l-0.2,0.1c-0.8-1-2-1.9-3.1-1.9
					c-0.4,0-1.1,0.3-1.7,0.5c-0.6,0.2-1.2,0.5-1.8,0.7c-1.2,0.5-2.4,1.3-3.7,1.6c-1.3,0.3-2.7,0.5-4.2,0.3L383.1,235.9z"/>
			</g>
			<g>
				<path class="st19" d="M368.7,237.4c-2.2,0.3-4.4,0.3-6.5,0.1c-2.1-0.1-4.2-0.8-6.2-1.2c-1-0.2-2.1-0.3-3-0.4
					c-0.9-0.1-1.8,0.1-2.8,0.5c-1.9,0.7-3.8,1.8-5.5,3l-0.2-0.2c1.5-1.6,3.2-3,5.1-4.1c1-0.5,2.1-1,3.3-1.1c1.2-0.1,2.2,0,3.3,0
					c2.2,0.1,4.3,0.1,6.4,0.6c2.1,0.5,4.1,1.2,6.1,2.4L368.7,237.4z"/>
			</g>
			<g>
				<path class="st17" d="M379,241.8c1.2,4.2,1.7,8.7,3.3,12.8c1.8,2.9,2.7,8.2-1.4,9.6c-1.2,0.4-2.4,0.3-3.5,0.1
					c1.1-0.2,2.2-0.4,3.1-0.9c3-1.8,1.5-5.6,0.1-8C378.9,250.9,378.7,246.5,379,241.8L379,241.8z"/>
			</g>
			<path class="st6" d="M358.1,272.2c0,0,11.5-0.1,16.3,0.9c4.8,1,10.3-3.3,11.9-3.1c0,0-1.6,8.8-9,9.6S360.5,275.8,358.1,272.2z"/>
			<g>
				<path class="st1" d="M372.7,311.5c2.8,25.1,3.4,50.4,1.9,75.6c-0.8,10.8-2.3,21.5-3.3,32.2c-1.5,17.9-1.9,36,0.7,53.8
					c0.5,3.6,1.2,7.1,2.2,10.5l-0.7,0.1c-4.1-23-8.8-46.1-16.7-68.2c-8.2-21-15.8-45.2-23.2-66.5c-5.1-14.8-10.4-29.5-16.8-43.8
					c0,0,0.1-0.1,0.1-0.1c10.3,21.1,18,43.4,25.7,65.6c4.5,13.1,10.7,31.5,15.6,44.3c7.8,22.2,12.2,45.5,15.9,68.7
					c0,0-0.7,0.1-0.7,0.1c-0.9-3.5-1.6-7.1-2.1-10.6c-3.2-25-2.1-50.5,0.9-75.5C375.1,369.1,374.4,339.8,372.7,311.5L372.7,311.5z"
					/>
			</g>
			<ellipse class="st20" cx="375.2" cy="496.9" rx="11" ry="12.4"/>
			<path class="st20" d="M376.6,485.2v-2.8c0-0.6-0.5-1-1.1-1l-2.9,0.3c-0.6,0.1-1,0.7-0.9,1.3l0.8,2.7L376.6,485.2z"/>
			<ellipse class="st21" cx="376.6" cy="496.9" rx="9.6" ry="12.4"/>
			<path class="st22" d="M506.7,474.9l-79-5.4c-1.7-0.1-3.3,0.5-4.6,1.7l-82.7,79.2c-2.6,2.5-1,6.8,2.6,7l70.9,3.6
				c2.8,0.1,5.6-0.9,7.7-2.8l86.4-79.3C509.4,477.4,508.6,475,506.7,474.9z"/>
			<g>
				<path class="st4" d="M317.1,305.2c2,8.3,4.4,16.5,8,24.2c2,4.3,5.9,10.6,8.3,14.9c7.2,12.5,13.2,25.6,18.8,38.9
					c6.6,16.1,13.6,32.1,14.8,49.9c0,0-3.8,0.1-3.8,0.1c-1.1-18-0.9-36,1.2-53.9c2.2-17.7,7-35,8.8-52.7c0.5-5,0.5-10.1-0.8-15
					l0.5-0.2c2,4.8,2.5,10.1,2.6,15.2c-0.1,15.4-3.1,30.6-5,45.8c-1.4,10-2.2,20.1-2.8,30.2c-0.6,10.1-0.7,20.3-0.7,30.4l-3.8,0.1
					c0.4-28.9-15-55.1-29.4-79.2c-2.1-3.7-6.3-11.3-8.4-15c-2.9-5-5.1-10.7-6.5-16.4c-1.4-5.7-2.2-11.5-2.3-17.3L317.1,305.2
					L317.1,305.2z"/>
			</g>
			<path class="st23" d="M367,432.9l-3.4,0.2c-0.5,0-0.9,0.5-0.9,1l0.2,7.9c0,0.5,0.5,1,1,0.9l4.4-0.3c0.6,0,1-0.6,0.9-1.1l-1.2-7.7
				C367.9,433.2,367.4,432.9,367,432.9z"/>
			<path class="st24" d="M363.9,442.8c0,0,5.7,5.5,6.6,12.9c0,0-3.3-6.9-2.9-13.1"/>
			<ellipse class="st20" cx="377.1" cy="497.2" rx="6" ry="8.7"/>
			<path class="st21" d="M370.2,485.2l-0.2-0.3c-0.4-0.6-1.2-0.7-1.8-0.3l0,0c-0.6,0.4-0.6,1.2-0.2,1.8l0.3,0.3
				c0.4,0.6,1.3,0.6,1.8,0.2l0,0C370.5,486.4,370.6,485.7,370.2,485.2z"/>
			<path class="st4" d="M398.6,396c-0.8,0.5-1.3,1.6-1.3,2.9l0,0v21.8c0,0.6-0.3,1.1-0.7,1.1c-0.1,0-0.1,0-0.2,0
				c-3.4-1.5-5.7-6-5.7-11.1c0-0.2,0-0.3,0-0.5v-0.2c0-0.1,0-0.2,0-0.4v-0.1c0-0.3,0-0.6,0.1-0.9l0-0.1c0-0.1,0-0.3,0.1-0.4
				c0,0,0,0,0-0.1c0.1-0.3,0.1-0.6,0.2-0.9l0-0.1c0-0.1,0.1-0.3,0.1-0.4l0,0c0.1-0.3,0.2-0.6,0.3-0.9l0,0c0.1-0.3,0.2-0.6,0.3-0.9v0
				c0.1-0.1,0.1-0.3,0.2-0.4c0,0,0,0,0-0.1c0.1-0.1,0.1-0.2,0.2-0.3l0,0c0.1-0.1,0.1-0.2,0.2-0.4l0.1-0.1c0.3-0.5,0.6-1,0.9-1.4
				c0.1-0.2,0.3-0.4,0.4-0.5c0.4-0.4,0.5-1.2,0.2-1.8c0,0-0.1-0.1-0.1-0.1l-0.7-1c-0.3-0.5-0.8-0.5-1.2-0.1c-0.5,0.6-1,1.2-1.4,2
				l0,0l0,0c-0.1,0.2-0.2,0.3-0.3,0.5l0,0c-0.1,0.2-0.2,0.3-0.3,0.5l0,0.1c-0.1,0.3-0.3,0.7-0.4,1l0,0.1c-0.1,0.4-0.3,0.7-0.4,1.1
				c0,0,0,0.1,0,0.1c-0.1,0.2-0.1,0.3-0.2,0.5l0,0c-0.1,0.2-0.1,0.4-0.2,0.6l0,0.1c0,0.2-0.1,0.3-0.1,0.5l0,0.1
				c0,0.2-0.1,0.4-0.1,0.6l0,0.1c0,0.2-0.1,0.3-0.1,0.5c0,0,0,0.1,0,0.1c0,0.2-0.1,0.4-0.1,0.6c0,0,0,0.1,0,0.1c0,0.2,0,0.4-0.1,0.5
				c0,0.1,0,0.1,0,0.2c0,0.2,0,0.4,0,0.6c0,0,0,0,0,0.1c0,0.2,0,0.4,0,0.6c0,0.1,0,0.1,0,0.2c0,0.2,0,0.4,0,0.6h0
				c0,7.5,3.7,13.9,8.7,15.3c0.4,0.1,0.6,0.5,0.6,1.1v5.9c0,0.6,0.3,1.1,0.7,1.1c0,0,0,0,0,0h1.2c0.4,0,0.7-0.5,0.7-1.1l0,0v-5.9
				c0-0.5,0.3-0.9,0.6-1c2.1-0.6,4.1-2.1,5.6-4.3c0.6-0.9,1.2-2,1.6-3.1c3-7.4,1.3-17-3.8-21.3c-0.7-0.6-1.4-1.1-2.2-1.4
				C400.8,395.2,399.6,395.3,398.6,396z M405.8,415.5c-1,3-2.8,5.2-4.9,6.1c-0.4,0.2-0.8-0.2-0.9-0.7c0-0.1,0-0.2,0-0.3v-19.1
				c0-1,0.6-1.9,1.3-1.9c0.2,0,0.3,0,0.5,0.1c4.1,2.5,6,9.3,4.3,15.2C406,415.1,405.9,415.3,405.8,415.5L405.8,415.5z"/>
			<path class="st11" d="M477.1,507.1c0,0,6,2.9,7.2,6.5s2.1,5.8-1.1,8.3s-0.4,7-1.9,8.9c-1.5,1.9-3.3,1.5-5.6,2.6
				c-2.3,1.1,0.1,4-2.8,5.1s-4.7,0.7-5.8,3c-1.1,2.2-5.1,3-9.5,1.9s-5.9-4-9.5-5.2c-3.5-1.2-9.1-4.8-11-6.2
				c-1.9-1.4-11.1-7.5-7.7-10.8c0,0-1.7-3,0.1-5.7c1.8-2.7,4.8-1.7,4.8-1.7s-0.3-2.7,1.9-4.4c2.2-1.8,5.5-2.4,8.1-1.2
				c0,0,0.5-4.7,8.6-4.2s23.6,3.7,23.6,3.7L477.1,507.1L477.1,507.1z"/>
			<g>
				<polygon class="st25" points="360.3,463.2 360.3,479 362.2,479 366.7,476.8 366.7,470.8 				"/>
				<path class="st25" d="M370.5,455.7H367v1.1c-1.9,1.3-3.2,3.7-3.2,6.5s1.3,5.1,3.2,6.5v1.1h3.5c3.7,0,6.7-3.4,6.7-7.6
					S374.2,455.7,370.5,455.7z"/>
				<ellipse class="st26" cx="367" cy="463.2" rx="6.7" ry="7.6"/>
				<ellipse class="st27" cx="367" cy="463.2" rx="4.7" ry="5.4"/>
				<path class="st28" d="M364.2,463.3c0.1,0.1,0.2,0.2,0.4,0.2l0,0h3.3c0.1,0,0.2,0.1,0.2,0.1c0,0,0,0,0,0
					c-0.2,0.6-0.9,1.1-1.7,1.1c0,0,0,0-0.1,0h0c0,0,0,0-0.1,0h0c0,0-0.1,0-0.1,0l0,0c0,0,0,0-0.1,0c0,0,0,0,0,0c0,0-0.1,0-0.1,0l0,0
					c0,0,0,0-0.1,0l0,0c0,0-0.1,0-0.1,0l0,0c0,0-0.1,0-0.1-0.1h0c0,0,0,0-0.1,0c0,0,0,0,0,0c0,0,0,0-0.1,0l0,0c0,0,0,0-0.1,0l0,0
					c-0.1-0.1-0.1-0.1-0.2-0.2c0,0-0.1-0.1-0.1-0.1c-0.1-0.1-0.2-0.1-0.3,0c0,0,0,0,0,0l-0.1,0.1c-0.1,0.1-0.1,0.2,0,0.2
					c0.1,0.1,0.2,0.2,0.3,0.3l0,0l0,0c0,0,0,0,0.1,0.1l0,0c0,0,0,0,0.1,0l0,0c0,0,0.1,0.1,0.2,0.1l0,0c0.1,0,0.1,0.1,0.2,0.1
					c0,0,0,0,0,0c0,0,0.1,0,0.1,0l0,0c0,0,0.1,0,0.1,0l0,0c0,0,0.1,0,0.1,0l0,0c0,0,0.1,0,0.1,0l0,0c0,0,0.1,0,0.1,0c0,0,0,0,0,0
					c0,0,0.1,0,0.1,0c0,0,0,0,0,0c0,0,0.1,0,0.1,0c0,0,0,0,0,0c0,0,0.1,0,0.1,0c0,0,0,0,0,0c0,0,0.1,0,0.1,0c0,0,0,0,0,0
					c0,0,0.1,0,0.1,0v0c1.1,0,2.1-0.7,2.3-1.6c0-0.1,0.1-0.1,0.2-0.1h0.9c0.1,0,0.2-0.1,0.2-0.1c0,0,0,0,0,0v-0.2
					c0-0.1-0.1-0.1-0.2-0.1l0,0h-0.9c-0.1,0-0.1,0-0.2-0.1c-0.1-0.4-0.3-0.8-0.7-1.1c-0.1-0.1-0.3-0.2-0.5-0.3
					c-1.1-0.6-2.6-0.2-3.2,0.7c-0.1,0.1-0.2,0.3-0.2,0.4C364.1,462.8,364.1,463.1,364.2,463.3z M367.2,461.9
					c0.4,0.2,0.8,0.5,0.9,0.9c0,0.1,0,0.2-0.1,0.2c0,0,0,0,0,0H365c-0.2,0-0.3-0.1-0.3-0.2c0,0,0-0.1,0-0.1
					C365.1,461.9,366.2,461.5,367.2,461.9C367.1,461.9,367.1,461.9,367.2,461.9L367.2,461.9z"/>
			</g>
			<path class="st11" d="M390.7,528.9c0.1-3.2-4.4-6-9.8-7.8c-5.4-1.8-7.9-2-7.9-2l2.6-2.5c0,0-8.9-3-11.8-4.5
				c-2.9-1.5-4.5-4.7-10.9-6.3c-6.4-1.6-9-4.4-15.3-5.4c-3.3-0.5-9.4-1.8-16.1-4c-4.3,4.7-9.4,13.1-10.6,27.3
				c0.4,0.2,0.8,0.4,1.1,0.7c8.3,6,15.9,15.8,22.4,20.5c6.5,4.7,5.7,5.7,15.8,6.2c10,0.5,10.2-1.9,12.4-3.3c0,0,5.4-0.2,10.2-2.9
				c4.8-2.7,4.7-2.4,5.9-5.7c0,0,5.1-0.5,6.9-1.8c1.8-1.3,2.3-1.2,2.6-4.2C388.2,533.1,390.6,532,390.7,528.9z"/>
			<g>
				<g>
					<path class="st6" d="M383.5,437.4c-0.1,0-0.2,0-0.2,0c-0.1,0-0.2,0-0.3,0c-0.1,0-0.2,0-0.2,0.1c-0.1,0.1-0.1,0.7-0.1,0.9
						c0.2,0,0.4,0,0.6,0c0.1,0,0.2,0,0.2,0.2c0,0.1,0,0.2,0,0.3c0,0.3-0.1,0.3-0.2,0.3c-0.2,0-0.4,0-0.6,0c0,1,0,1.9-0.1,2.9
						c0,0.2,0,0.4-0.2,0.4c-0.1,0-0.3,0-0.4,0c-0.2,0-0.2-0.1-0.2-0.3c0-1,0-2,0.1-2.9c-0.1,0-0.1,0-0.2,0c-0.1,0-0.2-0.1-0.1-0.3
						c0-0.1,0-0.3,0-0.4c0-0.3,0.2-0.3,0.4-0.3c0-0.1,0-0.2,0-0.4c0-0.4,0-0.7,0.2-1c0.3-0.5,0.7-0.6,1.1-0.6c0.1,0,0.4,0,0.5,0.1
						c0,0.1,0,0.1,0,0.2c0,0,0,0,0,0.1C383.7,437,383.7,437.4,383.5,437.4z M384.8,437.6c-0.1,0-0.2,0-0.2,0c-0.2,0-0.3,0-0.3-0.4
						c0-0.1,0-0.2,0-0.3c0-0.3,0.1-0.4,0.3-0.4c0.1,0,0.2,0,0.3,0c0.1,0,0.3,0.1,0.3,0.3c0,0,0,0,0,0.1c0,0.1,0,0.2,0,0.3
						C385,437.5,385,437.6,384.8,437.6z M384.7,442.5c-0.1,0-0.2,0-0.2,0c-0.2,0-0.3,0-0.3-0.4c0-1.2,0-2.3,0.1-3.5
						c0-0.3,0.1-0.4,0.3-0.4c0.1,0,0.2,0,0.3,0c0.1,0,0.3,0.1,0.3,0.3c0,0,0,0,0,0.1c0,1.2,0,2.3-0.1,3.5
						C385,442.4,384.9,442.5,384.7,442.5C384.7,442.5,384.7,442.5,384.7,442.5z"/>
					<path class="st6" d="M387,442.6c-0.3,0-0.6,0-0.9-0.1c-0.2,0-0.2-0.2-0.2-0.4c0-0.1,0-0.1,0-0.2c0-0.2,0-0.4,0.2-0.4
						c0.1,0,0.2,0,0.3,0.1c0.2,0,0.4,0,0.7,0.1c0.2,0,0.3,0,0.3-0.3c0-0.1,0-0.2,0-0.3c0-0.1-0.6-0.3-0.7-0.4
						c-0.1-0.1-0.2-0.1-0.4-0.2c-0.3-0.2-0.4-0.5-0.4-1c0-1.4,0.7-1.4,1.5-1.3c0.2,0,0.3,0,0.5,0c0.2,0,0.3,0.1,0.3,0.4
						c0,0.3,0,0.6-0.2,0.5c-0.1,0-0.2,0-0.3,0c-0.2,0-0.3,0-0.5,0c-0.2,0-0.4,0-0.4,0.3c0,0.1,0,0.1,0,0.2c0.1,0.1,0.7,0.4,0.8,0.4
						c0.5,0.2,0.7,0.5,0.7,1.3C388.2,442.5,387.8,442.7,387,442.6z"/>
					<path class="st6" d="M389.8,437.7c-0.1,0-0.2,0-0.2,0c-0.2,0-0.3-0.1-0.3-0.4c0-0.1,0-0.2,0-0.3c0-0.3,0.1-0.4,0.3-0.4
						c0.1,0,0.2,0,0.3,0c0.1,0,0.2,0.2,0.2,0.4c0,0,0,0,0,0c0,0.1,0,0.2,0,0.3C390,437.6,389.9,437.7,389.8,437.7z M389.7,442.6
						c-0.1,0-0.2,0-0.2,0c-0.2,0-0.3-0.1-0.3-0.4c0-1.2,0-2.3,0.1-3.5c0-0.3,0.1-0.4,0.3-0.4c0.1,0,0.2,0,0.3,0
						c0.1,0,0.2,0.2,0.2,0.4c0,0,0,0,0,0c0,1.2,0,2.3-0.1,3.5C389.9,442.5,389.9,442.6,389.7,442.6
						C389.7,442.6,389.7,442.6,389.7,442.6z"/>
					<path class="st6" d="M392.8,442.9c-0.2,0-0.4,0-0.5,0c-1.3-0.1-1.5-0.7-1.4-2.4c0-1.7,0.3-2.3,1.5-2.2c0.2,0,0.4,0,0.5,0.1
						c0.2,0,0.4,0,0.3,0.3c0,0,0,0,0,0c0,0.2,0,0.7-0.2,0.7c-0.1,0-0.2,0-0.3-0.1c-0.2-0.1-0.4-0.1-0.6-0.1c-0.3,0-0.3,0.1-0.4,0.4
						c0,0.3-0.1,0.6-0.1,0.9c0,0.3,0,0.6,0,0.9c0,0.4,0.1,0.5,0.4,0.5c0.2,0,0.4,0,0.6,0c0.1,0,0.2,0,0.3,0c0.1,0,0.1,0,0.2,0.1
						c0.1,0.1,0.1,0.5,0.1,0.6C393.1,442.9,393,442.9,392.8,442.9z"/>
					<path class="st6" d="M396.2,443.1c-0.1,0-0.2,0-0.4,0c-0.1,0-0.2-0.2-0.2-0.3c-0.3,0.2-0.6,0.4-1,0.4c-0.6-0.1-0.9-0.6-0.9-1.4
						c0-1,0.4-1.3,1.1-1.3c0.3,0,0.5,0,0.8,0c0-0.4,0.1-0.9-0.3-0.9c-0.3,0-0.6,0-0.9,0.1c-0.1,0-0.1,0-0.2,0
						c-0.2,0-0.2-0.3-0.2-0.6c0-0.2,0.1-0.3,0.2-0.4c0.3-0.1,0.7-0.1,1.1-0.1c0.3,0,0.7,0.1,0.9,0.5c0.2,0.4,0.2,1,0.2,1.5
						c0,0.7,0,1.5,0,2.2C396.4,443,396.4,443.1,396.2,443.1z M395.7,441.2c-0.1,0-0.2,0-0.3,0c-0.1,0-0.3,0-0.4,0
						c-0.3,0-0.4,0.1-0.4,0.5c0,0.2,0,0.6,0.2,0.6c0.3,0,0.6-0.1,0.9-0.4C395.7,441.6,395.7,441.4,395.7,441.2z"/>
					<path class="st6" d="M397.9,443.3c-0.1,0-0.2,0-0.2,0c-0.2,0-0.3-0.1-0.3-0.4c0-1.8,0.1-3.6,0.1-5.4c0-0.3,0.1-0.4,0.3-0.4
						c0.1,0,0.2,0,0.3,0c0.1,0,0.2,0.2,0.2,0.4c0,0,0,0,0,0.1c0,1.8-0.1,3.6-0.1,5.4C398.1,443.1,398.1,443.3,397.9,443.3z"/>
					<path class="st6" d="M400.9,443.6c-0.2,0-0.4,0-0.5,0c-1.3-0.1-1.5-0.7-1.4-2.4c0-1.7,0.3-2.3,1.5-2.2c0.2,0,0.4,0,0.5,0.1
						c0.2,0,0.4,0,0.3,0.3c0,0,0,0,0,0c0,0.2,0,0.7-0.2,0.7c-0.1,0-0.2,0-0.3-0.1c-0.2-0.1-0.4-0.1-0.6-0.1c-0.3,0-0.3,0-0.4,0.4
						c0,0.3-0.1,0.6-0.1,0.9c0,0.3,0,0.6,0,0.9c0,0.4,0.1,0.5,0.4,0.5c0.2,0,0.4,0,0.6,0c0.1,0,0.2,0,0.3,0c0.1,0,0.1,0,0.2,0.1
						c0.1,0.1,0.1,0.5,0.1,0.6C401.3,443.6,401.1,443.6,400.9,443.6z"/>
					<path class="st6" d="M403.5,443.9c-1.1-0.1-1.5-1-1.4-2.4c0-1.4,0.4-2.3,1.5-2.2c1.1,0.1,1.5,1,1.4,2.4
						C405,443.1,404.6,444,403.5,443.9z M404.1,440.5c-0.1-0.3-0.3-0.3-0.5-0.3c-0.2,0-0.4,0-0.5,0.3c-0.1,0.3-0.1,0.7-0.1,1.1
						c0,0.3,0,0.8,0.1,1.1c0.1,0.3,0.3,0.3,0.5,0.3c0.2,0,0.4,0,0.5-0.2c0.1-0.3,0.1-0.7,0.1-1.1
						C404.2,441.3,404.2,440.8,404.1,440.5C404.1,440.5,404.1,440.5,404.1,440.5z"/>
					<path class="st6" d="M408,444c-0.1,0-0.2,0-0.4,0c-0.1,0-0.2-0.1-0.2-0.3c-0.3,0.3-0.6,0.4-1,0.4c-0.6,0-0.9-0.5-0.9-1.4
						c0-1,0.4-1.3,1.1-1.4c0.3,0,0.5-0.1,0.8,0c0-0.4,0.1-0.9-0.3-0.9c-0.3,0-0.6,0.1-0.9,0.2c-0.1,0-0.1,0-0.2,0
						c-0.2,0-0.2-0.3-0.2-0.6c0-0.2,0.1-0.3,0.2-0.4c0.3-0.1,0.7-0.1,1.1-0.1c0.3,0,0.7,0.1,0.9,0.5c0.2,0.4,0.2,1,0.2,1.5
						c0,0.7,0,1.5,0,2.2C408.3,443.9,408.2,444,408,444z M407.5,442.1c-0.1,0-0.2,0-0.3,0c-0.1,0-0.3,0-0.4,0
						c-0.3,0-0.4,0.2-0.4,0.6c0,0.2,0,0.6,0.2,0.6c0.3,0,0.6-0.1,0.9-0.4C407.5,442.6,407.5,442.3,407.5,442.1z"/>
					<path class="st6" d="M411.1,444.2c-0.2,0-0.4,0-0.5,0c-1.3,0-1.5-0.6-1.4-2.4c0-1.7,0.2-2.3,1.5-2.3c0.2,0,0.4,0,0.5,0
						c0.2,0,0.4,0,0.3,0.3c0,0,0,0,0,0c0,0.2,0,0.7-0.2,0.7c-0.1,0-0.2,0-0.3,0c-0.2,0-0.4-0.1-0.6-0.1c-0.3,0-0.3,0.1-0.4,0.4
						c0,0.3-0.1,0.6-0.1,0.9c0,0.3,0,0.6,0,0.9c0,0.4,0.1,0.5,0.4,0.5c0.2,0,0.4,0,0.6-0.1c0.1,0,0.2,0,0.3,0c0.1,0,0.1,0,0.2,0.1
						c0.1,0.1,0.1,0.5,0.1,0.6C411.4,444.2,411.3,444.1,411.1,444.2z"/>
					<path class="st6" d="M414.5,444c-0.1,0-0.2,0-0.3,0c-0.2,0-0.2-0.2-0.2-0.4c0-0.8,0-1.6,0-2.4c0-0.1,0-0.6,0-0.7
						c-0.1-0.1-0.1-0.1-0.2-0.1c-0.3,0-0.6,0.2-0.8,0.5c0,0.9,0,1.8,0,2.8c0,0.3-0.1,0.4-0.3,0.4c-0.1,0-0.2,0-0.3,0
						c-0.2,0-0.2-0.1-0.2-0.4c0-1.9,0.1-3.8,0.1-5.6c0-0.3,0.1-0.4,0.3-0.4c0.1,0,0.2,0,0.3,0c0.1,0,0.2,0.1,0.2,0.3c0,0,0,0,0,0.1
						c0,0.6,0,1.2,0,1.7c0.3-0.2,0.6-0.3,0.9-0.4c0.6,0,1,0.4,1,1.3c0,1,0,1.9,0,2.9C414.8,443.8,414.7,444,414.5,444z"/>
				</g>
			</g>
			<path class="st11" d="M321.5,496.4c-6.1-1.9-12.7-4.5-18.4-7.7c-12-6.8-30.5-18.4-43.4-34.9c0,0-0.7-2.7,3.2-8.5
				c3.9-5.8,16.1-20.4,19.3-20.4c0,0,13.7-39.3,2.6-64c-8.4-18.7-25.3-23.2-35.7,3.9c0,0-11.5,35.8-15.1,45.1
				c-3.6,9.3-18.5,50.5-17.8,61.1s0.9,14.4,7.2,18.2c6.3,3.7,23.2,13.7,38.8,21.2c14.9,7.3,39.5,7.9,48.7,13.2
				C312.2,509.5,317.3,501.1,321.5,496.4z"/>
			<path class="st21" d="M449.1,471.2l3.7-3.4c0.3-0.2,0.6-0.4,1-0.3l11.2,0.9l1.1-1c0.2-0.2,0.4-0.3,0.7-0.2l17.6,1.4
				c0.7,0.1,1.1,0.9,0.6,1.5l8.1,0.6c1.1,0.1,1.6,1.5,0.8,2.2l-3.2,2.9c-0.3,0.2-0.6,0.4-1,0.3l-39.8-2.6
				C448.8,473.4,448.3,472,449.1,471.2z"/>
			<g>
				<g id="Capa_2_00000110467961473345329910000009025706811671197824_">
					<g id="Capa_1-2_00000086670333728490300280000000818044924006710203_">
						<path class="st6" d="M435.6,478c-0.6,0.1-1.1,0.5-1.4,1l0,0c-2,3.2-3.4,5.3-5.8,9c-0.2,0.3-0.5,0.5-0.7,0.4c0,0-0.1,0-0.1,0
							c-1.6-0.8-1.6-2.9-0.2-5.1c0-0.1,0.1-0.1,0.1-0.2c0,0,0,0,0-0.1c0-0.1,0.1-0.1,0.1-0.2c0,0,0,0,0,0c0.1-0.1,0.2-0.3,0.3-0.4
							c0,0,0,0,0,0c0-0.1,0.1-0.1,0.1-0.2c0,0,0,0,0,0c0.1-0.1,0.2-0.3,0.4-0.4c0,0,0,0,0,0c0.1-0.1,0.1-0.1,0.2-0.2l0,0
							c0.1-0.1,0.3-0.2,0.4-0.4c0,0,0,0,0,0c0.1-0.1,0.3-0.2,0.4-0.3c0,0,0,0,0,0c0.1,0,0.1-0.1,0.2-0.1c0,0,0,0,0,0
							c0.1,0,0.1-0.1,0.2-0.1c0,0,0,0,0,0c0.1,0,0.1-0.1,0.2-0.1c0,0,0,0,0.1,0c0.3-0.2,0.6-0.4,0.9-0.5c0.1-0.1,0.2-0.1,0.4-0.2
							c0.3-0.2,0.6-0.5,0.5-0.7c0,0,0,0,0-0.1c-0.1-0.2-0.1-0.2-0.2-0.4c-0.1-0.2-0.4-0.2-0.7-0.1c-0.4,0.2-0.9,0.4-1.3,0.7l0,0
							c0,0,0,0,0,0c-0.1,0.1-0.2,0.1-0.3,0.2l0,0c-0.1,0.1-0.2,0.1-0.3,0.2c0,0,0,0,0,0c-0.2,0.1-0.3,0.2-0.5,0.4c0,0,0,0,0,0
							c-0.2,0.1-0.3,0.3-0.5,0.4c0,0,0,0,0,0c-0.1,0.1-0.2,0.1-0.2,0.2c0,0,0,0,0,0c-0.1,0.1-0.2,0.1-0.2,0.2c0,0,0,0-0.1,0
							c-0.1,0.1-0.1,0.1-0.2,0.2c0,0,0,0,0,0c-0.1,0.1-0.2,0.2-0.2,0.2c0,0,0,0,0,0c-0.1,0.1-0.1,0.1-0.2,0.2c0,0,0,0,0,0.1
							c-0.1,0.1-0.1,0.2-0.2,0.3c0,0,0,0,0,0c-0.1,0.1-0.1,0.2-0.2,0.2c0,0,0,0,0,0.1c-0.1,0.1-0.1,0.2-0.2,0.3c0,0,0,0,0,0
							c-0.1,0.1-0.1,0.2-0.2,0.2c0,0,0,0,0,0.1c-0.1,0.1-0.1,0.2-0.2,0.3c0,0,0,0,0,0c-2.1,3.2-1.7,6.2,0.9,7
							c0.2,0.1,0.2,0.3,0.1,0.5c-0.6,1-0.9,1.5-1.5,2.4c-0.1,0.2-0.1,0.4,0.2,0.5c0,0,0,0,0,0c0.3,0,0.4,0,0.7,0
							c0.2,0,0.5-0.2,0.7-0.4l0,0c0.6-0.9,0.8-1.4,1.5-2.4c0.1-0.2,0.4-0.4,0.6-0.4c1.4-0.2,2.9-0.7,4.4-1.6
							c0.6-0.4,1.2-0.8,1.8-1.3c3.8-3.1,5.4-7.1,3.4-8.9c-0.3-0.2-0.6-0.4-0.9-0.6C437,477.9,436.3,477.8,435.6,478z M434.8,486.3
							c-1.4,1.2-3,2.1-4.5,2.4c-0.3,0.1-0.4-0.1-0.3-0.4c0,0,0-0.1,0.1-0.1c2.1-3.3,3.3-5.1,5.2-8.1c0.3-0.4,0.8-0.7,1.2-0.7
							c0.1,0,0.2,0,0.2,0.1c1.8,1.1,1.1,4-1.5,6.5C435,486.1,434.9,486.2,434.8,486.3C434.8,486.3,434.8,486.3,434.8,486.3z"/>
						<g>
							<path class="st6" d="M444.8,485.5c-0.1,0-0.2,0-0.3-0.1c-0.1,0-0.3,0-0.4-0.1c-0.1,0-0.2,0-0.4,0.1c-0.2,0.1-0.6,0.8-0.7,0.9
								c0.3,0,0.5,0,0.9,0.1c0.2,0,0.3,0.1,0.1,0.3c-0.1,0.1-0.1,0.2-0.2,0.4c-0.2,0.3-0.3,0.3-0.5,0.3c-0.3,0-0.5,0-0.8-0.1
								c-0.8,1.2-1.2,1.8-1.9,3c-0.2,0.2-0.3,0.4-0.6,0.4c-0.2,0-0.3,0-0.5,0c-0.2,0-0.2-0.2,0-0.4c0.8-1.2,1.2-1.8,2-3.1
								c-0.1,0-0.2,0-0.3,0c-0.2,0-0.1-0.2,0-0.3c0.1-0.2,0.2-0.2,0.3-0.4c0.2-0.3,0.4-0.2,0.6-0.2c0.1-0.1,0.1-0.2,0.2-0.4
								c0.2-0.4,0.5-0.8,0.9-1.1c0.7-0.5,1.3-0.5,1.8-0.4c0.2,0,0.6,0,0.6,0.2c0,0.1,0,0.1-0.1,0.2c0,0,0,0,0,0.1
								C445.3,485.1,445,485.5,444.8,485.5z M446.3,485.9c-0.1,0-0.2,0-0.3,0c-0.3,0-0.4-0.1-0.2-0.4c0.1-0.1,0.1-0.2,0.2-0.3
								c0.2-0.3,0.4-0.4,0.6-0.4c0.2,0,0.2,0,0.4,0c0.2,0,0.2,0.2,0.1,0.4c0,0,0,0,0,0c-0.1,0.1-0.1,0.2-0.2,0.3
								C446.8,485.7,446.6,485.9,446.3,485.9L446.3,485.9z M443.1,490.9c-0.1,0-0.2,0-0.3,0c-0.3,0-0.4-0.1-0.2-0.4
								c0.9-1.4,1.4-2.2,2.3-3.6c0.2-0.3,0.4-0.4,0.6-0.4c0.2,0,0.2,0,0.4,0c0.2,0,0.2,0.2,0.1,0.4c0,0,0,0,0,0
								c-0.9,1.4-1.4,2.2-2.3,3.6C443.5,490.8,443.4,491,443.1,490.9L443.1,490.9z"/>
							<path class="st6" d="M446.1,491.3c-0.4,0-0.8-0.1-1.2-0.2c-0.2-0.1-0.1-0.2,0-0.4c0-0.1,0.1-0.1,0.1-0.2
								c0.1-0.2,0.3-0.4,0.5-0.4c0.1,0,0.3,0,0.4,0.1c0.3,0,0.6,0.1,0.9,0.1c0.3,0,0.4,0,0.6-0.3c0.1-0.1,0.1-0.2,0.1-0.3
								c0-0.1-0.6-0.4-0.7-0.4c-0.1-0.1-0.2-0.2-0.4-0.2c-0.3-0.3-0.3-0.6,0.1-1.1c0.9-1.4,1.8-1.3,2.8-1.3c0.2,0,0.4,0,0.6,0.1
								c0.3,0.1,0.4,0.1,0.1,0.5c-0.2,0.3-0.4,0.6-0.7,0.5c-0.1,0-0.3-0.1-0.4-0.1c-0.2,0-0.4-0.1-0.7-0.1c-0.3,0-0.5-0.1-0.7,0.3
								c0,0.1-0.1,0.1-0.1,0.2c0,0.1,0.7,0.4,0.8,0.5c0.5,0.3,0.7,0.6,0.2,1.4C447.8,491.2,447.2,491.4,446.1,491.3z"/>
							<path class="st6" d="M453,486.4c-0.1,0-0.2,0-0.3,0c-0.3,0-0.4-0.1-0.2-0.4c0.1-0.1,0.1-0.2,0.2-0.3c0.2-0.3,0.4-0.4,0.6-0.4
								c0.2,0,0.2,0,0.4,0c0.2,0,0.2,0.2,0.1,0.4c0,0,0,0,0,0c-0.1,0.1-0.1,0.2-0.2,0.3C453.4,486.3,453.2,486.4,453,486.4z
								 M449.7,491.4c-0.1,0-0.2,0-0.3,0c-0.3,0-0.4-0.1-0.2-0.4c0.9-1.4,1.4-2.1,2.3-3.6c0.2-0.3,0.4-0.4,0.6-0.4
								c0.2,0,0.2,0,0.4,0c0.2,0,0.2,0.2,0.1,0.4c0,0,0,0,0,0c-0.9,1.4-1.4,2.2-2.3,3.6C450.2,491.3,450,491.4,449.7,491.4z"/>
							<path class="st6" d="M453.8,491.8c-0.3,0-0.5,0-0.8,0c-1.7-0.1-1.6-0.7-0.5-2.4c1.1-1.7,1.8-2.3,3.5-2.2
								c0.2,0,0.5,0.1,0.7,0.1c0.2,0,0.5,0,0.3,0.3c0,0,0,0,0,0c-0.1,0.2-0.5,0.7-0.8,0.7c-0.1,0-0.2,0-0.3-0.1
								c-0.2-0.1-0.5-0.1-0.8-0.1c-0.4,0-0.5,0-0.8,0.4c-0.2,0.3-0.5,0.6-0.7,0.9c-0.2,0.3-0.4,0.6-0.5,0.9
								c-0.2,0.4-0.1,0.5,0.2,0.5c0.3,0,0.6,0,0.9,0c0.1,0,0.2,0,0.4,0c0.1,0,0.1,0,0.1,0.1c0,0.1-0.2,0.5-0.3,0.6
								C454.3,491.8,454.1,491.8,453.8,491.8z"/>
							<path class="st6" d="M458.4,492.1c-0.2,0-0.3,0-0.5,0c-0.2,0-0.2-0.2,0-0.3c-0.5,0.2-1.1,0.4-1.5,0.3
								c-0.8-0.1-0.9-0.6-0.4-1.4c0.6-1,1.4-1.3,2.3-1.3c0.4,0,0.8,0,1.1,0c0.2-0.4,0.6-0.9,0.1-0.9c-0.4,0-0.9,0-1.4,0.1
								c-0.1,0-0.2,0-0.2,0c-0.3,0,0-0.3,0.1-0.6c0.1-0.2,0.3-0.3,0.5-0.4c0.5-0.1,1-0.1,1.5-0.1c0.4,0,0.9,0.1,1,0.5
								c0.1,0.4-0.3,1-0.6,1.5c-0.6,0.9-0.9,1.3-1.4,2.2C458.8,492,458.7,492.1,458.4,492.1z M458.9,490.1c-0.1,0-0.3,0-0.4,0
								c-0.2,0-0.4,0-0.6,0c-0.4,0-0.6,0.1-0.9,0.5c-0.1,0.2-0.4,0.6-0.1,0.6c0.4,0,0.9-0.1,1.4-0.4
								C458.6,490.5,458.7,490.4,458.9,490.1z"/>
							<path class="st6" d="M460.7,492.2c-0.1,0-0.2,0-0.3,0c-0.3,0-0.4-0.1-0.2-0.4c1.4-2.1,2.1-3.3,3.5-5.5
								c0.2-0.3,0.4-0.4,0.6-0.4c0.2,0,0.2,0,0.4,0c0.2,0,0.2,0.2,0.1,0.4c0,0,0,0,0,0.1c-1.4,2.2-2.1,3.3-3.5,5.5
								C461.1,492.1,461,492.2,460.7,492.2z"/>
							<path class="st6" d="M464.7,492.6c-0.3,0-0.5,0-0.8,0c-1.7-0.1-1.6-0.7-0.5-2.4c1.1-1.7,1.8-2.3,3.5-2.2
								c0.2,0,0.5,0.1,0.7,0.1c0.2,0,0.5,0,0.3,0.3c0,0,0,0,0,0c-0.1,0.2-0.5,0.7-0.8,0.7c-0.1,0-0.2,0-0.3-0.1
								c-0.2-0.1-0.5-0.1-0.8-0.1c-0.4,0-0.5,0-0.8,0.4c-0.2,0.3-0.5,0.6-0.7,0.9c-0.2,0.3-0.4,0.6-0.5,0.9
								c-0.2,0.4-0.1,0.5,0.2,0.5c0.3,0,0.6,0,0.9,0c0.1,0,0.2,0,0.4,0c0.1,0,0.1,0,0.1,0.1c0,0.1-0.2,0.5-0.3,0.6
								C465.2,492.6,465,492.6,464.7,492.6z"/>
							<path class="st6" d="M468.1,492.9c-1.4-0.1-1.4-1-0.5-2.4c0.9-1.4,2-2.3,3.5-2.2s1.4,1,0.5,2.5
								C470.6,492.2,469.5,493,468.1,492.9z M471,489.6c0-0.3-0.2-0.3-0.5-0.3c-0.3,0-0.5,0-0.9,0.2s-0.6,0.7-0.9,1
								s-0.5,0.8-0.5,1.1c0,0.3,0.2,0.3,0.5,0.3c0.3,0,0.5,0,0.9-0.2c0.3-0.3,0.6-0.7,0.8-1C470.6,490.4,470.9,489.9,471,489.6z"/>
							<path class="st6" d="M474.3,493.2c-0.2,0-0.3,0-0.5,0c-0.2,0-0.2-0.1,0-0.3c-0.5,0.2-1.1,0.4-1.6,0.3
								c-0.8-0.1-0.9-0.5-0.4-1.4c0.6-1,1.4-1.3,2.3-1.3c0.4,0,0.8,0,1.1,0c0.2-0.4,0.6-0.9,0.1-0.9c-0.4,0-0.9,0-1.4,0.1
								c-0.1,0-0.2,0-0.2,0c-0.3,0,0-0.3,0.1-0.6c0.1-0.2,0.3-0.3,0.5-0.4c0.5-0.1,1-0.1,1.5-0.1c0.4,0,0.9,0.1,1,0.5
								c0.1,0.4-0.3,1-0.6,1.5c-0.6,0.9-0.9,1.3-1.4,2.2C474.7,493.1,474.5,493.2,474.3,493.2z M474.8,491.3c-0.1,0-0.3,0-0.4,0
								c-0.2,0-0.4,0-0.6,0c-0.4,0-0.6,0.1-0.9,0.5c-0.1,0.2-0.4,0.6-0.1,0.6c0.4,0,0.9-0.1,1.4-0.4
								C474.5,491.7,474.6,491.6,474.8,491.3z"/>
							<path class="st6" d="M478.3,493.6c-0.3,0-0.5,0-0.8,0c-1.7-0.1-1.6-0.7-0.5-2.4s1.8-2.3,3.5-2.2c0.2,0,0.5,0.1,0.7,0.1
								c0.2,0,0.5,0,0.3,0.3c0,0,0,0,0,0c-0.1,0.2-0.5,0.7-0.8,0.7c-0.1,0-0.2,0-0.3-0.1c-0.2-0.1-0.5-0.1-0.8-0.1
								c-0.4,0-0.5,0-0.8,0.4c-0.2,0.3-0.5,0.6-0.7,0.9c-0.2,0.3-0.4,0.6-0.5,0.9c-0.2,0.4-0.1,0.5,0.2,0.5c0.3,0,0.6,0,0.9,0
								c0.1,0,0.2,0,0.4,0c0.1,0,0.1,0,0.1,0.1c0,0.1-0.2,0.5-0.3,0.6C478.8,493.6,478.6,493.6,478.3,493.6z"/>
							<path class="st6" d="M483,493.8c-0.2,0-0.3,0-0.5,0c-0.2,0-0.2-0.2,0-0.4c0.6-0.9,0.9-1.3,1.5-2.3c0.1-0.1,0.4-0.6,0.4-0.7
								s-0.1-0.1-0.2-0.1c-0.4,0-0.9,0.1-1.3,0.3c-0.7,1.1-1.1,1.6-1.7,2.6c-0.2,0.2-0.3,0.4-0.6,0.4c-0.2,0-0.3,0-0.5,0
								c-0.2,0-0.2-0.2-0.1-0.4c1.4-2.1,2.2-3.2,3.6-5.5c0.2-0.3,0.4-0.4,0.6-0.4c0.2,0,0.2,0,0.4,0c0.2,0,0.2,0.2,0.1,0.4
								c0,0,0,0,0,0.1c-0.4,0.7-0.6,1-1.1,1.7c0.5-0.2,0.9-0.2,1.4-0.2c0.8,0.1,1,0.5,0.5,1.4c-0.7,1.1-1.1,1.7-1.8,2.7
								C483.4,493.7,483.2,493.9,483,493.8z"/>
						</g>
					</g>
				</g>
			</g>
			<path class="st14" d="M388.2,533.1c0,0,2.4-1.1,2.5-4.2c0.1-3.2-4.4-6-9.8-7.8c-5.4-1.8-7.9-2-7.9-2l2.6-2.5c0,0-8.9-3-11.8-4.5
				c-2.9-1.5-4.5-4.7-10.9-6.3c-6.4-1.6-9-4.4-15.3-5.4c-3.3-0.5-9.4-1.8-16.1-4c-1.3,1.4-2.6,3.2-3.9,5.3
				c10.6,4.8,20.8,9.2,29.7,13.4c24.7,11.8,22.2,21.8,38.3,22.2C387.4,536,387.9,536.2,388.2,533.1z"/>
			<path class="st14" d="M274.7,406.3c-17,22.9-37.6,45.5-12.2,64.8c16.2,12.4,36.3,22.1,55.2,30.6c1.3-2.1,2.7-3.9,3.9-5.3
				c-6.1-1.9-12.7-4.5-18.4-7.7c-12-6.8-30.5-18.4-43.4-34.9c0,0-0.7-2.7,3.2-8.5c3.9-5.8,16.1-20.4,19.3-20.4c0,0,13.7-39.3,2.6-64
				c-1-2.3-2.2-4.3-3.4-6.2l-1.2-1.7C280.2,353.1,291.7,383.4,274.7,406.3z"/>
		</g>
	</g>
	<polygon class="st29" points="532,765.5 699.3,831 708.5,791 546.5,758.8 	"/>
	<path class="st30" d="M811.8,765.5l11.4-38.8c-78.2,11.7-114.5,49.9-125.6,66c-0.8,0.3-1.6,0.5-2.3,0.8c0,0-1.2,2.1-2.1,6.5l0,0
		l0,0c-1,5.2-1.6,13.7,0.7,25.9c4.3,22.7-0.4,27.6-0.5,46.8c-0.1,19.2,9.1,102.2,1.2,117.2c-7.9,15.1,31.3,25.5,31.3,25.5l14.4-21.7
		c0,0,0-53.7,5.5-76.6c5.6-22.9,17.5-18.3,17.2-66.2c-0.1-12.1-0.5-23.2-2.1-32.6l2.1,0.6L811.8,765.5z"/>
	<path class="st31" d="M684,993.9c0,0,0.8-18,11.5-13.8c10.7,4.2,18.1,9,17.9,16.1c-0.2,7.1,11.7,7.2,17,5s9.6-14.1,9.6-14.1
		s7.8-2.9,9.7,1.4c1.9,4.3-21.3,61.5-21.3,61.5l-37.9,9.2l-53.5,3.2l7.5-37.2C644.4,1025,670.3,1019.3,684,993.9z"/>
	<path class="st32" d="M985.7,786.5c0,0,0.5,7.8-6.2,16.5c-6.7,8.8-1.6,19.6-23.8,29.8c-22.2,10.2-60,6.4-69.8,10.6
		c-9.8,4.2-35.8,20.3-58.2-5.1s31.5-118.3,31.5-118.3l45.5-8l75.9,36.1L985.7,786.5z"/>
	<path class="st33" d="M885.1,843.8c-0.2,0.1-0.4,0.2-0.7,0.3C884.6,844,884.9,843.9,885.1,843.8z"/>
	<polygon class="st33" points="878.6,846.9 878.6,846.9 878.6,846.9 	"/>
	<path class="st33" d="M885.9,843.5c-0.2,0.1-0.4,0.2-0.7,0.3C885.5,843.7,885.7,843.6,885.9,843.5z"/>
	<path class="st34" d="M801.5,1015.4c0,0,0.9,8.5,5.9,12.9c5,4.4,7.9,19.4-17.7,31.7c-25.6,12.2-38.2,11.3-51.2,22.4
		s-66.9,4.9-66.9,0c0-4.9,69.6-30.4,69.6-30.4L801.5,1015.4z"/>
	<path class="st33" d="M884.2,844.2c-0.2,0.1-0.3,0.2-0.5,0.2C883.9,844.4,884,844.3,884.2,844.2z"/>
	<path class="st33" d="M985.7,786.5l-5.1-38.4l-56.9-27l-6.2-1.3c0,0-41.4-0.1-22.2,8.1s23,34.8,23,34.8
		c16.1,53.6-32.6,80.7-32.6,80.7c9.8-4.2,47.6-0.4,69.8-10.6s17.1-21.1,23.8-29.8C986.2,794.3,985.7,786.5,985.7,786.5z"/>
	<path class="st33" d="M885.2,843.8c-0.1,0-0.1,0-0.2,0.1C885.1,843.8,885.2,843.8,885.2,843.8z"/>
	<path class="st33" d="M884.4,844.1c-0.1,0-0.1,0.1-0.2,0.1C884.3,844.2,884.3,844.2,884.4,844.1z"/>
	<path class="st35" d="M918.5,762.8c-11.6-38.5-65.3,11.2-94.6,42.3c-2.8,14-2.4,26.3,3.8,33.3c18.1,20.5,38.5,14,50.9,8.5
		c0,0,0,0,0,0c1.9-0.9,3.7-1.7,5.1-2.4c0.2-0.1,0.3-0.2,0.5-0.2c0.1,0,0.1-0.1,0.2-0.1c0.2-0.1,0.5-0.2,0.7-0.3c0.1,0,0.1,0,0.2-0.1
		c0.2-0.1,0.4-0.2,0.7-0.3C885.9,843.5,934.6,816.3,918.5,762.8z"/>
	<path class="st33" d="M883.7,844.5c-1.5,0.7-3.2,1.5-5.1,2.4C880.5,846,882.2,845.2,883.7,844.5z"/>
	<path class="st36" d="M850.6,657.9c0,0,1.4,27.3-5.9,36.9c-7.4,9.6-17.2,19.8-33.3,2c-16.1-17.8-18.8-45-26.9-62.3
		c-8.2-17.3-21.2-35.7-14.8-48c0,0-1.8-4.9,2.2-9.1s5.6-2.6,6.8-8.3c1.3-5.7,5.2-10.3,13.4-9.4c8.2,1,20.8,44.2,20.8,44.2
		L850.6,657.9z"/>
	<path class="st37" d="M839.7,700.7c1.8-1.8,3.4-3.8,5-5.9c7.4-9.6,5.9-36.9,5.9-36.9l-37.7-54c0,0-12.6-43.2-20.8-44.2
		c-0.9-0.1-1.7-0.1-2.4-0.1c-6.1,5.8,12.9,9.2-7.2,10.9c-7.8,0.7,12,9.3-7.8,10.4c-6.9,0.4,25.3,10.2,3.8,12
		c-11,1,14.1,15.5,14.4,28c0.2,11.6,19,88.3,38.8,84.9c1.8-0.5,3.4-1.4,4.9-2.5C837.5,702.5,838.6,701.6,839.7,700.7z"/>
	<path class="st38" d="M916,502.5c0,0,37-0.6,56.6,9.3c19.6,9.9,29.6,26.1,33,37.9c3.9,13.5,6.1,64.7,2.3,88.9
		c-3.8,24.2-1.6,75.5-2.6,91.2c-1,15.6-18.6,47.6-19.7,56.9c-1.1,9.3-19.3-75.1-97.1-68.7c0,0-17.9,3-30.6,4.4c0,0-2.5-28-0.9-38.4
		c1.6-10.4-1.8-25.8-1.8-25.8l-3.5-109.2c0,0,3.1-3.2,7.6-6C863.8,540,916,502.5,916,502.5z"/>
	<path class="st39" d="M1008,638.5c3.8-24.2,1.6-75.3-2.3-88.9c-3.4-11.8-13.4-28-33-37.9c-19.6-9.9-56.6-9.3-56.6-9.3
		s-10.3,7.4-22.2,15.9l-4,27c0,0-11.6,20.2,7.1,30.2s-11.1,56.6-7.7,92.7c3.4,36.1,9.4,36.9,23.1,50.5c0,0,0,0,0,0
		c58.1,10.1,72.6,76,73.6,67.8c1.1-9.3,14.6-40.1,15.6-55.8C1002.4,715.1,1004.1,662.7,1008,638.5z"/>
	<path class="st4" d="M908.3,556.1c-0.8,0.5-1.3,1.6-1.3,2.9l0,0v21.9c0,0.6-0.3,1.1-0.7,1.1c-0.1,0-0.1,0-0.2,0
		c-3.4-1.5-5.7-6-5.7-11.2c0-0.2,0-0.3,0-0.5V570c0-0.1,0-0.2,0-0.4v-0.1c0-0.3,0-0.6,0.1-0.9l0-0.1c0-0.1,0-0.3,0.1-0.4
		c0,0,0,0,0-0.1c0.1-0.3,0.1-0.6,0.2-0.9l0-0.1c0-0.1,0.1-0.3,0.1-0.4l0,0c0.1-0.3,0.2-0.6,0.3-0.9l0,0c0.1-0.3,0.2-0.6,0.3-0.9v0
		c0.1-0.1,0.1-0.3,0.2-0.4c0,0,0,0,0-0.1c0.1-0.1,0.1-0.2,0.2-0.3l0,0c0.1-0.1,0.1-0.2,0.2-0.4l0.1-0.1c0.3-0.5,0.6-1,0.9-1.4
		c0.1-0.2,0.3-0.4,0.4-0.5c0.4-0.4,0.5-1.3,0.2-1.8c0,0-0.1-0.1-0.1-0.1l-0.7-1c-0.3-0.5-0.8-0.5-1.2-0.1c-0.5,0.6-1,1.3-1.4,2l0,0
		l0,0c-0.1,0.2-0.2,0.3-0.3,0.5l0,0c-0.1,0.2-0.2,0.3-0.3,0.5l0,0.1c-0.1,0.3-0.3,0.7-0.4,1l0,0.1c-0.1,0.4-0.3,0.7-0.4,1.1
		c0,0,0,0.1,0,0.1c-0.1,0.2-0.1,0.3-0.2,0.5l0,0c-0.1,0.2-0.1,0.4-0.2,0.6l0,0.1c0,0.2-0.1,0.3-0.1,0.5l0,0.1c0,0.2-0.1,0.4-0.1,0.6
		l0,0.1c0,0.2-0.1,0.3-0.1,0.5c0,0,0,0.1,0,0.1c0,0.2-0.1,0.4-0.1,0.6c0,0,0,0.1,0,0.1c0,0.2,0,0.4-0.1,0.5c0,0.1,0,0.1,0,0.2
		c0,0.2,0,0.4,0,0.6c0,0,0,0,0,0.1c0,0.2,0,0.4,0,0.6c0,0.1,0,0.1,0,0.2c0,0.2,0,0.4,0,0.6h0c0,7.5,3.7,14,8.7,15.4
		c0.4,0.1,0.6,0.5,0.6,1.1v5.9c0,0.6,0.3,1.1,0.7,1.1c0,0,0,0,0,0h1.2c0.4,0,0.7-0.5,0.7-1.1l0,0v-5.9c0-0.5,0.3-1,0.6-1.1
		c2.1-0.6,4.1-2.1,5.6-4.3c0.6-0.9,1.2-2,1.7-3.1c3-7.4,1.3-17-3.8-21.4c-0.7-0.6-1.4-1.1-2.2-1.4
		C910.5,555.2,909.3,555.4,908.3,556.1z M915.6,575.7c-1,3-2.8,5.2-4.9,6.1c-0.4,0.2-0.8-0.2-0.9-0.7c0-0.1,0-0.2,0-0.3v-19.2
		c0-1,0.6-1.9,1.3-1.9c0.2,0,0.3,0,0.5,0.1c4.1,2.5,6,9.3,4.3,15.3C915.7,575.3,915.6,575.5,915.6,575.7L915.6,575.7z"/>
	<path class="st40" d="M834.1,441.3c0,0-13.2-1.6-11.9-20c0,0-0.8,2.7,5.3,1.9c0,0-4.2-2.4-4.3-7.7c0,0,2.2,2.7,7.8,2.8
		c0,0-2-0.7-2.8-3.1c0,0,2.7,0.7,4.9-0.3c0,0-4.4-2.7-3.9-8c0,0,3.2,4.8,8.9,2.5c5.7-2.3,10.8-8,10.8-8s-4.3-1.3-5.1-3.5
		c0,0,7.4,2.2,9.6,0.5s31.5-11.2,46.4-3.9c14.9,7.3,33.8,21.1,33.9,48.2s-17.9,48-18.4,57l-8.5-18.1l-16-27.7l-16.9-26.1l-28,2.7
		L834.1,441.3z"/>
	<path class="st41" d="M899.7,394.7c-5.7-2.8-13.5-3.1-21.1-2.4c-4.5,0.6-8.6,1.3-11.8,2c-1.5,0.4-3,0.7-4.4,1.1
		c-11.5,3.7-13.8,9.3-17,13.2c-3.2,4-9.4,3.6-9.4,3.6c2.7,2.3,5.5,1.4,5.5,1.4c-1.4,3.3-6.8,5-6.8,5c3.3,0.4,6.6-1.5,6.6-1.5
		c-1.3,3.1-9.9,4.7-9.9,4.7s3.5,1.7,14.6-5.2s19.7,0,19.7,0l5.2,11.6l2.9-0.3l16.9,26.1l16,27.7l8.5,18.1c0.5-9,18.5-29.9,18.4-57
		C933.6,415.7,914.6,402,899.7,394.7z"/>
	<path class="st36" d="M859.3,542.8c0,0,5.1-2.2,4.3-11.1c-0.7-8.9-2.3-14.5-10.8-16.5c-8.5-2-3.8-19.3-7.8-20.4
		c-4-1.1-4.5-5.9-3.3-8.3c0,0-3-1.3-2.6-4.6c0.4-3.4,2.8-5.3,0.6-8.4c0,0-1.1-1.6-2.9-1.5c-1.8,0.1-6.4-1.9-2.6-9.4
		c3.8-7.5,2.9-10,1.1-12.8c-1.8-2.8-2.2-8.8,0.2-13.2c2.5-4.3,8.8-21.8,30.1-20c10.4,0.9,17.3,8.9,16,19.3c0,0,14.1,2.2,16,17.5
		l2.5-0.2c0,0,6.5-17.5,15.8-12.4c9.4,5.1,4.9,20.4-1.4,27.5s1,32.8,2.1,36.5c1.1,3.7-16,39-33.6,43.5
		C865.6,553,859.3,542.8,859.3,542.8z"/>
	<circle class="st32" cx="847.1" cy="601.4" r="57.9"/>
	<path class="st36" d="M879.2,726.8c0,0-21.9-14.4-86.1,8.9c-24.3,8.9-25.4,8.2-29.8,18.2c-4.4,10-3.3,38.3-7.2,51.6
		c-3.9,13.3-7.8,32.2-1.6,61.3c6.2,29.1,0.5,101-10.4,122.5c-10.9,21.5,9.3,33.7,9.3,33.7l26,6.5l13.5-26.1c0,0-1.3-16.6,1.6-32.7
		c2.9-16,11.4-60.5,22.4-80.4c11-19.9,11.6-42.5,7.7-70.1c0,0,35.4,23.8,74.9-8.7S915.7,737.2,879.2,726.8z"/>
	<path class="st37" d="M919.1,765.4c0.1,3.1-2.4,7.7-19.1,5.7c-24.6-2.9-68.4,5-72.4,23.5s-26.4,11.9-29.3,55.3
		s-5.4,106.3-16.3,127.1s4.4,37.9-16.2,29.6c-13.2-5.4-9.4,8.2-5.1,18.6l18.5,4.6l13.5-26.1c0,0-1.3-16.6,1.6-32.7
		c2.9-16,11.4-60.5,22.4-80.4c11-19.9,11.6-42.5,7.7-70.1c0,0,35.4,23.8,74.9-8.7C917.5,797,922.5,780.2,919.1,765.4z"/>
	<path class="st42" d="M749.2,994.9c0,0,19.2,3,16.5,13.4s6.7,14.4,13.5,6.3s13.3-18.8,18-8.8c4.8,9.9,9.9,18.8-0.2,30.9
		c-10.1,12.1-45.1,31.7-68.6,35.2c-23.6,3.5-48.7,6.1-51.5,4.6c-2.8-1.5-24.4-16.5,13.2-33.4C727.7,1026.3,722.7,988.8,749.2,994.9z
		"/>
	<path class="st37" d="M885.4,511.6c16.4-6.9,4.4,33.6,4.3,33.8c15-9.9,27.9-37.2,26.9-40.4c-1-3.6-7.8-27.5-2.7-35.6
		c-7.1,9.4-10.8,4.5-10.8,4.5c0.6,22.5-28.5,29.4-34.8,35.6c-6.3,6.3-15.5,5.7-15.5,5.7c0.1,0,0.3,0.1,0.4,0.1
		C856,516,870,518,885.4,511.6z"/>
	<polygon class="st32" points="524.1,1013.2 570.4,1006.5 718.3,1039.8 718.3,1094.4 657.5,1110.3 524.1,1056.1 	"/>
	<polygon class="st43" points="718.3,1039.8 657.5,1051.5 524.1,1013.2 524.1,1056.1 657.5,1110.3 718.3,1094.4 	"/>
	<polygon class="st44" points="533.7,473.5 533.7,1074.9 551.2,1082.4 574.5,1076.6 574.5,424.3 	"/>
	<path class="st44" d="M569.7,355.5l-72.4,97.9c-6.9,9.4-4.5,22.7,5.3,29.1l0,0c8.7,5.7,20.3,4,27-4l81.9-98.9L569.7,355.5z"/>
	<ellipse transform="matrix(0.5 -0.866 0.866 0.5 -23.0222 695.2287)" class="st45" cx="590.6" cy="367.6" rx="18.7" ry="24.1"/>
	<path class="st4" d="M984.2,542.6c-4.9-15.5-18.5-26.6-39.3-31.9c-15.3-4-28-3.5-28.6-3.5l-3.2,7.9c0.5,0,52.6-2.7,63,30.4
		c5.7,18,7.3,63.5,2.3,104.8c-5.4,45-16.1,74.3-29.2,85.6c1.5,1.3,4.7,4.1,6.1,5.4c18.7-16.9,26.9-62.7,30.3-90.4
		C990.8,608,990.2,561.5,984.2,542.6z"/>
	<ellipse class="st46" cx="855.2" cy="447.4" rx="3.5" ry="4.4"/>
	<path class="st46" d="M838.4,454.3l1.9-4.2c0,0-0.2-2.6-2.1-2.2C836.3,448.3,838.4,454.3,838.4,454.3z"/>
	<g>
		<path class="st47" d="M841.7,486.6c1.8-1.8,4.6-2.5,7.2-2.5c2.5-0.1,4.7-1.5,6.4-3.2c-1.3,2.3-3.7,4-6.4,4
			C846.3,484.9,843.9,485.3,841.7,486.6L841.7,486.6z"/>
	</g>
	<g>
		<path class="st40" d="M845.9,441.5c1.3-4.5,6.1-7.1,10.6-6.3c4.1,0.6,8.4,2.2,11,5.6c0,0-0.3,0.2-0.3,0.2c-2.3-1.8-5.2-2.6-8.1-3
			c-1.9-0.3-3.6-0.3-5.4,0.4c-2.7,1-4.9,1.9-7.7,3.3C846.2,441.7,845.9,441.5,845.9,441.5L845.9,441.5z"/>
	</g>
	<g>
		<path class="st40" d="M840.3,444.5c-0.6,0.6-0.9,1-1.4,1.5c-0.2,0.1-0.3,0.2-0.5,0.2c-0.8,0-1.4,0.6-2.1,1.1
			c-0.4,0.4-0.9,1-1.3,1.4c0,0-0.3-0.1-0.3-0.1c-0.1-1.9,0.6-3.8,2.1-5.2c1.1-1,3-0.7,3.7,0.8C840.4,444.2,840.3,444.5,840.3,444.5
			L840.3,444.5z"/>
	</g>
	<path class="st4" d="M532,706.6l19.2-3.1L797.9,769c0,0,30.9,6.3,29.7,25.6c-0.1,0.9-0.5,1.8-1.3,2.3l0,0c-0.8,0.6-1.1,1.7-0.7,2.6
		l0,0c0.4,0.9,0.2,2-0.7,2.6l-0.4,0.3c-0.9,0.7-1.1,1.9-0.5,2.8l1,1.6c0.5,0.9,0.4,2-0.4,2.7l-0.7,0.7c-0.8,0.7-1,2-0.3,2.9l1.4,1.8
		c0.4,0.5,0.5,1.1,0.4,1.7l-0.6,5.5L552,764.1l-20,1.4V706.6z"/>
	<path class="st36" d="M963.1,513.4c0,0-32.7,6.4-35.7,36.7c-3.1,30.2,1.8,28.3-6.1,49.4c-7.9,21.1,14,28.9-17.3,18
		c-31.3-10.9-38-26.1-48.8-38.2c-10.8-12.2-11.9-31.1-28.2-30.9c-16.3,0.1-5.6,7.2-2.1,9.7c3.5,2.5-7.6,6.1-16.7,0.6
		s-14.6-2.5-16.2,1.2c-1.7,3.6,3.1,3.6-1.9,7.2c-5,3.6-6.3,6.5-3.6,10.3c2.7,3.8-7.3,7.5-4.5,12.6c2.8,5,8.1,3.1,12.4,0.7
		c4.2-2.3,4.9,5.8-0.9,8.8c-5.9,3.1-8,9.9,4.6,7c12.6-2.8,26.8-4.8,34.9,1.4c8.1,6.2,21.9,33.7,50.2,53.7c28.3,20,32.2,34.5,51.9,19
		s17.9-24.1,35.4-41.8c17.5-17.8,10-31.5,20.1-54.7C1000.8,561,1001.2,514.1,963.1,513.4z"/>
	<g>
		<g>
			<path class="st48" d="M806.4,616.9c0,1,0.8,2.5,2,3.8l0,0c7.1,7.6,14.3,14.2,21.5,19.6c0.6,0.4,0.9,1.1,0.6,1.4
				c0,0.1-0.1,0.1-0.2,0.1c-3.5,1.6-9.5-0.5-14.5-5.4c-0.2-0.2-0.3-0.3-0.5-0.5c-0.1-0.1-0.1-0.1-0.2-0.2c-0.1-0.1-0.2-0.2-0.3-0.4
				c0,0-0.1-0.1-0.1-0.1c-0.3-0.3-0.6-0.6-0.9-1c0,0-0.1-0.1-0.1-0.1c-0.1-0.1-0.2-0.3-0.4-0.4c0,0,0,0-0.1-0.1
				c-0.3-0.3-0.5-0.7-0.8-1c0,0,0,0-0.1-0.1c-0.1-0.2-0.2-0.3-0.4-0.5l0,0c-0.3-0.4-0.5-0.7-0.7-1.1c0,0,0,0,0-0.1
				c-0.2-0.4-0.4-0.7-0.6-1.1c0,0,0,0,0,0c-0.1-0.2-0.2-0.3-0.3-0.5c0,0,0-0.1-0.1-0.1c-0.1-0.1-0.2-0.3-0.2-0.4c0,0,0,0,0-0.1
				c-0.1-0.2-0.2-0.3-0.2-0.5c0,0,0-0.1-0.1-0.1c-0.3-0.7-0.6-1.3-0.8-2c-0.1-0.3-0.2-0.5-0.2-0.8c-0.2-0.7-0.9-1.6-1.7-2
				c-0.1,0-0.1-0.1-0.2-0.1c-0.4-0.2-0.9-0.4-1.3-0.7c-0.6-0.3-1-0.1-0.8,0.6c0.3,0.9,0.6,1.9,1.1,2.9c0,0,0,0,0,0c0,0,0,0,0,0
				c0.1,0.2,0.2,0.4,0.3,0.7l0,0c0.1,0.2,0.2,0.4,0.3,0.7c0,0,0,0.1,0.1,0.1c0.2,0.4,0.5,0.9,0.7,1.4c0,0,0,0.1,0.1,0.1
				c0.3,0.5,0.5,0.9,0.8,1.4c0,0,0.1,0.1,0.1,0.1c0.1,0.2,0.3,0.4,0.4,0.6c0,0,0,0,0,0.1c0.2,0.2,0.3,0.5,0.5,0.7
				c0,0,0.1,0.1,0.1,0.1c0.1,0.2,0.3,0.4,0.4,0.6c0,0,0,0.1,0.1,0.1c0.2,0.2,0.3,0.5,0.5,0.7c0,0,0.1,0.1,0.1,0.1
				c0.1,0.2,0.3,0.4,0.4,0.6c0,0,0.1,0.1,0.1,0.1c0.2,0.2,0.4,0.4,0.6,0.7c0,0,0.1,0.1,0.1,0.1c0.2,0.2,0.3,0.4,0.5,0.6
				c0.1,0.1,0.1,0.1,0.1,0.2c0.2,0.2,0.4,0.4,0.6,0.6c0,0,0,0,0.1,0.1c0.2,0.2,0.4,0.4,0.5,0.6c0.1,0.1,0.1,0.1,0.2,0.2
				c0.2,0.2,0.4,0.4,0.6,0.6c0,0,0,0,0,0c7.4,7.4,16.1,9.6,20.5,6.4c0.3-0.2,0.9-0.1,1.4,0.2c1.9,1.3,3.8,2.5,5.7,3.7
				c0.6,0.3,1.2,0.3,1.5,0c0,0,0,0,0,0c0.2-0.4,0.5-0.7,0.7-1.1c0.2-0.4,0-0.9-0.6-1.3l0,0c-1.9-1.1-3.8-2.3-5.7-3.5
				c-0.5-0.3-0.8-0.8-0.7-1.2c0.7-2.1,0.4-4.7-0.8-7.5c-0.5-1.1-1.2-2.3-2.1-3.4c-5.5-7.3-16-14-23.4-15.6c-1-0.2-1.9-0.3-2.7-0.2
				C806.9,614.8,806.3,615.6,806.4,616.9z M830.1,630c2.3,3,3.4,5.9,3,8.3c-0.1,0.4-0.6,0.5-1.3,0.2c-0.1-0.1-0.2-0.1-0.3-0.2
				c-6.3-4.6-12.7-10.1-18.9-16.5c-1-1-1.5-2.2-1-2.6c0.1-0.1,0.2-0.2,0.4-0.2c4.9,0.1,12.9,4.8,17.7,10.4
				C829.8,629.6,830,629.8,830.1,630C830.1,630,830.1,630,830.1,630z"/>
		</g>
	</g>
	<path class="st37" d="M981.3,571.8c-10.8,59-13.3,23.9-22.5,54.9c-9.2,31.1-20.3,54.1-45,58.4c6.4,3.4,12.2,2.8,21.4-4.5
		c19.7-15.4,17.9-24.1,35.4-41.8c17.5-17.8,10-31.5,20.1-54.7c10.1-23.2,10.4-70-27.6-70.7C963.1,513.4,989.1,529,981.3,571.8z"/>
	<path class="st37" d="M921.4,621.7c-0.5,1.6-4.3,0.3-17.4-4.2c-31.3-10.9-38-26.1-48.8-38.2c-10.8-12.2-11.9-31.1-28.2-30.9
		c-6.7,0.1-8.8,1.3-8.8,2.9c0.1,0.3,0.6,1.4,6.1,1.4c6.3,0,14.6,5.3,17.1,16.7C844,580.6,921.1,654.4,921.4,621.7z"/>
	<path class="st49" d="M825.4,816.6c0.1-0.6,0-1.2-0.4-1.7l-1.4-1.8c-0.7-0.9-0.5-2.1,0.3-2.9l0.7-0.7c0.8-0.7,0.9-1.8,0.4-2.7
		l-1-1.6c-0.6-0.9-0.3-2.1,0.5-2.8l0.4-0.3c0.8-0.6,1.1-1.7,0.7-2.6c-0.4-0.9-0.2-2,0.7-2.6c0.7-0.6,1.2-1.4,1.3-2.3
		c1.2-19.2-29.7-25.6-29.7-25.6l-27.1-7.2c0,0-15.1-3-14,3.3c1.1,6.3,20.8,6.9,16.8,9.3c-4,2.4-22.3-6.7-21.1,0.2
		c1.3,6.9,41,8.8,39.4,12.6c-1.5,3.8-79.9-19.9-81.1-14.9s86.7,20.4,86.3,24.6c-0.4,4.2-66.3-12.6-67.9-9.7s70,15.1,67.9,19.7
		s-135-32.4-120.8-16.4l0,0L824.9,822L825.4,816.6z"/>
	<path class="st34" d="M765.9,1006.5c0.2-8.9-16.7-11.6-16.7-11.6c-17.9-4.1-21.4,11.7-33.4,27.5c-15.8,22.7,10.5,18.6,28.3,13.1
		C761.7,1030.2,765.9,1006.7,765.9,1006.5z"/>
	<path class="st34" d="M713.4,996.4c0-0.1,0-0.2,0-0.4c0.2-7.1-7.2-11.9-17.9-16.1c-10.7-4.2-11.5,13.8-11.5,13.8
		c-4.9,9.2-11.4,15.7-17.7,20.4c0,0,0,0,0,0c-14.9,23.8,22.4,10.1,35.1,1.1C712.8,1007.3,713.4,998.3,713.4,996.4z"/>
	<path class="st34" d="M783.9,1018.5c-0.2,0.3-0.2,0.9,0,1.4l0,0l3.6,8.8c0.1,0.2,0,0.5-0.1,0.6c0,0-0.1,0-0.1,0
		c-1.6,0-3.3-1.5-4.2-3.6c0-0.1-0.1-0.1-0.1-0.2l0-0.1c0,0,0-0.1-0.1-0.1l0,0c0-0.1-0.1-0.3-0.1-0.4l0,0c0-0.1,0-0.1,0-0.2
		c0,0,0,0,0,0c0-0.1-0.1-0.3-0.1-0.4l0,0c0-0.1,0-0.1,0-0.2l0,0c0-0.1,0-0.3,0-0.4l0,0c0-0.1,0-0.3,0-0.4l0,0c0-0.1,0-0.1,0-0.2
		c0,0,0,0,0,0c0-0.1,0-0.1,0-0.2l0,0c0-0.1,0-0.1,0-0.2l0-0.1c0-0.2,0.1-0.5,0.1-0.7c0-0.1,0.1-0.2,0.1-0.3c0.1-0.2,0-0.6-0.2-0.8
		c0,0,0,0-0.1,0l-0.4-0.3c-0.2-0.1-0.4-0.1-0.5,0.2c-0.1,0.3-0.2,0.7-0.2,1l0,0l0,0c0,0.1,0,0.2,0,0.2l0,0c0,0.1,0,0.2,0,0.2l0,0
		c0,0.2,0,0.3,0,0.5l0,0c0,0.2,0,0.3,0,0.5c0,0,0,0,0,0.1c0,0.1,0,0.2,0,0.2l0,0c0,0.1,0,0.2,0,0.3l0,0.1c0,0.1,0,0.2,0,0.2l0,0
		c0,0.1,0,0.2,0,0.3l0,0c0,0.1,0,0.1,0,0.2c0,0,0,0,0,0.1c0,0.1,0,0.2,0.1,0.3c0,0,0,0,0,0c0,0.1,0,0.2,0.1,0.2c0,0,0,0,0,0.1
		c0,0.1,0.1,0.2,0.1,0.3c0,0,0,0,0,0c0,0.1,0.1,0.2,0.1,0.2c0,0,0,0,0,0.1c0,0.1,0.1,0.2,0.1,0.3l0,0c1.3,3,3.8,5,6.1,4.8
		c0.2,0,0.3,0.1,0.4,0.3l1,2.4c0.1,0.2,0.3,0.4,0.5,0.3c0,0,0,0,0,0l0.5-0.2c0.2-0.1,0.2-0.3,0.1-0.6l0,0l-1-2.4
		c-0.1-0.2-0.1-0.4,0.1-0.5c0.8-0.6,1.3-1.5,1.6-2.7c0.1-0.5,0.2-1,0.1-1.5c0-3.5-2.3-7.1-5.1-8c-0.4-0.1-0.8-0.2-1.1-0.2
		C784.6,1017.8,784.2,1018.1,783.9,1018.5z M790.1,1025.3c0.1,1.4-0.3,2.6-1,3.3c-0.1,0.1-0.4,0.1-0.5-0.1c0,0,0-0.1-0.1-0.1
		l-3.2-7.8c-0.2-0.4-0.1-0.9,0.2-1c0.1,0,0.1,0,0.2,0c2.1,0.3,4,2.8,4.3,5.5C790.1,1025.1,790.1,1025.2,790.1,1025.3L790.1,1025.3z"
		/>
	<path class="st42" d="M747.8,999.3c-0.4,0-0.8,0.4-1.1,0.9l0,0l-4.3,8.6c-0.1,0.2-0.3,0.4-0.5,0.3c0,0-0.1,0-0.1-0.1
		c-1-1.2-1-3.5,0-5.5c0-0.1,0.1-0.1,0.1-0.2l0-0.1c0,0,0.1-0.1,0.1-0.1l0,0c0.1-0.1,0.1-0.2,0.2-0.3l0,0c0,0,0.1-0.1,0.1-0.1
		c0,0,0,0,0,0c0.1-0.1,0.2-0.2,0.3-0.3l0,0c0-0.1,0.1-0.1,0.1-0.1l0,0c0.1-0.1,0.2-0.2,0.3-0.3l0,0c0.1-0.1,0.2-0.2,0.3-0.3l0,0
		c0,0,0.1-0.1,0.1-0.1c0,0,0,0,0,0c0,0,0.1-0.1,0.1-0.1l0,0c0,0,0.1-0.1,0.1-0.1l0,0c0.2-0.1,0.4-0.3,0.6-0.4c0.1,0,0.2-0.1,0.3-0.1
		c0.2-0.1,0.4-0.4,0.4-0.7c0,0,0,0,0-0.1l-0.1-0.5c0-0.2-0.2-0.4-0.4-0.3c-0.3,0.1-0.6,0.3-0.9,0.5l0,0l0,0c-0.1,0-0.1,0.1-0.2,0.1
		l0,0c-0.1,0-0.1,0.1-0.2,0.1l0,0c-0.1,0.1-0.2,0.2-0.4,0.3l0,0c-0.1,0.1-0.3,0.2-0.4,0.4c0,0,0,0,0,0c-0.1,0.1-0.1,0.1-0.2,0.2l0,0
		c-0.1,0.1-0.1,0.1-0.2,0.2l0,0c-0.1,0.1-0.1,0.1-0.2,0.2l0,0c-0.1,0.1-0.1,0.1-0.2,0.2l0,0c0,0.1-0.1,0.1-0.1,0.2c0,0,0,0,0,0
		c-0.1,0.1-0.1,0.1-0.2,0.2c0,0,0,0,0,0c0,0.1-0.1,0.1-0.1,0.2c0,0,0,0,0,0.1c0,0.1-0.1,0.2-0.1,0.2c0,0,0,0,0,0
		c0,0.1-0.1,0.1-0.1,0.2c0,0,0,0,0,0.1c0,0.1-0.1,0.2-0.1,0.3l0,0c-1.5,2.9-1.3,6.2,0.4,7.7c0.1,0.1,0.1,0.3,0,0.5l-1.2,2.3
		c-0.1,0.2-0.1,0.5,0.1,0.6c0,0,0,0,0,0l0.5,0.2c0.2,0.1,0.4,0,0.5-0.3l0,0l1.2-2.3c0.1-0.2,0.3-0.3,0.4-0.3c0.9,0.2,2,0,3-0.6
		c0.4-0.2,0.9-0.5,1.3-0.9c2.6-2.3,3.8-6.4,2.7-9.1c-0.2-0.4-0.3-0.7-0.6-1C748.8,999.4,748.3,999.2,747.8,999.3z M746.8,1008.4
		c-1,1-2.1,1.5-3.1,1.4c-0.2,0-0.3-0.2-0.2-0.5c0,0,0-0.1,0-0.1l3.8-7.5c0.2-0.4,0.6-0.6,0.9-0.5c0.1,0,0.1,0.1,0.2,0.2
		c1.1,1.8,0.5,4.8-1.3,6.8C746.9,1008.3,746.8,1008.4,746.8,1008.4L746.8,1008.4z"/>
	<path class="st42" d="M697.8,984.9c-0.4,0.1-0.8,0.5-0.9,1l0,0l-3,9.1c-0.1,0.2-0.3,0.4-0.5,0.4c0,0-0.1,0-0.1,0
		c-1.2-1.1-1.6-3.3-0.9-5.4c0-0.1,0-0.1,0.1-0.2l0-0.1c0-0.1,0-0.1,0.1-0.1l0,0c0.1-0.1,0.1-0.3,0.2-0.4l0,0c0-0.1,0.1-0.1,0.1-0.2
		c0,0,0,0,0,0c0.1-0.1,0.1-0.2,0.2-0.4l0,0c0-0.1,0.1-0.1,0.1-0.2l0,0c0.1-0.1,0.2-0.2,0.2-0.3l0,0c0.1-0.1,0.2-0.2,0.2-0.3l0,0
		c0,0,0.1-0.1,0.1-0.1c0,0,0,0,0,0c0,0,0.1-0.1,0.1-0.1l0,0c0,0,0.1-0.1,0.1-0.1l0,0c0.2-0.2,0.4-0.3,0.6-0.5
		c0.1-0.1,0.2-0.1,0.2-0.2c0.2-0.1,0.4-0.5,0.3-0.7c0,0,0,0,0-0.1l-0.1-0.5c-0.1-0.2-0.3-0.3-0.5-0.2c-0.3,0.2-0.6,0.4-0.8,0.6l0,0
		l0,0c-0.1,0.1-0.1,0.1-0.2,0.2l0,0c-0.1,0.1-0.1,0.1-0.2,0.2l0,0c-0.1,0.1-0.2,0.2-0.3,0.4l0,0c-0.1,0.1-0.2,0.3-0.3,0.4
		c0,0,0,0,0,0c0,0.1-0.1,0.1-0.1,0.2l0,0c0,0.1-0.1,0.1-0.1,0.2l0,0c0,0.1-0.1,0.1-0.1,0.2l0,0c0,0.1-0.1,0.2-0.1,0.2l0,0
		c0,0.1-0.1,0.1-0.1,0.2c0,0,0,0,0,0.1c0,0.1-0.1,0.2-0.1,0.2c0,0,0,0,0,0c0,0.1-0.1,0.2-0.1,0.2c0,0,0,0,0,0.1
		c0,0.1-0.1,0.2-0.1,0.3c0,0,0,0,0,0c0,0.1-0.1,0.2-0.1,0.2c0,0,0,0,0,0.1c0,0.1-0.1,0.2-0.1,0.3l0,0c-1,3.1-0.4,6.3,1.6,7.6
		c0.1,0.1,0.2,0.3,0.1,0.5l-0.8,2.5c-0.1,0.2,0,0.5,0.2,0.6c0,0,0,0,0,0l0.5,0.2c0.2,0.1,0.4-0.1,0.5-0.4l0,0l0.8-2.5
		c0.1-0.2,0.2-0.4,0.4-0.4c1,0,2-0.3,2.9-1c0.4-0.3,0.8-0.7,1.1-1.1c2.3-2.7,2.8-6.9,1.3-9.4c-0.2-0.3-0.4-0.6-0.7-0.9
		C698.8,984.9,698.3,984.8,697.8,984.9z M698.1,994.1c-0.8,1.1-1.9,1.8-2.9,1.9c-0.2,0-0.3-0.2-0.3-0.4c0,0,0-0.1,0-0.1l2.6-8
		c0.1-0.4,0.5-0.7,0.8-0.6c0.1,0,0.1,0.1,0.2,0.1c1.4,1.6,1.2,4.7-0.3,6.9C698.2,993.9,698.2,994,698.1,994.1L698.1,994.1z"/>
	<g>
		<g>
			<path class="st50" d="M622.7,746.7c-0.3-0.1-0.6-0.2-0.9-0.3c-0.4-0.1-0.8-0.3-1.2-0.3c-0.3-0.1-0.8-0.2-1,0
				c-0.3,0.3-0.5,1.8-0.5,2.1c0.9,0.2,1.7,0.4,2.6,0.6c0.6,0.1,0.9,0.3,0.8,0.8c0,0.3-0.1,0.6-0.1,0.8c-0.1,0.6-0.3,0.8-1.1,0.6
				c-0.9-0.2-1.7-0.4-2.6-0.6c-0.4,2.3-0.7,4.7-1.1,7c-0.1,0.6-0.3,0.9-1.1,0.8c-0.5-0.1-1.1-0.2-1.6-0.4c-0.7-0.2-0.7-0.5-0.6-1
				c0.4-2.4,0.8-4.7,1.1-7.1c-0.3-0.1-0.5-0.1-0.8-0.2c-0.6-0.1-0.6-0.5-0.5-0.9c0-0.3,0.1-0.6,0.1-0.9c0.1-0.7,0.8-0.4,1.5-0.3
				c0-0.3,0.1-0.6,0.1-0.9c0.1-0.9,0.3-1.8,1.1-2.4c1.3-1,3-0.6,4.7-0.3c0.5,0.1,1.8,0.4,2.1,0.9c0.1,0.2,0.1,0.3,0.1,0.5
				c0,0.1,0,0.1,0,0.2C623.7,745.9,623.5,746.9,622.7,746.7z M628,748.5c-0.3-0.1-0.7-0.1-1-0.2c-0.9-0.2-1.4-0.4-1.2-1.3
				c0-0.2,0.1-0.5,0.1-0.7c0.1-0.7,0.5-0.9,1.3-0.7c0.4,0.1,0.8,0.2,1.2,0.3c0.6,0.1,1,0.6,0.9,1c0,0,0,0.1,0,0.1
				c0,0.2-0.1,0.5-0.1,0.7C629.1,748.4,628.8,748.7,628,748.5z M626.1,760.3c-0.3-0.1-0.7-0.1-1-0.2c-0.9-0.2-1.4-0.4-1.2-1.3
				c0.4-2.8,0.9-5.6,1.3-8.3c0.1-0.7,0.5-0.9,1.3-0.7c0.4,0.1,0.8,0.2,1.2,0.3c0.6,0.1,1,0.6,0.9,1c0,0,0,0.1,0,0.1
				c-0.4,2.8-0.9,5.6-1.3,8.3C627.2,760.1,626.9,760.5,626.1,760.3C626.1,760.3,626.1,760.3,626.1,760.3z"/>
			<path class="st50" d="M635.4,762.6c-1.3-0.3-2.5-0.6-3.7-1c-0.8-0.3-0.7-0.5-0.6-1.1c0-0.1,0-0.3,0.1-0.4c0-0.5,0.2-1,0.9-0.8
				c0.5,0.1,0.9,0.3,1.3,0.4c0.9,0.3,1.8,0.5,2.7,0.7c0.9,0.2,1.3,0.3,1.4-0.5c0.1-0.2,0.1-0.5,0-0.7c-0.2-0.3-2.4-1.3-2.8-1.5
				c-0.5-0.3-1-0.5-1.4-0.8c-1.3-0.9-1.7-1.6-1.5-2.8c0.5-3.3,3.2-2.6,6.5-1.9c0.7,0.1,1.3,0.3,1.9,0.5c0.9,0.3,1.3,0.5,1.1,1.3
				c-0.1,0.6-0.2,1.3-1.2,1.1c-0.4-0.1-0.9-0.3-1.3-0.4c-0.7-0.2-1.4-0.4-2.1-0.5c-1-0.2-1.5-0.4-1.7,0.5c0,0.1,0,0.3,0.1,0.4
				c0.2,0.4,2.6,1.4,3.1,1.7c2,1,2.8,1.8,2.5,3.7C640.4,763.3,638.7,763.3,635.4,762.6z"/>
			<path class="st50" d="M648.2,753c-0.3-0.1-0.7-0.1-1-0.2c-0.9-0.2-1.4-0.4-1.2-1.3c0-0.2,0.1-0.5,0.1-0.7
				c0.1-0.7,0.5-0.9,1.3-0.7c0.4,0.1,0.8,0.2,1.2,0.3c0.6,0.1,1,0.6,0.9,1.1c0,0,0,0.1,0,0.1c0,0.2-0.1,0.5-0.1,0.7
				C649.3,752.9,649,753.2,648.2,753z M646.3,764.7c-0.3-0.1-0.7-0.1-1-0.2c-0.9-0.2-1.4-0.4-1.2-1.3c0.4-2.8,0.9-5.6,1.3-8.3
				c0.1-0.7,0.5-0.9,1.3-0.7c0.4,0.1,0.8,0.2,1.2,0.3c0.6,0.1,1,0.6,0.9,1.1c0,0,0,0.1,0,0.1c-0.4,2.8-0.9,5.6-1.3,8.3
				C647.5,764.6,647.1,764.9,646.3,764.7C646.3,764.7,646.3,764.7,646.3,764.7z"/>
			<path class="st50" d="M658.9,767.7c-0.7-0.1-1.5-0.2-2.2-0.4c-5.1-1.1-5.7-2.7-5.1-6.7c0.6-4,1.7-5.2,6.8-4.1
				c0.7,0.2,1.5,0.4,2.2,0.6c0.8,0.2,1.4,0.3,1.3,1c0,0,0,0,0,0c-0.1,0.5-0.3,1.7-1.2,1.5c-0.3-0.1-0.7-0.2-1-0.3
				c-0.8-0.3-1.6-0.5-2.4-0.7c-1.1-0.2-1.3-0.1-1.7,0.7c-0.3,0.7-0.5,1.4-0.6,2.1c-0.1,0.7-0.2,1.4-0.2,2.1c0,1,0.3,1.2,1.5,1.4
				c0.8,0.2,1.7,0.3,2.5,0.4c0.3,0,0.7,0.1,1,0.1c0.2,0,0.5,0.2,0.6,0.4c0.2,0.2,0.1,1.3,0.1,1.5C660.4,768,659.7,767.8,658.9,767.7
				z"/>
			<path class="st50" d="M672.9,770.6c-0.5-0.1-1-0.2-1.5-0.3c-0.6-0.1-0.7-0.5-0.6-0.9c-1.2,0.4-2.6,0.5-4,0.2
				c-2.6-0.6-3.6-2-3.2-4c0.4-2.3,2.2-2.7,4.8-2.4c1.1,0.1,2.2,0.3,3.4,0.6c0.1-0.9,0.5-2-1-2.3c-1.3-0.2-2.6-0.4-3.8-0.4
				c-0.2,0-0.4,0-0.6-0.1c-0.9-0.2-0.6-0.9-0.6-1.4c0-0.4,0.4-0.8,0.9-0.7c1.4,0,2.9,0.2,4.4,0.5c1.3,0.3,2.8,0.8,3.6,1.8
				c0.9,1.2,0.6,2.5,0.4,3.7c-0.3,1.7-0.6,3.5-0.8,5.2C674,770.5,673.7,770.8,672.9,770.6z M671.4,765.6c-0.4-0.1-0.9-0.2-1.3-0.3
				c-0.5-0.1-1.1-0.2-1.7-0.3c-1.1-0.1-1.6,0.1-1.7,1c-0.1,0.5-0.1,1.5,0.7,1.6c1.3,0.2,2.6,0.1,3.7-0.3
				C671.2,766.8,671.3,766.2,671.4,765.6z"/>
			<path class="st50" d="M679.8,772.1c-0.3-0.1-0.6-0.1-0.9-0.2c-0.9-0.2-1.4-0.4-1.2-1.3c0.7-4.3,1.4-8.5,2-12.8
				c0.1-0.7,0.5-0.8,1.3-0.7c0.4,0.1,0.8,0.2,1.2,0.3c0.6,0.1,1,0.6,0.9,1c0,0,0,0.1,0,0.1c-0.7,4.3-1.4,8.5-2,12.8
				C680.9,772,680.6,772.3,679.8,772.1z"/>
			<path class="st50" d="M692.3,775.1c-0.7-0.1-1.5-0.2-2.2-0.4c-5.1-1.1-5.7-2.7-5.1-6.7c0.6-4,1.7-5.2,6.8-4.1
				c0.7,0.2,1.5,0.4,2.2,0.6c0.8,0.2,1.4,0.3,1.3,1c0,0,0,0,0,0c-0.1,0.5-0.3,1.7-1.2,1.5c-0.3-0.1-0.7-0.2-1-0.3
				c-0.8-0.3-1.6-0.5-2.4-0.7c-1.1-0.2-1.3-0.1-1.7,0.7c-0.3,0.7-0.5,1.4-0.6,2.1c-0.1,0.7-0.2,1.4-0.2,2.1c-0.1,1,0.3,1.2,1.5,1.4
				c0.8,0.2,1.7,0.3,2.5,0.4c0.3,0,0.7,0.1,1,0.1c0.2,0,0.5,0.2,0.6,0.4c0.2,0.2,0.1,1.3,0.1,1.5
				C693.8,775.4,693.1,775.2,692.3,775.1z"/>
			<path class="st50" d="M702.6,777.5c-4.4-1-5.7-3.4-5.2-6.7c0.5-3.4,2.5-5.1,6.9-4.1c4.4,1,5.7,3.4,5.1,6.8
				C708.9,776.8,707,778.4,702.6,777.5z M706,770.1c-0.4-0.8-1.1-1-2-1.2c-0.9-0.2-1.7-0.4-2.3,0.2c-0.6,0.6-0.8,1.6-0.9,2.4
				c-0.1,0.7-0.2,1.8,0.1,2.6c0.4,0.8,1.2,0.9,2,1.1c0.9,0.2,1.7,0.4,2.3-0.2c0.6-0.6,0.8-1.6,0.9-2.4
				C706.2,771.9,706.4,770.8,706,770.1C706,770.1,706,770.1,706,770.1z"/>
			<path class="st50" d="M721.2,781.3c-0.5-0.1-1-0.2-1.5-0.3c-0.6-0.1-0.7-0.5-0.6-0.9c-1.2,0.4-2.6,0.5-4,0.2
				c-2.6-0.6-3.6-2-3.2-4c0.4-2.3,2.2-2.7,4.8-2.4c1.1,0.1,2.2,0.3,3.4,0.6c0.1-0.9,0.5-2-1-2.3c-1.3-0.2-2.6-0.4-3.8-0.4
				c-0.2,0-0.4,0-0.6-0.1c-0.9-0.2-0.6-0.9-0.6-1.4c0-0.4,0.4-0.8,0.9-0.7c1.4,0,2.9,0.2,4.4,0.5c1.3,0.3,2.8,0.8,3.6,1.8
				c0.9,1.2,0.6,2.5,0.4,3.7c-0.3,1.7-0.6,3.5-0.8,5.2C722.3,781.2,722,781.4,721.2,781.3z M719.7,776.3c-0.4-0.1-0.9-0.2-1.3-0.3
				c-0.5-0.1-1.1-0.2-1.7-0.3c-1.1-0.1-1.6,0.1-1.7,1c-0.1,0.5-0.1,1.5,0.7,1.6c1.3,0.2,2.6,0.1,3.7-0.3
				C719.6,777.4,719.6,776.9,719.7,776.3z"/>
			<path class="st50" d="M733.6,784.2c-0.7-0.1-1.5-0.2-2.2-0.4c-5.1-1.1-5.7-2.7-5.1-6.7c0.6-4,1.7-5.2,6.8-4.1
				c0.7,0.2,1.5,0.4,2.2,0.6c0.8,0.2,1.4,0.3,1.3,1c0,0,0,0,0,0c-0.1,0.5-0.3,1.7-1.2,1.5c-0.3-0.1-0.7-0.2-1-0.3
				c-0.8-0.3-1.6-0.5-2.4-0.7c-1.1-0.2-1.3-0.1-1.7,0.7c-0.3,0.7-0.5,1.4-0.5,2.1c-0.1,0.7-0.2,1.4-0.2,2.1c-0.1,1,0.3,1.2,1.5,1.4
				c0.8,0.2,1.7,0.3,2.5,0.4c0.3,0,0.7,0.1,1,0.1c0.2,0,0.5,0.2,0.6,0.4c0.2,0.2,0.1,1.3,0.1,1.5C735,784.5,734.4,784.3,733.6,784.2
				z"/>
			<path class="st50" d="M747.8,787.1c-0.5-0.1-0.9-0.2-1.4-0.3c-0.8-0.2-0.9-0.6-0.8-1.2c0.3-1.8,0.6-3.6,0.9-5.5
				c0-0.3,0.3-1.5,0.1-1.7c-0.2-0.2-0.6-0.3-0.8-0.4c-1.2-0.2-2.3-0.1-3.3,0.3c-0.3,2.1-0.7,4.2-1,6.3c-0.1,0.6-0.4,0.9-1.2,0.7
				c-0.5-0.1-0.9-0.2-1.4-0.3c-0.7-0.2-0.9-0.5-0.8-1c0.7-4.3,1.4-8.6,2.1-13c0.1-0.7,0.5-0.8,1.3-0.7c0.4,0.1,0.8,0.2,1.2,0.3
				c0.6,0.1,1,0.6,0.9,1c0,0,0,0.1,0,0.1c-0.2,1.3-0.4,2.6-0.6,4c1.2-0.2,2.4-0.2,3.6,0.1c2.4,0.5,3.9,1.9,3.5,3.9
				c-0.3,2.2-0.7,4.4-1,6.6C748.9,787,748.6,787.3,747.8,787.1z"/>
		</g>
	</g>
	<path class="st50" d="M597.6,727.1c-1,0.3-1.7,1.2-1.9,2.3l0,0l-2.3,19c-0.1,0.5-0.5,0.9-1,0.8c-0.1,0-0.2,0-0.3-0.1
		c-3.9-1.8-6.2-6.1-5.7-10.6c0-0.1,0-0.3,0.1-0.4l0-0.1c0-0.1,0-0.2,0.1-0.3l0-0.1c0.1-0.3,0.1-0.5,0.2-0.8l0-0.1
		c0-0.1,0.1-0.2,0.1-0.3c0,0,0,0,0-0.1c0.1-0.3,0.2-0.5,0.3-0.8l0-0.1c0.1-0.1,0.1-0.2,0.2-0.4l0,0c0.1-0.3,0.3-0.5,0.4-0.7l0,0
		c0.1-0.2,0.3-0.5,0.5-0.7l0,0c0.1-0.1,0.2-0.2,0.2-0.3c0,0,0,0,0-0.1c0.1-0.1,0.2-0.2,0.2-0.3l0,0c0.1-0.1,0.2-0.2,0.3-0.3l0.1-0.1
		c0.4-0.4,0.8-0.8,1.2-1.1c0.2-0.1,0.4-0.3,0.6-0.4c0.5-0.3,0.7-1,0.4-1.6c0,0-0.1-0.1-0.1-0.1l-0.7-0.9c-0.3-0.5-1-0.6-1.4-0.3
		c-0.7,0.4-1.3,0.9-1.9,1.5l0,0l0,0c-0.1,0.1-0.3,0.2-0.4,0.4l0,0c-0.1,0.1-0.2,0.2-0.4,0.4l-0.1,0.1c-0.2,0.3-0.4,0.5-0.6,0.8
		l-0.1,0.1c-0.2,0.3-0.4,0.6-0.6,0.9c0,0,0,0.1-0.1,0.1c-0.1,0.1-0.2,0.3-0.3,0.4l0,0c-0.1,0.2-0.2,0.3-0.3,0.5l-0.1,0.1
		c-0.1,0.1-0.1,0.3-0.2,0.4l0,0.1c-0.1,0.2-0.1,0.3-0.2,0.5l0,0.1c-0.1,0.1-0.1,0.3-0.2,0.4c0,0,0,0.1,0,0.1
		c-0.1,0.2-0.1,0.3-0.2,0.5c0,0,0,0,0,0.1c-0.1,0.2-0.1,0.3-0.1,0.5c0,0,0,0.1,0,0.1c0,0.2-0.1,0.4-0.1,0.5c0,0,0,0,0,0.1
		c0,0.2-0.1,0.3-0.1,0.5c0,0,0,0.1,0,0.1c0,0.2,0,0.4-0.1,0.6l0,0c-0.8,6.5,2.9,12.7,8.9,14.6c0.4,0.1,0.7,0.6,0.6,1l-0.6,5.1
		c-0.1,0.5,0.3,1,0.8,1.1c0,0,0,0,0,0l1.4,0.2c0.5,0.1,0.9-0.3,1-0.8l0,0l0.6-5.1c0.1-0.4,0.4-0.8,0.8-0.8c2.6-0.2,5.2-1.2,7.2-2.9
		c0.9-0.7,1.7-1.5,2.3-2.5c4.4-6,3.4-14.6-2.3-19.1c-0.8-0.6-1.6-1.1-2.5-1.6C600.4,726.8,599,726.7,597.6,727.1z M604.4,745.3
		c-1.5,2.4-3.9,4.1-6.6,4.6c-0.5,0.1-1-0.3-1-0.8c0-0.1,0-0.2,0-0.3l2-16.7c0.1-0.9,0.9-1.5,1.7-1.4c0.2,0,0.4,0.1,0.6,0.2
		c4.7,2.8,6.2,9,3.6,13.9C604.5,745,604.4,745.1,604.4,745.3L604.4,745.3z"/>
	<path class="st32" d="M689.6,1057.7c-0.9,0.5-1.4,1.6-1.3,2.6l0,0l1.8,19c0,0.5-0.3,1-0.8,1c-0.1,0-0.2,0-0.3,0
		c-4.2-0.9-7.4-4.6-7.8-9.1c0-0.1,0-0.3,0-0.4l0-0.1c0-0.1,0-0.2,0-0.3l0-0.1c0-0.3,0-0.5,0-0.8l0-0.1c0-0.1,0-0.2,0-0.4
		c0,0,0,0,0-0.1c0-0.3,0.1-0.6,0.1-0.8l0-0.1c0-0.1,0.1-0.3,0.1-0.4l0,0c0.1-0.3,0.2-0.6,0.2-0.8l0,0c0.1-0.3,0.2-0.5,0.3-0.8l0,0
		c0.1-0.1,0.1-0.2,0.2-0.3c0,0,0,0,0-0.1c0.1-0.1,0.1-0.2,0.2-0.3l0,0c0.1-0.1,0.1-0.2,0.2-0.3l0.1-0.1c0.3-0.5,0.6-0.9,1-1.3
		c0.1-0.2,0.3-0.3,0.5-0.5c0.4-0.4,0.5-1.1,0.1-1.6c0,0-0.1-0.1-0.1-0.1l-0.9-0.8c-0.4-0.4-1.1-0.3-1.4,0.1
		c-0.6,0.6-1.1,1.2-1.5,1.9l0,0l0,0c-0.1,0.2-0.2,0.3-0.3,0.5l0,0c-0.1,0.1-0.2,0.3-0.3,0.4l0,0.1c-0.1,0.3-0.3,0.6-0.4,1l0,0.1
		c-0.1,0.3-0.3,0.7-0.4,1c0,0,0,0.1,0,0.1c-0.1,0.2-0.1,0.3-0.2,0.5l0,0c-0.1,0.2-0.1,0.3-0.1,0.5l0,0.1c0,0.2-0.1,0.3-0.1,0.5
		l0,0.1c0,0.2-0.1,0.4-0.1,0.5l0,0.1c0,0.2,0,0.3-0.1,0.5c0,0,0,0.1,0,0.1c0,0.2,0,0.4-0.1,0.6c0,0,0,0,0,0.1c0,0.2,0,0.3,0,0.5
		c0,0,0,0.1,0,0.1c0,0.2,0,0.4,0,0.5c0,0,0,0,0,0.1c0,0.2,0,0.3,0,0.5c0,0,0,0.1,0,0.1c0,0.2,0,0.4,0.1,0.6l0,0
		c0.6,6.6,5.6,11.8,11.9,12.4c0.4,0,0.8,0.4,0.8,0.9l0.5,5.1c0,0.5,0.5,0.9,1,0.9c0,0,0,0,0,0l1.4-0.1c0.5,0,0.9-0.5,0.8-1l0,0
		l-0.5-5.1c0-0.4,0.2-0.9,0.6-1c2.5-0.7,4.8-2.3,6.5-4.4c0.7-0.9,1.3-1.9,1.7-2.9c3-6.8,0.2-15-6.4-18.2c-0.9-0.4-1.8-0.8-2.8-1
		C692.2,1056.7,690.8,1056.9,689.6,1057.7z M700.1,1073.9c-0.9,2.7-2.9,4.8-5.5,5.9c-0.5,0.2-1,0-1.2-0.5c0-0.1-0.1-0.2-0.1-0.3
		l-1.6-16.7c-0.1-0.9,0.5-1.7,1.4-1.8c0.2,0,0.4,0,0.6,0.1c5.2,1.7,8.1,7.4,6.5,12.8C700.2,1073.6,700.2,1073.7,700.1,1073.9
		L700.1,1073.9z"/>
	<path class="st4" d="M592.2,752.8"/>
	<path class="st51" d="M590.5,356.9c-0.6,0.3-1,0.9-1,1.6l0,0l0,12.4c0,0.3-0.3,0.6-0.6,0.6c-0.1,0-0.1,0-0.2,0
		c-2.7-0.8-4.5-3.4-4.5-6.4c0-0.1,0-0.2,0-0.3v-0.1c0-0.1,0-0.1,0-0.2v-0.1c0-0.2,0-0.4,0.1-0.5l0-0.1c0-0.1,0-0.2,0-0.2
		c0,0,0,0,0,0c0-0.2,0.1-0.4,0.1-0.5l0,0c0-0.1,0.1-0.2,0.1-0.2l0,0c0.1-0.2,0.1-0.4,0.2-0.5l0,0c0.1-0.2,0.2-0.3,0.2-0.5v0
		c0-0.1,0.1-0.1,0.1-0.2c0,0,0,0,0,0c0-0.1,0.1-0.1,0.1-0.2l0,0c0-0.1,0.1-0.1,0.1-0.2l0-0.1c0.2-0.3,0.5-0.6,0.7-0.8
		c0.1-0.1,0.2-0.2,0.3-0.3c0.3-0.2,0.4-0.7,0.1-1c0,0,0-0.1-0.1-0.1l-0.5-0.5c-0.3-0.3-0.7-0.3-0.9-0.1c-0.4,0.3-0.8,0.7-1.1,1.1
		l0,0l0,0c-0.1,0.1-0.1,0.2-0.2,0.3l0,0c-0.1,0.1-0.1,0.2-0.2,0.3l0,0c-0.1,0.2-0.2,0.4-0.3,0.6l0,0.1c-0.1,0.2-0.2,0.4-0.3,0.6
		c0,0,0,0,0,0.1c0,0.1-0.1,0.2-0.1,0.3l0,0c0,0.1-0.1,0.2-0.1,0.3l0,0.1c0,0.1-0.1,0.2-0.1,0.3l0,0c0,0.1-0.1,0.2-0.1,0.3l0,0.1
		c0,0.1,0,0.2-0.1,0.3c0,0,0,0,0,0.1c0,0.1,0,0.2-0.1,0.4c0,0,0,0,0,0c0,0.1,0,0.2-0.1,0.3c0,0,0,0.1,0,0.1c0,0.1,0,0.2,0,0.4
		c0,0,0,0,0,0c0,0.1,0,0.2,0,0.3c0,0,0,0.1,0,0.1c0,0.1,0,0.2,0,0.4h0c0,4.3,2.9,8,6.9,8.7c0.3,0.1,0.5,0.3,0.5,0.6v3.4
		c0,0.3,0.3,0.6,0.6,0.6c0,0,0,0,0,0h0.9c0.3,0,0.6-0.3,0.6-0.6l0,0v-3.4c0-0.3,0.2-0.5,0.5-0.6c1.7-0.3,3.2-1.2,4.4-2.5
		c0.5-0.5,0.9-1.1,1.3-1.8c2.4-4.2,1-9.7-3-12.2c-0.5-0.3-1.1-0.6-1.7-0.8C592.3,356.5,591.3,356.5,590.5,356.9z M596.3,368.1
		c-0.8,1.7-2.2,3-3.9,3.5c-0.3,0.1-0.6-0.1-0.7-0.4c0-0.1,0-0.1,0-0.2v-10.9c0-0.6,0.5-1.1,1-1.1c0.1,0,0.3,0,0.4,0.1
		c3.2,1.4,4.7,5.3,3.4,8.7C596.4,367.9,596.3,368,596.3,368.1L596.3,368.1z"/>
	<path class="st4" d="M380.2,848.1"/>
	<path class="st4" d="M419.7,858.6"/>
	<line class="st4" x1="392.9" y1="851.9" x2="393.5" y2="850.3"/>
	<path class="st4" d="M339.6,850.3"/>
	<path class="st6" d="M310.3,1047.1c-0.5,0.2-0.8,0.7-0.8,1.2l0,0l0,9.5c0,0.3-0.2,0.5-0.5,0.5c0,0-0.1,0-0.1,0
		c-2.1-0.6-3.6-2.6-3.6-4.8c0-0.1,0-0.1,0-0.2v-0.1c0-0.1,0-0.1,0-0.2v0c0-0.1,0-0.3,0.1-0.4l0,0c0-0.1,0-0.1,0-0.2c0,0,0,0,0,0
		c0-0.1,0.1-0.3,0.1-0.4l0,0c0-0.1,0-0.1,0.1-0.2l0,0c0.1-0.1,0.1-0.3,0.2-0.4l0,0c0.1-0.1,0.1-0.3,0.2-0.4v0c0-0.1,0.1-0.1,0.1-0.2
		c0,0,0,0,0,0c0,0,0.1-0.1,0.1-0.1l0,0c0-0.1,0.1-0.1,0.1-0.2l0,0c0.2-0.2,0.4-0.4,0.6-0.6c0.1-0.1,0.2-0.2,0.3-0.2
		c0.2-0.2,0.3-0.5,0.1-0.8c0,0,0,0,0-0.1l-0.4-0.4c-0.2-0.2-0.5-0.2-0.8,0c-0.3,0.3-0.6,0.5-0.9,0.9l0,0l0,0
		c-0.1,0.1-0.1,0.1-0.2,0.2l0,0c-0.1,0.1-0.1,0.1-0.2,0.2l0,0c-0.1,0.1-0.2,0.3-0.3,0.5l0,0c-0.1,0.2-0.2,0.3-0.3,0.5c0,0,0,0,0,0
		c0,0.1-0.1,0.2-0.1,0.2l0,0c0,0.1-0.1,0.2-0.1,0.3l0,0.1c0,0.1-0.1,0.2-0.1,0.2l0,0c0,0.1-0.1,0.2-0.1,0.3l0,0c0,0.1,0,0.1-0.1,0.2
		c0,0,0,0,0,0.1c0,0.1,0,0.2-0.1,0.3c0,0,0,0,0,0c0,0.1,0,0.2,0,0.2c0,0,0,0,0,0.1c0,0.1,0,0.2,0,0.3c0,0,0,0,0,0c0,0.1,0,0.2,0,0.2
		c0,0,0,0,0,0.1c0,0.1,0,0.2,0,0.3h0c0,3.3,2.3,6.1,5.5,6.7c0.2,0,0.4,0.2,0.4,0.5v2.6c0,0.3,0.2,0.5,0.5,0.5c0,0,0,0,0,0h0.8
		c0.3,0,0.5-0.2,0.5-0.5l0,0v-2.6c0-0.2,0.2-0.4,0.4-0.5c1.3-0.2,2.6-0.9,3.6-1.9c0.4-0.4,0.8-0.9,1-1.4c1.9-3.2,0.8-7.4-2.4-9.3
		c-0.4-0.3-0.9-0.5-1.4-0.6C311.7,1046.8,311,1046.8,310.3,1047.1z M314.9,1055.6c-0.6,1.3-1.8,2.2-3.1,2.7
		c-0.2,0.1-0.5-0.1-0.6-0.3c0,0,0-0.1,0-0.1v-8.3c0-0.4,0.4-0.8,0.8-0.8c0.1,0,0.2,0,0.3,0.1c2.6,1.1,3.8,4,2.7,6.6
		C315,1055.5,315,1055.6,314.9,1055.6L314.9,1055.6z"/>
	<path class="st8" d="M335.2,1029.5c-0.2,0.2-0.2,0.5-0.1,0.7l0,0l1.8,4.4c0,0.1,0,0.3-0.1,0.3c0,0,0,0-0.1,0
		c-1.1,0.1-2.2-0.5-2.6-1.6c0,0,0-0.1,0-0.1l0,0c0,0,0,0,0-0.1l0,0c0-0.1,0-0.1,0-0.2l0,0c0,0,0-0.1,0-0.1c0,0,0,0,0,0
		c0-0.1,0-0.1,0-0.2l0,0c0,0,0-0.1,0-0.1l0,0c0-0.1,0-0.1,0-0.2l0,0c0-0.1,0-0.1,0-0.2l0,0c0,0,0-0.1,0-0.1c0,0,0,0,0,0
		c0,0,0-0.1,0-0.1l0,0c0,0,0-0.1,0-0.1l0,0c0-0.1,0.1-0.3,0.1-0.4c0-0.1,0.1-0.1,0.1-0.2c0.1-0.1,0-0.3-0.1-0.4c0,0,0,0,0,0
		l-0.3-0.1c-0.1-0.1-0.3,0-0.4,0.1c-0.1,0.2-0.2,0.4-0.3,0.6l0,0l0,0c0,0,0,0.1,0,0.1l0,0c0,0,0,0.1,0,0.1l0,0c0,0.1,0,0.2,0,0.3
		l0,0c0,0.1,0,0.2,0,0.3c0,0,0,0,0,0c0,0,0,0.1,0,0.1l0,0c0,0,0,0.1,0,0.1l0,0c0,0,0,0.1,0,0.1l0,0c0,0,0,0.1,0,0.1l0,0
		c0,0,0,0.1,0,0.1c0,0,0,0,0,0c0,0,0,0.1,0,0.1c0,0,0,0,0,0c0,0,0,0.1,0,0.1c0,0,0,0,0,0c0,0,0,0.1,0,0.1c0,0,0,0,0,0
		c0,0,0,0.1,0,0.1c0,0,0,0,0,0c0,0,0,0.1,0.1,0.1l0,0c0.6,1.5,2.2,2.4,3.8,2.1c0.1,0,0.2,0,0.3,0.1l0.5,1.2c0,0.1,0.2,0.2,0.3,0.1
		c0,0,0,0,0,0l0.4-0.1c0.1,0,0.2-0.2,0.1-0.3l0,0l-0.5-1.2c0-0.1,0-0.2,0.1-0.3c0.6-0.4,1-0.9,1.3-1.5c0.1-0.3,0.2-0.5,0.2-0.8
		c0.3-1.8-1-3.6-2.8-3.9c-0.2,0-0.5,0-0.8,0C335.8,1029.1,335.4,1029.3,335.2,1029.5z M338.9,1032.6c-0.1,0.7-0.4,1.4-1,1.8
		c-0.1,0.1-0.2,0.1-0.3,0c0,0,0,0,0-0.1l-1.5-3.9c-0.1-0.2,0-0.4,0.2-0.5c0,0,0.1,0,0.2,0c1.4,0,2.5,1.2,2.5,2.6
		C338.9,1032.5,338.9,1032.6,338.9,1032.6L338.9,1032.6z"/>
	<path class="st8" d="M370.4,1017.9c-0.2,0.2-0.3,0.5-0.2,0.7l0,0l1.3,4.6c0,0.1,0,0.3-0.2,0.3c0,0,0,0-0.1,0
		c-1.1,0-2.1-0.8-2.4-1.8c0,0,0-0.1,0-0.1l0,0c0,0,0-0.1,0-0.1l0,0c0-0.1,0-0.1,0-0.2l0,0c0,0,0-0.1,0-0.1c0,0,0,0,0,0
		c0-0.1,0-0.1,0-0.2l0,0c0,0,0-0.1,0-0.1l0,0c0-0.1,0-0.1,0-0.2l0,0c0-0.1,0-0.1,0-0.2l0,0c0,0,0-0.1,0-0.1c0,0,0,0,0,0
		c0,0,0-0.1,0-0.1l0,0c0,0,0-0.1,0-0.1l0,0c0.1-0.1,0.1-0.3,0.2-0.4c0-0.1,0.1-0.1,0.1-0.1c0.1-0.1,0.1-0.3-0.1-0.4c0,0,0,0,0,0
		l-0.3-0.1c-0.1-0.1-0.3,0-0.4,0.1c-0.1,0.2-0.2,0.3-0.3,0.5l0,0l0,0c0,0,0,0.1-0.1,0.1l0,0c0,0,0,0.1,0,0.1l0,0
		c0,0.1,0,0.2-0.1,0.3l0,0c0,0.1,0,0.2-0.1,0.3c0,0,0,0,0,0c0,0,0,0.1,0,0.1l0,0c0,0,0,0.1,0,0.1l0,0c0,0,0,0.1,0,0.1l0,0
		c0,0,0,0.1,0,0.1l0,0c0,0,0,0.1,0,0.1c0,0,0,0,0,0c0,0,0,0.1,0,0.1c0,0,0,0,0,0c0,0,0,0.1,0,0.1c0,0,0,0,0,0c0,0,0,0.1,0,0.1
		c0,0,0,0,0,0c0,0,0,0.1,0,0.1c0,0,0,0,0,0c0,0,0,0.1,0,0.1l0,0c0.4,1.6,2,2.6,3.6,2.4c0.1,0,0.2,0.1,0.3,0.2l0.4,1.2
		c0,0.1,0.2,0.2,0.3,0.2c0,0,0,0,0,0l0.4-0.1c0.1,0,0.2-0.2,0.2-0.3l0,0l-0.4-1.2c0-0.1,0-0.2,0.1-0.3c0.6-0.3,1.1-0.8,1.5-1.4
		c0.1-0.3,0.2-0.5,0.3-0.8c0.5-1.8-0.6-3.7-2.4-4.1c-0.2-0.1-0.5-0.1-0.7-0.1C371,1017.5,370.6,1017.6,370.4,1017.9z M373.8,1021.3
		c-0.1,0.7-0.5,1.3-1.1,1.7c-0.1,0.1-0.3,0-0.3-0.1c0,0,0,0,0-0.1l-1.1-4c-0.1-0.2,0.1-0.4,0.3-0.5c0.1,0,0.1,0,0.2,0
		c1.4,0.2,2.4,1.4,2.2,2.8C373.8,1021.2,373.8,1021.3,373.8,1021.3L373.8,1021.3z"/>
	<g>
		<g>
			<path class="st48" d="M929.1,785.8c-0.1,0-0.2,0-0.4,0c-0.2,0-0.3,0-0.5,0.1c-0.1,0-0.3,0.1-0.3,0.2c-0.1,0.2,0,1.1,0.1,1.3
				c0.3-0.1,0.6-0.1,1-0.2c0.2,0,0.3,0,0.4,0.3c0,0.2,0,0.3,0,0.5c0,0.4,0,0.5-0.3,0.6c-0.3,0.1-0.6,0.1-0.9,0.2
				c0.1,1.4,0.3,2.9,0.4,4.3c0,0.3,0,0.6-0.3,0.7c-0.2,0-0.4,0.1-0.6,0.1c-0.3,0.1-0.3-0.2-0.3-0.5c-0.1-1.5-0.3-2.9-0.4-4.4
				c-0.1,0-0.2,0-0.3,0.1c-0.2,0-0.3-0.2-0.3-0.4c0-0.2,0-0.4-0.1-0.6c0-0.5,0.2-0.4,0.5-0.5c0-0.2,0-0.4,0-0.5
				c0-0.5-0.1-1.1,0.1-1.6c0.3-0.8,1-1,1.6-1.1c0.2,0,0.7-0.1,0.8,0.1c0,0.1,0.1,0.2,0.1,0.3c0,0,0,0.1,0,0.1
				C929.4,785.2,929.4,785.8,929.1,785.8z M931.1,785.9c-0.1,0-0.2,0-0.4,0.1c-0.3,0.1-0.5,0-0.6-0.5c0-0.2,0-0.3,0-0.5
				c0-0.4,0.1-0.6,0.4-0.7c0.2,0,0.3-0.1,0.5-0.1c0.2,0,0.4,0.2,0.4,0.4c0,0,0,0.1,0,0.1c0,0.2,0,0.3,0,0.5
				C931.5,785.6,931.4,785.8,931.1,785.9z M931.8,793.2c-0.1,0-0.2,0-0.4,0.1c-0.3,0.1-0.5,0-0.6-0.5c-0.2-1.7-0.3-3.4-0.5-5.2
				c0-0.4,0.1-0.6,0.4-0.7c0.2,0,0.3,0,0.5-0.1c0.2,0,0.4,0.2,0.4,0.4c0,0,0,0.1,0,0.1c0.2,1.7,0.3,3.4,0.5,5.2
				C932.2,792.9,932.1,793.1,931.8,793.2L931.8,793.2z"/>
			<path class="st48" d="M935.3,792.9c-0.5,0.1-0.9,0.1-1.4,0.1c-0.3,0-0.3-0.2-0.3-0.6c0-0.1,0-0.2,0-0.2c0-0.3,0-0.6,0.2-0.6
				c0.2,0,0.3,0,0.5,0c0.3,0,0.7,0,1-0.1c0.3,0,0.5-0.1,0.4-0.5c0-0.2,0-0.3-0.1-0.4c-0.1-0.1-1-0.3-1.1-0.4
				c-0.2-0.1-0.4-0.1-0.6-0.2c-0.5-0.3-0.8-0.6-0.8-1.4c-0.2-2,0.8-2.2,2-2.3c0.2,0,0.5-0.1,0.7-0.1c0.4,0,0.5,0.1,0.5,0.6
				c0,0.4,0.1,0.8-0.3,0.9c-0.2,0-0.3,0-0.5,0c-0.3,0-0.5,0-0.8,0c-0.4,0-0.6,0-0.5,0.6c0,0.1,0,0.2,0.1,0.3
				c0.1,0.2,1.1,0.4,1.3,0.5c0.8,0.3,1.2,0.6,1.3,1.8C937.1,792.5,936.5,792.8,935.3,792.9z"/>
			<path class="st48" d="M938.6,785c-0.1,0-0.2,0-0.4,0c-0.3,0-0.5,0-0.6-0.6c0-0.2,0-0.3,0-0.5c0-0.4,0.1-0.6,0.4-0.6
				c0.2,0,0.3,0,0.5,0c0.2,0,0.4,0.2,0.4,0.5c0,0,0,0,0,0.1c0,0.2,0,0.3,0,0.5C939,784.7,938.9,784.9,938.6,785z M939.3,792.4
				c-0.1,0-0.2,0-0.4,0c-0.3,0-0.5,0-0.6-0.6c-0.2-1.7-0.3-3.5-0.5-5.2c0-0.4,0.1-0.6,0.4-0.6c0.2,0,0.3,0,0.5,0
				c0.2,0,0.4,0.2,0.4,0.5c0,0,0,0,0,0.1c0.2,1.7,0.3,3.5,0.5,5.3C939.6,792.1,939.6,792.3,939.3,792.4
				C939.3,792.4,939.3,792.4,939.3,792.4z"/>
			<path class="st48" d="M943.9,792.2c-0.3,0.1-0.5,0.1-0.8,0.1c-1.9,0.1-2.3-0.8-2.5-3.3c-0.2-2.5,0-3.5,1.9-3.6c0.3,0,0.5,0,0.8,0
				c0.3,0,0.5,0,0.6,0.4c0,0,0,0,0,0c0,0.3,0.1,1.1-0.3,1.1c-0.1,0-0.3,0-0.4,0c-0.3,0-0.6-0.1-0.9-0.1c-0.4,0-0.5,0.1-0.5,0.7
				c0,0.4,0,0.9,0,1.4c0,0.4,0.1,0.9,0.2,1.3c0.1,0.6,0.2,0.7,0.7,0.6c0.3,0,0.6-0.1,0.9-0.2c0.1,0,0.2-0.1,0.4-0.1
				c0.1,0,0.2,0,0.2,0.1c0.1,0.1,0.2,0.8,0.2,0.9C944.5,792.2,944.2,792.1,943.9,792.2z"/>
			<path class="st48" d="M949.1,791.9c-0.2,0-0.4,0-0.5,0c-0.2,0-0.3-0.2-0.3-0.5c-0.4,0.4-0.9,0.7-1.4,0.7c-0.9,0-1.4-0.7-1.6-2
				c-0.1-1.5,0.5-2,1.4-2.2c0.4-0.1,0.8-0.1,1.2-0.2c0-0.5-0.1-1.3-0.6-1.3c-0.5,0-0.9,0.2-1.4,0.3c-0.1,0-0.1,0-0.2,0.1
				c-0.3,0-0.3-0.5-0.4-0.8c-0.1-0.3,0-0.5,0.2-0.6c0.5-0.2,1-0.3,1.6-0.3c0.5,0,1.1,0.1,1.4,0.6c0.4,0.6,0.5,1.4,0.6,2.2
				c0.1,1.1,0.2,2.2,0.3,3.3C949.4,791.7,949.4,791.9,949.1,791.9z M948,789c-0.2,0-0.3,0-0.5,0c-0.2,0-0.4,0-0.6,0.1
				c-0.4,0.1-0.5,0.3-0.5,0.9c0,0.3,0.1,0.9,0.4,0.9c0.5,0,0.9-0.3,1.2-0.7C948.1,789.8,948,789.4,948,789z"/>
			<path class="st48" d="M951.6,791.8c-0.1,0-0.2,0-0.3,0c-0.3,0-0.5-0.1-0.6-0.6c-0.2-2.7-0.5-5.5-0.7-8.2c0-0.4,0.1-0.6,0.4-0.6
				c0.1,0,0.3,0,0.4,0c0.2,0,0.4,0.2,0.4,0.5c0,0,0,0.1,0,0.1c0.2,2.7,0.5,5.5,0.7,8.2C952,791.6,951.9,791.8,951.6,791.8z"/>
			<path class="st48" d="M956.3,791.8c-0.3,0-0.5,0.1-0.8,0.1c-1.9,0.1-2.3-0.9-2.5-3.4c-0.2-2.6,0-3.5,1.9-3.6c0.3,0,0.6,0,0.8,0
				c0.3,0,0.5,0,0.6,0.4c0,0,0,0,0,0c0,0.3,0.1,1.1-0.3,1.1c-0.1,0-0.3,0-0.4,0c-0.3-0.1-0.6-0.1-0.9-0.1c-0.4,0-0.5,0.1-0.5,0.7
				c0,0.5,0,0.9,0,1.4c0,0.4,0.1,0.9,0.2,1.3c0.1,0.6,0.2,0.7,0.7,0.7c0.3,0,0.6-0.1,0.9-0.1c0.1,0,0.2-0.1,0.4-0.1
				c0.1,0,0.2,0,0.2,0.1c0.1,0.1,0.2,0.8,0.2,0.9C956.8,791.8,956.5,791.7,956.3,791.8z"/>
			<path class="st48" d="M960.1,791.7c-1.6,0.1-2.3-1.2-2.5-3.4c-0.2-2.2,0.3-3.5,1.9-3.6c1.6-0.1,2.3,1.2,2.5,3.4
				C962.2,790.2,961.7,791.6,960.1,791.7z M960.4,786.5c-0.2-0.4-0.5-0.4-0.8-0.4c-0.3,0-0.6,0-0.8,0.5c-0.1,0.5-0.1,1.1-0.1,1.6
				c0,0.5,0.1,1.2,0.3,1.6c0.2,0.4,0.5,0.4,0.8,0.4c0.3,0,0.6,0,0.8-0.5c0.1-0.5,0.1-1.1,0-1.6C960.7,787.7,960.6,787,960.4,786.5
				C960.4,786.5,960.4,786.5,960.4,786.5z"/>
			<path class="st48" d="M966.9,791c-0.2,0-0.4,0-0.5,0.1c-0.2,0-0.3-0.2-0.3-0.5c-0.4,0.5-0.9,0.7-1.4,0.8c-0.9,0.1-1.4-0.6-1.6-2
				c-0.1-1.5,0.5-2.1,1.4-2.3c0.4-0.1,0.8-0.2,1.2-0.2c0-0.6-0.1-1.3-0.6-1.3c-0.5,0.1-0.9,0.2-1.4,0.4c-0.1,0-0.1,0.1-0.2,0.1
				c-0.3,0-0.3-0.5-0.4-0.8c-0.1-0.3,0-0.5,0.2-0.6c0.5-0.2,1-0.4,1.6-0.4c0.5,0,1.1,0,1.4,0.5c0.4,0.6,0.5,1.4,0.6,2.2
				c0.1,1.1,0.2,2.2,0.3,3.4C967.3,790.8,967.2,791,966.9,791z M965.8,788.1c-0.2,0-0.3,0-0.5,0c-0.2,0-0.4,0-0.6,0.1
				c-0.4,0.1-0.5,0.3-0.5,0.9c0,0.3,0.1,0.9,0.4,0.9c0.5-0.1,0.9-0.4,1.2-0.8C965.9,788.9,965.9,788.5,965.8,788.1z"/>
			<path class="st48" d="M971.5,790.5c-0.3,0.1-0.5,0.1-0.8,0.2c-1.9,0.3-2.3-0.6-2.5-3.2c-0.2-2.6,0-3.6,1.9-3.8
				c0.3,0,0.5-0.1,0.8-0.1c0.3,0,0.5-0.1,0.6,0.4c0,0,0,0,0,0c0,0.3,0.1,1.1-0.3,1.1c-0.1,0-0.3,0-0.4,0c-0.3,0-0.6,0-0.9,0
				c-0.4,0.1-0.5,0.2-0.5,0.7c0,0.5,0,0.9,0,1.4c0,0.4,0.1,0.9,0.2,1.3c0.1,0.6,0.2,0.7,0.7,0.6c0.3-0.1,0.6-0.1,0.9-0.2
				c0.1-0.1,0.2-0.1,0.4-0.1c0.1,0,0.2,0,0.2,0.1c0.1,0.1,0.2,0.8,0.2,0.9C972,790.4,971.8,790.4,971.5,790.5z"/>
			<path class="st48" d="M976.7,789.4c-0.2,0-0.3,0.1-0.5,0.1c-0.3,0.1-0.4-0.2-0.4-0.5c-0.1-1.2-0.2-2.4-0.3-3.6
				c0-0.2-0.1-1-0.2-1.1c-0.1-0.1-0.2-0.1-0.3,0c-0.4,0.1-0.8,0.4-1.1,0.9c0.1,1.4,0.2,2.8,0.4,4.1c0,0.4,0,0.6-0.3,0.7
				c-0.2,0-0.3,0.1-0.5,0.1c-0.3,0-0.4-0.1-0.4-0.5c-0.2-2.8-0.5-5.6-0.7-8.4c0-0.4,0.1-0.6,0.4-0.7c0.1,0,0.3-0.1,0.4-0.1
				c0.2,0,0.4,0.1,0.4,0.4c0,0,0,0.1,0,0.1c0.1,0.9,0.1,1.7,0.2,2.6c0.4-0.4,0.8-0.6,1.3-0.7c0.9-0.2,1.5,0.3,1.7,1.6
				c0.1,1.4,0.2,2.8,0.4,4.3C977.1,789.1,977,789.3,976.7,789.4z"/>
		</g>
	</g>
	<path class="st4" d="M360.3,760.8c-52.5-14.7-82.6-50.3-92.7-64.3c0.6,3,1.2,5.9,1.7,8.7c13.7,16.9,43.4,46.6,90.7,59.6"/>
	<path class="st4" d="M361.7,732.7c-43.8-9.2-86.7-67.7-104.1-94.1c0.3,3,0.7,5.9,1.1,8.9c6.1,9,14.2,20.1,23.6,31.3
		c28.2,33.7,54.9,53.2,79.2,58"/>
	<g>
		<g>
			<path class="st6" d="M280,687c-0.1-0.2-0.2-0.4-0.3-0.6c-0.1-0.2-0.3-0.5-0.5-0.7c-0.1-0.1-0.3-0.4-0.6-0.3
				c-0.4,0.1-1.4,1.1-1.7,1.3c0.4,0.4,0.7,0.9,1.1,1.3c0.2,0.3,0.3,0.5-0.1,0.8c-0.2,0.2-0.4,0.4-0.6,0.5c-0.5,0.4-0.7,0.4-1,0
				c-0.4-0.4-0.7-0.8-1.1-1.3c-1.8,1.5-3.6,2.9-5.5,4.3c-0.4,0.3-0.8,0.5-1.2,0.1c-0.2-0.3-0.5-0.6-0.7-0.8
				c-0.3-0.4-0.1-0.6,0.3-0.9c1.9-1.4,3.8-2.9,5.6-4.3c-0.1-0.1-0.2-0.3-0.3-0.4c-0.2-0.3,0-0.5,0.3-0.8c0.2-0.2,0.5-0.4,0.7-0.6
				c0.6-0.5,0.8,0,1,0.3c0.2-0.2,0.4-0.4,0.7-0.5c0.7-0.6,1.3-1.1,2.2-1.3c1.3-0.2,2.1,0.6,2.8,1.4c0.2,0.2,0.8,0.9,0.6,1.3
				c-0.1,0.1-0.2,0.3-0.3,0.4c0,0-0.1,0.1-0.1,0.1C281.1,686.7,280.3,687.4,280,687z M281.9,690c-0.1-0.2-0.3-0.3-0.4-0.5
				c-0.4-0.5-0.5-0.7,0.1-1.3c0.2-0.2,0.4-0.3,0.6-0.5c0.5-0.4,0.8-0.5,1.2-0.1c0.2,0.2,0.4,0.4,0.5,0.6c0.3,0.3,0.2,0.7-0.1,1
				c0,0-0.1,0.1-0.1,0.1c-0.2,0.2-0.4,0.3-0.6,0.5C282.6,690.3,282.2,690.4,281.9,690z M272.7,697.5c-0.1-0.2-0.3-0.3-0.4-0.5
				c-0.4-0.5-0.5-0.8,0.2-1.3c2.2-1.7,4.4-3.5,6.5-5.2c0.5-0.4,0.9-0.4,1.2,0c0.2,0.2,0.4,0.4,0.5,0.6c0.3,0.3,0.2,0.7-0.1,1
				c0,0-0.1,0.1-0.1,0.1c-2.1,1.8-4.3,3.6-6.5,5.3C273.5,697.8,273.1,697.9,272.7,697.5L272.7,697.5z"/>
			<path class="st6" d="M276.8,702.4c-0.6-0.6-1.1-1.3-1.6-2c-0.3-0.4,0-0.6,0.5-1c0.1-0.1,0.2-0.2,0.3-0.2c0.4-0.3,0.8-0.6,1.1-0.2
				c0.2,0.2,0.4,0.5,0.5,0.8c0.4,0.5,0.7,1,1.2,1.4c0.4,0.5,0.6,0.6,1.2,0.1c0.2-0.1,0.4-0.3,0.5-0.5c0.1-0.2-0.6-1.7-0.7-2
				c-0.1-0.3-0.2-0.7-0.3-1.1c-0.2-1,0.1-1.7,1-2.5c2.5-2.1,3.7-0.8,5.2,0.7c0.3,0.3,0.6,0.6,0.9,1c0.4,0.5,0.5,0.8-0.2,1.3
				c-0.5,0.4-1,0.9-1.5,0.4c-0.2-0.2-0.4-0.5-0.6-0.7c-0.3-0.4-0.6-0.7-0.9-1.1c-0.5-0.5-0.6-0.8-1.4-0.2c-0.1,0.1-0.2,0.2-0.3,0.3
				c-0.1,0.3,0.6,1.9,0.8,2.2c0.5,1.4,0.6,2.2-0.9,3.4C279.4,704.6,278.2,704,276.8,702.4z"/>
			<path class="st6" d="M291.2,699.7c-0.2-0.2-0.3-0.3-0.5-0.5c-0.5-0.4-0.6-0.7,0.1-1.3c0.2-0.2,0.4-0.3,0.6-0.5
				c0.5-0.5,0.9-0.5,1.2-0.1c0.2,0.2,0.4,0.4,0.6,0.6c0.3,0.3,0.2,0.7-0.1,1c0,0-0.1,0-0.1,0.1c-0.2,0.2-0.4,0.3-0.6,0.5
				C292,699.9,291.6,700,291.2,699.7z M282.1,707.5c-0.2-0.2-0.3-0.3-0.5-0.5c-0.5-0.5-0.6-0.7,0.1-1.3c2.2-1.8,4.4-3.7,6.5-5.5
				c0.5-0.5,0.9-0.5,1.3-0.1c0.2,0.2,0.4,0.4,0.6,0.6c0.3,0.3,0.2,0.7-0.1,1c0,0-0.1,0-0.1,0.1c-2.1,1.9-4.3,3.7-6.5,5.6
				C282.9,707.8,282.5,707.9,282.1,707.5L282.1,707.5z"/>
			<path class="st6" d="M288.3,713.7c-0.4-0.3-0.8-0.6-1.2-1c-2.6-2.4-1.8-3.8,1.3-6.5c3.1-2.7,4.6-3.3,7.2-1c0.4,0.3,0.7,0.7,1,1.1
				c0.4,0.4,0.7,0.7,0.2,1.2c0,0,0,0,0,0c-0.4,0.4-1.3,1.2-1.8,0.7c-0.2-0.2-0.3-0.3-0.5-0.5c-0.3-0.4-0.7-0.9-1.1-1.2
				c-0.6-0.5-0.8-0.5-1.5,0c-0.6,0.4-1.2,0.9-1.8,1.4c-0.5,0.5-1.1,0.9-1.6,1.4c-0.7,0.7-0.6,1,0,1.5c0.4,0.4,0.9,0.7,1.4,1.1
				c0.2,0.1,0.4,0.3,0.6,0.4c0.1,0.1,0.2,0.3,0.2,0.4c0,0.2-0.8,1-1,1.1C289.1,714.3,288.8,714,288.3,713.7z"/>
			<path class="st6" d="M295.8,720c-0.3-0.2-0.5-0.4-0.8-0.7c-0.3-0.3-0.2-0.6,0.2-0.9c-1.1-0.1-2.1-0.4-2.9-1.1
				c-1.4-1.2-1.1-2.5,0.6-3.9c1.8-1.6,3.3-1.4,4.8-0.4c0.7,0.4,1.3,0.9,1.9,1.4c0.7-0.6,1.6-1.4,0.9-2c-0.7-0.5-1.5-1-2.3-1.4
				c-0.1-0.1-0.3-0.1-0.4-0.2c-0.5-0.4,0.2-0.9,0.6-1.2c0.3-0.3,0.7-0.5,1.1-0.3c0.9,0.4,1.8,1,2.6,1.6c0.7,0.6,1.4,1.4,1.3,2.4
				c-0.2,1.1-1.2,2.1-2.1,2.9c-1.3,1.2-2.7,2.5-4.1,3.7C296.6,720.3,296.2,720.4,295.8,720z M298.2,715.8c-0.2-0.2-0.4-0.4-0.7-0.6
				c-0.3-0.3-0.6-0.5-0.9-0.7c-0.7-0.4-1.1-0.4-1.9,0.2c-0.4,0.4-1.1,1-0.6,1.4c0.7,0.6,1.7,0.9,2.7,0.9
				C297.3,716.7,297.7,716.3,298.2,715.8z"/>
			<path class="st6" d="M299.6,723.2c-0.2-0.1-0.3-0.3-0.5-0.4c-0.5-0.4-0.7-0.7,0-1.3c3.4-3,6.6-6.2,9.8-9.3
				c0.5-0.5,0.9-0.5,1.3-0.2c0.2,0.2,0.4,0.3,0.6,0.5c0.3,0.2,0.3,0.7,0,1c0,0-0.1,0.1-0.1,0.1c-3.1,3.2-6.4,6.3-9.8,9.4
				C300.5,723.4,300.1,723.5,299.6,723.2z"/>
			<path class="st6" d="M306.6,728.8c-0.5-0.3-0.9-0.6-1.4-0.9c-3-2.2-2.2-3.6,0.8-6.5c3.1-2.9,4.6-3.6,7.5-1.5
				c0.4,0.3,0.8,0.6,1.2,1c0.4,0.4,0.8,0.6,0.3,1.1c0,0,0,0,0,0c-0.4,0.4-1.3,1.3-1.8,0.9c-0.2-0.1-0.4-0.3-0.5-0.5
				c-0.4-0.4-0.8-0.8-1.3-1.2c-0.6-0.5-0.9-0.4-1.6,0.1c-0.6,0.5-1.2,1-1.8,1.5c-0.5,0.5-1,1-1.5,1.6c-0.7,0.8-0.5,1,0.1,1.5
				c0.5,0.3,1,0.7,1.6,0.9c0.2,0.1,0.5,0.2,0.7,0.4c0.2,0.1,0.2,0.2,0.2,0.4c0,0.2-0.8,1-1,1.2C307.5,729.4,307.2,729.1,306.6,728.8
				z"/>
			<path class="st6" d="M312.7,733.2c-2.6-1.8-2-4.1,0.6-6.6c2.6-2.5,5-3.5,7.7-1.7c2.6,1.7,2.1,4-0.4,6.6
				C318,734.1,315.3,735,312.7,733.2z M320.1,728c0.2-0.7-0.2-1-0.8-1.4c-0.5-0.4-1-0.7-1.8-0.3c-0.8,0.3-1.6,1.1-2.2,1.7
				c-0.6,0.6-1.4,1.4-1.6,2.1c-0.2,0.7,0.3,1,0.8,1.4c0.5,0.4,1,0.7,1.8,0.4c0.8-0.3,1.6-1.2,2.2-1.7
				C319,729.6,319.8,728.8,320.1,728C320.1,728,320.1,728,320.1,728z"/>
			<path class="st6" d="M324.5,740.4c-0.3-0.2-0.6-0.4-0.9-0.6c-0.4-0.2-0.2-0.5,0.1-0.9c-1.2,0.1-2.4-0.2-3.3-0.7
				c-1.6-1-1.4-2.4,0.1-4c1.8-1.8,3.4-1.8,5.2-1c0.8,0.3,1.5,0.7,2.2,1.1c0.6-0.7,1.6-1.6,0.7-2.1c-0.8-0.5-1.7-0.8-2.7-1.1
				c-0.2,0-0.3-0.1-0.4-0.2c-0.6-0.4,0.1-0.9,0.5-1.3c0.3-0.4,0.7-0.6,1.1-0.4c1.1,0.3,2.1,0.7,3,1.3c0.8,0.5,1.7,1.2,1.7,2.2
				c0,1.1-1,2.2-1.9,3.2c-1.3,1.4-2.6,2.8-4,4.2C325.4,740.6,325,740.8,324.5,740.4z M326.5,736c-0.3-0.2-0.5-0.4-0.8-0.5
				c-0.3-0.2-0.7-0.4-1.1-0.6c-0.8-0.3-1.3-0.3-2,0.5c-0.4,0.4-1,1.2-0.5,1.5c0.8,0.5,1.9,0.7,3,0.5
				C325.7,736.9,326.1,736.5,326.5,736z"/>
			<path class="st6" d="M332.4,745.3c-0.5-0.2-1.1-0.5-1.5-0.7c-3.4-1.9-2.8-3.4,0.2-6.6c3-3.2,4.6-4.1,7.9-2.3
				c0.5,0.3,0.9,0.5,1.4,0.9c0.5,0.3,0.9,0.5,0.4,1.1c0,0,0,0,0,0c-0.4,0.4-1.2,1.4-1.8,1.1c-0.2-0.1-0.4-0.3-0.6-0.4
				c-0.5-0.4-1-0.7-1.5-1c-0.7-0.4-1-0.3-1.7,0.3c-0.6,0.5-1.2,1.1-1.7,1.7c-0.5,0.6-1,1.1-1.5,1.7c-0.7,0.8-0.5,1.1,0.3,1.5
				c0.6,0.3,1.2,0.6,1.8,0.8c0.3,0.1,0.5,0.2,0.7,0.3c0.2,0.1,0.3,0.2,0.3,0.4c0,0.2-0.7,1.1-0.9,1.3
				C333.4,745.8,333,745.5,332.4,745.3z"/>
			<path class="st6" d="M342.2,750.1c-0.3-0.2-0.6-0.3-1-0.5c-0.5-0.3-0.3-0.7,0.1-1.1c1.4-1.5,2.8-3.1,4.1-4.6
				c0.2-0.3,1.1-1.2,1.1-1.5c0-0.2-0.3-0.3-0.4-0.4c-0.8-0.3-1.8-0.4-2.9-0.2c-1.6,1.8-3.2,3.6-4.8,5.3c-0.5,0.5-0.9,0.7-1.4,0.4
				c-0.3-0.2-0.6-0.3-0.9-0.5c-0.5-0.3-0.4-0.6,0-1c3.3-3.6,6.5-7.2,9.6-10.9c0.5-0.6,0.9-0.7,1.4-0.4c0.3,0.1,0.5,0.3,0.8,0.4
				c0.4,0.2,0.4,0.6,0.1,1c0,0-0.1,0.1-0.1,0.1c-0.9,1.1-1.9,2.3-2.8,3.4c1.1,0,2.1,0.2,2.9,0.5c1.7,0.8,2.1,2.2,0.6,3.9
				c-1.6,1.9-3.2,3.8-4.9,5.6C343.2,750.2,342.8,750.4,342.2,750.1z"/>
		</g>
	</g>
	<line class="st4" x1="361.7" y1="732.7" x2="361.6" y2="736.8"/>
	<line class="st4" x1="360.3" y1="760.8" x2="360" y2="764.8"/>
</g>
</svg>
