<svg id="Capa_1" data-name="Capa 1" xmlns="http://www.w3.org/2000/svg" viewBox="0 0 56.0767 46.9412"><defs><style>.cls-1,.cls-2,.cls-3,.cls-4,.cls-5,.cls-6,.cls-8{fill:none;stroke:#ff3737;}.cls-1,.cls-2,.cls-3,.cls-4,.cls-5{stroke-linecap:round;}.cls-1,.cls-2,.cls-4,.cls-5,.cls-6,.cls-8{stroke-miterlimit:10;}.cls-1,.cls-2,.cls-5{stroke-width:0.5px;}.cls-1{stroke-dasharray:2.9 2.9;}.cls-2{stroke-dasharray:3 3;}.cls-3{stroke-linejoin:round;}.cls-4,.cls-6{stroke-width:0.25px;}.cls-7{fill:#ff3737;}.cls-8{stroke-width:2px;}</style></defs><g id="Iconos"><path class="cls-1" d="M35.0767,12.5c4,3.1,14.1,12.7,20.1,17.6"/><line class="cls-2" x1="42.3767" y1="35.4" x2="49.9767" y2="31.7"/><circle class="cls-3" cx="25.3767" cy="13.1" r="3"/><path class="cls-3" d="M22.7767,18.3l-.4.1a4.68409,4.68409,0,0,0-2.9,1.8l-3.6,4.2-5.7,1.4a1.75241,1.75241,0,0,0-1.3,2.1h0a1.65532,1.65532,0,0,0,2.1,1.3l5.4-1.3a3.19153,3.19153,0,0,0,1.6-.9l2.5-2.8V38.5l-5.3,4.1a2.06681,2.06681,0,0,0-.5,2.8h0a2.06932,2.06932,0,0,0,3.1.5l5.5-4.5a3.603,3.603,0,0,0,1.3-2.9V33.4l5.7,3.1,2,7.7c.3,1.1,1.4,2.5,2.6,2.2h0c1.7-.3,2-1.5,1.6-3.2l-1.8-7.5a3.46935,3.46935,0,0,0-1.8-2.3l-4.6-2.7V24l2.9,3.7a3.126,3.126,0,0,0,1.1.9l4.6,2.1a1.82374,1.82374,0,0,0,2.4-.8h0a1.89242,1.89242,0,0,0-.9-2.6l-4.3-1.9-4-5.2a5.05444,5.05444,0,0,0-3-1.9h0A10.38467,10.38467,0,0,0,22.7767,18.3Z"/><path class="cls-4" d="M.1767,10.7"/><path class="cls-4" d="M12.8767.3"/><path class="cls-5" d="M1.6767,7"/><path class="cls-5" d="M3.6767,7.1"/><path class="cls-4" d="M10.1767,2.1"/></g><path class="cls-5" d="M14.3767,3.2a20.4905,20.4905,0,0,0-12.7,10.4"/><path class="cls-5" d="M7.9767,5a24.51794,24.51794,0,0,0-5.3,4.9"/><path class="cls-5" d="M11.6767,5.4a20.60927,20.60927,0,0,0-6.5,5"/><path class="cls-6" d="M37.4767,36.2a1.7,1.7,0,0,1,3.4,0"/><path class="cls-6" d="M40.8767,36.2a1.7,1.7,0,0,1-3.4,0"/><path class="cls-6" d="M38.2767,34.8l1.6.4a1.252,1.252,0,0,1-.8,2.2l-1.4-.5"/><path class="cls-7" d="M51.5767,32.6l2-2.2c.1-.1,0-.2-.1-.2l-3-.1c-.1,0-.1.1-.1.2l1,2.4C51.3767,32.6,51.4767,32.6,51.5767,32.6Z"/><line class="cls-8" x1="55.0767" x2="55.0767" y2="46.9"/><path class="cls-7" d="M34.9767,10.6l-2.9-.9c-.1,0-.2.1-.1.1l1.1,2.8c0,.1.1.1.2,0l1.7-1.9C35.0767,10.8,35.0767,10.7,34.9767,10.6Z"/><g id="Iconos-2"><path class="cls-7" d="M11.8337,27.27414l-.654-.932-.59142-.85319L9.34272,23.70389a.4608.4608,0,0,1-.07151-.27777c.026-.26455.05195-.5291.06083-.79139a18.37517,18.37517,0,0,0-.10212-4.19919,6.69343,6.69343,0,0,0-2.18721-4.36765,1.23671,1.23671,0,0,0-.18691-.09716,1.91786,1.91786,0,0,0-.599-.25162,2.8146,2.8146,0,0,0-.723-.06987,4.06483,4.06483,0,0,0-.71973.08638,4.189,4.189,0,0,0-.77231.21517,5.37412,5.37412,0,0,0-.67662.28086,1.30914,1.30914,0,0,0-.22936.10865c-.17916.09329-.35712.19512-.52554.30443a2.08243,2.08243,0,0,0-.26531.16557c-.13527.09621-.27052.19241-.3961.296a1.05413,1.05413,0,0,0-.149.12413,3.30262,3.30262,0,0,0-.32765.287,5.63269,5.63269,0,0,0-.58864.6174,2.92232,2.92232,0,0,0-.7324,3.02126,1.47538,1.47538,0,0,0,.1109.24647,4.58387,4.58387,0,0,0,.3196.70631,2.8638,2.8638,0,0,0,.21113.34638,3.14654,3.14654,0,0,0,.36432.51763l.18045.246c.13156.13929.25343.27117.385.41045a1.63451,1.63451,0,0,0,.18631.15814L1.91,21.796c.17771.15931.3543.31006.53831.45112a6.63244,6.63244,0,0,0,.64209.44613c.20854.12912.41483.24112.63822.35088a14.16321,14.16321,0,0,0,3.30986,1.13815c.32266.07053.64419.1325.96346.17737a.254.254,0,0,1,.18176.124l1.10084,1.61276.81111,1.19844.56012.81381a.11055.11055,0,0,0,.134.0258l-.00113-.00856,1.00781-.67278a.12467.12467,0,0,0,.04243-.17114h0ZM7.642,17.41805a.22234.22234,0,0,1,.16222.23969l-.00293.04392a.21674.21674,0,0,1-.25663.16763h0l-.0087-.002-.01711.00226a.23891.23891,0,0,1-.16787-.28247A.24555.24555,0,0,1,7.642,17.418Zm.47331,2.331a.23485.23485,0,0,1-.23785.23181h0L7.876,19.98086c-.01823-.00625-.0439-.00285-.06327-.01775a.21142.21142,0,0,1-.15254-.23226.219.219,0,0,1,.22395-.21394h.00009l.00885.00041a.225.225,0,0,1,.22218.22774h0ZM4.2949,19.688l.00742-.00968a.22123.22123,0,0,1,.27955-.124l.00969.00743.00969.00742a.21629.21629,0,0,1,.12942.27715h0l-.00432.011.00112.00855L4.72,19.87557A.23246.23246,0,0,1,4.2949,19.688Zm-.34062-2.18323a.24408.24408,0,0,1,.30635-.11881.22049.22049,0,0,1,.1372.18206.266.266,0,0,1-.011.11461l-.00743.00968a.22816.22816,0,0,1-.29862.12221l-.00773-.00341-.00856.00113A.23341.23341,0,0,1,3.95428,17.50479Zm.57319.84689a.244.244,0,0,1,.30634-.11881.24686.24686,0,0,1,.12737.30522.22818.22818,0,0,1-.29864.12221l-.00772-.00341A.23831.23831,0,0,1,4.52747,18.35168Zm.36846-1.03221a.234.234,0,0,1-.1987-.25229l.0063-.01824a.23068.23068,0,0,1,.262-.19127.22342.22342,0,0,1,.19628.24757l-.00387.02294a.23075.23075,0,0,1-.26194.1913Zm.38191.58493a.22115.22115,0,0,1,.25906-.17523h0l.00516.001.01824.00631a.234.234,0,0,1-.11376.454L5.44079,18.189l-.00088-.00024-.0027-.00075a.24326.24326,0,0,1-.17192-.24711.06538.06538,0,0,1,.01256-.03646Zm-.204,1.289a.24086.24086,0,0,1,.29327-.15189.15114.15114,0,0,1,.0473.02858.2335.2335,0,0,1,.08606.31879l-.00036.00062a.23864.23864,0,0,1-.27439.09717.23312.23312,0,0,1-.15214-.29247h0Zm.5317.73052a.22645.22645,0,0,1,.29538-.12365l.011.00485a.22925.22925,0,0,1,.119.17577.20657.20657,0,0,1-.02694.12542.23073.23073,0,0,1-.30006.10057.21956.21956,0,0,1-.0983-.28294Zm.52814.83545a.23938.23938,0,0,1,.28359-.15932.22862.22862,0,0,1,.1601.28086l-.00076.00271a.22355.22355,0,0,1-.1861.17255.25355.25355,0,0,1-.07925-.00693l-.01825-.0063a.24967.24967,0,0,1-.16964-.23Zm-.12381-1.79408a.23616.23616,0,0,1-.19015-.25341l-.00226-.0171a.25236.25236,0,0,1,.27051-.19241.22263.22263,0,0,1,.18413.25538l-.00139.0077.00113.00855a.23075.23075,0,0,1-.262.19133Zm.0395-1.54581.01032-.05359a.23065.23065,0,0,1,.262-.19127l.00113.00855a.24075.24075,0,1,1-.27342.23631Zm.79253.53069a.22755.22755,0,0,1,.21479.23959h0l-.00011.00187a.09241.09241,0,0,1-.01033.05359.23385.23385,0,0,1-.25228.1987l-.00969-.00743a.23327.23327,0,0,1-.18272-.26308.23816.23816,0,0,1,.24034-.2232Zm.26831,2.097a.14644.14644,0,0,1,.061.00065.25388.25388,0,0,1,.20952.26822.22677.22677,0,0,1-.25168.19877h0l-.0006-.00008-.02679-.00516a.218.218,0,0,1-.19487-.23891l0-.00008.00358-.023a.23066.23066,0,0,1,.19981-.20039Zm.01789-1.11647a.23075.23075,0,0,1,.262-.19126.24678.24678,0,0,1,.16158.30075.26957.26957,0,0,1-.23856.17077.23762.23762,0,0,1-.185-.28022ZM7.006,16.6229l.05245.00178a.23391.23391,0,0,1,.1987.25229l-.00742.00968.00112.00856a.23394.23394,0,0,1-.25223.19866L6.989,17.08644a.24548.24548,0,0,1-.22323-.24033.23144.23144,0,0,1,.23932-.22327Zm-.56011-.8138a.139.139,0,0,1,.08038.01549.23741.23741,0,0,1,.16109.23113.24482.24482,0,0,1-.23957.25h0l-.00592.00006a.24963.24963,0,0,1-.25-.2455.25311.25311,0,0,1,.254-.25113Zm-.74217-.6766.00856-.00112a.22185.22185,0,0,1,.42644.06552l.00565.04277L6.1289,15.32a.22268.22268,0,0,1-.29807.10156h0l-.002-.001-.00856.00113a.24335.24335,0,0,1-.11657-.28922Zm.0362,1.19636a.23689.23689,0,0,1,.19757.24372l.00339.02567a.24713.24713,0,0,1-.27795.20208.241.241,0,0,1-.201-.26938.24714.24714,0,0,1,.27792-.20206Zm-.58917-.83608c.01823.00626.03761.02114.05471.01889a.23761.23761,0,0,1,.185.28019.27.27,0,0,1-.282.23745.26012.26012,0,0,1-.24647-.27306l.00048-.00779a.28636.28636,0,0,1,.28825-.25565Zm-.72748-.56539a.22569.22569,0,0,1,.26935-.17123h0l.01309.00333a.22868.22868,0,0,1,.1719.24712.2253.2253,0,0,1-.2329.21355L4.635,15.21273l-.04392-.00292a.22567.22567,0,0,1-.17123-.26929Zm.00777,1.113a.2391.2391,0,0,1,.18385.27165.22953.22953,0,0,1-.26308.18272A.218.218,0,0,1,4.16,16.25347l0-.00006.00172-.012-.00226-.01712a.24728.24728,0,0,1,.27163-.18379Zm-.502-.76927a.24692.24692,0,0,1,.21759.19755c.00225.01711-.00517.02679-.00293.04393a.22977.22977,0,0,1-.24244.21635h0l-.00759-.00055-.04392-.00292a.23343.23343,0,0,1-.1719-.24711.23069.23069,0,0,1,.25117-.20717ZM3.708,16.5624l.01084.016a.22729.22729,0,0,1,.11771.29775l-.00743.00968a.22879.22879,0,0,1-.30118.092l-.00969-.00743a.21813.21813,0,0,1-.10587-.27314l-.00113-.00856A.24249.24249,0,0,1,3.708,16.5625ZM3.15522,18.176a.26586.26586,0,0,1,.011-.1146l-.00113-.00855a.208.208,0,0,1,.26641-.12458h0L3.436,17.93l.00856-.00113.02679.00516a.25355.25355,0,0,1,.1188.30635.2232.2232,0,0,1-.29564.11064h0l-.00326-.00152a.20774.20774,0,0,1-.13608-.17343Zm.2344,1.37907a.21313.21313,0,0,1-.24711.17191.21812.21812,0,0,1-.18045-.246l.00629-.01824a.21314.21314,0,0,1,.23-.16964.23066.23066,0,0,1,.19122.26206Zm.55232-.76057a.23724.23724,0,0,1,.18273.26309l.00112.00856a.23634.23634,0,0,1-.26422.17416L3.84333,19.234a.23339.23339,0,0,1-.1719-.24712.25651.25651,0,0,1,.27047-.1923Zm-.81406-2.99975.00851-.001.05245.00178a.22156.22156,0,0,1,.19084.24851v0L3.379,16.049l.00226.01711a.2253.2253,0,0,1-.2534.19015l-.00856.00113a.2483.2483,0,0,1-.2329-.24778.232.232,0,0,1,.24145-.21473ZM2.921,17.12767a.2334.2334,0,0,1,.11767.2978l-.00855.00113a.23448.23448,0,0,1-.3086.10171l-.00969-.00743a.2178.2178,0,0,1-.0983-.28294.22742.22742,0,0,1,.301-.11332h0Zm-.10616,1.50239c.00226.0171-.004.03535-.00178.05245l-.004.03535a.21935.21935,0,0,1-.24875.18531h0l-.01433-.00258a.22541.22541,0,0,1-.19014-.25341.22985.22985,0,0,1,.26079-.194l.00971.00163a.21856.21856,0,0,1,.18848.17539Zm-.67539-2.14768a.21418.21418,0,0,1,.26987-.1314l.02792.01372a.24385.24385,0,0,1,.11138.316.22262.22262,0,0,1-.298.1016h0l-.00205-.001a.21762.21762,0,0,1-.1155-.28524ZM2.081,17.62158a.23613.23613,0,0,1,.1924.27052.22311.22311,0,0,1-.20095.19192.14752.14752,0,0,1-.061-.00064.22166.22166,0,0,1-.19086-.24868v0l.00068-.00472L1.819,17.81283A.23461.23461,0,0,1,2.081,17.6217Zm-.52092-.71451L1.604,16.91a.23239.23239,0,1,1-.29392.21291.23624.23624,0,0,1,.25-.21574Zm-.432,1.73693a.239.239,0,0,1-.13592-.30409l.00743-.00968.00856-.00114a.21829.21829,0,0,1,.281-.12788l0,0h0l.00711.0028.00969.00743a.21429.21429,0,0,1,.13427.22594.07821.07821,0,0,1-.01775.06327.22505.22505,0,0,1-.282.14763h0Zm.866.62543a.2366.2366,0,0,1-.28133.17642.24906.24906,0,0,1-.18045-.246.2441.2441,0,0,1,.27052-.19241.23066.23066,0,0,1,.20044.19979c.00227.01711-.004.03535-.00178.05245Zm.38821,1.028a.23881.23881,0,0,1-.07813.00162.21928.21928,0,0,1-.189-.24488L2.114,20.04561a.22986.22986,0,0,1,.26079-.194h0l.00972.00163a.23341.23341,0,0,1,.193.2095c.00226.01711-.004.03535-.00179.05245a.23074.23074,0,0,1-.19345.18236Zm.49393.84a.25623.25623,0,0,1-.2255-.25744.24434.24434,0,0,1,.2597-.20839l.03535.004a.21854.21854,0,0,1,.17078.23855.23816.23816,0,0,1-.24033.22333Zm.52024.77555a.2301.2301,0,0,1-.21759-.19756l-.00451-.03421.00629-.01825a.21911.21911,0,0,1,.22415-.21392l.00878.00035.061.00064a.23154.23154,0,0,1,.16109.23113.23493.23493,0,0,1-.238.23182H3.39643Zm.33634-1.34131a.30641.30641,0,0,1-.08781-.0058.22132.22132,0,0,1-.17142-.17755c-.00226-.01711.004-.03535.00178-.05245l.00179-.05245a.23136.23136,0,0,1,.28055-.16837l.00189.0005a.22568.22568,0,0,1,.17121.26934l-.00333.01316a.23086.23086,0,0,1-.19467.17371Zm.46326.73956a.21037.21037,0,0,1-.18861-.23008l.0007-.00619-.0034-.02566a.23644.23644,0,0,1,.2318-.22213l.01824.0063a.22319.22319,0,0,1,.2153.2308h0l-.00067.01068c.00227.01712-.00516.0268-.01145.045l.00964.00743a.2391.2391,0,0,1-.27155.1839Zm.8027.60768a.21286.21286,0,0,1-.25221.16434h0l-.02279-.00616-.00856.00113a.23166.23166,0,0,1-.15932-.28358.22625.22625,0,0,1,.27914-.15639l.01413.00449a.2316.2316,0,0,1,.1611.23113.06615.06615,0,0,1-.01148.04513Zm-.08187-1.1468a.23927.23927,0,0,1-.1372-.18207.21564.21564,0,0,1,.0184-.12428.22816.22816,0,0,1,.29863-.12221h0l.0077.0034.00856-.00113a.24385.24385,0,0,1,.11138.316.23334.23334,0,0,1-.30751.11038Zm.38869.63626L5.301,21.37411a.07473.07473,0,0,1,.01888-.05472.21267.21267,0,0,1,.25457-.16013l.01191.00307.01711-.00225a.24286.24286,0,0,1,.15932.28358.238.238,0,0,1-.291.169h0a.2312.2312,0,0,1-.16627-.20425Zm1.62234.88237c-.02066.10718-.04987.21549-.07165.3141-.03891.10089-.063.1824-.103.27472-.03147.0912-.03842.17043-.13705.14868-.20692-.051-.40979-.13732-.60076-.19911a.5142.5142,0,0,1-.19547-.096.16883.16883,0,0,1-.04423-.203.347.347,0,0,1,.16094-.09951l.57154-.15384c.11009-.02323.203-.04423.31312-.06748.04393.00293.09524-.00387.10944.03777Zm-.39036-2.5596a.23064.23064,0,1,1,.27052-.1924.22661.22661,0,0,1-.25415.19517Zm1.97911,2.92418a5.25771,5.25771,0,0,1-.05243.92084.13767.13767,0,0,1-.02066.10717l-.05423.05069a.17085.17085,0,0,1-.15851-.01388l-.6224-.23112-.29185-.10075a.26488.26488,0,0,1-.1025-.117c-.02147-.16254-.02051-.48471-.0289-.61416A3.438,3.438,0,0,0,7.1795,22.153a.203.203,0,0,1,.0652-.16528.19809.19809,0,0,1,.15173-.03745c.04617.02.102.04748.13962.06859.27181.14687.53168.26922.79042.383a.30463.30463,0,0,1,.17207.11653.36928.36928,0,0,1,.0181.137ZM8.42831,21.196c-.01678.2024-.0045.42709-.03953.6232-.01952.11572-.11076.08429-.1974.087s-.19271-.00936-.28053-.01517c-.106-.01211-.22177-.03163-.31926-.04487l-.05472-.01888a.09818.09818,0,0,1,.0121-.106,2.881,2.881,0,0,1,.18222-.26779l.35638-.46487a.25862.25862,0,0,1,.149-.12412.17421.17421,0,0,1,.17207.11654.605.605,0,0,1,.01969.21508Zm-.41263-2.53055a.24276.24276,0,0,1-.17077-.23855c.00629-.01825.00516-.0268.01145-.045a.23006.23006,0,0,1,.27391-.16674l.01825.00629a.23952.23952,0,0,1,.15931.28359.23417.23417,0,0,1-.2892.16136l0,0h0Z"/></g></svg>