<svg id="Iconos" xmlns="http://www.w3.org/2000/svg" viewBox="0 0 40.81475 43.45422"><defs><style>.cls-1{fill:#00e9c5;}.cls-2,.cls-3,.cls-4{fill:none;stroke:#00e9c5;}.cls-2,.cls-3{stroke-linecap:round;}.cls-2{stroke-linejoin:round;}.cls-3,.cls-4{stroke-miterlimit:9.9989;}.cls-3{stroke-width:0.4999px;}.cls-4{stroke-width:0.25px;}</style></defs><g id="Iconos-2"><path class="cls-1" d="M30.08906,26.35273l-.89-1.09a.154.154,0,0,0-.21-.02l-1,.85-2.85,2.41a.51.51,0,0,1-.31.11c-.31,0-.62,0-.92.01a21.63432,21.63432,0,0,0-4.84.57,7.75766,7.75766,0,0,0-4.8,3,1.07106,1.07106,0,0,0-.1.22,2.60965,2.60965,0,0,0-.22.72,2.9518,2.9518,0,0,0,0,.84,4.59058,4.59058,0,0,0,.17.82,5.37,5.37,0,0,0,.33.87,6.72133,6.72133,0,0,0,.4.75,2.20683,2.20683,0,0,0,.15.26,6.75461,6.75461,0,0,0,.41.57,3.15176,3.15176,0,0,0,.22.29c.12.14.25.29.38.42.05.06.11.11.16.16a4.03947,4.03947,0,0,0,.37.35,6.44463,6.44463,0,0,0,.77.61005,3.39315,3.39315,0,0,0,3.57.52,1.82228,1.82228,0,0,0,.27-.15,5.45775,5.45775,0,0,0,.78-.45,2.65835,2.65835,0,0,0,.38-.28,4.21824,4.21824,0,0,0,.56-.47l.26-.24c.15-.16.29-.32.43-.49a1.95062,1.95062,0,0,0,.17-.23h.01c.16-.22.32-.44.46-.67a7.39173,7.39173,0,0,0,.44-.79,7.49985,7.49985,0,0,0,.34-.77,16.6783,16.6783,0,0,0,.96-3.94c.05-.38.08-.76.1-1.14a.305.305,0,0,1,.12-.22l3.04-2.51.88-.73A.11171.11171,0,0,0,30.08906,26.35273Zm-7.99,3.52a.687.687,0,0,1,.24005-.05c.24,0,.5-.04.73-.02.13.01.11.12.12.22.01.1.01.22.01.33,0,.12-.01.25-.02.37a.1266.1266,0,0,1-.01.06c-.03.03-.09.02-.13,0a2.01706,2.01706,0,0,1-.32-.18l-.58-.36a.3126.3126,0,0,1-.16-.16A.20871.20871,0,0,1,22.099,29.87275Zm-.66,1.26a.2669.2669,0,0,1,.26.26995v.03a.26976.26976,0,0,1-.29.25.2667.2667,0,0,1-.25-.28A.27754.27754,0,0,1,21.439,31.13276Zm-.09,1.61a.25443.25443,0,0,1,.14.33.24968.24968,0,0,1-.31.15.26852.26852,0,0,1-.17-.34A.26058.26058,0,0,1,21.349,32.74274Zm-.63995-2.4a.26974.26974,0,0,1,.29.25.19488.19488,0,0,1-.01.07.249.249,0,0,1-.25.21.26544.26544,0,0,1-.03-.53Zm-.1,1.53a.27072.27072,0,1,1-.04.54.27072.27072,0,1,1,.04-.54Zm-.4,1.66a.27063.27063,0,0,1,.50995.17.28128.28128,0,0,1-.33.21.27235.27235,0,0,1-.2-.32A.14231.14231,0,0,1,20.20906,33.53272Zm-.26-2.46a.28683.28683,0,0,1,.22.25.27577.27577,0,0,1-.55-.04A.28654.28654,0,0,1,19.94905,31.07276Zm-.17,1.5a.26661.26661,0,0,1,.25.28.27207.27207,0,0,1-.27.25h-.02a.28436.28436,0,0,1-.25-.29A.26207.26207,0,0,1,19.77907,32.57276Zm.04,1.88a.27373.27373,0,0,1-.34.18.27718.27718,0,0,1-.17-.34.28293.28293,0,0,1,.34-.18A.26859.26859,0,0,1,19.819,34.45276Zm-.57-4.2a.27229.27229,0,0,1-.04.54.10884.10884,0,0,1-.05005-.01.25852.25852,0,0,1-.22-.31A.2783.2783,0,0,1,19.249,30.25275Zm-.22,1.48c.01995-.01.04,0,.06,0a.26475.26475,0,0,1,.25.27v.02a.29083.29083,0,0,1-.29.24005.27569.27569,0,0,1-.28-.26A.26057.26057,0,0,1,19.02907,31.73273Zm-.06006,1.55a.27212.27212,0,0,1-.04.54.07483.07483,0,0,1-.05-.01.25862.25862,0,0,1-.22-.31A.27267.27267,0,0,1,18.969,33.28272Zm-.64-2.36h.05a.25851.25851,0,0,1,.22.31.27048.27048,0,0,1-.31.22.276.276,0,0,1-.22-.31A.259.259,0,0,1,18.32905,30.92273Zm-.39,1.76a.28018.28018,0,1,1,.3.29h-.06a.27457.27457,0,0,1-.25-.28Zm.06,1.35a.27038.27038,0,0,1-.02.54h-.02a.27576.27576,0,0,1-.25-.29A.26967.26967,0,0,1,17.999,34.03272Zm-.78-2.13995a.26077.26077,0,0,1,.28-.25h.01a.26512.26512,0,0,1,.25.27v.01a.28487.28487,0,0,1-.26.29.26882.26882,0,0,1-.28-.25995Zm.06006,1.3h.03a.2762.2762,0,1,1-.03,0Zm-.93006-.6a.28949.28949,0,0,1,.25-.21.27772.27772,0,0,1,.29.26.27577.27577,0,0,1-.55.04A.2783.2783,0,0,1,16.349,32.59272Zm-.5,2.3a.27138.27138,0,1,1-.27-.31006.26034.26034,0,0,1,.27.26Zm-.21-1.27v-.01a.26178.26178,0,0,1-.17-.33.26741.26741,0,0,1,.25-.18.2765.2765,0,0,1,.09.01.25844.25844,0,0,1,.15.34A.27837.27837,0,0,1,15.63905,33.62275Zm.88,2.07a.2773.2773,0,0,1-.26.23.26887.26887,0,0,1-.27-.27.26506.26506,0,0,1,.53-.00994Zm-.08-1.17a.31847.31847,0,0,1-.32-.3c0-.02.01-.05.01-.07a.27736.27736,0,0,1,.3-.24.3163.3163,0,0,1,.31.3A.3031.3031,0,0,1,16.439,34.52271Zm.74,2.05005a.27047.27047,0,0,1-.31.16.2688.2688,0,0,1,.17-.51A.272.272,0,0,1,17.179,36.57276Zm-.1-1.29h-.01a.26616.26616,0,1,1,.29-.25A.26076.26076,0,0,1,17.07905,35.28272Zm.5,2.31a.25158.25158,0,0,1-.18-.3l.00995-.03a.28861.28861,0,0,1,.35-.17.26571.26571,0,0,1-.18.5Zm.42-1.65a.25916.25916,0,0,1-.31.15l-.01.01a.27483.27483,0,0,1-.17-.33l.01-.02a.26325.26325,0,0,1,.34-.16A.26031.26031,0,0,1,17.999,35.94275Zm.41,2.53a.26882.26882,0,0,1-.28-.26v-.05a.27139.27139,0,1,1,.28.31Zm.31-1.66a.2662.2662,0,0,1-.32.15.26894.26894,0,0,1,.17-.51l.01.01A.26029.26029,0,0,1,18.719,36.81275Zm-.15-1.43a.26854.26854,0,0,1-.17-.34.26083.26083,0,0,1,.34-.17.26846.26846,0,0,1,.17.34v.01A.27163.27163,0,0,1,18.569,35.38276Zm.6,2.43h-.02a.27386.27386,0,0,1-.25-.28.26968.26968,0,0,1,.29-.25.26662.26662,0,0,1,.25.28A.25788.25788,0,0,1,19.169,37.81275Zm.11005-1.58a.24488.24488,0,0,1-.17-.31v-.03a.30288.30288,0,0,1,.34-.17.2633.2633,0,0,1,.16.34A.25414.25414,0,0,1,19.27907,36.23273Zm.56994,2.48-.02-.01v-.01a.25424.25424,0,0,1-.17-.33.26742.26742,0,0,1,.25-.18.21993.21993,0,0,1,.08.01.26924.26924,0,1,1-.14.52Zm.2-1.61a.26975.26975,0,0,1-.25-.29.25224.25224,0,0,1,.25-.24h.04a.26579.26579,0,0,1-.04.53Zm.26-1.55a.28437.28437,0,0,1-.25-.29.25961.25961,0,0,1,.28-.24005H20.349a.254.254,0,0,1,.22.30005A.26783.26783,0,0,1,20.309,35.55274Zm.47,2.44a.26969.26969,0,0,1-.25-.29.26512.26512,0,0,1,.26995-.25h.01a.27141.27141,0,0,1-.03.54Zm.15-1.68a.24991.24991,0,0,1-.22-.25.26652.26652,0,0,1,.28-.25.252.252,0,1,1-.06.5Zm.11-1.56a.25124.25124,0,0,1-.17-.32l.01-.02a.25419.25419,0,0,1,.33-.17H21.219a.27425.27425,0,0,1,.16.35A.26332.26332,0,0,1,21.039,34.75275Zm.65,2.48a.2697.2697,0,0,1-.25-.29.28169.28169,0,0,1,.28-.25h.01a.27513.27513,0,0,1,.24.29A.26069.26069,0,0,1,21.689,37.23273Zm.19-1.6h-.06a.26881.26881,0,1,1,.09-.53.26823.26823,0,0,1,.22.31A.25651.25651,0,0,1,21.879,35.63276Zm.01-1.54a.26853.26853,0,0,1-.17-.34v-.01a.27431.27431,0,0,1,.35-.16.26326.26326,0,0,1,.16.34A.26845.26845,0,0,1,21.88905,34.09272Zm.26-1.57h-.06a.28446.28446,0,0,1-.22-.31.2682.2682,0,0,1,.31-.22.25859.25859,0,0,1,.22.31A.27651.27651,0,0,1,22.14906,32.52271Zm.45,4a.27541.27541,0,0,1-.27-.27v-.04a.26779.26779,0,0,1,.26-.23.27565.27565,0,0,1,.28.26A.2842.2842,0,0,1,22.599,36.52271Zm.06-1.58h-.00995a.26306.26306,0,0,1-.28-.26.26884.26884,0,0,1,.26-.28.09.09,0,0,1,.05.01l.01-.01a.27523.27523,0,0,1,.24.29A.25222.25222,0,0,1,22.659,34.94275Zm.23-1.53a.17007.17007,0,0,1-.07-.01.25868.25868,0,0,1-.21-.31.276.276,0,0,1,.31-.22.27293.27293,0,0,1,.22.32A.27656.27656,0,0,1,22.88905,33.41272Zm.56,2.42a.26662.26662,0,0,1-.28-.25v-.06995a.26532.26532,0,0,1,.25-.21.26972.26972,0,0,1,.29.25A.263.263,0,0,1,23.44905,35.83271Zm0-1.6a.27373.27373,0,0,1,.04-.54.12654.12654,0,0,1,.06.01.2587.2587,0,0,1,.21.31A.27263.27263,0,0,1,23.44905,34.23273Zm1.04-1.8a.63054.63054,0,0,1-.09.24.19964.19964,0,0,1-.23.07.338.338,0,0,1-.13-.18l-.24-.64c-.04-.12-.08-.23-.11-.35-.01-.05-.02-.11.03-.13h.05c.12.01.25.03.37.05.12.03.22.05.33.08.1.03.2.03.18.15C24.619,31.96271,24.539,32.20276,24.489,32.43274Zm.79-2.65-.2.74c-.01.02-.08.33-.09.35a.304.304,0,0,1-.12.13c-.19.04-.56.08-.71.1a5.17476,5.17476,0,0,0-.58.06.24178.24178,0,0,1-.2-.06.21553.21553,0,0,1-.05-.17,1.14258,1.14258,0,0,1,.06-.17c.14-.33.25-.64.36-.95a.35962.35962,0,0,1,.11-.21.419.419,0,0,1,.16-.04,7.60219,7.60219,0,0,1,1.07-.04.17234.17234,0,0,1,.12.02l.07.05A.21206.21206,0,0,1,25.27907,29.78272Z"/></g><circle class="cls-2" cx="20.1499" cy="4" r="3.5"/><path class="cls-2" d="M19.05,29.70005l.2-4.4L25.279,29.59,30.35,41.30005a2.4832,2.4832,0,0,0,3.17017,1.51079l.02983-.01079h0a2.36064,2.36064,0,0,0,1.4318-3.01582q-.01509-.04239-.0318-.08418v-.1l-3.38809-8.0236A33.163,33.163,0,0,0,29.05,27.00005l-4.9-4.2.09428-6.88261a.18683.18683,0,0,1,.31317-.135L29.15,20l.1,4.3a2.24248,2.24248,0,0,0,2.28382,2.20036L31.55,26.5h0a2.263,2.263,0,0,0,2.3-2.22539q.00062-.0373,0-.07461v-.1l-.5-5.1a3.85779,3.85779,0,0,0-1.1-2.2l-4.7-4.3a10.89151,10.89151,0,0,0-5.6-2.7l-1-.1a18.11616,18.11616,0,0,0-3.8.1h0a9.06892,9.06892,0,0,0-4.7,2.3l-2.1,1.8-5.9-3.5a2.12428,2.12428,0,0,0-2.6.4h0a2.02912,2.02912,0,0,0,.2,2.8c.1.1.3.2.4.3l5.7,3.8a4.05894,4.05894,0,0,0,4.7-.1l1.9-1.5-.6,16.8-5.3,6.2a2.33151,2.33151,0,0,0,.2,3.2h.1a2.20821,2.20821,0,0,0,3.1-.2l3.9-4.3"/><path class="cls-3" d="M1.45,15.90005a21.81979,21.81979,0,0,0,9.7,17.6"/><path class="cls-3" d="M.25,19a19.25364,19.25364,0,0,0,2.3,7"/><path class="cls-3" d="M3.15,19.5a22.35308,22.35308,0,0,0,4.9,9.4"/><line class="cls-3" x1="37.0499" y1="32.9" x2="34.8499" y2="34.1"/><line class="cls-3" x1="36.5499" y1="34.2" x2="35.0499" y2="35.1"/><line class="cls-3" x1="36.1499" y1="32.3" x2="34.8499" y2="33"/><path class="cls-4" d="M37.85,31.00005a1.69853,1.69853,0,1,1,2.29673-2.503l.00327.003.1.1"/><path class="cls-4" d="M40.25,28.60005a1.72014,1.72014,0,0,1-.1,2.4,1.6933,1.6933,0,0,1-2.3,0"/><path class="cls-4" d="M37.35,29.40005l1.4-.9c.8-.3,2,1.3,1,2.1l-1.4.7"/></svg>