<svg id="Iconos" xmlns="http://www.w3.org/2000/svg" viewBox="0 0 40.81475 43.45422"><defs><style>.cls-1{fill:#ff3737;}.cls-2,.cls-3,.cls-4{fill:none;stroke:#ff3737;}.cls-2,.cls-3{stroke-linecap:round;}.cls-2{stroke-linejoin:round;}.cls-3,.cls-4{stroke-miterlimit:9.9989;}.cls-3{stroke-width:0.4999px;}.cls-4{stroke-width:0.25px;}</style></defs><g id="Iconos-2"><path class="cls-1" d="M30.09362,26.35334l-.89-1.09a.15582.15582,0,0,0-.21-.02l-1,.85-2.85,2.41a.50987.50987,0,0,1-.31.11c-.31,0-.61,0-.91.01h-.01a21.85593,21.85593,0,0,0-4.84.57,7.71549,7.71549,0,0,0-4.8,3,.62355.62355,0,0,0-.1.22v.01a2.25168,2.25168,0,0,0-.22.71,2.95625,2.95625,0,0,0,0,.84,3.86169,3.86169,0,0,0,.17.82,4.57852,4.57852,0,0,0,.33.87,5.39019,5.39019,0,0,0,.4.75,1.34829,1.34829,0,0,0,.15.26,4.5632,4.5632,0,0,0,.41.57,2.01684,2.01684,0,0,0,.22.29c.12.14.25.29.38.42.05.06.11.11005.16.16a3.10183,3.10183,0,0,0,.37.35,5.73809,5.73809,0,0,0,.77.61,3.39014,3.39014,0,0,0,3.57.52,1.81828,1.81828,0,0,0,.27-.15,6.06391,6.06391,0,0,0,.78-.45,3.37161,3.37161,0,0,0,.38-.28,4.9732,4.9732,0,0,0,.56-.47l.26-.24c.15-.16.29-.32.43-.49.06-.06995.11-.15.17-.23h.01c.16-.22.31994-.44.46-.67.16-.25.3-.52.44-.79.12-.25.24-.51.34-.77a17.18415,17.18415,0,0,0,.96-3.94c.05-.38.08-.76.1-1.14a.27474.27474,0,0,1,.12-.22l3.04-2.51.88-.73A.12161.12161,0,0,0,30.09362,26.35334Zm-7.99,3.52a.6036.6036,0,0,1,.24-.05c.24,0,.5-.04.73-.02.13.01.11.12.12.22s.01.22.01.33c0,.12-.01.25-.02.37,0,.02-.00995.04-.00995.06a.12163.12163,0,0,1-.13,0,1.65259,1.65259,0,0,1-.32-.18l-.58-.36a.2799.2799,0,0,1-.16-.16A.19548.19548,0,0,1,22.10363,29.87336Zm-.94,1.53a.27123.27123,0,0,1,.28-.27.26691.26691,0,0,1,.26.27v.03a.27579.27579,0,0,1-.29.25.26283.26283,0,0,1-.25-.26Zm.09,1.32a.35519.35519,0,0,1,.1.02.26334.26334,0,0,1,.14.33.25816.25816,0,0,1-.48-.19A.25015.25015,0,0,1,21.2536,32.72334Zm-.54-2.38a.28216.28216,0,0,1,.29.25c0,.02-.00995.05-.00995.07a.25681.25681,0,0,1-.25.21.26544.26544,0,1,1-.03-.53Zm-.1,1.53a.27679.27679,0,0,1,.25.29.28219.28219,0,0,1-.29.25.26328.26328,0,0,1-.25-.29A.26973.26973,0,0,1,20.61364,31.87336Zm-.4,1.66a.26713.26713,0,0,1,.36-.13.28174.28174,0,0,1,.15.3.28656.28656,0,0,1-.33.21.26936.26936,0,0,1-.2-.32A.07347.07347,0,0,1,20.21362,33.53334Zm-.26-2.46a.31475.31475,0,0,1,.22.25.28535.28535,0,0,1-.3.25.26979.26979,0,0,1-.25-.29A.27638.27638,0,0,1,19.95361,31.07337Zm-.18,1.5h.01a.27449.27449,0,0,1,.25.28.27947.27947,0,0,1-.27.25h-.02a.27573.27573,0,0,1-.25-.29A.25944.25944,0,0,1,19.77362,32.57337Zm.05,1.88a.28292.28292,0,0,1-.34.18005.26862.26862,0,0,1-.17-.34.27372.27372,0,0,1,.34-.18A.277.277,0,0,1,19.8236,34.45332Zm-.88-3.98a.265.265,0,1,1,.52.1.266.266,0,0,1-.25.22.07483.07483,0,0,1-.05-.01.2587.2587,0,0,1-.23-.29Zm.08,1.26h.01c.02-.01.04,0,.06,0a.27206.27206,0,0,1,.25.27v.02a.29874.29874,0,0,1-.29.24.26928.26928,0,0,1-.28-.26A.25218.25218,0,0,1,19.02362,31.73335Zm-.36,1.77a.26523.26523,0,0,1,.31-.22.27232.27232,0,0,1-.04.54.075.075,0,0,1-.05-.01.25871.25871,0,0,1-.23-.29Zm-.33-2.58h.05a.25839.25839,0,0,1,.22.29v.02a.276.276,0,0,1-.31.22.26821.26821,0,0,1-.22-.31A.25185.25185,0,0,1,18.33361,30.92335Zm-.39,1.76a.268.268,0,0,1,.29-.27.29354.29354,0,0,1,.27.29.28921.28921,0,0,1-.25995.27h-.06006a.26669.26669,0,0,1-.25-.28Zm.05,1.35h.00995a.27095.27095,0,0,1-.02.54h-.02a.2697.2697,0,0,1-.25-.29A.26081.26081,0,0,1,17.99365,34.03334Zm-.77-2.14a.25268.25268,0,0,1,.27-.25h.02a.27207.27207,0,0,1,.25.27v.01a.29274.29274,0,0,1-.26.29.263.263,0,0,1-.28-.26Zm.06,1.30005h.03a.28486.28486,0,0,1,.26.29.27771.27771,0,0,1-.29.26.28611.28611,0,0,1-.27-.29A.28116.28116,0,0,1,17.28363,33.19337Zm-.93-.6a.27657.27657,0,0,1,.25-.21.28776.28776,0,0,1,.31.26.28321.28321,0,0,1-.26.31.27681.27681,0,0,1-.31-.25995A.17284.17284,0,0,1,16.35363,32.59333Zm-.5,2.3a.27781.27781,0,0,1-.31.23.27137.27137,0,0,1,.04-.54.26475.26475,0,0,1,.27.25Zm.11-1.44a.27831.27831,0,0,1-.32.17v-.01a.26735.26735,0,0,1-.18-.33h.01a.2495.2495,0,0,1,.25-.18.27632.27632,0,0,1,.09.01.25933.25933,0,0,1,.15.33Zm.56,2.24005a.28648.28648,0,0,1-.26.23.26886.26886,0,0,1-.27-.27v-.02a.25616.25616,0,0,1,.25995-.25.281.281,0,0,1,.27.26Zm-.08-1.17a.31852.31852,0,0,1-.32-.3c0-.02.01-.05.01-.07a.27144.27144,0,0,1,.3-.24.31635.31635,0,0,1,.31006.3A.30311.30311,0,0,1,16.4436,34.52333Zm.84,2.01a.244.244,0,0,1-.26.25h-.03a.26578.26578,0,1,1,.04-.53.27.27,0,0,1,.25.26Zm-.2-1.25h-.01a.26975.26975,0,0,1-.25-.29.271.271,0,0,1,.54.04A.26741.26741,0,0,1,17.08361,35.28334Zm.5,2.31a.24077.24077,0,0,1-.18-.3l.01-.03a.284.284,0,0,1,.35-.17.26668.26668,0,0,1,.15.34A.2563.2563,0,0,1,17.58361,37.59333Zm.42-1.65a.264.264,0,0,1-.31.15l-.01.01a.266.266,0,0,1-.17-.33l.01-.02a.24915.24915,0,0,1,.33-.16h.01a.262.262,0,0,1,.14.34Zm.41,2.53a.263.263,0,0,1-.28-.26v-.05a.26268.26268,0,0,1,.3-.23.27222.27222,0,0,1,.23.31A.26682.26682,0,0,1,18.41363,38.47334Zm.31-1.66a.27615.27615,0,0,1-.32.15.26612.26612,0,0,1-.16-.35.2692.2692,0,0,1,.33-.16l.01.01a.26206.26206,0,0,1,.14.34Zm-.15-1.43a.26091.26091,0,0,1-.17-.34.24723.24723,0,0,1,.25-.19.17007.17007,0,0,1,.07.01l.02.01a.27711.27711,0,0,1,.17.34v.01A.271.271,0,0,1,18.5736,35.38337Zm.6,2.43h-.02a.26663.26663,0,0,1-.25-.28.2608.2608,0,0,1,.28-.25h.01a.26525.26525,0,0,1-.02.53Zm.44-1.75a.25906.25906,0,0,1-.32.17h-.01a.24829.24829,0,0,1-.18-.3l.01-.01v-.03a.297.297,0,0,1,.34-.17.26466.26466,0,0,1,.16.33Zm.24,2.65-.02-.01v-.00995a.25085.25085,0,0,1-.18-.31l.01-.02a.27276.27276,0,0,1,.33-.17.282.282,0,0,1,.18994.33A.27325.27325,0,0,1,19.85363,38.71333Zm.2-1.61a.26319.26319,0,0,1-.25-.29.24555.24555,0,0,1,.25-.24h.04a.26883.26883,0,0,1,.24.29A.27207.27207,0,0,1,20.05365,37.10334Zm.25994-1.55a.27586.27586,0,0,1-.25-.29.25641.25641,0,0,1,.27-.24h.02a.26392.26392,0,0,1,.22.28v.02A.26783.26783,0,0,1,20.31359,35.55336Zm.47,2.44a.26321.26321,0,0,1-.25-.29.25881.25881,0,0,1,.27-.25h.00994a.2798.2798,0,0,1,.23.31A.2679.2679,0,0,1,20.78363,37.99336Zm.17-1.68h-.02a.24123.24123,0,0,1-.22-.25.25527.25527,0,1,1,.51.02A.24852.24852,0,0,1,20.95361,36.31337Zm.09-1.56a.25078.25078,0,0,1-.18-.31l.00995-.01.01-.02a.24965.24965,0,0,1,.31-.18l.02.01h.01a.27419.27419,0,0,1,.16.35A.26328.26328,0,0,1,21.04364,34.75337Zm.65,2.48a.26328.26328,0,0,1-.25-.29.27458.27458,0,0,1,.28-.25h.01a.28327.28327,0,0,1,.24.29A.26741.26741,0,0,1,21.6936,37.23335Zm.19-1.6h-.06a.27225.27225,0,0,1-.23-.31.26817.26817,0,0,1,.3-.22h.02a.27254.27254,0,0,1,.22.31A.266.266,0,0,1,21.8836,35.63337Zm.35-1.71a.26858.26858,0,0,1-.34.17.26084.26084,0,0,1-.17-.34v-.01a.27039.27039,0,0,1,.35-.16.27394.27394,0,0,1,.16.33Zm-.08-1.4h-.06a.276.276,0,0,1-.22-.31.254.254,0,0,1,.3-.22h.00995a.25828.25828,0,0,1,.22.29v.02A.28689.28689,0,0,1,22.15362,32.52333Zm.45,4a.26887.26887,0,0,1-.27-.27v-.04a.25319.25319,0,0,1,.26-.23.2824.2824,0,0,1,.28.26A.29183.29183,0,0,1,22.60363,36.52333Zm.07-1.58h-.02a.26086.26086,0,0,1-.28-.25v-.01a.26086.26086,0,0,1,.25-.28h.01a.10849.10849,0,0,1,.05.01l.01-.01a.28333.28333,0,0,1,.24.29A.26283.26283,0,0,1,22.67364,34.94337Zm.22-1.53a.14829.14829,0,0,1-.07-.01.26069.26069,0,0,1-.22-.3l.01-.01a.27252.27252,0,0,1,.31-.22.27235.27235,0,0,1-.03.54Zm.57,2.42h-.01a.25528.25528,0,0,1-.28-.25v-.07a.24887.24887,0,0,1,.25-.21.26577.26577,0,1,1,.04.53Zm.3-1.82a.28447.28447,0,0,1-.31.22.27311.27311,0,0,1,.04-.54.12752.12752,0,0,1,.06.00995.26112.26112,0,0,1,.21.3Zm.73-1.58a.99136.99136,0,0,1-.09.24.20874.20874,0,0,1-.23.07.29353.29353,0,0,1-.13-.18l-.24-.64c-.04-.12-.08-.23-.11005-.35-.01-.05-.02-.11.03-.13h.05c.12.00995.25.03.37.05.12.03.22.05.33.08.1.03.2.03.18.15C24.62359,31.96333,24.54364,32.20332,24.49365,32.43336Zm.79-2.65-.2.74c-.01.02-.08.33-.09.35a.37482.37482,0,0,1-.12006.13c-.19.04-.56.08-.71.1a5.43079,5.43079,0,0,0-.58.06.232.232,0,0,1-.2-.06.2155.2155,0,0,1-.05-.17.49375.49375,0,0,1,.06-.17c.14-.33.25-.64.36-.95a.33283.33283,0,0,1,.11-.21.41873.41873,0,0,1,.16-.04,7.5935,7.5935,0,0,1,1.07-.04.172.172,0,0,1,.12.02l.07.05A.21208.21208,0,0,1,25.28363,29.78334Z"/></g><circle class="cls-2" cx="20.14985" cy="4" r="3.5"/><path class="cls-2" d="M19.05,29.70005l.2-4.4,6.029,4.29,5.071,11.71a2.4832,2.4832,0,0,0,3.17017,1.51079l.02983-.01079h0a2.36062,2.36062,0,0,0,1.4318-3.01581v0q-.01509-.04239-.0318-.08418v-.1l-3.38809-8.0236A33.163,33.163,0,0,0,29.05,27.00005l-4.9-4.2.09428-6.88261a.18683.18683,0,0,1,.31317-.135L29.15,20l.1,4.3a2.24249,2.24249,0,0,0,2.28382,2.20036L31.55,26.5h0a2.263,2.263,0,0,0,2.3-2.22539h0q.00062-.0373,0-.07461v-.1l-.5-5.1a3.85779,3.85779,0,0,0-1.1-2.2l-4.7-4.3a10.89151,10.89151,0,0,0-5.6-2.7l-1-.1a18.11616,18.11616,0,0,0-3.8.1h0a9.06892,9.06892,0,0,0-4.7,2.3l-2.1,1.8-5.9-3.5a2.12428,2.12428,0,0,0-2.6.4h0a2.02912,2.02912,0,0,0,.2,2.8c.1.1.3.2.4.3l5.7,3.8a4.05894,4.05894,0,0,0,4.7-.1l1.9-1.5-.6,16.8-5.3,6.2a2.33151,2.33151,0,0,0,.2,3.2h.1a2.20821,2.20821,0,0,0,3.1-.2l3.9-4.3"/><path class="cls-3" d="M1.45,15.90005a21.81979,21.81979,0,0,0,9.7,17.6"/><path class="cls-3" d="M.25,19a19.25364,19.25364,0,0,0,2.3,7"/><path class="cls-3" d="M3.15,19.5a22.35308,22.35308,0,0,0,4.9,9.4"/><line class="cls-3" x1="37.04985" y1="32.9" x2="34.84985" y2="34.1"/><line class="cls-3" x1="36.54985" y1="34.2" x2="35.04985" y2="35.1"/><line class="cls-3" x1="36.14985" y1="32.3" x2="34.84985" y2="33"/><path class="cls-4" d="M37.85,31.00005a1.69853,1.69853,0,0,1,2.29225-2.50711h0l.00448.00411.00327.003.1.1"/><path class="cls-4" d="M40.25,28.60005a1.72014,1.72014,0,0,1-.1,2.4,1.6933,1.6933,0,0,1-2.3,0"/><path class="cls-4" d="M37.35,29.40005l1.4-.9c.8-.3,2,1.3,1,2.1l-1.4.7"/></svg>