<svg id="Iconos" xmlns="http://www.w3.org/2000/svg" viewBox="0 0 37.43556 28.1"><defs><style>.cls-1,.cls-2,.cls-3,.cls-4,.cls-6,.cls-7,.cls-8{fill:none;}.cls-1,.cls-2,.cls-3,.cls-4,.cls-7,.cls-8{stroke:#ff3737;stroke-miterlimit:10;}.cls-1,.cls-3,.cls-4{stroke-linecap:round;}.cls-3{stroke-width:0.5px;stroke-dasharray:2.81 2.81;}.cls-4{stroke-width:0.4093px;}.cls-5{fill:#ff3737;}.cls-7{stroke-width:0.25px;}.cls-8{stroke-linecap:square;}</style></defs><polyline class="cls-1" points="36.711 27.6 0.511 27.6 0.511 19.17"/><line class="cls-2" x1="36.93556" y1="28.1" x2="36.93556"/><path class="cls-3" d="M21.96706,9.41986c2.7.8,4.76712,1.38014,8.26712,2.48014l6.4,1.9" transform="translate(0.00138)"/><path class="cls-3" d="M3.48834,12.77171c2.7-.9,1.8-.6,5.3-1.8,0,0,7-2.5,7.1-2.5" transform="translate(0.00138)"/><line class="cls-4" x1="19.4741" y1="4.09443" x2="19.41087" y2="5.83971"/><line class="cls-4" x1="22.93135" y1="6.30229" x2="21.33415" y2="7.21275"/><line class="cls-4" x1="15.64331" y1="5.14694" x2="16.94878" y2="6.43759"/><line class="cls-4" x1="18.36574" y1="13.17514" x2="18.64827" y2="11.38623"/><line class="cls-4" x1="21.33415" y1="12.36031" x2="20.39727" y2="10.85955"/><line class="cls-4" x1="15.20978" y1="11.38623" x2="16.71053" y2="10.44936"/><path class="cls-5" d="M25.43376,17.71524l-.173.08649c-.346,0-.43247,0-.519-.25948l-.692-2.68131c-.08649,0-.25948.173-.346.173-.25949.0865-.346-.173-.346-.346-.0865-.173,0-.25948.173-.346a1.7947,1.7947,0,0,1,.86494-.519c.173-.0865.346.08649.346.25948l.86494,3.28677C25.69324,17.54225,25.60674,17.62875,25.43376,17.71524Z" transform="translate(0.00138)"/><path class="cls-5" d="M10.83032,9.32273l-2.01375.75515c-.33563.08391-.33563-.16781-.41954-.33562A.89155.89155,0,0,1,8.48094,9.071l.33563-.75516a4.09094,4.09094,0,0,0,.25171-.58734,1.65967,1.65967,0,0,0,.16782-.923c-.08391-.25172-.16782-.25172-.50344-.16782l-.50344.25172c-.08391,0-.16781.08391-.25172.16782-.25172.0839-.33562-.16782-.50344-.33563V6.63772c-.0839-.16781.08391-.25172.16782-.33562.25172-.16781.58734-.25172.83906-.41953.67125-.16782,1.3425-.16782,1.59422.58734.33563.923-.25172,1.84594-.67125,2.6011.33563-.16781.75516-.33563,1.09078-.50344.33563-.08391.41953.08391.50344.33563S10.99813,9.23882,10.83032,9.32273Z" transform="translate(0.00138)"/><path class="cls-6" d="M17.93418,20.5" transform="translate(0.00138)"/><path class="cls-6" d="M5.13418,16.6" transform="translate(0.00138)"/><path class="cls-3" d="M32.28232,16.34714c-3.9,1.2-10.6,3.3-15.6,4.8" transform="translate(0.00138)"/><path class="cls-2" d="M.73418,27.6" transform="translate(0.00138)"/><g id="Iconos-2"><path class="cls-5" d="M19.6788,25.75808l-.56451-.69762-.51106-.639L17.52754,23.0849a.36322.36322,0,0,1-.0712-.21457c.00618-.20943.01233-.41886.00517-.62559a14.48279,14.48279,0,0,0-.30665-3.29652,5.27575,5.27575,0,0,0-1.95541-3.31664.97438.97438,0,0,0-.15222-.06633,1.51151,1.51151,0,0,0-.48458-.16557,2.21837,2.21837,0,0,0-.5723-.016,3.20331,3.20331,0,0,0-.5613.10672,3.30264,3.30264,0,0,0-.59569.21088,4.23728,4.23728,0,0,0-.51693.25732,1.03186,1.03186,0,0,0-.1745.0978c-.13585.083-.27033.17267-.39685.26772a1.64361,1.64361,0,0,0-.1997.1445c-.10117.08293-.20233.16585-.29552.25412a.8316.8316,0,0,0-.11048.10564,2.60506,2.60506,0,0,0-.24215.24335,4.43935,4.43935,0,0,0-.42961.51722,2.30334,2.30334,0,0,0-.41305,2.41525,1.1634,1.1634,0,0,0,.10051.18785,3.61365,3.61365,0,0,0,.2894.53818,2.25645,2.25645,0,0,0,.1847.261,2.48056,2.48056,0,0,0,.31439.3874l.15516.18372c.111.10244.21391.19957.32489.302a1.291,1.291,0,0,0,.155.11431l.00137.00663c.14834.11569.29533.22472.44763.32572a5.22476,5.22476,0,0,0,.529.3162c.171.0903.3392.16725.52078.24151a11.16365,11.16365,0,0,0,2.664.71654c.25752.03806.5137.06946.76719.08754a.20018.20018,0,0,1,.14961.08771l.95256,1.20883.70243.89866.48429.60973a.08715.08715,0,0,0,.10676.01308l-.00135-.00668.75622-.58336a.09828.09828,0,0,0,.02415-.13686h0ZM15.85131,18.2337a.17524.17524,0,0,1,.14048.17974l.00007.03471a.17083.17083,0,0,1-.19272.14569h0l-.00695-.0011-.01332.00264a.18832.18832,0,0,1-.14721-.213.19356.19356,0,0,1,.21973-.14865Zm.49786,1.80747a.18512.18512,0,0,1-.17451.19508h0l-.00115.00008c-.01467-.00394-.03467.00012-.05071-.01055a.16664.16664,0,0,1-.13249-.17438.17262.17262,0,0,1,.16456-.18031h0l.007-.00016a.17735.17735,0,0,1,.187.16711h0Zm-3.00749.15795.00532-.008a.17435.17435,0,0,1,.21313-.11258l.008.00532.008.00531a.17047.17047,0,0,1,.11672.21094h0l-.0028.00889.00135.00666-.00536.008a.18322.18322,0,0,1-.34439-.12458Zm-.38553-1.69842a.19241.19241,0,0,1,.23449-.10992.17377.17377,0,0,1,.11769.13577.20961.20961,0,0,1-.00247.09072l-.00531.008a.17984.17984,0,0,1-.22824.11219l-.00625-.00227-.00668.00135a.184.184,0,0,1-.10323-.23582Zm.4964.635a.19232.19232,0,0,1,.23448-.10993.19457.19457,0,0,1,.11661.23314.17984.17984,0,0,1-.22823.11224h0l-.00625-.00228a.18784.18784,0,0,1-.11656-.2331Zm.23409-.83154a.18444.18444,0,0,1-.16984-.18768l.004-.01469a.18181.18181,0,0,1,.19571-.16452.17608.17608,0,0,1,.16769.18409h0l-.0018.01825a.18187.18187,0,0,1-.19565.16456Zm.33184.4394a.17431.17431,0,0,1,.19425-.15177h0l.00411.00051.01468.004a.18444.18444,0,0,1-.065.36311h0l-.00459-.00084-.00071-.00011-.00217-.00045a.19173.19173,0,0,1-.14851-.18505.05162.05162,0,0,1,.00792-.02937Zm-.09093,1.0246A.18984.18984,0,0,1,14.15,19.633a.11916.11916,0,0,1,.03874.01992.184.184,0,0,1,.08486.246l-.00025.00051a.18811.18811,0,0,1-.21053.0912.18374.18374,0,0,1-.1354-.22178h0Zm.45748.54578a.17849.17849,0,0,1,.22562-.11315l.00892.00322a.18074.18074,0,0,1,.103.13181.16274.16274,0,0,1-.01443.10007.18186.18186,0,0,1-.23053.09526.173.173,0,0,1-.09254-.21719Zm.46035.62848a.18866.18866,0,0,1,.21442-.14057.18018.18018,0,0,1,.141.21223l-.00045.00218a.17622.17622,0,0,1-.137.14571.19976.19976,0,0,1-.06269-.00118l-.0147-.004a.19678.19678,0,0,1-.14579-.17171Zm-.19409-1.40408a.18616.18616,0,0,1-.16319-.189l-.00269-.01332a.1989.1989,0,0,1,.20232-.16586.17547.17547,0,0,1,.15862.19084h0l-.00068.00612.00135.00667a.18187.18187,0,0,1-.19572.1646ZM14.599,18.3207l.00523-.0427A.1818.1818,0,0,1,14.8,18.11347l.00135.00666a.18976.18976,0,1,1-.20227.20057Zm.65181.37456a.17936.17936,0,0,1,.18182.17682h0v.00148a.07274.07274,0,0,1-.00524.0427.18432.18432,0,0,1-.18766.16985l-.008-.00532a.18387.18387,0,0,1-.15787-.197.18772.18772,0,0,1,.177-.18847Zm.324,1.63451a.11541.11541,0,0,1,.048-.00279.20011.20011,0,0,1,.17922.19962.17875.17875,0,0,1-.18719.16987h-.00049l-.02135-.00262a.17183.17183,0,0,1-.16611-.17735h0l.00157-.01828a.18182.18182,0,0,1,.14633-.16835Zm-.04612-.8789a.18188.18188,0,0,1,.19571-.16453.19452.19452,0,0,1,.14328.22779.21251.21251,0,0,1-.17839.14715.1873.1873,0,0,1-.16058-.21038Zm-.22043-1.80814.04135-.00143a.18436.18436,0,0,1,.16984.18768l-.00528.008.00134.00668a.18439.18439,0,0,1-.18763.16981l-.008-.00535a.19349.19349,0,0,1-.18849-.177.18242.18242,0,0,1,.17614-.18848h0ZM14.824,17.033a.10947.10947,0,0,1,.064.00784.18715.18715,0,0,1,.13913.17307.193.193,0,0,1-.17488.2095h0l-.00466.00037a.19677.19677,0,0,1-.20981-.17959.19949.19949,0,0,1,.1862-.21116Zm-.62009-.492.00667-.00134a.17487.17487,0,0,1,.33887.02853l.00675.03333-.00784.064a.17553.17553,0,0,1-.22891.09593h0l-.00165-.00069-.00663.00137A.19179.19179,0,0,1,14.204,16.541Zm.093.93881a.18671.18671,0,0,1,.1685.181l.004.02a.19478.19478,0,0,1-.20765.1739.19.19,0,0,1-.17259-.201.19482.19482,0,0,1,.20765-.17388Zm-.50837-.62569c.01468.00394.03072.0146.04405.0119a.1873.1873,0,0,1,.16058.21036.21283.21283,0,0,1-.209.20192.205.205,0,0,1-.20853-.20141v-.00618a.2257.2257,0,0,1,.21288-.21657Zm-.60254-.40539a.17789.17789,0,0,1,.20257-.14917h0l.01048.00192a.18025.18025,0,0,1,.14849.185.17757.17757,0,0,1-.17162.18048l-.008-.00533-.03469.00007a.17788.17788,0,0,1-.14917-.20252Zm.06611.87479a.18846.18846,0,0,1,.15922.20371.18093.18093,0,0,1-.197.15787.17183.17183,0,0,1-.16384-.17941h0l.00071-.00951-.0027-.01335a.1949.1949,0,0,1,.20369-.15917Zm-.43621-.57786a.19461.19461,0,0,1,.18175.14361c.00269.01333-.00262.02134.00006.0347a.1811.1811,0,0,1-.179.1832h-.006l-.0347.00008a.184.184,0,0,1-.14849-.18505.18184.18184,0,0,1,.18634-.17645ZM12.71167,17.773l.00938.012a.17915.17915,0,0,1,.10861.22779l-.00533.008a.18032.18032,0,0,1-.23186.08859l-.008-.00532a.17194.17194,0,0,1-.098-.20908l-.00135-.00667a.19115.19115,0,0,1,.22657-.11527ZM12.364,19.07162a.20941.20941,0,0,1,.00246-.09071l-.00137-.00663a.16394.16394,0,0,1,.20276-.11231h0l.00365.00112.00667-.00135.02134.00261a.19985.19985,0,0,1,.10992.23449.17593.17593,0,0,1-.22649.10295h0l-.00265-.001a.16371.16371,0,0,1-.11635-.129Zm.25866,1.0718a.168.168,0,0,1-.18505.1485.17192.17192,0,0,1-.15513-.18376l.004-.01468a.168.168,0,0,1,.17172-.1458.18182.18182,0,0,1,.1645.19577Zm.39331-.62785a.187.187,0,0,1,.15788.197l.00134.00667a.1863.1863,0,0,1-.19838.1512l-.01469-.004a.18393.18393,0,0,1-.14849-.18505.20219.20219,0,0,1,.20232-.1658Zm-.80185-2.315.00662-.00123.04134-.00143a.17463.17463,0,0,1,.16347.1851h0l-.00027.00393.0027.01334a.17758.17758,0,0,1-.189.16318l-.00664.00133a.19572.19572,0,0,1-.19649-.18229.18286.18286,0,0,1,.17829-.18187Zm-.09079,1.05925a.184.184,0,0,1,.10859.22784l-.00664.00137a.18482.18482,0,0,1-.23718.09662l-.008-.00533a.17167.17167,0,0,1-.09257-.21718.17925.17925,0,0,1,.23057-.10534h0Zm-.0025,1.18718c.0027.01333-.00123.028.00143.04135l-.00124.028a.17289.17289,0,0,1-.18562.15913h0l-.01142-.00123a.17768.17768,0,0,1-.16318-.189.18116.18116,0,0,1,.19461-.1666l.00773.00075a.17226.17226,0,0,1,.15766.12776Zm-.64689-1.65239a.1688.1688,0,0,1,.20513-.11787l.02269.00928a.1922.1922,0,0,1,.10462.24248.17546.17546,0,0,1-.22881.096l0,0h0l-.00166-.00067a.17154.17154,0,0,1-.10621-.21808Zm.01544.899a.18613.18613,0,0,1,.16585.20234.17588.17588,0,0,1-.14764.16175.11642.11642,0,0,1-.048.00279.17471.17471,0,0,1-.16349-.18525v0h0l.00032-.00375-.00271-.01336a.18493.18493,0,0,1,.19572-.16448Zm-.44815-.53378.03469-.00006a.18317.18317,0,1,1-.21967.18325.1862.1862,0,0,1,.185-.18312ZM10.79517,19.549a.18838.18838,0,0,1-.12328-.23179l.00532-.008.00667-.00136a.172.172,0,0,1,.214-.11572h0l.00574.00182.008.00531a.16892.16892,0,0,1,.11776.17044.06165.06165,0,0,1-.01055.05071.17735.17735,0,0,1-.2137.13128h0Zm.71469.44511a.18646.18646,0,0,1-.21171.1539.1963.1963,0,0,1-.15516-.18371.19239.19239,0,0,1,.20233-.16585.18179.18179,0,0,1,.16839.14629c.00271.01334-.00124.028.00143.04134Zm.3607.78745a.18852.18852,0,0,1-.06136.00548.17282.17282,0,0,1-.16181-.18239L11.646,20.598a.18119.18119,0,0,1,.19461-.16661h0l.00773.00076a.184.184,0,0,1,.16305.15434c.00271.01332-.00123.028.00143.04134a.18187.18187,0,0,1-.14229.15382Zm.43367.63393a.202.202,0,0,1-.19117-.19033.19256.19256,0,0,1,.193-.17786l.028.00123a.17226.17226,0,0,1,.14715.17838.18773.18773,0,0,1-.177.18858Zm.4509.58181a.18138.18138,0,0,1-.18176-.14363l-.00534-.02672.004-.01469a.17271.17271,0,0,1,.16473-.1803l.00692-.0002.048-.00279a.18251.18251,0,0,1,.13914.17307.18518.18518,0,0,1-.17466.19512l-.001.00006Zm.1922-1.07291a.24174.24174,0,0,1-.06937.00017.17445.17445,0,0,1-.14437-.13038c-.0027-.01333.00125-.028-.00142-.04134l-.00142-.04134a.18235.18235,0,0,1,.21152-.14752h0l.00151.00028a.1779.1779,0,0,1,.14915.20257l-.00191.01054a.18192.18192,0,0,1-.1437.14708Zm.40415.55658a.16584.16584,0,0,1-.16072-.17076l.00022-.00491-.004-.02a.18636.18636,0,0,1,.1703-.18717l.01467.004a.17593.17593,0,0,1,.18175.16988h0v.00843a.07144.07144,0,0,1-.00658.036l.008.00532a.18846.18846,0,0,1-.20363.15926Zm.664.43457a.16774.16774,0,0,1-.18944.14282h0l-.01825-.00361-.00667.00135a.18258.18258,0,0,1-.14058-.21442.17834.17834,0,0,1,.211-.138l.01134.00277a.18254.18254,0,0,1,.13914.17307.0521.0521,0,0,1-.00659.03611Zm-.12619-.89737a.18855.18855,0,0,1-.11771-.13578.17.17,0,0,1,.00777-.09872.17981.17981,0,0,1,.22819-.11225h.00007l.00623.00225.00668-.00135a.19221.19221,0,0,1,.10461.24249.18391.18391,0,0,1-.23589.10344Zm.33994.47936-.00545-.02669a.05892.05892,0,0,1,.0119-.044.16762.16762,0,0,1,.19155-.13964l.00953.00178.01333-.0027a.19142.19142,0,0,1,.14058.21442.18758.18758,0,0,1-.21971.14858h0a.18225.18225,0,0,1-.14176-.15165Zm1.32327.60638c-.01046.08539-.0276.17214-.03941.25086-.02516.08143-.03971.14682-.06618.22157-.01983.07341-.021.13609-.09976.1243-.16548-.02892-.32964-.08588-.48314-.12418a.405.405,0,0,1-.15888-.06495.13306.13306,0,0,1-.04573-.15724.27359.27359,0,0,1,.12119-.08693l.44114-.15178c.08532-.02421.15725-.04573.24259-.07.0347,0,.07468-.00818.08809.02381Zm-.445-1.9917a.18179.18179,0,1,1,.20234-.16584.17863.17863,0,0,1-.18934.16717Zm1.71392,2.19274a4.14512,4.14512,0,0,1,.00842.72694.1085.1085,0,0,1-.01048.08538l-.03991.04279a.13467.13467,0,0,1-.12539-.00238l-.50188-.14818-.23493-.0635a.20871.20871,0,0,1-.08691-.08646c-.02565-.12666-.04226-.38006-.05583-.48139a2.71081,2.71081,0,0,0-.03165-.3961.16.16,0,0,1,.04236-.13349.15613.15613,0,0,1,.11729-.03763c.03738.01324.08277.03184.11348.04642.22166.10084.43261.183.6422.25855a.24014.24014,0,0,1,.14159.08236.29116.29116,0,0,1,.02162.10676Zm-.14815-1.14277c-.0023.16009.0195.33609.00251.49218-.00911.09205-.08256.07225-.15055.07908s-.152.003-.22142.00319c-.084-.00378-.17609-.01291-.25347-.01807l-.044-.01189a.0774.0774,0,0,1,.00379-.084,2.27247,2.27247,0,0,1,.12886-.2204l.25518-.38476a.20388.20388,0,0,1,.11047-.10564.13733.13733,0,0,1,.14159.08236.47671.47671,0,0,1,.02708.16807Zm-.46093-1.96769a.19132.19132,0,0,1-.14714-.17837c.004-.01469.00261-.02136.00657-.036a.18134.18134,0,0,1,.2064-.14589l.01469.004a.1888.1888,0,0,1,.14058.21443.18459.18459,0,0,1-.21869.14245h0Z" transform="translate(0.00138)"/></g><path class="cls-7" d="M17.17878,8.51866a1.69706,1.69706,0,0,1,3.39141-.13544" transform="translate(0.00138)"/><path class="cls-7" d="M20.57019,8.38322a1.69706,1.69706,0,0,1-3.39141.13545" transform="translate(0.00138)"/><path class="cls-7" d="M17.90237,7.14519l1.63916.28838c.7913.32223.58769,2.31184-.68973,2.22132l-1.50349-.43532" transform="translate(0.00138)"/><path class="cls-5" d="M2.0025,11.9724.01182,14.30632c-.03654.09309.02.22272.05654.12963l3.00832-.0006c.09308.03655.12963-.05654.07309-.18617L2.039,11.87932C2.22521,11.95241,2.13213,11.91586,2.0025,11.9724Z" transform="translate(0.00138)"/><path class="cls-5" d="M33.61289,17.33658l2.1956-2.14227c.0449-.08936.00044-.22361-.04446-.13425l-2.99579-.27428c-.08935-.04489-.13425.04446-.0898.17871l.88955,2.46144C33.38928,17.33614,33.47864,17.381,33.61289,17.33658Z" transform="translate(0.00138)"/><line class="cls-8" x1="36.71121" y1="0.53118" x2="0.5" y2="0.53118"/></svg>