<svg id="Iconos" xmlns="http://www.w3.org/2000/svg" viewBox="0 0 37.59337 47.0116"><defs><style>.cls-1,.cls-4,.cls-5,.cls-6{fill:none;}.cls-1,.cls-3,.cls-4,.cls-5,.cls-6{stroke:#ff3737;}.cls-1,.cls-5,.cls-6{stroke-linecap:round;}.cls-1{stroke-linejoin:round;}.cls-2{fill:#ff3737;}.cls-3{fill:#fff;}.cls-3,.cls-4,.cls-5,.cls-6{stroke-miterlimit:10;}.cls-3,.cls-4,.cls-6{stroke-width:0.25px;}.cls-5{stroke-width:0.5px;}</style></defs><circle class="cls-1" cx="17.87399" cy="13.97516" r="2.8"/><path class="cls-1" d="M4.879,10.37513h0a1.59242,1.59242,0,0,0-.7,2l2,4.4a3.31888,3.31888,0,0,0,1.7,1.6l4.9,1.9-.2,8.2-3.4,7.8a2.01585,2.01585,0,0,0-.3,1.1l-1.2,7.4a1.415,1.415,0,0,0,1.067,1.69292l.033.00708h0a1.51973,1.51973,0,0,0,1.8-1.1l1.4-7.7,2.3-4.7a1.4192,1.4192,0,0,1,1.4-.8h0a1.42386,1.42386,0,0,1,1.3.9l2,4.7v7.2a1.538,1.538,0,0,0,1.5,1.5h.3a1.538,1.538,0,0,0,1.5-1.5v-6.8a4.01275,4.01275,0,0,0-.3-1.5l-2.8-7.6.2-5.9,3.3,5.1,3.3,3.2a1.45,1.45,0,0,0,2.05.05q.02561-.02439.05-.05h0a1.54261,1.54261,0,0,0,0-2.1l-3-3.1-3.6-5.6a3.90682,3.90682,0,0,0-1.7-1.4l-10.8-4-2.2-4.3a1.35063,1.35063,0,0,0-1.79427-.655Q4.93068,10.34529,4.879,10.37513Z" transform="translate(-0.00499 0.00003)"/><path class="cls-2" d="M27.979,46.97513l-7.1-18.6,8.4,18.6" transform="translate(-0.00499 0.00003)"/><g id="Pelota"><circle class="cls-3" cx="25.07399" cy="45.07516" r="1.3"/><path class="cls-4" d="M23.979,44.37513l.2.9a.88874.88874,0,0,0,1.7-.5l-.4-.9" transform="translate(-0.00499 0.00003)"/></g><path class="cls-5" d="M4.2984,17.07513a22.305,22.305,0,0,0-2.1,17.8" transform="translate(-0.00499 0.00003)"/><path class="cls-5" d="M.5984,24.17513a23.53475,23.53475,0,0,0-.2,6.6" transform="translate(-0.00499 0.00003)"/><path class="cls-5" d="M3.7984,20.77513a23.45344,23.45344,0,0,0-1.4,8.8" transform="translate(-0.00499 0.00003)"/><path class="cls-5" d="M27.979,44.27513" transform="translate(-0.00499 0.00003)"/><path class="cls-6" d="M24.479,37.57513" transform="translate(-0.00499 0.00003)"/><g id="Iconos-2"><path class="cls-2" d="M6.1803,12.7195l.53445-.83542.49167-.75891,1.026-1.59439a.40138.40138,0,0,1,.20013-.14955c.22175-.06662.44349-.13327.65776-.21294A16.00547,16.00547,0,0,0,12.4398,7.69612a5.8303,5.8303,0,0,0,2.7951-3.2079,1.07673,1.07673,0,0,0,.01641-.18275,1.67021,1.67021,0,0,0,.00447-.5659,2.45163,2.45163,0,0,0-.183-.60566,3.54017,3.54017,0,0,0-.30782-.5513,3.64827,3.64827,0,0,0-.429-.551,4.67942,4.67942,0,0,0-.45025-.4522,1.13959,1.13959,0,0,0-.16345-.14883c-.13447-.11347-.27541-.22315-.41923-.32267a1.81409,1.81409,0,0,0-.22122-.159c-.12229-.07714-.24456-.15427-.36959-.22117a.91784.91784,0,0,0-.14933-.079,2.87657,2.87657,0,0,0-.33969-.169,4.90753,4.90753,0,0,0-.69228-.26992,2.54548,2.54548,0,0,0-2.67666.41,1.28608,1.28608,0,0,0-.16188.17093,3.99284,3.99284,0,0,0-.46329.49129,2.49271,2.49271,0,0,0-.2092.28476,2.73982,2.73982,0,0,0-.29647.46486l-.13848.22682c-.06868.1521-.1346.29394-.20327.44605a1.423,1.423,0,0,0-.06575.20245l-.00649.00375c-.06954.19591-.13255.38809-.1853.583a5.77576,5.77576,0,0,0-.14692.665c-.035.21076-.057.414-.07146.63036a12.33682,12.33682,0,0,0,.17851,3.04349c.05.28331.10647.56288.176.835A.22125.22125,0,0,1,7.2205,8.855l-.935,1.42077L5.58833,11.326l-.47029.72066a.09627.09627,0,0,0,.02356.1165l.00652-.00374.87564.58932a.1086.1086,0,0,0,.15193-.02245h0ZM12.734,6.08a.19365.19365,0,0,1-.13943.21l-.03636.01218a.18878.18878,0,0,1-.22-.15125v0h0L12.337,6.1432l-.00748-.013a.2081.2081,0,0,1,.172-.22875.21387.21387,0,0,1,.23255.17851ZM11.01257,7.23283a.20455.20455,0,0,1-.26549-.1149l0,0h0l-.00048-.00117c-.001-.01676-.01224-.03632-.00664-.05686a.18413.18413,0,0,1,.13664-.19977.19076.19076,0,0,1,.2465.10962h0v.00008l.0026.00726a.196.196,0,0,1-.11.25439h0ZM9.79724,4.1345l.01025.00277a.1927.1927,0,0,1,.19244.18419l-.00278.01027L9.99438,4.342a.18839.18839,0,0,1-.18047.196h0l-.01029.00016-.00652.00373-.01029-.0028a.20248.20248,0,0,1,.01043-.40459Zm1.6463-.99707a.21259.21259,0,0,1,.19712.2075.19205.19205,0,0,1-.10127.1708.23168.23168,0,0,1-.096.02908L11.43315,3.542a.19873.19873,0,0,1-.19731-.20014v0L11.236,3.3345l-.00374-.0065a.2033.2033,0,0,1,.21123-.19056Zm-.49263.74213a.21255.21255,0,0,1,.19713.2075.215.215,0,0,1-.20376.20365.19877.19877,0,0,1-.19732-.20017l.0002-.00735a.20758.20758,0,0,1,.20374-.20362Zm.95362-.04478a.20383.20383,0,0,1,.1375-.2436l.01678-.001a.20093.20093,0,0,1,.24083.14779.19461.19461,0,0,1-.1345.24009l-.01976.00447a.201.201,0,0,1-.24083-.14773Zm-.34488.50132a.19262.19262,0,0,1,.22693.1507v0h0l.0009.00449.00095.01679a.20384.20384,0,0,1-.40344.05861h0l-.00073-.00512-.0001-.00079-.00029-.00242a.2119.2119,0,0,1,.1422-.22031.057.057,0,0,1,.03353-.00195Zm-1.10607.26228a.20979.20979,0,0,1,.21944.186.13158.13158,0,0,1-.00737.04757.20337.20337,0,0,1-.22836.17486l-.00062-.00009a.20785.20785,0,0,1-.16911-.18891.20306.20306,0,0,1,.18529-.21939h0Zm-.4126.67019a.19724.19724,0,0,1,.19739.19706l-.00026.01047a.19969.19969,0,0,1-.10224.15406.17988.17988,0,0,1-.11.0198.201.201,0,0,1-.18035-.20847.19125.19125,0,0,1,.19543-.17285Zm-.49832.702a.20851.20851,0,0,1,.22223.17576.19913.19913,0,0,1-.17327.222h0l-.00243.00029a.19475.19475,0,0,1-.20063-.09283.22092.22092,0,0,1-.02064-.06615l-.001-.01679A.21748.21748,0,0,1,9.49609,5.98ZM10.94718,5.277a.20571.20571,0,0,1,.14124-.237l.013-.00748a.21981.21981,0,0,1,.24456.15427.19391.19391,0,0,1-.14481.23288h0l-.00667.00143-.0065.0037a.201.201,0,0,1-.24088-.14777Zm1.25855-.47982.04659-.00942a.2009.2009,0,0,1,.24083.14778l-.00651.00374a.2097.2097,0,1,1-.2809-.14208Zm-.16526.8142a.1982.1982,0,0,1-.12195.25236h0l-.00154.00053a.08043.08043,0,0,1-.0466.00941.20368.20368,0,0,1-.24359-.13749l.00278-.01027a.20318.20318,0,0,1,.15148-.23429.20744.20744,0,0,1,.25939.11976Zm-1.60076.91027a.12756.12756,0,0,1,.01967.04936.22115.22115,0,0,1-.14676.25759.19753.19753,0,0,1-.24345-.137v0h0L10.069,6.69114l-.00471-.02329a.18988.18988,0,0,1,.128-.23607l0,0h.00006l.01972-.00473a.20091.20091,0,0,1,.22759.09466Zm.90547-.35513a.201.201,0,0,1,.24082.14779.215.215,0,0,1-.18884.22973.2348.2348,0,0,1-.21655-.13569.207.207,0,0,1,.16454-.2418Zm1.819-.86223.01592.04285a.20374.20374,0,0,1-.1375.2436L13.03232,5.588l-.00652.00374a.20377.20377,0,0,1-.24355-.13747l.0028-.01021a.21383.21383,0,0,1,.11975-.2594.2016.2016,0,0,1,.25911.11892Zm.47029-.72064a.12108.12108,0,0,1,.01413.06989.20681.20681,0,0,1-.13291.20629.21326.21326,0,0,1-.28071-.11024h0l-.002-.00475a.21743.21743,0,0,1,.11506-.28268.22047.22047,0,0,1,.28641.12153Zm.29949-.82192.00374.00652a.19324.19324,0,0,1,.08835.36527l-.03259.01871-.06984.01413a.194.194,0,0,1-.18048-.20654h0l.00014-.00195-.00374-.00652A.212.212,0,0,1,13.934,3.7617Zm-.95193.42515a.20635.20635,0,0,1-.131.23985l-.01956.01123a.21527.21527,0,0,1-.25482-.15706.20992.20992,0,0,1,.15051-.25111.21526.21526,0,0,1,.25479.157Zm.47862-.75144c.001.01676-.00458.0373.00289.05034a.207.207,0,0,1-.16452.24179.23518.23518,0,0,1-.28465-.14861.22659.22659,0,0,1,.13841-.289h0l.00643-.00219a.24944.24944,0,0,1,.30139.14763Zm.21475-.77327a.19659.19659,0,0,1,.22712.16034h0l.00165.01165a.1992.1992,0,0,1-.14221.22029.19624.19624,0,0,1-.24915-.117l.00277-.01028-.01218-.03636a.19656.19656,0,0,1,.16029-.22709Zm-.89418.37465a.20826.20826,0,0,1-.158.238.19992.19992,0,0,1-.23429-.15148.18988.18988,0,0,1,.13092-.23441h0l.01024-.00259.013-.00748a.21538.21538,0,0,1,.238.158Zm.45365-.65908a.21508.21508,0,0,1-.08714.2407c-.013.00747-.0233.0047-.03637.01218a.20015.20015,0,0,1-.25456-.12373h0l-.00207-.0063-.01218-.03635a.20332.20332,0,0,1,.1422-.22029.20094.20094,0,0,1,.25.1338Zm-1.11355.2493-.00931.014a.198.198,0,0,1-.20094.1934l-.01026-.00279a.19928.19928,0,0,1-.17381-.21221l.00278-.01027a.19.19,0,0,1,.185-.1757l.00652-.00375a.21123.21123,0,0,1,.19991.19733Zm-1.48306.08871a.23182.23182,0,0,1,.096-.02907l.00651-.00374a.18118.18118,0,0,1,.18856.17341h0l.00009.0042.00375.00653.00471.02329a.22088.22088,0,0,1-.20751.19712.19443.19443,0,0,1-.187-.20157h0l.00015-.00313a.181.181,0,0,1,.09469-.16705ZM9.6047,3.36111a.18565.18565,0,0,1-.2203-.1422.19.19,0,0,1,.13848-.22681l.01678-.001a.18563.18563,0,0,1,.2128.12916.20091.20091,0,0,1-.14785.24081Zm.79561.19326a.20665.20665,0,0,1-.15149.23431l-.00653.00374a.20586.20586,0,0,1-.22777-.15524l-.001-.01679a.2033.2033,0,0,1,.14221-.22029.22342.22342,0,0,1,.24446.15427Zm2.14747-1.64878.00363.00653.01592.04285a.193.193,0,0,1-.13706.236h0l-.00422.00109-.013.00749a.19624.19624,0,0,1-.23707-.14123l-.00375-.00652a.21627.21627,0,0,1,.12255-.26966.20209.20209,0,0,1,.25293.12346Zm-1.14242.2745a.20328.20328,0,0,1-.201.19338L11.20063,2.367a.20425.20425,0,0,1-.18409-.215l.00278-.01027a.18971.18971,0,0,1,.19543-.17285.19808.19808,0,0,1,.19093.205v0h0Zm-1.24562.41174c-.013.00748-.02981.00848-.04285.01593l-.0298.00848a.19107.19107,0,0,1-.23164-.13909h0l-.00267-.0124A.19635.19635,0,0,1,9.994,2.22768a.20021.20021,0,0,1,.24263.14591l.0019.00836a.19037.19037,0,0,1-.07893.20991Zm1.50685-1.255a.18656.18656,0,0,1,.1952.17394l-.00181.027a.21241.21241,0,0,1-.21774.19433.19391.19391,0,0,1-.1805-.20645v0h0l.00013-.002a.18955.18955,0,0,1,.19159-.18747Zm-.9372.33a.20567.20567,0,0,1-.15428.24455A.19432.19432,0,0,1,10.354,1.813a.12849.12849,0,0,1-.01968-.04936.19308.19308,0,0,1,.13719-.23609h0l.004-.001.01307-.00751a.20436.20436,0,0,1,.24071.14784Zm.40326-.65621.01218.03636A.20242.20242,0,1,1,10.876.88059a.20576.20576,0,0,1,.25657.13Zm-1.54244.22684a.20818.20818,0,0,1,.2-.21016l.01028.0027.00375.00652a.19014.19014,0,0,1,.196.184h0l.0001.00665-.00278.01027a.18666.18666,0,0,1-.1376.183.06814.06814,0,0,1-.05685.00664.196.196,0,0,1-.21228-.17823l0-.00007v0h0Zm-.21728.90476a.20609.20609,0,0,1-.23526-.16828.217.217,0,0,1,.13848-.22681.21261.21261,0,0,1,.24456.15427.20092.20092,0,0,1-.09462.22763c-.013.00749-.02981.00847-.04285.01592Zm-.69977.653A.208.208,0,0,1,8.646,2.73279a.191.191,0,0,1,.13475-.23333l.00651-.00377a.20023.20023,0,0,1,.24263.14591h0l.0019.00837a.20332.20332,0,0,1-.10491.22485c-.013.00748-.02981.00848-.04286.01592a.201.201,0,0,1-.211-.09551Zm-.51331.676a.22319.22319,0,0,1,.13278-.26689.21281.21281,0,0,1,.25386.14026L8.555,3.3744A.19036.19036,0,0,1,8.4193,3.591a.20744.20744,0,0,1-.25949-.11971Zm-.45267.67586a.20042.20042,0,0,1,.08715-.2407l.02607-.015.01679-.001a.19086.19086,0,0,1,.24655.10979l.00262.00719.01968.04936a.2017.2017,0,0,1-.13291.2063.20464.20464,0,0,1-.26555-.115l-.00041-.001Zm1.192-.173a.26657.26657,0,0,1-.02439-.07266.19278.19278,0,0,1,.08631-.19689c.013-.00748.02981-.00847.04285-.01592l.04285-.01592a.20154.20154,0,0,1,.22852.17031h0l.00022.00169a.19656.19656,0,0,1-.16032.22709h0l-.01171.00168a.20111.20111,0,0,1-.20439-.09935Zm-.44254.618a.18325.18325,0,0,1,.123-.22808l.00522-.00148.01955-.01123a.206.206,0,0,1,.2557.11324l.001.01678a.19441.19441,0,0,1-.1147.24986h0l-.00883.003a.079.079,0,0,1-.04.00566l-.0028.01023a.20827.20827,0,0,1-.238-.15792ZM8.23275,5.44a.18541.18541,0,0,1-.21589-.14881h0l-.00258-.0204-.00374-.00653A.20177.20177,0,0,1,8.18629,5.042a.19706.19706,0,0,1,.21839.17312v0l.00106.01287a.20174.20174,0,0,1-.1329.2063A.05765.05765,0,0,1,8.23268,5.44Zm.89688-.44554a.20843.20843,0,0,1,.10129-.17081.1878.1878,0,0,1,.10622-.02631.19874.19874,0,0,1,.19731.20016h0l-.00019.00733.00374.00652a.2124.2124,0,0,1-.21774.19433.20324.20324,0,0,1-.19071-.21122Zm-.384.52376.02609-.015a.0651.0651,0,0,1,.05033-.0029.18526.18526,0,0,1,.21328.15211L9.0368,5.663l.00748.013a.21155.21155,0,0,1-.17575.22223A.20731.20731,0,0,1,8.636,5.71975h0a.20139.20139,0,0,1,.10953-.20157ZM8.5717,7.11742c-.0932.01883-.19013.03114-.27679.04624-.09417.002-.16782.00961-.25544.00794-.08389.00483-.15.02545-.16515-.06121-.0274-.1836-.025-.37563-.03842-.54994a.44767.44767,0,0,1,.01265-.18927.147.147,0,0,1,.14891-.10283.30219.30219,0,0,1,.13345.09674l.31312.40957c.05516.081.10283.14892.158.22995.01218.03636.03464.07545.00579.10068ZM10.50478,5.9557a.2009.2009,0,1,1,.24456.15428.19739.19739,0,0,1-.24137-.14017Zm-1.701,2.56246a4.57987,4.57987,0,0,1-.75928.26255.12.12,0,0,1-.09319.01882l-.05879-.02691a.14882.14882,0,0,1-.04128-.13231l-.01979-.578L7.816,7.79382a.23069.23069,0,0,1,.06035-.12132c.12385-.07109.38374-.177.48526-.22656a2.99568,2.99568,0,0,0,.40428-.17144.17681.17681,0,0,1,.15475-.00217.17254.17254,0,0,1,.0804.10985c-.00084.04382-.0045.0979-.00905.1352-.02837.26761-.04094.51748-.047.76361a.26537.26537,0,0,1-.03693.17721.32164.32164,0,0,1-.10439.05993ZM9.95035,7.964c-.16863.05347-.3456.13773-.5152.17442-.0997.02258-.10457-.06134-.13543-.13025s-.05625-.15837-.08064-.231c-.02532-.08941-.04791-.18915-.06951-.27208l-.0029-.05034a.08552.08552,0,0,1,.08941-.02533,2.50822,2.50822,0,0,1,.27607.05818l.49251.13327a.22525.22525,0,0,1,.14932.079.15176.15176,0,0,1-.037.17713.52727.52727,0,0,1-.16678.08705Zm1.90231-1.17a.21145.21145,0,0,1,.13567-.21655c.01679-.001.0233-.00471.04005-.00567a.2004.2004,0,0,1,.225.1655l.001.01679a.20864.20864,0,0,1-.17576.22222.204.204,0,0,1-.22573-.17959h0Z" transform="translate(-0.00499 0.00003)"/></g><path class="cls-5" d="M26.72824,35.14773a8.83925,8.83925,0,0,0,6.975-3.20021" transform="translate(-0.00499 0.00003)"/><path class="cls-5" d="M30.22277,35.71859A9.1797,9.1797,0,0,0,32.665,34.30175" transform="translate(-0.00499 0.00003)"/><path class="cls-5" d="M28.19389,34.06961a9.22719,9.22719,0,0,0,3.53836-1.43816" transform="translate(-0.00499 0.00003)"/><path class="cls-2" d="M30.4272,12.46249h-.74467c-.27925,0-.38325.00706-.5585-.27925L28.10011,10.787l-1.02392,1.48933a.80455.80455,0,0,1-.5585.27926H25.773c-.27925,0-.5585-.09309-.5585-.46542a1.31486,1.31486,0,0,1,.37233-.65159l1.521-1.8968L25.67993,7.80831c-.09308-.18616-.37233-.46541-.37233-.74467,0-.5585.83775-.46541,1.117-.46541a.78691.78691,0,0,1,.83776.46541l.74466,1.117.74467-1.117c.42221-.69725.764-.5419,1.48934-.46541.27771.02928.5585.09308.5585.46541,0,.18617-.22131.40422-.46057.73966l-1.308,1.68052,1.67551,2.04784a.922.922,0,0,1,.26164.48138C31.06118,12.38537,30.70645,12.46249,30.4272,12.46249Z" transform="translate(-0.00499 0.00003)"/><path class="cls-2" d="M37.03613,12.46249H32.6612c-.74467,0-.65158-.46542-.65158-1.02392,0-.46542.46541-.83775.74466-1.117l1.117-1.117.83775-.83776a3.36834,3.36834,0,0,0,.93084-1.6755c0-.65158-.18617-.74467-.74467-.74467a5.30757,5.30757,0,0,0-1.21009.09309c-.18616,0-.46541.09308-.65158.09308-.5585,0-.5585-.5585-.5585-.93084V5.10889c0-.37233.1848-.63731.55713-.63731a15.35328,15.35328,0,0,1,1.95613-.10736c1.39625,0,2.60633.46542,2.60633,2.14092,0,2.04784-1.76858,3.351-3.16484,4.5611.83776,0,1.67551-.09308,2.51326-.09308.74467,0,.65158.46541.65158,1.02392C37.58657,12.36858,37.40847,12.46249,37.03613,12.46249Z" transform="translate(-0.00499 0.00003)"/></svg>