<svg id="Iconos" xmlns="http://www.w3.org/2000/svg" viewBox="0 0 25.7 14.95325"><defs><style>.cls-1,.cls-2,.cls-3{fill:none;stroke:#ff3737;}.cls-1,.cls-2{stroke-linecap:round;stroke-linejoin:round;}.cls-2{stroke-width:0.5px;stroke-dasharray:2.81 2.81;}.cls-3{stroke-miterlimit:10;stroke-width:0.25px;}.cls-4{fill:#ff3737;}</style></defs><polyline class="cls-1" points="0.5 14.453 25.2 14.453 12.3 14.453 12.3 5.453"/><path class="cls-2" d="M4.48817,13.70865C2.97463-.87368,20.46-1.94909,19.953,8.1" transform="translate(0 -1.24675)"/><path class="cls-3" d="M18.62986,11.35006a1.834,1.834,0,0,1,3.601.698" transform="translate(0 -1.24675)"/><path class="cls-3" d="M22.23085,12.04811a1.834,1.834,0,0,1-3.601-.698" transform="translate(0 -1.24675)"/><path class="cls-3" d="M19.7314,10.08463l1.65276.70959c.75251.53507.04524,2.57747-1.27605,2.16567l-1.47364-.83054" transform="translate(0 -1.24675)"/><path class="cls-4" d="M18.372,6.01737l1.71451,2.51055c.0681.0971.14484.12228.20114-.03224l.7991-2.90366c.05088-.12923-.01334-.1408-.15413-.12745l-2.52089.381C18.34376,5.88663,18.361,5.941,18.372,6.01737Z" transform="translate(0 -1.24675)"/></svg>