<svg id="Capa_1" data-name="Capa 1" xmlns="http://www.w3.org/2000/svg" viewBox="0 0 51.94635 46.7892"><defs><style>.cls-1{fill:#00e9c5;}.cls-2,.cls-3,.cls-4,.cls-5{fill:none;}.cls-2{stroke:#ff3737;stroke-dasharray:3 3;}.cls-2,.cls-4,.cls-5{stroke-miterlimit:10;}.cls-2,.cls-5{stroke-width:0.5px;}.cls-3,.cls-4,.cls-5{stroke:#00e9c5;}.cls-3,.cls-5{stroke-linecap:round;}.cls-3{stroke-linejoin:round;stroke-width:1.3359px;}.cls-4{stroke-width:0.25px;}</style></defs><g id="Iconos"><path class="cls-1" d="M27.7264,2.868" transform="translate(0 0)"/><path class="cls-2" d="M48.7264,27.968" transform="translate(0 0)"/><circle class="cls-3" cx="28.82643" cy="4.36795" r="3.7"/><path class="cls-3" d="M26.0264,10.768l-.5.1a7.09048,7.09048,0,0,0-3.7,2.2l-4.4,5.4-7.3,1.8a2.17889,2.17889,0,0,0-1.6,2.6h0a2.2448,2.2448,0,0,0,2.6,1.7l6.8-1.6a3.73829,3.73829,0,0,0,2-1.2l3.1-3.4v18.2l-6.2,4.8a2.63039,2.63039,0,0,0-.6,3.3h0a2.59206,2.59206,0,0,0,3.60414.6691h0q.0487-.03345.09584-.06909l6.5-5.3a4.42043,4.42043,0,0,0,1.6-3.4v-7.3l7.7,4.2,2.7,10.4a3.0395,3.0395,0,0,0,3.5,2.2h0a2.93516,2.93516,0,0,0,2.22276-3.50566v0h0q-.01056-.04732-.02274-.09431l-2.4-10.1a5.14018,5.14018,0,0,0-2.4-3.2l-6.3-3.6v-7.6l3.7,4.6a3.8148,3.8148,0,0,0,1.4,1.1l5.8,2.6a2.303,2.303,0,0,0,3-1h0a2.32359,2.32359,0,0,0-1.1-3.3l-5.5-2.4-5.1-6.6a6.05443,6.05443,0,0,0-3.7-2.3h0A14.5429,14.5429,0,0,0,26.0264,10.768Z" transform="translate(0 0)"/></g><path class="cls-4" d="M46.3264,32.768" transform="translate(0 0)"/><path class="cls-4" d="M46.3264,32.768" transform="translate(0 0)"/><line class="cls-5" x1="47.02642" y1="34.46795" x2="44.72643" y2="35.66795"/><line class="cls-5" x1="46.52642" y1="35.76795" x2="44.92641" y2="36.66795"/><line class="cls-5" x1="46.12642" y1="33.86795" x2="44.82643" y2="34.56795"/><path class="cls-4" d="M48.9264,34.468a1.69706,1.69706,0,0,1,2.39579-2.40421l.00421.00421" transform="translate(0 0)"/><path class="cls-4" d="M51.3264,32.068a1.69706,1.69706,0,0,1-2.4,2.4" transform="translate(0 0)"/><path class="cls-4" d="M48.4264,32.868l1.4-.9c.8-.3,2,1.3,1,2.1l-1.4.7" transform="translate(0 0)"/><g id="Iconos-2"><path class="cls-1" d="M12.25214,22.27l-.61-1.17-.55-1.07-1.16-2.24a.53406.53406,0,0,1-.04-.33c.07-.3.14-.6.19-.9a21.29419,21.29419,0,0,0,.52-4.84,7.7569,7.7569,0,0,0-1.85-5.35,1.43255,1.43255,0,0,0-.2-.14,2.22267,2.22267,0,0,0-.65-.38,3.26187,3.26187,0,0,0-.82-.19,4.71,4.71,0,0,0-.84-.01,4.85444,4.85444,0,0,0-.92.13,6.227,6.227,0,0,0-.82.22,1.51683,1.51683,0,0,0-.28.09c-.22.08-.43994.17-.65.27a2.41352,2.41352,0,0,0-.33.15c-.17.09-.34.18-.5.28a1.22171,1.22171,0,0,0-.19.12,3.82823,3.82823,0,0,0-.42.28,6.52866,6.52866,0,0,0-.77.62,3.38667,3.38667,0,0,0-1.3,3.36,1.71058,1.71058,0,0,0,.09.3,5.31336,5.31336,0,0,0,.26.86,3.31876,3.31876,0,0,0,.19.43,3.64519,3.64519,0,0,0,.34.65l.17.31c.13.18.25.35.38.53a1.89539,1.89539,0,0,0,.19.21v.01c.18.21.36.41.55.6a7.685,7.685,0,0,0,.67.61c.22.18.44.34.68.5a16.41422,16.41422,0,0,0,3.63,1.81c.36.13.72.25,1.08.35a.29437.29437,0,0,1,.19.17l1.02,2.02.75,1.5.52,1.02a.12812.12812,0,0,0,.15.05v-.01l1.26-.62a.1445.1445,0,0,0,.07472-.19019h0Zm-3.32-11.96a.25767.25767,0,0,1,.15.3l-.01.05a.25121.25121,0,0,1-.3203.15364h0L8.74214,10.81h-.02a.27686.27686,0,0,1-.15-.35A.28456.28456,0,0,1,8.93214,10.31Zm.19,2.75a.27216.27216,0,0,1-.30844.23023h0L8.81214,13.29c-.02-.00994-.05-.00994-.07-.03a.245.245,0,0,1-.14-.29.25385.25385,0,0,1,.28987-.21179h0l.01013.00179a.26073.26073,0,0,1,.22071.29538h0Zm-4.38-.65.01-.01a.25637.25637,0,0,1,.34-.1l.01.01.01.01a.25066.25066,0,0,1,.10663.33807h0L5.21214,12.67v.01l-.01.01a.2694.2694,0,0,1-.46-.28Zm-.06-2.56a.28287.28287,0,0,1,.37-.09.25552.25552,0,0,1,.13.23.30826.30826,0,0,1-.03.13l-.01.01a.26442.26442,0,0,1-.36164.09509L4.77214,10.22h-.01A.2705.2705,0,0,1,4.68214,9.85Zm.53,1.06a.28282.28282,0,0,1,.37-.09.28607.28607,0,0,1,.1.37.26443.26443,0,0,1-.36166.09508L5.31214,11.28A.27619.27619,0,0,1,5.21214,10.91Zm.58-1.13a.27117.27117,0,0,1-.19-.32l.01-.02a.26736.26736,0,0,1,.33-.18.2589.2589,0,0,1,.18793.31423L6.12214,9.6A.2674.2674,0,0,1,5.79214,9.78Zm.35.73a.25629.25629,0,0,1,.32423-.162h0l.00577.002.02.01a.27117.27117,0,1,1-.206.50169l-.001-.00041-.003-.00128a.28189.28189,0,0,1-.16-.31A.0756.0756,0,0,1,6.14214,10.51Zm-.43,1.45a.27912.27912,0,0,1,.36-.13.17531.17531,0,0,1,.05.04.27061.27061,0,0,1,.0505.37935l-.0005.00065a.27656.27656,0,0,1-.33.07.27016.27016,0,0,1-.13041-.35912h0Zm.5.92a.26241.26241,0,0,1,.35813-.09723l.01187.00723a.26568.26568,0,0,1,.11.22.23926.23926,0,0,1-.05.14.26737.26737,0,0,1-.36.07A.25441.25441,0,0,1,6.21214,12.88Zm.48,1.04a.27741.27741,0,0,1,.35-.14.26493.26493,0,0,1,.14128.347l-.00128.003a.25909.25909,0,0,1-.24.17.29385.29385,0,0,1-.09-.02l-.02-.01a.28932.28932,0,0,1-.16-.29Zm.13-2.08a.27368.27368,0,0,1-.18-.32V11.5a.29247.29247,0,0,1,.34-.18.258.258,0,0,1,.17276.32137L7.15214,11.65v.01A.26742.26742,0,0,1,6.82214,11.84Zm.28-1.77.02-.06a.26729.26729,0,0,1,.33-.18v.01a.279.279,0,1,1-.35.23Zm.83.73a.26368.26368,0,0,1,.21041.30787h0L8.14214,11.11a.107.107,0,0,1-.02.06.271.271,0,0,1-.32.19l-.01-.01a.27034.27034,0,0,1-.17-.33A.276.276,0,0,1,7.93214,10.8Zm-.01,2.45a.17.17,0,0,1,.07.01.29425.29425,0,0,1,.2.34.26281.26281,0,0,1-.31933.19017L7.87214,13.79l-.03-.01a.2527.2527,0,0,1-.1876-.30415l.0076-.02585A.2673.2673,0,0,1,7.92214,13.25Zm.19-1.28a.26742.26742,0,0,1,.33-.18.286.286,0,0,1,.14.37006.31241.31241,0,0,1-.3.16A.27536.27536,0,0,1,8.11214,11.97Zm.21-2.67.06.01a.27107.27107,0,0,1,.19.32l-.01.01v.01a.27112.27112,0,0,1-.32.19l-.01-.01a.2845.2845,0,0,1-.22-.31A.26821.26821,0,0,1,8.321,9.2998h0Zm-.52-1.02a.16108.16108,0,0,1,.09.03.27515.27515,0,0,1,.15.29.28374.28374,0,0,1-.31319.25084L7.72214,8.85a.28928.28928,0,0,1-.25-.32A.29331.29331,0,0,1,7.80214,8.28Zm-.75-.89h.01a.2571.2571,0,0,1,.48.14v.05l-.03.09a.25805.25805,0,0,1-.35788.07143h0L7.15214,7.74h-.01A.282.282,0,0,1,7.05214,7.39Zm-.14,1.38a.27452.27452,0,0,1,.19.31v.03a.2864.2864,0,0,1-.35.19.27933.27933,0,0,1-.19-.34A.28642.28642,0,0,1,6.91214,8.77Zm-.55-1.05c.02.00995.04.03.06.03a.27537.27537,0,0,1,.17.35.31291.31291,0,0,1-.36.23.30146.30146,0,0,1-.24174-.35113L5.99214,7.97A.33185.33185,0,0,1,6.36214,7.72Zm-.75-.76a.26155.26155,0,0,1,.33547-.15581h0L5.96214,6.81a.265.265,0,0,1,.16.31.2611.2611,0,0,1-.3.21l-.01-.01-.05-.01a.2615.2615,0,0,1-.15585-.33537Zm-.16,1.28a.27708.27708,0,0,1,.17.34.266.266,0,0,1-.33.17.25269.25269,0,0,1-.1838-.30644L5.11214,8.43V8.41A.28657.28657,0,0,1,5.45214,8.24Zm-.46-.96a.28615.28615,0,0,1,.22.26c0,.02-.01.03-.01.05a.26628.26628,0,0,1-.31138.21179h0L4.88214,7.8l-.05-.01a.27055.27055,0,0,1-.16-.31A.26736.26736,0,0,1,4.99214,7.28Zm-.45,1.45.01.02a.26341.26341,0,0,1,.09.36l-.01.01a.26518.26518,0,0,1-.36.06l-.01-.01a.2528.2528,0,0,1-.08-.33V8.83A.281.281,0,0,1,4.54214,8.73Zm-.88,1.77a.30792.30792,0,0,1,.03-.13v-.01a.241.241,0,0,1,.325-.1027l0,0h0l.005.00268h.01l.03.01a.29383.29383,0,0,1,.09.37.25869.25869,0,0,1-.35648.08224h0L3.79214,10.72A.24075.24075,0,0,1,3.66214,10.5Zm.06,1.62a.247.247,0,0,1-.31.16.25278.25278,0,0,1-.17-.31l.01-.02a.247.247,0,0,1,.29-.16A.26733.26733,0,0,1,3.72214,12.12Zm.75-.79a.27492.27492,0,0,1,.17.33v.01a.27391.27391,0,0,1-.33.16l-.02-.01a.27048.27048,0,0,1-.16-.31A.29724.29724,0,0,1,4.47214,11.33Zm-.48-3.57h.01l.06.01a.25677.25677,0,0,1,.18154.31449L4.24214,8.09v.02a.26112.26112,0,0,1-.32.18h-.01a.28774.28774,0,0,1-.23-.32A.26878.26878,0,0,1,3.99214,7.76Zm-.44,1.5a.27046.27046,0,0,1,.09.36h-.01a.27173.27173,0,0,1-.37.07l-.01-.01a.25239.25239,0,0,1-.07-.34.26354.26354,0,0,1,.363-.08452l0,0h0Zm-.35,1.71c0,.02-.01.04-.01.06l-.01.04a.25418.25418,0,0,1-.31391.17514h0L2.85214,11.24a.26122.26122,0,0,1-.18-.32.26636.26636,0,0,1,.32906-.18336h0l.01092.00336A.2533.2533,0,0,1,3.20214,10.97Zm-.45-2.57a.2482.2482,0,0,1,.33-.11l.03.02a.28261.28261,0,0,1,.08.38.258.258,0,0,1-.35779.07149h0L2.83214,8.76a.25218.25218,0,0,1-.0894-.34524Zm-.24,1.3a.27365.27365,0,0,1,.18.34.25857.25857,0,0,1-.26.19.17088.17088,0,0,1-.07-.01.25687.25687,0,0,1-.18149-.31468L2.18214,9.9V9.88A.27188.27188,0,0,1,2.51214,9.7Zm-.49-.9.05.01a.26931.26931,0,1,1-.37.2A.27378.27378,0,0,1,2.02214,8.8Zm-.76,1.93a.277.277,0,0,1-.11-.37l.01-.01h.01a.253.253,0,0,1,.34226-.1043h0l.00774.0043.01.01a.24834.24834,0,0,1,.12.28.09066.09066,0,0,1-.03.07.26081.26081,0,0,1-.34635.12682h0Zm.9.85a.27419.27419,0,0,1-.35.16.28864.28864,0,0,1-.17-.31.28288.28288,0,0,1,.34-.18.2673.2673,0,0,1,.2.26c0,.02-.01.04-.01.06Zm.29,1.24a.27682.27682,0,0,1-.09-.01.25413.25413,0,0,1-.18-.31v-.01a.26637.26637,0,0,1,.32906-.18337l0,0,.01092.00336a.27049.27049,0,0,1,.19.27c0,.02-.01.04-.01.06A.26744.26744,0,0,1,2.45214,12.82Zm.44,1.04a.29693.29693,0,0,1-.22-.33.28316.28316,0,0,1,.33-.2l.04.01a.25328.25328,0,0,1,.16.3A.276.276,0,0,1,2.89214,13.86Zm.48.97a.26666.26666,0,0,1-.22-.26v-.04l.01-.02a.25391.25391,0,0,1,.29-.21176h0l.01.00176.07.01a.2683.2683,0,0,1,.15.29.27224.27224,0,0,1-.3086.23021h0Zm.59-1.49a.35523.35523,0,0,1-.1-.02.25647.25647,0,0,1-.17-.23c0-.02.01-.04.01-.06l.01-.06A.26812.26812,0,0,1,4.06,12.81915l.00212.00085a.26153.26153,0,0,1,.15584.33541L4.21214,13.17A.26755.26755,0,0,1,3.96214,13.34Zm.42.92a.24382.24382,0,0,1-.18174-.293l.00174-.007v-.03a.274.274,0,0,1,.3-.22l.02.01a.25865.25865,0,0,1,.21234.29784h0L4.73214,14.03c0,.02-.01.03-.02.05l.00995.01A.27709.27709,0,0,1,4.38214,14.26Zm.83.82a.24669.24669,0,0,1-.31473.15053h0L4.87214,15.22h-.01a.26849.26849,0,0,1-.14-.35.2622.2622,0,0,1,.34445-.1373l.01555.0073a.26839.26839,0,0,1,.15.29A.07667.07667,0,0,1,5.21214,15.08Zm.08-1.33a.27729.27729,0,0,1-.13-.23.24984.24984,0,0,1,.04-.14.26443.26443,0,0,1,.36166-.09508h0l.00833.00507h.01a.28259.28259,0,0,1,.08.38A.27041.27041,0,0,1,5.29214,13.75Zm.35.79V14.5a.08655.08655,0,0,1,.03-.06.24645.24645,0,0,1,.31678-.14534L6.00214,14.3h.02a.28146.28146,0,0,1,.14.35.27577.27577,0,0,1-.36.15h0A.2679.2679,0,0,1,5.64214,14.54Zm1.73,1.26c-.04.12-.09.24-.13.35-.06.11-.1.2-.16.3-.05.1-.07.19-.18.15-.23-.09-.45-.22-.66-.31994a.596.596,0,0,1-.21-.14.19567.19567,0,0,1-.02-.24.40213.40213,0,0,1,.2-.09l.68-.09c.13-.01.24-.02.37-.03.05.01.11.01.12.06Zm-.06-3a.26728.26728,0,1,1,.34-.18.2626.2626,0,0,1-.32162.18566Zm1.83,3.66a6.093,6.093,0,0,1-.2,1.05.15954.15954,0,0,1-.04.12l-.07.05a.19792.19792,0,0,1-.18-.04l-.68-.36-.32-.16a.30693.30693,0,0,1-.1-.15c0-.19.05-.56.06-.71a3.98233,3.98233,0,0,0,.07-.58.23519.23519,0,0,1,.1-.18.2295.2295,0,0,1,.18-.02c.05.03.11.07.15.1.29.21.57.39.85.56a.353.353,0,0,1,.18.16A.42748.42748,0,0,1,9.14214,16.46Zm.12-1.69c-.05.23-.07.49-.14.71-.04.13-.14.08-.24.07s-.22-.04-.32-.06c-.12-.03-.25-.07-.36-.1l-.06-.03a.11379.11379,0,0,1,.03-.12,3.33668,3.33668,0,0,1,.25-.28l.48-.48a.29968.29968,0,0,1,.19-.12.20189.20189,0,0,1,.18.16A.70109.70109,0,0,1,9.26214,14.77Zm-.09-2.97a.28134.28134,0,0,1-.16-.3c.01-.02.01-.03.02-.05a.26661.26661,0,0,1,.34-.15l.02.01a.27757.27757,0,0,1,.14.35.27136.27136,0,0,1-.35675.14143h0Z" transform="translate(0 0)"/></g><path class="cls-5" d="M4.71772,25.86169a20.49053,20.49053,0,0,0,14.56287,7.57449" transform="translate(0 0)"/><path class="cls-5" d="M9.49165,31.8706a18.80579,18.80579,0,0,0,5.55456,2.29714" transform="translate(0 0)"/><path class="cls-5" d="M7.92294,27.175a20.09666,20.09666,0,0,0,7.06481,4.04332" transform="translate(0 0)"/></svg>