<svg id="Iconos" xmlns="http://www.w3.org/2000/svg" viewBox="0 0 37.43556 28.1"><defs><style>.cls-1,.cls-2,.cls-3,.cls-4,.cls-5,.cls-6,.cls-8{fill:none;}.cls-1,.cls-2,.cls-3,.cls-4,.cls-6,.cls-8{stroke:#ff3737;stroke-miterlimit:10;}.cls-1,.cls-3,.cls-4{stroke-linecap:round;}.cls-3{stroke-width:0.5px;stroke-dasharray:2.81 2.81;}.cls-4{stroke-width:0.4093px;}.cls-6{stroke-width:0.25px;}.cls-7{fill:#ff3737;}.cls-8{stroke-linecap:square;}</style></defs><polyline class="cls-1" points="36.711 27.6 0.511 27.6 0.511 19.17"/><line class="cls-2" x1="36.93556" y1="28.1" x2="36.93556"/><path class="cls-3" d="M22.01433,11.52484c2.7.8,4.76712,1.38014,8.26712,2.48014l6.4,1.9" transform="translate(0.00138)"/><path class="cls-3" d="M3.53561,14.87669c2.7-.9,1.8-.6,5.3-1.8,0,0,7-2.5,7.1-2.5" transform="translate(0.00138)"/><line class="cls-4" x1="19.52137" y1="6.19941" x2="19.45814" y2="7.94469"/><line class="cls-4" x1="22.97862" y1="8.40727" x2="21.38142" y2="9.31773"/><line class="cls-4" x1="15.69058" y1="7.25192" x2="16.99605" y2="8.54257"/><line class="cls-4" x1="18.41301" y1="15.28012" x2="18.69554" y2="13.49121"/><line class="cls-4" x1="21.38142" y1="14.46529" x2="20.44454" y2="12.96453"/><line class="cls-4" x1="15.25705" y1="13.49121" x2="16.7578" y2="12.55434"/><path class="cls-5" d="M17.93418,20.5" transform="translate(0.00138)"/><path class="cls-5" d="M5.13418,16.6" transform="translate(0.00138)"/><path class="cls-2" d="M.73418,27.6" transform="translate(0.00138)"/><path class="cls-6" d="M17.22605,10.62364a1.69706,1.69706,0,0,1,3.39141-.13544" transform="translate(0.00138)"/><path class="cls-6" d="M20.61746,10.4882a1.69706,1.69706,0,0,1-3.39141.13545" transform="translate(0.00138)"/><path class="cls-6" d="M17.94964,9.25017l1.63916.28838c.7913.32223.58769,2.31184-.68973,2.22132l-1.50349-.43532" transform="translate(0.00138)"/><path class="cls-7" d="M2.04977,14.07738.05909,16.4113c-.03654.09309.02.22272.05654.12963l3.00832-.0006c.09308.03655.12963-.05654.07309-.18617L2.08627,13.9843C2.27248,14.05739,2.1794,14.02084,2.04977,14.07738Z" transform="translate(0.00138)"/><line class="cls-8" x1="36.71121" y1="0.53118" x2="0.5" y2="0.53118"/></svg>