<svg id="Iconos" xmlns="http://www.w3.org/2000/svg" viewBox="0 0 49.1 31.54267"><defs><style>.cls-1,.cls-2,.cls-3,.cls-5{fill:none;stroke:#00e9c5;}.cls-1,.cls-3{stroke-linecap:round;stroke-linejoin:round;}.cls-2,.cls-5{stroke-miterlimit:10;}.cls-2,.cls-3{stroke-width:0.5px;}.cls-3{stroke-dasharray:2.89 2.89;}.cls-4{fill:#00e9c5;}.cls-5{stroke-width:0.25px;}</style></defs><polyline class="cls-1" points="0.5 31.043 48.6 31.043 24.3 31.043 24.3 22.143"/><path class="cls-2" d="M5.4,19.04267"/><path class="cls-3" d="M2.86735,29.19474C3.24144,9.49792,47.27044-20.338,46.236,21.09312"/><path class="cls-4" d="M44.8334,20.00569l1.28243,2.7564c.05136.1069.123.14425.2037.001l1.26164-2.7346c.07127-.11921.00979-.14109-.1313-.15086l-2.54927-.03494C44.82684,19.87209,44.835,19.92854,44.8334,20.00569Z"/><path class="cls-5" d="M44.22574,25.50792a1.834,1.834,0,1,1,3.601.698"/><path class="cls-5" d="M47.82673,26.206a1.834,1.834,0,0,1-3.601-.698"/><path class="cls-5" d="M45.32728,24.24249l1.65276.70959c.75251.53507.04524,2.57746-1.27605,2.16567l-1.47364-.83054"/></svg>