<?xml version="1.0" encoding="utf-8"?>
<!-- Generator: Adobe Illustrator 25.4.1, SVG Export Plug-In . SVG Version: 6.00 Build 0)  -->
<svg version="1.1" id="Capa_1" xmlns="http://www.w3.org/2000/svg" xmlns:xlink="http://www.w3.org/1999/xlink" x="0px" y="0px"
	 viewBox="0 0 41.2 35.8" style="enable-background:new 0 0 41.2 35.8;" xml:space="preserve">
<style type="text/css">
	.st0{fill:none;stroke:#FF3737;stroke-linecap:round;stroke-miterlimit:10;}
	.st1{fill:none;stroke:#FF3737;stroke-linecap:round;stroke-linejoin:round;stroke-miterlimit:10;}
	.st2{fill:none;stroke:#FF3737;stroke-miterlimit:10;}
	.st3{fill:none;stroke:#FF3737;stroke-width:0.7;stroke-miterlimit:10;}
	.st4{fill:none;stroke:#FF3737;stroke-width:0.7;stroke-linecap:round;stroke-miterlimit:10;}
</style>
<path class="st0" d="M0.5,35.2V15.5C0.5,14.2,1.7,13,3,13h35.2c1.3,0,2.5,1.2,2.5,2.5v19.6"/>
<path class="st1" d="M38.7,35V17.8c0-1.2-1.1-2.2-2.2-2.2h-3.9h-4h-3.8h-4.1h-4.1h-4.4H8.6H4.9c-1.2,0-2.2,1.1-2.2,2.2v3.8v3.9v4.2
	v5.2c3.2,0,9.6,0,18.3,0C29.8,34.8,35.6,35,38.7,35z"/>
<line class="st2" x1="7.6" y1="15.5" x2="7.5" y2="34.7"/>
<line class="st2" x1="12.2" y1="15.5" x2="12.3" y2="35.2"/>
<line class="st2" x1="16.6" y1="15.5" x2="16.6" y2="35.2"/>
<line class="st2" x1="20.7" y1="15.5" x2="20.7" y2="35.1"/>
<line class="st2" x1="24.8" y1="15.5" x2="24.8" y2="35.2"/>
<line class="st2" x1="29.7" y1="15.5" x2="29.6" y2="35.2"/>
<line class="st2" x1="33.7" y1="15.5" x2="33.7" y2="34.5"/>
<path class="st2" d="M38.7,29.8c-3.2-1.6-9.6-2.9-18.1-3c-8.4,0-14.9,1.4-18.1,2.9"/>
<path class="st2" d="M38.8,25.9c-3.2-1.7-9.7-2.7-18.2-2.9c-8.4,0-14.8,1.2-18,2.7"/>
<path class="st2" d="M38.5,21.9c-3.2-1.7-9-2.7-17.5-2.9c-8.4,0-14.9,1.5-18.1,3"/>
<path class="st2" d="M38.8,33.7c-3.2-1.7-9.6-2.7-18.1-2.9c-8.4,0-14.9,1.2-18.1,2.7"/>
<g id="Pelota">
	<circle class="st3" cx="21" cy="4.8" r="4.3"/>
	<path class="st3" d="M23.3,1.1l-3.9,1c-2.8,1.4-1.5,6.5,1.9,5.4l3.9-1.8"/>
</g>
<path class="st4" d="M12.8,2.2C12.4,1,9.5,0.3,8,0.6"/>
<path class="st4" d="M14,7.3C12.4,6.2,8.4,7,8,7.8"/>
<path class="st4" d="M13.2,4.7C12,3.5,8.9,3.4,7.5,3.9"/>
<line class="st4" x1="27.5" y1="5.3" x2="39.1" y2="1.9"/>
<line class="st4" x1="31.3" y1="2" x2="36.9" y2="0.3"/>
<line class="st4" x1="28.7" y1="7.2" x2="33.7" y2="5.8"/>
</svg>
