<svg xmlns="http://www.w3.org/2000/svg" xmlns:xlink="http://www.w3.org/1999/xlink" viewBox="0 0 2489.08 1824.48"><defs><style>.cls-1,.cls-10,.cls-11{fill:none;}.cls-2{fill:#4469a0;}.cls-3,.cls-5,.cls-6{fill:#0b4f0b;stroke:#1e3317;}.cls-10,.cls-11,.cls-3,.cls-5,.cls-6{stroke-miterlimit:10;}.cls-3{stroke-width:2.2px;}.cls-4{clip-path:url(#clip-path);}.cls-5{stroke-width:3.5px;}.cls-6{stroke-width:3.03px;}.cls-7{fill:#20e032;}.cls-8{fill:url(#Degradado_sin_nombre_15);}.cls-9{fill:#fff;}.cls-10,.cls-11{stroke:#fff;}.cls-10{stroke-width:2px;}.cls-11{stroke-width:10px;}</style><clipPath id="clip-path" transform="translate(904.69 324.96)"><rect class="cls-1" x="123.85" y="136.89" width="510.13" height="957.45"/></clipPath><radialGradient id="Degradado_sin_nombre_15" cx="376.64" cy="615.88" r="546.83" gradientTransform="translate(904.69 -273.91) scale(1 1.97)" gradientUnits="userSpaceOnUse"><stop offset="0" stop-opacity="0"/><stop offset="1" stop-opacity="0.6"/></radialGradient></defs><g id="Suelo"><rect class="cls-2" x="904.69" y="324.96" width="756" height="1228.23"/><rect class="cls-3" x="1028.54" y="461.86" width="510.13" height="957.45"/><g class="cls-4"><line class="cls-5" x1="1.31" y1="855.22" x2="755.15" y2="1.16"/><line class="cls-5" x1="36.67" y1="874.98" x2="790.51" y2="20.92"/><line class="cls-5" x1="72.03" y1="894.74" x2="825.87" y2="40.67"/><line class="cls-5" x1="107.39" y1="914.5" x2="861.23" y2="60.43"/><line class="cls-5" x1="142.75" y1="934.25" x2="896.59" y2="80.19"/><line class="cls-5" x1="178.11" y1="954.01" x2="931.95" y2="99.94"/><line class="cls-5" x1="213.47" y1="973.77" x2="967.31" y2="119.7"/><line class="cls-5" x1="248.83" y1="993.52" x2="1002.67" y2="139.46"/><line class="cls-5" x1="284.19" y1="1013.28" x2="1038.03" y2="159.22"/><line class="cls-5" x1="319.55" y1="1033.04" x2="1073.39" y2="178.97"/><line class="cls-5" x1="354.91" y1="1052.8" x2="1108.75" y2="198.73"/><line class="cls-5" x1="390.27" y1="1072.55" x2="1144.11" y2="218.49"/><line class="cls-5" x1="425.63" y1="1092.31" x2="1179.47" y2="238.24"/><line class="cls-5" x1="460.98" y1="1112.07" x2="1214.83" y2="258"/><line class="cls-5" x1="496.34" y1="1131.82" x2="1250.18" y2="277.76"/><line class="cls-5" x1="531.7" y1="1151.58" x2="1285.54" y2="297.52"/><line class="cls-5" x1="567.06" y1="1171.34" x2="1320.9" y2="317.27"/><line class="cls-5" x1="602.42" y1="1191.1" x2="1356.26" y2="337.03"/><line class="cls-5" x1="637.78" y1="1210.85" x2="1391.62" y2="356.79"/><line class="cls-5" x1="673.14" y1="1230.61" x2="1426.98" y2="376.54"/><line class="cls-5" x1="708.5" y1="1250.37" x2="1462.34" y2="396.3"/><line class="cls-5" x1="743.86" y1="1270.12" x2="1497.7" y2="416.06"/><line class="cls-5" x1="779.22" y1="1289.88" x2="1533.06" y2="435.82"/><line class="cls-5" x1="814.58" y1="1309.64" x2="1568.42" y2="455.57"/><line class="cls-5" x1="849.94" y1="1329.39" x2="1603.78" y2="475.33"/><line class="cls-5" x1="885.3" y1="1349.15" x2="1639.14" y2="495.09"/><line class="cls-5" x1="920.66" y1="1368.91" x2="1674.5" y2="514.84"/><line class="cls-5" x1="956.02" y1="1388.67" x2="1709.86" y2="534.6"/><line class="cls-5" x1="991.38" y1="1408.42" x2="1745.22" y2="554.36"/><line class="cls-5" x1="1026.73" y1="1428.18" x2="1780.58" y2="574.12"/><line class="cls-5" x1="1062.09" y1="1447.94" x2="1815.94" y2="593.87"/><line class="cls-5" x1="1097.45" y1="1467.69" x2="1851.29" y2="613.63"/><line class="cls-5" x1="1132.81" y1="1487.45" x2="1886.65" y2="633.39"/><line class="cls-5" x1="1168.17" y1="1507.21" x2="1922.01" y2="653.14"/><line class="cls-5" x1="1203.53" y1="1526.97" x2="1957.37" y2="672.9"/><line class="cls-5" x1="1238.89" y1="1546.72" x2="1992.73" y2="692.66"/><line class="cls-5" x1="1274.25" y1="1566.48" x2="2028.09" y2="712.42"/><line class="cls-5" x1="1309.61" y1="1586.24" x2="2063.45" y2="732.17"/><line class="cls-5" x1="1344.97" y1="1605.99" x2="2098.81" y2="751.93"/><line class="cls-5" x1="1380.33" y1="1625.75" x2="2134.17" y2="771.69"/><line class="cls-5" x1="1415.69" y1="1645.51" x2="2169.53" y2="791.44"/><line class="cls-5" x1="1451.05" y1="1665.27" x2="2204.89" y2="811.2"/><line class="cls-5" x1="1486.41" y1="1685.02" x2="2240.25" y2="830.96"/><line class="cls-5" x1="1521.77" y1="1704.78" x2="2275.61" y2="850.72"/><line class="cls-5" x1="1557.13" y1="1724.54" x2="2310.97" y2="870.47"/><line class="cls-5" x1="1592.48" y1="1744.29" x2="2346.33" y2="890.23"/><line class="cls-5" x1="1627.84" y1="1764.05" x2="2381.69" y2="909.99"/><line class="cls-5" x1="1663.2" y1="1783.81" x2="2417.04" y2="929.74"/><line class="cls-5" x1="1698.56" y1="1803.57" x2="2452.4" y2="949.5"/><line class="cls-5" x1="1733.92" y1="1823.32" x2="2487.76" y2="969.26"/><line class="cls-6" x1="411.35" y1="1617.99" x2="1386.25" y2="1813.7"/><line class="cls-6" x1="426.43" y1="1586.38" x2="1401.34" y2="1782.08"/><line class="cls-6" x1="441.52" y1="1554.76" x2="1416.42" y2="1750.47"/><line class="cls-6" x1="456.6" y1="1523.14" x2="1431.5" y2="1718.85"/><line class="cls-6" x1="471.69" y1="1491.52" x2="1446.59" y2="1687.23"/><line class="cls-6" x1="486.77" y1="1459.9" x2="1461.67" y2="1655.61"/><line class="cls-6" x1="501.85" y1="1428.28" x2="1476.76" y2="1623.99"/><line class="cls-6" x1="516.94" y1="1396.67" x2="1491.84" y2="1592.37"/><line class="cls-6" x1="532.02" y1="1365.05" x2="1506.93" y2="1560.76"/><line class="cls-6" x1="547.11" y1="1333.43" x2="1522.01" y2="1529.14"/><line class="cls-6" x1="562.19" y1="1301.81" x2="1537.1" y2="1497.52"/><line class="cls-6" x1="577.28" y1="1270.19" x2="1552.18" y2="1465.9"/><line class="cls-6" x1="592.36" y1="1238.57" x2="1567.26" y2="1434.28"/><line class="cls-6" x1="607.44" y1="1206.96" x2="1582.35" y2="1402.66"/><line class="cls-6" x1="622.53" y1="1175.34" x2="1597.43" y2="1371.05"/><line class="cls-6" x1="637.61" y1="1143.72" x2="1612.52" y2="1339.43"/><line class="cls-6" x1="652.7" y1="1112.1" x2="1627.6" y2="1307.81"/><line class="cls-6" x1="667.78" y1="1080.48" x2="1642.69" y2="1276.19"/><line class="cls-6" x1="682.87" y1="1048.86" x2="1657.77" y2="1244.57"/><line class="cls-6" x1="697.95" y1="1017.25" x2="1672.86" y2="1212.95"/><line class="cls-6" x1="713.04" y1="985.63" x2="1687.94" y2="1181.34"/><line class="cls-6" x1="728.12" y1="954.01" x2="1703.02" y2="1149.72"/><line class="cls-6" x1="743.2" y1="922.39" x2="1718.11" y2="1118.1"/><line class="cls-6" x1="758.29" y1="890.77" x2="1733.19" y2="1086.48"/><line class="cls-6" x1="773.37" y1="859.15" x2="1748.28" y2="1054.86"/><line class="cls-6" x1="788.46" y1="827.54" x2="1763.36" y2="1023.24"/><line class="cls-6" x1="803.54" y1="795.92" x2="1778.45" y2="991.63"/><line class="cls-6" x1="818.63" y1="764.3" x2="1793.53" y2="960.01"/><line class="cls-6" x1="833.71" y1="732.68" x2="1808.61" y2="928.39"/><line class="cls-6" x1="848.79" y1="701.06" x2="1823.7" y2="896.77"/><line class="cls-6" x1="863.88" y1="669.44" x2="1838.78" y2="865.15"/><line class="cls-6" x1="878.96" y1="637.83" x2="1853.87" y2="833.53"/><line class="cls-6" x1="894.05" y1="606.21" x2="1868.95" y2="801.92"/><line class="cls-6" x1="909.13" y1="574.59" x2="1884.04" y2="770.3"/><line class="cls-6" x1="924.22" y1="542.97" x2="1899.12" y2="738.68"/><line class="cls-6" x1="939.3" y1="511.35" x2="1914.21" y2="707.06"/><line class="cls-6" x1="954.39" y1="479.73" x2="1929.29" y2="675.44"/><line class="cls-6" x1="969.47" y1="448.12" x2="1944.37" y2="643.82"/><line class="cls-6" x1="984.55" y1="416.5" x2="1959.46" y2="612.21"/><line class="cls-6" x1="999.64" y1="384.88" x2="1974.54" y2="580.59"/><line class="cls-6" x1="1014.72" y1="353.26" x2="1989.63" y2="548.97"/><line class="cls-6" x1="1029.81" y1="321.64" x2="2004.71" y2="517.35"/><line class="cls-6" x1="1044.89" y1="290.02" x2="2019.8" y2="485.73"/><line class="cls-6" x1="1059.98" y1="258.41" x2="2034.88" y2="454.11"/><line class="cls-6" x1="1075.06" y1="226.79" x2="2049.96" y2="422.5"/><line class="cls-6" x1="1090.15" y1="195.17" x2="2065.05" y2="390.88"/><line class="cls-6" x1="1105.23" y1="163.55" x2="2080.13" y2="359.26"/><line class="cls-6" x1="1120.31" y1="131.93" x2="2095.22" y2="327.64"/><line class="cls-6" x1="1135.4" y1="100.31" x2="2110.3" y2="296.02"/><line class="cls-6" x1="1150.48" y1="68.7" x2="2125.39" y2="264.4"/></g><rect class="cls-7" x="1057.64" y="490.96" width="448.85" height="896.17"/><rect class="cls-8" x="903.33" y="328.35" width="756" height="1225.7"/><g id="Capa_2" data-name="Capa 2"><g id="Capa_1-2" data-name="Capa 1-2"><path class="cls-9" d="M230.44,1119.21A7.46,7.46,0,0,0,226,1126h0v51.89a2.57,2.57,0,0,1-2.58,2.58,2.78,2.78,0,0,1-.75-.11,27.75,27.75,0,0,1-19.78-26.56v-1.54c0-.29,0-.57.06-.86v-.23q.1-1.11.3-2.22l0-.24c.06-.31.12-.63.19-1a.94.94,0,0,0,0-.16c.18-.75.38-1.49.61-2.23l.05-.15c.11-.34.23-.68.36-1h0c.28-.74.58-1.48.9-2.14l.06-.11c.34-.7.69-1.38,1.08-2v0c.18-.3.36-.6.55-.9l.12-.17c.17-.28.36-.55.54-.82l.08-.1c.21-.29.41-.58.63-.86l.2-.25a30.79,30.79,0,0,1,3.08-3.38c.47-.44,1-.85,1.48-1.24a3.09,3.09,0,0,0,.59-4.34,2.61,2.61,0,0,0-.27-.31l-2.27-2.27a3.09,3.09,0,0,0-4.12-.22,37.32,37.32,0,0,0-4.82,4.67h0l-.06.07c-.33.38-.64.74-.95,1.17h0c-.31.38-.6.74-.88,1.15l-.14.2c-.46.78-1,1.61-1.52,2.48l-.13.24c-.51.84-1,1.72-1.41,2.61l-.13.26c-.19.41-.38.83-.56,1.24l-.07.1c-.2.45-.38.91-.55,1.37l-.11.29c-.15.4-.3.82-.44,1.23l-.07.2c-.14.47-.29.94-.43,1.42l-.06.27c-.11.4-.22.81-.32,1.22a1.18,1.18,0,0,1-.08.31c-.1.48-.2,1-.29,1.48v.2c-.1.42-.17.9-.23,1.3,0,.12,0,.24-.05.36-.07.5-.13,1-.17,1.48a.49.49,0,0,0,0,.17c-.05.45-.08.9-.1,1.36v1.93h-.07a37.12,37.12,0,0,0,30.33,36.49,2.59,2.59,0,0,1,2.14,2.54v14a2.57,2.57,0,0,0,2.56,2.58h4.14a2.58,2.58,0,0,0,2.58-2.58h0v-14a2.56,2.56,0,0,1,2.07-2.5,37,37,0,0,0,19.5-10.26,37.1,37.1,0,0,0-7.42-58.23,36.93,36.93,0,0,0-7.57-3.38A16.14,16.14,0,0,0,230.44,1119.21Zm25.31,46.68a27.8,27.8,0,0,1-17.15,14.53,2.58,2.58,0,0,1-3.2-1.73,2.66,2.66,0,0,1-.1-.75v-45.61a4.44,4.44,0,0,1,6.14-4.1,27.74,27.74,0,0,1,14.89,36.3c-.18.44-.38.88-.58,1.31Z" transform="translate(904.69 324.96)"/><path class="cls-9" d="M294.86,1163.14a12.33,12.33,0,0,1-1.9-.31,20,20,0,0,0-2.45-.15c-.56,0-1.48,0-1.84.51-.51.77-.36,4.3-.36,5.11h5.11c1.13,0,1.69.21,1.69,1.44v2c0,1.48-.36,1.94-1.84,1.94h-5v16.78c0,1.33-.2,2.3-1.79,2.3h-3.22c-1.38,0-1.53-.82-1.53-2v-17h-1.54c-1.12,0-1.23-.86-1.23-1.79v-2.21c0-1.79,1.44-1.44,2.77-1.44v-2c0-2.15,0-4.24,1.32-6,2.1-2.87,5.53-3,8.8-3,1,0,3.58,0,4.24,1a1.93,1.93,0,0,1,.26,1.07v.36C296.39,1160.73,296.39,1163.14,294.86,1163.14Zm10.48,1.53h-2c-1.84,0-2.71-.25-2.71-2.3v-1.79c0-1.63.67-2.25,2.25-2.25h2.41a2,2,0,0,1,2,2,2.46,2.46,0,0,1,0,.26v1.79c.09,1.43-.37,2.3-2,2.3Zm0,28.13h-2c-1.84,0-2.71-.26-2.71-2.3v-20c0-1.63.67-2.25,2.25-2.25h2.41a2,2,0,0,1,2,2,2.46,2.46,0,0,1,0,.26v20c.09,1.43-.37,2.3-2,2.3Z" transform="translate(904.69 324.96)"/><path class="cls-9" d="M323.69,1193.41a49.66,49.66,0,0,1-7.31-.36c-1.53-.2-1.43-.92-1.43-2.35v-.92c0-1.12.1-2.35,1.48-2.35a23.79,23.79,0,0,1,2.66.3c1.74.16,3.53.26,5.32.26s2.56,0,2.56-1.89a2.77,2.77,0,0,0-.31-1.69c-.41-.51-4.91-1.74-5.73-2a28.12,28.12,0,0,1-2.91-1.18c-2.66-1.33-3.63-2.81-3.63-5.78,0-7.87,5.31-7.77,11.6-7.77,1.28,0,2.51,0,3.79.1,1.84.16,2.55.51,2.55,2.51,0,1.48.11,3.17-1.89,3.17-.87,0-1.79-.16-2.66-.21a37.21,37.21,0,0,0-4.09-.2c-1.94,0-3-.26-3,2a1.53,1.53,0,0,0,.25,1c.51.71,5.37,2,6.45,2.35,4,1.33,5.88,2.66,5.88,7.16C333.31,1192.49,330,1193.41,323.69,1193.41Z" transform="translate(904.69 324.96)"/><path class="cls-9" d="M344.91,1164.67H343c-1.84,0-2.71-.25-2.71-2.3v-1.79c0-1.63.66-2.25,2.25-2.25h2.4a2,2,0,0,1,2,2,2.46,2.46,0,0,1,0,.26v1.79C347,1163.8,346.5,1164.67,344.91,1164.67Zm0,28.13H343c-1.84,0-2.71-.26-2.71-2.3v-20c0-1.63.66-2.25,2.25-2.25h2.4a2,2,0,0,1,2,2,2.46,2.46,0,0,1,0,.26v20C347,1191.93,346.5,1192.8,344.91,1192.8Z" transform="translate(904.69 324.96)"/><path class="cls-9" d="M369.57,1193.26a42.08,42.08,0,0,1-4.35.2c-10,0-11.66-3.42-11.66-12.93s1.69-13,11.66-13a42.13,42.13,0,0,1,4.35.25c1.53.16,2.81,0,2.81,1.74v.1c0,1.28,0,4-1.84,4a14.09,14.09,0,0,1-2.05-.2,36.71,36.71,0,0,0-4.8-.41c-2.15,0-2.56.41-3,2.4a24.41,24.41,0,0,0-.41,5.12,40.15,40.15,0,0,0,.2,4.9c.21,2.3,1,2.56,3.23,2.56a37.63,37.63,0,0,0,4.85-.41,14.89,14.89,0,0,1,2-.2,1.42,1.42,0,0,1,1.22.51c.41.41.62,2.86.62,3.48C372.37,1193.16,371.14,1193.05,369.57,1193.26Z" transform="translate(904.69 324.96)"/><path class="cls-9" d="M396.81,1192.8h-2.87c-1.17,0-1.48-.77-1.48-1.84a13.93,13.93,0,0,1-7.56,2.5c-5,0-7.32-2.71-7.32-7.62,0-5.57,3.33-7.46,8.34-8a44,44,0,0,1,6.49-.41c0-2,.31-4.91-2.56-4.91a32.7,32.7,0,0,0-7.36,1.07,5.05,5.05,0,0,1-1.23.15c-1.78,0-1.48-1.79-1.48-3.06a1.89,1.89,0,0,1,1.43-2.15,35.39,35.39,0,0,1,8.39-1c2.45,0,5.57.41,7.31,2.35,2,2.25,1.94,5.42,1.94,8.28v12.43C398.85,1192.08,398.34,1192.8,396.81,1192.8ZM392.46,1182c-.82,0-1.68-.1-2.5-.1a24.79,24.79,0,0,0-3.22.15c-2.15.31-3,1-3,3.22,0,1.23.2,3.43,1.89,3.43a11.65,11.65,0,0,0,6.85-2.56Z" transform="translate(904.69 324.96)"/><path class="cls-9" d="M410.36,1192.8h-1.79c-1.84,0-2.71-.26-2.71-2.3v-30.68c0-1.64.66-2.2,2.25-2.2h2.3a2,2,0,0,1,2,1.86,1.88,1.88,0,0,1,0,.34v30.68C412.35,1191.93,411.94,1192.8,410.36,1192.8Z" transform="translate(904.69 324.96)"/><path class="cls-9" d="M434.85,1193.26a42.08,42.08,0,0,1-4.35.2c-10,0-11.65-3.42-11.65-12.93s1.68-13,11.65-13a42.13,42.13,0,0,1,4.35.25c1.53.16,2.81,0,2.81,1.74v.1c0,1.28,0,4-1.84,4a13.42,13.42,0,0,1-2-.2A36.87,36.87,0,0,0,429,1173c-2.15,0-2.56.41-3,2.4a25.16,25.16,0,0,0-.41,5.12c0,1.63.06,3.27.21,4.9.2,2.3,1,2.56,3.22,2.56a37.63,37.63,0,0,0,4.86-.41,13.42,13.42,0,0,1,2-.2,1.44,1.44,0,0,1,1.23.51c.41.41.61,2.86.61,3.48C437.66,1193.16,436.44,1193.05,434.85,1193.26Z" transform="translate(904.69 324.96)"/><path class="cls-9" d="M455.05,1193.46c-8.54,0-11.76-4.91-11.76-12.93s3.17-13,11.76-13,11.71,4.91,11.71,13S463.64,1193.46,455.05,1193.46Zm4.19-18.87c-.92-1.68-2.46-1.63-4.19-1.63s-3.28,0-4.2,1.63-1,4.15-1,5.94.1,4.34,1,5.93,2.51,1.58,4.2,1.58,3.27,0,4.19-1.58.92-4.2.92-5.93S460.11,1176.18,459.24,1174.59Z" transform="translate(904.69 324.96)"/><path class="cls-9" d="M491.3,1192.8h-2.87c-1.17,0-1.48-.77-1.48-1.84a14,14,0,0,1-7.57,2.5c-5,0-7.31-2.71-7.31-7.62,0-5.57,3.33-7.46,8.34-8a44,44,0,0,1,6.49-.41c0-2,.31-4.91-2.56-4.91a32.7,32.7,0,0,0-7.36,1.07,5.05,5.05,0,0,1-1.23.15c-1.79,0-1.48-1.79-1.48-3.06a1.89,1.89,0,0,1,1.43-2.15,35.39,35.39,0,0,1,8.39-1c2.45,0,5.57.41,7.31,2.35,2,2.25,1.94,5.42,1.94,8.28v12.43C493.34,1192.08,492.83,1192.8,491.3,1192.8ZM487,1182c-.82,0-1.69-.1-2.5-.1a24.79,24.79,0,0,0-3.22.15c-2.15.31-3,1-3,3.22,0,1.23.2,3.43,1.89,3.43a11.65,11.65,0,0,0,6.85-2.56Z" transform="translate(904.69 324.96)"/><path class="cls-9" d="M515.57,1193.26a42.08,42.08,0,0,1-4.35.2c-10,0-11.66-3.42-11.66-12.93s1.69-13,11.66-13a42.13,42.13,0,0,1,4.35.25c1.53.16,2.81,0,2.81,1.74v.1c0,1.28,0,4-1.84,4a14.09,14.09,0,0,1-2-.2,36.87,36.87,0,0,0-4.81-.41c-2.14,0-2.55.41-3,2.4a24.41,24.41,0,0,0-.41,5.12c0,1.63.05,3.27.2,4.9.21,2.3,1,2.56,3.22,2.56a37.63,37.63,0,0,0,4.86-.41,14.89,14.89,0,0,1,2-.2,1.42,1.42,0,0,1,1.22.51c.41.41.62,2.86.62,3.48C518.4,1193.16,517.17,1193.05,515.57,1193.26Z" transform="translate(904.69 324.96)"/><path class="cls-9" d="M543.3,1192.8h-2.73c-1.48,0-1.84-1-1.84-2.3v-13.09c0-.72.1-3.53-.36-4a2.12,2.12,0,0,0-1.64-.41,11.14,11.14,0,0,0-6.23,2.35v15.19c0,1.43-.41,2.3-2,2.3h-2.71c-1.38,0-1.84-.77-1.84-2v-31c0-1.64.66-2.2,2.25-2.2h2.37a2,2,0,0,1,2,1.86,1.88,1.88,0,0,1,0,.34v9.46a16.09,16.09,0,0,1,6.9-1.74c4.75,0,7.87,2.35,7.87,7.26v15.7C545.29,1191.93,544.88,1192.8,543.3,1192.8Z" transform="translate(904.69 324.96)"/></g></g></g><g id="Lineas"><rect class="cls-10" x="1059.18" y="490.96" width="448.85" height="899.23"/><line class="cls-10" x1="1059.18" y1="626.11" x2="1508.03" y2="626.11"/><line class="cls-10" x1="1057.64" y1="1253.11" x2="1508.03" y2="1253.11"/><line class="cls-10" x1="1284.37" y1="626.11" x2="1284.37" y2="1251.99"/><line class="cls-11" x1="1048.45" y1="940.79" x2="1519.78" y2="940.38"/><path class="cls-9" d="M144.33,627.1a11.28,11.28,0,1,1,11.27-11.29A11.28,11.28,0,0,1,144.33,627.1Z" transform="translate(904.69 324.96)"/><path class="cls-9" d="M614.54,626.7a11.28,11.28,0,1,0-11.29-11.27A11.29,11.29,0,0,0,614.54,626.7Z" transform="translate(904.69 324.96)"/></g></svg>