<svg xmlns="http://www.w3.org/2000/svg" width="42.71" height="42.716" viewBox="0 0 42.71 42.716">
  <path id="raqueta" d="M38.983,3.751a12.807,12.807,0,0,0-18.112,0l-3.32,3.319A12.724,12.724,0,0,0,13.8,16.127a13,13,0,0,0,.117,1.725v9.08L9.656,31.193a2.663,2.663,0,0,0-2.574.688L.8,38.164A2.666,2.666,0,0,0,4.57,41.935l6.283-6.283a2.664,2.664,0,0,0,.688-2.574L15.8,28.817h9.079a12.977,12.977,0,0,0,1.725.118h0a12.722,12.722,0,0,0,9.055-3.751l3.32-3.32A12.822,12.822,0,0,0,38.983,3.751ZM38.968,17.4l-3.482-3.482,4.12-4.12A10.191,10.191,0,0,1,38.968,17.4Zm-.1-9.376-4.637,4.637L30.077,8.505l4.64-4.641A10.186,10.186,0,0,1,38.866,8.02ZM19.436,23.3a10.176,10.176,0,0,1-1.772-2.38L22.3,16.278l4.152,4.152L21.816,25.07A10.171,10.171,0,0,1,19.436,23.3Zm-2.86-5.664s0-.006,0-.009a10.275,10.275,0,0,1-.109-1.5,10.091,10.091,0,0,1,1.1-4.591l3.485,3.485-4.126,4.126A10.083,10.083,0,0,1,16.576,17.635Zm6.985-2.614L28.82,9.762l4.152,4.152-5.259,5.259Zm9.384-11.9L28.82,7.248,25.335,3.763a10.183,10.183,0,0,1,7.61-.64ZM22.756,5.637a10.246,10.246,0,0,1,1.036-.9l3.771,3.771L22.3,13.764,18.533,9.992a10.273,10.273,0,0,1,.9-1.036ZM16.583,26.151V24.1a12.574,12.574,0,0,0,2.053,2.053Zm10.024.117a10.277,10.277,0,0,1-1.5-.109l-.011,0a10.1,10.1,0,0,1-1.511-.345l4.126-4.126L31.2,25.172a10.091,10.091,0,0,1-4.591,1.1Zm7.171-2.97a10.292,10.292,0,0,1-1.036.9L28.97,20.43l5.259-5.259L38,18.942a10.176,10.176,0,0,1-.9,1.037Z" transform="translate(-0.018)" fill="#050c42"/>
</svg>
