<svg xmlns="http://www.w3.org/2000/svg" xmlns:xlink="http://www.w3.org/1999/xlink" viewBox="0 0 757.36 973.68"><defs><style>.cls-1{fill:#00a517;}.cls-2{fill:#20e032;}.cls-3{fill:url(#Degradado_sin_nombre_15);}.cls-4,.cls-5{fill:none;stroke:#fff;stroke-miterlimit:10;}.cls-4{stroke-width:2px;}.cls-5{stroke-width:10px;}.cls-6{fill:#fff;}</style><radialGradient id="Degradado_sin_nombre_15" cx="376.64" cy="486.18" r="546.83" gradientTransform="translate(1.36 -271.71) scale(1 1.56)" gradientUnits="userSpaceOnUse"><stop offset="0" stop-opacity="0"/><stop offset="1" stop-opacity="0.6"/></radialGradient></defs><g id="Suelo"><rect class="cls-1" x="1.36" width="756" height="973"/><rect class="cls-2" x="154.32" y="38.3" width="448.85" height="896.17"/><rect class="cls-3" y="2.68" width="756" height="971"/></g><g id="Lineas"><rect class="cls-4" x="155.85" y="38.3" width="448.85" height="899.23"/><line class="cls-4" x1="155.85" y1="173.45" x2="604.7" y2="173.45"/><line class="cls-4" x1="154.32" y1="800.45" x2="604.7" y2="800.45"/><line class="cls-4" x1="381.04" y1="173.45" x2="381.04" y2="799.32"/><line class="cls-5" x1="145.12" y1="488.12" x2="616.45" y2="487.71"/><path class="cls-6" d="M144.33,497.4a11.28,11.28,0,1,1,11.27-11.29A11.28,11.28,0,0,1,144.33,497.4Z" transform="translate(1.36 2)"/><path class="cls-6" d="M614.54,497a11.28,11.28,0,1,0-11.29-11.26A11.28,11.28,0,0,0,614.54,497Z" transform="translate(1.36 2)"/></g></svg>