<?xml version="1.0" encoding="utf-8"?>
<!-- Generator: Adobe Illustrator 25.0.0, SVG Export Plug-In . SVG Version: 6.00 Build 0)  -->
<svg version="1.1" id="Iconos" xmlns="http://www.w3.org/2000/svg" xmlns:xlink="http://www.w3.org/1999/xlink" x="0px" y="0px"
	 viewBox="0 0 50 50" style="enable-background:new 0 0 50 50;" xml:space="preserve">
<style type="text/css">
	.st0{fill:none;stroke:#050B3D;stroke-miterlimit:10;}
	.st1{fill:none;stroke:#FFDE37;stroke-width:3;stroke-miterlimit:10;}
	.st2{fill:none;stroke:#050B3D;stroke-width:3;stroke-linecap:round;stroke-linejoin:round;}
	.st3{fill:#050B3D;}
</style>
<g id="Pelota">
	<circle class="st0" cx="25" cy="25" r="8.9"/>
	<path class="st0" d="M29.8,17.6l-8,2c-6.8,2-4.6,14.4,3.8,11.1l8.1-3.7"/>
</g>
<path class="st1" d="M11.2,21.1"/>
<path class="st1" d="M36.7,17.3"/>
<g>
	<g>
		<path class="st2" d="M37.1,40.6C30.2,46,20.3,46.3,13,40.7C5.5,35,3.2,25,7,16.7"/>
		<g>
			<polygon class="st3" points="9.3,19 9.3,13 4.1,16 			"/>
		</g>
	</g>
</g>
<g>
	<g>
		<path class="st2" d="M13.2,9.1C20.1,4,29.8,3.8,37,9.3c7.5,5.7,9.8,15.8,6,24"/>
		<g>
			<polygon class="st3" points="40.7,31 40.7,37 45.9,34 			"/>
		</g>
	</g>
</g>
</svg>
