<svg id="Capa_1" data-name="Capa 1" xmlns="http://www.w3.org/2000/svg" viewBox="0 0 113.53 199.49"><defs><style>.cls-1{fill:#00e9c5;}</style></defs><g id="Iconos"><path class="cls-1" d="M110.82,25.57c-2.17-6.12-6.71-11.16-12.73-15.1A56.07,56.07,0,0,0,90,6.22,65.64,65.64,0,0,0,80.32,3a66.37,66.37,0,0,0-9.08-1.87C70.15.89,69.07.79,68,.6c-2.46-.3-5-.4-7.6-.5C59,0,57.72,0,56.34,0a82.3,82.3,0,0,0-8.59.5,49.13,49.13,0,0,0-5.53.69A69.24,69.24,0,0,0,31.76,3.46C16.75,7.9,5,16.68,2.64,29.91A33.23,33.23,0,0,0,2,33.27,63.41,63.41,0,0,0,.37,43a42.87,42.87,0,0,0-.3,5.13,71.76,71.76,0,0,0,.1,8L.47,60c.29,2.27.69,4.64,1.08,7,.2,1,.5,2,.79,3v.09a73.74,73.74,0,0,0,2.37,8.49c1,3.06,2.27,6.12,3.65,9.28A91.49,91.49,0,0,0,12.51,96c7.54,13.72,18.86,28.49,35.44,44.19a3.44,3.44,0,0,1,1.08,2.5l.1,55.47a1.29,1.29,0,0,0,1.29,1.29H65.74a1.63,1.63,0,0,0,1.63-1.65l-.74-55a5.31,5.31,0,0,1,1.22-3.45C107.9,90.78,119.52,55.56,110.82,25.57ZM81.31,44.22a2.93,2.93,0,1,1-.1-4.14A2.86,2.86,0,0,1,81.31,44.22Zm0,12.93a2.9,2.9,0,1,1-4.15-4,2.86,2.86,0,0,1,4.15-.1A3,3,0,0,1,81.31,57.15Zm-4.15,8.2a2.9,2.9,0,1,1,4.15,4,2.86,2.86,0,0,1-4.15.1A3,3,0,0,1,77.16,65.35Zm0,11.74a3.09,3.09,0,0,1,4.25-.1,3,3,0,0,1-4.15,4.25A3.06,3.06,0,0,1,77.16,77.09ZM93.05,56.66a2.85,2.85,0,0,1-4.14.1,2.94,2.94,0,1,1,4-4.25A2.87,2.87,0,0,1,93.05,56.66Zm0,12.34a2.93,2.93,0,1,1-4.24-4,2.93,2.93,0,1,1,4.24,4Zm0-25.17a3,3,0,1,1-4.24-4.15,3,3,0,0,1,4.24,4.15Zm-3.7-16.56a2.88,2.88,0,0,1,4,.89,3,3,0,0,1-.89,4,2.93,2.93,0,0,1-3.15-4.93ZM88.81,76.5a2.93,2.93,0,1,1,4.24,4,2.93,2.93,0,1,1-4.24-4Zm-7.4-44.71a3,3,0,0,1-4.15.1,3,3,0,1,1,4.15-4.25A3,3,0,0,1,81.41,31.79Zm-4.35-15.4a2.93,2.93,0,0,1,4.25,4,2.93,2.93,0,0,1-4.25-4Zm0,72.84a2.94,2.94,0,0,1,4.25,4,2.94,2.94,0,0,1-4.25-4ZM65.61,16.49a2.93,2.93,0,0,1,4.25,4,2.93,2.93,0,0,1-4.25-4Zm-.39,48.86a3,3,0,0,1,4.15-.1,2.93,2.93,0,0,1-4.05,4.24A2.93,2.93,0,0,1,65.22,65.35Zm0-12.24a2.93,2.93,0,1,1,4.24,4,2.93,2.93,0,1,1-4.24-4Zm.1,24a2.93,2.93,0,1,1,.1,4.15A3,3,0,0,1,65.32,77.09Zm.29,12.14a3,3,0,0,1,4.15-.1,2.94,2.94,0,1,1-4.05,4.25A3,3,0,0,1,65.61,89.23Zm-.29-61.49a2.93,2.93,0,1,1,.1,4.15A3,3,0,0,1,65.32,27.74Zm-.1,12.44a2.93,2.93,0,1,1,.1,4.14A2.85,2.85,0,0,1,65.22,40.18ZM54.56,16a2.91,2.91,0,0,1,4,.89,3,3,0,0,1-.89,4.05A2.93,2.93,0,0,1,54.56,16Zm2.76,41.56a2.93,2.93,0,0,1-3.16-4.94,3,3,0,0,1,4.05.89A3,3,0,0,1,57.32,57.55Zm.2,12.34a2.95,2.95,0,1,1-3.06-5,2.95,2.95,0,0,1,3.06,5ZM54.26,76.6a3,3,0,0,1,4.05,1,2.92,2.92,0,0,1-1,4,2.94,2.94,0,0,1-3.06-5Zm-.39,12.63a2.93,2.93,0,1,1,4.24,4,2.93,2.93,0,1,1-4.24-4Zm.39-62a2.83,2.83,0,0,1,4.05,1,3,3,0,0,1-1,4.05,2.94,2.94,0,0,1-3.06-5Zm-.1,12.43a2.95,2.95,0,1,1-1,4A2.93,2.93,0,0,1,54.16,39.68ZM45.38,69.89a3,3,0,0,1-4.05-1,3,3,0,0,1,1-4.05,2.79,2.79,0,0,1,4,1A2.92,2.92,0,0,1,45.38,69.89Zm-.3,11.74a2.94,2.94,0,1,1,1-4A2.91,2.91,0,0,1,45.08,81.63ZM42.32,16a2.75,2.75,0,0,1,4,.89,3,3,0,0,1-1,4.05A2.92,2.92,0,0,1,41.33,20,3,3,0,0,1,42.32,16ZM42,27.25a3,3,0,0,1,4,1,2.92,2.92,0,0,1-1,4.05,2.94,2.94,0,0,1-3.06-5Zm3.16,17.47a3,3,0,0,1-4-1,2.91,2.91,0,0,1,.89-4,2.77,2.77,0,0,1,4,1A3.17,3.17,0,0,1,45.18,44.72Zm-3.26,7.89a3,3,0,0,1,4,.89,3,3,0,0,1-5,3.16A3,3,0,0,1,41.92,52.61Zm-.59,36.62a2.94,2.94,0,0,1,4.25,4,2.94,2.94,0,1,1-4.25-4ZM17.49,27.3a2.89,2.89,0,0,1,4,.88,3,3,0,0,1-.88,4,2.93,2.93,0,1,1-3.16-4.93Zm-.64,12.88a3,3,0,0,1,4.15-.1,2.86,2.86,0,0,1,.1,4.14,2.93,2.93,0,0,1-4.25-4Zm4.35,41a2.94,2.94,0,1,1-4.25-4,2.94,2.94,0,0,1,4.25,4Zm0-11.75a2.93,2.93,0,0,1-4.25-4,2.93,2.93,0,0,1,4.25,4Zm0-12.24a3,3,0,0,1-4.15.1A2.93,2.93,0,1,1,21.1,53,3,3,0,0,1,21.2,57.15ZM33.63,44.22a2.93,2.93,0,1,1-.1-4.14A2.85,2.85,0,0,1,33.63,44.22Zm.1,12.93a2.94,2.94,0,0,1-4.14.1,2.93,2.93,0,0,1,4-4.24A2.93,2.93,0,0,1,33.73,57.15Zm-4.24,8.2a2.93,2.93,0,0,1,4.24,4,2.93,2.93,0,1,1-4.24-4Zm4.34,27.93a2.93,2.93,0,1,1-4.24-4,2.93,2.93,0,1,1,4.24,4Zm0-12.14a3,3,0,0,1-4.15.1,2.87,2.87,0,0,1-.09-4.15,2.93,2.93,0,1,1,4.24,4Zm0-49.35a3,3,0,0,1-4.15.1,2.87,2.87,0,0,1-.09-4.15,2.93,2.93,0,1,1,4.24,4.05Zm0-11.36a2.93,2.93,0,1,1-4.24-4,2.93,2.93,0,0,1,4.24,4Zm9,95.9c-1.79-1.9-3.27-4.25-4.87-6.32a6.38,6.38,0,0,1-1.34-2.39,2.16,2.16,0,0,1,.91-2.4,3.21,3.21,0,0,1,2.46.15l7.07,2.41a30.77,30.77,0,0,1,3.74,1.45c.46.22,1,.62.85,1.11a1.22,1.22,0,0,1-.33.48c-.95,1-1.93,1.87-3,2.73s-1.91,1.53-2.92,2.24S43.77,117.32,42.84,116.33Zm23.32,8a3.72,3.72,0,0,1-.71,1.6,86.93,86.93,0,0,1-7.07,9.33c-.51.58-1.14,1.21-1.91,1.14s-1.23-.72-1.64-1.31L50,128.2c-.15-.21-2.2-2.93-2.32-3.17a2.57,2.57,0,0,1-.25-1.88c.94-1.86,3.17-5.29,4.09-6.68,1.81-2.69,1.81-2.69,3.42-5.28a2.62,2.62,0,0,1,2-1.29,2.23,2.23,0,0,1,1.7.78,7.5,7.5,0,0,1,1,1.64c1.85,3.48,3.65,6.54,5.57,9.59A4.05,4.05,0,0,1,66.16,124.33Zm-1.73-10.78c-1-.86-2-1.78-3-2.73a1.12,1.12,0,0,1-.33-.48c-.13-.49.39-.89.84-1.11a32.1,32.1,0,0,1,3.74-1.45l7.07-2.41a3.21,3.21,0,0,1,2.46-.15,2.16,2.16,0,0,1,.91,2.4A6.24,6.24,0,0,1,74.82,110c-1.59,2.07-3.08,4.42-4.87,6.32-.93,1-1.71.09-2.61-.54S65.36,114.33,64.43,113.55Z"/></g></svg>