<svg id="Iconos" xmlns="http://www.w3.org/2000/svg" viewBox="0 0 37.59337 47.01158"><defs><style>.cls-1,.cls-3,.cls-4,.cls-5,.cls-6,.cls-7{fill:none;}.cls-1,.cls-3,.cls-6,.cls-7{stroke:#00e9c5;}.cls-1,.cls-3,.cls-4,.cls-5,.cls-6{stroke-linecap:round;}.cls-1{stroke-linejoin:round;}.cls-2{fill:#00e9c5;}.cls-3,.cls-4,.cls-5,.cls-6,.cls-7{stroke-miterlimit:10;}.cls-3,.cls-4{stroke-width:0.5px;}.cls-4,.cls-5{stroke:#ff3737;}.cls-5,.cls-7{stroke-width:0.25px;}.cls-6{stroke-width:0.4093px;}</style></defs><circle class="cls-1" cx="17.87399" cy="13.97514" r="2.8"/><path class="cls-1" d="M4.874,10.37516h0a1.59243,1.59243,0,0,0-.7,2l2,4.4a3.31888,3.31888,0,0,0,1.7,1.6l4.9,1.9-.2,8.2-3.4,7.8a2.01593,2.01593,0,0,0-.3,1.1l-1.2,7.4a1.415,1.415,0,0,0,1.067,1.69292h0l.033.00708h0a1.51971,1.51971,0,0,0,1.8-1.1l1.4-7.7,2.3-4.7a1.4192,1.4192,0,0,1,1.4-.8h0a1.42386,1.42386,0,0,1,1.3.9l2,4.7v7.2a1.538,1.538,0,0,0,1.5,1.5h.3a1.538,1.538,0,0,0,1.5-1.5v-6.8a4.01235,4.01235,0,0,0-.3-1.5l-2.8-7.6.2-5.9,3.3,5.1,3.3,3.2a1.45,1.45,0,0,0,2.05.05q.0256-.02439.05-.05h0a1.54259,1.54259,0,0,0,0-2.1l-3-3.1-3.6-5.6a3.90682,3.90682,0,0,0-1.7-1.4l-10.8-4-2.2-4.3a1.35063,1.35063,0,0,0-1.79426-.655h0Q4.9257,10.34532,4.874,10.37516Z" transform="translate(0 -0.00002)"/><path class="cls-2" d="M27.974,46.97516l-7.1-18.6,8.4,18.6" transform="translate(0 -0.00002)"/><path class="cls-3" d="M4.29341,17.07516a22.30506,22.30506,0,0,0-2.1,17.8" transform="translate(0 -0.00002)"/><path class="cls-3" d="M.59341,24.17516a23.53513,23.53513,0,0,0-.2,6.6" transform="translate(0 -0.00002)"/><path class="cls-3" d="M3.79341,20.77516a23.4535,23.4535,0,0,0-1.4,8.8" transform="translate(0 -0.00002)"/><path class="cls-4" d="M27.974,44.27516" transform="translate(0 -0.00002)"/><path class="cls-5" d="M24.474,37.57516" transform="translate(0 -0.00002)"/><g id="Iconos-2"><path class="cls-2" d="M6.17531,12.71953l.53445-.83542.49167-.75891,1.026-1.59439a.40138.40138,0,0,1,.20013-.14955c.22175-.06662.44349-.13327.65776-.21294a16.00443,16.00443,0,0,0,3.34949-1.47217,5.8302,5.8302,0,0,0,2.7951-3.2079,1.07673,1.07673,0,0,0,.01641-.18275,1.67,1.67,0,0,0,.00447-.5659,2.45121,2.45121,0,0,0-.183-.60566,3.54017,3.54017,0,0,0-.30782-.5513,3.64827,3.64827,0,0,0-.429-.551,4.67942,4.67942,0,0,0-.45025-.4522,1.13959,1.13959,0,0,0-.16345-.14883c-.13447-.11347-.27541-.22315-.41923-.32267a1.81409,1.81409,0,0,0-.22122-.159c-.12229-.07714-.24456-.15427-.36959-.22117a.91862.91862,0,0,0-.14933-.079,2.87657,2.87657,0,0,0-.33969-.169,4.90753,4.90753,0,0,0-.69228-.26992,2.54551,2.54551,0,0,0-2.67666.41,1.28608,1.28608,0,0,0-.16188.17093A3.99376,3.99376,0,0,0,8.2241,1.282a2.49271,2.49271,0,0,0-.2092.28476,2.74084,2.74084,0,0,0-.29647.46486L7.58,2.25847c-.06868.1521-.1346.29394-.20327.44605A1.42422,1.42422,0,0,0,7.311,2.907l-.00649.00375c-.06954.19591-.13255.38809-.1853.583a5.77576,5.77576,0,0,0-.14692.665c-.035.21076-.057.414-.07146.63036a12.3373,12.3373,0,0,0,.17851,3.04349c.05.28331.10647.56288.176.835a.22122.22122,0,0,1-.03976.18746l-.935,1.42077L5.58334,11.326l-.47029.72066a.09629.09629,0,0,0,.02356.1165l.00652-.00374.87564.58932a.10861.10861,0,0,0,.15193-.02245h0ZM12.729,6.08a.19365.19365,0,0,1-.13943.21l-.03636.01218a.18878.18878,0,0,1-.22-.15123v0h0l-.00121-.0077-.00748-.013a.2081.2081,0,0,1,.172-.22875.21386.21386,0,0,1,.23255.17851ZM11.00758,7.23286A.20454.20454,0,0,1,10.7421,7.118l0,0h0l-.00048-.00117c-.001-.01676-.01224-.03632-.00664-.05686a.18416.18416,0,0,1,.13664-.19977.19076.19076,0,0,1,.2465.10962h0v.00008l.0026.00726a.196.196,0,0,1-.11.25439h0ZM9.79225,4.13453l.01025.00277a.1927.1927,0,0,1,.19244.18419l-.00278.01027L9.98939,4.342a.18839.18839,0,0,1-.18046.196h0l-.01029.00016-.00652.00373-.01029-.0028a.20248.20248,0,0,1,.01043-.40459Zm1.6463-.99707a.21259.21259,0,0,1,.19712.2075.192.192,0,0,1-.10127.1708.23153.23153,0,0,1-.096.02908L11.42816,3.542a.19873.19873,0,0,1-.19731-.20014h0l.00019-.00735L11.2273,3.328a.2033.2033,0,0,1,.21123-.19056Zm-.49263.74213a.21255.21255,0,0,1,.19713.2075.215.215,0,0,1-.20376.20365.19877.19877,0,0,1-.19732-.20017l.0002-.00735a.20761.20761,0,0,1,.20374-.20362Zm.95362-.04478a.20384.20384,0,0,1,.1375-.2436l.01678-.001a.20093.20093,0,0,1,.24083.14779.1946.1946,0,0,1-.1345.24009l-.01976.00447a.201.201,0,0,1-.24083-.14773Zm-.34488.50132a.19262.19262,0,0,1,.22693.15069v0h0l.0009.00449.001.01679a.20384.20384,0,0,1-.40344.05861h0l-.00073-.00512-.0001-.00079-.00029-.00242a.21191.21191,0,0,1,.14221-.22031.057.057,0,0,1,.03353-.00195Zm-1.10607.26228a.20981.20981,0,0,1,.21945.186.13158.13158,0,0,1-.00737.04757.20339.20339,0,0,1-.22837.17486l-.00061-.00009a.20785.20785,0,0,1-.16912-.18891.20307.20307,0,0,1,.1853-.21939h0ZM10.036,5.2686a.19723.19723,0,0,1,.19738.19706l-.00026.01047a.19967.19967,0,0,1-.10224.15406.17988.17988,0,0,1-.11.0198.201.201,0,0,1-.18036-.20847.19127.19127,0,0,1,.19543-.17285Zm-.49832.702a.20852.20852,0,0,1,.22223.17576.19915.19915,0,0,1-.17328.222h0l-.00243.00029a.19475.19475,0,0,1-.20063-.09283.22054.22054,0,0,1-.02064-.06615l-.001-.01679A.21747.21747,0,0,1,9.4911,5.98Zm1.40451-.6936a.20572.20572,0,0,1,.14124-.237l.013-.00748a.21981.21981,0,0,1,.24456.15427.19391.19391,0,0,1-.1448.23288h0l-.00667.00143-.0065.0037a.201.201,0,0,1-.24088-.14777Zm1.25855-.47982.04659-.00942a.2009.2009,0,0,1,.24083.14778l-.00651.00374a.2097.2097,0,1,1-.2809-.14208Zm-.16526.8142a.19819.19819,0,0,1-.12195.25236h0L11.912,5.8643a.08043.08043,0,0,1-.0466.00941.20369.20369,0,0,1-.24359-.13749l.00278-.01027a.20319.20319,0,0,1,.15148-.23429.20746.20746,0,0,1,.25939.11976Zm-1.60076.91027a.12756.12756,0,0,1,.01967.04936.22114.22114,0,0,1-.14676.25759.19753.19753,0,0,1-.24344-.137v0h0L10.064,6.69117l-.00471-.02329a.18988.18988,0,0,1,.128-.23607h.00007l.01972-.00473a.20091.20091,0,0,1,.22759.09466Zm.90547-.35513a.201.201,0,0,1,.24082.14779.215.215,0,0,1-.18884.22973.2348.2348,0,0,1-.21655-.13569.207.207,0,0,1,.16454-.2418Zm1.819-.86223.01592.04285a.20374.20374,0,0,1-.1375.2436L13.02733,5.588l-.00652.00374a.20377.20377,0,0,1-.24355-.13747l.0028-.01021a.21383.21383,0,0,1,.11975-.2594.20159.20159,0,0,1,.25911.11891v0Zm.47029-.72064a.12108.12108,0,0,1,.01413.06989.2068.2068,0,0,1-.13291.20629.21325.21325,0,0,1-.2807-.11021h0l-.002-.00475a.21745.21745,0,0,1,.11506-.28268.22047.22047,0,0,1,.28641.12153Zm.29949-.82192.00374.00652a.19324.19324,0,0,1,.08835.36527l-.03259.01871-.06984.01413a.194.194,0,0,1-.18048-.20654h0l.00014-.00195-.00374-.00652A.212.212,0,0,1,13.929,3.7617Zm-.95193.42515a.20634.20634,0,0,1-.131.23985l-.01956.01123a.21527.21527,0,0,1-.25482-.15706.20993.20993,0,0,1,.15051-.25111.21526.21526,0,0,1,.25479.157Zm.47862-.75144c.001.01676-.00458.0373.00289.05034a.207.207,0,0,1-.16452.24179.23517.23517,0,0,1-.28465-.14861.22658.22658,0,0,1,.13841-.289h0l.00643-.00219a.24944.24944,0,0,1,.30139.14763Zm.21475-.77327a.19659.19659,0,0,1,.22712.16034h0l.00165.01165a.19917.19917,0,0,1-.14221.22029.19624.19624,0,0,1-.24915-.117l.00277-.01028-.01218-.03636a.19656.19656,0,0,1,.16029-.22709Zm-.89418.37465a.20826.20826,0,0,1-.158.238.19992.19992,0,0,1-.23429-.15148.18988.18988,0,0,1,.13092-.23441h0l.01024-.00259.013-.00748a.21538.21538,0,0,1,.238.158Zm.45365-.65908a.21508.21508,0,0,1-.08714.2407c-.013.00747-.0233.0047-.03637.01218a.20015.20015,0,0,1-.25456-.12373h0l-.00207-.0063-.01218-.03635a.20332.20332,0,0,1,.1422-.22029.20094.20094,0,0,1,.25.1338Zm-1.11355.2493-.00931.014a.198.198,0,0,1-.20094.1934l-.01026-.00279a.1993.1993,0,0,1-.17381-.21221l.00278-.01027a.19.19,0,0,1,.185-.1757l.00652-.00375a.21123.21123,0,0,1,.19991.19733Zm-1.48306.08871a.23182.23182,0,0,1,.096-.02907l.00651-.00374a.18118.18118,0,0,1,.18856.17341h0l.00009.0042.00375.00653.00471.02329a.22087.22087,0,0,1-.20751.19712.19443.19443,0,0,1-.187-.20157h0l.00015-.00313a.181.181,0,0,1,.09469-.16705Zm-1.03356.64536a.18565.18565,0,0,1-.2203-.1422.19.19,0,0,1,.13848-.22681l.01678-.001a.18563.18563,0,0,1,.2128.12916.2009.2009,0,0,1-.14785.24081Zm.79561.19326a.20665.20665,0,0,1-.15149.23431l-.00653.00374a.20587.20587,0,0,1-.22777-.15524l-.001-.01679a.2033.2033,0,0,1,.14221-.22029.22342.22342,0,0,1,.24446.15427Zm2.14747-1.64878.00363.00653.01592.04285a.193.193,0,0,1-.13706.236h0l-.00422.00109-.013.00749a.19624.19624,0,0,1-.23707-.14123l-.00375-.00652a.21627.21627,0,0,1,.12255-.26966.20209.20209,0,0,1,.25293.12346Zm-1.14241.2745a.2033.2033,0,0,1-.201.19338L11.19564,2.367a.20424.20424,0,0,1-.18409-.215l.00278-.01027a.18972.18972,0,0,1,.19543-.17285.19809.19809,0,0,1,.19094.205v0h0Zm-1.24562.41174c-.013.00748-.02981.00848-.04285.01593l-.0298.00848a.19105.19105,0,0,1-.23164-.13908v0h0l-.00267-.0124a.19634.19634,0,0,1,.1412-.237.2002.2002,0,0,1,.24263.14591l.0019.00836a.19036.19036,0,0,1-.07893.20991Zm1.50685-1.255a.18658.18658,0,0,1,.1952.17394l-.00181.027a.21242.21242,0,0,1-.21774.19433.19391.19391,0,0,1-.18051-.20644v0h0l.00012-.002a.18957.18957,0,0,1,.1916-.18747Zm-.9372.33a.20567.20567,0,0,1-.15428.24455A.19431.19431,0,0,1,10.349,1.813a.12849.12849,0,0,1-.01968-.04936.19309.19309,0,0,1,.13719-.23609h0l.004-.001.01307-.00751a.20436.20436,0,0,1,.24071.14784Zm.40326-.65621.01218.03636A.20242.20242,0,1,1,10.871.88062a.20576.20576,0,0,1,.25657.13Zm-1.54244.22684a.20818.20818,0,0,1,.2-.21016L9.7955,1.03l.00375.00652a.19013.19013,0,0,1,.196.184h0l.0001.00665-.00278.01027a.18664.18664,0,0,1-.1376.183.06814.06814,0,0,1-.05685.00664.196.196,0,0,1-.21228-.17823V1.24878h0ZM9.368,2.14225A.20608.20608,0,0,1,9.13269,1.974a.21693.21693,0,0,1,.13848-.22681.21261.21261,0,0,1,.24456.15427.20092.20092,0,0,1-.09462.22763c-.013.00749-.02981.00847-.04285.01592Zm-.69977.653A.20829.20829,0,0,1,8.641,2.73282a.191.191,0,0,1,.13475-.23333l.00651-.00377a.20023.20023,0,0,1,.24263.14591h0L9.0268,2.65a.2033.2033,0,0,1-.10491.22485c-.013.00748-.02981.00848-.04286.01592a.201.201,0,0,1-.211-.09551Zm-.51332.676a.2232.2232,0,0,1,.13278-.26689.21284.21284,0,0,1,.25387.14026L8.55,3.37443a.19036.19036,0,0,1-.13567.21655.20744.20744,0,0,1-.25949-.11971Zm-.45267.67586a.20043.20043,0,0,1,.08715-.2407l.02608-.015.01678-.001a.19088.19088,0,0,1,.24656.10979l.00261.00719.01968.04936a.2017.2017,0,0,1-.1329.2063.20465.20465,0,0,1-.26556-.115l-.00041-.001Zm1.192-.173a.26659.26659,0,0,1-.0244-.07266.1928.1928,0,0,1,.08632-.19689c.013-.00748.02981-.00847.04284-.01592l.04285-.01592a.20154.20154,0,0,1,.22852.17031h0l.00023.00169a.19658.19658,0,0,1-.16033.22709h0l-.01171.00168a.20107.20107,0,0,1-.20438-.09935Zm-.44254.618a.18325.18325,0,0,1,.123-.22808l.00522-.00148.01955-.01123a.206.206,0,0,1,.25571.11324l.001.01678a.19441.19441,0,0,1-.1147.24986h0l-.00883.003a.079.079,0,0,1-.04.00566l-.0028.01023a.20826.20826,0,0,1-.238-.15792ZM8.22776,5.44a.18541.18541,0,0,1-.21589-.14881h0l-.00258-.0204-.00374-.00653A.20177.20177,0,0,1,8.1813,5.042a.19706.19706,0,0,1,.21839.17312v0h0l.00106.01287a.20174.20174,0,0,1-.1329.2063A.05765.05765,0,0,1,8.22769,5.44Zm.89688-.44554a.20845.20845,0,0,1,.10129-.17081.1878.1878,0,0,1,.10622-.02631.19874.19874,0,0,1,.19731.20016h0l-.00019.00733.00374.00652a.21239.21239,0,0,1-.21774.19433.20325.20325,0,0,1-.19071-.21122Zm-.384.52376.02609-.015a.06514.06514,0,0,1,.05033-.0029.18526.18526,0,0,1,.21328.15211l.00147.01061.00748.013a.21155.21155,0,0,1-.17575.22223.20731.20731,0,0,1-.23249-.17852h0a.2014.2014,0,0,1,.10953-.20157Zm-.17393,1.5992c-.0932.01883-.19013.03114-.27679.04624-.09417.002-.16782.00961-.25544.00794-.08389.00483-.15.02545-.16515-.06121-.0274-.1836-.025-.37563-.03842-.54994a.44783.44783,0,0,1,.01265-.18927.147.147,0,0,1,.14891-.10283.30219.30219,0,0,1,.13345.09674l.31312.40957c.05516.081.10283.14892.158.23.01218.03636.03464.07545.00579.10068ZM10.49979,5.9557a.2009.2009,0,1,1,.24456.15428.19739.19739,0,0,1-.24137-.14017Zm-1.701,2.56246a4.579,4.579,0,0,1-.75928.26255.12.12,0,0,1-.09319.01882l-.05879-.02691a.14882.14882,0,0,1-.04128-.13231l-.01979-.578L7.811,7.79385a.23076.23076,0,0,1,.06035-.12132c.12385-.07109.38374-.17695.48526-.22656a2.99312,2.99312,0,0,0,.40428-.17144.17681.17681,0,0,1,.15475-.00217.17254.17254,0,0,1,.0804.10985c-.00084.04382-.0045.0979-.00905.1352-.02837.26761-.04094.51748-.047.76361a.26537.26537,0,0,1-.03693.17721.32164.32164,0,0,1-.10439.05993ZM9.94536,7.964c-.16863.05347-.3456.13773-.5152.17442-.0997.02258-.10457-.06134-.13543-.13025s-.05625-.15837-.08064-.231c-.02532-.08941-.04791-.18915-.06951-.27208l-.0029-.05034a.08552.08552,0,0,1,.08941-.02533,2.51053,2.51053,0,0,1,.27607.05818l.49251.13327a.22529.22529,0,0,1,.14932.079.15175.15175,0,0,1-.037.17713.52693.52693,0,0,1-.16678.087Zm1.90231-1.17a.21149.21149,0,0,1,.13567-.21655c.01679-.001.0233-.00471.04-.00567a.2004.2004,0,0,1,.225.1655l.001.01679a.20861.20861,0,0,1-.17576.22222.204.204,0,0,1-.22573-.17959h0Z" transform="translate(0 -0.00002)"/></g><path class="cls-3" d="M26.72325,35.14776a8.83921,8.83921,0,0,0,6.975-3.20021" transform="translate(0 -0.00002)"/><path class="cls-3" d="M30.21778,35.71862A9.179,9.179,0,0,0,32.66,34.30178" transform="translate(0 -0.00002)"/><path class="cls-3" d="M28.1889,34.06964a9.22719,9.22719,0,0,0,3.53836-1.43816" transform="translate(0 -0.00002)"/><path class="cls-6" d="M27.19521,44.68646" transform="translate(0 -0.00002)"/><path class="cls-6" d="M27.07229,46.73939" transform="translate(0 -0.00002)"/><path class="cls-6" d="M26.10057,46.8415" transform="translate(0 -0.00002)"/><path class="cls-7" d="M24.24,44.147a1.47695,1.47695,0,0,1,1.66816,2.43777" transform="translate(0 -0.00002)"/><path class="cls-7" d="M25.90814,46.58476A1.477,1.477,0,0,1,24.24,44.147" transform="translate(0 -0.00002)"/><path class="cls-7" d="M25.58721,44.04534l.19657.50746c.76513,1.60194-1.24323,2.18759-1.68335.92538l-.29882-.88206" transform="translate(0 -0.00002)"/><path class="cls-2" d="M36.72785,17.50432h-6.735c-1.14639,0-1.00309-.7165-1.00309-1.57629,0-.7165.71649-1.28969,1.14638-1.71959l1.71958-1.71958,1.28969-1.28969c.5732-.71649,1.433-1.71959,1.433-2.57938,0-1.00309-.28659-1.14639-1.14639-1.14639a8.17091,8.17091,0,0,0-1.863.14332c-.2866,0-.7165.1433-1.00309.1433-.8598,0-.8598-.85979-.8598-1.433v-.1433c0-.57319.46511-.91139,1.05116-1.00906a20.68914,20.68914,0,0,1,2.81794-.13733c2.14948,0,4.01237.7165,4.01237,3.29587,0,3.15258-2.72268,5.15876-4.87216,7.02165,1.28968,0,2.57936-.1433,3.86907-.1433,1.14638,0,1.00309.71649,1.00309,1.57628C37.55272,17.398,37.30106,17.50432,36.72785,17.50432Z" transform="translate(0 -0.00002)"/></svg>