<svg id="Iconos" xmlns="http://www.w3.org/2000/svg" viewBox="0 0 28.10538 41.68512"><defs><style>.cls-1,.cls-2,.cls-3,.cls-5{fill:none;stroke:#00e9c5;}.cls-1,.cls-3,.cls-5{stroke-miterlimit:10;}.cls-2,.cls-5{stroke-linecap:round;}.cls-2{stroke-linejoin:round;}.cls-3{stroke-width:0.25px;}.cls-4{fill:#00e9c5;}.cls-5{stroke-width:0.5px;}</style></defs><circle class="cls-1" cx="11.19094" cy="12.57229" r="2.6"/><path class="cls-2" d="M6.49094,22.97229a2.32776,2.32776,0,0,1-2.7-.8l-2.9-4.1a1.59819,1.59819,0,0,1,.4-2.2h0a1.48047,1.48047,0,0,1,2.0646.34794q.01826.02565.0354.05206l2.6,3.6,5.3-2.2a11.59905,11.59905,0,0,0,3.9-2.6l2.1-2,.2-2.5a1.66927,1.66927,0,0,1,1.8-1.5h0a1.55566,1.55566,0,0,1,1.4003,1.69687l-.0003.00313-.2,2.4a4.4203,4.4203,0,0,1-1.1,2.4l-2.6,2.6.4,9.8,1.8,5.3a3.59853,3.59853,0,0,1,.1,2.3l-.9,4.4a1.53748,1.53748,0,0,1-1.7,1.2h-.2a1.55727,1.55727,0,0,1-1.2-1.8l1.1-4.9-2.4-6-3.6,11.3a1.48939,1.48939,0,0,1-1.7,1h0a1.47254,1.47254,0,0,1-1.2-1.9l3.7-12.2-.3-5.4Z"/><path class="cls-3" d="M9.99094,3.01952a1.69706,1.69706,0,0,1,2.4-2.4"/><path class="cls-3" d="M12.391.61952a1.69706,1.69706,0,0,1-2.4,2.4"/><path class="cls-3" d="M9.59094,1.51952l1.4-.9c.8-.3,2,1.3,1,2.1l-1.4.7"/><g id="Iconos-2"><path class="cls-4" d="M2.95246,17.73806l.2172-1.1177.20389-1.01791.4209-2.13558a.46074.46074,0,0,1,.15039-.24424c.20852-.16488.417-.32977.612-.50539A18.37565,18.37565,0,0,0,7.50946,9.72969a6.69345,6.69345,0,0,0,1.627-4.60587,1.23538,1.23538,0,0,0-.05975-.202,1.91818,1.91818,0,0,0-.2345-.6059,2.81476,2.81476,0,0,0-.45143-.56905,4.06548,4.06548,0,0,0-.56165-.45828,4.188,4.188,0,0,0-.69091-.40669,5.37266,5.37266,0,0,0-.67177-.2923,1.30892,1.30892,0,0,0-.23739-.08974c-.1915-.06426-.38832-.12176-.5839-.16714a2.08342,2.08342,0,0,0-.30333-.07613c-.16311-.03063-.32622-.06126-.488-.07978a1.05391,1.05391,0,0,0-.19278-.02115,3.30247,3.30247,0,0,0-.434-.03672,5.63155,5.63155,0,0,0-.853.00459A2.9223,2.9223,0,0,0,.69039,3.6928a1.47536,1.47536,0,0,0-.1005.25092A4.58528,4.58528,0,0,0,.30313,4.664a2.8613,2.8613,0,0,0-.10289.3924,3.146,3.146,0,0,0-.11988.62153l-.0519.30065c-.009.19138-.01937.37065-.02835.56206a1.63466,1.63466,0,0,0,.01542.24389l-.00532.00675c.00862.23851.02263.47027.04875.70065a6.63182,6.63182,0,0,0,.12436.77191c.05175.23976.11427.466.19027.703A14.16338,14.16338,0,0,0,1.851,12.13977c.17313.28126.35165.55578.5409.8168a.254.254,0,0,1,.03685.21694l-.39728,1.91176-.3,1.41567-.19726.968a.11055.11055,0,0,0,.0744.11439l.00538-.00676,1.18378.25877a.12469.12469,0,0,0,.15267-.08821h0ZM7.14014,7.88025a.22235.22235,0,0,1-.06.28314l-.03367.02839a.21673.21673,0,0,1-.29878-.06838l0,0h0l-.0046-.00765-.01342-.01086A.23892.23892,0,0,1,6.81655,7.788a.24554.24554,0,0,1,.3237.0922ZM5.79024,9.83867a.23487.23487,0,0,1-.33192-.01039h0l-.001-.001c-.00815-.01747-.02841-.03359-.03113-.05788a.21142.21142,0,0,1,.06133-.271.219.219,0,0,1,.30945.01278h0v.00007l.00585.00665a.225.225,0,0,1-.0098.318h0ZM3.183,7.04547l.01212-.00135a.22122.22122,0,0,1,.28328.11522l.00138.01213.00137.01212a.21627.21627,0,0,1-.10972.28551h0l-.01092.00453-.00538.00674L3.343,7.48172a.23246.23246,0,0,1-.16-.43625Zm1.33559-1.7603a.2441.2441,0,0,1,.29811.13814.22046.22046,0,0,1-.03588.22513A.26586.26586,0,0,1,4.69066,5.72l-.01212.00137a.22816.22816,0,0,1-.29523-.1302v0l-.00289-.00793L4.37366,5.5779a.2334.2334,0,0,1,.14489-.2927ZM4.30666,6.28559a.244.244,0,0,1,.29812.13813.24686.24686,0,0,1-.13138.30351.22818.22818,0,0,1-.29529-.13012l0-.00006h0l-.0029-.008a.23833.23833,0,0,1,.13138-.30345Zm.99891-.451a.234.234,0,0,1,.04377-.31814l.0175-.00813a.23068.23068,0,0,1,.31953.05591.2234.2234,0,0,1-.042.31313l-.0192.01314a.23073.23073,0,0,1-.31951-.05582Zm-.15618.68091a.22116.22116,0,0,1,.306.06486l0,0h0l.00286.00442.00812.0175a.234.234,0,0,1-.4058.23314h0l-.00294-.00515-.00046-.00078-.00144-.00248a.24327.24327,0,0,1,.05862-.29527.06538.06538,0,0,1,.035-.01626Zm-1.06973.7476a.24088.24088,0,0,1,.31288.10579.15136.15136,0,0,1,.01225.0539A.23349.23349,0,0,1,4.235,7.706l-.0007.00017a.23863.23863,0,0,1-.26036-.1301.23313.23313,0,0,1,.105-.31251h0Zm-.157.88979a.22645.22645,0,0,1,.294.12688l.00415.01129a.22926.22926,0,0,1-.044.20766.20643.20643,0,0,1-.109.06764.23076.23076,0,0,1-.28065-.14626A.21955.21955,0,0,1,3.92268,8.153Zm-.235.96a.23939.23939,0,0,1,.31153.09363.22861.22861,0,0,1-.09114.31018l-.0025.00135a.22354.22354,0,0,1-.25338-.01426.2534.2534,0,0,1-.05-.06187L3.594,9.42441a.24965.24965,0,0,1,.04789-.28175Zm1.2058-1.33412A.2362.2362,0,0,1,4.944,7.466l.0107-.01349a.25237.25237,0,0,1,.32622.06125.22263.22263,0,0,1-.056.30983h0l-.0065.00435L5.213,7.83468a.23078.23078,0,0,1-.31961-.05587ZM6.03389,6.7345l.04577-.02975a.23067.23067,0,0,1,.31954.05591l-.00537.00675a.24075.24075,0,1,1-.3599-.03287Zm.1679.9389a.22756.22756,0,0,1-.02345.32091h0l-.00143.00122a.09246.09246,0,0,1-.04576.02976A.23385.23385,0,0,1,5.813,7.98154l-.00136-.01215a.23327.23327,0,0,1,.06262-.31413.23818.23818,0,0,1,.3275.01816ZM4.87811,9.3218A.14657.14657,0,0,1,4.92,9.36617a.25386.25386,0,0,1-.04773.337.22676.22676,0,0,1-.31776-.04328h0l-.00039-.00048-.01488-.02287a.218.218,0,0,1,.03679-.3061h.00006l.019-.01338a.23067.23067,0,0,1,.28295.00482Zm.81629-.7619a.23077.23077,0,0,1,.31953.05591.24679.24679,0,0,1-.10441.32506A.26957.26957,0,0,1,5.621,8.88761a.23761.23761,0,0,1,.07337-.32767ZM7.2713,6.87048l.03512.039a.2339.2339,0,0,1-.04377.31815l-.01211.0014-.00539.00676a.23393.23393,0,0,1-.31806-.04374l-.00133-.01213a.24547.24547,0,0,1,.01814-.3275.23142.23142,0,0,1,.32682.01735l0,0h0Zm.19726-.968a.13888.13888,0,0,1,.04463.06863.23741.23741,0,0,1-.05463.27638.24484.24484,0,0,1-.34622.001h0l-.00415-.00423a.24964.24964,0,0,1,.0033-.35038.2531.2531,0,0,1,.35708.00862Zm-.0279-1.00391.00675.00539a.22185.22185,0,0,1,.24876.35251l-.02688.03375-.06858.0446a.22266.22266,0,0,1-.28-.1441l0,0h0L7.32,5.18852,7.31329,5.1832a.24336.24336,0,0,1,.12737-.28465Zm-.83628.85629a.23689.23689,0,0,1-.03837.31139l-.01613.02025a.24713.24713,0,0,1-.33839-.05987A.241.241,0,0,1,6.266,5.695a.24715.24715,0,0,1,.33836.05987Zm.19314-1.00442c.00814.01747.01087.04175.02436.0525a.23761.23761,0,0,1-.07335.32765.27.27,0,0,1-.36667-.03828.26012.26012,0,0,1,.02557-.367l.00594-.00506a.28638.28638,0,0,1,.38411.03013Zm-.09776-.91617A.22569.22569,0,0,1,7.01,3.90938h0l.00669.01174a.22868.22868,0,0,1-.05864.29526.2253.2253,0,0,1-.31538-.01949l-.00137-.01215-.02835-.03369A.22569.22569,0,0,1,6.688,3.84088Zm-.796.778a.23908.23908,0,0,1-.068.32089.22953.22953,0,0,1-.31413-.06261A.218.218,0,0,1,5.56226,4.565h0l.00983-.00707.01076-.01351a.24728.24728,0,0,1,.32083.068ZM6.1093,3.717a.24691.24691,0,0,1,.00876.29376c-.01076.01349-.02288.01487-.03367.02837a.22975.22975,0,0,1-.324-.02442h0l-.00487-.00584L5.72713,3.9752A.23343.23343,0,0,1,5.78578,3.68a.2307.2307,0,0,1,.32346.03708ZM5.02614,4.4539l-.004.01892a.22727.22727,0,0,1-.13269.29137l-.01214.00137a.22878.22878,0,0,1-.27524-.153L4.6007,4.60043a.21815.21815,0,0,1,.12319-.26578l.00538-.00676a.2425.2425,0,0,1,.29685.12609Zm-1.5454.72175a.266.266,0,0,1,.09015-.0716l.00532-.00674a.208.208,0,0,1,.27455.10537h0l.00189.00444.00675.00538.01488.02287a.25356.25356,0,0,1-.13814.29812.22317.22317,0,0,1-.28481-.136l0,0h0l-.00117-.00338a.20773.20773,0,0,1,.03044-.21833ZM2.65045,6.30144a.21314.21314,0,0,1-.29526-.05862.21814.21814,0,0,1,.052-.30066l.01747-.00811a.21315.21315,0,0,1,.28175.04787.23067.23067,0,0,1-.056.31955Zm.93091-.13012a.23722.23722,0,0,1-.06262.31413l-.00538.00677a.23638.23638,0,0,1-.30877-.06939l-.00811-.01751a.23342.23342,0,0,1,.05864-.29527.25652.25652,0,0,1,.32615.0613ZM5.17631,3.50348l.0066.00543.03512.039a.22155.22155,0,0,1-.04647.30984h0l-.004.003-.01075.01351a.22532.22532,0,0,1-.31276-.0505l-.00678-.00536a.2483.2483,0,0,1,.01679-.33963.232.232,0,0,1,.32217.02483Zm-1.10322.776a.23341.23341,0,0,1-.13276.29139l-.00675-.00532a.23451.23451,0,0,1-.28739-.15162L3.64482,4.4018a.21779.21779,0,0,1,.13548-.26714.22741.22741,0,0,1,.29047.13808h0Zm-1.15543.96619c-.01074.0135-.02823.02165-.039.03512l-.02823.02164a.21936.21936,0,0,1-.306-.05051h0l-.00812-.0121a.22541.22541,0,0,1,.0505-.31276.22985.22985,0,0,1,.32066.05316l.00557.00812a.21858.21858,0,0,1,.00451.25742ZM3.9953,3.269a.21418.21418,0,0,1,.28189.10313l.0095.02961a.24385.24385,0,0,1-.15023.29949.22261.22261,0,0,1-.27995-.144h0L3.8558,3.55505A.21763.21763,0,0,1,3.981,3.27394Zm-.86084.74848a.2361.2361,0,0,1-.06127.32621.2231.2231,0,0,1-.27761-.01147.14751.14751,0,0,1-.04192-.04436.22165.22165,0,0,1,.04659-.31l0,0h0l.0039-.00276.01077-.01353a.23465.23465,0,0,1,.3195.056Zm.153-.87092.02838.03365a.23239.23239,0,1,1-.35728-.06391.23627.23627,0,0,1,.32883.03029Zm-1.5504.89431a.239.239,0,0,1,.1246-.30889l.01213-.00136.00676.00537a.2183.2183,0,0,1,.28707.11354h0l.00291.00706.00138.01213a.21428.21428,0,0,1-.06951.25347.07822.07822,0,0,1-.05787.03113.225.225,0,0,1-.3019-.10051l0,0h0Zm.1506,1.05755a.23661.23661,0,0,1-.32227-.08013.24908.24908,0,0,1,.0519-.30064.2441.2441,0,0,1,.32622.06126.23063.23063,0,0,1-.00475.283c-.01075.01352-.02823.02166-.039.03512Zm-.47078.99291a.238.238,0,0,1-.05538-.05514.21928.21928,0,0,1,.04517-.306L1.412,5.72341a.22987.22987,0,0,1,.32066.05314h0l.00557.00813a.23341.23341,0,0,1-.01691.28434c-.01075.0135-.02823.02165-.039.03511a.23077.23077,0,0,1-.26555-.01274Zm-.26208.93857a.25623.25623,0,0,1,.02894-.341.24432.24432,0,0,1,.33026.04237l.02166.0282a.21854.21854,0,0,1-.05325.28851.23815.23815,0,0,1-.32758-.01806Zm-.19738.91278a.23011.23011,0,0,1-.00876-.29377l.0216-.027.01751-.00814a.21911.21911,0,0,1,.30958.01293l.00584.00657.04188.04436a.23155.23155,0,0,1-.05461.27644.23494.23494,0,0,1-.33208-.0105l-.00086-.0009Zm1.19924-.68861a.30649.30649,0,0,1-.05676-.06724.22137.22137,0,0,1,.00888-.24665c.01076-.0135.02824-.02164.039-.03511l.039-.03511a.23136.23136,0,0,1,.31588.08511h0l.001.0017a.22568.22568,0,0,1-.07512.31019l-.01179.00674a.23081.23081,0,0,1-.2601-.01963Zm-.211.84679a.21039.21039,0,0,1,.03478-.29548l.00494-.00378.01611-.02025a.23645.23645,0,0,1,.32081.01275l.00811.01749a.22321.22321,0,0,1-.01677.3152h0l-.00816.00689c-.01075.01352-.02288.01489-.04034.023l.00134.0121a.23912.23912,0,0,1-.32088-.0679Zm.1195.99966A.21287.21287,0,0,1,1.77182,9.033h0l-.01138-.02068-.00678-.00544a.23164.23164,0,0,1,.09362-.31152.22625.22625,0,0,1,.30631.09241l.00657.01328a.2316.2316,0,0,1-.05462.27639.06607.06607,0,0,1-.04046.02306Zm.76891-.85478a.23922.23922,0,0,1,.03588-.22514.21568.21568,0,0,1,.10225-.073.22816.22816,0,0,1,.29525.13014v.00007h0l.00291.00789.00675.00539a.24385.24385,0,0,1-.15023.29948.23335.23335,0,0,1-.293-.14479Zm-.18841.72133L2.66715,8.94a.07468.07468,0,0,1,.0525-.02437.21267.21267,0,0,1,.292.07213l0,0,.00605.0107.01349.01076a.24284.24284,0,0,1-.09362.31153A.238.238,0,0,1,2.614,9.22852h0a.23122.23122,0,0,1,.03165-.26147Zm.49051,1.78039c-.09151.05951-.18976.11364-.27588.16639-.09965.042-.17505.08122-.26928.11648-.0875.04064-.14937.09061-.20216.00449-.10691-.18437-.18551-.39034-.27354-.57071a.51437.51437,0,0,1-.06652-.20737.16881.16881,0,0,1,.11547-.17267.347.347,0,0,1,.18334.04682l.50739.30477c.09313.06313.17272.11546.26588.17861.02838.03367.06888.06589.04875.105ZM4.70824,8.69015a.23064.23064,0,1,1,.32621.06127.22662.22662,0,0,1-.3169-.04756Zm-.732,3.45424a5.25738,5.25738,0,0,1-.69941.60128.13761.13761,0,0,1-.0915.05949L3.1112,12.8013a.17087.17087,0,0,1-.1-.12377l-.26554-.60847-.13-.28006a.26492.26492,0,0,1,.01311-.155c.10212-.12826.33477-.35114.42215-.447a3.43828,3.43828,0,0,0,.359-.35392.203.203,0,0,1,.16425-.06776.198.198,0,0,1,.13226.08326c.01764.04712.03659.10639.0475.14813.08288.29763.17512.56964.27276.8349a.30459.30459,0,0,1,.0355.20475.36926.36926,0,0,1-.08608.10811Zm.98942-1.07634c-.15741.12838-.31062.29317-.47614.404-.09687.06625-.13755-.02126-.19967-.08175s-.127-.14525-.18375-.21251c-.06484-.08467-.13112-.18163-.18924-.261l-.02439-.0525a.09819.09819,0,0,1,.08472-.06485,2.88244,2.88244,0,0,1,.31927-.05463l.582-.066A.25868.25868,0,0,1,5.07124,10.7a.17422.17422,0,0,1,.03549.20477.60493.60493,0,0,1-.1412.16344ZM6.50135,9.01481a.24278.24278,0,0,1,.05325-.2885c.01751-.00813.02288-.01488.04035-.023a.23007.23007,0,0,1,.31014.0815l.00814.0175a.23954.23954,0,0,1-.09364.31153.23418.23418,0,0,1-.31683-.09624h0Z"/></g><path class="cls-5" d="M27.85538,9.48591s-4.1348-5.06081-13.483-5.37711"/><path class="cls-5" d="M22.86749,4.9122a20.37676,20.37676,0,0,0-5.21343-1.5815"/><path class="cls-5" d="M25.373,8.66455a18.818,18.818,0,0,0-6.56173-2.84671"/></svg>