<svg id="Iconos" xmlns="http://www.w3.org/2000/svg" viewBox="0 0 30.5 43.87007"><defs><style>.cls-1{isolation:isolate;}.cls-2{fill:#00e9c5;}</style></defs><g class="cls-1"><path class="cls-2" d="M8.5,43.85641h-1a1.0778,1.0778,0,0,1-1.1-.6l-1.8-2.7-2,2.7c-.5.7-.9.6-1.8.6-.5,0-.8-.1-.8-.6a.76383.76383,0,0,1,.2-.5l3-4.1-2.9-4.2a1.42132,1.42132,0,0,1-.2-.6c0-.8,1.2-.7,1.7-.7a1.01555,1.01555,0,0,1,1,.5l1.9,2.8,2-2.8c.4-.6,1-.5,1.7-.5.4,0,.8.2.8.6a1.42132,1.42132,0,0,1-.2.6l-2.9,4,2.9,4.4a1.6895,1.6895,0,0,1,.2.5C9.2,43.75641,8.9,43.85641,8.5,43.85641Z"/></g><g id="Iconos-2"><path class="cls-2" d="M17.03885,43.519l-.02376-3.16635-.00507-2.887-.02934-6.05317a1.28142,1.28142,0,0,1,.27537-.74862c.47756-.5643.955-1.12866,1.38976-1.71481a51.1012,51.1012,0,0,0,6.40234-9.77041A18.61429,18.61429,0,0,0,26.94539,5.72727a3.43828,3.43828,0,0,0-.27416-.5177,5.33449,5.33449,0,0,0-.97305-1.52238,7.82741,7.82741,0,0,0-1.54406-1.30242A11.30594,11.30594,0,0,0,22.37065,1.445a11.64789,11.64789,0,0,0-2.10739-.7279A14.94515,14.94515,0,0,0,18.27107.29048a3.64189,3.64189,0,0,0-.69653-.11382C17.01714.107,16.449.05871,15.89083.04277a5.79413,5.79413,0,0,0-.86878-.04039c-.46149.00638-.923.01275-1.37417.05141a2.93071,2.93071,0,0,0-.53714.04856,9.18854,9.18854,0,0,0-1.20325.139A15.66633,15.66633,0,0,0,9.58488.72387,8.12687,8.12687,0,0,0,3.13426,6.4801a4.10277,4.10277,0,0,0-.1357.73935,12.7483,12.7483,0,0,0-.38481,2.12134,7.9549,7.9549,0,0,0-.06426,1.12631,8.74869,8.74869,0,0,0,.01567,1.76025l.02418.84812c.08091.52663.15141,1.021.2324,1.54771a4.54528,4.54528,0,0,0,.17641.65631l-.01079.02133c.15491.64539.3208,1.26941.51893,1.883a18.44408,18.44408,0,0,0,.76428,2.03559c.27317.625.56824,1.20728.906,1.81144a39.388,39.388,0,0,0,5.77528,7.83493c.6269.67128,1.26477,1.32122,1.92445,1.92848a.70631.70631,0,0,1,.22.571l-.0296,5.43006-.03776,4.02419-.00435,2.7473a.30742.30742,0,0,0,.26582.27082l.18665.03243,3.19367-.00068a.34676.34676,0,0,0,.36756-.32456h0Zm5.9836-29.17816a.61835.61835,0,0,1-.00755.80485l-.07614.09594a.60272.60272,0,0,1-.8521-.02176l0,0h0l-.01675-.01832-.04256-.02221a.66441.66441,0,0,1,.06227-.91156.68284.68284,0,0,1,.93316.073Zm-2.60059,6.0821a.65313.65313,0,0,1-.91049.15456h0l-.00327-.00218c-.03185-.04313-.09595-.0759-.11675-.14062a.588.588,0,0,1,.01786-.77249.609.609,0,0,1,.85056-.13567v0h0l0,.00019.01961.0149a.62572.62572,0,0,1,.14849.87222h0Zm-8.64593-6.17728.03229-.01039a.61524.61524,0,0,1,.83566.158l.01045.03233.01042.03229a.60146.60146,0,0,1-.14177.8387v0h0l-.02727.01836-.011.02134-.03243.01038a.64647.64647,0,0,1-.67637-1.101Zm2.67074-5.53418a.67884.67884,0,0,1,.88872.21229.61314.61314,0,0,1,.02623.63342.73948.73948,0,0,1-.20628.24489l-.03228.01041a.6345.6345,0,0,1-.87649-.19226l0,0-.01224-.02-.02139-.01094a.649.649,0,0,1,.23368-.87769Zm-.02646,2.84375a.67856.67856,0,0,1,.88873.21224.68651.68651,0,0,1-.1909.89971.63454.63454,0,0,1-.87659-.192l-.00009-.00015h0l-.01232-.02021a.66277.66277,0,0,1,.19094-.89952ZM16.8946,9.77546a.65076.65076,0,0,1-.056-.89132l.04323-.0318a.64152.64152,0,0,1,.90179-.02365.62131.62131,0,0,1,.058.87669l-.0451.04639a.64168.64168,0,0,1-.90169.02389ZM16.844,11.71757a.615.615,0,0,1,.86976.0082l.0001.00011h0l.01024.01047.03177.04323a.65075.65075,0,0,1-.97769.85909h0l-.01086-.01242-.00168-.00187-.00529-.006a.6765.6765,0,0,1-.00289-.83716.18161.18161,0,0,1,.08644-.06361ZM14.34,14.3448a.66986.66986,0,0,1,.91115.116.42038.42038,0,0,1,.06309.14018.64936.64936,0,0,1-.30684.86549l-.00182.00085a.66365.66365,0,0,1-.78138-.21118.64833.64833,0,0,1,.114-.90971h0Zm.0623,2.51193a.62972.62972,0,0,1,.8713.18387l.01754.02849a.63763.63763,0,0,1-.00553.59029.574.574,0,0,1-.25985.24443.64173.64173,0,0,1-.84559-.24405.61055.61055,0,0,1,.22223-.80279Zm-.11164,2.7463a.66571.66571,0,0,1,.90077.08357.63576.63576,0,0,1-.07754.89572l-.00607.00506a.6217.6217,0,0,1-.69853.10073.70483.70483,0,0,1-.17038-.1411l-.03181-.04325a.69425.69425,0,0,1-.0247-.79439Zm2.55176-4.301a.65686.65686,0,0,1-.03468-.88042l.02173-.04266a.70181.70181,0,0,1,.923-.01278.61915.61915,0,0,1,.01806.8754h0l-.01533.01541-.01095.02137a.64174.64174,0,0,1-.902.0238Zm2.53327-3.47487.10837-.10631a.64145.64145,0,0,1,.90182-.02365l-.01091.02136a.66952.66952,0,1,1-.99915.10866Zm.975,2.46679a.63284.63284,0,0,1,.11289.88767h0l-.00322.00412a.257.257,0,0,1-.10835.10631.65029.65029,0,0,1-.89127.056l-.0104-.03234A.64873.64873,0,0,1,19.448,14.425a.66239.66239,0,0,1,.90273-.13094Zm-2.69993,5.2226a.407.407,0,0,1,.13861.09787.706.706,0,0,1,.05557.94491.63064.63064,0,0,1-.89.0571h0l-.00133-.00109-.05317-.05417a.60625.60625,0,0,1-.06836-.85463h0l.00016,0,.04442-.04694a.6415.6415,0,0,1,.77393-.14279ZM19.45606,16.99a.64174.64174,0,0,1,.90179-.02365.68634.68634,0,0,1-.1055.94359.74974.74974,0,0,1-.81578.01379.66079.66079,0,0,1,.01945-.93361Zm3.36756-5.47392.11722.08695a.65047.65047,0,0,1,.056.89135l-.03223.01049-.011.02139a.65055.65055,0,0,1-.89109.056l-.01031-.03233a.68265.68265,0,0,1-.131-.90271.64359.64359,0,0,1,.90042-.13276l0,0h0ZM22.828,8.76877a.38618.38618,0,0,1,.15946.16246.66022.66022,0,0,1,.00337.78347.68083.68083,0,0,1-.94319.19348h0L22.034,9.89894a.69424.69424,0,0,1-.184-.9569.7039.7039,0,0,1,.9781-.17322Zm-.62917-2.72113.02137.011a.617.617,0,0,1,.8723.82383l-.05468.10681-.16236.15936a.61924.61924,0,0,1-.84262-.23855l0-.00006h0l-.003-.00554-.0213-.01079a.67674.67674,0,0,1,.19035-.84608ZM20.391,8.84252a.65878.65878,0,0,1,.067.86994l-.03281.06409a.6873.6873,0,0,1-.95539.02325.67022.67022,0,0,1-.03425-.93407.68729.68729,0,0,1,.9553-.02323Zm-.02694-2.84431c.03181.04314.05263.10782.09533.12969a.66082.66082,0,0,1-.01942.93354.75086.75086,0,0,1-1.02057.09767A.72338.72338,0,0,1,19.287,6.14478l.0134-.01707a.79639.79639,0,0,1,1.06363-.1295Zm-.77126-2.44347a.62764.62764,0,0,1,.887.03382h0l.0247.02831a.636.636,0,0,1,.00284.83715.62656.62656,0,0,1-.87042.12061l-.01043-.03237-.09584-.07618a.62761.62761,0,0,1,.03374-.88684ZM17.85171,6.114a.66488.66488,0,0,1-.00856.91216.63834.63834,0,0,1-.89076.00241.60625.60625,0,0,1-.05761-.85529h0l.0229-.02469.02189-.04276a.68765.68765,0,0,1,.912.00859Zm.067-2.55367a.68666.68666,0,0,1,.18573.79592c-.0219.0427-.05417.05314-.07615.09588a.639.639,0,0,1-.89663.112h0l-.01649-.01323-.09593-.07609a.64916.64916,0,0,1-.0028-.83712.64151.64151,0,0,1,.90213-.07714ZM15.37219,6.16587l-.00048.05378a.63207.63207,0,0,1-.20115.86734l-.03234.01042a.63625.63625,0,0,1-.83456-.26541l-.01042-.0323a.60664.60664,0,0,1,.18936-.79235l.01094-.0214a.67437.67437,0,0,1,.87864.18015ZM11.55734,8.98472a.73974.73974,0,0,1,.20628-.24484l.01079-.0213a.57845.57845,0,0,1,.80644.136h0l.00759.01106.02137.011.05316.05414a.70518.70518,0,0,1-.21229.88874.6207.6207,0,0,1-.85132-.21391l0,0h0l-.00506-.00857A.57768.57768,0,0,1,11.557,8.985Zm-1.643,3.5262a.59274.59274,0,0,1-.83713.00289.60663.60663,0,0,1-.02391-.8482l.04315-.03174a.59274.59274,0,0,1,.79438-.02475.64152.64152,0,0,1,.02342.9019Zm2.46582-.86762a.65976.65976,0,0,1,.00239.8908l-.01094.02139a.65733.65733,0,0,1-.87989-.019L11.46,12.49321a.64908.64908,0,0,1-.00283-.83715.71335.71335,0,0,1,.92281-.0126Zm2.87768-8.15089.021.01116.11722.087a.61612.61612,0,0,1,.044.87018h0l-.00928.01024L15.409,4.5137a.62658.62658,0,0,1-.88036.03467l-.02144-.01085a.69052.69052,0,0,1-.14135-.935.64518.64518,0,0,1,.89186-.10982Zm-2.57965,2.7231a.64911.64911,0,0,1-.20134.86743l-.02133-.01079a.65209.65209,0,0,1-.86691-.25494l-.01042-.03231a.60569.60569,0,0,1,.22211-.80283.63244.63244,0,0,1,.86785.21634h0ZM10.061,9.4858c-.02184.04272-.065.0746-.087.11722l-.065.07457a.61.61,0,0,1-.86194.03091h0L9.01832,9.68a.62686.62686,0,0,1-.03467-.88036A.63921.63921,0,0,1,9.887,8.76784l.01965.01906a.60787.60787,0,0,1,.15413.69921Zm1.84838-5.98188a.59561.59561,0,0,1,.82522.12581l.0422.07548a.67813.67813,0,0,1-.24449.89913.61909.61909,0,0,1-.84244-.23828h0l-.00312-.00549a.60522.60522,0,0,1,.18647-.83526ZM9.9753,6.01846a.65662.65662,0,0,1,.01272.923.62046.62046,0,0,1-.763.12169.41059.41059,0,0,1-.13871-.09782.61644.61644,0,0,1-.0438-.87067l0,0h0l.00911-.00967.0219-.04282a.65254.65254,0,0,1,.90177-.02338ZM9.9125,3.56017l.0959.07609a.64627.64627,0,1,1-1.0091.02264.657.657,0,0,1,.913-.09861Zm-3.73341,3.292a.66465.66465,0,0,1,.16945-.91064l.03231-.01039.02139.01091a.60707.60707,0,0,1,.84507.15133h0l.01182.01764.01044.03231a.59592.59592,0,0,1-.04982.72921.21756.21756,0,0,1-.14059.11674.62572.62572,0,0,1-.87833-.10764l0,0h0Zm.99319,2.79974A.658.658,0,0,1,6.24967,9.611a.69268.69268,0,0,1-.02417-.84809.6788.6788,0,0,1,.923-.01275.6414.6414,0,0,1,.143.774c-.02186.04275-.065.07459-.087.11722ZM6.43607,12.6178a.66291.66291,0,0,1-.18133-.11979.60982.60982,0,0,1-.04548-.859L6.22,11.61765a.63924.63924,0,0,1,.90335-.03182h0l.01966.01909a.6491.6491,0,0,1,.11057.78439c-.02186.04272-.065.07456-.087.11719a.64176.64176,0,0,1-.73087.11158Zm-.19726,2.7028a.71255.71255,0,0,1-.109-.94546.67942.67942,0,0,1,.92359-.06647l.07458.06493a.60777.60777,0,0,1,.01381.81577.66232.66232,0,0,1-.90289.13126ZM6.2037,17.91744A.63992.63992,0,0,1,6.018,17.1215l.044-.0855.04325-.03184a.60934.60934,0,0,1,.851-.13532l.01954.01469.1386.09784a.644.644,0,0,1,.00345.78363.65337.65337,0,0,1-.911.15434l-.00284-.002Zm2.88954-2.53779a.852.852,0,0,1-.19177-.152.61554.61554,0,0,1-.11169-.67719c.02189-.04273.065-.07458.087-.1172l.087-.11719a.64337.64337,0,0,1,.90793.058h0l.00352.00411a.62761.62761,0,0,1-.03385.88692l-.02843.02487a.642.642,0,0,1-.71981.0898ZM8.98463,17.8041a.58509.58509,0,0,1-.068-.82459l.01138-.013.03276-.06407a.65756.65756,0,0,1,.8815-.142l.03174.04321a.62074.62074,0,0,1,.128.86843h0l-.01845.02327c-.02185.04278-.05416.0532-.09729.08492l.01032.03225a.665.665,0,0,1-.91208-.00829Zm.87653,2.65908a.592.592,0,0,1-.83682-.02251h0l-.04241-.0501-.02148-.01107a.64417.64417,0,0,1,.08356-.90073.62917.62917,0,0,1,.88587.08312l.02522.03258a.64407.64407,0,0,1,.0034.78349.18378.18378,0,0,1-.09759.08513Zm1.625-2.75365a.66526.66526,0,0,1-.02624-.63346.59985.59985,0,0,1,.23849-.25533.63451.63451,0,0,1,.87651.19207l0,.00019h0l.01228.01991.02137.011a.67814.67814,0,0,1-.2445.89911.64891.64891,0,0,1-.87845-.23324ZM11.37,19.7796l.04366-.08565a.20773.20773,0,0,1,.12968-.09536.59142.59142,0,0,1,.83564.03577l.00007.00007.02239.02584.0427.02189a.67537.67537,0,0,1-.08355.90077.66188.66188,0,0,1-.933-.07315h0a.643.643,0,0,1-.05778-.73015Zm2.318,4.58281c-.21665.21264-.45465.41432-.66033.60556-.24849.16939-.43241.31784-.66984.46587-.21613.159-.35724.32929-.54858.12363-.393-.44366-.72074-.9618-1.06008-1.405a1.43022,1.43022,0,0,1-.29557-.52858.46944.46944,0,0,1,.21961-.53429.965.965,0,0,1,.52556.02661l1.551.55119c.28864.12078.53443.21957.82316.34037.09591.07615.22406.14166.19074.25936Zm3.15171-6.474a.6414.6414,0,1,1,.923-.01272.63026.63026,0,0,1-.89.045Zm-.09213,9.819a14.62035,14.62035,0,0,1-1.5752,2.02435.38285.38285,0,0,1-.21664.21258l-.20419.03032a.4752.4752,0,0,1-.34078-.28228l-1.05907-1.51232-.50867-.69177a.73677.73677,0,0,1-.04966-.42973c.2077-.40588.71906-1.1416.90443-1.451a9.562,9.562,0,0,0,.78358-1.16253.56453.56453,0,0,1,.41039-.2752.55093.55093,0,0,1,.40639.15408c.074.11873.15836.26985.2111.37761.3899.76563.7912,1.45627,1.2035,2.12553a.84707.84707,0,0,1,.20958.53856,1.02711,1.02711,0,0,1-.17507.34212Zm2.104-3.47908c-.35834.43667-.68518.97028-1.0753,1.36358-.22755.234-.38665.01784-.58931-.11282s-.42621-.326-.618-.47806c-.2234-.19507-.45749-.42285-.65965-.60718l-.09541-.12966a.27307.27307,0,0,1,.1952-.22345,8.01815,8.01815,0,0,1,.84019-.32483l1.55007-.50057a.7194.7194,0,0,1,.53714-.04859.48453.48453,0,0,1,.20956.53862,1.68226,1.68226,0,0,1-.29484.52331Zm3.05478-6.44294a.6751.6751,0,0,1-.01381-.81574c.04325-.03184.05416-.0532.09732-.08493a.63982.63982,0,0,1,.8903.0513l.03183.04322a.66615.66615,0,0,1-.08361.90078.65125.65125,0,0,1-.91666-.0878h0Z"/></g><g class="cls-1"><path class="cls-2" d="M29.168,40.72027V42.7524c0,1.11767-.71125,1.11767-1.5241,1.11767s-1.32088-.20322-1.32088-1.11767V40.72027H21.446c-.81285,0-1.21928-1.01607-1.21928-1.72731a1.63888,1.63888,0,0,1,.30482-.91446l5.58836-7.21406a1.03611,1.03611,0,0,1,.81285-.508h1.11767a.96.96,0,0,1,1.01606,1.01607v6.60441c1.42249,0,1.42249.40643,1.42249,1.6257C30.59053,40.61866,29.98089,40.72027,29.168,40.72027Zm-2.845-6.09639-2.74338,3.65783a24.76187,24.76187,0,0,1,2.74338-.1016Z"/></g></svg>