<svg id="Capa_1" data-name="Capa 1" xmlns="http://www.w3.org/2000/svg" viewBox="0 0 35.46648 35.63682"><defs><style>.cls-1,.cls-2,.cls-4,.cls-5,.cls-6,.cls-7{fill:none;stroke:#050b3d;}.cls-1,.cls-2,.cls-4,.cls-6,.cls-7{stroke-miterlimit:10;}.cls-1{stroke-width:2px;}.cls-2,.cls-5,.cls-6{stroke-linecap:round;}.cls-2,.cls-6{stroke-width:0.5px;}.cls-2{stroke-dasharray:3.1 3.1;}.cls-3{fill:#050b3d;}.cls-5{stroke-linejoin:round;}.cls-7{stroke-width:0.25px;}</style></defs><g id="Iconos"><line class="cls-1" x1="1" x2="1" y2="35.59977"/></g><path class="cls-2" d="M4.93635,20.74715C7.4656,26.30234,11.21916,33.76,11.96584,35.26843"/><path class="cls-3" d="M5.64743,19.39166,3.1832,17.56475c-.09535-.03011-.22083.03513-.12547.06525l.20573,3.00127c-.03012.09536.06524.12548.19071.06023l2.28862-1.26973C5.68256,19.61249,5.71267,19.51713,5.64743,19.39166Z"/><path class="cls-2" d="M8.96321,9.6951c-1.34314,1.45841-4.17847,4.39732-6.22294,7.03529"/><path class="cls-3" d="M10.60916,9.9593,11.60241,7.057c-.00023-.1-.10046-.19977-.10023-.09977L8.70475,8.06373c-.1.00023-.09977.10023.00046.2L10.6094,10.0593C10.4094,10.05976,10.5094,10.05953,10.60916,9.9593Z"/><circle class="cls-4" cx="21.10097" cy="12.09291" r="2.1058"/><path class="cls-5" d="M17.21842,20.05546a1.76276,1.76276,0,0,1-2.17161-.65806l-2.369-3.35613a1.27,1.27,0,0,1,.31629-1.768l.01275-.00877h0a1.20378,1.20378,0,0,1,1.67893.28176q.01657.02325.032.04727l2.17161,2.96129,4.34322-1.77677a10.508,10.508,0,0,0,3.22451-2.1058l1.51354-1.44774a.71083.71083,0,0,0,.19742-.46065l.13161-1.77677A1.3093,1.3093,0,0,1,27.71258,8.7903q.05055.00418.10066.01228h0a1.27867,1.27867,0,0,1,1.12256,1.41768l-.00386.03006-.19741,1.97419a3.25222,3.25222,0,0,1-.92129,1.97419l-2.04,1.97419a.50263.50263,0,0,0-.13161.329l.329,7.831,1.51355,4.34322a3.52718,3.52718,0,0,1,.13161,1.84258L26.892,34.138a1.31159,1.31159,0,0,1-1.44774.9871H25.3126a1.28916,1.28916,0,0,1-.9871-1.51355l.92129-4.01418L23.2726,24.72771,20.31132,34.0064a1.29134,1.29134,0,0,1-1.38194.85548h0a1.26108,1.26108,0,0,1-1.01279-1.468q.01032-.05624.0257-.11137L21.03518,23.28l-.19741-4.47483Z"/><path class="cls-6" d="M35.21648,8.90528S30.27253,4.3358,18.90678,3.09945"/><path class="cls-6" d="M34.6796,7.21844a33.42064,33.42064,0,0,0-7.07078-3.5163"/><path class="cls-6" d="M32.17224,8.18109a31.71491,31.71491,0,0,0-10.13272-3.6027"/><path class="cls-7" d="M15.22876,3.54164a1.11677,1.11677,0,0,1,1.57935-1.57935"/><path class="cls-7" d="M16.80811,1.96229a1.11677,1.11677,0,0,1-1.57935,1.57935"/><path class="cls-7" d="M14.96553,2.55454l.92129-.59225c.52645-.19742,1.31613.85548.65806,1.38193l-.92128.46064"/><g id="Iconos-2"><path class="cls-3" d="M14.07821,15.945l.21923-.71646.20363-.6521.42274-1.36858a.30311.30311,0,0,1,.11526-.14947c.14783-.09352.29564-.18706.43538-.28855a12.09214,12.09214,0,0,0,2.13835-1.75154,4.4047,4.4047,0,0,0,1.38239-2.90206A.8144.8144,0,0,0,18.97,7.97989a1.26209,1.26209,0,0,0-.11169-.41269,1.85225,1.85225,0,0,0-.25619-.40355,2.675,2.675,0,0,0-.336-.33864,2.75634,2.75634,0,0,0-.42411-.31381,3.53613,3.53613,0,0,0-.41947-.23762.8625.8625,0,0,0-.14917-.0751c-.1209-.05526-.24574-.10646-.3706-.14965a1.37167,1.37167,0,0,0-.19326-.07074c-.10464-.0313-.20927-.06259-.31387-.08587a.69391.69391,0,0,0-.1247-.02713,2.1729,2.1729,0,0,0-.2815-.054,3.70773,3.70773,0,0,0-.55858-.05583,1.92306,1.92306,0,0,0-1.86448.84194.9706.9706,0,0,0-.08308.15727,3.01725,3.01725,0,0,0-.23734.45161,1.88342,1.88342,0,0,0-.09439.2497,2.0705,2.0705,0,0,0-.12132.39849l-.0547.19317c-.01908.12463-.03824.24124-.05732.36589a1.07669,1.07669,0,0,0-.00672.16067l-.00395.004c-.01081.15668-.01762.30933-.01641.4619a4.3634,4.3634,0,0,0,.02815.51374c.01733.16048.04264.31286.076.47321a9.32028,9.32028,0,0,0,.748,2.17836c.09391.196.1918.388.29766.57186a.16714.16714,0,0,1,.00915.1445l-.39184,1.22373-.294.90579-.19586.61989a.07277.07277,0,0,0,.0408.08l.004-.00405.75687.251a.08206.08206,0,0,0,.106-.0472h0Zm3.42042-6.16255a.14631.14631,0,0,1-.0588.18116l-.024.01626a.14261.14261,0,0,1-.19082-.06536l0,0h0l-.00248-.00532-.00805-.008a.15722.15722,0,0,1,.07872-.20137.16158.16158,0,0,1,.20548.08266ZM16.48015,10.971a.15456.15456,0,0,1-.21651-.02969h0l-.00059-.00076c-.00413-.012-.01627-.02394-.01638-.04a.13914.13914,0,0,1,.05883-.17313.14411.14411,0,0,1,.20163.02971h0v0l.00337.00476a.14807.14807,0,0,1-.02834.20745h0ZM14.96648,8.96326l.008-.00006a.14558.14558,0,0,1,.17744.09494l.00007.008.00006.008a.14232.14232,0,0,1-.0915.17928h0l-.00746.00221-.004.004-.00806,0a.153.153,0,0,1-.07459-.29653Zm.99546-1.05991a.16063.16063,0,0,1,.18557.111.14505.14505,0,0,1-.039.14485.17507.17507,0,0,1-.06393.04066l-.008,0a.15014.15014,0,0,1-.18423-.10557L15.851,8.08892l-.00405-.004a.15359.15359,0,0,1,.115-.18156Zm-.20771.6401a.16056.16056,0,0,1,.18557.111.16244.16244,0,0,1-.10691.18957.15016.15016,0,0,1-.18425-.10555v0L15.64729,8.733a.15683.15683,0,0,1,.10691-.18952Zm.68483-.22628a.154.154,0,0,1,.05058-.20518l.012-.00412a.1518.1518,0,0,1,.20525.05863.147.147,0,0,1-.04911.202l-.01347.00727a.15184.15184,0,0,1-.20525-.05857Zm-.14917.43484a.14554.14554,0,0,1,.19575.06358v0h0l.00157.00308.0041.012a.154.154,0,0,1-.28165.12459h0l-.00156-.00357-.00025-.00055-.00071-.00171a.16009.16009,0,0,1,.05873-.18919.043.043,0,0,1,.024-.00823Zm-.75158.41551a.15849.15849,0,0,1,.19746.09081.09947.09947,0,0,1,.0043.03612.15367.15367,0,0,1-.13066.17362l-.00047.00006a.157.157,0,0,1-.16143-.10312.15341.15341,0,0,1,.09028-.19727h0Zm-.16413.57148a.149.149,0,0,1,.18367.10332l.00193.00767a.15085.15085,0,0,1-.0431.13287.13588.13588,0,0,1-.076.03675.15185.15185,0,0,1-.17358-.11507.14449.14449,0,0,1,.10711-.16547Zm-.22.61208a.15753.15753,0,0,1,.19742.08276.15044.15044,0,0,1-.081.19671l-.00171.0007a.14711.14711,0,0,1-.16484-.0268.16679.16679,0,0,1-.02846-.04394l-.00412-.012a.1643.1643,0,0,1,.05077-.18109Zm.88114-.79a.15543.15543,0,0,1,.05462-.20121l.008-.00809a.16606.16606,0,0,1,.20926.06258.1465.1465,0,0,1-.058.1989l0,0-.00456.00239-.004.004a.15185.15185,0,0,1-.20531-.0586Zm.81836-.60477.032-.01631a.15179.15179,0,0,1,.20527.05862l-.004.00405a.15843.15843,0,1,1-.23327-.04634Zm.04513.626a.14975.14975,0,0,1-.03748.20841h0l-.001.00069a.06084.06084,0,0,1-.032.01632.1539.1539,0,0,1-.20519-.05058l-.00006-.008a.1535.1535,0,0,1,.06264-.20126.15673.15673,0,0,1,.21308.03447Zm-.98.9875a.09625.09625,0,0,1,.02435.03192.16707.16707,0,0,1-.05448.21726.14924.14924,0,0,1-.205-.05024h0l-.00022-.00034-.00816-.016a.14346.14346,0,0,1,.04519-.19778h0l.01338-.00744a.15179.15179,0,0,1,.18484.02265Zm.58676-.44232a.15184.15184,0,0,1,.20525.05862.1624.1624,0,0,1-.09074.20553A.17741.17741,0,0,1,16.435,10.337a.15637.15637,0,0,1,.07061-.20938Zm1.14849-.99688.0203.028a.15393.15393,0,0,1-.05059.20519l-.008.00009-.004.004a.15394.15394,0,0,1-.20514-.05056l0-.008a.16153.16153,0,0,1,.03445-.21308.15229.15229,0,0,1,.21269.03391h0ZM17.85,8.51079a.09137.09137,0,0,1,.02447.048.15623.15623,0,0,1-.05481.17711.16112.16112,0,0,1-.22666-.0232v0h0l-.00242-.003a.16427.16427,0,0,1,.02632-.22907.16656.16656,0,0,1,.23309.03027Zm.051-.65892.004.004a.146.146,0,0,1,.13848.24785l-.01991.02023-.048.02446a.14652.14652,0,0,1-.17328-.11363h0L17.802,8.0333,17.798,8.02935a.16013.16013,0,0,1,.103-.1775Zm-.60635.50271a.15588.15588,0,0,1-.04659.20114l-.012.01214a.16262.16262,0,0,1-.21732-.06252.15858.15858,0,0,1,.05852-.21329.16263.16263,0,0,1,.2173.06251Zm.19567-.644c.00412.012.00423.02807.01232.036a.15636.15636,0,0,1-.0706.20936.17768.17768,0,0,1-.23733-.05033.17119.17119,0,0,1,.042-.23839l.00424-.0029a.18844.18844,0,0,1,.24929.04621Zm-.00079-.60632a.14852.14852,0,0,1,.19783.07055h0l.00357.00814a.15051.15051,0,0,1-.05874.18919.14827.14827,0,0,1-.20506-.03451l-.00005-.008-.01626-.024a.14851.14851,0,0,1,.07052-.19781Zm-.57458.45424a.15734.15734,0,0,1-.06664.20532.15105.15105,0,0,1-.20126-.06265.14346.14346,0,0,1,.04766-.19716h0l.00692-.00395.008-.0081a.16271.16271,0,0,1,.20527.06665Zm.19626-.57174a.16249.16249,0,0,1-.01453.19285c-.008.00809-.016.00816-.024.01625a.15119.15119,0,0,1-.21036-.03833h0l-.00279-.00416-.01625-.024A.1536.1536,0,0,1,16.902,6.9402a.15181.15181,0,0,1,.20913.04657Zm-.75969.40757-.00394.0121a.14958.14958,0,0,1-.10694.18154l-.008.00006a.15055.15055,0,0,1-.16958-.11911l-.00007-.008a.14354.14354,0,0,1,.099-.16543l.004-.00406a.15959.15959,0,0,1,.18558.103Zm-1.06118.36579a.175.175,0,0,1,.06394-.04065l.00394-.004a.13689.13689,0,0,1,.17242.08789h0l.00092.003.004.004.00816.016a.16686.16686,0,0,1-.111.18558.14688.14688,0,0,1-.177-.10869v0h0l-.00053-.00231a.13671.13671,0,0,1,.035-.14078Zm-.621.67949a.14026.14026,0,0,1-.18919-.05872.14355.14355,0,0,1,.05475-.19318l.012-.00411a.14027.14027,0,0,1,.18109.05076.15181.15181,0,0,1-.05868.20527Zm.6182-.021a.15612.15612,0,0,1-.06265.20127l-.004.004a.15553.15553,0,0,1-.19728-.0667l-.0041-.012a.15359.15359,0,0,1,.05874-.18919.1688.1688,0,0,1,.20922.06261ZM16.51526,6.7827l.00395.004.02029.02795a.14579.14579,0,0,1-.05178.19956l0,0h0l-.00285.00165-.008.00811a.14828.14828,0,0,1-.2012-.05462l-.004-.004a.1634.1634,0,0,1,.03441-.2211.15267.15267,0,0,1,.20913.03847Zm-.77551.43178a.1536.1536,0,0,1-.107.18154l-.00405-.00395a.1543.1543,0,0,1-.17762-.119L15.451,7.265a.14333.14333,0,0,1,.10709-.16548.14965.14965,0,0,1,.18057.1104h0Zm-.82278.55261c-.008.00809-.02.01223-.02795.02029l-.02.01222a.14434.14434,0,0,1-.1968-.05415h0L14.66777,7.737a.14832.14832,0,0,1,.05462-.20119.15125.15125,0,0,1,.20618.05689l.00309.0057a.14384.14384,0,0,1-.0148.16878Zm.84156-1.2193a.14094.14094,0,0,1,.17737.08693l.00417.02a.16045.16045,0,0,1-.119.18563.14648.14648,0,0,1-.17327-.11356v0h0l-.00032-.00146A.14323.14323,0,0,1,15.74885,6.55Zm-.615.43047a.15539.15539,0,0,1-.0626.20926.14684.14684,0,0,1-.18089-.02665.09723.09723,0,0,1-.02435-.03192.14588.14588,0,0,1,.05188-.19966h0l.00274-.00153.008-.00812a.15441.15441,0,0,1,.20523.05866Zm.16016-.55942.01625.024a.15293.15293,0,1,1-.22941-.06646.15546.15546,0,0,1,.21311.0425Zm-1.07632.47836a.15728.15728,0,0,1,.10286-.19356l.008-.00006.00406.004a.14364.14364,0,0,1,.18.0941h0l.00143.00483.00006.008a.141.141,0,0,1-.063.16109.05147.05147,0,0,1-.04.01638.14807.14807,0,0,1-.19065-.0866v0h0Zm.02567.70249a.1557.1557,0,0,1-.20538-.07467.1639.1639,0,0,1,.0547-.19317.16063.16063,0,0,1,.20926.06258.15179.15179,0,0,1-.02262.18486c-.008.0081-.02.01223-.02794.0203Zm-.37657.61733a.15705.15705,0,0,1-.03245-.0399A.14431.14431,0,0,1,13.89471,7.98l.00395-.00406a.15126.15126,0,0,1,.20619.05689h0l.00308.0057a.1536.1536,0,0,1-.03068.18492c-.008.00809-.02.01223-.02794.02029a.15184.15184,0,0,1-.17291-.02665Zm-.23625.59616A.16861.16861,0,0,1,13.6827,8.592a.16077.16077,0,0,1,.21321.0505l.01223.02a.14382.14382,0,0,1-.05475.18514.15673.15673,0,0,1-.21314-.03441Zm-.19212.58375a.15143.15143,0,0,1,.01453-.19286l.016-.01618.012-.00412a.14419.14419,0,0,1,.20171.02982l.00337.0047.02435.03192a.15237.15237,0,0,1-.05481.17711.1546.1546,0,0,1-.2166-.02977l-.0005-.00065Zm.83231-.368a.20214.20214,0,0,1-.03251-.04792.14568.14568,0,0,1,.02282-.1608c.008-.0081.02-.01222.028-.02029l.02795-.02029a.15225.15225,0,0,1,.20087.07751h0l.00051.00118a.14852.14852,0,0,1-.07055.19782l-.00818.0036a.15192.15192,0,0,1-.16891-.03077Zm-.19649.53961a.13844.13844,0,0,1,.04314-.191l.00349-.00213.01194-.01215a.15561.15561,0,0,1,.20907.03047l.00411.012a.14689.14689,0,0,1-.03272.20512h0l-.00581.00395c-.008.00811-.016.00817-.028.01226l0,.008a.15736.15736,0,0,1-.20532-.06657Zm.00927.66246a.14008.14008,0,0,1-.18732-.06443h0l-.006-.01432-.004-.004a.15244.15244,0,0,1,.08275-.19742.14888.14888,0,0,1,.19409.0816l.00338.00915a.1524.1524,0,0,1-.05481.17711.04349.04349,0,0,1-.02806.0123Zm.56215-.50637a.15743.15743,0,0,1,.039-.14487.14189.14189,0,0,1,.072-.04072.15013.15013,0,0,1,.18424.10553l0,0h0l.00135.00537.004.004a.16048.16048,0,0,1-.119.18564.15356.15356,0,0,1-.18175-.115Zm-.173.45912.01593-.01624a.04919.04919,0,0,1,.036-.01233.14.14,0,0,1,.18609.06737l.00322.00742.00809.008a.15982.15982,0,0,1-.08275.19742.15662.15662,0,0,1-.20543-.08269h0a.15214.15214,0,0,1,.03876-.16892Zm.19823,1.199c-.064.03263-.132.06128-.192.08986-.06811.02061-.12016.04108-.18425.05766-.06007.02055-.104.049-.13262-.011-.05725-.128-.09448-.26825-.13965-.39237a.33842.33842,0,0,1-.02924-.14029.11109.11109,0,0,1,.08748-.10507.22838.22838,0,0,1,.11675.04328l.311.23444c.05659.04775.10507.08748.16169.13524.01624.024.04053.04786.02465.07208Zm1.17069-1.238a.15177.15177,0,1,1,.20926.0626.14914.14914,0,0,1-.20411-.053ZM15.134,12.3549a3.46033,3.46033,0,0,1-.49919.34526.09054.09054,0,0,1-.064.03262l-.04825-.00764a.11246.11246,0,0,1-.05691-.08789l-.13179-.41655-.06576-.19225a.17433.17433,0,0,1,.01927-.10053c.07568-.07689.2433-.20671.3071-.26342a2.2625,2.2625,0,0,0,.25936-.20687.13359.13359,0,0,1,.11217-.033.13035.13035,0,0,1,.08082.06361c.00829.032.0166.07215.02086.10021.03371.2005.07532.38488.12093.56521a.20045.20045,0,0,1,.00911.13645.24307.24307,0,0,1-.06379.06481Zm.72174-.63616c-.11187.07316-.22351.17044-.33947.23157-.068.03667-.08855-.02341-.125-.06728s-.0731-.10381-.1056-.15175c-.0366-.05988-.07329-.12791-.10585-.18387l-.01234-.036a.06464.06464,0,0,1,.05992-.03661A1.89768,1.89768,0,0,1,15.44,11.461l.38545-.003a.17013.17013,0,0,1,.1247.02713.11467.11467,0,0,1,.00911.13646.3983.3983,0,0,1-.10368.09722Zm1.14662-1.23782a.15974.15974,0,0,1,.05474-.18513c.012-.00412.016-.00817.028-.01226a.15139.15139,0,0,1,.19734.07473l.00412.012a.15762.15762,0,0,1-.08276.19741.1541.1541,0,0,1-.20071-.08483h0Z"/></g></svg>