<svg id="Capa_1" data-name="Capa 1" xmlns="http://www.w3.org/2000/svg" viewBox="0 0 52.50759 43.2"><defs><style>.cls-1,.cls-2,.cls-3,.cls-4,.cls-5,.cls-6{fill:none;}.cls-1,.cls-3,.cls-4,.cls-5,.cls-6{stroke:#050b3d;}.cls-1{stroke-linecap:square;stroke-width:2px;}.cls-1,.cls-2,.cls-3,.cls-5,.cls-6{stroke-miterlimit:10;}.cls-2{stroke:#00e9c5;}.cls-2,.cls-3,.cls-4,.cls-5{stroke-linecap:round;}.cls-2,.cls-3,.cls-5{stroke-width:0.5px;}.cls-2,.cls-5{stroke-dasharray:3.1 3.1;}.cls-3{stroke-dasharray:3 3;}.cls-4{stroke-linejoin:round;}.cls-6{stroke-width:0.25px;}.cls-7{fill:#050b3d;}</style></defs><g id="Iconos"><line class="cls-1" x1="1" y1="1" x2="1" y2="42.2"/><path class="cls-2" d="M21.2,1"/><path class="cls-3" d="M4,21.9"/></g><circle class="cls-4" cx="35.5" cy="8.8" r="3.5"/><path class="cls-4" d="M44,19.1l-.8,1a1.95477,1.95477,0,0,0,.7,2.9h0a1.9085,1.9085,0,0,0,2.4-.6L48.9,19a2.13783,2.13783,0,0,0-.9-3.3L43.8,14c-.1,0-1.3-.4-1.4-.4-4.4-1.1-7.3.9-9.1,4.1L30.5,22,26,24.9a2.2651,2.2651,0,0,0-.9,3h0A2.36737,2.36737,0,0,0,28.3,29l4.5-2.7a5.35633,5.35633,0,0,0,1.5-1.5L36.8,21l1.8,5.6-4.5,3a4.60783,4.60783,0,0,0-2,3.1l-1,6.8c-.2,1.6.3,2.9,2.2,3.1h0a2.47853,2.47853,0,0,0,2.6-2.4l.7-6.6,5.7-3.8a1.92946,1.92946,0,0,1,1-.3h0a1.59592,1.59592,0,0,1,1.4.8l1.9,2.8c.2.5.4,4.4.6,7.3a2.34785,2.34785,0,0,0,2.7,2.2H50a2.39094,2.39094,0,0,0,2-2.5l-.4-6.5a7.08519,7.08519,0,0,0-.9-2.8l-3.1-5.1-.5-4"/><path class="cls-5" d="M32.7,3.2"/><path class="cls-5" d="M.1,12.8"/><path class="cls-3" d="M2,26.8a15.23012,15.23012,0,0,1,10.2,4.5"/><path class="cls-6" d="M13.9,33.2a1.7,1.7,0,1,1,3.4,0"/><path class="cls-6" d="M17.3,33.2a1.7,1.7,0,1,1-3.4,0"/><path class="cls-6" d="M14.7,31.8l1.6.4a1.252,1.252,0,0,1-.8,2.2l-1.4-.5"/><path class="cls-5" d="M5.6,22.9c3.5-5.3,11.3-10.1,23.6-10.1"/><path class="cls-7" d="M3.9,22.8l-1,2.9c0,.1.1.2.1.1l2.8-1.1c.1,0,.1-.1,0-.2L3.9,22.7C4.1,22.7,4,22.7,3.9,22.8Z"/><path class="cls-7" d="M10.2,31.4l2.9.8c.1,0,.2-.1.1-.1L12,29.3c0-.1-.1-.1-.2,0l-1.7,1.9A.30971.30971,0,0,0,10.2,31.4Z"/><g id="Iconos-2"><path class="cls-7" d="M27.7844,26.42332l-1.12234-.19151-1.02231-.18054-2.14465-.372a.46085.46085,0,0,1-.24763-.14475c-.16961-.20468-.33922-.40936-.51926-.6003a18.37472,18.37472,0,0,0-3.05437-2.88349,6.69339,6.69339,0,0,0-4.6418-1.52114,1.23677,1.23677,0,0,0-.20059.06436,1.91772,1.91772,0,0,0-.60037.24831,2.81436,2.81436,0,0,0-.55855.46429,4.06372,4.06372,0,0,0-.4453.572,4.18886,4.18886,0,0,0-.39085.7,5.37531,5.37531,0,0,0-.27682.67828,1.309,1.309,0,0,0-.08429.23938c-.05986.19293-.11281.391-.15373.58757a2.0829,2.0829,0,0,0-.06917.305c-.02689.16379-.05377.32758-.06857.48972a1.05413,1.05413,0,0,0-.01671.19319,3.303,3.303,0,0,0-.02681.43474,5.63363,5.63363,0,0,0,.02413.8527,2.92233,2.92233,0,0,0,1.63029,2.647,1.47549,1.47549,0,0,0,.25312.09474,4.58372,4.58372,0,0,0,.72664.27021,2.86507,2.86507,0,0,0,.39464.09388,3.14631,3.14631,0,0,0,.62411.10562l.30174.045c.19154.00462.371.01089.56252.01551a1.63452,1.63452,0,0,0,.24347-.021l.00687.00522c.23825-.01408.46963-.03338.69935-.06477a6.63193,6.63193,0,0,0,.76886-.142c.23851-.05722.46328-.12489.69849-.20629a14.16351,14.16351,0,0,0,3.13835-1.54963c.27723-.17952.54758-.36426.8042-.55944a.254.254,0,0,1,.216-.04182l1.9204.35342,1.42217.26755.9723.17506a.11056.11056,0,0,0,.11264-.077l-.00687-.00522.23161-1.1894a.12468.12468,0,0,0-.09169-.15061h0Zm-9.95107-3.961a.22235.22235,0,0,1,.28444.05351l.02913.033a.21675.21675,0,0,1-.0616.30028h0l-.00755.00477-.01044.01374a.2389.2389,0,0,1-.31879-.07961A.24554.24554,0,0,1,17.83333,22.46228Zm1.98882,1.30477a.23485.23485,0,0,1-.0028.33212h0l-.001.00094c-.01727.00855-.03293.02917-.05715.03244a.21141.21141,0,0,1-.27234-.05516.219.219,0,0,1,.00576-.30972h0l.00652-.006a.225.225,0,0,1,.31816.00251h0Zm-2.73273,2.67043-.00165-.01209a.22122.22122,0,0,1,.10874-.28582l.01209-.00165.0121-.00166a.21629.21629,0,0,1,.28795.10318h0l.00474.01079.00687.00522.00165.01209a.23246.23246,0,0,1-.43249.16994ZM15.299,25.14255a.24407.24407,0,0,1,.13127-.30121.22047.22047,0,0,1,.22589.03071.266.266,0,0,1,.07368.08847l.00165.01209a.22817.22817,0,0,1-.12342.29813l-.00786.00309-.00522.00687A.23341.23341,0,0,1,15.299,25.14255Zm1.005.18907a.244.244,0,0,1,.13127-.30122.24686.24686,0,0,1,.30644.1244.22818.22818,0,0,1-.12343.29814l-.00785.00308A.23831.23831,0,0,1,16.304,25.33162Zm-.47375-.98833a.234.234,0,0,1-.31906-.03647l-.00852-.01731a.23069.23069,0,0,1,.04855-.3207.22341.22341,0,0,1,.314.03487l.01357.0189A.23075.23075,0,0,1,15.83027,24.34329Zm.68429.14051a.22116.22116,0,0,1,.05791-.30735h0l.00438-.00292.01732-.00852a.234.234,0,1,1,.23722.40338l-.00079.00046-.00244.00139a.24325.24325,0,0,1-.29653-.05185A.06534.06534,0,0,1,16.51456,24.4838Zm.77192,1.05228a.24085.24085,0,0,1,.09857-.31522.15105.15105,0,0,1,.05359-.01348.2335.2335,0,0,1,.287.16329l.00019.00069a.23865.23865,0,0,1-.12414.26329.23312.23312,0,0,1-.31483-.09783h0Zm.89314.13661a.22645.22645,0,0,1,.12011-.29684l.01117-.00438a.22926.22926,0,0,1,.20858.03924.20653.20653,0,0,1,.07011.10743.23072.23072,0,0,1-.1398.28391A.21955.21955,0,0,1,18.17962,25.67269Zm.96516.213a.23938.23938,0,0,1,.08648-.31357.22861.22861,0,0,1,.31218.084l.00139.00245a.22355.22355,0,0,1-.00845.25364.25372.25372,0,0,1-.06071.05141l-.01732.00852a.24966.24966,0,0,1-.28278-.04142Zm-1.3614-1.175a.23617.23617,0,0,1-.31384-.04334l-.01374-.01043a.25237.25237,0,0,1,.05377-.32758.22263.22263,0,0,1,.311.049l.00449.0064.00687.00522A.23076.23076,0,0,1,17.78338,24.71072Zm-1.07011-1.11623-.03079-.04506a.23065.23065,0,0,1,.04856-.32071l.00687.00522a.24075.24075,0,1,1-.02464.36055Zm.93483-.18932a.22754.22754,0,0,1,.32137.01611h0l.00125.00139a.09236.09236,0,0,1,.03079.04506.23385.23385,0,0,1-.03647.31906l-.01209.00165a.23327.23327,0,0,1-.31548-.05542A.23816.23816,0,0,1,17.6481,23.40517Zm1.67828,1.28562a.14653.14653,0,0,1,.04341-.04288.25389.25389,0,0,1,.338.04.22677.22677,0,0,1-.036.31868l-.00047.00037-.02253.0154a.218.218,0,0,1-.30691-.02984l-.0138-.01872A.23065.23065,0,0,1,19.32638,24.69079Zm-.78038-.79864a.23075.23075,0,0,1,.04856-.3207.24678.24678,0,0,1,.32735.09695.26957.26957,0,0,1-.04664.28965A.23761.23761,0,0,1,18.546,23.89215Zm-1.72507-1.53787.03819-.036a.23391.23391,0,0,1,.31906.03647l.00165.01209.00687.00522a.23394.23394,0,0,1-.03646.319l-.01209.00165a.24548.24548,0,0,1-.32784-.01063.23144.23144,0,0,1,.00989-.32715Zm-.97229-.17506a.139.139,0,0,1,.06759-.04618.23742.23742,0,0,1,.27756.04829.24483.24483,0,0,1,.0089.34613l-.00413.00424a.24962.24962,0,0,1-.35037.00477A.25311.25311,0,0,1,15.84864,22.17922Zm-1.003.05084.00522-.00687a.22185.22185,0,0,1,.34673-.25676l.03436.0261.04618.06758a.22268.22268,0,0,1-.1377.2832h0l-.00208.00071-.00522.00687A.24335.24335,0,0,1,14.84563,22.23006Zm.87519.81647a.23688.23688,0,0,1,.31218.03124l.02062.01566a.24714.24714,0,0,1-.05213.33967.241.241,0,0,1-.33279-.0469A.24715.24715,0,0,1,15.72082,23.04653Zm-1.00857-.1701c.01728-.00855.04149-.01183.05193-.02557a.23761.23761,0,0,1,.32923.06586.27.27,0,0,1-.02985.36742.26012.26012,0,0,1-.36745-.01716l-.00519-.00583A.28634.28634,0,0,1,14.71225,22.87643Zm-.91368.11868a.22569.22569,0,0,1,.068-.31184h0l.01158-.00695a.22867.22867,0,0,1,.29652.05186.2253.2253,0,0,1-.01228.31575l-.01209.00165-.033.02914a.22565.22565,0,0,1-.31179-.06795Zm.796.778a.2391.2391,0,0,1,.32236.06065.22952.22952,0,0,1-.05542.31548.218.218,0,0,1-.3065-.03364l-.00733-.00969-.01375-.01044A.24729.24729,0,0,1,14.5946,23.77313Zm-.89974-.185a.24692.24692,0,0,1,.29348-.01547c.01374.01044.01539.02253.02914.033a.22978.22978,0,0,1-.017.3245h0l-.00573.005-.033.02914a.23344.23344,0,0,1-.29652-.05186A.23069.23069,0,0,1,13.69486,23.58816Zm.76148,1.066.019.00357a.22729.22729,0,0,1,.29434.126l.00165.01209a.2288.2288,0,0,1-.14666.27869l-.0121.00166A.21814.21814,0,0,1,14.344,24.959l-.00687-.00522A.24249.24249,0,0,1,14.45634,24.65418Zm.75694,1.52852a.26592.26592,0,0,1-.07367-.08847l-.00687-.00522a.208.208,0,0,1,.09906-.27691h0l.00446-.002.00522-.00687.02252-.0154a.25355.25355,0,0,1,.30122.13128.22321.22321,0,0,1-.12955.28787h0l-.00337.00125A.20775.20775,0,0,1,15.21328,26.1827Zm1.14449.8043a.21314.21314,0,0,1-.05185.29653.21813.21813,0,0,1-.30175-.045l-.00852-.01731a.21313.21313,0,0,1,.04142-.28278A.23068.23068,0,0,1,16.35777,26.987Zm-.15139-.92768a.23723.23723,0,0,1,.31549.05542l.00687.00522a.23635.23635,0,0,1-.0623.31027l-.01731.00852a.23337.23337,0,0,1-.29652-.05186A.25649.25649,0,0,1,16.20638,26.05932Zm-2.70363-1.53349L13.508,24.519l.03819-.036a.22156.22156,0,0,1,.31085.0394l.003.00394.01374.01044a.2253.2253,0,0,1-.04333.31383l-.00522.00687a.24828.24828,0,0,1-.33993-.009A.23194.23194,0,0,1,13.50275,24.52583Zm.80106,1.08525a.23339.23339,0,0,1,.29435.12606l-.00522.00687a.23448.23448,0,0,1-.145.29078l-.01209.00165a.21779.21779,0,0,1-.27016-.12936.22741.22741,0,0,1,.13139-.29354h0Zm.99234,1.133c.01374.01044.02227.02775.036.03819l.02227.02775a.21935.21935,0,0,1-.04349.30712l0,0-.01192.00836a.2254.2254,0,0,1-.31383-.04334.22985.22985,0,0,1,.04576-.32182l.008-.00575A.21857.21857,0,0,1,15.29615,26.74409Zm-2.00083-1.03216a.21418.21418,0,0,1,.09665-.28417l.0294-.01017a.24384.24384,0,0,1,.30287.14336.22262.22262,0,0,1-.13761.28317h0l-.00217.00074a.21761.21761,0,0,1-.28389-.11876Zm.768.84343a.23613.23613,0,0,1,.32758.05378.2231.2231,0,0,1-.00515.27782.14745.14745,0,0,1-.0434.04288.22166.22166,0,0,1-.311-.03953l-.00288-.0038-.01374-.01044A.23461.23461,0,0,1,14.06334,26.55536Zm-.87418-.133.033-.02914a.23239.23239,0,1,1-.05569.35863A.23624.23624,0,0,1,13.18916,26.42232Zm.92952,1.52957a.239.239,0,0,1-.31166-.11753l-.00165-.01209.00522-.00688a.2183.2183,0,0,1,.107-.28961h0l.007-.00308.01209-.00165a.2143.2143,0,0,1,.255.06368.07825.07825,0,0,1,.03244.05715.22506.22506,0,0,1-.09363.30419l0,0Zm1.05382-.17479a.23659.23659,0,0,1-.07274.324.24905.24905,0,0,1-.30174-.045.24409.24409,0,0,1,.05377-.32758.23065.23065,0,0,1,.283-.00172c.01375.01043.02227.02774.036.03818Zm1.00342.44793a.23887.23887,0,0,1-.05385.05663.21929.21929,0,0,1-.307-.03812l-.00688-.00522a.22985.22985,0,0,1,.04577-.32182l.008-.00575a.2334.2334,0,0,1,.28469.01036c.01375.01044.02227.02775.036.03819A.23074.23074,0,0,1,16.17592,28.225Zm.94428.24047a.25623.25623,0,0,1-.34159-.02106.24435.24435,0,0,1,.03481-.33115l.02775-.02226a.21856.21856,0,0,1,.28966.04663A.23817.23817,0,0,1,17.1202,28.4655Zm.91706.17645a.2301.2301,0,0,1-.29349.01547l-.02748-.02088-.00853-.01731a.2191.2191,0,0,1,.00585-.30979l.00643-.006.04341-.04288a.23153.23153,0,0,1,.27756.04829.23492.23492,0,0,1-.00288.33221h0Zm-.71591-1.1831a.30621.30621,0,0,1-.06593.05828.22131.22131,0,0,1-.24677-.00323c-.01375-.01044-.02227-.02775-.036-.03819l-.036-.03819a.23136.23136,0,0,1,.07791-.31778l.00169-.001a.22568.22568,0,0,1,.31182.068l.007.01163A.23084.23084,0,0,1,17.32135,27.45885Zm.85139.19158a.21038.21038,0,0,1-.29619-.028l-.0039-.00485-.02062-.01566a.23644.23644,0,0,1,.00541-.321l.01731-.00852a.22319.22319,0,0,1,.31549.00955h0l.00712.008c.01375.01044.0154.02253.02392.03984l.01207-.00162A.2391.2391,0,0,1,18.17274,27.65043Zm.99666-.14234a.21286.21286,0,0,1-.06083.29483v0l-.02042.01186-.00522.00687a.23167.23167,0,0,1-.31357-.08647.22625.22625,0,0,1,.08543-.30835l.01313-.00688a.23161.23161,0,0,1,.27757.04829A.06618.06618,0,0,1,19.1694,27.50809Zm-.87214-.74914a.23929.23929,0,0,1-.2259-.03072.21562.21562,0,0,1-.07532-.10056.22816.22816,0,0,1,.12343-.29813l0,0,.00783-.00307.00522-.00688a.24384.24384,0,0,1,.30287.14337A.23333.23333,0,0,1,18.29726,26.759Zm.72552.17183-.02749-.02088a.07474.07474,0,0,1-.02557-.05193.21267.21267,0,0,1,.06547-.29353l.01057-.0063.01044-.01374a.24287.24287,0,0,1,.31357.08647.238.238,0,0,1-.08482.32566v0h0A.23118.23118,0,0,1,19.02278,26.93078Zm1.76875-.53112c.06158.09012.11794.18711.17265.272.04427.09865.08523.17311.12263.26653.04262.08655.094.14726.00912.202-.18188.11107-.386.19439-.56432.28653a.51431.51431,0,0,1-.20581.07123.16884.16884,0,0,1-.17535-.11152A.34693.34693,0,0,1,20.193,27.202l.29307-.51423c.061-.09455.11152-.17535.1725-.2699.033-.02914.06429-.07037.10386-.05114Zm-2.09275-1.52458a.23064.23064,0,1,1,.05378-.32758.22661.22661,0,0,1-.04029.3179Zm3.47009.65281a5.258,5.258,0,0,1,.61712.68546.13772.13772,0,0,1,.06158.09012l-.00218.0742a.17082.17082,0,0,1-.12144.10281l-.60229.27936-.277.13637a.26487.26487,0,0,1-.15526-.00957c-.13056-.09917-.35871-.32665-.45656-.41181a3.43677,3.43677,0,0,0-.362-.35082.203.203,0,0,1-.07149-.16266.19806.19806,0,0,1,.08021-.13413c.04671-.0187.10551-.039.147-.05088.29566-.08966.56549-.18811.82845-.29178a.30461.30461,0,0,1,.20389-.04018A.369.369,0,0,1,22.16887,25.52789Zm-1.09864-.96453c.13195.1544.30017.30385.4148.46678.06845.09533-.0181.138-.07716.20145s-.14231.13029-.20825.18857c-.08325.06679-.17858.13525-.25661.19517l-.05193.02557a.09817.09817,0,0,1-.0668-.08324,2.87974,2.87974,0,0,1-.06192-.31793l-.0793-.58036a.25863.25863,0,0,1,.01671-.19319.1742.1742,0,0,1,.2039-.04017A.60485.60485,0,0,1,21.07023,24.56336Zm-2.08779-1.48831a.24277.24277,0,0,1-.28965-.04663c-.00853-.01732-.0154-.02253-.02392-.03984a.23005.23005,0,0,1,.07439-.31192l.01731-.00853a.23951.23951,0,0,1,.31357.08648.23417.23417,0,0,1-.089.319h0Z"/></g></svg>