<?xml version="1.0" encoding="utf-8"?>
<!-- Generator: Adobe Illustrator 25.4.1, SVG Export Plug-In . SVG Version: 6.00 Build 0)  -->
<svg version="1.1" id="Iconos" xmlns="http://www.w3.org/2000/svg" xmlns:xlink="http://www.w3.org/1999/xlink" x="0px" y="0px"
	 viewBox="0 0 40.8 39.7" style="enable-background:new 0 0 40.8 39.7;" xml:space="preserve">
<style type="text/css">
	.st0{fill:none;stroke:#00E9C5;stroke-width:1.1;stroke-miterlimit:10;}
	.st1{fill:none;stroke:#FFDE37;stroke-width:1.1;stroke-miterlimit:10;}
	.st2{enable-background:new    ;}
	.st3{fill:#00E9C5;}
</style>
<g id="Pelota">
	<circle class="st0" cx="19.8" cy="19.8" r="19.3"/>
	<path class="st0" d="M30.2,3.8L13,8.1c-14.7,4.3-9.9,31.1,8.3,24l17.5-8"/>
</g>
<path class="st1" d="M9.6,21.2"/>
<path class="st1" d="M40.8,6.7"/>
<g class="st2">
	<path class="st3" d="M24.3,27.6h-8.9c-1.4,0-1.3-1-1.3-2.1c0-1,0.9-1.7,1.6-2.4l2.4-2.4c0.6-0.6,1.2-1.2,1.8-1.8
		c0.8-1,1.9-2.2,1.9-3.5c0-1.3-0.3-1.5-1.5-1.5c-0.8,0-1.7,0.1-2.5,0.2c-0.4,0-1,0.2-1.4,0.2c-1.1,0-1.1-1.1-1.2-2
		c0-0.1,0-0.2,0-0.3c0-0.8,0.6-1.1,1.3-1.2c1.3-0.2,2.6-0.3,3.9-0.3c2.9,0,5.4,1,5.4,4.3c0,4.1-3.6,7-6.5,9.5
		c1.7-0.1,3.5-0.2,5.2-0.2c1.5,0,1.4,1,1.4,2.1C25.7,27.3,25.2,27.6,24.3,27.6z"/>
</g>
</svg>
