<svg id="Capa_1" data-name="Capa 1" xmlns="http://www.w3.org/2000/svg" viewBox="0 0 23.916 43.4"><defs><style>.cls-1{fill:#050b3d;}</style></defs><path class="cls-1" d="M18.8,2.8a3.10809,3.10809,0,0,0-3-2.7L14.2,0A9.33176,9.33176,0,0,0,12,.4,15.31824,15.31824,0,0,0,4.3,4.8,13.61244,13.61244,0,0,0,1.2,10,26.3207,26.3207,0,0,1,4.7,8.5a13.31949,13.31949,0,0,1,4.8-.7c1,.1,2,.5,3,.7a8.5875,8.5875,0,0,0,4.5,0,1.399,1.399,0,0,0,1.1-.9,18.10352,18.10352,0,0,0-2.3.3,6.39631,6.39631,0,0,1-3.8-1A7.956,7.956,0,0,0,9.5,5.8a3.04727,3.04727,0,0,1,1-.7,8.919,8.919,0,0,1,4.4-1.5c.9,0,1.5-.7,2.1-1.4a3.77527,3.77527,0,0,0,1.2,1c.2.1.4.2.5.1C18.9,3.2,18.8,3,18.8,2.8Zm-4.3-.1a1,1,0,1,1,0-2,1.07539,1.07539,0,0,1,1,1A.94477.94477,0,0,1,14.5,2.7Z" transform="translate(0.016)"/><path class="cls-1" d="M17.4,28.8a27.8302,27.8302,0,0,0-1-11.1c-.6-2.1-1.4-4.1-1.9-6.2a6.04491,6.04491,0,0,1,0-1.9,5.59985,5.59985,0,0,0-1.2,2.6c-.4,2.7.2,5.2.8,7.8a47.83348,47.83348,0,0,1,1.1,6.6c.1,1,0,2.1.1,3.1a1.85011,1.85011,0,0,1,1.8-.7A.76884.76884,0,0,0,17.4,28.8Z" transform="translate(0.016)"/><path class="cls-1" d="M8.6,31.7,5.3,18.9h0c-.4-1.5-.9-3.1-1.3-4.6-.3-1-.4-1.9-.6-2.9a4.43314,4.43314,0,0,1,.3-2A5.36876,5.36876,0,0,0,0,14.9c.4,1.7,6.9,16.5,7.2,16.8Z" transform="translate(0.016)"/><path class="cls-1" d="M.4,16.6Z" transform="translate(0.016)"/><path class="cls-1" d="M9.5,12a14.08386,14.08386,0,0,1,2-.1c.3,0,.3-.1.4-.3a6.39065,6.39065,0,0,1,.8-1.9c.1-.2.2-.2-.1-.3-2.3-.7-4.7-1.2-7-.1-.6.3-1.1.6-1.2,1.4a.462.462,0,0,0,.3.5c.9.3.8.3,1.8.6A10.12262,10.12262,0,0,0,9.5,12Z" transform="translate(0.016)"/><path class="cls-1" d="M17.4,28.8h-.9c-.6.1-1.1.2-1.2.9a14.32571,14.32571,0,0,1-2.9,8.2c.4.2.5.7,1,.8A11.818,11.818,0,0,0,16,34.4a24.37341,24.37341,0,0,0,1.4-5.3Z" transform="translate(0.016)"/><path class="cls-1" d="M13.5,38.6c-.4-.2-.4-.8-1-.8-.1.1.8.5.7.6-.3-.8-1.7-.7-2.6-1.1l-.4-.1c-.6-.2-.5.1-.5.6a11.35182,11.35182,0,0,1-2.4,5.5.09794.09794,0,0,0,.1.1A18.82564,18.82564,0,0,0,13.5,38.6Z" transform="translate(0.016)"/><path class="cls-1" d="M11.9,15c.1-.6-.2-1.1-.2-1.7,0-.3-.1-.4-.4-.4-.5,0-1,.1-1.5.1a27.65339,27.65339,0,0,1-5.4-.9,4.102,4.102,0,0,0,.1,1.1c.5,1.7,1.6,1.4,2.7,1.6a17.32917,17.32917,0,0,0,3.2.3A3.68526,3.68526,0,0,0,11.9,15Z" transform="translate(0.016)"/><path class="cls-1" d="M5.4,15.5c.2.9.1.4.1.5.1,1.6,1.3,1.9,2.6,2.1a15.40332,15.40332,0,0,0,4.3.1c.3,0,.4-.1.3-.4a6.46821,6.46821,0,0,1-.4-1.3c0-.4-.2-.4-.5-.4-2.1.3-2.2.5-4.3-.1A8.01821,8.01821,0,0,0,5.4,15.5Z" transform="translate(0.016)"/><path class="cls-1" d="M6.4,18.7c.2.6.4,1.1.6,1.7a.74294.74294,0,0,0,.6.6,18.29518,18.29518,0,0,0,5.7.4c.3,0,.3-.1.2-.4-.1-.5-.3-1-.4-1.5,0-.2-.2-.2-.3-.2a6.602,6.602,0,0,0-1.4.1A13.05034,13.05034,0,0,1,8,19.1,4.19259,4.19259,0,0,0,6.4,18.7Z" transform="translate(0.016)"/><path class="cls-1" d="M11,25.4A11.70522,11.70522,0,0,1,8.4,25c.2.7.3,1.3.5,2,.2.5.7.3,1,.4a19.65,19.65,0,0,0,4.2,0c-.2-.4-1.5-.1-1.8-.2a2.00984,2.00984,0,0,0,.4-1.3c0-.3-.1-.5-.5-.5A2.4375,2.4375,0,0,1,11,25.4Z" transform="translate(0.016)"/><path class="cls-1" d="M11.8,22.4c-.7.1-1.4-.2-2.1-.1-.4.1-.9.2-.9.7s.4,1.1.9,1.1a7.57992,7.57992,0,0,1,1.6.3c.6-.1,2,.3,2.6,0A2.33954,2.33954,0,0,0,11.8,22.4Z" transform="translate(0.016)"/><path class="cls-1" d="M9.9,35.3c0,1,0,1,.9,1.2.6.1,1.2.2,1.7.3a.54834.54834,0,0,0,.6-.4c.1-.4.5-.8.5-1.3,0-.3,0-.4-.3-.4a9.24613,9.24613,0,0,1-2.9-.4c-.3-.1-.6,0-.5.4Z" transform="translate(0.016)"/><path class="cls-1" d="M14.1,6.2c1.9-.5,3.6.2,5.3.8a7.13807,7.13807,0,0,0,4.1.1c.1,0,.2-.1.4-.2a6.00019,6.00019,0,0,1-2.3-.2,11.73109,11.73109,0,0,0,1.1-.5c-1.8.2-3.6-.4-5.4-.7A5.20339,5.20339,0,0,0,14.1,6.2Z" transform="translate(0.016)"/><path class="cls-1" d="M8.6,31.7A3.02179,3.02179,0,0,1,7,31.2a12.49137,12.49137,0,0,1,.9,8.1c.5-.3.5-.7.6-1.1a13.94141,13.94141,0,0,0,.2-5C8.7,32.7,8.8,34.3,8.6,31.7Z" transform="translate(0.016)"/><path class="cls-1" d="M12.5,31.7a12.58847,12.58847,0,0,1-2.7-.4c-.2.6.1,1.2.1,1.8,0,.2.2.3.4.4a5.54684,5.54684,0,0,0,1.7.3.21508.21508,0,0,0,.2-.2,3.25518,3.25518,0,0,1,.4-1.4C12.6,32,12.7,31.8,12.5,31.7Z" transform="translate(0.016)"/><path class="cls-1" d="M9.5,29.8c-.1.4,0,.8.4.8a2.89469,2.89469,0,0,0,1.6,0c.7-.7,2.6-1.2,3.1-2.1H10.7A2.54049,2.54049,0,0,0,9.5,29.8Z" transform="translate(0.016)"/><path class="cls-1" d="M13.5,28.6c-.7.6-1.3,1.3-2,1.9,0,0-.7.1-.7.2h3.4c.3,0,.4-.1.4-.4V28.5A3.74953,3.74953,0,0,0,13.5,28.6Z" transform="translate(0.016)"/><path class="cls-1" d="M11,25.4a1.72869,1.72869,0,0,0,1,.1c.6-.1.6.2.6.6v.2c0,.3-.4.6-.3.9s.6,0,.9.2c1.6.1,1.6.1,1.4-1.5-.1-.4-.1-.7-.7-.6A14.538,14.538,0,0,1,11,25.4Z" transform="translate(0.016)"/><path class="cls-1" d="M12.5,31.7c0,.1.1.2,0,.3-.4.5-1.1,1.1-1.2,1.7a10.26744,10.26744,0,0,0,2.5.1c.2,0,.2-.2.3-.3a11.6272,11.6272,0,0,1,.4-1.8Z" transform="translate(0.016)"/><path class="cls-1" d="M13.9,24.4A12.6286,12.6286,0,0,0,10,24c-.5.1-.8-.3-1-.8s.2-.7.5-.8H13c-.6-.1-4.6-.4-5.2-.5-.3,0-.4,0-.3.3a1.854,1.854,0,0,1,.2.7c.1.7.1,1.2,1.3,1.3A27.16086,27.16086,0,0,0,13.9,24.4Z" transform="translate(0.016)"/><path class="cls-1" d="M10.1,22.3c.8.2,3.1.8,3.6,1.4.2.2-.2.6.1.7.1,0,.4-.1.4-.3a4.33105,4.33105,0,0,0-.1-.5c-.1-.5-.2-.9-.3-1.4C13.1,22.4,10.7,22.1,10.1,22.3Z" transform="translate(0.016)"/><path class="cls-1" d="M9.5,30c.5-.4.9-1,1.4-1.5-.6-.1-1.1-.2-1.7-.3A5.66253,5.66253,0,0,0,9.5,30Z" transform="translate(0.016)"/><path class="cls-1" d="M15.4,3.8c-.8,0-1.3.3-1.1,1.2a3.09132,3.09132,0,0,1-.2.8A2.66444,2.66444,0,0,0,15.4,3.8Z" transform="translate(0.016)"/><path class="cls-1" d="M18.1,3.5a3.55208,3.55208,0,0,1-.9-.4,4.06086,4.06086,0,0,1-.5,2.1A3.33014,3.33014,0,0,0,18.1,3.5Z" transform="translate(0.016)"/><path class="cls-1" d="M16.2,6.3a1.95731,1.95731,0,0,1-.6,1.2C16.4,7.6,16.5,7.4,16.2,6.3Z" transform="translate(0.016)"/><path class="cls-1" d="M17.6,6.5a2.38961,2.38961,0,0,1-.3.9C17.9,7.4,17.9,7.3,17.6,6.5Z" transform="translate(0.016)"/></svg>