<svg id="Iconos" xmlns="http://www.w3.org/2000/svg" viewBox="0 0 40.81475 43.45422"><defs><style>.cls-1{fill:#050b3d;}.cls-2,.cls-3,.cls-4{fill:none;stroke:#050b3d;}.cls-2,.cls-3{stroke-linecap:round;}.cls-2{stroke-linejoin:round;}.cls-3,.cls-4{stroke-miterlimit:9.9989;}.cls-3{stroke-width:0.4999px;}.cls-4{stroke-width:0.25px;}</style></defs><g id="Iconos-2"><path class="cls-1" d="M30.09362,26.35334l-.89-1.09a.15582.15582,0,0,0-.21-.02l-1,.85-2.85,2.41a.50983.50983,0,0,1-.31.11c-.31,0-.61,0-.91.01h-.01a21.85574,21.85574,0,0,0-4.84.57,7.71549,7.71549,0,0,0-4.8,3,.62362.62362,0,0,0-.1.22v.01a2.25153,2.25153,0,0,0-.22.71,2.95646,2.95646,0,0,0,0,.84,3.86222,3.86222,0,0,0,.17.82,4.57854,4.57854,0,0,0,.33.87,5.38958,5.38958,0,0,0,.4.75,1.34871,1.34871,0,0,0,.15.26,4.56381,4.56381,0,0,0,.41.57,2.01715,2.01715,0,0,0,.22.29c.12.14.25.29.38.42.05.06.11.11006.16.16a3.10136,3.10136,0,0,0,.37.35,5.73846,5.73846,0,0,0,.77.61,3.39014,3.39014,0,0,0,3.57.52,1.81785,1.81785,0,0,0,.27-.15,6.06291,6.06291,0,0,0,.78-.45,3.37029,3.37029,0,0,0,.38-.28,4.97235,4.97235,0,0,0,.56-.47l.26-.24c.15-.16.29-.32.43-.49.06-.07.11-.15.17-.23h.01c.16-.22.31994-.44.46-.67.16-.25.3-.52.44-.79.12-.25.24-.51.34-.77a17.18408,17.18408,0,0,0,.96-3.94c.05-.38.08-.76.1-1.14a.27475.27475,0,0,1,.12-.22l3.04-2.51.88-.73A.12162.12162,0,0,0,30.09362,26.35334Zm-7.99,3.52a.60367.60367,0,0,1,.24-.05c.24,0,.5-.04.73-.02.13.01.11.12.12.22s.01.22.01.33c0,.12-.01.25-.02.37,0,.02-.00995.04-.00995.06a.12163.12163,0,0,1-.13,0,1.6527,1.6527,0,0,1-.32-.18l-.58-.36a.27994.27994,0,0,1-.16-.16.19547.19547,0,0,1,.12-.21Zm-.94,1.53a.27123.27123,0,0,1,.27232-.27014l.00768.00014a.26691.26691,0,0,1,.26.27v.03a.27579.27579,0,0,1-.29.25.26282.26282,0,0,1-.25-.26Zm.09,1.32a.35558.35558,0,0,1,.1.02.26335.26335,0,0,1,.14.33.25816.25816,0,0,1-.48-.19.25015.25015,0,0,1,.24-.16Zm-.54-2.38a.28216.28216,0,0,1,.29.25c0,.02-.00995.05-.00995.07a.25682.25682,0,0,1-.25.21.26544.26544,0,0,1-.03572-.52968l.00572-.00032Zm-.1,1.53a.2768.2768,0,0,1,.25.29.28219.28219,0,0,1-.29.25.26327.26327,0,0,1-.25112-.2749l.00112-.0151a.26972.26972,0,0,1,.288-.25013l.002.00015Zm-.4,1.66a.26714.26714,0,0,1,.35359-.133l.00641.003a.28174.28174,0,0,1,.15.3.28656.28656,0,0,1-.33.21.26936.26936,0,0,1-.2-.32A.07347.07347,0,0,1,20.21362,33.53334Zm-.26-2.46a.31473.31473,0,0,1,.22.25.28536.28536,0,0,1-.3.25.2698.2698,0,0,1-.25014-.28811l.00014-.0019a.27638.27638,0,0,1,.32962-.21l.00037.00008Zm-.18,1.5h.01a.27448.27448,0,0,1,.25.28.27946.27946,0,0,1-.27.25h-.02a.27572.27572,0,0,1-.25-.29.25944.25944,0,0,1,.27737-.24017l.00263.0002Zm.05,1.88a.28293.28293,0,0,1-.34.18005.26863.26863,0,0,1-.17011-.33968l.00011-.00032a.27371.27371,0,0,1,.34-.18.277.277,0,0,1,.17.33992Zm-.88-3.98a.265.265,0,1,1,.52422.07805l-.00422.022a.266.266,0,0,1-.25.22.07487.07487,0,0,1-.05-.01.25871.25871,0,0,1-.2307-.284l.0007-.006Zm.08,1.26h.01c.02-.01.04,0,.06,0a.27206.27206,0,0,1,.25.27v.02a.29875.29875,0,0,1-.29.24.26929.26929,0,0,1-.27994-.25819l-.00006-.00181a.25217.25217,0,0,1,.23372-.26937Zm-.36,1.77a.26523.26523,0,0,1,.30292-.22121l.00708.0012a.27233.27233,0,0,1-.04.54.075.075,0,0,1-.05-.01.25873.25873,0,0,1-.2307-.284l.0007-.006Zm-.33-2.58h.05a.25839.25839,0,0,1,.22.29v.02a.276.276,0,0,1-.31.22.26822.26822,0,0,1-.2202-.30885l.0002-.00115A.25185.25185,0,0,1,18.33362,30.92335Zm-.39,1.76a.268.268,0,0,1,.26508-.27089q.01246-.00015.02492.00089a.29353.29353,0,0,1,.27.29.28922.28922,0,0,1-.25995.27h-.06006a.26669.26669,0,0,1-.25-.28Zm.05,1.35h.00995a.271.271,0,0,1-.02.54h-.02a.26971.26971,0,0,1-.25016-.28793l.00016-.00208a.2608.2608,0,0,1,.27069-.25053l.00939.00053Zm-.77-2.14a.25268.25268,0,0,1,.25475-.25058l.01525.00058h.02a.27207.27207,0,0,1,.25.27v.01a.29273.29273,0,0,1-.26.29.263.263,0,0,1-.27946-.24543l-.00054-.01457Zm.06,1.30005h.03a.28486.28486,0,0,1,.26.29.27771.27771,0,0,1-.29.26.2861.2861,0,0,1-.27-.29.28115.28115,0,0,1,.27-.26Zm-.93-.6a.27656.27656,0,0,1,.25-.21.28776.28776,0,0,1,.31.26.28322.28322,0,0,1-.25423.3095l-.00577.00051a.27682.27682,0,0,1-.30836-.24118l-.00164-.01877a.17282.17282,0,0,1,.01-.10012Zm-.5,2.3a.27781.27781,0,0,1-.31.23.27137.27137,0,0,1,.04-.54.26476.26476,0,0,1,.27.25Zm.11-1.44a.2783.2783,0,0,1-.32.17v-.01a.26736.26736,0,0,1-.18-.33h.01a.2495.2495,0,0,1,.25-.18.2763.2763,0,0,1,.09.01.25934.25934,0,0,1,.15.33Zm.56,2.24a.28651.28651,0,0,1-.26.23.26886.26886,0,0,1-.27-.26772v-.02228a.25614.25614,0,0,1,.25995-.25.281.281,0,0,1,.27.26Zm-.08-1.17a.31852.31852,0,0,1-.32-.3c0-.02.01-.05.01-.07a.27144.27144,0,0,1,.29956-.24l.00044,0a.31635.31635,0,0,1,.31006.3.30311.30311,0,0,1-.29625.30982l-.00383.00006Zm.84,2.01a.244.244,0,0,1-.23738.25044q-.01133.0003-.02262-.00044h-.03a.26578.26578,0,1,1,.03245-.53057l.00755.00057a.27.27,0,0,1,.25.26Zm-.2-1.25h-.01a.26975.26975,0,0,1-.25015-.288l.00015-.002a.271.271,0,0,1,.54.04.26742.26742,0,0,1-.28.24989Zm.5,2.31a.24077.24077,0,0,1-.18326-.287l.00326-.013.01-.03a.284.284,0,0,1,.35-.17.26669.26669,0,0,1,.15.34.25631.25631,0,0,1-.32432.16186l-.00569-.002Zm.42-1.65a.264.264,0,0,1-.31.15l-.01.01a.266.266,0,0,1-.17-.33l.01-.02a.24915.24915,0,0,1,.31036-.16681l.01964.00681h.01a.262.262,0,0,1,.14.34Zm.41,2.53a.263.263,0,0,1-.27946-.24544l-.00054-.01456v-.05a.26267.26267,0,0,1,.29075-.23122l.00924.00122a.27222.27222,0,0,1,.23022.30856l-.00022.00144a.26681.26681,0,0,1-.25.22989Zm.31-1.66a.27617.27617,0,0,1-.32.15.26612.26612,0,0,1-.16424-.33863l.00424-.01137a.2692.2692,0,0,1,.33-.16l.01.01a.26207.26207,0,0,1,.14.34Zm-.15-1.43a.26092.26092,0,0,1-.17507-.32481l.00507-.01519a.24722.24722,0,0,1,.25-.19.16991.16991,0,0,1,.07.01l.02.01a.27711.27711,0,0,1,.17.34v.01a.271.271,0,0,1-.34.15993Zm.6,2.43h-.02a.26663.26663,0,0,1-.25-.28.2608.2608,0,0,1,.27068-.25053l.00932.00053h.01a.26525.26525,0,0,1-.02.53Zm.44-1.75a.25906.25906,0,0,1-.32.17h-.01a.24829.24829,0,0,1-.18-.3l.01-.01v-.03a.297.297,0,0,1,.34-.17.26467.26467,0,0,1,.16.33Zm.24,2.65-.02-.01V38.6935a.25085.25085,0,0,1-.18136-.3049l.00136-.0051.01-.02a.27276.27276,0,0,1,.33-.17.282.282,0,0,1,.18994.33.27326.27326,0,0,1-.32993.18983Zm.2-1.61a.26318.26318,0,0,1-.25113-.27472l.00113-.01528a.24555.24555,0,0,1,.25-.24h.04a.26884.26884,0,0,1,.24.29.27207.27207,0,0,1-.28.23989Zm.25994-1.55a.27586.27586,0,0,1-.25-.29.2564.2564,0,0,1,.27-.24h.02a.26392.26392,0,0,1,.22.28v.02a.26785.26785,0,0,1-.26.22992Zm.47,2.44a.26321.26321,0,0,1-.25113-.27476l.00113-.01524a.2588.2588,0,0,1,.26723-.25011l.00277.00011h.00994a.27981.27981,0,0,1,.23.31.26791.26791,0,0,1-.25987.22991Zm.17-1.68h-.02a.24123.24123,0,0,1-.22-.25.25527.25527,0,0,1,.51048.00772l-.00048.01228a.24851.24851,0,0,1-.26551.23027l-.00444-.00035Zm.09-1.56a.25077.25077,0,0,1-.18139-.30476l.00139-.00524.00995-.01.01-.02a.24964.24964,0,0,1,.30254-.182l.00746.002.02.01h.01a.2742.2742,0,0,1,.16.35.26329.26329,0,0,1-.33549.16151l-.00438-.00158Zm.65,2.48a.26327.26327,0,0,1-.25112-.2749l.00112-.0151a.27457.27457,0,0,1,.28-.25h.01a.28327.28327,0,0,1,.24.29.26741.26741,0,0,1-.28.24991Zm.19-1.6h-.06a.27226.27226,0,0,1-.23021-.30862l.00021-.00139a.26817.26817,0,0,1,.3-.22h.02a.27255.27255,0,0,1,.22.31.266.266,0,0,1-.25.21993Zm.35-1.71a.26858.26858,0,0,1-.3396.17013l-.0004-.00014a.26084.26084,0,0,1-.17511-.32467l.00511-.01533v-.01a.27039.27039,0,0,1,.34674-.16122l.00326.00122a.27394.27394,0,0,1,.16.33Zm-.08-1.4h-.06a.276.276,0,0,1-.22-.31.254.254,0,0,1,.28176-.2228l.01824.0028h.00995a.25829.25829,0,0,1,.22.29v.02a.28689.28689,0,0,1-.24989.21989Zm.45,4a.26888.26888,0,0,1-.27-.26774v-.04227a.25319.25319,0,0,1,.26-.23.28241.28241,0,0,1,.28.26.29184.29184,0,0,1-.26993.27989Zm.07-1.58h-.02a.26085.26085,0,0,1-.27948-.2408l-.00052-.0092v-.01a.26087.26087,0,0,1,.2408-.27948l.0092-.00051h.01a.10856.10856,0,0,1,.05.01l.01-.01a.28334.28334,0,0,1,.24.29.26284.26284,0,0,1-.25992.24992Zm.22-1.53a.14813.14813,0,0,1-.07-.01.2607.2607,0,0,1-.22073-.2953l.00073-.0047.01-.01a.26971.26971,0,1,1,.28.32Zm.57,2.42h-.01a.25527.25527,0,0,1-.27883-.22932l-.00117-.02068v-.07a.24886.24886,0,0,1,.25-.21.26577.26577,0,0,1,.046.52955Zm.3-1.82a.28446.28446,0,0,1-.31.22.27311.27311,0,0,1,.04-.54.12764.12764,0,0,1,.06.00995.26113.26113,0,0,1,.21.3Zm.73-1.58a.99087.99087,0,0,1-.09.24.20872.20872,0,0,1-.23.07.2935.2935,0,0,1-.13-.18l-.24-.64c-.04-.12-.08-.23-.11005-.35-.01-.05-.02-.11.03-.13h.05c.12.00995.25.03.37.05.12.03.22.05.33.08.1.03.2.03.18.15-.02992.23989-.10987.47988-.15986.70992Zm.79-2.65-.2.74c-.01.02-.08.33-.09.35a.37479.37479,0,0,1-.12006.13c-.19.04-.56.08-.71.1a5.4315,5.4315,0,0,0-.58.06.232.232,0,0,1-.2-.06.21547.21547,0,0,1-.05-.17.49341.49341,0,0,1,.06-.17c.14-.33.25-.64.36-.95a.33283.33283,0,0,1,.11-.21.41859.41859,0,0,1,.16-.04,7.59431,7.59431,0,0,1,1.07-.04.172.172,0,0,1,.12.02l.07.05a.2121.2121,0,0,1,.00013.1899Z" transform="translate(-0.00005)"/></g><circle class="cls-2" cx="20.1498" cy="4" r="3.5"/><path class="cls-2" d="M19.05,29.70005l.2-4.4,6.029,4.29,5.071,11.71a2.4832,2.4832,0,0,0,3.17017,1.51079l.02983-.01079h0a2.36063,2.36063,0,0,0,1.43181-3.01579l0,0h0q-.01509-.04239-.0318-.08418v-.1l-3.38809-8.0236A33.16366,33.16366,0,0,0,29.05,27.00005l-4.9-4.2.09428-6.88261a.18683.18683,0,0,1,.31317-.135L29.15,20l.1,4.3a2.24249,2.24249,0,0,0,2.28382,2.20036L31.55,26.5h0a2.263,2.263,0,0,0,2.3-2.22539h0q.00061-.0373,0-.07461v-.1l-.5-5.1a3.85779,3.85779,0,0,0-1.1-2.2l-4.7-4.3a10.89151,10.89151,0,0,0-5.6-2.7l-1-.1a18.11616,18.11616,0,0,0-3.8.1h0a9.06892,9.06892,0,0,0-4.7,2.3l-2.1,1.8-5.9-3.5a2.12428,2.12428,0,0,0-2.6.4h0a2.02912,2.02912,0,0,0,.2,2.8c.1.1.3.2.4.3l5.7,3.8a4.05894,4.05894,0,0,0,4.7-.1l1.9-1.5-.6,16.8-5.3,6.2a2.33151,2.33151,0,0,0,.2,3.2h.1a2.20821,2.20821,0,0,0,3.1-.2l3.9-4.3" transform="translate(-0.00005)"/><path class="cls-3" d="M1.45,15.90005a21.81979,21.81979,0,0,0,9.7,17.6" transform="translate(-0.00005)"/><path class="cls-3" d="M.25,19a19.25364,19.25364,0,0,0,2.3,7" transform="translate(-0.00005)"/><path class="cls-3" d="M3.15,19.5a22.35308,22.35308,0,0,0,4.9,9.4" transform="translate(-0.00005)"/><line class="cls-3" x1="37.0498" y1="32.9" x2="34.8498" y2="34.1"/><line class="cls-3" x1="36.5498" y1="34.2" x2="35.0498" y2="35.1"/><line class="cls-3" x1="36.1498" y1="32.3" x2="34.8498" y2="33"/><path class="cls-4" d="M37.85,31.00005a1.69853,1.69853,0,0,1,2.29225-2.50711h0l.00448.00411.00327.003.1.1" transform="translate(-0.00005)"/><path class="cls-4" d="M40.25,28.60005a1.72014,1.72014,0,0,1-.1,2.4,1.6933,1.6933,0,0,1-2.3,0" transform="translate(-0.00005)"/><path class="cls-4" d="M37.35,29.40005l1.4-.9c.8-.3,2,1.3,1,2.1l-1.4.7" transform="translate(-0.00005)"/></svg>