<svg id="Iconos" xmlns="http://www.w3.org/2000/svg" viewBox="0 0 35.79297 45.16886"><defs><style>.cls-1,.cls-2,.cls-3,.cls-4{fill:none;stroke:#050b3d;}.cls-1,.cls-3,.cls-4{stroke-miterlimit:10;}.cls-2,.cls-3{stroke-linecap:round;}.cls-2{stroke-linejoin:round;}.cls-3{stroke-width:0.5px;}.cls-4{stroke-width:0.25px;}.cls-5{fill:#050b3d;}</style></defs><circle class="cls-1" cx="13.64297" cy="9.65803" r="3.2"/><path class="cls-2" d="M7.743,21.758a2.67869,2.67869,0,0,1-3.3-1l-3.6-5.1a1.92993,1.92993,0,0,1,.5-2.7h0a1.82929,1.82929,0,0,1,2.6.5l3.3,4.5,6.6-2.7a15.968,15.968,0,0,0,4.9-3.2l2.3-2.2a1.08024,1.08024,0,0,0,.3-.7l.2-2.7a1.98963,1.98963,0,0,1,2.3-1.8h0a1.94307,1.94307,0,0,1,1.7,2.2l-.3,3a4.94207,4.94207,0,0,1-1.4,3l-3.1,3a.76385.76385,0,0,0-.2.5l.5,11.9,2.3,6.6a5.35977,5.35977,0,0,1,.2,2.8l-1.1,5.5a1.99309,1.99309,0,0,1-2.2,1.5h-.2a1.959,1.959,0,0,1-1.5-2.3l1.4-6.1-3-7.4-4.5,14.1a1.96232,1.96232,0,0,1-2.1,1.3h0a1.91638,1.91638,0,0,1-1.5-2.4l4.7-15.2-.3-6.8Z"/><path class="cls-3" d="M22.343,23.958s4.5,3.7,13.2,2.1"/><path class="cls-3" d="M23.043,25.658a19.1526,19.1526,0,0,0,5.9,2"/><path class="cls-3" d="M24.743,23.958a17.11081,17.11081,0,0,0,8.2,1.3"/><path class="cls-4" d="M26.543,22.058a1.69706,1.69706,0,0,1,2.4-2.4"/><path class="cls-4" d="M28.943,19.658a1.69706,1.69706,0,0,1-2.4,2.4"/><path class="cls-4" d="M26.143,20.558l1.4-.9c.8-.3,2,1.3,1,2.1l-1.4.7"/><g id="Iconos-2"><path class="cls-5" d="M2.97111,15.51167l.33314-1.08874.30944-.99094.64239-2.07971a.46077.46077,0,0,1,.17515-.22714c.22465-.14211.44927-.28425.66162-.43847A18.375,18.375,0,0,0,8.3423,8.025,6.69343,6.69343,0,0,0,10.443,3.615a1.237,1.237,0,0,0-.03825-.20716,1.91827,1.91827,0,0,0-.16972-.62714,2.81476,2.81476,0,0,0-.38931-.61323,4.06483,4.06483,0,0,0-.51053-.51461A4.18915,4.18915,0,0,0,8.69071,1.176,5.37366,5.37366,0,0,0,8.05327.81491,1.309,1.309,0,0,0,7.82659.70079C7.64288.61681,7.45317.539,7.26342.47338a2.08267,2.08267,0,0,0-.29368-.1075c-.159-.04756-.318-.09511-.47695-.13049a1.05451,1.05451,0,0,0-.1895-.04123,3.30362,3.30362,0,0,0-.42777-.082A5.633,5.633,0,0,0,5.0267.02733,2.9223,2.9223,0,0,0,2.19341,1.30674a1.475,1.475,0,0,0-.12624.239A4.58407,4.58407,0,0,0,1.7065,2.232a2.86179,2.86179,0,0,0-.14344.37945A3.1465,3.1465,0,0,0,1.3787,3.217l-.08312.29355c-.029.18939-.05811.36658-.0871.556a1.63524,1.63524,0,0,0-.01022.24416l-.006.00615c-.01642.2381-.02678.47006-.02494.70191a6.63113,6.63113,0,0,0,.04278.78069c.02634.24386.0648.47542.11554.71909A14.1631,14.1631,0,0,0,2.46237,9.82881c.1427.29786.29146.58957.45232.869a.254.254,0,0,1,.01391.21959L2.33316,12.777l-.44673,1.37644-.29762.942a.11056.11056,0,0,0,.062.12156l.00606-.00616,1.15015.3814a.12468.12468,0,0,0,.16107-.07172l0,0h0ZM8.16881,6.147a.22233.22233,0,0,1-.08935.27529L8.043,6.447a.21674.21674,0,0,1-.29-.09937l0,0h0l-.00377-.00809L7.737,6.32741a.23891.23891,0,0,1,.11962-.306.24554.24554,0,0,1,.31225.12562ZM6.62111,7.95317a.23485.23485,0,0,1-.329-.04512h0l-.0009-.00115c-.00627-.01822-.02473-.03638-.02489-.06082A.21142.21142,0,0,1,6.35571,7.583a.219.219,0,0,1,.30641.04514h0l0,.00007.00512.00723a.225.225,0,0,1-.04307.31524h0Zm-2.30018-3.051.0122-.00009a.22123.22123,0,0,1,.26964.14428l.0001.01221.0001.0122a.21628.21628,0,0,1-.13905.27244h0l-.01134.00336-.00605.00614-.01225.00007a.23246.23246,0,0,1-.11335-.45061ZM5.83364,3.29153a.2441.2441,0,0,1,.282.16862.22048.22048,0,0,1-.05928.22012.266.266,0,0,1-.09716.06178l-.0122.00009a.22816.22816,0,0,1-.27995-.16043L5.665,3.57352l-.00616-.00606a.23341.23341,0,0,1,.17477-.27591ZM5.518,4.26422a.244.244,0,0,1,.282.1686.24687.24687,0,0,1-.16246.28808.22817.22817,0,0,1-.28-.16044L5.3555,4.55228a.23832.23832,0,0,1,.16245-.288Zm1.04067-.34385a.234.234,0,0,1,.07687-.3118l.01826-.00625a.23068.23068,0,0,1,.31191.08909.22341.22341,0,0,1-.07463.307l-.02047.01105a.23074.23074,0,0,1-.3119-.089ZM6.332,4.58116a.22115.22115,0,0,1,.29746.09662v0h0l.00238.00469.00624.01826a.234.234,0,1,1-.428.18933h0l-.00238-.00543L6.20732,4.8838l-.00107-.00259a.24326.24326,0,0,1,.08924-.2875A.06541.06541,0,0,1,6.332,4.5812Zm-1.14212.63141a.24086.24086,0,0,1,.30007.138.15106.15106,0,0,1,.00653.05488.23351.23351,0,0,1-.19855.26384l-.00071.00009a.23864.23864,0,0,1-.24531-.1567.23312.23312,0,0,1,.13718-.29978h0Zm-.2494.86843a.22645.22645,0,0,1,.2791.157l.00294.01166a.22928.22928,0,0,1-.0655.20191.2065.2065,0,0,1-.11549.05584.23074.23074,0,0,1-.26377-.17486.21955.21955,0,0,1,.16276-.25145Zm-.33434.93012a.23937.23937,0,0,1,.3.12576A.22861.22861,0,0,1,4.783,7.4358l-.00261.00107a.22356.22356,0,0,1-.25049-.04073.25349.25349,0,0,1-.04325-.06677L4.4804,7.3111a.24965.24965,0,0,1,.07715-.27518Zm1.339-1.20044a.23618.23618,0,0,1,.083-.30576l.0121-.01229a.25235.25235,0,0,1,.318.0951A.22263.22263,0,0,1,6.27005,5.89l-.00692.00363-.00605.00615a.23076.23076,0,0,1-.312-.08905Zm1.24358-.919.04862-.0248a.23066.23066,0,0,1,.31192.08909l-.00605.00615a.24075.24075,0,1,1-.35447-.07041ZM7.2573,5.843a.22756.22756,0,0,1-.05695.31669h0l-.00155.00106a.09238.09238,0,0,1-.04862.02479.23385.23385,0,0,1-.3118-.07685l-.0001-.01221a.23328.23328,0,0,1,.0952-.30584.23817.23817,0,0,1,.32379.05238ZM5.76816,7.34361a.14622.14622,0,0,1,.037.04851.25387.25387,0,0,1-.08278.33014.22677.22677,0,0,1-.31148-.07634h0L5.41057,7.6454l-.0124-.02431a.218.218,0,0,1,.06866-.30055l0,0,.00006,0,.02034-.01131a.23067.23067,0,0,1,.28089.03443Zm.89164-.67216a.23075.23075,0,0,1,.31191.08909.24678.24678,0,0,1-.1379.31232.26958.26958,0,0,1-.28134-.0832.23761.23761,0,0,1,.10731-.31817ZM8.40507,5.15659l.03084.04247a.23391.23391,0,0,1-.07687.31181L8.34685,5.511l-.00607.00615a.23393.23393,0,0,1-.31173-.07684L8.029,5.42811a.24547.24547,0,0,1,.05236-.3238.23143.23143,0,0,1,.32321.05153Zm.29762-.942a.1389.1389,0,0,1,.03719.07292.2374.2374,0,0,1-.08329.26913.24482.24482,0,0,1-.34443-.03526l0,0h0l-.00369-.00464a.24964.24964,0,0,1,.04-.3481.25311.25311,0,0,1,.35421.046Zm.07749-1.0013.00615.00606a.22185.22185,0,0,1,.21044.37664l-.03026.03075-.07288.03717a.22268.22268,0,0,1-.26332-.17268h0L8.62987,3.489,8.62372,3.483a.24334.24334,0,0,1,.15647-.26973Zm-.92141.76393a.23688.23688,0,0,1-.0708.30565l-.01816.01845a.24713.24713,0,0,1-.33025-.095.241.241,0,0,1,.08893-.32413.24715.24715,0,0,1,.33022.095Zm.29733-.97865c.00627.01823.00644.04266.01873.05477a.23761.23761,0,0,1-.10729.31815A.27.27,0,0,1,7.7069,3.295a.26012.26012,0,0,1,.06389-.36225l.00644-.00441a.28635.28635,0,0,1,.37883.07022ZM8.1549,2.0772a.2257.2257,0,0,1,.30063.10721h0l.00542.01237a.22869.22869,0,0,1-.08926.28749.2253.2253,0,0,1-.3116-.05244L8.06,2.4196l-.0247-.03644a.22568.22568,0,0,1,.10716-.30059Zm-.87313.69027a.23909.23909,0,0,1-.10127.312.22953.22953,0,0,1-.30583-.09519.218.218,0,0,1,.07242-.29962l0,0,.01052-.006.01212-.01231a.24727.24727,0,0,1,.31193.10128ZM7.58,1.89865a.24692.24692,0,0,1-.02207.29306c-.01212.01229-.02431.01239-.03646.02469a.22976.22976,0,0,1-.31967-.05825h0l-.00423-.00632-.0247-.03644a.23343.23343,0,0,1,.08926-.28748.23069.23069,0,0,1,.3178.07077ZM6.42558,2.518l-.006.01839a.22728.22728,0,0,1-.1625.27586l-.01221.00009a.22878.22878,0,0,1-.25769-.181l-.0001-.01221a.21813.21813,0,0,1,.15037-.2514l.00606-.00616a.2425.2425,0,0,1,.282.1565ZM4.813,3.07385a.26582.26582,0,0,1,.09715-.06177l.006-.00615a.208.208,0,0,1,.262.13356h0l.00141.00462.00615.00606.0124.0243a.25356.25356,0,0,1-.16862.282.2232.2232,0,0,1-.269-.16517l0,0h0l-.0008-.00351a.20775.20775,0,0,1,.05315-.21394Zm-.9437,1.03257a.21313.21313,0,0,1-.28749-.08924A.21812.21812,0,0,1,3.665,3.72363l.01825-.00625a.21315.21315,0,0,1,.27519.07714.23068.23068,0,0,1-.08917.31192Zm.93942-.03185a.23724.23724,0,0,1-.0952.30585l-.00606.00615a.23636.23636,0,0,1-.29979-.10136l-.00623-.01827a.23338.23338,0,0,1,.08926-.28749.2565.2565,0,0,1,.31793.09514Zm1.86575-2.486.006.00609.03083.04247a.22154.22154,0,0,1-.07871.30328h0l-.00433.00251-.01211.01231a.2253.2253,0,0,1-.30574-.083L6.3043,1.86618a.2483.2483,0,0,1,.05229-.336.232.232,0,0,1,.31779.05846ZM5.496,2.24471a.23341.23341,0,0,1-.16257.27587l-.00615-.006a.23449.23449,0,0,1-.26992-.1809l-.00009-.01221A.2178.2178,0,0,1,5.22,2.07a.22742.22742,0,0,1,.2744.16776h0Zm-1.25031.83975c-.0121.0123-.03034.01858-.04247.03084l-.03034.01857a.21935.21935,0,0,1-.29907-.0823h0L3.867,3.03868a.22541.22541,0,0,1,.083-.30574.22984.22984,0,0,1,.31332.08646l.00469.00866a.21856.21856,0,0,1-.02249.25647ZM5.52454,1.2316a.21417.21417,0,0,1,.26953.1321l.00634.03045a.24384.24384,0,0,1-.18079.28209.22261.22261,0,0,1-.26331-.17258v0h0l-.00048-.00223a.21763.21763,0,0,1,.154-.26644ZM4.59,1.88574a.23613.23613,0,0,1-.09512.318A.22312.22312,0,0,1,4.22,2.16324a.1476.1476,0,0,1-.037-.04851.22166.22166,0,0,1,.07883-.3034h0L4.266,1.809l.01213-.01233A.23463.23463,0,0,1,4.59,1.88581Zm.24339-.85009.02469.03644a.23239.23239,0,1,1-.34861-.101.23624.23624,0,0,1,.32384.06458Zm-1.63559.72691a.239.239,0,0,1,.15631-.29413l.0122-.00009.00616.00605a.21829.21829,0,0,1,.27359.143l0,0h0l.00216.00733.0001.01221a.2143.2143,0,0,1-.09569.24479.07823.07823,0,0,1-.06082.02489A.225.225,0,0,1,3.2021,1.775l0,0h0Zm.039,1.06751a.2366.2366,0,0,1-.31209-.11346.24906.24906,0,0,1,.08312-.29355.2441.2441,0,0,1,.318.09511.23065.23065,0,0,1-.03438.28091c-.0121.01231-.03034.01858-.04246.03084Zm-.57224.93811a.23871.23871,0,0,1-.0493-.06064.21927.21927,0,0,1,.077-.2996l.006-.00617a.22985.22985,0,0,1,.31332.08645h0l.00469.00867a.23341.23341,0,0,1-.04662.281c-.0121.0123-.03034.01858-.04247.03083a.23074.23074,0,0,1-.26275-.0405Zm-.359.90593A.25623.25623,0,0,1,2.37008,4.338a.24432.24432,0,0,1,.324.07675l.01858.03034a.21855.21855,0,0,1-.08319.28134.23817.23817,0,0,1-.32389-.05229Zm-.29195.88707a.23011.23011,0,0,1,.02208-.29307L2.06,5.24353l.01826-.00626a.21911.21911,0,0,1,.30652.04531l.00512.00714.037.04851a.23154.23154,0,0,1-.08329.26914.23494.23494,0,0,1-.32915-.04524l-.00076-.001ZM3.2784,5.002a.30655.30655,0,0,1-.0494-.07283.22133.22133,0,0,1,.03468-.24435c.01211-.0123.03035-.01857.04247-.03083l.04247-.03083a.23135.23135,0,0,1,.30525.11779v0l.00077.00179a.22569.22569,0,0,1-.10721.30061L3.535,5.04882a.23084.23084,0,0,1-.25667-.04677Zm-.29859.82a.21038.21038,0,0,1,.06555-.2902l.00531-.00325.01815-.01845a.23644.23644,0,0,1,.3177.0463l.00624.01825a.22321.22321,0,0,1-.04971.3117h0l-.00884.006c-.01211.01232-.02431.01241-.04253.01863l.00007.01217a.23911.23911,0,0,1-.312-.10115Zm.01408,1.00668a.21286.21286,0,0,1-.28465-.09792h0L2.70009,6.709l-.00615-.00606a.23164.23164,0,0,1,.12575-.3.22625.22625,0,0,1,.29494.124l.00514.0139a.23159.23159,0,0,1-.08329.26914.06609.06609,0,0,1-.04265.01869Zm.85425-.76949a.23925.23925,0,0,1,.05928-.22014.21565.21565,0,0,1,.10934-.06188.22815.22815,0,0,1,.28.16043v0h0l.00206.00816.00615.00606a.24385.24385,0,0,1-.18079.28209A.23334.23334,0,0,1,3.848,6.05921Zm-.26295.69768L3.6094,6.7322a.07471.07471,0,0,1,.05477-.01874.21266.21266,0,0,1,.28278.10237l.0049.01128.01229.01211a.24285.24285,0,0,1-.12575.3.238.238,0,0,1-.31217-.12565h0a.2312.2312,0,0,1,.0589-.2567Zm.30123,1.822c-.09724.04959-.20063.09312-.2918.13656-.1035.03132-.1826.06242-.28.08762-.09128.03123-.15805.07445-.20152-.01672-.087-.19456-.14358-.40764-.21222-.59625a.51424.51424,0,0,1-.04443-.21319.16882.16882,0,0,1,.13293-.15967A.347.347,0,0,1,3.1668,7.883l.47266.35626c.086.07255.15967.13293.2457.2055.02469.03645.06159.07274.03747.10954Zm1.779-1.88124a.23064.23064,0,1,1,.318.09512.22662.22662,0,0,1-.31017-.08051Zm-1.09,3.35851a5.25794,5.25794,0,0,1-.75857.52467.13765.13765,0,0,1-.09723.04957l-.07332-.01161a.17086.17086,0,0,1-.08648-.13356l-.20028-.633-.09992-.29214a.26484.26484,0,0,1,.02928-.15276c.115-.11685.36972-.31412.46667-.40031a3.43792,3.43792,0,0,0,.39413-.31435.203.203,0,0,1,.17045-.05017.19811.19811,0,0,1,.12281.09666c.0126.04871.02524.10964.03171.15229.05123.30468.11446.58486.18376.85889a.30461.30461,0,0,1,.01385.20735.36936.36936,0,0,1-.09694.09849Zm1.09676-.96671c-.17.11118-.33964.259-.51586.35189-.10328.05573-.13457-.03556-.19-.10223s-.11108-.15776-.16047-.2306c-.05561-.091-.11137-.19437-.16085-.27941l-.01875-.05476a.0982.0982,0,0,1,.09105-.05562,2.8819,2.8819,0,0,1,.32324-.02087l.58573-.00464a.25862.25862,0,0,1,.1895.04123.17422.17422,0,0,1,.01384.20736.60505.60505,0,0,1-.15755.14774Zm1.74241-1.881a.24275.24275,0,0,1,.08319-.28133c.01826-.00626.02431-.01241.04253-.01863a.23006.23006,0,0,1,.29989.11356l.00626.01826a.23953.23953,0,0,1-.12577.3.23418.23418,0,0,1-.305-.12892v0h0Z"/></g></svg>