<svg id="Iconos" xmlns="http://www.w3.org/2000/svg" viewBox="0 0 45.81343 41.39363"><defs><style>.cls-1,.cls-2{fill:none;}.cls-1{stroke:#050b3d;stroke-linecap:round;stroke-linejoin:round;}.cls-2{stroke:#00e9c5;stroke-miterlimit:10;stroke-width:0.3443px;}.cls-3{fill:#050b3d;}</style></defs><circle class="cls-1" cx="17.32683" cy="4.5" r="4"/><g id="RAqueta"><path class="cls-2" d="M13.72683,25.3"/><path class="cls-2" d="M12.22683,32.7"/></g><path class="cls-1" d="M24.52683,28.4l-5.1,3.5-3.3,7.4a2.55656,2.55656,0,0,1-2.9,1.4h0a2.49592,2.49592,0,0,1-1.6-3.5l2.5-5.5a10.90776,10.90776,0,0,1,.6-1.1"/><path class="cls-1" d="M19.42683,25.4l4.6-1.9-5.3-4.8.5,12.1a2.11981,2.11981,0,0,1-2,2.2h0a2.21878,2.21878,0,0,1-2.3-2.1l-.5-15.7a3.72807,3.72807,0,0,1,1.7-3.2h0a13.38858,13.38858,0,0,1,8-2.1l1.2.1a3.86546,3.86546,0,0,1,2.1.8l7.6,6.1a6.94146,6.94146,0,0,1,2.2,3.4l2.4,9.8,5.2,6.8a2.52695,2.52695,0,0,1-.5,3.5h0a2.4967,2.4967,0,0,1-3.4-.4l-5.4-6.6a7.06988,7.06988,0,0,1-1.3-2.6l-1.7-7.1-1.4.1"/><path class="cls-1" d="M29.12683,15.6l1.5,9.3-2.4,6.3a2.13061,2.13061,0,0,1-2.9,1.2h0a2.218,2.218,0,0,1-1.2-2.8l2-5.1-1.4-8.1"/><g id="Iconos-2"><path class="cls-3" d="M17.76742,30.28985l-1.14784-.82322-1.0422-.75657-2.19011-1.57957a.57168.57168,0,0,1-.19757-.29594c-.078-.32042-.15605-.6408-.25317-.95153a22.79524,22.79524,0,0,0-1.84074-4.87493,8.30361,8.30361,0,0,0-4.35132-4.21764,1.53342,1.53342,0,0,0-.25867-.03715,2.37959,2.37959,0,0,0-.80449-.0491,3.49143,3.49143,0,0,0-.87519.21455,5.04352,5.04352,0,0,0-.80733.39614,5.197,5.197,0,0,0-.816.56858,6.66607,6.66607,0,0,0-.67715.60618,1.62521,1.62521,0,0,0-.224.22123c-.17154.18267-.33821.37483-.49057.57187a2.58357,2.58357,0,0,0-.24279.30262c-.11893.168-.23786.33611-.34245.50894a1.30724,1.30724,0,0,0-.1236.20642,4.09878,4.09878,0,0,0-.266.47034A6.98771,6.98771,0,0,0,.38,21.73521,3.62532,3.62532,0,0,0,.76082,25.573a1.82966,1.82966,0,0,0,.23091.24314,5.6862,5.6862,0,0,0,.66374.696,3.54884,3.54884,0,0,0,.38919.31905,3.90245,3.90245,0,0,0,.63876.45676l.31213.21408c.21112.10917.40789.21362.61906.32278a2.0279,2.0279,0,0,0,.283.10881l.00486.00949c.27338.11369.54194.21782.81522.30757a8.22551,8.22551,0,0,0,.93468.25918c.29711.06571.58454.11228.89109.14922a17.57015,17.57015,0,0,0,4.34193-.024c.4067-.04967.8086-.10891,1.20083-.18723a.31509.31509,0,0,1,.26366.0707l1.95,1.43712,1.44095,1.07075.98937.72328a.13715.13715,0,0,0,.16747-.0247l-.00484-.00957.90428-1.20083a.15467.15467,0,0,0-.02046-.21777h0Zm-8.948-9.82229a.27583.27583,0,0,1,.28819.21415l.01459.05265a.26887.26887,0,0,1-.23168.3015l0,0h0l-.011.00122-.01919.00951a.29638.29638,0,0,1-.3123-.26191.30462.30462,0,0,1,.27145-.31727Zm1.50967,2.53535a.29137.29137,0,0,1-.18346.36887h0l-.00165.00061c-.02391.00015-.05257.01465-.08137.00515a.26229.26229,0,0,1-.27382-.20937.27169.27169,0,0,1,.17453-.3423h0l.00008,0,.01052-.00316a.27914.27914,0,0,1,.35348.17559h0Zm-4.4984,1.49444.00474-.01437a.27444.27444,0,0,1,.27649-.25978l.0144.00472.01437.00473a.26831.26831,0,0,1,.26514.27144h0l-.00054.01466.00482.00955-.00478.01442a.28838.28838,0,0,1-.57463-.04538ZM4.537,22.08064a.30282.30282,0,0,1,.31-.26464.27348.27348,0,0,1,.23526.15694.32983.32983,0,0,1,.03411.1387l-.00473.01437a.283.283,0,0,1-.29957.2655h0l-.01044-.00084-.00956.00484a.28953.28953,0,0,1-.255-.31482Zm1.01833.75659a.3027.3027,0,0,1,.31-.26467.30625.30625,0,0,1,.27424.30517.28307.28307,0,0,1-.29949.26562l-.00008,0h0l-.01052-.00086a.29566.29566,0,0,1-.27415-.30514Zm.00835-1.35964a.29029.29029,0,0,1-.33606-.214l-.00011-.02393a.28618.28618,0,0,1,.22837-.33135.27716.27716,0,0,1,.33133.20938l.00488.02845a.28624.28624,0,0,1-.22826.33136Zm.68692.52841a.27436.27436,0,0,1,.23144-.31143l.00007,0h0l.00646-.00094.02393-.0001a.2903.2903,0,0,1,.0529.57818h0l-.00733.00065-.00111.00011-.00354.00034a.30177.30177,0,0,1-.30259-.21887.081.081,0,0,1-.00023-.04788Zm.28943,1.59295a.2988.2988,0,0,1,.28117-.298.18756.18756,0,0,1,.06711.01408.28967.28967,0,0,1,.23143.338l-.00017.00087a.296.296,0,0,1-.2814.22624.2892.2892,0,0,1-.298-.28008h0Zm.922.63742a.28091.28091,0,0,1,.29518-.26584l.01487.00116a.28448.28448,0,0,1,.21138.15706.25615.25615,0,0,1,.01986.1579.28627.28627,0,0,1-.31012.24076.27237.27237,0,0,1-.23106-.291Zm.96081.76169a.297.297,0,0,1,.26676-.30281.28362.28362,0,0,1,.30258.26326l.00023.00351a.27733.27733,0,0,1-.14719.27831.31431.31431,0,0,1-.09563.02437l-.024.0001a.30968.30968,0,0,1-.29289-.19978Zm-.88032-2.04985a.293.293,0,0,1-.32654-.21878l-.00967-.01905a.31307.31307,0,0,1,.23785-.33612.2762.2762,0,0,1,.32036.22345h0l.00153.00958.00483.00956a.28627.28627,0,0,1-.22837.33145ZM6.95521,21.122l-.00987-.067a.28615.28615,0,0,1,.22838-.33135l.00483.00955a.29867.29867,0,1,1-.22329.38877Zm1.14549.2965a.28229.28229,0,0,1,.34969.19249h0l.00064.00224a.11463.11463,0,0,1,.00987.067.29009.29009,0,0,1-.21394.33605l-.01439-.00474a.28939.28939,0,0,1-.32178-.23315.29547.29547,0,0,1,.18993-.35986Zm1.17369,2.34538a.18153.18153,0,0,1,.07169-.02426.315.315,0,0,1,.35528.22819.28133.28133,0,0,1-.21322.33588h0l-.00074.00019-.0335.00494a.27044.27044,0,0,1-.32608-.19986h0l0-.00007-.00526-.02834a.28617.28617,0,0,1,.15183-.31654Zm-.43669-1.3146a.28627.28627,0,0,1,.22837-.33134.30617.30617,0,0,1,.31249.28591.33447.33447,0,0,1-.20934.29775.29477.29477,0,0,1-.33148-.25227ZM7.74879,19.7972l.06214-.01942a.29016.29016,0,0,1,.33607.214l-.00469.01438.00484.00957a.29021.29021,0,0,1-.2139.336l-.01437-.00477A.30452.30452,0,0,1,7.559,20.157a.28708.28708,0,0,1,.18867-.35951l0,0h0Zm-.98937-.72328a.17228.17228,0,0,1,.10047-.01481.29452.29452,0,0,1,.28335.2046.30371.30371,0,0,1-.178.39088h0l-.00692.00249a.30968.30968,0,0,1-.39335-.185.314.314,0,0,1,.19449-.39815Zm-1.14635-.488.00957-.00483a.27522.27522,0,0,1,.52617-.09808l.02415.04777.0148.1004a.27624.27624,0,0,1-.30736.24113h0l-.0028-.00036-.00948.00485a.30188.30188,0,0,1-.255-.29089Zm.53277,1.386a.29387.29387,0,0,1,.33124.20439l.01448.02866a.30659.30659,0,0,1-.24259.35056.299.299,0,0,1-.34577-.233.3066.3066,0,0,1,.24258-.35053Zm-1.03256-.73747c.02391-.00014.0527.00934.0718-.0003a.29478.29478,0,0,1,.33147.25223.335.335,0,0,1-.23288.39362.3227.3227,0,0,1-.40051-.2187L4.88053,19.652a.35524.35524,0,0,1,.23272-.41749ZM4.0297,18.87062a.28.28,0,0,1,.2452-.31091h0l.0167-.00146a.2837.2837,0,0,1,.30257.21889.27951.27951,0,0,1-.18517.3455l-.01441-.00474-.05265.01454a.28.28,0,0,1-.31087-.24513ZM4.495,20.17067a.2966.2966,0,0,1,.32662.2427.28476.28476,0,0,1-.23313.32179.27044.27044,0,0,1-.3235-.20391h0l-.00289-.01474-.00966-.01913a.30675.30675,0,0,1,.24267-.32655Zm-.9031-.695a.30631.30631,0,0,1,.33575.14212c.00964.01911.00493.03349.01457.05264a.285.285,0,0,1-.19518.35268h0l-.00911.00247-.05263.0146a.28959.28959,0,0,1-.30255-.2189.28618.28618,0,0,1,.20918-.34552Zm.27043,1.60257.01927.0143a.282.282,0,0,1,.25986.30037l-.00473.0144a.28384.28384,0,0,1-.31493.23117l-.01438-.00473a.27062.27062,0,0,1-.23593-.27642l-.00484-.00957a.30083.30083,0,0,1,.29576-.26946Zm.01416,2.1159a.33.33,0,0,1-.03408-.13869L3.8376,23.046a.258.258,0,0,1,.26086-.255h0l.006.00016.00956-.00483.03348-.00494a.31457.31457,0,0,1,.26466.31.27689.27689,0,0,1-.30076.25074l0,0h0L4.107,23.34165a.25773.25773,0,0,1-.23042-.14729Zm.83973,1.51867a.26442.26442,0,0,1-.21887.30258.27063.27063,0,0,1-.31209-.2142l-.0001-.0239a.26441.26441,0,0,1,.19975-.2929.28617.28617,0,0,1,.33132.22848Zm.335-1.11694a.29431.29431,0,0,1,.3218.23314l.00483.00957a.29322.29322,0,0,1-.238.31224l-.02394.00008a.28954.28954,0,0,1-.30256-.21889.3182.3182,0,0,1,.23787-.336ZM2.86846,20.41716l.00954-.00463.06214-.01942a.27483.27483,0,0,1,.3253.21271h0l.00126.006.00967.01911a.27952.27952,0,0,1-.21877.32651l-.00954.00487a.308.308,0,0,1-.37425-.19466.28781.28781,0,0,1,.1947-.3504Zm.30412,1.64541a.28956.28956,0,0,1,.25985.30046l-.00949.00486a.29091.29091,0,0,1-.31966.24558l-.01438-.00473a.2702.2702,0,0,1-.23111-.291.28213.28213,0,0,1,.306-.25606h0Zm.49154,1.80268c.00966.0191.00981.043.01942.06215l.0098.043a.27212.27212,0,0,1-.21528.31888h0l-.01784.0029a.27963.27963,0,0,1-.32651-.21877.28515.28515,0,0,1,.22584-.33405l.012-.00208a.27117.27117,0,0,1,.29257.12811ZM1.993,21.62743a.26568.26568,0,0,1,.26213-.26447l.0383.00461a.3025.3025,0,0,1,.26.32434.27617.27617,0,0,1-.30721.24114h0l-.00281-.00032a.27.27,0,0,1-.25215-.28665Zm.3985,1.35788a.29291.29291,0,0,1,.3361.23787.2768.2768,0,0,1-.15657.30708.18313.18313,0,0,1-.07171.02431.275.275,0,0,1-.32541-.21293l0,0h0L2.1728,23.3358l-.00968-.01914a.29109.29109,0,0,1,.22845-.33127Zm-.90281-.62314.05263-.01459a.2883.2883,0,1,1-.25692.36977.2931.2931,0,0,1,.20429-.35509ZM1.69482,24.573a.2965.2965,0,0,1-.28381-.30032l.00474-.01438.00956-.00484a.2708.2708,0,0,1,.27655-.26493h0l.00947.00037.01439.00473a.26582.26582,0,0,1,.24982.20952.09707.09707,0,0,1,.00516.08136.27914.27914,0,0,1-.26955.28839h0Zm1.27032.37739a.29353.29353,0,0,1-.2571.3219.309.309,0,0,1-.31212-.21407.30281.30281,0,0,1,.23787-.33612.2861.2861,0,0,1,.31662.15179c.00967.01911.00982.043.01942.06214ZM3.84106,25.995a.29578.29578,0,0,1-.09082.03391.272.272,0,0,1-.32165-.20926l-.00487-.0095a.28516.28516,0,0,1,.22583-.33405h0l.012-.00208a.28957.28957,0,0,1,.31185.16619c.00966.01911.0098.043.01941.06214a.28629.28629,0,0,1-.15177.29282Zm.92264.78113a.31785.31785,0,0,1-.3695-.20907.30307.30307,0,0,1,.21865-.35045l.043-.00983a.27112.27112,0,0,1,.29774.20932.29545.29545,0,0,1-.18986.36Zm.927.69484A.28546.28546,0,0,1,5.355,27.3288l-.01927-.03832-.00011-.024a.2718.2718,0,0,1,.17476-.34236l.01043-.00318.07168-.02427a.28727.28727,0,0,1,.28344.20461.29146.29146,0,0,1-.18367.369l-.00147.0005Zm-.1559-1.70846a.38.38,0,0,1-.10519.0292.2746.2746,0,0,1-.2735-.13763c-.00965-.01911-.0098-.043-.0194-.06214l-.01941-.06213a.287.287,0,0,1,.2594-.31212h0l.00241-.0002a.28.28,0,0,1,.31087.2452l.0015.01678a.28635.28635,0,0,1-.15671.28311Zm.84558.67605a.261.261,0,0,1-.31516-.1921l-.00171-.00753-.0145-.02864a.29334.29334,0,0,1,.18037-.35512l.02392-.00009a.27689.27689,0,0,1,.34671.182h0l.00355.01276a.11276.11276,0,0,1,.00506.05739l.01434.00475a.29663.29663,0,0,1-.24259.32666Zm1.189.38251a.26407.26407,0,0,1-.22795.29579h0l-.0292.00213-.00963.00484a.28738.28738,0,0,1-.30281-.26675.28068.28068,0,0,1,.26269-.29755l.01837-.00054a.28731.28731,0,0,1,.28337.2046.08193.08193,0,0,1,.00506.05754Zm-.56593-1.30924a.29676.29676,0,0,1-.23528-.15694.26765.26765,0,0,1-.0294-.15306.283.283,0,0,1,.2995-.26556l.00008,0h0l.0104.0008.00957-.00482a.30252.30252,0,0,1,.25994.32435.28947.28947,0,0,1-.31486.25544Zm.71583.58567-.01941-.03824a.09266.09266,0,0,1-.00031-.0718.26383.26383,0,0,1,.23241-.29189h0l.01519-.00129.01911-.00964a.30127.30127,0,0,1,.30282.26675.29526.29526,0,0,1-.27146.31715h0a.28682.28682,0,0,1-.27843-.171Zm2.26121.36816c.01975.134.02994.27276.04486.39715-.0042.13409.001.2394-.008.36389.00054.11968.02488.2153-.09954.23026-.26319.02514-.5361.00719-.785.01311a.63784.63784,0,0,1-.26821-.03229.20942.20942,0,0,1-.13495-.21953.43059.43059,0,0,1,.14766-.1825l.60616-.41439c.11937-.07234.21956-.135.339-.20736.05265-.01458.10993-.04357.14361-.00064Zm-1.50619-2.837a.28612.28612,0,1,1,.23787-.3361.28115.28115,0,0,1-.2176.3327Zm3.51593,2.61264a6.52146,6.52146,0,0,1,.31606,1.0997.17079.17079,0,0,1,.01974.134l-.04271.08159a.212.212,0,0,1-.1913.04871l-.82346-.01545-.383.00167a.32852.32852,0,0,1-.168-.095c-.09178-.18151-.2227-.55914-.28557-.70726a4.26568,4.26568,0,0,0-.2133-.58791.25183.25183,0,0,1,.00859-.22025.2458.2458,0,0,1,.16231-.106c.06226.0045.13889.0138.1916.02309.37846.06056.73288.0973,1.08249.12446a.37791.37791,0,0,1,.24922.06591.45811.45811,0,0,1,.07736.153Zm-.70163-1.67251c.0633.24391.16983.50192.20915.74589.02457.14351-.09514.14409-.19549.18284s-.22948.068-.33469.09721c-.129.0293-.27264.05386-.3922.07833l-.07181.00033a.1218.1218,0,0,1-.02929-.12907,3.57653,3.57653,0,0,1,.1036-.38825l.22673-.69036a.32087.32087,0,0,1,.12358-.20642.21616.21616,0,0,1,.24925.06593.75064.75064,0,0,1,.11122.24377ZM9.76815,21.77485a.30115.30115,0,0,1-.29773-.20932c-.00012-.02395-.005-.0335-.00506-.05739a.28541.28541,0,0,1,.25238-.30751l.02394-.00013a.29716.29716,0,0,1,.3028.26678.29051.29051,0,0,1-.27245.30742h0Z"/></g></svg>