<?xml version="1.0" encoding="utf-8"?>
<!-- Generator: Adobe Illustrator 25.4.1, SVG Export Plug-In . SVG Version: 6.00 Build 0)  -->
<svg version="1.1" id="Capa_1" xmlns="http://www.w3.org/2000/svg" xmlns:xlink="http://www.w3.org/1999/xlink" x="0px" y="0px"
	 viewBox="0 0 23.9 43.4" style="enable-background:new 0 0 23.9 43.4;" xml:space="preserve">
<style type="text/css">
	.st0{fill:#FF3737;}
</style>
<g>
	<path class="st0" d="M18.8,2.8c-0.3-1.7-1.4-2.5-3-2.7L14.2,0c-0.6,0-1.5,0.2-2.2,0.4C9,1.1,6.4,2.6,4.3,4.8
		C2.9,6.3,1.9,7.9,1.2,10c1.2-0.6,2.3-1.1,3.5-1.5C6.3,8,7.9,7.7,9.5,7.8c1,0.1,2,0.5,3,0.7c1.5,0.3,3,0.5,4.5,0
		c0.4-0.1,0.9-0.3,1.1-0.9c-0.8,0-1.5,0.2-2.3,0.3c-1.4,0.1-2.6-0.3-3.8-1C11.2,6.4,10.4,6,9.5,5.8c0.3-0.4,0.7-0.5,1-0.7
		c1.4-0.8,2.8-1.5,4.4-1.5c0.9,0,1.5-0.7,2.1-1.4c0.4,0.4,0.7,0.8,1.2,1c0.2,0.1,0.4,0.2,0.5,0.1C18.9,3.2,18.8,3,18.8,2.8z
		 M14.5,2.7c-0.5,0-1-0.4-1-1c0-0.5,0.4-1,1-1c0.5,0,1,0.5,1,1C15.5,2.3,15.1,2.7,14.5,2.7z"/>
	<path class="st0" d="M17.4,28.8c0.5-3.8,0-7.4-1-11.1c-0.6-2.1-1.4-4.1-1.9-6.2c-0.1-0.6-0.1-1.2,0-1.9c-0.7,0.8-1,1.7-1.2,2.6
		c-0.4,2.7,0.2,5.2,0.8,7.8c0.5,2.2,0.9,4.3,1.1,6.6c0.1,1,0,2.1,0.1,3.1c0.5-0.6,1.1-0.8,1.8-0.7C17.3,28.9,17.3,28.9,17.4,28.8z"
		/>
	<path class="st0" d="M8.6,31.7L5.3,18.9l0,0c-0.4-1.5-0.9-3.1-1.3-4.6c-0.3-1-0.4-1.9-0.6-2.9c-0.1-0.7,0.1-1.4,0.3-2
		c-2.2,0.7-3.9,2.9-3.7,5.5c0.4,1.7,6.9,16.5,7.2,16.8L8.6,31.7z"/>
	<path class="st0" d="M0.4,16.6L0.4,16.6z"/>
	<path class="st0" d="M9.5,12c0.8,0,1.3-0.2,2-0.1c0.3,0,0.3-0.1,0.4-0.3c0.1-0.7,0.5-1.3,0.8-1.9c0.1-0.2,0.2-0.2-0.1-0.3
		c-2.3-0.7-4.7-1.2-7-0.1C5,9.6,4.5,9.9,4.4,10.7c0,0.3,0.1,0.4,0.3,0.5c0.9,0.3,0.8,0.3,1.8,0.6C7.3,12,8.7,12.1,9.5,12z"/>
	<path class="st0" d="M17.4,28.8c-0.3,0-0.6,0-0.9,0c-0.6,0.1-1.1,0.2-1.2,0.9c-0.2,3-1,5.8-2.9,8.2c0.4,0.2,0.5,0.7,1,0.8
		c1.2-1.2,2-2.7,2.6-4.3c0.7-1.7,1.1-3.5,1.4-5.3C17.4,28.9,17.4,28.9,17.4,28.8z"/>
	<path class="st0" d="M13.5,38.6c-0.4-0.2-0.4-0.8-1-0.8c-0.1,0.1,0.8,0.5,0.7,0.6c-0.3-0.8-1.7-0.7-2.6-1.1l-0.4-0.1
		c-0.6-0.2-0.5,0.1-0.5,0.6c-0.3,2-1.1,3.9-2.4,5.5c0,0,0,0.1,0.1,0.1C9.6,42.2,11.9,40.7,13.5,38.6z"/>
	<path class="st0" d="M11.9,15c0.1-0.6-0.2-1.1-0.2-1.7c0-0.3-0.1-0.4-0.4-0.4c-0.5,0-1,0.1-1.5,0.1c-1.8,0-3.4-0.5-5.4-0.9
		c0,0.3,0,0.8,0.1,1.1c0.5,1.7,1.6,1.4,2.7,1.6s2.1,0.3,3.2,0.3C11,15.1,11.4,15.2,11.9,15z"/>
	<path class="st0" d="M5.4,15.5c0.2,0.9,0.1,0.4,0.1,0.5c0.1,1.6,1.3,1.9,2.6,2.1c1.4,0.2,2.8,0.3,4.3,0.1c0.3,0,0.4-0.1,0.3-0.4
		c-0.2-0.4-0.3-0.9-0.4-1.3c0-0.4-0.2-0.4-0.5-0.4c-2.1,0.3-2.2,0.5-4.3-0.1C7.4,15.9,5.5,15.4,5.4,15.5z"/>
	<path class="st0" d="M6.4,18.7c0.2,0.6,0.4,1.1,0.6,1.7c0.1,0.4,0.3,0.5,0.6,0.6c1.9,0.5,3.8,0.5,5.7,0.4c0.3,0,0.3-0.1,0.2-0.4
		c-0.1-0.5-0.3-1-0.4-1.5c0-0.2-0.2-0.2-0.3-0.2c-0.5,0-0.9,0-1.4,0.1c-1.1,0.1-2.3-0.1-3.4-0.3C7.5,18.9,7,18.7,6.4,18.7z"/>
	<path class="st0" d="M11,25.4c-0.9,0-1.7-0.2-2.6-0.4c0.2,0.7,0.3,1.3,0.5,2c0.2,0.5,0.7,0.3,1,0.4c1,0.2,3.1,0.1,4.2,0
		c-0.2-0.4-1.5-0.1-1.8-0.2c0.3-0.4,0.4-0.8,0.4-1.3c0-0.3-0.1-0.5-0.5-0.5C11.8,25.5,11.4,25.5,11,25.4z"/>
	<path class="st0" d="M11.8,22.4c-0.7,0.1-1.4-0.2-2.1-0.1c-0.4,0.1-0.9,0.2-0.9,0.7s0.4,1.1,0.9,1.1c0.8,0,0.9,0.2,1.6,0.3
		c0.6-0.1,2,0.3,2.6,0C13.9,23.6,12.9,22.4,11.8,22.4z"/>
	<path class="st0" d="M9.9,35.3c0,1,0,1,0.9,1.2c0.6,0.1,1.2,0.2,1.7,0.3c0.3,0,0.5-0.1,0.6-0.4c0.1-0.4,0.5-0.8,0.5-1.3
		c0-0.3,0-0.4-0.3-0.4c-1,0-2-0.1-2.9-0.4c-0.3-0.1-0.6,0-0.5,0.4C9.9,35,9.9,35.2,9.9,35.3z"/>
	<path class="st0" d="M14.1,6.2C16,5.7,17.7,6.4,19.4,7c1.3,0.4,2.7,0.5,4.1,0.1c0.1,0,0.2-0.1,0.4-0.2c-0.8,0-1.5,0.1-2.3-0.2
		c0.4-0.2,0.8-0.3,1.1-0.5c-1.8,0.2-3.6-0.4-5.4-0.7C16.2,5.4,15.1,5.6,14.1,6.2z"/>
	<path class="st0" d="M8.6,31.7c-0.6,0-1.1-0.2-1.6-0.5c1.1,2.6,1.6,5.2,0.9,8.1c0.5-0.3,0.5-0.7,0.6-1.1c0.4-1.6,0.4-3.3,0.2-5
		C8.7,32.7,8.8,34.3,8.6,31.7z"/>
	<path class="st0" d="M12.5,31.7c-0.9,0-1.8-0.2-2.7-0.4c-0.2,0.6,0.1,1.2,0.1,1.8c0,0.2,0.2,0.3,0.4,0.4c0.7,0.2,1.1,0.3,1.7,0.3
		c0.1,0,0.2-0.1,0.2-0.2c0-0.5,0.2-1,0.4-1.4C12.6,32,12.7,31.8,12.5,31.7z"/>
	<path class="st0" d="M9.5,29.8c-0.1,0.4,0,0.8,0.4,0.8c0.5,0.1,1.2,0.2,1.6,0c0.7-0.7,2.6-1.2,3.1-2.1c-0.9,0-3,0-3.9,0
		C10.1,28.8,9.8,29.2,9.5,29.8z"/>
	<path class="st0" d="M13.5,28.6c-0.7,0.6-1.3,1.3-2,1.9c0,0-0.7,0.1-0.7,0.2c0.9,0,2.5,0,3.4,0c0.3,0,0.4-0.1,0.4-0.4
		c0-0.6,0-1.2,0-1.8C14.2,28.5,13.8,28.5,13.5,28.6z"/>
	<path class="st0" d="M11,25.4c0.3,0.2,0.7,0.1,1,0.1c0.6-0.1,0.6,0.2,0.6,0.6c0,0.1,0,0.2,0,0.2c0,0.3-0.4,0.6-0.3,0.9
		s0.6,0,0.9,0.2c1.6,0.1,1.6,0.1,1.4-1.5c-0.1-0.4-0.1-0.7-0.7-0.6C12.8,25.5,11.9,25.4,11,25.4z"/>
	<path class="st0" d="M12.5,31.7c0,0.1,0.1,0.2,0,0.3c-0.4,0.5-1.1,1.1-1.2,1.7c0.6,0.2,1.8,0.1,2.5,0.1c0.2,0,0.2-0.2,0.3-0.3
		c0.1-0.6,0.2-1.2,0.4-1.8C13.8,31.7,13.1,31.7,12.5,31.7z"/>
	<path class="st0" d="M13.9,24.4c-0.7-0.3-3.1-0.5-3.9-0.4c-0.5,0.1-0.8-0.3-1-0.8s0.2-0.7,0.5-0.8c0.1,0,3.4,0,3.5,0
		c-0.6-0.1-4.6-0.4-5.2-0.5c-0.3,0-0.4,0-0.3,0.3c0.1,0.2,0.2,0.5,0.2,0.7c0.1,0.7,0.1,1.2,1.3,1.3C10.1,24.3,12.9,24.6,13.9,24.4z"
		/>
	<path class="st0" d="M10.1,22.3c0.8,0.2,3.1,0.8,3.6,1.4c0.2,0.2-0.2,0.6,0.1,0.7c0.1,0,0.4-0.1,0.4-0.3c0-0.2-0.1-0.4-0.1-0.5
		c-0.1-0.5-0.2-0.9-0.3-1.4C13.1,22.4,10.7,22.1,10.1,22.3z"/>
	<path class="st0" d="M9.5,30c0.5-0.4,0.9-1,1.4-1.5c-0.6-0.1-1.1-0.2-1.7-0.3C9.2,28.7,9.3,29.5,9.5,30z"/>
	<path class="st0" d="M15.4,3.8c-0.8,0-1.3,0.3-1.1,1.2c0,0.2-0.1,0.5-0.2,0.8C14.9,5.3,15.3,4.6,15.4,3.8z"/>
	<path class="st0" d="M18.1,3.5c-0.3-0.1-0.6-0.2-0.9-0.4c0,0.7-0.1,1.4-0.5,2.1C17.4,4.8,17.8,4.2,18.1,3.5z"/>
	<path class="st0" d="M16.2,6.3c-0.1,0.6-0.3,0.9-0.6,1.2C16.4,7.6,16.5,7.4,16.2,6.3z"/>
	<path class="st0" d="M17.6,6.5c0,0.4-0.2,0.6-0.3,0.9C17.9,7.4,17.9,7.3,17.6,6.5z"/>
</g>
</svg>
