<svg id="Iconos" xmlns="http://www.w3.org/2000/svg" viewBox="0 0 29.99928 41.56644"><defs><style>.cls-1,.cls-2,.cls-4{fill:none;stroke:#00e9c5;}.cls-1,.cls-2{stroke-linecap:round;stroke-linejoin:round;}.cls-2{stroke-width:0.8983px;}.cls-3{fill:#00e9c5;}.cls-4{stroke-miterlimit:10;stroke-width:0.15px;}</style></defs><path class="cls-1" d="M12.65756,11.92489l7.2,8.5a1.99069,1.99069,0,0,1-.2,2.6h0a1.56891,1.56891,0,0,1-2.2-.1l-9.3-10.6a2.60516,2.60516,0,0,1-.5-2.3h0a2.228,2.228,0,0,1,2.1-1.9l4.4.4a2.33554,2.33554,0,0,1,1.9,2.9l-.8,3.5"/><path class="cls-1" d="M13.75756,18.82489l-.90323,3.32257a.96862.96862,0,0,0,.06774.6861l2.64921,5.31679a11.62865,11.62865,0,0,1,.88628,3.67454l-.30787,7.266c0,1.3-.54868,1.9756-1.74868,1.9756h0c-1.2,0-2.37741-.46474-2.27741-1.76474l.21108-7.10652A2.98215,2.98215,0,0,0,12.00439,30.74L9.05756,25.0249,7.58092,31.16935c-.47664,1.03293-.60458,1.68888-1.20458,2.88888L4.3662,39.03079a1.988,1.988,0,0,1-2.6798,1.10332h0a1.74471,1.74471,0,0,1-.82033-2.759l3.26336-8.45265L7.78378,9.57485"/><circle class="cls-2" cx="12.75756" cy="3.64915" r="3.2"/><path class="cls-1" d="M21.53936,16.07172l-.63159.29153a3.483,3.483,0,0,1-.9644.34132,3.95409,3.95409,0,0,1-2.19491-.80144l-3.7909-2.47824"/><path class="cls-1" d="M16.10831,11.0291l3.2778,2.38907,1.83452-.88322"/><g id="Iconos-2"><path class="cls-3" d="M29.99683,11.10632c.00121-.07179-.00259-.13411-.00138-.2059a2.16939,2.16939,0,0,0-.05667-.633,2.77688,2.77688,0,0,0-.27666-.651,3.45367,3.45367,0,0,0-.39752-.58115,4.6408,4.6408,0,0,0-.53648-.56908,5.53514,5.53514,0,0,0-.55758-.45924,1.68244,1.68244,0,0,0-.19859-.15173,5.26245,5.26245,0,0,0-.50251-.30989,2.81807,2.81807,0,0,0-.256-.15747c-.14741-.06467-.28982-.13881-.43723-.20348a1.17842,1.17842,0,0,0-.18082-.07,2.75887,2.75887,0,0,0-.39013-.15487,7.02867,7.02867,0,0,0-.81025-.22877,2.86012,2.86012,0,0,0-2.93819.75151,1.07679,1.07679,0,0,0-.15662.20813,3.55992,3.55992,0,0,0-.46956.60045,2.38974,2.38974,0,0,0-.202.34146,2.913,2.913,0,0,0-.28182.54128l-.12895.27087c-.05553.17626-.12056.34758-.17615.52381a1.7203,1.7203,0,0,0-.05637.22415l-.005.00951c-.05637.22415-.10321.4532-.14506.67282-.04729.253-.07059.50643-.09386.75983-.01346.23442-.01246.46427-.00685.70862a13.81114,13.81114,0,0,0,.524,3.37494q.136.46908.28677.90974a.25315.25315,0,0,1-.018.22l-.88957,1.68532-.6716,1.24362-.445.85467a.11346.11346,0,0,0,.041.12992l.052.03917.99708.51914a.12111.12111,0,0,0,.16833-.04512l.50477-.99254.46968-.90208.96948-1.88521a.47905.47905,0,0,1,.209-.19292c.24591-.10131.47731-.19808.71372-.30433a18.26129,18.26129,0,0,0,3.58124-2.00992A6.59031,6.59031,0,0,0,29.99683,11.10632ZM27.23737,8.84879a.23463.23463,0,0,1,.29972.11981.25.25,0,0,1-.07158.27657c-.01941.01406-.02891.00911-.04337.01367a.213.213,0,0,1-.29513-.10541l-.0095-.005-.01364-.04328A.2409.2409,0,0,1,27.23737,8.84879Zm-.4484.76839.02891-.00911a.23273.23273,0,0,1,.28487.14832.24472.24472,0,0,1-.15783.27993.21965.21965,0,0,1-.27537-.14338A.21718.21718,0,0,1,26.789,9.61718Zm-.3728-1.208a.23364.23364,0,0,1,.30463.11036l.02315.04822a.21968.21968,0,0,1-.1339.28037l-.01445.00456a.20759.20759,0,0,1-.27573-.11947l-.00456-.01446A.23713.23713,0,0,1,26.41617,8.40914Zm-.34771.76048a.2438.2438,0,0,1,.11929.02587.22889.22889,0,0,1,.12641.17448l-.005.00951a.23291.23291,0,0,1-.20034.2457l-.00951-.005a.23013.23013,0,0,1-.22135-.22392l.00492-.00944A.21725.21725,0,0,1,26.06846,9.16962ZM25.6618,7.9802l.0144-.00459a.218.218,0,0,1,.23665.17147l-.00535.03346a.22891.22891,0,0,1-.21935.2358.20758.20758,0,0,1-.2218-.2l-.0045-.01442A.21224.21224,0,0,1,25.6618,7.9802Zm-.429.75433a.22583.22583,0,1,1,.0309.4506l.005-.0095a.22634.22634,0,0,1-.2358-.21936l.00492-.00945A.20692.20692,0,0,1,25.2328,8.73453Zm.63021.992a1.46673,1.46673,0,1,1-1.97831.6236A1.47127,1.47127,0,0,1,25.863,9.72651Zm-1.28825,4.09706.02885-.00914a.22663.22663,0,0,1,.26212.07614.18664.18664,0,0,1,.0277.06268.24581.24581,0,0,1-.14376.29932.21911.21911,0,0,1-.28032-.13386l-.01406-.01941A.21725.21725,0,0,1,24.57476,13.82357Zm.45444-.84975a.21973.21973,0,0,1,.27543.14341.24411.24411,0,0,1-.13882.28982.23284.23284,0,0,1-.28988-.13885l-.0045-.01443A.22334.22334,0,0,1,25.0292,12.97382Zm-.60746-.03869a.166.166,0,0,1-.11555.03643.237.237,0,0,1-.2263-.21441.22336.22336,0,0,1,.44566-.0214l.00456.01446A.21968.21968,0,0,1,24.42174,12.93513Zm-.51718.87743-.005.0095a.233.233,0,0,1-.2333-.08522.28529.28529,0,0,1-.03222-.07719l-.00459-.0144a.24176.24176,0,0,1,.11911-.25182l.05776-.01826a.22046.22046,0,0,1,.26051.17189A.21063.21063,0,0,1,23.90456,13.81256Zm-.42947-1.26165a.22891.22891,0,0,1-.2358-.21936.23778.23778,0,0,1,.0943-.20432.21888.21888,0,0,1,.11549-.03646.23756.23756,0,0,1,.24576.20038l-.005.00951.00951.00494A.24961.24961,0,0,1,23.47509,12.55091Zm-.4252.81665a.23574.23574,0,0,1-.28451-.17222.22546.22546,0,0,1,.01681-.14817.24476.24476,0,0,1,.08287-.08969l.02432-.0235a.235.235,0,0,1,.06232-.00381.20352.20352,0,0,1,.25146.143l.00911.02891A.22985.22985,0,0,1,23.04989,13.36756Zm1.69-5.81911a.23463.23463,0,0,1,.29972.1198l.01361.04334a.22363.22363,0,0,1-.16728.275.23359.23359,0,0,1-.27005-.17678A.24133.24133,0,0,1,24.7399,7.54845Zm-.83558,1.60484a.21991.21991,0,0,1,.28031.13386l.00456.01446a.185.185,0,0,1-.06129.2336.149.149,0,0,1-.04826.0232l-.03382.01856A.21659.21659,0,0,1,23.775,9.448l-.0045-.01442A.21992.21992,0,0,1,23.90432,9.15329ZM23.586,10.4601a.21394.21394,0,0,1-.25641-.1335.217.217,0,0,1,.12892-.27081l.01445-.00456a.2266.2266,0,0,1,.26136.124A.2327.2327,0,0,1,23.586,10.4601Zm-1.7146,1.18341a.22733.22733,0,0,1-.30959-.10085.21731.21731,0,0,1,.07159-.27657l.02432-.02351.01445-.00456a.20938.20938,0,0,1,.28563.10046l.0095.00495.02321.04825A.24178.24178,0,0,1,21.8714,11.64351Zm.41533-.7977a.23241.23241,0,0,1-.29516-.10535.24863.24863,0,0,1,.11531-.31414.22358.22358,0,0,1,.29477.12931l.01856.03383A.21376.21376,0,0,1,22.28673,10.84581Zm.49289-.85382a.14837.14837,0,0,0-.04829.02311.24587.24587,0,0,1-.27995-.15776.207.207,0,0,1,.12895-.27087l.005-.00951a.23289.23289,0,0,1,.28982.13882l-.005.00951A.22746.22746,0,0,1,22.77962,9.992Zm.47426-.88769c-.00495.00951-.02891.00912-.04828.02312l-.0095-.005a.23317.23317,0,0,1-.28-.15777.22337.22337,0,1,1,.42828-.1271A.22747.22747,0,0,1,23.25388,9.1043Zm.41114-.83605a.10658.10658,0,0,1-.06723.01325.20944.20944,0,0,1-.24616-.17642l-.00455-.01445a.23552.23552,0,0,1,.19585-.26013l.019.00987a.21954.21954,0,0,1,.2412.18593l-.005.0095.00456.01446A.21071.21071,0,0,1,23.665,8.26825Zm-.76165,2.64519c.0194-.01406.0433-.0137.04825-.0232l.04828-.02312a.22358.22358,0,0,1,.275.16734.21129.21129,0,0,1-.01222.16256.24911.24911,0,0,1-.14065.10785l-.01446.00456a.22785.22785,0,0,1-.24271-.0902c-.00909-.02882-.02315-.04823-.03226-.07713A.21549.21549,0,0,1,22.90337,10.91344Zm-.574,2.00656a.05677.05677,0,0,1-.03842.00416.21646.21646,0,0,1-.26586-.13842l.00039-.024-.0095-.00495a.23462.23462,0,0,1,.17678-.27005.22059.22059,0,0,1,.26061.17186l.00455.01445A.24144.24144,0,0,1,22.32939,12.92Zm.44949-.84024-.005.0095c-.0144.00459-.0239-.00036-.04786-.00075l-.00039.024a.24426.24426,0,0,1-.27993-.15783.20419.20419,0,0,1,.1145-.26631l.0194-.01406a.2347.2347,0,0,1,.30008.0959l.00456.01445A.222.222,0,0,1,22.77888,12.07976Zm1.74036-3.34258a.2145.2145,0,0,1-.25717-.08564.2379.2379,0,0,1-.03265-.05318.2198.2198,0,0,1,.1339-.28037l.01445-.00456a.211.211,0,0,1,.28034.134A.22332.22332,0,0,1,24.51924,8.73718ZM22.0586,14.831c-.03978-.2018-.06017-.41759-.0905-.61447a.45491.45491,0,0,1-.01089-.21084.153.153,0,0,1,.15052-.12681.34886.34886,0,0,1,.16142.08405l.39036.43259a2.33312,2.33312,0,0,1,.202.23794c.01856.03383.05616.0775.02691.1106l-.04333.01361c-.10109.03187-.21169.05879-.30778.08118a1.53675,1.53675,0,0,1-.28312.03367C22.15809,14.89487,22.09541,14.92258,22.0586,14.831Zm1.19225,1.4657a4.43807,4.43807,0,0,1-.81062.37455.12775.12775,0,0,1-.10109.03187l-.07143-.02511a.15431.15431,0,0,1-.05993-.13987l-.09007-.63833L22.07,15.59736a.24543.24543,0,0,1,.05972-.13791c.13571-.09834.40627-.24714.51268-.31242a3.42278,3.42278,0,0,0,.43479-.23229.20822.20822,0,0,1,.17747-.01627.25219.25219,0,0,1,.09871.11181,1.37454,1.37454,0,0,0,.00709.14853c-.00507.31112.00959.58435.02429.85751a.25824.25824,0,0,1-.02255.20559A.2552.2552,0,0,1,23.25085,16.29669Zm1.21888-.74141a5.28839,5.28839,0,0,1-.55483.2543c-.1011.03186-.12346-.06428-.16063-.132a1.666,1.666,0,0,1-.11084-.25081c-.04632-.09653-.07324-.20713-.11-.29872l-.0087-.05278a.09178.09178,0,0,1,.09159-.03682,2.48932,2.48932,0,0,1,.32024.034l.56343.10019a.216.216,0,0,1,.17135.06512.17286.17286,0,0,1-.02257.2055A.45416.45416,0,0,1,24.46973,15.55528Zm1.11185-.9299a.22587.22587,0,0,1-.30958-.10085.16127.16127,0,0,1-.01826-.05776.21158.21158,0,0,1,.13806-.242.20816.20816,0,0,1,.28569.10049.22886.22886,0,0,1-.00357.21541A.1611.1611,0,0,1,25.58158,14.62538Zm1.25583-2.412a.23583.23583,0,0,1-.29929-.14382.23082.23082,0,0,1,.11485-.29021l.04334-.01361a.223.223,0,0,1,.28982.13881l-.01446.00456A.23641.23641,0,0,1,26.83741,12.2134Zm-1.00595,1.19021a.223.223,0,0,1,.28981.13882.23922.23922,0,0,1-.19123.2746.26139.26139,0,0,1-.24691-.12855A.223.223,0,0,1,25.83146,13.40361Zm.61-.40657a.14837.14837,0,0,1-.04829.02311.24481.24481,0,0,1-.29477-.12931l.005-.0095a.24488.24488,0,0,1,.453-.17457A.22059.22059,0,0,1,26.44149,12.997Zm.885-1.69984-.01941.01407a.23481.23481,0,1,1,.14377-.29933A.23079.23079,0,0,1,27.32653,11.2972Zm.42064-.8311a.25509.25509,0,0,1-.203-.4678l.005-.00951a.28087.28087,0,0,1,.35211.13507c-.00037.02391-.00076.04787.00875.05281A.2359.2359,0,0,1,27.74717,10.4661Zm.45366-.80183a.222.222,0,0,1-.29513-.10541l.005-.0095-.01865-.0338a.211.211,0,0,1,.15291-.27048l.01445-.00455a.22.22,0,0,1,.27042.15287l.00455.01446A.22612.22612,0,0,1,28.20083,9.66427Zm-.31391,1.62295a.24225.24225,0,0,1,.33354.10124.12929.12929,0,0,1,.02276.07219.22515.22515,0,0,1-.12856.24691.24073.24073,0,0,1-.324-.0963.23439.23439,0,0,1,.0963-.324Zm-.22221,1.28451-.0095-.005-.00492.00945a.23139.23139,0,0,1-.28526-.12436l-.00456-.01446a.25757.25757,0,0,1,.11036-.30463.23367.23367,0,0,1,.30464.11035l.01369.04331A.21132.21132,0,0,1,27.66471,12.57173Zm-.92258,1.656a.23359.23359,0,0,1-.27005-.17678.2266.2266,0,0,1,.124-.26136c.024.00039.02891-.00911.04333-.01361a.21955.21955,0,0,1,.2655.16232l.01406.01941A.25931.25931,0,0,1,26.74213,14.22778Zm.50194-.82495-.04327.01364a.21664.21664,0,0,1-.26592-.13845l.005-.00951-.00459-.01439a.22371.22371,0,0,1,.16736-.275.23458.23458,0,0,1,.27.17684A.21167.21167,0,0,1,27.24407,13.40283ZM28.603,10.83928l-.02927.033-.08172.01786a.21355.21355,0,0,1-.21685-.20949l-.00456-.01445a.2315.2315,0,0,1,.19048-.22675l.00951.00495a.22209.22209,0,0,1,.23625.19543A.21292.21292,0,0,1,28.603,10.83928Z"/></g><path class="cls-4" d="M24.35811,10.36877A1.06183,1.06183,0,1,1,26.02069,11.69"/><path class="cls-4" d="M24.52875,11.86072a1.06182,1.06182,0,0,1-.17066-1.49192"/><path class="cls-4" d="M26.02067,11.69005a1.06183,1.06183,0,0,1-1.49192.17067"/><path class="cls-4" d="M25.26212,10.01347l.659.80629c.24337.476-.66592,1.3357-1.23433.77095l-.53469-.82052"/></svg>