<?xml version="1.0" encoding="utf-8"?>
<!-- Generator: Adobe Illustrator 25.4.1, SVG Export Plug-In . SVG Version: 6.00 Build 0)  -->
<svg version="1.1" id="Iconos" xmlns="http://www.w3.org/2000/svg" xmlns:xlink="http://www.w3.org/1999/xlink" x="0px" y="0px"
	 viewBox="0 0 40.7 34.8" style="enable-background:new 0 0 40.7 34.8;" xml:space="preserve">
<style type="text/css">
	.st0{enable-background:new    ;}
	.st1{fill:#00E9C5;}
</style>
<g class="st0">
	<path class="st1" d="M40.6,2.5l-6.9,30.4c-0.4,1.6-1,2-2.5,2h-3.4c-1.5,0-2-0.6-2.5-2c-1.9-5.4-3.3-10.9-4.9-16.3
		c-1.6,5.5-3,11-4.9,16.3c-0.5,1.4-1.1,2-2.6,2H9.5c-1.6,0-2.1-0.5-2.5-2L0.1,2.5C0.1,2.3,0,2,0,1.8C0,0.2,1.2,0,2.6,0h2.6
		c1.6,0,2,0.8,2.2,2.1l4.5,23.3c1-3.7,2.1-7.5,3.1-11.2c0.5-1.9,1-3.9,1.7-5.8c0.8-2.2,2.9-1.7,4.8-1.7c1.2,0,2,0.5,2.4,1.7
		c0.7,1.8,1.1,3.8,1.7,5.7c1,3.7,2.1,7.4,3.1,11.1l4.5-23.1C33.5,0.8,33.9,0,35.5,0h2.6c1.2,0,2.6,0.2,2.6,1.7
		C40.7,2,40.6,2.2,40.6,2.5z"/>
</g>
</svg>
