<svg xmlns="http://www.w3.org/2000/svg" width="47.002" height="30.654" viewBox="0 0 47.002 30.654">
  <g id="usuario_1_" data-name="usuario (1)" transform="translate(0 -85.333)">
    <g id="Group_422" data-name="Group 422" transform="translate(16.348 85.333)">
      <g id="Group_421" data-name="Group 421" transform="translate(0 0)">
        <path id="Path_558" data-name="Path 558" d="M177.818,85.333a7.152,7.152,0,1,0,7.152,7.152A7.16,7.16,0,0,0,177.818,85.333Zm0,12.261a5.109,5.109,0,1,1,5.109-5.109A5.116,5.116,0,0,1,177.818,97.594Z" transform="translate(-170.666 -85.333)" fill="#050c44"/>
      </g>
    </g>
    <g id="Group_424" data-name="Group 424" transform="translate(32.697 93.507)">
      <g id="Group_423" data-name="Group 423">
        <path id="Path_559" data-name="Path 559" d="M346.443,170.667a5.109,5.109,0,1,0,5.109,5.109A5.116,5.116,0,0,0,346.443,170.667Zm0,8.174a3.065,3.065,0,1,1,3.065-3.065A3.069,3.069,0,0,1,346.443,178.841Z" transform="translate(-341.334 -170.667)" fill="#050c44"/>
      </g>
    </g>
    <g id="Group_426" data-name="Group 426" transform="translate(4.232 93.507)">
      <g id="Group_425" data-name="Group 425">
        <path id="Path_560" data-name="Path 560" d="M49.291,170.667a5.109,5.109,0,1,0,5.109,5.109A5.115,5.115,0,0,0,49.291,170.667Zm0,8.174a3.065,3.065,0,1,1,3.065-3.065A3.069,3.069,0,0,1,49.291,178.841Z" transform="translate(-44.182 -170.667)" fill="#050c44"/>
      </g>
    </g>
    <g id="Group_428" data-name="Group 428" transform="translate(10.218 101.681)">
      <g id="Group_427" data-name="Group 427" transform="translate(0 0)">
        <path id="Path_561" data-name="Path 561" d="M119.949,256a13.3,13.3,0,0,0-13.283,13.283,1.022,1.022,0,1,0,2.044,0,11.24,11.24,0,0,1,22.479,0,1.022,1.022,0,1,0,2.044,0A13.3,13.3,0,0,0,119.949,256Z" transform="translate(-106.666 -256)" fill="#050c44"/>
      </g>
    </g>
    <g id="Group_430" data-name="Group 430" transform="translate(32.551 105.769)">
      <g id="Group_429" data-name="Group 429">
        <path id="Path_562" data-name="Path 562" d="M345.068,298.667A9.2,9.2,0,0,0,340.3,300a1.022,1.022,0,1,0,1.061,1.747,7.154,7.154,0,0,1,10.855,6.12,1.022,1.022,0,1,0,2.044,0A9.207,9.207,0,0,0,345.068,298.667Z" transform="translate(-339.813 -298.667)" fill="#050c44"/>
      </g>
    </g>
    <g id="Group_432" data-name="Group 432" transform="translate(0 105.769)">
      <g id="Group_431" data-name="Group 431">
        <path id="Path_563" data-name="Path 563" d="M13.958,299.993A9.2,9.2,0,0,0,0,307.863a1.022,1.022,0,1,0,2.044,0A7.155,7.155,0,0,1,12.9,301.74a1.022,1.022,0,0,0,1.061-1.747Z" transform="translate(0 -298.667)" fill="#050c44"/>
      </g>
    </g>
  </g>
</svg>
