<?xml version="1.0" encoding="utf-8"?>
<!-- Generator: Adobe Illustrator 25.4.1, SVG Export Plug-In . SVG Version: 6.00 Build 0)  -->
<svg version="1.1" xmlns="http://www.w3.org/2000/svg" xmlns:xlink="http://www.w3.org/1999/xlink" x="0px" y="0px"
	 viewBox="0 0 1080 1080" style="enable-background:new 0 0 1080 1080;" xml:space="preserve">
<style type="text/css">
	.st0{display:none;}
	.st1{fill:#F2F2F2;}
	.st2{clip-path:url(#SVGID_00000168823164457213524340000004275901241426426017_);fill:#EDDCBC;}
	.st3{clip-path:url(#SVGID_00000168823164457213524340000004275901241426426017_);}
	.st4{fill:#2C272E;}
	.st5{clip-path:url(#SVGID_00000168823164457213524340000004275901241426426017_);fill:#1E1E1E;}
	.st6{opacity:0.5;clip-path:url(#SVGID_00000168823164457213524340000004275901241426426017_);fill:#2B2B2B;}
	.st7{fill:#D6CB9D;}
	.st8{clip-path:url(#SVGID_00000168823164457213524340000004275901241426426017_);fill:#2B2B2B;}
	.st9{clip-path:url(#SVGID_00000168823164457213524340000004275901241426426017_);fill:#E8E8E8;}
	.st10{fill:#FFFFFF;}
	.st11{clip-path:url(#SVGID_00000168823164457213524340000004275901241426426017_);fill:#FFF871;}
	.st12{opacity:0.5;clip-path:url(#SVGID_00000168823164457213524340000004275901241426426017_);fill:#D8D0A4;}
	.st13{clip-path:url(#SVGID_00000168823164457213524340000004275901241426426017_);fill:#2C272E;}
	.st14{clip-path:url(#SVGID_00000168823164457213524340000004275901241426426017_);fill:#23170B;}
	.st15{clip-path:url(#SVGID_00000168823164457213524340000004275901241426426017_);fill:#BCB282;}
	.st16{fill:#BCB282;}
	.st17{fill:#FFF871;}
	.st18{opacity:0.5;clip-path:url(#SVGID_00000168823164457213524340000004275901241426426017_);}
	.st19{fill:#D6CD56;}
	.st20{opacity:0.5;clip-path:url(#SVGID_00000168823164457213524340000004275901241426426017_);fill:#D6CD56;}
	.st21{fill:#00E9C5;}
	.st22{font-family:'CachetStd-Bold';}
	.st23{font-size:278.5701px;}
	.st24{font-size:177.8639px;}
	.st25{fill:#898988;}
	.st26{fill:#6B6B6B;}
	.st27{fill:#D1D1D1;}
	.st28{opacity:0.5;fill:#04B290;}
	.st29{fill:#B2B2B2;}
	.st30{fill:#07997D;}
</style>
<g id="Capa_2" class="st0">
	
		<image style="display:inline;overflow:visible;opacity:0.43;" width="1600" height="1155" xlink:href="CEE79FE2CBE4B653.jpg"  transform="matrix(0.7546 0 0 0.7546 -70.7037 104.4977)">
	</image>
</g>
<g id="Capa_4">
	<g>
		<path class="st1" d="M462.1,1044.2c-95.7,0.2-259.2,6.7-351.1-149.7c-42.4-72.2-52.1-236-23.3-294.1
			C115.5,544.4,164.9,498.9,193,443c25.6-50.7,23.1-110.3,23.7-167.1c0.6-56.8,4.4-120.2,44.3-160.7
			c126.3-127.9,318.4-52.8,382.1,16c67.3,72.7,99,178.6,183.9,229.6c25,15,53.6,22.5,80.5,33.8c21.4,9,41.9,20.5,60.7,34.2
			c23.2,16.8,44.2,37.2,58.5,61.9c26.3,45.5,27.5,103.6,6.8,152c-20.6,48.4-61.6,86.8-109.4,108.6c-66.1,30.1-147.6,32-199,83.3
			c-31.5,31.4-45.5,76-70.4,112.8C612.7,1009.5,537.1,1047.5,462.1,1044.2z"/>
	</g>
</g>
<g id="Capa_1">
	<g>
		<defs>
			<path id="SVGID_1_" d="M462.1,1044.2c-95.7,0.2-259.2,6.7-351.1-149.7c-42.4-72.2-52.1-236-23.3-294.1
				C115.5,544.4,164.9,498.9,193,443c25.6-50.7,23.1-110.3,23.7-167.1c0.6-56.8,4.4-120.2,44.3-160.7
				c126.3-127.9,318.4-52.8,382.1,16c67.3,72.7,99,178.6,183.9,229.6c25,15,53.6,22.5,80.5,33.8c21.4,9,41.9,20.5,60.7,34.2
				c23.2,16.8,44.2,37.2,58.5,61.9c26.3,45.5,27.5,103.6,6.8,152c-20.6,48.4-61.6,86.8-109.4,108.6c-66.1,30.1-147.6,32-199,83.3
				c-31.5,31.4-45.5,76-70.4,112.8C612.7,1009.5,537.1,1047.5,462.1,1044.2z"/>
		</defs>
		<clipPath id="SVGID_00000100342549881055824100000017147624283489008557_">
			<use xlink:href="#SVGID_1_"  style="overflow:visible;"/>
		</clipPath>
		<path style="clip-path:url(#SVGID_00000100342549881055824100000017147624283489008557_);fill:#EDDCBC;" d="M445.6,335
			c0,0,13.5-5.1,13.5,11.6c0,16.7-4.9,40.5-9.5,45.6c-4.6,5.1-11.7,7.7-18.1-3.2c0,0-8.4,32.1-16.1,41.1s3.2,21.2,3.2,21.2
			l17.3,35.4l4.6,22.5l-14.8,27.6l-13,18l-23.6-6.4l-62.4-21.9l-37.9-26.4v-17.4l25-36c0,0-18.1-11.2-27.2-59.1
			c0,0-13.9,0.6-12.6-12.2c1.3-12.9-0.3-31.5-0.1-37.3c0.1-5.8,2.1-19.9,9.1-9l-1.3-30.2L290,261l41.8-8.4l61.1,4.5l32.1,31.9
			l6.4,33.7L445.6,335z"/>
		<g style="clip-path:url(#SVGID_00000100342549881055824100000017147624283489008557_);">
			<path class="st4" d="M329.5,306c-1.9,0.5-3.6,0.9-5.4,1.2c-1.7,0.3-3.4,0.6-5.1,0.7c-1.7,0.1-3.4,0-5.2,0.2
				c-1.7,0.2-3.5,0.4-5.1,0.8c-3.4,0.8-6.6,2-9.6,3.8c-2.9,1.8-5.5,4.4-6.9,7.6l-0.5-0.1c0.9-3.7,3.3-6.7,6.2-9.2
				c2.9-2.4,6.3-4.2,9.8-5.4c1.8-0.6,3.5-1.2,5.4-1.7c1.8-0.5,3.6-1.1,5.5-1.2c1.9-0.1,3.8,0.1,5.7,0.5c0.9,0.2,1.9,0.5,2.8,0.9
				c0.9,0.4,1.8,0.8,2.6,1.4L329.5,306z"/>
		</g>
		<path style="clip-path:url(#SVGID_00000100342549881055824100000017147624283489008557_);fill:#1E1E1E;" d="M637.2,921.9
			c0,0,19.3,65.6,38.6,93.9c19.3,28.3-60.4,77.1-60.4,77.1H383.9l-92.2-17.2c0,0,5.8-55.4,4.1-120.1L637.2,921.9z"/>
		<g style="clip-path:url(#SVGID_00000100342549881055824100000017147624283489008557_);">
			<path class="st4" d="M365.8,322.9c1.6-1.5,3.3-2.4,5.2-3.3c1.9-0.8,3.8-1.4,5.8-1.8c2-0.4,4.1-0.3,6.1-0.1c2,0.2,4.1,0.4,6.1,0.9
				c2,0.4,4,1.3,5.7,2c0.9,0.4,1.8,0.8,2.7,1.2c0.9,0.5,1.8,0.9,2.6,1.4c1.7,1,3.4,2,4.9,3.3c1.5,1.2,3,2.6,4,4.4l-0.4,0.2
				c-0.5-0.7-1.3-1.4-2-1.9c-0.7-0.6-1.5-1.1-2.3-1.6c-1.6-1-3.3-1.8-5.1-2.5c-1.8-0.7-3.6-1.3-5.4-1.9c-1.8-0.6-3.6-1-5.4-1.1
				c-1.8-0.2-3.6-0.2-5.4,0c-1.8,0.2-3.6,0.6-5.4,0.8c-3.7,0.3-7.4,0.6-11.5,0.4L365.8,322.9z"/>
		</g>
		<path style="opacity:0.5;clip-path:url(#SVGID_00000100342549881055824100000017147624283489008557_);fill:#2B2B2B;" d="
			M637.2,921.9l-103.4,10.2c-13,23.9-38.1,37.5-82.8,39.1c0,0,48.7,11.1,60.3,62.5c5.8,25.8,23.6,45.7,39.9,59.1h64.3
			c0,0,79.7-48.9,60.4-77.1S637.2,921.9,637.2,921.9z"/>
		<g style="clip-path:url(#SVGID_00000100342549881055824100000017147624283489008557_);">
			<path class="st7" d="M333.7,333.3c0.4,5.1,0.1,10.2-0.8,15.2c-0.9,5-2.4,10.1-5.1,14.7l-2.2,3.1c-0.4,0.5-0.6,1-0.9,1.5
				c-0.1,0.3-0.3,0.5-0.4,0.8l-0.3,0.8c-0.9,2.1-1.3,4.4-0.8,6.5c0.6,2.1,2,4.1,3.9,5.5c1.9,1.5,4.2,2.5,6.7,3.2
				c-2.5-0.1-5.1-0.7-7.5-2c-2.3-1.3-4.4-3.4-5.3-6.1c-1-2.7-0.5-5.7,0.4-8.3l0.4-1c0.1-0.3,0.3-0.6,0.5-0.9c0.3-0.6,0.6-1.2,1-1.8
				l2.1-3.1c1.2-2,2.3-4.2,3.1-6.5c0.9-2.3,1.6-4.7,2.2-7.1C331.9,343.2,332.9,338.3,333.7,333.3z"/>
		</g>
		<path style="clip-path:url(#SVGID_00000100342549881055824100000017147624283489008557_);fill:#2B2B2B;" d="M313.7,446.8
			c0,0-1.9,29.4-19.9,42.2c0,0,39.4,43.7,92.6,43.7c0,0,13.7-7.3,29.1,12.9c0,0,9-33.4,18.4-42.4c0,0-8.4-3.1-7.7-18.9
			c0,0-17.2-11.6-13.5-48.7c0,0,20.8,7.9,33.2,23.8c0,0,33.4-9.4,63-6c29.6,3.4,141,5.6,147.4,20.1c6.4,14.6,4.7,33.4,4.3,34.7
			c-0.4,1.3-33.9,49.3-33.9,49.3l-40.7,39.9c0,0,2.1,69.9,2.1,82.3c0,12.4,7.7,81,14.6,110.1c6.9,29.1,32.1,125.6,34.3,132
			c2.1,6.4-69.4,51.1-152.4,50.1s-104.1-8.6-153.3,0c-49.2,8.7-37.6-49.2-37.6-49.2s4.3-99.1-20.1-134.2l-19.3-29.1
			c0,0-22.7,3.4-27-15c-4.3-18.4-39-69.4-45.4-97.7c-6.4-28.3-30.4-56.6-4.3-98.6c0,0,13.7-19.7,33.9-19.7s61.3-30.4,65.6-33.4
			c4.3-3-3.9-28.7,21-44.1C298.2,450.9,308.6,447.7,313.7,446.8z"/>
		<path style="opacity:0.5;clip-path:url(#SVGID_00000100342549881055824100000017147624283489008557_);fill:#2B2B2B;" d="
			M375.3,584.4c0,0,4.3,2.4,8.6,3.2c0,0-0.6-40.4,11.5-54.9l-2.7-1.2l-3.9,0.5l-2.3,0.8l-11.1,7.3l-8.8,37.3L375.3,584.4z"/>
		<path style="clip-path:url(#SVGID_00000100342549881055824100000017147624283489008557_);fill:#E8E8E8;" d="M610.2,486
			c0,0,0.9-12.6-1.3-24.9c-18.3-2-39.1-3.4-57.5-4.6c2.1,7.6,4.2,17.2,3.5,24.4C554.9,480.9,584.2,488.4,610.2,486z"/>
		<g style="clip-path:url(#SVGID_00000100342549881055824100000017147624283489008557_);">
			<g>
				<path class="st10" d="M574.6,749c0-0.4-0.1-0.9-0.1-1.3c0-0.6-0.1-1.1-0.2-1.7c-0.1-0.4-0.1-1-0.4-1.2c-0.3-0.2-1.6,0.5-1.9,0.6
					c0.2,1.2,0.3,2.3,0.5,3.5c0.1,0.8,0.1,1.2-0.4,1.4c-0.2,0.1-0.5,0.2-0.7,0.3c-0.6,0.2-0.8,0.1-0.9-0.9c-0.1-1.1-0.3-2.3-0.4-3.4
					c-2.1,0.9-4.2,1.8-6.3,2.6c-0.5,0.2-0.9,0.2-1-0.9c-0.1-0.7-0.2-1.4-0.3-2.2c-0.1-0.9,0.2-1.2,0.6-1.3c2.1-0.8,4.2-1.7,6.3-2.6
					c0-0.3-0.1-0.7-0.1-1c-0.1-0.8,0.2-1,0.6-1.1c0.3-0.1,0.5-0.2,0.8-0.4c0.7-0.3,0.7,0.7,0.8,1.6c0.3-0.1,0.5-0.2,0.8-0.3
					c0.8-0.4,1.6-0.7,2.3-0.1c1.2,0.9,1.6,3.2,1.9,5.4c0.1,0.7,0.3,2.4,0,3c-0.1,0.2-0.2,0.3-0.4,0.4c0,0-0.1,0-0.1,0.1
					C575.7,749.6,574.8,750,574.6,749z M575,756.3c-0.1-0.4-0.1-0.9-0.2-1.3c-0.2-1.2-0.2-1.9,0.6-2.2c0.2-0.1,0.4-0.2,0.7-0.3
					c0.6-0.3,0.9,0,1.1,1.1c0.1,0.5,0.2,1.1,0.2,1.6c0.1,0.7-0.1,1.5-0.5,1.7c0,0-0.1,0-0.1,0c-0.2,0.1-0.4,0.2-0.7,0.3
					C575.6,757.6,575.2,757.4,575,756.3z M564.4,760.9c-0.1-0.4-0.1-0.9-0.2-1.3c-0.2-1.3-0.1-1.9,0.6-2.2c2.5-1,5-2,7.5-3.2
					c0.6-0.3,0.9,0.1,1.1,1.1c0.1,0.5,0.1,1.1,0.2,1.6c0.1,0.7-0.1,1.5-0.5,1.7c0,0-0.1,0-0.1,0c-2.5,1.1-5,2.2-7.6,3.2
					C564.9,762.1,564.5,761.9,564.4,760.9C564.4,760.9,564.4,760.9,564.4,760.9z"/>
				<path class="st10" d="M565.7,773.4c-0.2-1.7-0.4-3.3-0.5-5c-0.1-1.1,0.2-1.1,0.8-1.3c0.1,0,0.2-0.1,0.4-0.1
					c0.4-0.2,0.9-0.3,1,0.6c0.1,0.6,0.1,1.2,0.1,1.9c0.1,1.2,0.2,2.4,0.4,3.7c0.2,1.2,0.2,1.7,1,1.4c0.2,0,0.5-0.2,0.6-0.5
					c0.2-0.4,0.2-3.6,0.2-4.2c0-0.7,0.1-1.5,0.2-2.2c0.3-2,0.7-2.9,1.9-3.4c3-1.3,3.5,2.3,4.1,6.5c0.1,0.9,0.2,1.7,0.3,2.6
					c0.1,1.3,0.1,1.8-0.7,2.2c-0.6,0.3-1.2,0.6-1.4-0.7c-0.1-0.6-0.1-1.2-0.2-1.8c-0.1-0.9-0.2-1.9-0.3-2.8
					c-0.2-1.3-0.2-2.1-1.1-1.7c-0.1,0-0.3,0.2-0.4,0.3c-0.2,0.5-0.3,4-0.3,4.7c-0.1,2.9-0.5,4.4-2.2,5.2
					C566.9,779.9,566.3,777.7,565.7,773.4z"/>
				<path class="st10" d="M579,783c-0.1-0.4-0.1-0.9-0.2-1.3c-0.2-1.2-0.2-1.9,0.6-2.2c0.2-0.1,0.5-0.2,0.7-0.3
					c0.6-0.3,0.9,0,1.1,1.1c0.1,0.5,0.2,1.1,0.3,1.6c0.1,0.7-0.1,1.5-0.6,1.7c0,0-0.1,0-0.1,0c-0.2,0.1-0.5,0.2-0.7,0.3
					C579.5,784.3,579.1,784.1,579,783z M567.9,787.8c-0.1-0.4-0.1-0.9-0.2-1.3c-0.2-1.3-0.1-1.9,0.7-2.2c2.6-1,5.2-2.2,7.8-3.3
					c0.6-0.3,0.9,0.1,1.1,1.1c0.1,0.5,0.2,1.1,0.2,1.6c0.1,0.7-0.1,1.5-0.6,1.7c0,0-0.1,0-0.1,0c-2.6,1.2-5.2,2.3-7.9,3.3
					C568.4,789.1,568,788.9,567.9,787.8C567.9,787.8,567.9,787.8,567.9,787.8z"/>
				<path class="st10" d="M570.1,804.6c-0.2-1-0.4-1.9-0.5-2.9c-1-6.8,0.3-8.4,4-10c3.8-1.6,5.3-1.1,6.4,5.6c0.2,1,0.3,2,0.4,3
					c0.1,1.1,0.3,1.9-0.4,2.2c0,0,0,0,0,0c-0.5,0.2-1.6,0.7-1.8-0.5c-0.1-0.5-0.1-0.9-0.1-1.4c-0.1-1.1-0.2-2.2-0.3-3.3
					c-0.2-1.4-0.4-1.6-1.3-1.6c-0.7,0.1-1.4,0.3-2.1,0.6c-0.7,0.3-1.3,0.6-1.9,1c-0.9,0.5-0.9,1.1-0.7,2.6c0.2,1.1,0.4,2.2,0.6,3.2
					c0.1,0.4,0.2,0.9,0.3,1.3c0.1,0.3,0,0.7-0.1,0.9c-0.1,0.3-1.1,0.9-1.3,1C570.4,806.5,570.3,805.6,570.1,804.6z"/>
				<path class="st10" d="M573,822.9c-0.1-0.6-0.2-1.3-0.3-1.9c-0.1-0.8,0.2-1.1,0.6-1.3c-0.9-1.2-1.5-2.9-1.8-4.7
					c-0.5-3.4,0.4-5.4,2.4-6.2c2.3-1,3.4,0.9,4.1,4.2c0.4,1.4,0.6,2.8,0.9,4.3c0.8-0.4,2-0.7,1.7-2.6c-0.3-1.7-0.7-3.2-1.2-4.7
					c-0.1-0.2-0.2-0.5-0.2-0.8c-0.2-1.2,0.6-1.3,1.1-1.6c0.4-0.3,0.8,0,1,0.6c0.6,1.7,1,3.5,1.3,5.4c0.3,1.6,0.5,3.8-0.1,5.3
					c-0.7,1.8-2,2.3-3.2,2.8c-1.7,0.8-3.4,1.5-5.1,2.2C573.5,824.2,573.2,824,573,822.9z M577,818.2c-0.1-0.6-0.1-1.2-0.2-1.7
					c-0.1-0.7-0.2-1.4-0.4-2.1c-0.4-1.4-0.7-1.8-1.6-1.5c-0.5,0.2-1.4,0.7-1.2,1.9c0.3,1.7,0.9,3.1,1.8,4.2
					C575.9,818.6,576.4,818.4,577,818.2z"/>
				<path class="st10" d="M574.5,832.1c-0.1-0.4-0.1-0.8-0.2-1.2c-0.2-1.2-0.2-1.9,0.7-2.2c4.3-1.8,8.5-3.7,12.7-5.7
					c0.7-0.3,1,0,1.2,1.1c0.1,0.5,0.2,1,0.3,1.5c0.1,0.7-0.1,1.5-0.5,1.7c0,0-0.1,0-0.1,0.1c-4.2,2.1-8.5,4-12.8,5.8
					C575,833.3,574.6,833.2,574.5,832.1z"/>
				<path class="st10" d="M577,848.7c-0.2-0.9-0.4-1.9-0.6-2.9c-1.1-6.8,0.2-8.4,4.2-10.2c4-1.8,5.6-1.4,6.8,5.3c0.2,1,0.3,2,0.4,3
					c0.1,1.1,0.3,1.9-0.4,2.2c0,0,0,0,0,0c-0.5,0.3-1.7,0.8-1.9-0.4c-0.1-0.5-0.1-0.9-0.1-1.4c-0.1-1.1-0.2-2.2-0.4-3.3
					c-0.3-1.4-0.5-1.6-1.4-1.5c-0.7,0.1-1.5,0.3-2.2,0.7c-0.7,0.3-1.4,0.6-2,1c-0.9,0.6-1,1.1-0.7,2.6c0.2,1.1,0.4,2.2,0.7,3.2
					c0.1,0.4,0.2,0.9,0.3,1.3c0.1,0.3,0,0.6-0.1,0.9c-0.1,0.4-1.2,0.9-1.4,1C577.3,850.6,577.2,849.7,577,848.7z"/>
				<path class="st10" d="M579.2,862.3c-1-5.8,0.8-8.8,4.2-10.3c3.4-1.5,5.9-0.5,7,5.2c1.1,5.7-0.6,8.8-4.2,10.5
					C582.7,869.3,580.2,868.1,579.2,862.3z M587.8,861.5c0.6-1,0.4-2,0.2-3.1c-0.2-1.2-0.4-2.2-1.2-2.5c-0.8-0.3-1.9,0.2-2.7,0.5
					c-0.8,0.3-1.9,0.9-2.4,1.8c-0.6,0.9-0.4,2-0.2,3.1c0.2,1.1,0.4,2.2,1.2,2.5c0.8,0.3,1.9-0.2,2.7-0.5
					C586.1,863,587.3,862.4,587.8,861.5C587.9,861.5,587.8,861.5,587.8,861.5z"/>
				<path class="st10" d="M583.8,886.5c-0.1-0.6-0.2-1.3-0.4-1.9c-0.1-0.8,0.2-1.1,0.6-1.3c-1-1.2-1.7-2.8-2-4.6
					c-0.6-3.4,0.3-5.4,2.5-6.4c2.4-1.1,3.7,0.7,4.6,4c0.4,1.4,0.7,2.8,1,4.2c0.9-0.4,2.2-0.8,1.8-2.7c-0.4-1.6-0.8-3.2-1.4-4.7
					c-0.1-0.2-0.2-0.5-0.2-0.8c-0.2-1.2,0.6-1.4,1.2-1.6c0.4-0.3,0.9-0.1,1.1,0.5c0.6,1.7,1.2,3.5,1.5,5.3c0.3,1.6,0.6,3.8-0.1,5.4
					c-0.7,1.8-2.1,2.5-3.4,3.1c-1.8,0.9-3.7,1.7-5.5,2.5C584.4,887.8,584,887.6,583.8,886.5z M588.1,881.5c-0.1-0.6-0.2-1.1-0.3-1.7
					c-0.1-0.7-0.3-1.4-0.5-2.1c-0.4-1.4-0.8-1.8-1.8-1.4c-0.5,0.2-1.5,0.8-1.3,1.9c0.3,1.7,1,3.1,2,4.1
					C586.9,882.1,587.5,881.8,588.1,881.5z"/>
				<path class="st10" d="M586.7,902.9c-0.3-0.9-0.5-1.9-0.7-2.9c-1.3-6.7,0.1-8.4,4.3-10.4c4.2-2,6-1.7,7.4,4.9
					c0.2,1,0.4,1.9,0.5,2.9c0.1,1,0.4,1.9-0.4,2.2c0,0,0,0,0,0c-0.6,0.3-1.8,0.9-2.1-0.3c-0.1-0.4-0.1-0.9-0.2-1.4
					c-0.1-1.1-0.3-2.2-0.5-3.3c-0.3-1.4-0.5-1.6-1.5-1.5c-0.8,0.2-1.6,0.4-2.3,0.8c-0.7,0.3-1.5,0.7-2.2,1.2c-1,0.6-1,1.2-0.7,2.7
					c0.2,1.1,0.5,2.1,0.8,3.2c0.1,0.4,0.3,0.8,0.4,1.3c0.1,0.3,0.1,0.6-0.1,0.9c-0.1,0.4-1.2,1-1.5,1.1
					C587.1,904.7,587,903.9,586.7,902.9z"/>
				<path class="st10" d="M590.5,921.2c-0.1-0.6-0.2-1.2-0.4-1.8c-0.2-1,0.2-1.4,0.8-1.7c2-0.9,4-1.9,6-2.8c0.3-0.2,1.6-0.7,1.8-1.1
					c0.2-0.4,0-0.8,0-1.2c-0.4-1.5-1.1-2.7-1.9-3.6c-2.3,1.1-4.6,2.2-6.9,3.3c-0.7,0.3-1.1,0.2-1.3-0.9c-0.1-0.6-0.2-1.2-0.4-1.8
					c-0.2-0.9,0.1-1.4,0.7-1.6c4.7-2.1,9.4-4.4,14.1-6.9c0.7-0.4,1.1-0.1,1.3,0.9c0.1,0.5,0.2,1,0.3,1.5c0.2,0.7-0.1,1.5-0.6,1.8
					c-0.1,0-0.1,0.1-0.2,0.1c-1.4,0.8-2.9,1.5-4.3,2.2c0.8,1.2,1.4,2.6,1.8,4.1c0.7,3.1,0,5.7-2.2,6.9c-2.4,1.2-4.8,2.4-7.3,3.5
					C591.2,922.4,590.8,922.3,590.5,921.2z"/>
			</g>
		</g>
		<path style="clip-path:url(#SVGID_00000100342549881055824100000017147624283489008557_);fill:#FFF871;" d="M587.5,643.1
			c-0.1-4.7-0.3-9.5-0.4-14.2c-1,2.2-2.2,5.3-2.2,5.3c-20.9,55,23.8,252.2,35.6,301.7c1.6-1,3.1-1.9,4.5-2.8
			C613.5,883.9,573.2,704,587.5,643.1z"/>
		<path style="opacity:0.5;clip-path:url(#SVGID_00000100342549881055824100000017147624283489008557_);fill:#2B2B2B;" d="
			M637.2,921.9c-2.1-6.4-27.4-102.9-34.3-132c-6.9-29.1-14.6-97.7-14.6-110.1s-2.1-82.3-2.1-82.3l24.5-24l-58.4,35.3
			c0,0-0.9,5.4-2.3,14.7L379.2,820.3l17,12.9c0,0,23.3,12.4,28.7,12.9c4.2,0.3,67.9-39.7,115.3-115.7c-1.1,28.5-0.8,58.9,2.2,87.4
			c9.9,93.9,2.5,150.1-91.5,153.5l0,0c10.1,0.4,21.3,0.7,33.9,0.8C567.7,973,639.3,928.3,637.2,921.9z"/>
		<path style="opacity:0.5;clip-path:url(#SVGID_00000100342549881055824100000017147624283489008557_);fill:#2B2B2B;" d="
			M366.5,690.5c0,0,15.5-5.8,2.6-25.1c-12.9-19.3-38.6-37.3-43.1-57.2c0,0-0.6,10.9,0,16.1c0,0-11-16.7-14.5-23.8
			c0,0,17.7,33.4,15.8,39.2c0,0,28,13.8,21.1,33.9c-6.9,20.1-5.5,12.4-5.5,12.4l23.6,18.3l4.8-4.4L366.5,690.5z"/>
		<path style="clip-path:url(#SVGID_00000100342549881055824100000017147624283489008557_);fill:#FFF871;" d="M287.9,773.7
			c0.5,1.3,50.6,130.2,43.3,198.4c0.1,0,0.2,0,0.2,0c1.7-0.3,3.3-0.6,4.9-0.8c6.6-69.6-41.6-193.9-43.8-199.4L287.9,773.7z"/>
		<path style="opacity:0.5;clip-path:url(#SVGID_00000100342549881055824100000017147624283489008557_);fill:#2B2B2B;" d="
			M660.6,489.3c-0.7-5.1-1.9-10.6-4.1-15.7C650,459,538.6,456.9,509,453.5c-29.6-3.4-63,6-63,6c-0.1-0.1-0.1-0.1-0.2-0.2l-30.9,6.5
			l0,0c4.1,13.6,11.4,18.6,11.4,18.6c-0.7,15.8,7.7,18.9,7.7,18.9c-6.4,6.1-12.6,23.5-15.9,34l1,23.1c0,0,14.6-12.4,22.3-24
			c7.7-11.6,26.4-5.5,34.4-1.4c8,4.2,10.5,6.3,10.5,6.3s-2.5-39.9-20.1-67.5c36.4,0.5,154.2,2.9,188.3,13.8
			C656.5,488.1,658.5,488.7,660.6,489.3z"/>
		<path style="clip-path:url(#SVGID_00000100342549881055824100000017147624283489008557_);fill:#EDDCBC;" d="M229,734.2
			c0,0,13.5-41.8,71.4-68.8c0,0,35.4-14.8,45.6,3.9c10.3,18.6,17.4,27.8,17.4,27.8s63-40,84.2-50.9c21.2-10.9,82.9-91.3,82.9-91.3
			s20.6-25.1,69.4-34.1c0,0,17.4-7.7,30.2-13.5c12.9-5.8,28.9,0,45.6,0c16.7,0,70.7,5.5,67.8,14.5c-2.9,9-8.4,10.9-30.9,9.3
			c-22.5-1.6-44.4,1.6-44.4,1.6s-1.6,6.4-3.2,9c0,0,5.8,8.4,0.6,17.4c0,0-1.6,5.5-0.6,8.4s-3.9,16.1-8.4,22.2
			c-4.5,6.1-10,15.4-18.3,15.4c-8.4,0-19-6.1-23.8-8c0,0-7.1,1.9-18.3-0.6c-11.2-2.6-14.5,6.4-19.9,13.2s-45.3,79.7-83.2,128.6
			c-37.9,48.9-69.4,68.1-69.4,68.1s-21.2,29.6-37.3,30.2c-16.1,0.6-96.9-42.6-132-76.9C254.5,759.5,230.5,736.1,229,734.2z"/>
		<path style="opacity:0.5;clip-path:url(#SVGID_00000100342549881055824100000017147624283489008557_);fill:#D8D0A4;" d="
			M445.6,335l-4.2-3.6l-10.3,6.2l-0.3,25.7c0,0-10.5,67-44.1,84c-18.5,8.6-32.7,8.6-43.8,8.6c-16.6,0-29.1-9-29.1-9
			c28.9,26.3,79.6,18.3,108,10.9l-3.1-6.4c0,0-4.5-5-5.7-10.9l0,0c-0.1-0.6-0.2-1.2-0.3-1.8c0,0,0-0.1,0-0.1c0-0.2,0-0.4,0-0.5
			c0-0.1,0-0.1,0-0.2c0-0.3,0-0.6,0-0.9c0-0.1,0-0.2,0-0.3c0-0.1,0-0.3,0-0.4c0-0.1,0-0.3,0.1-0.4c0-0.1,0-0.3,0.1-0.4
			c0-0.2,0.1-0.5,0.2-0.7c0-0.1,0.1-0.2,0.1-0.3c0.1-0.2,0.1-0.4,0.2-0.6c0-0.1,0.1-0.2,0.1-0.3c0.1-0.2,0.2-0.4,0.2-0.6
			c0-0.1,0.1-0.1,0.1-0.2c0.1-0.3,0.3-0.5,0.4-0.8c0-0.1,0.1-0.1,0.1-0.2c0.1-0.2,0.3-0.4,0.4-0.6c0.1-0.1,0.1-0.1,0.2-0.2
			c0.2-0.3,0.4-0.5,0.6-0.8c0.2-0.2,0.4-0.5,0.6-0.8c0.1-0.1,0.2-0.2,0.3-0.3c0.1-0.1,0.2-0.3,0.3-0.4c0.3-0.4,0.5-0.8,0.8-1.2
			c0,0,0,0,0,0l0,0c7.1-11.5,14.1-38.4,14.1-38.4c6.4,10.9,13.5,8.4,18.1,3.2c4.6-5.1,9.5-28.9,9.5-45.6S445.6,335,445.6,335z"/>
		<path style="opacity:0.5;clip-path:url(#SVGID_00000100342549881055824100000017147624283489008557_);fill:#D8D0A4;" d="M310,465
			l-9.1,0.4l-12.1,17.4v17.4l30.7,21.3l59.8,23.5l0,0l7.3-12.2C300.3,508.7,310,465,310,465z"/>
		<path style="clip-path:url(#SVGID_00000100342549881055824100000017147624283489008557_);fill:#EDDCBC;" d="M656.5,473.6
			c0,0,65.6,4.1,80.4,2.8c14.8-1.3,51.4-8.4,86.8,11.6s41.8,15.4,44.7,14.1c2.9-1.3,27.3-8.7,38.6-4.5c11.2,4.2,38.2,17,36.6,28.3
			c0,0-0.6,5.8-6.4,7.4c0,0,15.1,14.1,10.6,18.6s-4.2,6.4-8.4,6.8c0,0,3.5,3.2,4.2,5.5c0,0,10.3,0,10.6,2.6c0.3,2.6-5.1,13.2-6.8,17
			c-1.6,3.9,4.2,17.7-3.9,20.9c-8,3.2-19.3,1-25.4,2.2s-6.1,0.3-12.5,1.6c-6.4,1.3-13.8-2.6-18.3-4.5c-4.5-1.9-40.5-22.5-48.9-35.4
			c-8.4-12.9-23.1-11.6-28.3-10.3s-34.1,2.2-41.5-6.4c-7.4-8.7-18.7-5.2-25-4.5c-20.6,2.3-53.2,4-77,9.7l-5.4-15.9l-6.7-31.4
			L656.5,473.6z"/>
		<path style="clip-path:url(#SVGID_00000100342549881055824100000017147624283489008557_);fill:#2C272E;" d="M426.7,230.5
			L426.7,230.5C426.7,230.5,426.7,230.5,426.7,230.5c-1.9-1.5-3.9-2.7-6.1-3.6c-0.4-0.2-0.9-0.3-1.3-0.5
			c-12.7-6.2-40.1-16.9-71.3-11.7c-37,6.1-53.6,16-61.6,40.7c-2.2,4.5-3.3,8.8-3.3,13.3c-1.1,5.8-1.1,8.8-0.4,10
			c-0.7,14.5-2.1,37.5,0.4,50.4c0,0-1.6-34.4,11.1-54.1c-2.6,8.7-3.4,16.3-3.4,16.3c14.1-11.5,43.1-14.2,43.1-14.2
			c-5.8,5.8-12,9-12,9c22,3.2,65.4-11.6,65.4-11.6c-5.8,3.2-5.8,12.9-5.8,12.9c7.6-5.3,19.7-7.5,27.8-11.3
			c11,12.3,19.8,33.5,17.1,66c0,0,0.6,17.4-0.6,21.2s5.1,0,5.1,0s-1.3-14.8,14.8-28.3C445.6,335,454,252.2,426.7,230.5z"/>
		
			<ellipse style="clip-path:url(#SVGID_00000100342549881055824100000017147624283489008557_);fill:#23170B;" cx="379.2" cy="342.2" rx="6.4" ry="8.9"/>
		
			<ellipse style="clip-path:url(#SVGID_00000100342549881055824100000017147624283489008557_);fill:#23170B;" cx="312.5" cy="340.5" rx="6.4" ry="8.9"/>
		<path style="clip-path:url(#SVGID_00000100342549881055824100000017147624283489008557_);fill:#BCB282;" d="M350.9,407.1
			c0,0-5.1,0.6-6.3,0.5c-2.6-0.2-4.7-1.2-8.9-1.2c-3.1,0-6,0.2-8.3,0.6l0,0c0,0-3.5,1.4-7,0.4c0,0,1.5,3.2,8.8,4.5
			c1.9,0.2,4.1,0.6,6.4,0.6c3,0,5.7-0.2,8-0.5C350.4,411.6,350.9,407.1,350.9,407.1z"/>
		<g style="clip-path:url(#SVGID_00000100342549881055824100000017147624283489008557_);">
			<path class="st16" d="M768.6,551.9c-1.3-0.4-2.5-1.2-3.6-2.1c-0.6-0.4-1-0.9-1.5-1.4c-0.5-0.5-0.9-1-1.4-1.6
				c-1.7-2.2-3-4.7-4-7.3c-1-2.6-1.6-5.3-1.9-8c-0.1-1.4-0.2-2.7-0.2-4.1c0.1-1.4,0.1-2.7,0.3-4.1c0.5,1.3,0.8,2.6,1.1,3.9
				c0.4,1.3,0.7,2.6,1.1,3.8c0.8,2.5,1.5,5,2.4,7.4c0.9,2.4,1.9,4.8,3.1,7c0.6,1.1,1.3,2.3,2,3.3
				C766.9,549.9,767.7,550.9,768.6,551.9z"/>
		</g>
		<g style="clip-path:url(#SVGID_00000100342549881055824100000017147624283489008557_);">
			<path class="st16" d="M838.4,568.6c-1.2-1-2.3-2.2-3.2-3.4c-0.9-1.3-1.7-2.6-2.3-4.1c-0.6-1.4-1-3-1.2-4.6
				c-0.2-1.6-0.1-3.2,0.5-4.7c0.3,1.6,0.6,3,1.1,4.4c0.4,1.4,1,2.7,1.5,4.1C835.9,563.1,837.2,565.7,838.4,568.6z"/>
		</g>
		<g style="clip-path:url(#SVGID_00000100342549881055824100000017147624283489008557_);">
			<path class="st17" d="M293.9,489c18-12.9,19.9-42.2,19.9-42.2c-5.1,0.9-15.6,4.1-15.6,4.1c-21,13-18.4,33.4-19.7,41.2l0,0
				c3.9,72.6,97.1,95.5,97.1,95.5c-2.1-18.3,10.9-54.9,10.9-54.9C333.3,532.7,293.9,489,293.9,489z"/>
			<path class="st17" d="M412.8,435.7c-3.7,37.1,13.5,48.7,13.5,48.7c-0.7,15.8,7.7,18.9,7.7,18.9c-9.4,9-18.4,42.4-18.4,42.4
				c-15.4-20.1-29.1-12.9-29.1-12.9s15.4-7.5,22.3,21s17.6,30.6,17.6,30.6s-15.4-13.5-3.2-33.4c12.2-19.9,0-37.9,20.6-34.1
				c20.6,3.9,32.1,18,32.1,18c-3.2-42.4-29.8-75.4-29.8-75.4C433.6,443.6,412.8,435.7,412.8,435.7z"/>
		</g>
		<path style="clip-path:url(#SVGID_00000100342549881055824100000017147624283489008557_);fill:#FFF871;" d="M293.9,489
			c18-12.9,19.9-42.2,19.9-42.2c-5.1,0.9-15.6,4.1-15.6,4.1c-21,13-18.4,33.4-19.7,41.2l0,0c3.9,72.6,97.1,95.5,97.1,95.5
			c-2.1-18.3,10.9-54.9,10.9-54.9C333.3,532.7,293.9,489,293.9,489z"/>
		<g style="opacity:0.5;clip-path:url(#SVGID_00000100342549881055824100000017147624283489008557_);">
			<path class="st19" d="M295.8,491c3.3,3.9,8.4,8.4,15.7,13.7c0,0,0,0,0,0C303.9,498.9,298.5,493.7,295.8,491z"/>
			<path class="st19" d="M313.3,450.9c-7.8,3.3-13.4,6.7-15.1,9.8c-5,9.4-12.7,16.2-4.1,28.1C307.8,478.9,312,459.4,313.3,450.9z"/>
		</g>
		<path style="opacity:0.5;clip-path:url(#SVGID_00000100342549881055824100000017147624283489008557_);fill:#D8D0A4;" d="
			M363.3,697c0,0-7.1-9.1-17.4-27.8s-45.6-3.9-45.6-3.9c-16.4,7.6-29.2,16.5-39.2,25.2c0,0,54.6-29.1,66.8-16.2
			c12.2,12.9,27.6,21.2,20.6,38.6c0,0,58.9-31.5,103.1-69.4h0c-1.5,1.1-2.8,1.9-4.1,2.6C426.3,657,363.3,697,363.3,697z"/>
		<path style="opacity:0.5;clip-path:url(#SVGID_00000100342549881055824100000017147624283489008557_);fill:#D8D0A4;" d="
			M675.7,507.2c-12.1,0-23.9-3-34.3-2.5h0c-13.6,3.3,0.9,41.3-10.7,54.6c-8,9.1-20.4,9-29.6,13.9l0,0l0,0c-2.6,1.4-5,3.3-7,5.8
			c-11.9,11-36.4,38.2-51.8,86.4c17.7-28.6,31-52.2,34-55.9c2.7-3.3,4.8-7.2,7.7-10l0,0c0.2-0.2,0.4-0.3,0.5-0.5c0,0,0,0,0,0
			c0.2-0.2,0.4-0.3,0.5-0.5c0,0,0,0,0,0c0.2-0.1,0.4-0.3,0.5-0.4c0,0,0,0,0.1,0c0.2-0.1,0.4-0.3,0.5-0.4c0,0,0.1,0,0.1-0.1
			c0.2-0.1,0.4-0.2,0.5-0.3c0,0,0.1,0,0.1-0.1c0.2-0.1,0.4-0.2,0.6-0.3c0,0,0.1,0,0.1-0.1c0.2-0.1,0.4-0.2,0.6-0.2
			c0,0,0.1,0,0.1-0.1c0.2-0.1,0.4-0.1,0.6-0.2c0.1,0,0.1,0,0.2-0.1c0.2-0.1,0.4-0.1,0.6-0.1c0.1,0,0.1,0,0.2-0.1
			c0.2,0,0.4-0.1,0.6-0.1c0.1,0,0.2,0,0.2,0c0.2,0,0.4,0,0.6-0.1c0.1,0,0.2,0,0.3,0c0.2,0,0.4,0,0.6,0c0.1,0,0.2,0,0.3,0
			c0.2,0,0.4,0,0.6,0c0.1,0,0.2,0,0.3,0c0.2,0,0.4,0,0.6,0.1c0.1,0,0.2,0,0.3,0c0.2,0,0.5,0.1,0.7,0.1c0.1,0,0.2,0,0.3,0
			c0.3,0.1,0.7,0.1,1,0.2c0.7,0.2,1.4,0.3,2,0.4c0.3,0,0.5,0.1,0.8,0.1c0.4,0.1,0.8,0.1,1.2,0.2c0.3,0,0.6,0.1,0.9,0.1
			c0.3,0,0.6,0.1,0.9,0.1c0.4,0,0.7,0.1,1,0.1c0.2,0,0.5,0,0.7,0.1c0.4,0,0.8,0.1,1.1,0.1c0.2,0,0.3,0,0.5,0c0.4,0,0.8,0,1.2,0
			c0.1,0,0.2,0,0.3,0c0.4,0,0.8,0,1.2,0c0,0,0.1,0,0.1,0c0.4,0,0.8,0,1.2,0c0,0,0,0,0,0l0,0c3.3-0.2,5.1-0.6,5.1-0.6
			c4.8,1.9,15.4,8,23.8,8c8.4,0,13.8-9.3,18.3-15.4c4.5-6.1,9.3-19.3,8.4-22.2c-1-2.9,0.6-8.4,0.6-8.4c5.1-9-0.6-17.4-0.6-17.4
			c1.6-2.6,3.2-9,3.2-9s21.9-3.2,44.4-1.6c22.5,1.6,28-0.3,30.9-9.3C746.5,512.7,692.5,507.2,675.7,507.2z"/>
		<path style="clip-path:url(#SVGID_00000100342549881055824100000017147624283489008557_);fill:#EDDCBC;" d="M429.9,453.1
			c-0.3-0.1-0.6-0.3-0.9-0.4C429.3,452.8,429.6,452.9,429.9,453.1z"/>
		<path style="clip-path:url(#SVGID_00000100342549881055824100000017147624283489008557_);fill:#EDDCBC;" d="M429,452.7
			c-0.3-0.1-0.5-0.2-0.8-0.3C428.5,452.4,428.8,452.6,429,452.7z"/>
		<path style="clip-path:url(#SVGID_00000100342549881055824100000017147624283489008557_);fill:#EDDCBC;" d="M428.2,452.3
			c-0.2-0.1-0.5-0.2-0.7-0.3C427.7,452.1,428,452.2,428.2,452.3z"/>
		<path style="clip-path:url(#SVGID_00000100342549881055824100000017147624283489008557_);fill:#EDDCBC;" d="M453.3,470.1
			c-0.3-0.4-0.6-0.7-0.9-1.1C452.7,469.4,453,469.8,453.3,470.1z"/>
		<path style="clip-path:url(#SVGID_00000100342549881055824100000017147624283489008557_);fill:#EDDCBC;" d="M451.4,467.9
			c-0.3-0.4-0.6-0.7-1-1.1C450.8,467.1,451.1,467.5,451.4,467.9z"/>
		<path style="clip-path:url(#SVGID_00000100342549881055824100000017147624283489008557_);fill:#EDDCBC;" d="M426.8,451.7
			c-0.2-0.1-0.3-0.1-0.5-0.2C426.4,451.5,426.6,451.6,426.8,451.7z"/>
		<path style="clip-path:url(#SVGID_00000100342549881055824100000017147624283489008557_);fill:#EDDCBC;" d="M454.1,471.3
			c-0.3-0.4-0.5-0.8-0.8-1.2C453.6,470.6,453.9,470.9,454.1,471.3z"/>
		<path style="clip-path:url(#SVGID_00000100342549881055824100000017147624283489008557_);fill:#EDDCBC;" d="M452.4,469
			c-0.3-0.4-0.6-0.7-0.9-1.1C451.8,468.3,452.1,468.6,452.4,469z"/>
		<path style="clip-path:url(#SVGID_00000100342549881055824100000017147624283489008557_);fill:#EDDCBC;" d="M427.5,452
			c-0.2-0.1-0.4-0.2-0.6-0.2C427.1,451.8,427.3,451.9,427.5,452z"/>
		<path style="clip-path:url(#SVGID_00000100342549881055824100000017147624283489008557_);fill:#EDDCBC;" d="M425.7,451.3
			c-0.1,0-0.2-0.1-0.3-0.1C425.5,451.2,425.6,451.2,425.7,451.3z"/>
		<path style="clip-path:url(#SVGID_00000100342549881055824100000017147624283489008557_);fill:#EDDCBC;" d="M425.3,451.1
			c-0.2-0.1-0.3-0.1-0.4-0.2C425,451,425.2,451,425.3,451.1z"/>
		<path style="clip-path:url(#SVGID_00000100342549881055824100000017147624283489008557_);fill:#EDDCBC;" d="M449.3,465.7
			c0.4,0.3,0.7,0.7,1,1C450,466.4,449.7,466.1,449.3,465.7z"/>
		<path style="clip-path:url(#SVGID_00000100342549881055824100000017147624283489008557_);fill:#EDDCBC;" d="M426.2,451.5
			c-0.2-0.1-0.3-0.1-0.4-0.2C425.9,451.3,426.1,451.4,426.2,451.5z"/>
		<path style="clip-path:url(#SVGID_00000100342549881055824100000017147624283489008557_);fill:#EDDCBC;" d="M426.3,451.5
			C426.3,451.5,426.2,451.5,426.3,451.5C426.2,451.5,426.3,451.5,426.3,451.5z"/>
		<path style="clip-path:url(#SVGID_00000100342549881055824100000017147624283489008557_);fill:#EDDCBC;" d="M449.3,465.7
			C449.3,465.7,449.3,465.7,449.3,465.7C449.3,465.7,449.3,465.7,449.3,465.7z"/>
		<path style="clip-path:url(#SVGID_00000100342549881055824100000017147624283489008557_);fill:#EDDCBC;" d="M452.4,469
			C452.4,469,452.4,469,452.4,469C452.4,469,452.4,469,452.4,469z"/>
		<path style="clip-path:url(#SVGID_00000100342549881055824100000017147624283489008557_);fill:#EDDCBC;" d="M450.4,466.8
			C450.4,466.8,450.4,466.8,450.4,466.8C450.4,466.8,450.4,466.8,450.4,466.8z"/>
		<path style="clip-path:url(#SVGID_00000100342549881055824100000017147624283489008557_);fill:#EDDCBC;" d="M453.3,470.2
			C453.3,470.2,453.3,470.2,453.3,470.2C453.3,470.2,453.3,470.2,453.3,470.2z"/>
		<path style="clip-path:url(#SVGID_00000100342549881055824100000017147624283489008557_);fill:#EDDCBC;" d="M424.9,451
			C424.9,450.9,424.9,450.9,424.9,451C424.9,450.9,424.9,450.9,424.9,451z"/>
		<path style="clip-path:url(#SVGID_00000100342549881055824100000017147624283489008557_);fill:#EDDCBC;" d="M451.4,467.9
			C451.4,467.9,451.4,467.9,451.4,467.9C451.4,467.9,451.4,467.9,451.4,467.9z"/>
		<path style="clip-path:url(#SVGID_00000100342549881055824100000017147624283489008557_);fill:#EDDCBC;" d="M425.8,451.3
			C425.8,451.3,425.8,451.3,425.8,451.3C425.8,451.3,425.8,451.3,425.8,451.3z"/>
		<path style="clip-path:url(#SVGID_00000100342549881055824100000017147624283489008557_);fill:#EDDCBC;" d="M426.9,451.7
			C426.8,451.7,426.8,451.7,426.9,451.7C426.8,451.7,426.8,451.7,426.9,451.7z"/>
		<path style="clip-path:url(#SVGID_00000100342549881055824100000017147624283489008557_);fill:#EDDCBC;" d="M427.5,452
			C427.5,452,427.5,452,427.5,452C427.5,452,427.5,452,427.5,452z"/>
		<path style="clip-path:url(#SVGID_00000100342549881055824100000017147624283489008557_);fill:#EDDCBC;" d="M425.4,451.1
			C425.4,451.1,425.4,451.1,425.4,451.1C425.4,451.1,425.4,451.1,425.4,451.1z"/>
		<path style="clip-path:url(#SVGID_00000100342549881055824100000017147624283489008557_);fill:#EDDCBC;" d="M429.1,452.7
			C429.1,452.7,429.1,452.7,429.1,452.7C429.1,452.7,429.1,452.7,429.1,452.7z"/>
		<path style="clip-path:url(#SVGID_00000100342549881055824100000017147624283489008557_);fill:#EDDCBC;" d="M429.9,453.1
			C429.9,453.1,429.9,453.1,429.9,453.1C429.9,453.1,429.9,453.1,429.9,453.1z"/>
		<path style="clip-path:url(#SVGID_00000100342549881055824100000017147624283489008557_);fill:#EDDCBC;" d="M428.3,452.3
			C428.2,452.3,428.2,452.3,428.3,452.3C428.2,452.3,428.2,452.3,428.3,452.3z"/>
		<path style="opacity:0.5;clip-path:url(#SVGID_00000100342549881055824100000017147624283489008557_);fill:#D6CD56;" d="
			M446,459.5c-12.4-15.9-33.2-23.8-33.2-23.8c-0.1,1.1-0.2,2.1-0.3,3.1c0,0,0,0,0,0c0,0,0,0,0,0c-0.1,0.9-0.1,1.7-0.1,2.6
			c0,0.2,0,0.4,0,0.6c0,0.8,0,1.5-0.1,2.3c0,0.3,0,0.6,0,0.8c0,0.7,0,1.4,0,2c0,0.3,0,0.6,0,0.9c0,0.1,0,0.3,0,0.4l0,0
			c0.9,27,14,35.8,14,35.8c-0.7,15.8,7.7,18.9,7.7,18.9c-6.2,5.9-12.2,22.5-15.6,33.1c0,0,11.1-21.6,16.4-23.1
			c4.6-2.9,12.9-6.6,6.5-20.3c-5.6-12-8.6-29.4-16.4-42l0,0c0,0,0,0,0.1,0c0.1,0,0.2,0.1,0.4,0.2c0,0,0,0,0.1,0
			c0.1,0,0.2,0.1,0.3,0.1c0,0,0,0,0.1,0c0.1,0.1,0.3,0.1,0.4,0.2c0,0,0,0,0.1,0c0.2,0.1,0.3,0.1,0.5,0.2c0,0,0.1,0,0.1,0
			c0.2,0.1,0.4,0.2,0.6,0.2c0,0,0,0,0.1,0c0.2,0.1,0.4,0.2,0.7,0.3c0,0,0,0,0.1,0c0.2,0.1,0.5,0.2,0.8,0.3c0,0,0,0,0,0
			c0.3,0.1,0.6,0.3,0.9,0.4c0,0,0,0,0,0c5.2,2.4,13.3,6.7,19.4,12.6c0,0,0,0,0,0c0.4,0.3,0.7,0.7,1,1c0,0,0,0,0,0
			c0.3,0.3,0.7,0.7,1,1.1c0,0,0,0,0,0c0.3,0.4,0.6,0.7,0.9,1.1c0,0,0,0,0,0c0.3,0.4,0.6,0.7,0.9,1.1c0,0,0,0,0,0
			c0.3,0.4,0.6,0.8,0.8,1.2c0,0,0,0,0,0C449.5,463.8,446,459.5,446,459.5z"/>
		<path style="clip-path:url(#SVGID_00000100342549881055824100000017147624283489008557_);fill:#2B2B2B;" d="M904.7,497"/>
		<path style="opacity:0.5;clip-path:url(#SVGID_00000100342549881055824100000017147624283489008557_);fill:#D8D0A4;" d="
			M947.3,583.7c1.6-3.9,7.1-14.5,6.8-17c-0.3-2.6-10.6-2.6-10.6-2.6c-0.6-2.2-4.2-5.5-4.2-5.5c4.2-0.3,3.9-2.2,8.4-6.8
			s-10.6-18.6-10.6-18.6c5.8-1.6,6.4-7.4,6.4-7.4c0-0.3,0.1-0.6,0.1-0.9c0-0.1,0-0.2,0-0.3c0-0.3,0-0.5-0.1-0.8c0,0,0-0.1,0-0.1
			c-0.1-0.3-0.1-0.6-0.2-0.9c0-0.1,0-0.2-0.1-0.2c-0.1-0.3-0.2-0.5-0.3-0.8c0-0.1-0.1-0.1-0.1-0.2c-0.1-0.3-0.3-0.6-0.5-0.9
			c0-0.1-0.1-0.1-0.1-0.2c-0.1-0.3-0.3-0.5-0.5-0.8c-0.1-0.1-0.1-0.2-0.2-0.3c-0.2-0.3-0.4-0.6-0.7-0.9c0,0-0.1-0.1-0.1-0.1
			c-0.2-0.3-0.4-0.6-0.7-0.8c-0.1-0.1-0.2-0.2-0.2-0.3c-0.2-0.3-0.5-0.6-0.8-0.8c0,0-0.1-0.1-0.1-0.1c-0.3-0.3-0.6-0.6-0.9-0.9
			c-0.1-0.1-0.2-0.2-0.3-0.3c-0.3-0.2-0.5-0.5-0.8-0.7c-0.1-0.1-0.2-0.2-0.3-0.2c-0.3-0.3-0.7-0.6-1-0.9c-0.1-0.1-0.2-0.2-0.4-0.3
			c-0.3-0.2-0.5-0.4-0.8-0.6c-0.1-0.1-0.3-0.2-0.4-0.3c-0.4-0.3-0.7-0.6-1.1-0.8c-0.1-0.1-0.3-0.2-0.4-0.3c-0.3-0.2-0.5-0.4-0.8-0.6
			c-0.2-0.1-0.3-0.2-0.5-0.4c-0.3-0.2-0.6-0.4-0.9-0.6c-0.2-0.2-0.5-0.3-0.7-0.5c-0.3-0.2-0.5-0.3-0.8-0.5c-0.2-0.1-0.4-0.3-0.6-0.4
			c-0.2-0.1-0.5-0.3-0.7-0.4c-0.4-0.2-0.7-0.4-1.1-0.6c-0.2-0.1-0.5-0.3-0.7-0.4c-0.3-0.1-0.5-0.3-0.8-0.4c-0.2-0.1-0.4-0.2-0.6-0.3
			c-0.9-0.5-1.8-1-2.8-1.5c-0.1-0.1-0.3-0.1-0.4-0.2c-0.3-0.2-0.6-0.3-0.9-0.5c0,0,0,0,0,0c0,0-0.1,0-0.1-0.1
			c-0.6-0.3-1.3-0.6-1.9-0.9c-0.1,0-0.1,0-0.2-0.1c0,0-0.1,0-0.1,0c-0.8-0.4-1.6-0.8-2.4-1.1l0,0c-3.3-1.5-6.4-2.8-8.8-3.7
			c-4.8-1.8-12.1-1.5-19-0.4c-0.4,0.1-0.8,0.1-1.2,0.2c-0.1,0-0.3,0-0.4,0.1c-0.5,0.1-0.9,0.2-1.4,0.2c-0.1,0-0.2,0-0.2,0
			c-1.1,0.2-2.2,0.4-3.2,0.7c-0.1,0-0.2,0-0.3,0.1c-0.4,0.1-0.8,0.2-1.2,0.3c-0.2,0-0.3,0.1-0.5,0.1c-0.3,0.1-0.7,0.2-1,0.2
			c-0.2,0-0.3,0.1-0.5,0.1c-0.3,0.1-0.6,0.2-0.9,0.2c-0.2,0-0.3,0.1-0.4,0.1c-0.3,0.1-0.6,0.2-0.9,0.2c-0.1,0-0.2,0.1-0.4,0.1
			c-0.4,0.1-0.7,0.2-1.1,0.3c0,0-0.1,0-0.1,0c-0.4,0.1-0.8,0.2-1.1,0.3c-0.1,0-0.1,0-0.2,0.1c-0.3,0.1-0.6,0.2-0.8,0.2
			c-0.1,0-0.2,0.1-0.3,0.1c-0.2,0.1-0.4,0.1-0.6,0.2c-0.1,0-0.2,0.1-0.3,0.1c-0.2,0.1-0.3,0.1-0.5,0.2c-0.1,0-0.2,0.1-0.3,0.1
			c-0.1,0.1-0.3,0.1-0.4,0.1c-0.1,0-0.2,0.1-0.2,0.1c-0.1,0-0.2,0.1-0.4,0.1c-0.1,0-0.1,0-0.2,0.1c-0.1,0.1-0.3,0.1-0.4,0.2
			c-2.9,1.3-9.3,5.8-44.7-14.1c-35.4-19.9-72-12.9-86.8-11.6c-14.8,1.3-80.4-2.8-80.4-2.8l-0.8,14.3c40.4,12.4,95.3,3.1,95.3,3.1
			s51.1-12.1,97.4,26.2c0,0,12.5,7.1,23.1,0c2.9-2,5.9-4.8,9.3-7.6c14.4-9.9,24.1,2.4,21.6,3c0,0-1.2,3.9,5.6,7.7
			c6.8,3.8,6.4,23.7-8.2,20.8c-14.6-2.9,0,13,0,13s7.2,12.9-6.5,16.3c-13.7,3.4,0,8.6,0,8.6s8.6,5.6,4.3,13.7
			c-4.3,8.1-29.9,0-29.9,0c0.5,0.3,1,0.7,1.5,1c0.1,0.1,0.2,0.1,0.2,0.2c0.5,0.3,1,0.6,1.4,0.9c0.1,0.1,0.2,0.1,0.3,0.2
			c0.5,0.3,0.9,0.6,1.4,0.9c0.1,0.1,0.2,0.1,0.3,0.2c0.5,0.3,0.9,0.6,1.3,0.8c0.1,0.1,0.2,0.1,0.3,0.2c0.5,0.3,0.9,0.5,1.3,0.8
			c0,0,0.1,0,0.1,0.1c1.9,1.1,3.6,2.1,5.1,3c0.1,0.1,0.2,0.1,0.3,0.2c0.3,0.2,0.5,0.3,0.8,0.4c0.1,0.1,0.3,0.2,0.4,0.2
			c0.2,0.1,0.4,0.2,0.6,0.4c0.2,0.1,0.3,0.2,0.5,0.3c0.2,0.1,0.4,0.2,0.5,0.3c0.2,0.1,0.3,0.2,0.5,0.3c0.1,0.1,0.3,0.2,0.4,0.2
			c0.2,0.1,0.3,0.2,0.5,0.2c0.1,0.1,0.2,0.1,0.3,0.2c0.2,0.1,0.3,0.1,0.4,0.2c0.1,0,0.1,0.1,0.2,0.1c0.2,0.1,0.4,0.2,0.5,0.2
			c4.5,1.9,11.9,5.8,18.3,4.5c6.4-1.3,6.4-0.3,12.5-1.6c6.1-1.3,17.4,1,25.4-2.2C951.5,601.4,945.7,587.6,947.3,583.7z"/>
		<path style="clip-path:url(#SVGID_00000100342549881055824100000017147624283489008557_);fill:#FFF871;" d="M220.6,591
			c-1.5,2.2-1.7,5.1-0.3,7.4l0,0l24,40.4c0.7,1.1,0.3,2.5-0.8,3.2c-0.2,0.1-0.4,0.2-0.6,0.3c-10.8,2.7-22-2-27.7-11.5
			c-0.2-0.3-0.3-0.6-0.5-0.9l-0.2-0.3c-0.1-0.2-0.2-0.5-0.4-0.7l-0.1-0.2c-0.3-0.6-0.6-1.2-0.8-1.9l-0.1-0.2
			c-0.1-0.3-0.2-0.6-0.3-0.8c0,0,0-0.1,0-0.1c-0.2-0.7-0.4-1.3-0.6-2l0-0.1c-0.1-0.3-0.1-0.6-0.2-1l0,0c-0.1-0.7-0.2-1.4-0.3-2.1
			l0-0.1c-0.1-0.7-0.1-1.4-0.1-2.1l0,0c0-0.3,0-0.6,0-1c0-0.1,0-0.1,0-0.2c0-0.3,0-0.6,0-0.9l0-0.1c0-0.3,0.1-0.6,0.1-1l0-0.3
			c0.2-1.4,0.5-2.7,0.8-4.1c0.2-0.6,0.4-1.1,0.6-1.6c0.6-1.4-0.1-3.1-1.6-3.6c-0.1,0-0.2-0.1-0.4-0.1l-2.8-0.7
			c-1.4-0.3-2.8,0.4-3.3,1.7c-0.7,1.9-1.2,3.9-1.6,5.9l0,0l0,0.1c-0.1,0.5-0.2,0.9-0.2,1.4l0,0c-0.1,0.4-0.1,0.9-0.1,1.3l0,0.2
			c0,0.8,0,1.7,0,2.6l0,0.2c0,0.9,0,1.8,0.1,2.7c0,0.1,0,0.2,0,0.3c0,0.4,0.1,0.8,0.1,1.2l0,0.1c0.1,0.4,0.1,0.9,0.2,1.3l0,0.3
			c0.1,0.4,0.2,0.8,0.2,1.2l0,0.2c0.1,0.4,0.2,0.9,0.3,1.3l0.1,0.2c0.1,0.4,0.2,0.7,0.3,1.1c0,0.1,0.1,0.2,0.1,0.3
			c0.1,0.4,0.3,0.9,0.5,1.3c0,0.1,0.1,0.1,0.1,0.2c0.1,0.4,0.3,0.8,0.4,1.1c0.1,0.1,0.1,0.2,0.1,0.3c0.2,0.4,0.4,0.8,0.6,1.2
			c0,0,0,0.1,0.1,0.1c0.2,0.4,0.4,0.7,0.6,1.1c0.1,0.1,0.1,0.2,0.2,0.3c0.2,0.4,0.5,0.8,0.7,1.2l-0.1,0
			c8.3,13.9,25.3,19.9,40.5,14.3c1.1-0.4,2.3,0,2.8,1l6.5,10.9c0.7,1.1,2.1,1.5,3.2,0.8c0,0,0,0,0,0l3.2-1.9
			c1.1-0.7,1.5-2.1,0.8-3.2l0,0l-6.5-10.9c-0.6-1-0.4-2.2,0.5-2.9c5.1-4.5,8.7-10.4,10.4-17c0.7-2.8,1-5.6,1-8.4
			c-0.1-18.6-15.2-33.5-33.8-33.4c-2.5,0-5,0.3-7.4,0.9C225.6,586,222.6,588.1,220.6,591z M261.9,615.6c0.6,7.1-1.8,14-6.6,19.2
			c-0.9,0.9-2.3,1-3.3,0.1c-0.2-0.2-0.3-0.3-0.4-0.5L230.4,599c-1.1-1.9-0.5-4.4,1.4-5.5c0.5-0.3,0.9-0.4,1.5-0.5
			c13.7-2,26.5,7.6,28.4,21.3C261.8,614.7,261.8,615.1,261.9,615.6L261.9,615.6z"/>
		<g style="clip-path:url(#SVGID_00000100342549881055824100000017147624283489008557_);">
			<path class="st7" d="M352.4,389.9c-0.2,2.9-0.1,5.8,0.2,8.7c0.3,2.8,0.9,5.6,1.8,8.3c0.9,2.7,2.2,5.2,3.9,7.5
				c1.6,2.4,3.7,4.3,5.9,6.4c-2.6-1.3-5.2-3-7.1-5.4l-0.8-0.8c-0.2-0.3-0.4-0.6-0.6-0.9c-0.4-0.6-0.9-1.2-1.2-1.9l-1-2
				c-0.3-0.7-0.6-1.4-0.8-2.1c-1-2.9-1.5-5.9-1.5-8.9C351,395.7,351.4,392.7,352.4,389.9z"/>
		</g>
		<path style="clip-path:url(#SVGID_00000100342549881055824100000017147624283489008557_);fill:#FFF871;" d="M320.9,660.1
			c1.7-0.2,3.5-0.3,5.2-0.3c-3.9-11-10.5-26.4-20-38.1c-0.2-0.3-0.4-0.5-0.6-0.8c4.8,2.8,12.2,7.8,18.6,12.6l10.4,12.5l1.3-0.1
			c0.9-0.1,92-6.8,152.8-39.9c3-3.5,6-6.9,8.9-10.4l-5.1,2.5l-0.2,0.1c-55.8,33.4-143.8,41.7-155.4,42.6l-9.2-11l-0.2-0.2
			c-25.2-18.7-27.4-16.4-28.8-14.9c-2.3,2.4,0.3,6,3.7,10.1C310.9,635.4,317,649.6,320.9,660.1z"/>
		<g style="clip-path:url(#SVGID_00000100342549881055824100000017147624283489008557_);">
			<text transform="matrix(1 0 0 1 492.9115 383.955)" class="st21 st22 st23">?</text>
		</g>
		<g style="clip-path:url(#SVGID_00000100342549881055824100000017147624283489008557_);">
			<text transform="matrix(0.9329 0.3601 -0.3601 0.9329 582.6078 383.9971)" class="st21 st22 st24">?</text>
		</g>
	</g>
</g>
<g id="Capa_3">
	<path class="st25" d="M860.7,503.6c0,0-5.4-9.6-17.1-12.2c-11.8-2.6-20.1-1.1-26.8,1.5c0,0-3.2-1.9-6.2,2.6s-16.7,33.6-16.7,33.6
		s-3,5.4,1.1,7.1c0,0,3,14.8,12.2,20.1c9.2,5.4,19.6,10.3,19.6,10.3s4,1.9,10.2,1.1c0,0-3.4-8.6-19.5-10.5c0,0-4.5-4.7-4.9-7.3
		c-0.4-2.6,1.1-3.2,2.6-3.2s4.9-1.3,6.6-4.7c1.7-3.4,16.7-34.5,16.7-34.5s0.6-3.6-0.9-4.7c-1.5-1.1-0.6-4.5,1.7-4.3
		C841.6,498.7,849.7,498.7,860.7,503.6z"/>
	<path class="st26" d="M813.7,539.2c0,0,11.8-26.1,15.9-33.2c4.1-7.1,0-8.4,0-8.4l-12.9-4.7c0,0-3.2-1.9-6.2,2.6
		s-16.7,33.6-16.7,33.6s-3,5.4,1.1,7.1c0,0,6.2,3.2,11.4,5.4C811.4,543.7,813.7,539.2,813.7,539.2z"/>
	<circle class="st27" cx="831.1" cy="512.7" r="2.5"/>
	<circle class="st27" cx="826.7" cy="521.9" r="2.5"/>
	<circle class="st27" cx="822.3" cy="531.7" r="1.7"/>
	<path class="st26" d="M817.4,557.2c0,0,6.8,7.2,18.4,8.7C833.9,563.3,828.9,558.5,817.4,557.2z"/>
	<g>
		<path class="st21" d="M319,408l-9.8,0.6c-5.1,0.3-9.5,3.9-10,9.4c-0.5,5.5,3.3,10.3,8.4,10.8c0.5,0,1,0,1.5,0l9.4-0.1L319,408z"/>
		<path class="st28" d="M319,408l-9.8,0.6c-5.1,0.3-9.5,3.9-10,9.4c-0.5,5.5,3.3,10.3,8.4,10.8c0.5,0,1,0,1.5,0l9.4-0.1L319,408z"/>
		<path class="st21" d="M341.6,412.3l-0.2-5.1l-15.7,0.6l-1.1,1.5l-3.2-1.4l-1.1,0c-5.1-0.4-9.6,4.4-10.1,9.9
			c-0.5,5.5,3.3,10.3,8.4,10.8c5.1,0.4,9.6-3.7,10-9.2c0.1-1.2,0-2.4-0.3-3.6l0,0C328,412.3,341.6,412.3,341.6,412.3z"/>
		
			<ellipse transform="matrix(8.295647e-02 -0.9966 0.9966 8.295647e-02 -123.9828 701.8966)" class="st28" cx="319.4" cy="418.3" rx="7.9" ry="7"/>
		<path class="st29" d="M307.6,414.8"/>
		<path class="st21" d="M302.9,418.3c0-0.4,0.2-0.7,0.5-0.9c0.2-0.7,0.5-1.2,0.5-1.2s-1.6,0-2.5,0.1c-0.9,0-1.5,0.8-1.5,2.3
			c0.1,2.3,1.6,2.3,1.6,2.3l2.4-0.1c-0.4-0.5-0.6-1-0.7-1.5C303,419,302.9,418.6,302.9,418.3z"/>
		<path class="st30" d="M306.1,416.1c0,0-1.6,0-2.5,0.1c-0.9,0-1.5,0.8-1.5,2.3c0.1,2.3,1.6,2.3,1.6,2.3l2.4-0.1
			C305.4,418.4,306.1,416.1,306.1,416.1z M304.1,419.6c-0.7-0.1-1.2-0.7-1.1-1.3c0.1-0.7,0.7-1.2,1.3-1.1c0.7,0.1,1.2,0.7,1.1,1.3
			C305.3,419.1,304.7,419.7,304.1,419.6z"/>
	</g>
</g>
</svg>
