<?xml version="1.0" encoding="utf-8"?>
<!-- Generator: Adobe Illustrator 25.4.1, SVG Export Plug-In . SVG Version: 6.00 Build 0)  -->
<svg version="1.1" xmlns="http://www.w3.org/2000/svg" xmlns:xlink="http://www.w3.org/1999/xlink" x="0px" y="0px"
	 viewBox="0 0 1080 1137.6" style="enable-background:new 0 0 1080 1137.6;" xml:space="preserve">
<style type="text/css">
	.st0{fill:#F2F2F2;}
	.st1{fill:#00E9C5;}
	.st2{font-family:'CachetStd-Bold';}
	.st3{font-size:278.5701px;}
	.st4{font-size:177.8639px;}
	.st5{clip-path:url(#SVGID_00000142879573140341818140000006314400255351972000_);fill:#936721;}
	.st6{clip-path:url(#SVGID_00000142879573140341818140000006314400255351972000_);fill:#E0A741;}
	.st7{fill:#3F3F3F;}
	.st8{fill:#AAAAAA;}
	.st9{fill:#5B5B5B;}
	.st10{fill:none;}
	.st11{fill:#B7B7B7;}
	.st12{opacity:0.5;fill:#5B5B5B;}
	.st13{opacity:0.5;fill:#00E9C5;}
	.st14{fill:#2D2D2D;}
	.st15{fill:#121318;}
	.st16{opacity:0.5;fill:#121318;}
	.st17{fill:#FFFFFF;}
	.st18{fill:#D3D3D3;}
	.st19{fill:#DDB185;}
	.st20{fill:#C5AAA3;}
	.st21{opacity:0.5;fill:#DDB185;}
	.st22{fill:#3F996E;}
	.st23{fill:#542A05;}
	.st24{fill:#4C3111;}
	.st25{fill:#4F2F19;}
	.st26{opacity:0.5;}
</style>
<g id="Capa_4">
	<g>
		<path class="st0" d="M771.5,925.4c-26.6,54-81.4,96.6-134.6,88.5c-65.1-10-105.2-88.3-170.9-94.3c-54-5-102.8,39.9-148,77
			c-32.1,26.3-66.8,50.4-105,60.6c-38.2,10.2-80.6,4.6-108-23.3c-29.6-30.1-36.5-79.5-34.2-125.5c4.2-85.5,53.6-113.1,53.9-147.4
			c0.3-34.6-24.3-60.4-44.8-85C52.2,642.9,27.2,544,33.4,497.8C40,449,76.8,332.1,225.7,300c110.9-23.9,197.2-99.4,236.1-140.4
			c2.1-2.3,44.6-36.7,46.8-39c0.1-0.1-40.3,32.1-40.3,32c0,0,0,0,0,0c70-71.9,218.5-127.4,300.9-86.6c86.7,43,144,154.8,120.5,260.8
			c-8.8,39.7-4.1,19.8-17.7,63.5c-16.2,48.8-71.7,130.6-76.8,181.4c-6.1,59.6,1.8,118.7,4.2,177.9S798.1,871.4,771.5,925.4z"/>
	</g>
	<text transform="matrix(1 0 0 1 641.8658 293.4784)" class="st1 st2 st3">?</text>
	<text transform="matrix(0.9329 0.3601 -0.3601 0.9329 731.562 293.5205)" class="st1 st2 st4">?</text>
</g>
<g id="Capa_5">
	<g>
		<defs>
			<path id="SVGID_1_" d="M771.5,925.4c-26.6,54-81.4,96.6-134.6,88.5c-65.1-10-105.2-88.3-170.9-94.3c-54-5-102.8,39.9-148,77
				c-32.1,26.3-66.8,50.4-105,60.6c-38.2,10.2-80.6,4.6-108-23.3c-29.6-30.1-36.5-79.5-34.2-125.5c4.2-85.5,53.6-113.1,53.9-147.4
				c0.3-34.6-24.3-60.4-44.8-85C52.2,642.9,27.2,544,33.4,497.8C40,449,76.8,332.1,225.7,300c110.9-23.9,197.2-99.4,236.1-140.4
				c2.1-2.3,44.6-36.7,46.8-39c0.1-0.1-40.3,32.1-40.3,32c0,0,0,0,0,0c70-71.9,218.5-127.4,300.9-86.6
				c86.7,43,144,154.8,120.5,260.8c-8.8,39.7-4.1,19.8-17.7,63.5c-16.2,48.8-71.7,130.6-76.8,181.4c-6.1,59.6,1.8,118.7,4.2,177.9
				S798.1,871.4,771.5,925.4z"/>
		</defs>
		<clipPath id="SVGID_00000036968342006408972930000013847344073856573844_">
			<use xlink:href="#SVGID_1_"  style="overflow:visible;"/>
		</clipPath>
		<polygon style="clip-path:url(#SVGID_00000036968342006408972930000013847344073856573844_);fill:#936721;" points="724.3,735.4 
			724.3,1029 699.7,1029 699.7,732.9 		"/>
		<polygon style="clip-path:url(#SVGID_00000036968342006408972930000013847344073856573844_);fill:#E0A741;" points="68.4,709.7 
			724.3,709.7 724.3,735.4 662.8,782.4 63.3,782.4 		"/>
	</g>
</g>
<g id="Capa_2">
	<path class="st7" d="M692.9,1010.9c0,0,7.8,9.2,6.8,18.1c-1,8.9-11.2,11-11.2,11s36.9,57.7-47.3,62.5s-42.7-48.2-42.7-48.2
		L692.9,1010.9z"/>
	<path class="st7" d="M307.2,1040c0,0,12.8,7.1,11.4,15.7c-1.4,8.5-7.8,29.2-42.7,26.3c-34.9-2.8-32.7-5-50.5,3.6
		s-44.8,30.6-89.6,19.9c0,0-32.7-6.4-34.2-27.7L307.2,1040z"/>
	<path class="st8" d="M622.6,986.4c0,0-6.8,6.2-3.9,21.6c2.9,15.4-20.2,46.3-20.2,46.3s-20.2,19.3,0,31.8
		c20.2,12.5,77.1,15.6,89.7-12c12.5-27.6-1.5-28.4,0.2-38.3c1.8-10.8,17.1-8.4-6-45.6l-41.2-13.9L622.6,986.4z"/>
	<path class="st8" d="M286.6,986.5c0,0,12.1-4.2,12.1,8.6s5.3,37.4,5.3,37.4s22.1,36.3-31.7,36.3s-86.8,23.5-86.8,23.5
		s-27.7,7.5-64,0s-20.3-31.8,25.6-42.7c12.2-2.9,4.7-3.7,29.8-26.9c11.1-10.2,40.6-32.4,40.6-32.4l8.4-27.9l32.9,14.8L286.6,986.5z"
		/>
	<g>
		<path class="st9" d="M267.6,595.8c0-0.6,0.1-1.2,0.1-1.7l0,0C267.7,594.6,267.7,595.2,267.6,595.8z"/>
		<path class="st9" d="M629.6,272.1c-14.8-11.6-29.6-57.9-29.6-57.9s-22.1-41.2-79.7-46.9C403,155.6,399.6,239.5,384.8,276.7
			c0,0-62.8,29.1-109,155.7c0,0-26.3,79.1-26.9,93.8c-0.6,14.8,12.9,62,33.4,94l47.1-4.7l-0.3,1.3l37.6,6.9c0,0,38.5-24.4,55.3-25.1
			c2.2-0.1,4.7,0.2,7.3,0.8l0,0.4l2.3,0.2c16.3,4.8,36.1,19.8,36.1,19.8l147.2-64.3l53.4-208.3v-34.1
			C668.2,313.2,644.4,283.7,629.6,272.1z M439.8,600.8l0.2,0c0.1,0.9,0.3,1.8,0.5,2.7C440.2,602.6,440,601.7,439.8,600.8z
			 M588.5,261.5c-1.1,8.2-3.6,16-6.9,23.4c-1.6,3.7-3.4,7.2-5.4,10.7c-1.9,3.5-4,6.8-6.2,10.1c-4.4,6.6-9.1,12.8-14.1,18.8
			c-10,12-21,23-32.3,33.6c-4.6,4.3-9.4,8.5-14.1,12.7l-85.3,8.8c-1.7-3-3.1-6.2-4.3-9.4c-2.7-7.5-4.1-15.3-4.6-23.2
			c-0.3-3.9-0.3-7.9-0.2-11.8c0.2-3.9,0.5-7.8,1-11.7c1-7.8,2.5-15.5,4.7-23c4.3-15.1,10.4-29.6,18.1-43.2
			c3.9-6.8,8.1-13.5,12.8-19.8c4.7-6.3,9.8-12.3,15.4-17.9c5.6-5.6,11.7-10.7,18.4-15.2c3.4-2.2,6.8-4.3,10.5-6.1l1.4-0.7l1.4-0.6
			c0.9-0.4,1.9-0.8,2.8-1.2c1.9-0.7,3.8-1.5,5.8-2c1.9-0.7,4-1.1,6-1.6c1-0.2,2-0.4,3.1-0.5c1-0.2,2.1-0.3,3.1-0.4
			c2.1-0.3,4.2-0.3,6.3-0.3c1,0,2.1,0.1,3.1,0.1c0.5,0,1,0,1.6,0.1l1.6,0.2c8.4,0.9,16.4,3.9,23.5,8.1c1.7,1.1,3.5,2.1,5.1,3.4
			l2.5,1.8l2.3,1.9c1.6,1.3,3,2.7,4.6,4.1c0.7,0.7,1.4,1.5,2.2,2.2c0.7,0.7,1.4,1.5,2.1,2.3c5.4,6.2,9.9,13.5,12.4,21.6
			C589.2,244.7,589.6,253.4,588.5,261.5z"/>
	</g>
	<path class="st9" d="M267.6,595.8c0-0.6,0.1-1.2,0.1-1.7l0,0C267.7,594.6,267.7,595.2,267.6,595.8z"/>
	<polygon class="st9" points="301.1,557.4 301.1,557.4 301.1,557.4 	"/>
	<path class="st10" d="M279.4,567.7c-1.1,1-2.1,2.1-3,3.2C277.3,569.8,278.3,568.7,279.4,567.7z"/>
	<path class="st11" d="M668.2,997l-1.1-11.9l-25.9-8.8l-14,7.6l-4,11.2c0,0-9.6,49.6,18,50.9C668.8,1047.2,668.2,997,668.2,997z"/>
	<path class="st10" d="M273.4,575.2c-0.9,1.5-1.6,3-2.2,4.5C271.8,578.2,272.6,576.7,273.4,575.2z"/>
	<path class="st10" d="M269.5,584.5c-0.3,1.1-0.6,2.3-0.8,3.4C268.9,586.8,269.2,585.7,269.5,584.5z"/>
	<path class="st10" d="M288.5,561.4c-1.8,0.9-3.5,1.9-5.1,3C285,563.3,286.7,562.3,288.5,561.4z"/>
	<path class="st11" d="M227.2,1021.5c24.4-12.2,18-42.4,18-42.4h-24.3l-3.4,11.1c0,0-29.5,22.2-40.6,32.4
		c-8.9,8.2-13.7,13.6-16.8,17.3C179.2,1053.3,202.8,1033.7,227.2,1021.5z"/>
	<g>
		<path class="st12" d="M438.4,600.7c-0.8,0.5-1.5,1-2.1,1.4c0.6,0.2,1.2,0.5,1.8,0.7l1.9-0.6c-0.2-0.8-0.4-1.6-0.5-2.3
			C439.1,600.2,438.7,600.4,438.4,600.7z"/>
		<path class="st12" d="M612.2,439.8L612.2,439.8c0,0,2.1-12,6.5-26.8c0,0-5.9,11.4-9.5,22.6l-11.4-16
			c13.3,24.4-4.2,112.1-4.2,112.1c-18,8.7-38.5,27.4-59.9,37.2c-15,6.9-93.6,33.4-93.6,33.4L611,551.5l16.4-90.3L612.2,439.8z"/>
		<path class="st12" d="M597.8,419.6c-0.7-1.2-1.4-2.3-2.3-3.2L597.8,419.6z"/>
	</g>
	<path class="st13" d="M528.2,201c0.4,0,0.9,0,1.3,0.1l1.3,0.2c6.9,0.8,13.6,3.3,19.6,6.9c1.5,1,3,1.8,4.4,3l2.2,1.6l2.1,1.7
		c1.4,1.1,2.7,2.4,4,3.6c0.7,0.6,1.2,1.3,1.9,1.9c0.6,0.6,1.3,1.3,1.8,2c4.7,5.4,8.3,11.4,10.3,18.1c0.5,1.7,1,3.5,1.3,5.3
		c3.4,5.7,6.7,12.2,9.7,19.7c0.2-1,0.3-2,0.5-3.1c1.1-8.2,0.7-16.8-1.9-24.9c-2.5-8.1-7-15.4-12.4-21.6c-0.7-0.8-1.4-1.5-2.1-2.3
		c-0.7-0.7-1.4-1.5-2.2-2.2c-1.5-1.4-3-2.8-4.6-4.1l-2.3-1.9l-2.5-1.8c-1.6-1.3-3.4-2.3-5.1-3.4c-7.1-4.2-15.1-7.2-23.5-8.1
		l-1.6-0.2c-0.3,0-0.6,0-1-0.1l-2.5,9.5C527.4,200.9,527.8,201,528.2,201z"/>
	<path class="st14" d="M474.1,401.1c2.1-3.4,2.3-7.1,4.8-10.3l3.2-0.3c0.6-0.8,1.2-2.8,1.9-3.5c1.4-1.4,3.7-3.8,5.1-5.1
		c5.8-5.2,7.2-8.1,12.9-13.2c5.7-5.1,9.9-11.5,15.4-16.8c11-10.5,21.5-21.5,31.1-33.1c4.8-5.8,9.3-11.8,13.4-18.1
		c2-3.1,4-6.3,5.8-9.5c1.8-3.2,3.5-6.5,4.9-9.9c3-6.7,5.1-13.7,6-20.7c0.9-7,0.5-14.1-1.6-20.7c-2-6.6-5.6-12.7-10.3-18.1
		c-0.6-0.7-1.2-1.3-1.8-2c-0.6-0.6-1.2-1.3-1.9-1.9c-1.3-1.2-2.6-2.5-4-3.6l-2.1-1.7l-2.2-1.6c-1.4-1.1-3-2-4.4-3
		c-6.1-3.6-12.7-6.1-19.6-6.9l-1.3-0.2c-0.4-0.1-0.9-0.1-1.3-0.1c-0.9,0-1.7-0.1-2.6-0.1c-1.7,0-3.5,0-5.2,0.3
		c-1.7,0.1-3.5,0.5-5.2,0.7c-1.7,0.4-3.5,0.7-5.2,1.3c-1.7,0.4-3.4,1.1-5.1,1.7c-0.8,0.3-1.7,0.7-2.5,1l-1.2,0.5L500,207
		c-3.3,1.5-6.4,3.4-9.5,5.3c-6.1,4-11.9,8.7-17.2,13.9c-10.7,10.4-19.7,22.5-27.4,35.4c-7.7,12.9-13.9,26.8-18.3,41.2
		c-2.2,7.2-4,14.5-5.2,21.9c-0.6,3.7-1,7.4-1.3,11.2c-0.2,3.7-0.4,7.5-0.2,11.2c0.2,7.5,1.4,14.9,3.6,21.9c1.1,3.5,2.6,6.9,4.3,10.2
		c1.8,3.2,1,5.9,3.4,8.8l0,0l1.4,2.6c3,5.7,9.2,8.5,11.3,14.5c2,5.9,5.7,1.7,6.7,7.9c1,5.8,2.2,16.6,7,21.4
		c2.6-6.7,2.1-9.5,5.2-16.1C467.1,411.1,469.9,407.9,474.1,401.1z"/>
	<path class="st1" d="M431.9,390.5c0,0,0.1,0.1,0.1,0.1c0.1,0.1,0.1,0.1,0.2,0.2L431.9,390.5z"/>
	<path class="st1" d="M586.6,237c-2.5-8.1-7-15.4-12.4-21.6c-0.7-0.8-1.4-1.5-2.1-2.3c-0.7-0.7-1.4-1.5-2.2-2.2
		c-1.5-1.4-3-2.8-4.6-4.1l-2.3-1.9l-2.5-1.8c-1.6-1.3-3.4-2.3-5.1-3.4c-7.1-4.2-15.1-7.2-23.5-8.1l-1.6-0.2c-0.5-0.1-1-0.1-1.6-0.1
		c-1,0-2.1-0.1-3.1-0.1c-2.1,0-4.2,0.1-6.3,0.3c-1,0.1-2.1,0.2-3.1,0.4c-1,0.2-2.1,0.3-3.1,0.5c-2,0.5-4,0.9-6,1.6
		c-2,0.6-3.9,1.3-5.8,2c-0.9,0.4-1.9,0.8-2.8,1.2l-1.4,0.6l-1.4,0.7c-3.7,1.8-7.1,3.9-10.5,6.1c-6.7,4.5-12.8,9.6-18.4,15.2
		c-5.6,5.6-10.7,11.6-15.4,17.9c-4.7,6.3-8.9,12.9-12.8,19.8c-7.7,13.6-13.8,28.1-18.1,43.2c-2.2,7.5-3.7,15.2-4.7,23
		c-0.5,3.9-0.8,7.8-1,11.7c-0.1,3.9-0.1,7.9,0.2,11.8c0.5,7.9,1.9,15.7,4.6,23.2c1.4,3.7,3.1,7.3,5.1,10.8c2,3.3,4.4,6.5,7,9.4
		c0,0-0.1-0.1-0.1-0.1l0.2,0.3c-0.1-0.1-0.1-0.1-0.2-0.2c3,5.2,6.5,10.9,10.6,15.3c4.7,5.1,7,9.1,8.4,15c1.3,6,0.7,13.2,5.8,19.3
		c0.4,0.5,16.3,14.7,18.7,21.4l-0.8,2.8l-0.7,2.9c-0.2,1-0.5,1.9-0.6,2.9l-0.5,3c-0.2,1-0.3,2-0.4,3c-0.1,1-0.2,2.1-0.2,3
		c0,2,0,3.9,0,5.9c0.2,7.8,0.6,15.4,1.1,23.1c0.9,15.3,1.7,30.6,1.5,45.9l-0.1,2.9l-0.1,2.9c-0.1,0.9-0.1,1.9-0.2,2.9l-0.3,2.8
		c-0.2,1.9-0.4,3.8-0.6,5.7c-0.2,1.9-0.3,3.8-0.4,5.8c-0.2,3.9-0.2,7.7,0,11.6c0.3,3.8,0.6,7.7,1.8,11.4c-0.9-3.7-1.1-7.6-1.1-11.4
		c0-3.8,0.2-7.6,0.7-11.4c0.2-1.9,0.5-3.8,0.7-5.7c0.3-1.9,0.6-3.7,0.9-5.7l0.4-2.9c0.1-1,0.2-1.9,0.3-2.9l0.3-2.9l0.2-2.9
		c0.5-7.7,0.7-15.4,0.7-23.1c0-7.7-0.1-15.4-0.2-23.1l-0.2-11.5c-0.1-3.8-0.1-7.7-0.1-11.4c0-1.9,0.1-3.8,0.2-5.6
		c0-1,0.1-1.8,0.3-2.7c0.1-0.9,0.2-1.7,0.4-2.7l0.6-2.7c0.2-0.9,0.5-1.8,0.7-2.7l0.7-2.7l0.8-2.7c4.5-14.4-24.3-24.7-17.7-38.3
		c3.4-6.8,7-13.4,11.1-19.6c2-3.1,4.2-6.1,6.5-8.9c1.2-1.3,2.3-2.7,3.6-3.9c1.3-1.2,2.7-2.5,4.1-3.7l17.4-15
		c5.8-5,11.6-10.2,17.3-15.4C535,348,546,336.9,556,324.9c5-6,9.7-12.3,14.1-18.8c2.2-3.3,4.3-6.6,6.2-10.1c1.9-3.5,3.8-7,5.4-10.7
		c3.3-7.3,5.7-15.2,6.9-23.4C589.6,253.7,589.2,245.1,586.6,237z M578.7,260.6c-0.9,7-3.1,14-6,20.7c-1.4,3.4-3.1,6.7-4.9,9.9
		c-1.8,3.2-3.7,6.4-5.8,9.5c-4.1,6.2-8.6,12.2-13.4,18.1c-9.6,11.6-20.1,22.6-31.1,33.1c-5.5,5.2-11.1,10.4-16.8,15.5
		c-5.7,5.1-11.5,10.1-17.3,15.3c-1.4,1.3-8.5,11.6-10.6,15c-4.1,6.7-3.9,7.2-7.2,14.2c-3,6.6-5.9,13.2-8.4,20
		c0.2-5.9-0.3-11.8-1.3-17.7c-1.1-6.2-17.6-19.9-20.6-25.5l-0.1-0.1l-0.2-0.2c-2.4-2.8-4.5-5.9-6.3-9.1c-1.7-3.3-3.2-6.7-4.3-10.2
		c-2.2-7.1-3.4-14.5-3.6-21.9c-0.2-3.7,0-7.5,0.2-11.2c0.3-3.7,0.7-7.5,1.3-11.2c1.2-7.4,3-14.7,5.2-21.9
		c4.4-14.4,10.6-28.2,18.3-41.2c7.7-12.9,16.8-25,27.4-35.4c5.3-5.2,11.1-9.9,17.2-13.9c3.1-1.9,6.2-3.8,9.5-5.3l1.2-0.6l1.2-0.5
		c0.8-0.3,1.7-0.7,2.5-1c1.7-0.6,3.4-1.2,5.1-1.7c1.7-0.5,3.4-0.9,5.2-1.3c1.7-0.3,3.5-0.6,5.2-0.7c1.7-0.2,3.5-0.2,5.2-0.3
		c0.9,0,1.7,0.1,2.6,0.1c0.4,0,0.9,0,1.3,0.1l1.3,0.2c6.9,0.8,13.6,3.3,19.6,6.9c1.5,1,3,1.8,4.4,3l2.2,1.6l2.1,1.7
		c1.4,1.1,2.7,2.4,4,3.6c0.7,0.6,1.2,1.3,1.9,1.9c0.6,0.6,1.3,1.3,1.8,2c4.7,5.4,8.3,11.4,10.3,18.1
		C579.2,246.6,579.6,253.6,578.7,260.6z"/>
	<path class="st15" d="M243.7,644.7c0,0-34.7,48.6-24.2,165.8c3.6,39.8,6.8,82.5,1.9,165.8l-3.9,13.9c0,0,3.9-11.6,13.1-9.6
		c9.2,1.9,11.2,4.8,13.1,14.5s35.6,6.8,40.4,0c4.8-6.8,7.6-91.7,13.1-105.9c16.8-43.5,38.2-89.4,9.9-142.1c0,0,82,47.4,150.6,11.8
		c0,0,24.1,2.9,42.4,1s14.1-3.8,89.4,0.1c0,0-5.1,67.7,19,102.9c34.7,50.7,14.1,123.6,14.1,123.6s-2.6,8.7,0.6,8.7
		s2.2-10.6,22.5-10.6s22.5,12.5,22.5,12.5s13.2,1.9,14.1-6.8c1-8.7-1-105.2,1.2-123.6c2.3-18.9,19.4-63,7.4-146.4
		c0,0,10.3-5.5,7.4-38.3c-2.9-32.8-17.5-71.5-17.5-71.5l-257.3,9.9L243.7,644.7z"/>
	<path class="st16" d="M244.5,996.8c5.4,7.5,35.1,4.6,39.6-1.7c4.8-6.8,7.6-91.7,13.1-105.9c16.8-43.5,38.2-89.4,9.9-142.1
		c0,0,82,47.4,150.6,11.8c0,0,24.1,2.9,42.4,1c18.3-1.9,14.1-3.8,89.4,0.1c-28-6.4-50.5-24.4-49.5-39.9c1-15.4,79.8-57.2,101.5-31
		c21.7,26.3-13.6,264.8-13.6,264.8v0c-1.6,19.2-5.3,32.6-5.3,32.6s-2.6,8.7,0.6,8.7s2.2-10.6,22.5-10.6s22.5,12.5,22.5,12.5
		s13.2,1.9,14.1-6.8c1-8.7-1-105.2,1.2-123.6c2.3-18.9,19.4-63,7.4-146.4c0,0,8.5-6.2,8-31.2c-0.6-32.9-18.1-78.6-18.1-78.6
		l-257.3,9.9l-179.9,24.4c0,0-2.2,3.1-5.4,9.7c2.7,15.4,9,37.5,15.1,68.2c14,70.5-9.7,272.5-9.7,272.5L244.5,996.8z"/>
	<polygon class="st17" points="399.8,619.8 184.8,607.6 130.8,624.1 418.8,642.1 	"/>
	<polygon class="st18" points="130.8,624.1 130.8,637.6 418.8,655.6 418.8,642.1 	"/>
	<path class="st19" d="M422,599c0,0-14-1.8-33,7.1s-22.3,17.9-22.3,17.9s-27.6,14.8,0,12.9c0,0,5.6,2.2,13.5-6.3
		c0,0,11.6,1,25.4-3.9c10.9-3.8,10.6,1.2,10.6,1.2s-30.9,12.2-38.6,18c0,0-12.9,3.2-15.4,5.8c0,0-21.9-1.9-21.2,7.7
		c0,0,9,3.2,15.4,8.4c0,0,13.5,3.2,18,0c0,0-3.2,6.4,7.1,6.4c0,0-1.3,8.4,14.1,8.4c0,0,1.9,7.1,43.7,6.4l25.7-32.8l-31.5-52.1
		L422,599z"/>
	<path class="st9" d="M607.8,473c1.5-42.6,28.9-131.5,60.4-159.4c0,0,42.1,28.4,33.6,117.4c-11,115.5-9.8,182.1-30.4,189.8
		c-20.6,7.7-39.7,1.8-82.3,22.3c-44.7,21.5-53.3,48.4-118.9,41.3l-30.9,4.5c0,0,29.6-39.9-17.4-90l31.5-1.3c0,0,54-10.9,82.3-24.4
		s43.1-32.8,62.4-34.1C598.1,539.3,606.6,507.9,607.8,473z"/>
	<path class="st10" d="M336,592.8c-2.6-0.6-9.1-5.4-9.1-5.4s-8.4,2.6-3.2,7.1c2.5,2.2,4.9,6.2,6.7,9.6
		C330.5,600.2,337.8,593.3,336,592.8z"/>
	<path class="st10" d="M335.6,606.7c-0.1,0-0.2,0-0.3,0C335.4,606.7,335.5,606.7,335.6,606.7z"/>
	<path class="st20" d="M324.4,620.3C324.3,620.3,324.3,620.3,324.4,620.3C324.3,620.3,324.3,620.3,324.4,620.3z"/>
	<path class="st20" d="M331.3,606.1c-0.3-0.6-0.6-1.3-1-2C330.3,605,330.6,605.6,331.3,606.1z"/>
	<path class="st20" d="M335.3,606.7c-2,0-3.2-0.3-3.8-0.5c0.6,0.3,1.6,0.5,2.9,0.5C334.7,606.8,335,606.7,335.3,606.7z"/>
	<path class="st12" d="M378.4,585.2c0,0-19.4-40.5-31-54.8c-11.6-14.4,41.7-9.2-29.2-35.5c0,0,75.8,18,36.2-66.9
		c0,0,11.8,15.3,13.8,23.4c0,0,3.5-43.3,5-48.7C373.2,402.7,370.7,514.3,378.4,585.2z"/>
	<path class="st10" d="M336,592.8c-2.6-0.6-9.1-5.4-9.1-5.4s-8.4,2.6-3.2,7.1c2.5,2.2,4.9,6.2,6.7,9.6
		C330.5,600.2,337.8,593.3,336,592.8z"/>
	<path class="st21" d="M459.9,647.6l-15.3-25.3c-3.1-3.4-6.6-6.3-10.5-8.3c-16.2-8.2-53.9,5.7-60.3,14c-4.2,5.5-13.5,6.5-19.3,6.6
		c0.2,1.8,3.4,2.9,12.3,2.3c0,0,5.6,2.2,13.5-6.3c0,0,11.6,1,25.4-3.9c10.9-3.8,10.6,1.2,10.6,1.2s-30.9,12.2-38.6,18
		c0,0-12.9,3.2-15.4,5.8c0,0-21.9-1.9-21.2,7.7c0,0,9,3.2,15.4,8.4c0,0,13.5,3.2,18,0c0,0-3.2,6.4,7.1,6.4c0,0-1.3,8.4,14.1,8.4
		c0,0,1.9,7.1,43.7,6.4l14.8-18.9L459.9,647.6z"/>
	<path class="st19" d="M381.6,595.9c-2.6-3.5-3.2-10.8-3.2-10.8c-5.1-28.9-14-27.3-14-27.3c-9.7-1.6-18-2-25.2-1.6
		c-3.2,0.2-6.2,0.6-9,1.1c-15.5,3.3-43.4,15.3-18.6,59c0,0,4.5,10.3,18,8.4c0,0,3.9,0.5,7.7,0.2c0,0,16.1,10.7,18.6,4.9
		c2.4-5.4-1.9-9.1-2.5-9.6c1.1,0.8,13.9,10.6,8.9-9.7c0,0-5.1-12.3-9.6-16.1c-3.1-2.6-1.3-4.7,0.5-5.8l2.6,7.1l3.6,1.3
		c-3.7,5.3-1.2,10.3,5,9.6c0.1,0,0.2,0,0.3,0c2.8-0.1,7.1-1,14.1-4.2C380.5,601.8,382.6,597.3,381.6,595.9z"/>
	<g>
		<path class="st1" d="M370.7,562.3C370.7,562.3,370.7,562.3,370.7,562.3L370.7,562.3C370.7,562.3,370.7,562.3,370.7,562.3z"/>
		<path class="st1" d="M308.3,612.8l1-0.8c-20.5-40.1,6-51.4,20.9-54.6c0,0,0,0,0,0c8.9-1.7,20.1-1.7,34.1,0.5c0,0,0.9-0.2,2.3,0.6
			c-7.2-5.5-24.4-13.2-55.7,1.8C311.1,560.3,275.2,585.7,308.3,612.8z M317.7,561.4c-1.8,0.9-3.5,1.9-5.1,3
			C314.2,563.3,315.9,562.3,317.7,561.4z M308.6,567.7c-1.1,1-2.1,2.1-3,3.2C306.5,569.8,307.5,568.7,308.6,567.7z M296.8,596.2
			c0.1-1.3,0.2-2.5,0.3-3.8C297,593.6,296.9,594.9,296.8,596.2z M297.9,587.9c0.2-1.1,0.5-2.3,0.8-3.4
			C298.4,585.7,298.1,586.8,297.9,587.9z M302.6,575.2c-0.9,1.5-1.6,3-2.2,4.5C301,578.2,301.7,576.7,302.6,575.2z"/>
	</g>
	<g>
		<g>
			<path class="st1" d="M678.6,462.9c-0.5,6.5-1.3,13-2.4,19.3c1.6,3.8,3.2,7.4,4.6,10.8c5.8-7.4,11.2-14.7,16.3-21.7
				c0.7-5.2,1.2-10.5,1.5-15.9c-3.6,5.5-7.4,11.2-11.3,17C684.5,469.4,681.6,466.3,678.6,462.9z"/>
			<path class="st1" d="M679.1,427.1c0.4,6.9,0.5,13.7,0.3,20.4c2.2,4.4,4.3,8.6,6.2,12.7c4.8-7.3,9.2-14.3,13.4-21.1
				c-0.1-5.5-0.3-11.1-0.8-16.8c-2.8,5.3-5.8,10.8-9,16.5C685.9,435.1,682.6,431.2,679.1,427.1z"/>
			<path class="st1" d="M674.5,389.8c1.4,7.1,2.4,14.2,3.2,21.2c2.8,4.9,5.5,9.7,8.1,14.3c3.8-7,7.3-13.8,10.5-20.3
				c-0.8-5.8-1.9-11.6-3.1-17.5c-2.1,5.1-4.4,10.3-6.8,15.7C682.5,399,678.6,394.5,674.5,389.8z"/>
			<path class="st1" d="M666,355.7c2.3,7.3,4.2,14.5,5.9,21.7c3.5,5.4,6.8,10.6,9.9,15.6c2.9-6.7,5.6-13.2,8.1-19.3
				c-1.6-5.9-3.4-11.9-5.4-17.9c-1.5,4.8-3.1,9.7-4.9,14.9C675.2,365.8,670.7,360.8,666,355.7z"/>
			<path class="st1" d="M651.1,316.9c3.3,7.3,6.4,14.6,9.1,21.9c4.3,5.8,8.3,11.4,12.3,16.9c2-6.3,3.8-12.3,5.4-17.9
				c-2.4-6-5.1-12.1-8-18.1c-0.8,4.4-1.7,8.9-2.8,13.7C661.9,328,656.6,322.5,651.1,316.9z"/>
		</g>
	</g>
	<path class="st12" d="M668.2,313.6v-0.4c0,0-23.8-29.6-38.6-41.1c-11.4-8.9-22.8-38.5-27.4-51.6l0,0c-1.4-3.9-2.1-6.3-2.1-6.3
		s-22.1-41.2-79.7-46.9C403,155.6,399.6,239.5,384.8,276.7c-4.9,14.7,4.2,24.3,4.2,24.3c3.6-14.5,16.8-5.3,16.8-5.3l15.8,2
		c4.2-14.1,10-27.8,17.3-40.6c3.9-6.8,8.1-13.5,12.8-19.8c4.7-6.3,9.8-12.3,15.4-17.9c5.6-5.6,11.7-10.7,18.4-15.2
		c3.4-2.2,6.8-4.3,10.5-6.1l1.4-0.7l1.4-0.6c0.9-0.4,1.9-0.8,2.8-1.2c1.9-0.7,3.8-1.5,5.8-2c1.9-0.7,4-1.1,6-1.6
		c1-0.2,2-0.4,3.1-0.5c1-0.2,2.1-0.3,3.1-0.4c2.1-0.3,4.2-0.3,6.3-0.3c1,0,2.1,0.1,3.1,0.1c0.5,0,1,0,1.6,0.1l1.6,0.2
		c8.4,0.9,16.4,3.9,23.5,8.1c1.7,1.1,3.5,2.1,5.1,3.4l2.5,1.8l2.3,1.9c1.6,1.3,3,2.7,4.6,4.1c0.7,0.7,1.4,1.5,2.2,2.2
		c0.7,0.7,1.4,1.5,2.1,2.3c5.4,6.2,9.9,13.5,12.4,21.6c2.6,8.1,3,16.7,1.9,24.9c-1.1,8.2-3.6,16-6.9,23.4c-1.6,3.7-3.4,7.2-5.4,10.7
		c-1.9,3.5-4,6.8-6.2,10.1c-4.4,6.6-9.1,12.8-14.1,18.8c-2,2.5-4.1,4.9-6.3,7.2c0.2,0,0.3-0.1,0.4-0.1c16.6-4.5,13.2,13.9,13.2,13.9
		c17-15.4,32.2-44.5,32.2-44.5s27,18,52.6,38.8c1.1,0.9,2.1,1.7,3.2,2.6c0.3,0.2,0.5,0.4,0.8,0.6c0.8,0.7,1.6,1.3,2.4,2
		c0.3,0.3,0.6,0.5,1,0.8c0.8,0.6,1.5,1.3,2.3,1.9c0.3,0.3,0.6,0.5,0.9,0.8c1,0.9,2.1,1.8,3.1,2.7c0.3,0.3,0.7,0.6,1,1
		c0.1,0.1,0.1,0.1,0.2,0.2c0.3,0.4,0.6,0.7,1,1.1c0,0,0,0.1,0.1,0.1c0.7,0.9,1.3,1.8,1.9,2.9c23.7,41,15.8,232.8-16.1,229.7
		c-33.6-3.3-58.1,20.6-98.2,45.4c-40.1,24.8-68.8,16.5-68.8,16.5l-40.9,36.7c-1.4,2.7-2.5,4.2-2.5,4.2l30.9-4.5
		c65.6,7.1,72.9-20.7,118.9-41.3c44.3-19.9,61.8-14.6,82.3-22.3c20.6-7.7,19.4-74.3,30.4-189.8C710.3,342,668.2,313.6,668.2,313.6z"
		/>
	<g>
		<g>
			<path class="st1" d="M289,403.7c-3.5,6.9-6.9,14-10.3,21.3c-1.3,7.7-2.5,15.4-3.6,23.2c5.2-3.1,10.4-6.1,15.6-9.1
				c2.7-6.4,5.5-12.6,8.4-18.7c-4.1,2.3-8.1,4.6-12.2,6.9C287.5,419.4,288.2,411.5,289,403.7z"/>
			<path class="st1" d="M307.9,369.1c-3.6,6.1-7.2,12.4-10.7,19c-1.7,7.1-3.2,14.3-4.7,21.6c5.2-2.4,10.3-4.8,15.4-7.1
				c2.9-5.7,6-11.3,9-16.7c-4,1.7-8.1,3.4-12.1,5.2C305.8,383.8,306.8,376.5,307.9,369.1z"/>
			<path class="st1" d="M327.1,339.3c-3.7,5.1-7.3,10.5-10.9,16.2c-1.8,6.5-3.6,13.1-5.3,19.8c5.1-1.7,10.1-3.3,15.2-4.8
				c3.1-5,6.2-9.7,9.4-14.2c-4,1-8,2.1-12,3.2C324.7,352.7,325.9,346,327.1,339.3z"/>
			<path class="st1" d="M344.3,317.4c-3.7,4.1-7.3,8.5-10.9,13.3c-1.9,5.8-3.7,11.7-5.5,17.8c5-0.9,10-1.7,15.1-2.4
				c3.1-4.2,6.3-8,9.6-11.6c-4,0.3-8,0.6-11.9,1.1C341.8,329.4,343,323.4,344.3,317.4z"/>
			<path class="st1" d="M363.7,299.2c-3.7,2.7-7.4,5.9-11,9.4c-1.9,4.8-3.8,9.9-5.6,15.1c5,0.2,10,0.4,15.1,0.8
				c3.2-3.1,6.5-5.8,9.9-8.2c-4.1-0.7-8.1-1.3-12.2-1.7C361.2,309.3,362.4,304.2,363.7,299.2z"/>
		</g>
	</g>
	<path class="st1" d="M552.4,426.8c-2,0.8-3.4,2.8-3.5,5l0,0l-1.5,38.7c0,1.1-0.9,1.9-2,1.9c-0.2,0-0.4,0-0.6-0.1
		c-8.6-3-14.3-11.2-14-20.4c0-0.3,0-0.6,0-0.9c0-0.1,0-0.2,0-0.3c0-0.2,0-0.4,0.1-0.6l0-0.2c0.1-0.6,0.2-1.1,0.3-1.6l0-0.2
		c0.1-0.2,0.1-0.5,0.2-0.7c0,0,0-0.1,0-0.1c0.2-0.5,0.3-1.1,0.5-1.6l0-0.1c0.1-0.3,0.2-0.5,0.3-0.8l0,0c0.2-0.5,0.5-1.1,0.7-1.6
		c0,0,0-0.1,0-0.1c0.3-0.5,0.6-1,0.9-1.5l0,0c0.1-0.2,0.3-0.4,0.4-0.7l0.1-0.1c0.1-0.2,0.3-0.4,0.4-0.6l0.1-0.1
		c0.2-0.2,0.3-0.4,0.5-0.6l0.2-0.2c0.7-0.9,1.5-1.7,2.4-2.4c0.4-0.3,0.7-0.6,1.1-0.9c1-0.7,1.3-2.2,0.6-3.2
		c-0.1-0.1-0.1-0.2-0.2-0.2l-1.6-1.8c-0.8-0.9-2.1-1-3.1-0.3c-1.3,1-2.6,2.1-3.7,3.4l0,0l0,0c-0.3,0.3-0.5,0.5-0.8,0.8l0,0
		c-0.2,0.3-0.5,0.5-0.7,0.8l-0.1,0.1c-0.5,0.6-0.9,1.2-1.3,1.8l-0.1,0.2c-0.4,0.6-0.8,1.3-1.1,1.9c0,0.1-0.1,0.1-0.1,0.2
		c-0.2,0.3-0.3,0.6-0.5,0.9c0,0,0,0.1,0,0.1c-0.2,0.3-0.3,0.7-0.5,1c0,0.1-0.1,0.1-0.1,0.2c-0.1,0.3-0.2,0.6-0.4,0.9l-0.1,0.1
		c-0.1,0.3-0.2,0.7-0.4,1c0,0.1,0,0.1-0.1,0.2c-0.1,0.3-0.2,0.6-0.3,0.9c0,0.1,0,0.2-0.1,0.2c-0.1,0.4-0.2,0.7-0.3,1.1
		c0,0,0,0.1,0,0.1c-0.1,0.3-0.1,0.6-0.2,1c0,0.1,0,0.2,0,0.3c-0.1,0.4-0.1,0.7-0.2,1.1c0,0,0,0.1,0,0.1c0,0.3-0.1,0.7-0.1,1
		c0,0.1,0,0.2,0,0.3c0,0.4,0,0.8,0,1.1l0,0c-0.5,13.3,8.6,25.1,21.6,28c0.9,0.2,1.6,1,1.5,2l-0.4,10.5c0,1.1,0.8,2,1.9,2l3.1,0.1
		c1.1,0,2-0.8,2-1.9l0.4-10.5c0-0.9,0.7-1.7,1.6-1.8c15.1-2.2,25.6-16.2,23.5-31.4c-1.5-10.1-8.4-18.6-18.1-22.1
		C558.2,425.6,555.1,425.7,552.4,426.8L552.4,426.8z M570,462.4c-2.7,5.2-7.5,9-13.2,10.4c-1,0.3-2.1-0.4-2.3-1.4
		c0-0.2-0.1-0.4-0.1-0.5l1.3-34.1c0.1-1.8,1.6-3.3,3.5-3.2c0.4,0,0.9,0.1,1.2,0.3c10.4,4.8,14.9,17.1,10.1,27.5
		C570.3,461.7,570.1,462,570,462.4L570,462.4z"/>
	<path class="st1" d="M422,599c46.9,50.1,17.4,90,17.4,90l30.9-4.5c4.9,0.5,9.4,0.9,13.6,1.2c8.1-35.8-12.9-69.3-28.5-88.3
		c-1.2,0.3-1.8,0.4-1.8,0.4L422,599z"/>
	<g>
		<g>
			<path class="st17" d="M387,452.5c-0.2,0-0.4-0.1-0.6-0.1c-0.2,0-0.5-0.1-0.7-0.1c-0.2,0-0.4,0-0.6,0.2c-0.2,0.3-0.2,1.4-0.2,1.7
				c0.5,0,1,0,1.5,0c0.3,0,0.5,0.1,0.5,0.5c0,0.2,0,0.4,0,0.7c0,0.5-0.2,0.7-0.6,0.7c-0.5,0-1,0-1.5,0c-0.1,1.9-0.3,3.8-0.4,5.6
				c0,0.4-0.1,0.8-0.6,0.8c-0.3,0-0.6,0-1,0c-0.4,0-0.4-0.3-0.4-0.7c0.1-1.9,0.3-3.8,0.4-5.7c-0.2,0-0.3,0-0.5,0
				c-0.3,0-0.4-0.3-0.3-0.6c0-0.2,0-0.5,0.1-0.7c0-0.6,0.5-0.5,0.9-0.5c0-0.2,0-0.5,0.1-0.7c0.1-0.7,0.1-1.4,0.5-2
				c0.7-1,1.7-1,2.7-1c0.3,0,1.1,0,1.3,0.3c0,0.1,0.1,0.2,0,0.4c0,0,0,0.1,0,0.1C387.6,451.7,387.5,452.5,387,452.5z M390.2,453.1
				c-0.2,0-0.4,0-0.6,0c-0.6,0-0.8-0.1-0.8-0.8c0-0.2,0-0.4,0-0.6c0-0.6,0.3-0.8,0.7-0.7c0.2,0,0.5,0,0.7,0c0.3,0,0.6,0.3,0.6,0.7
				c0,0,0,0.1,0,0.1c0,0.2,0,0.4,0,0.6C390.8,452.8,390.7,453.1,390.2,453.1z M389.5,462.6c-0.2,0-0.4,0-0.6,0
				c-0.6,0-0.8-0.1-0.8-0.8c0.2-2.2,0.3-4.5,0.5-6.7c0-0.6,0.3-0.8,0.7-0.7c0.2,0,0.5,0,0.7,0c0.3,0,0.6,0.3,0.6,0.7
				c0,0,0,0.1,0,0.1c-0.2,2.2-0.3,4.5-0.5,6.7C390.1,462.3,390,462.6,389.5,462.6L389.5,462.6z"/>
			<path class="st17" d="M395,463.1c-0.7,0-1.5-0.1-2.2-0.3c-0.5-0.1-0.4-0.3-0.4-0.8c0-0.1,0-0.2,0-0.3c0-0.4,0.1-0.8,0.5-0.8
				c0.3,0,0.5,0.1,0.8,0.2c0.5,0.1,1.1,0.2,1.6,0.2c0.5,0,0.8,0.1,0.8-0.6c0-0.2,0-0.4,0-0.6c-0.1-0.2-1.4-0.7-1.7-0.8
				c-0.3-0.1-0.6-0.3-0.9-0.5c-0.8-0.5-1-1-1-2c0.2-2.7,1.8-2.5,3.7-2.4c0.4,0,0.8,0.1,1.1,0.1c0.6,0.1,0.8,0.2,0.7,0.9
				c0,0.5,0,1.1-0.6,1c-0.3,0-0.5-0.1-0.8-0.1c-0.4-0.1-0.8-0.1-1.2-0.2c-0.6,0-0.9-0.1-1,0.6c0,0.1,0,0.2,0.1,0.3
				c0.1,0.2,1.6,0.8,1.9,0.9c1.2,0.5,1.7,1,1.6,2.6C398,463,396.9,463.2,395,463.1z"/>
			<path class="st17" d="M402.1,453.9c-0.2,0-0.4,0-0.6-0.1c-0.6-0.1-0.8-0.2-0.8-0.9c0-0.2,0-0.4,0-0.6c0-0.6,0.3-0.7,0.7-0.7
				c0.2,0,0.5,0,0.7,0.1c0.3,0,0.6,0.4,0.6,0.7c0,0,0,0.1,0,0.1c0,0.2,0,0.4,0,0.6C402.8,453.7,402.6,454,402.1,453.9z M401.5,463.4
				c-0.2,0-0.4,0-0.6-0.1c-0.6-0.1-0.8-0.2-0.8-0.9c0.2-2.2,0.3-4.5,0.5-6.7c0-0.6,0.3-0.7,0.7-0.7c0.2,0,0.5,0,0.7,0.1
				c0.3,0,0.6,0.4,0.6,0.7c0,0,0,0.1,0,0.1c-0.2,2.3-0.3,4.5-0.5,6.8C402.1,463.2,401.9,463.5,401.5,463.4L401.5,463.4z"/>
			<path class="st17" d="M408.9,464.5c-0.4,0-0.9,0-1.3-0.1c-3-0.4-3.4-1.6-3.2-4.8c0.2-3.2,0.8-4.4,3.8-4c0.4,0.1,0.9,0.1,1.3,0.3
				c0.5,0.1,0.8,0.1,0.8,0.7c0,0,0,0,0,0c0,0.4-0.1,1.4-0.7,1.3c-0.2,0-0.4-0.1-0.6-0.1c-0.5-0.1-1-0.2-1.4-0.3
				c-0.7-0.1-0.8,0-1,0.7c-0.1,0.6-0.2,1.1-0.2,1.7c0,0.6-0.1,1.1-0.1,1.7c0,0.8,0.2,0.9,0.9,1c0.5,0.1,1,0.1,1.5,0.1
				c0.2,0,0.4,0,0.6,0c0.1,0,0.3,0.1,0.4,0.2c0.1,0.2,0.1,1,0.1,1.2C409.8,464.6,409.4,464.5,408.9,464.5z"/>
			<path class="st17" d="M417.2,465.5c-0.3,0-0.6-0.1-0.9-0.1c-0.4-0.1-0.4-0.3-0.4-0.7c-0.7,0.4-1.5,0.6-2.4,0.5
				c-1.5-0.2-2.1-1.2-2-2.9c0.1-1.9,1.2-2.4,2.7-2.4c0.7,0,1.3,0,2,0.1c0-0.7,0.2-1.7-0.7-1.8c-0.8-0.1-1.5-0.1-2.3,0.1
				c-0.1,0-0.3,0-0.4,0c-0.5-0.1-0.4-0.7-0.4-1.1c0-0.3,0.2-0.6,0.5-0.7c0.8-0.1,1.7-0.1,2.6,0c0.7,0.1,1.7,0.4,2.2,1.1
				c0.6,0.9,0.5,1.9,0.4,2.9c-0.1,1.4-0.2,2.8-0.3,4.2C417.8,465.4,417.6,465.6,417.2,465.5z M416.1,461.6c-0.2-0.1-0.5-0.1-0.8-0.1
				c-0.3-0.1-0.7-0.1-1-0.1c-0.7,0-0.9,0.2-1,1c0,0.4,0,1.2,0.5,1.3c0.8,0.1,1.5-0.1,2.1-0.6C416,462.6,416.1,462.1,416.1,461.6z"/>
			<path class="st17" d="M421.3,466.1c-0.2,0-0.4-0.1-0.6-0.1c-0.6-0.1-0.8-0.2-0.8-0.9c0.2-3.5,0.5-7,0.7-10.5
				c0-0.6,0.3-0.7,0.7-0.7c0.2,0,0.5,0.1,0.7,0.1c0.3,0,0.6,0.4,0.6,0.7c0,0,0,0.1,0,0.1c-0.2,3.5-0.5,7-0.7,10.5
				C421.9,465.9,421.7,466.2,421.3,466.1z"/>
			<path class="st17" d="M428.6,467.4c-0.4,0-0.9-0.1-1.3-0.1c-3-0.5-3.4-1.7-3.2-5c0.2-3.3,0.8-4.4,3.8-3.9
				c0.4,0.1,0.9,0.2,1.3,0.3c0.5,0.1,0.8,0.1,0.8,0.7c0,0,0,0,0,0c0,0.4-0.1,1.4-0.7,1.3c-0.2,0-0.4-0.1-0.6-0.2
				c-0.5-0.2-1-0.3-1.4-0.4c-0.7-0.1-0.8,0-1,0.7c-0.1,0.6-0.2,1.1-0.2,1.7c0,0.6-0.1,1.1-0.1,1.7c0,0.8,0.2,0.9,0.9,1
				c0.5,0.1,1,0.1,1.5,0.1c0.2,0,0.4,0,0.6,0c0.1,0,0.3,0.1,0.4,0.2c0.1,0.2,0.1,1,0.1,1.2C429.5,467.5,429.1,467.4,428.6,467.4z"/>
			<path class="st17" d="M434.7,468.4c-2.6-0.4-3.4-2.2-3.2-5c0.2-2.8,1.3-4.4,3.9-4c2.6,0.3,3.4,2.1,3.2,5
				C438.4,467.2,437.3,468.7,434.7,468.4z M436.5,462c-0.2-0.6-0.7-0.7-1.2-0.7c-0.5-0.1-1-0.1-1.3,0.4c-0.3,0.5-0.4,1.4-0.4,2
				c0,0.6-0.1,1.5,0.2,2.1c0.2,0.6,0.7,0.7,1.2,0.7c0.5,0.1,1,0.2,1.3-0.4c0.3-0.5,0.4-1.4,0.4-2C436.6,463.5,436.7,462.6,436.5,462
				C436.5,462,436.5,462,436.5,462z"/>
			<path class="st17" d="M445.7,469.5c-0.3,0-0.6-0.1-0.9-0.1c-0.4,0-0.4-0.3-0.4-0.7c-0.7,0.5-1.5,0.7-2.4,0.6
				c-1.5-0.2-2.1-1.2-2-2.9c0.1-1.9,1.2-2.5,2.7-2.5c0.7,0,1.3,0,2,0.1c0.1-0.7,0.2-1.7-0.7-1.8c-0.8,0-1.5,0-2.3,0.1
				c-0.1,0-0.3,0-0.4,0c-0.5-0.1-0.4-0.7-0.4-1.1c0-0.3,0.2-0.7,0.5-0.7c0.8-0.1,1.7-0.2,2.6-0.1c0.7,0.1,1.7,0.3,2.2,1
				c0.6,0.8,0.5,2,0.4,3c-0.1,1.5-0.2,2.9-0.3,4.4C446.4,469.3,446.2,469.5,445.7,469.5z M444.7,465.6c-0.2,0-0.5-0.1-0.8-0.1
				c-0.3,0-0.7-0.1-1-0.1c-0.7,0-0.9,0.2-1,1c0,0.4,0,1.2,0.5,1.3c0.8,0.1,1.5-0.2,2.1-0.7C444.6,466.5,444.7,466.1,444.7,465.6z"/>
			<path class="st17" d="M453.1,470.2c-0.4,0-0.9,0-1.3,0c-3-0.2-3.4-1.5-3.2-4.8c0.2-3.3,0.8-4.5,3.8-4.3c0.4,0,0.9,0.1,1.3,0.2
				c0.5,0.1,0.8,0.1,0.8,0.6c0,0,0,0,0,0c0,0.5-0.1,1.4-0.7,1.4c-0.2,0-0.4-0.1-0.6-0.1c-0.5-0.1-1-0.2-1.4-0.2
				c-0.7,0-0.8,0.1-1,0.8c-0.1,0.6-0.2,1.2-0.2,1.8c0,0.6-0.1,1.2-0.1,1.7c0,0.8,0.2,0.9,0.9,1c0.5,0,1,0,1.5-0.1c0.2,0,0.4,0,0.6,0
				c0.1,0,0.3,0.1,0.4,0.2c0.1,0.2,0.1,1,0.1,1.2C453.9,470.2,453.5,470.2,453.1,470.2z"/>
			<path class="st17" d="M461.5,470.3c-0.3,0-0.5,0-0.8,0c-0.4,0-0.5-0.4-0.5-0.8c0.1-1.6,0.2-3.1,0.3-4.7c0-0.3,0.1-1.3,0-1.4
				c-0.1-0.2-0.3-0.1-0.5-0.1c-0.7,0-1.4,0.3-1.9,0.8c-0.1,1.8-0.2,3.6-0.4,5.4c0,0.5-0.2,0.8-0.7,0.8c-0.3,0-0.5,0-0.8,0
				c-0.4,0-0.5-0.3-0.5-0.7c0.3-3.7,0.5-7.3,0.8-11c0-0.6,0.3-0.8,0.7-0.8c0.2,0,0.5,0,0.7,0c0.3,0,0.6,0.3,0.6,0.7c0,0,0,0.1,0,0.1
				c-0.1,1.1-0.2,2.2-0.2,3.4c0.7-0.4,1.4-0.6,2.1-0.6c1.4,0,2.3,0.8,2.2,2.6c-0.1,1.9-0.3,3.7-0.4,5.6
				C462.1,470,461.9,470.3,461.5,470.3z"/>
		</g>
	</g>
	<g>
		<path class="st1" d="M623.2,995c-0.2-10.6-0.5-21.3-0.1-31.9c0.3-10.6,0.9-21.3,2-31.9c1.1-10.6,2.5-21.1,3.9-31.7
			c1.4-10.5,2.8-21.1,4-31.7c0.6-5.3,1.1-10.6,1.7-15.9c0.6-5.3,1-10.6,1.5-15.9l1.3-15.9c0.4-5.3,0.9-10.6,1.4-15.9
			c1.9-21.2,4.3-42.4,6-63.6c0.9-10.6,1.6-21.2,2-31.8c0.2-5.3,0.2-10.6,0.1-15.9c-0.1-5.3-0.4-10.6-1.1-15.9
			c-0.4-2.6-0.8-5.2-1.5-7.8c-0.7-2.5-1.6-5-2.9-7.2c-0.3-0.5-0.7-1.1-1.1-1.5c-0.4-0.4-1-0.7-1.5-0.9c-1.2-0.4-2.5-0.5-3.7-0.4
			c-2.6,0.1-5.2,0.7-7.7,1.4c-5.1,1.4-10,3.4-14.9,5.5c-4.9,2.1-9.7,4.4-14.4,6.8c-9.5,4.7-18.8,9.9-28.3,14.8
			c-1.2,0.6-2.4,1.2-3.6,1.8l-3.5,1.8c-2.4,1.2-4.6,2.6-6.9,3.9c-4.5,2.8-8.9,5.8-13.2,8.9c-8.5,6.3-16.6,13.2-24.4,20.5
			c-7.8,7.2-15.4,14.7-22.5,22.5l0,0l0,0c-1.5,1.1-3.3,1.6-5,2c-1.7,0.4-3.5,0.6-5.3,0.8c-3.5,0.3-7.1,0.2-10.6,0
			c-3.5-0.2-7-0.6-10.5-1c-3.5-0.5-7-1-10.4-1.7l-0.1,0l-0.1-0.1c-6.3-6.3-12.8-12.3-19.7-18c-6.9-5.6-13.9-11.1-21.2-16.2l-2.7-1.9
			l-2.8-1.9c-1.9-1.2-3.7-2.5-5.6-3.7c-3.8-2.4-7.5-4.8-11.3-7c-3.8-2.3-7.7-4.5-11.5-6.7c-3.9-2.1-7.8-4.3-11.7-6.3
			c-15.8-8.2-32-15.5-48.5-22.1c-8.3-3.3-16.6-6.3-25-9.2c-8.4-2.8-16.9-5.5-25.5-7.8l0.6-0.3c-4.3,14.1-7.8,28.5-10.7,43
			c-2.9,14.5-5.1,29.2-6.4,43.9c-0.6,7.4-1,14.8-1,22.1c0,7.4,0.3,14.8,1.1,22.1c0.9,7.3,2.2,14.6,4.3,21.7l0.8,2.6l0.4,1.3l0.5,1.3
			l2,5.1c0.7,1.7,1.4,3.4,2.1,5.2l1.9,5.3c4.6,14.1,7.7,28.7,10.2,43.3c2.5,14.6,4.3,29.3,5.7,44.1c2.8,29.5,4.4,59.1,4.8,88.7
			c-0.6-29.6-2.4-59.2-5.4-88.7c-1.6-14.7-3.5-29.4-6-44c-2.6-14.6-5.6-29.1-10.2-43.1l-1.8-5.2c-0.6-1.7-1.4-3.4-2-5.1l-2-5.2
			l-0.5-1.3l-0.4-1.3l-0.8-2.7c-2.1-7.1-3.5-14.5-4.4-21.8c-0.9-7.4-1.2-14.8-1.2-22.2c0-7.4,0.4-14.8,1-22.2
			c1.3-14.8,3.5-29.5,6.4-44c2.9-14.5,6.4-29,10.7-43.2l0.1-0.5l0.5,0.1c8.6,2.3,17.1,4.9,25.6,7.8c8.4,2.9,16.8,5.9,25.1,9.2
			c16.6,6.6,32.8,13.9,48.6,22.1c4,2,7.9,4.2,11.8,6.3c3.9,2.2,7.8,4.4,11.6,6.7c3.8,2.3,7.6,4.7,11.3,7.1c1.9,1.2,3.7,2.5,5.6,3.7
			l2.8,1.9l2.7,1.9c7.3,5.1,14.4,10.5,21.3,16.2c6.9,5.7,13.4,11.8,19.7,18l-0.3-0.1c3.4,0.7,6.9,1.2,10.4,1.6c3.5,0.5,7,0.8,10.4,1
			c3.5,0.2,7,0.3,10.5,0c1.7-0.1,3.5-0.3,5.1-0.7c1.7-0.4,3.3-0.9,4.7-1.9l-0.1,0.1c7.2-7.8,14.8-15.3,22.6-22.6
			c7.8-7.2,15.9-14.1,24.5-20.5c4.3-3.2,8.7-6.2,13.2-9c2.3-1.4,4.6-2.8,7-4l3.6-1.8c1.2-0.6,2.4-1.2,3.6-1.8
			c9.4-4.9,18.7-10.1,28.3-14.8c4.8-2.4,9.6-4.7,14.5-6.8c4.9-2.1,9.9-4.1,15-5.6c2.6-0.7,5.2-1.3,7.9-1.4c1.4,0,2.8,0,4.1,0.5
			c0.7,0.2,1.3,0.6,1.9,1.1c0.6,0.5,0.9,1.1,1.2,1.7c1.4,2.3,2.4,4.9,3,7.5c0.7,2.6,1.2,5.2,1.6,7.9c0.7,5.3,1,10.6,1.1,16
			c0.1,5.3,0,10.7-0.1,16c-0.4,10.6-1.1,21.3-2,31.9c-1.8,21.2-4.1,42.4-6,63.6c-0.5,5.3-0.9,10.6-1.4,15.9l-1.3,15.9
			c-0.5,5.3-1,10.6-1.5,15.9c-0.6,5.3-1.1,10.6-1.8,15.9c-1.3,10.6-2.8,21.1-4.2,31.6c-1.5,10.5-3,21.1-4.1,31.6
			c-1.1,10.6-1.8,21.2-2.2,31.8C622.9,973.8,623.1,984.4,623.2,995z"/>
	</g>
	<g>
		<path class="st1" d="M253.4,792c-2.1,7.9-3.9,16-5.6,24c-1.9,8-3.6,16-5.3,24c-3.3,16.1-6.3,32.2-9,48.4
			c-1.3,8.1-2.6,16.2-3.8,24.3c-0.6,4.1-1.2,8.1-1.8,12.2l-1.6,12.2c-0.6,4.1-1.1,8.1-1.5,12.2l-1.5,12.2
			c-1.1,8.1-2.1,16.3-3.1,24.4c0.7-8.2,1.4-16.4,2.1-24.6l1.5-12.2c0.5-4.1,1-8.2,1.5-12.2l1.6-12.2c0.5-4.1,1.2-8.1,1.8-12.2
			c1.1-8.1,2.5-16.2,3.8-24.4c2.7-16.2,5.7-32.4,9-48.5c1.7-8,3.4-16.1,5.3-24.1C248.8,807.8,251,799.9,253.4,792z"/>
	</g>
	<path class="st13" d="M470.2,684.5c4.9,0.5,9.4,0.9,13.6,1.2c2.9-13,2-25.8-1.1-37.6c-15.7-4.7-32.1-15.4-48.7-34.1
		c29.1,42.9,5.3,75,5.3,75L470.2,684.5z"/>
	<g>
		<path class="st1" d="M641.5,782.4c3.2,8.3,6,16.8,8.8,25.2c1.3,4.3,2.5,8.5,3.7,12.8l1.8,6.4l1.7,6.5c4.4,17.3,8.4,34.6,11.7,52.1
			c0.9,4.4,1.6,8.8,2.4,13.1c0.8,4.4,1.6,8.8,2.2,13.2l2,13.2c0.6,4.4,1.2,8.8,1.8,13.2c1.3,8.8,2.1,17.7,3.1,26.5
			c0.4,4.4,0.6,8.9,0.9,13.3l0.8,13.3l-1.3-13.3c-0.5-4.4-0.8-8.9-1.4-13.3c-1-8.8-1.8-17.7-3-26.5c-0.6-4.4-1.1-8.8-1.8-13.2
			l-2-13.2c-0.6-4.4-1.4-8.8-2.2-13.2c-0.8-4.4-1.5-8.8-2.4-13.1c-3.3-17.5-7.3-34.8-11.7-52.1l-1.7-6.5l-1.8-6.4
			c-1.1-4.3-2.4-8.6-3.7-12.8C646.9,799.3,644.4,790.8,641.5,782.4z"/>
	</g>
	<path class="st19" d="M400.8,255.8c0,0-5.1,23.4,0,40s1.9,57.7,31.5,68.7c29.6,10.9,58.5-13.5,58.5-13.5s23.1-19,39.9-55.2
		c0,0,13.5,1.2,21.2-14.9c7.7-16.1,18.6-27,3.9-27l-147.5-29.5L400.8,255.8z"/>
	<path class="st21" d="M555.7,253.8l-27.7,0.3l-28,31c0,0,24.8,7,2.1,40.1c-22.4,32.8-25.7,37.5-57.1,41.8
		c24.6,1.7,45.8-16.2,45.8-16.2s23.1-19,39.9-55.2c0,0,13.5,1.2,21.2-14.9C559.6,264.8,570.5,253.8,555.7,253.8z"/>
	
		<ellipse transform="matrix(7.067362e-02 -0.9975 0.9975 7.067362e-02 135.2272 769.8344)" class="st22" cx="480.8" cy="312.3" rx="3.7" ry="5.6"/>
	
		<ellipse transform="matrix(0.5407 -0.8412 0.8412 0.5407 -52.9373 494.5203)" class="st22" cx="426.4" cy="295.7" rx="3.7" ry="5.6"/>
	<g>
		<path class="st23" d="M440.8,293.6c-2.5-1.9-4.7-3.4-7-4.9c-1.1-0.8-2.2-1.6-3.2-2.5c-0.5-0.5-1.1-0.9-1.6-1.3
			c-0.6-0.4-1.1-0.8-1.7-1.2l-1.8-1.1l-1.9-1l-0.9-0.5l-1-0.4l-2-0.9c-1.3-0.6-2.7-1-4.1-1.6c-1.4-0.4-2.8-0.9-4.2-1.3l0.1-0.5
			c1.5,0.1,3,0.2,4.4,0.3c1.5,0.2,3,0.4,4.4,0.7c2.9,0.6,5.9,1.4,8.7,2.7c0.7,0.3,1.4,0.6,2.1,0.9c0.7,0.3,1.4,0.6,2.1,1
			c0.7,0.4,1.4,0.8,2,1.2c0.6,0.5,1.2,1,1.8,1.6c1.1,1.2,2.1,2.4,2.8,3.9c0.7,1.4,1.3,3,1.3,4.7L440.8,293.6z"/>
	</g>
	<g>
		<path class="st23" d="M464.8,304.5c1.3-1.2,2.7-2.1,4.2-2.9c1.5-0.8,3-1.4,4.6-1.8c0.8-0.2,1.6-0.4,2.4-0.5
			c0.4-0.1,0.8-0.1,1.2-0.2c0.4,0,0.8,0,1.2-0.1c1.7-0.1,3.3,0.1,5,0.1c1.7,0.1,3.3,0.2,4.9,0.4c1.6,0.2,3.3,0.6,4.9,1
			c3.2,0.9,6.2,2.2,8.9,4l-0.2,0.4c-3-1-6-1.8-9.1-2c-1.6-0.1-3.1-0.2-4.6-0.1c-1.5,0-3.1,0.2-4.6,0.3c-1.5,0.2-3,0.5-4.5,0.9
			l-2.3,0.4c-0.8,0.1-1.5,0.2-2.3,0.3c-3.1,0.3-6.2,0.5-9.6,0.2L464.8,304.5z"/>
	</g>
	<g>
		<path class="st24" d="M443.5,313.6c-1.4,3.4-3.1,6.7-4.9,9.9c-0.9,1.6-1.9,3.2-2.9,4.7c-0.3,0.4-0.5,0.8-0.8,1.2
			c-0.3,0.4-0.6,0.8-0.8,1.1c-0.4,0.7-0.7,1.4-0.9,2.2c-0.6,3.2,0.8,6.8,3.8,8.3c1.5,0.7,3.2,1,5,0.8c1.8-0.2,3.5-0.7,5.2-1.4
			c-1.5,1.1-3.2,1.9-5.1,2.4c-1.8,0.5-3.9,0.5-5.8-0.3c-1.9-0.7-3.5-2.3-4.4-4.2c-0.9-1.8-1.2-4-0.8-6c0.2-1,0.6-2,1.2-2.9
			c0.3-0.5,0.6-0.8,0.9-1.2c0.3-0.4,0.5-0.7,0.8-1.1c1.1-1.5,2.1-3,3.1-4.5C439.3,319.7,441.4,316.6,443.5,313.6z"/>
	</g>
	<path class="st17" d="M424.3,338.4c0,0,6.1,6,14.2,8s13.9,3.7,25.2,2.6c0,0-12.1,6.8-25.5,2.4C424.7,346.9,424.3,338.4,424.3,338.4
		z"/>
	<g>
		<path class="st24" d="M438.2,351.3l-2.4-0.8c-0.8-0.3-1.5-0.6-2.3-1c-1.5-0.8-3-1.6-4.3-2.7c-1.3-1.1-2.5-2.3-3.4-3.7
			c-0.9-1.4-1.7-3-1.9-4.8l-0.1-1.1l0.9,0.8c2.5,2.3,5.4,4.3,8.5,5.8c1.5,0.8,3.1,1.4,4.8,1.8c1.7,0.5,3.4,0.9,5.1,1.3
			c3.4,0.8,6.8,1.6,10.3,1.9c3.5,0.3,7,0.3,10.5,0.1c-3.5,0.5-7,0.7-10.5,0.5c-3.5-0.2-7-0.8-10.4-1.6c-1.7-0.4-3.4-0.8-5.1-1.2
			c-1.7-0.5-3.4-1.1-5-1.9c-3.2-1.6-6.1-3.6-8.7-6.1l0.7-0.3c0.2,1.5,0.8,3.1,1.6,4.4c0.8,1.4,2,2.6,3.2,3.7c1.2,1.1,2.6,2,4.1,2.8
			c0.7,0.4,1.5,0.7,2.2,1.1L438.2,351.3z"/>
	</g>
	<path class="st17" d="M356.5,598.9l-13.3-76.6c0,0-3.9-3.3-4.9,1.2l12.9,70.3C351.2,593.8,352.8,594.5,356.5,598.9z"/>
	<path class="st25" d="M558,173.6c-8.1-24.4-22.7-46-65.2-45.2c-42.6,0.8-82.4,12.8-92,127.4c0,0,3.5-35.3,24.3-27.5
		c16.2,6,29.6,32.6,48.6,35.6l0,0c0,0,15.1,3.3,24.4,0c0,0-7,0.1-12.5-1.2c1.2-0.4,2.4-1,3.6-1.6c7.5,0,17.9-0.5,21.7-3.4
		c0,0-6.1,0-13.2-1.3c48.2-24.7,32.5,38,32.5,38l25.6-40.5C555.7,253.8,566.1,198,558,173.6z"/>
	<g class="st26">
		<path class="st23" d="M503.3,243.7c-0.4-0.2-0.8-0.4-1.3-0.6C502.1,243.1,502.5,243.3,503.3,243.7z"/>
		<path class="st23" d="M503.6,243.8c-0.1,0-0.2-0.1-0.3-0.1C503.4,243.7,503.5,243.7,503.6,243.8z"/>
		<path class="st23" d="M535.3,139.2c2.6,10.6,5.2,28.8-2.7,43.8c-12,22.7-3,30.4,0,32.1c0,0-4.3,6.9-15.9,4.3
			c0,0,0.4,16.7,16.7,16.7c0,0-14.2,13.8-29.8,7.6c4.5,1.9,17.9,7.4,26.4,7.4c0,0-1.5,1.5-3.5,3c11.2,10.4,3.7,40.2,3.7,40.2
			l25.6-40.5c0,0,10.4-55.8,2.3-80.3C553.6,160.2,547.2,147.6,535.3,139.2z"/>
	</g>
	<path class="st25" d="M531.9,284.4c0,0-13.2,34.5-24.1,43.6c-10.9,9.1-34.4,20.7-35.4,20.7s-10.3-9-27.5-6.3c0,0-9.5,4.5-13.5-4.1
		c0,0-6.6-9.9-14.9-3.8C408.2,340.7,403,307,403,307s-0.7,14.8,0,21.9c0.7,7.1,10.4,30.7,17.7,38.3c8.5,8.9,15.1,8.6,18.3,9.2
		c3.2,0.6,44.4-0.3,73.6-47.6C512.6,328.8,533.5,299.2,531.9,284.4z M464.9,351.3c-10.8,11.2-22.5,4.5-24.8,2.5s-7.2-4-9.8-4.1
		c-15.8-0.4-9.3-13.9-9.3-13.9c1.1-1.6,1.6-0.5,7.9,4.6s20,8.3,29.9,7.5C468.8,347.1,464.9,351.3,464.9,351.3z"/>
</g>
</svg>
