<svg xmlns="http://www.w3.org/2000/svg" width="70.413" height="44.235" viewBox="0 0 70.413 44.235">
  <g id="voleyball-player" transform="translate(11.787 -117.25)">
    <g id="Grupo_1742" data-name="Grupo 1742" transform="translate(-11 118)">
      <ellipse id="Elipse_98" data-name="Elipse 98" cx="4.653" cy="4.653" rx="4.653" ry="4.653" transform="translate(40.702 2.171)" fill="#050c42" stroke="#fff" stroke-width="1.5"/>
      <path id="Trazado_2009" data-name="Trazado 2009" d="M57.948,24.886a21.483,21.483,0,0,1-12.825,1.268,4.564,4.564,0,0,0-.676-1.875,4.476,4.476,0,0,0-1.062-1.16,2.037,2.037,0,0,0-.845-.542,5.068,5.068,0,0,0-2.386-.588,88.933,88.933,0,0,0-16.666-2.018c-2.878-.083-2.87,4.377,0,4.46a86.058,86.058,0,0,1,10.829.986A71.917,71.917,0,0,1,25.647,30.6q-11.766,3.331-23.53,6.657c-3.432.971-2.411,6.457,1.052,5.476l17.771-5.028c.035.1.075.189.116.279-4.83,3.473-10.2,7.216-14.2,10.279C4,50.446,7.482,54.8,10.34,52.617c4.892-3.736,11.8-8.482,17.291-12.52.069-.028.137-.055.2-.084A72.74,72.74,0,0,0,42.919,30.8c.187-.148.363-.306.533-.47a24.972,24.972,0,0,0,15.684-1.147C61.772,28.14,60.624,23.824,57.948,24.886Z" transform="translate(0 -10.627)" fill="#050c42" stroke="#fff" stroke-width="1.5"/>
      <ellipse id="Elipse_99" data-name="Elipse 99" cx="3.695" cy="3.695" rx="3.695" ry="3.695" transform="translate(61.487)" fill="#050c42" stroke="#fff" stroke-width="1.5"/>
    </g>
  </g>
</svg>
