<?xml version="1.0" encoding="utf-8"?>
<!-- Generator: Adobe Illustrator 25.4.1, SVG Export Plug-In . SVG Version: 6.00 Build 0)  -->
<svg version="1.1" id="Iconos" xmlns="http://www.w3.org/2000/svg" xmlns:xlink="http://www.w3.org/1999/xlink" x="0px" y="0px"
	 viewBox="0 0 49 37.8" style="enable-background:new 0 0 49 37.8;" xml:space="preserve">
<style type="text/css">
	.st0{fill:#FF3737;}
	.st1{fill:#FFDE37;}
</style>
<path class="st0" d="M31.2,23.8c-0.1,0.9,0.5,1.8,1.4,2.1c-0.2,0.3-0.2,0.6-0.2,0.9c0,1.1,0.9,2,2,2h0.5L35,29l0.7,2.1
	c0.1,0.4,0.2,0.8,0.1,1.2v4.9c0,0.3,0.3,0.6,0.6,0.6l0,0h10.7c0.3,0,0.6-0.3,0.6-0.6l0,0c0,0,0,0,0-0.1l-0.9-7.5
	c-0.1-0.9,0-1.8,0.3-2.7l1.6-4.7c0.6-1.6,0-3.4-1.3-4.4l-4.5-3.2c0,0-1.1-0.1-1.1,0.2v0.1v6l-0.5,0.6L39,14.4
	c-0.4-1.4-1.7-2.3-3.2-2.3c-0.9,0-1.7,0.8-1.7,1.7l0,0c0,0.1,0,0.2,0,0.3l1.2,7c0.1,0.6,0.1,1.1-0.1,1.7H31
	C31.2,22.7,31.2,23.6,31.2,23.8z M32.3,24.1c0-0.1,0-0.2,0.1-0.3H35l-0.1,0.4c-0.1,0.2-0.2,0.5-0.2,0.7h-1.6
	C32.6,24.9,32.3,24.6,32.3,24.1z M34.3,27.8c-0.5,0-0.8-0.4-0.8-0.8s0.4-0.8,0.8-0.8l0,0h0.2c-0.1,0.6-0.1,1.1,0,1.7h-0.2V27.8z
	 M45.4,29.9l0.9,6.8h-9.5v-4.3c0-0.5-0.1-1.1-0.2-1.6l-0.7-2.1c-0.4-1.3-0.4-2.8,0.1-4.1l0.4-1.1c0.3-0.8,0.4-1.8,0.2-2.6l-1.2-7
	c-0.1-0.3,0.1-0.6,0.4-0.6l0,0h0.1c1,0,1.8,0.6,2.1,1.5l2.2,7c0,0.1,0,0.1,0.1,0.2l0,0l1.7,2.2c0.2,0.3,0.5,0.3,0.8,0.2l0,0
	c0.3-0.2,0.3-0.5,0.2-0.8l0,0l0,0l-1.1-1.5l1-2.1h0.8c0.3,0,0.6-0.2,0.6-0.5l0,0c0-0.3-0.2-0.6-0.5-0.6l0,0h-0.6v-2.8l3.4,2.7
	c1,0.8,1.4,2,1,3.2L46,26.7C45.4,27.7,45.2,28.8,45.4,29.9L45.4,29.9z"/>
<path class="st0" d="M40.9,22.5c0.9,0,1.6-0.6,1.6-1.5l0.9-18.7c0.1-0.9-0.6-1.6-1.5-1.7l0,0L28.2,0c-0.9,0-1.6,0.6-1.6,1.5l0,0
	l-0.9,18.7c0,0.9,0.6,1.6,1.5,1.6l8.9,0.4l0.1-1.1l-9-0.4c-0.2,0-0.4-0.2-0.4-0.5l0,0l0.9-18.7c0-0.3,0.2-0.4,0.5-0.4l13.7,0.6
	c0.3,0,0.5,0.2,0.4,0.5l-0.6,12.4l-0.3,6.2c0,0.3-0.2,0.5-0.5,0.4l0,0L40.9,22.5z"/>
<path class="st0" d="M30.1,21.3h1.2l1.1,0.3c-0.2,0.2-0.5,0.3-0.7,0.4c-0.6,0-0.9,0.7,0,0.7c0.4,0,0.7,1.1,0.7,1.1
	c-0.5,0-1.1-0.1-1.6-0.3C29.7,23,30.1,21.3,30.1,21.3z"/>
<path class="st1" d="M17.5,22.7h-4.2c-0.2-0.5-0.2-1.1-0.1-1.7l1.2-7c0-0.1,0-0.2,0-0.3l0,0c0-0.9-0.8-1.7-1.7-1.7
	c-1.5,0-2.7,0.9-3.2,2.3l-2.3,7.1l-0.5-0.6v-6v-0.1c0-0.3-1.1-0.2-1.1-0.2l-4.1,3.3c-1.3,1.1-1.9,2.8-1.3,4.4l1.6,4.7
	c0.3,0.9,0.4,1.8,0.3,2.7l-0.9,7.5c0,0,0,0,0,0.1l0,0c0,0.3,0.3,0.6,0.6,0.6h10.7l0,0c0.3,0,0.6-0.3,0.6-0.6v-4.9
	c0-0.4,0-0.8,0.1-1.2l0.7-2.1l0.1-0.2h0.5c1.1,0,2-0.9,2-2c0-0.3-0.1-0.7-0.2-0.9c0.9-0.3,1.4-1.2,1.4-2.1
	C17.5,23.6,17.5,22.7,17.5,22.7z M15.6,24.9h-1.5c-0.1-0.3-0.1-0.5-0.2-0.7l-0.1-0.4h2.6c0,0.1,0.1,0.2,0.1,0.3
	C16.4,24.6,16,24.9,15.6,24.9z M14.2,27.8c0.1-0.6,0.1-1.1,0-1.7h0.2l0,0c0.5,0,0.8,0.4,0.8,0.8s-0.4,0.8-0.8,0.8h-0.2V27.8z
	 M3.3,29.9c0.1-1.1-0.1-2.2-0.4-3.2L1.3,22c-0.4-1.2,0-2.4,1-3.2l3.4-2.7v2.8H5.1l0,0c-0.3,0-0.5,0.3-0.5,0.6l0,0
	c0,0.3,0.3,0.5,0.6,0.5H6l1,2.1l-1.1,1.5l0,0l0,0c-0.2,0.3-0.1,0.6,0.2,0.8l0,0c0.3,0.2,0.6,0.1,0.8-0.2L8.6,22l0,0
	c0,0,0.1-0.1,0.1-0.2l2.2-7c0.3-0.9,1.1-1.5,2.1-1.5h0.1l0,0c0.3,0.1,0.5,0.3,0.4,0.6l-1.2,7c-0.2,0.9-0.1,1.8,0.2,2.6l0.4,1.1
	c0.5,1.3,0.5,2.8,0.1,4.1l-0.7,2.1c-0.2,0.5-0.3,1.1-0.2,1.6v4.3H2.4L3.3,29.9L3.3,29.9z"/>
<path class="st1" d="M7.7,21.3C7.7,21.4,7.7,21.4,7.7,21.3c-0.3,0-0.5-0.2-0.5-0.4l-0.3-6.2L6.4,2.2c0-0.3,0.2-0.5,0.4-0.5l13.7-0.6
	c0.3,0,0.5,0.2,0.5,0.4l0.9,18.7l0,0c0,0.2-0.2,0.5-0.4,0.5l-8.9,0.4l0.1,1.1l8.9-0.4c0.9,0,1.5-0.8,1.5-1.6l-1-18.7l0,0
	c0-0.9-0.8-1.5-1.6-1.5L6.7,0.6l0,0C5.8,0.7,5.2,1.4,5.3,2.3L6.2,21c0,0.9,0.8,1.5,1.6,1.5L7.7,21.3z"/>
<path class="st1" d="M17.9,23.5c-0.5,0.2-1.1,0.3-1.6,0.3c0,0,0.3-1.1,0.7-1.1c0.9,0,0.6-0.7,0-0.7c-0.3-0.1-0.5-0.2-0.7-0.4
	l1.1-0.3h1.2C18.5,21.3,19,23,17.9,23.5z"/>
</svg>
