<?xml version="1.0" encoding="utf-8"?>
<!-- Generator: Adobe Illustrator 25.4.1, SVG Export Plug-In . SVG Version: 6.00 Build 0)  -->
<svg version="1.1" id="Capa_1" xmlns="http://www.w3.org/2000/svg" xmlns:xlink="http://www.w3.org/1999/xlink" x="0px" y="0px"
	 viewBox="0 0 319.8 443.1" style="enable-background:new 0 0 319.8 443.1;" xml:space="preserve">
<style type="text/css">
	.st0{fill:none;stroke:#FF3737;stroke-width:16;stroke-linecap:round;stroke-linejoin:round;stroke-miterlimit:10;}
</style>
<path class="st0" d="M8.1,279.1V24c0-8.8,8.1-16,18.2-16H283c10,0,18.2,7.1,18.2,16v45.3c0,8.8-8.1,16-18.2,16H119.3
	c-10,0-18.2,7.1-18.2,16v54.6c0,8.8,8.1,16,18.2,16H272c10,0,18.2,7.1,18.2,16v45.2c0,8.8-8.1,16-18.2,16H119.3
	c-10,0-18.2,7.1-18.2,16v76.8c0,8.8,8.1,16,18.2,16h174.3c10,0,18.2,7.1,18.2,16v45.3c0,8.8-8.1,16-18.2,16H26.2
	c-10,0-18.2-7.1-18.2-16v-31.9"/>
<line class="st0" x1="8.1" y1="318.6" x2="8.1" y2="318.6"/>
</svg>
