<?xml version="1.0" encoding="utf-8"?>
<!-- Generator: Adobe Illustrator 25.4.1, SVG Export Plug-In . SVG Version: 6.00 Build 0)  -->
<svg version="1.1" id="Iconos" xmlns="http://www.w3.org/2000/svg" xmlns:xlink="http://www.w3.org/1999/xlink" x="0px" y="0px"
	 viewBox="0 0 32 40.5" style="enable-background:new 0 0 32 40.5;" xml:space="preserve">
<style type="text/css">
	.st0{fill:#FF3737;}
	.st1{fill:#FFDE37;}
</style>
<path class="st0" d="M14.3,26.4c-0.1,0.9,0.5,1.8,1.4,2.1c-0.2,0.3-0.2,0.6-0.2,0.9c0,1.1,0.9,2,2,2H18l0.1,0.2l0.7,2.1
	c0,0.5,0,0.9,0,1.3v4.9c0,0.3,0.3,0.6,0.6,0.6l0,0h10.7c0.3,0,0.6-0.3,0.6-0.6l0,0c0,0,0,0,0-0.1l-0.9-7.5c-0.1-0.9,0-1.8,0.3-2.7
	l1.6-4.7c0.6-1.6,0-3.4-1.3-4.4l-4.3-3.3c0,0-1.1-0.1-1.1,0.2v0.1v6l-0.5,0.6L22.2,17c-0.4-1.4-1.7-2.3-3.2-2.3
	c-0.9,0-1.7,0.8-1.7,1.7l0,0c0,0.1,0,0.2,0,0.3l1.2,7c0.1,0.6,0.1,1.1-0.1,1.7h-4.2C14.4,25.3,14.3,26.2,14.3,26.4z M15.4,26.7
	c0-0.1,0-0.2,0.1-0.3h2.6L18,26.8c-0.1,0.2-0.2,0.5-0.2,0.7h-1.5C15.8,27.5,15.5,27.2,15.4,26.7z M17.4,30.4c-0.5,0-0.8-0.4-0.8-0.8
	s0.4-0.8,0.8-0.8l0,0h0.2c-0.1,0.6-0.1,1.1,0,1.7h-0.2V30.4z M28.6,32.5l0.9,6.8H20V35c0-0.5-0.1-1.1-0.2-1.6l-0.7-2.1
	c-0.4-1.3-0.4-2.8,0.1-4.1l0.4-1.1c0.3-0.8,0.4-1.8,0.2-2.6l-1.2-7c-0.1-0.3,0.1-0.6,0.4-0.6l0,0h0.1c1,0,1.8,0.6,2.1,1.5l2.2,7
	c0,0.1,0,0.1,0.1,0.2l0,0l1.7,2.2c0.2,0.3,0.5,0.3,0.8,0.2l0,0c0.3-0.2,0.3-0.5,0.2-0.8l0,0l0,0l-1.1-1.5l1-2.1h0.8
	c0.3,0,0.6-0.2,0.6-0.5l0,0c0-0.3-0.2-0.6-0.5-0.6l0,0h-0.6v-2.8l3.4,2.7c1,0.8,1.4,2,1,3.2l-1.6,4.7C28.6,30.3,28.4,31.4,28.6,32.5
	L28.6,32.5z"/>
<path class="st1" d="M9.4,22.8l-3,0.8c-0.2,0.1-0.5-0.1-0.6-0.3l0,0L1,5.2C0.9,5,1.1,4.7,1.3,4.6l0,0L14.5,1c0.3,0,0.6,0.2,0.6,0.4
	l0.6,2.2l1.1-0.2l-0.6-2.3C16,0.3,15.1-0.2,14.3,0l0,0L1.1,3.6C0.3,3.8-0.2,4.7,0,5.5l0,0l4.8,18.1c0.2,0.8,1.1,1.3,1.9,1.1l0,0
	l3.7-1L9.4,22.8z"/>
<path class="st0" d="M24.1,25.1c0.9,0,1.6-0.6,1.6-1.5l0.9-18.7C26.7,4,26,3.3,25.1,3.2l0,0L11.4,2.6C10.6,2.5,9.8,3.2,9.8,4l0,0
	L8.9,22.7c0,0.9,0.6,1.6,1.5,1.6l8.9,0.4l0.1-1.1l-8.9-0.4c-0.2,0-0.4-0.2-0.4-0.5l0,0L11,4c0-0.3,0.2-0.4,0.5-0.4l13.7,0.6
	c0.3,0,0.5,0.2,0.4,0.5L25,17.1l-0.3,6.2c0,0.3-0.2,0.5-0.5,0.4l0,0L24.1,25.1z"/>
<path class="st0" d="M13.3,23.9h1.2l1.1,0.3c-0.2,0.2-0.5,0.3-0.7,0.4c-0.6,0-0.9,0.7,0,0.7c0.4,0,0.7,1.1,0.7,1.1
	c-0.5,0-1.1-0.1-1.6-0.3C12.9,25.6,13.3,23.9,13.3,23.9z"/>
</svg>
