<?xml version="1.0" encoding="utf-8"?>
<!-- Generator: Adobe Illustrator 25.4.1, SVG Export Plug-In . SVG Version: 6.00 Build 0)  -->
<svg version="1.1" id="Iconos" xmlns="http://www.w3.org/2000/svg" xmlns:xlink="http://www.w3.org/1999/xlink" x="0px" y="0px"
	 viewBox="0 0 49.5 49.2" style="enable-background:new 0 0 49.5 49.2;" xml:space="preserve">
<style type="text/css">
	.st0{fill:none;stroke:#00E9C5;stroke-width:1.3;stroke-linecap:round;stroke-miterlimit:10;}
	.st1{enable-background:new    ;}
	.st2{fill:#00E9C5;}
	.st3{fill:#FFFFFF;stroke:#00E9C5;stroke-width:1.3;stroke-linecap:round;stroke-miterlimit:10;}
</style>
<line class="st0" x1="38.4" y1="10.1" x2="48.8" y2="3.1"/>
<path class="st0" d="M5.1,39.6c-2.3,0.6-3.6,2.2-4.6,4.1"/>
<line class="st0" x1="38.4" y1="5.5" x2="45.7" y2="0.9"/>
<path class="st0" d="M7,41.8c-3.8,1.2-5.4,4.7-6,6.9"/>
<line class="st0" x1="41.9" y1="12.2" x2="48.7" y2="7.9"/>
<g class="st1">
	<path class="st2" d="M3.5,10.7H3c-0.7,0-1-0.1-1-0.9V2.4C1.8,2.5,1.1,2.8,1,2.8c-0.7,0-0.7-0.6-0.7-1.1S0.5,1,0.9,0.8
		C1.7,0.4,2.6,0,3.5,0C4,0,4.4,0.3,4.4,0.8v9C4.4,10.4,4.1,10.7,3.5,10.7z"/>
	<path class="st2" d="M15.1,7c-1,0.5-2.6,0.4-3.7,0.4v2.5c0,1-0.8,0.9-1.6,0.9c-0.6,0-1-0.2-1-0.9v-9c0-0.6,0.4-0.8,1-0.8h3
		c1.1,0,2,0,2.9,0.8c0.8,0.8,0.9,2,0.9,3C16.6,5.1,16.4,6.4,15.1,7z M11.4,2.1v3.1h1.7c0.2,0,0.6,0,0.8-0.2s0.2-0.9,0.2-1.1
		c0-0.4,0-1.5-0.3-1.6c-0.2-0.1-0.8-0.1-1-0.1C12.3,2.1,11.9,2.1,11.4,2.1z"/>
</g>
<path class="st0" d="M5.9,29.1c0-10.7,8.8-19.6,19.6-19.6s19.6,8.8,19.6,19.6s-8.8,19.6-19.6,19.6S5.9,40.1,5.9,29.1"/>
<path class="st0" d="M12.1,15.9c1.2,0.2,3.4,0.5,4.2,2.1c0.2,0.4,0.2,0.5,0,0.9c-0.9,2.5-4.6,15.2,7.6,23.1c0.2,0.2,0.4,0.5,0.5,0.7
	c0.2,2.1-0.7,4.1-2.5,5.1c-0.4,0.4-0.9,0.4-1.4,0c-3.1-2.3-15.6-12.7-9.6-31.2C11,16.1,11.6,15.7,12.1,15.9z"/>
<path class="st0" d="M17.3,11.3c0.8,0.1,6.5,0.7,7.6,4.1"/>
<path class="st0" d="M25.4,9.5c1.6,0.5,3.5,2.1,3.5,4.2"/>
<path class="st3" d="M36,12.8c0,0-6.1,0.9-19.5,5.4"/>
<path class="st0" d="M42.1,19.7c0,0-14.3-1.6-26.5,8.3l-0.4,0.2"/>
<path class="st0" d="M17,34.6c0,0,18.2-2.2,27.7-9"/>
<path class="st0" d="M43.6,35.7l-19.5,6.2l8.9-2.8c0,0,1.4,3.6-2.7,8.9"/>
<path class="st0" d="M38.4,37.3c0,0,1.2,2.9-0.5,7"/>
<path class="st0" d="M8.6,44.6C6.3,45.2,5,46.8,4,48.7"/>
</svg>
