<?xml version="1.0" encoding="utf-8"?>
<!-- Generator: Adobe Illustrator 25.4.1, SVG Export Plug-In . SVG Version: 6.00 Build 0)  -->
<svg version="1.1" id="Iconos" xmlns="http://www.w3.org/2000/svg" xmlns:xlink="http://www.w3.org/1999/xlink" x="0px" y="0px"
	 viewBox="0 0 50 50" style="enable-background:new 0 0 50 50;" xml:space="preserve">
<style type="text/css">
	.st0{fill:none;stroke:#FFDE37;stroke-width:3;stroke-miterlimit:10;}
	.st1{fill:none;stroke:#050B3D;stroke-width:3;stroke-linecap:round;stroke-linejoin:round;}
	.st2{fill:#050B3D;}
	.st3{fill:none;stroke:#050B3D;stroke-width:0.7;stroke-linecap:round;stroke-miterlimit:10;}
</style>
<path class="st0" d="M11.2,21.1"/>
<path class="st0" d="M36.7,17.3"/>
<g>
	<g>
		<path class="st1" d="M37.1,40.6C30.2,46,20.3,46.3,13,40.7C5.5,35,3.2,25,7,16.7"/>
		<g>
			<polygon class="st2" points="9.3,19 9.3,13 4.1,16 			"/>
		</g>
	</g>
</g>
<g>
	<g>
		<path class="st1" d="M13.2,9.1C20.1,4,29.8,3.8,37,9.3c7.5,5.7,9.8,15.8,6,24"/>
		<g>
			<polygon class="st2" points="40.7,31 40.7,37 45.9,34 			"/>
		</g>
	</g>
</g>
<g id="Balón_00000103248076416948135470000003631581704413775508_">
	<circle class="st3" cx="25" cy="25" r="10.3"/>
	<path class="st3" d="M18.1,18.1c0.7,0,1.7,0.3,2.1,1v0.3c-0.3,1.4-2.4,7.9,3.8,12l0.3,0.3c0,1-0.3,2.1-1.4,2.7
		c-0.4,0.3-0.4,0.3-0.8,0.3c-1.7-1-8.1-6.8-5-16.4C17.5,18.1,17.8,18.1,18.1,18.1z"/>
	<path class="st3" d="M20.9,15.6c0,0,3.9,0.4,4.2,2.1"/>
	<path class="st3" d="M26.2,14.8c0.7,0.3,1.9,1.3,2.3,2"/>
	<path class="st3" d="M30.5,16.4c0,0-3.4,0.7-10.3,2.7"/>
	<path class="st3" d="M33.9,19.9c0,0-3.2-1.5-13.2,4l-1.1,0.7"/>
	<path class="st3" d="M20.5,27.7c0,0,9.6-0.7,14.4-4.1"/>
	<path class="st3" d="M34.6,28.4l-10.3,3.4l4.9-1.6c0,0,0.3,2-1.8,4.7"/>
	<path class="st3" d="M32.3,29.3c0,0,0.4,1.4-0.6,3.5"/>
</g>
</svg>
