<?xml version="1.0" encoding="utf-8"?>
<!-- Generator: Adobe Illustrator 25.4.1, SVG Export Plug-In . SVG Version: 6.00 Build 0)  -->
<svg version="1.1" id="Iconos" xmlns="http://www.w3.org/2000/svg" xmlns:xlink="http://www.w3.org/1999/xlink" x="0px" y="0px"
	 viewBox="0 0 23.8 28.9" style="enable-background:new 0 0 23.8 28.9;" xml:space="preserve">
<style type="text/css">
	.st0{fill:#050B3D;}
	.st1{fill:none;stroke:#050B3D;stroke-linecap:round;stroke-linejoin:round;}
	.st2{fill:none;stroke:#050B3D;stroke-width:0.35;stroke-linecap:round;stroke-miterlimit:10;}
</style>
<path class="st0" d="M23.8,7v14.1c0,0.2-0.2,0.4-0.4,0.4l0,0c-0.2,0-0.4-0.2-0.4-0.4V7C23,6.6,23.8,6.6,23.8,7"/>
<path class="st1" d="M0.7,26.6c-0.4-1-0.1-1.6,0.6-2l4-2.4c0.3-0.2,0.4-0.4,0.5-0.7l1-5.6l-0.3-3.7c0-0.3-0.4-0.3-0.5-0.1l-2.4,4.5
	c-0.3,0.7-1.1,0.9-1.8,0.6l0,0l0,0c-0.7-0.3-0.9-1.2-0.6-1.8l0,0l3.3-6C4.7,9,5,8.6,5.4,8.2c0.5-0.4,1.1-0.8,1.7-0.9l2.4-0.5
	c0.4-0.1,0.8-0.3,1.1-0.5l4.5-4.2c0.5-0.5,1.3-0.5,1.8,0.1l0,0l0,0c0.5,0.5,0.4,1.3-0.1,1.8l-5.5,5.3c-0.3,0.3-0.4,0.6-0.3,1l0.6,5
	c0,0.4,0.2,0.7,0.3,1.1l2.1,4.2c0.4,0.8,0.4,1.8-0.1,2.6l-2.8,4.6c-0.4,0.6-1.2,0.9-1.9,0.5l0,0c-0.7-0.3-1-1.4-0.5-2.2
	c0,0-0.1,0.3-0.1,0.2l2.6-4.1c0.1-0.1,0.1-0.3,0-0.4l-1.7-3.3l-1,4.4c-0.2,0.7-0.6,1.4-1.3,1.8l-4.5,2.5C2,27.5,1.1,27.3,0.7,26.6"
	/>
<circle class="st1" cx="7.4" cy="3" r="2.5"/>
<path class="st2" d="M21,6c-1.4,0-2.6-1.1-2.6-2.6s1.1-2.6,2.6-2.6c1.4,0,2.6,1.1,2.6,2.6S22.4,6,21,6"/>
<path class="st2" d="M20.3,5.8C19,4.9,18.5,3.2,19,1.7c0,0,0.1-0.1,0.2-0.1c0.2,0,0.4,0.1,0.5,0.3V2c-0.4,1.1,0,2.4,1,3l0.1,0.1
	c0,0.3-0.1,0.5-0.3,0.7"/>
<path class="st2" d="M20,1.1c0,0,0.7,0.1,0.8,0.6"/>
<path class="st2" d="M21,0.8c0.2,0.1,0.5,0.4,0.6,0.6"/>
<path class="st2" d="M22.4,1.3c-0.9,0.2-1.7,0.4-2.6,0.7"/>
<path class="st2" d="M23.2,2.1c0,0-1-0.3-3.4,1.1l0,0"/>
<path class="st2" d="M19.9,4.1C21.1,4,22.4,3.7,23.5,3"/>
<path class="st2" d="M23.4,4.2L20.8,5l1-0.3c-0.1,0.5,0,0.8-0.3,1.2"/>
<path class="st2" d="M22.5,4.5c0.1,0.3,0,0.7,0,0.9"/>
<path class="st0" d="M23.8,26.6c-0.3,0.6-0.8,0.2-0.8,0v-3.9c0-0.5,0.8-0.5,0.8,0"/>
<path class="st0" d="M23.8,22.7v3.9"/>
</svg>
