<svg id="voleyball" xmlns="http://www.w3.org/2000/svg" width="42" height="43.824" viewBox="0 0 42 43.824">
  <path id="Trazado_2010" data-name="Trazado 2010" d="M40.852,5.871a.694.694,0,0,0-.437-.431,20.21,20.21,0,0,0-6.391-3.978l-.01,0A21.392,21.392,0,0,0,26.972.013,20.812,20.812,0,0,0,5.713,18.958a.5.5,0,0,0-.067.5c0,.011.011.022.015.033s0,.012,0,.017a22.044,22.044,0,0,0,.056,2.666.6.6,0,0,0-.008.618c.023.041.051.078.075.118,1.255,11.24,10.855,21.414,22.513,20.891a.305.305,0,0,0,.28-.405,18.094,18.094,0,0,0,14.168-6.82.5.5,0,0,0,.5-.417c.024-.109.041-.219.064-.328a22.4,22.4,0,0,0,4.282-14.122A23.2,23.2,0,0,0,40.852,5.871ZM40.474,7.5a.464.464,0,0,0,.183-.115A20.333,20.333,0,0,1,43.1,10.522c-.916.172-1.543,1.305-1.8,2.118a4.092,4.092,0,0,0-.184,1.4,3.611,3.611,0,0,0-.306-.286,1.657,1.657,0,0,0-.785-.641.607.607,0,0,0-.259-.08c-1.242-.276-2.9.682-3.664,1.507a5.953,5.953,0,0,0-1.562,3.636c-.043-.045-.075-.1-.12-.142-.006-.016,0-.033-.01-.048-.84-1.6-3.6-1.514-4.973-.764a4.1,4.1,0,0,0-2.113,3.643,4.765,4.765,0,0,0-.838-.566,33.386,33.386,0,0,0-4.146-2.2C27.578,12.58,33.294,9.818,40.474,7.5Zm-13.5-6.254a21.231,21.231,0,0,1,2.51.272A27.327,27.327,0,0,0,19.94,6.115c-1.93,1.456-6.574,5.05-6.568,7.8a19.607,19.607,0,0,1-3.994-3.054A19.825,19.825,0,0,1,26.972,1.249ZM8.79,11.951c4.63,4.606,11.273,6.439,17.136,9.132a5.187,5.187,0,0,1,1.951,2.8c.462,1.926-.495,4.9-2.838,4.963-2.313-1.358-5.073-2.076-7.5-3.169A27.919,27.919,0,0,1,6.936,17.7,18.158,18.158,0,0,1,8.79,11.951ZM26.735,42.912a.254.254,0,0,0-.07.11c-8.242-.794-15.09-6.509-18.162-13.981a21.831,21.831,0,0,0,2.475,2.334.615.615,0,0,0,.356.424c.1.041.2.078.3.119a29.832,29.832,0,0,0,3.381,2.228A33.838,33.838,0,0,0,19.855,36.4C21.282,36.936,31.494,39.387,26.735,42.912Zm9.07-1.979a17.414,17.414,0,0,1-7.9,1.761c1.614-1.616.482-3.712-1.378-4.955a4.672,4.672,0,0,0,1.8-2.563c.5-1.788.12-4.211-1.517-5.3a.319.319,0,0,0-.3-.031c-.127-.1-.266-.191-.4-.289a4.584,4.584,0,0,0,3.033-4.186A5.475,5.475,0,0,0,28.2,21.9a3.851,3.851,0,0,1,1.9-3.725,3.226,3.226,0,0,1,2.025-.266,5.731,5.731,0,0,1,1.317.524c2.125,3.062,2.213,8.262,2.45,11.615a73.114,73.114,0,0,1-.113,10.682A.565.565,0,0,0,35.8,40.933ZM43.5,21.325a22.821,22.821,0,0,0-1.253-5.689.352.352,0,0,0-.006-.157A3.82,3.82,0,0,1,42.4,12.9a14.563,14.563,0,0,1,1.149-1.572,22.614,22.614,0,0,1,2.92,10.39A21.993,21.993,0,0,1,43.758,33.2,40.393,40.393,0,0,0,43.5,21.325Z" transform="translate(-5.606 -0.001)" fill="#050c42"/>
</svg>
