<svg id="Capa_1" data-name="Capa 1" xmlns="http://www.w3.org/2000/svg" viewBox="0 0 512 429.47"><defs><style>.cls-1{fill:#00e9c5;}.cls-2{fill:none;stroke:#00e9c5;stroke-linecap:round;stroke-linejoin:round;stroke-width:14px;}</style></defs><path class="cls-1" d="M499.64,207.62A9.7,9.7,0,0,0,488,208.71c-8.54,7.69-17.2,14.77-26.16,21.39q3-9.69,5.11-19c15.1-8.62,27.19-22.75,35.1-41.08a128.29,128.29,0,0,0,9.76-56.2,9.77,9.77,0,0,0-18.22-4.35,335.61,335.61,0,0,1-18.5,28.76c0-7.93-.39-15.62-1-23,0-.15,0-.29,0-.44a328.05,328.05,0,0,0-12.52-68.09,7.51,7.51,0,0,0-14.41,4.25,317.32,317.32,0,0,1,9.5,43.19c-8.22-7.94-16.69-15.35-25.6-22.39a9.77,9.77,0,0,0-15.48,10.22c9,33.12,24.06,61.35,43.62,82q-.72,9.47-2.22,19.47a325,325,0,0,0-17.65-27.85,9.76,9.76,0,0,0-17.73,5.21c-1,23.34,1.33,57.4,17.55,89q-3.42,8.63-7.66,17.53a322.19,322.19,0,0,0-8.84-31.56,9.77,9.77,0,0,0-9.18-6.65h-.08a9.76,9.76,0,0,0-9.2,6.49c-10.76,30.37-13.88,62.08-8.93,89.77q-5.81,7.32-12.51,14.65a314.15,314.15,0,0,0,.82-32.87,9.77,9.77,0,0,0-17.62-5.53c-19.25,26.09-31.73,55.76-35.42,83.93-20,15.07-30.58,19.07-41.74,23.28-9.19,3.48-18.58,7-32.78,16.5-14.2-9.46-23.59-13-32.78-16.5-11.16-4.21-21.72-8.21-41.74-23.28-3.68-28.17-16.17-57.84-35.42-83.93a9.77,9.77,0,0,0-17.62,5.54,314,314,0,0,0,.82,32.86q-6.7-7.32-12.51-14.66c5-27.68,1.83-59.39-8.93-89.76a9.76,9.76,0,0,0-9.2-6.49h-.08a9.77,9.77,0,0,0-9.18,6.65,322.19,322.19,0,0,0-8.84,31.56q-4.24-8.89-7.66-17.53c16.22-31.59,18.53-65.65,17.55-89a9.76,9.76,0,0,0-17.73-5.21A325,325,0,0,0,55,183.35q-1.5-10-2.22-19.47c19.55-20.61,34.61-48.84,43.62-82A9.77,9.77,0,0,0,81,71.7c-8.91,7-17.38,14.45-25.6,22.39a315,315,0,0,1,9.5-43.18,7.51,7.51,0,1,0-14.41-4.26,327.84,327.84,0,0,0-12.52,68.08c0,.16,0,.32,0,.48-.64,7.39-1,15.07-1,23a335.61,335.61,0,0,1-18.5-28.76A9.72,9.72,0,0,0,7.62,104.8a9.68,9.68,0,0,0-7.46,9A128.29,128.29,0,0,0,9.92,170c7.91,18.32,20,32.45,35.1,41.08q2.16,9.33,5.11,19c-9-6.63-17.62-13.7-26.16-21.39A9.76,9.76,0,0,0,8,218.4c8.69,33.38,33.88,69.87,71,78.17q4.76,8.25,10.37,16.62c-10.47-3.71-20.8-7.92-31.2-12.75a9.76,9.76,0,0,0-12.44,13.95c17.16,28,49.51,54.33,85.4,54.33,1.76,0,3.53-.07,5.31-.2A313.48,313.48,0,0,0,170,395.58c23.33,17.91,35.85,22.64,47.95,27.21a130.37,130.37,0,0,1,25,11.87c-7.77,5.95-16.76,13.42-27.43,23a7.51,7.51,0,1,0,10,11.19c12.38-11.07,22.27-19.17,30.51-25.25,8.24,6.08,18.13,14.18,30.51,25.25a7.51,7.51,0,0,0,10-11.19c-10.68-9.55-19.67-17-27.44-23a130.37,130.37,0,0,1,25-11.87c12.1-4.57,24.61-9.3,47.92-27.2a313,313,0,0,0,33.57-27.07c1.78.13,3.55.2,5.31.2,35.88,0,68.24-26.35,85.4-54.33a9.76,9.76,0,0,0-12.44-13.95c-10.4,4.83-20.73,9.05-31.2,12.76q5.61-8.37,10.37-16.63c37.12-8.3,62.31-44.78,71-78.17A9.68,9.68,0,0,0,499.64,207.62Zm-28.09-20.25c.21-1.33.41-2.66.6-4l.33-2.41c.16-1.23.32-2.46.47-3.69.1-.82.19-1.64.29-2.45.13-1.2.26-2.39.38-3.57.08-.81.16-1.62.23-2.43.11-1.18.21-2.36.3-3.53,0-.43.08-.87.11-1.3a339.67,339.67,0,0,0,21.88-29.93c-2.45,20.44-10.36,41.23-24.87,55.14C471.37,188.6,471.45,188,471.55,187.37ZM15.86,134.09A339.67,339.67,0,0,0,37.74,164c0,.46.08.92.12,1.38.09,1.12.18,2.26.29,3.4q.1,1.26.24,2.52c.11,1.16.24,2.32.37,3.48.09.84.19,1.67.29,2.52.15,1.21.31,2.43.47,3.65.11.81.21,1.61.33,2.43.19,1.33.4,2.68.61,4,.09.61.17,1.2.27,1.81C26.22,175.32,18.31,154.53,15.86,134.09Zm59.51,44.43a167.68,167.68,0,0,1-9.84,50.53c-.18-.59-.37-1.18-.55-1.77-.31-1-.63-2-.93-3-.24-.82-.48-1.63-.71-2.43-.29-1-.58-2-.85-3-.23-.82-.44-1.62-.66-2.43-.26-1-.52-2-.77-2.92l-.6-2.4c-.23-1-.47-1.93-.69-2.88-.09-.4-.18-.8-.28-1.21C64.44,197,69.69,187.59,75.37,178.52Zm-23.45-42c0-.86,0-1.71,0-2.57,0-1.07,0-2.15.08-3.21,0-.85.06-1.7.1-2.55,0-1.05.09-2.09.14-3.13l.15-2.5q.09-1.56.21-3.09c0-.43.07-.86.1-1.29,7.75-8.34,15.65-16.06,23.89-23.33-6.39,17.78-14.74,33.61-24.73,46.87v-1.9C51.9,138.74,51.9,137.64,51.92,136.54ZM29,232.72a350.36,350.36,0,0,0,29.54,21.49c.16.42.34.85.5,1.26.41,1,.82,2,1.24,3.07.32.79.65,1.57,1,2.35.43,1,.88,2.08,1.34,3.12.33.78.67,1.55,1,2.33.49,1.08,1,2.17,1.48,3.26.35.74.68,1.48,1,2.22.55,1.18,1.13,2.37,1.7,3.55.27.55.52,1.1.79,1.65C50.83,268.18,37.27,251.07,29,232.72ZM98.61,256.8a165.77,165.77,0,0,1,5.15,50.87c-.33-.48-.66-1-1-1.45-.61-.9-1.22-1.79-1.82-2.69l-1.35-2.07c-.57-.88-1.14-1.75-1.69-2.63-.45-.7-.88-1.4-1.32-2.1-.54-.85-1.07-1.71-1.59-2.57L93.74,292l-1.49-2.53-.61-1.07A317.91,317.91,0,0,1,98.61,256.8ZM69.88,321.9a364.07,364.07,0,0,0,34.45,11.91c.27.35.57.7.85,1.05.69.88,1.4,1.75,2.12,2.63.52.65,1,1.29,1.59,1.94.74.89,1.49,1.77,2.24,2.66.54.63,1.08,1.27,1.63,1.9.79.91,1.6,1.83,2.42,2.75l1.59,1.79,2.75,3c.4.43.78.86,1.18,1.28C101.13,349.46,83.16,337,69.88,321.9Zm92.43,49.15c-.86-.7-1.73-1.39-2.57-2.08l-1.94-1.61c-.81-.68-1.63-1.36-2.42-2.05l-1.92-1.65-2.3-2c-.63-.55-1.25-1.11-1.87-1.67s-1.48-1.35-2.2-2l-.93-.87a314.34,314.34,0,0,1-2.69-32.47,171.71,171.71,0,0,1,20.24,47.58Zm203.53-14-.91.85L362.69,360l-1.84,1.66c-.76.68-1.54,1.35-2.31,2s-1.27,1.11-1.92,1.66l-2.39,2-2,1.65c-.81.67-1.64,1.34-2.47,2l-1.48,1.18a172,172,0,0,1,20.24-47.57A314.34,314.34,0,0,1,365.84,357.06ZM413.39,256.8a317.91,317.91,0,0,1,7,31.64l-.61,1.07L418.26,292,417,294.18c-.51.84-1,1.68-1.56,2.53s-.89,1.43-1.35,2.15-1.09,1.7-1.65,2.55-.93,1.43-1.4,2.15l-1.72,2.55-1.06,1.56A165.74,165.74,0,0,1,413.39,256.8Zm28.73,65.1c-13.29,15.12-31.24,27.57-50.82,30.92l1.31-1.44c.87-.94,1.74-1.88,2.59-2.82.57-.63,1.12-1.25,1.67-1.88l2.36-2.67,1.66-1.94c.74-.88,1.48-1.75,2.21-2.63l1.61-2q1.07-1.31,2.1-2.61l.86-1.06A361.27,361.27,0,0,0,442.12,321.9Zm-6.75-227c8.24,7.27,16.14,15,23.89,23.32,0,.45.07.9.1,1.35.08,1,.15,2,.21,3l.15,2.53c0,1,.1,2.09.14,3.14,0,.84.07,1.68.1,2.53,0,1.07.06,2.16.08,3.25,0,.84,0,1.68,0,2.53,0,1.11,0,2.22,0,3.34v1.87C450.11,128.48,441.76,112.65,435.37,94.87Zm1.25,83.65A324.15,324.15,0,0,1,452.5,207c-.09.41-.18.82-.28,1.24-.22.94-.45,1.88-.68,2.83s-.4,1.61-.61,2.43-.5,1.95-.77,2.93c-.21.79-.42,1.59-.65,2.39q-.42,1.51-.87,3.06c-.22.77-.45,1.55-.68,2.33-.32,1.06-.65,2.12-1,3.19-.17.55-.34,1.1-.52,1.66A168.3,168.3,0,0,1,436.62,178.52Zm6.82,98.5.77-1.62c.58-1.19,1.16-2.39,1.72-3.58.35-.74.68-1.47,1-2.2.51-1.1,1-2.19,1.5-3.29.34-.76.67-1.53,1-2.29.46-1.06.92-2.11,1.36-3.16l1-2.31q.64-1.57,1.26-3.12l.49-1.23a354.36,354.36,0,0,0,29.54-21.5C474.73,251.07,461.17,268.18,443.44,277Z" transform="translate(0 -41.26)"/><path class="cls-2" d="M334.74,237.26c.17,2,.26,4,.26,6.1a53.76,53.76,0,0,1-22.9,45.45,79.51,79.51,0,0,1-25.56,11.89,119.06,119.06,0,0,1-32,4.09q-19,0-33.46-4.26t-24.24-11.9a50,50,0,0,1-14.73-18.11,53,53,0,0,1-5-23.08q0-21.3,11.89-36.74t36.75-28Q203.09,171.1,192.62,157a53.65,53.65,0,0,1,8.08-72.7A69.88,69.88,0,0,1,224,71.24q14-4.87,33-4.88,17.93,0,31.51,3.82A66.32,66.32,0,0,1,311.39,81.1a45.18,45.18,0,0,1,13.85,17.22,53.63,53.63,0,0,1,4.61,22.54q0,20.25-11.27,34.45t-32,24.85a152,152,0,0,1,19.17,11.36,83.35,83.35,0,0,1,15.45,13.85" transform="translate(0 -41.26)"/><path class="cls-2" d="M301.45,245.67a39.12,39.12,0,0,0-2.13-12.78,35.48,35.48,0,0,0-7.64-12.25A76.78,76.78,0,0,0,277,208.56a174.74,174.74,0,0,0-23.43-12.42,148.39,148.39,0,0,0-20.33,11.63,70.06,70.06,0,0,0-13.32,11.71,37.43,37.43,0,0,0-7.19,12.34,42.39,42.39,0,0,0-2.13,13.49A28.27,28.27,0,0,0,214,259.43a31.84,31.84,0,0,0,9.5,10.38,43.22,43.22,0,0,0,14.38,6.39A73.07,73.07,0,0,0,256,278.33a77.25,77.25,0,0,0,17.75-1.95,44.77,44.77,0,0,0,14.47-5.95,29.77,29.77,0,0,0,9.68-10.11A28.82,28.82,0,0,0,301.45,245.67Z" transform="translate(0 -41.26)"/><path class="cls-2" d="M235,154.19c1.21.79,2.48,1.58,3.79,2.36a192.36,192.36,0,0,0,19.88,10.12q20.07-9.4,29.83-19.62a33.23,33.23,0,0,0,9.76-23.7q0-15.8-11.09-23.52T256,92.1q-19.89,0-31,7.64t-11.09,22.9" transform="translate(0 -41.26)"/></svg>