<?xml version="1.0" encoding="utf-8"?>
<!-- Generator: Adobe Illustrator 25.4.1, SVG Export Plug-In . SVG Version: 6.00 Build 0)  -->
<svg version="1.1" id="Layer_1" xmlns="http://www.w3.org/2000/svg" xmlns:xlink="http://www.w3.org/1999/xlink" x="0px" y="0px"
	 viewBox="0 0 402.6 516.8" style="enable-background:new 0 0 402.6 516.8;" xml:space="preserve">
<style type="text/css">
	.st0{fill:none;stroke:#FF3737;stroke-width:13;stroke-linecap:round;stroke-miterlimit:10;}
	.st1{fill:none;stroke:#FF3737;stroke-width:13;stroke-miterlimit:10;}
	.st2{fill:none;stroke:#FF3737;stroke-width:14;stroke-linecap:round;stroke-linejoin:round;}
	.st3{fill:#FF3737;}
</style>
<path class="st0" d="M262.4,461.2c0-5.5-4.5-10-10-10l0,0c-18.5,0-28.4,6.8-36.4,12.3c-7.2,4.9-12.8,8.8-25.1,8.8
	s-17.9-3.9-25.1-8.8c-8-5.5-17.9-12.3-36.4-12.3S101,458,93,463.4c-7.2,4.9-12.8,8.8-25.1,8.8s-17.9-3.9-25.1-8.8
	c-8-5.5-17.9-12.3-36.4-12.3"/>
<polyline class="st0" points="262.4,510.3 262.4,373.7 396.1,373.7 "/>
<path class="st1" d="M196.4,471.8c10.3-13.3,7.9-32.4-5.3-42.7c-13.3-10.3-32.4-7.9-42.7,5.3c-4,5.2-6.3,11.5-6.4,18.1"/>
<path class="st1" d="M45.3,465.6l9.8-8.2c3.3-2.8,6.1-6,8.4-9.7l52.3-83.5c4.4-7,13-10,20.8-7.3l89.6,30.6
	c8.6,2.9,13.1,12.2,10.2,20.8c-0.2,0.6-0.4,1.1-0.7,1.6l0,0c-3.5,7.6-12.2,11.3-20.2,8.6l-58.9-20.2c-8.2-2.8-17.2,0.7-21.3,8.2
	l-9.6,17.4c-4.6,8.4-6.1,18.2-4.3,27.6"/>
<path class="st1" d="M261.8,149.7l-35.6-2.8l-48.9-3.8c-3.9-0.3-7.9-0.1-11.7-1.4c-9.6-3.4-15.2-10.2-16.8-20.1s3.4-17.3,11-22.8
	c36.1-25.9,72.2-51.6,108.5-77.3c5.3-3.8,10.5-7.6,15.8-11.3c8.2-6,19.8-4.3,25.9,4c1.9,2.6,3.1,5.8,3.5,9
	c0.8,7.2-2.7,12.7-8.3,16.9c-8.1,6-16.3,12-24.4,18c-10.4,7.7-20.8,15.5-31.5,23.5c4.7,1.1,9.2,1.1,13.5,1.5
	c18.8,1.7,37.6,3.3,56.5,4.9c6.8,0.6,13.6,1.2,20.3,1.9c15,1.7,26,13,27.7,27.9c0.9,8-2.8,14-8.1,19.3c-4.7,4.8-10.4,8.1-15.8,12
	c-9.9,7.3-20,14.2-29.8,21.6c-5.5,4.1-11.1,8.1-16.8,11.9c-2.3,1.6-4.1,3.9-6.8,4.9c-1.8,0.7-0.2,2.1,0.4,2.9
	c4.3,5.8,8.8,11.6,13.1,17.4c10,13.2,20,26.4,29.9,39.8c6.8,9.2,4.3,23.1-5.2,30.2c-8.7,6.5-22.1,4.6-29-4.3
	c-14-18-27.9-36.2-41.9-54.3c-6.5-8.4-12.9-17-19.6-25.3c-7.8-9.7-6-21.7,3.7-28.4C248.1,160.8,254.4,155.3,261.8,149.7z"/>
<path class="st1" d="M97.5,143.7c-18.7,0-33.8-15.2-33.8-33.9c0-0.1,0-0.1,0-0.2c0.1-18.1,15.6-33.5,33.9-33.5
	c18.5,0.1,33.8,15.7,33.5,34.4C130.8,128.9,115.9,143.7,97.5,143.7z"/>
<polyline class="st0" points="296.8,373.7 296.8,305 378.6,249.6 "/>
<path class="st2" d="M156.2,303.9c-24.1,18.7-58.7,14.3-77.4-9.7c-11.2-14.4-14.5-33.3-9-50.6"/>
<polygon class="st3" points="86.4,252.4 77.6,217.3 51.6,242.5 "/>
<path class="st2" d="M91.4,206c24.1-18.7,58.7-14.3,77.4,9.7c11.2,14.4,14.5,33.3,9,50.6"/>
<polygon class="st3" points="161.2,257.5 170,292.7 196.1,267.5 "/>
</svg>
