<?xml version="1.0" encoding="utf-8"?>
<!-- Generator: Adobe Illustrator 25.4.1, SVG Export Plug-In . SVG Version: 6.00 Build 0)  -->
<svg version="1.1" id="Layer_1" xmlns="http://www.w3.org/2000/svg" xmlns:xlink="http://www.w3.org/1999/xlink" x="0px" y="0px"
	 viewBox="0 0 408.3 386.4" style="enable-background:new 0 0 408.3 386.4;" xml:space="preserve">
<style type="text/css">
	.st0{fill:none;stroke:#FF3737;stroke-width:13;stroke-linecap:round;stroke-miterlimit:10;}
	.st1{fill:none;stroke:#FF3737;stroke-width:13;stroke-miterlimit:10;}
	.st2{fill:none;stroke:#FF3737;stroke-width:13;stroke-linecap:round;stroke-linejoin:round;}
	.st3{fill:#FF3737;}
</style>
<path class="st0" d="M401.8,123.5c0-5.5-4.5-10-10-10l0,0c-18.5,0-28.4,6.8-36.4,12.3c-7.2,4.9-12.8,8.8-25.1,8.8
	s-17.9-3.9-25.1-8.8c-8-5.5-17.9-12.3-36.4-12.3s-28.4,6.8-36.4,12.3c-7.2,4.9-12.8,8.8-25.1,8.8s-17.9-3.9-25.1-8.8
	c-8-5.5-17.9-12.3-36.4-12.3s-28.4,6.8-36.4,12.3c-7.1,4.9-12.8,8.8-25.1,8.8s-17.9-3.9-25.1-8.8c-15.9-16.5-40.7-11.4-52.9,2.5"/>
<line class="st0" x1="401.8" y1="49" x2="401.8" y2="379.9"/>
<path class="st1" d="M128.2,198.7c-1.1-16.8-15.5-29.5-32.3-28.4s-29.5,15.5-28.4,32.3c1.1,16.8,15.5,29.5,32.3,28.5
	C116.5,229.9,129.2,215.4,128.2,198.7z"/>
<path class="st2" d="M131.3,282.8l85.4,75.2c6.1,4.9,13.9,7.4,21.7,6.8c11.5-0.7,21.8-7.7,26.7-18.1l35.1-73.5
	c3.2-6.8,9.9-11.3,17.4-11.8l54.9-3.4c10.2-0.6,18-9.3,17.6-19.6l0,0c-0.5-10.3-9.2-18.3-19.6-17.9c-0.1,0-0.3,0-0.4,0l-82.7,5.5
	c-7.2,0.5-13.6,4.6-17,11l-30,56.4L180.7,239l37.1-27c6.6-4.8,8.9-10.9,8.5-16.4l-1-16c-1.4-22.7-31.1-20.9-29.7,1.9l0.5,6
	l-62.7,45.7c0,0-14.1,9.8-13.1,26.5C120.3,259.6,119.4,273.6,131.3,282.8z"/>
<path class="st2" d="M267.5,6.5h62c17.3,0,31.3,14.1,31.3,31.4l0,0c0,17.3-14,31.3-31.3,31.4H323"/>
<polygon class="st3" points="321,51.4 290.2,69.2 321,87 "/>
</svg>
