<?xml version="1.0" encoding="utf-8"?>
<!-- Generator: Adobe Illustrator 25.4.1, SVG Export Plug-In . SVG Version: 6.00 Build 0)  -->
<svg version="1.1" id="Layer_1" xmlns="http://www.w3.org/2000/svg" xmlns:xlink="http://www.w3.org/1999/xlink" x="0px" y="0px"
	 viewBox="0 0 332.3 339.7" style="enable-background:new 0 0 332.3 339.7;" xml:space="preserve">
<style type="text/css">
	.st0{fill:none;stroke:#FF3737;stroke-width:13;stroke-linecap:round;stroke-miterlimit:10;}
	.st1{fill:none;stroke:#FF3737;stroke-width:13;stroke-miterlimit:10;}
	.st2{fill:#FF3737;}
	.st3{fill:none;stroke:#FF3737;stroke-width:16;stroke-linecap:round;stroke-miterlimit:10;}
</style>
<path class="st0" d="M323.9,333.2c-12.3,0-17.9-3.9-25.1-8.8c-8-5.5-17.9-12.3-36.4-12.3S234,319,226,324.5
	c-7.1,4.9-12.8,8.8-25.1,8.8s-17.9-3.9-25.1-8.8c-8-5.5-17.9-12.3-36.4-12.3S111,319,103,324.5c-7.2,4.9-12.8,8.8-25.1,8.8
	s-17.9-3.9-25.1-8.8c-8-5.5-17.9-12.3-36.4-12.3c-5.5,0-10,4.5-10,10"/>
<path class="st1" d="M208.5,236.6H6.5v29.5h202.4c8.1,0,14.7-6.6,14.7-14.7c0-0.2,0-0.5,0-0.7C223.1,242.7,216.5,236.5,208.5,236.6z
	"/>
<path class="st1" d="M62.8,57.8C85.8,95,84.6,181.9,83,218c-0.4,9-7.9,16.2-16.9,16.1l0,0c-9.3,0-16.9-7.6-16.9-16.9
	c0-0.6,0-1.2,0.1-1.9c4.1-36.6,0.6-95.9-38.5-170C-5.5,14.3,31.2,2.2,48.1,7.7c40.9,13.2,57.5,16,98,30.3
	c12.7,4.5,18.2,14.6,14.1,27.3c-7.9,24.6-22.4,66.1-30.3,88.5c-3,8.5-12.3,13-20.8,10c0,0,0,0-0.1,0l0,0c-8.4-3-12.8-12.1-10-20.5
	c5.2-15.6,13.2-39.6,18.5-54.2c3.1-8.6,1.5-12.9-7.6-15.5C94.9,69.1,80.1,63.6,62.8,57.8z"/>
<path class="st1" d="M231.8,91.3c0,16.8-13.6,30.4-30.4,30.4c-16.4,0-30.5-14.3-30.2-30.7c0.4-16.7,13.9-30.1,30.6-30.4
	C218.3,60.5,232,74.4,231.8,91.3z"/>
<path class="st2" d="M272.8,239.6c-9.1,3-14,12.8-11,21.9c3,9.1,12.8,14,21.9,11l0,0c8.9-3,13.8-12.6,11-21.6l-0.1-0.3
	C291.7,241.5,281.9,236.6,272.8,239.6C272.8,239.6,272.8,239.6,272.8,239.6z M274.6,243.8l0.5,1.2c6.1,0,11,5,10.9,11
	c0,6.1-5,11-11,10.9c-6.1,0-11-5-10.9-11c0-6,4.9-10.9,10.9-10.9L274.6,243.8z"/>
<path class="st2" d="M330.1,229.7l-5.1-16.9c-0.2-0.7-0.7-1.4-1.4-1.8c-0.7-0.4-1.5-0.5-2.3-0.2c-0.2,0.1-0.4,0.2-0.5,0.3l-10.5,3.2
	c-1.6,0.5-2.4,2.1-1.9,3.7c0.5,1.6,2.1,2.4,3.7,1.9l7.9-2.4l3.7,11.8l-22.3,11.3c-1.5,0.7-2.1,2.5-1.4,3.9c0,0,0,0,0,0
	c5.6,12.2,0.2,26.6-12,32.2c-11.4,5.2-25,0.9-31.2-10c-6.1-11.8-1.5-26.4,10.2-32.6c1.3-0.6,2.6-1.2,4-1.7l5.3-1.6l1,3.2
	c0.5,1.5,2.1,2.4,3.7,1.9l8.2-2.5c1.6-0.4,2.5-2,2.1-3.6c0-0.1-0.1-0.3-0.1-0.4l-1-2.9l7.6-2.3c1.5-0.4,2.5-2,2-3.6
	c-0.4-1.5-1.9-2.5-3.5-2.2c-0.1,0-0.1,0-0.1,0l-10.5,3.2c-1.5,0.5-2.4,2.1-1.9,3.7l1,3.2l-2.7,0.8l-1-3.2c-0.5-1.5-2.1-2.4-3.6-1.9
	l-8.1,2.5c-5.4,1.7-10.3,4.9-14,9.2l-0.6-0.3l-0.1,0c-4-1.8-8.7,0-10.5,4c-1.6,3.7-0.3,7.9,3.1,10l1.3,0.7
	c-2.7,16.5,8.4,32.1,24.9,34.8c16.5,2.7,32.1-8.4,34.8-24.9c0.7-4.5,0.5-9.1-0.8-13.5c-0.2-0.8-0.5-1.6-0.9-2.4l22-11.2
	C329.9,232.5,330.5,231,330.1,229.7z M247.9,241.4l1.2,0.5c0.3-0.5,0.7-0.9,1.2-1c0.5-0.2,1.1-0.1,1.6,0.1l-0.4,0.7
	c-0.5,1-1,2-1.4,3.1l-0.1-0.1l0,0c-1-0.5-1.4-1.7-0.9-2.7L247.9,241.4z"/>
<path class="st2" d="M277.7,213.6c0.4,1.4,1.7,2.3,3.1,2.3c0.3,0,0.6,0,0.9-0.1c1.7-0.4,2.8-2.2,2.4-3.9c0,0,0-0.1,0-0.1l-2.1-7
	c-0.4-1.8-2.2-2.9-4-2.6c-1.8,0.4-2.9,2.2-2.6,4c0,0.1,0.1,0.3,0.1,0.4L277.7,213.6z"/>
<path class="st2" d="M263.2,219.3L263.2,219.3l5.9,3.1h0.1c0.4,0.2,0.8,0.2,1.1,0.2c0.2,0,0.3,0,0.5,0c0.1,0,0.3,0,0.4,0
	c0.8-0.2,1.5-0.7,1.9-1.5c0.7-1.4,0.1-3.2-1.3-3.9l-5.8-3.1H266c-1.4-0.7-3.2-0.2-3.9,1.3c0,0,0,0,0,0
	C261.4,216.8,261.9,218.5,263.2,219.3z"/>
<path class="st2" d="M292.2,217c0.3,0,0.6,0,0.9-0.1l0.1,0c0.8-0.3,1.5-1,1.9-1.9l3.3-6.2c0-0.1,0.1-0.1,0.1-0.2
	c0.6-1.7-0.2-3.6-1.9-4.2c-1.4-0.5-3,0-3.9,1.2c0,0.1-0.1,0.1-0.1,0.2l-3.4,6.5v0.1c-0.4,0.8-0.4,1.7,0,2.4
	C289.6,216.1,290.8,217,292.2,217z"/>
<path class="st2" d="M301.3,220.3c0.4,1.2,1.5,1.9,2.7,1.9c0.3,0,0.5,0,0.8-0.1c0.8-0.1,1.6-0.7,2-1.4c0-0.1,0.1-0.1,0.1-0.2
	c0.2-0.7,0.2-1.4,0-2.1c-0.5-1.6-2.1-2.4-3.7-2c-0.7,0.2-1.4,0.7-1.7,1.4c-0.4,0.7-0.4,1.5-0.2,2.2
	C301.3,220.2,301.3,220.3,301.3,220.3z"/>
<path class="st3" d="M317.7,180.1l-60.5-58.4"/>
<path class="st3" d="M317.7,121.7l-60.5,58.4"/>
</svg>
