<?xml version="1.0" encoding="utf-8"?>
<!-- Generator: Adobe Illustrator 25.4.1, SVG Export Plug-In . SVG Version: 6.00 Build 0)  -->
<svg version="1.1" id="Layer_1" xmlns="http://www.w3.org/2000/svg" xmlns:xlink="http://www.w3.org/1999/xlink" x="0px" y="0px"
	 viewBox="0 0 332.3 339.7" style="enable-background:new 0 0 332.3 339.7;" xml:space="preserve">
<style type="text/css">
	.st0{fill:none;stroke:#00E9C5;stroke-width:13;stroke-linecap:round;stroke-miterlimit:10;}
	.st1{fill:none;stroke:#00E9C5;stroke-width:13;stroke-miterlimit:10;}
</style>
<path class="st0" d="M323.9,333.2c-12.3,0-17.9-3.9-25.1-8.8c-8-5.5-17.9-12.3-36.4-12.3S234,319,226,324.5
	c-7.1,4.9-12.8,8.8-25.1,8.8s-17.9-3.9-25.1-8.8c-8-5.5-17.9-12.3-36.4-12.3S111,319,103,324.5c-7.2,4.9-12.8,8.8-25.1,8.8
	s-17.9-3.9-25.1-8.8c-8-5.5-17.9-12.3-36.4-12.3c-5.5,0-10,4.5-10,10"/>
<path class="st1" d="M208.5,236.6H6.5v29.5h202.4c8.1,0,14.7-6.6,14.7-14.7c0-0.2,0-0.5,0-0.7C223.1,242.7,216.5,236.5,208.5,236.6z
	"/>
<path class="st1" d="M156.8,57.8c23,37.2,21.8,124.1,20.2,160.2c-0.4,9-7.9,16.2-16.9,16.1l0,0c-9.3,0-16.9-7.6-16.9-16.9
	c0-0.6,0-1.2,0.1-1.9c4.1-36.6,0.6-95.9-38.5-170c-16.3-31,20.4-43.1,37.3-37.6c40.9,13.2,57.5,16,98,30.3
	c12.7,4.5,18.2,14.6,14.1,27.3c-7.9,24.6-22.4,66.1-30.3,88.5c-3,8.5-12.3,13-20.8,10c0,0,0,0-0.1,0l0,0c-8.4-3-12.8-12.1-10-20.5
	c5.2-15.6,13.2-39.6,18.5-54.2c3.1-8.6,1.5-12.9-7.6-15.5C188.9,69.1,174.1,63.6,156.8,57.8z"/>
<path class="st1" d="M325.8,91.3c0,16.8-13.6,30.4-30.4,30.4c-16.4,0-30.5-14.3-30.2-30.7c0.4-16.7,13.9-30.1,30.6-30.4
	C312.3,60.5,326,74.4,325.8,91.3z"/>
</svg>
