<?xml version="1.0" encoding="utf-8"?>
<!-- Generator: Adobe Illustrator 25.4.1, SVG Export Plug-In . SVG Version: 6.00 Build 0)  -->
<svg version="1.1" id="Capa_1" xmlns="http://www.w3.org/2000/svg" xmlns:xlink="http://www.w3.org/1999/xlink" x="0px" y="0px"
	 viewBox="0 0 59.9 37.2" style="enable-background:new 0 0 59.9 37.2;" xml:space="preserve">
<style type="text/css">
	.st0{fill:none;stroke:#FF3737;stroke-width:1.7;}
</style>
<path class="st0" d="M27.1,32c0.6,0.7,3.8,4.5,5.4,4.3h23.4c1.8-0.1,3.2-1.3,3.2-3.2c-0.1-1.8-0.9-3.3-3.1-3.4l0,0H34.9
	c-0.3,0-0.4-0.3-0.3-0.5l5.7-7.1c0.2-0.2,0.5-0.3,0.9-0.1l7.3,4.8c1.4,1,3.4,0.6,4.4-0.9c1-1.4,0.4-3.6-1.4-4.7c0,0,0.5,0.3,0.4,0.3
	L41.8,15c-1.3-0.9-3.1-0.6-4.1,0.5l-4.3,4.8c-0.4,0.4-1.1,0.5-1.6,0.2l-11-6.2c-0.3-0.2-0.5-0.6-0.4-1c0.3-1.8,1.3-6.9,1.7-9.5
	c0.2-1.4-0.7-2.8-2.1-3c-0.3,0-0.6,0-1,0L7.5,3c-1.4,0.3-2.2,1.7-2,3.2C5.7,6.9,6.1,7.6,6.8,8c-3.4-0.3-6.3,2.6-5.9,6.1
	c0.4,2.7,2.7,4.7,5.3,4.7c2.8,0,5.2-2,5.5-4.9c0.2-2.5-1.2-4.7-3.5-5.6c0.1,0,0.3,0,0.4,0l7.5-1.6c0.2,0,0.3,0.1,0.3,0.3l-0.3,4.6
	c-0.1,0.7-0.3,1.4-0.6,2l-5.8,9.5c-0.3,0.6-0.4,1.7-0.2,2.5l2.1,8.9c0.3,1.1,1.4,1.8,2.5,1.8h11.8c1.4,0.1,2-1.3,2-2.6l0,0
	c0-1.4-1.7-2.8-3.2-2.8l-8.1,0.3c-0.3,0-0.5-0.2-0.5-0.4L15,27.2c0-0.2,0.1-0.3,0.3-0.2l2.6,1.1c1,0.3,6.3,2.5,7.2,2.8"/>
</svg>
