<svg xmlns="http://www.w3.org/2000/svg" viewBox="0 0 756 1142.36"><defs><style>.cls-1{fill:#01a0b9;}.cls-2{fill:#58ddd6;}.cls-2,.cls-4{stroke:#fff;}.cls-2,.cls-3,.cls-4,.cls-5{stroke-miterlimit:10;stroke-width:4px;}.cls-3,.cls-4,.cls-5{fill:none;}.cls-3{stroke:#212172;}.cls-5{stroke:#94213e;}.cls-6{fill:#cafdff;}</style></defs><g id="Suelo"><rect class="cls-1" width="756" height="1142.36"/></g><g id="Lineas"><rect class="cls-2" x="94.19" y="156.11" width="567.62" height="843.14"/><line class="cls-3" x1="173.25" y1="275.77" x2="173.25" y2="884.31"/><line class="cls-4" x1="132.68" y1="348.46" x2="132.68" y2="814.16"/><line class="cls-5" x1="132.68" y1="814.16" x2="132.68" y2="949.81"/><line class="cls-5" x1="132.68" y1="211.96" x2="132.68" y2="347.61"/><line class="cls-4" x1="214.24" y1="348.46" x2="214.24" y2="814.16"/><line class="cls-5" x1="214.24" y1="814.16" x2="214.24" y2="949.81"/><line class="cls-5" x1="214.24" y1="211.96" x2="214.24" y2="347.61"/><line class="cls-4" x1="295.81" y1="348.46" x2="295.81" y2="814.16"/><line class="cls-5" x1="295.81" y1="814.16" x2="295.81" y2="949.81"/><line class="cls-5" x1="295.81" y1="211.96" x2="295.81" y2="347.61"/><line class="cls-4" x1="377.37" y1="348.46" x2="377.37" y2="814.16"/><line class="cls-5" x1="377.37" y1="814.16" x2="377.37" y2="949.81"/><line class="cls-5" x1="377.37" y1="211.96" x2="377.37" y2="347.61"/><line class="cls-4" x1="458.93" y1="348.46" x2="458.93" y2="814.16"/><line class="cls-5" x1="458.93" y1="814.16" x2="458.93" y2="949.81"/><line class="cls-5" x1="458.93" y1="211.96" x2="458.93" y2="347.61"/><line class="cls-4" x1="540.49" y1="348.46" x2="540.49" y2="814.16"/><line class="cls-5" x1="540.49" y1="814.16" x2="540.49" y2="949.81"/><line class="cls-5" x1="540.49" y1="211.96" x2="540.49" y2="347.61"/><line class="cls-4" x1="622.05" y1="348.46" x2="622.05" y2="814.16"/><line class="cls-5" x1="622.05" y1="814.16" x2="622.05" y2="949.81"/><line class="cls-5" x1="622.05" y1="211.96" x2="622.05" y2="347.61"/><line class="cls-3" x1="150.43" y1="275.77" x2="196.07" y2="275.77"/><line class="cls-3" x1="150.43" y1="884.31" x2="196.07" y2="884.31"/><line class="cls-3" x1="255.24" y1="275.77" x2="255.24" y2="884.31"/><line class="cls-3" x1="232.42" y1="275.77" x2="278.06" y2="275.77"/><line class="cls-3" x1="232.42" y1="884.31" x2="278.06" y2="884.31"/><line class="cls-3" x1="337.22" y1="275.77" x2="337.22" y2="884.31"/><line class="cls-3" x1="314.4" y1="275.77" x2="360.04" y2="275.77"/><line class="cls-3" x1="314.4" y1="884.31" x2="360.04" y2="884.31"/><line class="cls-3" x1="419.2" y1="275.77" x2="419.2" y2="884.31"/><line class="cls-3" x1="396.38" y1="275.77" x2="442.02" y2="275.77"/><line class="cls-3" x1="396.38" y1="884.31" x2="442.02" y2="884.31"/><line class="cls-3" x1="501.19" y1="275.77" x2="501.19" y2="884.31"/><line class="cls-3" x1="478.37" y1="275.77" x2="524.01" y2="275.77"/><line class="cls-3" x1="478.37" y1="884.31" x2="524.01" y2="884.31"/><line class="cls-3" x1="583.17" y1="275.77" x2="583.17" y2="884.31"/><line class="cls-3" x1="560.35" y1="275.77" x2="605.99" y2="275.77"/><line class="cls-3" x1="560.35" y1="884.31" x2="605.99" y2="884.31"/><rect class="cls-4" x="125.08" y="211.96" width="505.85" height="737.85"/><rect class="cls-4" x="152.33" y="962.68" width="41.84" height="22.82"/><rect class="cls-4" x="234.32" y="962.68" width="41.84" height="22.82"/><rect class="cls-4" x="316.3" y="962.68" width="41.84" height="22.82"/><rect class="cls-4" x="398.28" y="962.68" width="41.84" height="22.82"/><rect class="cls-4" x="480.27" y="962.68" width="41.84" height="22.82"/><rect class="cls-4" x="562.25" y="962.68" width="41.84" height="22.82"/><rect class="cls-4" x="152.33" y="172.92" width="41.84" height="22.82"/><rect class="cls-4" x="234.32" y="172.92" width="41.84" height="22.82"/><rect class="cls-4" x="316.3" y="172.92" width="41.84" height="22.82"/><rect class="cls-4" x="398.28" y="172.92" width="41.84" height="22.82"/><rect class="cls-4" x="480.27" y="172.92" width="41.84" height="22.82"/><rect class="cls-4" x="562.25" y="172.92" width="41.84" height="22.82"/><g id="Capa_2" data-name="Capa 2"><g id="Capa_1-2" data-name="Capa 1-2"><path class="cls-6" d="M230.44,1032.4a7.45,7.45,0,0,0-4.45,6.81h0v51.9a2.57,2.57,0,0,1-2.58,2.57,2.43,2.43,0,0,1-.75-.11A27.75,27.75,0,0,1,202.88,1067v-1.53c0-.29,0-.57.06-.86v-.23q.1-1.11.3-2.22l0-.24c.06-.32.12-.64.19-1a.94.94,0,0,0,0-.16c.18-.74.38-1.48.61-2.22l.05-.15c.11-.35.23-.69.36-1h0c.28-.74.58-1.48.9-2.14l.06-.12c.34-.7.69-1.38,1.08-2v0c.18-.3.36-.6.55-.89l.12-.18c.17-.27.36-.55.54-.81l.08-.11c.21-.29.41-.58.63-.86l.2-.25a30.79,30.79,0,0,1,3.08-3.38c.47-.44,1-.85,1.48-1.24a3.09,3.09,0,0,0,.59-4.34,2.61,2.61,0,0,0-.27-.31l-2.27-2.27a3.09,3.09,0,0,0-4.12-.22,37.4,37.4,0,0,0-4.82,4.68h0l-.06.06c-.33.39-.64.74-.95,1.17h0c-.31.38-.6.75-.88,1.15l-.14.2c-.46.79-1,1.62-1.52,2.48l-.13.24c-.51.85-1,1.72-1.41,2.62l-.13.26c-.19.4-.38.82-.56,1.23l-.07.1c-.2.45-.38.91-.55,1.37l-.11.29c-.15.41-.3.82-.44,1.24l-.07.2c-.14.46-.29.94-.43,1.41l-.06.27c-.11.41-.22.81-.32,1.22a1.09,1.09,0,0,1-.08.31c-.1.48-.2,1-.29,1.48v.2c-.1.43-.17.9-.23,1.3a3.48,3.48,0,0,1-.05.36c-.07.5-.13,1-.17,1.49a.43.43,0,0,0,0,.16c-.05.45-.08.9-.1,1.36V1067h-.07a37.12,37.12,0,0,0,30.33,36.49A2.6,2.6,0,0,1,226,1106v14a2.58,2.58,0,0,0,2.56,2.58h4.14a2.59,2.59,0,0,0,2.58-2.58h0v-14a2.57,2.57,0,0,1,2.07-2.5,37,37,0,0,0,19.5-10.26,37.1,37.1,0,0,0-7.42-58.23,38,38,0,0,0-7.57-3.38A16.09,16.09,0,0,0,230.44,1032.4Zm25.31,46.67a27.8,27.8,0,0,1-17.15,14.53,2.57,2.57,0,0,1-3.2-1.73,2.64,2.64,0,0,1-.1-.74v-45.62a4.46,4.46,0,0,1,6.14-4.1,27.75,27.75,0,0,1,14.89,36.31c-.18.44-.38.87-.58,1.3Z"/><path class="cls-6" d="M294.86,1076.33a13.68,13.68,0,0,1-1.9-.31,20,20,0,0,0-2.45-.15c-.56,0-1.48,0-1.84.51-.51.77-.36,4.3-.36,5.11h5.11c1.13,0,1.69.21,1.69,1.44v2c0,1.48-.36,1.94-1.84,1.94h-5v16.78c0,1.33-.2,2.3-1.79,2.3h-3.22c-1.38,0-1.53-.82-1.53-2v-17h-1.54c-1.12,0-1.23-.86-1.23-1.79v-2.21c0-1.79,1.44-1.44,2.77-1.44v-2c0-2.15,0-4.24,1.32-6,2.1-2.87,5.53-3,8.8-3,1,0,3.58,0,4.24,1a1.89,1.89,0,0,1,.26,1.07v.36C296.39,1073.92,296.39,1076.33,294.86,1076.33Zm10.48,1.53h-2c-1.84,0-2.71-.25-2.71-2.3v-1.79c0-1.63.67-2.25,2.25-2.25h2.41a2,2,0,0,1,2,2,2.45,2.45,0,0,1,0,.27v1.79c.09,1.43-.37,2.3-2,2.3Zm0,28.13h-2c-1.84,0-2.71-.26-2.71-2.3v-20c0-1.63.67-2.25,2.25-2.25h2.41a2,2,0,0,1,2,2,2.45,2.45,0,0,1,0,.27v20c.09,1.43-.37,2.3-2,2.3Z"/><path class="cls-6" d="M323.69,1106.6a51.07,51.07,0,0,1-7.31-.36c-1.53-.2-1.43-.92-1.43-2.35V1103c0-1.12.1-2.35,1.48-2.35a23.79,23.79,0,0,1,2.66.3c1.74.16,3.53.26,5.32.26s2.56,0,2.56-1.89a2.74,2.74,0,0,0-.31-1.69c-.41-.51-4.91-1.74-5.73-2-1-.35-2-.74-2.91-1.18-2.66-1.33-3.63-2.81-3.63-5.78,0-7.87,5.31-7.77,11.6-7.77,1.28,0,2.51,0,3.79.1,1.84.16,2.55.51,2.55,2.51,0,1.48.11,3.17-1.89,3.17-.87,0-1.79-.16-2.66-.21a34.9,34.9,0,0,0-4.09-.2c-1.94,0-3-.26-3,2a1.55,1.55,0,0,0,.25,1c.51.71,5.37,2,6.45,2.35,4,1.33,5.88,2.66,5.88,7.16C333.31,1105.68,330,1106.6,323.69,1106.6Z"/><path class="cls-6" d="M344.91,1077.86H343c-1.84,0-2.71-.25-2.71-2.3v-1.79c0-1.63.66-2.25,2.25-2.25h2.4a2,2,0,0,1,2,2,2.45,2.45,0,0,1,0,.27v1.79C347,1077,346.5,1077.86,344.91,1077.86Zm0,28.13H343c-1.84,0-2.71-.26-2.71-2.3v-20c0-1.63.66-2.25,2.25-2.25h2.4a2,2,0,0,1,2,2,2.45,2.45,0,0,1,0,.27v20C347,1105.12,346.5,1106,344.91,1106Z"/><path class="cls-6" d="M369.57,1106.45c-1.44.14-2.9.2-4.35.2-10,0-11.66-3.42-11.66-12.93s1.69-13,11.66-13a39.51,39.51,0,0,1,4.35.25c1.53.16,2.81,0,2.81,1.74v.1c0,1.28,0,4-1.84,4a15.64,15.64,0,0,1-2.05-.2,35.06,35.06,0,0,0-4.8-.41c-2.15,0-2.56.41-3,2.4a24.36,24.36,0,0,0-.41,5.12,40.15,40.15,0,0,0,.2,4.9c.21,2.3,1,2.56,3.23,2.56a39.5,39.5,0,0,0,4.85-.41,12.21,12.21,0,0,1,2-.2,1.37,1.37,0,0,1,1.22.51c.41.41.62,2.86.62,3.48C372.37,1106.35,371.14,1106.24,369.57,1106.45Z"/><path class="cls-6" d="M396.81,1106h-2.87c-1.17,0-1.48-.77-1.48-1.84a13.93,13.93,0,0,1-7.56,2.5c-5,0-7.32-2.71-7.32-7.62,0-5.57,3.33-7.46,8.34-8a42.7,42.7,0,0,1,6.49-.41c0-2,.31-4.91-2.56-4.91a32.14,32.14,0,0,0-7.36,1.07,6.27,6.27,0,0,1-1.23.15c-1.78,0-1.48-1.79-1.48-3.06a1.88,1.88,0,0,1,1.43-2.15,34.88,34.88,0,0,1,8.39-1c2.45,0,5.57.41,7.31,2.35,2,2.25,1.94,5.42,1.94,8.28v12.43C398.85,1105.27,398.34,1106,396.81,1106Zm-4.35-10.79c-.82,0-1.68-.1-2.5-.1a21.7,21.7,0,0,0-3.22.15c-2.15.31-3,1-3,3.22,0,1.23.2,3.43,1.89,3.43a11.72,11.72,0,0,0,6.85-2.56Z"/><path class="cls-6" d="M410.36,1106h-1.79c-1.84,0-2.71-.26-2.71-2.3V1073c0-1.64.66-2.2,2.25-2.2h2.3a1.94,1.94,0,0,1,2,1.86,2,2,0,0,1,0,.34v30.68C412.35,1105.12,411.94,1106,410.36,1106Z"/><path class="cls-6" d="M434.85,1106.45c-1.44.14-2.9.2-4.35.2-10,0-11.65-3.42-11.65-12.93s1.68-13,11.65-13a39.51,39.51,0,0,1,4.35.25c1.53.16,2.81,0,2.81,1.74v.1c0,1.28,0,4-1.84,4a14.89,14.89,0,0,1-2-.2,35.21,35.21,0,0,0-4.81-.41c-2.15,0-2.56.41-3,2.4a25,25,0,0,0-.41,5.12c0,1.63.06,3.27.21,4.9.2,2.3,1,2.56,3.22,2.56a39.49,39.49,0,0,0,4.86-.41,12.21,12.21,0,0,1,2-.2,1.39,1.39,0,0,1,1.23.51c.41.41.61,2.86.61,3.48C437.66,1106.35,436.44,1106.24,434.85,1106.45Z"/><path class="cls-6" d="M455.05,1106.65c-8.54,0-11.76-4.91-11.76-12.93s3.17-13,11.76-13,11.71,4.91,11.71,13S463.64,1106.65,455.05,1106.65Zm4.19-18.87c-.92-1.68-2.46-1.63-4.19-1.63s-3.28,0-4.2,1.63-1,4.15-1,5.94.1,4.34,1,5.93,2.51,1.58,4.2,1.58,3.27,0,4.19-1.58.92-4.2.92-5.93S460.11,1089.37,459.24,1087.78Z"/><path class="cls-6" d="M491.3,1106h-2.87c-1.17,0-1.48-.77-1.48-1.84a14,14,0,0,1-7.57,2.5c-5,0-7.31-2.71-7.31-7.62,0-5.57,3.33-7.46,8.34-8a42.7,42.7,0,0,1,6.49-.41c0-2,.31-4.91-2.56-4.91a32.14,32.14,0,0,0-7.36,1.07,6.27,6.27,0,0,1-1.23.15c-1.79,0-1.48-1.79-1.48-3.06a1.88,1.88,0,0,1,1.43-2.15,34.88,34.88,0,0,1,8.39-1c2.45,0,5.57.41,7.31,2.35,2,2.25,1.94,5.42,1.94,8.28v12.43C493.34,1105.27,492.83,1106,491.3,1106ZM487,1095.2c-.82,0-1.69-.1-2.5-.1a21.7,21.7,0,0,0-3.22.15c-2.15.31-3,1-3,3.22,0,1.23.2,3.43,1.89,3.43a11.72,11.72,0,0,0,6.85-2.56Z"/><path class="cls-6" d="M515.57,1106.45c-1.44.14-2.9.2-4.35.2-10,0-11.66-3.42-11.66-12.93s1.69-13,11.66-13a39.51,39.51,0,0,1,4.35.25c1.53.16,2.81,0,2.81,1.74v.1c0,1.28,0,4-1.84,4a15.64,15.64,0,0,1-2-.2,35.21,35.21,0,0,0-4.81-.41c-2.14,0-2.55.41-3,2.4a24.36,24.36,0,0,0-.41,5.12c0,1.63.05,3.27.2,4.9.21,2.3,1,2.56,3.22,2.56a39.49,39.49,0,0,0,4.86-.41,12.21,12.21,0,0,1,2-.2,1.37,1.37,0,0,1,1.22.51c.41.41.62,2.86.62,3.48C518.4,1106.35,517.17,1106.24,515.57,1106.45Z"/><path class="cls-6" d="M543.3,1106h-2.73c-1.48,0-1.84-1-1.84-2.3V1090.6c0-.72.1-3.53-.36-4a2.12,2.12,0,0,0-1.64-.41,11,11,0,0,0-6.23,2.35v15.19c0,1.43-.41,2.3-2,2.3h-2.71c-1.38,0-1.84-.77-1.84-2v-31c0-1.64.66-2.2,2.25-2.2h2.37a1.94,1.94,0,0,1,2,1.86,2,2,0,0,1,0,.34v9.46a16,16,0,0,1,6.9-1.74c4.75,0,7.87,2.35,7.87,7.26v15.7C545.29,1105.12,544.88,1106,543.3,1106Z"/></g></g></g></svg>