<svg id="silueta-de-natacion" xmlns="http://www.w3.org/2000/svg" width="50.868" height="35.25" viewBox="0 0 50.868 35.25">
  <g id="Grupo_1741" data-name="Grupo 1741" transform="translate(0 0)">
    <g id="Grupo_1740" data-name="Grupo 1740">
      <path id="Trazado_2006" data-name="Trazado 2006" d="M18.107,26.047a28.3,28.3,0,0,1,8.39,2.525c1.258.588,2.6,1.358,3.66,1.959,1.056.623,2.129,1.185,3.214,1.732L26.8,19.248l-1.388-2.441L20.5,8.211a2.528,2.528,0,1,0-4.391,2.506l5.425,9.513-1.388,1.232-8.294,4.73-.191.107A19.6,19.6,0,0,1,18.107,26.047Z" transform="translate(1.47 -6.935)" fill="#050c42"/>
      <path id="Trazado_2007" data-name="Trazado 2007" d="M36.583,24.579a5.458,5.458,0,1,0-7.447-2.038A5.465,5.465,0,0,0,36.583,24.579Z" transform="translate(3.583 -5.996)" fill="#050c42"/>
      <path id="Trazado_2008" data-name="Trazado 2008" d="M50.508,27.255c-.775,2.571-2,4.958-3.74,6.191a6.932,6.932,0,0,1-5.755.883,27.259,27.259,0,0,1-6.479-2.44c-1.091-.551-2.164-1.114-3.223-1.74-1.055-.6-2.405-1.37-3.663-1.958a28.305,28.305,0,0,0-8.393-2.526,18.549,18.549,0,0,0-9.076,1.021,16.024,16.024,0,0,0-7.057,5.446A16.488,16.488,0,0,0,0,39.844c3.251-4.3,7.4-7.39,11.7-8.113,4.29-.787,8.756.506,13.087,2.543,1.128.512,2.079,1.029,3.322,1.7,1.251.629,2.529,1.243,3.844,1.756A24.224,24.224,0,0,0,40.567,39.6a12.327,12.327,0,0,0,4.762-.857,8.722,8.722,0,0,0,3.884-3.075A10.445,10.445,0,0,0,50.508,27.255Z" transform="translate(0 -4.594)" fill="#050c42"/>
    </g>
  </g>
</svg>
