<?xml version="1.0" encoding="utf-8"?>
<!-- Generator: Adobe Illustrator 25.4.1, SVG Export Plug-In . SVG Version: 6.00 Build 0)  -->
<svg version="1.1" id="Capa_1" xmlns="http://www.w3.org/2000/svg" xmlns:xlink="http://www.w3.org/1999/xlink" x="0px" y="0px"
	 viewBox="0 0 40.6 43.3" style="enable-background:new 0 0 40.6 43.3;" xml:space="preserve">
<style type="text/css">
	.st0{fill:#00E9C5;stroke:#00E9C5;stroke-width:0.25;stroke-miterlimit:10;}
	.st1{fill:none;stroke:#00E9C5;stroke-miterlimit:10;}
	.st2{fill:#00E9C5;stroke:#00E9C5;stroke-miterlimit:10;}
	.st3{fill:none;stroke:#FFFFFF;stroke-miterlimit:10;}
</style>
<g id="Capa_3">
</g>
<g id="Capa_4">
</g>
<path class="st0" d="M35.8,15.8"/>
<g>
	<path class="st1" d="M14.1,36.5C19.6,29.3,34.4,9.9,40,2c0.2-0.3,0.1-0.6-0.2-0.8l-1.5-0.7c-0.2-0.1-0.5,0-0.7,0.2l-22.7,30
		c-1.2,1.6-3.2,2.5-5.2,2.2l-7-0.9c-1,0.2-1.7,1.7-2.1,3.1c-0.4,1.2,0.4,2.6,1.7,2.7l6.6,0.9C10.9,39,12.9,38.1,14.1,36.5z"/>
	<line class="st1" x1="35.1" y1="8" x2="33.2" y2="6.8"/>
	<line class="st1" x1="32.2" y1="12.3" x2="30.3" y2="11"/>
	<line class="st1" x1="31" y1="14" x2="29.1" y2="12.8"/>
</g>
<path class="st2" d="M18,33.1"/>
<g>
	<circle class="st3" cx="6.8" cy="38.6" r="4.1"/>
	<circle class="st1" cx="6.8" cy="38.6" r="4.1"/>
	<path class="st2" d="M10.9,39c-0.2,2.3-2.3,3.9-4.5,3.7s-3.9-2.3-3.7-4.6L10.9,39z"/>
</g>
</svg>
