<?xml version="1.0" encoding="utf-8"?>
<!-- Generator: Adobe Illustrator 25.4.1, SVG Export Plug-In . SVG Version: 6.00 Build 0)  -->
<svg version="1.1" id="Capa_1" xmlns="http://www.w3.org/2000/svg" xmlns:xlink="http://www.w3.org/1999/xlink" x="0px" y="0px"
	 viewBox="0 0 31.4 31.1" style="enable-background:new 0 0 31.4 31.1;" xml:space="preserve">
<style type="text/css">
	.st0{fill:#00E9C5;}
	.st1{fill:none;stroke:#FFFFFF;stroke-miterlimit:10;}
	.st2{fill:none;stroke:#00E9C5;stroke-miterlimit:10;}
	.st3{fill:#00E9C5;stroke:#00E9C5;stroke-miterlimit:10;}
</style>
<g transform="translate(0 -0.001)">
	<g transform="translate(11.763 19.431)">
		<path class="st0" d="M3.3-3.6c-0.1-0.1-0.5-0.1-0.7,0l-3.4,3.5C-1,0.1-1,0.4-0.8,0.6s0.5,0.2,0.6,0l3.5-3.5
			C3.5-3.1,3.5-3.4,3.3-3.6z"/>
	</g>
	<g transform="translate(0 24.731)">
		<path class="st0" d="M10.2-4c-0.2-0.2-0.6-0.2-0.7,0L0.2,5.5c-0.2,0.2-0.2,0.6,0,0.7c0.2,0.2,0.5,0.2,0.6,0l9.5-9.5
			C10.4-3.5,10.4-3.8,10.2-4z"/>
	</g>
	<g transform="translate(5.82 16.857)">
		<path class="st0" d="M8.4-3.4c-0.2-0.2-0.6-0.2-0.7,0l-8,8c-0.2,0.3-0.2,0.5,0,0.7s0.5,0.2,0.6,0l8-8C8.6-2.9,8.6-3.2,8.4-3.4
			L8.4-3.4z"/>
	</g>
	<g transform="translate(0.557 11.928)">
		<path class="st0" d="M11.8-3c-0.2-0.2-0.6-0.2-0.7,0L0.2,8c-0.2,0.2-0.2,0.6,0,0.7c0.2,0.2,0.5,0.2,0.6,0l11.1-11
			C12-2.5,12-2.8,11.8-3z"/>
	</g>
	<g transform="translate(4.536 5.357)">
		<path class="st0" d="M8.5-2.5c-0.2-0.2-0.6-0.2-0.7,0l-8,8c-0.3,0.2-0.3,0.6-0.1,0.8s0.5,0.2,0.6,0l8-8C8.8-2,8.8-2.3,8.5-2.5z"/>
	</g>
	<g transform="translate(12.964 22.171)">
		<path class="st0" d="M8.8-3.8C8.6-4,8.2-4,8.1-3.8l-9,9c-0.2,0.2-0.2,0.6,0,0.7c0.2,0.2,0.5,0.2,0.6,0l9.1-9.1
			C9-3.3,9-3.6,8.8-3.8z"/>
	</g>
</g>
<g>
	<circle class="st1" cx="22.8" cy="8.6" r="8.1"/>
	<circle class="st2" cx="22.8" cy="8.6" r="8.1"/>
	<path class="st3" d="M28.4,2.7c3.2,3.1,3.3,8.3,0.2,11.5s-8.3,3.3-11.5,0.2L28.4,2.7z"/>
</g>
</svg>
