<?xml version="1.0" encoding="utf-8"?>
<!-- Generator: Adobe Illustrator 25.4.1, SVG Export Plug-In . SVG Version: 6.00 Build 0)  -->
<svg version="1.1" id="Capa_1" xmlns="http://www.w3.org/2000/svg" xmlns:xlink="http://www.w3.org/1999/xlink" x="0px" y="0px"
	 viewBox="0 0 50 50" style="enable-background:new 0 0 50 50;" xml:space="preserve">
<style type="text/css">
	.st0{fill:#00E9C5;stroke:#00E9C5;stroke-width:0.25;stroke-miterlimit:10;}
	.st1{fill:none;stroke:#FF3737;stroke-miterlimit:10;}
	.st2{fill:#FF3737;}
	.st3{fill:#FFFFFF;stroke:#00E9C5;stroke-miterlimit:10;}
	.st4{fill:none;stroke:#00E9C5;stroke-width:0.5;stroke-miterlimit:10;}
	.st5{fill:#FF3737;stroke:#FF3737;stroke-miterlimit:10;}
</style>
<g id="Capa_3">
</g>
<g id="Capa_4">
</g>
<path class="st0" d="M42.8,17.5"/>
<g>
	<path class="st1" d="M24.2,43.5C19.7,35.4,7.4,13.4,3,4.8C2.9,4.6,3,4.4,3.2,4.3l1.9-0.6c0.2-0.1,0.4,0,0.6,0.2l18.6,33.7
		c1,1.8,2.9,2.9,5,3l7.1,0.1c0.9,0.3,1.4,1.9,1.7,3.4c0.2,1.3-0.8,2.5-2.1,2.5l-6.8-0.1C27.1,46.4,25.2,45.3,24.2,43.5z"/>
	<line class="st1" x1="7.1" y1="11.8" x2="9.2" y2="10.8"/>
	<line class="st1" x1="9.5" y1="16.5" x2="11.5" y2="15.4"/>
	<line class="st1" x1="10.4" y1="18.4" x2="12.6" y2="17.4"/>
</g>
<path class="st2" d="M34.1,18.8l-4-2.3c-0.3-0.1-0.7,0-1,0.3c0,0.1-0.1,0.3-0.1,0.3v2.4h-6.3c-0.4,0-0.7,0.3-0.7,0.7l0,0v3
	c0,0.4,0.3,0.7,0.7,0.7l0,0H29v2.4c0,0.4,0.3,0.7,0.7,0.7c0.1,0,0.3,0,0.3-0.1l4-2.3l4-2.3c0.3-0.1,0.4-0.6,0.3-1
	c0-0.1-0.1-0.1-0.3-0.3L34.1,18.8z"/>
<g>
	<path class="st3" d="M42.8,38.2"/>
</g>
<path class="st4" d="M45.1,38.3"/>
<path class="st4" d="M40.5,38.3"/>
<path class="st1" d="M42.8,46.5c-2.4,0-4.4-2-4.4-4.4s2-4.4,4.4-4.4c2.4,0,4.4,2,4.4,4.4"/>
<path class="st1" d="M47.2,42.1c0,2.4-2,4.4-4.4,4.4"/>
<path class="st5" d="M40.9,45.9c2,1.4,3.3,0,4.8-2s1.8-3.1-0.2-4.6L40.9,45.9z"/>
</svg>
