<?xml version="1.0" encoding="utf-8"?>
<!-- Generator: Adobe Illustrator 25.4.1, SVG Export Plug-In . SVG Version: 6.00 Build 0)  -->
<svg version="1.1" id="Capa_1" xmlns="http://www.w3.org/2000/svg" xmlns:xlink="http://www.w3.org/1999/xlink" x="0px" y="0px"
	 viewBox="0 0 45.2 43.9" style="enable-background:new 0 0 45.2 43.9;" xml:space="preserve">
<style type="text/css">
	.st0{fill:#00E9C5;stroke:#00E9C5;stroke-width:0.25;stroke-miterlimit:10;}
	.st1{fill:none;stroke:#FF3737;stroke-miterlimit:10;}
	.st2{fill:#FF3737;}
	.st3{fill:#FFFFFF;stroke:#00E9C5;stroke-miterlimit:10;}
	.st4{fill:none;stroke:#00E9C5;stroke-width:0.5;stroke-miterlimit:10;}
	.st5{fill:#FF3737;stroke:#FF3737;stroke-miterlimit:10;}
</style>
<g id="Capa_3">
</g>
<g id="Capa_4">
</g>
<path class="st0" d="M40.3,14.3"/>
<g>
	<path class="st1" d="M21.7,40.3C17.2,32.2,4.9,10.2,0.5,1.6c-0.1-0.2,0-0.4,0.2-0.5l1.9-0.6c0.2-0.1,0.4,0,0.6,0.2l18.6,33.7
		c1,1.8,2.9,2.9,5,3l7.1,0.1c0.9,0.3,1.4,1.9,1.7,3.4c0.2,1.3-0.8,2.5-2.1,2.5l-6.8-0.1C24.6,43.2,22.7,42.1,21.7,40.3z"/>
	<line class="st1" x1="4.6" y1="8.6" x2="6.7" y2="7.6"/>
	<line class="st1" x1="7" y1="13.3" x2="9" y2="12.2"/>
	<line class="st1" x1="7.9" y1="15.2" x2="10.1" y2="14.2"/>
</g>
<path class="st2" d="M31.6,15.6l-4-2.3c-0.3-0.1-0.7,0-1,0.3c0,0.1-0.1,0.3-0.1,0.3v2.4h-6.3c-0.4,0-0.7,0.3-0.7,0.7l0,0v3
	c0,0.4,0.3,0.7,0.7,0.7l0,0h6.3v2.4c0,0.4,0.3,0.7,0.7,0.7c0.1,0,0.3,0,0.3-0.1l4-2.3l4-2.3c0.3-0.1,0.4-0.6,0.3-1
	c0-0.1-0.1-0.1-0.3-0.3L31.6,15.6z"/>
<g>
	<path class="st3" d="M40.3,35"/>
</g>
<path class="st4" d="M42.6,35.1"/>
<path class="st4" d="M38,35.1"/>
<path class="st1" d="M40.3,43.3c-2.4,0-4.4-2-4.4-4.4s2-4.4,4.4-4.4s4.4,2,4.4,4.4"/>
<path class="st1" d="M44.7,38.9c0,2.4-2,4.4-4.4,4.4"/>
<path class="st5" d="M38.4,42.7c2,1.4,3.3,0,4.8-2s1.8-3.1-0.2-4.6L38.4,42.7z"/>
</svg>
