<?xml version="1.0" encoding="utf-8"?>
<!-- Generator: Adobe Illustrator 25.4.1, SVG Export Plug-In . SVG Version: 6.00 Build 0)  -->
<svg version="1.1" id="Capa_1" xmlns="http://www.w3.org/2000/svg" xmlns:xlink="http://www.w3.org/1999/xlink" x="0px" y="0px"
	 viewBox="0 0 42.5 42.8" style="enable-background:new 0 0 42.5 42.8;" xml:space="preserve">
<style type="text/css">
	.st0{fill:none;stroke:#00E9C5;stroke-width:0.5;stroke-miterlimit:10;}
	.st1{fill:none;stroke:#00E9C5;stroke-width:0.75;stroke-miterlimit:10;}
	.st2{fill:#FFFFFF;stroke:#FF3737;stroke-miterlimit:10;}
	.st3{fill:#FF3737;}
	.st4{fill:none;stroke:#00E9C5;stroke-width:0.5;stroke-linecap:round;stroke-miterlimit:10;}
	.st5{fill:none;stroke:#FF3737;stroke-width:0.5;stroke-miterlimit:10;}
	.st6{fill:none;stroke:#FFFFFF;stroke-width:0.5;stroke-miterlimit:10;}
	.st7{fill:#00E9C5;}
	.st8{fill:none;stroke:#00E9C5;stroke-width:0.2;stroke-miterlimit:10;}
	.st9{fill:#00E9C5;stroke:#00E9C5;stroke-width:0.5;stroke-miterlimit:10;}
	.st10{enable-background:new    ;}
</style>
<g id="Capa_7">
	<path class="st0" d="M36.9,26l2.2-6.8"/>
	<path class="st0" d="M36.5,27.2"/>
	<path class="st0" d="M40.5,18.4c-0.9,2.6-1.6,5.4-2.3,7.7"/>
	<path class="st1" d="M33.4,19.4l-4.3,3.3c-0.4,0.3-0.7,0.9-0.7,1.4v4.8l-5.2,9.3c-0.2,0.5,0,1.2,0.4,1.6c0.5,0.4,1.3,0.3,1.7-0.1
		l5.8-9.5l2.7,4.1v5.1c0.1,0.9,0.9,1.4,1.7,1.3c0.7-0.1,1.3-0.7,1.3-1.3V33L34,28.9l0.7-7.4l6.8-3.7c0.5-0.3,0.7-1,0.4-1.5
		c-0.4-0.5-1.1-0.8-1.7-0.4c-0.2,0.1-0.4,0.2-0.5,0.3c-1.7,1-3.4,1.8-5.1,2.6C34.1,18.9,33.8,19.1,33.4,19.4z"/>
	<path class="st1" d="M34.1,26.4l3.4-0.5c0.5,0,1,0.3,1.1,0.8c0.2,0.5-0.1,1.2-0.7,1.4h-0.1c-0.9,0.1-3,0.7-3.9,0.9"/>
	<circle class="st1" cx="29.5" cy="17.9" r="2.1"/>
</g>
<g>
	<path class="st2" d="M24.9,27.2"/>
</g>
<g id="Capa_4">
	<polygon class="st1" points="23.2,19.2 17.1,17.1 18.4,23.5 20.2,21.9 23.5,27.5 26.6,24.8 21.5,20.9 	"/>
</g>
<g>
	<path class="st3" d="M24.4,40.1"/>
</g>
<g id="Capa_2_00000008141268834755637000000017998663096753539508_">
	<path class="st0" d="M0.2,12.2V1.4c0-0.7,0.6-1.1,1.1-1.1h17.2c0.7,0,1.4,0.4,1.4,1.1v10.9"/>
	<path class="st4" d="M12.4,8.5c3.6,0.3,5.4,1.6,6.7,2.4V2.4c0-0.6-0.6-1.1-1.1-1.1H2.4C1.9,1.2,1.2,1.8,1.2,2.4v8.4
		c1.3-0.7,3.4-2.1,6.9-2.4"/>
	<path class="st5" d="M11.8,8.4"/>
</g>
<g id="Capa_3_00000026138909304102211240000007439177312223850130_">
	<path class="st0" d="M19.6,12.2"/>
	<path class="st0" d="M0.2,12.2V1.4c0-0.7,0.6-1.1,1.1-1.1h17.2"/>
	<line class="st0" x1="3.8" y1="1.4" x2="3.8" y2="9.8"/>
	<line class="st0" x1="6" y1="1.4" x2="6.2" y2="8.9"/>
	<line class="st0" x1="8.2" y1="1.4" x2="8.2" y2="8.4"/>
	<line class="st0" x1="10.2" y1="1.4" x2="10.2" y2="6.2"/>
	<line class="st4" x1="12.2" y1="1.4" x2="12.4" y2="8.5"/>
	<line class="st0" x1="14.7" y1="1.4" x2="14.6" y2="8.8"/>
	<line class="st0" x1="16.6" y1="1.4" x2="16.6" y2="9.4"/>
	<path class="st0" d="M19,8.2c-1.6-0.8-4.7-2.1-8.8-2.2C6,6.2,2.8,7.4,1.2,8.2"/>
	<path class="st0" d="M19.1,6.4c-1.6-0.8-4.7-2.1-8.8-2.2C6.1,4.3,3,5.6,1.3,6.4"/>
	<path class="st0" d="M19.1,4.4c-1.6-0.8-4.7-1.7-8.8-1.8c-4.1,0-7.2,1.1-8.9,1.9"/>
</g>
<g id="Capa_6_00000176028604462543387330000011740994335743510178_">
	<g>
		<path class="st6" d="M8.6,10.2H12l-0.1,4.8l2.3,2.9l-0.1,3.2c-0.1,0.5-0.5,0.8-0.8,0.7c-0.3,0-0.7-0.3-0.7-0.7c0-0.9,0-2,0.1-2.9
			l-1.8-2.2H10l-1.6,2l-0.1,3.1c-0.1,0.3-0.5,0.6-0.8,0.6s-0.7-0.3-0.8-0.7c0.1-1,0.1-2.2,0.1-3.2l2-2.9L8.6,10.2z"/>
	</g>
	<g>
		<path class="st0" d="M8.6,10.2H12l-0.1,4.8l2.3,2.9l-0.1,3.2c-0.1,0.5-0.4,0.7-0.8,0.7c-0.3,0-0.7-0.3-0.7-0.7c0-0.9,0-2,0.1-2.9
			l-1.8-2.2H10l-1.6,2l-0.1,3.1c-0.1,0.3-0.5,0.6-0.8,0.6s-0.7-0.2-0.8-0.7c0.1-1,0.1-2.2,0.1-3.2l2-2.9L8.6,10.2z"/>
		<path class="st0" d="M12.8,10.4l3.1,1.1l0.8,2.5c0,0.3-0.1,0.6-0.3,0.7c-0.3,0.1-0.6,0.1-0.9-0.1c-0.3-0.8-0.5-1.4-0.8-2.3
			c-0.7-0.3-1.3-0.6-2-0.8"/>
		<path class="st0" d="M7.8,10.2l-3.2,1.3l-0.8,2.5c0,0.3,0.1,0.6,0.3,0.7c0.3,0.1,0.6,0.1,0.8-0.2c0.2-0.8,0.5-1.4,0.7-2.3
			c0.7-0.3,1.4-0.6,2.2-0.8"/>
	</g>
</g>
<circle class="st0" cx="10.2" cy="8.2" r="1.3"/>
<g>
	<path class="st3" d="M36.1,40.9C36,41,36,41,35.9,41.1"/>
</g>
<path class="st0" d="M40.1,15.8l0.7-2.3c-0.1-0.1-2.1-0.9-2.5-1.1l-0.2-0.1l0.3-1.3c0-0.1,0.1-0.2,0.2-0.1C39.3,11,41.9,12,42,13
	c-0.2,0.8-0.4,1.5-0.8,2.5"/>
<path class="st7" d="M13.6,22c0,0.1,0,0,0.1,0.5c0,0.1,0,0.1-0.1,0.1s-0.2,0-0.3,0c-0.2,0-0.2,0-0.2-0.2c0.1-0.3,0-0.3,0.1-0.4
	l0.3,0.1"/>
<path class="st8" d="M14.4,22.1c0,0.2-0.1,0.3-0.3,0.3c-0.1,0-0.3-0.1-0.3-0.3c0-0.2,0.1-0.3,0.3-0.3S14.4,22,14.4,22.1"/>
<path class="st7" d="M37.2,41.6c0.1,0,0.1,0,0.2,0.1c0,0,0.1,0,0.2,0c0.1,0,0.2,0.1,0.4,0.2c0.1,0.1,0.1,0.2,0,0.4
	c-0.2,0.2-0.4,0.1-0.7,0c0,0-0.1-0.1-0.1-0.2S37.1,42,37.1,42"/>
<path class="st0" d="M34.6,40.8c0.4,0,0.8,0.4,0.8,0.8c0,0.5-0.4,0.8-0.8,0.8"/>
<path class="st0" d="M34.6,42.4c-0.4,0-0.8-0.4-0.8-0.8s0.4-0.8,0.8-0.8"/>
<path class="st0" d="M36.2,40.8c0.4,0,0.8,0.4,0.8,0.8c0,0.5-0.4,0.8-0.8,0.8"/>
<path class="st0" d="M36.2,42.4c-0.4,0-0.8-0.4-0.8-0.8s0.4-0.8,0.8-0.8"/>
<path class="st9" d="M41.1,37.9l-1.9,2"/>
<path class="st9" d="M39.8,39.9"/>
<path class="st9" d="M41.2,38.2l-1.5,1.6"/>
<path class="st9" d="M41.2,38.8l-0.9,1"/>
<path class="st8" d="M12.9,22.1c0,0.2-0.1,0.3-0.3,0.3s-0.3-0.1-0.3-0.3c0-0.2,0.1-0.3,0.3-0.3S12.9,22,12.9,22.1"/>
<path class="st8" d="M8.5,22.1c0,0.2-0.1,0.3-0.3,0.3c-0.1,0-0.3-0.1-0.3-0.3c0-0.2,0.1-0.3,0.3-0.3C8.4,21.8,8.5,21.9,8.5,22.1"/>
<path class="st8" d="M6.9,22.1c0,0.2-0.1,0.3-0.3,0.3c-0.1,0-0.3-0.1-0.3-0.3c0-0.2,0.1-0.3,0.3-0.3C6.8,21.8,6.9,21.9,6.9,22.1"/>
<g class="st10">
	<path class="st7" d="M6.1,34.9c-0.4,0.1-1,0.2-1.4,0.2c-2.1,0-2.6-1-2.6-3c0-1,0.1-2.4,1.2-2.8c0.4-0.2,1-0.2,1.4-0.2
		c0.4,0,0.9,0,1.3,0.1c0.3,0,0.5,0.1,0.5,0.4v0.3c0,0.3-0.1,0.5-0.4,0.5c-0.1,0-0.3,0-0.4,0c-0.3,0-0.5,0-0.8,0
		c-0.2,0-0.7,0-0.9,0.1c-0.6,0.2-0.5,1.3-0.5,1.8c0,0.6-0.1,1.6,0.7,1.7c0.2,0,0.4,0,0.7,0c0.1,0,0.2,0,0.3,0v-1.4H4.5
		c-0.4,0-0.5-0.3-0.5-0.6c0-0.3,0.1-0.5,0.5-0.5h1.6c0.3,0,0.5,0.1,0.5,0.5v2.6C6.6,34.7,6.4,34.8,6.1,34.9z"/>
	<path class="st7" d="M10.2,35.1c-2,0-2.6-1.3-2.6-3.1c0-1.8,0.6-3.1,2.6-3.1s2.6,1.3,2.6,3.1C12.8,33.8,12.2,35.1,10.2,35.1z
		 M11.2,30.6c-0.2-0.4-0.6-0.5-1-0.5c-0.4,0-0.8,0.1-1,0.5c-0.2,0.3-0.2,1-0.2,1.4c0,0.4,0,1.1,0.2,1.4c0.2,0.4,0.6,0.5,1,0.5
		c0.4,0,0.8-0.1,1-0.5c0.2-0.3,0.2-1,0.2-1.4C11.4,31.7,11.4,31,11.2,30.6z"/>
	<path class="st7" d="M18.4,34.9h-0.5c-0.3,0-0.4-0.1-0.5-0.4l-0.3-0.7c-0.7,0-1.4,0-2.1,0l-0.2,0.7c-0.1,0.3-0.2,0.4-0.5,0.4h-0.4
		c-0.2,0-0.4,0-0.4-0.3c0-0.1,0.1-0.2,0.1-0.3l1.8-4.8c0.2-0.5,0.5-0.4,1-0.4c0.3,0,0.5,0.1,0.6,0.4l1.9,4.9c0,0.1,0,0.1,0,0.2
		C18.8,34.8,18.6,34.9,18.4,34.9z M16.1,30.9l-0.7,1.9h1.3L16.1,30.9z"/>
	<path class="st7" d="M22.6,34.9h-2.5c-0.3,0-0.5-0.1-0.5-0.5v-4.9c0-0.3,0.2-0.4,0.5-0.4h0.4c0.3,0,0.5,0.1,0.5,0.4v4.2
		c0.5,0,1.1,0,1.6,0c0.5,0,0.5,0.3,0.5,0.7C23,34.8,22.9,34.9,22.6,34.9z"/>
</g>
<circle class="st0" cx="40.2" cy="38.7" r="1.4"/>
<path class="st9" d="M41.3,38.1L39.9,40"/>
<path class="st9" d="M41.6,38.4L40.4,40"/>
<path class="st7" d="M24.5,41.7c0.1,0.1,0.1,0.1,0.1,0.2c0,0,0.1,0.1,0.2,0.1c0.1,0.1,0.1,0.2,0.2,0.4c0,0.1,0,0.2-0.2,0.3
	c-0.3,0-0.4-0.2-0.6-0.4c0,0,0-0.1,0-0.2c0.1-0.1,0-0.1,0-0.1"/>
<path class="st0" d="M23,39.5c0.3,0.2,0.4,0.8,0.1,1.1C22.8,41,22.3,41,22,40.8"/>
<path class="st0" d="M22,40.8c-0.3-0.2-0.4-0.8-0.1-1.1c0.2-0.3,0.8-0.4,1.1-0.1"/>
<path class="st0" d="M24.2,40.5c0.3,0.2,0.4,0.8,0.1,1.1c-0.3,0.4-0.8,0.4-1.1,0.1"/>
<path class="st0" d="M23.2,41.7c-0.3-0.2-0.4-0.8-0.1-1.1c0.2-0.3,0.8-0.4,1.1-0.1"/>
<path class="st7" d="M7.6,21.8c0,0.1,0,0,0.1,0.5c0,0.1,0,0.1-0.1,0.1s-0.2,0-0.3,0c-0.2,0-0.2,0-0.2-0.2c0.1-0.3,0-0.3,0.1-0.4
	l0.3,0.1"/>
</svg>
