<?xml version="1.0" encoding="utf-8"?>
<!-- Generator: Adobe Illustrator 25.4.1, SVG Export Plug-In . SVG Version: 6.00 Build 0)  -->
<svg version="1.1" id="Capa_1" xmlns="http://www.w3.org/2000/svg" xmlns:xlink="http://www.w3.org/1999/xlink" x="0px" y="0px"
	 viewBox="0 0 49.2 59.8" style="enable-background:new 0 0 49.2 59.8;" xml:space="preserve">
<style type="text/css">
	.st0{fill:none;stroke:#FF3737;stroke-miterlimit:10;}
	.st1{fill:none;stroke:#FF3737;stroke-linecap:round;stroke-miterlimit:10;}
	.st2{fill:none;stroke:#FF3737;stroke-width:0.75;stroke-linecap:round;stroke-linejoin:round;stroke-miterlimit:10;}
	.st3{fill:none;stroke:#FF3737;stroke-width:0.75;stroke-miterlimit:10;}
	.st4{fill:none;stroke:#FF3737;stroke-width:1.5;stroke-linecap:round;stroke-miterlimit:10;}
	.st5{fill:#FF3737;}
	.st6{fill:#00E9C5;stroke:#FF3737;stroke-width:0.75;stroke-miterlimit:10;}
	.st7{fill:#00E9C5;stroke:#00E9C5;stroke-width:0.75;stroke-miterlimit:10;}
	.st8{fill:none;stroke:#FF3737;stroke-width:0.7;stroke-miterlimit:10;}
</style>
<g id="Capa_2_1_">
</g>
<g id="Capa_1_1_">
	<g id="Capa_4">
	</g>
	<g id="Capa_5">
		<path class="st0" d="M28.9,10.6c-0.5-0.4-1.6-1-2.2-1c-1-0.1-2.1,0.1-3,0.9c-2.2,1.7-4.7,3.7-7.2,6.2c-2.4,2.1-4.2,4.4-6.1,6.5
			c-0.4,0.5-0.2,1.2,0.2,1.6c6.2,4.2,9.9,6.7,11.2,7.7c0.4,0.2,0.5,0.6,0.5,1l-0.6,9.1c0,0.1,0,0.2,0,0.4c0.2,1,1.4,1.5,2.4,1.7
			c1.1,0,2.1-0.4,2.9-2.1c0.2-3.5,0.6-8.2,0.7-11.8c0-0.4-0.1-0.7-0.4-0.9c-1.2-0.9-4.7-3.5-6.6-4.7c-0.5-0.4-0.6-1.2-0.1-1.6
			l6.1-5.5c0.6-0.5,1.5-0.2,1.7,0.5l3.3,10.8c0.5,0.9,0.9,1.6,1.9,1.4c0.9-0.2,1.5-1.1,1.4-2.1c-1.4-5.7-2.3-9-3.4-13.9
			c-0.3-1.1-0.7-2.2-1.4-3c-0.8-0.9-1.7-1.7-2.4-1.9"/>
		<path class="st1" d="M10.4,27.2l0.5,7.8l-7.4,5.3c-0.7,0.6-0.7,2-0.1,2.9s1.7,1.4,2.9,0.9c3-2.4,6.1-4.7,9.3-7
			c0-2.2-0.4-3.9-0.5-6.2"/>
	</g>
</g>
<g id="Capa_5_00000008137155730952235240000005458981603019191197_">
	<g>
		<path class="st2" d="M40.6,43.5c-3.2-4-12.2-15-15.5-19.2l1.3-1l14.1,17c0.7,0.9,2,1.2,3,1l4-0.7c0.6-0.1,0.9,0.9,1.2,1.6
			c0.2,0.6-0.2,1.4-0.9,1.5l-3.7,0.7C42.8,44.5,41.5,44.4,40.6,43.5z"/>
		<line class="st3" x1="27.5" y1="27.2" x2="28.9" y2="26.1"/>
		<line class="st3" x1="29.5" y1="29.4" x2="30.8" y2="28.5"/>
		<line class="st3" x1="30.4" y1="30.9" x2="31.6" y2="29.8"/>
	</g>
</g>
<line class="st4" x1="38.8" y1="16.9" x2="44" y2="17"/>
<circle class="st0" cx="41.3" cy="17" r="4.9"/>
<path class="st0" d="M32.5,9.3c-2.4,0-4.4-1.9-4.4-4.4s1.9-4.4,4.4-4.4C35,0.5,37,2.4,37,4.9S35,9.3,32.5,9.3"/>
<g>
	<path class="st5" d="M24.1,44.2"/>
</g>
<g>
	<path class="st5" d="M24.1,44.5"/>
</g>
<g>
	<path class="st5" d="M4.3,43.5"/>
</g>
<g>
	<path class="st5" d="M4.2,43.8"/>
</g>
<g>
	<path class="st5" d="M4.8,44.3"/>
</g>
<path class="st6" d="M46.5,36.9L44,40.8"/>
<path class="st7" d="M44.8,40.8"/>
<path class="st5" d="M27.2,46.3c0.1,0,0.1,0,0.4,0.1c0,0,0.2,0,0.4,0c0.2,0,0.4,0.2,0.6,0.4s0.2,0.4,0,0.7c-0.4,0.4-0.7,0.2-1.1,0
	c0,0-0.2-0.2-0.2-0.4s-0.1-0.1-0.2-0.2"/>
<path class="st8" d="M22.9,47.6c-0.7,0-1.4-0.6-1.4-1.4c0-0.7,0.6-1.4,1.4-1.4s1.4,0.6,1.4,1.4C24.2,47.1,23.6,47.6,22.9,47.6"/>
<path class="st8" d="M25.8,47.6c-0.7,0-1.4-0.6-1.4-1.4c0-0.7,0.6-1.4,1.4-1.4s1.4,0.6,1.4,1.4C27.1,47.1,26.4,47.6,25.8,47.6"/>
<path class="st5" d="M4.9,46.5c0.1,0.1,0,0.1,0.3,0.1l0.3,0.1C5.7,46.8,5.9,47,6,47.2c0.1,0.4,0.1,0.4-0.2,0.6c-0.4,0.2-0.7,0-1-0.3
	c0,0-0.1-0.4-0.1-0.5s-0.1-0.2-0.1-0.4"/>
<path class="st6" d="M46.6,37.5l-2,3"/>
<path class="st6" d="M46.8,38.4l-1.2,2"/>
<line class="st4" x1="41.2" y1="19.6" x2="41.3" y2="14.4"/>
<path class="st6" d="M46.8,37.8l-2,3"/>
<circle class="st3" cx="45" cy="38.6" r="2.2"/>
<path class="st8" d="M1.8,44.7c-0.7,0-1.4-0.6-1.4-1.4c0-0.7,0.6-1.4,1.4-1.4s1.4,0.6,1.4,1.4C3.1,44.2,2.5,44.7,1.8,44.7"/>
<path class="st8" d="M3.6,46.9c-0.7,0-1.4-0.6-1.4-1.4c0-0.7,0.6-1.4,1.4-1.4S5,44.7,5,45.5C4.9,46.4,4.3,46.9,3.6,46.9"/>
<g>
	<path class="st5" d="M14.2,59.5c-0.6,0.2-1.6,0.3-2.5,0.3c-3.6,0-4.4-1.6-4.4-5c0-1.7,0.2-4.1,1.9-4.7c0.8-0.3,1.2-0.5,2.2-0.5
		c0.7,0,0.7,0,1.7,0.1c0.5,0.1,1.8,0,1.7,0.9v0.3c0,0.6-0.2,0.8-0.8,0.8c-0.3,0-0.5,0-0.8,0c-0.5,0-0.8,0-1.3,0
		c-0.3,0-1.1,0-1.4,0.2c-0.9,0.5-0.8,2.2-0.8,3c0,1.1-0.2,2.7,1.3,3c0.3,0,0.8,0,1.1,0c0.2,0,0.3,0,0.5,0v-2.2h-1.1
		c-0.8,0-0.8-0.5-0.8-0.9s0.2-0.8,0.8-0.8h2.7c0.5,0,0.8,0.3,0.8,0.8v3.9C15,59,14.8,59.2,14.2,59.5z"/>
	<path class="st5" d="M20.9,59.8c-3.2,0-4.2-2.2-4.2-5s1.1-5.1,4.2-5.1c3.3,0,4.2,2.2,4.2,5C25.1,57.7,24.1,59.8,20.9,59.8z
		 M22.5,52.6c-0.3-0.6-0.9-0.8-1.5-0.8c-0.7,0-1.1,0.2-1.4,0.8s-0.3,1.6-0.3,2.4c0,0.6,0,1.6,0.3,2.4c0.3,0.6,0.9,0.8,1.5,0.8
		s1.3-0.2,1.5-0.8c0.3-0.6,0.3-1.7,0.3-2.4C22.9,54.1,22.8,53.1,22.5,52.6z"/>
	<path class="st5" d="M34.9,59.8h-0.8c-0.5,0-0.6-0.2-0.8-0.6l-0.5-1.1c-1.1,0-2.3,0-3.6,0L28.8,59c-0.2,0.5-0.2,0.8-0.8,0.8h-0.8
		c-0.5,0-1,0-0.9-0.4c0-0.2,0.2-0.5,0.3-0.7l3.1-8.1c0.3-0.8,0.5-1.1,1.5-1c0.6,0.1,0.6,0.2,1,1l3.3,8.3c0,0.2,0,0.2,0,0.3
		C35.5,59.5,35.2,59.8,34.9,59.8z M31,53.1l-1.1,3.3h2.3L31,53.1z"/>
	<path class="st5" d="M42.1,59.8h-4.2c-0.5,0-0.8-0.2-0.8-0.8v-8.6c0-0.6,0.3-0.8,0.8-0.8h0.6c0.5,0,0.8,0.2,0.8,0.8v7.4
		c0.9,0,1.8,0,2.9,0c0.8,0,0.8,0.6,0.8,1.1C42.9,59.5,42.6,59.8,42.1,59.8z"/>
</g>
</svg>
