<?xml version="1.0" encoding="utf-8"?>
<!-- Generator: Adobe Illustrator 25.4.1, SVG Export Plug-In . SVG Version: 6.00 Build 0)  -->
<svg version="1.1" id="Capa_1" xmlns="http://www.w3.org/2000/svg" xmlns:xlink="http://www.w3.org/1999/xlink" x="0px" y="0px"
	 viewBox="0 0 38.1 42.8" style="enable-background:new 0 0 38.1 42.8;" xml:space="preserve">
<style type="text/css">
	.st0{fill:none;stroke:#00E9C5;stroke-miterlimit:10;}
	.st1{fill:none;stroke:#00E9C5;stroke-linecap:round;stroke-miterlimit:10;}
	.st2{fill:none;stroke:#FF3737;stroke-miterlimit:10;}
	.st3{fill:none;stroke:#FFFFFF;stroke-miterlimit:10;}
	.st4{fill:#00E9C5;}
	.st5{fill:none;stroke:#00E9C5;stroke-width:0.35;stroke-miterlimit:10;}
</style>
<g id="Capa_2_00000008141268834755637000000017998663096753539508_">
	<path class="st0" d="M0.5,23.1V2.6c0-1.3,1.1-2.1,2.1-2.1H35c1.3,0,2.6,0.8,2.6,2.1v20.5"/>
	<path class="st1" d="M23.3,15.9c6.8,0.6,10.2,3,12.6,4.5V4.6c0-1.1-1.1-2.1-2.1-2.1H4.6C3.5,2.4,2.4,3.3,2.4,4.6v15.8
		c2.4-1.3,6.4-4,13-4.5"/>
	<path class="st2" d="M22.1,15.7"/>
</g>
<g id="Capa_3_00000026138909304102211240000007439177312223850130_">
	<path class="st0" d="M37,23.1"/>
	<path class="st0" d="M0.5,23.1V2.6c0-1.3,1.1-2.1,2.1-2.1H35"/>
	<line class="st0" x1="7.3" y1="2.6" x2="7.1" y2="18.4"/>
	<line class="st0" x1="11.4" y1="2.6" x2="11.6" y2="16.7"/>
	<line class="st0" x1="15.4" y1="2.6" x2="15.4" y2="15.7"/>
	<line class="st0" x1="19.1" y1="2.6" x2="19.1" y2="11.8"/>
	<line class="st1" x1="23.1" y1="2.6" x2="23.3" y2="15.9"/>
	<line class="st0" x1="27.6" y1="2.6" x2="27.4" y2="16.5"/>
	<line class="st0" x1="31.2" y1="2.6" x2="31.2" y2="17.6"/>
	<path class="st0" d="M35.7,15.5c-3-1.5-8.8-4-16.6-4.1C11.4,11.8,5.2,14,2.4,15.5"/>
	<path class="st0" d="M35.9,12.2c-3-1.5-8.8-4-16.6-4.1c-7.9,0.2-13.7,2.6-16.9,4.1"/>
	<path class="st0" d="M35.9,8.4c-3-1.5-8.8-2.8-16.6-3c-7.7,0-13.6,1.7-16.8,3.2"/>
</g>
<g id="Capa_6_00000176028604462543387330000011740994335743510178_">
	<g>
		<path class="st3" d="M25,41.1c-0.6,0-1.3-0.6-1.3-1.3c0-1.7,0-3.8,0.2-5.5l-3.4-4.1h-1.7l-3,3.8l-0.2,5.8"/>
		<path class="st3" d="M12.5,39.6c0.2-1.9,0.2-4.1,0.2-6l3.8-5.5l-0.4-8.8h6.4l-0.2,9l4.3,5.5"/>
	</g>
	<g>
		<path class="st0" d="M16.1,19.3h6.4l-0.2,9l4.3,5.5l-0.1,6c0,1-0.8,1.3-1.6,1.3c-0.6,0-1.3-0.6-1.3-1.3c0-1.7,0-3.8,0.2-5.5
			l-3.4-4.1h-1.7l-3,3.8l-0.1,5.8c-0.1,1.3-0.9,1.4-1.5,1.4s-1.5,0-1.5-1.6c0.2-1.9,0.2-4.1,0.2-6l3.8-5.5L16.1,19.3z"/>
		<path class="st0" d="M24,19.5l5.8,2.1l1.5,4.7c0,0.6-0.2,1.1-0.6,1.3c-0.6,0.2-1.1,0.2-1.7-0.2c-0.6-1.5-0.9-2.6-1.5-4.3
			c-1.3-0.6-2.4-1.1-3.8-1.5"/>
		<path class="st0" d="M14.6,19.3l-6,2.4l-1.5,4.7c0,0.6,0.2,1.1,0.6,1.3c0.6,0.2,1.1,0.2,1.5-0.4c0.4-1.5,0.9-2.6,1.3-4.3
			c1.3-0.6,2.6-1.1,4.1-1.5"/>
	</g>
</g>
<circle class="st0" cx="19.3" cy="15.4" r="2.4"/>
<path class="st4" d="M14.3,41.2c0,0.3,0,0,0.2,1.3c0,0.3,0,0.3-0.2,0.3s-0.4,0-0.6,0c-0.4,0-0.4,0-0.4-0.5c0.2-0.8,0.2-0.5,0.4-0.8
	h0.4"/>
<circle class="st5" cx="12.4" cy="41.8" r="0.6"/>
<circle class="st5" cx="15.5" cy="41.8" r="0.6"/>
<path class="st4" d="M25.5,41.2c0,0.3,0,0,0.2,1.3c0,0.3,0,0.3-0.2,0.3s-0.4,0-0.6,0c-0.4,0-0.4,0-0.4-0.5c0.2-0.8,0.2-0.5,0.4-0.8
	h0.4"/>
<circle class="st5" cx="23.7" cy="41.7" r="0.6"/>
<circle class="st5" cx="26.5" cy="41.7" r="0.6"/>
</svg>
