<svg xmlns="http://www.w3.org/2000/svg" width="37.43" height="27.499" viewBox="0 0 37.43 27.499">
  <path id="palo-de-hockey" d="M37.095,11.919c-.807-2.132-3.035-3.927-6.115-4.924a16.858,16.858,0,0,0-1.943-.509A20.168,20.168,0,0,0,24.2,6.138c-.033-.11-.05-.221-.091-.33C23.3,3.676,21.074,1.881,17.993.885A16.858,16.858,0,0,0,16.051.375,19.425,19.425,0,0,0,12.221,0C7.969,0,4.107,1.307,1.9,3.488A5.774,5.774,0,0,0,0,7.639v6.875c0,4.112,4.912,6.875,12.222,6.875.271,0,.546-.011.821-.019.559,3.7,5.306,6.13,12.165,6.13,7.31,0,12.222-2.763,12.222-6.875V13.749a5.275,5.275,0,0,0-.335-1.831Zm-24.109,6.4c-.255.008-.511.018-.764.018-5.226,0-9.166-1.642-9.166-3.819V12.73a16.109,16.109,0,0,0,9.166,2.547c.26,0,.51-.015.764-.023Zm2.548-9.287a8.6,8.6,0,0,0-.65.571c-.18.176-.344.358-.5.542-.044.052-.085.1-.127.158q-.174.22-.324.447c-.031.047-.064.093-.094.141a5.915,5.915,0,0,0-.33.6c-.015.031-.026.063-.041.094a5.482,5.482,0,0,0-.208.531c-.009.028-.023.055-.033.083-.326.018-.662.028-1.007.028-5.4,0-9.166-2.415-9.166-4.583A2.784,2.784,0,0,1,4.037,5.67C5.67,4.057,8.806,3.055,12.221,3.055a16.567,16.567,0,0,1,3.233.315,14.033,14.033,0,0,1,1.6.42A7.02,7.02,0,0,1,21.09,6.54c-.157.034-.309.077-.464.115-.117.029-.235.056-.351.087q-.459.125-.9.271l-.114.035c-.329.112-.647.236-.959.367-.093.039-.179.082-.27.122-.214.1-.426.194-.63.3-.106.054-.207.109-.31.166q-.275.15-.534.31c-.1.06-.2.122-.291.184-.176.116-.342.237-.505.36-.076.057-.156.113-.229.173Zm18.84,11.6c0,2.178-3.941,3.819-9.166,3.819-4.8,0-8.513-1.389-9.083-3.305l.05,0-.134-1.448v-.829c.013.009.029.017.043.026a11.047,11.047,0,0,0,1.068.653l.072.04a13.174,13.174,0,0,0,1.29.6,18.171,18.171,0,0,0,6.694,1.217q.668,0,1.316-.044c.146-.009.287-.027.432-.04.282-.025.564-.048.84-.084.168-.022.33-.052.495-.078.244-.038.488-.076.725-.123.172-.034.338-.075.507-.114.221-.05.442-.1.656-.16.17-.046.333-.1.5-.148.2-.063.405-.125.6-.194.162-.056.319-.117.477-.179.189-.073.374-.149.555-.228.152-.068.3-.137.447-.208.174-.085.344-.171.51-.261.14-.076.277-.153.41-.233.16-.1.315-.194.466-.3.075-.05.158-.1.232-.147Zm-9.166-2.292a15.087,15.087,0,0,1-5.561-1q-.415-.165-.788-.351c-.147-.073-.28-.154-.418-.231-.094-.053-.2-.1-.284-.157-.2-.126-.394-.258-.571-.393-.012-.009-.027-.018-.039-.027a3.38,3.38,0,0,1-1.489-2.3c0-.034-.013-.068-.013-.1l0-.112a2.8,2.8,0,0,1,.973-1.876,5.949,5.949,0,0,1,.521-.454A11.607,11.607,0,0,1,23.1,9.292H23.1a17.3,17.3,0,0,1,5.336.19,14.034,14.034,0,0,1,1.6.42c2.159.7,3.729,1.858,4.193,3.086a2.188,2.188,0,0,1,.142.762c0,2.168-3.765,4.583-9.166,4.583Zm0,0" transform="translate(0.001 0)" fill="#050c42"/>
</svg>
