<?xml version="1.0" encoding="utf-8"?>
<!-- Generator: Adobe Illustrator 25.4.1, SVG Export Plug-In . SVG Version: 6.00 Build 0)  -->
<svg version="1.1" id="Capa_1" xmlns="http://www.w3.org/2000/svg" xmlns:xlink="http://www.w3.org/1999/xlink" x="0px" y="0px"
	 viewBox="0 0 42.9 42.9" style="enable-background:new 0 0 42.9 42.9;" xml:space="preserve">
<style type="text/css">
	.st0{fill:none;stroke:#050B3D;stroke-width:0.5;stroke-miterlimit:10;}
	.st1{fill:none;stroke:#050B3D;stroke-width:0.75;stroke-miterlimit:10;}
	.st2{fill:#FFFFFF;stroke:#FF3737;stroke-miterlimit:10;}
	.st3{fill:#FF3737;}
	.st4{fill:none;stroke:#050B3D;stroke-width:0.5;stroke-linecap:round;stroke-miterlimit:10;}
	.st5{fill:none;stroke:#FF3737;stroke-width:0.5;stroke-miterlimit:10;}
	.st6{fill:none;stroke:#00E9C5;stroke-width:0.5;stroke-miterlimit:10;}
	.st7{fill:none;stroke:#FFFFFF;stroke-width:0.5;stroke-miterlimit:10;}
	.st8{fill:#050B3D;}
	.st9{fill:none;stroke:#050B3D;stroke-width:0.2;stroke-miterlimit:10;}
	.st10{fill:#00E9C5;stroke:#050B3D;stroke-width:0.5;stroke-miterlimit:10;}
	.st11{font-family:'CachetStd-Bold';}
	.st12{font-size:10px;}
</style>
<g id="Capa_7">
	<path class="st0" d="M37.1,26.1l2.2-6.8"/>
	<path class="st0" d="M36.7,27.4"/>
	<path class="st0" d="M40.7,18.5c-0.9,2.6-1.6,5.4-2.3,7.7"/>
	<path class="st1" d="M33.6,19.5l-4.3,3.3c-0.4,0.3-0.7,0.9-0.7,1.4V29l-5.2,9.3c-0.2,0.5,0,1.2,0.4,1.6c0.5,0.4,1.3,0.3,1.7-0.1
		l5.8-9.5l2.7,4.1v5.1c0.1,0.9,0.9,1.4,1.7,1.3c0.7-0.1,1.3-0.7,1.3-1.3v-6.3L34.2,29l0.7-7.4l6.8-3.7c0.5-0.3,0.7-1,0.4-1.5
		c-0.4-0.5-1.1-0.8-1.7-0.4c-0.2,0.1-0.4,0.2-0.5,0.3c-1.7,1-3.4,1.8-5.1,2.6C34.3,19,34,19.3,33.6,19.5z"/>
	<path class="st1" d="M34.3,26.5l3.4-0.5c0.5,0,1,0.3,1.1,0.8c0.2,0.5-0.1,1.2-0.7,1.4H38c-0.9,0.1-3,0.7-3.9,0.9"/>
	<circle class="st1" cx="29.6" cy="18" r="2.1"/>
</g>
<g>
	<path class="st2" d="M25,27.4"/>
</g>
<g id="Capa_4">
	<polygon class="st1" points="23.4,19.4 17.3,17.2 18.5,23.6 20.4,22 23.6,27.6 26.7,24.9 21.6,21 	"/>
</g>
<g>
	<path class="st3" d="M24.5,40.3"/>
</g>
<g id="Capa_2_00000008141268834755637000000017998663096753539508_">
	<path class="st0" d="M0.4,12.4V1.5c0-0.7,0.6-1.1,1.1-1.1h17.2c0.7,0,1.4,0.4,1.4,1.1v10.9"/>
	<path class="st4" d="M12.5,8.6c3.6,0.3,5.4,1.6,6.7,2.4V2.6c0-0.6-0.6-1.1-1.1-1.1H2.6C2,1.4,1.4,1.9,1.4,2.6V11
		c1.3-0.7,3.4-2.1,6.9-2.4"/>
	<path class="st5" d="M11.9,8.5"/>
</g>
<g id="Capa_3_00000026138909304102211240000007439177312223850130_">
	<path class="st6" d="M19.8,12.4"/>
	<path class="st0" d="M0.4,12.4V1.5c0-0.7,0.6-1.1,1.1-1.1h17.2"/>
	<line class="st0" x1="4" y1="1.5" x2="3.9" y2="9.9"/>
	<line class="st0" x1="6.2" y1="1.5" x2="6.3" y2="9"/>
	<line class="st0" x1="8.3" y1="1.5" x2="8.3" y2="8.5"/>
	<line class="st0" x1="10.3" y1="1.5" x2="10.3" y2="6.4"/>
	<line class="st4" x1="12.4" y1="1.5" x2="12.5" y2="8.6"/>
	<line class="st0" x1="14.8" y1="1.5" x2="14.7" y2="8.9"/>
	<line class="st0" x1="16.7" y1="1.5" x2="16.7" y2="9.5"/>
	<path class="st0" d="M19.1,8.4c-1.6-0.8-4.7-2.1-8.8-2.2C6.2,6.4,2.9,7.6,1.4,8.4"/>
	<path class="st0" d="M19.2,6.6c-1.6-0.8-4.7-2.1-8.8-2.2c-4.2,0.1-7.3,1.4-9,2.2"/>
	<path class="st0" d="M19.2,4.6c-1.6-0.8-4.6-2-8.7-2.1c-4.1,0-7.3,1.4-9,2.2"/>
</g>
<g id="Capa_6_00000176028604462543387330000011740994335743510178_">
	<g>
		<path class="st7" d="M8.7,10.4h3.4L12,15.2l2.3,2.9l-0.1,3.2c-0.1,0.5-0.5,0.8-0.8,0.7c-0.3,0-0.7-0.3-0.7-0.7c0-0.9,0-2,0.1-2.9
			L11,16.2h-0.9l-1.6,2l-0.1,3.1c-0.1,0.3-0.5,0.6-0.8,0.6s-0.7-0.3-0.8-0.7c0.1-1,0.1-2.2,0.1-3.2l2-2.9L8.7,10.4z"/>
	</g>
	<g>
		<path class="st0" d="M8.7,10.4h3.4L12,15.2l2.3,2.9l-0.1,3.2c-0.1,0.5-0.4,0.7-0.8,0.7c-0.3,0-0.7-0.3-0.7-0.7c0-0.9,0-2,0.1-2.9
			L11,16.2h-0.9l-1.6,2l-0.1,3.1c-0.1,0.3-0.5,0.6-0.8,0.6s-0.7-0.2-0.8-0.7c0.1-1,0.1-2.2,0.1-3.2l2-2.9L8.7,10.4z"/>
		<path class="st0" d="M12.9,10.5l3.1,1.1l0.8,2.5c0,0.3-0.1,0.6-0.3,0.7c-0.3,0.1-0.6,0.1-0.9-0.1c-0.3-0.8-0.5-1.4-0.8-2.3
			c-0.7-0.3-1.3-0.6-2-0.8"/>
		<path class="st0" d="M7.9,10.4l-3.2,1.3l-0.8,2.5c0,0.3,0.1,0.6,0.3,0.7C4.5,15,4.8,15,5,14.7c0.2-0.8,0.5-1.4,0.7-2.3
			c0.7-0.3,1.4-0.6,2.2-0.8"/>
	</g>
</g>
<circle class="st0" cx="10.4" cy="8.3" r="1.3"/>
<g>
	<path class="st3" d="M36.3,41.1c-0.1,0.1-0.1,0.1-0.2,0.2"/>
</g>
<path class="st0" d="M40.3,15.9l0.7-2.3c-0.1-0.1-2.1-0.9-2.5-1.1l-0.2-0.1l0.3-1.3c0-0.1,0.1-0.2,0.2-0.1c0.7,0.2,3.3,1.2,3.4,2.2
	c-0.2,0.8-0.4,1.5-0.8,2.5"/>
<path class="st8" d="M13.7,22.1c0,0.1,0,0,0.1,0.5c0,0.1,0,0.1-0.1,0.1s-0.2,0-0.3,0c-0.2,0-0.2,0-0.2-0.2c0.1-0.3,0.1-0.2,0.2-0.3
	h0.2"/>
<path class="st9" d="M14.5,22.3c0,0.2-0.1,0.3-0.3,0.3c-0.1,0-0.3-0.1-0.3-0.3c0-0.2,0.1-0.3,0.3-0.3C14.4,22,14.5,22.1,14.5,22.3"
	/>
<path class="st8" d="M37.6,41.8c0.1,0,0.1,0,0.2,0.1c0,0,0.1,0,0.2,0c0.1,0,0.2,0.1,0.4,0.2c0.1,0.1,0.1,0.2,0,0.4
	c-0.2,0.2-0.4,0.1-0.7,0c0,0-0.1-0.1-0.1-0.2s-0.1-0.1-0.1-0.1"/>
<path class="st0" d="M34.8,41c0.4,0,0.8,0.4,0.8,0.8c0,0.5-0.4,0.8-0.8,0.8"/>
<path class="st0" d="M34.8,42.6c-0.4,0-0.8-0.4-0.8-0.8s0.4-0.8,0.8-0.8"/>
<path class="st0" d="M36.7,41c0.4,0,0.8,0.4,0.8,0.8c0,0.5-0.4,0.8-0.8,0.8"/>
<path class="st0" d="M36.7,42.6c-0.4,0-0.8-0.4-0.8-0.8s0.4-0.8,0.8-0.8"/>
<path class="st8" d="M25.4,41.6c0.1,0,0.1,0,0.2,0.2c0,0,0.1,0.1,0.2,0.1c0.1,0.1,0.1,0.2,0.3,0.4c0.1,0.2,0.1,0.3-0.2,0.4
	c-0.3,0.1-0.5,0-0.6-0.3c0,0-0.1-0.2-0.1-0.3s0-0.1-0.1-0.2"/>
<path class="st0" d="M23.1,39.8c0.4,0.2,0.6,0.7,0.4,1.1c-0.2,0.5-0.7,0.6-1.1,0.4"/>
<path class="st0" d="M22.5,41.3c-0.4-0.2-0.6-0.7-0.4-1.1c0.2-0.4,0.7-0.6,1.1-0.4"/>
<path class="st0" d="M24.9,40.5c0.4,0.2,0.6,0.7,0.4,1.1c-0.2,0.5-0.7,0.6-1.1,0.4"/>
<path class="st0" d="M24.2,42c-0.4-0.2-0.6-0.7-0.4-1.1s0.7-0.6,1.1-0.4"/>
<path class="st10" d="M41.3,38.1l-1.9,2"/>
<path class="st10" d="M40,40.1"/>
<path class="st0" d="M40.1,40.1c-0.7,0-1.4-0.6-1.3-1.4s0.6-1.4,1.4-1.3c0.7,0,1.4,0.6,1.3,1.4C41.5,39.6,40.9,40.1,40.1,40.1"/>
<path class="st10" d="M41.4,38.4L39.9,40"/>
<path class="st10" d="M41.4,39l-0.9,1"/>
<path class="st9" d="M13,22.3c0,0.2-0.1,0.3-0.3,0.3s-0.3-0.1-0.3-0.3c0-0.2,0.1-0.3,0.3-0.3C12.9,22,13,22.1,13,22.3"/>
<path class="st8" d="M7.8,22.1c0,0.1,0,0,0.1,0.5c0,0.1,0,0.1-0.1,0.1s-0.2,0-0.3,0c-0.2,0-0.2,0-0.2-0.2c0.1-0.3,0.1-0.2,0.2-0.3
	h0.2"/>
<path class="st9" d="M8.6,22.2c0,0.2-0.1,0.3-0.3,0.3c-0.1,0-0.3-0.1-0.3-0.3c0-0.2,0.1-0.3,0.3-0.3C8.5,21.9,8.6,22,8.6,22.2"/>
<path class="st9" d="M7.1,22.2c0,0.2-0.1,0.3-0.3,0.3c-0.1,0-0.3-0.1-0.3-0.3c0-0.2,0.1-0.3,0.3-0.3C7,21.9,7.1,22,7.1,22.2"/>
<text transform="matrix(1 0 0 1 1.5001 40.8128)" class="st8 st11 st12">R</text>
</svg>
