<?xml version="1.0" encoding="utf-8"?>
<!-- Generator: Adobe Illustrator 25.4.1, SVG Export Plug-In . SVG Version: 6.00 Build 0)  -->
<svg version="1.1" id="Iconos" xmlns="http://www.w3.org/2000/svg" xmlns:xlink="http://www.w3.org/1999/xlink" x="0px" y="0px"
	 viewBox="0 0 50 50" style="enable-background:new 0 0 50 50;" xml:space="preserve">
<style type="text/css">
	.st0{fill:#050B3D;}
	.st1{fill:#FFFFFF;stroke:#00E9C5;stroke-miterlimit:10;}
	.st2{fill:none;stroke:#00E9C5;stroke-width:0.5;stroke-miterlimit:10;}
	.st3{fill:none;stroke:#050B3D;stroke-miterlimit:10;}
	.st4{fill:#050B3D;stroke:#050B3D;stroke-miterlimit:10;}
	.st5{font-family:'CachetStd-Bold';}
	.st6{font-size:10.4685px;}
</style>
<path class="st0" d="M39.9,2.2H10.1C8.9,2.2,8,3.1,7.9,4.3c0,0,0,0,0,0v21.5c0,0.3,0.2,0.5,0.5,0.5l0,0c0.3,0,0.5-0.2,0.5-0.5l0,0
	V4.4c0-0.6,0.5-1.1,1.1-1.1h29.8c0.6,0,1.1,0.5,1.1,1.1v21.5c0,0.3,0.2,0.5,0.5,0.5c0.3,0,0.5-0.2,0.5-0.5c0,0,0,0,0,0V4.4
	C42.1,3.2,41.1,2.2,39.9,2.2C39.9,2.2,39.9,2.2,39.9,2.2z"/>
<path class="st0" d="M39.2,4.6L39.2,4.6c-0.1-0.1-0.2-0.1-0.3-0.1H11.1c-0.1,0-0.2,0-0.3,0.1c-0.3,0.1-0.5,0.5-0.5,0.8v19.4
	c0,0.3,0.2,0.5,0.5,0.5c0.1,0,0.2,0,0.3-0.1l3.2-2.3h21.5l3.2,2.3c0.2,0.2,0.5,0.1,0.7-0.1c0.1-0.1,0.1-0.2,0.1-0.3V5.4
	C39.7,5.1,39.5,4.8,39.2,4.6z M35.7,5.5h2.6L37.9,8h-2.5L35.7,5.5z M35.2,9h2.5l-0.4,2.5H35L35.2,9z M37.1,12.5L36.7,15h-2.1
	l0.3-2.5H37.1z M31.5,5.5h3.2L34.4,8h-3L31.5,5.5z M31.3,9h3L34,11.5h-2.8L31.3,9z M31.1,12.5h2.8L33.6,15H31L31.1,12.5z M30.9,16
	h2.6l-0.3,2.5h-2.4L30.9,16z M27.4,5.5h3.2L30.4,8h-3V5.5z M30,15h-2.6v-2.5h2.8L30,15z M27.4,9h3l-0.1,2.5h-2.8V9z M27.4,16h2.6
	l-0.1,2.5h-2.4V16z M29.7,19.4l-0.2,2.1c0,0.1,0,0.3,0.1,0.4h-2.3l-0.1-2.5L29.7,19.4z M23.7,5.5h2.7V8h-2.7V5.5z M23.7,9h2.7v2.5
	h-2.7V9z M23.7,12.5h2.7V15h-2.7V12.5z M23.7,16h2.7v2.5h-2.7V16z M26.3,19.4l0.1,2.5h-2.7v-2.5H26.3z M19.7,9h3v2.5h-2.8L19.7,9z
	 M20.1,16h2.6v2.5h-2.4L20.1,16z M20.5,21.5l-0.1-2.1h2.4v2.5h-2.4C20.4,21.8,20.4,21.7,20.5,21.5z M22.7,15H20l-0.1-2.5h2.8
	L22.7,15z M22.7,5.5V8h-3.1l-0.1-2.5H22.7z M18.9,11.5H16L15.7,9h3L18.9,11.5z M18.6,5.5L18.7,8h-3.1l-0.3-2.5H18.6z M15.5,15h-2.2
	l-0.4-2.5h2.3L15.5,15z M15.1,11.5h-2.3L12.4,9h2.4L15.1,11.5z M14.4,5.5L14.7,8h-2.6l-0.4-2.5H14.4z M11.3,23.8V9.1l2.3,13.1
	L11.3,23.8z M13.5,16h2.1l0.3,2.5h-1.9L13.5,16z M14.5,21.9l-0.4-2.5h1.8l0.3,2.5H14.5z M16.1,12.5h2.8L19,15h-2.6L16.1,12.5z
	 M16.5,16h2.6l0.1,2.5h-2.4L16.5,16z M16.9,19.4h2.4l0.1,2.2c0,0.1,0.1,0.2,0.1,0.3h-2.4L16.9,19.4z M31.9,21.9h-1.4
	c0.1-0.1,0.1-0.2,0.1-0.3l0.1-2.2h2.4l-0.3,2.5H31.9z M35.5,21.9h-1.7l0.3-2.5H36L35.5,21.9z M34.2,18.4l0.3-2.5h2l-0.4,2.5H34.2z
	 M36.5,22.2l2.3-13.1v14.7L36.5,22.2z"/>
<path class="st0" d="M13.5,47.1c0.2,0,0.3-0.2,0.3-0.4c0-0.1-0.1-0.3-0.3-0.3h-1c-0.2,0-0.3,0.2-0.3,0.4c0,0.1,0.1,0.3,0.3,0.3H13.5
	z"/>
<path class="st0" d="M31.3,46.5H28c-1,0.5-2,0.7-3.1,0.8c-1.1,0-2.1-0.3-3.1-0.8h-6.3c-0.2,0-0.3,0.2-0.3,0.4c0,0.1,0.1,0.3,0.3,0.3
	h6.1c0.3,0.6,1.6,1.2,3.3,1.2c1.6,0,3-0.5,3.3-1.2h3.2c0.2,0,0.3-0.2,0.3-0.4C31.5,46.6,31.4,46.5,31.3,46.5L31.3,46.5z"/>
<g>
	<path class="st1" d="M24.9,38.1"/>
</g>
<path class="st2" d="M27.1,38.2"/>
<path class="st2" d="M22.7,38.2"/>
<path class="st3" d="M29.1,41.8c0,2.3-1.9,4.2-4.2,4.2s-4.2-1.9-4.2-4.2c0-2.3,1.9-4.2,4.2-4.2S29.1,39.5,29.1,41.8"/>
<path class="st4" d="M23.1,45.4c1.9,1.3,3.9,0.8,5.3-1.1s1-3.7-0.9-5.1L23.1,45.4z"/>
<text transform="matrix(1 0 0 1 31.9978 45.1913)" class="st0 st5 st6">R</text>
<path class="st0" d="M37.5,46.5h-4.2c-0.2,0-0.4,0.1-0.4,0.3c0,0.2,0.1,0.4,0.3,0.4c0,0,0.1,0,0.1,0h4.2c0.2,0,0.4-0.1,0.4-0.3
	c0-0.2-0.1-0.4-0.3-0.4C37.6,46.5,37.5,46.5,37.5,46.5z"/>
</svg>
