<?xml version="1.0" encoding="utf-8"?>
<!-- Generator: Adobe Illustrator 25.4.1, SVG Export Plug-In . SVG Version: 6.00 Build 0)  -->
<svg version="1.1" id="Capa_1" xmlns="http://www.w3.org/2000/svg" xmlns:xlink="http://www.w3.org/1999/xlink" x="0px" y="0px"
	 viewBox="0 0 50 50" style="enable-background:new 0 0 50 50;" xml:space="preserve">
<style type="text/css">
	.st0{fill:none;stroke:#050B3D;stroke-miterlimit:10;}
	.st1{fill:#FFFFFF;stroke:#050B3D;stroke-miterlimit:10;}
	.st2{fill:none;stroke:#050B3D;stroke-width:0.75;stroke-miterlimit:10;}
	.st3{fill:#050B3D;stroke:#050B3D;stroke-miterlimit:10;}
</style>
<g id="Capa_2_1_">
	<path class="st0" d="M3.3,29.9V5.6c0-1.4,1.2-2.7,2.7-2.7H44c1.4,0,2.7,1.2,2.7,2.7v24.3"/>
	<path class="st0" d="M44.6,26.6V8.1c0-1.3-1.1-2.4-2.4-2.4H8c-1.3,0-2.4,1.1-2.4,2.4v18.5C8.6,24.8,15.8,21,25.1,21
		C34.7,20.9,41.5,24.8,44.6,26.6z"/>
</g>
<g id="Capa_3">
	<path class="st0" d="M3.3,29.9V5.6c0-1.4,1.2-2.7,2.7-2.7H44c1.4,0,2.7,1.2,2.7,2.7v24.3"/>
	<path class="st0" d="M44.6,26.6V8.1c0-1.3-1.1-2.4-2.4-2.4h-4.2h-4.2h-4.1h-4.5h-4.5H16h-3.9H8c-1.3,0-2.4,1.1-2.4,2.4v4.1v4.2V21
		v5.6C8.6,24.8,15.8,21,25.1,21C34.7,20.9,41.5,24.8,44.6,26.6z"/>
	<line class="st0" x1="11" y1="5.6" x2="10.9" y2="23.4"/>
	<line class="st0" x1="16" y1="5.6" x2="16.1" y2="22.2"/>
	<line class="st0" x1="20.7" y1="5.6" x2="20.7" y2="21.2"/>
	<line class="st0" x1="25.1" y1="5.6" x2="25.1" y2="21"/>
	<line class="st0" x1="29.6" y1="5.6" x2="29.6" y2="21.2"/>
	<line class="st0" x1="34.8" y1="5.6" x2="34.7" y2="22"/>
	<line class="st0" x1="39.1" y1="5.6" x2="39.1" y2="23.3"/>
	<path class="st0" d="M44.6,21c-3.5-1.8-10.4-4.6-19.6-4.7c-9.1,0-16.1,2.9-19.6,4.6"/>
	<path class="st0" d="M44.7,16.9c-3.5-1.8-10.4-4.6-19.6-4.7C16,12.2,9,15.1,5.5,16.8"/>
	<path class="st0" d="M45,12.7C41.6,11,34.4,8.1,25.1,8C16,8,9.3,11,5.8,12.6"/>
	<g>
		<path class="st1" d="M25.1,36.9"/>
	</g>
</g>
<g id="Capa_4">
	<polyline class="st2" points="28.8,38.5 26.1,31 29.3,31 25.1,25.3 20.7,31 24,31 21.9,37.5 	"/>
</g>
<path class="st0" d="M30.5,41.7c0,3-2.4,5.4-5.4,5.4s-5.4-2.4-5.4-5.4c0-3,2.4-5.4,5.4-5.4S30.5,38.7,30.5,41.7"/>
<path class="st3" d="M22.3,46.1c2.4,1.7,4.6,1,6.3-1.4c1.7-2.4,2.5-4.8,0.1-6.5L22.3,46.1z"/>
</svg>
