<svg id="clock" xmlns="http://www.w3.org/2000/svg" width="20.25" height="20.25" viewBox="0 0 20.25 20.25">
  <g id="Grupo_2137" data-name="Grupo 2137" transform="translate(9.341 4.698)">
    <g id="Grupo_2136" data-name="Grupo 2136">
      <path id="Trazado_2618" data-name="Trazado 2618" d="M240.561,125.994l-2.823-2.118v-4.313a.784.784,0,0,0-1.569,0v4.706a.783.783,0,0,0,.314.627l3.137,2.353a.784.784,0,0,0,.941-1.255Z" transform="translate(-236.169 -118.779)" fill="#0065e9"/>
    </g>
  </g>
  <g id="Grupo_2139" data-name="Grupo 2139">
    <g id="Grupo_2138" data-name="Grupo 2138">
      <path id="Trazado_2619" data-name="Trazado 2619" d="M10.125,0A10.125,10.125,0,1,0,20.25,10.125,10.136,10.136,0,0,0,10.125,0Zm0,18.681a8.556,8.556,0,1,1,8.556-8.556A8.567,8.567,0,0,1,10.125,18.681Z" fill="#0065e9"/>
    </g>
  </g>
</svg>
