<svg xmlns="http://www.w3.org/2000/svg" width="23.594" height="23.322" viewBox="0 0 23.594 23.322">
  <g id="user" transform="translate(0.1 0.034)">
    <path id="Trazado_2622" data-name="Trazado 2622" d="M17.8,293.983a5.481,5.481,0,0,0-4.015,1.729,8.4,8.4,0,0,0-5.271-1.834H8.5a8.338,8.338,0,0,0-6.02,2.527A8.927,8.927,0,0,0,0,302.731a.518.518,0,0,0,.146.357.5.5,0,0,0,.357.146l13.19-.025c.03.035.06.065.091.1a5.529,5.529,0,1,0,4.02-9.326ZM1.02,302.224A7.858,7.858,0,0,1,3.2,297.1a7.328,7.328,0,0,1,5.3-2.221h.015A7.416,7.416,0,0,1,13.17,296.5a5.54,5.54,0,0,0-.191,5.7ZM17.8,304.033a4.522,4.522,0,1,1,4.522-4.522A4.522,4.522,0,0,1,17.8,304.033Zm0,0" transform="translate(0 -281.993)" fill="#0065e9" stroke="#0065e9" stroke-width="0.2"/>
    <path id="Trazado_2623" data-name="Trazado 2623" d="M84.76,10.689a5.311,5.311,0,1,0-5.311-5.311A5.311,5.311,0,0,0,84.76,10.689Zm0-9.618a4.306,4.306,0,1,1-4.306,4.306A4.306,4.306,0,0,1,84.76,1.071Zm0,0" transform="translate(-76.253)" fill="#0065e9" stroke="#0065e9" stroke-width="0.2"/>
    <path id="Trazado_2624" data-name="Trazado 2624" d="M384.456,393.2l-2.427,1.975-.889-1.04a.5.5,0,1,0-.764.653l1.206,1.412a.505.505,0,0,0,.382.176.494.494,0,0,0,.316-.11l2.809-2.286a.5.5,0,0,0-.633-.779Zm0,0" transform="translate(-364.959 -377.212)" fill="#0065e9" stroke="#0065e9" stroke-width="0.2"/>
  </g>
</svg>
