<svg xmlns="http://www.w3.org/2000/svg" width="15.254" height="22.736" viewBox="0 0 15.254 22.736">
  <g id="injury" transform="translate(-84.251)">
    <path id="Trazado_2636" data-name="Trazado 2636" d="M98.037,11.024A5.488,5.488,0,0,0,95.7,9.533a4.7,4.7,0,0,0,.9-2.774V4.728a4.728,4.728,0,1,0-9.455,0V6.758a4.7,4.7,0,0,0,.9,2.774,5.5,5.5,0,0,0-3.8,5.231v5.309h1.332v2.664H99.5V14.763a5.479,5.479,0,0,0-1.467-3.739ZM88.482,6.758V5.394h6.791V6.758a3.4,3.4,0,0,1-6.791,0Zm5.959-4.253a3.386,3.386,0,0,1,.766,1.556H90.948ZM91.878,1.332A3.376,3.376,0,0,1,93.2,1.6l-4.53,2.018a3.4,3.4,0,0,1,3.208-2.286ZM85.583,14.763a4.166,4.166,0,0,1,3.287-4.072l2.141,8.048H85.583Zm6.334,2.2h2.7a.888.888,0,1,1,0,1.776H92.39ZM98.172,21.4H86.915V20.072h7.7a2.22,2.22,0,1,0,0-4.441H91.563L90.4,11.248a4.721,4.721,0,0,0,4.18-.611,4.164,4.164,0,0,1,3.6,4.126Z" fill="#0065e9"/>
  </g>
</svg>
