<?xml version="1.0" encoding="utf-8"?>
<!-- Generator: Adobe Illustrator 25.4.1, SVG Export Plug-In . SVG Version: 6.00 Build 0)  -->
<svg version="1.1" id="Capa_1" xmlns="http://www.w3.org/2000/svg" xmlns:xlink="http://www.w3.org/1999/xlink" x="0px" y="0px"
	 viewBox="0 0 255.3 324.7" style="enable-background:new 0 0 255.3 324.7;" xml:space="preserve">
<style type="text/css">
	.st0{fill:#0065E9;}
</style>
<g>
	<g id="singlet" transform="translate(-61 0)">
		<path id="Trazado_2634" class="st0" d="M64.7,143.8v170.9c0,5.7,4.3,10,10,10l0,0h227.8c5.7,0,10-4.3,10-10l0,0V143.8
			c0-1.4,0-4.3-1.4-5.7c-22.8-34.2-29.9-76.9-19.9-116.8l2.8-10c1.4-5.7-1.4-10-7.1-11.4c-1.4,0-1.4,0-2.8,0h-38.4
			c-2.8,0-5.7,1.4-8.5,4.3c-5.7,10-27.1,34.2-48.4,34.2c-25.6,0-48.4-32.8-48.4-34.2C138.7,1.4,135.9,0,133,0H94.6
			c-5.7,0-10,4.3-10,10c0,1.4,0,1.4,0,2.8c12.8,42.7,7.1,88.3-17.1,125.3C66.1,139.6,64.7,141,64.7,143.8z M284,131
			c2.8,5.7,5.7,10,8.5,15.7v159.5H274V160.9C274,149.5,276.8,139.6,284,131z M188.6,57c14.2,0,28.5-5.7,39.9-15.7
			c-7.1,17.1-18.5,34.2-39.9,34.2s-32.8-17.1-39.9-34.2C160.1,51.3,174.3,57,188.6,57z M106,19.9h17c7.1,37,25.6,75.5,65.5,75.5
			S246.9,57,254,19.9h17.1c-7.1,29.9-5.7,61.2,4.3,89.7c-12.8,14.2-19.9,32.8-19.9,51.3v145.3H123V166.6c0-19.9-8.5-37-22.8-49.8
			C110.2,85.4,113.1,51.3,106,19.9z M83.2,146.7c2.8-4.3,4.3-7.1,7.1-11.4c8.5,8.5,12.8,19.9,12.8,31.3v138.1H84.6L83.2,146.7z"/>
	</g>
</g>
<path class="st0" d="M147.8,127.9c-2.5-1.5-5.3-2.7-8.2-3.6c-4.2-1.3-8.8-1-12.8,0.8c-3.3,1.5-5.4,4.7-5.5,8.3V187
	c0,0.7-0.6,1.2-1.2,1.2l-0.3-0.1c-11.6-3.5-19.4-14-19.4-26.1v-1.6c0-0.2,0-0.3,0-0.5v-0.5c0.1-0.7,0.2-1.5,0.3-2.4l0.2-1.1
	c0.2-0.7,0.4-1.5,0.7-2.4c0.1-0.3,0.2-0.7,0.3-1c0.2-0.7,0.6-1.5,1-2.2c0.3-0.7,0.7-1.4,1.1-2l0.2-0.3c0.2-0.2,0.2-0.5,0.5-0.7
	l1.4-2c0.9-1.1,2-2.3,3-3.3c0.5-0.4,0.9-0.8,1.5-1.2c1-0.7,1.6-1.8,1.8-3c0.2-1.2-0.2-2.4-0.9-3.4c-0.1-0.2-0.2-0.3-0.4-0.5
	l-2.4-2.4c-1.6-1.6-4.3-1.8-6.1-0.3c-1.9,1.5-3.6,3.2-5.1,5l-0.2,0.3c-0.3,0.3-0.6,0.7-0.8,1.1c-0.3,0.4-0.7,0.8-1,1.2l-0.2,0.3
	c-0.2,0.4-0.6,0.9-0.8,1.3l-0.9,1.5c-0.6,0.9-1.1,1.9-1.6,3.1c-0.2,0.4-0.4,0.9-0.5,1.1l-0.2,0.3c-0.2,0.5-0.4,1-0.6,1.5l-0.2,0.6
	l-1.3,4.3l-0.1,0.3c-0.1,0.5-0.2,1.1-0.3,1.7c-0.1,0.5-0.2,1-0.2,1.5l-0.1,0.4c-0.1,0.6-0.2,1.1-0.2,1.8c-0.1,0.5-0.1,1-0.1,1.6
	l-0.1,2c0,19.2,13.6,35.6,32.6,39.1c0.6,0.1,1.1,0.7,1.1,1.2v14.5c0,1.1,0.4,2.1,1.2,2.9c0.7,0.7,1.8,1.2,2.9,1.2h4.2
	c2.3,0,4.1-1.9,4.1-4.1v-14.4c0-0.6,0.4-1.1,1-1.2c8-1.5,15.2-5.3,20.9-11c2.4-2.4,4.5-5.1,6.1-7.9C173,163.5,166.7,139,147.8,127.9
	z M152.9,172.7c-0.2,0.4-0.3,0.8-0.6,1.2l-0.2,0.3c-3.3,6.8-9.5,11.8-16.7,14c-0.7,0.2-1.4-0.2-1.6-0.8l-0.1-47.5
	c0-0.8,0.3-1.6,0.9-2.3c0.6-0.6,1.4-0.9,2.2-0.9l0,0c0.4,0,0.8,0.1,1.2,0.2c6.7,2.9,11.9,8.1,14.7,14.9
	C155.7,158.6,155.6,165.9,152.9,172.7z M91.6,149L91.6,149L91.6,149L91.6,149z M90.6,151.9L90.6,151.9L90.6,151.9L90.6,151.9z"/>
</svg>
