<?xml version="1.0" encoding="utf-8"?>
<!-- Generator: Adobe Illustrator 25.4.1, SVG Export Plug-In . SVG Version: 6.00 Build 0)  -->
<svg version="1.1" id="Capa_1" xmlns="http://www.w3.org/2000/svg" xmlns:xlink="http://www.w3.org/1999/xlink" x="0px" y="0px"
	 viewBox="0 0 17.3 22.7" style="enable-background:new 0 0 17.3 22.7;" xml:space="preserve">
<style type="text/css">
	.st0{fill:#0065E9;}
	.st1{fill:#0065E9;stroke:#0065E9;stroke-width:0.25;stroke-miterlimit:10;}
</style>
<g id="singlet" transform="translate(-61 0)">
	<path id="Trazado_2634" class="st0" d="M61,10v12c0,0.4,0.3,0.7,0.7,0.7l0,0h16c0.4,0,0.7-0.3,0.7-0.7l0,0V10c0-0.1,0-0.3-0.1-0.4
		c-1.6-2.4-2.1-5.4-1.4-8.2L77,0.8c0.1-0.4-0.1-0.7-0.5-0.8c-0.1,0-0.1,0-0.2,0h-2.7c-0.2,0-0.4,0.1-0.6,0.3
		c-0.4,0.7-1.9,2.4-3.4,2.4c-1.8,0-3.4-2.3-3.4-2.4C66.1,0.1,65.9,0,65.7,0H63c-0.4,0-0.7,0.3-0.7,0.7c0,0.1,0,0.1,0,0.2
		c0.9,3,0.5,6.2-1.2,8.8C61,9.8,61,9.9,61,10z M76.4,9.2c0.2,0.4,0.4,0.7,0.6,1.1v11.2h-1.3V11.2C75.7,10.5,75.9,9.8,76.4,9.2z
		 M69.7,4c1,0,2-0.4,2.8-1.1c-0.5,1.2-1.3,2.4-2.8,2.4s-2.3-1.2-2.8-2.4C67.7,3.6,68.7,4,69.7,4z M63.8,1.3h1.2
		c0.5,2.7,1.8,5.3,4.6,5.3s4.1-2.7,4.6-5.3h1.2c-0.5,2.1-0.4,4.3,0.3,6.3c-0.9,1-1.4,2.3-1.4,3.6v10.2H65v-9.7
		c0-1.4-0.6-2.6-1.6-3.5C64.2,6,64.4,3.6,63.8,1.3z M62.3,10.2c0.2-0.3,0.3-0.5,0.5-0.8c0.6,0.6,0.9,1.4,0.9,2.2v9.7h-1.3L62.3,10.2
		z"/>
</g>
<g id="Capa_2_00000175311825994162849830000000951051432025865643_">
	<g id="Capa_1-2">
		<path class="st1" d="M8.6,8.5C8.4,8.7,8.2,8.9,8.2,9.2l0,0v4.7c0,0.1-0.1,0.2-0.2,0.2c0,0,0,0-0.1,0c-1.1-0.3-1.8-1.3-1.8-2.4
			c0,0,0-0.1,0-0.1v0c0,0,0-0.1,0-0.1v0c0-0.1,0-0.1,0-0.2l0,0c0,0,0-0.1,0-0.1c0,0,0,0,0,0c0-0.1,0-0.1,0.1-0.2l0,0
			c0,0,0-0.1,0-0.1l0,0c0-0.1,0.1-0.1,0.1-0.2l0,0c0-0.1,0.1-0.1,0.1-0.2v0c0,0,0-0.1,0.1-0.1c0,0,0,0,0,0c0,0,0-0.1,0.1-0.1l0,0
			c0,0,0-0.1,0.1-0.1l0,0C6.7,10,6.8,9.9,6.9,9.8c0,0,0.1-0.1,0.1-0.1c0.1-0.1,0.1-0.3,0.1-0.4c0,0,0,0,0,0L6.9,9.1
			C6.8,9,6.6,9,6.5,9.1C6.4,9.2,6.2,9.4,6.1,9.5l0,0l0,0C6,9.5,6,9.6,6,9.6l0,0c0,0-0.1,0.1-0.1,0.1l0,0c0,0.1-0.1,0.1-0.1,0.2l0,0
			c0,0.1-0.1,0.2-0.1,0.2c0,0,0,0,0,0c0,0,0,0.1-0.1,0.1l0,0c0,0,0,0.1-0.1,0.1l0,0c0,0,0,0.1,0,0.1l0,0c0,0,0,0.1,0,0.1l0,0
			c0,0,0,0.1,0,0.1c0,0,0,0,0,0c0,0,0,0.1,0,0.1c0,0,0,0,0,0c0,0,0,0.1,0,0.1c0,0,0,0,0,0c0,0,0,0.1,0,0.1c0,0,0,0,0,0
			c0,0,0,0.1,0,0.1c0,0,0,0,0,0c0,0,0,0.1,0,0.1h0c0,1.6,1.2,3,2.8,3.3c0.1,0,0.2,0.1,0.2,0.2v1.3c0,0.1,0.1,0.2,0.2,0.2
			c0,0,0,0,0,0h0.4c0.1,0,0.2-0.1,0.2-0.2l0,0v-1.3c0-0.1,0.1-0.2,0.2-0.2c0.7-0.1,1.3-0.5,1.8-0.9c0.2-0.2,0.4-0.4,0.5-0.7
			c0.9-1.6,0.4-3.7-1.2-4.6c-0.2-0.1-0.4-0.2-0.7-0.3C9.3,8.4,9,8.4,8.6,8.5z M11,12.8c-0.3,0.6-0.9,1.1-1.6,1.3
			c-0.1,0-0.3,0-0.3-0.2c0,0,0,0,0-0.1V9.7c0-0.2,0.2-0.4,0.4-0.4c0.1,0,0.1,0,0.2,0c1.3,0.5,1.9,2,1.4,3.3C11,12.7,11,12.8,11,12.8
			L11,12.8z"/>
	</g>
</g>
</svg>
