<svg xmlns="http://www.w3.org/2000/svg" width="24.661" height="24.661" viewBox="0 0 24.661 24.661">
  <g id="XMLID_79_" transform="translate(0 0)">
    <g id="XMLID_1384_" transform="translate(0 0)">
      <path id="XMLID_1444_" d="M24.179,23.7H9.426A7.06,7.06,0,0,1,4.4,21.616L1.244,18.46A.96.96,0,1,1,2.6,17.1l2.824,2.825a5.491,5.491,0,0,0,3.909,1.62H15.9a.482.482,0,1,0,0-.963H9.577a.956.956,0,0,1,0-1.912h4.016a.482.482,0,0,0,.344-.144l.862-.878a4.233,4.233,0,0,1,5.593-.4l1.723,1.319a.482.482,0,0,0,.293.1h1.772a.482.482,0,1,0,0-.963H22.571l-1.594-1.22a5.2,5.2,0,0,0-1.391-.757,3.132,3.132,0,0,0-3.017-2.292c-.1,0-.191,0-.286.013a3.113,3.113,0,0,0-2.122-1.25V5.842a.963.963,0,0,0,.482-.833V1.927A1.929,1.929,0,0,0,12.716,0H.482a.482.482,0,1,0,0,.963H12.716a.964.964,0,0,1,.963.963V2.7H7.522a.482.482,0,0,0,0,.963h2.5V5.009a.963.963,0,0,0,.482.833V12.22a3.15,3.15,0,0,0-.517-.043,3.1,3.1,0,0,0-3.066,3.546,3.115,3.115,0,0,0-1.442,2.618c0,.1,0,.191.013.285l-2.2-2.205a1.924,1.924,0,1,0-2.721,2.72L3.719,22.3a8.018,8.018,0,0,0,5.707,2.364H24.179a.482.482,0,1,0,0-.963ZM13.679,5.009h-2.7V3.661h2.7Zm-2.216.963H13.2v6.259a3.051,3.051,0,0,0-1.317.594,3.077,3.077,0,0,0-.417-.274Zm-3.8,10.436a.482.482,0,0,0,.259-.564,2.135,2.135,0,0,1,2.058-2.7,2.116,2.116,0,0,1,1.549.666.482.482,0,0,0,.7,0,2.116,2.116,0,0,1,1.549-.666,2.143,2.143,0,0,1,1.851,1.072.482.482,0,0,0,.512.232,2.171,2.171,0,0,1,2.288,1.011,5.132,5.132,0,0,0-.61-.037,5.227,5.227,0,0,0-3.708,1.556l-.72.733H9.577a1.918,1.918,0,0,0-1.786,2.62,2.135,2.135,0,0,1-.125-3.919Z" transform="translate(0 0)" fill="#0065e9"/>
      <path id="XMLID_1461_" d="M3.187,56H.482a.482.482,0,0,0,0,.963H3.187a.482.482,0,0,0,0-.963Z" transform="translate(0 -53.303)" fill="#0065e9"/>
      <path id="XMLID_1547_" d="M42.336,215.706a2.039,2.039,0,1,0,2.039-2.039A2.041,2.041,0,0,0,42.336,215.706Zm3.115,0a1.076,1.076,0,1,1-1.076-1.076A1.077,1.077,0,0,1,45.451,215.706Z" transform="translate(-40.297 -203.375)" fill="#0065e9"/>
      <path id="XMLID_1757_" d="M339.039,147.217A2.039,2.039,0,1,0,337,145.178,2.041,2.041,0,0,0,339.039,147.217Zm0-3.115a1.076,1.076,0,1,1-1.076,1.076A1.077,1.077,0,0,1,339.039,144.1Z" transform="translate(-320.768 -136.245)" fill="#0065e9"/>
      <path id="XMLID_1758_" d="M101.992,56.822a.481.481,0,1,0-.341.141A.485.485,0,0,0,101.992,56.822Z" transform="translate(-96.297 -53.303)" fill="#0065e9"/>
    </g>
  </g>
</svg>
