<?xml version="1.0" encoding="utf-8"?>
<!-- Generator: Adobe Illustrator 25.4.1, SVG Export Plug-In . SVG Version: 6.00 Build 0)  -->
<svg version="1.1" id="Layer_1" xmlns="http://www.w3.org/2000/svg" xmlns:xlink="http://www.w3.org/1999/xlink" x="0px" y="0px"
	 viewBox="0 0 629.8 512" style="enable-background:new 0 0 629.8 512;" xml:space="preserve">
<style type="text/css">
	.st0{fill:#84368B;}
</style>
<path class="st0" d="M314.9,33.4C191.9,33.4,92.2,133,92.2,256s99.7,222.6,222.6,222.6S537.5,379,537.5,256S437.8,33.4,314.9,33.4z
	 M242.4,155.7c15.7-19.6,36.2-30.9,61.1-34.4c0.7-0.1,1.4-0.3,2-0.4c6.3,0,12.6,0,19,0c7.5,1.2,14.9,2.4,22,5.2
	c33.8,13.4,54.1,37.8,60.4,73.7c2.3,13.3,1.2,26.6-2.6,39.6c-0.3,0.9-0.5,1.9-0.9,2.7c-1,2.1-2.6,3.1-4.9,2.6
	c-2.1-0.5-3.4-2.5-3-4.9c0.3-1.6,0.7-3.1,1.2-4.6c2.5-8.8,3-17.8,2.6-26.9c-0.1-1.7-0.5-2.6-2.4-2.5c-3.6,0.1-7.2,0.1-10.8,0
	c-1.6,0-2.1,0.3-1.9,2.1c1.1,7.5-2.2,13-9.4,15.2c-3.1,1-4.8,2.5-5.7,5.7c-2.5,9-7.8,16-15.8,20.9c-2.8,1.7-4.8,4.1-6.2,7
	c-3,6.1-6,12.1-9.1,18.1c-4.3,8.5-11.1,13.5-20.8,13.8c-10.1,0.3-17.4-4.4-22.2-13.3c-3.6-6.7-7.3-13.4-10.9-20.2
	c-2.1-3.9-5.1-6.9-9.1-8.8c-3.6-1.8-7.3-3.5-10.8-5.5c-11.2-6.5-16.4-19.2-13-31.6c3.2-12,14.3-20.4,26.9-20.5c9.1,0,18.3,0,27.4,0
	c1.7,0,3.3,0.3,4.4,1.8c0.9,1.3,1.1,2.7,0.3,4.2c-0.9,1.7-2.3,2.3-4.1,2.3c-8.8,0-17.6,0-26.3,0c-6.1,0-11.6,1.7-15.9,6.4
	c-8.6,9.2-6.3,24.2,4.8,30.2c3,1.6,6.1,3.2,9.2,4.6c6.3,3,11,7.7,14.2,13.9c3.4,6.5,7,13,10.5,19.5c2.9,5.5,7.6,8.6,13.8,8.6
	c6.4,0,11.1-3.3,14-9.1c2.8-5.7,5.8-11.4,8.6-17.2c2.4-5,5.8-9,10.5-11.8c4.9-3,8.3-7.2,10.5-12.5c0.7-1.6,0.7-2.4-1.5-2.6
	c-4.9-0.5-8.8-3-11.4-7.1c-2.6-4.1-4.9-8.3-7.2-12.5c-1.4-2.5-0.7-5,1.4-6.2c2.2-1.2,4.4-0.5,6,2.1c2.2,3.7,4.3,7.5,6.4,11.2
	c2.3,3.8,5.4,5.1,9.6,3.8c3.1-0.9,6.2-2,9.2-3.1c2.6-0.9,3.9-2.9,3.5-5.2c-0.4-2.3-2.3-4.1-4.9-3.9c-5.4,0.5-8.3-2.2-10.2-6.8
	c-1-2.4-2.4-4.7-3.5-7.1c-1.1-2.4-0.4-4.7,1.7-5.8c2.2-1.1,4.4-0.4,5.7,2c1.3,2.4,2.5,4.8,3.7,7.3c0.6,1.3,1.5,1.8,2.9,1.8
	c8,0,16,0,24,0c2.2,0,2.4-1,1.9-2.9c-5.7-23.3-18.9-41-39.2-53.5c-7.2-4.4-14.9-7.4-23.1-9.5c-1.7-0.4-2.7-0.1-3.4,1.4
	c-3,5.6-7.8,8.7-13.8,10.5c-6,1.8-11.9,4.3-17.9,6.1c-4.5,1.4-7.3,3.9-8.6,8.6c-1.8,6.3-6.8,9.7-12.7,9.3c-0.7,0-1.4-0.2-2.1-0.3
	c-4-0.9-6.8,1.1-9.2,3.8c-1.2,1.3-1.2,2.9,0,4.3c1.2,1.3,2.7,1.7,4.3,0.8c1.6-0.9,3.1-2,4.6-3c4.8-3.2,10-4.9,15.8-4.8
	c6.5,0.1,13,0.1,19.5,0c4.7,0,8.1,2,10.1,6.2c0.8,1.8,2,2.4,3.9,2.4c2.5,0,5.1-0.3,7.6,0.3c5.4,1.3,8.9,5.8,8.3,10.9
	c-0.6,5.4-4.7,9-10.5,9.1c-2.5,0-4.9,0.1-7.4,0c-2.6-0.1-4.3-1.7-4.4-4c-0.1-2.3,1.8-4.1,4.4-4.2c1.9-0.1,3.9,0,5.8,0
	c1.4,0,3.2,0.3,3.2-1.8c0-1.9-1.8-1.6-3-1.6c-1.8-0.1-3.5,0-5.3,0c-4.4-0.2-7.8-2.1-9.7-6.1c-0.9-1.9-2.1-2.5-4.1-2.5
	c-5.6,0.1-11.2,0.2-16.9,0c-5.4-0.2-10.2,1.1-14.5,4.4c-2.7,2.1-5.6,3.8-9.3,3.8c-5.1-0.1-8.8-2.4-10.9-6.9c-2.1-4.7-1.4-9.2,2.1-13
	c4.5-4.8,9.7-7.7,16.6-6.3c3.4,0.7,4.6-0.2,5.6-3.6c2-6.8,6.2-11.1,13-13.3c7-2.2,13.9-4.8,20.9-7.2c1.8-0.6,3.5-1.3,4.7-2.8
	c0.4-0.5,1.2-1.1,1-1.8c-0.3-0.8-1.2-0.5-1.9-0.6c-17.7-1.3-34.3,2.5-49.3,11.8c-22.4,13.7-35.9,33.7-40.1,59.7
	c-1.9,12.1-1.2,24.2,2.3,36c0.2,0.8,0.5,1.7,0.7,2.5c0.5,2.6-0.6,4.6-2.7,5.3c-2.2,0.7-4.5-0.4-5.4-3c-1.8-5.5-3.1-11.2-3.7-16.9
	C220,199.1,226.3,175.9,242.4,155.7z M340,173.6c-1,0-2.1,0-3.1-0.2c-2.5-0.5-4-2.3-3.8-4.6c0.2-2.2,1.8-3.7,4.3-3.7
	c3.6-0.1,7.2,0,10.8,0c4.1,0,8.2-0.1,12.3,0c5.1,0.1,10.4,5.3,10.5,10.4c-0.1,1.6-1,3-2.9,3.7c-2,0.7-4,0.1-4.7-1.8
	c-1.5-3.9-4.4-3.8-7.6-3.8C350.5,173.7,345.2,173.6,340,173.6z M234.9,383.8c0,1.3-0.1,2.7-0.4,3.9c-0.5,2.2-2.1,3.2-4.3,3.1
	c-2.2-0.2-3.5-1.5-3.8-3.7c-0.1-0.8-0.1-1.6-0.1-2.4c0-7.6,0-15.3,0-22.9c0-5-1.1-9.7-3.5-14.1c-12-21.7-23.8-43.4-35.9-65
	c-4.7-8.4-7.3-17.1-7.1-26.8c0.3-16.2,0.1-32.5,0.1-48.7c0-7.7,5.1-11.7,12.7-10.1c7.7,1.7,13,8,13.5,15.8c1,14.7,2.1,29.4,3.1,44.1
	c0.1,1.4,0.7,2.5,1.4,3.6c2,3,4,6,6,9c1.7,2.6,1.4,5.1-0.7,6.5c-2.1,1.5-4.5,0.9-6.3-1.7c-2.2-3.3-4.4-6.6-6.6-9.9
	c-1.6-2.4-2.3-5.1-2.5-7.9c-0.9-13.5-1.8-26.9-2.8-40.4c-0.3-3.9-0.6-7.8-4.7-9.9c-3.5-1.9-4.9-1.1-4.9,2.9c0,8.2,0,16.3,0,24.5
	c0,7.8,0,15.6,0,23.4c0,7,1.7,13.5,5.2,19.6c12.3,22.1,24.3,44.3,36.6,66.4c3.5,6.3,4.9,12.9,4.9,19.9
	C234.9,370,234.9,376.9,234.9,383.8z M272.9,384.4c0,4.5-1.4,6.5-4.4,6.5c-2.9,0-4.2-2-4.2-6.6c0-9,0-17.9,0-26.9
	c0-6.1-0.2-12.1,0-18.2c0.6-15.8-2.6-30.6-9.2-44.9c-4.5-9.7-8.5-19.7-12.7-29.5c-0.2-0.5-0.4-1-0.7-1.4c-1.4-2.8-3.5-3.8-5.9-3
	c-2.2,0.8-3.4,3-2.8,5.8c1.2,5.5,2.5,10.9,3.8,16.4c2,8.5,4,17.1,5.9,25.6c0.1,0.5,0.2,1,0.3,1.6c0.3,2.6-1,4.5-3.2,5
	c-2.1,0.5-4.3-0.8-4.9-3.3c-1.2-4.8-2.3-9.7-3.4-14.6c-2.3-9.8-4.6-19.6-6.7-29.5c-1.4-6.7,2.1-13,8.4-15.1
	c6.3-2.2,13.1,0.6,16.1,6.9c1.6,3.4,3,6.9,4.5,10.4c4.7,11.3,10,22.3,14.1,33.8c3.5,9.8,5,19.9,5.1,30.2
	C273,350.5,272.9,367.4,272.9,384.4z M354.6,297.7c-6.1,2.9-12.5,5.1-19.1,6.6c-6.7,1.5-13.5,2.3-20.4,2.3
	c-13.5-0.1-26.5-2.9-38.8-8.5c-3-1.4-4.2-3.6-3.1-6c1.1-2.4,3.4-3.2,6.4-1.8c12.6,5.8,25.9,8.2,39.7,7.6c10.3-0.5,20.1-2.8,29.6-6.9
	c0.9-0.4,1.8-0.8,2.7-1.1c2.4-0.8,4.5,0.2,5.4,2.4C357.8,294.4,356.9,296.5,354.6,297.7z M390.2,314.8c-2.6-0.6-3.8-2.9-3-6.3
	c3.1-13.7,6.3-27.4,9.5-41c0.1-0.6,0.3-1.2,0.4-1.8c0.3-2.8-0.8-4.7-3.1-5.4c-2.3-0.7-4.4,0.3-5.5,2.8c-1.8,3.8-3.4,7.7-5,11.6
	c-4.4,10.5-9.3,20.8-13.2,31.6c-2.9,8-4.2,16.3-4.4,24.8c-0.1,8.8,0,17.6,0,26.3c0,0,0,0,0,0c0,9.1,0,18.3,0,27.4
	c0,1.1,0.1,2.3-0.4,3.4c-0.7,1.7-1.9,2.7-3.8,2.7c-2,0-3.3-1-4-2.8c-0.4-1.2-0.4-2.4-0.4-3.6c0-16.9,0-33.9,0-50.8
	c0.1-14.6,3.6-28.4,9.6-41.7c4.7-10.5,9.1-21.1,13.6-31.7c2.3-5.2,6.3-8.3,11.9-8.5c5.1-0.2,9.1,2.2,11.7,6.7
	c1.5,2.7,2.1,5.5,1.4,8.6c-3.3,14.5-6.7,29.1-10,43.6C394.7,313.8,392.6,315.4,390.2,314.8z M449.9,264.8
	c-1.6,10.3-7.5,18.8-12.3,27.7c-10,18.3-20.1,36.6-30.2,54.9c-2.5,4.6-3.7,9.4-3.7,14.6c0.1,8,0,16,0,24c0,2.3-0.8,4-3,4.7
	c-2.1,0.7-4.3-0.4-5.1-2.6c-0.1-0.3-0.2-0.7-0.2-1c-0.1-11.6-1.2-23.3,1-34.9c0.6-3.2,2.1-6.1,3.7-9c12.2-22.2,24.4-44.5,36.7-66.6
	c3.4-6.1,5.1-12.5,5.1-19.4c0-16.1,0-32.3,0-48.4c0-3.5-1.3-4.3-4.5-2.7c-2.7,1.3-4.4,3.4-4.7,6.5c-0.7,9-1.4,18-2.1,27
	c-0.4,5.9-0.8,11.7-1.2,17.6c-0.2,2.9-1.2,5.6-2.9,8.1c-2.1,3-4.1,6.2-6.2,9.2c-1.8,2.6-4.1,3.2-6.3,1.7c-2-1.4-2.3-3.8-0.8-6.3
	c1.1-1.8,2.2-3.6,3.5-5.2c3.1-3.7,4.2-8,4.5-12.8c0.8-13,1.8-25.9,2.6-38.8c0.5-8.4,6.7-15.1,15-16.1c5.2-0.6,8.8,1.7,11,6.4
	C449.9,223.7,449.9,244.2,449.9,264.8z"/>
</svg>
