<?xml version="1.0" encoding="utf-8"?>
<!-- Generator: Adobe Illustrator 25.4.1, SVG Export Plug-In . SVG Version: 6.00 Build 0)  -->
<svg version="1.1" id="Layer_1" xmlns="http://www.w3.org/2000/svg" xmlns:xlink="http://www.w3.org/1999/xlink" x="0px" y="0px"
	 viewBox="0 0 629.8 512" style="enable-background:new 0 0 629.8 512;" xml:space="preserve">
<style type="text/css">
	.st0{fill:#0F6FB3;}
</style>
<g>
	<g>
		<path class="st0" d="M364.2,306.6c-0.2-2.3-1.9-4-4-4.2c-2.1-0.1-4.2,1.4-4.5,3.6c-0.2,2.4-0.2,4.9,0,7.3c0.3,2.3,2.2,3.6,4.6,3.4
			c2.3-0.2,3.7-1.5,3.9-3.9c0.1-1,0-2.1,0-3.2C364.2,308.7,364.2,307.7,364.2,306.6z"/>
		<path class="st0" d="M325.1,318.3c-1,8,3.2,13.9,10.3,14.1c5.9,0.2,11.8,0,17.6,0c0.7,0,1.4,0.1,1.9-0.6c1.1-1.4,0-7.3-1.6-8.3
			c-2.7-1.7-4.7-4-5.6-7c-1.3-4.6-1.4-9.2,0-13.8c1.7-5.8,6.8-9.1,13.1-8.8c5.4,0.2,10.3,4.4,11.5,9.9c0.8,3.7,0.7,7.5,0.1,11.2
			c-0.6,3.3-2.2,6.2-5.1,7.7c-3.4,1.7-3.7,4.1-3.5,7.3c0.1,1.7,0.6,2.4,2.3,2.3c3-0.1,6,0,8.9,0c0,0,0,0,0,0c3.1,0,6.1,0.1,9.2,0
			c5.8-0.2,10.2-4.4,10.4-9.8c0.8-18.5-14.9-35.3-33.5-35.6C342.4,286.7,327.5,299.6,325.1,318.3z"/>
		<path class="st0" d="M392.9,338.9c-3.6,1.9-7.5,2.1-11.5,2.2c-14.2,0-28.4,0-42.6,0c-4.1,0-8.3-0.2-12-2.3c-1.2-0.6-1.8-0.4-1.8,1
			c0.1,4.5-0.2,8.9,0.5,13.4c3,19.3,22.4,32.5,41.5,28.5c14.6-3.1,28.7-16.6,27.8-36.3c0-1.7,0-3.5,0-5.4
			C394.8,338.4,394.2,338.2,392.9,338.9z"/>
		<path class="st0" d="M220.7,129.2c-3.2,0.1-6.5,0.2-9.7,0c-7-0.5-12.9,3.1-12.9,12.7c0.2,72.7,0.1,145.4,0.1,218.1
			c0,0.9,0,1.8,0,2.6c0.2,5.6,4.3,9.7,9.9,9.9c3.6,0.1,7.2,0,10.8,0c4.2,0,4.2,0,4.2-4.1c0-39.1,0-78.2,0-117.4
			c0-39.1,0-78.2,0-117.4c0-0.7-0.1-1.4,0-2.1C223.3,129.9,222.6,129.1,220.7,129.2z"/>
		<path class="st0" d="M399.4,163.6c7.3-0.1,6.3,1,6.4-6.5c0-0.4,0-0.7,0-1.1c0.1-1.6-0.7-2.2-2.2-2.2c-2.5,0-4.9,0.1-7.4,0
			c-2.5-0.2-3.4,0.6-3.3,3.2C392.9,163.6,392.8,163.6,399.4,163.6z"/>
		<path class="st0" d="M420.4,162.9c-1.2,0-2.5,0.1-3.7,0c-1.6-0.1-2.5,0.4-2.9,2.2c-1.1,4-3.9,6.3-8,6.9c-3,0.4-6,0.2-8.9,0.2
			c-4,0.1-4,0-4,3.9c0,18.7,0,37.4,0,56c0,1,0,2.1-0.2,3.1c-0.5,2-1.8,3.2-3.9,3.3c-2.1,0.1-3.4-1-4.1-3c-0.5-1.3-0.4-2.6-0.4-3.9
			c0-18.6,0-37.2,0-55.8c0-12.1,0-24.2,0-36.3c0-5.3-3-8.9-8.2-10c-1.4-0.3-2.8-0.3-4.2-0.3c-45.5,0-91,0-136.5,0
			c-3.9,0-3.9,0-3.9,4.1c0,39.2,0,78.4,0,117.6c0,39.5,0,78.9,0,118.4c0,2.1,0.2,3.3,2.9,3.3c29.1-0.1,58.2-0.1,87.3,0
			c2.2,0,2.7-0.4,1.4-2.4c-3.5-5.6-5.7-11.7-6.2-18.2c-0.9-10.6-0.7-21.2-0.2-31.8c0.5-12.7,5.9-23.3,15.7-31.5
			c5.8-4.9,12.5-8.1,20-9.3c2.2-0.3,3.3-1.2,3-3.6c-0.2-2.1,0-4.2-0.1-6.3c-0.4-12,9.1-21.1,20.6-20.8c13.8,0.4,27.7,0.1,41.6,0.1
			c1.6,0,3.2-0.1,4.7-0.3c5.7-0.9,9.4-5,9.4-10.8c0-21.1,0-42.3,0-63.4C431.5,167.7,426.9,163.1,420.4,162.9z M369.1,213
			c0,7.4-4.5,11.9-11.9,11.9c-32.9,0-65.8,0-98.7,0c-7.4,0-11.7-4.5-11.8-11.9c0-3.6,0-7.2,0-10.8c0-2.9,1.7-4.8,4.1-4.9
			c2.4-0.1,4.3,1.7,4.4,4.6c0.2,3.3,0.1,6.7,0.1,10c0,4.1,0.3,4.4,4.3,4.4c30.6,0,61.2,0,91.8,0c2,0,4,0,6.1,0c2,0,2.9-0.9,2.9-2.9
			c0-14,0-28.1,0-42.1c0-2.7-1.6-3.1-3.8-3.1c-13.6,0-27.2,0-40.8,0c-18.4,0-36.8,0-55.3,0c-5.2,0-5.2,0.1-5.2,5.4
			c0,2.8,0.1,5.6,0,8.4c-0.1,3.4-1.6,5.2-4.3,5.2c-2.8,0-4.2-1.9-4.3-5.4c0-3.7-0.1-7.4,0-11.1c0.1-6.3,4.5-10.7,10.8-10.7
			c16.8,0,33.5,0,50.3,0c16.4,0,32.8,0.2,49.2-0.1c7.1-0.1,12,4.7,12,11.9C369.1,185.5,369.2,199.2,369.1,213z M271.4,196.3
			c0.9-0.2,1.9-0.1,2.9-0.1c22.4,0,44.9,0,67.3,0c4.3,0,6.3,1.4,6.3,4.2c-0.1,2.8-2,4.1-6.2,4.1c-11.2,0-22.4,0-33.7,0
			c-11.4,0-22.8,0-34.2,0c-0.9,0-1.8,0.1-2.6-0.1c-2-0.5-3.2-1.9-3.2-4C268,198.2,269.2,196.7,271.4,196.3z M268,182.7
			c0.2-2.3,1.7-3.6,4-3.8c0.9-0.1,1.8-0.1,2.6-0.1c11.1,0,22.3,0,33.4,0c11.5,0,23,0,34.5,0c1.9,0,3.7,0.3,4.8,2.1
			c1.4,2.4,0.2,5.4-2.5,6.1c-1.3,0.3-2.6,0.4-3.9,0.4c-22,0-44,0-66,0c-1.1,0-2.3-0.1-3.4-0.3C269.1,186.6,267.9,185,268,182.7z"/>
		<path class="st0" d="M314.9,33.4C191.9,33.4,92.2,133,92.2,256s99.7,222.6,222.6,222.6S537.5,379,537.5,256S437.8,33.4,314.9,33.4
			z M440.1,237.2c-0.1,13.9-11.4,20.2-20.6,20c-14.4-0.4-28.8-0.1-43.1-0.1c-8.2,0-12.5,4.3-12.5,12.5c0,2.8-0.8,6,0.4,8.3
			c1.3,2.4,5,1.5,7.6,2.4c3.5,1.2,6.9,2.5,10.1,4.4c1.7,1,2.3,0.8,2.3-1.2c-0.1-3.2,0-6.3,0-9.5c0-0.9,0-1.8,0.1-2.6
			c0.4-2.7,1.9-4.1,4.3-4.1c2.4,0,4.1,1.7,4.2,4.5c0.1,5.3,0.2,10.5,0,15.8c-0.2,3.9,0.6,7.1,3.1,10.4c5.2,7.1,7.4,15.4,7.5,24.2
			c0.1,8,0,16,0,23.9c0,22.9-14.8,40.6-37.3,44.3c-11.3,1.8-21.8-0.9-31.2-7.5c-1.8-1.3-3.5-1.7-5.6-1.7c-39.7,0-79.4,0-119.2,0
			c-8.6,0-15.1-3.3-18.9-11.3c-1.3-2.8-1.7-5.7-1.7-8.7c0-73.5,0-147,0-220.4c0-9.9,4.8-16.1,14.8-19.6c58.1,0,116.1,0,174.2,0
			c6.1,2.1,10.8,5.6,13.2,11.9c1,2.8,1.2,5.6,1.2,8.5c0,3.7,0,3.7,3.8,3.7c2.5,0,4.9,0,7.4,0c5.2,0.1,8.4,2.4,9.8,7.4
			c0.4,1.5,1.3,1.9,2.6,1.9c2.6,0,5.3-0.3,7.9,0.3c9.1,1.8,15.6,9.5,15.7,19.2C440.2,195.1,440.3,216.1,440.1,237.2z"/>
	</g>
</g>
</svg>
