<?xml version="1.0" encoding="utf-8"?>
<!-- Generator: Adobe Illustrator 25.4.1, SVG Export Plug-In . SVG Version: 6.00 Build 0)  -->
<svg version="1.1" id="Layer_1" xmlns="http://www.w3.org/2000/svg" xmlns:xlink="http://www.w3.org/1999/xlink" x="0px" y="0px"
	 viewBox="0 0 629.8 512" style="enable-background:new 0 0 629.8 512;" xml:space="preserve">
<style type="text/css">
	.st0{fill:#33A6DF;}
</style>
<g>
	<g>
		<path class="st0" d="M346.9,133.3c-14.4-4.3-27.7-5.4-40.6-3.3c-20.9,3.3-38.4,13.1-52,29.1c-11.4,13.3-18,29-19.8,46.5
			c-0.6,5.7-0.5,11.5-0.5,17.1c0,2.5,0.1,5,0,7.5c0,3.1-0.8,5.8-2.4,8.4c-6,9.9-12,20-17.9,29.7l-2.4,4c-0.1,0.1-0.1,0.2-0.2,0.3
			c0.1,0,0.3,0,0.4,0c2.9,0,5.8,0,8.6,0c4.1,0,8.3,0,12.4,0c2.5,0,4.3,0.6,5.5,1.9c1.2,1.3,1.8,3.1,1.8,5.6c0,2-0.2,3.9-0.3,5.8
			c-0.1,0.8-0.1,1.5-0.2,2.3l-0.7,10c-0.5,6.5-0.9,13-1.3,19.5c-0.1,0.9-0.1,1.9-0.2,2.8c-0.2,2.8-0.4,5.8-0.4,8.6
			c0,3.2,1.2,6.1,3.5,8.1c2.2,2,5.1,2.9,8.1,2.6c8.6-0.8,17.2-1.7,26.7-2.8c0.8-0.1,1.5-0.1,2.1-0.1c2.3,0,3.9,0.5,5.1,1.6
			c1.5,1.4,2.3,3.6,2.3,6.9l0,6.9c0,9.4,0,19.1-0.1,28.7c0,1.3,0.2,1.6,0.3,1.7c0.1,0.1,0.4,0.3,1.7,0.3c11.7-0.1,23.5-0.1,35-0.1
			c4,0,7.9,0,11.9,0l11.7,0c11.5,0,23.5,0,35.2,0.1c0,0,0.1,0,0.1,0c1.2,0,1.5-0.2,1.5-0.3c0,0,0.3-0.3,0.2-1.5
			c-0.1-6.6-0.1-13.4-0.1-19.9c0-5.1,0-10.2,0-15.4c0-3.1,0.5-6.1,1.7-8.9c10-24.4,19-46.9,27.8-68.6c0.7-1.8,1.5-3.6,2.2-5.4
			c3.9-9.5,8-19.2,9-29.7c1.6-15.7-0.5-29.1-6.2-41C402.1,162.6,378.6,142.8,346.9,133.3z M384.8,175.4
			c-10.8,12.8-21.7,25.5-32.5,38.3c-4.3,5.1-8.4,10.2-12.8,15.3c-1.2,1.3-0.9,2,0.4,2.9c3.2,2.1,6.4,4.3,9.6,6.5
			c5.5,3.8,5.4,7.1-0.2,10.9c-17,11.4-34,22.7-51,34.1c-9.1,6.1-18.2,12.2-27.3,18.2c-0.8,0.5-1.6,1.1-2.5,1.5
			c-2.1,1-4.1,0.5-5.6-1.2c-1.5-1.7-1.8-3.8-0.4-5.7c2-2.7,4.1-5.4,6.3-8c13.2-15.6,26.4-31.2,39.6-46.8c1-1.2,1.1-2.1-0.3-3
			c-2-1.3-3.9-2.6-5.8-3.9c-1.3-0.9-2.7-1.8-4-2.7c-5.5-3.8-5.4-6.8,0.2-10.6c9.6-6.4,19.2-12.9,28.9-19.3
			c16.4-11,32.8-21.9,49.2-32.9c0.6-0.4,1.2-0.8,1.8-1.2c2.6-1.6,5.3-1.3,6.8,0.6C386.8,170.5,386.7,173.2,384.8,175.4z"/>
		<path class="st0" d="M314.9,33.4C191.9,33.4,92.2,133,92.2,256s99.7,222.6,222.6,222.6S537.5,379,537.5,256S437.8,33.4,314.9,33.4
			z M435.7,232.9c-1.1,12.1-5.3,23.2-9.8,34.4c-5.9,14.5-11.9,29.4-17.7,43.7c-4.1,10.1-8.1,20.1-12.2,30.2c-0.6,1.6-1,3.2-1,4.9
			c0,12.9,0,26.3,0,39.9c0,1.8-0.1,3.3-0.4,4.6c-0.6,2.9-2.7,4.7-5.7,4.9c-0.6,0-1.1,0.1-1.7,0.1c-0.2,0-0.4,0-0.6,0l-0.6,0
			c-35.2,0-70.4,0-105.6,0c-6.7,0-8.7-2.1-8.8-8.8l0-7.9c0-8.9,0-18.1,0-27.1c0-1-0.1-1.3-0.1-1.3c0,0-0.1,0-0.4,0
			c-0.2,0-0.5,0-0.9,0.1c-3.7,0.5-7.4,0.9-11.1,1.3c-3.6,0.4-7.2,0.8-10.8,1.2c-10.7,1.4-22.5-8.3-24.1-20c-0.7-5-0.2-10,0.2-14.8
			c0.2-2.3,0.5-4.6,0.5-6.9c0.3-6.2,0.8-12.6,1.2-18.7c0.2-2.3,0.4-4.6,0.5-6.9c0-0.1,0-0.2,0-0.2c-0.2,0-0.5,0-0.7,0l-0.3,0
			c-7.5,0-15.1,0-22.6,0c-1.2,0-2.5,0-3.7-0.2c-2.5-0.4-4.4-1.7-5.3-3.6c-0.9-1.8-0.7-4,0.5-6.2c1.8-3.2,3.8-6.5,5.6-9.6
			c0.7-1.1,1.4-2.3,2.1-3.4l3.7-6.1c4.5-7.5,9.1-15.2,13.7-22.7c1-1.6,1.4-3.1,1.4-5c0-1.2,0-2.4,0-3.6c-0.1-9.6-0.2-19.5,1.9-29.2
			c6.7-31.5,24.6-54.9,53.2-69.5c9.9-5,20.7-8.2,32.4-9.5c0.1,0,0.4-0.1,0.6-0.2c0.2-0.1,0.3-0.1,0.5-0.1l0.2-0.1l15.5,0
			c1.2,0.2,2.4,0.3,3.7,0.5c5.9,0.8,12,1.6,18,3.2c20.6,5.4,38.7,15.3,53.9,29.5c11.3,10.6,20.3,22.7,26.8,36.2
			C434.5,200.2,437.2,216,435.7,232.9z"/>
	</g>
</g>
</svg>
