<?xml version="1.0" encoding="utf-8"?>
<!-- Generator: Adobe Illustrator 25.4.1, SVG Export Plug-In . SVG Version: 6.00 Build 0)  -->
<svg version="1.1" id="Layer_1" xmlns="http://www.w3.org/2000/svg" xmlns:xlink="http://www.w3.org/1999/xlink" x="0px" y="0px"
	 viewBox="0 0 629.8 512" style="enable-background:new 0 0 629.8 512;" xml:space="preserve">
<style type="text/css">
	.st0{fill:#EE6B71;}
	.st1{fill:#FC6D22;}
	.st2{fill:#FFFFFF;}
</style>
<g>
	<path class="st0" d="M283.6,366.1l-28.4-8.5l-14.8,19.8l-14.8-19.8l-28.4,8.5c-5.6,1.7-9.4,6.7-9.4,12.6v4.5H293v-4.5
		C293,372.9,289.2,367.8,283.6,366.1z"/>
	<path class="st0" d="M300.5,166.3c-1.6,0-3.1,0-4.7,0c0,0,0,0,0,0c-1.5,0-2.9,0-4.4,0c-0.8,0-1,0.3-0.8,1c0.2,0.7,0.6,1.5,0.8,2.2
		c1.1,2.7,2.4,5.3,3.9,7.8c0.4,0.7,0.7,0.7,1.2,0c2.1-3,3.4-6.3,4.7-9.7C301.7,166.6,301.4,166.3,300.5,166.3z"/>
	<path class="st0" d="M338,173c-1.3,4.7-3,9.2-4.5,13.8c-0.3,0.9,0.1,1.3,1,1.3c2.2,0,4.5,0,6.7,0c1.7,0,1.8-0.2,1.2-1.8
		C340.9,181.9,339.4,177.5,338,173z"/>
	<path class="st0" d="M370.3,235l7.4-18.5h3c14.5,0,26.3-11.8,26.3-26.3c0-11.6-7.8-22-18.9-25.3l-2.9-0.8l-0.2-3
		c-1.4-18.1-16.8-32.3-35-32.3c-10.7,0-20.3,4.8-26.8,12.5l0,0l-6.7-5.6c-7-4.5-15-6.9-23.5-6.9c-17.6,0-33.4,10.7-40.3,26.5
		l-2.4,8.6v0c-0.4,0-0.8,0-1.2,0c-14.5,0-26.3,11.8-26.3,26.3s11.8,26.3,26.3,26.3h3l7.1,17.7l14.2-17.7h78.5L370.3,235z
		 M315.1,189.9c-0.2,1.2-0.9,2.3-1,3.5c-0.1,0.6-0.7,0.7-1.2,0.5c-5.3-1.7-10.7-3.5-15.2-6.9c-1-0.8-1.8-0.9-2.9-0.1
		c-3.4,2.5-7.2,4.2-11.2,5.5c-1.3,0.4-2.6,0.8-3.9,1.3c-1,0.4-1.5,0-1.7-0.9c-0.3-1-0.5-2-0.8-3c-0.2-0.8,0-1.1,0.8-1.4
		c4.4-1.4,8.8-2.7,12.7-5.4c1.5-1,1.5-1,0.5-2.6c-2.6-4-4.6-8.2-6-12.7c-0.4-1.2-1-1.7-2.3-1.6c-1.3,0.1-2.6,0-3.9,0
		c-0.9,0-1.4-0.3-1.3-1.3c0-1,0-2,0-2.9c0-0.8,0.4-1.2,1.1-1.3c1.2-0.2,2.5-0.1,3.7-0.1c3.2,0,6.5,0,9.7,0.1c1,0,1.5-0.4,1.4-1.4
		c-0.1-1.3,0-2.5,0-3.8c0-0.9,0.3-1.3,1.2-1.3c1,0,2,0,3.1,0c0.8,0,1.2,0.4,1.2,1.2c0,1.4,0,2.8,0,4.2c0,0.8,0.2,1.2,1.1,1.1
		c2.2-0.1,10.8-0.1,12.9-0.1c1.4,0,1.7,0.3,1.7,1.7c0,0.5,0,1,0,1.5c0,2.2-0.3,2.5-2.4,2.4c-1.2-0.1-2.4,0-3.7,0
		c-0.7,0-1.1,0.4-1.3,1.1c-0.9,2.9-2.1,5.8-3.4,8.6c-0.6,1.4-2.9,4.5-3.6,5.7c-0.4,0.6,0.3,0.9,0.7,1.1c2.8,1.9,5.9,3.4,9.1,4.5
		c1.4,0.5,2.8,1,4.2,1.4C315,188.8,315.2,189.2,315.1,189.9z M348.1,202.8c-1.3-0.5-1-2-1.4-3c-0.8-2.1-1.5-4.1-2.1-6.3
		c-0.3-1-0.9-1.4-1.9-1.4c-3.2,0-6.5,0.1-9.7-0.1c-0.9-0.1-1.2,0.5-1.4,1.2c-0.9,2.8-1.9,5.6-2.8,8.4c-0.3,1.1-0.9,1.5-1.9,1.4
		c-0.8-0.1-1.6,0-2.5,0c-0.7,0-1-0.4-0.7-1c1.3-3.9,2.6-7.8,4-11.6c1.3-3.7,2.6-7.5,3.8-11.3c1.1-3.5,2.4-7,3.6-10.4
		c0.2-0.5,0.5-0.7,1-0.7c0.5,0,1.1,0,1.6,0c0,0,0,0,0,0c0.5,0,0.9,0,1.4,0c2.2-0.3,2-0.1,2.7,1.9c3,8.7,5.9,17.4,8.9,26.1
		c0.7,1.9,1.3,3.9,2,5.8c0.4,1,0,1.3-0.9,1.2C350.5,202.9,349.2,203.2,348.1,202.8z"/>
	<path class="st0" d="M271,309.9v11.9c0,1.1-0.1,2.2-0.2,3.3c2.7-1.5,4.6-4.3,4.6-7.6C275.4,314.2,273.6,311.4,271,309.9z"/>
	<path class="st0" d="M369.3,299.9c9.5,0,18.7-2.8,26.5-8l3-2l5.1,5.1c3.2,3.2,7.4,4.9,11.9,4.9c0,0,0,0,0,0c3.2,0,6.2,0.8,8.8,2.3
		v-6.7c0-19.4-15.7-35.1-35.1-35.1c-19.4,0-35.1,15.7-35.1,35.1v6.8c2.6-1.5,5.6-2.4,8.8-2.4H369.3z"/>
	<path class="st0" d="M209.6,309.7c-0.7,0.4-1.4,0.8-1.9,1.4c-1.6,1.6-2.5,3.7-2.5,5.9c0,3.5,1.9,6.5,4.6,8
		c-0.1-1.1-0.2-2.1-0.2-3.2V309.7z"/>
	<path class="st0" d="M231.7,351.3l8.6,11.5l8.6-11.5c-2.7,0.8-5.6,1.3-8.6,1.3S234.4,352.1,231.7,351.3z"/>
	<path class="st0" d="M231,289.8l3,2c7.9,5.3,17.1,8,26.5,8h6.1c3.2,0,6.2,0.9,8.8,2.4v-6.8c0-19.4-15.7-35.1-35.1-35.1
		c-19.4,0-35.1,15.7-35.1,35.1v6.7c2.5-1.4,5.4-2.3,8.4-2.3c0,0,0,0,0,0c4.8,0,9.1-1.7,12.2-4.9L231,289.8z"/>
	<path class="st0" d="M240.3,343.7c12.1,0,21.9-9.8,21.9-21.9v-13.2h-1.7c-10,0-19.7-2.6-28.3-7.6l-0.1,0.1
		c-3.8,3.8-8.5,6.2-13.7,7.1v13.6C218.4,333.9,228.2,343.7,240.3,343.7z"/>
	<path class="st0" d="M422.1,311.1c-0.6-0.6-1.2-1-1.9-1.4v12.1c0,1.1-0.1,2.2-0.2,3.3c2.7-1.5,4.6-4.4,4.6-7.7
		C424.6,314.8,423.7,312.7,422.1,311.1z"/>
	<path class="st0" d="M432.7,366.1l-26.7-8c-1.9,5.6-6.4,9.8-12.2,11.3v13.8h48.3v-4.5C442.1,372.9,438.3,367.8,432.7,366.1z"/>
	<path class="st0" d="M398.2,352.5v-1.3c-2.8,0.8-5.7,1.3-8.8,1.3c-3,0-6-0.5-8.8-1.3v1.3c0,4.8,3.9,8.8,8.8,8.8
		C394.3,361.3,398.2,357.4,398.2,352.5z"/>
	<path class="st0" d="M371.9,347c-4.4-3.1-7.9-7.3-10.2-12.2c-2.7-0.2-5.1-1-7.3-2.3v22l17.5-5.3V347z"/>
	<path class="st0" d="M372.9,358.1l-26.7,8c-5.6,1.7-9.4,6.7-9.4,12.6v4.5h48.3v-13.8C379.4,368,374.8,363.7,372.9,358.1z"/>
	<path class="st0" d="M358.9,325.1c-0.1-1.1-0.2-2.2-0.2-3.3v-11.9c-2.6,1.5-4.4,4.3-4.4,7.6C354.4,320.7,356.2,323.6,358.9,325.1z"
		/>
	<path class="st0" d="M424.6,332.5c-2.2,1.3-4.7,2.1-7.3,2.3c-2.3,4.9-5.8,9.1-10.2,12.2v2.3l17.5,5.3V332.5z"/>
	<path class="st0" d="M411.4,308.2c-5.3-0.9-10-3.3-13.7-7.1l-0.1-0.1c-8.6,5-18.3,7.6-28.3,7.6h-1.7v13.2
		c0,12.1,9.8,21.9,21.9,21.9c12.1,0,21.9-9.8,21.9-21.9V308.2z"/>
	<path class="st1" d="M314.9,33.4C191.9,33.4,92.2,133,92.2,256s99.7,222.6,222.6,222.6S537.5,379,537.5,256S437.8,33.4,314.9,33.4z
		 M301.7,392H178.9v-13.3c0-9.8,6.3-18.2,15.6-21l28.2-8.5V347c-4.4-3.1-7.9-7.3-10.2-12.2c-9-0.8-16.1-8.2-16.1-17.4h0v-21.9
		c0-24.2,19.7-43.9,43.9-43.9c24.2,0,43.9,19.7,43.9,43.9v21.9v0c0,9.2-7.1,16.6-16.1,17.4c-2.3,4.9-5.8,9.1-10.2,12.2v2.3l28.2,8.5
		c9.3,2.8,15.6,11.2,15.6,21V392z M277.5,225.3l-20.9,26.2l-10.5-26.3c-17.9-1.5-32.1-16.6-32.1-35c0-17.3,12.6-31.7,29.2-34.6
		c7.2-21.1,27.3-35.6,49.8-35.6c10.7,0,21.2,3.3,30,9.4c7.5-5.9,16.8-9.4,27.1-9.4c21.7,0,40.2,16.2,43.4,37.5
		c13.3,5.2,22.4,18.2,22.4,32.7c0,18.3-14.1,33.4-32.1,35l-10.2,25.5l-25.4-25.4H277.5z M450.9,392H328v-13.3
		c0-9.8,6.3-18.2,15.6-21l1.9-0.6v-61.7c0-24.2,19.7-43.9,43.9-43.9c24.2,0,43.9,19.7,43.9,43.9v61.7l1.9,0.6
		c9.3,2.8,15.6,11.2,15.6,21V392z"/>
</g>
<path class="st1" d="M141.7,234c-4.8,18.7-14.4,67.1,7.1,120.5c6.9,17,20.4,50.6,54.1,72.5c42.5,27.6,89.8,18.9,143,9.2
	c55.1-10.1,92.3-16.9,114.4-48c13.4-18.8,12.2-56.1,9.2-129.7c-3.8-92.3-13.1-111.3-22.5-124.6c-21.8-31-52.6-43.6-66.4-49
	c-59.7-23.6-114-3.6-128.7,2c-14,5.4-73.6,28.3-99.1,89.9C143.6,199.4,141.7,220.2,141.7,234z"/>
<path class="st2" d="M319.4,175.8c-3.2,0-5.8,2.6-5.8,5.8s2.6,5.8,5.8,5.8s5.8-2.6,5.8-5.8S322.6,175.8,319.4,175.8z"/>
<path class="st2" d="M222.9,280.5c3.2,0,5.8-2.6,5.8-5.8s-2.6-5.8-5.8-5.8c-3.2,0-5.8,2.6-5.8,5.8S219.7,280.5,222.9,280.5z"/>
<path class="st2" d="M366,117.7c-52.4,0-95.3,36.1-98.7,81.6c-49.9,2.5-96.8,38.5-96.8,87.1c0,20.3,8,40,22.7,55.6
	c2.9,11.9-0.6,24.6-9.3,33.3c-1.7,1.7-2.2,4.2-1.3,6.3c0.9,2.2,3,3.6,5.4,3.6c16.6,0,32.6-6.5,44.5-18c11.6,3.9,26.7,6.3,40.5,6.3
	c52.4,0,95.3-36.1,98.7-81.6c12.2-0.5,24.8-2.8,34.9-6.2c11.9,11.5,27.9,18,44.5,18c2.4,0,4.5-1.4,5.4-3.6c0.9-2.2,0.4-4.7-1.3-6.3
	c-8.7-8.7-12.2-21.4-9.3-33.3c14.6-15.6,22.7-35.3,22.7-55.6C468.3,154.4,417.8,117.7,366,117.7z M272.9,362
	c-13.7,0-29.4-2.7-39.8-6.9c-2.2-0.9-4.8-0.3-6.4,1.5c-7,7.7-16.2,13-26.1,15.5c5.5-10.5,6.9-22.9,3.5-34.6
	c-0.3-0.9-0.8-1.8-1.4-2.5c-13.2-13.6-20.5-30.9-20.5-48.6c0-41,41.6-75.6,90.7-75.6c46.4,0,87.2,32.3,87.2,75.6
	C360.2,328.1,321,362,272.9,362z M436.2,253.6c-0.7,0.7-1.2,1.5-1.4,2.5c-3.3,11.7-1.9,24.1,3.5,34.6c-9.9-2.5-19.1-7.8-26.1-15.5
	c-1.6-1.8-4.2-2.4-6.4-1.5c-9.1,3.6-22,6.1-34.3,6.7c-1.7-22-12.7-42.7-31.4-58H416c3.2,0,5.8-2.6,5.8-5.8c0-3.2-2.6-5.8-5.8-5.8
	h-93.7c-13.2-6.7-28-10.6-43.3-11.5c3.3-39.1,41.1-70,87-70c49.2,0,90.7,34.6,90.7,75.6C456.7,222.7,449.4,240,436.2,253.6z"/>
<path class="st2" d="M319.4,268.9h-73.3c-3.2,0-5.8,2.6-5.8,5.8c0,3.2,2.6,5.8,5.8,5.8h73.3c3.2,0,5.8-2.6,5.8-5.8
	C325.3,271.5,322.7,268.9,319.4,268.9z"/>
<path class="st2" d="M319.4,303.8h-96.6c-3.2,0-5.8,2.6-5.8,5.8c0,3.2,2.6,5.8,5.8,5.8h96.6c3.2,0,5.8-2.6,5.8-5.8
	C325.3,306.4,322.7,303.8,319.4,303.8z"/>
<path class="st2" d="M416,175.8h-73.3c-3.2,0-5.8,2.6-5.8,5.8s2.6,5.8,5.8,5.8H416c3.2,0,5.8-2.6,5.8-5.8S419.2,175.8,416,175.8z"/>
</svg>
