<?xml version="1.0" encoding="utf-8"?>
<!-- Generator: Adobe Illustrator 25.4.1, SVG Export Plug-In . SVG Version: 6.00 Build 0)  -->
<svg version="1.1" id="Layer_1" xmlns="http://www.w3.org/2000/svg" xmlns:xlink="http://www.w3.org/1999/xlink" x="0px" y="0px"
	 viewBox="0 0 629.8 512" style="enable-background:new 0 0 629.8 512;" xml:space="preserve">
<style type="text/css">
	.st0{fill:#2FB9B8;}
</style>
<g>
	<g>
		<path class="st0" d="M223.4,271.8c3.6-7,7.2-14,10.9-21c0.8-1.4,1-2.8-0.5-4c-1.5-1.1-2.6-0.2-3.6,0.8c-1.7,1.7-3.3,3.5-5,5.2
			c-6.5,6.7-13,13.5-19.5,20.2c-2.4,2.4-4.8,2.7-6.9,0.9c-2.1-1.9-2-4.3,0.4-7c1.9-2.1,3.9-4.2,5.9-6.3c0.7-0.7,1.4-1.5,1.4-2.6
			c0-7,0-14,0-21.7c-6.3,6.1-12.1,11.7-17.9,17.3c-0.6,0.6-1.2,1.1-1.8,1.7c-7,7-7.9,15.7-2.3,23.9c4.3,6.5,8.7,12.9,13.1,19.3
			c2.5,3.6,3.8,7.6,3.7,12c0,2.5,0.1,5,0,7.5c-0.1,2.2,0.8,2.9,2.9,2.9c5.1-0.1,10.2-0.2,15.3,0c2.7,0.1,3.3-0.9,3.3-3.4
			c-0.2-6.6,0.1-13.1,2-19.5c1.3-4.3,0.3-8.7-2.6-12.4c-2.5-3.2-2.7-6.6-0.7-10.1C222.1,274.4,222.8,273.1,223.4,271.8z"/>
		<path class="st0" d="M427.7,240.9c-1.4-1.4-2.7-3-4-4.4c-0.2,0.2-0.5,0.3-0.7,0.5c0,7.1,0,14.2,0,21.3c0,1.1,0.8,1.8,1.5,2.5
			c2.2,2.4,4.5,4.7,6.6,7.1c1.6,1.9,1.5,3.9-0.2,5.8c-1.6,1.7-4,1.8-6,0.3c-0.4-0.3-0.8-0.7-1.2-1.1c-6.4-6.7-12.8-13.4-19.2-20.1
			c-1.9-1.9-3.7-3.9-5.7-5.7c-0.9-0.8-1.9-1.2-3-0.3c-1.1,0.8-1.5,1.9-0.9,3.2c0.3,0.7,0.6,1.3,1,2c4.1,7.9,8.2,15.8,12.3,23.7
			c1.8,3.5,1.9,6.7-0.5,9.9c-3.5,4.6-3.9,9.6-2.3,15c0.4,1.3,0.7,2.7,0.9,4c0.9,4.5,0.5,9.1,0.5,13.6c0,2.2,0.8,2.9,2.9,2.8
			c3.8-0.1,7.6,0,11.4,0c7.1,0,7.3,0,7-7.2c-0.3-6.7,1.5-12.5,5.5-17.9c4.1-5.5,7.8-11.3,11.6-17c5.3-8,4.2-17-2.7-23.7
			C437.5,250.5,432.6,245.7,427.7,240.9z"/>
		<path class="st0" d="M221.4,243.8c1.9-1.7,2.5-3.6,2.5-6.1c-0.1-18.2,0-36.3-0.1-54.5c0-5.4,0.6-4.9-4.9-4.9c-3.6,0-3.6,0-3.6,3.7
			c0,21.4,0,42.8,0,64.2c0,0.9,0,1.8,0,2.7c0.2,0.1,0.4,0.2,0.6,0.3C217.7,247.5,219.4,245.5,221.4,243.8z"/>
		<path class="st0" d="M405.6,239.4c0,0.9,0,1.9,0.7,2.6c2.4,2.4,4.9,4.8,7.8,7.6c0-1.6,0-2.5,0-3.5c0-20.7,0-41.3,0-62
			c0-6.4,1-5.6-5.8-5.8c-2,0-2.8,0.6-2.8,2.7C405.6,200.5,405.6,219.9,405.6,239.4z"/>
		<path class="st0" d="M319.3,258.9c0,4.2,2.2,6.6,6.2,6.6c21.5,0.1,43,0,64.5,0.1c1.8,0,2.4-0.5,1.4-2.3c-1.7-3.2-3.4-6.4-4.9-9.7
			c-3-6.5,0.3-13.8,7.2-15.7c2.3-0.6,2.8-1.7,2.8-3.9c-0.1-22.6,0-45.2,0-67.9c0-3.5-0.2-3.7-3.6-3.7c-18.4,0-36.7-0.1-55.1,0
			c-11.2,0-18.6,7.6-18.6,18.7c0,12.6,0,25.2,0,37.8C319.3,232.4,319.2,245.6,319.3,258.9z M375.4,250.6c-6.3,0-12.6,0-18.9,0
			c-6.2,0-12.4,0-18.6,0c-3.6,0-5.5-1.6-5.5-4.5c0-2.8,1.8-4.5,5.2-4.5c12.7-0.1,25.4-0.1,38.1,0c3.2,0,5.3,2,5.3,4.6
			C381,248.8,378.8,250.6,375.4,250.6z M332.3,224.5c0.1-2.7,2-4.2,5.5-4.2c6.3,0,12.6,0,18.9,0c6.2,0,12.4,0,18.6,0
			c3.4,0,5.4,1.6,5.6,4.2c0.2,2.6-1.9,4.8-5.3,4.8c-12.7,0.1-25.4,0.1-38.1,0C334,229.3,332.2,227.4,332.3,224.5z M337.3,177.5
			c6.4-0.1,12.8,0,19.2,0c6.2,0,12.4,0,18.6,0c3.5,0,5.7,1.6,5.8,4.3c0.1,2.7-2.2,4.7-5.7,4.8c-12.4,0-24.8,0.1-37.3,0
			c-3.9,0-5.9-1.9-5.6-4.9C332.5,179,334.3,177.5,337.3,177.5z M337.5,198.8c12.7-0.1,25.4-0.1,38.1,0c3.4,0,5.5,2.2,5.3,4.8
			c-0.2,2.6-2.2,4.2-5.6,4.2c-6.2,0-12.4,0-18.6,0c-6.3,0-12.6,0-18.9,0c-3.6,0-5.5-1.6-5.5-4.5
			C332.3,200.6,334.1,198.8,337.5,198.8z"/>
		<path class="st0" d="M394.8,274.5c-22.9,0.1-45.8,0.1-68.7,0.1c-3.5,0-6.6-0.8-9.4-2.8c-1.4-1.1-2.5-1.1-3.9,0
			c-2.8,2.1-5.9,2.9-9.4,2.9c-11.2-0.1-22.4,0-33.6,0c-11.6,0-23.2,0-34.8,0c-2.6,0-5.3,2.8-5.5,5.4c-0.1,2.1,2.2,3.7,5.1,3.7
			c20,0,40,0,60.1,0c5.2,0,9,1.8,10.9,6.9c0.5,1.4,1.4,2,2.9,2c4.2-0.1,8.3-0.1,12.5,0c1.4,0,2.3-0.4,2.8-1.8
			c1.9-5.5,6-7.2,11.5-7.1c19.9,0.1,39.9,0,59.8,0c1.3,0,2.7,0.3,3.5-1c0.8-1.2,1.9-2.3,0.9-4C398.3,276.9,398,274.5,394.8,274.5z"
			/>
		<path class="st0" d="M314.9,33.4C191.9,33.4,92.2,133,92.2,256s99.7,222.6,222.6,222.6S537.5,379,537.5,256S437.8,33.4,314.9,33.4
			z M452.1,284.7c-3.9,5.8-7.7,11.6-11.8,17.2c-2.2,3.1-3.4,6.3-3.1,10.1c0.2,2.2,0.1,4.4,0,6.7c0,1.4,0.4,2.2,2,2.3
			c6.3,0.7,8.6,3.3,8.7,9.5c0,6.4,0,12.8,0,19.2c0,5.7-3.1,8.8-8.8,8.8c-3.8,0-7.6,0-11.4,0c-3.2,0-5.1-1.6-5.2-4.2
			c-0.1-2.7,1.5-4.4,4.7-4.7c3-0.2,5.9-0.2,8.9-0.1c1.9,0,2.7-0.8,2.6-2.7c-0.1-4.7-0.1-9.5,0-14.2c0-1.9-0.7-2.7-2.6-2.7
			c-12,0-23.9,0-35.9,0c-2,0-2.6,0.8-2.6,2.7c0.1,4.7,0.1,9.5,0,14.2c0,1.9,0.8,2.7,2.6,2.6c3-0.1,5.9-0.1,8.9,0.1
			c3.6,0.2,5.4,2,5.2,4.8c-0.2,2.7-2.1,4.1-5.5,4.1c-3.9,0-7.8,0-11.7,0c-5-0.1-8.4-3-8.6-8c-0.2-7.2-0.2-14.5,0-21.7
			c0.1-4.4,2.8-7.2,7.2-7.9c1.8-0.3,2-1,2-2.5c0.2-8.1-1.6-16-2.7-23.9c-0.2-1.5-1.1-1.7-2.3-1.7c-2.7,0-5.4,0-8.1,0
			c-16.1,0-32.3,0.1-48.4-0.1c-2.6,0-4.2,0.5-5.3,3.2c-1.4,3.5-4.4,5.3-8.4,5.3c-5.2,0-10.4-0.1-15.6,0c-4.5,0.1-7.7-1.9-9.3-6
			c-0.7-1.9-1.8-2.5-3.8-2.5c-19,0.1-38,0.1-57,0c-2.1,0-3.1,0.6-2.9,2.8c0.1,0.8,0.1,1.7-0.2,2.5c-2.3,6.6-2,13.5-2.4,20.3
			c-0.1,1.5,0.1,2.3,1.9,2.6c4.7,0.7,7.2,3.7,7.3,8.4c0.1,7,0.1,13.9,0,20.9c-0.1,5.1-3.4,8.2-8.5,8.3c-5.7,0-11.3,0-17,0
			c-3.2,0-5.1-1.6-5.3-4.2c-0.1-2.5,1.6-4.5,4.8-4.7c4.6-0.3,9.3-0.3,13.9-0.2c2.3,0,3.1-0.8,3-3.1c-0.1-4.5-0.1-9.1,0-13.6
			c0-2-0.6-2.8-2.7-2.8c-11.9,0.1-23.7,0.1-35.6,0c-2.1,0-2.8,0.8-2.7,2.8c0.1,4.6,0.1,9.3,0,13.9c0,2,0.8,2.8,2.8,2.8
			c1.8,0,3.5,0.1,5.3,0.4c2.3,0.4,3.5,2.1,3.4,4.4c-0.1,2.3-1.5,4-3.8,4.1c-3.3,0.2-6.7,0.3-10,0c-3.8-0.3-6.6-3.5-6.7-7.4
			c-0.1-7.5-0.2-15,0-22.5c0.1-4.2,3.3-7.3,7.6-7.4c2.5-0.1,2.9-1.1,3.1-3.3c0.7-7.6-1-14.2-6-20.1c-3.2-3.8-5.6-8.3-8.6-12.3
			c-2.5-3.5-4.2-7.4-5.5-11.5c0-3.5,0-7,0-10.6c2.3-9.7,9.6-15.6,16.3-22c5.5-5.4,11-10.8,16.6-16.1c1.3-1.2,1.5-2.6,1.5-4.3
			c0-13.6,0.2-27.3-0.1-40.9c-0.2-6.9,4.3-10.8,10.5-10.8c6.8-0.1,6.8-0.1,6.8-7c0-6.2,2.6-8.7,8.8-8.7c8.1,0,16.1,0,24.2,0
			c3.1,0,5.1,1.7,5.1,4.3c0.1,2.4-1.4,4.1-4,4.4c-4.9,0.7-9.8,0.2-14.7,0.3c-2.3,0.1-4.6,0.1-7,0c-2.5-0.2-3.5,0.8-3.4,3.3
			c0.1,5,0,10,0,15c0,17.6,0,35.2,0,52.9c0,2.3,0.4,3.5,3,4.2c6.7,1.8,9.9,9.2,7,15.6c-1.4,3.1-3.1,6.1-4.6,9.2
			c-1.3,2.6-1.2,2.8,1.7,2.8c19.2,0,38.4,0,57.6,0c1.9,0,3.9,0,5.8,0c4.6-0.1,6.8-2.3,6.8-6.9c0-17.7,0-35.4,0-53.1
			c0-8.3,0-16.5,0-24.8c-0.1-10.3-7.5-17.9-17.8-18.1c-5-0.1-10,0-15-0.1c-1.4,0-2.8-0.1-4.1-0.4c-2.3-0.6-3.3-2.3-3.2-4.6
			c0.2-2.2,1.5-3.8,3.7-3.9c7.8-0.1,15.6-0.8,23.3,0.4c6.5,0.9,11.8,4.3,15.9,9.4c1.5,1.9,2.2,1.7,3.7-0.1
			c5.4-6.4,12.4-9.8,20.9-9.8c19.8,0,39.5,0,59.3,0c6.2,0,8.8,2.6,8.8,8.7c0,6.8,0,6.8,6.8,7c6.9,0.2,10.4,3.8,10.4,10.6
			c0,13.4,0.1,26.9,0,40.3c0,2.5,0.7,4.3,2.5,6.1c7.8,7.4,15.5,14.9,23.2,22.5C459.1,259.1,460.4,272.3,452.1,284.7z M254.3,241.6
			c12.3,0,24.7,0,37,0c2.5,0,4.9,0.5,5.6,3.5c0.8,3-1.3,5.5-4.8,5.6c-6.4,0.1-12.8,0-19.2,0c-6.2,0-12.4,0-18.6,0
			c-3.7,0-5.9-1.7-5.9-4.5C248.5,243.4,250.8,241.6,254.3,241.6z M248.5,224.5c0.2-2.6,2.2-4.2,5.6-4.2c6.3,0,12.6,0,18.9,0
			c6.2,0,12.4,0,18.6,0c3.5,0,5.3,1.5,5.5,4.2c0.2,2.9-1.6,4.8-5.2,4.8c-12.7,0.1-25.4,0.1-38.1,0
			C250.4,229.3,248.3,227.1,248.5,224.5z M291.9,207.8c-6.4,0-12.8,0-19.2,0c-6.2,0-12.4,0-18.6,0c-3.4,0-5.4-1.6-5.6-4.2
			c-0.2-2.6,1.9-4.8,5.3-4.8c12.8-0.1,25.6-0.1,38.4,0c3.3,0,5.1,2,4.9,4.8C296.9,206.2,295.1,207.8,291.9,207.8z M293.9,186.1
			c-1.1,0.3-2.4,0.4-3.6,0.4c-5.8,0-11.7,0-17.5,0c-5.9,0-11.9,0-17.8,0c-1.2,0-2.4,0-3.6-0.5c-1.9-0.8-3-2.3-2.9-4.3
			c0.1-2.2,1.4-3.6,3.6-4.1c0.8-0.2,1.7-0.2,2.5-0.2c12.2,0,24.5,0,36.7,0c0.7,0,1.5,0,2.2,0.1c2.1,0.5,3.4,1.8,3.6,4
			C297.2,184,296.2,185.6,293.9,186.1z"/>
	</g>
</g>
</svg>
