<?xml version="1.0" encoding="utf-8"?>
<!-- Generator: Adobe Illustrator 25.4.1, SVG Export Plug-In . SVG Version: 6.00 Build 0)  -->
<svg version="1.1" id="Layer_1" xmlns="http://www.w3.org/2000/svg" xmlns:xlink="http://www.w3.org/1999/xlink" x="0px" y="0px"
	 viewBox="0 0 629.8 512" style="enable-background:new 0 0 629.8 512;" xml:space="preserve">
<style type="text/css">
	.st0{fill:#92C129;}
</style>
<g>
	<g>
		<path class="st0" d="M414.6,338.7c0.1-1.8-0.7-2.4-2.4-2.4c-14.3,0-28.6,0-42.8,0c-1.8,0-2.7,0.7-2.6,2.5c0.1,1.9,0.1,3.8,0,5.7
			c-0.2,2.4,0.9,3.1,3.2,3c6.9-0.1,13.8,0,20.7,0c7.1,0,14.2-0.1,21.3,0c1.9,0,2.8-0.6,2.7-2.6C414.5,342.9,414.5,340.8,414.6,338.7
			z"/>
		<path class="st0" d="M414.6,318c0.1-1.8-0.5-2.6-2.4-2.6c-14.3,0-28.5,0-42.8,0c-1.8,0-2.7,0.6-2.6,2.5c0.1,1.8,0.1,3.6,0,5.4
			c-0.2,2.4,0.6,3.3,3.2,3.3c6.9-0.2,13.8-0.1,20.7-0.1c7.1,0,14.2,0,21.3,0c2,0,2.8-0.6,2.7-2.6C414.5,321.9,414.5,319.9,414.6,318
			z"/>
		<path class="st0" d="M248.1,333.2c-1.2-1.8-1.3-3,0-4.8c4.4-6.3,8.6-12.6,12.9-18.9c1-1.5,0.9-2.2-1.1-2.2c-3.2,0.1-6.5,0.1-9.7,0
			c-1.7,0-2.7,0.6-3.4,2c-1.7,3.2-3.6,6.4-5.4,9.6c-1.4,2.5-1.6,2.5-3,0.1c-1.9-3.2-3.8-6.5-5.7-9.8c-0.5-0.9-1-1.9-2.1-1.9
			c-4.4,0-8.9,0-13.8,0c0.7,1.1,1.1,1.9,1.6,2.6c4.1,6.1,8.1,12.3,12.3,18.4c1.4,2,1.3,3.3-0.1,5.2c-4.6,6.5-9,13.2-13.5,19.8
			c-1,1.5-1,2.2,1.1,2.1c3.4-0.1,6.8-0.1,10.2,0c1.5,0,2.5-0.5,3.2-1.9c1.9-3.5,3.9-6.9,5.9-10.3c0.4-0.8,0.7-1.9,1.7-2
			c1.1,0,1.4,1.3,1.9,2.1c1.9,3.3,3.9,6.7,5.7,10.1c0.8,1.4,1.8,2,3.4,2c3.4-0.1,6.8,0,10.2,0c0.7,0,1.6,0.4,2-0.4
			c0.4-0.7-0.4-1.3-0.8-1.9C257.2,346.6,252.7,339.8,248.1,333.2z"/>
		<path class="st0" d="M212.1,184.3c-0.1,2,0.8,2.6,2.7,2.6c5-0.1,10.1,0.1,15.1-0.1c2.5-0.1,3.3,0.9,3.2,3.3
			c-0.1,5,0,10.1-0.1,15.1c0,1.9,0.6,2.8,2.6,2.7c2.5-0.1,5-0.1,7.5,0c2,0.1,2.6-0.8,2.6-2.7c-0.1-4.9,0.1-9.9-0.1-14.8
			c-0.1-2.7,0.7-3.7,3.5-3.6c5,0.2,10.1,0,15.1,0.1c1.8,0,2.6-0.6,2.5-2.5c-0.1-2.4-0.1-4.9,0-7.3c0.1-2.2-0.6-3-2.9-3
			c-5.2,0.1-10.4,0-15.6,0.1c-1.8,0-2.6-0.7-2.6-2.5c0.1-2.7,0-5.4,0-8.1c0,0,0,0,0,0c0-2.8,0-5.6,0-8.3c0-1.5-0.6-2.1-2.1-2.1
			c-2.6,0.1-5.2,0.1-7.8,0c-2.3-0.1-2.9,0.8-2.9,3c0.1,4.9,0,9.9,0.1,14.8c0.1,2.4-0.7,3.4-3.2,3.3c-5-0.2-10.1,0-15.1-0.1
			c-1.9,0-2.8,0.5-2.7,2.6C212.2,179.3,212.2,181.8,212.1,184.3z"/>
		<path class="st0" d="M314.9,33.4C191.9,33.4,92.2,133,92.2,256s99.7,222.6,222.6,222.6S537.5,379,537.5,256S437.8,33.4,314.9,33.4
			z M195,136.5c10.2-10.6,22.9-16.5,37.6-18.2c0.7-0.1,1.4-0.2,2.1-0.4c3.1,0,6.1,0,9.2,0c6.1,0.8,12.3,1.8,18,4.2
			c21.9,9.1,35.2,25.2,39.3,48.6c6,33.8-18,67.3-53.6,72.1c-30.5,4.2-61.1-15.8-68.6-45.7C173.2,174,178.6,153.7,195,136.5z
			 M239.3,394c-35.8-0.1-62.7-29.3-62.5-63c0.2-34.6,28.1-62.4,62.8-62.3c34.6,0.1,62.8,28.1,62.6,62.6
			C301.9,366.6,274.1,394.1,239.3,394z M453,339c-1.4,7.1-3,14.1-6.4,20.5c-10.8,20.1-27.5,31.8-50.3,34.2
			c-29,3-56.4-15.1-65.2-42.8c-7.1-22.4-2.9-43,12.5-60.9c13.8-16,31.8-22.7,52.7-21.1c28.2,2.1,51.9,24.6,56.3,52.9
			c0.1,0.7,0.3,1.4,0.4,2.1C453,329,453,334,453,339z M453,188.1c-1.3,7.4-3.1,14.6-6.7,21.2c-10.2,18.9-25.8,30.3-47.1,33.4
			c-33,4.8-62.8-17.1-69.9-48.7c-6.7-29.6,10.4-61.3,38.8-71.8c5.9-2.2,11.9-3.3,18-4.1c3.1,0,6.1,0,9.2,0c0.5,0.1,1,0.3,1.6,0.3
			c22.5,2.7,39,14.3,49.7,34.2c3.4,6.4,5,13.4,6.4,20.5C453,178,453,183,453,188.1z"/>
		<path class="st0" d="M415.8,176.1c0-1.8-0.6-2.6-2.5-2.6c-15.2,0-30.3,0-45.5,0c-1.9,0-2.5,0.8-2.5,2.6c0.1,3,0.2,5.9,0,8.9
			c-0.2,2.5,0.9,3,3.1,3c7.4-0.1,14.7,0,22.1,0c7.5,0,15.1,0,22.6,0c2,0,2.7-0.7,2.7-2.7C415.7,182.2,415.7,179.2,415.8,176.1z"/>
	</g>
</g>
</svg>
