<?xml version="1.0" encoding="utf-8"?>
<!-- Generator: Adobe Illustrator 25.4.1, SVG Export Plug-In . SVG Version: 6.00 Build 0)  -->
<svg version="1.1" id="Iconos" xmlns="http://www.w3.org/2000/svg" xmlns:xlink="http://www.w3.org/1999/xlink" x="0px" y="0px"
	 viewBox="0 0 42 31" style="enable-background:new 0 0 42 31;" xml:space="preserve">
<style type="text/css">
	.st0{fill:#FFDE37;}
	.st1{fill:none;stroke:#FFDE37;stroke-linecap:round;stroke-linejoin:round;}
	.st2{fill:none;stroke:#FFDE37;stroke-width:0.35;stroke-linecap:round;stroke-miterlimit:10;}
</style>
<path class="st0" d="M20.9,8.4L20.9,8.4c0.2,0,0.4,0.2,0.4,0.5v16.4c0,0.3-0.2,0.5-0.4,0.5l0,0c-0.2,0-0.4-0.2-0.4-0.5V8.9
	C20.5,8.6,20.7,8.4,20.9,8.4z"/>
<path class="st0" d="M20.9,26.6L20.9,26.6c0.4,0,0.4,0.4,0.4,0.5v3.5c-0.1,0.6-0.4,0.5-0.4,0.5l0,0c-0.3,0-0.4-0.1-0.4-0.5V27
	C20.5,26.9,20.5,26.6,20.9,26.6z"/>
<path class="st1" d="M35.2,6.9l-3-0.6l-4.9-4.6c-0.5-0.5-1.3-0.5-1.8,0.1l0,0l0,0c-0.5,0.6-0.5,1.3,0,1.8l5.9,5.7l-0.7,6.1l-2.5,4.7
	c-0.4,0.8-0.4,1.8,0.1,2.6l2.8,4.6c0.4,0.6,1.2,0.9,1.9,0.5l0,0c0.7-0.4,0.9-1.2,0.6-1.9c0,0,0,0,0-0.1l-2.7-4.3l1.7-3.5l1,4.4
	c0.2,0.7,0.7,1.3,1.3,1.7l4.4,2.5c0.7,0.4,1.6,0.2,2-0.5V26l0,0c0.3-0.7,0.1-1.5-0.5-1.9l-4.3-2.6l-1.2-6.1l0.4-4.6l2.7,5.3
	c0.3,0.7,1.1,0.9,1.8,0.6l0,0l0,0c0.7-0.4,0.9-1.2,0.5-1.8l0,0l-3.6-6.6C36.8,7.6,36,7.1,35.2,6.9z"/>
<circle class="st1" cx="34.9" cy="3" r="2.5"/>
<circle class="st1" cx="8.9" cy="4.2" r="2.5"/>
<path class="st1" d="M7,7.6L4.5,5.9v-3c0-0.8-0.6-1.4-1.4-1.4l0,0c-0.8,0-1.4,0.6-1.4,1.4l0,0V6c0,0.8,0.4,1.5,1,2l4,3v4.7l-1.2,6.2
	l-4.3,2.6c-0.7,0.4-0.9,1.2-0.6,1.9l0,0c0.4,0.7,1.2,1,1.9,0.6c0,0,0,0,0.1,0L7,24.5c0.7-0.4,1.1-1,1.3-1.7l1-4.4l1.8,3.5L8.4,26
	c-0.4,0.7-0.2,1.5,0.4,2c0,0,0.1,0,0.1,0.1l0,0c0.7,0.4,1.5,0.1,1.9-0.5l2.8-4.6c0.5-0.8,0.5-1.8,0.1-2.6l-2.4-4.7V11l4-3.2
	c0.6-0.5,0.9-1.1,0.9-1.9V2.6c0-0.8-0.6-1.4-1.4-1.4l0,0l0,0c-0.8,0-1.4,0.6-1.4,1.4l0,0v3.2l-2.3,1.7C9.9,8.5,8.2,8.5,7,7.6z"/>
<path class="st2" d="M20.9,6.8c-1.7,0-3-1.3-3-3s1.3-3,3-3s3,1.3,3,3S22.6,6.8,20.9,6.8"/>
<path class="st2" d="M20.2,6.6c-1.5-1.1-2.1-3-1.5-4.8c0-0.1,0.1-0.1,0.2-0.1c0.3,0,0.5,0.1,0.6,0.3c0,0,0,0.1,0,0.1
	c-0.5,1.3,0,2.8,1.2,3.5c0,0,0.1,0.1,0.1,0.1c0,0.3-0.1,0.6-0.4,0.8"/>
<path class="st2" d="M19.8,1c0,0,0.8,0.2,1,0.7"/>
<path class="st2" d="M20.9,0.8c0.2,0.1,0.6,0.5,0.7,0.7"/>
<path class="st2" d="M22.6,1.3c-1,0.2-2,0.5-3,0.9"/>
<path class="st2" d="M23.5,2.3c0,0-1.1-0.3-4,1.3h-0.1"/>
<path class="st2" d="M19.6,4.6c1.5-0.1,3-0.5,4.3-1.2"/>
<path class="st2" d="M23.8,4.7l-3,1L22,5.3c-0.1,0.5,0,1-0.3,1.4"/>
<path class="st2" d="M22.8,5.1c0.1,0.3,0.1,0.8,0,1.1"/>
</svg>
