<svg id="Iconos" xmlns="http://www.w3.org/2000/svg" viewBox="0 0 32.28 44.78"><defs><style>.cls-1{font-size:10.93px;fill:#ff3737;font-family:CachetStd-Medium, Cachet Std;font-weight:500;}.cls-2,.cls-3{fill:none;}.cls-2,.cls-3,.cls-4{stroke:#ff3737;stroke-linecap:round;}.cls-2{stroke-linejoin:round;stroke-width:1.09px;}.cls-3,.cls-4{stroke-miterlimit:10;stroke-width:0.33px;}.cls-4{fill:#fff;}</style></defs><text class="cls-1" transform="translate(0 9.12)">R</text><path class="cls-2" d="M26.27,26.53l3.35,6.52a5.71,5.71,0,0,1,.64,2.63v8.11a1.91,1.91,0,0,1-1.91,1.9H28.3a2,2,0,0,1-2-1.95V35.23l-3.17-5.41-.78,4.75a9,9,0,0,1-1.05,3l-4,7a2.07,2.07,0,0,1-2.65.85h0a2.06,2.06,0,0,1-.93-2.91L18,35.16,19.4,26l-.66-4.25L15.63,24.3a3,3,0,0,1-4.09-.19L8.4,21a1.75,1.75,0,0,1,0-2.53h0a1.77,1.77,0,0,1,2.36,0L13.68,21l3.41-2.64L18.83,17a4.75,4.75,0,0,1,1.29-.74L35,10.7a1.78,1.78,0,0,1,2.3,1.08h0a1.78,1.78,0,0,1-1,2.24l-10.43,4.2Z" transform="translate(-6.88 -1.45)"/><circle class="cls-2" cx="14.43" cy="9.12" r="3.19"/><g id="Balón"><circle class="cls-3" cx="28.67" cy="3.79" r="3.45"/><path class="cls-4" d="M33.21,2.9a1,1,0,0,1,.73.37.19.19,0,0,1,0,.15,3.41,3.41,0,0,0,1.32,4.06.18.18,0,0,1,.09.13,1,1,0,0,1-.44.91.2.2,0,0,1-.23,0A4.7,4.7,0,0,1,33,3,.21.21,0,0,1,33.21,2.9Z" transform="translate(-6.88 -1.45)"/><path class="cls-4" d="M34.25,2.05s1.23.15,1.44.73" transform="translate(-6.88 -1.45)"/><path class="cls-4" d="M36.1,1.84a.84.84,0,0,1,.54.6" transform="translate(-6.88 -1.45)"/><path class="cls-4" d="M37.46,2.37a23.82,23.82,0,0,0-3.5,1" transform="translate(-6.88 -1.45)"/><path class="cls-4" d="M38.53,3.5S37.25,3.14,33.83,5l0,0" transform="translate(-6.88 -1.45)"/><path class="cls-4" d="M34.07,6.19S37.28,6,39,4.76" transform="translate(-6.88 -1.45)"/><path class="cls-4" d="M38.82,6.35,35.3,7.45l1.79-.56a3.16,3.16,0,0,1-.72,1.7" transform="translate(-6.88 -1.45)"/><path class="cls-4" d="M38,6.59a1.46,1.46,0,0,1-.14,1.16" transform="translate(-6.88 -1.45)"/></g></svg>