<?xml version="1.0" encoding="utf-8"?>
<!-- Generator: Adobe Illustrator 25.4.1, SVG Export Plug-In . SVG Version: 6.00 Build 0)  -->
<svg version="1.1" id="Iconos" xmlns="http://www.w3.org/2000/svg" xmlns:xlink="http://www.w3.org/1999/xlink" x="0px" y="0px"
	 viewBox="0 0 42.2 31.5" style="enable-background:new 0 0 42.2 31.5;" xml:space="preserve">
<style type="text/css">
	.st0{fill:none;stroke:#FF3737;stroke-width:1.0267;stroke-linecap:round;stroke-miterlimit:10;}
	.st1{fill:#FFFFFF;stroke:#FF3737;stroke-width:1.0267;stroke-linecap:round;stroke-miterlimit:10;}
</style>
<g id="Balón">
	<circle class="st0" cx="11.1" cy="15.7" r="10.6"/>
	<path class="st0" d="M3.9,8.5c0.7,0.1,1.8,0.3,2.3,1.1c0.1,0.1,0.1,0.3,0,0.5c-0.5,1.3-2.4,8.2,4.1,12.5c0.1,0.1,0.2,0.2,0.3,0.4
		c0.1,1.1-0.4,2.2-1.3,2.8c-0.2,0.2-0.5,0.2-0.7,0C6.9,24.6,0.1,19,3.4,9C3.3,8.6,3.6,8.5,3.9,8.5z"/>
	<path class="st0" d="M7.1,5.9c0,0,3.8,0.5,4.4,2.3"/>
	<path class="st0" d="M12.8,5.2c0.8,0.3,1.4,1,1.6,1.8"/>
	<path class="st0" d="M17,6.9c0,0-3.5,0.6-10.7,3"/>
	<path class="st0" d="M20.2,10.3c0,0-3.9-1.1-14.4,4.7l-0.2,0.1"/>
	<path class="st0" d="M6.6,18.6c0,0,9.8-0.7,15-4.4"/>
	<path class="st0" d="M21.1,19.1l-10.8,3.4l5.5-1.7c0,0,0,2.4-2.2,5.2"/>
	<path class="st1" d="M18.8,19.8c0,0,0.6,1.4-0.4,3.6"/>
</g>
<path class="st0" d="M22.2,5.3c0.8,1.8,1.5,3.5,2.3,5.3c1.1,2.5,0.8,4.8-1.1,6.9s-3.6,4.2-5.3,6.5c-0.6,0.8-1.5,1.1-2.3,1.6
	c-0.3,0.2-0.6,0.4-0.9,0.6c-1,0.6-1.3,1.9-0.7,2.9l0,0c1.2,1.9,3.1,2.4,5.1,1.1c1.4-0.9,2.8-1.4,4.3-1.8c2.1-0.7,4.1-1.8,5.8-3.1
	c1.4-1.1,2.9-1.7,4.7-1.8c1.9-0.1,3.6-0.9,5.3-1.9c2-1.1,2.7-3.6,1.9-5.7c-0.5-1.2-1.2-2.4-2.1-3.3c-2.2-2.1-3.7-4.5-4.6-7.4
	c-0.5-1.6-1-3.1-1.4-4.7"/>
<path class="st0" d="M33.7,14.2c0,0,1.8,0.4,0.8,2.7"/>
</svg>
