<?xml version="1.0" encoding="utf-8"?>
<!-- Generator: Adobe Illustrator 25.4.1, SVG Export Plug-In . SVG Version: 6.00 Build 0)  -->
<svg version="1.1" id="Iconos" xmlns="http://www.w3.org/2000/svg" xmlns:xlink="http://www.w3.org/1999/xlink" x="0px" y="0px"
	 viewBox="0 0 50 50" style="enable-background:new 0 0 50 50;" xml:space="preserve">
<style type="text/css">
	.st0{fill:none;stroke:#FFDE37;stroke-width:1.4;stroke-miterlimit:10;}
	.st1{fill:none;stroke:#00E9C5;stroke-width:1.4;stroke-linecap:round;stroke-miterlimit:10;}
</style>
<path class="st0" d="M1.8,18.3"/>
<path class="st0" d="M46,11.6"/>
<g id="Balón_00000103248076416948135470000003631581704413775508_">
	<circle class="st1" cx="25.1" cy="25.3" r="20.3"/>
	<path class="st1" d="M11.6,11.8c1.4,0,3.4,0.7,4.1,2v0.7c-0.7,2.7-4.7,15.5,7.4,23.6l0.7,0.7c0,2-0.7,4.1-2.7,5.4
		c-0.9,0.6-0.9,0.6-1.5,0.6c-3.4-2-16-13.4-9.9-32.3C10.2,11.8,10.9,11.8,11.6,11.8z"/>
	<path class="st1" d="M17,6.8c0,0,7.7,0.8,8.3,4.2"/>
	<path class="st1" d="M27.4,5.2c1.4,0.7,3.8,2.6,4.5,3.9"/>
	<path class="st1" d="M35.9,8.5c0,0-6.8,1.4-20.3,5.4"/>
	<path class="st1" d="M42.6,15.2c0,0-6.4-3-25.9,7.9l-2.2,1.3"/>
	<path class="st1" d="M16.3,30.7c0,0,18.9-1.4,28.4-8.1"/>
	<path class="st1" d="M44,32.1l-20.3,6.8l9.6-3.2c0,0,0.5,3.9-3.5,9.3"/>
	<path class="st1" d="M39.4,33.9c0,0,0.9,2.8-1.2,6.8"/>
</g>
</svg>
