<?xml version="1.0" encoding="utf-8"?>
<!-- Generator: Adobe Illustrator 25.4.1, SVG Export Plug-In . SVG Version: 6.00 Build 0)  -->
<svg version="1.1" id="Iconos" xmlns="http://www.w3.org/2000/svg" xmlns:xlink="http://www.w3.org/1999/xlink" x="0px" y="0px"
	 viewBox="0 0 23.7 32.6" style="enable-background:new 0 0 23.7 32.6;" xml:space="preserve">
<style type="text/css">
	.st0{fill:none;stroke:#FF3737;stroke-width:0.35;stroke-linecap:round;stroke-miterlimit:10;}
	.st1{fill:none;stroke:#FF3737;stroke-linecap:round;stroke-linejoin:round;}
	.st2{fill:none;stroke:#FF3737;stroke-width:0.9;stroke-linecap:round;stroke-linejoin:round;}
</style>
<g id="Balón">
	<circle class="st0" cx="20.4" cy="6.3" r="3.1"/>
	<path class="st0" d="M18.3,4.2c0.3,0,0.5,0.1,0.7,0.3c0,0,0,0.1,0,0.1c-0.5,1.4,0,2.9,1.2,3.7c0,0,0.1,0.1,0.1,0.1
		c0,0.3-0.1,0.6-0.4,0.8c-0.1,0.1-0.2,0.1-0.2,0c-1.6-1.1-2.2-3.2-1.5-5C18.1,4.2,18.2,4.2,18.3,4.2z"/>
	<path class="st0" d="M19.2,3.5c0,0,0.8,0.2,1,0.7"/>
	<path class="st0" d="M20.4,3.2C20.6,3.3,21,3.7,21.1,4"/>
	<path class="st0" d="M22.1,3.7C21.1,3.9,20,4.2,19,4.6"/>
	<path class="st0" d="M23.1,4.8c0,0-1.2-0.3-4.2,1.4h-0.1"/>
	<path class="st0" d="M19.1,7.2c1.6-0.1,3.1-0.5,4.4-1.3"/>
	<path class="st0" d="M23.4,7.3l-3.2,1l1.3-0.4c-0.1,0.6,0,1-0.4,1.4"/>
	<path class="st0" d="M22.3,7.7c0.1,0.4,0.1,0.8,0,1.1"/>
</g>
<path class="st1" d="M12.2,12.5v-2l7.4,4.2c0.6,0.4,1.5,0.2,1.9-0.4l0,0c0.4-0.6,0.2-1.4-0.4-1.7c0,0,0,0,0,0l-7.9-4.3
	c-1-0.5-2.2-0.7-3.2-0.4l-3.4,1C5.7,9,5.1,9.7,5.2,10.5l0,0c0,0.6,0.4,1.1,0.9,1.4l9.6,5.7c0.6,0.4,1.4,0.2,1.8-0.3l0,0
	c0.5-0.5,0.4-1.3-0.2-1.8c0,0-0.1,0-0.1-0.1L9,10.5"/>
<path class="st1" d="M12.2,16v1c0,0.4,0.1,0.9,0.4,1.2l2.7,4.4c0.4,0.6,0.6,1.3,0.6,2v6.1c0,0.8-0.8,1.5-1.8,1.5l0,0
	c-1,0-1.8-0.7-1.8-1.5v-6.4l-2.9-4.1l-0.7,3.6c-0.2,0.8-0.5,1.5-1,2.2L4,31.3c-0.5,0.7-1.5,1-2.4,0.6l0,0c-1-0.4-1.4-1.3-1-2.1
	c0-0.1,0.1-0.1,0.1-0.2l3.4-4.8c0.3-0.5,0.6-1,0.7-1.6l1.1-5.1C6,17.8,6,17.3,6,16.8l-0.8-6.3"/>
<circle class="st2" cx="8.8" cy="3.5" r="3.1"/>
</svg>
