<?xml version="1.0" encoding="utf-8"?>
<!-- Generator: Adobe Illustrator 25.4.1, SVG Export Plug-In . SVG Version: 6.00 Build 0)  -->
<svg version="1.1" id="Iconos" xmlns="http://www.w3.org/2000/svg" xmlns:xlink="http://www.w3.org/1999/xlink" x="0px" y="0px"
	 viewBox="0 0 32.3 44.8" style="enable-background:new 0 0 32.3 44.8;" xml:space="preserve">
<style type="text/css">
	.st0{fill:none;stroke:#FFDE37;stroke-linecap:round;stroke-linejoin:round;}
	.st1{fill:none;stroke:#FFDE37;stroke-width:0.37;stroke-linecap:round;stroke-miterlimit:10;}
	.st2{fill:#FFFFFF;stroke:#FFDE37;stroke-width:0.37;stroke-linecap:round;stroke-miterlimit:10;}
</style>
<path class="st0" d="M19.4,25.1l3.4,6.5c0.4,0.8,0.6,1.7,0.6,2.6v8.1c0,1.1-0.9,1.9-1.9,1.9h-0.1c-1.1,0-2-0.9-2-2v-8.5l-3.2-5.4
	l-0.8,4.8c-0.2,1.1-0.5,2.1-1,3l-4,7C9.9,44,8.7,44.4,7.8,44l0,0c-1-0.5-1.5-1.7-1-2.7c0-0.1,0.1-0.1,0.1-0.2l4.3-7.3l1.4-9.2
	l-0.7-4.2l-3.1,2.5c-1.2,1-3,0.9-4.1-0.2l-3.1-3.1c-0.7-0.7-0.7-1.8-0.1-2.5c0,0,0,0,0.1-0.1l0,0c0.7-0.6,1.7-0.6,2.4,0l2.9,2.5
	l3.4-2.6l1.7-1.4c0.4-0.3,0.8-0.6,1.3-0.7l14.9-5.6c0.9-0.3,1.9,0.1,2.3,1c0,0,0,0,0,0l0,0c0.3,0.9-0.1,1.9-1,2.2L19,16.8L19.4,25.1
	z"/>
<circle class="st0" cx="14.4" cy="9.1" r="3.2"/>
<path class="st1" d="M25.2,3.9c0-1.9,1.5-3.4,3.4-3.4C30.4,0.4,32,2,32,3.9s-1.5,3.4-3.4,3.4C26.7,7.3,25.2,5.8,25.2,3.9"/>
<path class="st1" d="M26.2,1.6c0.2,0,0.6,0.1,0.7,0.4C27,2,27,2,27,2.1c-0.2,0.4-0.8,2.6,1.3,4c0,0,0.1,0.1,0.1,0.1
	c0,0.4-0.1,0.7-0.4,0.9c-0.1,0.1-0.2,0.1-0.2,0c-0.6-0.4-2.6-2.3-1.7-5.4C26,1.6,26.1,1.5,26.2,1.6z"/>
<path class="st1" d="M27.1,0.8c0.1,0,1.1,0.1,1.3,0.7"/>
<path class="st1" d="M28.5,0.5c0.3,0.1,0.6,0.4,0.6,0.7"/>
<path class="st2" d="M30.4,1c0,0-1.1,0.2-3.4,0.9"/>
<path class="st1" d="M31.5,2.2c0,0-2.5-0.3-4.6,1.4l-0.1,0"/>
<path class="st1" d="M27.1,4.8c0,0,3.2-0.4,4.8-1.6"/>
<path class="st1" d="M31.7,5l-3.4,1.1l1.5-0.5c0,0,0.2,0.6-0.5,1.6"/>
<path class="st1" d="M30.8,5.3c0,0,0.2,0.5-0.1,1.2"/>
</svg>
