<?xml version="1.0" encoding="utf-8"?>
<!-- Generator: Adobe Illustrator 25.4.1, SVG Export Plug-In . SVG Version: 6.00 Build 0)  -->
<svg version="1.1" id="Iconos" xmlns="http://www.w3.org/2000/svg" xmlns:xlink="http://www.w3.org/1999/xlink" x="0px" y="0px"
	 viewBox="0 0 50 50" style="enable-background:new 0 0 50 50;" xml:space="preserve">
<style type="text/css">
	.st0{fill:none;stroke:#050B3D;stroke-linecap:round;stroke-linejoin:round;stroke-miterlimit:10;}
	.st1{fill:none;stroke:#050B3D;stroke-width:0.8983;stroke-linecap:round;stroke-linejoin:round;stroke-miterlimit:10;}
	.st2{fill:none;stroke:#050B3D;stroke-width:0.288;stroke-linecap:round;stroke-miterlimit:10;}
</style>
<path class="st0" d="M32.1,28.2l0-2.2l7.4,4.6c0.6,0.4,1.5,0.2,1.9-0.4l0,0c0.4-0.7,0.2-1.5-0.4-1.9L33,23.5c-1-0.6-2.2-0.7-3.2-0.4
	l-3.4,1c-0.8,0.2-1.3,1-1.3,1.8v0c0,0.6,0.3,1.2,0.9,1.6l9.6,6.3c0.6,0.4,1.4,0.3,1.8-0.3v0c0.5-0.6,0.4-1.5-0.3-2L28.8,26"/>
<path class="st0" d="M25.4,27.6l-2.8,0.6l-5.2,4.2c-0.7,0.5-1.4,0.9-2.3,1.1L7.8,35c-1,0.2-1.9-0.4-2.1-1.4l0,0
	c-0.2-1,0.4-1.9,1.4-2.1l7.7-1.6L19,26l-4.4,0.2c-1,0-1.9-0.1-2.9-0.4l-7-2.3c-0.9-0.3-1.5-1.3-1.3-2.2l0,0c0.2-1.1,1.4-1.7,2.5-1.4
	l7.3,2.4l7-0.4l10.4,0.9"/>
<circle class="st1" cx="31" cy="19.8" r="3.1"/>
<g id="Balón_00000103248076416948135470000003631581704413775508_">
	<circle class="st2" cx="43.3" cy="25.8" r="3"/>
	<path class="st2" d="M41.3,23.8c0.2,0,0.5,0.1,0.6,0.3c0,0,0,0.1,0,0.1c-0.1,0.4-0.7,2.3,1.1,3.5c0,0,0.1,0.1,0.1,0.1
		c0,0.3-0.1,0.6-0.4,0.8c-0.1,0-0.1,0-0.2,0c-0.5-0.3-2.4-1.9-1.5-4.7C41.1,23.8,41.2,23.8,41.3,23.8z"/>
	<path class="st2" d="M42.2,23.1c0,0,1.1,0.1,1.2,0.6"/>
	<path class="st2" d="M43.8,22.9c0.2,0.1,0.4,0.3,0.5,0.5"/>
	<path class="st2" d="M44.9,23.3c0,0-1,0.2-3,0.8"/>
	<path class="st2" d="M45.9,24.3c0,0-1.1-0.3-4,1.3l0,0"/>
	<path class="st2" d="M42,26.6c0,0,2.8-0.2,4.2-1.2"/>
	<path class="st2" d="M46.1,26.8l-3,0.9l1.5-0.5c0,0,0,0.7-0.6,1.5"/>
	<path class="st2" d="M45.4,27c0,0,0.2,0.4-0.1,1"/>
</g>
</svg>
