<?xml version="1.0" encoding="utf-8"?>
<!-- Generator: Adobe Illustrator 25.4.1, SVG Export Plug-In . SVG Version: 6.00 Build 0)  -->
<svg version="1.1" id="Iconos" xmlns="http://www.w3.org/2000/svg" xmlns:xlink="http://www.w3.org/1999/xlink" x="0px" y="0px"
	 viewBox="0 0 50 50" style="enable-background:new 0 0 50 50;" xml:space="preserve">
<style type="text/css">
	.st0{fill:#050B3D;}
	.st1{fill:none;stroke:#050B3D;stroke-width:0.2383;stroke-linecap:round;stroke-miterlimit:10;}
	.st2{fill:#FFFFFF;stroke:#050B3D;stroke-width:0.2383;stroke-linecap:round;stroke-miterlimit:10;}
	.st3{fill:none;stroke:#050B3D;stroke-linecap:round;stroke-linejoin:round;stroke-miterlimit:10;}
	.st4{fill:none;stroke:#050B3D;stroke-width:0.9469;stroke-linecap:round;stroke-linejoin:round;stroke-miterlimit:10;}
</style>
<path class="st0" d="M26.4,18.2L26.4,18.2c0.2,0,0.4,0.2,0.4,0.4v15.5c0,0.2-0.2,0.4-0.4,0.4h0c-0.2,0-0.4-0.2-0.4-0.4V18.6
	C26,18.4,26.2,18.2,26.4,18.2z"/>
<path class="st0" d="M26.4,35.7L26.4,35.7c0.2,0,0.4,0.2,0.4,0.4v6.7c0,0.2-0.2,0.4-0.4,0.4h0c-0.2,0-0.4-0.2-0.4-0.4v-6.7
	C26,35.9,26.2,35.7,26.4,35.7z"/>
<g id="Balón">
	<circle class="st1" cx="26.4" cy="12" r="2.5"/>
	<path class="st2" d="M28.1,10.4c-0.2,0-0.4,0.1-0.5,0.3c0,0,0,0.1,0,0.1c0.1,0.3,0.6,1.9-0.9,2.9c0,0-0.1,0.1-0.1,0.1
		c0,0.3,0.1,0.5,0.3,0.7c0,0,0.1,0,0.2,0c0.4-0.3,2-1.6,1.2-3.9C28.2,10.4,28.2,10.4,28.1,10.4z"/>
	<path class="st2" d="M27.3,9.8c0,0-0.9,0.1-1,0.5"/>
	<path class="st2" d="M26,9.6c-0.2,0.1-0.3,0.2-0.4,0.4"/>
	<path class="st2" d="M25.1,10c0,0,0.8,0.1,2.5,0.7"/>
	<path class="st2" d="M24.3,10.8c0,0,0.9-0.3,3.4,1.1l0,0"/>
	<path class="st2" d="M27.5,12.7c0,0-2.3-0.2-3.5-1"/>
	<path class="st2" d="M24.1,12.8l2.5,0.8l-1.3-0.4c0,0,0,0.5,0.5,1.2"/>
	<path class="st2" d="M24.6,13c0,0-0.1,0.3,0.1,0.8"/>
</g>
<path class="st3" d="M40.7,13.8l-3-0.6l-4.9-4.6c-0.5-0.5-1.4-0.4-1.8,0.1l0,0c-0.5,0.5-0.4,1.3,0.1,1.8l5.9,5.7l-0.7,6.1L33.8,27
	c-0.4,0.8-0.4,1.8,0.1,2.6l2.8,4.6c0.4,0.6,1.2,0.9,1.9,0.5l0,0c0.7-0.4,1-1.3,0.5-2l-2.7-4.3l1.8-3.5l1,4.4
	c0.2,0.7,0.6,1.4,1.3,1.7l4.4,2.5c0.7,0.4,1.6,0.1,2-0.6v0c0.3-0.7,0.1-1.5-0.6-1.9L42,28.5l-1.1-6.1l0.4-4.6l2.7,5.3
	c0.3,0.7,1.2,0.9,1.8,0.6l0,0c0.7-0.3,0.9-1.2,0.5-1.8l-3.6-6.6C42.3,14.5,41.5,13.9,40.7,13.8z"/>
<circle class="st4" cx="40.4" cy="9.8" r="2.5"/>
<circle class="st4" cx="14.4" cy="11.1" r="2.5"/>
<path class="st3" d="M12.4,14.5L10,12.7v-3c0-0.8-0.6-1.4-1.4-1.4h0c-0.8,0-1.4,0.6-1.4,1.4v3.1c0,0.8,0.4,1.6,1,2l4,3v4.7L11,28.7
	l-4.3,2.6c-0.6,0.4-0.9,1.2-0.6,1.9l0,0c0.4,0.7,1.3,1,2,0.6l4.4-2.5c0.7-0.4,1.1-1,1.3-1.7l1-4.4l1.8,3.5l-2.7,4.3
	c-0.4,0.7-0.2,1.6,0.5,2h0c0.7,0.4,1.5,0.1,1.9-0.5l2.8-4.6c0.5-0.8,0.5-1.8,0.1-2.6l-2.4-4.7v-4.7l4-3.2c0.6-0.5,0.9-1.1,0.9-1.9
	V9.5c0-0.8-0.6-1.4-1.4-1.4h0c-0.8,0-1.4,0.6-1.4,1.4v3.3l-2.3,1.7C15.5,15.4,13.7,15.4,12.4,14.5z"/>
</svg>
