<?xml version="1.0" encoding="utf-8"?>
<!-- Generator: Adobe Illustrator 25.4.1, SVG Export Plug-In . SVG Version: 6.00 Build 0)  -->
<svg version="1.1" id="Iconos" xmlns="http://www.w3.org/2000/svg" xmlns:xlink="http://www.w3.org/1999/xlink" x="0px" y="0px"
	 viewBox="0 0 50 50" style="enable-background:new 0 0 50 50;" xml:space="preserve">
<style type="text/css">
	.st0{fill:#050B3D;}
	.st1{fill:none;stroke:#050B3D;stroke-width:0.2383;stroke-linecap:round;stroke-miterlimit:10;}
	.st2{fill:#FFFFFF;stroke:#050B3D;stroke-width:0.2383;stroke-linecap:round;stroke-miterlimit:10;}
	.st3{fill:none;stroke:#050B3D;stroke-linecap:round;stroke-linejoin:round;stroke-miterlimit:10;}
	.st4{fill:none;stroke:#050B3D;stroke-width:0.9469;stroke-linecap:round;stroke-linejoin:round;stroke-miterlimit:10;}
</style>
<path class="st0" d="M32,18.4L32,18.4c0.2,0,0.4,0.2,0.4,0.4v15.5c0,0.2-0.2,0.4-0.4,0.4h0c-0.2,0-0.4-0.2-0.4-0.4V18.8
	C31.6,18.6,31.8,18.4,32,18.4z"/>
<path class="st0" d="M32,35.9L32,35.9c0.2,0,0.4,0.2,0.4,0.4v6.7c0,0.2-0.2,0.4-0.4,0.4h0c-0.2,0-0.4-0.2-0.4-0.4v-6.7
	C31.6,36.1,31.8,35.9,32,35.9z"/>
<g id="Balón">
	<circle class="st1" cx="28.5" cy="12.4" r="2.5"/>
	<path class="st2" d="M26.8,10.7c0.2,0,0.4,0.1,0.5,0.3c0,0,0,0.1,0,0.1c-0.1,0.3-0.6,1.9,0.9,2.9c0,0,0.1,0.1,0.1,0.1
		c0,0.3-0.1,0.5-0.3,0.7c0,0-0.1,0-0.2,0c-0.4-0.3-2-1.6-1.2-3.9C26.7,10.7,26.8,10.7,26.8,10.7z"/>
	<path class="st2" d="M27.6,10.1c0,0,0.9,0.1,1,0.5"/>
	<path class="st2" d="M28.9,9.9c0.2,0.1,0.3,0.2,0.4,0.4"/>
	<path class="st2" d="M29.9,10.3c0,0-0.8,0.1-2.5,0.7"/>
	<path class="st2" d="M30.6,11.1c0,0-0.9-0.3-3.4,1.1l0,0"/>
	<path class="st2" d="M27.5,13c0,0,2.3-0.2,3.5-1"/>
	<path class="st2" d="M30.8,13.2L28.3,14l1.3-0.4c0,0,0,0.5-0.5,1.2"/>
	<path class="st2" d="M30.3,13.3c0,0,0.1,0.3-0.1,0.8"/>
</g>
<path class="st3" d="M15.3,14.1l3-0.6l4.9-4.6c0.5-0.5,1.4-0.4,1.8,0.1l0,0c0.5,0.5,0.4,1.3-0.1,1.8l-5.9,5.7l0.7,6.1l2.4,4.7
	c0.4,0.8,0.4,1.8-0.1,2.6l-2.8,4.6c-0.4,0.6-1.2,0.9-1.9,0.5l0,0c-0.7-0.4-1-1.3-0.5-2l2.7-4.3l-1.8-3.5l-1,4.4
	c-0.2,0.7-0.6,1.4-1.3,1.7l-4.4,2.5c-0.7,0.4-1.6,0.1-2-0.6l0,0c-0.3-0.7-0.1-1.5,0.6-1.9l4.3-2.6l1.1-6.1l-0.4-4.6L12,23.4
	c-0.3,0.7-1.2,0.9-1.8,0.6l0,0c-0.7-0.3-0.9-1.2-0.5-1.8l3.6-6.6C13.7,14.8,14.4,14.3,15.3,14.1z"/>
<circle class="st4" cx="15.6" cy="10.2" r="2.5"/>
</svg>
