<?xml version="1.0" encoding="utf-8"?>
<!-- Generator: Adobe Illustrator 25.4.1, SVG Export Plug-In . SVG Version: 6.00 Build 0)  -->
<svg version="1.1" id="Iconos" xmlns="http://www.w3.org/2000/svg" xmlns:xlink="http://www.w3.org/1999/xlink" x="0px" y="0px"
	 viewBox="0 0 50 50" style="enable-background:new 0 0 50 50;" xml:space="preserve">
<style type="text/css">
	.st0{fill:none;stroke:#050B3D;stroke-width:0.288;stroke-linecap:round;stroke-miterlimit:10;}
	.st1{fill:none;stroke:#050B3D;stroke-linecap:round;stroke-linejoin:round;stroke-miterlimit:10;}
	.st2{fill:none;stroke:#050B3D;stroke-width:0.8983;stroke-linecap:round;stroke-linejoin:round;stroke-miterlimit:10;}
</style>
<g id="Balón">
	<circle class="st0" cx="32.7" cy="13.7" r="3"/>
	<path class="st0" d="M30.7,11.7c0.2,0,0.5,0.1,0.6,0.3c0,0,0,0.1,0,0.1c-0.1,0.4-0.7,2.3,1.1,3.5c0,0,0.1,0.1,0.1,0.1
		c0,0.3-0.1,0.6-0.4,0.8c-0.1,0-0.1,0-0.2,0c-0.5-0.3-2.4-1.9-1.5-4.7C30.5,11.7,30.6,11.7,30.7,11.7z"/>
	<path class="st0" d="M31.6,11c0,0,1.1,0.1,1.2,0.6"/>
	<path class="st0" d="M33.2,10.8c0.2,0.1,0.4,0.3,0.5,0.5"/>
	<path class="st0" d="M34.3,11.2c0,0-1,0.2-3,0.8"/>
	<path class="st0" d="M35.3,12.2c0,0-1.1-0.3-4,1.3l0,0"/>
	<path class="st0" d="M31.4,14.5c0,0,2.8-0.2,4.2-1.2"/>
	<path class="st0" d="M35.5,14.7l-3,0.9l1.5-0.5c0,0,0,0.7-0.6,1.5"/>
	<path class="st0" d="M34.8,14.9c0,0,0.2,0.4-0.1,1"/>
</g>
<path class="st1" d="M24.2,20.2l0-2.2l7.4,4.6c0.6,0.4,1.5,0.2,1.9-0.4l0,0c0.4-0.7,0.2-1.5-0.4-1.9l-7.9-4.8
	c-1-0.6-2.2-0.7-3.2-0.4l-3.4,1c-0.8,0.2-1.3,1-1.3,1.8v0c0,0.6,0.3,1.2,0.9,1.6l9.6,6.3c0.6,0.4,1.4,0.3,1.8-0.3l0,0
	c0.5-0.6,0.4-1.5-0.3-2L20.9,18"/>
<path class="st1" d="M24.2,23.6v2.9l3.1,6c0.4,0.7,0.6,1.6,0.6,2.4v7.4c0,1-0.8,1.8-1.8,1.8h0c-1,0-1.8-0.8-1.8-1.8v-7.8l-2.9-5
	l-0.7,4.4c-0.2,1-0.5,1.9-1,2.7L16,43.1c-0.5,0.9-1.5,1.2-2.4,0.8h0c-1-0.5-1.4-1.7-0.9-2.7l3.9-6.7l1.4-8.1l-0.3-7.1"/>
<circle class="st2" cx="21.7" cy="10.2" r="3.1"/>
</svg>
