<?xml version="1.0" encoding="utf-8"?>
<!-- Generator: Adobe Illustrator 25.4.1, SVG Export Plug-In . SVG Version: 6.00 Build 0)  -->
<svg version="1.1" id="Iconos" xmlns="http://www.w3.org/2000/svg" xmlns:xlink="http://www.w3.org/1999/xlink" x="0px" y="0px"
	 viewBox="0 0 46.9 22.4" style="enable-background:new 0 0 46.9 22.4;" xml:space="preserve">
<style type="text/css">
	.st0{fill:none;stroke:#050B3D;stroke-linecap:round;stroke-linejoin:round;stroke-miterlimit:10;}
	.st1{fill:none;stroke:#050B3D;stroke-width:0.35;stroke-linecap:round;stroke-miterlimit:10;}
</style>
<path class="st0" d="M32.9,14.3v-2.5l8.4,5.2c0.7,0.5,1.7,0.2,2.1-0.5l0,0c0.5-0.8,0.2-1.7-0.5-2.1l-9-5.4c-1.1-0.7-2.5-0.8-3.6-0.5
	l-3.8,1.1c-0.9,0.2-1.5,1.1-1.5,2l0,0c0,0.7,0.3,1.4,1,1.8l10.8,7.1c0.7,0.5,1.6,0.3,2-0.3l0,0c0.6-0.7,0.5-1.7-0.3-2.3l-9.4-6.2"/>
<path class="st0" d="M25.3,13.6l-2.5,0.5c-0.5,0.1-0.9,0.3-1.2,0.6L16.3,19c-0.8,0.6-1.6,1-2.6,1.2l-8.2,1.7
	c-1.1,0.2-2.1-0.5-2.4-1.6l0,0c-0.2-1.1,0.5-2.1,1.6-2.4l8.7-1.8l4.4-4.1c0.1-0.1,0-0.3-0.1-0.3l-4.5,0.2c-1.1,0-2.1-0.1-3.3-0.5
	L2,8.8C1,8.5,0.3,7.3,0.5,6.3l0,0c0.2-1.1,1.6-1.7,2.8-1.4l7,2.3c0.8,0.3,1.6,0.4,2.5,0.3l5.3-0.3c0.8,0,1.6-0.2,2.8-0.3
	c0.6-0.1,1.4-0.2,1.6-0.3L24,6.3c1.1-0.2,3,0.1,4.6,0.6l4.2,1.5"/>
<circle class="st0" cx="33.2" cy="3.7" r="3.2"/>
<path class="st1" d="M43.5,12.5c-1.8,0-3.2-1.4-3.2-3.2S41.8,6,43.5,6c1.8,0,3.2,1.4,3.2,3.2S45.3,12.5,43.5,12.5"/>
<path class="st1" d="M42.7,12.3c-1.6-1.2-2.3-3.3-1.6-5.1c0-0.1,0.1-0.1,0.2-0.1c0.3,0,0.5,0.1,0.7,0.3v0.1c-0.5,1.4,0,3,1.2,3.8
	l0.1,0.1c0,0.3-0.1,0.7-0.4,0.8"/>
<path class="st1" d="M42.3,6.3c0,0,0.8,0.2,1,0.7"/>
<path class="st1" d="M43.5,6c0.3,0.1,0.7,0.5,0.7,0.8"/>
<path class="st1" d="M45.3,6.6c-1.1,0.2-2.2,0.5-3.3,0.9"/>
<path class="st1" d="M46.3,7.6c0,0-1.2-0.3-4.3,1.4h-0.1"/>
<path class="st1" d="M42.2,10.1c1.6-0.1,3.2-0.6,4.6-1.3"/>
<path class="st1" d="M46.6,10.3l-3.3,1l1.3-0.4c-0.1,0.6,0,1-0.4,1.5"/>
<path class="st1" d="M45.5,10.6c0.1,0.4,0.1,0.8,0,1.2"/>
</svg>
