<?xml version="1.0" encoding="utf-8"?>
<!-- Generator: Adobe Illustrator 26.5.0, SVG Export Plug-In . SVG Version: 6.00 Build 0)  -->
<svg version="1.1" id="Capa_1" xmlns="http://www.w3.org/2000/svg" xmlns:xlink="http://www.w3.org/1999/xlink" x="0px" y="0px"
	 viewBox="0 0 16.4 22" style="enable-background:new 0 0 16.4 22;" xml:space="preserve">
<style type="text/css">
	.st0{fill:#050C44;}
</style>
<g transform="translate(-64.8)">
	<path class="st0" d="M78.1,3.9c0.1-0.9,0.2-1.7,0.4-2.6h1.8V0H65.8v1.3h1.8C67.8,2.1,67.9,3,68,3.9h-3.2v3.2c0,1.5,1.1,2.9,2.6,3.2
		c0.2,2.1,1.6,3.9,3.5,4.7v2.8h-0.7c-0.3,0-0.5,0.1-0.7,0.3L68.5,19c-0.2,0.2-0.3,0.5-0.3,0.7v0.9h-1V22h11.7v-1.3h-1v-0.9
		c0-0.3-0.1-0.5-0.3-0.7L76.5,18c-0.2-0.2-0.5-0.3-0.7-0.3h-0.7v-2.8c2-0.8,3.3-2.6,3.5-4.7c1.5-0.3,2.6-1.6,2.6-3.2V3.9H78.1z
		 M67.6,9c-0.9-0.2-1.5-1-1.5-1.9V5.2H68C68,6.4,67.9,7.7,67.6,9L67.6,9z M76.6,19.9v0.8h-7.1v-0.8l0.6-0.6c0.2-0.2,0.5-0.3,0.7-0.3
		h4.4c0.3,0,0.5,0.1,0.7,0.3L76.6,19.9z M73.8,17.7h-1.6v-2.4c0.5,0.1,1,0.1,1.6,0V17.7z M73,14c-2.4,0-4.3-1.9-4.3-4.2
		c0.4-1.5,0.7-3.1,0.6-4.6c0-1.3-0.1-2.6-0.4-3.9h8.3c-0.3,1.3-0.4,2.6-0.4,3.9c0,1.6,0.2,3.1,0.6,4.6C77.3,12.1,75.4,14,73,14
		L73,14z M79.9,7.1c0,0.9-0.6,1.7-1.5,1.9C78.2,7.7,78,6.4,78,5.2h1.9L79.9,7.1z"/>
</g>
</svg>
