<?xml version="1.0" encoding="utf-8"?>
<!-- Generator: Adobe Illustrator 26.5.0, SVG Export Plug-In . SVG Version: 6.00 Build 0)  -->
<svg version="1.1" id="Capa_1" xmlns="http://www.w3.org/2000/svg" xmlns:xlink="http://www.w3.org/1999/xlink" x="0px" y="0px"
	 viewBox="0 0 19.3 18.9" style="enable-background:new 0 0 19.3 18.9;" xml:space="preserve">
<style type="text/css">
	.st0{fill:#050C44;}
</style>
<g transform="translate(0 -6)">
	<path class="st0" d="M19.3,19.8c0-0.9-0.8-1.7-1.7-1.7h0h-1c0.1-0.2,0.1-0.4,0.1-0.6v-1.8l0.2-0.1c0.8-0.5,1.1-1.5,0.6-2.3
		c-0.3-0.5-0.8-0.8-1.4-0.8c-0.6-0.9-1.5-1.6-2.6-1.8c1-1.2,0.8-3-0.4-4s-3-0.8-4,0.4c-0.8,1-0.8,2.5,0,3.5c-1.9,0.3-3.3,2-3.3,3.9
		V16c0,0.3,0.1,0.7,0.2,0.9c-0.6,0-1.2,0.2-1.6,0.7C3.7,16.5,2.1,16.2,1,17c-1.1,0.8-1.4,2.3-0.6,3.4c0.1,0.1,0.2,0.3,0.3,0.4
		c-0.5,0.4-0.8,1-0.8,1.6v1.9c0,0.3,0.3,0.6,0.6,0.6h18.2c0.3,0,0.6-0.3,0.6-0.6v-1.9c0-0.5-0.2-1-0.5-1.4
		C19.1,20.7,19.3,20.3,19.3,19.8z M15.6,17.5c0,0.3-0.3,0.6-0.6,0.5c-0.3,0-0.5-0.2-0.5-0.5l0,0V17l1.1-0.7V17.5z M11.3,7.1
		c0.9,0,1.7,0.8,1.7,1.7s-0.8,1.7-1.7,1.7c-0.9,0-1.7-0.8-1.7-1.7S10.4,7.1,11.3,7.1L11.3,7.1z M6.9,14.5c0-1.6,1.3-2.8,2.8-2.8h3
		c0.9,0,1.7,0.4,2.2,1.1l-3.1,1.8c-0.2,0.1-0.4,0.3-0.5,0.4c-0.3-0.2-0.6-0.3-0.9-0.3H9.2v-0.6c0-0.3-0.3-0.6-0.6-0.5
		c-0.3,0-0.5,0.2-0.5,0.5v1.1c0,0.3,0.3,0.6,0.6,0.6h0h1.9c0.3,0,0.6,0.3,0.5,0.6c0,0.3-0.2,0.5-0.5,0.5H7.9c-0.5,0-0.9-0.4-0.9-0.9
		V14.5z M6,18.1h5.6c0.3,0,0.6-0.3,0.6-0.6c0,0,0-1.5,0-1.5c0-0.2,0.1-0.4,0.3-0.5l3.3-1.9c0.3-0.2,0.6-0.1,0.8,0.2
		c0.2,0.3,0.1,0.6-0.2,0.8c0,0,0,0,0,0l-2.7,1.6c-0.2,0.1-0.3,0.3-0.3,0.5v2c0,0.3,0.3,0.6,0.6,0.6h3.7c0.3,0,0.6,0.3,0.5,0.6
		c0,0.3-0.2,0.5-0.5,0.5H6c-0.6,0-1.1-0.5-1.1-1.1C4.9,18.6,5.4,18.1,6,18.1z M2.5,17.7c0.7,0,1.3,0.6,1.3,1.3
		c0,0.7-0.6,1.3-1.3,1.3S1.1,19.8,1.1,19C1.1,18.3,1.7,17.7,2.5,17.7L2.5,17.7z M18.2,23.8H1.1v-1.3c0-0.5,0.4-0.9,0.9-0.9h15.2
		c0.5,0,0.9,0.4,0.9,0.9L18.2,23.8z"/>
</g>
</svg>
