<?xml version="1.0" encoding="utf-8"?>
<!-- Generator: Adobe Illustrator 26.5.0, SVG Export Plug-In . SVG Version: 6.00 Build 0)  -->
<svg version="1.1" id="Capa_1" xmlns="http://www.w3.org/2000/svg" xmlns:xlink="http://www.w3.org/1999/xlink" x="0px" y="0px"
	 viewBox="0 0 14.6 20.4" style="enable-background:new 0 0 14.6 20.4;" xml:space="preserve">
<style type="text/css">
	.st0{fill:#050C44;}
</style>
<g transform="translate(-72.344)">
	<g transform="translate(75.003)">
		<g transform="translate(0)">
			<path class="st0" d="M3.8,1.8c-1.6-0.4-3,1-2.6,2.6C1.4,5.1,2,5.8,2.7,5.9c1.6,0.4,3-1,2.6-2.6C5.1,2.6,4.5,2,3.8,1.8z M3.2,4.9
				c-0.6,0-1.1-0.5-1.1-1.1c0-0.6,0.5-1.1,1.1-1.1c0.6,0,1.1,0.5,1.1,1.1c0,0,0,0,0,0C4.3,4.5,3.8,4.9,3.2,4.9z"/>
		</g>
	</g>
	<g transform="translate(72.344 5.316)">
		<g transform="translate(0)">
			<path class="st0" d="M10.9,10.5C11,10.3,11,10.1,11,9.9V7.2c0-0.9-0.7-1.7-1.6-1.7H6.7c0-0.4,0-0.8,0-1.2V2.7
				C6.8,1.7,6.1,1,5.2,1C4.8,1,4.4,1.1,4.1,1.5L2,3.7C1.4,4.4,1.4,5.5,2,6.1l0,0l1.3,1.4C3,8.8,2.5,10.1,1.8,11.2
				C1.3,12,1.5,13,2.2,13.6c0.7,0.5,1.7,0.3,2.2-0.5l0,0c0.8-1.3,1.4-2.7,1.7-4.2h1.7v0.9c0,0.2,0,0.4,0.1,0.6
				c-1.3,0.2-2.2,1.4-2.2,2.8c0,0.3,0.2,0.6,0.5,0.6l0,0h6.3c0.3,0,0.5-0.3,0.5-0.6l0,0C13.1,11.9,12.2,10.7,10.9,10.5z M3.5,12.5
				c-0.2,0.3-0.5,0.3-0.7,0.2c-0.2-0.2-0.3-0.5-0.1-0.8l0,0c0.6-1,1.1-2.2,1.4-3.4c0.3,0.3,0.6,0.4,1,0.5
				C4.7,10.2,4.2,11.4,3.5,12.5z M5.7,4.3L5.7,4.3c0,0.4,0,0.7,0,1.1L5,4.5c-0.2-0.2-0.5-0.2-0.7,0S4,5.1,4.2,5.3l1.4,1.5
				c0.2,0.2,0.2,0.6,0,0.8C5.4,7.8,5,7.8,4.8,7.6c0,0,0,0,0,0L2.7,5.3c-0.2-0.2-0.2-0.6,0-0.8l2.1-2.3C5,2,5.4,2,5.6,2.3
				c0.1,0.1,0.1,0.2,0.1,0.4L5.7,4.3z M6.7,7.8c0.1-0.4,0.1-0.8,0-1.2h2.7c0.3,0,0.5,0.3,0.5,0.6v2.7c0,0.3-0.3,0.6-0.5,0.5
				c-0.3,0-0.5-0.3-0.5-0.5V8.3c0-0.3-0.2-0.6-0.5-0.6c0,0,0,0,0,0L6.7,7.8L6.7,7.8z M6.9,12.7c0.2-0.7,0.8-1.1,1.5-1.1h2.1
				c0.7,0,1.3,0.5,1.5,1.1H6.9z"/>
		</g>
	</g>
</g>
</svg>
