<?xml version="1.0" encoding="utf-8"?>
<!-- Generator: Adobe Illustrator 26.5.0, SVG Export Plug-In . SVG Version: 6.00 Build 0)  -->
<svg version="1.1" id="Capa_1" xmlns="http://www.w3.org/2000/svg" xmlns:xlink="http://www.w3.org/1999/xlink" x="0px" y="0px"
	 viewBox="0 0 19.4 18.9" style="enable-background:new 0 0 19.4 18.9;" xml:space="preserve">
<style type="text/css">
	.st0{fill:#050C44;stroke:#050C44;stroke-width:0.2;}
</style>
<g transform="translate(0.34 0.1)">
	<path class="st0" d="M1.1,1.1c-1.5,1.5-1.5,3.9,0,5.4l2.8,2.8l-2.8,2.8c-1.5,1.5-1.5,3.9,0,5.4s3.9,1.5,5.4,0l2.8-2.8l2.8,2.8
		c1.5,1.5,3.9,1.5,5.4,0s1.5-3.9,0-5.4l0,0l-2.8-2.8l2.8-2.8C19,5,19,2.6,17.5,1.1s-3.9-1.5-5.4,0L9.3,3.9L6.5,1.1
		C5-0.4,2.6-0.4,1.1,1.1L1.1,1.1z M16.8,12.9c1.1,1.1,1.1,2.8,0,3.9s-2.8,1.1-3.9,0c0,0,0,0,0,0L10.1,14l3.9-3.9L16.8,12.9z
		 M12.9,1.9c1.1-1.1,2.8-1.1,3.9,0s1.1,2.8,0,3.9c0,0,0,0,0,0l-11,11c-1.1,1.1-2.8,1-3.9,0c-1-1.1-1-2.8,0-3.8l3.2-3.2l0,0l4.6-4.6
		l0,0L12.9,1.9z M4.7,8.6L1.9,5.8C0.8,4.7,0.8,3,1.9,1.9s2.8-1.1,3.9,0l2.8,2.8L4.7,8.6z"/>
	<path class="st0" d="M5.8,10.6c-0.2,0.2-0.2,0.6,0,0.8c0,0,0,0,0,0l1.5,1.5c0.2,0.2,0.6,0.2,0.8,0c0,0,0,0,0,0l4.8-4.8
		c0.2-0.2,0.2-0.6,0-0.8c0,0,0,0,0,0l-1.5-1.5c-0.2-0.2-0.6-0.2-0.8,0c0,0,0,0,0,0L5.8,10.6z M11.7,7.7l-4,4L6.9,11l4-4L11.7,7.7z"
		/>
</g>
</svg>
