<?xml version="1.0" encoding="UTF-8"?><svg id="Capa_1" xmlns="http://www.w3.org/2000/svg" viewBox="0 0 13.64 15.12"><defs><style>.cls-1{stroke-width:.35px;}.cls-1,.cls-2{fill:#050c44;stroke:#050c44;}.cls-2{stroke-width:.2px;}</style></defs><g id="Page-1"><g id="_021---Brain-Profile"><path id="Shape" class="cls-1" d="M13.21,3.76c-.25-.85-.76-1.59-1.47-2.12C9.8,.12,8.13-.16,5.12,.53c-.82,.19-1.74,.48-2.41,1.18-.43,.46-.77,1.01-.98,1.61-.09,.26-.17,.53-.22,.81l-.02,.09c-.05,.2-.13,.39-.22,.58-.13,.22-.2,.48-.2,.74,.05,.22,.18,.41,.36,.55,.12,.11,.2,.19,.2,.26-.01,.04-.03,.08-.05,.11-.04,.07-.07,.14-.09,.22-.03,.3-.15,.57-.35,.8-.77,.83-.99,1.12-.97,1.42,.04,.21,.17,.38,.36,.49,.08,.06,.17,.11,.26,.15,.11,.05,.28,.14,.3,.21,.02,.08,0,.17-.03,.25-.04,.08-.07,.14-.11,.2-.1,.17-.24,.43-.01,.62,.05,.05,.14,.12,.23,.18-.06,.11-.09,.23-.08,.36,.01,.1,.07,.18,.14,.24,.06,.04,.11,.07,.17,.11,.14,.08,.2,.12,.22,.2,.02,.09,.01,.19-.02,.28-.08,.29-.07,.6,.04,.88,.13,.47,.6,.75,1.07,.65,.7-.17,1.39-.38,2.07-.62,.34,.2,.66,.69,.9,1.37,.1,.3,.38,.5,.7,.5h4.96c.26,0,.49-.13,.63-.35,.13-.22,.15-.49,.03-.72-.31-.68-.5-1.41-.57-2.16-.09-.74,.02-1.48,.32-2.16,.18-.37,.4-.71,.65-1.03,.49-.66,1.04-1.4,1.06-2.67,.01-.71-.07-1.41-.26-2.09Zm-.24,2.08c-.02,1.11-.47,1.73-.96,2.39-.28,.35-.51,.73-.71,1.13-.33,.76-.46,1.59-.36,2.42,.07,.8,.28,1.59,.62,2.32,.04,.08,.03,.17-.01,.24-.05,.07-.12,.11-.21,.12H6.38c-.11,0-.2-.07-.23-.17-.16-.52-.44-1-.81-1.4l.18-.06c.18-.06,.32-.11,.39-.13,1.05-.33,1.58-.81,1.57-1.43,0-.07-.03-.13-.07-.17-.05-.05-.11-.07-.18-.07-.07,0-.13,.03-.17,.08-.05,.05-.07,.11-.07,.18,0,.25-.2,.62-1.22,.94-.07,.02-.21,.07-.4,.14-.18,.06-.39,.14-.63,.22h0c-.69,.25-1.39,.46-2.11,.64-.23,.04-.45-.1-.51-.33-.08-.19-.09-.4-.02-.6,.05-.17,.06-.34,.02-.51-.07-.23-.24-.41-.45-.5l-.05-.03c.03-.05,.06-.11,.09-.15,.04-.05,.06-.12,.05-.18,0-.07-.04-.13-.1-.16-.06-.04-.2-.15-.3-.23,.01-.02,.03-.05,.04-.07,.04-.07,.08-.14,.12-.23,.08-.17,.1-.36,.07-.55-.06-.3-.34-.45-.56-.56-.06-.03-.13-.07-.19-.1-.06-.04-.11-.09-.16-.13,0-.14,.55-.73,.84-1.04,.26-.3,.42-.66,.47-1.05,.01-.03,.02-.06,.04-.08,.06-.1,.1-.22,.1-.34-.03-.25-.16-.47-.36-.62-.1-.09-.19-.18-.2-.25,.03-.16,.09-.32,.16-.47,.1-.21,.19-.44,.25-.67l.02-.09c.05-.25,.12-.5,.21-.75,.19-.54,.49-1.03,.88-1.44,.58-.61,1.38-.86,2.16-1.04,3.21-.74,4.61-.24,6.21,1.02,.63,.46,1.08,1.12,1.3,1.86,.17,.64,.25,1.29,.24,1.95Z"/></g></g><g><path class="cls-2" d="M10.09,10.13c.01-.1,.04-.2,.06-.29,.05-.23,.1-.46,.12-.7,.24-.11,.38-.34,.39-.6,0-.07,0-.15-.03-.22-.04-.16-.1-.31-.18-.45,.39-.26,.67-.66,.78-1.12,.39-.44,.46-1.08,.17-1.59,.1-.25,.09-.52-.02-.77-.12-.24-.34-.41-.6-.48-.14-.89-.9-1.57-1.8-1.6h-.07c-.14-.23-.37-.4-.64-.43-.27-.05-.54,.04-.75,.22-.24-.18-.52-.27-.82-.28-.48-.01-.93,.2-1.23,.56-.31-.1-.67-.06-.95,.13-.29,.19-.46,.49-.5,.83-.41,.16-.65,.59-.56,1.02-.21,.28-.32,.63-.33,.98-.03,.55,.22,1.09,.64,1.45,.43,.36,.99,.5,1.54,.38,.19,.39,.56,.67,.99,.75,.42,.09,.86-.03,1.19-.32,.16,.05,.31,.09,.46,.11,.09,.36,.34,.6,.84,.81,.07,.39,.05,.8-.07,1.17-.03,.1-.05,.2-.07,.3-.23,1.12-.05,2.22,.24,3.23,.02,.07,.07,.11,.14,.11h.36c-.15-.5-.28-1.03-.34-1.57-.07-.54-.07-1.12,.05-1.67h0c.02-.1,.04-.2,.06-.29,.1-.33,.14-.69,.13-1.03,.06,.05,.12,.11,.17,.16,.1,.12,.23,.21,.39,.25-.02,.19-.07,.37-.11,.55-.02,.1-.04,.2-.07,.3-.25,1.16-.04,2.3,.25,3.34m.97-6.86c-.3,.31-.77,.38-1.15,.17-.04-.02-.07-.04-.11-.07,.18-.22,.2-.53,.09-.78-.04-.07-.11-.12-.18-.13-.08,0-.16,.03-.2,.1-.05,.06-.06,.15-.03,.22,.07,.14,.02,.33-.12,.42-.09,.04-.18,.06-.27,.04-.09-.03-.17-.09-.21-.17-.04-.08-.1-.13-.18-.15-.08,0-.16,.03-.21,.1-.05,.07-.05,.16-.02,.23,.17,.36,.59,.54,.96,.4,.08,.07,.16,.14,.26,.19,.31,.18,.69,.22,1.03,.13-.23,.29-.57,.49-.94,.53-.11,.02-.2,.12-.19,.24s.11,.21,.22,.21h.04c.13-.02,.27-.06,.4-.11,.07,.12,.11,.26,.16,.39,0,.03,0,.05,0,.08,0,.09-.06,.19-.15,.22-.1,.03-.22,0-.29-.09-.17-.2-.39-.36-.64-.45-.48-.17-.65-.33-.73-.49,.11,0,.23-.03,.35-.05,.06-.02,.1-.05,.13-.11,.03-.06,.03-.11,.01-.17h0c-.02-.06-.05-.1-.11-.13-.06-.03-.11-.04-.17-.02-.13,.03-.25,.06-.39,.06-.25,.01-.5-.03-.73-.13-.09-.04-.19-.02-.25,.05-.34,.36-.89,.41-1.28,.11s-.49-.86-.22-1.27c.07-.1,.04-.24-.07-.31-.1-.07-.24-.04-.31,.07-.05,.09-.1,.18-.13,.29-.18-.01-.31-.16-.31-.34h0c0-.07-.02-.12-.06-.17-.05-.04-.1-.06-.16-.06-.12,0-.23,.1-.23,.22-.01,.39,.28,.74,.67,.79,0,.07,0,.15,.01,.22-.5,.09-1.01-.11-1.32-.51-.31-.4-.37-.95-.16-1.41,.05,.06,.11,.1,.16,.14,.06,.05,.15,.05,.22,.02,.07-.04,.12-.11,.12-.19,0-.07-.03-.15-.1-.19-.1-.07-.16-.15-.2-.26-.02-.05-.02-.1-.02-.16,0-.25,.23-.46,.48-.45,.15,0,.29,.08,.37,.2,.07,.11,.21,.13,.32,.06,.1-.07,.13-.21,.06-.31-.15-.21-.37-.35-.62-.37,.08-.32,.36-.53,.68-.52,.03,0,.05,.01,.07,.01-.01,.05-.03,.09-.05,.14-.02,.12,.04,.24,.16,.27,.11,.04,.23-.03,.28-.14,.02-.09,.06-.19,.12-.28,.21-.32,.57-.52,.95-.5,.21,0,.42,.08,.59,.2-.04,.09-.06,.19-.06,.29,0,.08,.04,.16,.11,.2,.06,.04,.15,.04,.22,0,.07-.04,.12-.11,.12-.19,0-.17,.09-.32,.25-.39,.14-.08,.32-.07,.47,.01,.14,.09,.23,.24,.22,.41,0,.12,.1,.23,.22,.23s.23-.1,.23-.22c0-.02,0-.03,0-.05,.64,.06,1.16,.53,1.28,1.15-.1,.03-.2,.08-.28,.14-.11,.07-.13,.21-.06,.31,.07,.11,.21,.13,.31,.06,.18-.13,.43-.11,.59,.05,.16,.15,.2,.39,.08,.58-.05,.08-.13,.15-.22,.19-.11,.04-.16,.18-.11,.3,.05,.1,.18,.16,.3,.11,.06-.03,.11-.06,.17-.1,.1,.33,.02,.69-.23,.95Z"/><path class="cls-2" d="M11.41,5.16c.1-.25,.09-.52-.02-.77-.12-.24-.34-.41-.6-.48-.14-.89-.9-1.57-1.8-1.6h-.07c-.14-.23-.37-.4-.64-.43-.27-.05-.54,.04-.75,.22-.24-.18-.52-.27-.82-.28-.48-.01-.93,.2-1.23,.56-.31-.1-.67-.06-.95,.13-.29,.19-.46,.49-.5,.83-.41,.16-.65,.59-.56,1.02-.21,.28-.32,.63-.33,.98-.03,.55,.22,1.09,.64,1.45,.43,.36,.99,.5,1.54,.38,.19,.39,.56,.67,.99,.75,.42,.09,.86-.03,1.19-.32,.16,.05,.31,.09,.46,.11,.09,.36,.34,.6,.84,.81,.07,.39,.05,.8-.07,1.17-.03,.1-.05,.2-.07,.3l.39,1.77c-.07-.54-.07-1.12,.05-1.67h0c.02-.1,.04-.2,.06-.29,.1-.33,.14-.69,.13-1.03,.06,.05,.12,.11,.17,.16,.1,.12,.23,.21,.39,.25-.02,.19-.07,.37-.11,.55-.02,.1-.04,.2-.07,.3-.25,1.16-.04,2.3,.25,3.34h.38s.08-.02,.07-.06c-.17-.56-.3-1.15-.35-1.75-.04-.48-.02-.95,.08-1.43,.01-.1,.04-.2,.06-.29,.05-.23,.1-.46,.12-.7,.24-.11,.38-.34,.39-.6,0-.07,0-.15-.03-.22-.04-.16-.1-.31-.18-.45,.39-.26,.67-.66,.78-1.12,.39-.44,.46-1.08,.17-1.59Zm-.54,1.34c-.3,.31-.77,.38-1.15,.17-.04-.02-.07-.04-.11-.07,.18-.22,.2-.53,.09-.78-.04-.07-.11-.12-.18-.13-.08,0-.16,.03-.2,.1-.05,.06-.06,.15-.03,.22,.07,.14,.02,.33-.12,.42-.09,.04-.18,.06-.27,.04-.09-.03-.17-.09-.21-.17-.04-.08-.1-.13-.18-.15-.08,0-.16,.03-.21,.1-.05,.07-.05,.16-.02,.23,.17,.36,.59,.54,.96,.4,.08,.07,.16,.14,.26,.19,.31,.18,.69,.22,1.03,.13-.23,.29-.57,.49-.94,.53-.11,.02-.2,.12-.19,.24s.11,.21,.22,.21h.04c.13-.02,.27-.06,.4-.11,.07,.12,.11,.26,.16,.39,0,.03,0,.05,0,.08,0,.09-.06,.19-.15,.22-.1,.03-.22,0-.29-.09-.17-.2-.39-.36-.64-.45-.48-.17-.65-.33-.73-.49,.11,0,.23-.03,.35-.05,.06-.02,.1-.05,.13-.11,.03-.06,.05-.1,.02-.17h0c-.02-.06-.05-.1-.11-.13-.06-.03-.11-.04-.17-.02-.13,.03-.25,.06-.39,.06-.25,.01-.5-.03-.73-.13-.09-.04-.19-.02-.25,.05-.34,.36-.89,.41-1.28,.11s-.49-.86-.22-1.27c.07-.1,.04-.24-.07-.31-.1-.07-.24-.04-.31,.07-.05,.09-.1,.18-.13,.29-.18-.01-.31-.16-.31-.34h0c0-.07-.02-.12-.06-.17-.05-.04-.1-.06-.16-.06-.12,0-.23,.1-.23,.22-.01,.39,.28,.74,.67,.79,0,.07,0,.15,.01,.22-.5,.09-1.01-.11-1.32-.51-.31-.4-.37-.95-.16-1.41,.05,.06,.11,.1,.16,.14,.06,.05,.15,.05,.22,.02,.07-.04,.12-.11,.12-.19,0-.07-.03-.15-.1-.19-.1-.07-.16-.15-.2-.26-.02-.05-.02-.1-.02-.16,0-.25,.23-.46,.48-.45,.15,0,.29,.08,.37,.2,.07,.11,.21,.13,.32,.06,.1-.07,.13-.21,.06-.31-.15-.21-.37-.35-.62-.37,.08-.32,.36-.53,.68-.52,.03,0,.05,.01,.07,.01-.01,.05-.03,.09-.05,.14-.02,.12,.04,.24,.16,.27,.11,.04,.23-.03,.28-.14,.02-.09,.06-.19,.12-.28,.21-.32,.57-.52,.95-.5,.21,0,.42,.08,.59,.2-.04,.09-.06,.19-.06,.29,0,.08,.04,.16,.11,.2,.06,.04,.15,.04,.22,0,.07-.04,.12-.11,.12-.19,0-.17,.09-.32,.25-.39,.14-.08,.32-.07,.47,.01,.14,.09,.23,.24,.22,.41,0,.12,.1,.23,.22,.23s.23-.1,.23-.22c0-.02,0-.03,0-.05,.64,.06,1.16,.53,1.28,1.15-.1,.03-.2,.08-.28,.14-.11,.07-.13,.21-.06,.31,.07,.11,.21,.13,.31,.06,.18-.13,.43-.11,.59,.05,.16,.15,.2,.39,.08,.58-.05,.08-.13,.15-.22,.19-.11,.04-.16,.18-.11,.3,.05,.1,.18,.16,.3,.11,.06-.03,.11-.06,.17-.1,.1,.33,.02,.69-.23,.95Z"/><path id="Shape-2" class="cls-2" d="M8.94,4.84c.02-.08,0-.16-.06-.22-.06-.05-.14-.07-.22-.05s-.13,.09-.15,.17c-.05,.23-.19,.43-.39,.55-.38,.24-.87,.17-1.17-.17-.08-.09-.22-.11-.31-.03s-.11,.22-.03,.31c.18,.21,.43,.37,.7,.43-.13,.17-.34,.27-.55,.26-.12,0-.23,.09-.23,.22s.09,.23,.22,.23c.46,.02,.88-.26,1.06-.68,.56-.07,1.01-.49,1.13-1.04h0Z"/><path id="Shape-3" class="cls-2" d="M6.92,3.85c0-.12-.09-.23-.22-.23-.57-.02-1.04,.43-1.06,.99,0,.12,.09,.23,.22,.23s.23-.09,.23-.22c0-.32,.28-.57,.6-.56,.12,0,.23-.09,.23-.22Z"/></g></svg>