<?xml version="1.0" encoding="utf-8"?>
<!-- Generator: Adobe Illustrator 26.5.0, SVG Export Plug-In . SVG Version: 6.00 Build 0)  -->
<svg version="1.1" id="Capa_1" xmlns="http://www.w3.org/2000/svg" xmlns:xlink="http://www.w3.org/1999/xlink" x="0px" y="0px"
	 viewBox="0 0 23 22.8" style="enable-background:new 0 0 23 22.8;" xml:space="preserve">
<style type="text/css">
	.st0{fill:#050C44;stroke:#050C44;stroke-width:0.5;stroke-miterlimit:10;}
</style>
<g transform="translate(0 -0.001)">
	<g transform="translate(10.766 13.825)">
		<path class="st0" d="M8.3-6.6c-2,0-3.6,2-2.9,4.1c0.3,0.9,1,1.7,2,2c2.1,0.7,4.1-0.9,4.1-2.9l0,0C11.4-5.2,10-6.6,8.3-6.6z
			 M8.3-1.3c-1.2,0-2.2-1-2.2-2.2s1-2.2,2.2-2.2s2.2,1,2.2,2.2S9.5-1.3,8.3-1.3z"/>
	</g>
	<g transform="translate(18.751 14.685)">
		<path class="st0" d="M-1.3,2.2l-0.6-0.6l-1.9,1.9l-1.9-1.9l-0.6,0.6l1.9,1.9L-6.3,6l0.6,0.6l1.9-1.9l1.9,1.9L-1.3,6l-1.9-1.9
			L-1.3,2.2z"/>
	</g>
	<g transform="translate(0 0.06)">
		<g transform="translate(0 0)">
			<path class="st0" d="M7.5,4L6.9,3.4L5,5.3L3.2,3.4L2.5,4l1.9,1.9L2.5,7.8l0.6,0.6L5,6.5l1.9,1.9l0.6-0.6L5.7,5.9L7.5,4z"/>
		</g>
	</g>
	<g transform="translate(0.266 5.2)">
		<path class="st0" d="M16.2-2.9l-2.6-1.3c-0.2-0.1-0.5,0-0.6,0.2l0,0l-0.9,2.7L12.9-1l0.6-1.7c0.1,0.2,0,0,0.1,0.2
			C13.9-2,14-1.3,13.9-0.7c-0.1,1.7-0.7,3.4-1.7,4.8c0,0,0,0,0,0c-0.5,0.7-1.1,1.2-1.7,1.7C9.8,6.2,9.2,6.6,8.5,7
			c-1.6,0.7-3,1.9-4,3.5c-1.6-0.7-3.4,0.1-4,1.7s0.1,3.4,1.7,4c1.6,0.7,3.4-0.1,4-1.7c0.5-1.3,0.2-2.7-0.9-3.6
			C6.2,9.5,7.5,8.4,9,7.7c1.1-0.6,2.2-1.3,3.1-2.2c0.3-0.3,0.6-0.6,0.8-0.9C14,3,14.7,1.2,14.8-0.7c0.1-0.7-0.1-1.5-0.4-2.2l1.4,0.7
			L16.2-2.9z M5.5,13.3c0,1.2-1,2.2-2.2,2.2s-2.2-1-2.2-2.2s1-2.2,2.2-2.2S5.5,12.1,5.5,13.3z"/>
	</g>
</g>
</svg>
