<svg id="meh" xmlns="http://www.w3.org/2000/svg" width="86.352" height="86.352" viewBox="0 0 86.352 86.352">
  <g id="Grupo_1821" data-name="Grupo 1821">
    <g id="Grupo_1820" data-name="Grupo 1820">
      <path id="Trazado_1840" data-name="Trazado 1840" d="M43.176,0A43.176,43.176,0,1,0,86.352,43.176,43.225,43.225,0,0,0,43.176,0Zm0,82.6A39.421,39.421,0,1,1,82.6,43.176,39.465,39.465,0,0,1,43.176,82.6Z" fill="#d9f10a"/>
      <path id="Trazado_1841" data-name="Trazado 1841" d="M101.632,139.263A5.632,5.632,0,1,0,96,133.632,5.638,5.638,0,0,0,101.632,139.263Zm0-7.509a1.877,1.877,0,1,1-1.877,1.877A1.88,1.88,0,0,1,101.632,131.754Z" transform="translate(-73.474 -97.965)" fill="#d9f10a"/>
      <path id="Trazado_1842" data-name="Trazado 1842" d="M229.632,128a5.632,5.632,0,1,0,5.632,5.632A5.639,5.639,0,0,0,229.632,128Zm0,7.509a1.877,1.877,0,1,1,1.877-1.877A1.88,1.88,0,0,1,229.632,135.509Z" transform="translate(-171.438 -97.965)" fill="#d9f10a"/>
      <path id="Trazado_1843" data-name="Trazado 1843" d="M135.421,224H97.877a1.877,1.877,0,1,0,0,3.754h37.544a1.877,1.877,0,0,0,0-3.754Z" transform="translate(-73.474 -171.438)" fill="#d9f10a"/>
    </g>
  </g>
</svg>
