<?xml version="1.0" encoding="utf-8"?>
<!-- Generator: Adobe Illustrator 26.3.1, SVG Export Plug-In . SVG Version: 6.00 Build 0)  -->
<svg version="1.1" id="smile_4_" xmlns="http://www.w3.org/2000/svg" xmlns:xlink="http://www.w3.org/1999/xlink" x="0px" y="0px"
	 viewBox="0 0 28.1 28.1" style="enable-background:new 0 0 28.1 28.1;" xml:space="preserve">
<style type="text/css">
	.st0{fill:#00E9C5;}
</style>
<g id="Grupo_1825" transform="translate(0 0)">
	<g id="Grupo_1824">
		<path id="Trazado_1848" class="st0" d="M19.9,17.3c-0.3-0.2-0.6-0.2-0.9,0c0,0,0,0,0,0c-2.5,2.8-6.8,3-9.6,0.5
			c-0.2-0.2-0.3-0.3-0.5-0.5C8.8,17,8.4,17,8.1,17.2s-0.3,0.6-0.1,0.9c0,0,0,0,0,0c3,3.3,8,3.5,11.3,0.6c0.2-0.2,0.4-0.4,0.6-0.6
			C20.2,17.9,20.2,17.5,19.9,17.3C19.9,17.3,19.9,17.3,19.9,17.3z"/>
		<path id="Trazado_1849" class="st0" d="M14,0C6.3,0,0,6.3,0,14s6.3,14,14,14s14-6.3,14-14C28.1,6.3,21.8,0,14,0z M14,26.9
			C7,26.9,1.2,21.1,1.2,14C1.2,7,7,1.2,14,1.2C21.1,1.2,26.9,7,26.9,14c0,0,0,0,0,0C26.9,21.1,21.1,26.9,14,26.9z"/>
		<path id="Trazado_1850" class="st0" d="M18.9,9.8c-1.7,0-3.1,1.4-3.1,3.1c0,0.3,0.2,0.6,0.6,0.6c0.3,0,0.6-0.2,0.6-0.6
			c0,0,0,0,0,0c0-1,0.8-1.8,1.8-1.8s1.8,0.8,1.8,1.8c0,0.3,0.3,0.6,0.6,0.6c0.3,0,0.6-0.3,0.6-0.6C22,11.1,20.6,9.8,18.9,9.8z"/>
		<path id="Trazado_1851" class="st0" d="M11,12.8c0,0.3,0.3,0.6,0.6,0.6c0.3,0,0.6-0.3,0.6-0.6c0-1.7-1.4-3.1-3.1-3.1
			s-3.1,1.4-3.1,3.1c0,0.3,0.3,0.6,0.6,0.6c0.3,0,0.6-0.3,0.6-0.6c0-1,0.8-1.8,1.8-1.8S11,11.8,11,12.8z"/>
	</g>
</g>
</svg>
