<svg id="Capa_1" data-name="Capa 1" xmlns="http://www.w3.org/2000/svg" viewBox="0 0 340.41 479.49"><defs><style>.cls-1{fill:#050b3d;}</style></defs><path class="cls-1" d="M152.06,488.83c-11.77-3.76-20.68-10.64-24.93-22.68-4-11.34-2.64-22.41,1.77-33.27a96.71,96.71,0,0,1,12-20.55c7.81-10.65,10.79-22.6,10.86-35.55.11-21.52-1.78-42.92-3.48-64.34-1.39-17.53-2.62-35.08-4-52.61Q141.7,225.6,139,191.39c-1-13.35-2.34-26.68-3-40a36.11,36.11,0,0,0-5.66-18.46c-6.51-10.17-11.76-20.83-13.79-32.95-3.24-19.4,1.54-36.11,15.89-49.81,10.84-10.37,22.19-11.69,35.17-4.22,7.65,4.4,14,1.89,16.4-6.46,4.47-15.69,18.07-28,33.36-29.62C234.5,8.05,248,14.36,257,29.17c15,24.72-3.51,58.07-32.35,58.68-6,.13-10.5,6-8.25,11.73,4.58,11.71,4,22.9-.74,34.5-2.63,6.4-.72,13.59-.34,20.39.93,16.47,2.23,32.92,3.45,49.38,1.72,23.28,3.52,46.55,5.24,69.83,1.11,14.91,2.1,29.82,3.18,44.72,1.27,17.55,2.34,35.11,4,52.62.81,8.67,5.16,16.27,9.51,23.69,6.3,10.76,13.73,20.82,19.63,31.82s10.05,22.22,6.62,34.88c-3.83,14.16-13.32,22.84-26.94,27.42H216.6c-6.37-2.1-12.65-4.41-18-8.62-1.5-1.18-2.82-.95-4.21.16-5.08,4-11,6.4-17.06,8.46ZM220.31,66.75c3.86-.11,7.06.55,9.94-1.11,6.74-3.9,10.5-9.65,10.31-17.58a18.17,18.17,0,0,0-11.93-16.39,17.93,17.93,0,0,0-23.94,12.95c-1.72,7.29-4.62,13.51-11.12,17.66C182,69.67,170.12,71.5,158,63.8c-3.9-2.49-6.69-1.88-10,.87-8.59,7.19-12.12,16.47-11.32,27.36.85,11.66,5.45,22,12.49,31.26a34.21,34.21,0,0,1,6.71,16.21c2.53,17.43,3.52,35,4.79,52.54,1.07,14.75,2,29.51,3,44.27q2.67,38,5.42,75.93c1.1,15.22,2.3,30.43,3.42,45.64,1,13.83,2.26,27.64-2.17,41.23-3.66,11.26-9.69,21.22-15.93,31.11-3.41,5.41-6.91,10.83-8.23,17.2-1.41,6.77.12,12.81,5.79,17.15,8.25,6.31,25,4.49,31.95-3.26,7.76-8.63,15.63-9.32,24.26-1.31a29.3,29.3,0,0,0,23.46,8.11c10.08-.77,16.8-9,15.11-19a44.74,44.74,0,0,0-7-16.73c-5.58-8.64-11.41-17.12-17.13-25.66-6-8.92-10.42-18.44-11.76-29.21-2.26-18.08-3.5-36.26-4.89-54.42-1.17-15.21-2-30.45-3-45.67q-2.66-37.74-5.44-75.46c-1.12-15.37-2.33-30.74-3.39-46.11-.78-11.29-2.62-22.63,3.2-33.41,2.21-4.09,1.88-8.91,0-13.19-5.8-12.9-1.85-24,6.07-34.37C207.86,69.15,213.22,65.17,220.31,66.75Z" transform="translate(-115.63 -9.34)"/><path class="cls-1" d="M333.53,488.83c-12.2-3.3-21.79-9.82-26.95-21.82a35.46,35.46,0,0,1-.18-29A202.28,202.28,0,0,1,330.91,395c6.15-8.11,8.85-17,9.72-26.77,2.3-25.74,4.14-51.51,5.9-77.29,2.22-32.46,4.79-64.89,7.18-97.33,1.28-17.39,2.49-34.78,3.74-52.17a19.56,19.56,0,0,0-2.1-9.5c-4.65-10.25-4.47-20.63-.57-30.92,1.78-4.68-.29-8.17-2.18-11.86-.83-1.64-2.69-1.27-4.22-1.32C328.05,87.14,311.8,72,310,52.13c-1.8-19.53,11.62-37.55,31.19-41.9,20-4.45,40.7,8.21,46,28.11,2.33,8.79,7.84,11.24,16.07,7.16,1.82-.9,3.61-1.84,5.44-2.71,7.85-3.73,15.36-3.06,22.66,1.58,20.43,13,28.94,35.45,22.81,60.28-2.26,9.16-5.39,18.14-11.17,25.53-6.1,7.79-7.42,16.51-8.1,25.75-2.09,28.72-4.32,57.43-6.39,86.15-1.42,19.72-2.6,39.46-4,59.18q-2.58,36.57-5.32,73.13a51,51,0,0,0,7.12,30.45c4.06,6.83,8.48,13.45,12.68,20.19,8,12.86,9.28,26.58,4.74,40.84-3.49,10.94-11.36,17.6-22,21.21-1.91.65-3.86,1.17-5.8,1.75H397.13c-7.27-1.84-14.34-4.18-20.37-8.85a3.36,3.36,0,0,0-4.63,0c-5.92,4.55-12.82,6.91-19.89,8.87ZM350.72,66.75c3.27-.07,6.66-.48,9.61,1.25,13.31,7.79,20.11,27.2,15.07,37.92-3.31,7-3,13.79.28,20.7a30.75,30.75,0,0,1,2.79,15.93c-1.19,14.58-2.37,29.15-3.43,43.74-1.91,26.23-3.82,52.47-5.58,78.71-2.28,34.16-4.59,68.32-7.59,102.43-1.26,14.39-4.68,27.86-13.55,39.64-4.12,5.47-7.78,11.3-11.4,17.12-4.59,7.4-9.46,14.71-11.83,23.24-3,10.7,3.14,19.47,14.14,20.64,9.58,1,17.76-1.54,24.63-8.54,6.47-6.59,16.18-6.81,22-.11,7.4,8.51,16.75,9.55,26.83,8.24,6.49-.84,10.49-4.93,12.38-11.23,1.8-6,.08-11.51-2.62-16.64-3.55-6.75-7.66-13.2-11.54-19.77-8.75-14.79-14.16-30.47-12.78-48,.85-10.86,1.71-21.72,2.46-32.58,1.38-19.88,2.67-39.76,4-59.63q2.63-38.19,5.33-76.38c1.41-19.87,2.64-39.76,4.88-59.56.92-8.16,3.2-15.68,8.5-22.35a55.53,55.53,0,0,0,10.35-22.32c3.14-13.62.84-25.63-10.34-35.08-3-2.54-5.79-3.07-9.29-.89-4.37,2.73-9,4.83-14.39,5-17,.47-28.4-8-32.73-24.35-2.39-9-11.12-15.17-19.59-13.73C336.81,32,330.12,40.31,331,50.59,331.8,60.35,339.8,66.9,350.72,66.75Z" transform="translate(-115.63 -9.34)"/></svg>