<svg id="Capa_1" data-name="Capa 1" xmlns="http://www.w3.org/2000/svg" viewBox="0 0 512 452.45"><defs><style>.cls-1{fill:#050b3d;}.cls-2{fill:#fff;}</style></defs><path class="cls-1" d="M503.79,196.7a10,10,0,0,0,.71-2c5.52-23.79-5.7-39.77-15.36-47.34-2.19-17.85-19-29.27-32.78-34.78-1.4-16.81-7.79-30.47-19-40.66C418.92,55.2,392.55,53,379.66,53h-.4C366.7,31.47,338,30.48,321.19,33.6a227.48,227.48,0,0,0-29.5-8,10,10,0,0,0-3.89,19.69,211.05,211.05,0,0,1,29.36,8.12,10,10,0,0,0,5.66.31c.33-.07,33.46-7.61,40.73,12.84A10,10,0,0,0,374,73.23c.32,0,31.94-2.81,49.94,13.58,6.33,5.76,10.24,13.2,11.84,22.56-13.55.65-34.67,5.41-45.67,27.18A10,10,0,0,0,408,145.61c9.26-18.32,32.26-16.48,36.44-16,3.71,1.22,25.72,9.06,24.83,22.52a10,10,0,0,0,5.42,9.57,23.74,23.74,0,0,1,6.68,6.23c4.06,5.52,5.39,12.31,4,20.19l-.68.9c-15.58,1.71-39,11.52-42.21,40.5a10,10,0,0,0,8.88,11.08,10.46,10.46,0,0,0,1.11.06,10,10,0,0,0,10-8.94c2-18.36,17.8-22,24.6-22.73C531,241.27,500,316.52,497.9,321.34c-10.89,20.82-24.56,31.47-41.69,32.45C448.87,347.65,429.64,334,396,326a10,10,0,1,0-4.68,19.53c28.71,6.88,45.1,18.18,51.15,23a37.54,37.54,0,0,1-1.11,8.12c-7.14,28.37-45.54,43.24-85.59,33.16A102.71,102.71,0,0,1,336.72,403a10,10,0,0,0-14.31,8.19,136.13,136.13,0,0,0,1.65,37.35l-26.36,4.38c-1.12-4-2.25-8.66-3.47-13.73-5.89-24.4-14.4-59.59-39.42-88.46a388.27,388.27,0,0,1,59.74-10,10,10,0,1,0-1.64-20c-25,2.05-51.71,7-79.54,14.83C207.86,339,190,337.6,188,337.43c-43.51-6.54-55.67-32.83-52.84-53.39a10,10,0,0,0-12.33-11.12l-7.27,1.78c-12.7-.63-44.42-5.55-58.7-22.17-6.2-7.23-8.57-15.95-7.25-26.68a10,10,0,0,0-5.28-10.11S40,213.15,39,208.61c-1.25-5.4,2.38-11.87,5.64-16.34a10.06,10.06,0,0,0,1.31-9.37c-.08-.21-7.48-21.57,1-39.29,4.71-9.87,13.72-17.14,26.8-21.62a9.92,9.92,0,0,0,6.75-8.64c0-.13,1.29-12.86,10.57-19.77,6.4-4.78,15.65-6,27.46-3.64a10,10,0,0,0,11.89-8.26c0-.22,4.53-21.11,43.69-21.85,5.95,8.11,19.06,29.43,9.33,48.53a10,10,0,0,0,17.89,9.11,51.84,51.84,0,0,0,5.63-21.11c5.42-2.3,13.85-4.78,20.59-2.78,4.38,1.3,7.74,4.48,10.29,9.71a10,10,0,0,0,18.06-8.79c-5-10.28-12.84-17.26-22.64-20.17-10.43-3.09-21.05-1.12-28.9,1.53a90.26,90.26,0,0,0-10.37-22.48,132.87,132.87,0,0,1,19-6.52,10,10,0,1,0-5.1-19.42,137.66,137.66,0,0,0-31.56,12.28c-40.66,0-56.38,17.77-62.3,29.27-14-1.32-25.81,1.58-35.17,8.66-10.91,8.26-15.38,20.14-17.18,27.47C46.15,111.58,35.12,121.6,28.75,135c-9.25,19.4-5.68,40.26-3.24,49.71-6.14,9.91-8.2,19.47-6.12,28.47a31.29,31.29,0,0,0,9.81,16.23c-.47,13.91,3.7,26.08,12.42,36.24,21.63,25.17,64.73,28.69,73.24,29.15,2.19,28,23.5,55.62,70.46,62.57l.45.05c.42.05,5.62.56,14.4.56a268.72,268.72,0,0,0,31.93-2c27.69,26.17,36.28,61.7,42.61,87.91,2.3,9.54,4.29,17.78,6.88,24.13a10,10,0,0,0,9.29,6.24,10.19,10.19,0,0,0,1.65-.13L338,466.53a10,10,0,0,0,8-12.7,105.62,105.62,0,0,1-4-27.18c2.95,1,5.94,1.86,9,2.62C375,435.33,399.5,434,420,425.56c21.47-8.89,36-24.52,40.92-44a59.72,59.72,0,0,0,1.43-8.21c17.13-2.38,37.76-12.58,53.58-43,.09-.18.18-.36.26-.55a193,193,0,0,0,13.66-52.52C533.49,242.22,524.52,214.62,503.79,196.7Z" transform="translate(-18.61 -21.78)"/><path class="cls-1" d="M252.12,167.2a77.83,77.83,0,0,0,12.32,28,68.22,68.22,0,0,0,8.48,9.87c-1.8,10.31-17.58,15.95-18,16.08a10,10,0,0,0,6.45,19c9.28-3.13,22.77-10.92,28.73-23.45a68.41,68.41,0,0,0,28.52,5.81l2.18,0a10,10,0,0,0-.25-20.08h-.26c-40.28,1-48.13-37.11-48.47-38.86a10,10,0,0,0-19.75,3.64Z" transform="translate(-18.61 -21.78)"/><path class="cls-1" d="M374.52,255.35c17.43-30.46,10.55-54,1.71-68.41a75.09,75.09,0,0,0-23.37-23.54,10,10,0,0,0-10.2,17.3A55.08,55.08,0,0,1,359.46,198c8.36,14.06,7.56,30-2.37,47.35a10,10,0,0,0,17.43,10Z" transform="translate(-18.61 -21.78)"/><path class="cls-1" d="M325.9,76.31c-17-10.06-36.45-4.86-37.27-4.64A10,10,0,0,0,294,91c.12,0,12.15-3.11,21.69,2.55,5.68,3.36,9.6,9.51,11.65,18.25a10,10,0,0,0,19.55-4.59C343.49,93,336.44,82.57,325.9,76.31Z" transform="translate(-18.61 -21.78)"/><path class="cls-1" d="M240.79,35.63a10,10,0,1,0,3.71-12.19A10.15,10.15,0,0,0,240.79,35.63Z" transform="translate(-18.61 -21.78)"/><path class="cls-1" d="M61.6,348.44a18.5,18.5,0,0,1-13.08-31.58l25.81-25.8L48.52,265.25a18.5,18.5,0,0,1,26.17-26.16l25.8,25.8,25.8-25.8a18.5,18.5,0,0,1,26.17,26.16l-25.81,25.81,25.81,25.8A18.5,18.5,0,0,1,126.29,343l-25.8-25.8L74.69,343A18.37,18.37,0,0,1,61.6,348.44Z" transform="translate(-18.61 -21.78)"/><path class="cls-2" d="M139.37,241.67a10.51,10.51,0,0,1,7.43,17.93l-31.46,31.46,31.46,31.46A10.5,10.5,0,1,1,132,337.36L100.49,305.9,69,337.37a10.5,10.5,0,0,1-14.85-14.85l31.46-31.46L54.18,259.6A10.5,10.5,0,1,1,69,244.75l31.46,31.46L132,244.75a10.47,10.47,0,0,1,7.42-3.08m0-16a26.33,26.33,0,0,0-18.73,7.76l-20.15,20.15L80.34,233.43a26.5,26.5,0,0,0-37.47,37.48L63,291.06,42.87,311.2a26.5,26.5,0,1,0,37.47,37.48l20.15-20.15,20.15,20.15a26.5,26.5,0,0,0,37.47-37.48L138,291.06l20.14-20.15a26.5,26.5,0,0,0-18.74-45.24Z" transform="translate(-18.61 -21.78)"/></svg>