<svg id="Capa_1" data-name="Capa 1" xmlns="http://www.w3.org/2000/svg" viewBox="0 0 231.78 391.67"><defs><style>.cls-1{fill:#050b3d;}.cls-2,.cls-3,.cls-4{fill:none;stroke:#050b3d;stroke-linecap:round;stroke-linejoin:round;stroke-width:11.67px;}.cls-3{stroke-dasharray:27.09 27.09;}.cls-4{stroke-dasharray:27.06 27.06;}</style></defs><path class="cls-1" d="M322.52,61.43c2.6,2.1,3.26,4.83,3.25,8.11-.1,23.45,0,46.91-.13,70.36a6,6,0,0,0,3.54,6,132.42,132.42,0,0,1,28.23,20.78c20,19.49,16.07,44.05,3.23,61.46-14.25,19.33-42.85,28.11-66.38,13.86a4,4,0,0,0-4.67,0c-18.06,10.31-36.1,9.59-53.34-1.54-17.53-11.31-25.24-28.09-23.74-48.77.66-9.11,5.83-16.45,11.83-23.08,8.39-9.25,18.49-16.31,29.36-22.25,3.15-1.72,4.15-3.7,4.13-7.19-.16-23.21-.05-46.42-.15-69.62,0-3.28.65-6,3.26-8.11Zm-9.08,50.72c0-11.6-.09-23.2.06-34.8,0-3.06-1-4-4-4-11.24.14-22.48,0-33.71,0-5.3,0-5.31,0-5.31,5.17,0,21.61-.13,43.23.08,64.85.06,5.84-1.87,9.4-7.29,12.06a102.51,102.51,0,0,0-30,22c-7,7.52-9.75,16.16-7.76,26.25,5.58,28.28,38.61,42.89,61.52,24.76,3.07-2.43,6.12-2.43,9.38-.1,15.72,11.24,33.18,10.9,47.87-1.34,14-11.67,23.19-36.13,1.64-54.24-8.18-6.88-16.7-13.18-26.34-17.76-4.61-2.19-6.43-5.17-6.28-10.29C313.66,133.9,313.44,123,313.44,112.15Z" transform="translate(-176.09 -61.43)"/><path class="cls-1" d="M291.94,453.09c-8.79,0-17.58,0-26.37,0-5.7,0-7.65-2-7.65-7.77,0-23.69-.07-47.38.06-71.07,0-3-1-4.61-3.58-6a129.42,129.42,0,0,1-27.45-20c-20.29-19.25-17.44-43.16-4.31-61.63,13.84-19.45,42.21-28.77,66.55-14.72,1.9,1.09,3.43,1.3,5.4.12,30.21-18.09,69.81,1.57,76.07,36.51,2.6,14.54-1.54,26.68-11.46,37.26a118.08,118.08,0,0,1-30,22.64,5.65,5.65,0,0,0-3.38,5.74c.11,23.57.07,47.14,0,70.71,0,6.45-1.79,8.19-8.32,8.2Q304.77,453.11,291.94,453.09ZM270.2,402c0,11.48.1,23-.07,34.45-.05,3.26.76,4.5,4.27,4.44q17.4-.32,34.81,0c3.58.07,4.53-1.08,4.5-4.57-.14-22.23.08-44.47-.17-66.7-.06-5.26,1.74-8.26,6.43-10.57a103.27,103.27,0,0,0,30.79-22.7c6.82-7.4,9.22-15.94,7.34-25.69-5.34-27.72-37.71-43.24-61.49-25.08-3.64,2.78-6,2.63-9.65,0-15.53-11-32.95-10.53-47.62,1.5-9.9,8.11-14.56,19-14.47,31.55.08,10.12,6.79,17,13.66,23.35A106.52,106.52,0,0,0,265,359.68c3.72,1.81,5.4,4.36,5.32,8.64C270.05,379.55,270.2,390.79,270.2,402Z" transform="translate(-176.09 -61.43)"/><path class="cls-2" d="M322.48,125.77a97.74,97.74,0,0,1,13.09,5.79" transform="translate(-176.09 -61.43)"/><path class="cls-3" d="M357.56,147.26c27,24.8,44.48,64.53,44.48,109.31,0,50.79-22.5,95.08-55.85,118.47" transform="translate(-176.09 -61.43)"/><path class="cls-2" d="M334.62,382.07a94.4,94.4,0,0,1-13.14,5.65" transform="translate(-176.09 -61.43)"/><path class="cls-2" d="M262.24,387.64A95.18,95.18,0,0,1,249.11,382" transform="translate(-176.09 -61.43)"/><path class="cls-4" d="M227,366.44c-27.34-24.76-45.1-64.75-45.1-109.87,0-50.35,22.12-94.32,55-117.86" transform="translate(-176.09 -61.43)"/><path class="cls-2" d="M248.4,131.56a95.14,95.14,0,0,1,13.08-5.79" transform="translate(-176.09 -61.43)"/></svg>