<svg id="Capa_1" data-name="Capa 1" xmlns="http://www.w3.org/2000/svg" viewBox="0 0 445.45 254.19"><defs><style>.cls-1,.cls-3{fill:none;stroke:#050b3d;stroke-linecap:round;}.cls-1{stroke-miterlimit:10;stroke-width:22.52px;}.cls-2{fill:#050b3d;}.cls-3{stroke-linejoin:round;stroke-width:10px;}</style></defs><path class="cls-1" d="M315.27,174.58c0,19.69-.06,39.39-.2,59.08-.21,28.35,12.24,48.87,38.26,60.82s51.39,25.15,76.18,39.48c8.58,5,18.59,4.27,27.91,6.31,3.49.76,7,1.29,10.58,1.81,11.77,1.72,20.2,12.63,18.38,24.38l0,.21c-3.79,23.37-19.45,35.65-43.49,31.45-16.29-2.84-31.88-1.47-48,.16-22.75,2.3-45.42-.31-67.59-5.8-17.46-4.33-34.38-4.22-51.5,1.81-18.56,6.54-38.09,5.85-57.13,3.87-22.82-2.37-40.05-22.85-41-45.83-.56-13.68,1.17-27.18,6.66-39.69,12.41-28.25,17-57.43,13.27-88.09-2-16.63-3.08-33.38-5.43-50" transform="translate(-52.44 -156.6)"/><path class="cls-2" d="M105.45,282c-6.49.61-37.63-.11-44.16.11a8.93,8.93,0,0,1-2.51-.52,10.14,10.14,0,0,1-6.23-10.63,9.59,9.59,0,0,1,8.69-8.33c5.94-.46,36.5.22,42.45,0a8.84,8.84,0,0,1,3.94.75,9.75,9.75,0,0,1,5.78,10.3A9.07,9.07,0,0,1,105.45,282Z" transform="translate(-52.44 -156.6)"/><path class="cls-2" d="M119.39,327.57a9.18,9.18,0,0,1,9.6-.77,9.65,9.65,0,0,1,1.91,16.63c-4.31,3.4-38.94,26.76-43.51,29.79A9.68,9.68,0,0,1,74,370.83a9.79,9.79,0,0,1,2.09-13.64C80.38,353.91,114.92,330.6,119.39,327.57Z" transform="translate(-52.44 -156.6)"/><path class="cls-2" d="M124.75,207.3c-4.59-4-36.49-30.2-40.83-36.12-2.58-3.53-1.44-8.74,1.85-11.8s8.46-3.81,12.17-.92c4.93,3.83,35.58,29.89,39.73,34.56a9.32,9.32,0,0,1,.09,12C134.8,208.76,130.27,209.85,124.75,207.3Z" transform="translate(-52.44 -156.6)"/><path class="cls-3" d="M274.55,317.75c5.84,3.3,11.46,6.68,16.48,10,0,0-3.78-16.19,11.59-21.81,0,0-11.79-4.56-26.69-12.28" transform="translate(-52.44 -156.6)"/><path class="cls-3" d="M254.74,281.49c-1.63-1.06-3.26-2.14-4.87-3.24,0,0-6.16,13.06-33.4,11,0,0,16.9,7.23,36.45,17" transform="translate(-52.44 -156.6)"/><path class="cls-3" d="M254.79,262.43s1.31,30.46-4.25,59.44c0,0,14.44.41,23.45,26.19,0,0-.4-50.63,5.43-83.74C279.42,264.32,266.09,274.27,254.79,262.43Z" transform="translate(-52.44 -156.6)"/></svg>