<svg id="Capa_1" data-name="Capa 1" xmlns="http://www.w3.org/2000/svg" viewBox="0 0 524.18 268.61"><defs><style>.cls-1,.cls-2{fill:none;stroke:#050b3d;stroke-linecap:round;stroke-miterlimit:10;}.cls-1{stroke-width:22.52px;}.cls-2{stroke-width:10.7px;}</style></defs><path class="cls-1" d="M521.24,267.68c0,15.65,7.64,33.08,2.31,46.85-3.68,9.51-3.44,14.35-9.25,22.55-3.21,4.54-1.81,20.38-5.59,24.43a123,123,0,1,1-90-207c45.81,0,88.64,16,103.67,40.85,4.68,7.73-5.73,31.21-3.9,41A170.19,170.19,0,0,1,521.24,267.68Z" transform="translate(-12.51 -143.28)"/><path class="cls-1" d="M156.22,298.08v-41a27.22,27.22,0,0,1,27.22-27.22h34.77c20.29,0,30.31-24.45,16-38.86a122.64,122.64,0,0,0-87.05-36.47c-67.1-.2-122.48,54.2-123.41,121.29A123,123,0,0,0,234.5,363.91c14.11-14.33,3.82-38.61-16.29-38.61H183.44A27.22,27.22,0,0,1,156.22,298.08Z" transform="translate(-12.51 -143.28)"/><path class="cls-2" d="M152.76,182.45S55,181,53.45,277.92s99.31,95.72,99.31,95.72" transform="translate(-12.51 -143.28)"/><path class="cls-2" d="M424.46,179.38s-97.73,1.66-99.31,98.54,95.51,96.78,95.51,96.78" transform="translate(-12.51 -143.28)"/><path class="cls-2" d="M483.23,226.8s-69.2-4.09-72.37,50.78,72.37,57.52,72.37,57.52" transform="translate(-12.51 -143.28)"/></svg>