<svg id="Capa_1" data-name="Capa 1" xmlns="http://www.w3.org/2000/svg" viewBox="0 0 438.9 438.9"><defs><style>.cls-1{fill:#050b3d;}</style></defs><path class="cls-1" d="M97.71,54.88a90.12,90.12,0,0,0,0,127.3l65.75,65.89L97.71,313.81A90,90,0,0,0,225,441.12l65.74-65.74,65.88,65.74A90,90,0,1,0,483.94,313.8l-65.86-65.73,65.72-65.73A90,90,0,0,0,356.49,55l-65.72,65.72L225,54.88a90.12,90.12,0,0,0-127.31,0ZM465.77,332a64.3,64.3,0,1,1-90.95,90.93L309,357.19l90.94-90.94ZM374.68,73.21a64.3,64.3,0,0,1,90.94,90.94C454,175.8,218,411.78,206.84,422.93A64.3,64.3,0,0,1,115.9,332l74.81-74.81h0L299.84,148.05h0Zm-193,156.67L115.9,164a64.3,64.3,0,1,1,90.93-90.94l65.75,65.88Z" transform="translate(-71.38 -28.55)"/><path class="cls-1" d="M206.84,277.43a12.85,12.85,0,0,0,0,18.19L243.21,332a12.85,12.85,0,0,0,18.19,0L374.68,218.72a12.87,12.87,0,0,0,0-18.19L338.3,164.15a12.87,12.87,0,0,0-18.19,0ZM347.4,209.62l-95.1,95.09-18.18-18.18,95.09-95.09Z" transform="translate(-71.38 -28.55)"/><path class="cls-1" d="M374.68,146a12.86,12.86,0,1,0-18.19,0A12.86,12.86,0,0,0,374.68,146Z" transform="translate(-71.38 -28.55)"/><path class="cls-1" d="M411.05,182.34a12.86,12.86,0,1,0-18.18,0A12.85,12.85,0,0,0,411.05,182.34Z" transform="translate(-71.38 -28.55)"/><circle class="cls-1" cx="330.58" cy="71.94" r="12.86"/><path class="cls-1" d="M447.43,146a12.86,12.86,0,1,0-18.19,0A12.86,12.86,0,0,0,447.43,146Z" transform="translate(-71.38 -28.55)"/><circle class="cls-1" cx="71.8" cy="330.73" r="12.86"/><path class="cls-1" d="M170.46,386.56a12.86,12.86,0,1,0,18.19,0A12.87,12.87,0,0,0,170.46,386.56Z" transform="translate(-71.38 -28.55)"/><circle class="cls-1" cx="108.17" cy="294.35" r="12.86"/><circle class="cls-1" cx="144.55" cy="330.73" r="12.86"/></svg>