<?xml version="1.0" encoding="utf-8"?>
<!-- Generator: Adobe Illustrator 25.4.1, SVG Export Plug-In . SVG Version: 6.00 Build 0)  -->
<svg version="1.1" id="Capa_1" xmlns="http://www.w3.org/2000/svg" xmlns:xlink="http://www.w3.org/1999/xlink" x="0px" y="0px"
	 viewBox="0 0 33.9 44.6" style="enable-background:new 0 0 33.9 44.6;" xml:space="preserve">
<style type="text/css">
	.st0{fill:none;stroke:#00E9C5;stroke-width:0.6608;stroke-miterlimit:10;}
	.st1{fill:none;stroke:#00E9C5;stroke-width:0.5;stroke-miterlimit:10;}
	.st2{fill:none;stroke:#00E9C5;stroke-linecap:round;stroke-linejoin:round;stroke-miterlimit:10;}
	.st3{fill:none;stroke:#00E9C5;stroke-miterlimit:10;}
</style>
<g id="Iconos">
	<g>
		<path class="st0" d="M16.2,17.5c0.2-0.2,0.5-0.3,0.8-0.5c1.9-1,4-0.8,4.7,0.5s-0.4,3.1-2.3,4.1c-0.3,0.1-0.6,0.3-0.8,0.4"/>
		<path class="st1" d="M21.8,18.7c-1.4,0.3-2.8,0.8-4,1.5"/>
		<path class="st1" d="M20.8,16.7c-1.1,1-2.3,1.8-3.7,2.4"/>
	</g>
	<g>
		<path class="st2" d="M13.7,21.5L12.8,24c-0.4,1.2,0,2.5,1.1,3.1l5.4,3.2l-6.7,8.6c-0.8,1-0.5,2.4,0.5,3l0,0
			c0.9,0.6,2.1,0.4,2.8-0.5l7.4-9.5c1.3-1.6,0.8-4-1-5L20,25.5l2-5.6l0.4,1c0.5,1.2,1.9,1.9,3.2,1.5l6.3-1.8
			c1.2-0.3,1.8-1.6,1.4-2.8l0,0c-0.4-1.1-1.5-1.7-2.6-1.3l-4.8,1.3L25,12.7c-0.1-1.3-1.7-2.4-3.1-2.9l-2-0.6
			c-0.2-0.1-0.5-0.1-0.8-0.2c-1-0.2-2.1,0.1-2.9,0.9c-0.2,0.2-0.4,0.4-0.6,0.7l-3.5,4.3c-0.9,1.1-1,2.7-0.2,4l2.7,4.1
			c0.6,1,2,1.2,3,0.5l0,0c0.9-0.6,1.1-1.8,0.6-2.8L16,17l3.4-4.1"/>
		<path class="st3" d="M12.6,24.8l-4,8.7l-7.4,7c-0.9,0.8-0.9,2.2,0,3l0,0c0.8,0.8,2.1,0.8,2.9,0l8.2-7.8l3.5-7.6"/>
		<circle class="st3" cx="23" cy="4.2" r="3.7"/>
	</g>
</g>
</svg>
