<?xml version="1.0" encoding="utf-8"?>
<!-- Generator: Adobe Illustrator 25.4.1, SVG Export Plug-In . SVG Version: 6.00 Build 0)  -->
<svg version="1.1" id="Iconos" xmlns="http://www.w3.org/2000/svg" xmlns:xlink="http://www.w3.org/1999/xlink" x="0px" y="0px"
	 viewBox="0 0 33.5 40.1" style="enable-background:new 0 0 33.5 40.1;" xml:space="preserve">
<style type="text/css">
	.st0{fill:none;stroke:#FFDE37;stroke-width:2;stroke-miterlimit:10;}
	.st1{fill:#00E9C5;}
	.st2{fill:none;stroke:#00E9C5;stroke-width:1;stroke-miterlimit:9.9992;}
	.st3{fill:none;stroke:#00E9C5;stroke-miterlimit:10;}
</style>
<line class="st0" x1="33.5" y1="15.7" x2="0" y2="15.7"/>
<path class="st1" d="M17.6,0.6c-0.2-0.5-0.8-0.7-1.3-0.5c-0.2,0-0.5,0.3-0.7,0.5l-3.3,6.2L8.5,13c-0.2,0.5,0,1.1,0.5,1.5
	c0.2,0,0.5,0.2,0.5,0.2h3.8v9.8c0,0.6,0.5,1.1,1.1,1.1l0,0h4.7c0.6,0,1.1-0.5,1.1-1.1l0,0v-9.8h3.7c0.6,0,1.1-0.5,1.1-1.1
	c0-0.2,0-0.5-0.2-0.6"/>
<g id="Iconos_00000143597014398817749560000013694720850683830403_">
	
		<ellipse transform="matrix(0.9999 -1.012133e-02 1.012133e-02 0.9999 -0.342 0.174)" class="st2" cx="17" cy="33.9" rx="8.6" ry="5.7"/>
	<path class="st3" d="M9.2,31.5c5.1,1.4,10.4,1.4,15.5-0.1"/>
	<path class="st3" d="M9.3,36.3c5.1-1.4,10.4-1.4,15.5-0.2"/>
</g>
</svg>
