<?xml version="1.0" encoding="utf-8"?>
<!-- Generator: Adobe Illustrator 25.4.1, SVG Export Plug-In . SVG Version: 6.00 Build 0)  -->
<svg version="1.1" id="Capa_1" xmlns="http://www.w3.org/2000/svg" xmlns:xlink="http://www.w3.org/1999/xlink" x="0px" y="0px"
	 viewBox="0 0 44.4 41.4" style="enable-background:new 0 0 44.4 41.4;" xml:space="preserve">
<style type="text/css">
	.st0{fill:none;stroke:#FF3737;stroke-linecap:round;stroke-linejoin:round;stroke-miterlimit:10;}
	.st1{fill:none;stroke:#FF3737;stroke-miterlimit:10;}
	.st2{fill:none;stroke:#00E9C5;stroke-width:0.4984;stroke-miterlimit:10;}
	.st3{fill:none;stroke:#00E9C5;stroke-width:0.7476;stroke-miterlimit:10;}
	.st4{fill:none;stroke:#00E9C5;stroke-linecap:round;stroke-linejoin:round;stroke-miterlimit:10;}
	.st5{fill:none;stroke:#00E9C5;stroke-miterlimit:10;}
</style>
<g id="Iconos_00000070816688638050993800000018427400593470296760_">
	<g>
		<path class="st0" d="M35.9,22.9l0.4,1.9c0.2,0.9-0.3,1.8-1.1,2.2l-4.3,1.9l4.2,7.1c0.5,0.8,0.2,1.8-0.7,2.2l0,0
			c-0.7,0.3-1.6,0.1-2-0.6l-4.7-7.8c-0.8-1.3-0.3-3.1,1.2-3.7l1.8-0.8l-1-4.4l-0.4,0.7c-0.5,0.9-1.6,1.2-2.5,0.8l-4.5-1.8
			c-0.9-0.4-1.2-1.4-0.8-2.2l0,0c0.4-0.8,1.3-1.1,2.1-0.8l3.5,1.5l1.1-3.7c0.2-1,1.5-1.7,2.5-1.9l1.6-0.3c0.2,0,0.4-0.1,0.6-0.1
			c0.8-0.1,1.6,0.3,2.1,0.9c0.1,0.2,0.3,0.4,0.4,0.6l2.2,3.5c0.6,0.9,0.5,2.1-0.2,3L35,23.9c-0.6,0.7-1.6,0.8-2.3,0.1l0,0
			c-0.6-0.6-0.7-1.5-0.2-2.1l2-2.6l-2.2-3.4"/>
		<path class="st1" d="M36.4,25.5l2.2,6.9l4.9,5.9c0.6,0.7,0.5,1.7-0.3,2.3l0,0c-0.7,0.5-1.6,0.4-2.2-0.2l-5.4-6.5l-2-6"/>
		<circle class="st1" cx="30.5" cy="9.1" r="2.8"/>
	</g>
</g>
<g id="Iconos_00000158030833766211031670000012743854722521939335_">
	<g>
		<path class="st2" d="M10,13.9c0.2-0.2,0.4-0.3,0.6-0.4c1.3-0.9,2.9-0.9,3.5,0s0,2.3-1.4,3.3c-0.2,0.1-0.4,0.2-0.6,0.3"/>
		<path class="st3" d="M14.3,14.3c-1,0.3-2,0.8-2.9,1.5"/>
		<path class="st3" d="M13.4,12.9c-0.7,0.8-1.6,1.5-2.5,2.1"/>
	</g>
	<g>
		<path class="st4" d="M8.5,17.1L8.1,19c-0.2,0.9,0.3,1.8,1.1,2.2l4.3,1.9l-4.3,7.1C8.7,31,9,32,9.9,32.4l0,0c0.7,0.3,1.6,0.1,2-0.6
			l4.7-7.8c0.8-1.3,0.3-3.1-1.2-3.7l-1.8-0.8l1-4.4l0.4,0.7c0.5,0.9,1.6,1.2,2.5,0.8l4.5-1.9c0.9-0.4,1.2-1.4,0.8-2.2l0,0
			c-0.4-0.8-1.3-1.1-2.1-0.8l-3.5,1.5l-1-3.7c-0.2-1-1.5-1.7-2.5-1.9l-1.6-0.3c-0.2,0-0.4-0.1-0.6-0.1c-0.8-0.1-1.6,0.3-2.1,0.9
			C9.3,8.3,9.1,8.5,9,8.7l-2.2,3.5c-0.6,0.9-0.5,2.1,0.2,3L9.4,18c0.6,0.7,1.6,0.8,2.3,0.1l0,0c0.6-0.6,0.7-1.5,0.2-2.1l-2-2.6
			l2.2-3.4"/>
		<path class="st5" d="M8,19.7l-2.2,6.9l-4.9,5.9c-0.6,0.7-0.5,1.7,0.3,2.3l0,0c0.7,0.5,1.6,0.4,2.2-0.2l5.4-6.5l2-6"/>
		<circle class="st5" cx="13.9" cy="3.3" r="2.8"/>
	</g>
</g>
</svg>
