<?xml version="1.0" encoding="utf-8"?>
<!-- Generator: Adobe Illustrator 25.4.1, SVG Export Plug-In . SVG Version: 6.00 Build 0)  -->
<svg version="1.1" id="Iconos" xmlns="http://www.w3.org/2000/svg" xmlns:xlink="http://www.w3.org/1999/xlink" x="0px" y="0px"
	 viewBox="0 0 43.9 39.5" style="enable-background:new 0 0 43.9 39.5;" xml:space="preserve">
<style type="text/css">
	.st0{fill:none;stroke:#00E9C5;stroke-width:0.6;stroke-miterlimit:9.9999;}
	.st1{fill:none;stroke:#00E9C5;stroke-width:0.6;stroke-miterlimit:10;}
	.st2{fill:none;stroke:#00E9C5;stroke-width:0.3971;stroke-linecap:round;stroke-miterlimit:10;}
	.st3{fill:none;stroke:#00E9C5;stroke-width:0.5956;stroke-linecap:round;stroke-miterlimit:10;}
	.st4{fill:none;stroke:#00E9C5;stroke-width:1.1765;stroke-linecap:round;stroke-linejoin:round;stroke-miterlimit:10;}
	.st5{fill:none;stroke:#00E9C5;stroke-width:1.1765;stroke-miterlimit:10;}
	.st6{enable-background:new    ;}
	.st7{fill:#00E9C5;}
</style>
<g id="Pelota">
	<ellipse transform="matrix(0.5435 -0.8394 0.8394 0.5435 8.7574 35.1036)" class="st0" cx="36.7" cy="9.5" rx="4.9" ry="3.2"/>
	<path class="st1" d="M40.2,6.5c-2.2,2-4,4.6-4.9,7.5"/>
	<path class="st1" d="M37.9,5c-1,2.9-2.6,5.4-4.9,7.5"/>
</g>
<line class="st2" x1="26.8" y1="22.7" x2="30.6" y2="17.3"/>
<line class="st3" x1="27.4" y1="24.5" x2="33.4" y2="15.6"/>
<line class="st2" x1="29.1" y1="24.2" x2="32.3" y2="19.8"/>
<path class="st4" d="M7.1,6.4l6.9,2c1.4,0.4,2.6,1.3,3.4,2.5l0.3,0.5l7.1,3.2c0.8,0.4,1.2,1.3,0.9,2.2l0,0c-0.4,0.9-1.4,1.3-2.3,1
	l-7.3-3.1l-1.3,7.9l12.7,4.8c1,0.4,1.5,1.4,1.2,2.4l0,0c-0.3,1.1-1.5,1.8-2.6,1.3l-11.6-4.5l0.8,1c0.7,0.9,0.9,2.1,0.6,3.1l-2,6.7
	c-0.3,1.1-1.4,1.7-2.5,1.4l0,0c-1.2-0.3-1.9-1.5-1.5-2.7l2-6.3l-3.1-3.6c-1.2-1.5-1.7-3.4-1.4-5.3l1.7-10L5.6,9.6
	C4.8,9.3,4.2,8.8,3.7,8.1L0.8,3.9c-0.5-0.8-0.1-2,0.9-2.5l0,0C2.4,1.1,3.3,1.3,3.8,2L7.1,6.4z"/>
<circle class="st5" cx="16.3" cy="3.8" r="3.2"/>
<g class="st6">
	<path class="st7" d="M33.4,39.5c-0.5,0-2.8-0.2-2.8-0.9c0-0.2,0.1-0.5,0.2-0.7c0.1-0.2,0.2-0.4,0.5-0.4c0.1,0,0.2,0,0.2,0
		c0.6,0.2,1.2,0.4,1.9,0.4c0.7,0,0.9-0.3,0.9-1c0-0.7-0.3-0.8-1-0.8c-0.5,0-1,0-1.4,0c-0.6,0-0.5-0.5-0.5-1c0-0.3,0.2-0.5,0.6-0.5
		h0.8c1,0,1.3,0,1.3-1c0-0.7-0.3-0.7-1-0.7c-0.3,0-0.6,0-1,0.1c-0.2,0-0.4,0.1-0.6,0.1c-0.5,0-0.5-0.6-0.5-1c0,0,0,0,0-0.1
		c0-0.2,0.1-0.3,0.2-0.4c0.2-0.2,1.5-0.2,1.8-0.2c1.5,0,2.8,0.4,2.8,2.1c0,0.6-0.1,1.2-0.6,1.6c0.7,0.4,0.9,1.1,0.9,1.8
		C36.2,38.7,35.2,39.5,33.4,39.5z"/>
	<path class="st7" d="M42.8,36.6c-0.7,0.4-1.9,0.3-2.7,0.3v1.8c0,0.7-0.6,0.6-1.1,0.6c-0.4,0-0.7-0.2-0.7-0.6V32
		c0-0.5,0.3-0.6,0.7-0.6h2.2c0.8,0,1.5,0,2.1,0.6c0.6,0.6,0.6,1.5,0.6,2.2C43.9,35.2,43.7,36.2,42.8,36.6z M40.1,33v2.3h1.3
		c0.2,0,0.5,0,0.6-0.2C42,35,42,34.5,42,34.3c0-0.3,0-1.1-0.2-1.2C41.7,33,41.2,33,41.1,33C40.7,33,40.4,33,40.1,33z"/>
</g>
</svg>
