<?xml version="1.0" encoding="utf-8"?>
<!-- Generator: Adobe Illustrator 25.4.1, SVG Export Plug-In . SVG Version: 6.00 Build 0)  -->
<svg version="1.1" id="Capa_1" xmlns="http://www.w3.org/2000/svg" xmlns:xlink="http://www.w3.org/1999/xlink" x="0px" y="0px"
	 viewBox="0 0 84.6 69.9" style="enable-background:new 0 0 84.6 69.9;" xml:space="preserve">
<style type="text/css">
	.st0{fill:none;stroke:#FF3737;stroke-width:3.753;stroke-linecap:round;stroke-miterlimit:9.9994;}
	.st1{fill:none;stroke:#FF3737;stroke-width:3.7533;stroke-linecap:round;stroke-miterlimit:10;}
	.st2{fill:#FF3737;stroke:#FF3737;stroke-width:1.3;stroke-miterlimit:10;}
</style>
<g id="Pelota">
	<ellipse transform="matrix(0.3122 -0.95 0.95 0.3122 -15.5053 48.356)" class="st0" cx="25.6" cy="34.9" rx="34" ry="22.4"/>
	<path class="st1" d="M7,61.1C18.9,43.9,25.5,23.7,26.1,2.8"/>
	<path class="st1" d="M25,67c1.5-20.7,8-40.7,19.2-58.3"/>
</g>
<g>
	<g>
		<path class="st2" d="M49.1,48.8l1.2,1.6c1.6,2.1,3.8,3.6,6.7,4c3,0.1,5.2-0.3,5.3-0.5c0-0.3-4.8-0.7-5-0.7
			c-2.4-0.4-4.4-1.7-5.9-3.5l-1.2-1.6c-1.6-2.1-2.2-4.7-1.6-7.3l3.3-15.5c0.4-1.4,1.8-1.2,2.6-0.2c0.9,1.2,1,2.4,0.7,3.8L54,33
			c-0.5,1.5,1.3,3.1,2.8,2.1l2.7-1.7c0.1,0,1.4-0.5,10-11.6c0.9-1,2.6-1,3.3,0c0.5,0.7,0.6,1.7-0.2,2.5l-9.6,11.4
			c-0.7,0.7-0.1,1.5,0.8,0.9l13.2-8.8c1.5-1.1,3.6,0.2,3.3,1.8c-0.1,0.6-0.4,1-0.9,1.3l-12.7,8.9c-0.6,0.5-0.9,1.4,0.6,1L80.3,36
			c0.6-0.2,1.3-0.2,1.6,0.1c1.4,0.7,1.5,2.6,0.3,3.5c-0.2,0.2,0.8-0.2-13.7,5c-0.7,0.3-1.7,1.3,0.2,1.2l9.6-1
			c1.7-0.1,2.8,2.1,1.1,3.1c-0.2,0.2-0.5,0.3-0.9,0.3l-6.6,0.6c-2.6,0.4-5.5,1.2-7.7,2.9c-0.7,0.5-1.5,0.9-2.4,1.2
			c-2.3,0.5-4.2,0.3-4.6,0.3c-1.8-0.2,4.5,1,4.9,0.8c1.1-0.3,1.9-0.8,2.7-1.3c2.1-1.4,4.6-2.3,7-2.6l6.6-0.6
			c1.6-0.2,2.9-1.6,2.7-3.2c-0.2-1.6-1.6-2.7-3.3-2.5l-5,0.6l9-3.3c1.7-0.7,2.6-2.5,1.9-4.1c-0.7-1.6-2.6-2.4-4.2-1.8l-8.6,3.2
			l9-6.2c1.4-1.1,1.8-3.1,0.8-4.4c-1-1.4-3.2-1.7-4.6-0.7l-9.6,6.6l6.8-8.2c1-1.1,1.1-2.7,0.2-3.8c-1.3-1.6-3.8-1.7-5.3-0.1
			l-8.8,10.5c-0.3,0.3-1.2,0.9-1.6,1.2c-0.2,0.2-0.5,0.3-0.7,0.4L56,34.1c-0.3,0.1-1.2-0.4-0.9-1.3c1.1-3.5,1.1-3.5,1.1-3.5
			c0.3-1.8,0-3.6-1-5.1c-1.3-1.8-4.4-1.3-4.9,1.1c-3.3,16.1-3.1,15.5-3.1,15.5C46.7,43.5,47.5,46.5,49.1,48.8L49.1,48.8z"/>
	</g>
</g>
</svg>
