<?xml version="1.0" encoding="utf-8"?>
<!-- Generator: Adobe Illustrator 25.4.1, SVG Export Plug-In . SVG Version: 6.00 Build 0)  -->
<svg version="1.1" id="Iconos" xmlns="http://www.w3.org/2000/svg" xmlns:xlink="http://www.w3.org/1999/xlink" x="0px" y="0px"
	 viewBox="0 0 26.1 46" style="enable-background:new 0 0 26.1 46;" xml:space="preserve">
<style type="text/css">
	.st0{fill:none;stroke:#FF3737;stroke-miterlimit:10;}
	.st1{fill:none;stroke:#00E9C5;stroke-miterlimit:10;}
	.st2{fill:none;stroke:#FF3737;stroke-width:0.6;stroke-miterlimit:10.0003;}
	.st3{fill:none;stroke:#FF3737;stroke-width:0.4;stroke-miterlimit:10;}
</style>
<g id="Salto">
	<circle class="st0" cx="15.3" cy="9.7" r="1.9"/>
	<path class="st0" d="M13,12.4l0.2-11.2c0.2-0.5,1.2-0.8,1.8-0.6c0.2,0.1,0.4,0.3,0.5,0.5v6.8"/>
	<path class="st0" d="M15,39.7l-0.4,0.1c-0.3,0.1-1.5,0.6-2.2,0c-0.4-0.3-0.6-0.9-0.7-1.3l-0.4-5.8c0,0-0.7-5.7-0.7-12.5l0.4-5.1
		L1,14.8c0,0-1.3-1.4,0.2-2.5l12.1,0.3"/>
	<path class="st0" d="M15.8,18.5l-1.4,21.3"/>
	<line class="st0" x1="13.5" y1="12.2" x2="13.5" y2="10.3"/>
	<line class="st0" x1="15.7" y1="13.6" x2="15.7" y2="11.2"/>
</g>
<g id="salto_2">
	<path class="st1" d="M23.6,23.6l2,2.6c0,0,0,3.5-3.4,0l-1.4-1.5l2.5,20.1c0,0-1.3,1.6-2.5,0.1l-2-11.5c-0.3-0.3-0.5-0.3-0.7,0
		l-0.7,10.8c0,0-1.2,2-2.4-0.1l1.7-23.9L13,13.4c0,0,0.2-1.9,1.9-0.7l3.6,4.2"/>
	<path class="st1" d="M18.6,19.7c-0.7-0.9-0.6-2.2,0.2-2.9c0.9-0.7,2.2-0.6,2.9,0.2c0.3,0.4,0.5,0.9,0.5,1.5c0,0.7-0.3,1.3-0.9,1.7"
		/>
	<path class="st1" d="M20.9,24.7l-2.4-4.4c0,0-0.1-1.8,1.7-0.8l3.9,4.7"/>
</g>
<ellipse transform="matrix(0.6031 -0.7977 0.7977 0.6031 -0.2112 7.857)" class="st2" cx="7.8" cy="4.1" rx="3.5" ry="2.3"/>
<path class="st3" d="M10.4,2.3c-1.7,1.3-3,3-3.8,5"/>
<path class="st3" d="M8.9,1.2c-0.8,2-2.1,3.7-3.8,5"/>
</svg>
