<?xml version="1.0" encoding="utf-8"?>
<!-- Generator: Adobe Illustrator 25.4.1, SVG Export Plug-In . SVG Version: 6.00 Build 0)  -->
<svg version="1.1" id="Capa_1" xmlns="http://www.w3.org/2000/svg" xmlns:xlink="http://www.w3.org/1999/xlink" x="0px" y="0px"
	 viewBox="0 0 100.6 70.5" style="enable-background:new 0 0 100.6 70.5;" xml:space="preserve">
<style type="text/css">
	.st0{fill:none;stroke:#FF3737;stroke-width:1.2;stroke-linecap:round;stroke-linejoin:round;stroke-miterlimit:10;}
	.st1{fill:none;stroke:#FF3737;stroke-width:1.2;stroke-miterlimit:10;}
	.st2{display:none;}
	.st3{display:inline;}
	.st4{fill:none;stroke:#D61616;stroke-linecap:round;stroke-linejoin:round;stroke-miterlimit:10;}
	.st5{display:inline;fill:none;stroke:#D61616;stroke-linecap:round;stroke-linejoin:round;stroke-miterlimit:10;}
</style>
<path class="st0" d="M59.1,20.2c1.7-1.1,2.5-1.2,3.3-0.9l0,0"/>
<path class="st0" d="M43.6,28l0.9-1.9l-3.4-1c-2-0.6-4.1-0.5-6,0.4l-16,7.3c-3.1,1.4-4.3,5.2-2.6,8.1l6.6,11.5
	c0.4,0.7,0.4,1.6-0.1,2.2l-7.3,9.7c-1,1.4-0.6,3.3,0.9,4.2l0,0c1.2,0.7,2.8,0.4,3.7-0.7l8.5-10.2c1.8-2.2,2.1-5.2,0.8-7.7l-3.8-7.3
	c-0.3-0.6,0-1.2,0.5-1.5l14.1-6.2L40.4,35"/>
<path class="st0" d="M56.5,25.8"/>
<path class="st0" d="M55.8,27.2"/>
<path class="st0" d="M41.1,33.3c-0.6,1.3-0.5,2.9,0.2,4.1l6.2,10.7c0.5,0.9,0.7,2,0.3,3l-4.2,13.7c-0.5,1.7,0.6,3.5,2.3,3.8l0,0
	c1.5,0.3,3.1-0.6,3.5-2.1l4.3-13.8c0.5-1.7,0.4-3.6-0.4-5.2l-2.9-5.8"/>
<path class="st0" d="M62.5,19.3l-0.3,0.8c-0.7,1.1-0.3,2.5,0.8,3.1l0,0c1,0.5,2.3,0.1,2.9-0.9l1.1-2.1c0.8-1.5,0.2-3.3-1.2-4.1
	l-4.6-2.6c-1.9-1-3.9-1.6-6-1.7l0,0c-1.4-0.1-3.4,0.4-5,1.3c-1.4,0.7-2.4,2-2.8,3.5l-2.7,9.5"/>
<g id="Pelota">
	<path class="st1" d="M59.2,34c-1.1,1.5-3.4,3-5.1,3c-1.4,0-2.7-1-2.8-2.4c-0.1-1.1,0.2-2.4,0.9-3.7"/>
	<path class="st1" d="M59.2,27.6"/>
	<path class="st1" d="M56.4,27.2"/>
	<path class="st1" d="M51.4,35.5c1.4-1.1,2.6-2.3,3.6-3.7"/>
	<path class="st1" d="M54,37.5c0.7-1.8,1.7-3.5,2.9-5"/>
</g>
<line class="st0" x1="59.2" y1="28.3" x2="52.8" y2="26.3"/>
<path class="st0" d="M48.8,21.2l-1.1,4.3c-0.5,2,0.7,4.1,2.7,4.8l8.2,2.5"/>
<path class="st0" d="M40.7,35.4l1.1,12.1c0.1,1-0.1,2-0.6,2.9l-4.9,9.8c-0.6,1.4,0.1,3,1.6,3.5l0,0c1.3,0.4,2.8-0.2,3.3-1.5
	l6.4-13.8"/>
<path class="st0" d="M61.9,22.1c-1.5,1.2-2.3,3-2.5,5L59,37.7l-11.7-1.1c-1.4-0.1-2.6,0.9-2.7,2.3l0,0c-0.1,1.4,1,2.5,2.3,2.6
	l12.6,0.9c1.3,0.1,2.6-0.6,3.4-1.6c0.6-0.7,0.8-1.6,0.9-2.6l0.2-9.4c0-0.4,0.5-0.5,0.7-0.2l4.9,6.8c0.4,0.6,0.5,1.3,0.2,2l-4.4,10.5
	c-0.9,2.2-1,4.6-0.2,6.8l3.9,13.1c0.5,1.6,2.2,2.5,3.8,2l0,0c1.7-0.5,2.7-2.3,2.1-4l-4.1-13.5c-0.2-0.5-0.1-1.1,0.2-1.6l3.9-7.3
	c0.2-0.4,0.7-0.7,1.2-0.7H79c0.5,0,1,0.3,1.2,0.8L84,53.6c0.4,1,0.9,2,1.6,2.8l9.2,11.1c1,1.1,2.6,1.4,3.9,0.6l0,0
	c1.4-1,1.7-3,0.6-4.3l-8.4-10.2c-0.5-0.6-0.9-1.3-1.2-2.1l-3.8-11.8c-1.3-4.1-3.4-7.9-6-11.3l-2.5-3.1c-2.6-3.3-6.2-5.1-10.3-5"/>
<path class="st0" d="M32.6,27.5L32.6,27.5c-0.6,1.4,0.2,3.1,1.7,3.5l11.3,3.3c1.4,0.4,2.8-0.4,3.3-1.7l0,0c0.5-1.4-0.3-2.9-1.8-3.4
	l-11.3-3.3C34.4,25.6,33.2,26.4,32.6,27.5z"/>
<path class="st0" d="M15.9,36.4l-4.6,14.3l-9.9,9.8c-1.2,1.3-1.1,3.3,0.2,4.4l0,0c1.2,1,3,1,4.2-0.2l9.8-9.4
	c1.1-1.1,1.9-2.3,2.6-3.7l2-4.1"/>
<g class="st2">
	<g class="st3">
		<path class="st4" d="M58.6,22.8l-0.4,0.6c-0.6,0.9-0.2,2,0.7,2.5l0,0c0.9,0.4,1.9,0.1,2.4-0.7l1.4-2.6c0.7-1.2,0.2-2.7-1-3.4
			L57.9,17c-1.5-0.8-3.2-1.3-5-1.4l0,0c-2-0.1-3.8,1-4.7,2.8L40.1,36l6.7,11.7l-3.9,12.6c-0.4,1.4,0.5,2.9,1.9,3.2l0,0
			c1.3,0.3,2.5-0.5,2.9-1.7l3.6-11.4c0.4-1.4,0.3-2.9-0.4-4.3l-3.3-6.7l9.3-17.6l2.4,1.4"/>
		<path class="st4" d="M48.1,20.7l-1.8,7.1c-0.4,1.7,0.5,3.4,2.2,3.9l9,2.9c1,0.3,2.1-0.2,2.4-1.3l0,0c0.3-1-0.2-2-1.2-2.3l-8-2.7
			l1.5-6.8"/>
		<path class="st4" d="M40.1,36l1.5,11.2L37,56.4c-0.5,1.2,0.1,2.5,1.3,2.9l0,0c1.1,0.4,2.3-0.2,2.7-1.2l5.2-11.3"/>
	</g>
	<path class="st5" d="M55.9,29.1l-0.6,8.6L46.1,37c-1.2-0.2-2.2,0.7-2.2,1.9l0,0C43.8,40,44.7,41,45.8,41l10.4,0.7
		c1.6,0.1,2.9-1,3.1-2.6l0.7-9.7l5.2,7.1l-4,9.6c-0.8,1.9-0.9,3.9-0.3,5.7l3.2,10.8c0.4,1.3,1.8,2,3.2,1.7l0,0
		c1.4-0.4,2.2-1.9,1.7-3.3l-3.5-11.8l3.9-7.2h3.4l3.4,9c0.3,0.8,0.8,1.6,1.4,2.3l7.6,9.1c0.8,0.9,2.2,1.1,3.2,0.5l0,0
		c1.2-0.8,1.4-2.4,0.5-3.5l-7.6-9.2l-3.4-10.8c-1.1-3.4-2.8-6.5-4.9-9.3l-2-2.6c-2.3-2.9-5.8-4.4-9.4-4.1l0,0
		C58.5,23.7,56.1,26.1,55.9,29.1z"/>
	<path class="st5" d="M43.6,28.3l-2.8-0.9c-1.6-0.5-3.4-0.4-5,0.3l-13.2,6c-2.5,1.2-3.5,4.2-2.1,6.7l6,10.4l-6.6,8.9
		c-0.8,1.1-0.5,2.7,0.7,3.4l0,0c1,0.6,2.3,0.4,3-0.6l7-8.4c1.5-1.8,1.7-4.3,0.7-6.4L27.8,41l12.5-5.5L43.6,28.3z"/>
	<path class="st5" d="M34.7,29.8L34.7,29.8c-0.5,1.2,0.1,2.5,1.4,2.9l9.3,2.7c1.1,0.3,2.3-0.3,2.7-1.4l0,0c0.4-1.2-0.3-2.4-1.5-2.8
		l-9.3-2.7C36.2,28.2,35.1,28.8,34.7,29.8z"/>
	<path class="st5" d="M20.2,36.7l-3.8,11.7l-8.2,8c-1,1-0.9,2.7,0.2,3.6l0,0c1,0.9,2.5,0.8,3.4-0.1l8.1-7.7c0.9-0.9,1.6-1.9,2.1-3
		l1.7-3.4"/>
</g>
<circle class="st0" cx="61.4" cy="5.8" r="5.2"/>
<circle class="st0" cx="54" cy="21.2" r="5.2"/>
</svg>
