<?xml version="1.0" encoding="utf-8"?>
<!-- Generator: Adobe Illustrator 25.4.1, SVG Export Plug-In . SVG Version: 6.00 Build 0)  -->
<svg version="1.1" id="Iconos" xmlns="http://www.w3.org/2000/svg" xmlns:xlink="http://www.w3.org/1999/xlink" x="0px" y="0px"
	 viewBox="0 0 27.1 33.7" style="enable-background:new 0 0 27.1 33.7;" xml:space="preserve">
<style type="text/css">
	.st0{enable-background:new    ;}
	.st1{fill:#00E9C5;}
</style>
<g class="st0">
	<path class="st1" d="M13.6,33.7C2.9,33.7,0,26.2,0,16.8S2.9,0,13.6,0c10.5,0,13.6,7.6,13.6,16.8C27.1,26.1,24.1,33.7,13.6,33.7z
		 M19.5,8.6c-1.1-2.4-3.4-3-5.9-3c-2.5,0-4.8,0.7-5.9,3c-1,2-1,6-1,8.2c0,2.2,0.1,6.2,1,8.2c1.1,2.4,3.4,3.1,5.9,3.1
		c2.5,0,4.8-0.7,5.9-3.1c1-2,1-5.9,1-8.2C20.5,14.6,20.4,10.6,19.5,8.6z"/>
</g>
</svg>
