<?xml version="1.0" encoding="utf-8"?>
<!-- Generator: Adobe Illustrator 25.4.1, SVG Export Plug-In . SVG Version: 6.00 Build 0)  -->
<svg version="1.1" id="Iconos" xmlns="http://www.w3.org/2000/svg" xmlns:xlink="http://www.w3.org/1999/xlink" x="0px" y="0px"
	 viewBox="0 0 40.6 43.1" style="enable-background:new 0 0 40.6 43.1;" xml:space="preserve">
<style type="text/css">
	.st0{fill:none;stroke:#FF3737;stroke-width:2;stroke-linecap:round;stroke-miterlimit:10;}
	.st1{fill:none;stroke:#FF3737;stroke-width:1.5;stroke-linecap:round;stroke-linejoin:round;stroke-miterlimit:10;}
	.st2{fill:none;stroke:#FF3737;stroke-miterlimit:10;}
	.st3{fill:none;stroke:#FF3737;stroke-width:1.5;stroke-miterlimit:10;}
	.st4{fill:#FF3737;}
	.st5{enable-background:new    ;}
</style>
<g id="Porterái">
	<polyline class="st0" points="26.2,1 26.2,9.8 26.2,29 	"/>
	<polyline class="st0" points="38.9,1 38.9,9.8 38.9,29 	"/>
	<line class="st0" x1="26.2" y1="19.6" x2="38.9" y2="19.6"/>
</g>
<path class="st1" d="M14.5,23.2c0,0,7.9-7.7,4-17.1"/>
<path id="Soporte" class="st2" d="M3,42.6h7.9l-0.5-1.9c-0.1-0.3-0.3-0.5-0.6-0.5H4.7c-0.4,0-0.8,0.3-1,0.7L3,42.6z"/>
<g id="Pelota">
	<path class="st2" d="M7.1,20.5c3.6,0,6.6,4.4,6.6,9.9S10.6,40,7,40s-6.5-4.1-6.5-9.5S3.4,20.5,7.1,20.5z"/>
	<path class="st3" d="M4.3,39.4C6,33.5,6,27.3,4.3,21.4"/>
	<path class="st3" d="M9.8,39.4c-1.5-5.8-1.5-12.1,0-17.9"/>
</g>
<polygon class="st4" points="18.4,4.1 20.2,5.2 18.5,6.1 16.6,7.2 16.7,5.1 16.6,3.1 "/>
<g class="st5">
	<path class="st4" d="M39.2,39.8c-0.9,0.4-2.3,0.3-3.3,0.3v2.2c0,0.9-0.7,0.8-1.4,0.8c-0.5,0-0.8-0.2-0.8-0.8v-8
		c0-0.6,0.4-0.7,0.8-0.7h2.6c1,0,1.8,0,2.5,0.7s0.8,1.8,0.8,2.7C40.6,38.1,40.3,39.3,39.2,39.8z M36,35.6v2.7h1.5
		c0.2,0,0.6,0,0.7-0.2s0.1-0.8,0.1-1c0-0.3,0-1.3-0.3-1.5c-0.2-0.1-0.7-0.1-0.9-0.1C36.8,35.5,36.4,35.5,36,35.6z"/>
</g>
<path class="st4" d="M28.1,33.1c1.8,0,3.3,0.5,3.3,2.6c0,0.7-0.2,1.4-0.7,1.9c0.9,0.5,1.1,1.3,1.1,2.2c-0.4,2.4-1.6,3.3-3.7,3.3
	c-0.6,0-3.3-0.2-3.3-1.1c0-0.3,0.1-0.6,0.2-0.9c0.1-0.3,0.3-0.5,0.6-0.5c0.1,0,0.2,0,0.3,0c0.7,0.2,1.5,0.5,2.3,0.5
	c0.9,0,1.1-0.3,1.1-1.2c0-0.8-0.4-1-1.1-1c-0.6,0-1.1,0-1.7,0c-0.8,0-0.6-0.6-0.6-1.2c0-0.4,0.3-0.6,0.7-0.6h0.9
	c1.1,0,1.6,0,1.6-1.2c0-0.8-0.4-0.9-1.1-0.9c-0.4,0-0.8,0-1.1,0.1c-0.2,0-0.5,0.1-0.7,0.1c-0.6,0-0.6-0.7-0.6-1.2v-0.1
	c0-0.2,0.1-0.4,0.3-0.5C26.1,33.2,27.7,33.1,28.1,33.1"/>
</svg>
