<?xml version="1.0" encoding="utf-8"?>
<!-- Generator: Adobe Illustrator 25.4.1, SVG Export Plug-In . SVG Version: 6.00 Build 0)  -->
<svg version="1.1" id="Capa_1" xmlns="http://www.w3.org/2000/svg" xmlns:xlink="http://www.w3.org/1999/xlink" x="0px" y="0px"
	 viewBox="0 0 25.8 37.2" style="enable-background:new 0 0 25.8 37.2;" xml:space="preserve">
<style type="text/css">
	.st0{fill:none;stroke:#FF3737;stroke-linecap:round;stroke-linejoin:round;stroke-miterlimit:10;}
	.st1{fill:none;stroke:#FF3737;stroke-width:0.4953;stroke-miterlimit:10;}
	.st2{fill:none;stroke:#FF3737;stroke-width:0.4;stroke-miterlimit:10;}
</style>
<circle class="st0" cx="14.8" cy="3.6" r="3.1"/>
<path class="st0" d="M18.2,18.3l0.2,2.6l3.4,3.8c0.6,0.6,1.1,1.4,1.3,2.2l2.1,6.6c0.4,1.3-0.4,2.7-1.7,3l0,0
	c-0.6,0.2-1.8-0.4-2.2-1.7l-2.6-7.4l-3.3-3l-4.7,6L5.5,36c-0.8,0.9-2.2,0.9-3.1,0.1l0,0c-0.9-0.8-1-2.2-0.1-3.1l4.8-5.1l4.5-6.3
	l-0.2-8.5L10,15.4c-0.7,1.1-1.8,1.8-3,2l-4.2,0.5C1.6,18,0.5,17.2,0.5,16l0,0c-0.1-1.1,0.7-2.1,1.8-2.2l4.2-0.5L8,10.4
	c0.5-0.9,1.5-1.5,2.6-1.5l7.9-0.3c1,0,2,0.6,2.5,1.5l1.7,3.4c0.7,1.4,0.1,3-1.3,3.6l-4.3,1.6c-1,0.4-2.1,0-2.5-1l0,0
	c-0.5-1,0-2.2,1-2.7l2.8-1.2"/>
<path class="st1" d="M6.7,3.1c1.2,2,1,4.3-0.3,5"/>
<path class="st1" d="M6.5,8.1C5.2,8.9,3.2,7.9,2,5.9s-1-4.3,0.3-5C3.6,0.1,5.6,1,6.7,3.1"/>
<path class="st2" d="M5.3,8.4C4.7,5.9,3.3,3.6,1.5,1.8"/>
<path class="st2" d="M7.2,7.2c-1.8-1.8-3.1-4-3.8-6.6"/>
</svg>
