<?xml version="1.0" encoding="utf-8"?>
<!-- Generator: Adobe Illustrator 25.4.1, SVG Export Plug-In . SVG Version: 6.00 Build 0)  -->
<svg version="1.1" id="Iconos" xmlns="http://www.w3.org/2000/svg" xmlns:xlink="http://www.w3.org/1999/xlink" x="0px" y="0px"
	 viewBox="0 0 40.6 43.1" style="enable-background:new 0 0 40.6 43.1;" xml:space="preserve">
<style type="text/css">
	.st0{fill:none;stroke:#FF3737;stroke-width:2;stroke-linecap:round;stroke-miterlimit:10;}
	.st1{fill:none;stroke:#FF3737;stroke-width:1.5;stroke-linecap:round;stroke-linejoin:round;stroke-miterlimit:10;}
	.st2{enable-background:new    ;}
	.st3{fill:#FF3737;}
	.st4{fill:none;stroke:#FF3737;stroke-miterlimit:10;}
	.st5{fill:none;stroke:#FF3737;stroke-width:1.5;stroke-miterlimit:10;}
</style>
<g id="Porterái">
	<polyline class="st0" points="26.2,1 26.2,9.8 26.2,29 	"/>
	<polyline class="st0" points="38.9,1 38.9,9.8 38.9,29 	"/>
	<line class="st0" x1="26.2" y1="19.6" x2="38.9" y2="19.6"/>
</g>
<path class="st1" d="M11.8,18.7c0,0,10.8-11.8,21.5-5.1"/>
<g class="st2">
	<path class="st3" d="M39.2,39.8c-0.9,0.4-2.3,0.3-3.3,0.3v2.2c0,0.9-0.7,0.8-1.4,0.8c-0.5,0-0.8-0.2-0.8-0.8v-8
		c0-0.6,0.4-0.7,0.8-0.7h2.6c1,0,1.8,0,2.5,0.7s0.8,1.8,0.8,2.7C40.6,38.1,40.3,39.3,39.2,39.8z M36,35.6v2.7h1.5
		c0.2,0,0.6,0,0.7-0.2s0.1-0.8,0.1-1c0-0.3,0-1.3-0.3-1.5c-0.2-0.1-0.7-0.1-0.9-0.1C36.8,35.5,36.4,35.5,36,35.6z"/>
</g>
<path id="Soporte" class="st4" d="M3,42.6h7.9l-0.5-1.9c-0.1-0.3-0.3-0.5-0.6-0.5H4.7c-0.4,0-0.8,0.3-1,0.7L3,42.6z"/>
<g id="Pelota">
	<path class="st4" d="M7.1,20.5c3.6,0,6.6,4.4,6.6,9.9S10.6,40,7,40s-6.5-4.1-6.5-9.5S3.4,20.5,7.1,20.5z"/>
	<path class="st5" d="M4.3,39.4c1.7-5.9,1.7-12.1,0-18"/>
	<path class="st5" d="M9.8,39.4c-1.5-5.8-1.5-12.1,0-17.9"/>
</g>
<polygon class="st3" points="33.2,13.5 34.4,11.8 35.2,13.6 36.1,15.5 34,15.3 32,15.2 "/>
<g class="st2">
	<path class="st3" d="M10.5,11.7H9.6c-0.5,0-0.8-0.1-1.1-0.5L6,8.2H5.8v2.7c0,0.9-0.8,0.8-1.5,0.8c-0.6,0-0.9-0.2-0.9-0.8V2.5
		c0-0.6,0.4-0.8,0.9-0.8h2.8c1.1,0,1.9,0,2.7,0.7c0.7,0.7,0.8,1.9,0.8,2.8c0,1.3-0.4,2.5-1.8,2.8l2.1,2.5c0.2,0.2,0.2,0.4,0.2,0.6
		C11.1,11.6,10.8,11.7,10.5,11.7z M8,3.8C7.8,3.7,7.3,3.7,7,3.7H6.6c-0.3,0-0.6,0-0.9,0v2.5h1.5c0.9,0,1-0.2,1-1
		C8.3,4.8,8.3,3.9,8,3.8z"/>
</g>
<g>
	<path class="st3" d="M28.1,43.1c-0.6,0-3.3-0.2-3.3-1.1c0-0.3,0.1-0.6,0.2-0.9c0.1-0.3,0.3-0.5,0.6-0.5c0.1,0,0.2,0,0.3,0
		c0.7,0.2,1.5,0.5,2.3,0.5c0.9,0,1.1-0.3,1.1-1.2c0-0.8-0.4-1-1.1-1c-0.6,0-1.1,0-1.7,0c-0.8,0-0.6-0.6-0.6-1.2
		c0-0.4,0.3-0.6,0.7-0.6h0.9c1.1,0,1.6,0,1.6-1.2c0-0.8-0.4-0.9-1.1-0.9c-0.4,0-0.8,0-1.1,0.1c-0.2,0-0.5,0.1-0.7,0.1
		c-0.6,0-0.6-0.7-0.6-1.2c0,0,0-0.1,0-0.1c0-0.2,0.1-0.4,0.3-0.5c0.2-0.2,1.8-0.3,2.2-0.3c1.8,0,3.3,0.5,3.3,2.6
		c0,0.7-0.2,1.4-0.7,1.9c0.9,0.5,1.1,1.3,1.1,2.2C31.4,42.2,30.2,43.1,28.1,43.1z"/>
</g>
</svg>
