<?xml version="1.0" encoding="utf-8"?>
<!-- Generator: Adobe Illustrator 25.4.1, SVG Export Plug-In . SVG Version: 6.00 Build 0)  -->
<svg version="1.1" id="Iconos" xmlns="http://www.w3.org/2000/svg" xmlns:xlink="http://www.w3.org/1999/xlink" x="0px" y="0px"
	 viewBox="0 0 50 50" style="enable-background:new 0 0 50 50;" xml:space="preserve">
<style type="text/css">
	.st0{fill:#FF3737;}
	.st1{enable-background:new    ;}
</style>
<path class="st0" d="M41.6,28.3c0.7-2.2,0-4.7-1.8-6.2l-5.7-4.5v-9c0.1-0.4-0.2-0.8-0.7-0.9c-0.4-0.1-0.8,0.2-0.9,0.7
	c0,0.1,0,0.1,0,0.2V24l-1.2,1.7l-2.6-8.3c-0.6-1.9-2.4-3.3-4.4-3.3c-1.3,0-2.4,1-2.4,2.3l0,0c0,0.1,0,0.3,0,0.4l1.7,9.8
	c0.1,0.8,0.1,1.6-0.1,2.3H13c-0.4,0-0.8-0.3-0.8-0.8V2.3c0-0.4,0.3-0.8,0.8-0.8l0,0h18.7c0.4,0,0.8,0.3,0.8,0.8l0,0v3.1
	c0,0.4,0.3,0.8,0.7,0.8S34,5.9,34,5.5V5.4V2.3C34,1,33,0,31.7,0H13c-1.3,0-2.3,1-2.3,2.3l0,0v25.8c0,1.3,1,2.3,2.3,2.3h4.7
	c-0.2,1.3,0.6,2.6,1.9,3c-0.2,0.4-0.3,0.9-0.3,1.3c0,1.5,1.2,2.7,2.7,2.7l0,0h0.6c0,0.1,0,0.2,0.1,0.3l1,2.9
	c0.2,0.6,0.3,1.1,0.3,1.7v6.8c0,0.4,0.3,0.8,0.8,0.8h14.8c0.4,0,0.8-0.3,0.8-0.8l0,0V49l-1.3-10.4c-0.2-1.3,0-2.6,0.4-3.8L41.6,28.3
	z M19.3,30.9c0-0.1,0-0.3,0.1-0.4h3.7L22.9,31c-0.1,0.3-0.2,0.7-0.3,1h-2.1C19.8,32,19.3,31.5,19.3,30.9z M22,35.9
	c-0.6,0-1.2-0.5-1.2-1.2c0-0.6,0.5-1.2,1.2-1.2h0.2c-0.1,0.8-0.1,1.6,0,2.3H22V35.9z M37.5,38.9l1.2,9.5H25.6v-6
	c0-0.7-0.1-1.5-0.4-2.2l-1-2.9c-0.6-1.9-0.6-3.9,0.1-5.7l0.6-1.5c0.4-1.2,0.6-2.5,0.3-3.7l-1.7-9.8c-0.1-0.4,0.2-0.8,0.6-0.9h0.1
	c1.3,0,2.5,0.9,2.9,2.2l3.1,9.8c0,0.1,0.1,0.2,0.1,0.2l0,0l2.4,3.1c0.2,0.4,0.7,0.5,1.1,0.2c0.4-0.2,0.5-0.7,0.2-1.1l0,0V30l-2-2.7
	l1.7-2.4h1.2c0.4,0,0.8-0.3,0.8-0.7l0,0c0-0.4-0.3-0.8-0.7-0.8h-0.9v-3.9l4.7,3.8c1.3,1.1,1.9,2.9,1.3,4.5L38,34.4
	C37.5,35.9,37.4,37.4,37.5,38.9z"/>
<g class="st1">
	<path class="st0" d="M49,12.3H48c-0.6,0-0.9-0.1-1.3-0.6l-3-3.7h-0.3v3.3c0,1.1-0.9,1-1.7,1c-0.7,0-1.1-0.2-1.1-1V1.2
		c0-0.7,0.5-0.9,1.1-0.9H45c1.3,0,2.3-0.1,3.2,0.9c0.8,0.8,1,2.3,1,3.4c0,1.6-0.5,3-2.2,3.4l2.5,3c0.2,0.2,0.3,0.5,0.3,0.7
		C49.9,12.1,49.5,12.3,49,12.3z M46.1,2.7c-0.2-0.1-0.8-0.1-1.1-0.1h-0.5c-0.3,0-0.7,0-1,0v3h1.8c1.1,0,1.2-0.2,1.2-1.3
		C46.4,4,46.4,2.9,46.1,2.7z"/>
</g>
</svg>
