<?xml version="1.0" encoding="utf-8"?>
<!-- Generator: Adobe Illustrator 25.4.1, SVG Export Plug-In . SVG Version: 6.00 Build 0)  -->
<svg version="1.1" id="Capa_1" xmlns="http://www.w3.org/2000/svg" xmlns:xlink="http://www.w3.org/1999/xlink" x="0px" y="0px"
	 viewBox="0 0 34.1 45.1" style="enable-background:new 0 0 34.1 45.1;" xml:space="preserve">
<style type="text/css">
	.st0{fill:none;stroke:#050B3D;stroke-width:1.5;stroke-linecap:round;stroke-linejoin:round;stroke-miterlimit:10;}
	.st1{fill:none;}
	.st2{fill:#FF3737;}
	.st3{fill:none;stroke:#FF3737;stroke-width:1.2;stroke-miterlimit:9.9988;}
	.st4{fill:none;stroke:#FF3737;stroke-width:1.2;stroke-linecap:round;stroke-linejoin:round;stroke-miterlimit:10;}
	.st5{fill:none;stroke:#FF3737;stroke-linecap:round;stroke-linejoin:round;stroke-miterlimit:10;}
</style>
<path class="st0" d="M28.9,41.6"/>
<line class="st1" x1="31.2" y1="0" x2="27.8" y2="45"/>
<path class="st2" d="M34.1,45.1l-0.9-45c-0.7,0-1.4,0-2.1,0l-1.8,45H34.1z"/>
<g id="Balón_00000154419413863491293820000011601455217656275606_">
	<path class="st3" d="M5.2,24.1"/>
	<path class="st3" d="M22.1,26.6c0.2,2.1-0.4,5.5-1.3,7.7c-3,7.2-9.2,11.5-14,9.5s-6.4-8.4-3.4-15.6"/>
	<path class="st3" d="M22.5,26.8"/>
</g>
<path class="st4" d="M7.3,24.6l-0.4,2.9c-0.1,0.9,0.4,1.9,1.3,2.1l0,0c1,0.3,2.1-0.4,2.3-1.5l0.4-1.7c0.2-0.8,0.7-1.5,1.5-2l3.3-2
	c0.8-0.5,1.9-0.3,2.6,0.3l0,0c0.8,0.8,0.8,2.2,0.1,3l-1.7,1.8c-0.7,0.8-0.5,2,0.4,2.6l0,0c0.7,0.4,1.6,0.3,2.1-0.3l3.4-3.6
	c0.5-0.5,0.8-1.1,1.1-1.8l2.2-8.1c0.3-1,0.8-2,1.6-2.7c0.8-0.9,1.9-2.4,1.1-3.6L27,7.8c-1.1-1.9-3.6-2.5-5.5-1.3L21,6.7
	c-0.7,0.4-1.3,1-2,1.7l-6.2,7.1c-0.7,0.8-1.6,1.6-2.6,2.1L6.9,19c-0.6,0.3-1.1,0.7-1.6,1.2l-2.9,4.9c-0.6,0.7-0.6,1.8,0,2.5l0,0
	c0.9,0.9,2.3,0.9,3,0L7.3,24.6L8,22.7c0.3-0.8,0.9-1.5,1.7-1.9l2-1.1"/>
<path class="st5" d="M12.2,24.8"/>
<path class="st5" d="M11.2,27.7"/>
<path class="st5" d="M3.8,40.6c3.2-3.9,6.6-10.2,7.4-14.9"/>
<path class="st4" d="M15.4,29.3c0.5-1,1.6-2.3,2.4-2.9"/>
<path class="st4" d="M10.8,43.6c0.8-5,2.4-9.8,4.6-14.4"/>
<g>
	<path class="st2" d="M3.3,10.6c-0.6,0-2.3-0.2-2.9-0.5C0.1,10,0,9.8,0,9.5C0,9,0.2,8.1,0.8,8.1c0.2,0,0.8,0.2,1,0.3
		c0.5,0.1,1,0.2,1.4,0.2c0.9,0,1.2-0.6,1.2-1.5c0-0.3-0.1-0.8-0.2-1.1C4.1,5.8,3.3,5.8,3,5.8c-0.4,0-0.7,0-1.1,0.1
		c-0.3,0-0.5,0.1-0.8,0.1c-0.4,0-0.8-0.2-0.7-0.7V5.2l0.3-4c0-0.5,0.2-0.8,0.8-0.8h4.2c0.8,0,0.8,0.5,0.8,1.2c0,0.6-0.2,0.9-0.8,0.9
		H5.1c-0.8,0-1.5,0-2.3,0L2.6,3.9c0.2,0,0.4,0,0.5,0c0.5,0,1,0,1.5,0.1c1.5,0.3,2,1.8,2,3.2C6.7,9.4,5.4,10.6,3.3,10.6z"/>
	<path class="st2" d="M15,6.9c-0.9,0.4-2.4,0.3-3.5,0.3v2.3c0,0.9-0.8,0.8-1.5,0.8c-0.6,0-0.9-0.2-0.9-0.8V1.1
		c0-0.6,0.4-0.8,0.9-0.8h2.8c1,0,1.9,0,2.7,0.7c0.7,0.7,0.8,1.9,0.8,2.8C16.4,5.1,16.2,6.4,15,6.9z M11.6,2.4v2.9h1.6
		c0.2,0,0.6,0,0.8-0.2s0.2-0.8,0.2-1.1c0-0.3,0-1.4-0.3-1.5c-0.2-0.1-0.7-0.1-0.9-0.1C12.4,2.3,12,2.3,11.6,2.4z"/>
</g>
</svg>
