<svg xmlns="http://www.w3.org/2000/svg" xmlns:xlink="http://www.w3.org/1999/xlink" viewBox="0 0 756 971"><defs><style>.cls-1{fill:#00a517;}.cls-2{fill:url(#Degradado_sin_nombre_15);}.cls-3{fill:none;stroke:#fff;stroke-miterlimit:10;stroke-width:2px;}.cls-4,.cls-5{font-size:36px;fill:#fff;font-family:Montserrat-Medium, Montserrat;font-weight:500;}.cls-4{letter-spacing:0.09em;}.cls-5{letter-spacing:0.1em;}</style><radialGradient id="Degradado_sin_nombre_15" cx="378" cy="485.5" r="546.83" gradientTransform="translate(0 -273.33) scale(1 1.56)" gradientUnits="userSpaceOnUse"><stop offset="0" stop-opacity="0"/><stop offset="1" stop-opacity="0.6"/></radialGradient></defs><g id="Suelo"><rect class="cls-1" width="756" height="971"/><rect class="cls-2" width="756" height="971"/></g><g id="Lineas"><rect class="cls-3" x="125.38" y="52.38" width="504" height="232.94"/><polyline class="cls-3" points="125.38 126.68 356.7 126.68 629.38 126.68"/><line class="cls-3" x1="339.85" y1="79.96" x2="356.7" y2="126.68"/><line class="cls-3" x1="416.45" y1="79.96" x2="399.6" y2="126.68"/><line class="cls-3" x1="350.64" y1="110.87" x2="405.66" y2="110.87"/><line class="cls-3" x1="150.28" y1="161.91" x2="177.72" y2="161.91"/><line class="cls-3" x1="164" y1="126.68" x2="164" y2="161.91"/><line class="cls-3" x1="222.3" y1="161.91" x2="249.74" y2="161.91"/><line class="cls-3" x1="236.02" y1="126.68" x2="236.02" y2="161.91"/><line class="cls-3" x1="505.64" y1="161.91" x2="533.09" y2="161.91"/><line class="cls-3" x1="519.36" y1="126.68" x2="519.36" y2="161.91"/><line class="cls-3" x1="577.7" y1="161.91" x2="605.15" y2="161.91"/><line class="cls-3" x1="591.43" y1="126.68" x2="591.43" y2="161.91"/><polyline class="cls-3" points="125.38 285.32 125.38 485.5 629.38 485.5 629.38 285.32"/><line class="cls-3" x1="164" y1="285.32" x2="164" y2="265.4"/><line class="cls-3" x1="164" y1="251.28" x2="164" y2="234.09"/><line class="cls-3" x1="164" y1="220.47" x2="164" y2="206.85"/><line class="cls-3" x1="164" y1="190.68" x2="164" y2="182.68"/><line class="cls-3" x1="591.43" y1="285.4" x2="591.43" y2="265.49"/><line class="cls-3" x1="591.43" y1="251.36" x2="591.43" y2="234.17"/><line class="cls-3" x1="591.43" y1="220.55" x2="591.43" y2="206.94"/><line class="cls-3" x1="591.43" y1="190.77" x2="591.43" y2="182.77"/><line class="cls-3" x1="235.68" y1="271.62" x2="235.68" y2="299.02"/><line class="cls-3" x1="519.43" y1="271.77" x2="519.43" y2="299.21"/><line class="cls-3" x1="348.28" y1="161.91" x2="365.38" y2="161.91"/><line class="cls-3" x1="389.81" y1="161.91" x2="406.91" y2="161.91"/><line class="cls-3" x1="164" y1="295.83" x2="164" y2="312.68"/><line class="cls-3" x1="164" y1="326.47" x2="164" y2="343.45"/><line class="cls-3" x1="164" y1="357.36" x2="164" y2="374.09"/><line class="cls-3" x1="164" y1="384.43" x2="164" y2="403.83"/><line class="cls-3" x1="164" y1="446.47" x2="164" y2="463.06"/><line class="cls-3" x1="164" y1="485.5" x2="164" y2="477.23"/><line class="cls-3" x1="591.43" y1="295.83" x2="591.43" y2="312.68"/><line class="cls-3" x1="591.43" y1="326.47" x2="591.43" y2="343.45"/><line class="cls-3" x1="591.43" y1="357.36" x2="591.43" y2="374.09"/><line class="cls-3" x1="591.43" y1="384.43" x2="591.43" y2="403.83"/><polyline class="cls-3" points="591.43 432.55 591.43 412.51 607.09 412.51"/><line class="cls-3" x1="591.43" y1="446.47" x2="591.43" y2="463.06"/><line class="cls-3" x1="591.43" y1="485.5" x2="591.43" y2="477.23"/><line class="cls-3" x1="235.68" y1="485.5" x2="235.68" y2="470.34"/><line class="cls-3" x1="519.09" y1="485.5" x2="519.09" y2="470.34"/><line class="cls-3" x1="125.38" y1="412.51" x2="135.77" y2="412.51"/><polyline class="cls-3" points="150.23 412.51 164 412.51 164 432.55"/><line class="cls-3" x1="184.45" y1="412.51" x2="201.47" y2="412.51"/><line class="cls-3" x1="216.45" y1="412.51" x2="235.68" y2="412.51"/><line class="cls-3" x1="235.68" y1="401.74" x2="235.68" y2="425.23"/><line class="cls-3" x1="249.64" y1="412.51" x2="269.72" y2="412.51"/><line class="cls-3" x1="283.85" y1="412.51" x2="303.94" y2="412.51"/><line class="cls-3" x1="318.23" y1="412.51" x2="338.15" y2="412.51"/><line class="cls-3" x1="352.11" y1="412.51" x2="369.15" y2="412.51"/><line class="cls-3" x1="629.15" y1="412.51" x2="618.77" y2="412.51"/><line class="cls-3" x1="570.09" y1="412.51" x2="553.06" y2="412.51"/><line class="cls-3" x1="538.09" y1="412.51" x2="518.85" y2="412.51"/><line class="cls-3" x1="518.85" y1="401.74" x2="518.85" y2="425.23"/><line class="cls-3" x1="504.89" y1="412.51" x2="484.81" y2="412.51"/><line class="cls-3" x1="470.68" y1="412.51" x2="450.6" y2="412.51"/><line class="cls-3" x1="436.3" y1="412.51" x2="416.38" y2="412.51"/><line class="cls-3" x1="402.43" y1="412.51" x2="385.38" y2="412.51"/><rect class="cls-3" x="125.38" y="685.56" width="504" height="232.94"/><polyline class="cls-3" points="125.38 844.2 356.7 844.2 629.38 844.2"/><line class="cls-3" x1="339.85" y1="890.93" x2="356.7" y2="844.2"/><line class="cls-3" x1="416.45" y1="890.93" x2="399.6" y2="844.2"/><line class="cls-3" x1="350.64" y1="860.01" x2="405.66" y2="860.01"/><line class="cls-3" x1="150.28" y1="808.97" x2="177.72" y2="808.97"/><line class="cls-3" x1="164" y1="844.2" x2="164" y2="808.97"/><line class="cls-3" x1="222.3" y1="808.97" x2="249.74" y2="808.97"/><line class="cls-3" x1="236.02" y1="844.2" x2="236.02" y2="808.97"/><line class="cls-3" x1="505.64" y1="808.97" x2="533.09" y2="808.97"/><line class="cls-3" x1="519.36" y1="844.2" x2="519.36" y2="808.97"/><line class="cls-3" x1="577.7" y1="808.97" x2="605.15" y2="808.97"/><line class="cls-3" x1="591.43" y1="844.2" x2="591.43" y2="808.97"/><polyline class="cls-3" points="125.38 685.56 125.38 485.38 629.38 485.38 629.38 685.56"/><line class="cls-3" x1="164" y1="685.56" x2="164" y2="705.48"/><line class="cls-3" x1="164" y1="719.61" x2="164" y2="736.8"/><line class="cls-3" x1="164" y1="750.41" x2="164" y2="764.03"/><line class="cls-3" x1="164" y1="780.2" x2="164" y2="788.2"/><line class="cls-3" x1="591.43" y1="685.48" x2="591.43" y2="705.39"/><line class="cls-3" x1="591.43" y1="719.52" x2="591.43" y2="736.71"/><line class="cls-3" x1="591.43" y1="750.33" x2="591.43" y2="763.95"/><line class="cls-3" x1="591.43" y1="780.12" x2="591.43" y2="788.12"/><line class="cls-3" x1="235.68" y1="699.27" x2="235.68" y2="671.86"/><line class="cls-3" x1="519.43" y1="699.12" x2="519.43" y2="671.67"/><line class="cls-3" x1="348.28" y1="808.97" x2="365.38" y2="808.97"/><line class="cls-3" x1="389.81" y1="808.97" x2="406.91" y2="808.97"/><line class="cls-3" x1="164" y1="675.05" x2="164" y2="658.2"/><line class="cls-3" x1="164" y1="644.41" x2="164" y2="627.44"/><line class="cls-3" x1="164" y1="613.52" x2="164" y2="596.8"/><line class="cls-3" x1="164" y1="586.46" x2="164" y2="567.05"/><line class="cls-3" x1="164" y1="524.41" x2="164" y2="507.82"/><line class="cls-3" x1="164" y1="485.38" x2="164" y2="493.65"/><line class="cls-3" x1="591.43" y1="675.05" x2="591.43" y2="658.2"/><line class="cls-3" x1="591.43" y1="644.41" x2="591.43" y2="627.44"/><line class="cls-3" x1="591.43" y1="613.52" x2="591.43" y2="596.8"/><line class="cls-3" x1="591.43" y1="586.46" x2="591.43" y2="567.05"/><polyline class="cls-3" points="591.43 538.33 591.43 558.37 607.09 558.37"/><line class="cls-3" x1="591.43" y1="524.41" x2="591.43" y2="507.82"/><line class="cls-3" x1="591.43" y1="485.38" x2="591.43" y2="493.65"/><line class="cls-3" x1="235.68" y1="485.38" x2="235.68" y2="500.54"/><line class="cls-3" x1="519.09" y1="485.38" x2="519.09" y2="500.54"/><line class="cls-3" x1="125.38" y1="558.37" x2="135.77" y2="558.37"/><polyline class="cls-3" points="150.23 558.37 164 558.37 164 538.33"/><line class="cls-3" x1="184.45" y1="558.37" x2="201.47" y2="558.37"/><line class="cls-3" x1="216.45" y1="558.37" x2="235.68" y2="558.37"/><line class="cls-3" x1="235.68" y1="569.14" x2="235.68" y2="545.65"/><line class="cls-3" x1="249.64" y1="558.37" x2="269.72" y2="558.37"/><line class="cls-3" x1="283.85" y1="558.37" x2="303.94" y2="558.37"/><line class="cls-3" x1="318.23" y1="558.37" x2="338.15" y2="558.37"/><line class="cls-3" x1="352.11" y1="558.37" x2="369.15" y2="558.37"/><line class="cls-3" x1="629.15" y1="558.37" x2="618.77" y2="558.37"/><line class="cls-3" x1="570.09" y1="558.37" x2="553.06" y2="558.37"/><line class="cls-3" x1="538.09" y1="558.37" x2="518.85" y2="558.37"/><line class="cls-3" x1="518.85" y1="569.14" x2="518.85" y2="545.65"/><line class="cls-3" x1="504.89" y1="558.37" x2="484.81" y2="558.37"/><line class="cls-3" x1="470.68" y1="558.37" x2="450.6" y2="558.37"/><line class="cls-3" x1="436.3" y1="558.37" x2="416.38" y2="558.37"/><line class="cls-3" x1="402.43" y1="558.37" x2="385.38" y2="558.37"/></g><g id="N_" data-name="Nº"><text class="cls-4" transform="translate(212.46 507.82) rotate(-90)">50</text><text class="cls-4" transform="translate(212.46 572.33) rotate(-90)">10</text><text class="cls-5" transform="translate(212.46 707.81) rotate(-90)">22</text><text class="cls-5" transform="translate(212.46 307.95) rotate(-90)">22</text><text class="cls-4" transform="translate(211.16 427.12) rotate(-90)">10</text><text class="cls-4" transform="translate(541.85 461.47) rotate(90)">50</text><text class="cls-4" transform="translate(541.85 396.97) rotate(90)">10</text><text class="cls-5" transform="translate(541.85 261.48) rotate(90)">22</text><text class="cls-5" transform="translate(541.85 661.34) rotate(90)">22</text><text class="cls-4" transform="translate(543.15 542.17) rotate(90)">10</text></g></svg>