<svg xmlns="http://www.w3.org/2000/svg" viewBox="0 0 756 1210.91"><defs><style>.cls-1{fill:#009517;}.cls-2{fill:#72e058;}.cls-2,.cls-3{stroke:#fff;stroke-miterlimit:10;stroke-width:2px;}.cls-3{fill:none;}.cls-4,.cls-5{font-size:36px;font-family:Montserrat-Medium, Montserrat;font-weight:500;}.cls-4,.cls-5,.cls-6{fill:#fff;}.cls-4{letter-spacing:0.09em;}.cls-5{letter-spacing:0.1em;}</style></defs><g id="Suelo"><rect class="cls-1" width="756" height="1210.91"/><rect class="cls-2" x="125.38" y="172.34" width="504" height="232.94"/><polyline class="cls-2" points="125.38 246.64 356.7 246.64 629.38 246.64"/><line class="cls-2" x1="339.85" y1="199.91" x2="356.7" y2="246.64"/><line class="cls-2" x1="416.45" y1="199.91" x2="399.6" y2="246.64"/><line class="cls-2" x1="350.64" y1="230.83" x2="405.66" y2="230.83"/><line class="cls-2" x1="150.28" y1="281.87" x2="177.72" y2="281.87"/><line class="cls-2" x1="164" y1="246.64" x2="164" y2="281.87"/><line class="cls-2" x1="222.3" y1="281.87" x2="249.74" y2="281.87"/><line class="cls-2" x1="236.02" y1="246.64" x2="236.02" y2="281.87"/><line class="cls-2" x1="505.64" y1="281.87" x2="533.09" y2="281.87"/><line class="cls-2" x1="519.36" y1="246.64" x2="519.36" y2="281.87"/><line class="cls-2" x1="577.7" y1="281.87" x2="605.15" y2="281.87"/><line class="cls-2" x1="591.43" y1="246.64" x2="591.43" y2="281.87"/><polyline class="cls-2" points="125.38 405.28 125.38 605.46 629.38 605.46 629.38 405.28"/><line class="cls-2" x1="164" y1="405.28" x2="164" y2="385.36"/><line class="cls-2" x1="164" y1="371.23" x2="164" y2="354.04"/><line class="cls-2" x1="164" y1="340.43" x2="164" y2="326.81"/><line class="cls-2" x1="164" y1="310.64" x2="164" y2="302.64"/><line class="cls-2" x1="591.43" y1="405.36" x2="591.43" y2="385.45"/><line class="cls-2" x1="591.43" y1="371.32" x2="591.43" y2="354.13"/><line class="cls-2" x1="591.43" y1="340.51" x2="591.43" y2="326.89"/><line class="cls-2" x1="591.43" y1="310.72" x2="591.43" y2="302.72"/><line class="cls-2" x1="235.68" y1="391.57" x2="235.68" y2="418.98"/><line class="cls-2" x1="519.43" y1="391.72" x2="519.43" y2="419.17"/><line class="cls-2" x1="348.28" y1="281.87" x2="365.38" y2="281.87"/><line class="cls-2" x1="389.81" y1="281.87" x2="406.91" y2="281.87"/><line class="cls-2" x1="164" y1="415.79" x2="164" y2="432.64"/><line class="cls-2" x1="164" y1="446.43" x2="164" y2="463.4"/><line class="cls-2" x1="164" y1="477.32" x2="164" y2="494.04"/><line class="cls-2" x1="164" y1="504.38" x2="164" y2="523.79"/><line class="cls-2" x1="164" y1="566.43" x2="164" y2="583.02"/><line class="cls-2" x1="164" y1="605.46" x2="164" y2="597.19"/><line class="cls-2" x1="591.43" y1="415.79" x2="591.43" y2="432.64"/><line class="cls-2" x1="591.43" y1="446.43" x2="591.43" y2="463.4"/><line class="cls-2" x1="591.43" y1="477.32" x2="591.43" y2="494.04"/><line class="cls-2" x1="591.43" y1="504.38" x2="591.43" y2="523.79"/><polyline class="cls-2" points="591.43 552.51 591.43 532.47 607.09 532.47"/><line class="cls-2" x1="591.43" y1="566.43" x2="591.43" y2="583.02"/><line class="cls-2" x1="591.43" y1="605.46" x2="591.43" y2="597.19"/><line class="cls-2" x1="235.68" y1="605.46" x2="235.68" y2="590.3"/><line class="cls-2" x1="519.09" y1="605.46" x2="519.09" y2="590.3"/><line class="cls-2" x1="125.38" y1="532.47" x2="135.77" y2="532.47"/><polyline class="cls-2" points="150.23 532.47 164 532.47 164 552.51"/><line class="cls-2" x1="184.45" y1="532.47" x2="201.47" y2="532.47"/><line class="cls-2" x1="216.45" y1="532.47" x2="235.68" y2="532.47"/><line class="cls-2" x1="235.68" y1="521.7" x2="235.68" y2="545.19"/><line class="cls-2" x1="249.64" y1="532.47" x2="269.72" y2="532.47"/><line class="cls-2" x1="283.85" y1="532.47" x2="303.94" y2="532.47"/><line class="cls-2" x1="318.23" y1="532.47" x2="338.15" y2="532.47"/><line class="cls-2" x1="352.11" y1="532.47" x2="369.15" y2="532.47"/><line class="cls-2" x1="629.15" y1="532.47" x2="618.77" y2="532.47"/><line class="cls-2" x1="570.09" y1="532.47" x2="553.06" y2="532.47"/><line class="cls-2" x1="538.09" y1="532.47" x2="518.85" y2="532.47"/><line class="cls-2" x1="518.85" y1="521.7" x2="518.85" y2="545.19"/><line class="cls-2" x1="504.89" y1="532.47" x2="484.81" y2="532.47"/><line class="cls-2" x1="470.68" y1="532.47" x2="450.6" y2="532.47"/><line class="cls-2" x1="436.3" y1="532.47" x2="416.38" y2="532.47"/><line class="cls-2" x1="402.43" y1="532.47" x2="385.38" y2="532.47"/><rect class="cls-2" x="125.38" y="805.52" width="504" height="232.94"/><polyline class="cls-2" points="125.38 964.16 356.7 964.16 629.38 964.16"/><line class="cls-2" x1="339.85" y1="1010.88" x2="356.7" y2="964.16"/><line class="cls-2" x1="416.45" y1="1010.88" x2="399.6" y2="964.16"/><line class="cls-2" x1="350.64" y1="979.97" x2="405.66" y2="979.97"/><line class="cls-2" x1="150.28" y1="928.93" x2="177.72" y2="928.93"/><line class="cls-2" x1="164" y1="964.16" x2="164" y2="928.93"/><line class="cls-2" x1="222.3" y1="928.93" x2="249.74" y2="928.93"/><line class="cls-2" x1="236.02" y1="964.16" x2="236.02" y2="928.93"/><line class="cls-2" x1="505.64" y1="928.93" x2="533.09" y2="928.93"/><line class="cls-2" x1="519.36" y1="964.16" x2="519.36" y2="928.93"/><line class="cls-2" x1="577.7" y1="928.93" x2="605.15" y2="928.93"/><line class="cls-2" x1="591.43" y1="964.16" x2="591.43" y2="928.93"/><polyline class="cls-2" points="125.38 805.52 125.38 605.34 629.38 605.34 629.38 805.52"/><line class="cls-2" x1="164" y1="805.52" x2="164" y2="825.44"/><line class="cls-2" x1="164" y1="839.56" x2="164" y2="856.76"/><line class="cls-2" x1="164" y1="870.37" x2="164" y2="883.99"/><line class="cls-2" x1="164" y1="900.16" x2="164" y2="908.16"/><line class="cls-2" x1="591.43" y1="805.44" x2="591.43" y2="825.35"/><line class="cls-2" x1="591.43" y1="839.48" x2="591.43" y2="856.67"/><line class="cls-2" x1="591.43" y1="870.29" x2="591.43" y2="883.9"/><line class="cls-2" x1="591.43" y1="900.07" x2="591.43" y2="908.07"/><line class="cls-2" x1="235.68" y1="819.22" x2="235.68" y2="791.82"/><line class="cls-2" x1="519.43" y1="819.07" x2="519.43" y2="791.63"/><line class="cls-2" x1="348.28" y1="928.93" x2="365.38" y2="928.93"/><line class="cls-2" x1="389.81" y1="928.93" x2="406.91" y2="928.93"/><line class="cls-2" x1="164" y1="795.01" x2="164" y2="778.16"/><line class="cls-2" x1="164" y1="764.37" x2="164" y2="747.39"/><line class="cls-2" x1="164" y1="733.48" x2="164" y2="716.76"/><line class="cls-2" x1="164" y1="706.41" x2="164" y2="687.01"/><line class="cls-2" x1="164" y1="644.37" x2="164" y2="627.78"/><line class="cls-2" x1="164" y1="605.34" x2="164" y2="613.61"/><line class="cls-2" x1="591.43" y1="795.01" x2="591.43" y2="778.16"/><line class="cls-2" x1="591.43" y1="764.37" x2="591.43" y2="747.39"/><line class="cls-2" x1="591.43" y1="733.48" x2="591.43" y2="716.76"/><line class="cls-2" x1="591.43" y1="706.41" x2="591.43" y2="687.01"/><polyline class="cls-2" points="591.43 658.29 591.43 678.33 607.09 678.33"/><line class="cls-2" x1="591.43" y1="644.37" x2="591.43" y2="627.78"/><line class="cls-2" x1="591.43" y1="605.34" x2="591.43" y2="613.61"/><line class="cls-2" x1="235.68" y1="605.34" x2="235.68" y2="620.5"/><line class="cls-2" x1="519.09" y1="605.34" x2="519.09" y2="620.5"/><line class="cls-2" x1="125.38" y1="678.33" x2="135.77" y2="678.33"/><polyline class="cls-2" points="150.23 678.33 164 678.33 164 658.29"/><line class="cls-2" x1="184.45" y1="678.33" x2="201.47" y2="678.33"/><line class="cls-2" x1="216.45" y1="678.33" x2="235.68" y2="678.33"/><line class="cls-2" x1="235.68" y1="689.1" x2="235.68" y2="665.61"/><line class="cls-2" x1="249.64" y1="678.33" x2="269.72" y2="678.33"/><line class="cls-2" x1="283.85" y1="678.33" x2="303.94" y2="678.33"/><line class="cls-2" x1="318.23" y1="678.33" x2="338.15" y2="678.33"/><line class="cls-2" x1="352.11" y1="678.33" x2="369.15" y2="678.33"/><line class="cls-2" x1="629.15" y1="678.33" x2="618.77" y2="678.33"/><line class="cls-2" x1="570.09" y1="678.33" x2="553.06" y2="678.33"/><line class="cls-2" x1="538.09" y1="678.33" x2="518.85" y2="678.33"/><line class="cls-2" x1="518.85" y1="689.1" x2="518.85" y2="665.61"/><line class="cls-2" x1="504.89" y1="678.33" x2="484.81" y2="678.33"/><line class="cls-2" x1="470.68" y1="678.33" x2="450.6" y2="678.33"/><line class="cls-2" x1="436.3" y1="678.33" x2="416.38" y2="678.33"/><line class="cls-2" x1="402.43" y1="678.33" x2="385.38" y2="678.33"/></g><g id="Lineas"><rect class="cls-3" x="125.38" y="172.34" width="504" height="232.94"/><polyline class="cls-3" points="125.38 246.64 356.7 246.64 629.38 246.64"/><line class="cls-3" x1="339.85" y1="199.91" x2="356.7" y2="246.64"/><line class="cls-3" x1="416.45" y1="199.91" x2="399.6" y2="246.64"/><line class="cls-3" x1="350.64" y1="230.83" x2="405.66" y2="230.83"/><line class="cls-3" x1="150.28" y1="281.87" x2="177.72" y2="281.87"/><line class="cls-3" x1="164" y1="246.64" x2="164" y2="281.87"/><line class="cls-3" x1="222.3" y1="281.87" x2="249.74" y2="281.87"/><line class="cls-3" x1="236.02" y1="246.64" x2="236.02" y2="281.87"/><line class="cls-3" x1="505.64" y1="281.87" x2="533.09" y2="281.87"/><line class="cls-3" x1="519.36" y1="246.64" x2="519.36" y2="281.87"/><line class="cls-3" x1="577.7" y1="281.87" x2="605.15" y2="281.87"/><line class="cls-3" x1="591.43" y1="246.64" x2="591.43" y2="281.87"/><polyline class="cls-3" points="125.38 405.28 125.38 605.46 629.38 605.46 629.38 405.28"/><line class="cls-3" x1="164" y1="405.28" x2="164" y2="385.36"/><line class="cls-3" x1="164" y1="371.23" x2="164" y2="354.04"/><line class="cls-3" x1="164" y1="340.43" x2="164" y2="326.81"/><line class="cls-3" x1="164" y1="310.64" x2="164" y2="302.64"/><line class="cls-3" x1="591.43" y1="405.36" x2="591.43" y2="385.45"/><line class="cls-3" x1="591.43" y1="371.32" x2="591.43" y2="354.13"/><line class="cls-3" x1="591.43" y1="340.51" x2="591.43" y2="326.89"/><line class="cls-3" x1="591.43" y1="310.72" x2="591.43" y2="302.72"/><line class="cls-3" x1="235.68" y1="391.57" x2="235.68" y2="418.98"/><line class="cls-3" x1="519.43" y1="391.72" x2="519.43" y2="419.17"/><line class="cls-3" x1="348.28" y1="281.87" x2="365.38" y2="281.87"/><line class="cls-3" x1="389.81" y1="281.87" x2="406.91" y2="281.87"/><line class="cls-3" x1="164" y1="415.79" x2="164" y2="432.64"/><line class="cls-3" x1="164" y1="446.43" x2="164" y2="463.4"/><line class="cls-3" x1="164" y1="477.32" x2="164" y2="494.04"/><line class="cls-3" x1="164" y1="504.38" x2="164" y2="523.79"/><line class="cls-3" x1="164" y1="566.43" x2="164" y2="583.02"/><line class="cls-3" x1="164" y1="605.46" x2="164" y2="597.19"/><line class="cls-3" x1="591.43" y1="415.79" x2="591.43" y2="432.64"/><line class="cls-3" x1="591.43" y1="446.43" x2="591.43" y2="463.4"/><line class="cls-3" x1="591.43" y1="477.32" x2="591.43" y2="494.04"/><line class="cls-3" x1="591.43" y1="504.38" x2="591.43" y2="523.79"/><polyline class="cls-3" points="591.43 552.51 591.43 532.47 607.09 532.47"/><line class="cls-3" x1="591.43" y1="566.43" x2="591.43" y2="583.02"/><line class="cls-3" x1="591.43" y1="605.46" x2="591.43" y2="597.19"/><line class="cls-3" x1="235.68" y1="605.46" x2="235.68" y2="590.3"/><line class="cls-3" x1="519.09" y1="605.46" x2="519.09" y2="590.3"/><line class="cls-3" x1="125.38" y1="532.47" x2="135.77" y2="532.47"/><polyline class="cls-3" points="150.23 532.47 164 532.47 164 552.51"/><line class="cls-3" x1="184.45" y1="532.47" x2="201.47" y2="532.47"/><line class="cls-3" x1="216.45" y1="532.47" x2="235.68" y2="532.47"/><line class="cls-3" x1="235.68" y1="521.7" x2="235.68" y2="545.19"/><line class="cls-3" x1="249.64" y1="532.47" x2="269.72" y2="532.47"/><line class="cls-3" x1="283.85" y1="532.47" x2="303.94" y2="532.47"/><line class="cls-3" x1="318.23" y1="532.47" x2="338.15" y2="532.47"/><line class="cls-3" x1="352.11" y1="532.47" x2="369.15" y2="532.47"/><line class="cls-3" x1="629.15" y1="532.47" x2="618.77" y2="532.47"/><line class="cls-3" x1="570.09" y1="532.47" x2="553.06" y2="532.47"/><line class="cls-3" x1="538.09" y1="532.47" x2="518.85" y2="532.47"/><line class="cls-3" x1="518.85" y1="521.7" x2="518.85" y2="545.19"/><line class="cls-3" x1="504.89" y1="532.47" x2="484.81" y2="532.47"/><line class="cls-3" x1="470.68" y1="532.47" x2="450.6" y2="532.47"/><line class="cls-3" x1="436.3" y1="532.47" x2="416.38" y2="532.47"/><line class="cls-3" x1="402.43" y1="532.47" x2="385.38" y2="532.47"/><rect class="cls-3" x="125.38" y="805.52" width="504" height="232.94"/><polyline class="cls-3" points="125.38 964.16 356.7 964.16 629.38 964.16"/><line class="cls-3" x1="339.85" y1="1010.88" x2="356.7" y2="964.16"/><line class="cls-3" x1="416.45" y1="1010.88" x2="399.6" y2="964.16"/><line class="cls-3" x1="350.64" y1="979.97" x2="405.66" y2="979.97"/><line class="cls-3" x1="150.28" y1="928.93" x2="177.72" y2="928.93"/><line class="cls-3" x1="164" y1="964.16" x2="164" y2="928.93"/><line class="cls-3" x1="222.3" y1="928.93" x2="249.74" y2="928.93"/><line class="cls-3" x1="236.02" y1="964.16" x2="236.02" y2="928.93"/><line class="cls-3" x1="505.64" y1="928.93" x2="533.09" y2="928.93"/><line class="cls-3" x1="519.36" y1="964.16" x2="519.36" y2="928.93"/><line class="cls-3" x1="577.7" y1="928.93" x2="605.15" y2="928.93"/><line class="cls-3" x1="591.43" y1="964.16" x2="591.43" y2="928.93"/><polyline class="cls-3" points="125.38 805.52 125.38 605.34 629.38 605.34 629.38 805.52"/><line class="cls-3" x1="164" y1="805.52" x2="164" y2="825.44"/><line class="cls-3" x1="164" y1="839.56" x2="164" y2="856.76"/><line class="cls-3" x1="164" y1="870.37" x2="164" y2="883.99"/><line class="cls-3" x1="164" y1="900.16" x2="164" y2="908.16"/><line class="cls-3" x1="591.43" y1="805.44" x2="591.43" y2="825.35"/><line class="cls-3" x1="591.43" y1="839.48" x2="591.43" y2="856.67"/><line class="cls-3" x1="591.43" y1="870.29" x2="591.43" y2="883.9"/><line class="cls-3" x1="591.43" y1="900.07" x2="591.43" y2="908.07"/><line class="cls-3" x1="235.68" y1="819.22" x2="235.68" y2="791.82"/><line class="cls-3" x1="519.43" y1="819.07" x2="519.43" y2="791.63"/><line class="cls-3" x1="348.28" y1="928.93" x2="365.38" y2="928.93"/><line class="cls-3" x1="389.81" y1="928.93" x2="406.91" y2="928.93"/><line class="cls-3" x1="164" y1="795.01" x2="164" y2="778.16"/><line class="cls-3" x1="164" y1="764.37" x2="164" y2="747.39"/><line class="cls-3" x1="164" y1="733.48" x2="164" y2="716.76"/><line class="cls-3" x1="164" y1="706.41" x2="164" y2="687.01"/><line class="cls-3" x1="164" y1="644.37" x2="164" y2="627.78"/><line class="cls-3" x1="164" y1="605.34" x2="164" y2="613.61"/><line class="cls-3" x1="591.43" y1="795.01" x2="591.43" y2="778.16"/><line class="cls-3" x1="591.43" y1="764.37" x2="591.43" y2="747.39"/><line class="cls-3" x1="591.43" y1="733.48" x2="591.43" y2="716.76"/><line class="cls-3" x1="591.43" y1="706.41" x2="591.43" y2="687.01"/><polyline class="cls-3" points="591.43 658.29 591.43 678.33 607.09 678.33"/><line class="cls-3" x1="591.43" y1="644.37" x2="591.43" y2="627.78"/><line class="cls-3" x1="591.43" y1="605.34" x2="591.43" y2="613.61"/><line class="cls-3" x1="235.68" y1="605.34" x2="235.68" y2="620.5"/><line class="cls-3" x1="519.09" y1="605.34" x2="519.09" y2="620.5"/><line class="cls-3" x1="125.38" y1="678.33" x2="135.77" y2="678.33"/><polyline class="cls-3" points="150.23 678.33 164 678.33 164 658.29"/><line class="cls-3" x1="184.45" y1="678.33" x2="201.47" y2="678.33"/><line class="cls-3" x1="216.45" y1="678.33" x2="235.68" y2="678.33"/><line class="cls-3" x1="235.68" y1="689.1" x2="235.68" y2="665.61"/><line class="cls-3" x1="249.64" y1="678.33" x2="269.72" y2="678.33"/><line class="cls-3" x1="283.85" y1="678.33" x2="303.94" y2="678.33"/><line class="cls-3" x1="318.23" y1="678.33" x2="338.15" y2="678.33"/><line class="cls-3" x1="352.11" y1="678.33" x2="369.15" y2="678.33"/><line class="cls-3" x1="629.15" y1="678.33" x2="618.77" y2="678.33"/><line class="cls-3" x1="570.09" y1="678.33" x2="553.06" y2="678.33"/><line class="cls-3" x1="538.09" y1="678.33" x2="518.85" y2="678.33"/><line class="cls-3" x1="518.85" y1="689.1" x2="518.85" y2="665.61"/><line class="cls-3" x1="504.89" y1="678.33" x2="484.81" y2="678.33"/><line class="cls-3" x1="470.68" y1="678.33" x2="450.6" y2="678.33"/><line class="cls-3" x1="436.3" y1="678.33" x2="416.38" y2="678.33"/><line class="cls-3" x1="402.43" y1="678.33" x2="385.38" y2="678.33"/></g><g id="N_" data-name="Nº"><text class="cls-4" transform="translate(212.46 627.78) rotate(-90)">50</text><text class="cls-4" transform="translate(212.46 692.28) rotate(-90)">10</text><text class="cls-5" transform="translate(212.46 827.77) rotate(-90)">22</text><text class="cls-5" transform="translate(212.46 427.91) rotate(-90)">22</text><text class="cls-4" transform="translate(211.16 547.08) rotate(-90)">10</text><text class="cls-4" transform="translate(541.85 581.43) rotate(90)">50</text><text class="cls-4" transform="translate(541.85 516.92) rotate(90)">10</text><text class="cls-5" transform="translate(541.85 381.44) rotate(90)">22</text><text class="cls-5" transform="translate(541.85 781.3) rotate(90)">22</text><text class="cls-4" transform="translate(543.15 662.13) rotate(90)">10</text></g><g id="Capa_5" data-name="Capa 5"><g id="Capa_2" data-name="Capa 2"><g id="Capa_1-2" data-name="Capa 1-2"><path class="cls-6" d="M230.44,1082.22A7.45,7.45,0,0,0,226,1089h0v51.89a2.58,2.58,0,0,1-2.58,2.58,2.78,2.78,0,0,1-.75-.11,27.75,27.75,0,0,1-19.78-26.56v-1.54c0-.29,0-.57.06-.86v-.23q.1-1.11.3-2.22l0-.24c.06-.32.12-.63.19-1a1,1,0,0,0,0-.17c.18-.74.38-1.48.61-2.22l.05-.15c.11-.34.23-.69.36-1h0c.28-.74.58-1.48.9-2.14l.06-.12c.34-.69.69-1.37,1.08-2v0c.18-.3.36-.6.55-.9l.12-.17c.17-.28.36-.55.54-.82l.08-.1c.21-.29.41-.58.63-.86l.2-.25a30.79,30.79,0,0,1,3.08-3.38c.47-.44,1-.85,1.48-1.24a3.1,3.1,0,0,0,.59-4.34,2,2,0,0,0-.27-.31l-2.27-2.27a3.08,3.08,0,0,0-4.12-.22,37.32,37.32,0,0,0-4.82,4.67h0l-.06.07c-.33.38-.64.74-.95,1.17h0c-.31.38-.6.74-.88,1.15l-.14.2c-.46.78-1,1.61-1.52,2.48l-.13.24c-.51.84-1,1.72-1.41,2.61l-.13.26c-.19.41-.38.82-.56,1.24l-.07.1c-.2.45-.38.91-.55,1.37l-.11.28c-.15.41-.3.83-.44,1.24l-.07.2c-.14.47-.29.94-.43,1.42l-.06.26c-.11.41-.22.82-.32,1.23a1.29,1.29,0,0,1-.08.31c-.1.48-.2,1-.29,1.48v.2c-.1.42-.17.9-.23,1.3,0,.12,0,.24-.05.36-.07.5-.13,1-.17,1.48a.43.43,0,0,0,0,.16c-.05.46-.08.91-.1,1.37v1.92h-.07a37.1,37.1,0,0,0,30.33,36.49,2.6,2.6,0,0,1,2.14,2.55v14a2.57,2.57,0,0,0,2.56,2.58h4.14a2.58,2.58,0,0,0,2.58-2.58h0v-14a2.56,2.56,0,0,1,2.07-2.5,37,37,0,0,0,19.5-10.26,37.1,37.1,0,0,0-7.42-58.23,36.93,36.93,0,0,0-7.57-3.38A16.09,16.09,0,0,0,230.44,1082.22Zm25.31,46.68a27.83,27.83,0,0,1-17.15,14.53,2.58,2.58,0,0,1-3.2-1.73,2.66,2.66,0,0,1-.1-.75v-45.62a4.44,4.44,0,0,1,6.14-4.09,27.74,27.74,0,0,1,14.89,36.3c-.18.44-.38.88-.58,1.31Z"/><path class="cls-6" d="M294.86,1126.15a12.33,12.33,0,0,1-1.9-.31,20,20,0,0,0-2.45-.15c-.56,0-1.48,0-1.84.51-.51.77-.36,4.3-.36,5.11h5.11c1.13,0,1.69.21,1.69,1.44v2c0,1.48-.36,1.94-1.84,1.94h-5v16.78c0,1.33-.2,2.3-1.79,2.3h-3.22c-1.38,0-1.53-.82-1.53-2v-17h-1.54c-1.12,0-1.23-.86-1.23-1.79v-2.21c0-1.79,1.44-1.44,2.77-1.44v-2c0-2.15,0-4.24,1.32-6,2.1-2.87,5.53-3,8.8-3,1,0,3.58,0,4.24,1a1.91,1.91,0,0,1,.26,1.07v.36C296.39,1123.74,296.39,1126.15,294.86,1126.15Zm10.48,1.53h-2c-1.84,0-2.71-.25-2.71-2.3v-1.79c0-1.63.67-2.25,2.25-2.25h2.41a2,2,0,0,1,2,2,2.45,2.45,0,0,1,0,.27v1.79c.09,1.43-.37,2.3-2,2.3Zm0,28.13h-2c-1.84,0-2.71-.26-2.71-2.3v-20c0-1.63.67-2.25,2.25-2.25h2.41a2,2,0,0,1,2,2,2.45,2.45,0,0,1,0,.27v20c.09,1.43-.37,2.3-2,2.3Z"/><path class="cls-6" d="M323.69,1156.42a49.66,49.66,0,0,1-7.31-.36c-1.53-.2-1.43-.92-1.43-2.35v-.92c0-1.12.1-2.35,1.48-2.35a23.79,23.79,0,0,1,2.66.3c1.74.16,3.53.26,5.32.26s2.56,0,2.56-1.89a2.77,2.77,0,0,0-.31-1.69c-.41-.51-4.91-1.74-5.73-2a30.54,30.54,0,0,1-2.91-1.18c-2.66-1.33-3.63-2.81-3.63-5.78,0-7.87,5.31-7.77,11.6-7.77,1.28,0,2.51,0,3.79.1,1.84.16,2.55.51,2.55,2.51,0,1.48.11,3.17-1.89,3.17-.87,0-1.79-.16-2.66-.21a37.21,37.21,0,0,0-4.09-.2c-1.94,0-3-.26-3,2a1.53,1.53,0,0,0,.25,1c.51.71,5.37,2,6.45,2.35,4,1.33,5.88,2.66,5.88,7.16C333.31,1155.5,330,1156.42,323.69,1156.42Z"/><path class="cls-6" d="M344.91,1127.68H343c-1.84,0-2.71-.25-2.71-2.3v-1.79c0-1.63.66-2.25,2.25-2.25h2.4a2,2,0,0,1,2,2,2.45,2.45,0,0,1,0,.27v1.79C347,1126.81,346.5,1127.68,344.91,1127.68Zm0,28.13H343c-1.84,0-2.71-.26-2.71-2.3v-20c0-1.63.66-2.25,2.25-2.25h2.4a2,2,0,0,1,2,2,2.45,2.45,0,0,1,0,.27v20C347,1154.94,346.5,1155.81,344.91,1155.81Z"/><path class="cls-6" d="M369.57,1156.27a42.08,42.08,0,0,1-4.35.2c-10,0-11.66-3.42-11.66-12.93s1.69-13,11.66-13a42.13,42.13,0,0,1,4.35.25c1.53.16,2.81,0,2.81,1.74v.1c0,1.28,0,4-1.84,4a14.09,14.09,0,0,1-2.05-.2,36.71,36.71,0,0,0-4.8-.41c-2.15,0-2.56.41-3,2.4a24.41,24.41,0,0,0-.41,5.12,40.15,40.15,0,0,0,.2,4.9c.21,2.3,1,2.56,3.23,2.56a37.63,37.63,0,0,0,4.85-.41,13.42,13.42,0,0,1,2-.2,1.42,1.42,0,0,1,1.22.51c.41.41.62,2.86.62,3.48C372.37,1156.17,371.14,1156.06,369.57,1156.27Z"/><path class="cls-6" d="M396.81,1155.81h-2.87c-1.17,0-1.48-.77-1.48-1.84a13.93,13.93,0,0,1-7.56,2.5c-5,0-7.32-2.71-7.32-7.62,0-5.57,3.33-7.46,8.34-8a44,44,0,0,1,6.49-.41c0-2,.31-4.91-2.56-4.91a32.14,32.14,0,0,0-7.36,1.07,5.05,5.05,0,0,1-1.23.15c-1.78,0-1.48-1.79-1.48-3.06a1.89,1.89,0,0,1,1.43-2.15,35.39,35.39,0,0,1,8.39-1c2.45,0,5.57.41,7.31,2.35,2,2.25,1.94,5.42,1.94,8.28v12.43C398.85,1155.09,398.34,1155.81,396.81,1155.81ZM392.46,1145c-.82,0-1.68-.1-2.5-.1a24.79,24.79,0,0,0-3.22.15c-2.15.31-3,1-3,3.22,0,1.23.2,3.43,1.89,3.43a11.65,11.65,0,0,0,6.85-2.56Z"/><path class="cls-6" d="M410.36,1155.81h-1.79c-1.84,0-2.71-.26-2.71-2.3v-30.68c0-1.64.66-2.2,2.25-2.2h2.3a1.92,1.92,0,0,1,2,2.2v30.68C412.35,1154.94,411.94,1155.81,410.36,1155.81Z"/><path class="cls-6" d="M434.85,1156.27a42.08,42.08,0,0,1-4.35.2c-10,0-11.65-3.42-11.65-12.93s1.68-13,11.65-13a42.13,42.13,0,0,1,4.35.25c1.53.16,2.81,0,2.81,1.74v.1c0,1.28,0,4-1.84,4a14.89,14.89,0,0,1-2-.2A36.87,36.87,0,0,0,429,1136c-2.15,0-2.56.41-3,2.4a25.1,25.1,0,0,0-.41,5.12c0,1.63.06,3.27.21,4.9.2,2.3,1,2.56,3.22,2.56a37.63,37.63,0,0,0,4.86-.41,13.42,13.42,0,0,1,2-.2,1.44,1.44,0,0,1,1.23.51c.41.41.61,2.86.61,3.48C437.66,1156.17,436.44,1156.06,434.85,1156.27Z"/><path class="cls-6" d="M455.05,1156.47c-8.54,0-11.76-4.91-11.76-12.93s3.17-13,11.76-13,11.71,4.91,11.71,13S463.64,1156.47,455.05,1156.47Zm4.19-18.87c-.92-1.68-2.46-1.63-4.19-1.63s-3.28,0-4.2,1.63-1,4.15-1,5.94.1,4.34,1,5.93,2.51,1.58,4.2,1.58,3.27,0,4.19-1.58.92-4.2.92-5.93S460.11,1139.19,459.24,1137.6Z"/><path class="cls-6" d="M491.3,1155.81h-2.87c-1.17,0-1.48-.77-1.48-1.84a14,14,0,0,1-7.57,2.5c-5,0-7.31-2.71-7.31-7.62,0-5.57,3.33-7.46,8.34-8a44,44,0,0,1,6.49-.41c0-2,.31-4.91-2.56-4.91a32.14,32.14,0,0,0-7.36,1.07,5.05,5.05,0,0,1-1.23.15c-1.79,0-1.48-1.79-1.48-3.06a1.89,1.89,0,0,1,1.43-2.15,35.39,35.39,0,0,1,8.39-1c2.45,0,5.57.41,7.31,2.35,2,2.25,1.94,5.42,1.94,8.28v12.43C493.34,1155.09,492.83,1155.81,491.3,1155.81ZM487,1145c-.82,0-1.69-.1-2.5-.1a24.79,24.79,0,0,0-3.22.15c-2.15.31-3,1-3,3.22,0,1.23.2,3.43,1.89,3.43a11.65,11.65,0,0,0,6.85-2.56Z"/><path class="cls-6" d="M515.57,1156.27a42.08,42.08,0,0,1-4.35.2c-10,0-11.66-3.42-11.66-12.93s1.69-13,11.66-13a42.13,42.13,0,0,1,4.35.25c1.53.16,2.81,0,2.81,1.74v.1c0,1.28,0,4-1.84,4a14.09,14.09,0,0,1-2-.2,36.87,36.87,0,0,0-4.81-.41c-2.14,0-2.55.41-3,2.4a24.41,24.41,0,0,0-.41,5.12c0,1.63.05,3.27.2,4.9.21,2.3,1,2.56,3.22,2.56a37.63,37.63,0,0,0,4.86-.41,13.42,13.42,0,0,1,2-.2,1.42,1.42,0,0,1,1.22.51c.41.41.62,2.86.62,3.48C518.4,1156.17,517.17,1156.06,515.57,1156.27Z"/><path class="cls-6" d="M543.3,1155.81h-2.73c-1.48,0-1.84-1-1.84-2.3v-13.09c0-.72.1-3.53-.36-4a2.12,2.12,0,0,0-1.64-.41,11.14,11.14,0,0,0-6.23,2.35v15.19c0,1.43-.41,2.3-2,2.3h-2.71c-1.38,0-1.84-.77-1.84-2v-31c0-1.64.66-2.2,2.25-2.2h2.37a1.92,1.92,0,0,1,2,2.2v9.46a16.09,16.09,0,0,1,6.9-1.74c4.75,0,7.87,2.35,7.87,7.26v15.7C545.29,1154.94,544.88,1155.81,543.3,1155.81Z"/></g></g></g></svg>