<svg id="XMLID_915_" xmlns="http://www.w3.org/2000/svg" width="40.974" height="40.974" viewBox="0 0 40.974 40.974">
  <path id="XMLID_918_" d="M35.516,11.738a39.241,39.241,0,0,0-6.4,1.8,26.822,26.822,0,0,0-9.543,5.985,26.821,26.821,0,0,0-5.985,9.543,39.229,39.229,0,0,0-1.8,6.376L27.176,50.827a39.229,39.229,0,0,0,6.376-1.8A26.822,26.822,0,0,0,43.1,43.046,26.821,26.821,0,0,0,49.081,33.5a39.249,39.249,0,0,0,1.8-6.4ZM21.8,35.624l1.736,1.736,3.342-3.342-1.736-1.736,1.7-1.7,1.736,1.736,3.794-3.794-1.736-1.736,1.7-1.7,1.736,1.736,3.667-3.667L36,21.42l1.7-1.7,5.173,5.173-1.7,1.7-1.736-1.736-3.667,3.667,1.736,1.736-1.7,1.7-1.736-1.736-3.794,3.794,1.736,1.736-1.7,1.7-1.736-1.736L25.232,39.06,26.969,40.8l-1.7,1.7L20.1,37.324Z" transform="translate(-10.848 -10.797)" fill="#050c42"/>
  <path id="XMLID_920_" d="M357.192,13.384q.051-.385.1-.774a52.374,52.374,0,0,0,.124-11.321L357.3.357l-.933-.114a52.372,52.372,0,0,0-11.321.124q-.389.045-.774.1Z" transform="translate(-316.681 0)" fill="#050c42"/>
  <path id="XMLID_921_" d="M.466,343.977q-.053.4-.1.8A52.376,52.376,0,0,0,.242,356.1l.114.933.933.114a44.21,44.21,0,0,0,4.938.242,55.473,55.473,0,0,0,6.383-.366q.4-.047.8-.1Z" transform="translate(0 -316.41)" fill="#050c42"/>
</svg>
