<?xml version="1.0" encoding="utf-8"?>
<!-- Generator: Adobe Illustrator 25.4.1, SVG Export Plug-In . SVG Version: 6.00 Build 0)  -->
<svg version="1.1" id="Iconos" xmlns="http://www.w3.org/2000/svg" xmlns:xlink="http://www.w3.org/1999/xlink" x="0px" y="0px"
	 viewBox="0 0 29 52.9" style="enable-background:new 0 0 29 52.9;" xml:space="preserve">
<style type="text/css">
	.st0{fill:none;stroke:#00E9C5;stroke-miterlimit:10;}
	.st1{fill:none;stroke:#FF3737;stroke-miterlimit:10;}
	.st2{fill:none;stroke:#FF3737;stroke-width:0.5;stroke-miterlimit:10.0003;}
	.st3{fill:none;stroke:#FF3737;stroke-width:0.5;stroke-miterlimit:10;}
</style>
<g id="Mele">
	<path class="st0" d="M10.9,38.5l1.9-1.2h2.5l2.3,1.2l2-2.3c0,0,1.4-0.9,0.9,1.1l-1.2,2.9h-2.6l-0.1,3.4l1.9,2.3l-0.7,6
		c-0.2,0.7-1.6,0.4-1.6,0l0.2-4.5l-1.7-0.7L13,47.9l0.4,4.1c-0.1,0.6-1.6,0.6-1.7,0l-0.8-5.7l1.3-2.5l-0.4-3.6H9l-0.9-4
		c0,0,0-2.5,1.5,0L10.9,38.5z"/>
	<circle class="st0" cx="14.4" cy="36" r="1.4"/>
	<path class="st0" d="M2.7,27.9v1.5l0.9-0.2H6l2.3,1.2l5.2,0.4c0,0,1.8,0.7,0,1.4h-6l-0.1,3.4l0.7,0.8"/>
	<path class="st0" d="M9.1,40.2L8.7,44c-0.2,0.7-1.5,0.4-1.6,0l0.2-4.5l-1.7-0.7l-1.7,1.1L4.3,44c-0.1,0.6-1.6,0.6-1.7,0l-0.9-5.8
		L3,35.6l0.1-3.1c0-0.2-0.2-0.4-0.4-0.4l0,0H2c-0.7,0-1.2-0.5-1.2-1.2l0,0l0.1-2.4"/>
	<polyline class="st0" points="10.8,38.2 12.1,35.7 12.2,32.2 	"/>
	<path class="st0" d="M12.2,44.3c-0.4,0-0.6,0-0.6-0.3l-0.5-3.4"/>
	<path class="st0" d="M18,40.6L17.7,44c-0.1,0.3-0.2,0.3-0.6,0.3"/>
	<polyline class="st0" points="16.6,32.2 16.5,35.6 18.4,37.9 	"/>
	<polyline class="st0" points="10.8,30.5 12.6,29.2 15.1,29.2 17.4,30.5 	"/>
	<path class="st0" d="M28,27.9c0.2,0.2,0.4,0.5,0.5,0.8l-0.1,2.7c0,0.4-0.4,0.8-0.8,0.8h-1.2c-0.3,0-0.6,0.2-0.6,0.6l-0.1,2.8
		l1.8,2.3l-0.7,6c-0.2,0.7-1.5,0.4-1.6,0l0.2-4.5l-1.7-0.7L22,39.8l0.4,4.1c-0.2,0.6-1.6,0.6-1.7,0L20.2,40"/>
	<path class="st0" d="M20.7,36.5l0.4-0.8l0.1-3.5h-2.4L15.3,32c0,0-1.9-0.3-0.3-1.4l4.9-0.1l1.9-1.2h2.5l1.2,0.7
		c0.5,0.2,1.1,0,1.3-0.5c0,0,0-0.1,0.1-0.1l0.1-0.5"/>
</g>
<g id="Mele-2">
	<path class="st1" d="M10.9,19l1.9,1.3h2.5l2.3-1.3l2,2.3c0,0,1.4,0.9,0.9-1.1l-1.2-3h-2.6l-0.1-3.4l1.9-2.3l-0.7-6
		c-0.2-0.7-1.5-0.4-1.6,0l0.2,4.5l-1.7,0.7L13,9.6l0.4-4.1c-0.1-0.6-1.6-0.6-1.7,0l-0.8,5.7l1.3,2.5l-0.4,3.5H9l-0.9,4
		c0,0,0,2.5,1.5,0L10.9,19z"/>
	<circle class="st1" cx="14.4" cy="21.4" r="1.4"/>
	<path class="st1" d="M9.1,17.2l-0.4-3.7c-0.2-0.7-1.5-0.4-1.6,0L7.3,18l-1.7,0.6l-1.7-1.1l0.4-4.1c-0.1-0.6-1.6-0.6-1.7,0l-0.9,5.8
		L3,21.7l0.1,2.5c0,0.6-0.4,1-1,1H1.3c-0.4,0-0.6,0.3-0.7,0.6l-0.1,2.4c0,0,0.4,1.4,1.3,0.3c0,0,0.8-1.4,1.1-1.2
		c0.2,0.2,0.4,0.4,0.5,0.7c0.1,0.2,0.3,0.3,0.5,0.3H6L8.3,27l5.2-0.4c0,0,1.8-0.7,0-1.4h-6l-0.1-3.4L8.1,21"/>
	<polyline class="st1" points="10.7,19.2 12.1,21.7 12.2,25.3 	"/>
	<path class="st1" d="M12.2,13.1c-0.4,0-0.6,0-0.6,0.4l-0.5,3.4"/>
	<path class="st1" d="M18,16.9l-0.3-3.4c-0.1-0.3-0.2-0.3-0.6-0.3"/>
	<polyline class="st1" points="16.6,25.3 16.5,21.9 18.4,19.5 	"/>
	<polyline class="st1" points="10.7,27 12.6,28.3 15.1,28.3 17.4,27 	"/>
	<path class="st1" d="M20.7,20.9l0.4,0.8l0.1,3.5h-2.4l-3.5,0.2c0,0-1.9,0.3-0.4,1.4l4.9,0.1l1.9,1.3h2.5l0.9-0.5
		c0.4-0.2,0.9-0.1,1.2,0.3l0,0l0.3,0.6c0,0,1.2,0.9,1.5-1.2l0.2-1.5c0.1-0.4-0.2-0.8-0.6-0.8h-0.1h-0.7c-0.6,0-1-0.4-1.1-1l-0.1-2.4
		l1.9-2.3l-0.7-6c-0.2-0.7-1.5-0.4-1.6,0l0.2,4.5l-1.8,0.6L22,17.6l0.4-4.1c-0.2-0.6-1.6-0.6-1.7,0l-0.5,3.9"/>
</g>
<ellipse transform="matrix(3.214872e-03 -1 1 3.214872e-03 12.5615 16.8739)" class="st2" cx="14.7" cy="2.1" rx="1.9" ry="2.9"/>
<path class="st3" d="M17.3,3c-1.7-0.5-3.4-0.5-5.1,0"/>
<path class="st3" d="M17.3,1.3c-1.6,0.4-3.5,0.5-5.1,0"/>
</svg>
