<?xml version="1.0" encoding="utf-8"?>
<!-- Generator: Adobe Illustrator 25.4.1, SVG Export Plug-In . SVG Version: 6.00 Build 0)  -->
<svg version="1.1" id="Iconos" xmlns="http://www.w3.org/2000/svg" xmlns:xlink="http://www.w3.org/1999/xlink" x="0px" y="0px"
	 viewBox="0 0 29 52.9" style="enable-background:new 0 0 29 52.9;" xml:space="preserve">
<style type="text/css">
	.st0{fill:none;stroke:#FF3737;stroke-miterlimit:10;}
	.st1{fill:none;stroke:#00E9C5;stroke-miterlimit:10;}
	.st2{fill:none;stroke:#00E9C5;stroke-width:0.5;stroke-miterlimit:10.0003;}
	.st3{fill:none;stroke:#00E9C5;stroke-width:0.5;stroke-miterlimit:10;}
</style>
<g id="Mele">
	<path class="st0" d="M18.1,14.4l-1.9,1.2h-2.5l-2.3-1.2l-2,2.3c0,0-1.4,0.9-0.9-1.1l1.2-2.9h2.6l0.1-3.4L10.5,7l0.7-6
		c0.2-0.7,1.6-0.4,1.6,0l-0.2,4.5l1.7,0.7L16,5l-0.4-4.1c0.1-0.6,1.6-0.6,1.7,0l0.8,5.7l-1.3,2.5l0.4,3.6H20l0.9,4c0,0,0,2.5-1.5,0
		L18.1,14.4z"/>
	<circle class="st0" cx="14.6" cy="16.9" r="1.4"/>
	<path class="st0" d="M26.3,25v-1.5l-0.9,0.2H23l-2.3-1.2l-5.2-0.4c0,0-1.8-0.7,0-1.4h6l0.1-3.4l-0.7-0.8"/>
	<path class="st0" d="M19.9,12.7l0.4-3.8c0.2-0.7,1.5-0.4,1.6,0l-0.2,4.5l1.7,0.7l1.7-1.1L24.7,9c0.1-0.6,1.6-0.6,1.7,0l0.9,5.8
		L26,17.3l-0.1,3.1c0,0.2,0.2,0.4,0.4,0.4l0,0H27c0.7,0,1.2,0.5,1.2,1.2l0,0l-0.1,2.4"/>
	<polyline class="st0" points="18.2,14.7 16.9,17.2 16.8,20.7 	"/>
	<path class="st0" d="M16.8,8.6c0.4,0,0.6,0,0.6,0.3l0.5,3.4"/>
	<path class="st0" d="M11,12.3l0.3-3.4c0.1-0.3,0.2-0.3,0.6-0.3"/>
	<polyline class="st0" points="12.4,20.7 12.5,17.3 10.6,15 	"/>
	<polyline class="st0" points="18.2,22.4 16.4,23.7 13.9,23.7 11.6,22.4 	"/>
	<path class="st0" d="M1,25c-0.2-0.2-0.4-0.5-0.5-0.8l0.1-2.7c0-0.4,0.4-0.8,0.8-0.8h1.2c0.3,0,0.6-0.2,0.6-0.6l0.1-2.8l-1.8-2.3
		l0.7-6c0.2-0.7,1.5-0.4,1.6,0l-0.2,4.5l1.7,0.7L7,13.1L6.6,9.1c0.2-0.6,1.6-0.6,1.7,0L8.8,13"/>
	<path class="st0" d="M8.3,16.4l-0.4,0.8l-0.1,3.5h2.4l3.5,0.2c0,0,1.9,0.3,0.3,1.4l-4.9,0.1l-1.9,1.2H4.7l-1.2-0.7
		c-0.5-0.2-1.1,0-1.3,0.5c0,0,0,0.1-0.1,0.1L2,24"/>
</g>
<g id="Mele-2">
	<path class="st1" d="M18.1,34l-1.9-1.3h-2.5l-2.3,1.3l-2-2.3c0,0-1.4-0.9-0.9,1.1l1.2,3h2.6l0.1,3.4l-1.9,2.3l0.7,6
		c0.2,0.7,1.5,0.4,1.6,0l-0.2-4.5l1.7-0.7l1.7,1.1l-0.4,4.1c0.1,0.6,1.6,0.6,1.7,0l0.8-5.7l-1.3-2.5l0.4-3.5H20l0.9-4
		c0,0,0-2.5-1.5,0L18.1,34z"/>
	<circle class="st1" cx="14.6" cy="31.5" r="1.4"/>
	<path class="st1" d="M19.9,35.8l0.4,3.7c0.2,0.7,1.5,0.4,1.6,0L21.7,35l1.7-0.6l1.7,1.1l-0.4,4.1c0.1,0.6,1.6,0.6,1.7,0l0.9-5.8
		L26,31.2l-0.1-2.5c0-0.6,0.4-1,1-1h0.8c0.4,0,0.6-0.3,0.7-0.6l0.1-2.4c0,0-0.4-1.4-1.3-0.3c0,0-0.8,1.4-1.1,1.2
		c-0.2-0.2-0.4-0.4-0.5-0.7c-0.1-0.2-0.3-0.3-0.5-0.3H23l-2.3,1.3l-5.2,0.4c0,0-1.8,0.7,0,1.4h6l0.1,3.4l-0.7,0.8"/>
	<polyline class="st1" points="18.3,33.8 16.9,31.2 16.8,27.6 	"/>
	<path class="st1" d="M16.8,39.8c0.4,0,0.6,0,0.6-0.4l0.5-3.4"/>
	<path class="st1" d="M11,36l0.3,3.4c0.1,0.3,0.2,0.3,0.6,0.3"/>
	<polyline class="st1" points="12.4,27.6 12.5,31 10.6,33.4 	"/>
	<polyline class="st1" points="18.3,25.9 16.4,24.6 13.9,24.6 11.6,25.9 	"/>
	<path class="st1" d="M8.3,32l-0.4-0.8l-0.1-3.5h2.4l3.5-0.2c0,0,1.9-0.3,0.4-1.4L9.2,26l-1.9-1.3H4.8l-0.9,0.5
		c-0.4,0.2-0.9,0.1-1.2-0.3l0,0l-0.3-0.6c0,0-1.2-0.9-1.5,1.2l-0.2,1.5c-0.1,0.4,0.2,0.8,0.6,0.8h0.1h0.7c0.6,0,1,0.4,1.1,1l0.1,2.4
		l-1.9,2.3l0.7,6c0.2,0.7,1.5,0.4,1.6,0L3.5,35l1.8-0.6L7,35.3l-0.4,4.1c0.2,0.6,1.6,0.6,1.7,0l0.5-3.9"/>
</g>
<ellipse transform="matrix(3.214872e-03 -1 1 3.214872e-03 -36.5879 64.9011)" class="st2" cx="14.3" cy="50.8" rx="1.9" ry="2.9"/>
<path class="st3" d="M11.7,49.9c1.7,0.5,3.4,0.5,5.1,0"/>
<path class="st3" d="M11.7,51.6c1.6-0.4,3.5-0.5,5.1,0"/>
</svg>
