<?xml version="1.0" encoding="utf-8"?>
<!-- Generator: Adobe Illustrator 25.4.1, SVG Export Plug-In . SVG Version: 6.00 Build 0)  -->
<svg version="1.1" id="Iconos" xmlns="http://www.w3.org/2000/svg" xmlns:xlink="http://www.w3.org/1999/xlink" x="0px" y="0px"
	 viewBox="0 0 42.9 43.1" style="enable-background:new 0 0 42.9 43.1;" xml:space="preserve">
<style type="text/css">
	.st0{fill:none;stroke:#FF3737;stroke-width:1.3667;stroke-linecap:round;stroke-linejoin:round;stroke-miterlimit:10;}
	.st1{fill:none;stroke:#FF3737;stroke-width:0.4953;stroke-miterlimit:10;}
	.st2{fill:none;stroke:#FF3737;stroke-width:0.743;stroke-miterlimit:10;}
</style>
<path class="st0" d="M19.9,16L17,19.7l-6.1,4.5c-1.8,1.3-2.7,3.6-2.3,5.8l0.7,3.5l-7.8,5.2c-0.8,0.6-1,1.7-0.5,2.5l0,0
	c0.6,0.8,1.6,1,2.4,0.5l8.9-5.8c0.8-0.5,1.3-1.5,1.1-2.5l-0.7-3.7"/>
<path class="st0" d="M4.8,40.8L4.8,40.8c0.9,1.2,2.6,1.6,3.8,0.7l7.5-4.9c0.8-0.5,1.2-1.5,1.1-2.5L16,28.2l6.6-4.8"/>
<path class="st0" d="M25.7,24.4l-0.5,7.9l-4.7,6.1c-0.8,0.7-0.9,2-0.2,2.8l0,0c0.7,0.8,1.9,0.9,2.8,0.2l5.7-6.8
	c0.8-0.7,1.3-1.7,1.3-2.8v-4.3l3.2,3.5l-1.4,9c-0.2,1.2,0.6,2.3,1.8,2.4l0,0c1.1,0.1,2.1-0.6,2.3-1.7l1.5-9c0.2-0.9,0-1.9-0.6-2.6
	l-4.4-5.6l-2.4-12.3l5.4,2.7c1.3,0.7,2.9,0.2,3.6-1.2L42,7.2c0.5-0.9,0.1-2.1-0.9-2.5l0,0c-0.9-0.4-1.9,0-2.4,0.8L36.4,10l-4.2-2.1
	c-1.6-0.8-3.4-0.9-5-0.2L21.4,10c-0.8,0.3-1.5,0.8-2.1,1.3l-1.9,1.9l-2.8-2.6c-0.7-0.7-1.8-0.6-2.5,0.1l0,0
	c-0.7,0.7-0.7,1.9,0.1,2.6l3.4,3c1.1,0.9,2.6,0.9,3.7,0l3-2.8l2.3,7.7"/>
<circle class="st0" cx="22.2" cy="4.1" r="3.4"/>
<path class="st0" d="M20.4,20.2l2.3,3.4c0.7,1,1.9,1.4,3,0.9l0,0l3.5-1.5c0.9-0.4,1.3-1.5,0.8-2.4l0,0c-0.4-0.8-1.4-1.1-2.2-0.7
	l-2.9,1.3"/>
<path class="st1" d="M5.2,11.8c-1.6-0.6-2.1-3.1-1.1-5.5s3.1-3.8,4.7-3.2s2.1,3.1,1.1,5.5S6.8,12.4,5.2,11.8"/>
<path class="st2" d="M4.1,10.9C5.9,8.6,7,5.9,7.3,3"/>
<path class="st2" d="M6.6,11.8C7,9,8.1,6.2,9.8,3.9"/>
</svg>
