<?xml version="1.0" encoding="utf-8"?>
<!-- Generator: Adobe Illustrator 25.4.1, SVG Export Plug-In . SVG Version: 6.00 Build 0)  -->
<svg version="1.1" id="Capa_1" xmlns="http://www.w3.org/2000/svg" xmlns:xlink="http://www.w3.org/1999/xlink" x="0px" y="0px"
	 viewBox="0 0 84.6 69.9" style="enable-background:new 0 0 84.6 69.9;" xml:space="preserve">
<style type="text/css">
	.st0{fill:none;stroke:#050B3D;stroke-width:3.7531;stroke-linecap:round;stroke-miterlimit:9.9996;}
	.st1{fill:none;stroke:#050B3D;stroke-width:3.7533;stroke-linecap:round;stroke-miterlimit:10;}
	.st2{fill:#050B3D;}
</style>
<g id="Pelota">
	<ellipse transform="matrix(0.3122 -0.95 0.95 0.3122 -15.5354 48.4055)" class="st0" cx="25.7" cy="34.9" rx="34" ry="22.4"/>
	<path class="st1" d="M7,61.1C18.9,43.9,25.5,23.7,26.1,2.8"/>
	<path class="st1" d="M25,67c1.5-20.7,8-40.7,19.2-58.3"/>
</g>
<path class="st2" d="M76.9,32.5l-7.3-4.1c-0.5-0.3-1.3,0-1.8,0.5c0,0.3-0.3,0.5-0.3,0.5v4.4H56.2c-0.8,0-1.3,0.5-1.3,1.3l0,0v5.4
	c0,0.8,0.5,1.3,1.3,1.3l0,0h11.4v4.4c0,0.7,0.6,1.3,1.3,1.3h0.1c0.2,0,0.3,0,0.4-0.1l7.3-4.3L84,39c0.6-0.4,0.8-1.2,0.5-1.8
	c-0.3-0.4-0.6-0.5-0.9-0.8L76.9,32.5z"/>
</svg>
