<?xml version="1.0" encoding="utf-8"?>
<!-- Generator: Adobe Illustrator 25.4.1, SVG Export Plug-In . SVG Version: 6.00 Build 0)  -->
<svg version="1.1" id="Iconos" xmlns="http://www.w3.org/2000/svg" xmlns:xlink="http://www.w3.org/1999/xlink" x="0px" y="0px"
	 viewBox="0 0 29.5 40.1" style="enable-background:new 0 0 29.5 40.1;" xml:space="preserve">
<style type="text/css">
	.st0{enable-background:new    ;}
	.st1{fill:#050B3D;}
</style>
<g class="st0">
	<path class="st1" d="M27.4,40.1h-3.6c-1.7,0-2.6-0.3-3.7-1.6l-10.2-13H8v11.9C8,40.6,5.3,40,2.9,40c-2,0-2.9-0.5-2.9-2.6v-35
		C0,0.4,1.1,0,2.9,0H14c4,0,7.3-0.2,10.3,2.8c2.7,2.8,3.1,7.6,3.1,11.2c0,5.6-1.9,10.3-8,11.2l9.2,11.2c0.5,0.6,0.8,1.3,0.8,2.1
		C29.5,39.7,28.4,40.1,27.4,40.1z M17.8,7.3c-1-0.5-3.5-0.5-4.6-0.5C11.5,6.8,9.8,6.9,8,7v11.7h6.8c4.1,0,4.6-1.3,4.6-5.1
		C19.4,12.1,19.4,8.2,17.8,7.3z"/>
</g>
</svg>
