<?xml version="1.0" encoding="utf-8"?>
<!-- Generator: Adobe Illustrator 25.4.1, SVG Export Plug-In . SVG Version: 6.00 Build 0)  -->
<svg version="1.1" id="Capa_1" xmlns="http://www.w3.org/2000/svg" xmlns:xlink="http://www.w3.org/1999/xlink" x="0px" y="0px"
	 viewBox="0 0 93.6 99.1" style="enable-background:new 0 0 93.6 99.1;" xml:space="preserve">
<style type="text/css">
	.st0{fill:#00E9C5;}
	.st1{fill:none;stroke:#00E9C5;stroke-width:2.559;stroke-miterlimit:9.9994;}
	.st2{fill:none;stroke:#00E9C5;stroke-width:5.1185;stroke-miterlimit:10;}
</style>
<g>
	<g>
		<path class="st0" d="M73,47.4c0.4,0.2,0.7,0,1.1-0.2s0.5-0.7,0.2-1.1c-0.2-0.4-0.7-0.5-1.1-0.2C73.1,46,73,46,72.9,46.1
			C72.5,46.4,72.5,47.1,73,47.4z"/>
		<path class="st0" d="M58.4,46.7l2.4,1.2c3.1,1.6,6.7,1.9,10,0.8c0.4-0.1,0.6-0.6,0.5-1s-0.6-0.6-1-0.5c-3,0.9-6.1,0.7-8.9-0.7
			L59,45.3c-3.1-1.6-5.4-4.2-6.5-7.5l-6-19.8c-0.6-1.9,1.3-3.1,2.7-2.4c1.8,0.9,3.1,2.4,3.7,4.3l1.5,6.2c0.4,1.9,3.3,2.3,4.2,0.4
			l1.8-3.6c0.1-0.1-0.2,1.2,4-19.2c0.4-1.7,2.3-2.6,3.8-1.8c1,0.5,1.7,1.6,1.4,2.9l-3.5,18.7c-0.2,0.9,1,1.3,1.4,0.5l9.1-18.1
			c1.1-2.1,4.2-1.9,4.9,0.4c0.2,0.7,0.2,1.4-0.2,2l-8.8,17.6c-0.4,0.8,0.7,1.5,1.3,0.9l11.6-13c0.5-0.5,1.1-0.9,1.8-0.9
			c2.1-0.1,3.5,2.1,2.5,3.9c-0.2,0.4,0.8-0.7-12.3,13.9c-0.6,0.7,0.2,1.6,1,1.1l10.2-6.7c1.9-1.3,4.4,0.8,3.3,3
			c-0.2,0.4-0.5,0.7-0.8,0.9l-7.2,4.7c-2.9,1.9-5.3,4.6-6.9,7.7c-0.5,1-1.2,2-1.9,2.8c-0.3,0.3-0.3,0.8,0,1.1s0.8,0.3,1.1,0
			c0.9-0.9,1.6-2,2.2-3.1c1.4-2.9,3.6-5.3,6.3-7.1l7.2-4.7c1.8-1.2,2.2-3.6,1.1-5.3c-1.2-1.8-3.5-2.3-5.3-1.1l-5.4,3.5l8-9
			c1.6-1.7,1.4-4.4-0.3-5.9c-1.7-1.5-4.4-1.4-5.9,0.3l-7.7,8.7L83,8.9c1-2.1,0.2-4.6-1.9-5.6s-4.6-0.2-5.6,1.9l-6.7,13.2L71.3,5
			c0.4-1.9-0.5-3.8-2.2-4.6c-2.5-1.2-5.5,0.2-6,2.9l-3.9,18.9l-1.8,3.6c-0.3,0.6-1.2,0.5-1.4-0.1c-1-4.3-1.5-6.2-1.5-6.3
			c-0.8-2.3-2.4-4.1-4.5-5.2c-2.7-1.4-5.8,1.2-4.8,4.2c6.2,20.5,6,19.8,6,19.8C52.3,41.9,54.9,44.9,58.4,46.7L58.4,46.7z"/>
	</g>
	<path class="st0" d="M62.9,43.7c0.4,0.2,0.8,0,1-0.3c2.7-5.5,1-12.2-4-15.6c-0.4-0.2-0.8-0.1-1.1,0.2c-0.2,0.3-0.1,0.8,0.2,1.1
		c4.4,3,5.9,8.9,3.5,13.7C62.4,43,62.5,43.5,62.9,43.7L62.9,43.7z"/>
</g>
<g id="Iconos">
	
		<ellipse transform="matrix(0.9068 -0.4215 0.4215 0.9068 -21.6796 18.7931)" class="st1" cx="31.7" cy="58.4" rx="27.4" ry="41.5"/>
	<path class="st2" d="M26.7,19.4c3.7,25.2,14.6,48.8,31.4,68"/>
	<path class="st2" d="M5.6,29.2c16.1,19.7,26.9,43.1,31.7,68"/>
</g>
</svg>
