<?xml version="1.0" encoding="utf-8"?>
<!-- Generator: Adobe Illustrator 25.0.0, SVG Export Plug-In . SVG Version: 6.00 Build 0)  -->
<svg version="1.1" id="Capa_1" xmlns="http://www.w3.org/2000/svg" xmlns:xlink="http://www.w3.org/1999/xlink" x="0px" y="0px"
	 viewBox="0 0 110.8 118.5" style="enable-background:new 0 0 110.8 118.5;" xml:space="preserve">
<style type="text/css">
	.st0{fill:none;}
	.st1{fill:none;stroke:#00E9C5;stroke-width:2.3971;stroke-miterlimit:10;}
	.st2{fill:#00E9C5;}
</style>
<circle class="st0" cx="55.3" cy="72.1" r="27.2"/>
<g>
	<circle class="st1" cx="55.3" cy="72.1" r="26.2"/>
	<path class="st1" d="M74.9,54.5c0,0-14.7,16.3,0,35.2"/>
	<path class="st1" d="M35.9,54.5c0,0,14.7,16.3,0,35.2"/>
	<line class="st1" x1="55.3" y1="45.9" x2="55.3" y2="98.3"/>
	<line class="st1" x1="29" y1="72.1" x2="81.6" y2="72.1"/>
</g>
<g>
	<g>
		<path class="st2" d="M18.1,61c-0.4,0.1-0.6,0-0.9-0.1s-0.4-0.5-0.1-0.9c0.1-0.3,0.5-0.4,0.9-0.1c0.1,0,0.1,0.1,0.3,0.1
			C18.6,60.2,18.6,60.8,18.1,61z"/>
		<path class="st2" d="M30.1,60.4l-2,0.9c-2.5,1.4-5.5,1.5-8.2,0.6c-0.3-0.1-0.5-0.4-0.4-0.8c0.1-0.3,0.4-0.5,0.8-0.4
			c2.4,0.8,5,0.5,7.2-0.5l2-0.9c2.5-1.4,4.5-3.5,5.2-6.1l4.9-16.1c0.5-1.6-1-2.5-2.2-2c-1.5,0.6-2.5,2-3,3.6l-1.2,5
			c-0.4,1.6-2.6,1.9-3.5,0.3L28.4,41c0-0.1,0.1,0.9-3.1-15.6c-0.3-1.5-1.9-2.1-3.1-1.6c-0.8,0.4-1.4,1.4-1.2,2.4l2.9,15.1
			c0.1,0.6-0.8,1-1.2,0.4L15.2,27c-0.9-1.7-3.5-1.6-4.1,0.3C11,27.8,11,28.5,11.2,29l7.1,14.4c0.3,0.6-0.5,1.2-1,0.6L7.8,33.3
			c-0.4-0.4-0.9-0.6-1.5-0.8c-1.7-0.1-2.8,1.7-2.1,3.1C4.4,36,3.7,35.1,14.3,47c0.5,0.5-0.3,1.4-0.8,0.9l-8.4-5.5
			c-1.6-1-3.6,0.6-2.8,2.4c0.1,0.4,0.4,0.6,0.6,0.8l5.9,3.9c2.4,1.6,4.4,3.7,5.6,6.4c0.4,0.8,0.9,1.6,1.6,2.2c0.3,0.3,0.3,0.6,0,0.9
			c-0.3,0.3-0.6,0.3-0.9,0c-0.6-0.8-1.4-1.6-1.7-2.5c-1.2-2.4-2.9-4.4-5.1-5.9l-5.9-3.9C0.8,46,0.4,44,1.3,42.5s2.9-1.9,4.4-0.9
			l4.4,2.9l-6.5-7.4c-1.4-1.5-1-3.6,0.3-4.9c1.5-1.4,3.6-1.2,4.9,0.3l6.4,7.1l-5-10.2c-0.8-1.7-0.1-3.7,1.6-4.6
			c1.7-0.8,3.7-0.1,4.6,1.6l5.5,10.8l-2-11c-0.3-1.5,0.4-3,1.9-3.7c2-1,4.5,0.1,4.9,2.4l2.8,15.5l1.5,2.9c0.3,0.5,0.9,0.4,1.2,0
			c0.9-3.6,1.2-5.1,1.2-5.1c0.6-1.9,2-3.5,3.7-4.2c2.2-1,4.7,0.9,4,3.5c-5.1,16.8-4.9,16.1-4.9,16.1C35,56.6,32.9,59,30.1,60.4
			L30.1,60.4z"/>
	</g>
	<path class="st2" d="M26.4,57.9c-0.3,0.1-0.6,0-0.8-0.3c-2.2-4.5-0.8-10,3.4-12.7c0.3-0.1,0.6-0.1,0.9,0.1c0.1,0.3,0.1,0.6-0.1,0.9
		c-3.6,2.4-4.9,7.2-2.9,11.1C26.8,57.4,26.7,57.8,26.4,57.9L26.4,57.9z"/>
</g>
<g>
	<g>
		<path class="st2" d="M92.7,61c0.4,0.1,0.6,0,0.9-0.1s0.4-0.5,0.1-0.9c-0.1-0.3-0.5-0.4-0.9-0.1c-0.1,0-0.1,0.1-0.3,0.1
			C92.3,60.2,92.3,60.8,92.7,61z"/>
		<path class="st2" d="M80.8,60.4l2,0.9c2.5,1.4,5.5,1.5,8.2,0.6c0.3-0.1,0.5-0.4,0.4-0.8c-0.1-0.3-0.4-0.5-0.8-0.4
			c-2.4,0.8-5,0.5-7.2-0.5l-2-0.9c-2.5-1.4-4.5-3.5-5.2-6.1l-4.9-16.1c-0.5-1.6,1-2.5,2.2-2c1.5,0.6,2.5,2,3,3.6l1.2,5
			c0.4,1.6,2.6,1.9,3.5,0.3l1.5-2.9c0-0.1-0.1,0.9,3.1-15.6c0.3-1.5,1.9-2.1,3.1-1.6c0.8,0.4,1.4,1.4,1.2,2.4l-2.8,15.3
			c-0.3,0.5,0.6,0.8,1,0.1l7.4-14.8c0.9-1.7,3.5-1.6,4.1,0.3c0.1,0.5,0.1,1.2-0.1,1.7l-7.1,14.5c-0.3,0.6,0.5,1.2,1,0.6l9.4-10.7
			c0.4-0.4,0.9-0.6,1.5-0.8c1.7-0.1,2.8,1.7,2.1,3.1c-0.1,0.4,0.6-0.5-10.1,11.4c-0.5,0.5,0.3,1.4,0.8,0.9l8.4-5.6
			c1.6-1,3.6,0.6,2.8,2.4c-0.1,0.3-0.4,0.5-0.6,0.6l-5.9,3.9c-2.4,1.6-4.4,3.7-5.6,6.4c-0.4,0.8-0.9,1.6-1.6,2.2
			c-0.3,0.3-0.3,0.6,0,0.9c0.3,0.3,0.6,0.3,0.9,0c0.6-0.8,1.4-1.6,1.7-2.5c1.2-2.4,2.9-4.4,5.1-5.9l5.9-3.9c1.5-0.9,1.9-2.9,0.9-4.4
			s-2.9-1.9-4.4-0.9l-4.4,3l6.5-7.4c1.4-1.5,1-3.6-0.3-4.9c-1.5-1.4-3.6-1.2-4.9,0.3l-6.4,7.1l5-10.2c0.8-1.7,0.1-3.7-1.6-4.6
			c-1.7-0.8-3.7-0.1-4.6,1.6L88.9,37l2-11c0.3-1.5-0.4-3-1.9-3.7c-2-1-4.5,0.1-4.9,2.4l-2.9,15.6l-1.5,2.9c-0.3,0.5-0.9,0.4-1.2,0
			c-0.9-3.6-1.2-5.1-1.2-5.1c-0.6-1.9-2-3.5-3.7-4.2c-2.2-1-4.7,0.9-4,3.5c5.1,16.8,4.9,16.1,4.9,16.1C75.8,56.6,77.9,59,80.8,60.4
			L80.8,60.4z"/>
	</g>
	<path class="st2" d="M84.5,57.9c0.3,0.1,0.6,0,0.8-0.3c2.2-4.5,0.8-10-3.4-12.7c-0.3-0.1-0.6-0.1-0.9,0.1c-0.1,0.3-0.1,0.6,0.1,0.9
		c3.6,2.4,4.9,7.2,2.9,11.1C84,57.4,84.1,57.8,84.5,57.9L84.5,57.9z"/>
</g>
</svg>
