<svg id="basketball-ball" xmlns="http://www.w3.org/2000/svg" width="43.893" height="43.873" viewBox="0 0 43.893 43.873">
  <g id="Grupo_1714" data-name="Grupo 1714" transform="translate(37.623 7.085)">
    <g id="Grupo_1713" data-name="Grupo 1713">
      <path id="Trazado_1952" data-name="Trazado 1952" d="M439.321,82.757a32.46,32.46,0,0,0-.455,5.456c0,.955.043,1.9.122,2.822,1.64-.093,3.34-.139,5.089-.143A21.974,21.974,0,0,0,439.321,82.757Z" transform="translate(-438.866 -82.757)" fill="#050c42"/>
    </g>
  </g>
  <g id="Grupo_1716" data-name="Grupo 1716" transform="translate(18.224 0)">
    <g id="Grupo_1715" data-name="Grupo 1715">
      <path id="Trazado_1953" data-name="Trazado 1953" d="M231.1,5.865A21.859,21.859,0,0,0,212.58.436c5.671,3.027,10.217,8.613,13.045,15.657q2.367-.319,4.909-.51-.121-1.437-.123-2.927A33.521,33.521,0,0,1,231.1,5.865Z" transform="translate(-212.58 -0.114)" fill="#050c42"/>
    </g>
  </g>
  <g id="Grupo_1718" data-name="Grupo 1718" transform="translate(22.579 17.7)">
    <g id="Grupo_1717" data-name="Grupo 1717">
      <path id="Trazado_1954" data-name="Trazado 1954" d="M271.07,206.587c-2.362.356-4.584.806-6.675,1.33a28.613,28.613,0,0,1-1.007,24.843,21.786,21.786,0,0,0,9.052-2.24c.118-.058.233-.119.35-.18l.181-.923a42.463,42.463,0,0,0-1.9-22.83Z" transform="translate(-263.388 -206.587)" fill="#050c42"/>
    </g>
  </g>
  <g id="Grupo_1720" data-name="Grupo 1720" transform="translate(37.921 16.785)">
    <g id="Grupo_1719" data-name="Grupo 1719">
      <path id="Trazado_1955" data-name="Trazado 1955" d="M447.7,195.915q-2.769-.006-5.353.136c.688,5.06,2.533,9.362,5,11.477a21.906,21.906,0,0,0,.351-11.613Z" transform="translate(-442.349 -195.915)" fill="#050c42"/>
    </g>
  </g>
  <g id="Grupo_1722" data-name="Grupo 1722" transform="translate(0 7.827)">
    <g id="Grupo_1721" data-name="Grupo 1721">
      <path id="Trazado_1956" data-name="Trazado 1956" d="M5.567,91.426c-.128,0-.254-.007-.382-.011A22.017,22.017,0,0,0,.3,101.921c0,.016-.005.032-.009.049-.09.542-.156,1.091-.205,1.644-.008.09-.014.182-.02.272C.027,104.431,0,104.98,0,105.534a21.886,21.886,0,0,0,.988,6.52A53.766,53.766,0,0,1,21.331,101.6C17.972,95.482,12.163,91.426,5.567,91.426Z" transform="translate(0 -91.415)" fill="#050c42"/>
    </g>
  </g>
  <g id="Grupo_1724" data-name="Grupo 1724" transform="translate(6.584 0.89)">
    <g id="Grupo_1723" data-name="Grupo 1723">
      <path id="Trazado_1957" data-name="Trazado 1957" d="M85.991,10.491l-.065.019q-.794.235-1.558.527l-.225.089c-.508.2-1.009.413-1.5.648l-.039.02c-.464.225-.915.47-1.359.727-.092.053-.184.1-.276.158q-.65.387-1.27.816c-.082.057-.163.116-.245.174a22,22,0,0,0-2.5,2.075l-.078.074c-.028.027-.053.057-.081.085,6.879.4,12.869,4.82,16.3,11.294,2.129-.545,4.392-1.013,6.8-1.387C96.916,18.576,92.043,13.023,85.991,10.491Z" transform="translate(-76.8 -10.491)" fill="#050c42"/>
    </g>
  </g>
  <g id="Grupo_1726" data-name="Grupo 1726" transform="translate(31.838 17.026)">
    <g id="Grupo_1725" data-name="Grupo 1725">
      <path id="Trazado_1958" data-name="Trazado 1958" d="M375.9,198.725q-2.33.172-4.507.455a47.245,47.245,0,0,1,2.649,15.83,44.958,44.958,0,0,1-.722,7.112,22.061,22.061,0,0,0,8.605-10.463C378.882,209.389,376.662,204.538,375.9,198.725Z" transform="translate(-371.392 -198.725)" fill="#050c42"/>
    </g>
  </g>
  <g id="Grupo_1728" data-name="Grupo 1728" transform="translate(1.557 19.435)">
    <g id="Grupo_1727" data-name="Grupo 1727">
      <path id="Trazado_1959" data-name="Trazado 1959" d="M38.656,226.821a52.057,52.057,0,0,0-20.5,10.61,21.985,21.985,0,0,0,19.191,13.813,25.035,25.035,0,0,0,3.631-13.683A25.538,25.538,0,0,0,38.656,226.821ZM24.931,242.485a.783.783,0,0,1-1.1-.122c-.176-.219-.369-.449-.569-.687a14.528,14.528,0,0,1-1.871-2.586.784.784,0,0,1,1.4-.705,13.466,13.466,0,0,0,1.671,2.283c.208.247.408.487.592.715A.784.784,0,0,1,24.931,242.485Zm8.872,5.128a.782.782,0,0,1-.995.489,21.866,21.866,0,0,1-4.878-2.436.784.784,0,0,1,.855-1.315,20.348,20.348,0,0,0,4.528,2.267A.784.784,0,0,1,33.8,247.613Z" transform="translate(-18.158 -226.821)" fill="#050c42"/>
    </g>
  </g>
</svg>
