<svg xmlns="http://www.w3.org/2000/svg" viewBox="0 0 756 1210.91"><defs><style>.cls-1{isolation:isolate;}.cls-2{fill:#efa878;}.cls-3{fill:#e0782a;}.cls-4{mix-blend-mode:lighten;}.cls-5{fill:#fff;}.cls-6{fill:none;stroke:#fff;stroke-miterlimit:10;stroke-width:2px;}</style></defs><g class="cls-1"><g id="Suelo"><rect class="cls-2" width="756" height="1210.91"/><path class="cls-3" d="M378,177.36h0A215.32,215.32,0,0,1,593.32,392.67v63.72a0,0,0,0,1,0,0H162.68a0,0,0,0,1,0,0V392.67A215.32,215.32,0,0,1,378,177.36Z" transform="translate(756 633.74) rotate(180)"/><path class="cls-3" d="M378,753.79h0A215.32,215.32,0,0,1,593.32,969.1v63.72a0,0,0,0,1,0,0H162.68a0,0,0,0,1,0,0V969.1A215.32,215.32,0,0,1,378,753.79Z"/><g id="Capa_2" data-name="Capa 2" class="cls-4"><g id="Capa_1-2" data-name="Capa 1-2"><path class="cls-5" d="M230.44,1086a7.45,7.45,0,0,0-4.45,6.81h0v51.9a2.57,2.57,0,0,1-2.58,2.57,2.43,2.43,0,0,1-.75-.11,27.75,27.75,0,0,1-19.78-26.56V1119c0-.29,0-.57.06-.86v-.23q.1-1.11.3-2.22l0-.24c.06-.32.12-.64.19-1a.75.75,0,0,0,0-.16c.18-.74.38-1.48.61-2.22l.05-.15c.11-.35.23-.69.36-1h0c.28-.74.58-1.48.9-2.14l.06-.12c.34-.7.69-1.38,1.08-2v0c.18-.3.36-.6.55-.89l.12-.18c.17-.27.36-.55.54-.81l.08-.11c.21-.29.41-.58.63-.86l.2-.25a30.79,30.79,0,0,1,3.08-3.38c.47-.44,1-.85,1.48-1.24a3.09,3.09,0,0,0,.59-4.34,2.61,2.61,0,0,0-.27-.31l-2.27-2.27a3.09,3.09,0,0,0-4.12-.22,37.4,37.4,0,0,0-4.82,4.68h0l-.06.06c-.33.39-.64.74-.95,1.17h0c-.31.38-.6.75-.88,1.15l-.14.2c-.46.79-1,1.62-1.52,2.49l-.13.23c-.51.85-1,1.72-1.41,2.62l-.13.26c-.19.4-.38.82-.56,1.23l-.07.1c-.2.45-.38.91-.55,1.37l-.11.29c-.15.41-.3.82-.44,1.24l-.07.2c-.14.46-.29.94-.43,1.41l-.06.27c-.11.41-.22.81-.32,1.22a1.09,1.09,0,0,1-.08.31c-.1.48-.2,1-.29,1.49v.2c-.1.42-.17.89-.23,1.29a3.48,3.48,0,0,1-.05.36c-.07.5-.13,1-.17,1.49a.43.43,0,0,0,0,.16c-.05.45-.08.9-.1,1.36v1.93h-.07A37.12,37.12,0,0,0,223.88,1157a2.6,2.6,0,0,1,2.14,2.54v14a2.58,2.58,0,0,0,2.56,2.58h4.14a2.59,2.59,0,0,0,2.58-2.58h0v-14a2.57,2.57,0,0,1,2.07-2.5,37,37,0,0,0,19.5-10.26,37.1,37.1,0,0,0-7.42-58.23,38,38,0,0,0-7.57-3.38A16.09,16.09,0,0,0,230.44,1086Zm25.31,46.67a27.8,27.8,0,0,1-17.15,14.53,2.57,2.57,0,0,1-3.2-1.73,2.64,2.64,0,0,1-.1-.74v-45.62a4.46,4.46,0,0,1,6.14-4.1,27.75,27.75,0,0,1,14.89,36.31c-.18.44-.38.87-.58,1.3Z"/><path class="cls-5" d="M294.86,1129.88a13.68,13.68,0,0,1-1.9-.31,20,20,0,0,0-2.45-.15c-.56,0-1.48,0-1.84.51-.51.77-.36,4.3-.36,5.11h5.11c1.13,0,1.69.21,1.69,1.44v2c0,1.48-.36,1.94-1.84,1.94h-5v16.78c0,1.33-.2,2.3-1.79,2.3h-3.22c-1.38,0-1.53-.82-1.53-2v-17h-1.54c-1.12,0-1.23-.86-1.23-1.79v-2.21c0-1.79,1.44-1.44,2.77-1.44v-2c0-2.15,0-4.24,1.32-6,2.1-2.87,5.53-3,8.8-3,1,0,3.58,0,4.24,1a1.89,1.89,0,0,1,.26,1.07v.36C296.39,1127.47,296.39,1129.88,294.86,1129.88Zm10.48,1.53h-2c-1.84,0-2.71-.25-2.71-2.3v-1.79c0-1.63.67-2.25,2.25-2.25h2.41a2,2,0,0,1,2,2,2.45,2.45,0,0,1,0,.27v1.79c.09,1.43-.37,2.3-2,2.3Zm0,28.13h-2c-1.84,0-2.71-.26-2.71-2.3v-20c0-1.63.67-2.25,2.25-2.25h2.41a2,2,0,0,1,2,2,2.45,2.45,0,0,1,0,.27v20c.09,1.43-.37,2.3-2,2.3Z"/><path class="cls-5" d="M323.69,1160.15a49.66,49.66,0,0,1-7.31-.36c-1.53-.2-1.43-.92-1.43-2.35v-.92c0-1.12.1-2.35,1.48-2.35a23.79,23.79,0,0,1,2.66.3c1.74.16,3.53.26,5.32.26s2.56,0,2.56-1.89a2.74,2.74,0,0,0-.31-1.69c-.41-.51-4.91-1.74-5.73-2-1-.35-2-.74-2.91-1.18-2.66-1.33-3.63-2.81-3.63-5.78,0-7.87,5.31-7.77,11.6-7.77,1.28,0,2.51,0,3.79.1,1.84.16,2.55.51,2.55,2.51,0,1.48.11,3.17-1.89,3.17-.87,0-1.79-.16-2.66-.21a34.9,34.9,0,0,0-4.09-.2c-1.94,0-3-.26-3,2a1.55,1.55,0,0,0,.25,1c.51.71,5.37,2,6.45,2.35,4,1.33,5.88,2.66,5.88,7.16C333.31,1159.23,330,1160.15,323.69,1160.15Z"/><path class="cls-5" d="M344.91,1131.41H343c-1.84,0-2.71-.25-2.71-2.3v-1.79c0-1.63.66-2.25,2.25-2.25h2.4a2,2,0,0,1,2,2,2.45,2.45,0,0,1,0,.27v1.79C347,1130.54,346.5,1131.41,344.91,1131.41Zm0,28.13H343c-1.84,0-2.71-.26-2.71-2.3v-20c0-1.63.66-2.25,2.25-2.25h2.4a2,2,0,0,1,2,2,2.45,2.45,0,0,1,0,.27v20C347,1158.67,346.5,1159.54,344.91,1159.54Z"/><path class="cls-5" d="M369.57,1160c-1.44.14-2.9.2-4.35.2-10,0-11.66-3.42-11.66-12.93s1.69-13,11.66-13a39.51,39.51,0,0,1,4.35.25c1.53.16,2.81,0,2.81,1.74v.1c0,1.28,0,4-1.84,4a15.64,15.64,0,0,1-2.05-.2,35.06,35.06,0,0,0-4.8-.41c-2.15,0-2.56.41-3,2.4a24.36,24.36,0,0,0-.41,5.12,40.15,40.15,0,0,0,.2,4.9c.21,2.3,1,2.56,3.23,2.56a39.5,39.5,0,0,0,4.85-.41,12.21,12.21,0,0,1,2-.2,1.37,1.37,0,0,1,1.22.51c.41.41.62,2.86.62,3.48C372.37,1159.9,371.14,1159.79,369.57,1160Z"/><path class="cls-5" d="M396.81,1159.54h-2.87c-1.17,0-1.48-.77-1.48-1.84a13.93,13.93,0,0,1-7.56,2.5c-5,0-7.32-2.71-7.32-7.62,0-5.57,3.33-7.46,8.34-8a42.7,42.7,0,0,1,6.49-.41c0-2.05.31-4.91-2.56-4.91a32.14,32.14,0,0,0-7.36,1.07,5.59,5.59,0,0,1-1.23.15c-1.78,0-1.48-1.79-1.48-3.06a1.88,1.88,0,0,1,1.43-2.15,34.88,34.88,0,0,1,8.39-1c2.45,0,5.57.41,7.31,2.35,2,2.25,1.94,5.42,1.94,8.28v12.43C398.85,1158.82,398.34,1159.54,396.81,1159.54Zm-4.35-10.79c-.82,0-1.68-.1-2.5-.1a21.7,21.7,0,0,0-3.22.15c-2.15.31-3,1-3,3.22,0,1.23.2,3.43,1.89,3.43a11.72,11.72,0,0,0,6.85-2.56Z"/><path class="cls-5" d="M410.36,1159.54h-1.79c-1.84,0-2.71-.26-2.71-2.3v-30.68c0-1.64.66-2.2,2.25-2.2h2.3a1.94,1.94,0,0,1,2,1.86,2,2,0,0,1,0,.34v30.68C412.35,1158.67,411.94,1159.54,410.36,1159.54Z"/><path class="cls-5" d="M434.85,1160c-1.44.14-2.9.2-4.35.2-10,0-11.65-3.42-11.65-12.93s1.68-13,11.65-13a39.51,39.51,0,0,1,4.35.25c1.53.16,2.81,0,2.81,1.74v.1c0,1.28,0,4-1.84,4a14.89,14.89,0,0,1-2-.2,36.87,36.87,0,0,0-4.81-.41c-2.15,0-2.56.41-3,2.4a25,25,0,0,0-.41,5.12c0,1.63.06,3.27.21,4.9.2,2.3,1,2.56,3.22,2.56a39.49,39.49,0,0,0,4.86-.41,12.21,12.21,0,0,1,2-.2,1.39,1.39,0,0,1,1.23.51c.41.41.61,2.86.61,3.48C437.66,1159.9,436.44,1159.79,434.85,1160Z"/><path class="cls-5" d="M455.05,1160.2c-8.54,0-11.76-4.91-11.76-12.93s3.17-13,11.76-13,11.71,4.91,11.71,13S463.64,1160.2,455.05,1160.2Zm4.19-18.87c-.92-1.68-2.46-1.63-4.19-1.63s-3.28,0-4.2,1.63-1,4.15-1,5.94.1,4.34,1,5.93,2.51,1.58,4.2,1.58,3.27,0,4.19-1.58.92-4.2.92-5.93S460.11,1142.92,459.24,1141.33Z"/><path class="cls-5" d="M491.3,1159.54h-2.87c-1.17,0-1.48-.77-1.48-1.84a14,14,0,0,1-7.57,2.5c-5,0-7.31-2.71-7.31-7.62,0-5.57,3.33-7.46,8.34-8a42.7,42.7,0,0,1,6.49-.41c0-2.05.31-4.91-2.56-4.91a32.14,32.14,0,0,0-7.36,1.07,5.59,5.59,0,0,1-1.23.15c-1.79,0-1.48-1.79-1.48-3.06a1.88,1.88,0,0,1,1.43-2.15,34.88,34.88,0,0,1,8.39-1c2.45,0,5.57.41,7.31,2.35,2,2.25,1.94,5.42,1.94,8.28v12.43C493.34,1158.82,492.83,1159.54,491.3,1159.54ZM487,1148.75c-.82,0-1.69-.1-2.5-.1a21.7,21.7,0,0,0-3.22.15c-2.15.31-3,1-3,3.22,0,1.23.2,3.43,1.89,3.43a11.72,11.72,0,0,0,6.85-2.56Z"/><path class="cls-5" d="M515.57,1160c-1.44.14-2.9.2-4.35.2-10,0-11.66-3.42-11.66-12.93s1.69-13,11.66-13a39.51,39.51,0,0,1,4.35.25c1.53.16,2.81,0,2.81,1.74v.1c0,1.28,0,4-1.84,4a15.64,15.64,0,0,1-2-.2,35.21,35.21,0,0,0-4.81-.41c-2.14,0-2.55.41-3,2.4a24.36,24.36,0,0,0-.41,5.12c0,1.63.05,3.27.2,4.9.21,2.3,1,2.56,3.22,2.56a39.49,39.49,0,0,0,4.86-.41,12.21,12.21,0,0,1,2-.2,1.4,1.4,0,0,1,1.22.51c.41.41.62,2.86.62,3.48C518.4,1159.9,517.17,1159.79,515.57,1160Z"/><path class="cls-5" d="M543.3,1159.54h-2.73c-1.48,0-1.84-1-1.84-2.3v-13.09c0-.72.1-3.53-.36-4a2.12,2.12,0,0,0-1.64-.41,11,11,0,0,0-6.23,2.35v15.19c0,1.43-.41,2.3-2,2.3h-2.71c-1.38,0-1.84-.77-1.84-2v-31c0-1.64.66-2.2,2.25-2.2h2.37a1.94,1.94,0,0,1,2,1.86,2,2,0,0,1,0,.34V1136a16,16,0,0,1,6.9-1.74c4.75,0,7.87,2.35,7.87,7.26v15.7C545.29,1158.67,544.88,1159.54,543.3,1159.54Z"/></g></g></g><g id="Lineas"><rect class="cls-6" x="119.29" y="177.05" width="517.42" height="855.77"/><line class="cls-6" x1="119.29" y1="605.42" x2="636.71" y2="605.42"/><circle class="cls-6" cx="378" cy="605.42" r="65.71"/><path class="cls-6" d="M378,753.79h0A215.32,215.32,0,0,1,593.32,969.1v63.72a0,0,0,0,1,0,0H162.68a0,0,0,0,1,0,0V969.1A215.32,215.32,0,0,1,378,753.79Z"/><rect class="cls-6" x="311.84" y="839.6" width="132.31" height="193.22"/><path class="cls-6" d="M378,773.2h0a66.16,66.16,0,0,1,66.16,66.16v.24a0,0,0,0,1,0,0H311.84a0,0,0,0,1,0,0v-.24A66.16,66.16,0,0,1,378,773.2Z"/><line class="cls-6" x1="300.17" y1="859.25" x2="311.84" y2="859.25"/><line class="cls-6" x1="300.17" y1="888.54" x2="311.84" y2="888.54"/><line class="cls-6" x1="300.17" y1="917.84" x2="311.84" y2="917.84"/><line class="cls-6" x1="300.17" y1="947.13" x2="311.84" y2="947.13"/><line class="cls-6" x1="444.16" y1="859.25" x2="455.83" y2="859.25"/><line class="cls-6" x1="444.16" y1="888.54" x2="455.83" y2="888.54"/><line class="cls-6" x1="444.16" y1="917.84" x2="455.83" y2="917.84"/><line class="cls-6" x1="444.16" y1="947.13" x2="455.83" y2="947.13"/><line class="cls-6" x1="344.31" y1="1015.61" x2="411.69" y2="1015.61"/><circle class="cls-6" cx="378" cy="992.91" r="15.54"/><line class="cls-6" x1="378" y1="1016.34" x2="378" y2="1008.45"/><path class="cls-6" d="M378,177.36h0A215.32,215.32,0,0,1,593.32,392.67v63.72a0,0,0,0,1,0,0H162.68a0,0,0,0,1,0,0V392.67A215.32,215.32,0,0,1,378,177.36Z" transform="translate(756 633.74) rotate(180)"/><rect class="cls-6" x="311.84" y="177.36" width="132.31" height="193.22" transform="translate(756 547.93) rotate(180)"/><path class="cls-6" d="M378,370.58h0a66.16,66.16,0,0,1,66.16,66.16V437a0,0,0,0,1,0,0H311.84a0,0,0,0,1,0,0v-.24A66.16,66.16,0,0,1,378,370.58Z" transform="translate(756 807.56) rotate(180)"/><line class="cls-6" x1="455.83" y1="350.93" x2="444.16" y2="350.93"/><line class="cls-6" x1="455.83" y1="321.63" x2="444.16" y2="321.63"/><line class="cls-6" x1="455.83" y1="292.34" x2="444.16" y2="292.34"/><line class="cls-6" x1="455.83" y1="263.04" x2="444.16" y2="263.04"/><line class="cls-6" x1="311.84" y1="350.93" x2="300.17" y2="350.93"/><line class="cls-6" x1="311.84" y1="321.63" x2="300.17" y2="321.63"/><line class="cls-6" x1="311.84" y1="292.34" x2="300.17" y2="292.34"/><line class="cls-6" x1="311.84" y1="263.04" x2="300.17" y2="263.04"/><line class="cls-6" x1="411.69" y1="194.57" x2="344.31" y2="194.57"/><circle class="cls-6" cx="378" cy="217.27" r="15.54"/><line class="cls-6" x1="378" y1="193.83" x2="378" y2="201.73"/></g></g></svg>