<?xml version="1.0" encoding="utf-8"?>
<!-- Generator: Adobe Illustrator 25.4.1, SVG Export Plug-In . SVG Version: 6.00 Build 0)  -->
<svg version="1.1" id="Capa_1" xmlns="http://www.w3.org/2000/svg" xmlns:xlink="http://www.w3.org/1999/xlink" x="0px" y="0px"
	 viewBox="0 0 110.8 118.5" style="enable-background:new 0 0 110.8 118.5;" xml:space="preserve">
<style type="text/css">
	.st0{fill:#FF3737;}
	.st1{fill:none;}
	.st2{fill:none;stroke:#FF3737;stroke-width:2.3971;stroke-miterlimit:10.0001;}
	.st3{fill:none;stroke:#FF3737;stroke-width:2.3971;stroke-miterlimit:10;}
</style>
<g>
	<g>
		<path class="st0" d="M84.8,54.2L84.8,54.2L84.8,54.2z"/>
		<path class="st0" d="M99.1,29c-2.9,0-5.4,1-7.5,3.1c0,0.2-1.6,2-5.1,6c-0.6,0.6-1.5,0.2-1.5-0.6v-2.3c0-1.7,0.2-3.4,0.7-5.1
			L91,10.4C92,7.1,89.4,4,86.2,4c-2.3,0-4.3,1.6-4.9,3.7l-4.5,15.7V5.6c0-2.8-2.4-5.1-5.1-5.1c-2.8,0-5.1,2.4-5.1,5.1V22L62.9,8.6
			c-0.8-2.5-3.6-4.3-6.2-3.5c-2.5,0.8-4.3,3.6-3.5,6.2l3.7,14L53,18.8c-1.2-2.3-4.2-3.1-6.2-1.7c-2.1,1.2-3.1,4.2-1.7,6.2l5.2,8.9
			c2,3.4,2.9,3.2,2.9,7.2l1.5,0.3c0-4.1-0.8-4.5-2.8-8.2l-5.2-8.9c-0.1-0.5-0.3-1-0.3-1.4c0-2.8,3.7-3.7,5.1-1.4l7.4,12.6
			c0.6,0.7,2,0.1,1.7-0.8c-6-22.7-5.7-20.9-5.7-21.5c0-2.3,2.8-3.8,4.9-2.7c0.7,0.5,1.3,1.2,1.5,2l5.4,20.1c0.2,1.2,1.7,0.9,1.7-0.2
			V5.7c0-0.9,0.3-1.7,0.9-2.3c2-2,5.4-0.6,5.4,2.3v24.5c0,1,1.4,1.2,1.7,0.2l6.2-22.3c0.5-1.5,1.7-2.3,3.1-2.3
			c2.2,0,3.7,2.1,3.1,4.1c-6.7,24.9-6,22.5-6,22.7v2.2v2.5c-0.4,3.2,3.1,3.7,4.6,2l5.1-5.8c1.7-1.6,4.1-2.5,6.4-2.5
			c1.9,0,3,2.3,1.5,4.1L83.4,53c-1.5,1.5-3.3,2.6-5.2,3.4c-0.2,0.1-0.5,0.2-0.7,0.2c1.3,0.6,0.9,1.1,1.5,1.4
			c2.1-0.8,4.1-2.1,5.8-3.8c0,0,0.6-0.6,17.2-18.1C104.8,33.5,102.8,29,99.1,29z"/>
	</g>
	<path class="st0" d="M80.1,38.4c-5.8,0.8-10.1,3.3-11.8,8.5c0.4,0.6,1.4,0.9,2,1.4c1.2-5.1,4.6-7.4,10-8.1c0.6,0,0.8-0.3,0.8-0.9
		S80.6,38.4,80.1,38.4z"/>
</g>
<path class="st1" d="M47.3,38.4c-22,0-39.8,17.8-39.8,39.8S25.3,118,47.3,118s39.8-17.8,39.8-39.8S69.3,38.4,47.3,38.4z M68.2,46.8
	c1.2,2.3,2.3,3.5,4.6,4.6C70.6,50.3,69.4,49.1,68.2,46.8z"/>
<g>
	<path class="st2" d="M79.2,56.7c-2.4-3.5-5.4-6.7-8.8-9.2c-5.6-4.2-12.4-6.9-19.9-7.6C29.4,38.1,10.8,53.8,9.1,75
		c-1.8,21.1,14,39.7,35.1,41.5s39.7-14,41.5-35.1C86.4,72.2,83.9,63.7,79.2,56.7z"/>
	<path class="st3" d="M75.9,52.4c0,0-21.5,23.8,0,51.6"/>
	<path class="st3" d="M18.8,52.4c0,0,21.5,23.8,0,51.6"/>
	<line class="st3" x1="47.3" y1="39.7" x2="47.3" y2="116.5"/>
	<line class="st3" x1="8.7" y1="78.2" x2="85.7" y2="78.2"/>
</g>
</svg>
