<?xml version="1.0" encoding="utf-8"?>
<!-- Generator: Adobe Illustrator 25.4.1, SVG Export Plug-In . SVG Version: 6.00 Build 0)  -->
<svg version="1.1" id="Capa_1" xmlns="http://www.w3.org/2000/svg" xmlns:xlink="http://www.w3.org/1999/xlink" x="0px" y="0px"
	 viewBox="0 0 110.3 107.4" style="enable-background:new 0 0 110.3 107.4;" xml:space="preserve">
<style type="text/css">
	.st0{fill:none;stroke:#FF3737;stroke-width:1.5;stroke-miterlimit:10;}
	.st1{fill:none;stroke:#FF3737;stroke-width:1.5;stroke-linecap:round;stroke-linejoin:round;stroke-miterlimit:10;}
	.st2{fill:#00E9C5;}
	.st3{fill:none;stroke:#00E9C5;stroke-width:1.5;stroke-miterlimit:10;}
	.st4{fill:none;stroke:#00E9C5;stroke-width:1.5;stroke-linecap:round;stroke-linejoin:round;stroke-miterlimit:10;}
	.st5{fill:none;stroke:#00E9C5;stroke-miterlimit:10;}
</style>
<path class="st0" d="M15.1,53.4l7.6-8.5c2.2-2.8,4.2-2.5,4.8-0.6"/>
<path class="st1" d="M15.1,53.4c-2,2.2-2.2,2.5-4.8,4.4c-1.1,1.1-1.7,2.5-1.4,4.1l2.5,11l1.1,18.7c0,0.5-0.2,1-0.6,1.4l-10.3,8.3
	c0,0-0.8,5,4.2,4.7l11.7-8.9c0.8-0.6,1.3-1.6,1.3-2.6L19,83.1l2.2-0.8l3.1,5.3c0.7,1.2,0.8,2.6,0.3,3.8l-4.8,12.3
	c0.3,1.9,2.2,3.3,4.2,2.8c0.6,0,0.8-0.3,1.4-0.6l6.4-15.3c0.5-1.1,0.4-2.3-0.1-3.4L20.4,63.3l11.8-16.8c2.2-3.9-2.2-5.5-4.5-2.8
	L14.8,59.2"/>
<ellipse class="st0" cx="7.2" cy="47.6" rx="6.5" ry="6.3"/>
<path class="st2" d="M64.1,34.5h8.4c0.6,0,0.8-0.3,0.8-0.8c0-0.6-0.3-0.8-0.8-0.8h-8.1l-0.8-1.7c-0.1,0-0.1-0.1-0.2-0.1
	C63.5,32.8,63.2,34.5,64.1,34.5z"/>
<path class="st2" d="M60.8,0.1c-1.4,0-2.5,1.1-2.5,2.5v23.1l3.9,1.9c0.2,0.1-0.1-0.2,0,0c-0.1-0.7,0,0,0-0.2l-2.3-1.7l0.2-23.2
	l0.6-0.7h1h16.7c0-0.6,0-1.1,0-1.7C78.4,0.1,60.8,0.1,60.8,0.1z"/>
<path class="st2" d="M107.8,0.1H78.6c0,0.6,0,1.1,0,1.7h29c0.6,0,0.8,0.6,0.8,0.8v29.8c0,0.6-0.6,1.1-0.8,1.1H95.9
	c-0.6,0-0.8,0.3-0.8,0.8c0,0.6,0.3,0.8,0.8,0.8h11.8c1.4,0,2.5-1.1,2.5-2.5v-30C110.3,1.2,109.2,0.1,107.8,0.1z"/>
<path class="st2" d="M60.3,2.7"/>
<path class="st2" d="M95.4,31H96c0.6,0,1.4-0.6,1.4-1.1s-0.6-1.4-1.1-1.4l0,0H72.9c-0.6,0-1.4,0.6-1.4,1.1s0.6,1.4,1.1,1.4l0,0h0.8
	c1.4,5.8,1.7,11.8,0.8,17.6v0.3l0.3,0.3c0.8,0.8,2,1.4,3.4,1.4c1.1,0,2-0.3,2.8-0.8c0.8,0.8,2.2,1.4,3.4,1.4h0.3
	c1.4,0,2.8-0.6,3.9-1.4c0.8,0.6,1.7,0.8,2.8,0.8c1.1,0,2.5-0.6,3.4-1.4l0.3-0.3v-0.3C93.8,42.8,94.1,36.7,95.4,31z M87.2,34.8
	c0,1.4-0.3,2.8-0.3,4.1h-5.6c0-1.4,0-2.8-0.3-4.1H87.2z M81.4,33.2c0-0.6,0-1.4-0.3-2.2h6.5c0,0.6-0.3,1.4-0.3,2.2H81.4z M92.7,38.9
	h-3.6c0-1.4,0-2.8,0.3-4.1h3.9C92.7,36.2,92.7,37.6,92.7,38.9L92.7,38.9z M80.1,38.9h-3.6c0-1.4-0.3-2.8-0.6-4.1h3.9
	C80.1,36.2,80.1,37.6,80.1,38.9z M76.3,40.6h3.6c0,1.4,0,2.8,0,4.1h-3.6C76.3,43.4,76.3,42,76.3,40.6L76.3,40.6z M81.7,40.6h5.6
	c0,1.4,0,2.8,0,4.1h-5.6C81.7,43.4,81.7,42,81.7,40.6L81.7,40.6z M88.8,40.6h3.6c0,1.4,0,2.8,0,4.1h-3.6
	C88.8,43.4,88.8,42,88.8,40.6L88.8,40.6z M93.2,33.2H89c0-0.6,0-1.4,0.3-2.2h4.5C93.4,31.8,93.4,32.6,93.2,33.2z M79.4,31
	c0,0.6,0.3,1.4,0.3,2.2h-4.2c0-0.6-0.3-1.4-0.6-2.2C75,31,79.4,31,79.4,31z M75.8,48.6c0-0.8,0.3-1.4,0.3-2.2h3.7c0,0.8,0,1.4,0,2.2
	C78.8,49.4,77.2,49.4,75.8,48.6L75.8,48.6z M83.9,49.7c-0.8,0-2-0.6-2.5-1.1c0-0.8,0-1.4,0-2.2H87c0,0.8,0,1.7,0,2.2
	C86.2,49.1,85.1,49.7,83.9,49.7L83.9,49.7z M88.9,48.3c0-0.6,0-1.4,0-2.2h3.6c0,0.8,0.3,1.7,0.3,2.2C91.8,49.4,90.2,49.4,88.9,48.3
	L88.9,48.3z"/>
<path class="st2" d="M95.9,26.5c0.6,0,0.8-0.3,0.8-0.8l0,0L96.3,18c0-1.7-1-3.3-2.7-3.3H74.9c-1.7,0-3.1,1.4-3.1,3v8
	c0,0.6,0.3,0.8,0.8,0.8c0.6,0,0.8-0.3,0.8-0.8v-8c0-0.8,0.6-1.4,1.4-1.4H94c0.8,0,1.4,0.6,1.4,1.4l0.8,7.8
	C95.9,26.1,95.4,26.5,95.9,26.5z"/>
<path class="st3" d="M52.5,40.3l-10.1-5.2c-3.1-1.7-5.1-0.8-4.5,1.4"/>
<path class="st4" d="M52.5,40.3c2.8,1.4,2.8,1.4,5.9,2.5c1.4,0.6,2.5,1.7,2.8,3.3L63,57.4l5.7,17.4c0.3,0.8,0.9,1.5,1.8,1.7
	l12.1,3.7c1.1,1.7,0.8,4.1-0.8,5.2c-0.3,0.3-0.8,0.6-1.4,0.6l-14.6-4.3c-0.7-0.2-1.3-0.8-1.6-1.5l-4.6-11h-2.5l-1.2,7
	c-0.1,0.8,0.1,1.6,0.7,2.2l9.8,10.4c0,0,0.6,5-4.5,4.1L50,80.8c-0.7-0.7-1-1.6-0.9-2.6l2.1-26.6L33.8,40c-3.4-2.8,0-5.8,3.1-4.1
	l18,9.6"/>
<ellipse class="st3" cx="57.5" cy="32.1" rx="6.5" ry="6.3"/>
<path class="st5" d="M36,35c-3.4,0.6-6.7-1.7-7.3-5s1.7-6.6,5.1-7.2s6.7,1.7,7.3,5S39.2,34.5,36,35"/>
<path class="st5" d="M30.9,33.9c2.8-5-1.4-8.3-1.4-8.3"/>
<path class="st5" d="M40.2,32.3C36,28.4,38.8,24,38.8,24"/>
<line class="st5" x1="36" y1="35" x2="33.7" y2="22.9"/>
<line class="st5" x1="28.6" y1="30.1" x2="41" y2="27.9"/>
<path class="st2" d="M61.5,0.1c-1.7,0-3.1,1.4-3.1,3v8c0,0.6,0.3,0.8,0.8,0.8s0.2,0,0.2-0.6L60,3.1c0-0.8,0.6-1.4,1.4-1.4h17.1
	c0-0.6,0-1.1,0-1.7H61.5V0.1z"/>
<path class="st2" d="M72.4,25.6l0.8-7.8c0-0.8,0.6-1.4,1.4-1.4h19.1c0.8,0,1.4,0.6,1.4,1.4v8c0,0.6,0.3,0.8,0.8,0.8
	c0.6,0,0.8-0.3,0.8-0.8v-8c0-1.7-1.4-3-3.1-3H74.9c-1.7,0-2.7,1.7-2.7,3.3l-0.4,7.7l0,0c0,0.6,0.3,0.8,0.8,0.8S72.8,26.1,72.4,25.6z
	"/>
</svg>
