<?xml version="1.0" encoding="utf-8"?>
<!-- Generator: Adobe Illustrator 25.4.1, SVG Export Plug-In . SVG Version: 6.00 Build 0)  -->
<svg version="1.1" id="Capa_1" xmlns="http://www.w3.org/2000/svg" xmlns:xlink="http://www.w3.org/1999/xlink" x="0px" y="0px"
	 viewBox="0 0 39.8 25.7" style="enable-background:new 0 0 39.8 25.7;" xml:space="preserve">
<style type="text/css">
	.st0{fill:#FF3737;}
</style>
<path class="st0" d="M0.8,11.3c-0.4,0.4-0.7,0.4-0.7,0.7c-0.3,0.7,0,2.1,0.7,2.4l9.7,5.5l9.7,5.5c0.3,0.3,0.7,0.3,1,0.3
	c1,0,1.7-0.7,1.7-1.7v-5.9h15.2l0,0c1,0,1.7-0.7,1.7-1.7V9.1l0,0c0-1-0.7-1.7-1.7-1.7H22.9V1.5c0,0-0.3-0.4-0.3-0.7
	c-0.7-0.7-1.7-1-2.4-0.7L10.5,6L0.8,11.3z"/>
</svg>
