<?xml version="1.0" encoding="utf-8"?>
<!-- Generator: Adobe Illustrator 25.4.1, SVG Export Plug-In . SVG Version: 6.00 Build 0)  -->
<svg version="1.1" id="Capa_1" xmlns="http://www.w3.org/2000/svg" xmlns:xlink="http://www.w3.org/1999/xlink" x="0px" y="0px"
	 viewBox="0 0 38.3 38.4" style="enable-background:new 0 0 38.3 38.4;" xml:space="preserve">
<style type="text/css">
	.st0{fill:#00E9C5;}
</style>
<g id="Iconos">
	<path class="st0" d="M6.3,8c0.4,0.1,0.8,0.2,1.2,0.2c1.8,0,3.4-1.2,3.9-2.9c0.6-2.2-0.6-4.4-2.8-5.1C8.2,0.1,7.8,0,7.4,0
		C5.8,0,4.1,1.2,3.6,2.9C3,5,4.2,7.3,6.3,8z M4.6,3.2C5,1.9,6.1,1.1,7.4,1.1c0.3,0,0.6,0,0.8,0.1c1.6,0.6,2.4,2.3,1.8,3.9
		C9.7,6.2,8.7,7,7.5,7.1c-0.3,0-0.6,0-0.8-0.1C5.1,6.4,4.2,4.8,4.6,3.2z"/>
	<path class="st0" d="M34.4,6c0.5-0.9,0.6-2.1,0.3-3.1C34.2,1.2,32.6,0,30.7,0c-0.4,0-0.8,0.1-1.2,0.2c-2.2,0.6-3.4,2.9-2.8,5.1
		c0.5,1.7,2.1,2.9,3.9,2.9c0.4,0,0.8-0.1,1.2-0.2C33,7.6,33.9,6.9,34.4,6z M31.6,6.9C31.3,7,31,7,30.8,7c-1.7-0.1-2.9-1.6-2.8-3.2
		c0.1-1.2,0.8-2.2,1.9-2.6c0.3-0.1,0.6-0.1,0.8-0.1c1.7,0.1,2.9,1.5,2.8,3.2C33.5,5.5,32.8,6.5,31.6,6.9L31.6,6.9z"/>
	<path class="st0" d="M20.2,12.6c-2.3-0.6-4.7,0.8-5.3,3.2c-0.2,1-0.1,2,0.3,2.9c0.5,1,1.3,1.8,2.4,2.2c0.1,0,0.2,0.1,0.4,0.1
		l0.2,0.1l0.6,0.1h0.5c1,0,2-0.4,2.8-1.1c0.6-0.6,1.1-1.3,1.3-2.1l0.1-0.4v-0.3v-0.2c0-0.1,0-0.2,0-0.4c0-1-0.4-2-1.1-2.8
		C21.9,13.2,21,12.8,20.2,12.6z M22.5,17.8c-0.1,0.5-0.4,1-0.8,1.4c-0.2-0.5-0.3-1-0.3-1.6L22.5,17.8z M16.8,16.8
		c-0.1,0.5-0.4,1-0.8,1.4c-0.2-0.5-0.3-1-0.3-1.6L16.8,16.8z M15.8,15.8c0.1-0.5,0.4-1,0.8-1.4c0.2,0.5,0.3,1,0.3,1.6L15.8,15.8z
		 M17.1,13.8c0.6-0.4,1.4-0.6,2.1-0.6l-0.5,3L17.5,16c0-0.4,0-0.7-0.1-1.1C17.5,14.5,17.4,14.2,17.1,13.8L17.1,13.8z M18.6,17.1
		l-0.5,3c-0.7-0.2-1.4-0.6-1.8-1.2c0.6-0.5,1-1.2,1.1-2L18.6,17.1z M19.6,16.4l0.5-3c0.7,0.2,1.4,0.6,1.8,1.2
		c-0.5,0.6-0.9,1.2-1.1,2L19.6,16.4z M19.5,17.2l1.1,0.2c0,0.8,0.1,1.6,0.5,2.3c-0.6,0.4-1.4,0.6-2.1,0.6L19.5,17.2z M22.6,16.9
		l-1.1-0.2c0.1-0.5,0.4-1,0.8-1.4C22.5,15.8,22.6,16.4,22.6,16.9L22.6,16.9z"/>
	<path class="st0" d="M10.6,13.8l3.5,2c0-0.3,0.1-0.6,0.2-0.8c0,0,0,0,0.1-0.1l-4.1-2.3c-0.2-0.1-0.3-0.1-0.5,0S9.6,12.9,9.6,13v1.5
		l-2.2-1.4L6.9,14c5,3.1,6.8,4.3,7.5,4.6c-0.2-0.4-0.3-0.9-0.3-1.3l-3.4-2.1L10.6,13.8z"/>
	<path class="st0" d="M14.1,20.6c0.4,0,0.9-0.1,1.2-0.4c-0.2-0.3-0.4-0.5-0.6-0.8c-0.3,0.4-0.9,0.3-1.2,0.2c-3.4-1.9-7-4.1-8.6-5.3
		c-0.8-0.6-1-1.6-0.5-2.4c0.3-0.4,0.7-0.7,1.2-0.9c0.9-0.4,1.8-0.7,2.8-0.7c0.7,0,1.4,0.2,2,0.5c0,0,2.6,1.5,4.7,2.9
		c0.2-0.3,0.5-0.5,0.8-0.7c-2.1-1.2-4.6-2.7-5-3C8.6,8.6,6,9.7,5.2,10.1c-1.5,0.7-2.3,2.3-2,3.9c0.1,0.2,0.2,0.4,0.4,0.5
		c0.4,0.4,0.5,0.9,0.5,1.4l-0.1,2.9c0,0,0,0.3-0.1,0.6c-0.2,1.6-0.7,6.3-1.1,8.2c0,0.1,0,0.2-0.1,0.2c-0.6,1.7-2.6,7.3-2.6,7.3
		c-0.2,0.5-0.2,1.1,0,1.6s0.7,0.8,1.2,1C1.9,37.9,3,38,3.8,36c0-0.1,2.2-7.4,2.8-9.5c0,0,0.5-1.4,1.7-1.3c1.2,0.1,1.4,0.9,1.5,2.1
		c0.1,2.1,0.2,9.4,0.2,9.5c0,0.4,0.1,0.8,0.4,1.1c0.4,0.4,0.9,0.5,1.5,0.5c0.8,0,1.8-0.6,1.8-2.4c0-0.3,0-6.4-0.3-8.7V27
		c-0.1-0.8-0.2-1.5-0.4-2.3c0-0.1,0-0.2-0.1-0.2l-1.9-5.3l2.1,1.2C13.5,20.5,13.9,20.6,14.1,20.6z M12.1,24.7
		c0.1,0.1,0.1,0.3,0.1,0.4c0,0.5,0.2,1.7,0.3,2.1v0.3c0.3,2.2,0.3,8.5,0.3,8.5c0,0.5-0.1,1.4-0.8,1.4c-0.3,0-0.5-0.1-0.7-0.2
		c-0.1-0.1-0.1-0.2-0.1-0.4c0,0-0.1-7.4-0.2-9.5c0-1-0.1-2.9-2.4-3.1c-1.3,0-2.4,0.8-2.8,2.1c-0.6,2.2-2.8,9.4-2.8,9.5
		c-0.3,0.9-0.8,1.2-1.2,1.1c-0.3-0.1-0.4-0.2-0.6-0.4C1,36.3,0.9,36,1.1,35.6l0.1-0.2c0.7-1.3,2.2-6.7,2.4-7.4c0-0.1,0-0.1,0-0.2
		c0.4-2,1-6.7,1.2-8.4l0.1-0.6l0,0c0.1-1.4,1.7-2.2,2.8-1.5c0.7,0.4,1.4,0.8,2.1,1.3l0,0L12.1,24.7z"/>
	<path class="st0" d="M28.4,12.5c-0.2-0.1-0.3-0.1-0.5,0l-4.1,2.3c0.1,0.3,0.2,0.7,0.3,1l3.5-2V15l-3.4,2.2v0.2L24,18.6l0.1-0.6
		L24,18.5c0,0.1,0,0,0,0.1c0.7-0.4,2.5-1.5,7.5-4.6l-0.5-0.9l-2.2,1.4V13C28.6,12.8,28.6,12.6,28.4,12.5z"/>
	<path class="st0" d="M38.2,35.1c0,0-2.1-5.7-2.5-7.6s-1-6.7-1.2-8.3c0-0.3,0-0.5-0.1-0.6l-0.2-3.1c0-0.4,0.1-0.9,0.4-1.2
		c0.1-0.2,0.3-0.3,0.4-0.5c0.3-1.6-0.5-3.2-2-3.9c-0.8-0.4-3.4-1.6-5.7-0.1c-0.4,0.3-2.9,1.8-5,3c0.2,0.2,0.5,0.6,0.7,0.7l0,0
		c2.2-1.3,4.8-2.8,4.8-2.9c0.6-0.4,1.3-0.6,2-0.5c1,0,1.9,0.3,2.8,0.7c0.7,0.3,1.2,0.9,1.4,1.6c0.2,0.6-0.1,1.3-0.6,1.6
		c-1.5,1.1-5.3,3.4-8.8,5.4c-0.4,0.2-0.8,0.1-1.1-0.1c-0.2,0.3-0.4,0.6-0.6,0.8c0.3,0.3,0.7,0.4,1.2,0.4c0.3,0,0.7-0.1,1-0.2
		l2.1-1.2l-1.7,4.6c-0.2,0.6-0.4,1.2-0.5,1.9c-0.1,0.4-0.1,0.9-0.1,1.4v0.3c-0.3,2.3-0.3,8.4-0.3,8.7c0,1.8,1,2.4,1.8,2.4
		c0.2,0,0.5,0,0.7-0.1c0.6-0.2,1.1-0.6,1.2-1.2c0-0.2,0.1-0.3,0.1-0.5c0-0.1,0-7.1,0.1-9.3c0.1-1.3,0.2-2,1.5-2.1
		c1.3-0.1,1.7,1.3,1.7,1.3c0.6,2.2,2.8,9.5,2.8,9.5c0.8,2,1.9,1.9,2.5,1.7c0.5-0.2,0.9-0.5,1.2-1C38.3,36,38.3,35.5,38.2,35.1z
		 M37.1,36.7c-0.2,0.1-0.2,0.1-0.5,0.2c-0.5,0-0.8-0.3-1.2-1.2c0,0-2.2-7.3-2.8-9.5c-0.3-1.2-1.5-2.1-2.8-2.1
		c-2.3,0.1-2.3,2-2.4,3.1c-0.1,2.1-0.2,9.5-0.2,9.5c0,0.3-0.1,0.4-0.2,0.5c-0.2,0.2-0.5,0.2-0.9,0.2c-0.7,0-0.7-1-0.7-1.5
		c0-0.1,0-6.3,0.3-8.5v-0.3c0-0.5,0.2-2.1,0.3-2.3l2.5-6.4l0,0c0.8-0.5,1.7-1,2.5-1.5c1-0.6,2.3,0,2.4,1.2l0,0.5l0.1,0.6
		c0.2,1.6,0.7,6.6,1.2,8.5c0,0.1,2,6,2.5,7.5l0.2,0.5c0,0.3,0.1,0.4,0,0.7L37.1,36.7z"/>
</g>
</svg>
