<?xml version="1.0" encoding="utf-8"?>
<!-- Generator: Adobe Illustrator 25.4.1, SVG Export Plug-In . SVG Version: 6.00 Build 0)  -->
<svg version="1.1" id="Capa_1" xmlns="http://www.w3.org/2000/svg" xmlns:xlink="http://www.w3.org/1999/xlink" x="0px" y="0px"
	 viewBox="0 0 50 50" style="enable-background:new 0 0 50 50;" xml:space="preserve">
<style type="text/css">
	.st0{fill:#00E9C5;}
</style>
<g id="Iconos">
	<path class="st0" d="M23.4,40.2c-4.8,1.6-9.9-1-11.5-5.8c-1.6-4.8,1-9.9,5.8-11.5s9.9,1,11.5,5.8v0.1l0,0
		C30.7,33.6,28.1,38.6,23.4,40.2z M18.5,24.6c-3.8,1.2-6,5.3-4.8,9.1c1.2,3.8,5.3,6,9.1,4.8c3.8-1.2,6-5.3,4.8-9.1l0,0
		C26.3,25.6,22.3,23.4,18.5,24.6L18.5,24.6z"/>
	<path class="st0" d="M45.2,6.6l-6.1,1.9c-0.4,0.1-0.7,0.7-0.6,1.2c0.1,0.4,0.6,0.7,1.2,0.6l0,0l0,0l5.3-1.6l2.5,8l-13.3,6.7
		c-0.4,0.3-0.7,0.7-0.4,1.3l0,0l0,0c3.7,7.2,0.9,15.9-6.3,19.6S11.4,45.2,7.8,38s-0.9-15.8,6.1-19.6c0.7-0.4,1.6-0.7,2.3-1l3.7-1.2
		l0.7,2.5c0.1,0.4,0.7,0.7,1.2,0.6l4.7-1.5c0.6-0.1,0.9-0.7,0.7-1.2v-0.1l-0.9-2.3l5.1-1.6c0.4-0.1,0.7-0.6,0.6-1.2l0,0
		c-0.1-0.4-0.6-0.9-1.2-0.7l0,0l-6,2c-0.4,0.1-0.7,0.7-0.6,1.2l0,0l0.7,2.5l-2.9,0.9l-0.7-2.5c-0.1-0.4-0.7-0.7-1.2-0.6l-4.7,1.5
		c-3.2,1-6,2.9-8,5.5l-0.9-0.4c-1.9-0.9-4.2-0.1-5.1,1.8c-0.9,1.8-0.1,3.9,1.5,5l1.2,0.6l0,0c-1.8,8.9,4.1,17.7,13,19.4
		s17.7-4.1,19.4-13c0.6-2.6,0.4-5.3-0.4-7.9c-0.1-0.6-0.4-1.3-0.7-1.9L48.5,18c0.4-0.1,0.6-0.7,0.4-1.2l-2.9-9.6
		C45.8,6.5,45.8,6.4,45.2,6.6C45.3,6.5,45.3,6.5,45.2,6.6L45.2,6.6z M4,25.9c-0.9-0.4-1.3-1.6-0.9-2.5l0,0c0.4-0.9,1.6-1.3,2.6-0.9
		l0,0l0.6,0.3l-0.6,1c-0.4,0.7-0.7,1.6-1,2.5L4,25.9z"/>
	<path class="st0" d="M23.9,31.3c-0.4,0.1-1-0.1-1.2-0.6l0,0l0,0c-0.3-1.2-1.6-1.9-2.8-1.6c0,0,0,0-0.1,0c-0.4,0.1-1-0.1-1.2-0.6
		c-0.1-0.4,0.1-1,0.6-1.2l0,0c2.2-0.6,4.5,0.6,5.1,2.8v0.1C24.6,30.8,24.4,31.3,23.9,31.3C23.9,31.4,23.9,31.4,23.9,31.3L23.9,31.3z
		"/>
	<path class="st0" d="M20.8,8.1c-0.4,0.1-1-0.1-1.2-0.6l0,0l-1.2-3.7c-0.1-0.6,0.1-1,0.7-1.2c0.6-0.1,1,0.1,1.2,0.7L21.5,7
		C21.7,7.3,21.4,7.9,20.8,8.1z"/>
	<path class="st0" d="M16.3,11.7c-0.3,0.1-0.4,0.1-0.7,0L12.3,10c-0.4-0.3-0.6-0.9-0.4-1.3c0.3-0.4,0.9-0.6,1.3-0.4l0,0l3.4,1.8
		c0.4,0.3,0.6,0.7,0.4,1.3C16.9,11.6,16.6,11.7,16.3,11.7L16.3,11.7z"/>
	<path class="st0" d="M26.8,8.6c-0.4,0.1-1-0.1-1.2-0.6l0,0c-0.1-0.3-0.1-0.4,0-0.7L27.4,4c0.3-0.4,0.9-0.6,1.3-0.3
		C29,4,29.1,4.4,29,4.7l0,0l-1.8,3.2C27.2,8.2,26.9,8.5,26.8,8.6z"/>
	<path class="st0" d="M35.5,11.6c-0.4,0.1-1-0.1-1.2-0.6l0,0c-0.1-0.4,0.1-1,0.6-1.2c0.4-0.1,0.8-0.1,1.1,0.4c0.1,0.3,0.2,0.6,0,0.9
		C36,11.4,35.7,11.6,35.5,11.6z"/>
</g>
</svg>
