<?xml version="1.0" encoding="utf-8"?>
<!-- Generator: Adobe Illustrator 25.4.1, SVG Export Plug-In . SVG Version: 6.00 Build 0)  -->
<svg version="1.1" id="Capa_1" xmlns="http://www.w3.org/2000/svg" xmlns:xlink="http://www.w3.org/1999/xlink" x="0px" y="0px"
	 viewBox="0 0 39.8 25.7" style="enable-background:new 0 0 39.8 25.7;" xml:space="preserve">
<style type="text/css">
	.st0{fill:#00E9C5;}
</style>
<path class="st0" d="M29.3,6l-9.7-5.9c-0.7-0.3-1.7,0-2.4,0.7c0,0.3-0.3,0.7-0.3,0.7v5.9H1.7C0.7,7.4,0,8.1,0,9.1l0,0v7.3
	c0,1,0.7,1.7,1.7,1.7l0,0h15.2V24c0,1,0.7,1.7,1.7,1.7c0.3,0,0.7,0,1-0.3l9.7-5.5l9.7-5.5c0.7-0.3,1-1.7,0.7-2.4
	c0-0.3-0.3-0.3-0.7-0.7L29.3,6z"/>
</svg>
