<?xml version="1.0" encoding="utf-8"?>
<!-- Generator: Adobe Illustrator 25.4.1, SVG Export Plug-In . SVG Version: 6.00 Build 0)  -->
<svg version="1.1" id="Capa_1" xmlns="http://www.w3.org/2000/svg" xmlns:xlink="http://www.w3.org/1999/xlink" x="0px" y="0px"
	 viewBox="0 0 106.7 70.2" style="enable-background:new 0 0 106.7 70.2;" xml:space="preserve">
<style type="text/css">
	.st0{fill:#00E9C5;}
	.st1{fill:none;stroke:#00E9C5;stroke-width:4;stroke-miterlimit:10;}
</style>
<path class="st0" d="M99.1,32.6l-7.3-4.1c-0.5-0.3-1.3,0-1.8,0.5c0,0.3-0.3,0.5-0.3,0.5v4.4H78.3c-0.8,0-1.3,0.5-1.3,1.3l0,0v5.4
	c0,0.8,0.5,1.3,1.3,1.3l0,0h11.4v4.4c0,0.8,0.5,1.3,1.3,1.3c0.3,0,0.5,0,0.5-0.3l7.3-4.1l7.3-4.1c0.5-0.3,0.8-1,0.5-1.8
	c0-0.3-0.3-0.3-0.5-0.5L99.1,32.6z"/>
<g>
	<circle class="st1" cx="35.1" cy="35.1" r="33.1"/>
	<path class="st1" d="M59.6,12.9c0,0-18.5,20.6,0,44.4"/>
	<path class="st1" d="M10.5,12.9c0,0,18.5,20.6,0,44.4"/>
	<line class="st1" x1="35.1" y1="2" x2="35.1" y2="68.2"/>
	<line class="st1" x1="2" y1="35.1" x2="68.2" y2="35.1"/>
</g>
</svg>
