<?xml version="1.0" encoding="utf-8"?>
<!-- Generator: Adobe Illustrator 25.4.1, SVG Export Plug-In . SVG Version: 6.00 Build 0)  -->
<svg version="1.1" id="Capa_1" xmlns="http://www.w3.org/2000/svg" xmlns:xlink="http://www.w3.org/1999/xlink" x="0px" y="0px"
	 viewBox="0 0 35.6 38.7" style="enable-background:new 0 0 35.6 38.7;" xml:space="preserve">
<style type="text/css">
	.st0{fill:#FF3737;}
</style>
<g id="Iconos">
	<path class="st0" d="M4.1,6.3L3.3,5.7c0.2-0.3,0.5-0.6,0.8-0.8l0.5,0.8C4.5,5.8,4.3,6,4.1,6.3z"/>
	<path class="st0" d="M1.1,26.2c-0.2-0.7-0.4-1.4-0.5-2.1l1-0.2c0.1,0.7,0.3,1.3,0.5,2L1.1,26.2z M0.2,22.1C0.1,21.4,0,20.7,0,20
		l1-0.1c0,0.7,0.1,1.4,0.2,2L0.2,22.1z M1,17.8H0c0-0.7,0.1-1.4,0.1-2.1l1,0.1C1,16.5,1,17.2,1,17.8z M1.4,13.8l-1-0.2
		c0.1-0.7,0.3-1.4,0.4-2.1l1,0.2C1.6,12.4,1.5,13.1,1.4,13.8z M2.4,9.8L1.5,9.5c0.2-0.7,0.5-1.3,0.7-2l0.9,0.4
		C2.8,8.5,2.6,9.2,2.4,9.8z"/>
	<path class="st0" d="M2.2,29.2c-0.1-0.3-0.3-0.6-0.4-0.9l0.9-0.4c0.1,0.3,0.2,0.6,0.4,0.9L2.2,29.2z"/>
	<polygon class="st0" points="2.7,28.8 1.1,29.5 2.5,30.6 3.9,31.6 4.1,29.9 4.3,28.1 	"/>
	<path class="st0" d="M21,14.9c-1.5,0-3-0.6-4.1-1.7s-1.7-2.6-1.7-4.1c0-3.1,2.5-5.7,5.6-5.8c3.2-0.1,5.9,2.5,6,5.7l0,0l0,0
		c0.1,3.2-2.4,5.8-5.6,5.9C21.2,14.9,21.1,14.9,21,14.9L21,14.9z M21,4.7h-0.1c-2.4,0.1-4.2,2-4.2,4.4c0,1.2,0.4,2.3,1.3,3.1
		c1.7,1.7,4.5,1.7,6.2,0c0.8-0.8,1.3-2,1.3-3.1l0,0c0-1.2-0.5-2.3-1.4-3.1C23.1,5.2,22.1,4.7,21,4.7L21,4.7z"/>
	<path class="st0" d="M4.6,6.8c0.8,3,1.8,5.9,3.1,8.7c0.6,1.2,1.4,2.4,2.3,3.4c0.3-0.4,0.7-0.7,1.1-1C10.2,17,9.5,16,9,14.9
		c-1.2-2.8-2.2-5.6-3-8.5C5.7,5.5,5.5,4.7,5.2,3.8C5,3.3,5,2.7,5.2,2.1c0.2-0.3,0.6-0.5,0.9-0.6c1-0.2,1.4,0.2,1.8,1.8l0.5,1.8
		c0.7,2.8,1.7,5.5,2.8,8.1c0.5,1.2,1.3,2.3,2.4,3.1c0.7-0.3,1.3-0.5,2-0.7c-1.4-0.4-2.6-1.5-3.1-3c-1.1-2.6-2-5.2-2.7-7.9L9.3,2.9
		C9,1.8,8.3-0.4,5.8,0.1C5,0.2,4.3,0.7,3.9,1.4C3.5,2.3,3.4,3.3,3.8,4.2C4.1,5.1,4.3,6,4.6,6.8z"/>
	<path class="st0" d="M22,17.5c7,0,10.2,1.2,11.4,8.2c0.4,2.3,0.5,4.6,0.7,6.9c0.1,0.8,0.1,1.7,0.2,2.6c0.1,0.5,0,1.1-0.4,1.6
		c-0.3,0.3-0.6,0.4-1,0.4l0,0c-0.7,0-1.4-0.1-1.5-2c-0.1-2-0.2-4.1-0.4-6.1l-0.2-2.7c-0.2-1-1.1-1.7-2.1-1.7h-0.1
		c-1,0-1.8,0.8-1.8,1.8v0.1c0.1,1.3,0.2,3.6,0.2,5.8c0,1.8,0.1,3.7,0.2,5h-11c0-2.1,0-5,0.1-7.8c0-1.1,0-2.2,0-3.2
		c-0.1-1-0.9-1.8-1.9-1.8h-0.1c-0.9,0-1.4,0.6-2.1,1.7c-1.2,1.9-3.7,6.5-4.6,8.3c-0.7,1.3-1.4,1.8-1.9,1.8c-0.2,0-0.4-0.1-0.5-0.2
		c-0.4-0.4-0.7-1-0.6-1.6c0.2-1.1,3.3-7.2,4.2-9.3C11.2,19.5,14.2,17.5,22,17.5L22,17.5 M21.9,16.1L21.9,16.1
		c-8.1,0-11.7,2.2-14.4,8.8c-0.3,0.8-1,2.2-1.7,3.6c-1,1.9-1.9,3.9-2.6,6c-0.2,1.1,0.3,2.3,1.2,3c0.4,0.3,0.8,0.4,1.3,0.4
		c1.2,0,2.3-0.9,3.2-2.5c0.9-1.7,3.4-6.4,4.5-8.2c0.5-0.7,0.8-1.1,0.9-1.1c0.3,0,0.5,0.2,0.6,0.5v2.8v0.7c0,2.6-0.1,5.3-0.1,7.3v1.3
		h13.8l-0.1-1.5c-0.1-1.3-0.1-3.2-0.2-5c-0.1-2.2-0.1-4.5-0.2-5.8c0-0.3,0.2-0.5,0.5-0.5s0.6,0.2,0.7,0.5l0.2,2.5
		c0.1,2,0.3,4.1,0.4,6.1c0.1,2.8,1.6,3.4,2.9,3.4h0.1c0.8,0,1.5-0.3,2-0.8c0.6-0.7,0.8-1.7,0.7-2.6c-0.1-0.8-0.1-1.7-0.2-2.5
		c-0.2-2.3-0.3-4.7-0.7-7C33.4,17.5,29.3,16,21.9,16.1L21.9,16.1z"/>
</g>
</svg>
