<?xml version="1.0" encoding="utf-8"?>
<!-- Generator: Adobe Illustrator 25.4.1, SVG Export Plug-In . SVG Version: 6.00 Build 0)  -->
<svg version="1.1" id="Capa_1" xmlns="http://www.w3.org/2000/svg" xmlns:xlink="http://www.w3.org/1999/xlink" x="0px" y="0px"
	 viewBox="0 0 50 50" style="enable-background:new 0 0 50 50;" xml:space="preserve">
<style type="text/css">
	.st0{fill:#00E9C5;}
	.st1{fill:none;stroke:#00E9C5;stroke-width:0.25;stroke-miterlimit:10;}
</style>
<g id="Iconos">
	<path class="st0" d="M25.1,18.1c1.6,0.2,3.2-0.9,3.4-2.6s-0.9-3.2-2.6-3.4s-3.2,0.9-3.4,2.6c0,0,0,0,0,0.1
		C22.4,16.4,23.5,17.9,25.1,18.1z M23.3,14.9c0.2-1.2,1.2-2,2.4-1.9c1.2,0.2,2,1.2,1.9,2.4c-0.2,1.2-1.2,2-2.4,1.9
		C24,17.1,23.2,16.1,23.3,14.9z"/>
	<path class="st0" d="M33.1,25c-0.8-1.2-2.1-2.9-3.2-4.2L29.2,20c-0.5-0.5-1.1-0.8-1.8-0.9c-1.3-0.2-2.6,0.1-3.7,0.9l-1.8,1.4
		c-0.1,0.1-0.2,0.1-0.2,0.1c-0.1,0-0.1,0-0.1-0.1l-2.4-1.8c-0.2-0.2-0.5-0.2-0.7-0.3c-0.3-0.1-0.6,0-0.9,0.2
		c-0.4,0.3-0.7,0.7-0.8,1.2c0,1.1,1.3,1.9,1.4,2s1.7,1.2,1.7,1.2l1,0.8c0.2,0.2,0.5,0.3,0.7,0.3c0.4,0,0.8,0,1.1-0.3l1.1-0.8v2.3
		c-0.1,0.3-0.5,0.8-0.8,1.3c-1.6,2.6-1.7,2.8-1.6,3.2l0.7,5.4v0.1c0.1,0.8,0.8,1.4,1.5,1.5c0.2,0,0.4,0,0.5,0c0.9-0.2,1.6-1,1.5-2
		L25,31.2c0.2-0.3,0.5-0.8,1-1.3c0.1,1.9,0.2,2,0.4,2.3l3.6,4.1l0,0l0,0c0.7,0.7,1.8,0.7,2.5,0s0.7-1.8,0-2.5l-3-3.3
		c0-1,0-2,0.1-2.9v-0.1c0-0.4,0-0.8,0-1.2l-0.3-1.9c0.9,1.1,1.8,2.4,2.1,2.6c0.2,0.3,0.6,0.4,0.9,0.5c0.3,0,0.7-0.1,0.9-0.3
		C33.5,27,34,26.3,33.1,25z M32.6,26.6c-0.1,0.1-0.2,0.1-0.3,0.1c-0.2,0-0.3-0.1-0.4-0.3c-0.5-0.5-3.5-4.6-3.5-4.6h-0.1
		c-0.1,0-0.1,0-0.2,0.1c0,0.1,0,0.2,0,0.2l0.7,4.3v1c0,0-0.3,3.2,0,3.4l3.2,3.5c0.4,0.4,0.4,1,0,1.4c-0.2,0.2-0.5,0.3-0.8,0.3
		c-0.2,0-0.4-0.1-0.6-0.3l0,0L27,31.6c-0.2-1-0.3-2.1-0.3-3.2c-0.1,0-0.2-0.1-0.3-0.1c-0.1,0-0.2,0-0.3,0c0,0-2.1,2.4-2,2.8l0.6,4.7
		c0.1,0.5-0.3,1-0.9,1.1c-0.1,0-0.1,0-0.2,0c-0.4-0.1-0.8-0.4-0.9-0.8l0,0l-0.6-5.5c0-0.3,2.4-4,2.4-4.2v-3.2c0-0.2-0.2-0.4-0.4-0.4
		l0,0c-0.1,0-0.2,0-0.2,0.1L22.2,24c-0.1,0.1-0.3,0.2-0.5,0.1c-0.1,0-0.2-0.1-0.3-0.1L19,22.3l-0.9-0.7c-0.7-0.6-0.9-1-0.5-1.4
		c0.3-0.2,0.7-0.2,1,0L21,22c0.2,0.1,0.3,0.2,0.5,0.2c0.3,0,0.6-0.1,0.9-0.2l1.8-1.4c0.9-0.6,2-0.8,3.1-0.7c0.5,0,0.9,0.2,1.3,0.6
		c1.1,1.4,3,3.5,3.9,5C32.8,25.9,32.9,26.4,32.6,26.6z"/>
	<path class="st0" d="M8.2,23.8l-1.7-1c-0.1-0.1-0.3,0-0.4,0.1V23v1H1.7c-0.2,0-0.3,0.1-0.3,0.3l0,0v1.3c0,0.2,0.1,0.3,0.3,0.3l0,0
		h4.4v1c0,0.2,0.1,0.3,0.3,0.3h0.1l1.7-1l1.7-1c0.1-0.1,0.2-0.3,0.1-0.4l-0.1-0.1L8.2,23.8z"/>
	<path class="st0" d="M12.3,36l-1.9,0.5c-0.2,0-0.2,0.2-0.2,0.4c0,0,0,0.1,0.1,0.1l0.7,0.7l-3.1,3.1c-0.1,0.1-0.1,0.3,0,0.4l0,0
		l0.9,0.9c0.1,0.1,0.3,0.1,0.4,0l0,0l3.1-3.1l0.7,0.7c0.1,0.1,0.3,0.1,0.4,0l0.1-0.1l0.5-1.9l0.5-1.9c0-0.2-0.1-0.3-0.2-0.4h-0.1
		L12.3,36z"/>
	<path class="st0" d="M23.8,41.8l-1,1.7c-0.1,0.1,0,0.3,0.1,0.4H23h1v4.4c0,0.2,0.1,0.3,0.3,0.3l0,0h1.3c0.2,0,0.3-0.1,0.3-0.3l0,0
		v-4.4h1c0.2,0,0.3-0.1,0.3-0.3v-0.1l-1-1.7l-1-1.7C25,40,24.9,39.9,24.7,40l-0.1,0.1L23.8,41.8z"/>
	<path class="st0" d="M36,37.7l0.5,1.9c0,0.2,0.2,0.2,0.4,0.2c0,0,0.1,0,0.1-0.1l0.7-0.7l3.1,3.1c0.1,0.1,0.3,0.1,0.4,0l0,0l0.9-0.9
		c0.1-0.1,0.1-0.3,0-0.4l0,0L39,37.7l0.7-0.7c0.1-0.1,0.1-0.3,0-0.4l-0.1-0.1L37.7,36l-1.9-0.5c-0.2,0-0.3,0.1-0.4,0.2v0.1L36,37.7z
		"/>
	<path class="st0" d="M41.8,26.2l1.7,1c0.1,0.1,0.3,0,0.4-0.1V27v-1h4.4c0.2,0,0.3-0.1,0.3-0.3l0,0v-1.3c0-0.2-0.1-0.3-0.3-0.3l0,0
		h-4.4v-1c0-0.2-0.1-0.3-0.3-0.3h-0.1l-1.7,1l-1.7,1c-0.1,0.1-0.2,0.3-0.1,0.4l0.1,0.1L41.8,26.2z"/>
	<path class="st0" d="M37.7,14l1.9-0.5c0.2,0,0.2-0.2,0.2-0.4c0,0,0-0.1-0.1-0.1L39,12.3l3.1-3.1c0.1-0.1,0.1-0.3,0-0.4l0,0
		l-0.9-0.9c-0.1-0.1-0.3-0.1-0.4,0l0,0L37.7,11L37,10.3c-0.1-0.1-0.3-0.1-0.4,0l-0.1,0.1L36,12.3l-0.5,1.9c0,0.2,0.1,0.3,0.2,0.4
		h0.1L37.7,14z"/>
	<path class="st0" d="M26.2,8.2l1-1.7c0.1-0.1,0-0.3-0.1-0.4H27h-1V1.7c0-0.2-0.1-0.3-0.3-0.3l0,0h-1.3c-0.2,0-0.3,0.1-0.3,0.3l0,0
		v4.4h-1c-0.2,0-0.3,0.1-0.3,0.3v0.1l1,1.7l1,1.7c0.1,0.1,0.3,0.2,0.4,0.1l0.1-0.1L26.2,8.2z"/>
	<path class="st0" d="M14,12.3l-0.5-1.9c0-0.2-0.2-0.2-0.4-0.2c0,0-0.1,0-0.1,0.1L12.3,11L9.2,7.9c-0.1-0.1-0.3-0.1-0.4,0l0,0
		L7.9,8.8c-0.1,0.1-0.1,0.3,0,0.4l0,0l3.1,3.1L10.3,13c-0.1,0.1-0.1,0.3,0,0.4l0.1,0.1l1.9,0.5l1.9,0.5c0.2,0,0.3-0.1,0.4-0.2v-0.1
		L14,12.3z"/>
</g>
<g>
	<circle class="st1" cx="16" cy="18.2" r="2.3"/>
	<path class="st1" d="M17.4,16.3c0,0-0.9,1.7,0.7,3"/>
	<path class="st1" d="M14,17.1c0,0,1.6,1.1,0.7,3"/>
	<line class="st1" x1="15.5" y1="16" x2="16.6" y2="20.5"/>
	<line class="st1" x1="13.8" y1="18.8" x2="18.3" y2="17.7"/>
</g>
</svg>
