<?xml version="1.0" encoding="utf-8"?>
<!-- Generator: Adobe Illustrator 25.4.1, SVG Export Plug-In . SVG Version: 6.00 Build 0)  -->
<svg version="1.1" id="Capa_1" xmlns="http://www.w3.org/2000/svg" xmlns:xlink="http://www.w3.org/1999/xlink" x="0px" y="0px"
	 viewBox="0 0 50 50" style="enable-background:new 0 0 50 50;" xml:space="preserve">
<style type="text/css">
	.st0{fill:#00E9C5;}
</style>
<g id="Iconos">
	<rect x="39.7" y="43.6" class="st0" width="2.1" height="3.1"/>
	<rect x="9" y="43.6" class="st0" width="2.1" height="3.1"/>
	<rect x="33.6" y="39.5" class="st0" width="1" height="1"/>
	<rect x="33.6" y="42.6" class="st0" width="1" height="3.1"/>
	<rect x="16.1" y="39.5" class="st0" width="1" height="1"/>
	<rect x="16.1" y="42.6" class="st0" width="1" height="3.1"/>
	<rect x="39.7" y="48.8" class="st0" width="2.1" height="1"/>
	<rect x="9" y="48.8" class="st0" width="2.1" height="1"/>
	<path class="st0" d="M39.2,8c-0.4-0.6-0.7-1-1.1-1.7L37.8,6l-0.3-0.3L37,5.1c-0.6-0.6-1.1-1.2-1.9-1.8l-0.5-0.4l-0.4-0.3L34,2.5
		c-2.2-1.4-4.5-2.3-7.1-2.4L26.3,0l-0.5,0l0,0l-0.3,0h-0.9c-2.4,0.1-4.8,0.7-7,1.9c-1.8,1-3.5,2.3-4.8,3.9c-1,1.2-1.9,2.6-2.6,4.1
		L10.2,10l-0.1,0.3c-0.1,0.5-0.4,0.9-0.5,1.4C9.2,12.8,9,14,8.9,15.2c0,0.3,0,0.6,0,0.9v25.4h1.7V23.3l0.1,0.4
		c0.8,1.5,1.8,2.8,3.1,4.1c0.4,0.4,0.6,0.6,1,0.9l0,0l0.4,0.3l0.4,0.3v8.1h2.1v-6.9l0.6,0.3c0.8,0.4,1.7,0.8,2.4,1
		c0.5,0.1,1,0.3,1.5,0.4c0.5,0.1,1.2,0.1,1.7,0.3h0.1h0.3h0.1V46h1.7V32.2h0.1l1-0.1l1.2-0.1c0.5-0.1,1-0.3,1.5-0.4l0.4-0.1l0,0
		l0.5-0.1c0.8-0.3,1.4-0.6,2.2-1v7.1h1.7v-8.1c0.5-0.4,1-0.8,1.4-1.2l0.1-0.1l0.4-0.4c0.4-0.4,0.8-0.8,1.2-1.3l0.1-0.1l0.1-0.1
		l0.3-0.3c0.6-0.8,1.2-1.7,1.7-2.6v18.4h1.4l0,0l-0.1-26.3c0-0.3,0-0.3,0-0.7c-0.1-0.9-0.3-1.9-0.5-2.8c-0.1-0.6-0.4-1.3-0.6-1.9
		 M39.9,9.2 M32.2,19c0.4,2.6,1.5,5,3.2,7.1c-0.9,1.3-3.3,2.8-5.8,3.6c-0.6,0.3-1.3,0.4-2.1,0.5c-0.4,0.1-0.9,0.1-1.3,0.1V17.2H32
		c0,0,0,0,0,0.1C32,17.8,32,18.5,32.2,19z M15.1,26.2c1.7-2.1,2.7-4.5,3.2-7.2c0.1-0.6,0.1-1.2,0.3-1.8V17h5.8v13.1
		c-0.4,0-0.9,0-1.3-0.1c-0.6-0.1-1.4-0.3-2.1-0.5C18.8,29,16.7,27.8,15.1,26.2z M12.8,23.1c-0.4-0.6-0.6-1.3-0.9-1.9
		c-0.5-1.3-0.8-2.6-0.9-3.9v-0.1h5.5v0.4c0,0.5-0.1,1.2-0.3,1.7c-0.4,1.9-1.3,3.9-2.4,5.4C13.5,24.1,13.1,23.6,12.8,23.1L12.8,23.1z
		 M14.4,8.4c1.3,2.1,2.1,4.4,2.2,6.8h-5.5v-0.1c0.1-2.3,0.9-4.6,2.3-6.7c0.1-0.3,0.4-0.5,0.5-0.8C14,7.9,14.3,8.2,14.4,8.4L14.4,8.4
		z M31.9,15.2h-5.8V1.9C27.8,2,29.5,2.5,31,3.2c0.8,0.4,1.4,0.6,2.1,1c0.9,0.5,1.7,1.2,2.3,1.9c-0.1,0.3-0.3,0.4-0.4,0.6
		c-0.4,0.5-0.8,1.2-1,1.8C32.8,10.5,32.2,12.8,31.9,15.2L31.9,15.2z M36,8.4c0.1-0.3,0.4-0.5,0.5-0.8c0.3,0.3,0.4,0.5,0.5,0.8
		c1.3,1.9,2.1,4.2,2.3,6.6v0.1h-5.7C34,12.8,34.7,10.5,36,8.4L36,8.4z M15.1,6c0.8-0.6,1.5-1.3,2.3-1.9c0.9-0.6,2-1.2,2.4-1.3
		l0.5-0.2c1.5-0.6,2.5-0.6,4-0.6v13.2h-5.7c-0.1-1.7-0.4-3.2-1-4.8c-0.3-0.6-0.5-1.3-0.9-1.9 M37.7,23.1c-0.3,0.5-0.6,1.2-1,1.7
		c-1.2-1.7-2.1-3.5-2.4-5.4c-0.1-0.6-0.3-1.2-0.3-1.8c0-0.1,0-0.3,0-0.4h5.5c0,0,0,0,0,0.1c-0.1,1.3-0.4,2.6-0.9,3.9
		C38.3,21.7,38.1,22.4,37.7,23.1z"/>
</g>
</svg>
