<?xml version="1.0" encoding="utf-8"?>
<!-- Generator: Adobe Illustrator 25.4.1, SVG Export Plug-In . SVG Version: 6.00 Build 0)  -->
<svg version="1.1" id="Arreglo" xmlns="http://www.w3.org/2000/svg" xmlns:xlink="http://www.w3.org/1999/xlink" x="0px" y="0px"
	 viewBox="0 0 34.6 32.6" style="enable-background:new 0 0 34.6 32.6;" xml:space="preserve">
<style type="text/css">
	.st0{fill:#FF3737;}
	.st1{enable-background:new    ;}
</style>
<path class="st0" d="M2.5,10.4V1.7c0-0.3,0.3-0.6,0.6-0.6h29.8c0.3,0,0.6,0.3,0.6,0.6V21c0,0.3-0.3,0.6-0.6,0.6h-7
	c-0.3,0.1-0.4,0.4-0.4,0.6c0,0.2,0.2,0.3,0.4,0.4h7c0.9,0,1.7-0.7,1.7-1.6l0,0V1.6c0-0.9-0.7-1.6-1.7-1.6l0,0H3.1
	C2.2,0,1.5,0.7,1.5,1.6l-0.1,9.3"/>
<path class="st0" d="M1.4,18.3V21c0,0.9,0.7,1.7,1.6,1.7l0,0h7c0.3-0.1,0.4-0.4,0.4-0.6c0-0.2-0.2-0.3-0.4-0.4H3
	c-0.3,0-0.6-0.3-0.6-0.6v-2.3"/>
<path class="st0" d="M25.4,18.6H10.6c-0.4,0-0.8,0.4-0.8,0.8c0,0.4,0.4,0.8,0.8,0.8h14.8c0.4,0,0.8-0.4,0.8-0.8
	C26.2,18.9,25.9,18.6,25.4,18.6z"/>
<g class="st1">
	<path class="st0" d="M28.4,12.8c-0.7,0-3.4-0.2-3.4-1.1c0-0.3,0.1-0.6,0.2-0.9c0.1-0.3,0.3-0.5,0.6-0.5c0.1,0,0.2,0,0.3,0
		c0.8,0.2,1.5,0.5,2.3,0.5c0.9,0,1.1-0.3,1.1-1.2c0-0.8-0.4-1-1.2-1c-0.6,0-1.2,0-1.8,0c-0.8,0-0.7-0.7-0.7-1.2
		c0-0.4,0.3-0.6,0.7-0.6h0.9c1.2,0,1.6,0,1.6-1.3c0-0.8-0.4-0.9-1.2-0.9c-0.4,0-0.8,0-1.2,0.1c-0.2,0-0.5,0.1-0.7,0.1
		c-0.7,0-0.6-0.7-0.7-1.2c0,0,0-0.1,0-0.1c0-0.2,0.1-0.4,0.3-0.5C26,2.8,27.6,2.7,28,2.7c1.9,0,3.4,0.5,3.4,2.6c0,0.8-0.2,1.4-0.7,2
		c0.9,0.5,1.1,1.3,1.1,2.3C31.8,11.9,30.5,12.8,28.4,12.8z"/>
</g>
<path class="st0" d="M5.4,20.9c-0.4,0-1-0.2-1.3-0.3c-1.5-0.6-2.8-1.7-3.5-3.2c-1.4-2.9-0.4-6.5,2.4-8.2C4.5,8.3,6.2,8,7.9,8.4
	c1.2,0.3,2.5,1.1,3.3,2.1c1,1.1,1.8,3.2,1.5,4.7c0,0.7,0-0.2,0,0l0,0.2c0,0.3,0,0-0.1,0.6c-0.7,2.7-3.3,4.9-6.1,4.9
	C6.3,20.9,5.6,20.9,5.4,20.9 M5.9,20.2c1.4,0.1,2.7-0.3,3.8-1.1c-0.6-1.1-0.9-2.4-0.8-3.7L6.7,15L5.9,20.2z M6,14.2l0.8-5.1
	C5.4,9,4.1,9.3,3,10.2c0.4,0.6,0.6,1.3,0.7,1.9c0.1,0.6,0.1,1.1,0.1,1.7L6,14.2z M7.6,9.2l-0.8,5.1L9,14.7c0.3-1.3,0.9-2.4,1.9-3.3
	C10.1,10.2,9,9.4,7.6,9.2L7.6,9.2z M5.9,14.9l-2.2-0.4c-0.3,1.3-0.9,2.4-1.9,3.3c0.8,1.1,2,1.9,3.3,2.2L5.9,14.9z M11.3,12
	c-0.8,0.8-1.3,1.7-1.5,2.8l2.2,0.4C12.1,14,11.8,12.9,11.3,12z M0.8,14.1c-0.1,1.1,0.1,2.2,0.6,3.1c0.8-0.8,1.3-1.7,1.6-2.8
	L0.8,14.1z M3.1,13.7c0.1-1.1-0.1-2.2-0.6-3.1c-0.8,0.8-1.3,1.7-1.6,2.8L3.1,13.7z M10.3,18.6c0.8-0.8,1.3-1.7,1.6-2.8l-2.2-0.4
	C9.6,16.6,9.8,17.7,10.3,18.6z"/>
<path class="st0" d="M12.3,21.6l-0.3-1h-0.6c1.2,3.5,1.8,7.3,1.8,11v0.1l0.1,0.1c0.4,0.4,0.9,0.6,1.5,0.6c0.4,0,0.9-0.1,1.3-0.4
	l0.1-0.1l0.1,0.1c0.4,0.4,1,0.6,1.6,0.6c0.7,0,1.4-0.2,1.9-0.7l0.1-0.1l0.1,0.1c0.4,0.3,0.8,0.4,1.3,0.4c0.6,0,1.1-0.2,1.5-0.6
	l0.1-0.1v-0.1c0-3.7,0.6-7.3,1.8-10.8l-0.7,0l0,0c-0.1,0.2-0.1,0.4-0.2,0.6l-0.1,0.3h-3v-0.4c0-0.2,0-0.4,0-0.5l-0.5,0
	c0,0,0,0.9,0,0.6v0.3h-4.3l-0.1-0.8c0-0.2,0.1,0.1,0-0.1h-0.5c0,0.2,0.1,1.2,0.2,1.3l-0.1-0.4H12.3 M12.6,22.2h2.8v0.3
	c0.1,1.1,0.2,2.2,0.3,3.2l0,0.2h-2.5l0,0c-0.2-1-0.4-2.3-0.6-3.4L12.6,22.2z M15.9,30.2c0,0.4,0,0.8,0,1.2v0.1l-0.1,0.1
	c-0.3,0.3-0.7,0.4-1.1,0.4s-0.7-0.1-1-0.3l-0.1-0.1v-0.2c0-0.4,0-0.8,0-1.2V30h2.3L15.9,30.2z M15.9,29.3v0.3h-2.4l0-0.3
	c0-0.8,0-2-0.2-2.9h-0.1h2.5l0,0C15.9,27.4,15.9,28.5,15.9,29.3L15.9,29.3z M19.6,31.6c-0.5,0.4-1,0.6-1.6,0.6h-0.1
	c-0.5,0-1-0.2-1.4-0.6l-0.1-0.1v-0.1c0-0.4,0-0.8,0-1.2V30h3.3v0.2c0,0.4,0,0.8,0,1.2L19.6,31.6L19.6,31.6z M16.3,26.4h3.5v0.4
	c0,0.9-0.1,1.8-0.1,2.6v0.2h-3.3v-0.2c0-0.8,0-1.7-0.1-2.6L16.3,26.4z M20.1,22.5c-0.1,1.1-0.1,1.1-0.2,2.1l-0.1,1.3h-3.6l0-0.3
	c-0.1-1-0.2-2-0.3-3.1v-0.3h4.2L20.1,22.5z M20.1,29.7c0-0.8,0.2-2.1,0.2-3l0-0.3h2.5l0,0.3c-0.1,0.9-0.2,1.8-0.3,2.6l0,0.3
	L20.1,29.7L20.1,29.7z M22.3,31.6c-0.3,0.2-0.6,0.3-1,0.3s-0.8-0.2-1.1-0.4l-0.1-0.1l0,0c0-0.4,0-0.8,0-1.2V30h2.3v0.2
	c0,0.4,0,0.8,0,1.2L22.3,31.6L22.3,31.6z M23.5,22.6c-0.3,1-0.6,2-0.7,3l-0.1,0.4l-2.5-0.1v-0.2c0.1-1,0.2-2.1,0.3-3.1l0-0.4h3
	L23.5,22.6z"/>
</svg>
