<?xml version="1.0" encoding="utf-8"?>
<!-- Generator: Adobe Illustrator 25.4.1, SVG Export Plug-In . SVG Version: 6.00 Build 0)  -->
<svg version="1.1" id="Capa_1" xmlns="http://www.w3.org/2000/svg" xmlns:xlink="http://www.w3.org/1999/xlink" x="0px" y="0px"
	 viewBox="0 0 31.2 41.2" style="enable-background:new 0 0 31.2 41.2;" xml:space="preserve">
<style type="text/css">
	.st0{fill:#050B3D;}
</style>
<g id="Iconos">
	<path class="st0" d="M2.9,41.1c-0.7-0.1-1.3-0.4-1.8-0.9c-0.6-0.6-1-1.3-1.1-2.2c0-0.2,0-0.5,0-0.7C0,27.2,0,17.2,0,7.1
		c-0.1-1.4,0.7-2.8,2-3.3c0.4-0.2,1-0.3,1.6-0.3c1.3-0.1,2.5,0,3.8,0c0.2,0,0.4-0.1,0.5-0.3C8.3,2.5,9,2.1,9.8,2.1
		c0.5,0,1.1,0,1.6,0c0.6,0,1.2-0.3,1.6-0.8c1.1-1.5,3.2-1.7,4.7-0.6c0.2,0.2,0.4,0.4,0.6,0.6c0.4,0.5,1,0.8,1.6,0.8
		c0.5,0,1.1,0,1.6,0c0.7,0,1.4,0.4,1.8,1.1c0.1,0.2,0.3,0.3,0.5,0.3c1.4,0,2.8,0,4.2,0c1.7,0.1,3.1,1.4,3.2,3.2c0,0.2,0,0.3,0,0.5
		c0,10.1,0,20.2,0,30.3c0.1,1.4-0.7,2.7-1.9,3.3c-0.3,0.1-0.7,0.3-1,0.4L2.9,41.1z M23.9,7.6c0,0.2,0,0.3,0,0.4c0,0.6-0.3,1-1,1
		c-1.3,0-2.6,0-4,0H8.2C7.8,9.1,7.4,8.8,7.3,8.4c0-0.1,0-0.1,0-0.2c0-0.2,0-0.3,0-0.6l0,0V4.9H6.9H3.6C2.5,4.8,1.4,5.6,1.3,6.7
		c0,0.2,0,0.3,0,0.5c0,10.1,0,20.2,0,30.3c-0.1,1.1,0.7,2.2,1.8,2.3c0.1,0,0.3,0,0.4,0h24.2c1.1,0.1,2.1-0.7,2.3-1.9
		c0-0.1,0-0.3,0-0.4V7.1C30.1,6,29.2,5,28.1,4.9c-0.1,0-0.2,0-0.3,0h-3.5H24L23.9,7.6L23.9,7.6z M22.4,7.6v-3c0.1-0.5-0.3-1-0.9-1.1
		c-0.1,0-0.1,0-0.2,0h-1.5c-1,0-1.9-0.4-2.5-1.2c-0.6-0.9-1.8-1.2-2.8-0.6c-0.2,0.2-0.4,0.3-0.6,0.6c-0.6,0.8-1.5,1.2-2.5,1.2
		c-0.5,0-1.1,0-1.6,0s-0.9,0.3-1,0.8c0,1.1,0,2.2,0,3.3H22.4z"/>
	<path class="st0" d="M20,15.7c-0.5,0.5-0.9,1-1.4,1.4c-0.2,0.3-0.7,0.4-1,0.2c-0.5-0.3-0.5-0.9-0.1-1.3c0.8-0.9,1.7-1.7,2.5-2.5
		c1-1,1.1-1,2.1,0c0.9,0.9,1.7,1.7,2.6,2.6c0.3,0.2,0.4,0.7,0.2,1c-0.1,0.3-0.5,0.5-0.9,0.4c-0.2-0.1-0.4-0.2-0.5-0.4
		c-0.6-0.5-1.1-1.1-1.7-1.7c-0.1,0.5-0.2,0.8-0.3,1.2c-1.1,4.7-4.9,8.3-9.7,9.3c-0.8,0.2-1.6,0.2-2.4,0.3C9,26.3,8.6,26,8.5,25.6
		v-0.1c0-0.4,0.4-0.8,0.8-0.8c0,0,0,0,0.1,0c1.3,0,2.7-0.3,3.9-0.8c3.4-1.3,6-4.3,6.8-7.9L20,15.7z"/>
	<path class="st0" d="M8.5,14l2-2l0.4-0.4c0.5-0.5,0.9-0.6,1.3-0.2s0.3,0.8-0.2,1.3l-2.4,2.5c0.3,0.3,0.6,0.5,0.9,0.8
		c0.6,0.5,1.1,1.1,1.7,1.7c0.3,0.3,0.4,0.7,0.1,1.1l-0.1,0.1c-0.3,0.3-0.8,0.3-1.1,0l0,0c-0.8-0.8-1.7-1.7-2.5-2.5l-1.7,1.7
		c-0.2,0.3-0.5,0.5-0.7,0.7c-0.5,0.5-0.9,0.5-1.3,0.2S4.6,18,5,17.6c0.6-0.6,1.2-1.2,1.8-1.8c0.2-0.2,0.5-0.4,0.7-0.6l-2.4-2.4
		c-0.1-0.1-0.3-0.3-0.4-0.4c-0.2-0.3-0.2-0.8,0.1-1c0.2-0.3,0.6-0.3,0.9-0.1c0.3,0.2,0.5,0.4,0.7,0.6L8.5,14z"/>
	<path class="st0" d="M9.3,30.1c1.7,0,3.1,1.4,3.1,3.1c0,1.7-1.4,3.1-3.1,3.1s-3.1-1.4-3.1-3.1C6.2,31.5,7.6,30.1,9.3,30.1L9.3,30.1
		z M9.4,31.6c-0.9,0-1.6,0.6-1.6,1.5s0.6,1.6,1.5,1.6l0,0c0.9,0,1.6-0.6,1.6-1.5C10.9,32.4,10.3,31.6,9.4,31.6z"/>
	<path class="st0" d="M21.9,23.8c1.7,0,3.1,1.4,3.1,3.1c0,1.7-1.4,3.1-3.1,3.1c-1.7,0-3.1-1.4-3.1-3.2
		C18.8,25.2,20.2,23.8,21.9,23.8z M23.4,26.9c0-0.8-0.7-1.5-1.5-1.6l0,0c-0.9,0-1.6,0.6-1.6,1.5l0,0c0,0.9,0.7,1.6,1.6,1.6
		C22.7,28.5,23.4,27.8,23.4,26.9z"/>
	<path class="st0" d="M24.2,36.6c-0.3,0.4-0.6,0.7-0.9,1C23,38,22.5,38,22.2,37.8l-0.1-0.1c-0.3-0.3-0.3-0.8,0-1.1l0.1-0.1
		c0.3-0.3,0.6-0.6,1-0.9c-0.4-0.4-0.7-0.7-1-1c-0.3-0.2-0.4-0.7-0.2-1.1l0.1-0.1c0.3-0.3,0.8-0.3,1.1,0l0.1,0.1
		c0.3,0.3,0.6,0.6,0.9,1c0.3-0.4,0.6-0.7,0.9-1c0.3-0.3,0.8-0.4,1.1-0.2c0,0,0.1,0,0.1,0.1c0.3,0.3,0.3,0.8,0,1.1c0,0,0,0-0.1,0
		L25.7,35l-0.4,0.6c0.4,0.3,0.7,0.6,1,0.9c0.4,0.2,0.4,0.7,0.2,1.1s-0.7,0.4-1.1,0.2c-0.1-0.1-0.1-0.1-0.2-0.2
		C24.9,37.3,24.6,36.9,24.2,36.6z"/>
	<path class="st0" d="M15.6,6.6h-0.5c-0.6,0-1.1-0.4-1.2-1c0,0,0,0,0-0.1c0-0.4,0-0.9,0-1.3c0.1-0.6,0.5-1,1.1-1h1.2
		c0.6,0,1.1,0.4,1.1,1c0,0.4,0,0.9,0,1.3c0,0.6-0.5,1.1-1.1,1.1c0,0,0,0-0.1,0H15.6z M14.6,3.8v2.1h2V3.8H14.6z"/>
</g>
</svg>
